<?xml version="1.0" standalone="no"?>
<!DOCTYPE svg PUBLIC "-//W3C//DTD SVG 1.1//EN" "http://www.w3.org/Graphics/SVG/1.1/DTD/svg11.dtd" >
<svg xmlns="http://www.w3.org/2000/svg">
<metadata></metadata>
<defs>
<font id="europabold" horiz-adv-x="1064" >
<font-face units-per-em="2048" ascent="1548" descent="-500" />
<missing-glyph horiz-adv-x="602" />
<glyph horiz-adv-x="0" />
<glyph horiz-adv-x="682" />
<glyph unicode=" "  horiz-adv-x="602" />
<glyph unicode="&#x09;" horiz-adv-x="602" />
<glyph unicode="&#xa0;" horiz-adv-x="602" />
<glyph unicode="!" horiz-adv-x="626" d="M152 137q0 68 47 115t114 47q68 0 115 -47t47 -115q0 -67 -47 -114q-48 -48 -115 -48q-66 0 -114 48q-47 47 -47 114zM186 1434h254l-10 -1024h-233z" />
<glyph unicode="&#x22;" horiz-adv-x="819" d="M123 926v508h217v-508h-217zM479 926v508h217v-508h-217z" />
<glyph unicode="#" horiz-adv-x="1298" d="M80 430v180h266l35 246h-240v180h265l61 432l178 -24l-57 -408h223l61 432l179 -24l-58 -408h240v-180h-264l-35 -246h237v-180h-262l-65 -465l-180 25l61 440h-221l-66 -465l-180 25l61 440h-239zM528 610h224l34 246h-223z" />
<glyph unicode="$" horiz-adv-x="1187" d="M84 264l190 152q14 -26 48 -67q28 -34 64 -61q41 -30 79 -49q48 -23 90 -30v407q-69 24 -142 62q-75 39 -131 88q-60 53 -97 120q-38 70 -38 158q0 72 28 144q27 69 80 125t128 93q77 38 172 48v172h129v-172q62 -6 120 -27q62 -22 109 -50q62 -36 93 -63q39 -33 67 -69 l-184 -153q-26 36 -84 75q-56 38 -121 54v-402q4 -3 12 -5t11 -3q74 -28 148 -63q72 -34 130 -85q56 -48 91 -119q34 -68 34 -163t-35 -167q-35 -70 -93 -120q-59 -50 -136 -78q-78 -28 -162 -36v-173h-129v170q-82 6 -155 35t-134 69q-63 41 -108 88q-47 49 -74 95z M397 1049q0 -63 40 -103q43 -43 118 -76v351q-71 -16 -115 -62q-43 -44 -43 -110zM684 211q68 12 122 51t54 119q0 67 -45 111q-43 41 -131 77v-358z" />
<glyph unicode="%" horiz-adv-x="1458" d="M45 1133q0 67 27 127q27 61 71 103q46 45 106 70q59 25 128 25t128 -25q58 -25 105 -70q45 -44 72 -103q27 -60 27 -127t-27 -127q-27 -61 -72 -104q-45 -44 -105 -69q-61 -26 -128 -26t-128 26q-62 26 -106 69q-43 41 -71 104q-27 60 -27 127zM182 14l965 1483l117 -80 l-965 -1483zM209 1133q0 -71 47 -120q46 -48 121 -48q73 0 119 48q47 49 47 120q0 70 -47 119q-46 48 -119 48q-75 0 -121 -48q-47 -49 -47 -119zM750 301q0 69 26 127q27 59 72 103q47 45 105 70q61 26 128 26t128 -26q60 -25 106 -70q44 -42 71 -103q27 -60 27 -127 t-27 -127q-27 -61 -71 -103q-46 -45 -106 -70q-61 -26 -128 -26t-128 26q-58 25 -105 70q-45 44 -72 103q-26 58 -26 127zM913 301q0 -70 48 -120q47 -48 120 -48t119 48q47 49 47 120t-47 120q-46 48 -119 48t-120 -48q-48 -50 -48 -120z" />
<glyph unicode="&#x26;" horiz-adv-x="1423" d="M111 363q0 50 14 93q16 50 48 93q38 51 88 97q57 53 132 110q-113 102 -156 180q-44 79 -44 160q0 72 28 137q29 66 80 116q49 48 124 79q72 30 159 30q86 0 158 -30q75 -31 124 -79q51 -49 80 -117q29 -67 29 -142q0 -47 -11 -81q-13 -39 -37 -78q-23 -36 -71 -86 q-45 -47 -113 -104l265 -233q9 12 13 39q5 30 9 67q4 39 6 84q2 60 2 88h236q0 -161 -27 -278q-27 -116 -57 -160l233 -205l-143 -168l-219 195q-78 -87 -200 -140q-127 -55 -269 -55q-107 0 -197 32q-86 30 -151 85q-64 54 -99 123q-34 68 -34 148zM356 367q0 -42 21 -72 q23 -33 53 -52q34 -22 75 -32q40 -10 87 -10q88 0 168 36t129 85l-326 284l-105 -91q-43 -38 -63 -61q-23 -26 -30 -45q-9 -23 -9 -42zM430 1092q0 -53 38 -96q32 -36 110 -109q48 41 82 75q35 35 49 54q17 23 21 40q5 20 5 34q0 68 -49 105q-50 38 -104 38q-58 0 -105 -39 t-47 -102z" />
<glyph unicode="'" horiz-adv-x="380" d="M82 930v504h217v-504h-217z" />
<glyph unicode="(" horiz-adv-x="638" d="M98 604q0 148 27 286q28 142 70 260q45 126 97 224q55 105 109 180l201 -120q-46 -64 -92 -152q-50 -94 -85 -195q-37 -104 -61 -229q-24 -123 -24 -254q0 -134 24 -255q25 -125 61 -228q35 -101 85 -195q44 -84 92 -151l-201 -123q-53 75 -107 176q-52 98 -97 224 q-45 125 -71 261q-28 145 -28 291z" />
<glyph unicode=")" horiz-adv-x="638" d="M37 -225q48 67 92 151q50 94 85 195q36 103 61 228q24 121 24 255q0 131 -24 254q-24 125 -61 229q-35 101 -85 195q-46 88 -92 152l201 120q54 -75 109 -180q52 -98 97 -224q42 -118 70 -260q27 -138 27 -286q0 -146 -28 -291q-26 -136 -71 -261q-45 -126 -97 -224 q-54 -101 -107 -176z" />
<glyph unicode="*" horiz-adv-x="815" d="M12 1110l56 162l254 -84v270h172v-270l254 84l55 -162l-260 -82l157 -215l-141 -100l-151 215l-152 -215l-141 100l157 215z" />
<glyph unicode="+" d="M47 389v229h363v377h245v-377h363v-229h-363v-389h-245v389h-363z" />
<glyph unicode="," horiz-adv-x="493" d="M41 -285l162 484l205 -72l-179 -477z" />
<glyph unicode="-" horiz-adv-x="681" d="M68 389v234h546v-234h-546z" />
<glyph unicode="." horiz-adv-x="536" d="M106 137q0 67 48 115q47 47 114 47q68 0 115 -47t47 -115q0 -67 -47 -114q-48 -48 -115 -48q-66 0 -114 48t-48 114z" />
<glyph unicode="/" d="M12 -201l819 1839l197 -88l-819 -1839z" />
<glyph unicode="0" horiz-adv-x="1241" d="M82 717q0 145 33 279q34 137 100 237q68 103 169 164t239 61q137 0 237 -61q101 -62 167 -164q65 -101 99 -237q33 -134 33 -279q0 -147 -33 -280q-33 -134 -99 -236t-167 -164t-237 -62t-239 62q-101 61 -169 164q-67 100 -100 236q-33 133 -33 280zM328 717 q0 -105 18 -198q19 -96 55 -163q38 -70 93 -110q56 -41 129 -41t129 41q54 40 91 110q34 65 53 163q17 88 17 198q0 109 -17 197q-19 98 -53 163q-38 72 -91 111q-56 41 -129 41t-129 -41q-54 -40 -93 -111q-36 -67 -55 -163q-18 -93 -18 -197z" />
<glyph unicode="1" horiz-adv-x="909" d="M33 1085l436 349h203v-1434h-246v1106l-252 -201z" />
<glyph unicode="2" horiz-adv-x="1136" d="M82 0l526 668q9 12 47 58q32 39 56 76q27 41 45 92q18 50 18 107q0 96 -56 161q-58 67 -161 67q-97 0 -164 -61q-66 -60 -88 -148l-219 80q22 68 59 130q40 66 98 115q59 50 139 81q82 32 185 32q113 0 197 -36q85 -36 141 -97q58 -63 86 -142q29 -82 29 -169 q0 -69 -14 -122q-15 -57 -34 -101q-18 -40 -41 -79q-22 -36 -36 -53l-330 -426h461v-233h-944z" />
<glyph unicode="3" horiz-adv-x="1167" d="M76 307l200 117q15 -39 39 -78t62 -71q37 -31 87 -51q48 -19 118 -19q113 0 179 54t66 147q0 53 -22 90q-21 35 -60 60q-36 23 -82 35q-43 11 -96 11h-102v225h78q113 0 180 46q68 47 68 147q0 95 -60 152t-156 57q-46 0 -89 -16q-38 -14 -69 -39q-27 -21 -51 -56 q-23 -33 -34 -63l-213 100q25 58 61 108q39 55 95 97q58 44 132 71q75 27 171 27q95 0 182 -31q82 -29 145 -86q61 -55 97 -133t36 -170q0 -66 -16 -114q-16 -50 -42 -87q-26 -39 -57 -65q-29 -25 -61 -45q40 -12 79 -40t68 -67q28 -38 47 -95q17 -51 17 -122 q0 -98 -38 -179q-37 -78 -105 -134q-66 -54 -158 -85q-90 -30 -194 -30t-188 29q-82 28 -145 75q-64 47 -105 106q-41 58 -64 122z" />
<glyph unicode="4" horiz-adv-x="1214" d="M-8 311l729 1123h274v-893h158v-230h-158v-311h-245v311h-758zM393 541h361v555z" />
<glyph unicode="5" horiz-adv-x="1198" d="M98 307l205 117q15 -39 44 -83q26 -39 65 -70q38 -30 84 -48t106 -18q64 0 110 20q47 21 82 57q32 34 51 85q17 47 17 106q0 115 -72 190q-71 74 -225 74q-121 0 -222 -43q-102 -44 -171 -90v830h922v-234h-676v-270q34 14 89 23q58 10 111 10q98 0 186 -30 q90 -31 157 -90q67 -60 108 -152q41 -93 41 -214q0 -129 -45 -224t-118 -157q-70 -60 -165 -91q-92 -30 -186 -30q-93 0 -175 28q-75 26 -141 74q-65 48 -109 105q-46 60 -73 125z" />
<glyph unicode="6" horiz-adv-x="1155" d="M80 459q0 92 26 169q27 80 54 126l48 82l102 170l141 230l159 263l205 -127l-266 -432q10 3 26 5q8 1 33 1q104 0 193 -42q87 -41 150 -109q64 -68 98 -155q34 -86 34 -179t-34 -179q-34 -87 -101 -155t-159 -110q-93 -42 -207 -42t-208 41q-91 40 -159 109 q-65 66 -100 155q-35 88 -35 179zM328 461q0 -62 19 -107q20 -47 54 -80q35 -33 81 -51t100 -18q52 0 99 18t81 51t54 80q20 48 20 107q0 56 -20 105q-20 48 -54 81t-81 51q-49 19 -99 19q-51 0 -100 -19q-46 -18 -81 -51t-54 -81q-19 -47 -19 -105z" />
<glyph unicode="7" horiz-adv-x="1077" d="M74 1200v234h1024l-768 -1483l-209 108l590 1141h-637z" />
<glyph unicode="8" horiz-adv-x="1179" d="M98 424q0 66 19 126q17 55 48 98q32 45 64 70q35 27 70 44q-25 16 -57 46q-30 29 -52 62q-19 29 -36 80q-15 45 -15 101q0 74 29 149t85 131q59 59 140 92q85 35 197 35q111 0 196 -35q83 -34 141 -92q56 -56 85 -131q28 -72 28 -149q0 -59 -14 -101q-16 -48 -37 -80 q-23 -36 -51 -62q-32 -30 -57 -46q28 -14 68 -44q34 -26 66 -70q31 -43 48 -98q18 -57 18 -126q0 -92 -32 -172q-32 -79 -97 -143q-64 -63 -154 -98q-92 -36 -208 -36t-208 36q-91 36 -155 98t-96 143q-33 82 -33 172zM346 426q0 -44 15 -84q14 -39 47 -73q31 -32 75 -50 q45 -18 107 -18q61 0 106 18q46 18 76 50q31 33 46 73q16 43 16 84q0 40 -16 83q-15 40 -46 71t-76 49t-106 18q-62 0 -107 -18q-43 -17 -75 -49q-33 -33 -47 -71q-15 -41 -15 -83zM383 1042q0 -88 60 -139t147 -51q86 0 146 51q61 52 61 139q0 88 -61 140q-60 51 -146 51 q-87 0 -147 -51t-60 -140z" />
<glyph unicode="9" horiz-adv-x="1155" d="M72 973q0 91 35 179q35 89 100 155q65 67 159 109q93 42 207 42q115 0 208 -42q94 -42 159 -109q64 -66 100 -154q35 -87 35 -176q0 -91 -26 -168t-56 -129l-51 -86l-103 -172l-139 -227l-151 -252l-205 127l262 424q-16 -5 -26 -6q-8 -1 -33 -1q-105 0 -193 42 q-85 40 -150 110q-62 66 -97 155q-35 88 -35 179zM319 973q0 -59 20 -107q20 -47 54 -80q35 -33 81 -51t99 -18t100 18t81 51t54 80q19 45 19 107q0 58 -19 105q-20 48 -54 81t-81 51q-49 19 -100 19q-50 0 -99 -19q-46 -18 -81 -51t-54 -81q-20 -49 -20 -105z" />
<glyph unicode=":" horiz-adv-x="561" d="M119 137q0 68 47 115t115 47q67 0 114 -47t47 -115q0 -67 -47 -114q-48 -48 -114 -48q-67 0 -115 48q-47 47 -47 114zM119 834q0 67 47 114t115 47q67 0 114 -47t47 -114q0 -68 -47 -115t-114 -47q-68 0 -115 47t-47 115z" />
<glyph unicode=";" horiz-adv-x="497" d="M41 -285l162 484l205 -72l-179 -477zM86 831q0 68 48 116t114 48q68 0 116 -48t48 -116q0 -65 -48 -113t-116 -48q-66 0 -114 48t-48 113z" />
<glyph unicode="&#x3c;" d="M37 453v204l946 404v-252l-621 -254l621 -256v-252z" />
<glyph unicode="=" d="M92 238v225h881v-225h-881zM92 618v226h881v-226h-881z" />
<glyph unicode="&#x3e;" d="M90 47v252l621 256l-621 254v252l946 -404v-204z" />
<glyph unicode="?" horiz-adv-x="1001" d="M33 1124q22 66 59 122q42 65 95 108q59 48 129 76q71 28 165 28q91 0 173 -32t140 -87q57 -54 92 -132q34 -75 34 -167q0 -66 -18 -115q-19 -52 -48 -94q-22 -32 -72 -82q-32 -32 -90 -83l-42 -39q-14 -15 -22 -28q-9 -16 -10 -31q-2 -24 -2 -44v-104h-243v151 q0 50 10 83t32 63q20 27 57 58l85 73q49 42 82 83q35 43 35 107q0 87 -58 137t-135 50q-41 0 -80 -17q-38 -17 -67 -43q-32 -28 -54 -62q-22 -32 -38 -75zM334 137q0 68 47 115t115 47q67 0 114 -47t47 -115q0 -67 -47 -114q-48 -48 -114 -48q-67 0 -115 48q-47 47 -47 114z " />
<glyph unicode="@" horiz-adv-x="1636" d="M98 717q0 153 59 289t158 235q101 101 237 159q135 58 294 58q152 0 278 -55q128 -55 219 -153q94 -100 144 -231q51 -133 51 -292q0 -122 -31 -206q-30 -80 -75 -127q-44 -45 -99 -64t-98 -19q-62 0 -126 32q-62 31 -83 103q-38 -58 -102 -96q-66 -39 -150 -39 q-52 0 -106 19q-51 18 -91 52t-64 82t-24 107q0 58 25 108q22 45 66 82q39 33 94 52q52 18 108 18q60 0 117 -18q56 -18 94 -51v35q0 40 -15 70q-14 28 -40 49q-25 20 -56 29q-32 9 -63 9q-47 0 -101 -17q-59 -19 -110 -58l-82 147q51 36 132 67q77 29 173 29q77 0 136 -20 q61 -21 105 -60q46 -41 70 -94q25 -54 25 -123v-247q0 -51 17 -79t63 -28q11 0 27 4q19 5 38 28q19 24 34 72q14 46 14 140q0 143 -40 248q-41 108 -109 179q-70 73 -162 108q-94 36 -203 36q-121 0 -226 -44q-104 -44 -181 -121t-120 -180q-43 -102 -43 -224 q0 -119 43 -223q45 -108 119 -182q78 -78 182 -121q106 -44 230 -44q103 0 184 26q84 27 127 52l72 -153q-68 -37 -163 -66q-102 -31 -222 -31q-156 0 -294 59q-136 58 -238 159q-100 98 -159 235q-59 136 -59 289zM674 578q0 -46 37 -74q38 -29 106 -29q70 0 114 28 q39 25 62 56v59q-22 22 -65 40q-44 18 -105 18q-72 0 -111 -28q-38 -27 -38 -70z" />
<glyph unicode="A" horiz-adv-x="1388" d="M12 0l557 1434h250l557 -1434h-248l-131 340h-606l-131 -340h-248zM479 565h430l-215 559z" />
<glyph unicode="B" horiz-adv-x="1208" d="M152 0v1434h464q86 0 170 -23q82 -22 146 -71q63 -48 102 -121t39 -177q0 -73 -18 -124q-18 -50 -44 -84q-25 -32 -50 -51q-18 -14 -37 -23q5 -1 44 -19q34 -16 75 -55t72 -102q32 -64 32 -158q0 -97 -37 -175q-37 -79 -101 -134q-65 -56 -153 -86q-91 -31 -188 -31h-516 zM397 233h262q100 0 170 45q68 44 68 146t-68 146t-170 44h-262v-381zM397 848h211q103 0 159 40t56 132q0 99 -61 139q-62 41 -154 41h-211v-352z" />
<glyph unicode="C" horiz-adv-x="1384" d="M70 717q0 161 55 295q56 137 152 234q97 99 231 156q131 56 287 56q99 0 178 -20q80 -20 149 -54q74 -36 119 -72q54 -43 86 -79l-166 -162q-54 60 -144 108q-94 50 -220 50q-105 0 -195 -41q-84 -39 -150 -112q-63 -71 -98 -163q-35 -93 -35 -196q0 -104 35 -197 q34 -90 99 -163q63 -71 151 -111q90 -41 195 -41q129 0 228 54q100 55 157 122l164 -162q-38 -45 -95 -90q-55 -43 -125 -78q-67 -33 -153 -55q-84 -21 -178 -21q-155 0 -289 57q-135 58 -231 155q-95 97 -152 235q-55 134 -55 295z" />
<glyph unicode="D" horiz-adv-x="1392" d="M152 0v1434h462q154 0 287 -55q131 -54 224 -149t146 -226q52 -129 52 -287t-52 -287q-53 -131 -146 -226q-95 -97 -224 -150q-131 -54 -287 -54h-462zM397 233h221q105 0 189 39q81 37 143 106q59 65 91 153t32 186q0 96 -32 186q-32 89 -91 154t-143 104t-189 39h-221 v-967z" />
<glyph unicode="E" horiz-adv-x="1118" d="M152 0v1434h868v-234h-623v-348h574v-234h-574v-385h635v-233h-880z" />
<glyph unicode="F" horiz-adv-x="1079" d="M152 0v1434h849v-234h-604v-350h564v-234h-564v-616h-245z" />
<glyph unicode="G" horiz-adv-x="1460" d="M70 719q0 158 57 293q56 133 157 234q99 99 235 156q134 56 294 56q91 0 170 -18t147 -48q69 -31 122 -69q51 -37 91 -80l-167 -164q-51 59 -147 105q-93 45 -212 45q-109 0 -202 -41q-86 -38 -156 -111q-64 -67 -103 -163q-37 -92 -37 -195q0 -104 38 -198 q37 -92 106 -164q67 -71 162 -111q96 -41 209 -41q70 0 147 16q82 17 131 53v304h-326v229h568v-651q-89 -80 -232 -131q-141 -50 -293 -50q-162 0 -300 57q-140 58 -240 155q-102 99 -161 236q-58 135 -58 296z" />
<glyph unicode="H" horiz-adv-x="1406" d="M152 0v1434h245v-584h613v584h245v-1434h-245v616h-613v-616h-245z" />
<glyph unicode="I" horiz-adv-x="606" d="M180 0v1434h246v-1434h-246z" />
<glyph unicode="J" horiz-adv-x="1067" d="M6 215l180 152q50 -77 109 -117q61 -41 145 -41q60 0 102 19q43 19 71 52q27 32 42 73q15 42 15 89v992h245v-983q0 -114 -34 -201q-34 -88 -98 -150t-149 -93q-88 -32 -192 -32q-84 0 -156 22q-71 22 -122 55q-56 37 -92 77q-41 46 -66 86z" />
<glyph unicode="K" horiz-adv-x="1286" d="M152 0v1434h245v-643l512 643h308l-562 -705l631 -729h-325l-564 647v-647h-245z" />
<glyph unicode="L" horiz-adv-x="1024" d="M152 0v1434h245v-1201h611v-233h-856z" />
<glyph unicode="M" horiz-adv-x="1691" d="M152 0v1434h227l467 -721l467 721h227v-1434h-246v963l-448 -682l-449 682v-963h-245z" />
<glyph unicode="N" horiz-adv-x="1486" d="M152 0v1434h221l717 -988v988h245v-1434h-221l-717 985v-985h-245z" />
<glyph unicode="O" horiz-adv-x="1589" d="M70 717q0 160 54 295q54 136 151 234q97 99 230 156q130 56 290 56q157 0 288 -56q133 -57 231 -156q97 -98 151 -234q55 -138 55 -295t-55 -295t-151 -235t-231 -155q-133 -57 -288 -57q-158 0 -290 57q-135 58 -230 155q-96 97 -151 235q-54 135 -54 295zM319 717 q0 -107 34 -197q35 -92 96 -161t149 -109q90 -41 197 -41q106 0 196 41q89 41 150 109q59 67 95 161q34 90 34 197q0 106 -34 196q-36 94 -95 161q-62 70 -150 110q-90 41 -196 41q-107 0 -197 -41q-86 -39 -149 -110q-61 -69 -96 -161q-34 -90 -34 -196z" />
<glyph unicode="P" horiz-adv-x="1159" d="M152 0v1434h487q105 0 195 -35q86 -34 150 -96q60 -59 96 -146q34 -83 34 -182t-34 -182q-36 -87 -96 -146q-64 -62 -150 -96q-90 -35 -195 -35h-242v-516h-245zM397 750h211q128 0 192 61t64 164t-64 164t-192 61h-211v-450z" />
<glyph unicode="Q" horiz-adv-x="1619" d="M70 717q0 160 54 295q54 136 151 234q97 99 230 156q130 56 290 56q157 0 288 -56q133 -57 231 -156q97 -98 151 -234q55 -138 55 -295q0 -126 -34 -232q-36 -113 -93 -200l202 -174l-157 -181l-211 183q-89 -65 -199 -102q-108 -36 -233 -36q-158 0 -290 57 q-135 58 -230 155q-96 97 -151 235q-54 135 -54 295zM319 717q0 -107 34 -197q35 -93 97 -161q63 -69 149 -109q88 -41 196 -41q73 0 131 17q62 18 114 48l-247 218l157 178l254 -221q66 119 66 266q0 105 -34 197q-36 96 -96 162q-64 70 -151 110q-90 41 -194 41 q-108 0 -196 -41q-84 -39 -149 -110q-62 -68 -97 -161q-34 -90 -34 -196z" />
<glyph unicode="R" horiz-adv-x="1193" d="M152 0v1434h471q105 0 194 -33t151 -92q60 -57 96 -143q34 -81 34 -183q0 -157 -83 -272t-237 -154l359 -557h-287l-340 541h-113v-541h-245zM397 774h195q117 0 187 53q69 52 69 160q0 107 -69 160q-70 53 -187 53h-195v-426z" />
<glyph unicode="S" horiz-adv-x="1218" d="M94 268l185 156q26 -42 58 -77q37 -41 77 -68q48 -33 96 -51q51 -19 119 -19q43 0 85 9q43 9 77 30q37 22 56 54q21 34 21 81t-19 76q-21 32 -54 55q-36 25 -83 44q-25 10 -106 40q-76 28 -157 66q-85 40 -145 89q-65 53 -105 121q-41 70 -41 166q0 84 32 158t94 133 q61 58 146 92q87 35 193 35q86 0 155 -20q70 -20 131 -54q60 -33 106 -73q43 -37 79 -80l-170 -168q-19 24 -56 59q-33 31 -69 52q-33 19 -82 36q-43 15 -92 15q-93 0 -155 -49t-62 -127q0 -51 26 -84q28 -36 71 -61q41 -24 99 -46l113 -43q82 -31 152 -66q74 -37 128 -85 q55 -49 88 -117q33 -67 33 -160q0 -103 -40 -180q-41 -79 -107 -129q-69 -52 -156 -77q-90 -26 -186 -26q-102 0 -186 26q-80 25 -149 67q-65 40 -116 94q-47 50 -84 106z" />
<glyph unicode="T" horiz-adv-x="1093" d="M29 1200v234h1036v-234h-395v-1200h-246v1200h-395z" />
<glyph unicode="U" horiz-adv-x="1409" d="M152 520v914h245v-883q0 -153 77 -248q76 -94 231 -94q154 0 230 94q77 95 77 248v883h245v-914q0 -122 -38 -218q-40 -101 -111 -172q-74 -74 -174 -114q-103 -41 -229 -41q-127 0 -230 41q-100 40 -174 114q-71 71 -111 172q-38 96 -38 218z" />
<glyph unicode="V" horiz-adv-x="1290" d="M4 1434h268l381 -920l377 920h256l-641 -1483z" />
<glyph unicode="W" horiz-adv-x="2013" d="M8 1434h279l303 -861l325 861h203l320 -861l311 861h256l-565 -1483l-430 1075l-437 -1075z" />
<glyph unicode="X" horiz-adv-x="1253" d="M25 0l462 741l-434 693h291l293 -496l289 496h270l-434 -693l467 -741h-293l-322 541l-313 -541h-276z" />
<glyph unicode="Y" horiz-adv-x="1257" d="M16 1434h271l350 -641l350 641h254l-489 -869v-565h-246v565z" />
<glyph unicode="Z" horiz-adv-x="1222" d="M29 0l749 1200h-680v234h1096l-745 -1201h704v-233h-1124z" />
<glyph unicode="[" horiz-adv-x="675" d="M152 -471v2019h458v-196h-233v-1626h233v-197h-458z" />
<glyph unicode="\" d="M37 1550l196 88l820 -1839l-197 -88z" />
<glyph unicode="]" horiz-adv-x="675" d="M66 -274h233v1626h-233v196h458v-2019h-458v197z" />
<glyph unicode="^" horiz-adv-x="1099" d="M20 717l422 831h215l422 -831h-256l-272 561l-277 -561h-254z" />
<glyph unicode="_" horiz-adv-x="1024" d="M86 -238h852v-233h-852v233z" />
<glyph unicode="`" horiz-adv-x="557" d="M0 1382l166 162l350 -356l-158 -150z" />
<glyph unicode="a" horiz-adv-x="1097" d="M78 295q0 74 30 134q31 61 81 103q51 43 123 67q70 24 153 24q67 0 139 -18q74 -19 125 -52v55q0 49 -20 80t-52 52t-68 28q-40 8 -73 8q-51 0 -125 -16q-79 -17 -162 -55l-79 202q77 36 175 62t214 26q203 0 319 -98q117 -99 117 -264v-633h-227v123q-46 -63 -131 -106 q-83 -42 -185 -42q-66 0 -134 22q-64 21 -114 63t-78 102q-28 59 -28 133zM328 305q0 -40 16 -63q17 -25 42 -38q28 -15 56 -19q33 -5 58 -5q86 0 141 36q54 35 88 77v100q-50 26 -106 37q-60 12 -107 12q-34 0 -65 -7q-36 -8 -61 -22q-27 -15 -45 -42q-17 -25 -17 -66z" />
<glyph unicode="b" horiz-adv-x="1202" d="M152 0v1548h245v-680q37 46 105 87q67 40 172 40q91 0 178 -38q86 -37 150 -105q65 -68 104 -161t39 -206q0 -109 -39 -204q-39 -94 -104 -162q-67 -70 -149 -106q-87 -38 -179 -38q-111 0 -185 47q-73 46 -110 105v-127h-227zM397 340q30 -53 88 -94t148 -41 q120 0 191 80t71 200q0 121 -71 201t-191 80q-90 0 -148 -41t-88 -94v-291z" />
<glyph unicode="c" horiz-adv-x="1017" d="M57 485q0 106 41 200q41 93 112 163q70 68 166 108q94 39 204 39q73 0 133 -16q63 -17 111 -43q53 -29 89 -58q38 -31 64 -63l-170 -151q-36 42 -94 71q-62 31 -133 31q-61 0 -113 -23q-53 -23 -86 -61q-34 -39 -54 -89q-20 -51 -20 -108q0 -56 20 -108q20 -53 55 -89 q37 -39 86 -61q48 -22 114 -22q85 0 147 38q61 37 90 81l162 -164q-26 -33 -63 -64q-34 -29 -91 -59q-47 -25 -112 -44q-61 -18 -135 -18q-111 0 -204 40q-97 42 -166 109q-72 71 -112 162q-41 94 -41 199z" />
<glyph unicode="d" horiz-adv-x="1202" d="M57 485q0 113 39 206t104 161q64 68 150 105q87 38 178 38q105 0 172 -40q68 -41 105 -87v680h246v-1548h-228v127q-37 -59 -110 -105q-74 -47 -185 -47q-92 0 -179 38q-82 36 -149 106q-65 68 -104 162q-39 95 -39 204zM307 485q0 -120 71 -200t191 -80q90 0 148 41 t88 94v291q-30 53 -88 94t-148 41q-120 0 -191 -80t-71 -201z" />
<glyph unicode="e" horiz-adv-x="1091" d="M57 489q0 107 37 197q38 92 102 161q62 67 154 108q89 40 195 40q102 0 189 -37q92 -39 156 -103q65 -65 105 -160q39 -93 39 -206v-38q0 -16 -2 -54h-725q7 -31 30 -69q23 -37 57 -63q38 -29 83 -46q47 -18 107 -18q63 0 133 22t129 76l123 -184q-62 -51 -160 -95 q-101 -45 -229 -45q-112 0 -206 39t-166 109q-70 69 -111 164q-40 93 -40 202zM307 575h481q-2 30 -17 66q-15 35 -45 65t-75 48t-106 18q-59 0 -103 -18q-40 -17 -72 -47q-29 -28 -45 -64q-17 -38 -18 -68z" />
<glyph unicode="f" horiz-adv-x="759" d="M33 750v221h192v237q0 100 32 170q32 69 83 113q49 42 114 62t124 20q55 0 111 -13q57 -13 99 -38l-92 -207q-18 13 -43 20q-29 8 -53 8q-18 0 -41 -6t-42 -22q-19 -17 -33 -45q-13 -27 -13 -74v-225h238v-221h-238v-750h-246v750h-192z" />
<glyph unicode="g" horiz-adv-x="1173" d="M57 485q0 113 39 206t104 161q64 68 150 105q87 38 178 38q111 0 184 -47q71 -46 111 -104v127h228v-979q0 -129 -43 -219q-44 -92 -116 -152q-70 -59 -166 -88q-95 -29 -191 -29q-80 0 -151 18q-74 19 -130 44q-65 29 -107 59q-39 28 -79 64l139 188q58 -56 139 -99 q83 -44 193 -44q133 0 199 69q67 70 67 181v116q-10 -13 -35 -37q-18 -17 -56 -40q-34 -21 -80 -34q-48 -14 -106 -14q-91 0 -178 38q-84 37 -150 106q-65 68 -104 161t-39 205zM307 485q0 -120 71 -200t191 -80q47 0 84 12q35 11 67 32q27 17 50 44q15 18 35 47v291 q-30 53 -88 94t-148 41q-120 0 -191 -80t-71 -201z" />
<glyph unicode="h" horiz-adv-x="1150" d="M152 0v1548h245v-694q39 55 106 97q70 44 171 44q70 0 134 -24q62 -23 114 -72q47 -44 77 -115q29 -69 29 -155v-629h-246v567q0 51 -15 89q-16 40 -42 63q-28 25 -59 36q-30 11 -70 11q-42 0 -72 -12q-29 -12 -55 -31q-23 -17 -42 -41t-30 -43v-639h-245z" />
<glyph unicode="i" horiz-adv-x="569" d="M123 1284q0 68 47 115t115 47q67 0 114 -47t47 -115t-47 -115t-114 -47q-68 0 -115 47t-47 115zM162 0v971h246v-971h-246z" />
<glyph unicode="j" horiz-adv-x="679" d="M-72 -432l88 207q40 -23 68 -32t57 -9q13 0 40 5q23 4 44 25q20 20 35 61q14 38 14 109v1037h246v-1059q0 -118 -36 -198q-35 -77 -89 -125q-51 -45 -117 -65t-120 -20q-56 0 -118 17q-60 17 -112 47zM233 1284q0 67 48 115q47 47 114 47q68 0 115 -47t47 -115t-47 -115 t-115 -47q-67 0 -114 47q-48 48 -48 115z" />
<glyph unicode="k" horiz-adv-x="1095" d="M152 0v1548h245v-960l348 383h318l-426 -459l455 -512h-324l-371 424v-424h-245z" />
<glyph unicode="l" horiz-adv-x="548" d="M152 0v1548h245v-1548h-245z" />
<glyph unicode="m" horiz-adv-x="1712" d="M123 0v971h229v-142q38 62 109 114t184 52q96 0 176 -44t119 -126q19 34 44 62q26 29 67 54q39 24 88 39q50 15 108 15q75 0 137 -25q63 -26 109 -73t71 -116q25 -68 25 -156v-625h-246v561q0 205 -165 205q-81 0 -128 -41t-71 -84v-641h-246v561q0 205 -166 205 q-81 0 -128 -41q-46 -40 -70 -84v-641h-246z" />
<glyph unicode="n" horiz-adv-x="1122" d="M123 0v971h229v-142q16 27 42 57t63 54q42 27 83 40q47 15 105 15q69 0 134 -24q62 -23 114 -72q49 -46 78 -115q28 -66 28 -155v-629h-245v567q0 105 -57 152q-58 47 -130 47q-78 0 -125 -41q-45 -40 -73 -84v-641h-246z" />
<glyph unicode="o" horiz-adv-x="1150" d="M57 485q0 108 40 200q41 95 111 163q70 69 165 108t202 39q109 0 203 -39t165 -108q70 -68 111 -163q40 -92 40 -200q0 -107 -40 -199q-40 -93 -111 -162q-70 -68 -165 -109q-93 -40 -203 -40q-109 0 -202 40q-95 41 -165 109q-70 69 -111 162q-40 92 -40 199zM307 485 q0 -54 19 -108q18 -51 53 -89t85 -61q48 -22 111 -22q64 0 112 22q50 23 85 61t53 89q19 54 19 108q0 56 -19 108q-18 49 -53 89q-33 37 -85 61q-51 23 -112 23q-60 0 -111 -23q-52 -24 -85 -61q-35 -40 -53 -89q-19 -52 -19 -108z" />
<glyph unicode="p" horiz-adv-x="1173" d="M123 -471v1442h227v-127q38 56 114 105q71 46 183 46q90 0 177 -38q86 -37 150 -105q63 -66 103 -161q39 -93 39 -206q0 -112 -39 -205q-40 -95 -103 -161q-65 -68 -151 -106q-87 -38 -178 -38q-57 0 -105 14q-46 13 -80 34q-41 25 -57 40q-22 21 -34 37v-571h-246z M369 340q30 -53 88 -94t147 -41q121 0 192 80q70 79 70 200q0 122 -70 201q-71 80 -192 80q-89 0 -147 -41t-88 -94v-291z" />
<glyph unicode="q" horiz-adv-x="1173" d="M57 485q0 113 39 206t104 161t149 105q87 38 177 38q113 0 184 -46q75 -48 113 -105v127h228v-1442h-246v571q-10 -13 -35 -37q-18 -17 -56 -40q-34 -21 -80 -34q-48 -14 -106 -14q-91 0 -178 38q-84 37 -150 106q-65 68 -104 161t-39 205zM307 485q0 -120 71 -200 t191 -80q90 0 148 41t88 94v291q-30 53 -88 94t-148 41q-120 0 -191 -80t-71 -201z" />
<glyph unicode="r" horiz-adv-x="792" d="M123 0v971h233v-142q35 63 103 115q67 51 166 51q36 0 77 -7q46 -8 86 -23l-86 -222q-23 12 -50 17q-30 6 -62 6q-86 0 -139 -42q-54 -43 -82 -89v-635h-246z" />
<glyph unicode="s" horiz-adv-x="989" d="M61 152l138 178q28 -26 54 -47q29 -23 68 -45q37 -21 83 -34q48 -14 102 -14q64 0 118 23q52 22 52 72q0 24 -16 40q-14 14 -40 25q-25 10 -62 18q-52 11 -75 17q-74 16 -132 38q-66 25 -115 59q-53 37 -82 84q-31 50 -31 116q0 59 28 118q26 55 80 100q55 45 129 70 q75 25 175 25q129 0 222 -39t148 -79l-123 -181q-48 33 -106 58q-61 26 -139 26q-67 0 -119 -24q-53 -24 -53 -70q0 -40 53 -60q48 -18 176 -46q75 -18 124 -35q63 -22 105 -53q47 -34 73 -81q28 -50 28 -118q0 -76 -35 -137q-34 -59 -93 -100q-56 -38 -134 -60 q-76 -21 -160 -21q-75 0 -145 16q-60 14 -121 40q-56 24 -100 56q-47 34 -75 65z" />
<glyph unicode="t" horiz-adv-x="851" d="M45 750v221h191v289h245v-289h293v-221h-293v-392q0 -44 12 -74q13 -32 28 -47q17 -17 40 -25q21 -7 45 -7q32 0 58 10t47 25l90 -201q-42 -28 -105 -46q-62 -18 -127 -18q-69 0 -133 25q-59 23 -106 70t-70 108q-24 63 -24 141v431h-191z" />
<glyph unicode="u" horiz-adv-x="1122" d="M123 342v629h246v-561q0 -109 49 -157q50 -48 133 -48q79 0 125 36q49 38 78 83v647h245v-971h-229v141q-17 -27 -45 -58q-27 -30 -63 -53q-39 -25 -83 -39q-50 -16 -102 -16q-65 0 -132 25q-62 23 -114 72q-47 44 -78 114q-30 68 -30 156z" />
<glyph unicode="v" horiz-adv-x="1036" d="M4 971h272l246 -529l246 529h264l-514 -1020z" />
<glyph unicode="w" horiz-adv-x="1572" d="M8 971h275l200 -498l211 498h207l205 -498l209 498h250l-469 -1020l-312 692l-307 -692z" />
<glyph unicode="x" horiz-adv-x="1075" d="M33 0l360 502l-334 469h289l199 -299l194 299h281l-338 -469l358 -502h-292l-220 332l-219 -332h-278z" />
<glyph unicode="y" horiz-adv-x="1140" d="M16 971h273l327 -711l256 711h265l-471 -1188q-30 -79 -73 -133q-44 -54 -88 -86q-45 -32 -96 -46t-100 -14q-83 0 -153 31q-66 29 -115 72l115 190q38 -33 71 -49q28 -14 68 -14q59 0 92 33q35 35 64 110l38 100z" />
<glyph unicode="z" horiz-adv-x="1013" d="M61 0l482 741h-447v230h865l-482 -742h459v-229h-877z" />
<glyph unicode="{" horiz-adv-x="716" d="M53 438v180q32 0 76 7q37 6 66 27q27 20 46 63q17 38 17 110v447q0 61 21 112q22 53 57 87q38 36 87 57q47 20 109 20h111v-221q-28 0 -56 -5q-24 -4 -44 -21q-19 -16 -29 -45t-10 -80v-381q0 -80 -18 -131q-19 -53 -46 -80q-29 -29 -64 -39q-40 -12 -75 -13v-8 q39 -2 75 -12q35 -10 64 -39q27 -27 46 -80q18 -51 18 -131v-360q0 -52 10 -81t29 -45q20 -17 44 -21q28 -5 56 -5v-221h-111q-62 0 -109 20q-49 21 -87 57q-35 34 -57 87q-21 51 -21 112v426q0 73 -17 111q-19 42 -46 62q-30 22 -66 28q-38 6 -76 6z" />
<glyph unicode="|" horiz-adv-x="532" d="M147 -471v1987h238v-1987h-238z" />
<glyph unicode="}" horiz-adv-x="716" d="M74 -250q28 0 56 5q24 4 44 21q19 16 29 45t10 81v360q0 83 17 131q19 53 46 80q28 28 65 39q36 10 75 12v8q-35 1 -75 13q-37 11 -65 39q-27 27 -46 80q-17 48 -17 131v381q0 51 -10 80q-11 31 -29 46q-19 16 -44 20q-28 5 -56 5v221h110q63 0 110 -20q50 -21 87 -57 q35 -34 57 -87q21 -51 21 -112v-447q0 -72 17 -110q19 -43 46 -63q28 -21 66 -27q44 -7 76 -7v-180q-38 0 -76 -6q-36 -6 -66 -28q-27 -20 -46 -62q-17 -38 -17 -111v-426q0 -61 -21 -112q-22 -53 -57 -87q-37 -36 -87 -57q-47 -20 -110 -20h-110v221z" />
<glyph unicode="~" horiz-adv-x="1001" d="M41 637q45 111 126 171t175 60q49 0 91 -15q40 -14 79 -33l71 -33q35 -15 68 -15q42 0 79 27q38 27 54 88l177 -111q-39 -98 -118 -164q-78 -65 -184 -65q-51 0 -94 15q-40 14 -80 33l-70 33q-35 15 -67 15q-42 0 -79 -31q-35 -29 -52 -84z" />
<glyph unicode="&#xa1;" horiz-adv-x="626" d="M152 834q0 67 47 114t114 47q68 0 115 -47t47 -114q0 -68 -47 -115t-115 -47q-67 0 -114 47t-47 115zM186 -463l11 1024h233l10 -1024h-254z" />
<glyph unicode="&#xa2;" horiz-adv-x="1187" d="M143 485q0 101 34 185q36 89 93 152q63 69 141 111q82 44 177 56v178h129v-174q111 -11 203 -62t143 -116l-170 -151q-27 32 -76 61q-45 26 -100 37v-553q70 11 118 46q49 35 70 69l162 -164q-47 -60 -138 -114q-92 -54 -212 -69v-170h-129v175q-95 12 -177 56 q-80 43 -141 110q-56 62 -93 153q-34 84 -34 184zM393 485q0 -96 51 -171t144 -99v541q-93 -28 -144 -102q-51 -75 -51 -169z" />
<glyph unicode="&#xa3;" horiz-adv-x="1187" d="M92 90q34 69 98 134q63 64 142 87q15 16 34 64q17 43 17 88q0 33 -10 59q-12 30 -27 58h-254v172h160q-31 57 -67 133q-33 70 -33 159q0 71 27 143t85 133q56 59 145 99q87 39 207 39q86 0 152 -19q68 -20 121 -53q54 -34 93 -73q40 -41 69 -84l-179 -144q-34 58 -94 100 q-62 44 -153 44q-53 0 -96 -17q-39 -15 -71 -44q-30 -27 -45 -62q-16 -37 -16 -74q0 -44 27 -106q29 -66 98 -174h379v-172h-293q12 -35 16 -58q5 -30 5 -57q0 -58 -14 -100q-17 -51 -23 -64q33 -11 65 -29l57 -31q30 -17 54 -26q26 -10 57 -10q60 0 95 38t47 89l190 -107 q-16 -45 -49 -94q-30 -44 -73 -80q-41 -34 -96 -55q-54 -21 -124 -21q-69 0 -115 18q-48 19 -86 39q-68 37 -75 40q-38 18 -82 18q-68 0 -111 -40q-42 -39 -65 -91z" />
<glyph unicode="&#xa4;" horiz-adv-x="1187" d="M49 258l146 145q-76 112 -76 259q0 142 76 258l-146 145l144 143l143 -145q53 35 123 57q66 21 137 21q72 0 136 -21q69 -22 120 -57l145 145l144 -143l-146 -145q37 -55 58 -121q20 -63 20 -137q0 -75 -20 -138q-21 -67 -58 -123l146 -143l-144 -143l-145 145 q-116 -76 -256 -76q-146 0 -258 76l-145 -145zM348 659q0 -50 20 -96t53 -79t79 -53q44 -19 96 -19t96 19q45 20 79 52q32 31 53 77q20 45 20 95t-20 98t-53 81q-34 34 -80 55q-44 20 -97 20q-54 0 -95 -20q-46 -22 -78 -54q-33 -33 -53 -79t-20 -97z" />
<glyph unicode="&#xa5;" horiz-adv-x="1187" d="M-18 1434h270l350 -641l350 641h254l-266 -473h197v-173h-295l-80 -143h375v-172h-420v-473h-246v473h-420v172h375l-82 143h-293v173h197z" />
<glyph unicode="&#xa6;" horiz-adv-x="532" d="M147 328h238v-799h-238v799zM147 717v799h238v-799h-238z" />
<glyph unicode="&#xa7;" horiz-adv-x="1040" d="M102 518q0 61 22 116q20 50 53 91q31 39 70 65q28 19 68 39q-87 61 -128 128q-42 69 -42 157q0 69 28 134q26 61 78 110q49 46 120 74q66 26 153 26q126 0 215 -53q88 -52 140 -115l-162 -151q-34 44 -85 69q-52 25 -102 25q-64 0 -101 -36q-38 -36 -38 -87q0 -29 12 -50 q13 -23 39 -43q31 -24 68 -46l96 -58q76 -44 114 -68q57 -36 100 -79q45 -45 71 -97q27 -54 27 -126q0 -64 -23 -118q-22 -51 -54 -91t-69 -65q-36 -25 -67 -40q87 -61 128 -137t41 -162q0 -73 -28 -132q-27 -58 -79 -103q-49 -43 -120 -68q-69 -24 -149 -24q-128 0 -216 52 q-93 55 -143 114l156 161q37 -47 91 -75q52 -27 103 -27q65 0 102 36q38 36 38 87q0 25 -12 46q-14 25 -36 44q-25 22 -67 47l-100 59q-57 31 -115 69q-57 37 -99 79q-45 45 -71 97q-27 54 -27 126zM348 541q0 -36 9 -60t30 -45q20 -20 51 -40l72 -44l10 -6q29 5 54 16 q29 13 50 34q20 20 34 51t14 71q0 13 -3 34t-20 47t-49 54q-34 30 -90 56l-10 4q-60 -11 -105 -49q-47 -39 -47 -123z" />
<glyph unicode="&#xa8;" horiz-adv-x="802" d="M29 1272q0 67 47 114q48 48 114 48q67 0 115 -48q47 -47 47 -114q0 -68 -47 -115t-115 -47q-67 0 -114 47t-47 115zM451 1272q0 67 47 114q48 48 114 48q67 0 115 -48q47 -47 47 -114q0 -68 -47 -115t-115 -47q-67 0 -114 47t-47 115z" />
<glyph unicode="&#xa9;" horiz-adv-x="1677" d="M98 717q0 153 59 289t158 235q100 100 236 159q134 58 289 58q154 0 288 -58q137 -59 235 -159q100 -102 158 -235q58 -134 58 -289t-58 -289q-58 -133 -158 -235q-98 -100 -235 -159q-136 -59 -288 -59q-153 0 -289 59t-236 159q-99 99 -158 235t-59 289zM274 717 q0 -117 45 -219q46 -104 122 -180q74 -74 180 -121q102 -45 219 -45t219 45q104 46 179 121q77 77 121 180t44 219t-44 219q-43 101 -121 179q-77 77 -179 122t-219 45t-219 -45q-104 -46 -180 -122q-77 -77 -122 -179t-45 -219zM442 717q0 83 33 157q34 75 88 128 q59 57 131 87q75 31 162 31q60 0 106 -13q45 -13 88 -35q36 -18 70 -46q27 -22 51 -49l-135 -121q-29 34 -74 57q-48 25 -106 25q-48 0 -89 -18q-38 -17 -68 -50q-29 -32 -43 -69q-15 -39 -15 -84q0 -47 15 -87q14 -38 43 -70q27 -30 68 -48t91 -18q69 0 117 29q49 30 72 65 l127 -129q-16 -21 -50 -50t-71 -48q-38 -20 -89 -34q-50 -14 -108 -14q-83 0 -162 31q-73 29 -131 85q-54 53 -88 128q-33 73 -33 160z" />
<glyph unicode="&#xaa;" horiz-adv-x="665" d="M37 1020q0 92 66 147q67 56 169 56q54 0 100 -16q42 -15 72 -38v39q0 53 -44 77t-93 24q-37 0 -84 -12q-55 -14 -90 -31l-51 135q38 22 101 39q65 18 141 18q136 0 204 -64q70 -65 70 -163v-400h-143v80q-33 -45 -88 -70q-52 -24 -109 -24q-42 0 -81 13q-42 14 -71 40 q-31 28 -50 64q-19 37 -19 86zM197 1026q0 -43 33 -59q36 -17 69 -17q48 0 86 23q36 21 59 51v45q-37 18 -71 25q-42 8 -68 8q-35 0 -73 -16q-35 -15 -35 -60z" />
<glyph unicode="&#xab;" horiz-adv-x="1083" d="M12 502l375 483l168 -129l-283 -354l283 -355l-168 -129zM453 502l374 483l168 -129l-282 -354l282 -355l-168 -129z" />
<glyph unicode="&#xac;" horiz-adv-x="1380" d="M37 807v233h1229v-647h-242v414h-987z" />
<glyph unicode="&#xad;" horiz-adv-x="681" d="M68 389v234h546v-234h-546z" />
<glyph unicode="&#xae;" horiz-adv-x="870" d="M10 1044q0 89 34 167q35 80 91 138q55 57 135 92q77 34 166 34t167 -34q79 -35 137 -92q58 -59 93 -138q33 -76 33 -167q0 -90 -33 -165q-35 -80 -93 -136q-58 -57 -137 -91q-78 -34 -167 -34t-166 34q-79 35 -135 91q-55 55 -91 136q-34 77 -34 165zM143 1044 q0 -60 23 -114t62 -93q40 -40 94 -63q51 -22 114 -22q64 0 115 22q53 22 93 63q40 40 64 93q23 50 23 114q0 65 -23 115q-24 53 -64 93t-93 64q-50 23 -115 23q-64 0 -114 -23q-55 -25 -94 -64t-62 -93t-23 -115zM281 854v389h200q60 0 94 -37q35 -38 35 -90q0 -45 -23 -75 q-24 -32 -65 -44l103 -143h-123l-82 125h-29v-125h-110zM391 1073h41q29 0 50 6q22 6 22 37t-22 37q-21 6 -50 6h-41v-86z" />
<glyph unicode="&#xaf;" horiz-adv-x="684" d="M12 1171v222h660v-222h-660z" />
<glyph unicode="&#xb0;" horiz-adv-x="731" d="M45 1137q0 65 25 126q24 58 67 101q43 44 102 69q57 25 126 25q68 0 125 -25q58 -25 102 -69q42 -42 68 -101q26 -60 26 -126t-26 -126t-68 -102q-43 -43 -102 -67q-61 -25 -125 -25q-65 0 -126 25q-59 24 -102 67t-67 102q-25 61 -25 126zM221 1137q0 -62 43 -104 t103 -42q59 0 102 42t43 104q0 61 -43 103q-44 42 -102 42q-60 0 -103 -42t-43 -103z" />
<glyph unicode="&#xb1;" d="M78 0v209h909v-209h-909zM78 551v209h342v266h225v-266h342v-209h-342v-252h-225v252h-342z" />
<glyph unicode="&#xb2;" horiz-adv-x="741" d="M45 1411q15 46 39 89q24 44 62 77q34 30 88 53q49 21 118 21q75 0 133 -26q60 -27 97 -65q38 -39 58 -92q19 -50 19 -100q0 -66 -24 -117q-22 -47 -41 -71l-154 -205h228v-168h-602l311 377q13 19 26 34q19 22 32 42q15 22 27 48q11 23 11 54q0 49 -36 82t-91 33 q-59 0 -92 -37q-31 -36 -47 -84z" />
<glyph unicode="&#xb3;" horiz-adv-x="753" d="M61 991l152 84q17 -48 53 -81t103 -33q53 0 90 25t37 73q0 45 -36 70q-37 26 -102 26h-45v143h31q50 0 93 21q44 21 44 74q0 41 -31 66q-32 26 -88 26q-57 0 -93 -28q-33 -26 -50 -60l-143 78q35 70 105 122q73 54 186 54q59 0 113 -18q56 -19 95 -49q42 -33 66 -79 q25 -48 25 -106q0 -71 -31 -107q-29 -33 -66 -51q45 -18 78 -65t33 -121q0 -66 -27 -114q-27 -49 -70 -81q-42 -32 -101 -49q-55 -16 -115 -16q-67 0 -114 17q-52 19 -88 45q-37 27 -64 63q-25 34 -40 71z" />
<glyph unicode="&#xb4;" horiz-adv-x="557" d="M41 1186l350 356l166 -162l-358 -344z" />
<glyph unicode="&#xb5;" horiz-adv-x="1122" d="M123 -471v1442h246v-561q0 -109 49 -157q50 -48 133 -48q79 0 125 36q49 38 78 83v647h245v-971h-229v141q-17 -30 -43 -57q-31 -32 -63 -53q-42 -27 -83 -40q-50 -16 -102 -16q-53 0 -110 17v-463h-246z" />
<glyph unicode="&#xb6;" horiz-adv-x="1376" d="M74 946q0 102 39 190q39 89 104 154q66 66 155 105q88 39 189 39h664v-1819h-230v1610h-204v-1610h-230v848q-99 0 -189 38t-155 103t-104 154q-39 88 -39 188z" />
<glyph unicode="&#xb7;" horiz-adv-x="569" d="M123 737q0 68 47 115t115 47q67 0 114 -47t47 -115q0 -67 -47 -114q-48 -48 -114 -48q-67 0 -115 48q-47 47 -47 114z" />
<glyph unicode="&#xb8;" horiz-adv-x="645" d="M127 -489l147 397l220 -25l-140 -438z" />
<glyph unicode="&#xb9;" horiz-adv-x="661" d="M16 1370l324 268h174v-831h-190v592l-199 -164z" />
<glyph unicode="&#xba;" horiz-adv-x="731" d="M45 1137q0 66 26 126q26 59 68 101q43 44 102 69q57 25 126 25t126 -25t101 -69t69 -101t25 -126t-25 -126q-25 -59 -69 -102q-42 -43 -101 -68q-60 -26 -126 -26t-126 26t-102 68t-68 102t-26 126zM221 1137q0 -60 43 -103t103 -43q59 0 102 43t43 103q0 59 -43 102 t-102 43q-60 0 -103 -43t-43 -102z" />
<glyph unicode="&#xbb;" horiz-adv-x="1083" d="M88 147l283 355l-283 354l168 129l375 -483l-375 -484zM528 147l283 355l-283 354l168 129l375 -483l-375 -484z" />
<glyph unicode="&#xbc;" horiz-adv-x="1699" d="M53 1165l324 269h174v-832h-191v592l-198 -164zM369 14l964 1483l117 -80l-965 -1483zM920 160l426 671h200v-512h103v-159h-103v-160h-176v160h-450zM1198 319h172v275z" />
<glyph unicode="&#xbd;" horiz-adv-x="1699" d="M33 1165l323 269h174v-832h-190v592l-199 -164zM268 14l965 1483l117 -80l-965 -1483zM961 604q17 51 38 89q23 42 63 77q34 30 88 53q50 21 118 21q75 0 133 -26q59 -26 96 -65q38 -40 58 -91q20 -52 20 -101q0 -64 -25 -117q-22 -47 -41 -71l-153 -205h227v-168h-602 l311 377q8 12 27 34t32 42q12 17 26 48q12 25 12 54q0 49 -36 82t-91 33q-60 0 -93 -37q-31 -36 -47 -84z" />
<glyph unicode="&#xbe;" horiz-adv-x="1699" d="M82 786l151 84q16 -45 54 -80q37 -34 102 -34q53 0 90 25t37 73q0 46 -36 71q-35 25 -101 25h-45v144h31q52 0 93 20q44 21 44 74q0 40 -32 66t-87 26q-57 0 -93 -28q-33 -26 -50 -60l-144 78q35 70 106 123t185 53q60 0 114 -18q56 -19 95 -49q40 -31 65 -79t25 -106 q0 -71 -31 -107q-30 -34 -65 -51q45 -18 78 -65q32 -45 32 -121q0 -68 -26 -114q-27 -47 -71 -81q-43 -32 -100 -49q-55 -16 -116 -16q-67 0 -114 17q-52 19 -88 45q-35 25 -63 63q-25 34 -40 71zM389 14l965 1483l116 -80l-964 -1483zM920 160l426 671h200v-512h103v-159 h-103v-160h-176v160h-450zM1198 319h172v275z" />
<glyph unicode="&#xbf;" horiz-adv-x="1001" d="M82 -70q0 69 17 116q18 50 48 93q24 35 72 83q32 32 90 83l42 39q17 17 23 28q8 14 9 30q2 24 2 44v105h244v-152q0 -47 -11 -83q-10 -34 -31 -62q-18 -25 -58 -58l-85 -73q-49 -42 -82 -83q-34 -41 -34 -108q0 -86 57 -136q58 -50 135 -50q44 0 80 16q40 17 68 43 q30 27 54 63q22 32 38 75l209 -97q-21 -60 -60 -121q-42 -65 -95 -108q-59 -48 -129 -76q-71 -28 -165 -28q-93 0 -173 31t-139 87q-57 54 -92 132q-34 75 -34 167zM344 834q0 67 47 114t115 47t115 -47t47 -114q0 -68 -47 -115t-115 -47t-115 47t-47 115z" />
<glyph unicode="&#xc0;" horiz-adv-x="1388" d="M12 0l557 1434h250l557 -1434h-248l-131 340h-606l-131 -340h-248zM391 1870l166 162l350 -357l-157 -149zM479 565h430l-215 559z" />
<glyph unicode="&#xc1;" horiz-adv-x="1388" d="M12 0l557 1434h250l557 -1434h-248l-131 340h-606l-131 -340h-248zM479 565h430l-215 559zM487 1673l351 357l166 -162l-359 -344z" />
<glyph unicode="&#xc2;" horiz-adv-x="1388" d="M12 0l557 1434h250l557 -1434h-248l-131 340h-606l-131 -340h-248zM313 1688l381 274l381 -274l-135 -168l-246 186l-250 -186zM479 565h430l-215 559z" />
<glyph unicode="&#xc3;" horiz-adv-x="1388" d="M12 0l557 1434h250l557 -1434h-248l-131 340h-606l-131 -340h-248zM279 1712q41 108 115 160q76 53 153 53q49 0 89 -18q35 -16 74 -41l63 -41q32 -19 61 -19q46 0 73 43q26 42 37 90l168 -133q-41 -114 -115 -166q-73 -51 -147 -51q-47 0 -88 19q-30 14 -73 40l-64 40 q-30 18 -62 18q-45 0 -74 -38q-27 -36 -38 -81zM479 565h430l-215 559z" />
<glyph unicode="&#xc4;" horiz-adv-x="1388" d="M12 0l557 1434h250l557 -1434h-248l-131 340h-606l-131 -340h-248zM322 1759q0 68 47 115t114 47q68 0 115 -47t47 -115q0 -67 -47 -114q-48 -48 -115 -48q-66 0 -114 48q-47 47 -47 114zM479 565h430l-215 559zM743 1759q0 67 48 115q47 47 114 47q68 0 115 -47t47 -115 q0 -67 -47 -114q-48 -48 -115 -48q-66 0 -114 48t-48 114z" />
<glyph unicode="&#xc5;" horiz-adv-x="1388" d="M12 0l557 1434h250l557 -1434h-248l-131 340h-606l-131 -340h-248zM444 1767q0 53 21 96q21 44 54 77q35 35 79 54t96 19q53 0 97 -19q42 -18 78 -54q34 -34 55 -77q20 -41 20 -96q0 -54 -20 -95q-21 -44 -55 -78t-78 -53t-97 -19q-52 0 -96 19q-46 20 -79 53 q-32 32 -54 78q-21 44 -21 95zM479 565h430l-215 559zM584 1767q0 -47 31 -78q32 -32 79 -32t79 32t32 78q0 47 -32 79t-79 32t-79 -32q-31 -31 -31 -79z" />
<glyph unicode="&#xc6;" horiz-adv-x="1873" d="M12 0l846 1434h918v-230h-521v-352h471v-234h-471v-389h533v-229h-778v293h-557l-174 -293h-267zM588 526h422v713z" />
<glyph unicode="&#xc7;" horiz-adv-x="1384" d="M70 717q0 161 55 295q56 137 152 234q97 99 231 156q131 56 287 56q99 0 178 -20q80 -20 149 -54q74 -36 119 -72q54 -43 86 -79l-166 -162q-54 60 -144 108q-94 50 -220 50q-105 0 -195 -41q-84 -39 -150 -112q-63 -71 -98 -163q-35 -93 -35 -196q0 -104 35 -197 q34 -90 99 -163q63 -71 151 -111q90 -41 195 -41q129 0 228 54q100 55 157 122l164 -162q-38 -45 -95 -90q-55 -43 -125 -78q-67 -33 -153 -55q-84 -21 -178 -21q-155 0 -289 57q-135 58 -231 155q-95 97 -152 235q-55 134 -55 295zM471 -498l147 398l220 -25l-140 -438z " />
<glyph unicode="&#xc8;" horiz-adv-x="1118" d="M152 0v1434h868v-234h-623v-348h574v-234h-574v-385h635v-233h-880zM301 1870l166 162l350 -357l-158 -149z" />
<glyph unicode="&#xc9;" horiz-adv-x="1118" d="M152 0v1434h868v-234h-623v-348h574v-234h-574v-385h635v-233h-880zM389 1673l350 357l166 -162l-358 -344z" />
<glyph unicode="&#xca;" horiz-adv-x="1118" d="M152 0v1434h868v-234h-623v-348h574v-234h-574v-385h635v-233h-880zM203 1688l381 274l381 -274l-136 -168l-245 186l-250 -186z" />
<glyph unicode="&#xcb;" horiz-adv-x="1118" d="M152 0v1434h868v-234h-623v-348h574v-234h-574v-385h635v-233h-880zM223 1759q0 68 47 115t115 47t115 -47t47 -115q0 -67 -47 -114q-48 -48 -115 -48t-115 48q-47 47 -47 114zM645 1759q0 68 47 115t115 47t115 -47t47 -115q0 -67 -47 -114q-48 -48 -115 -48t-115 48 q-47 47 -47 114z" />
<glyph unicode="&#xcc;" horiz-adv-x="606" d="M8 1870l166 162l350 -357l-157 -149zM180 0v1434h246v-1434h-246z" />
<glyph unicode="&#xcd;" horiz-adv-x="606" d="M82 1673l350 357l166 -162l-358 -344zM176 0v1434h246v-1434h-246z" />
<glyph unicode="&#xce;" horiz-adv-x="606" d="M-72 1708l381 274l381 -274l-135 -168l-246 186l-250 -186zM180 0v1434h246v-1434h-246z" />
<glyph unicode="&#xcf;" horiz-adv-x="606" d="M-96 1759q0 68 47 115t115 47q67 0 114 -47t47 -115q0 -67 -47 -114q-48 -48 -114 -48q-67 0 -115 48q-47 47 -47 114zM154 0v1434h245v-1434h-245zM326 1759q0 68 47 115t114 47q68 0 115 -47t47 -115q0 -67 -47 -114q-48 -48 -115 -48q-66 0 -114 48q-47 47 -47 114z " />
<glyph unicode="&#xd0;" horiz-adv-x="1449" d="M25 625v213h184v596h463q153 0 286 -55q132 -55 225 -149q91 -93 145 -226q52 -129 52 -287t-52 -287q-54 -133 -145 -226q-94 -96 -225 -150q-130 -54 -286 -54h-463v625h-184zM455 233h221q104 0 188 39q82 38 144 106q59 65 91 153q31 86 31 186q0 99 -31 186 q-32 89 -91 154q-58 64 -144 104q-84 39 -188 39h-221v-362h413v-213h-413v-392z" />
<glyph unicode="&#xd1;" horiz-adv-x="1486" d="M152 0v1434h221l717 -988v988h245v-1434h-221l-717 985v-985h-245zM334 1712q41 107 116 160q76 53 152 53q48 0 89 -18q35 -16 74 -41l63 -41q32 -19 61 -19q47 0 74 43q25 40 36 90l168 -133q-41 -115 -114 -166t-148 -51q-47 0 -88 19q-30 14 -73 40l-64 40 q-30 18 -62 18q-44 0 -73 -38t-39 -81z" />
<glyph unicode="&#xd2;" horiz-adv-x="1589" d="M70 717q0 160 54 295q54 136 151 234q97 99 230 156q130 56 290 56q157 0 288 -56q133 -57 231 -156q97 -98 151 -234q55 -138 55 -295t-55 -295t-151 -235t-231 -155q-133 -57 -288 -57q-158 0 -290 57q-135 58 -230 155q-96 97 -151 235q-54 135 -54 295zM319 717 q0 -107 34 -197q35 -92 96 -161t149 -109q90 -41 197 -41q106 0 196 41q89 41 150 109q59 67 95 161q34 90 34 197q0 106 -34 196q-36 94 -95 161q-62 70 -150 110q-90 41 -196 41q-107 0 -197 -41q-86 -39 -149 -110q-61 -69 -96 -161q-34 -90 -34 -196zM510 1870l166 162 l350 -357l-158 -149z" />
<glyph unicode="&#xd3;" horiz-adv-x="1589" d="M70 717q0 160 54 295q54 136 151 234q97 99 230 156q130 56 290 56q157 0 288 -56q133 -57 231 -156q97 -98 151 -234q55 -138 55 -295t-55 -295t-151 -235t-231 -155q-133 -57 -288 -57q-158 0 -290 57q-135 58 -230 155q-96 97 -151 235q-54 135 -54 295zM319 717 q0 -107 34 -197q35 -92 96 -161t149 -109q90 -41 197 -41q106 0 196 41q89 41 150 109q59 67 95 161q34 90 34 197q0 106 -34 196q-36 94 -95 161q-62 70 -150 110q-90 41 -196 41q-107 0 -197 -41q-86 -39 -149 -110q-61 -69 -96 -161q-34 -90 -34 -196zM553 1673l350 357 l166 -162l-358 -344z" />
<glyph unicode="&#xd4;" horiz-adv-x="1589" d="M70 717q0 160 54 295q54 136 151 234q97 99 230 156q130 56 290 56q157 0 288 -56q133 -57 231 -156q97 -98 151 -234q55 -138 55 -295t-55 -295t-151 -235t-231 -155q-133 -57 -288 -57q-158 0 -290 57q-135 58 -230 155q-96 97 -151 235q-54 135 -54 295zM319 717 q0 -107 34 -197q35 -92 96 -161t149 -109q90 -41 197 -41q106 0 196 41q89 41 150 109q59 67 95 161q34 90 34 197q0 106 -34 196q-36 94 -95 161q-62 70 -150 110q-90 41 -196 41q-107 0 -197 -41q-86 -39 -149 -110q-61 -69 -96 -161q-34 -90 -34 -196zM418 1688l381 274 l381 -274l-136 -168l-245 186l-250 -186z" />
<glyph unicode="&#xd5;" horiz-adv-x="1589" d="M70 717q0 160 54 295q54 136 151 234q97 99 230 156q130 56 290 56q157 0 288 -56q133 -57 231 -156q97 -98 151 -234q55 -138 55 -295t-55 -295t-151 -235t-231 -155q-133 -57 -288 -57q-158 0 -290 57q-135 58 -230 155q-96 97 -151 235q-54 135 -54 295zM319 717 q0 -107 34 -197q35 -92 96 -161t149 -109q90 -41 197 -41q106 0 196 41q89 41 150 109q59 67 95 161q34 90 34 197q0 106 -34 196q-36 94 -95 161q-62 70 -150 110q-90 41 -196 41q-107 0 -197 -41q-86 -39 -149 -110q-61 -69 -96 -161q-34 -90 -34 -196zM381 1712 q41 107 116 160q76 53 152 53q49 0 89 -18q35 -16 74 -41l64 -41q32 -19 60 -19q47 0 74 43q26 42 37 90l167 -133q-41 -115 -114 -166q-74 -51 -148 -51q-47 0 -88 19q-26 12 -72 40l-65 40q-30 18 -61 18q-45 0 -74 -38q-28 -38 -39 -81z" />
<glyph unicode="&#xd6;" horiz-adv-x="1589" d="M70 717q0 160 54 295q54 136 151 234q97 99 230 156q130 56 290 56q157 0 288 -56q133 -57 231 -156q97 -98 151 -234q55 -138 55 -295t-55 -295t-151 -235t-231 -155q-133 -57 -288 -57q-158 0 -290 57q-135 58 -230 155q-96 97 -151 235q-54 135 -54 295zM319 717 q0 -107 34 -197q35 -92 96 -161t149 -109q90 -41 197 -41q106 0 196 41q89 41 150 109q59 67 95 161q34 90 34 197q0 106 -34 196q-36 94 -95 161q-62 70 -150 110q-90 41 -196 41q-107 0 -197 -41q-86 -39 -149 -110q-61 -69 -96 -161q-34 -90 -34 -196zM422 1759 q0 68 47 115t115 47q67 0 114 -47t47 -115q0 -67 -47 -114q-48 -48 -114 -48q-67 0 -115 48q-47 47 -47 114zM844 1759q0 68 47 115t115 47q67 0 114 -47t47 -115q0 -67 -47 -114q-48 -48 -114 -48q-67 0 -115 48q-47 47 -47 114z" />
<glyph unicode="&#xd7;" d="M59 209l314 313l-314 314l160 159l313 -313l314 313l160 -159l-314 -314l314 -313l-160 -160l-314 313l-313 -313z" />
<glyph unicode="&#xd8;" horiz-adv-x="1605" d="M78 717q0 160 54 295q54 134 152 234q98 99 229 156q130 56 288 56q121 0 231 -35q108 -34 197 -98l143 168l101 -84l-144 -170q95 -101 147 -233t52 -289q0 -160 -54 -295q-54 -136 -152 -235q-97 -98 -230 -155q-134 -57 -289 -57q-121 0 -231 35q-102 33 -197 99 l-142 -168l-100 84l143 170q-94 98 -146 231q-52 132 -52 291zM328 717q0 -95 27 -181q26 -82 81 -153l639 758q-56 41 -125 62q-72 22 -147 22q-107 0 -197 -41q-86 -39 -149 -110q-61 -69 -96 -161q-33 -88 -33 -196zM530 293q59 -43 124 -63q69 -21 149 -21q106 0 196 41 q89 41 150 109q59 67 95 161q34 90 34 197q0 90 -28 179q-26 82 -81 153z" />
<glyph unicode="&#xd9;" horiz-adv-x="1409" d="M154 520v914h245v-883q0 -153 77 -248q76 -94 231 -94q154 0 230 94q77 95 77 248v883h246v-914q0 -119 -39 -218q-40 -101 -111 -172q-74 -74 -174 -114q-103 -41 -229 -41q-127 0 -230 41q-100 40 -174 114q-70 70 -110 172q-39 99 -39 218zM387 1870l166 162l350 -357 l-158 -149z" />
<glyph unicode="&#xda;" horiz-adv-x="1409" d="M152 520v914h245v-883q0 -153 77 -248q76 -94 231 -94q154 0 230 94q77 95 77 248v883h245v-914q0 -122 -38 -218q-40 -101 -111 -172q-74 -74 -174 -114q-103 -41 -229 -41q-127 0 -230 41q-100 40 -174 114q-71 71 -111 172q-38 96 -38 218zM516 1673l350 357l166 -162 l-358 -344z" />
<glyph unicode="&#xdb;" horiz-adv-x="1409" d="M152 520v914h245v-883q0 -153 77 -248q76 -94 231 -94q154 0 230 94q77 95 77 248v883h245v-914q0 -122 -38 -218q-40 -101 -111 -172q-74 -74 -174 -114q-103 -41 -229 -41q-127 0 -230 41q-100 40 -174 114q-71 71 -111 172q-38 96 -38 218zM324 1688l381 274l380 -274 l-135 -168l-245 186l-250 -186z" />
<glyph unicode="&#xdc;" horiz-adv-x="1409" d="M152 520v914h245v-883q0 -153 77 -248q76 -94 231 -94q154 0 230 94q77 95 77 248v883h245v-914q0 -122 -38 -218q-40 -101 -111 -172q-74 -74 -174 -114q-103 -41 -229 -41q-127 0 -230 41q-100 40 -174 114q-71 71 -111 172q-38 96 -38 218zM332 1759q0 68 47 115 t115 47q67 0 114 -47t47 -115q0 -67 -47 -114q-48 -48 -114 -48q-67 0 -115 48q-47 47 -47 114zM754 1759q0 68 47 115t114 47q68 0 115 -47t47 -115q0 -67 -47 -114q-48 -48 -115 -48q-66 0 -114 48q-47 47 -47 114z" />
<glyph unicode="&#xdd;" horiz-adv-x="1257" d="M16 1434h271l350 -641l350 641h254l-489 -869v-565h-246v565zM440 1673l351 357l165 -162l-358 -344z" />
<glyph unicode="&#xde;" horiz-adv-x="1116" d="M152 0v1434h245v-228h176q109 0 197 -26q92 -27 161 -81q67 -52 108 -136q40 -81 40 -195t-40 -195q-41 -84 -108 -136q-69 -54 -161 -81q-88 -26 -197 -26h-176v-330h-245zM397 559h146q61 0 113 9t93 33q39 23 62 64t23 103t-23 103t-62 64q-41 24 -93 33q-53 9 -113 9 h-146v-418z" />
<glyph unicode="&#xdf;" horiz-adv-x="1230" d="M131 0v1112q0 104 35 191q34 85 97 145q61 58 149 92q86 33 186 33q93 0 178 -29q83 -28 147 -83q62 -53 98 -133t36 -177q0 -63 -15 -113q-16 -54 -37 -85q-23 -34 -55 -60q-32 -25 -63 -41q51 -12 102 -41q46 -27 86 -76q38 -47 60 -115q22 -67 22 -163 q0 -128 -44 -221t-121 -150q-76 -57 -183 -84t-229 -27h-41v230h30q94 0 157 19q62 19 104 56t59 82q18 46 18 103q0 55 -17 99q-19 48 -57 81q-40 34 -109 55t-169 21v217q87 0 136 24q52 25 76 55q26 32 33 64q7 31 7 54q0 35 -11 68q-13 38 -36 67q-24 30 -65 50 q-39 19 -97 19q-99 0 -160 -61t-61 -166v-1112h-246z" />
<glyph unicode="&#xe0;" horiz-adv-x="1097" d="M78 295q0 74 30 134q31 61 81 103q51 43 123 67q70 24 153 24q67 0 139 -18q74 -19 125 -52v55q0 49 -20 80t-52 52t-68 28q-40 8 -73 8q-51 0 -125 -16q-79 -17 -162 -55l-79 202q77 36 175 62t214 26q203 0 319 -98q117 -99 117 -264v-633h-227v123q-46 -63 -131 -106 q-83 -42 -185 -42q-66 0 -134 22q-64 21 -114 63t-78 102q-28 59 -28 133zM272 1442l166 162l350 -357l-157 -149zM328 305q0 -40 16 -63q17 -25 42 -38q28 -15 56 -19q33 -5 58 -5q86 0 141 36q54 35 88 77v100q-50 26 -106 37q-60 12 -107 12q-34 0 -65 -7q-36 -8 -61 -22 q-27 -15 -45 -42q-17 -25 -17 -66z" />
<glyph unicode="&#xe1;" horiz-adv-x="1097" d="M78 295q0 74 30 134q31 61 81 103q51 43 123 67q70 24 153 24q67 0 139 -18q74 -19 125 -52v55q0 49 -20 80t-52 52t-68 28q-40 8 -73 8q-51 0 -125 -16q-79 -17 -162 -55l-79 202q77 36 175 62t214 26q203 0 319 -98q117 -99 117 -264v-633h-227v123q-46 -63 -131 -106 q-83 -42 -185 -42q-66 0 -134 22q-64 21 -114 63t-78 102q-28 59 -28 133zM328 305q0 -40 16 -63q17 -25 42 -38q28 -15 56 -19q33 -5 58 -5q86 0 141 36q54 35 88 77v100q-50 26 -106 37q-60 12 -107 12q-34 0 -65 -7q-36 -8 -61 -22q-27 -15 -45 -42q-17 -25 -17 -66z M354 1247l351 357l165 -162l-358 -344z" />
<glyph unicode="&#xe2;" horiz-adv-x="1097" d="M78 295q0 74 30 134q31 61 81 103q51 43 123 67q70 24 153 24q67 0 139 -18q74 -19 125 -52v55q0 49 -20 80t-52 52t-68 28q-40 8 -73 8q-51 0 -125 -16q-79 -17 -162 -55l-79 202q77 36 175 62t214 26q203 0 319 -98q117 -99 117 -264v-633h-227v123q-46 -63 -131 -106 q-83 -42 -185 -42q-66 0 -134 22q-64 21 -114 63t-78 102q-28 59 -28 133zM203 1241l381 275l381 -275l-136 -168l-245 187l-250 -187zM328 305q0 -40 16 -63q17 -25 42 -38q28 -15 56 -19q33 -5 58 -5q86 0 141 36q54 35 88 77v100q-50 26 -106 37q-60 12 -107 12 q-34 0 -65 -7q-36 -8 -61 -22q-27 -15 -45 -42q-17 -25 -17 -66z" />
<glyph unicode="&#xe3;" horiz-adv-x="1097" d="M78 295q0 74 30 134q31 61 81 103q51 43 123 67q70 24 153 24q67 0 139 -18q74 -19 125 -52v55q0 49 -20 80t-52 52t-68 28q-40 8 -73 8q-51 0 -125 -16q-79 -17 -162 -55l-79 202q77 36 175 62t214 26q203 0 319 -98q117 -99 117 -264v-633h-227v123q-46 -63 -131 -106 q-83 -42 -185 -42q-66 0 -134 22q-64 21 -114 63t-78 102q-28 59 -28 133zM135 1260q40 106 116 159q77 54 152 54q47 0 90 -19q32 -14 73 -41l64 -41q30 -18 60 -18q47 0 74 43q26 42 37 90l168 -133q-41 -114 -115 -166q-74 -51 -147 -51q-50 0 -89 18q-26 12 -72 40 l-65 40q-30 18 -61 18q-45 0 -74 -38t-39 -80zM328 305q0 -40 16 -63q17 -25 42 -38q28 -15 56 -19q33 -5 58 -5q86 0 141 36q54 35 88 77v100q-50 26 -106 37q-60 12 -107 12q-34 0 -65 -7q-36 -8 -61 -22q-27 -15 -45 -42q-17 -25 -17 -66z" />
<glyph unicode="&#xe4;" horiz-adv-x="1097" d="M78 295q0 74 30 134q31 61 81 103q51 43 123 67q70 24 153 24q67 0 139 -18q74 -19 125 -52v55q0 49 -20 80t-52 52t-68 28q-40 8 -73 8q-51 0 -125 -16q-79 -17 -162 -55l-79 202q77 36 175 62t214 26q203 0 319 -98q117 -99 117 -264v-633h-227v123q-46 -63 -131 -106 q-83 -42 -185 -42q-66 0 -134 22q-64 21 -114 63t-78 102q-28 59 -28 133zM195 1292q0 68 47 115t114 47q68 0 115 -47t47 -115q0 -67 -47 -114q-48 -48 -115 -48q-66 0 -114 48q-47 47 -47 114zM328 305q0 -40 16 -63q17 -25 42 -38q28 -15 56 -19q33 -5 58 -5q86 0 141 36 q54 35 88 77v100q-50 26 -106 37q-60 12 -107 12q-34 0 -65 -7q-36 -8 -61 -22q-27 -15 -45 -42q-17 -25 -17 -66zM616 1292q0 67 48 115q47 47 114 47q68 0 115 -47t47 -115q0 -67 -47 -114q-48 -48 -115 -48q-66 0 -114 48t-48 114z" />
<glyph unicode="&#xe5;" horiz-adv-x="1097" d="M78 295q0 74 30 134q31 61 81 103q51 43 123 67q70 24 153 24q67 0 139 -18q74 -19 125 -52v55q0 49 -20 80t-52 52t-68 28q-40 8 -73 8q-51 0 -125 -16q-79 -17 -162 -55l-79 202q77 36 175 62t214 26q203 0 319 -98q117 -99 117 -264v-633h-227v123q-46 -63 -131 -106 q-83 -42 -185 -42q-66 0 -134 22q-64 21 -114 63t-78 102q-28 59 -28 133zM299 1325q0 54 20 95q21 44 55 78q33 33 79 53t96 20t96 -20t79 -53q32 -32 54 -78q21 -44 21 -95t-21 -95q-22 -46 -54 -78q-33 -33 -79 -53t-96 -20t-96 20t-79 53q-34 34 -55 78q-20 41 -20 95z M328 305q0 -40 16 -63q17 -25 42 -38q28 -15 56 -19q33 -5 58 -5q86 0 141 36q54 35 88 77v100q-50 26 -106 37q-60 12 -107 12q-34 0 -65 -7q-36 -8 -61 -22q-27 -15 -45 -42q-17 -25 -17 -66zM438 1325q0 -47 32 -79t79 -32t79 32q31 31 31 79t-31 79q-32 32 -79 32 t-79 -32t-32 -79z" />
<glyph unicode="&#xe6;" horiz-adv-x="1771" d="M78 291q0 56 19 106t64 90q44 39 112 63q66 23 167 23h305q0 48 -23 84q-25 39 -61 62q-40 26 -81 38q-43 13 -91 13q-55 0 -124 -20q-72 -21 -138 -66l-108 193q62 43 167 81q101 37 218 37q81 0 139 -17q64 -19 107 -43t74 -54q26 -25 46 -50q66 76 158 120 q93 44 209 44q103 0 190 -37q90 -38 152 -103t99 -160q36 -93 36 -206v-37q0 -15 -2 -53h-719q7 -31 30 -69q22 -36 56 -64q35 -29 82 -47t107 -18q63 0 133 22t129 76l123 -184q-62 -51 -160 -95q-100 -45 -229 -45q-128 0 -235 52q-104 51 -177 137q-24 -34 -60 -69 q-31 -30 -83 -60q-44 -26 -107 -43q-62 -17 -135 -17q-84 0 -158 23q-73 23 -123 64q-51 42 -80 100q-28 56 -28 129zM324 297q0 -32 15 -53q13 -19 40 -32q19 -10 53 -15q25 -4 57 -4q135 0 200 61q67 62 67 143h-281q-79 0 -115 -26t-36 -74zM993 573h477q-2 32 -16 67 q-16 38 -43 65q-28 28 -73 48q-42 19 -105 19q-62 0 -104 -19q-43 -19 -72 -48q-28 -28 -45 -64q-18 -37 -19 -68z" />
<glyph unicode="&#xe7;" horiz-adv-x="1017" d="M57 485q0 106 41 200q41 93 112 163q70 68 166 108q94 39 204 39q73 0 133 -16q63 -17 111 -43q53 -29 89 -58q38 -31 64 -63l-170 -151q-36 42 -94 71q-62 31 -133 31q-61 0 -113 -23q-53 -23 -86 -61q-34 -39 -54 -89q-20 -51 -20 -108q0 -56 20 -108q20 -53 55 -89 q37 -39 86 -61q48 -22 114 -22q85 0 147 38q61 37 90 81l162 -164q-26 -33 -63 -64q-34 -29 -91 -59q-47 -25 -112 -44q-61 -18 -135 -18q-111 0 -204 40q-97 42 -166 109q-72 71 -112 162q-41 94 -41 199zM287 -498l147 398l219 -25l-139 -438z" />
<glyph unicode="&#xe8;" horiz-adv-x="1091" d="M57 489q0 107 37 197q38 92 102 161q62 67 154 108q89 40 195 40q102 0 189 -37q92 -39 156 -103q65 -65 105 -160q39 -93 39 -206v-38q0 -16 -2 -54h-725q7 -31 30 -69q23 -37 57 -63q38 -29 83 -46q47 -18 107 -18q63 0 133 22t129 76l123 -184q-62 -51 -160 -95 q-101 -45 -229 -45q-112 0 -206 39t-166 109q-70 69 -111 164q-40 93 -40 202zM270 1421l166 162l350 -356l-157 -150zM307 575h481q-2 30 -17 66q-15 35 -45 65t-75 48t-106 18q-59 0 -103 -18q-40 -17 -72 -47q-29 -28 -45 -64q-17 -38 -18 -68z" />
<glyph unicode="&#xe9;" horiz-adv-x="1091" d="M57 489q0 107 37 197q38 92 102 161q62 67 154 108q89 40 195 40q102 0 189 -37q92 -39 156 -103q65 -65 105 -160q39 -93 39 -206v-38q0 -16 -2 -54h-725q7 -31 30 -69q23 -37 57 -63q38 -29 83 -46q47 -18 107 -18q63 0 133 22t129 76l123 -184q-62 -51 -160 -95 q-101 -45 -229 -45q-112 0 -206 39t-166 109q-70 69 -111 164q-40 93 -40 202zM307 575h481q-2 30 -17 66q-15 35 -45 65t-75 48t-106 18q-59 0 -103 -18q-40 -17 -72 -47q-29 -28 -45 -64q-17 -38 -18 -68zM336 1227l350 356l166 -162l-358 -344z" />
<glyph unicode="&#xea;" horiz-adv-x="1091" d="M57 489q0 107 37 197q38 92 102 161q62 67 154 108q89 40 195 40q102 0 189 -37q92 -39 156 -103q65 -65 105 -160q39 -93 39 -206v-38q0 -16 -2 -54h-725q7 -31 30 -69q23 -37 57 -63q38 -29 83 -46q47 -18 107 -18q63 0 133 22t129 76l123 -184q-62 -51 -160 -95 q-101 -45 -229 -45q-112 0 -206 39t-166 109q-70 69 -111 164q-40 93 -40 202zM174 1266l381 274l381 -274l-135 -168l-246 186l-250 -186zM307 575h481q-2 30 -17 66q-15 35 -45 65t-75 48t-106 18q-59 0 -103 -18q-40 -17 -72 -47q-29 -28 -45 -64q-17 -38 -18 -68z" />
<glyph unicode="&#xeb;" horiz-adv-x="1091" d="M57 489q0 107 37 197q38 92 102 161q62 67 154 108q89 40 195 40q102 0 189 -37q92 -39 156 -103q65 -65 105 -160q39 -93 39 -206v-38q0 -16 -2 -54h-725q7 -31 30 -69q23 -37 57 -63q38 -29 83 -46q47 -18 107 -18q63 0 133 22t129 76l123 -184q-62 -51 -160 -95 q-101 -45 -229 -45q-112 0 -206 39t-166 109q-70 69 -111 164q-40 93 -40 202zM172 1292q0 68 47 115t115 47t115 -47t47 -115q0 -67 -47 -114q-48 -48 -115 -48t-115 48q-47 47 -47 114zM307 575h481q-2 30 -17 66q-15 35 -45 65t-75 48t-106 18q-59 0 -103 -18 q-40 -17 -72 -47q-29 -28 -45 -64q-17 -38 -18 -68zM594 1292q0 68 47 115t115 47q67 0 114 -47q48 -48 48 -115q0 -66 -48 -114t-114 -48q-67 0 -115 48q-47 47 -47 114z" />
<glyph unicode="&#xec;" horiz-adv-x="569" d="M0 1423l166 162l350 -356l-158 -150zM160 0v971h246v-971h-246z" />
<glyph unicode="&#xed;" horiz-adv-x="569" d="M53 1227l350 356l166 -162l-358 -344zM152 0v971h245v-971h-245z" />
<glyph unicode="&#xee;" horiz-adv-x="630" d="M-63 1266l380 274l381 -274l-135 -168l-246 186l-249 -186zM193 0v971h245v-971h-245z" />
<glyph unicode="&#xef;" horiz-adv-x="569" d="M-86 1292q0 68 47 115t115 47q67 0 114 -47q48 -48 48 -115q0 -66 -48 -114t-114 -48q-67 0 -115 48q-47 47 -47 114zM162 0v971h246v-971h-246zM336 1292q0 68 47 115t115 47q67 0 114 -47t47 -115q0 -67 -47 -114q-48 -48 -114 -48q-67 0 -115 48q-47 47 -47 114z" />
<glyph unicode="&#xf0;" horiz-adv-x="1181" d="M57 485q0 108 40 200q41 94 110 163q68 68 163 108q93 39 199 39q45 0 91 -8q42 -7 88 -31q-39 61 -97 122t-112 108l-299 -137l-74 159l207 97q-48 28 -107 58l-98 50l96 182q88 -43 160 -83q93 -52 168 -105l260 121l74 -160l-181 -84q76 -70 135 -144q61 -77 107 -169 t71 -191t25 -211q0 -137 -40 -247q-42 -115 -108 -188q-71 -78 -163 -118q-96 -41 -201 -41q-108 0 -201 39t-163 109q-69 69 -110 162q-40 90 -40 200zM303 485q0 -54 19 -108q18 -52 54 -89q38 -40 85 -61q48 -22 110 -22q63 0 111 22q47 21 85 61q36 37 54 89 q19 54 19 108q0 56 -19 108q-18 50 -54 89t-85 61q-51 23 -111 23q-59 0 -110 -23q-49 -22 -85 -61t-54 -89q-19 -52 -19 -108z" />
<glyph unicode="&#xf1;" horiz-adv-x="1122" d="M123 0v971h229v-142q16 27 42 57t63 54q42 27 83 40q47 15 105 15q69 0 134 -24q62 -23 114 -72q49 -46 78 -115q28 -66 28 -155v-629h-245v567q0 105 -57 152q-58 47 -130 47q-78 0 -125 -41q-45 -40 -73 -84v-641h-246zM156 1260q41 107 115 159q77 54 153 54 q46 0 89 -19q35 -16 74 -41l63 -41q30 -18 61 -18q46 0 73 43q26 42 37 90l168 -133q-41 -114 -115 -166q-74 -51 -147 -51q-49 0 -88 18q-30 14 -73 40l-64 40q-30 18 -62 18q-44 0 -73 -38t-39 -80z" />
<glyph unicode="&#xf2;" horiz-adv-x="1150" d="M57 485q0 108 40 200q41 95 111 163q70 69 165 108t202 39q109 0 203 -39t165 -108q70 -68 111 -163q40 -92 40 -200q0 -107 -40 -199q-40 -93 -111 -162q-70 -68 -165 -109q-93 -40 -203 -40q-109 0 -202 40q-95 41 -165 109q-70 69 -111 162q-40 92 -40 199zM256 1423 l166 162l350 -356l-158 -150zM307 485q0 -54 19 -108q18 -51 53 -89t85 -61q48 -22 111 -22q64 0 112 22q50 23 85 61t53 89q19 54 19 108q0 56 -19 108q-18 49 -53 89q-33 37 -85 61q-51 23 -112 23q-60 0 -111 -23q-52 -24 -85 -61q-35 -40 -53 -89q-19 -52 -19 -108z" />
<glyph unicode="&#xf3;" horiz-adv-x="1150" d="M57 485q0 108 40 200q41 95 111 163q70 69 165 108t202 39q109 0 203 -39t165 -108q70 -68 111 -163q40 -92 40 -200q0 -107 -40 -199q-40 -93 -111 -162q-70 -68 -165 -109q-93 -40 -203 -40q-109 0 -202 40q-95 41 -165 109q-70 69 -111 162q-40 92 -40 199zM307 485 q0 -54 19 -108q18 -51 53 -89t85 -61q48 -22 111 -22q64 0 112 22q50 23 85 61t53 89q19 54 19 108q0 56 -19 108q-18 49 -53 89q-33 37 -85 61q-51 23 -112 23q-60 0 -111 -23q-52 -24 -85 -61q-35 -40 -53 -89q-19 -52 -19 -108zM379 1227l350 356l166 -162l-358 -344z " />
<glyph unicode="&#xf4;" horiz-adv-x="1150" d="M57 485q0 108 40 200q41 95 111 163q70 69 165 108t202 39q109 0 203 -39t165 -108q70 -68 111 -163q40 -92 40 -200q0 -107 -40 -199q-40 -93 -111 -162q-70 -68 -165 -109q-93 -40 -203 -40q-109 0 -202 40q-95 41 -165 109q-70 69 -111 162q-40 92 -40 199zM195 1241 l380 275l381 -275l-135 -168l-246 187l-249 -187zM307 485q0 -54 19 -108q18 -51 53 -89t85 -61q48 -22 111 -22q64 0 112 22q50 23 85 61t53 89q19 54 19 108q0 56 -19 108q-18 49 -53 89q-33 37 -85 61q-51 23 -112 23q-60 0 -111 -23q-52 -24 -85 -61q-35 -40 -53 -89 q-19 -52 -19 -108z" />
<glyph unicode="&#xf5;" horiz-adv-x="1150" d="M57 485q0 108 40 200q41 95 111 163q70 69 165 108t202 39q109 0 203 -39t165 -108q70 -68 111 -163q40 -92 40 -200q0 -107 -40 -199q-40 -93 -111 -162q-70 -68 -165 -109q-93 -40 -203 -40q-109 0 -202 40q-95 41 -165 109q-70 69 -111 162q-40 92 -40 199zM164 1251 q41 107 116 160q76 53 152 53q48 0 89 -18q35 -16 74 -41l63 -41q30 -18 61 -18q47 0 74 43q25 40 36 90l168 -133q-41 -115 -114 -166q-75 -52 -148 -52q-47 0 -88 19q-30 14 -73 40l-64 40q-30 18 -61 18q-45 0 -74 -38q-29 -37 -39 -81zM307 485q0 -54 19 -108 q18 -51 53 -89t85 -61q48 -22 111 -22q64 0 112 22q50 23 85 61t53 89q19 54 19 108q0 56 -19 108q-18 49 -53 89q-33 37 -85 61q-51 23 -112 23q-60 0 -111 -23q-52 -24 -85 -61q-35 -40 -53 -89q-19 -52 -19 -108z" />
<glyph unicode="&#xf6;" horiz-adv-x="1150" d="M57 485q0 108 40 200q41 95 111 163q70 69 165 108t202 39q109 0 203 -39t165 -108q70 -68 111 -163q40 -92 40 -200q0 -107 -40 -199q-40 -93 -111 -162q-70 -68 -165 -109q-93 -40 -203 -40q-109 0 -202 40q-95 41 -165 109q-70 69 -111 162q-40 92 -40 199zM203 1292 q0 68 47 115t115 47q67 0 114 -47t47 -115q0 -67 -47 -114q-48 -48 -114 -48q-67 0 -115 48q-47 47 -47 114zM307 485q0 -54 19 -108q18 -51 53 -89t85 -61q48 -22 111 -22q64 0 112 22q50 23 85 61t53 89q19 54 19 108q0 56 -19 108q-18 49 -53 89q-33 37 -85 61 q-51 23 -112 23q-60 0 -111 -23q-52 -24 -85 -61q-35 -40 -53 -89q-19 -52 -19 -108zM625 1292q0 68 47 115t114 47q68 0 115 -47t47 -115q0 -67 -47 -114q-48 -48 -115 -48q-66 0 -114 48q-47 47 -47 114z" />
<glyph unicode="&#xf7;" d="M72 373v225h921v-225h-921zM369 137q0 68 47 115t114 47q68 0 115 -47t47 -115q0 -67 -47 -114q-48 -48 -115 -48q-66 0 -114 48q-47 47 -47 114zM369 834q0 67 47 114t114 47q68 0 115 -47t47 -114q0 -68 -47 -115t-115 -47q-67 0 -114 47t-47 115z" />
<glyph unicode="&#xf8;" horiz-adv-x="1167" d="M66 485q0 110 39 200q41 95 111 163q70 69 165 108q94 39 203 39q81 0 148 -20q74 -22 130 -57l88 104l99 -82l-88 -104q64 -66 103 -157q38 -90 38 -194q0 -107 -40 -199q-40 -93 -111 -162q-70 -68 -165 -109q-93 -40 -202 -40q-79 0 -151 21q-75 22 -132 59l-94 -110 l-98 82l94 110q-65 67 -102 157q-35 86 -35 191zM315 483q0 -43 12 -84q13 -45 33 -75l349 413q-53 29 -125 29q-61 0 -112 -23q-52 -24 -85 -61q-35 -40 -53 -90q-19 -54 -19 -109zM453 236q57 -31 129 -31q65 0 113 22q50 23 85 61q37 40 54 89q18 51 18 108q0 93 -47 166 z" />
<glyph unicode="&#xf9;" horiz-adv-x="1122" d="M123 342v629h246v-561q0 -109 49 -157q50 -48 133 -48q79 0 125 36q49 38 78 83v647h245v-971h-229v141q-17 -27 -45 -58q-27 -30 -63 -53q-39 -25 -83 -39q-50 -16 -102 -16q-65 0 -132 25q-62 23 -114 72q-47 44 -78 114q-30 68 -30 156zM258 1423l166 162l350 -356 l-158 -150z" />
<glyph unicode="&#xfa;" horiz-adv-x="1122" d="M123 342v629h246v-561q0 -109 49 -157q50 -48 133 -48q79 0 125 36q49 38 78 83v647h245v-971h-229v141q-17 -27 -45 -58q-27 -30 -63 -53q-39 -25 -83 -39q-50 -16 -102 -16q-65 0 -132 25q-62 23 -114 72q-47 44 -78 114q-30 68 -30 156zM367 1227l350 356l166 -162 l-359 -344z" />
<glyph unicode="&#xfb;" horiz-adv-x="1122" d="M123 342v629h246v-561q0 -109 49 -157q50 -48 133 -48q79 0 125 36q49 38 78 83v647h245v-971h-229v141q-17 -27 -45 -58q-27 -30 -63 -53q-39 -25 -83 -39q-50 -16 -102 -16q-65 0 -132 25q-62 23 -114 72q-47 44 -78 114q-30 68 -30 156zM182 1241l381 275l381 -275 l-135 -168l-246 187l-250 -187z" />
<glyph unicode="&#xfc;" horiz-adv-x="1122" d="M123 342v629h246v-561q0 -109 49 -157q50 -48 133 -48q79 0 125 36q49 38 78 83v647h245v-971h-229v141q-17 -27 -45 -58q-27 -30 -63 -53q-39 -25 -83 -39q-50 -16 -102 -16q-65 0 -132 25q-62 23 -114 72q-47 44 -78 114q-30 68 -30 156zM193 1292q0 68 47 115t114 47 q68 0 115 -47t47 -115q0 -67 -47 -114q-48 -48 -115 -48q-66 0 -114 48q-47 47 -47 114zM614 1292q0 67 48 115q47 47 114 47q68 0 115 -47t47 -115q0 -67 -47 -114q-48 -48 -115 -48q-66 0 -114 48t-48 114z" />
<glyph unicode="&#xfd;" horiz-adv-x="1140" d="M16 971h273l327 -711l256 711h265l-471 -1188q-30 -79 -73 -133q-44 -54 -88 -86q-45 -32 -96 -46t-100 -14q-83 0 -153 31q-66 29 -115 72l115 190q38 -33 71 -49q28 -14 68 -14q59 0 92 33q35 35 64 110l38 100zM393 1227l350 356l166 -162l-358 -344z" />
<glyph unicode="&#xfe;" horiz-adv-x="1193" d="M152 -471v2019h245v-680q8 10 35 37q24 24 56 42q34 19 80 34q43 14 106 14q91 0 178 -38q86 -37 150 -105q65 -68 104 -161t39 -206q0 -111 -39 -206q-39 -94 -104 -162q-64 -67 -150 -105q-84 -37 -178 -37q-58 0 -106 14q-46 13 -80 34q-38 23 -56 40q-25 24 -35 37 v-571h-245zM397 340q30 -53 88 -94t148 -41q120 0 191 80t71 200q0 121 -71 201t-191 80q-90 0 -148 -41t-88 -94v-291z" />
<glyph unicode="&#xff;" horiz-adv-x="1140" d="M16 971h273l327 -711l256 711h265l-471 -1188q-30 -79 -73 -133q-44 -54 -88 -86q-45 -32 -96 -46t-100 -14q-83 0 -153 31q-66 29 -115 72l115 190q38 -33 71 -49q28 -14 68 -14q59 0 92 33q35 35 64 110l38 100zM217 1292q0 68 47 115t115 47t115 -47t47 -115 q0 -67 -47 -114q-48 -48 -115 -48t-115 48q-47 47 -47 114zM639 1292q0 68 47 115t115 47q67 0 114 -47q48 -48 48 -115q0 -66 -48 -114t-114 -48q-67 0 -115 48q-47 47 -47 114z" />
<glyph unicode="&#x152;" horiz-adv-x="1691" d="M61 717q0 152 56 284q57 135 152 228q97 96 228 150q133 55 279 55h817v-230h-520v-352h471v-234h-471v-389h533v-229h-830q-148 0 -279 54q-129 53 -228 151q-95 94 -152 227q-56 132 -56 285zM311 717q0 -97 35 -187q34 -87 96 -155t147 -107t187 -39h51v975h-51 q-102 0 -187 -39t-147 -105q-60 -65 -96 -156q-35 -90 -35 -187z" />
<glyph unicode="&#x153;" horiz-adv-x="1875" d="M57 485q0 108 40 200q41 95 111 163q70 69 164 108q93 39 201 39q116 0 218 -47q98 -45 172 -127q68 82 161 127q97 47 215 47q106 0 192 -37q87 -37 151 -103q65 -66 101 -160q36 -93 36 -206v-37q0 -15 -2 -53h-719q7 -33 29 -69q21 -34 57 -64q35 -29 82 -47 q46 -18 106 -18q63 0 133 22t129 76l123 -184q-62 -51 -160 -95q-101 -45 -229 -45q-119 0 -226 48q-103 46 -175 129q-72 -84 -173 -130q-103 -47 -219 -47q-109 0 -202 40q-95 41 -165 109q-70 69 -111 162q-40 92 -40 199zM303 485q0 -56 20 -108t54 -89q35 -38 85 -61 q48 -22 111 -22q64 0 112 22q50 23 85 61q34 37 54 89t20 108q0 57 -20 108q-20 50 -54 89q-33 37 -85 61q-51 23 -112 23q-60 0 -111 -23q-52 -24 -85 -61q-34 -39 -54 -89q-20 -51 -20 -108zM1098 573h477q-2 32 -16 67q-16 38 -43 65q-28 28 -73 48q-42 19 -106 19 q-61 0 -103 -19q-45 -20 -73 -48t-45 -64q-16 -34 -18 -68z" />
<glyph unicode="&#x178;" horiz-adv-x="1257" d="M16 1434h271l350 -641l350 641h254l-489 -869v-565h-246v565zM256 1743q0 68 47 115t115 47q67 0 114 -47q48 -48 48 -115t-48 -115q-47 -47 -114 -47q-68 0 -115 47t-47 115zM678 1743q0 68 47 115t115 47q67 0 114 -47t47 -115t-47 -115t-114 -47q-68 0 -115 47 t-47 115z" />
<glyph unicode="&#x2c6;" horiz-adv-x="868" d="M53 1221l381 274l381 -274l-135 -168l-246 186l-250 -186z" />
<glyph unicode="&#x2dc;" horiz-adv-x="870" d="M18 1225q40 106 116 159q77 54 153 54q46 0 89 -19q35 -16 74 -41l63 -41q30 -18 60 -18q47 0 74 43q26 42 37 90l168 -133q-41 -114 -115 -166q-73 -51 -147 -51q-49 0 -88 18q-30 14 -73 40l-64 40q-32 19 -62 19q-45 0 -74 -38q-29 -37 -39 -81z" />
<glyph unicode="&#x2000;" horiz-adv-x="1016" />
<glyph unicode="&#x2001;" horiz-adv-x="2032" />
<glyph unicode="&#x2002;" horiz-adv-x="1016" />
<glyph unicode="&#x2003;" horiz-adv-x="2032" />
<glyph unicode="&#x2004;" horiz-adv-x="677" />
<glyph unicode="&#x2005;" horiz-adv-x="508" />
<glyph unicode="&#x2006;" horiz-adv-x="338" />
<glyph unicode="&#x2007;" horiz-adv-x="338" />
<glyph unicode="&#x2008;" horiz-adv-x="254" />
<glyph unicode="&#x2009;" horiz-adv-x="406" />
<glyph unicode="&#x200a;" horiz-adv-x="112" />
<glyph unicode="&#x2010;" horiz-adv-x="681" d="M68 389v234h546v-234h-546z" />
<glyph unicode="&#x2011;" horiz-adv-x="681" d="M68 389v234h546v-234h-546z" />
<glyph unicode="&#x2012;" horiz-adv-x="681" d="M68 389v234h546v-234h-546z" />
<glyph unicode="&#x2013;" horiz-adv-x="1024" d="M0 397v226h1024v-226h-1024z" />
<glyph unicode="&#x2014;" horiz-adv-x="2048" d="M0 397v226h2048v-226h-2048z" />
<glyph unicode="&#x2018;" horiz-adv-x="380" d="M82 930v504h217v-504h-217z" />
<glyph unicode="&#x2019;" horiz-adv-x="380" d="M82 930v504h217v-504h-217z" />
<glyph unicode="&#x201c;" horiz-adv-x="819" d="M123 926v508h217v-508h-217zM479 926v508h217v-508h-217z" />
<glyph unicode="&#x201d;" horiz-adv-x="819" d="M123 926v508h217v-508h-217zM479 926v508h217v-508h-217z" />
<glyph unicode="&#x201e;" horiz-adv-x="819" d="M123 221h217v-508h-217v508zM479 221h217v-508h-217v508z" />
<glyph unicode="&#x2022;" horiz-adv-x="831" d="M121 711q0 64 23 114q25 55 64 94q38 38 93 63q53 24 115 24t114 -24q57 -26 94 -63t63 -94q24 -53 24 -114q0 -63 -24 -115q-25 -55 -63 -93q-39 -39 -94 -64q-50 -23 -114 -23q-65 0 -115 23q-53 24 -93 64t-64 93q-23 50 -23 115z" />
<glyph unicode="&#x2026;" horiz-adv-x="2048" d="M205 137q0 68 47 115t115 47q67 0 114 -47t47 -115q0 -67 -47 -114q-48 -48 -114 -48q-67 0 -115 48q-47 47 -47 114zM860 137q0 68 47 115t115 47t115 -47t47 -115q0 -67 -47 -114q-48 -48 -115 -48t-115 48q-47 47 -47 114zM1518 137q0 68 47 115t114 47q68 0 115 -47 t47 -115q0 -67 -47 -114q-48 -48 -115 -48q-66 0 -114 48q-47 47 -47 114z" />
<glyph unicode="&#x202f;" horiz-adv-x="406" />
<glyph unicode="&#x2039;" horiz-adv-x="659" d="M18 502l375 483l168 -129l-282 -354l282 -355l-168 -129z" />
<glyph unicode="&#x203a;" horiz-adv-x="659" d="M111 147l282 355l-282 354l168 129l374 -483l-374 -484z" />
<glyph unicode="&#x205f;" horiz-adv-x="508" />
<glyph unicode="&#x20ac;" horiz-adv-x="1187" d="M45 473v172h156q-2 22 -2 35v37q0 25 1 37t3 34h-158v173h180q30 107 93 199q64 93 148 158q85 65 190 103q104 37 225 37q84 0 150 -15q61 -14 118 -34l-74 -209q-22 8 -76 22q-43 11 -110 11q-151 0 -254 -74q-103 -75 -154 -198h428v-173h-469q-6 -38 -6 -71v-37 q0 -20 4 -35h471v-172h-440q49 -121 151 -194q103 -74 261 -74q61 0 109 9q52 10 73 19l72 -208q-45 -20 -107 -34q-70 -16 -158 -16q-134 0 -241 37q-110 38 -192 104q-84 67 -140 157q-59 94 -88 200h-164z" />
<glyph unicode="&#x2122;" horiz-adv-x="1648" d="M43 1264v170h600v-170h-211v-588h-178v588h-211zM735 676v758h172l236 -377l233 377h166v-758h-178v442l-225 -354l-226 354v-442h-178z" />
<glyph unicode="&#x25fc;" horiz-adv-x="972" d="M0 0v973h973v-973h-973z" />
</font>
</defs>
</svg>
