<svg id="nc_icon" xmlns="http://www.w3.org/2000/svg" xml:space="preserve" viewBox="0 0 24 24"><g fill="currentColor" class="nc-icon-wrapper"><path d="M1.582 16.002a1 1 0 0 1-.927-.626A8.96 8.96 0 0 1 0 12c0-4.962 4.037-9 9-9 .116 0 .231.003.346.009A8.974 8.974 0 0 1 15 1c4.963 0 9 4.038 9 9 0 1.167-.22 2.303-.654 3.375a1 1 0 0 1-1.854-.75A7.008 7.008 0 0 0 15 3a6.981 6.981 0 0 0-4.651 1.78 1.001 1.001 0 0 1-.75.251A7.14 7.14 0 0 0 9 5a7.008 7.008 0 0 0-6.491 9.626 1 1 0 0 1-.927 1.376z" data-color="color-2"/><path d="M13 23V10.5a3.5 3.5 0 1 1 7 0V23h-7zM4 23V12.5a3.5 3.5 0 1 1 7 0V23H4z"/></g></svg>
