<svg id="nc_icon" xmlns="http://www.w3.org/2000/svg" xml:space="preserve" viewBox="0 0 24 24"><g fill="currentColor" class="nc-icon-wrapper"><path d="M12 8a1 1 0 0 1-1-1V2a1 1 0 1 1 2 0v5a1 1 0 0 1-1 1zM2.001 21a1 1 0 0 1-.449-1.895l4-2a1 1 0 0 1 .895 1.789l-4 2a.99.99 0 0 1-.446.106zM21.999 21c-.15 0-.303-.034-.446-.105l-4-2a1 1 0 0 1 .895-1.789l4 2A1 1 0 0 1 21.999 21z" data-color="color-2"/><path d="m18.447 9.105-6-3a1 1 0 0 0-.895 0l-6 3C5.214 9.275 5 9.621 5 10v8c0 .379.214.725.553.895l6 3a1.001 1.001 0 0 0 .894 0l6-3c.339-.17.553-.516.553-.895v-8c0-.379-.214-.725-.553-.895zM12 8.118 15.764 10 12 11.882 8.236 10 12 8.118zm-5 3.5 4 2v5.764l-4-2v-5.764zm6 7.764v-5.764l4-2v5.764l-4 2z"/></g></svg>
