<svg id="nc_icon" xmlns="http://www.w3.org/2000/svg" xml:space="preserve" viewBox="0 0 24 24"><g fill="currentColor" class="nc-icon-wrapper"><path d="M22 11a1 1 0 0 1-1-1 3.982 3.982 0 0 0-3.838-3.98 1 1 0 0 1-.826-.501A5.015 5.015 0 0 0 12 3c-1.807 0-3.48.983-4.364 2.565a.992.992 0 0 1-1.026.5C6.41 6.035 6.21 6 6 6c-2.206 0-4 1.794-4 4a1 1 0 1 1-2 0c0-3.309 2.691-6 6-6 .087 0 .17.003.253.008A7.008 7.008 0 0 1 12 1a7.02 7.02 0 0 1 5.785 3.067A5.974 5.974 0 0 1 23 10a1 1 0 0 1-1 1z" data-color="color-2"/><path d="M9 22V9.5a2.5 2.5 0 0 1 5 0V22H9zM15 22V11.5a2.5 2.5 0 0 1 5 0V22h-5zM3 22V11.5a2.5 2.5 0 0 1 5 0V22H3z"/></g></svg>
