<svg id="nc_icon" xmlns="http://www.w3.org/2000/svg" xml:space="preserve" viewBox="0 0 24 24"><g fill="currentColor" class="nc-icon-wrapper"><path d="M8.975 12c-2.761 0-5-3.239-5-6V5a5 5 0 0 1 10 0v1c0 2.761-2.239 6-5 6zM11.974 19c0-1.698.605-3.254 1.611-4.466A21.087 21.087 0 0 0 8.974 14c-2.823 0-5.328.638-6.974 1.193a2.988 2.988 0 0 0-2.026 2.838V22h12.683a6.962 6.962 0 0 1-.683-3z"/><path d="M23.414 16 22 14.586l-3 3-3-3L14.586 16l3 3-3 3L16 23.414l3-3 3 3L23.414 22l-3-3z" data-color="color-2"/></g></svg>
