<svg id="nc_icon" xmlns="http://www.w3.org/2000/svg" xml:space="preserve" viewBox="0 0 24 24"><g fill="currentColor" class="nc-icon-wrapper"><path d="M9 12c-2.761 0-5-3.239-5-6V5a5 5 0 0 1 10 0v1c0 2.761-2.239 6-5 6zM13.53 20.813A5.104 5.104 0 0 1 12 17.155c0-1.005.294-1.961.829-2.784A20.698 20.698 0 0 0 9 14c-2.824 0-5.329.638-6.974 1.193A2.99 2.99 0 0 0 0 18.032V22h14.731l-1.201-1.187z"/><path d="M23.063 14.92a3.188 3.188 0 0 0-2.566-.904 3.193 3.193 0 0 0-1.498.549 3.197 3.197 0 0 0-4.064.355c-.602.596-.935 1.39-.935 2.235s.333 1.639.936 2.235L19 23.406l4.064-4.015c.603-.597.936-1.391.936-2.236s-.333-1.639-.937-2.235z" data-color="color-2"/></g></svg>
