<svg id="nc_icon" xmlns="http://www.w3.org/2000/svg" xml:space="preserve" viewBox="0 0 24 24"><g fill="currentColor" class="nc-icon-wrapper"><path d="M9 12c-2.761 0-5-3.239-5-6V5a5 5 0 0 1 10 0v1c0 2.761-2.239 6-5 6zM12 18c0-1.333.442-2.561 1.18-3.558A20.85 20.85 0 0 0 9 14c-2.824 0-5.329.638-6.974 1.193A2.99 2.99 0 0 0 0 18.032V22h13.54A5.97 5.97 0 0 1 12 18z"/><path d="m23.707 22.293-2.274-2.274A3.947 3.947 0 0 0 22 18c0-2.206-1.794-4-4-4s-4 1.794-4 4 1.794 4 4 4c.74 0 1.424-.215 2.019-.567l2.274 2.274 1.414-1.414zM18 20c-1.103 0-2-.897-2-2s.897-2 2-2 2 .897 2 2-.897 2-2 2z" data-color="color-2"/></g></svg>
