<svg id="nc_icon" xmlns="http://www.w3.org/2000/svg" xml:space="preserve" viewBox="0 0 24 24"><g fill="currentColor" class="nc-icon-wrapper"><path d="M9 12c-2.761 0-5-3.239-5-6V5a5 5 0 0 1 10 0v1c0 2.761-2.239 6-5 6zM12 18c0-1.317.37-2.544 1.002-3.596A20.774 20.774 0 0 0 9 14c-2.824 0-5.329.638-6.974 1.193A2.99 2.99 0 0 0 0 18.032V22h13.26A6.962 6.962 0 0 1 12 18z"/><path d="m19 13 1.545 3.131 3.455.502-2.5 2.437.59 3.441L19 20.886l-3.09 1.625.59-3.441-2.5-2.437 3.455-.502z" data-color="color-2"/></g></svg>
