<svg id="nc_icon" xmlns="http://www.w3.org/2000/svg" xml:space="preserve" viewBox="0 0 24 24"><g fill="currentColor" class="nc-icon-wrapper"><path d="M9 12c-2.761 0-5-3.239-5-6V5a5 5 0 0 1 10 0v1c0 2.761-2.239 6-5 6zM10 19c0-1.812.609-3.477 1.625-4.818A19.962 19.962 0 0 0 9 14c-2.824 0-5.329.638-6.974 1.193A2.99 2.99 0 0 0 0 18.032V22h10.587A7.96 7.96 0 0 1 10 19z"/><path d="M18 15c.808 0 1.573.331 2.131.893l-1.608 1.168 4.269.939.428-4.351-1.466 1.065A5.01 5.01 0 0 0 18 13a5 5 0 0 0-4.843 3.75l1.938.499A2.997 2.997 0 0 1 18 15zM18 22a3.009 3.009 0 0 1-2.131-.893l1.608-1.168L13.208 19l-.428 4.351 1.466-1.065A5.01 5.01 0 0 0 18 24a5 5 0 0 0 4.843-3.75l-1.938-.499A2.997 2.997 0 0 1 18 22z" data-color="color-2"/></g></svg>
