<svg id="nc_icon" xmlns="http://www.w3.org/2000/svg" xml:space="preserve" viewBox="0 0 24 24"><g fill="currentColor" class="nc-icon-wrapper"><path d="m16.555 20.603-.306 1.254c-1.038.409-4.634 2.125-6.708.299-.618-.543-.927-1.233-.927-2.069 0-1.567.516-2.933 1.442-6.213.163-.619.363-1.424.363-2.062 0-1.1-.417-1.393-1.55-1.393-.553 0-1.165.197-1.719.404l.307-1.254c1.235-.502 2.786-1.114 4.115-1.114 1.993 0 3.458.994 3.458 2.884 0 .545-.094 1.499-.292 2.159l-1.146 4.054c-.236.82-.666 2.626-.002 3.162.655.529 2.202.249 2.965-.111z"/><circle cx="14.5" cy="3.5" r="2.5" data-color="color-2"/></g></svg>
