<svg id="nc_icon" xmlns="http://www.w3.org/2000/svg" xml:space="preserve" viewBox="0 0 24 24"><path fill="currentColor" d="M12 0C5.383 0 0 5.383 0 12s5.383 12 12 12 12-5.383 12-12S18.617 0 12 0zm2.658 18.284c-.661.26-2.952 1.354-4.272.191a1.676 1.676 0 0 1-.59-1.318c0-.998.328-1.868.919-3.957.104-.395.231-.907.231-1.313 0-.701-.266-.887-.987-.887-.352 0-.742.125-1.095.257l.195-.799c.787-.32 1.775-.71 2.621-.71 1.269 0 2.203.633 2.203 1.837 0 .347-.06.955-.186 1.375l-.73 2.582c-.151.522-.424 1.673-.001 2.014.416.337 1.401.158 1.887-.071l-.195.799zM13.452 8a1.5 1.5 0 1 1 .001-3.001A1.5 1.5 0 0 1 13.452 8z" class="nc-icon-wrapper"/></svg>
