<svg id="nc_icon" xmlns="http://www.w3.org/2000/svg" xml:space="preserve" viewBox="0 0 24 24"><path fill="currentColor" d="M23 0H1a1 1 0 0 0-1 1v22a1 1 0 0 0 1 1h22a1 1 0 0 0 1-1V1a1 1 0 0 0-1-1zM11.5 19a1.5 1.5 0 1 1 .001-3.001A1.5 1.5 0 0 1 11.5 19zm4.311-8.873c-.629 1.006-2.53 2.15-2.888 2.67-.255.369-.237.763-.237 1.203h-2.457c0-.733-.016-1.296.38-1.981.717-1.242 1.976-1.552 2.675-2.531.412-.579.468-1.465-.134-1.891-1.064-.753-3.193-.03-4.413.593L7.726 6.16A8.818 8.818 0 0 1 12.111 5c2.278 0 4.163 1.114 4.163 3.366 0 .679-.154 1.267-.463 1.761z" class="nc-icon-wrapper"/></svg>
