<svg id="nc_icon" xmlns="http://www.w3.org/2000/svg" xml:space="preserve" viewBox="0 0 24 24"><g fill="currentColor" class="nc-icon-wrapper"><path d="M20 11.101V11c0-4.072-3.06-7.436-7-7.931V1a1 1 0 0 0-2 0v2.069C7.06 3.564 4 6.928 4 11v.101A5.01 5.01 0 0 0 0 16a1 1 0 0 0 1 1h22a1 1 0 0 0 1-1 5.01 5.01 0 0 0-4-4.899zM12 5c3.309 0 6 2.691 6 6H6c0-3.309 2.691-6 6-6z"/><path d="M11 20h2v4h-2zM15.319 19.486l1.812-.845 1.69 3.626-1.812.845zM5.176 22.268l1.69-3.627 1.813.845-1.69 3.627z" data-color="color-2"/><circle cx="12" cy="8" r="1"/></g></svg>
