<svg id="nc_icon" xmlns="http://www.w3.org/2000/svg" xml:space="preserve" viewBox="0 0 24 24"><path fill="currentColor" d="M20 17h-5v2h3.225A7.943 7.943 0 0 1 13 21.931V10h2a1 1 0 0 0 0-2h-2V5.816A2.996 2.996 0 0 0 15 3c0-1.654-1.346-3-3-3S9 1.346 9 3c0 1.302.839 2.402 2 2.816V8H9a1 1 0 1 0 0 2h2v11.931A7.947 7.947 0 0 1 5.775 19H9v-2H4a1 1 0 0 0-1 1v5h2v-1.88a9.946 9.946 0 0 0 14 .001V23h2v-5a1 1 0 0 0-1-1zM12 4c-.551 0-1-.449-1-1s.449-1 1-1 1 .449 1 1-.449 1-1 1z" class="nc-icon-wrapper"/></svg>
