<svg id="nc_icon" xmlns="http://www.w3.org/2000/svg" xml:space="preserve" viewBox="0 0 24 24"><g fill="currentColor" class="nc-icon-wrapper"><path d="m15.281 2.98 1.135-1.703a.5.5 0 1 0-.832-.554l-1.186 1.779a5.975 5.975 0 0 0-4.796 0L8.416.723a.5.5 0 1 0-.832.554L8.719 2.98A5.992 5.992 0 0 0 6 8h12a5.992 5.992 0 0 0-2.719-5.02z" data-color="color-2"/><path d="M6 19a1 1 0 0 0 1 1h1v3a1 1 0 0 0 2 0v-3h4v3a1 1 0 0 0 2 0v-3h1a1 1 0 0 0 1-1V9H6v10zM4 9a1 1 0 0 0-1 1v5a1 1 0 0 0 2 0v-5a1 1 0 0 0-1-1zM20 9a1 1 0 0 0-1 1v5a1 1 0 0 0 2 0v-5a1 1 0 0 0-1-1z"/></g></svg>
