<svg id="nc_icon" xmlns="http://www.w3.org/2000/svg" xml:space="preserve" viewBox="0 0 24 24"><path fill="currentColor" d="M20 5.8c-1.9-1.5-4.1-2-6.5-1.6.4-1 1-1.7 2-2.3.5-.3.6-.9.3-1.4-.3-.5-.9-.6-1.4-.3-1.7 1.1-2.6 2.3-3.1 4.2-2.7-.8-5.1-.3-7.3 1.4-1.3 1-2.9 3.4-3 6.6-.1 2.5.9 6.5 5.7 10.6.8.6 1.7 1 2.7 1 1.1 0 2-.3 2.6-.6.6.3 1.5.6 2.6.6 1 0 2-.3 2.7-1 4.8-4.1 5.8-8.1 5.7-10.7-.1-3.2-1.7-5.5-3-6.5zm-4.4 3c-1 .8-2.3 1.2-3.6 1.2-1.3 0-2.6-.4-3.6-1.2-.4-.3-.5-1-.2-1.4.3-.4 1-.5 1.4-.2 1.4 1 3.4 1 4.8 0 .4-.3 1.1-.2 1.4.2.3.4.2 1.1-.2 1.4z" class="nc-icon-wrapper"/></svg>
