<svg id="nc_icon" xmlns="http://www.w3.org/2000/svg" xml:space="preserve" viewBox="0 0 24 24"><g fill="currentColor" class="nc-icon-wrapper"><path d="M2 6h18v1h2V5a1 1 0 0 0-1-1h-2.735L11.496.132a.998.998 0 0 0-.992 0L3.735 4H1a1 1 0 0 0-1 1v14a1 1 0 0 0 1 1h13v-2H2V6zm9-3.849L14.235 4h-6.47L11 2.151z"/><path d="M4 9h9v2H4zM4 13h6v2H4z"/><path d="M16 19.315V24l3-2 3 2v-4.685c-.911.434-1.926.685-3 .685s-2.089-.251-3-.685z" data-color="color-2"/><circle cx="19" cy="13" r="5" data-color="color-2"/></g></svg>
