<svg id="nc_icon" xmlns="http://www.w3.org/2000/svg" xml:space="preserve" viewBox="0 0 24 24"><path fill="currentColor" d="m23.781 5.375-4-5A1 1 0 0 0 19 0H5a1 1 0 0 0-.781.375l-4 5A1 1 0 0 0 .2 6.6l5.238 6.985A6.961 6.961 0 0 0 5 16c0 3.859 3.14 7 7 7s7-3.141 7-7c0-.85-.16-1.662-.439-2.416L23.8 6.6a1 1 0 0 0-.019-1.225zM14.853 5 12 8.925 9.155 5h5.698zM2.265 6.02l2.698-3.372 4.872 6.699a7.019 7.019 0 0 0-3.328 2.329L2.265 6.02zm15.228 5.655a7.024 7.024 0 0 0-3.328-2.329l4.872-6.699 2.698 3.372-4.242 5.656z" class="nc-icon-wrapper"/></svg>
