<svg id="nc_icon" xmlns="http://www.w3.org/2000/svg" xml:space="preserve" viewBox="0 0 24 24"><path fill="currentColor" d="m20.414 20.586-6.647-6.647 6.159-3.849.058-.473c.016-.123.33-3.043-3.113-6.486C13.429-.311 10.514.004 10.385.017L9.91.074 6.061 6.233 4.414 4.586a2 2 0 1 0-2.828 2.828l2.3 2.3-1.72 2.752 5.367 5.368 2.753-1.72 7.3 7.3a2 2 0 1 0 2.828-2.828zM4.705 12.178l6.348-10.157c.756.089 2.404.525 4.403 2.523 1.998 1.999 2.435 3.647 2.523 4.403L7.822 15.295l-3.117-3.117z" class="nc-icon-wrapper"/></svg>
