<svg id="nc_icon" xmlns="http://www.w3.org/2000/svg" xml:space="preserve" viewBox="0 0 24 24"><g fill="currentColor" class="nc-icon-wrapper"><path d="M9.884 19.499C9.023 18.815 7.563 18 5.5 18s-3.523.815-4.383 1.498A2.961 2.961 0 0 0 0 21.836V24h11v-2.164a2.96 2.96 0 0 0-1.116-2.337z"/><circle cx="5.5" cy="13.5" r="3.5"/><path d="M22.884 19.499C22.023 18.815 20.563 18 18.5 18s-3.523.815-4.383 1.498A2.961 2.961 0 0 0 13 21.836V24h11v-2.164a2.96 2.96 0 0 0-1.116-2.337z"/><circle cx="18.5" cy="13.5" r="3.5"/><path d="M17 3.155c0-.846-.333-1.64-.937-2.235V.919a3.164 3.164 0 0 0-2.565-.902A3.186 3.186 0 0 0 12 .564a3.188 3.188 0 0 0-1.498-.548A3.169 3.169 0 0 0 7.937.92C7.333 1.516 7 2.31 7 3.155s.333 1.64.937 2.235L12 9.405l4.064-4.015A3.119 3.119 0 0 0 17 3.155z" data-color="color-2"/></g></svg>
