<svg id="nc_icon" xmlns="http://www.w3.org/2000/svg" xml:space="preserve" viewBox="0 0 24 24"><g fill="currentColor" class="nc-icon-wrapper"><path d="M9.884 18.499C9.023 17.815 7.563 17 5.5 17s-3.523.815-4.383 1.498A2.961 2.961 0 0 0 0 20.836V23h11v-2.164a2.96 2.96 0 0 0-1.116-2.337zM8 14c-1.654 0-3-1.346-3-3V9.051c-1.692.245-3 1.691-3 3.449C2 14.43 3.57 16 5.5 16c1.389 0 2.573-.823 3.134-2H8zM14.116 18.499C14.977 17.815 16.437 17 18.5 17s3.523.815 4.383 1.498A2.961 2.961 0 0 1 24 20.836V23H13v-2.164a2.96 2.96 0 0 1 1.116-2.337zM16 14c1.654 0 3-1.346 3-3V9.051c1.692.245 3 1.691 3 3.449 0 1.93-1.57 3.5-3.5 3.5-1.389 0-2.573-.823-3.134-2H16z"/><path d="M16 5h-1V3c0-1.654-1.346-3-3-3S9 1.346 9 3v2H8a1 1 0 0 0-1 1v5a1 1 0 0 0 1 1h8a1 1 0 0 0 1-1V6a1 1 0 0 0-1-1zm-5-2a1.001 1.001 0 0 1 2 0v2h-2V3z" data-color="color-2"/></g></svg>
