<svg id="nc_icon" xmlns="http://www.w3.org/2000/svg" xml:space="preserve" viewBox="0 0 24 24"><g fill="currentColor" class="nc-icon-wrapper"><path d="M11.843 5.085 9.171 7.757 11.414 10 10 11.414 7.757 9.172l-1.586 1.586L8.414 13 7 14.414l-2.242-2.242-1.586 1.586L5.414 16 4 17.414l-2.242-2.242-.586.586C.416 16.513 0 17.518 0 18.586s.416 2.073 1.172 2.828l1.414 1.414C3.341 23.584 4.346 24 5.414 24s2.073-.416 2.829-1.172l10.672-10.671-7.072-7.072z"/><path d="M24 3c0-.801-.312-1.555-.878-2.121-1.134-1.134-3.11-1.134-4.243 0l-2.793 2.793-2.379-2.379a.999.999 0 1 0-1.414 1.414l9 9a.997.997 0 0 0 1.414 0 .999.999 0 0 0 0-1.414l-2.379-2.379 2.793-2.793C23.688 4.555 24 3.801 24 3z" data-color="color-2"/></g></svg>
