<svg id="nc_icon" xmlns="http://www.w3.org/2000/svg" xml:space="preserve" viewBox="0 0 24 24"><g fill="currentColor" class="nc-icon-wrapper"><path d="M19.121 20.121a3 3 0 0 1-2.122.879H14a1 1 0 0 1-1-1v-2.999c0-.796.316-1.559.879-2.121L20 8.758V6a1 1 0 0 0-1-1h-4c0-2.757-2.243-5-5-5S5 2.243 5 5H1a1 1 0 0 0-1 1v17a1 1 0 0 0 1 1h18a1 1 0 0 0 1-1v-3.758l-.879.879zM10 2c1.654 0 3 1.346 3 3H7c0-1.654 1.346-3 3-3z"/><path d="M23.497 10.503a1.706 1.706 0 0 0-2.414 0l-5.79 5.79A1 1 0 0 0 15 17v2h2a1 1 0 0 0 .707-.293l5.79-5.79a1.706 1.706 0 0 0 0-2.414z" data-color="color-2"/></g></svg>
