<svg id="nc_icon" xmlns="http://www.w3.org/2000/svg" xml:space="preserve" viewBox="0 0 24 24"><g fill="currentColor" class="nc-icon-wrapper"><path d="M9 0c-.6 0-1 .4-1 1v5c0 1.1-.9 2-2 2s-2-.9-2-2V1c0-.6-.4-1-1-1S2 .4 2 1v5c0 1.9 1.3 3.4 3 3.9V14H4c-.6 0-1 .4-1 1v6c0 1.7 1.3 3 3 3s3-1.3 3-3v-6c0-.6-.4-1-1-1H7V9.9c1.7-.4 3-2 3-3.9V1c0-.6-.4-1-1-1z"/><path d="M22 0h-8c-.6 0-1 .4-1 1v8c0 .6.4 1 1 1h3v4h-1c-.6 0-1 .4-1 1v6c0 1.7 1.3 3 3 3s3-1.3 3-3v-6c0-.6-.4-1-1-1h-1v-4h3c.6 0 1-.4 1-1V1c0-.6-.4-1-1-1zm-7 8V2h2v6h-2zm6 0h-2V2h2v6z" data-color="color-2"/></g></svg>
