<svg id="nc_icon" xmlns="http://www.w3.org/2000/svg" xml:space="preserve" viewBox="0 0 24 24"><g fill="currentColor" class="nc-icon-wrapper"><g class="nc-loop_bars-rotate-24"><path d="m2.808 4.222 1.414-1.414L8.464 7.05 7.05 8.464z"/><path d="M17.364 2.636h2v6h-2z" style="opacity:.4" transform="translate(-6.364 -2.636)"/><path d="M18 11h6v2h-6z" style="opacity:.4" transform="rotate(315 12 12)"/><path d="M17.364 15.364h2v6h-2z" style="opacity:.4" transform="rotate(90 22.864 16.5)"/><path d="M11 18h2v6h-2z" style="opacity:.4" transform="rotate(315 12 12)"/><path d="M4.636 15.364h2v6h-2z" style="opacity:.4" transform="rotate(180 8.818 19.682)"/><path d="M0 11h6v2H0z" style="opacity:.5" transform="rotate(315 12 12)"/><path d="M4.636 2.636h2v6h-2z" style="opacity:.8" transform="rotate(-90 7.5 10.136)"/></g><script>!function(){function t(t){this.element=t,this.animationId,this.start=null,this.init()}if(!window.requestAnimationFrame){var i=null;window.requestAnimationFrame=function(t,n){var e=(new Date).getTime();i||(i=e);var a=Math.max(0,16-(e-i)),o=window.setTimeout(function(){t(e+a)},a);return i=e+a,o}}t.prototype.init=function(){var t=this;this.animationId=window.requestAnimationFrame(t.triggerAnimation.bind(t))},t.prototype.reset=function(){var t=this;window.cancelAnimationFrame(t.animationId)},t.prototype.triggerAnimation=function(t){var i=this;this.start||(this.start=t);var n=t-this.start;800&gt;n||(this.start=this.start+800),this.element.setAttribute(&quot;transform&quot;,&quot;rotate(&quot;+parseInt(Math.min(n/100,8))%8*45+&quot; 12 12)&quot;);if(document.documentElement.contains(this.element))window.requestAnimationFrame(i.triggerAnimation.bind(i))};var n=document.getElementsByClassName(&quot;nc-loop_bars-rotate-24&quot;),e=[];if(n)for(var a=0;n.length&gt;a;a++)!function(i){e.push(new t(n[i]))}(a);document.addEventListener(&quot;visibilitychange&quot;,function(){&quot;hidden&quot;==document.visibilityState?e.forEach(function(t){t.reset()}):e.forEach(function(t){t.init()})})}();</script></g></svg>
