<svg id="nc_icon" xmlns="http://www.w3.org/2000/svg" xml:space="preserve" viewBox="0 0 24 24"><g fill="currentColor" class="nc-icon-wrapper"><circle cx="17" cy="13" r="3" data-color="color-2"/><path d="M22.417 1.583c-1.322-1.322-3.628-1.322-4.95 0L7.215 11.836c-1.03 1.03-1.427 2.535-1.745 3.745-.12.452-.283 1.071-.376 1.205l-2.828 2.828A1 1 0 1 0 .85 21.028l2.12 2.121a1 1 0 1 0 1.415-1.414l2.793-2.797c.152-.103.744-.26 1.177-.375 1.233-.328 2.767-.736 3.808-1.777l.827-.827A4.953 4.953 0 0 1 12 13c0-2.757 2.243-5 5-5 1.11 0 2.128.376 2.958.991l2.459-2.458c.661-.661 1.025-1.54 1.025-2.475s-.364-1.814-1.025-2.475z"/></g></svg>
