<svg id="nc_icon" xmlns="http://www.w3.org/2000/svg" xml:space="preserve" viewBox="0 0 24 24"><g fill="currentColor" class="nc-icon-wrapper"><path d="M23 8h-3.071l-4.081-6.53a1.001 1.001 0 0 0-1.696 1.06L17.571 8H6.429l3.419-5.47a1.001 1.001 0 0 0-1.696-1.06L4.071 8H1a1 1 0 0 0-1 1v2a1 1 0 0 0 1 1h22a1 1 0 0 0 1-1V9a1 1 0 0 0-1-1z" data-color="color-2"/><path d="M15 22a5 5 0 0 1 5-5c.239 0 .467.038.697.07L21.721 14H1.969l2.061 8.243A1 1 0 0 0 5 23h10.101A4.988 4.988 0 0 1 15 22z"/><path d="M23 21h-6v2h6z" data-color="color-2"/></g></svg>
