<svg id="nc_icon" xmlns="http://www.w3.org/2000/svg" xml:space="preserve" viewBox="0 0 24 24"><path fill="currentColor" d="M22.5 2h-21a1.5 1.5 0 1 0 0 3H2v18.227l5.243-4.66 4.757 3.7 4.757-3.7L22 23.227V5h.5a1.5 1.5 0 1 0 0-3zM4.506 5h5.988L7.5 7.662 4.506 5zm1.488 4L4 10.773V7.227L5.994 9zM4 13.45l3.5-3.112L10.495 13l-3.338 2.966L4 13.511v-.062zM9.006 9 12 6.338 14.994 9 12 11.662 9.006 9zm4.5-4h5.988L16.5 7.662 13.506 5zm2.994 5.338L20 13.45v.062l-3.157 2.455L13.505 13l2.995-2.662zM18.006 9 20 7.227v3.546L18.006 9zM4 18.773v-2.728l1.637 1.273L4 18.773zm8 .96-3.237-2.518L12 14.338l3.237 2.877L12 19.733zm6.363-2.415L20 16.045v2.728l-1.637-1.455z" class="nc-icon-wrapper"/></svg>
