<svg id="nc_icon" xmlns="http://www.w3.org/2000/svg" xml:space="preserve" viewBox="0 0 24 24"><g fill="currentColor" class="nc-icon-wrapper"><path d="M23 6h-3.991L15.868.504a1 1 0 1 0-1.736.992L16.705 6H7.294l2.574-4.504A1 1 0 0 0 8.132.504L4.991 6H1a1 1 0 0 0-1 1v3a1 1 0 0 0 1 1h1v11a1 1 0 0 0 1 1h7v-2H4V11h19a1 1 0 0 0 1-1V7a1 1 0 0 0-1-1z"/><path d="M18 13a4.996 4.996 0 0 0-4.842 3.751l1.937.498a2.997 2.997 0 0 1 5.036-1.356l-1.608 1.168 4.269.939.428-4.351-1.466 1.065A5.014 5.014 0 0 0 18 13zM18 22a3.009 3.009 0 0 1-2.131-.893l1.608-1.168L13.208 19l-.428 4.351 1.466-1.065A5.014 5.014 0 0 0 18 24a4.996 4.996 0 0 0 4.842-3.751l-1.937-.498A2.997 2.997 0 0 1 18 22z" data-color="color-2"/></g></svg>
