<svg id="nc_icon" xmlns="http://www.w3.org/2000/svg" xml:space="preserve" viewBox="0 0 24 24"><path fill="currentColor" d="M24 5c0-2.757-2.243-5-5-5a4.945 4.945 0 0 0-4.231 2.367C13.883 2.136 12.958 2 12 2s-1.883.136-2.769.367A4.945 4.945 0 0 0 5 0C2.243 0 0 2.243 0 5a4.97 4.97 0 0 0 1.827 3.828A10.935 10.935 0 0 0 1 13c0 6.065 4.935 11 11 11s11-4.935 11-11c0-1.477-.297-2.884-.827-4.172A4.97 4.97 0 0 0 24 5zM2.799 6.989C2.302 6.447 2 5.748 2 5c0-1.654 1.346-3 3-3 .907 0 1.731.405 2.288 1.075a11.06 11.06 0 0 0-4.489 3.914zM8 10a1 1 0 1 1 2 0 1 1 0 0 1-2 0zm7 9H9v-2h2v-.764l-.895-1.789A1 1 0 0 1 11 13h2a1 1 0 0 1 .895 1.447L13 16.236V17h2v2zm0-8a1 1 0 1 1 0-2 1 1 0 0 1 0 2zm6.201-4.011a11.064 11.064 0 0 0-4.49-3.914A2.965 2.965 0 0 1 19 2c1.654 0 3 1.346 3 3 0 .748-.302 1.447-.799 1.989z" class="nc-icon-wrapper"/></svg>
