<svg id="nc_icon" xmlns="http://www.w3.org/2000/svg" xml:space="preserve" viewBox="0 0 24 24"><path fill="currentColor" d="M15.36 5.505c.382-.431.64-.933.64-1.505 0-2.575-2.365-4-4-4S8 1.425 8 4c0 .572.258 1.074.64 1.505C3.818 6.943 0 11.297 0 16v1h6.024c.269 0 .532-.023.79-.063C7.51 19.41 9.18 24 12 24c2.818 0 4.49-4.59 5.186-7.063.258.04.522.063.79.063H24v-1c0-4.703-3.818-9.057-8.64-10.495zM10.954 13h2.092l.141.437c.174.58.45 1.101.794 1.563h-3.957c.34-.455.61-.97.78-1.538l.15-.462zm-4.93 2H2.077c.547-3.618 3.971-7.302 8.583-7.912-.851 2.996-1.746 5.72-1.763 5.774A2.98 2.98 0 0 1 6.024 15zm7.85 5h-3.748c-.3-.562-.596-1.233-.875-2h5.497a15.69 15.69 0 0 1-.875 2zm4.102-5c-1.335 0-2.49-.86-2.881-2.163-.01-.031-.904-2.752-1.755-5.75 4.612.611 8.036 4.295 8.583 7.913h-3.947z" class="nc-icon-wrapper"/></svg>
