<svg id="nc_icon" xmlns="http://www.w3.org/2000/svg" xml:space="preserve" viewBox="0 0 24 24"><path fill="currentColor" d="M17.7 3.4C17.1 1.4 15.2 0 13 0c-2 0-3.8 1.2-4.6 3-.5 0-1 0-1.5.2-1.7.5-2.9 2.2-2.9 4V11c0 2.1.5 4.2 1 6.3.5 2 1 3.9 1 5.7 0 .6.4 1 1 1h10c.6 0 1-.4 1-1 0-1.9.5-3.8 1-5.8s1-4.1 1-6.2V7c0-1.5-.9-2.9-2.3-3.6zM6 7.2c0-1 .6-1.9 1.4-2.1.5-.1.9-.1 1.3 0 .3.1.6.1.9 0 .3-.1.4-.4.5-.7C10.3 3 11.6 2 13 2s2.6 1 2.9 2.4c.1.3.4.6.7.7.8.3 1.4 1 1.4 1.9v1h-6c-.6 0-1 .4-1 1v4c0 .6-.4 1-1 1s-1-.4-1-1V9c0-.6-.4-1-1-1H6v-.8z" class="nc-icon-wrapper"/></svg>
