<svg id="nc_icon" xmlns="http://www.w3.org/2000/svg" xml:space="preserve" viewBox="0 0 24 24"><path fill="currentColor" d="M21 11h-3v-.1c.5-.5.9-1.2 1-2 .1-1-.2-2-.9-2.7-.5-.5-1.1-.9-1.7-1C15.7 2.1 13.1 0 10 0S4.3 2.1 3.7 5.1c-.7.2-1.3.5-1.8 1.1-.7.7-1 1.7-.9 2.7.1.8.4 1.5 1 2V23c0 .6.4 1 1 1h14c.6 0 1-.4 1-1v-4h1c1.7 0 3-1.3 3-3v-4c0-.6-.4-1-1-1zM3.4 7.5c.3-.3.7-.5 1-.5.3 0 .5 0 .7-.2.2-.2.3-.4.4-.7C5.7 3.8 7.7 2 10 2s4.3 1.8 4.5 4.1c0 .3.2.5.4.7.2.1.4.2.6.2.4 0 .8.2 1.1.5.3.3.4.7.4 1.2-.1.8-.8 1.3-1.6 1.3H10c-.6 0-1 .4-1 1v4c0 .6-.4 1-1 1s-1-.4-1-1v-4c0-.6-.4-1-1-1H4.6c-.8 0-1.5-.6-1.6-1.3 0-.5.1-.9.4-1.2zM20 16c0 .6-.4 1-1 1h-1v-4h2v3z" class="nc-icon-wrapper"/></svg>
