<svg id="nc_icon" xmlns="http://www.w3.org/2000/svg" xml:space="preserve" viewBox="0 0 24 24"><g fill="currentColor" class="nc-icon-wrapper"><circle cx="5.5" cy="11.5" r="2"/><path d="M18.5 18c-3.6 0-6.5-2.9-6.5-6.5 0 3.6-2.9 6.5-6.5 6.5-1.9 0-3.7-.9-4.9-2.2C2.2 20.5 6.7 24 12 24c5.3 0 9.8-3.5 11.4-8.2-1.2 1.3-3 2.2-4.9 2.2zM18.5 5c1.6 0 3 .6 4.2 1.5C20.7 2.6 16.6 0 12 0S3.3 2.6 1.3 6.5C2.5 5.6 3.9 5 5.5 5 9.1 5 12 7.9 12 11.5 12 7.9 14.9 5 18.5 5z"/><circle cx="18.5" cy="11.5" r="2"/></g></svg>
