<svg id="nc_icon" xmlns="http://www.w3.org/2000/svg" xml:space="preserve" viewBox="0 0 24 24"><g fill="currentColor" class="nc-icon-wrapper"><path d="M22.5 9.6C21.6 9.1 21 8.1 21 7s.6-2.1 1.5-2.6c.5-.3.6-.9.4-1.4-.3-.5-.9-.6-1.4-.4-1.2.7-2.1 1.9-2.4 3.3H4.9c-.3-1.3-1.2-2.5-2.4-3.2-.5-.3-1.1-.1-1.4.3-.2.5-.1 1.1.4 1.4C2.4 4.9 3 5.9 3 7s-.6 2.1-1.5 2.6c-.5.3-.6.9-.4 1.4.2.3.7.7 1.4.4 1.3-.8 2.1-2 2.4-3.4h14.2c.3 1.4 1.1 2.6 2.4 3.3.7.4 1.2 0 1.4-.4.2-.4.1-1-.4-1.3z"/><path d="M13 10v3h-2v-3H6v5c0 3.3 2.7 6 6 6s6-2.7 6-6v-5h-5z" data-color="color-2"/></g></svg>
