<svg id="nc_icon" xmlns="http://www.w3.org/2000/svg" viewBox="0 0 24 24"><g fill="currentColor" class="nc-icon-wrapper"><path d="M12 0a6.964 6.964 0 0 0-6.889 8.2A8.952 8.952 0 0 1 12 9.522 8.952 8.952 0 0 1 18.889 8.2 6.964 6.964 0 0 0 12 0Zm0 5a1 1 0 1 1 1-1 1 1 0 0 1-1 1Z" data-color="color-2"/><path d="M7 10a7 7 0 1 0 7 7 7.008 7.008 0 0 0-7-7Zm-2 6a1 1 0 1 1 1-1 1 1 0 0 1-1 1Z"/><path d="M17 10a6.95 6.95 0 0 0-3.409.892 8.948 8.948 0 0 1 0 12.216A7 7 0 1 0 17 10Zm3 8a1 1 0 1 1 1-1 1 1 0 0 1-1 1Z"/></g></svg>
