<svg id="nc_icon" xmlns="http://www.w3.org/2000/svg" xml:space="preserve" viewBox="0 0 24 24"><g fill="currentColor" class="nc-icon-wrapper"><path d="M6 8h6v2H6zM6 13h12v2H6z" data-color="color-2"/><path d="M23 18h-1V7h-2v11H4V4h17V2h-8V0h-2v2H3a1 1 0 0 0-1 1v15H1a1 1 0 1 0 0 2h6.586l-2.293 2.293 1.414 1.414L10.414 20H11v3h2v-3h.586l3.707 3.707 1.414-1.414L16.414 20H23a1 1 0 1 0 0-2z"/><path d="M15 10a.999.999 0 0 1-.707-1.707l8-8a.999.999 0 1 1 1.414 1.414l-8 8A.997.997 0 0 1 15 10z" data-color="color-2"/></g></svg>
