<svg id="nc_icon" xmlns="http://www.w3.org/2000/svg" xml:space="preserve" viewBox="0 0 24 24"><g fill="currentColor" class="nc-icon-wrapper"><path d="M10 2a1 1 0 0 0-1-1H6a1 1 0 0 0-1 1v2h5V2z"/><path d="M23 17a1 1 0 0 0-1 1c0 1.654-1.346 3-3 3a2.994 2.994 0 0 1-2.622-1.579c-.351-.644-1.406-.644-1.757 0C14.092 20.395 13.087 21 12 21s-2.092-.605-2.622-1.579c-.351-.644-1.406-.644-1.757 0A2.991 2.991 0 0 1 5 21c-1.654 0-3-1.346-3-3a1 1 0 0 0-2 0c0 2.757 2.243 5 5 5a4.962 4.962 0 0 0 3.5-1.451C9.422 22.466 10.673 23 12 23s2.578-.534 3.5-1.451A4.962 4.962 0 0 0 19 23c2.757 0 5-2.243 5-5a1 1 0 0 0-1-1z" data-color="color-2"/><path d="M3.051 17.316a1.001 1.001 0 0 0 1.897-.633L3.387 12H20.382l-2.276 4.553a1 1 0 0 0 1.789.895l3-6A1 1 0 0 0 22 10h-3.382l-1.723-3.447A1.001 1.001 0 0 0 16 6H4a1 1 0 0 0-1 1v3H2a1.002 1.002 0 0 0-.949 1.317l2 5.999z"/></g></svg>
