<svg id="nc_icon" xmlns="http://www.w3.org/2000/svg" xml:space="preserve" viewBox="0 0 24 24"><path fill="currentColor" d="M23.607 1.205a1.01 1.01 0 0 0-.87-.17L12 3.963 1.263 1.035a1.007 1.007 0 0 0-.87.17C.146 1.395 0 1.688 0 2v17a1 1 0 0 0 .737.965l11 3a1.022 1.022 0 0 0 .526 0l11-3A1 1 0 0 0 24 19V2c0-.312-.146-.605-.393-.795zM9.702 18.264l-5.93-1.617.526-1.93 5.93 1.617-.526 1.93zm0-4.491-5.93-1.617.526-1.93 5.93 1.617-.526 1.93zm0-4.217-5.93-1.617.526-1.93 5.93 1.617-.526 1.93zm4.596 8.708-.526-1.93 5.93-1.617.526 1.93-5.93 1.617zm0-4.491-.526-1.93 5.93-1.617.526 1.93-5.93 1.617zm0-4.217-.526-1.93 5.93-1.617.526 1.93-5.93 1.617z" class="nc-icon-wrapper"/></svg>
