<svg id="nc_icon" xmlns="http://www.w3.org/2000/svg" xml:space="preserve" viewBox="0 0 24 24"><path fill="currentColor" d="m24 12-6-5v4h-2.055A14.953 14.953 0 0 0 10.643.518a1.001 1.001 0 0 0-1.287 1.531c.414.348.797.724 1.16 1.115L3.551 11H0v2h3.551l6.966 7.837c-.363.391-.746.766-1.16 1.115a1 1 0 1 0 1.288 1.531 14.96 14.96 0 0 0 5.302-10.482H18v4L24 12zM11.772 4.761A12.932 12.932 0 0 1 13.945 11H6.227l5.545-6.239zm0 14.478L6.227 13h7.718a12.922 12.922 0 0 1-2.173 6.239z" class="nc-icon-wrapper"/></svg>
