<svg id="nc_icon" xmlns="http://www.w3.org/2000/svg" xml:space="preserve" viewBox="0 0 24 24"><g fill="currentColor" class="nc-icon-wrapper"><path d="M10 0a1 1 0 0 0-1 1v8a1 1 0 0 0 1 1 4 4 0 0 1 4 4 1 1 0 0 0 1 1h8a1 1 0 0 0 1-1A14.016 14.016 0 0 0 10 0Zm5.917 13A6.016 6.016 0 0 0 11 8.083V2.041A12.021 12.021 0 0 1 21.958 13Z" data-color="color-2"/><circle cx="14" cy="6" r="1" data-color="color-2"/><circle cx="18" cy="10" r="1" data-color="color-2"/><path d="M10.5 20A6.494 6.494 0 0 1 7 8.032V3.613A10.493 10.493 0 1 0 20.387 17h-4.419a6.5 6.5 0 0 1-5.468 3Z"/></g></svg>
