<svg id="nc_icon" xmlns="http://www.w3.org/2000/svg" xml:space="preserve" viewBox="0 0 24 24"><path fill="currentColor" d="M18 1H6C2.7 1 0 3.7 0 7c0 2.6 1.6 4.8 4 5.7V22c0 .6.4 1 1 1h14c.6 0 1-.4 1-1v-9.3c2.4-.8 4-3.1 4-5.7 0-3.3-2.7-6-6-6zM7 8c-.3 0-.5-.1-.7-.3-.4-.4-.4-1 0-1.4l1-1c.4-.4 1-.4 1.4 0s.4 1 0 1.4l-1 1c-.2.2-.4.3-.7.3zm3 8c0 .6-.4 1-1 1s-1-.4-1-1v-1c0-.6.4-1 1-1s1 .4 1 1v1zm1.3-5.3c-.4-.4-.4-1 0-1.4s1-.4 1.4 0l1 1c.4.4.4 1 0 1.4-.2.2-.4.3-.7.3s-.5-.1-.7-.3l-1-1zm4.4 6-1 1c-.2.2-.4.3-.7.3s-.5-.1-.7-.3c-.4-.4-.4-1 0-1.4l1-1c.4-.4 1-.4 1.4 0s.4 1 0 1.4zM17 7c0 .6-.4 1-1 1s-1-.4-1-1V6c0-.6.4-1 1-1s1 .4 1 1v1z" class="nc-icon-wrapper"/></svg>
