<svg id="nc_icon" xmlns="http://www.w3.org/2000/svg" xml:space="preserve" viewBox="0 0 24 24"><g fill="currentColor" class="nc-icon-wrapper"><path d="M21.116 4.218c-2.361-1.623-4.884-1.533-7.114-.668 2.578 1.118 4.45 4.478 4.45 8.451 0 3.972-1.872 7.333-4.45 8.45 2.23.864 4.752.954 7.114-.669C22.908 17.686 24 14.974 24 12s-1.092-5.686-2.884-7.782z" data-color="color-2"/><path d="M8.05 18.763c-1.327-1.566-2.186-3.882-2.244-6.48v-.565c.058-2.598.918-4.914 2.244-6.48 1.722-2.236 4.281-3.653 7.138-3.653 1.758 0 3.403.537 4.809 1.47A11.952 11.952 0 0 0 12.044.001L12 0C5.373 0 0 5.373 0 12c0 6.436 5.066 11.688 11.428 11.986a11.955 11.955 0 0 0 8.569-3.04 8.656 8.656 0 0 1-4.809 1.47c-2.857 0-5.416-1.418-7.138-3.653z"/></g></svg>
