<svg id="nc_icon" xmlns="http://www.w3.org/2000/svg" xml:space="preserve" viewBox="0 0 24 24"><path fill="currentColor" d="M22.718 5.365C24.939-.397 20.625.006 20.625.006c-2.767 0-6.226 2.52-6.226 2.52S10.273 1.414 6.147 3.91c-4.497 2.866-4.349 7.956-4.349 7.956 3.858-5.147 8.747-7.017 8.747-7.017C3.034 9.985 1.255 17.499.81 19.031.365 20.563.662 24 3.824 24c3.163 0 6.375-2.548 6.375-2.548s.692.148 2.57.148c7.906 0 9.784-6.968 9.784-6.968h-7.017s-.494 2.273-3.014 2.273c-3.459 0-3.261-3.607-3.261-3.607h13.392c.516-7.466-4.611-9.79-6.646-10.416 1.113-.833 3.439-2.577 5.776-1.805 1.891.625.713 4.063.713 4.063 0 .003.221.223.222.225zM9.807 21.35s-4.826 2.929-6.993.899c-1.161-2.03.725-4.904.725-4.904s1.596 2.96 6.268 4.005zm5.805-11.213H9.243s-.081-3.104 3.265-3.104c3.231.001 3.104 3.104 3.104 3.104z" class="nc-icon-wrapper"/></svg>
