<svg id="nc_icon" xmlns="http://www.w3.org/2000/svg" xml:space="preserve" viewBox="0 0 24 24"><path fill="currentColor" d="M5.407 6.357C2.552 8.134.92 10.659.92 10.659 1.39 4.774 6.002 0 12.206 0c5.136 0 9.341 3.445 10.431 7.904.525 2.151.438 4.231.438 6.025H8.001s-.368 5.064 6.564 5.064c2.378 0 4.638-.536 6.488-1.8l.002 5.06c-2.647 1.631-7.633 2.285-10.828 1.248-3.725-1.209-6.516-4.418-6.516-9.048 0-2.188.748-4.277 2.045-5.787C7.436 6.71 9.56 5.849 9.56 5.849 8.65 6.908 8.054 8.336 7.9 9.673h8.511s.498-5.086-4.816-5.086c-2.002 0-4.461.695-6.188 1.77z" class="nc-icon-wrapper"/></svg>
