<svg id="nc_icon" xmlns="http://www.w3.org/2000/svg" xml:space="preserve" viewBox="0 0 24 24"><g fill="currentColor" class="nc-icon-wrapper"><path d="M8.364 15.636c-.755-.755-1.76-1.171-2.828-1.171s-2.073.416-2.829 1.171c-1.373 1.373-1.662 5.498-1.706 6.31A.999.999 0 0 0 2 23l.054-.001c.812-.044 4.937-.333 6.31-1.706.756-.755 1.172-1.76 1.172-2.828s-.416-2.074-1.172-2.829z" data-color="color-2"/><path d="M21.604 1.502c-1.252-.844-2.951-.583-4.018.484L6.937 12.635a5.948 5.948 0 0 1 2.841 1.587 5.96 5.96 0 0 1 1.582 2.819L22.087 6.313a3.126 3.126 0 0 0-.483-4.811z"/></g></svg>
