<svg id="nc_icon" xmlns="http://www.w3.org/2000/svg" xml:space="preserve" viewBox="0 0 24 24"><path fill="currentColor" d="M12 24.007c-1.846 0-7.796-.209-7.995-2.862L.146 4.737A1.88 1.88 0 0 1 0 4.007c0-3.158 7.543-4 12-4s12 .842 12 4c0 .259-.051.502-.146.73l-3.858 16.407c-.2 2.654-6.15 2.863-7.996 2.863zM2.062 4.15c.591.659 4.201 1.857 9.938 1.857 5.824 0 9.456-1.235 9.962-1.962l.027-.113C21.6 3.292 17.94 2.007 12 2.007c-5.877 0-9.521 1.257-9.976 1.982l.038.161z" class="nc-icon-wrapper"/></svg>
