<svg id="nc_icon" xmlns="http://www.w3.org/2000/svg" xml:space="preserve" viewBox="0 0 24 24"><g fill="currentColor" class="nc-icon-wrapper"><path d="M22 2H10c-.6 0-1 .4-1 1v2c0 .6.4 1 1 1h12c.6 0 1-.4 1-1V3c0-.6-.4-1-1-1zM22 10H10c-.6 0-1 .4-1 1v2c0 .6.4 1 1 1h12c.6 0 1-.4 1-1v-2c0-.6-.4-1-1-1zM22 18H10c-.6 0-1 .4-1 1v2c0 .6.4 1 1 1h12c.6 0 1-.4 1-1v-2c0-.6-.4-1-1-1z" data-color="color-2"/><path d="M6 1H2c-.6 0-1 .4-1 1v4c0 .6.4 1 1 1h4c.6 0 1-.4 1-1V2c0-.6-.4-1-1-1zM6 9H2c-.6 0-1 .4-1 1v4c0 .6.4 1 1 1h4c.6 0 1-.4 1-1v-4c0-.6-.4-1-1-1zM6 17H2c-.6 0-1 .4-1 1v4c0 .6.4 1 1 1h4c.6 0 1-.4 1-1v-4c0-.6-.4-1-1-1z"/></g></svg>
