<svg id="nc_icon" xmlns="http://www.w3.org/2000/svg" xml:space="preserve" viewBox="0 0 24 24"><g fill="currentColor" class="nc-icon-wrapper"><path d="m2.359 16.451 3.829-2.307c-.921-1.174-1.58-2.669-1.92-4.397-.513 1.087-1.381 2.338-2.868 3.453l-.577.433.229.684c.281.844.753 1.548 1.307 2.134zM21.641 16.451c.553-.586 1.025-1.289 1.307-2.134l.229-.684-.577-.433c-1.487-1.115-2.355-2.366-2.867-3.453-.34 1.727-.999 3.223-1.92 4.397l3.828 2.307z" data-color="color-2"/><path d="m21.545 17.561-5.315-3.202C17.955 12.785 19 10.185 19 7c0-3.859-3.141-7-7-7S5 3.141 5 7c0 3.185 1.045 5.784 2.77 7.358L2.455 17.56A3.02 3.02 0 0 0 1 20.133V23a1 1 0 0 0 1 1h9v-6h2v6h9a1 1 0 0 0 1-1v-2.867a3.017 3.017 0 0 0-1.455-2.572zM12 14c-2.691 0-4.634-2.408-4.95-5.968.315.041.628.073.935.073a7.922 7.922 0 0 0 5-1.757 7.92 7.92 0 0 0 3.964 1.682C16.634 11.591 14.691 14 12 14z"/></g></svg>
