<svg id="nc_icon" xmlns="http://www.w3.org/2000/svg" xml:space="preserve" viewBox="0 0 24 24"><g fill="currentColor" class="nc-icon-wrapper"><path d="M17.497 3.47a1 1 0 1 0-1 1.732A9.037 9.037 0 0 1 21 13c0 4.963-4.037 9-9 9s-9-4.037-9-9a9.038 9.038 0 0 1 4.501-7.797.998.998 0 0 0 .364-1.366.995.995 0 0 0-1.366-.364A11.04 11.04 0 0 0 1 13c0 6.065 4.935 11 11 11s11-4.935 11-11a11.04 11.04 0 0 0-5.503-9.53z"/><path d="M12 9a1 1 0 0 0 1-1V1a1 1 0 1 0-2 0v7a1 1 0 0 0 1 1z" data-color="color-2"/></g></svg>
