<svg id="nc_icon" xmlns="http://www.w3.org/2000/svg" xml:space="preserve" viewBox="0 0 24 24"><path fill="currentColor" d="M23 3c-3.605 0-6.761 1.924-8.52 4.793a2.472 2.472 0 0 0-.522-1.328c.007-.03.023-.055.027-.086.259-2.251.845-3.858 1.695-4.646A1 1 0 1 0 14.32.267c-1.141 1.057-1.871 2.782-2.233 5.242-.03-.001-.057-.009-.087-.009s-.058.008-.087.009C11.55 3.049 10.82 1.324 9.68.267a1 1 0 1 0-1.36 1.467c.85.787 1.436 2.394 1.695 4.645.004.03.02.056.027.086a2.472 2.472 0 0 0-.521 1.328C7.76 4.924 4.605 3 1 3H0v6c0 3.309 2.691 6 6 6h.5C4.019 15 2 17.019 2 19.5S4.019 24 6.5 24c1.436 0 2.702-.688 3.526-1.738.13.98.959 1.738 1.974 1.738s1.844-.759 1.974-1.738C14.798 23.312 16.064 24 17.5 24c2.481 0 4.5-2.019 4.5-4.5S19.981 15 17.5 15h.5c3.309 0 6-2.691 6-6V3h-1z" class="nc-icon-wrapper"/></svg>
