<svg id="nc_icon" xmlns="http://www.w3.org/2000/svg" xml:space="preserve" viewBox="0 0 24 24"><g fill="currentColor" class="nc-icon-wrapper"><path d="M16.019 9.567A3.947 3.947 0 0 0 14 9c-2.206 0-4 1.794-4 4 0 .74.216 1.424.567 2.019l5.452-5.452zM11.981 16.433A3.947 3.947 0 0 0 14 17c2.206 0 4-1.794 4-4 0-.74-.216-1.424-.567-2.019l-5.452 5.452z"/><path d="M23 4h-3.465l-1.703-2.555A1.001 1.001 0 0 0 17 1h-6c-.334 0-.646.167-.832.445L8.465 4H1a1 1 0 0 0-1 1v17a1 1 0 0 0 1 1h22a1 1 0 0 0 1-1V5a1 1 0 0 0-1-1zM5 10a1 1 0 1 1 0-2 1 1 0 0 1 0 2zm9 9c-3.309 0-6-2.691-6-6s2.691-6 6-6 6 2.691 6 6-2.691 6-6 6z"/></g></svg>
