<svg id="nc_icon" xmlns="http://www.w3.org/2000/svg" xml:space="preserve" viewBox="0 0 24 24"><g fill="currentColor" class="nc-icon-wrapper"><path d="M16.931 11.312c.031.227.069.452.069.688a5 5 0 0 1-5 5c-.236 0-.461-.038-.688-.069L8.242 20H22a1 1 0 0 0 1-1V6c0-.213-.082-.4-.195-.562l-5.874 5.874zM2 20h2l4.464-4.464a5 5 0 0 1 7.072-7.072L19 5h-1.465l-1.703-2.555A1.001 1.001 0 0 0 15 2H9c-.334 0-.646.167-.832.445L6.465 5H2a1 1 0 0 0-1 1v13a1 1 0 0 0 1 1z"/><path d="M1 24a.999.999 0 0 1-.707-1.707l22-22a.999.999 0 1 1 1.414 1.414l-22 22A.997.997 0 0 1 1 24z" data-color="color-2"/></g></svg>
