<svg id="nc_icon" xmlns="http://www.w3.org/2000/svg" xml:space="preserve" viewBox="0 0 24 24"><g fill="currentColor" class="nc-icon-wrapper"><path d="M23 5h-8a1 1 0 0 1 0-2h8a1 1 0 0 1 0 2zM23 11h-8a1 1 0 0 1 0-2h8a1 1 0 0 1 0 2zM23 17H1a1 1 0 1 1 0-2h22a1 1 0 1 1 0 2zM23 23H1a1 1 0 1 1 0-2h22a1 1 0 1 1 0 2z"/><path d="M7.62 12v-1.077l1.133-.125-.498-1.436H4.83l-.484 1.436 1.092.125V12H1.584v-1.077l.608-.152c.166-.042.29-.097.345-.263L5.562 2h2.445l3.01 8.536c.056.166.167.193.332.235l.635.152V12H7.62zM6.612 4.113h-.083L5.259 7.87H7.84L6.61 4.113z" data-color="color-2"/></g></svg>
