<svg id="nc_icon" xmlns="http://www.w3.org/2000/svg" xml:space="preserve" viewBox="0 0 24 24"><g fill="currentColor" class="nc-icon-wrapper"><path d="M4 22v-1.604l2.63-.155c.31-.023.37-.111.37-.442V4H2.188c-.243 0-.31.022-.354.243L1.481 6H0V2h16v4h-1.481l-.353-1.757c-.044-.22-.111-.243-.354-.243H9v15.799c0 .31.038.398.37.42l2.63.177V22H4z"/><path d="M15 22v-1.604l1.63-.155c.31-.023.37-.111.37-.442V11h-2.812c-.243 0-.31.022-.354.243L13.481 13H12V9h12v4h-1.481l-.353-1.757c-.044-.22-.111-.243-.354-.243H19v8.799c0 .31.038.398.37.42l1.63.177V22h-6z" data-color="color-2"/></g></svg>
