<svg id="nc_icon" xmlns="http://www.w3.org/2000/svg" xml:space="preserve" viewBox="0 0 24 24"><g fill="currentColor" class="nc-icon-wrapper"><path d="m20.874 14.46-1.7-5.093A2 2 0 0 0 17.279 8H6.721a2 2 0 0 0-1.9 1.367l-1.7 5.093L1.586 16A2.012 2.012 0 0 0 1 17.414V23a1 1 0 0 0 1 1h3a1 1 0 0 0 1-1v-1h12v1a1 1 0 0 0 1 1h3a1 1 0 0 0 1-1v-5.586A2.012 2.012 0 0 0 22.414 16ZM17.279 10l1.333 4H5.388l1.333-4ZM3 17.414 4.414 16h15.172L21 17.414V20H3Z"/><circle cx="6" cy="18" r="1"/><circle cx="18" cy="18" r="1"/><path d="M10.51 6.667 9.019 5.333a4 4 0 0 1 5.958 0l-1.488 1.331a2.067 2.067 0 0 0-2.979.003Z" data-color="color-2"/><path d="m7.075 4.572-1.64-1.144a8 8 0 0 1 13.13 0l-1.64 1.145a6 6 0 0 0-9.85 0Z" data-color="color-2"/></g></svg>
