<svg id="nc_icon" xmlns="http://www.w3.org/2000/svg" xml:space="preserve" viewBox="0 0 24 24"><g fill="currentColor" class="nc-icon-wrapper"><circle cx="6" cy="17" r="1"/><circle cx="18" cy="17" r="1"/><path d="m22.414 15-1.54-1.54-1.7-5.093A2 2 0 0 0 17.279 7H16.6a4.8 4.8 0 0 1-1.583 2h2.258l1.333 4H5.388l1.333-4h2.258A4.8 4.8 0 0 1 7.4 7h-.679a2 2 0 0 0-1.9 1.367l-1.7 5.093L1.586 15A2.012 2.012 0 0 0 1 16.414V22a1 1 0 0 0 1 1h3a1 1 0 0 0 1-1v-1h12v1a1 1 0 0 0 1 1h3a1 1 0 0 0 1-1v-5.586A2.012 2.012 0 0 0 22.414 15ZM21 19H3v-2.586L4.414 15h15.172L21 16.414Z"/><path d="M9 5c0-1.9 3-5 3-5s3 3.1 3 5a3 3 0 0 1-6 0Z" data-color="color-2"/></g></svg>
