<svg id="nc_icon" xmlns="http://www.w3.org/2000/svg" xml:space="preserve" viewBox="0 0 24 24"><g fill="currentColor" class="nc-icon-wrapper"><path d="m20.874 13.46-1.7-5.093A2 2 0 0 0 17.279 7H6.721a2 2 0 0 0-1.9 1.367l-1.7 5.093L1.586 15A2.012 2.012 0 0 0 1 16.414V22a1 1 0 0 0 1 1h3a1 1 0 0 0 1-1v-1h12v1a1 1 0 0 0 1 1h3a1 1 0 0 0 1-1v-5.586A2.012 2.012 0 0 0 22.414 15ZM17.279 9l1.333 4H5.388l1.333-4ZM3 16.414 4.414 15h15.172L21 16.414V19H3Z"/><circle cx="6" cy="17" r="1"/><circle cx="18" cy="17" r="1"/><path d="m12 2.1 10.586 4.81.827-1.82-11-5a1 1 0 0 0-.827 0l-11 5 .827 1.82Z" data-color="color-2"/></g></svg>
