<svg id="nc_icon" xmlns="http://www.w3.org/2000/svg" xml:space="preserve" viewBox="0 0 24 24"><path fill="currentColor" d="M23 9h-4.434l-2.709-4.515A.997.997 0 0 0 15 4H5a1 1 0 0 0-.781.375l-4 5A1.001 1.001 0 0 0 0 10v6a1 1 0 0 0 1 1h1.051c.245 1.692 1.691 3 3.449 3s3.204-1.308 3.449-3h5.101c.245 1.692 1.691 3 3.449 3s3.204-1.308 3.449-3H23a1 1 0 0 0 1-1v-6a1 1 0 0 0-1-1zm-6.766 0H11V6h3.434l1.8 3zM5.48 6H9v3H3.08l2.4-3zm.02 12c-.827 0-1.5-.673-1.5-1.5S4.673 15 5.5 15s1.5.673 1.5 1.5S6.327 18 5.5 18zm12 0c-.827 0-1.5-.673-1.5-1.5s.673-1.5 1.5-1.5 1.5.673 1.5 1.5-.673 1.5-1.5 1.5z" class="nc-icon-wrapper"/></svg>
