<svg id="nc_icon" xmlns="http://www.w3.org/2000/svg" xml:space="preserve" viewBox="0 0 24 24"><path fill="currentColor" d="M21.29 15.227a1.559 1.559 0 0 0-.045-.015l-2.197-.638 3.784-9.46A2.998 2.998 0 0 0 20.046 1H16a1 1 0 0 0 0 2h4.046c.337 0 .64.16.828.44s.226.618.1.931l-3.857 9.642-9.096-2.643a6.874 6.874 0 0 0-1.224-.305L5.781 7H7a1 1 0 0 0 0-2H2a1 1 0 0 0 0 2h1.72l1.032 4.132C2.041 11.708 0 14.12 0 17c0 3.309 2.691 6 6 6h14c2.206 0 4-1.794 4-4a3.995 3.995 0 0 0-2.71-3.773zM6 19a2 2 0 1 1 0-4 2 2 0 0 1 0 4z" class="nc-icon-wrapper"/></svg>
