<svg id="nc_icon" xmlns="http://www.w3.org/2000/svg" viewBox="0 0 24 24"><path fill="currentColor" d="M23 1c-1.854 0-3.301.694-4.26 1.999a5.496 5.496 0 0 0-2.863-.627 5.443 5.443 0 0 0-3.95 2.067l-1.193 1.519 2.654 2.654-1.414 1.414L9.49 7.542.696 18.734A3.256 3.256 0 0 0 3.256 24a3.24 3.24 0 0 0 2.009-.695l6.442-5.061-1.975-1.975 1.414-1.414L13.291 17l6.269-4.926a5.439 5.439 0 0 0 2.068-3.95 5.433 5.433 0 0 0-1.325-3.881C20.888 3.402 21.758 3 23 3a1 1 0 1 0 0-2z" class="nc-icon-wrapper"/></svg>
