<svg id="nc_icon" xmlns="http://www.w3.org/2000/svg" xml:space="preserve" viewBox="0 0 24 24"><g fill="currentColor" class="nc-icon-wrapper"><path d="M22 5h-1.586l-3.707-3.707a.999.999 0 0 0-1.414 0L13.5 3.086l-1.793-1.793a.999.999 0 0 0-1.414 0L6.586 5H5.542L4.991.868A1 1 0 0 0 4 0H1v2h2.125l1.884 14.132A1 1 0 0 0 6 17h14a.998.998 0 0 0 .98-.804l2-10A.998.998 0 0 0 22 5zm-6-1.586L17.586 5h-2.172l-.5-.5L16 3.414zm-5 0L12.586 5H9.414L11 3.414z"/><circle cx="6.5" cy="21.5" r="2.5" data-color="color-2"/><circle cx="19.5" cy="21.5" r="2.5" data-color="color-2"/></g></svg>
