<svg id="nc_icon" xmlns="http://www.w3.org/2000/svg" xml:space="preserve" viewBox="0 0 24 24"><g fill="currentColor" class="nc-icon-wrapper"><path d="M5 5h5V3H5V1a1 1 0 0 0-1-1H0v2h3v14a1 1 0 0 0 1 1h20v-2H5V5z"/><path d="M18 2c.808 0 1.573.331 2.131.893l-1.608 1.168L22.792 5 23.22.649l-1.466 1.065A5.01 5.01 0 0 0 18 0a5 5 0 0 0-4.843 3.75l1.938.499A2.997 2.997 0 0 1 18 2zM18 11a5 5 0 0 0 4.843-3.75l-1.938-.499a2.997 2.997 0 0 1-5.036 1.356l1.608-1.168L13.208 6l-.428 4.351 1.466-1.065A5.01 5.01 0 0 0 18 11z" data-color="color-2"/><circle cx="5.5" cy="21.5" r="2.5" data-color="color-2"/><circle cx="21.5" cy="21.5" r="2.5" data-color="color-2"/></g></svg>
