<svg id="nc_icon" xmlns="http://www.w3.org/2000/svg" xml:space="preserve" viewBox="0 0 24 24"><g fill="currentColor" class="nc-icon-wrapper"><path d="M5 15V5h5V3H5V1a1 1 0 0 0-1-1H0v2h3v14a1 1 0 0 0 1 1h20v-2H5z"/><path d="m18 10 4.202-4.269a2.803 2.803 0 0 0 0-3.919A2.702 2.702 0 0 0 18 2.24a2.7 2.7 0 0 0-4.201-.428 2.803 2.803 0 0 0 0 3.919L18 10z" data-color="color-2"/><circle cx="5.5" cy="21.5" r="2.5" data-color="color-2"/><circle cx="21.5" cy="21.5" r="2.5" data-color="color-2"/></g></svg>
