<svg id="nc_icon" xmlns="http://www.w3.org/2000/svg" xml:space="preserve" viewBox="0 0 24 24"><g fill="currentColor" class="nc-icon-wrapper"><circle cx="4" cy="22" r="2" data-color="color-2"/><circle cx="20" cy="22" r="2" data-color="color-2"/><path d="M23 16H3l1.5-2H19a.998.998 0 0 0 .948-.684l1.797-5.392C21.5 7.962 21.255 8 21 8a5 5 0 0 1-5-5H4.414L1.707.293A.999.999 0 1 0 .293 1.707L3 4.414v8.252L.2 16.4A.999.999 0 0 0 1 18h22a1 1 0 1 0 0-2z"/><path d="M18 2h6v2h-6z" data-color="color-2"/></g></svg>
