<svg id="nc_icon" xmlns="http://www.w3.org/2000/svg" xml:space="preserve" viewBox="0 0 24 24"><g fill="currentColor" class="nc-icon-wrapper"><path d="M14 13h-4a1 1 0 0 0-1 1v9a1 1 0 0 0 1 1h4a1 1 0 0 0 1-1v-9a1 1 0 0 0-1-1zM5 17H1a1 1 0 0 0-1 1v5a1 1 0 0 0 1 1h4a1 1 0 0 0 1-1v-5a1 1 0 0 0-1-1zM23 9h-4a1 1 0 0 0-1 1v13a1 1 0 0 0 1 1h4a1 1 0 0 0 1-1V10a1 1 0 0 0-1-1z"/><path d="M12.707 9.707 19 3.414V7h2V1a1 1 0 0 0-1-1h-6v2h3.586L12 7.586 8.707 4.293a.999.999 0 0 0-1.414 0l-5 5 1.414 1.414L8 6.414l3.293 3.293a.999.999 0 0 0 1.414 0z" data-color="color-2"/></g></svg>
