<svg id="nc_icon" xmlns="http://www.w3.org/2000/svg" xml:space="preserve" viewBox="0 0 24 24"><g fill="currentColor" class="nc-icon-wrapper"><path d="M13 6.09A6.007 6.007 0 0 1 17.91 11h6.04C23.466 5.181 18.819.534 13 .051V6.09z" data-color="color-2"/><path d="M17.91 13c-.478 2.833-2.942 5-5.91 5a5.963 5.963 0 0 1-3.723-1.304l-4.483 4.035A11.94 11.94 0 0 0 12 24c6.28 0 11.438-4.851 11.949-11H17.91zM6.939 15.21A5.965 5.965 0 0 1 6 12c0-2.967 2.167-5.431 5-5.91V.05C4.85.562 0 5.721 0 12c0 2.723.922 5.228 2.456 7.244l4.483-4.034z"/></g></svg>
