<svg id="nc_icon" xmlns="http://www.w3.org/2000/svg" xml:space="preserve" viewBox="0 0 24 24"><g fill="currentColor" class="nc-icon-wrapper"><path d="M21.965 9.575C21.604 14.821 16.384 19 10 19c-.465 0-.931-.026-1.394-.072 2.013 1.586 4.939 2.376 7.946 1.967L22 23.618v-5.215c1.293-1.243 2-2.791 2-4.403 0-1.627-.723-3.178-2.035-4.425z" data-color="color-2"/><path d="M10 1C4.477 1 0 4.582 0 9c0 1.797.75 3.45 2 4.785V19l4.833-2.416C7.829 16.85 8.892 17 10 17c5.523 0 10-3.582 10-8s-4.477-8-10-8z"/></g></svg>
