<svg id="nc_icon" xmlns="http://www.w3.org/2000/svg" viewBox="0 0 24 24"><g fill="currentColor" class="nc-icon-wrapper"><path d="M23.268 2.854c-.4-.4-.902-.627-1.422-.699a2.474 2.474 0 0 0-.699-1.422 2.501 2.501 0 0 0-3.854 3.146l-3.607 3.607 2.828 2.828 3.607-3.607a2.5 2.5 0 0 0 3.147-3.853z" data-color="color-2"/><path d="m15.808 12.435-4.243-4.243a.999.999 0 0 0-1.414 0l-1.877 1.876a7.027 7.027 0 0 0-6.179 1.937 7.008 7.008 0 0 0 0 9.899c1.365 1.365 3.157 2.047 4.95 2.047s3.585-.683 4.95-2.047a7.027 7.027 0 0 0 1.937-6.179l1.876-1.877a1 1 0 0 0 0-1.413z"/></g></svg>
