<svg id="nc_icon" xmlns="http://www.w3.org/2000/svg" viewBox="0 0 24 24"><g fill="currentColor" class="nc-icon-wrapper"><path d="M22.975 16.07a1.543 1.543 0 0 0-1.627-.76c-.934.167-1.783.336-2.562.49-4.505.893-6.02 1.191-7.989-1.405-.679-.895-.682-2.213-.684-3.488-.001-.747-.002-1.452-.133-2.104C9.6 6.897 8.122 5.528 6.165 5.13c.25-.765.73-1.088 1.054-1.146a1 1 0 0 0-.357-1.968c-.886.161-2.32 1.007-2.739 3.045C1.429 5.354 0 7.036 0 10c0 4.459 1.747 7.995 3.243 9.667 2.116 2.367 5.11 3.664 8.447 3.664l.163-.001c4.053-.051 8.049-2.047 10.962-5.475a1.542 1.542 0 0 0 .16-1.785z"/><path d="m15.293 7.293 3-3 1.414 1.414-3 3zM17.398 10.032l4.177-.736.348 1.97-4.178.736zM11.998 6.257l.736-4.179 1.969.347-.736 4.178z" data-color="color-2"/></g></svg>
