<svg id="nc_icon" xmlns="http://www.w3.org/2000/svg" xml:space="preserve" viewBox="0 0 24 24"><g fill="currentColor" class="nc-icon-wrapper"><circle cx="8.5" cy="14.5" r="1.5" data-color="color-2"/><circle cx="15.5" cy="14.5" r="1.5" data-color="color-2"/><path d="M21.245 9.206a10.01 10.01 0 0 0-7.165-5.982c.697-.726 1.693-1.145 2.982-1.226L16.937.002c-1.881.117-3.43.812-4.479 2.01a5.536 5.536 0 0 0-.691.997 10 10 0 0 0-9.013 6.197C1.128 9.734 0 11.246 0 13s1.128 3.266 2.755 3.794C4.287 20.528 7.935 23 12 23s7.713-2.472 9.245-6.206C22.872 16.266 24 14.754 24 13s-1.128-3.266-2.755-3.794zm-.915 5.758-.585.098-.194.561C18.433 18.839 15.398 21 12 21s-6.433-2.161-7.551-5.378l-.194-.561-.585-.097C2.702 14.802 2 13.977 2 13s.702-1.802 1.67-1.964l.585-.098.194-.561a7.994 7.994 0 0 1 6.637-5.306 8.657 8.657 0 0 0-.084 1.997l1.996-.139a6.369 6.369 0 0 1 .13-1.841 8.002 8.002 0 0 1 6.422 5.289l.194.561.585.098C21.298 11.198 22 12.023 22 13s-.702 1.802-1.67 1.964z"/></g></svg>
