<svg id="nc_icon" xmlns="http://www.w3.org/2000/svg" xml:space="preserve" viewBox="0 0 24 24"><g fill="currentColor" class="nc-icon-wrapper"><path d="M23 11c-.1 0-1.5-.1-2.4-1h.4c.6 0 1-.4 1-1V8c0-.5-.4-1-1-1 0 0-2.5-.1-3-2.2-.1-.5-.5-.8-1-.8h-1.1c-.6-2.2-3-3.7-3.3-3.9-.3-.2-.7-.2-1 0-.4.2-2.8 1.7-3.5 3.9H7c-.5 0-.9.3-1 .8C5.5 6.9 3.1 7 3 7c-.6 0-1 .5-1 1v1c0 .6.4 1 1 1h.4c-.9.9-2.3 1-2.4 1-.5 0-1 .5-1 1v1c0 .6.4 1 1 1h22c.6 0 1-.4 1-1v-1c0-.5-.4-1-1-1z"/><path d="M2 16v6c0 .6.4 1 1 1h8v-3h2v3h8c.6 0 1-.4 1-1v-6H2z" data-color="color-2"/></g></svg>
