<svg id="nc_icon" xmlns="http://www.w3.org/2000/svg" viewBox="0 0 24 24"><g fill="currentColor" class="nc-icon-wrapper"><path d="M23.578 13.36a1 1 0 0 0-.768-.36H1.19a1 1 0 0 0-.983 1.181 11.991 11.991 0 0 0 23.586 0 1 1 0 0 0-.215-.821Z"/><path d="M18 11h3.312A6.871 6.871 0 0 0 22 8a7 7 0 0 0-11.9-4.995A8.006 8.006 0 0 1 18 11Z" data-color="color-2"/><path d="M16 11a5.988 5.988 0 0 0-8.173-5.587L2.707.293a1 1 0 0 0-1.414 1.414L6.066 6.48a6.418 6.418 0 0 0-.351.328L1.372 5.071a1 1 0 0 0-.744 1.858L4.553 8.5A5.963 5.963 0 0 0 4 11Z" data-color="color-2"/></g></svg>
