<svg id="nc_icon" xmlns="http://www.w3.org/2000/svg" xml:space="preserve" viewBox="0 0 24 24"><g fill="currentColor" class="nc-icon-wrapper"><path d="M2.052 18.711a12.02 12.02 0 0 1-2-7.839 1 1 0 0 1 1.992.19 10.015 10.015 0 0 0 1.666 6.53c3.084 4.572 9.311 5.782 13.883 2.698s5.78-9.311 2.697-13.883S10.979.627 6.407 3.71a9.928 9.928 0 0 0-2.903 3.01 1 1 0 0 1-1.7-1.054A11.912 11.912 0 0 1 5.29 2.052c5.485-3.7 12.958-2.248 16.659 3.237s2.248 12.958-3.237 16.659S5.753 24.196 2.052 18.71z" class="nc-loop_circle-04-24"/><script>!function(){function t(t){this.element=t,this.circle=this.element.getElementsByTagName(&quot;path&quot;)[0],this.animationId,this.start=null,this.init()}if(!window.requestAnimationFrame){var i=null;window.requestAnimationFrame=function(t,n){var e=(new Date).getTime();i||(i=e);var a=Math.max(0,16-(e-i)),o=window.setTimeout(function(){t(e+a)},a);return i=e+a,o}}t.prototype.init=function(){var t=this;this.animationId=window.requestAnimationFrame(t.triggerAnimation.bind(t))},t.prototype.reset=function(){var t=this;window.cancelAnimationFrame(t.animationId)},t.prototype.triggerAnimation=function(t){var i=this;this.start||(this.start=t);var n=t-this.start;720&gt;n||(this.start=this.start+720),this.circle.setAttribute(&quot;transform&quot;,&quot;rotate(&quot;+Math.min(n/2,360)+&quot; 12 12)&quot;);if(document.documentElement.contains(this.element))window.requestAnimationFrame(i.triggerAnimation.bind(i))};var n=document.getElementsByClassName(&quot;nc-loop_circle-04-24&quot;),e=[];if(n)for(var a=0;n.length&gt;a;a++)!function(i){e.push(new t(n[i]))}(a);document.addEventListener(&quot;visibilitychange&quot;,function(){&quot;hidden&quot;==document.visibilityState?e.forEach(function(t){t.reset()}):e.forEach(function(t){t.init()})})}();</script></g></svg>
