<svg id="nc_icon" xmlns="http://www.w3.org/2000/svg" xml:space="preserve" viewBox="0 0 24 24"><g fill="currentColor" class="nc-icon-wrapper"><path d="M19.892 7.08C19.184 2.989 15.712 0 11.5 0 7.277 0 3.634 3.239 3.067 7.353 1.253 8.099 0 9.946 0 12c0 2.757 2.243 5 5 5h.181c.116-.33.284-.644.515-.921l4.999-5.999a2.999 2.999 0 0 1 3.841-.657 2.987 2.987 0 0 1 1.25 3.69l-.355.887H16c1.159 0 2.225.678 2.717 1.727.19.405.28.84.279 1.273H19c2.757 0 5-2.243 5-5a5.007 5.007 0 0 0-4.108-4.92z"/><path d="M16.906 16.576A1.002 1.002 0 0 0 16 16h-3.523l1.452-3.628a1 1 0 0 0-1.697-1.011l-5 6A1 1 0 0 0 8 19h3.523l-1.452 3.628A.998.998 0 0 0 11 24a1 1 0 0 0 .769-.36l5-6c.248-.298.301-.713.137-1.064z" data-color="color-2"/></g></svg>
