<svg id="nc_icon" xmlns="http://www.w3.org/2000/svg" xml:space="preserve" viewBox="0 0 24 24"><g fill="currentColor" class="nc-icon-wrapper"><path d="m11.52 8.807-1.895-.639A11.991 11.991 0 0 1 21 0v2a9.993 9.993 0 0 0-9.48 6.807z" data-color="color-2"/><path d="m15.018 11.531-1.994-.153C13.343 7.241 16.846 4 21 4v2c-3.115 0-5.743 2.43-5.982 5.531zM19 12h-2c0-2.206 1.794-4 4-4v2c-1.103 0-2 .897-2 2z" data-color="color-2"/><path d="M18 11c-.949 0-1.885.235-2.729.675A8.003 8.003 0 0 0 8 7c-4.411 0-8 3.589-8 8s3.589 8 8 8h10c3.309 0 6-2.691 6-6s-2.691-6-6-6z"/></g></svg>
