<svg id="nc_icon" xmlns="http://www.w3.org/2000/svg" xml:space="preserve" viewBox="0 0 24 24"><g fill="currentColor" class="nc-icon-wrapper"><path d="M19.561 12.213A5.968 5.968 0 0 0 20 10c0-3.309-2.691-6-6-6a5.992 5.992 0 0 0-5.655 4.025C8.229 8.02 8.117 8 8 8c-4.411 0-8 3.589-8 8s3.589 8 8 8h10c3.309 0 6-2.691 6-6 0-2.768-1.886-5.097-4.439-5.787zM14 6c2.206 0 4 1.794 4 4 0 .728-.202 1.42-.568 2.035a5.925 5.925 0 0 0-2.161.64 8.011 8.011 0 0 0-4.907-4.312A3.99 3.99 0 0 1 14 6z"/><path d="M13 0h2v3h-2zM6.222 3.636l1.415-1.414 2.12 2.121-1.413 1.414zM20.363 2.222l1.414 1.414-2.12 2.121-1.415-1.414zM24 9v2h-3V9z" data-color="color-2"/></g></svg>
