<svg id="nc_icon" xmlns="http://www.w3.org/2000/svg" xml:space="preserve" viewBox="0 0 24 24"><g fill="currentColor" class="nc-icon-wrapper"><path d="M12 24c-.6 0-1-.4-1-1v-3c0-.6.4-1 1-1s1 .4 1 1v3c0 .6-.4 1-1 1z" data-color="color-2"/><path d="M19.9 7.1C19.2 3 15.7 0 11.5 0S3.6 3.2 3.1 7.4C1.3 8.1 0 9.9 0 12c0 2.8 2.2 5 5 5h2v-3c0-.6.4-1 1-1s1 .4 1 1v3h6v-3c0-.6.4-1 1-1s1 .4 1 1v3h2c2.8 0 5-2.2 5-5 0-2.5-1.8-4.5-4.1-4.9z"/><path d="M7 17v3c0 .6.4 1 1 1s1-.4 1-1v-3H7zM15 17v3c0 .6.4 1 1 1s1-.4 1-1v-3h-2z" data-color="color-2"/></g></svg>
