<svg id="nc_icon" xmlns="http://www.w3.org/2000/svg" xml:space="preserve" viewBox="0 0 24 24"><path fill="currentColor" d="M23 9c0-1.656-1.688-2.781-3.537-2.357l-3.078.972.972-3.078C17.781 2.687 16.657 1 15 1c-1.781 0-3 1-3 1s-1.219-1-3-1C7.344 1 6.219 2.688 6.643 4.537l.972 3.078-3.078-.972C2.687 6.219 1 7.343 1 9c0 1.781 1 3 1 3s-1 1.219-1 3c0 1.656 1.688 2.781 3.537 2.357l3.078-.972-.972 3.078C6.219 21.313 7.343 23 9 23c1.781 0 3-1 3-1s1.219 1 3 1c1.656 0 2.781-1.688 2.357-3.537l-.972-3.078 3.078.972c1.85.424 3.537-.7 3.537-2.357 0-1.781-1-3-1-3s1-1.219 1-3z" class="nc-icon-wrapper"/></svg>
