<svg id="nc_icon" xmlns="http://www.w3.org/2000/svg" xml:space="preserve" viewBox="0 0 24 24"><g fill="currentColor" class="nc-icon-wrapper"><path d="M22.625.584a2.984 2.984 0 0 0-2.866-.209l-5.19 2.359A4.947 4.947 0 0 0 12 2c-.943 0-1.816.278-2.57.733L4.241.375a2.986 2.986 0 0 0-2.866.209A2.99 2.99 0 0 0 0 3.106v7.788a2.99 2.99 0 0 0 1.375 2.522 2.991 2.991 0 0 0 2.866.209l5.19-2.359A4.947 4.947 0 0 0 12 12c.943 0 1.816-.278 2.57-.733l5.189 2.358a2.991 2.991 0 0 0 2.866-.21A2.99 2.99 0 0 0 24 10.895V3.106A2.99 2.99 0 0 0 22.625.584z"/><path d="M14.607 13.48A6.877 6.877 0 0 1 12 14a6.88 6.88 0 0 1-2.607-.52L7 14.568v9.05l5-2.5 5 2.5v-9.05l-2.393-1.088z" data-color="color-2"/></g></svg>
