<svg id="nc_icon" xmlns="http://www.w3.org/2000/svg" xml:space="preserve" viewBox="0 0 24 24"><g fill="currentColor" class="nc-icon-wrapper"><path d="M17 16c-2.951 0-5.403-.639-7-1.712V16c0 1.657 3.134 3 7 3s7-1.343 7-3v-1.712C22.403 15.361 19.951 16 17 16zM17 21c-2.951 0-5.403-.639-7-1.712V21c0 1.657 3.134 3 7 3s7-1.343 7-3v-1.712C22.403 20.361 19.951 21 17 21z"/><ellipse cx="17" cy="11" rx="7" ry="3"/><ellipse cx="7" cy="3" data-color="color-2" rx="7" ry="3"/><path d="M8 17.973c-.327.016-.659.027-1 .027-2.951 0-5.403-.639-7-1.712V18c0 1.657 3.134 3 7 3 .34 0 .673-.014 1-.034v-2.993zM8 12.973c-.327.016-.659.027-1 .027-2.951 0-5.403-.639-7-1.712V13c0 1.657 3.134 3 7 3 .34 0 .673-.014 1-.034v-2.993zM9.92 7.766A17.81 17.81 0 0 1 7 8c-2.951 0-5.403-.639-7-1.712V8c0 1.657 3.134 3 7 3 .341 0 .674-.014 1.003-.034.012-1.263.707-2.36 1.917-3.2z" data-color="color-2"/></g></svg>
