<svg id="nc_icon" xmlns="http://www.w3.org/2000/svg" xml:space="preserve" viewBox="0 0 24 24"><g fill="currentColor" class="nc-icon-wrapper"><path d="M12 0C5.383 0 0 5.383 0 12s5.383 12 12 12 12-5.383 12-12S18.617 0 12 0zm1 21.949V20h-2v1.949c-4.717-.47-8.479-4.232-8.949-8.949H4v-2H2.051C2.521 6.283 6.283 2.521 11 2.051V4h2V2.051c4.717.471 8.479 4.232 8.949 8.949H20v2h1.949c-.47 4.717-4.232 8.479-8.949 8.949z"/><path d="m9.238 9.238-4.142 9.666 9.666-4.142 4.142-9.666-9.666 4.142zm-.334 5.858 1.858-4.334 2.477 2.477-4.335 1.857z" data-color="color-2"/></g></svg>
