<svg id="nc_icon" xmlns="http://www.w3.org/2000/svg" xml:space="preserve" viewBox="0 0 24 24"><g fill="currentColor" class="nc-icon-wrapper"><path d="M23 15H13v-1a1 1 0 0 0-2 0v1H1v2h10v1a1 1 0 0 0 2 0v-1h10v-2z" data-color="color-2"/><path d="M23 23 15.568 8.771A3.942 3.942 0 0 0 16 7c0-1.858-1.28-3.411-3-3.858V1h-2v2.142c-1.72.447-3 2-3 3.858 0 .639.164 1.235.432 1.771L1 23l5-3 4.762-9.216c.874.287 1.598.288 2.476 0L18 20l5 3zM10 7c0-1.103.897-2 2-2s2 .897 2 2-.897 2-2 2-2-.897-2-2z"/></g></svg>
