<svg id="nc_icon" xmlns="http://www.w3.org/2000/svg" xml:space="preserve" viewBox="0 0 24 24"><path fill="currentColor" d="M20 14c-.457 0-.888.093-1.297.234l-3.714-5.602A3.97 3.97 0 0 0 16 6c0-2.206-1.794-4-4-4S8 3.794 8 6c0 1.012.39 1.927 1.012 2.632l-3.714 5.602A3.969 3.969 0 0 0 4 14c-2.206 0-4 1.794-4 4s1.794 4 4 4c1.859 0 3.411-1.279 3.858-3h8.284c.447 1.721 1.999 3 3.858 3 2.206 0 4-1.794 4-4s-1.794-4-4-4zM6.964 15.339l3.702-5.584c.42.149.864.245 1.334.245s.914-.096 1.333-.246l3.702 5.584a3.977 3.977 0 0 0-.894 1.661H7.858a3.973 3.973 0 0 0-.894-1.66z" class="nc-icon-wrapper"/></svg>
