<svg id="nc_icon" xmlns="http://www.w3.org/2000/svg" xml:space="preserve" viewBox="0 0 24 24"><g fill="currentColor" class="nc-icon-wrapper"><path d="M14 10c0-3.86-3.141-7-7-7s-7 3.14-7 7c0 3.519 2.614 6.432 6 6.92V19H4v2h2v2h2v-2h2v-2H8v-2.08c3.386-.488 6-3.401 6-6.92zM2 10c0-2.757 2.243-5 5-5s5 2.243 5 5-2.243 5-5 5-5-2.243-5-5z" data-color="color-2"/><path d="M23.707 1.707 22.293.293 20.5 2.086 19 .586 17.586 2l1.5 1.5-.902.902A6.953 6.953 0 0 0 14 3c-3.859 0-7 3.14-7 7 0 3.859 3.141 7 7 7s7-3.141 7-7c0-1.57-.526-3.016-1.402-4.185l.902-.901 1.5 1.5L23.414 5l-1.5-1.5 1.793-1.793zM14 15c-2.757 0-5-2.243-5-5s2.243-5 5-5 5 2.243 5 5-2.243 5-5 5z"/></g></svg>
