<svg id="nc_icon" xmlns="http://www.w3.org/2000/svg" xml:space="preserve" viewBox="0 0 24 24"><path fill="currentColor" d="M14.584 4.487c-1.285 0-2.336.383-3.151 1.148s-1.36 1.923-1.634 3.473h6.234v2.105H9.594c-.035.779-.049.941 0 1.9h5.578v2.092H9.826c.583 2.844 2.242 4.266 4.977 4.266 1.303 0 2.639-.282 4.006-.848v2.775c-2.564 1.194-6.906 1.323-9.522-.971-1.372-1.203-2.268-2.944-2.687-5.223H4.521v-2.092H6.38c-.029-.53-.045-.423 0-1.9H4.521V9.108h2.051c.346-2.288 1.217-4.083 2.611-5.387 1.395-1.303 3.194-1.955 5.4-1.955 1.822 0 3.454.401 4.895 1.203L18.33 5.526c-1.404-.692-2.652-1.039-3.746-1.039z" class="nc-icon-wrapper"/></svg>
