<svg id="nc_icon" xmlns="http://www.w3.org/2000/svg" xml:space="preserve" viewBox="0 0 24 24"><path fill="currentColor" d="M13.354 1.876c1.768 0 3.477.374 5.127 1.121l-1.039 2.488c-1.477-.647-2.771-.971-3.883-.971-1.869 0-2.803.998-2.803 2.994v3.336h5.428v2.352h-5.428v2.488c0 1.806-.655 2.855-1.996 3.609h10.336v2.83H4.904v-2.666c.893-.273 1.554-.711 1.982-1.312.779-1.094.643-2.304.643-4.949h-2.57v-2.352h2.57v-3.5c0-1.713.517-3.053 1.552-4.02 1.034-.965 2.459-1.448 4.273-1.448z" class="nc-icon-wrapper"/></svg>
