<svg id="nc_icon" xmlns="http://www.w3.org/2000/svg" xml:space="preserve" viewBox="0 0 24 24"><path fill="currentColor" d="M17.51 13.1c-1.112-1.234-3.358-2.015-4.635-2.502V5.621c1.413.109 2.834.447 4.266 1.012l.998-2.502a15.062 15.062 0 0 0-5.264-1.121V.754h-1.818v2.297c-1.678.173-3.006.665-3.986 1.476-.98.812-1.47 1.846-1.47 3.104 0 1.176.344 2.163 1.032 2.96 1.215 1.409 3.309 2.07 4.423 2.481v5.113c-1.7-.018-4.026-.616-5.564-1.367v2.885c1.449.656 3.304 1.003 5.564 1.039v2.885h1.818V20.66c1.823-.2 3.217-.729 4.184-1.586.966-.856 1.449-1.946 1.449-3.268.001-1.066-.332-1.968-.997-2.706zm-6.453-3.172c-.848-.337-1.434-.679-1.757-1.026-.324-.346-.486-.779-.486-1.298 0-.501.191-.92.574-1.258.383-.337.938-.561 1.668-.67v4.252zm1.818 8.148v-4.361c.866.319 1.483.649 1.853.991s.554.777.554 1.306c-.001 1.13-.803 1.818-2.407 2.064z" class="nc-icon-wrapper"/></svg>
