<svg id="nc_icon" xmlns="http://www.w3.org/2000/svg" viewBox="0 0 24 24"><g fill="currentColor" class="nc-icon-wrapper"><path d="M14.952 17.366 20 22.414 21.414 21 16.8 16.39a12.836 12.836 0 0 1-1.848.976Z" data-color="color-2"/><path d="M22.98 2.8a1 1 0 0 0-1.687-.511L12 11.586 10.414 10l1.293-1.293a1 1 0 0 0 0-1.414L6 1.586 4.586 3l5 5L9 8.586l-5-5L2.586 5l5 5-.586.586-5-5L.586 7l5.707 5.707a1 1 0 0 0 1.414 0L9 11.414 10.586 13l-8.293 8.293 1.414 1.414 6.555-6.555c1.738.16 4.483.1 8.738-4.152 4.329-4.328 4.026-8.971 3.98-9.2Z"/></g></svg>
