<svg id="nc_icon" xmlns="http://www.w3.org/2000/svg" xml:space="preserve" viewBox="0 0 24 24"><path fill="currentColor" d="M23.707 1.707 22.293.293l-5.269 5.27a2.996 2.996 0 0 0-3.406.576c-.753.754-3.156 5.029-4.178 6.874l-6.804 1.173a3.058 3.058 0 0 0-2.488 2.33 3.057 3.057 0 0 0 1.156 3.207l1.7 1.273 1.273 1.7a3.05 3.05 0 0 0 2.46 1.245c.246 0 .496-.029.746-.089a3.057 3.057 0 0 0 2.33-2.488l1.174-6.804c1.845-1.021 6.12-3.425 6.874-4.179.92-.92 1.105-2.29.577-3.404l5.269-5.27z" class="nc-icon-wrapper"/></svg>
