<svg id="nc_icon" xmlns="http://www.w3.org/2000/svg" xml:space="preserve" viewBox="0 0 24 24"><path fill="currentColor" d="M21 15v-2h2.949a11.942 11.942 0 0 0-2.795-6.741L19.07 8.343l-1.414-1.414 2.084-2.084A11.935 11.935 0 0 0 13 2.051V5h-2V2.051C5.181 2.534.534 7.181.051 13H3v2H.044a12.022 12.022 0 0 0 2.7 6.637c.19.23.472.363.771.363h16.971a1 1 0 0 0 .771-.363 12.02 12.02 0 0 0 2.7-6.637H21zm-9 2c-1.654 0-3-1.346-3-3 0-.462.113-.894.301-1.285L5.293 8.707l1.414-1.414 4.008 4.008A2.95 2.95 0 0 1 12 11c1.654 0 3 1.346 3 3s-1.346 3-3 3z" class="nc-icon-wrapper"/></svg>
