<svg id="nc_icon" xmlns="http://www.w3.org/2000/svg" xml:space="preserve" viewBox="0 0 24 24"><path fill="currentColor" d="M24 5V1a1 1 0 0 0-2 0v4c0 .551-.449 1-1 1h-1V3a1 1 0 0 0-2 0v3h-1.12C15.629 5.335 14 5 12 5s-3.628.335-4.88 1H6V3a1 1 0 0 0-2 0v3H3c-.551 0-1-.449-1-1V1a1 1 0 0 0-2 0v4c0 1.654 1.346 3 3 3h1.978c-.19.31-.358.641-.492 1H1a1 1 0 0 0-1 1c0 2.075 1.614 4 4.145 4C4.78 18.627 7.517 24 12 24s7.22-5.373 7.855-10C22.402 14 24 12.06 24 10a1 1 0 0 0-1-1h-3.486a5.836 5.836 0 0 0-.492-1H21c1.654 0 3-1.346 3-3zM8 12a1 1 0 1 1 2 0 1 1 0 0 1-2 0zm4 9a3 3 0 1 1 0-6 3 3 0 0 1 0 6zm3-8a1 1 0 1 1 0-2 1 1 0 0 1 0 2z" class="nc-icon-wrapper"/></svg>
