<svg id="nc_icon" xmlns="http://www.w3.org/2000/svg" xml:space="preserve" viewBox="0 0 24 24"><g fill="currentColor" class="nc-icon-wrapper"><path d="m23.447 12.105-3.589-1.794-.888-3.553A1 1 0 0 0 18 6h-4a8 8 0 0 1-8 8 7.972 7.972 0 0 1-6-2.721V19a1 1 0 0 0 1 1h10.051c.252 2.244 2.139 4 4.449 4s4.197-1.756 4.449-4H23a1 1 0 0 0 1-1v-6c0-.379-.214-.725-.553-.895zM15.5 22c-1.379 0-2.5-1.121-2.5-2.5s1.121-2.5 2.5-2.5 2.5 1.121 2.5 2.5-1.121 2.5-2.5 2.5z"/><path d="M6 12A6 6 0 1 0 6 0a6 6 0 0 0 0 12zM5 2h2v3h3v2H5V2z" data-color="color-2"/></g></svg>
