<svg id="nc_icon" xmlns="http://www.w3.org/2000/svg" xml:space="preserve" viewBox="0 0 24 24"><g fill="currentColor" class="nc-icon-wrapper"><path d="m22.707 6.293-5-5a.999.999 0 0 0-1.414 0l-2.291 2.291 2.706 2.71-1.415 1.413-2.705-2.709-1.586 1.586 1.709 1.709-1.414 1.414-1.709-1.709-1.586 1.586 2.709 2.709-1.414 1.414-2.709-2.709-1.586 1.586 1.709 1.709-1.414 1.414-1.709-1.709-2.295 2.295a.999.999 0 0 0 0 1.414l5 5a.997.997 0 0 0 1.414 0l15-15a.999.999 0 0 0 0-1.414z"/><path d="m4.672 10.086 5.414-5.414-3.379-3.379a.999.999 0 0 0-1.414 0l-4 4a.999.999 0 0 0 0 1.414l3.379 3.379zM21.98 16.804a1.01 1.01 0 0 0-.273-.511l-2.379-2.379-5.414 5.414 2.379 2.379c.14.14.317.235.511.273l5 1a1 1 0 0 0 1.176-1.176l-1-5z" data-color="color-2"/></g></svg>
