<svg id="nc_icon" xmlns="http://www.w3.org/2000/svg" viewBox="0 0 24 24"><g fill="currentColor" class="nc-icon-wrapper"><path d="M11 22H2V8h20v3h2V3a1 1 0 0 0-1-1h-4V0h-2v2h-4V0h-2v2H7V0H5v2H1a1 1 0 0 0-1 1v20a1 1 0 0 0 1 1h10Z"/><path d="m17.609 15.128-.609.163-.609-.163c-2.66-.711-5.084 1.657-4.209 4.113l1.248 3.5a2 2 0 0 0 2.486 1.159L17 23.567l1.084.338a2 2 0 0 0 2.487-1.163l1.247-3.5c.875-2.457-1.549-4.825-4.209-4.114ZM17 14a3 3 0 0 0 3-3v-1a3 3 0 0 0-3 3Z" data-color="color-2"/></g></svg>
