<svg id="nc_icon" xmlns="http://www.w3.org/2000/svg" xml:space="preserve" viewBox="0 0 24 24"><g fill="currentColor" class="nc-icon-wrapper"><path d="m21.895 21.553-3-6A1.001 1.001 0 0 0 18 15h-6v-3h4a1 1 0 1 0 0-2h-4V7.858c1.721-.447 3-1.999 3-3.858 0-2.206-1.794-4-4-4S7 1.794 7 4c0 1.859 1.279 3.411 3 3.858V16a1 1 0 0 0 1 1h6.382l2.724 5.447a.998.998 0 0 0 1.341.448c.494-.248.695-.848.448-1.342z"/><path d="M8 22c-2.206 0-4-1.794-4-4s1.794-4 4-4v-2c-3.309 0-6 2.691-6 6s2.691 6 6 6a6.017 6.017 0 0 0 5.88-4.801l-1.959-.398A4.013 4.013 0 0 1 8 22z" data-color="color-2"/></g></svg>
