<svg id="nc_icon" xmlns="http://www.w3.org/2000/svg" xml:space="preserve" viewBox="0 0 24 24"><g fill="currentColor" class="nc-icon-wrapper"><path d="M7.5 9C5.019 9 3 6.981 3 4.5S5.019 0 7.5 0 12 2.019 12 4.5 9.981 9 7.5 9zm0-7C6.121 2 5 3.122 5 4.5S6.121 7 7.5 7 10 5.878 10 4.5 8.879 2 7.5 2zM16.5 24c-2.481 0-4.5-2.019-4.5-4.5s2.019-4.5 4.5-4.5 4.5 2.019 4.5 4.5-2.019 4.5-4.5 4.5zm0-7c-1.379 0-2.5 1.122-2.5 2.5s1.121 2.5 2.5 2.5 2.5-1.122 2.5-2.5-1.121-2.5-2.5-2.5z"/><path d="M3 23a1 1 0 0 1-.743-1.669l18-20a1 1 0 0 1 1.486 1.338l-18 20A.998.998 0 0 1 3 23z" data-color="color-2"/></g></svg>
