<svg id="nc_icon" xmlns="http://www.w3.org/2000/svg" xml:space="preserve" viewBox="0 0 24 24"><path fill="currentColor" d="M23.707 11.293 21 8.586V4a1 1 0 0 0-1-1h-4.586L12.707.293a.999.999 0 0 0-1.414 0L8.586 3H4a1 1 0 0 0-1 1v4.586L.293 11.293a.999.999 0 0 0 0 1.414L3 15.414V20a1 1 0 0 0 1 1h4.586l2.707 2.707a.997.997 0 0 0 1.414 0L15.414 21H20a1 1 0 0 0 1-1v-4.586l2.707-2.707a.999.999 0 0 0 0-1.414zM8.5 7a1.5 1.5 0 1 1-.001 3.001A1.5 1.5 0 0 1 8.5 7zm7 10a1.5 1.5 0 1 1 .001-3.001A1.5 1.5 0 0 1 15.5 17zm-7.5.414L6.586 16 16 6.586 17.414 8 8 17.414z" class="nc-icon-wrapper"/></svg>
