<svg id="nc_icon" xmlns="http://www.w3.org/2000/svg" xml:space="preserve" viewBox="0 0 24 24"><path fill="currentColor" d="M18 0c-.6 0-1 .4-1 1v1H7V1c0-.6-.4-1-1-1S5 .4 5 1v3c0 3.6 2.6 5.9 5.3 8C7.6 14.1 5 16.4 5 20v3c0 .6.4 1 1 1s1-.4 1-1v-1h10v1c0 .6.4 1 1 1s1-.4 1-1v-3c0-3.6-2.6-5.9-5.3-8C16.4 9.9 19 7.6 19 4V1c0-.6-.4-1-1-1zm-1 4c0 .7-.2 1.4-.4 2H7.4C7.2 5.4 7 4.7 7 4h10zM7 20c0-.7.2-1.4.4-2h9.1c.3.6.4 1.3.4 2H7zm8.2-4H8.8c.9-1 2-1.9 3.2-2.7 1.2.8 2.3 1.7 3.2 2.7zM12 10.7C10.8 9.9 9.7 9 8.8 8h6.4c-.9 1-2 1.9-3.2 2.7z" class="nc-icon-wrapper"/></svg>
