<svg id="nc_icon" xmlns="http://www.w3.org/2000/svg" xml:space="preserve" viewBox="0 0 24 24"><g fill="currentColor" class="nc-icon-wrapper"><path d="M5 3h2.5l1.3 1.6c.2.3.5.4.8.4.2 0 .4-.1.6-.2.4-.3.5-1 .2-1.4l-1.6-2C8.6 1.1 8.3 1 8 1H5c-.6 0-1 .4-1 1s.4 1 1 1z" data-color="color-2"/><path d="M19 21h-2.5l-1.3-1.6c-.3-.4-1-.5-1.4-.2-.4.3-.5 1-.2 1.4l1.6 2c.2.2.5.4.8.4h3c.6 0 1-.4 1-1s-.4-1-1-1z"/><path d="M19 11h-2.5l-1.3-1.6c-.3-.4-1-.5-1.4-.2-.4.3-.5 1-.2 1.4l1.1 1.4-7.2 9H5c-.6 0-1 .4-1 1s.4 1 1 1h3c.3 0 .6-.1.8-.4l7.7-9.6H19c.6 0 1-.4 1-1s-.4-1-1-1z" data-color="color-2"/><path d="M5 13h2.5l1.3 1.6c.2.3.5.4.8.4.2 0 .4-.1.6-.2.4-.3.5-1 .2-1.4L9.3 12l7.2-9H19c.6 0 1-.4 1-1s-.4-1-1-1h-3c-.3 0-.6.1-.8.4L7.5 11H5c-.6 0-1 .4-1 1s.4 1 1 1z"/></g></svg>
