<svg id="nc_icon" xmlns="http://www.w3.org/2000/svg" xml:space="preserve" viewBox="0 0 24 24"><path fill="currentColor" d="M24 14c0-2.2-1.8-4-4-4s-4 1.8-4 4c0 1.9 1.3 3.4 3 3.9V22H9v-5h2.3c1.5 0 2.8-1.1 3-2.6l1.6-11.1c.1-.6-.1-1.2-.5-1.6-.4-.4-1-.7-1.6-.7H12c0-.6-.4-1-1-1s-1 .4-1 1v2c0 .6.4 1 1 1s1-.4 1-1h1.8l-1.6 11.1c-.1.5-.5.9-1 .9H4.7c-.5 0-.9-.4-1-.9L2.2 3H4c0 .6.4 1 1 1s1-.4 1-1V1c0-.6-.4-1-1-1S4 .4 4 1H2.2c-.6 0-1.2.3-1.6.7-.4.4-.6 1-.5 1.6l1.6 11.1c.3 1.5 1.6 2.6 3 2.6H7v6c0 .6.4 1 1 1h12c.6 0 1-.4 1-1v-5.1c1.7-.5 3-2 3-3.9z" class="nc-icon-wrapper"/></svg>
