<svg id="nc_icon" xmlns="http://www.w3.org/2000/svg" xml:space="preserve" viewBox="0 0 24 24"><g fill="currentColor" class="nc-icon-wrapper"><path d="M23 0c-3.001 0-5.797 1.526-7.46 4H8.46C6.798 1.526 4.002 0 1 0a1 1 0 0 0-1 1v6c0 1.728.727 3.324 2 4.462V18a4.995 4.995 0 0 0 3 4.58V24h3c1.641 0 3.088-.806 4-2.03.912 1.224 2.359 2.03 4 2.03h3v-1.42A4.997 4.997 0 0 0 22 18v-6.538A5.943 5.943 0 0 0 24 7V1a1 1 0 0 0-1-1zM8 22H7v-4c0-1.103.897-2 2-2h.039l.012.03 1.234 2.056c.18.299.427.537.715.703V19c0 1.654-1.346 3-3 3zm9 0h-1c-1.654 0-3-1.346-3-3v-.211c.288-.167.536-.404.715-.703l1.234-2.057c.005-.01.007-.02.012-.029H15c1.103 0 2 .897 2 2v4zm3-4a2.97 2.97 0 0 1-1 2.216V18c0-2.206-1.794-4-4-4h-.037a1.975 1.975 0 0 0-1.73-1h-2.467c-.724 0-1.367.374-1.73 1H9c-2.206 0-4 1.794-4 4v2.216A2.97 2.97 0 0 1 4 18v-8c0-2.206 1.794-4 4-4h8c2.206 0 4 1.794 4 4v8z"/><circle cx="7.5" cy="10.5" r="1.5" data-color="color-2"/><circle cx="16.5" cy="10.5" r="1.5" data-color="color-2"/></g></svg>
