<svg id="nc_icon" xmlns="http://www.w3.org/2000/svg" viewBox="0 0 24 24"><path fill="currentColor" d="M12 0C5.383 0 0 5.383 0 12s5.383 12 12 12 12-5.383 12-12S18.617 0 12 0zm8 10a1 1 0 1 1 0 2 1 1 0 0 1 0-2zm-2-6a1 1 0 1 1 0 2 1 1 0 0 1 0-2zm-6 1a1 1 0 1 1 0 2 1 1 0 0 1 0-2zm0 4c1.654 0 3 1.346 3 3s-1.346 3-3 3-3-1.346-3-3 1.346-3 3-3zM7 4a1 1 0 1 1 0 2 1 1 0 0 1 0-2zM4 8a1 1 0 1 1 0 2 1 1 0 0 1 0-2zm8 14c-4.84 0-8.886-3.457-9.803-8.031.711.29 1.471.437 2.237.437.982 0 1.965-.262 2.874-.738C7.998 15.603 9.831 17 12 17c1.936 0 3.6-1.118 4.43-2.732.963 1.059 2.31 2.017 4.362 2.493C19.097 19.879 15.792 22 12 22z" class="nc-icon-wrapper"/></svg>
