<svg id="nc_icon" xmlns="http://www.w3.org/2000/svg" xml:space="preserve" viewBox="0 0 24 24"><g fill="currentColor" class="nc-icon-wrapper"><path d="M22.7 1.3c-.4-.4-1-.4-1.4 0l-11 11c-.4.4-.4 1 0 1.4.2.2.5.3.7.3s.5-.1.7-.3l11-11c.4-.4.4-1 0-1.4z"/><path d="M20.2 9c-.5.2-.8.7-.7 1.3.3.9.4 1.8.4 2.7 0 5-4 9-9 9s-9-4-9-9 4-9 9-9c.9 0 1.8.1 2.7.4.5.2 1.1-.1 1.3-.7.2-.5-.1-1.1-.7-1.3-1-.2-2.1-.4-3.2-.4C4.9 2 0 6.9 0 13s4.9 11 11 11 11-4.9 11-11c0-1.1-.2-2.2-.5-3.3-.2-.5-.7-.8-1.3-.7z" data-color="color-2"/></g></svg>
