<svg id="nc_icon" xmlns="http://www.w3.org/2000/svg" xml:space="preserve" viewBox="0 0 24 24"><g fill="currentColor" class="nc-icon-wrapper"><path d="M4 9h2v2h2V9h2V7H8V5H6v2H4z" data-color="color-2"/><path d="M23.971 1.857c-.011-.073-.016-.145-.044-.215-.027-.07-.071-.128-.113-.189-.027-.041-.041-.088-.075-.125-.005-.006-.013-.008-.019-.014-.053-.056-.12-.094-.185-.136-.045-.029-.084-.067-.131-.089-.05-.022-.107-.026-.162-.04-.073-.018-.144-.042-.219-.044-.008 0-.015-.005-.023-.005H1a1 1 0 0 0-1 1v20c0 .051.022.094.029.143.011.073.016.145.044.215.027.07.071.128.113.189.027.041.041.088.075.125.005.006.013.008.018.013.078.082.173.145.275.197.019.01.033.027.053.036A.99.99 0 0 0 1 23h22a1 1 0 0 0 1-1V2c0-.051-.022-.094-.029-.143zM2 3h18.413L2 19.74V3zm18 14h-6v-2h6v2z"/></g></svg>
