<svg id="nc_icon" xmlns="http://www.w3.org/2000/svg" xml:space="preserve" viewBox="0 0 24 24"><g fill="currentColor" class="nc-icon-wrapper"><path d="M12 15c5.331 0 8.688-.95 8.722-.96l.245-.071a21.723 21.723 0 0 0-.332-2.983C20.01 11.186 17.142 12 12 12c-5.138 0-8.01-.813-8.638-1.013-.174.95-.284 1.947-.33 2.982l.246.07c.034.01 3.39.961 8.722.961z" data-color="color-2"/><path d="M12 17c-4.697 0-7.897-.69-8.923-.946C3.671 20.417 7.903 23 12 23s8.329-2.583 8.923-6.946C19.897 16.31 16.697 17 12 17zM3.895 9.057C3.945 9.075 6.682 10 12 10c5.343 0 8.074-.934 8.1-.943l.066-.023C18.738 4.201 15.617 1 12 1 8.353 1 5.246 4.2 3.827 9.033l.068.024z"/></g></svg>
