<svg id="nc_icon" xmlns="http://www.w3.org/2000/svg" xml:space="preserve" viewBox="0 0 24 24"><g fill="currentColor" class="nc-icon-wrapper"><path d="M21 4h-5V1l-5 4 5 4V6h4v4h2V5a1 1 0 0 0-1-1zM8 18H4v-4H2v5a1 1 0 0 0 1 1h5v3l5-4-5-4v3z" data-color="color-2"/><circle cx="5" cy="3" r="3"/><path d="M10 11H0V9.916c0-.654.315-1.265.851-1.639C1.67 7.705 3.071 7 5 7s3.33.705 4.149 1.277c.536.375.851.986.851 1.639V11z"/><circle cx="19" cy="16" r="3"/><path d="M24 24H14v-1.084c0-.654.315-1.265.851-1.639C15.67 20.705 17.071 20 19 20s3.33.705 4.149 1.277c.536.375.851.986.851 1.639V24z"/></g></svg>
