<svg id="nc_icon" xmlns="http://www.w3.org/2000/svg" xml:space="preserve" viewBox="0 0 24 24"><path fill="currentColor" d="m20.43 18.984 2.813-2.813-.707-.707a5.009 5.009 0 0 0-6.293-.635L13.414 12l9.293-9.293a1 1 0 1 0-1.414-1.414L12 10.586 2.707 1.293a1 1 0 1 0-1.414 1.414L10.586 12l-2.829 2.829a5.009 5.009 0 0 0-6.293.635l-.707.707 2.813 2.813-2.282 2.314a1 1 0 0 0 1.424 1.404l2.272-2.304 2.845 2.845.707-.707a5.009 5.009 0 0 0 .635-6.293L12 13.414l2.829 2.829a5.009 5.009 0 0 0 .635 6.293l.707.707 2.845-2.845 2.272 2.304a.997.997 0 0 0 1.414.01 1 1 0 0 0 .01-1.414l-2.282-2.314z" class="nc-icon-wrapper"/></svg>
