<svg id="nc_icon" xmlns="http://www.w3.org/2000/svg" xml:space="preserve" viewBox="0 0 24 24"><path fill="currentColor" d="M24 17V7l-5.3 4H17c-.1-1.3-.4-2.6-.9-3.8-.2-.5-.8-.7-1.3-.5-.6.2-.8.8-.6 1.3.4 1 .7 1.9.8 3h-2c-.2-2-.8-3.9-1.9-5.5-.3-.5-1-.6-1.4-.3-.5.3-.6.9-.3 1.4.9 1.3 1.4 2.9 1.5 4.4h-2c-.1-1.6-.5-3.2-1.3-4.6-.1-.2-.3-.4-.6-.5-.2 0-.5 0-.7.1-3.3 1.8-5.1 5.4-5.2 5.6-.1.3-.1.6 0 .9.1.1 1.9 3.7 5.1 5.5.1.1.3.1.5.1H7c.3-.1.5-.3.6-.5.7-1.4 1.2-3 1.3-4.6h2c-.2 1.6-.7 3.1-1.5 4.4-.3.5-.2 1.1.3 1.4.1.1.3.2.5.2.3 0 .6-.2.8-.5 1.1-1.7 1.7-3.6 1.9-5.5h2c-.1 1-.4 2-.8 3-.2.5 0 1.1.5 1.3.1.1.3.1.4.1.4 0 .8-.2.9-.6.5-1.2.8-2.5.9-3.8h1.7l5.5 4z" class="nc-icon-wrapper"/></svg>
