<svg id="nc_icon" xmlns="http://www.w3.org/2000/svg" xml:space="preserve" viewBox="0 0 24 24"><g fill="currentColor" class="nc-icon-wrapper"><path d="M19.897 9.558A.999.999 0 0 0 19 9h-7.883l.876-7.89a1 1 0 0 0-1.787-.721l-10 13A1 1 0 0 0 1 15h7.883l-.876 7.89a1 1 0 0 0 1.786.72l10-13c.232-.302.272-.71.104-1.052z"/><path d="M19.5 15c-2.481 0-4.5 2.019-4.5 4.5s2.019 4.5 4.5 4.5 4.5-2.019 4.5-4.5-2.019-4.5-4.5-4.5zm2.5 4.5c0 .321-.066.626-.177.909l-3.232-3.232c.283-.111.588-.177.909-.177 1.379 0 2.5 1.122 2.5 2.5zm-5 0c0-.321.066-.627.177-.909l3.232 3.232A2.481 2.481 0 0 1 19.5 22a2.503 2.503 0 0 1-2.5-2.5z" data-color="color-2"/></g></svg>
