<svg id="nc_icon" xmlns="http://www.w3.org/2000/svg" xml:space="preserve" viewBox="0 0 24 24"><g fill="currentColor" class="nc-icon-wrapper"><path d="M6 1 1 7h4v10c0 3.309 2.691 6 6 6v-2c-2.206 0-4-1.794-4-4V7h4L6 1z" data-color="color-2"/><path d="M10.914 9.781a4.508 4.508 0 0 0 .884 6.317l10.614 7.71A.999.999 0 0 0 24 23v-8.447a1 1 0 0 0-.396-.797L17.22 8.914a4.506 4.506 0 0 0-6.305.867zm5.24.724 1.196.906c-.089.484-.324 1.4-1.017 2.326a5.579 5.579 0 0 1-2.002 1.66l-1.196-.907a2.5 2.5 0 0 1 3.02-3.985z"/></g></svg>
