<svg id="nc_icon" xmlns="http://www.w3.org/2000/svg" xml:space="preserve" viewBox="0 0 24 24"><g fill="currentColor" class="nc-icon-wrapper"><path d="m23 6-6-5v4H7c-3.309 0-6 2.691-6 6h2c0-2.206 1.794-4 4-4h10v4l6-5z" data-color="color-2"/><path d="M14.219 10.914a4.508 4.508 0 0 0-6.317.884L.192 22.412A.999.999 0 0 0 1 24h8.447a1 1 0 0 0 .797-.396l4.842-6.385a4.506 4.506 0 0 0-.867-6.305zm-.724 5.241-.906 1.196a5.577 5.577 0 0 1-2.326-1.018 5.579 5.579 0 0 1-1.66-2.002l.907-1.196a2.5 2.5 0 0 1 3.985 3.02z"/></g></svg>
