<svg id="nc_icon" xmlns="http://www.w3.org/2000/svg" xml:space="preserve" viewBox="0 0 24 24"><path fill="currentColor" d="M23 4H12.5L9.8.4A1 1 0 0 0 9 0H1a1 1 0 0 0-1 1v22a1 1 0 0 0 1 1h22a1 1 0 0 0 1-1V5a1 1 0 0 0-1-1zm-10.758 9.03c1.497.374 3.758.939 3.758 3.47 0 1.758-1.308 3.204-3 3.449V22h-2v-2.051c-1.692-.245-3-1.691-3-3.449h2c0 .827.673 1.5 1.5 1.5h1c.827 0 1.5-.673 1.5-1.5 0-.842-.505-1.096-2.242-1.53C10.261 14.596 8 14.031 8 11.5c0-1.758 1.308-3.204 3-3.449V6h2v2.051c1.692.245 3 1.691 3 3.449h-2c0-.827-.673-1.5-1.5-1.5h-1c-.827 0-1.5.673-1.5 1.5 0 .842.505 1.096 2.242 1.53z" class="nc-icon-wrapper"/></svg>
