<svg id="nc_icon" xmlns="http://www.w3.org/2000/svg" xml:space="preserve" viewBox="0 0 24 24"><path fill="currentColor" d="M23 4H12.5L9.8.4A1 1 0 0 0 9 0H1a1 1 0 0 0-1 1v22a1 1 0 0 0 1 1h22a1 1 0 0 0 1-1V5a1 1 0 0 0-1-1zM9.5 8a2.5 2.5 0 1 1 0 5 2.5 2.5 0 0 1 0-5zM14 19H5v-1.164c0-.604.265-1.179.738-1.554C6.461 15.708 7.715 15 9.5 15s3.039.708 3.762 1.282c.473.375.738.95.738 1.554V19zm-.614-6.273c.38-.659.614-1.413.614-2.227s-.234-1.568-.614-2.227A2.475 2.475 0 0 1 14.5 8a2.5 2.5 0 1 1 0 5c-.402 0-.777-.104-1.114-.273zM19 19h-3v-1.164a3.94 3.94 0 0 0-1.195-2.821c1.62.076 2.777.727 3.457 1.267.473.375.738.95.738 1.554V19z" class="nc-icon-wrapper"/></svg>
