<svg id="nc_icon" xmlns="http://www.w3.org/2000/svg" xml:space="preserve" viewBox="0 0 24 24"><g fill="currentColor" class="nc-icon-wrapper"><circle cx="12" cy="14" r="2"/><path d="M23 4H12.5L9.8.4A1 1 0 0 0 9 0H1a1 1 0 0 0-1 1v22a1 1 0 0 0 1 1h22a1 1 0 0 0 1-1V5a1 1 0 0 0-1-1zm-5 11h-2.142a3.915 3.915 0 0 1-.425 1.019l1.516 1.516-1.414 1.414-1.516-1.516a4 4 0 0 1-1.019.425V20h-2v-2.142a3.915 3.915 0 0 1-1.019-.425l-1.516 1.516-1.414-1.414 1.516-1.516A3.915 3.915 0 0 1 8.142 15H6v-2h2.142c.094-.363.238-.704.425-1.019l-1.516-1.516 1.414-1.414 1.516 1.516A4 4 0 0 1 11 10.142V8h2v2.142c.363.094.704.238 1.019.425l1.516-1.516 1.414 1.414-1.516 1.516A4 4 0 0 1 15.858 13H18v2z"/></g></svg>
