<svg id="nc_icon" xmlns="http://www.w3.org/2000/svg" xml:space="preserve" viewBox="0 0 24 24"><path fill="currentColor" d="M23.996 10.91C23.444 4.792 18.175 0 12 0A11.933 11.933 0 0 0 .054 10.91 1 1 0 0 0 1.05 12h4.946c-.011 1.15-.067 2.596-.329 4H0v7h1c2.104 0 4.887-.852 6.203-4.912.01-.029.02-.059.028-.088H11v1c0 2.757 2.243 5 5 5s5-2.243 5-5v-1c0-.608.607-1.228 1.25-1.884C23.07 15.28 24 14.331 24 13l-.004-2.09zM2 20.908V18h3.112C4.45 19.68 3.442 20.625 2 20.908zM7.698 16c.238-1.447.288-2.863.298-4H10c.551 0 1 .449 1 1v3H7.698z" class="nc-icon-wrapper"/></svg>
