<svg id="nc_icon" xmlns="http://www.w3.org/2000/svg" xml:space="preserve" viewBox="0 0 24 24"><g fill="currentColor" class="nc-icon-wrapper"><path d="M23 4h-4.184c.112-.314.184-.648.184-1 0-1.654-1.346-3-3-3-1.974 0-3.238 1.303-4 2.545C11.239 1.303 9.974 0 8 0 6.346 0 5 1.346 5 3c0 .352.072.686.184 1H1a1 1 0 0 0-1 1v2a1 1 0 0 0 1 1h22a1 1 0 0 0 1-1V5a1 1 0 0 0-1-1zm-7-2a1.001 1.001 0 0 1 0 2h-2.531c.47-.917 1.288-2 2.531-2zM7 3c0-.552.449-1 1-1 1.243 0 2.061 1.083 2.531 2H8c-.551 0-1-.448-1-1z" data-color="color-2"/><path d="M11 10H2v13a1 1 0 0 0 1 1h8V10zM22 10h-9v14h8a1 1 0 0 0 1-1V10z"/></g></svg>
