<svg id="nc_icon" xmlns="http://www.w3.org/2000/svg" xml:space="preserve" viewBox="0 0 24 24"><g fill="currentColor" class="nc-icon-wrapper"><path d="M23 4h-4.184c.112-.314.184-.648.184-1 0-1.654-1.346-3-3-3-1.984 0-3.243 1.285-4 2.52C11.243 1.285 9.984 0 8 0 6.346 0 5 1.346 5 3c0 .352.072.686.184 1H1a1 1 0 0 0-1 1v3a1 1 0 0 0 1 1h22a1 1 0 0 0 1-1V5a1 1 0 0 0-1-1zm-7-2a1.001 1.001 0 0 1 0 2h-2.543c.463-.915 1.278-2 2.543-2zM7 3c0-.551.448-1 1-1 1.265 0 2.08 1.085 2.543 2H8c-.552 0-1-.449-1-1zM22 11h-3.586l-13 13h5.172L22 12.586z"/><path d="M10.414 11 2 19.414V23c0 .43.274.79.656.93L15.586 11h-5.172z" data-color="color-2"/><path d="M7.586 11H2v5.586z"/><path d="M13.414 24H21a1 1 0 0 0 1-1v-7.586L13.414 24z" data-color="color-2"/></g></svg>
