<svg id="nc_icon" xmlns="http://www.w3.org/2000/svg" xml:space="preserve" viewBox="0 0 24 24"><g fill="currentColor" class="nc-icon-wrapper"><path d="M23 4h-3.184c.112-.314.184-.648.184-1 0-1.654-1.346-3-3-3-1.984 0-3.243 1.285-4 2.52C12.243 1.285 10.984 0 9 0 7.346 0 6 1.346 6 3c0 .352.072.686.184 1H3a1 1 0 0 0-1 1v2a1 1 0 0 0 1 1h20a1 1 0 0 0 1-1V5a1 1 0 0 0-1-1zm-6-2a1.001 1.001 0 0 1 0 2h-2.543c.463-.915 1.278-2 2.543-2zM8 3c0-.551.448-1 1-1 1.265 0 2.08 1.085 2.543 2H9c-.552 0-1-.449-1-1z" data-color="color-2"/><path d="M22.958 18.713c-.128-.426-.454-1.02-.992-1.546.01-.057.034-.108.034-.167v-6a1 1 0 0 0-1-1H5a1 1 0 0 0-1 1v1H0v8.073l8.55 3.564a4.837 4.837 0 0 0 1.702.297c.478 0 .977-.063 1.486-.193l11.492-4.12-.272-.908zm-11.8 3.117c-.67.167-1.346.144-1.873-.053L2 18.74V14h3c1.33 0 2.487.572 3.178 1.57l.299.43H11c1.304 0 2.416.836 2.83 2H8v2h8v-1c0-.342-.034-.677-.1-1H19c.688 0 1.158.224 1.472.486l-9.314 3.344z"/></g></svg>
