<svg id="nc_icon" xmlns="http://www.w3.org/2000/svg" xml:space="preserve" viewBox="0 0 24 24"><path fill="currentColor" d="M18 3c-.4 0-.8.1-1.1.2C16.5 1.9 15.4 1 14 1c-.5 0-1 .1-1.5.4C12 .6 11.1 0 10 0S8 .6 7.5 1.4C7 1.1 6.5 1 6 1 4.3 1 3 2.3 3 4v19c0 .6.4 1 1 1h16c.6 0 1-.4 1-1V6c0-1.7-1.3-3-3-3zm1 19H8v-4.9l2.1-2.1c.8-.8.8-2 0-2.8-.8-.8-2-.8-2.8 0L5 14.4V4c0-.6.4-1 1-1s1 .4 1 1v5c0 .6.4 1 1 1s1-.4 1-1V3c0-.6.4-1 1-1s1 .4 1 1v6c0 .6.4 1 1 1s1-.4 1-1V4c0-.6.4-1 1-1s1 .4 1 1v5c0 .6.4 1 1 1s1-.4 1-1V6c0-.6.4-1 1-1s1 .4 1 1v16z" class="nc-icon-wrapper"/></svg>
