<svg id="nc_icon" xmlns="http://www.w3.org/2000/svg" xml:space="preserve" viewBox="0 0 24 24"><g fill="currentColor" class="nc-icon-wrapper"><path d="M10 24C4.486 24 0 19.514 0 14S4.486 4 10 4c.375 0 .746.021 1.109.061l.994.109-.219 1.988-.994-.109A8.168 8.168 0 0 0 10 6c-4.411 0-8 3.589-8 8s3.589 8 8 8 8-3.589 8-8c0-.301-.017-.599-.049-.891l-.109-.994 1.988-.219.109.994c.04.365.061.735.061 1.11 0 5.514-4.486 10-10 10z"/><path d="M10 20c-3.309 0-6-2.691-6-6s2.691-6 6-6 6 2.691 6 6-2.691 6-6 6zm0-10c-2.206 0-4 1.794-4 4s1.794 4 4 4 4-1.794 4-4-1.794-4-4-4z"/><path d="m19.27 10.145 4.581-4.582-3-1 1.856-1.856-1.414-1.414-1.856 1.856-1-3-4.581 4.581 1 3.001-4.344 4.344A1.973 1.973 0 0 0 10 12a2 2 0 1 0 2 2c0-.178-.031-.347-.074-.512l4.344-4.344 3 1.001z" data-color="color-2"/></g></svg>
