<svg id="nc_icon" xmlns="http://www.w3.org/2000/svg" xml:space="preserve" viewBox="0 0 24 24"><path fill="currentColor" d="m23.707 3.293-3-3a.999.999 0 0 0-1.414 0l-3 3a.999.999 0 0 0 0 1.414l.793.793-1.656 1.656a6.945 6.945 0 0 0-4.188-1.399 6.954 6.954 0 0 0-4.949 2.05L4.879 9.222l.707.707a.998.998 0 0 1 0 1.414 1.022 1.022 0 0 1-1.414 0l-.707-.708-1.414 1.415C.729 13.373 0 15.13 0 17s.729 3.627 2.051 4.95S5.13 24 7 24s3.627-.728 4.949-2.05l1.416-1.414-.708-.708a1.002 1.002 0 0 1 0-1.415h.001a.999.999 0 0 1 1.413.001l.707.707 1.414-1.414c2.488-2.489 2.7-6.396.651-9.136L18.5 6.914l.793.793a.999.999 0 0 0 1.414 0l3-3a.999.999 0 0 0 0-1.414zM7 19.828 4.172 17l1.414-1.414 2.828 2.828L7 19.828zM12 14a2 2 0 1 1-.001-3.999A2 2 0 0 1 12 14z" class="nc-icon-wrapper"/></svg>
