<svg id="nc_icon" xmlns="http://www.w3.org/2000/svg" xml:space="preserve" viewBox="0 0 24 24"><g fill="currentColor" class="nc-icon-wrapper"><path d="M12.293 11.707a.997.997 0 0 0 1.414 0l2.439-2.439 3.793 3.793 2.121-2.121-3.793-3.793 2.439-2.439a.999.999 0 0 0 0-1.414l-3-3a.999.999 0 0 0-1.414 0l-7 7a.999.999 0 0 0 0 1.414l3.001 2.999z"/><path d="M1 10h4v2H1zM3.515 3.929l1.414-1.415 2.828 2.829-1.414 1.414z" data-color="color-2"/><path d="M23 14H0v1c0 2.757 2.243 5 5 5h2v3a1 1 0 0 0 1 1h11a1 1 0 0 0 1-1c0-1.654 1.346-3 3-3a1 1 0 0 0 1-1v-4a1 1 0 0 0-1-1z"/></g></svg>
