<svg id="nc_icon" xmlns="http://www.w3.org/2000/svg" xml:space="preserve" viewBox="0 0 24 24"><path fill="currentColor" d="M21.7 2.633A8.35 8.35 0 0 0 15.703.001a8.495 8.495 0 0 0-3.739.823c-3.31-1.48-6.985-.875-9.5 1.64C-.353 5.282-.799 9.686 1.39 13.034A2.488 2.488 0 0 0 2 15.536l6.414 6.414a2.493 2.493 0 0 0 2.339.659 3.98 3.98 0 0 0 2.59.975c1.024 0 2.05-.39 2.829-1.17l4.242-4.243a3.971 3.971 0 0 0 1.172-2.828c0-.318-.048-.626-.119-.927 3.154-3.329 3.279-8.566.233-11.783zM19 16.757 14.758 21a1.995 1.995 0 0 1-2.368.33 2.493 2.493 0 0 0-.44-2.916L5.536 12a2.497 2.497 0 0 0-2.737-.534c-1.344-2.467-.946-5.561 1.08-7.587C5.484 2.272 7.723 1.7 9.906 2.221c-.076.07-.157.135-.23.208L3.549 7.963l.744.744a4.617 4.617 0 0 0 5.647.695l2.129-1.278c.392.16.977.371 1.657.53 1.982.408 4.607-.8 4.607-.8s-.792 1.312-3.008 2.399L19 13.929c.378.378.586.88.586 1.415s-.208 1.035-.586 1.413z" class="nc-icon-wrapper"/></svg>
