<svg id="nc_icon" xmlns="http://www.w3.org/2000/svg" xml:space="preserve" viewBox="0 0 24 24"><path fill="currentColor" d="M20.9 11c-.2-1.7-.9-3.3-1.9-4.6l1.1-1.1-1.4-1.4L17.6 5c-1.3-1-2.9-1.7-4.6-1.9V0h-2v3.1c-1.7.2-3.3.8-4.6 1.9L5.3 3.9 3.9 5.3 5 6.4C4 7.7 3.3 9.3 3.1 11H0v2h3.1c.2 1.7.9 3.3 1.9 4.6l-1.1 1.1 1.4 1.4L6.4 19c1.3 1 2.9 1.7 4.6 1.9V24h2v-3.1c1.7-.2 3.3-.9 4.6-1.9l1.1 1.1 1.4-1.4-1.1-1.1c1-1.3 1.7-2.9 1.9-4.6H24v-2h-3.1zM8 8h3v2H8V8zm4 9c-2.2 0-4-1.8-4-4h2c0 1.1.9 2 2 2s2-.9 2-2h2c0 2.2-1.8 4-4 4zm4-7h-3V8h3v2z" class="nc-icon-wrapper"/></svg>
