<svg id="nc_icon" xmlns="http://www.w3.org/2000/svg" xml:space="preserve" viewBox="0 0 24 24"><path fill="currentColor" d="M20.99 7.806C20.886 3.485 17.346 0 13 0h-2C6.654 0 3.114 3.485 3.01 7.806A5.999 5.999 0 0 0 0 13a5.999 5.999 0 0 0 3 5.188V19c0 2.757 2.243 5 5 5h4a1 1 0 0 0 0-2H8c-1.654 0-3-1.346-3-3v-.09c.326.055.659.09 1 .09.4 0 .804-.041 1.198-.121a1 1 0 0 0 .802-.98V8.101a1 1 0 0 0-.802-.98A6.041 6.041 0 0 0 6 7a6.1 6.1 0 0 0-.922.078C5.524 4.207 8.006 2 11 2h2c2.994 0 5.476 2.207 5.922 5.078A6.1 6.1 0 0 0 18 7c-.4 0-.804.041-1.198.121a1 1 0 0 0-.802.98V17.9a1 1 0 0 0 .802.98A6.006 6.006 0 0 0 24 13a5.999 5.999 0 0 0-3.01-5.194z" class="nc-icon-wrapper"/></svg>
