<svg id="nc_icon" xmlns="http://www.w3.org/2000/svg" xml:space="preserve" viewBox="0 0 24 24"><g fill="currentColor" class="nc-icon-wrapper"><path d="M11 6c.6 0 1-.4 1-1V1c0-.6-.4-1-1-1s-1 .4-1 1v4c0 .6.4 1 1 1zM5 7c.6 0 1-.4 1-1V4c0-.6-.4-1-1-1s-1 .4-1 1v2c0 .6.4 1 1 1zM17 7c.6 0 1-.4 1-1V4c0-.6-.4-1-1-1s-1 .4-1 1v2c0 .6.4 1 1 1z" data-color="color-2"/><path d="M23 11h-1c0-1.7-1.3-3-3-3s-3 1.3-3 3h-2c0-1.7-1.3-3-3-3s-3 1.3-3 3H6c0-1.7-1.3-3-3-3s-3 1.3-3 3v10c0 1.7 1.3 3 3 3s3-1.3 3-3h2c0 1.7 1.3 3 3 3s3-1.3 3-3h2c0 1.7 1.3 3 3 3s3-1.3 3-3v-8h1c.6 0 1-.4 1-1s-.4-1-1-1zM6 19v-6h2v6H6zm8 0v-6h2v6h-2z"/></g></svg>
