<svg id="nc_icon" xmlns="http://www.w3.org/2000/svg" xml:space="preserve" viewBox="0 0 24 24"><g fill="currentColor" class="nc-icon-wrapper"><path d="m20.474 16.689-7.139 1.665-8.65-15.38a1.947 1.947 0 1 0-3.393 1.913l9.1 16.097A2 2 0 0 0 12.133 22H22a1 1 0 0 0 1-1v-2.382a2 2 0 0 0-2.526-1.929z"/><path d="M17.5 12.813c2.65 0 4.5-1.028 4.5-2.5V8.5C22 7.028 20.15 6 17.5 6S13 7.028 13 8.5v1.813c0 1.472 1.85 2.5 4.5 2.5zM17.5 8c1.24 0 2.025.294 2.36.5-.335.206-1.12.5-2.36.5s-2.025-.294-2.36-.5c.335-.206 1.12-.5 2.36-.5z" data-color="color-2"/></g></svg>
