<svg id="nc_icon" xmlns="http://www.w3.org/2000/svg" xml:space="preserve" viewBox="0 0 24 24"><g fill="currentColor" class="nc-icon-wrapper"><path d="M15.2 20.2c-1.8 1.1-4.9 1.1-6.6-.2-.5-.3-1.1-.2-1.4.2-.3.4-.2 1.1.2 1.4 1.3.9 2.9 1.4 4.6 1.4 1.6 0 3.1-.4 4.3-1.2.5-.3.6-.9.3-1.4-.3-.4-.9-.5-1.4-.2zM17.4 15.3c-1.1 1-3.1 1.7-5.4 1.7-2.2 0-4.2-.6-5.3-1.6-.4-.4-1-.3-1.4.1-.4.4-.3 1 .1 1.4 1.5 1.4 4 2.2 6.7 2.2 2.8 0 5.3-.9 6.8-2.3.4-.4.4-1 0-1.4-.5-.5-1.1-.5-1.5-.1z" data-color="color-2"/><path d="M19 11.2c-1.4 1.1-4.1 1.8-7 1.8-2.9 0-5.6-.7-7-1.8-.4-.3-1.1-.3-1.4.2-.3.4-.3 1.1.2 1.4C5.5 14.2 8.6 15 12 15c3.4 0 6.5-.8 8.2-2.2.4-.3.5-1 .2-1.4-.3-.5-1-.5-1.4-.2z" data-color="color-2"/><path d="M12 1C6 1 0 2.7 0 6s6 5 12 5 12-1.7 12-5-6-5-12-5z"/></g></svg>
