<svg id="nc_icon" xmlns="http://www.w3.org/2000/svg" viewBox="0 0 24 24"><g fill="currentColor" class="nc-icon-wrapper"><path d="M16 0v2a4 4 0 0 1-4 4V4a4 4 0 0 1 4-4Z" data-color="color-2"/><path d="M22.208 12.121a3.3 3.3 0 0 0-2.451-3.031 3.17 3.17 0 0 0-2.784.648 5.092 5.092 0 0 1 .21 1.131L18 24h3.927a1 1 0 0 0 1-1.067ZM6.817 10.869a5.092 5.092 0 0 1 .21-1.131 3.17 3.17 0 0 0-2.784-.648 3.3 3.3 0 0 0-2.451 3.031l-.721 10.812a1 1 0 0 0 1 1.067H6ZM8 24l.813-13.006A3.193 3.193 0 0 1 12 8a3.193 3.193 0 0 1 3.187 2.994L16 24Z"/></g></svg>
