<svg id="nc_icon" xmlns="http://www.w3.org/2000/svg" viewBox="0 0 24 24"><g fill="currentColor" class="nc-icon-wrapper"><path d="m5.724 17.966-2.619 2.619a2 2 0 1 0 2.828 2.828l2.619-2.619-2.828-2.828z" data-color="color-2"/><path d="m22.606 5.368-3.535-3.535C17.937.699 16.43.075 14.828.075s-3.109.624-4.243 1.759l-8.364 8.389a.999.999 0 0 0 .001 1.413l7.071 7.071A.996.996 0 0 0 10 19h.001c.265 0 .52-.105.707-.294L22.607 6.781a.999.999 0 0 0-.001-1.413zM9.172 14.561l-1.414-1.414 6.363-6.364 1.414 1.414-6.363 6.364z"/></g></svg>
