<svg id="nc_icon" xmlns="http://www.w3.org/2000/svg" xml:space="preserve" viewBox="0 0 24 24"><g fill="currentColor" class="nc-icon-wrapper"><path d="M24 19v-2h-2.141a3.954 3.954 0 0 0-.424-1.02l1.515-1.515-1.414-1.414-1.515 1.515a3.954 3.954 0 0 0-1.02-.424V12h-2v2.141a3.954 3.954 0 0 0-1.02.424l-1.515-1.515-1.414 1.414 1.515 1.515c-.186.316-.33.656-.424 1.02H12v2h2.141c.094.364.238.704.424 1.02l-1.515 1.515 1.414 1.414 1.515-1.515c.316.186.656.33 1.02.424V24h2v-2.141a3.954 3.954 0 0 0 1.02-.424l1.515 1.515 1.414-1.414-1.515-1.515c.186-.316.33-.656.424-1.02H24zm-6 0a1 1 0 1 1 0-2 1 1 0 0 1 0 2z" data-color="color-2"/><path d="M4 4h16v7h2V4c0-1.103-.897-2-2-2H4c-1.103 0-2 .897-2 2v11h2V4zM0 18c0 2.206 1.794 4 4 4h6v-5H0v1z"/></g></svg>
