<svg id="nc_icon" xmlns="http://www.w3.org/2000/svg" xml:space="preserve" viewBox="0 0 24 24"><g fill="currentColor" class="nc-icon-wrapper"><path d="M16 4V1c0-.6-.4-1-1-1H8C4.7 0 2 2.7 2 6v17c0 .6.4 1 1 1h4c.6 0 1-.4 1-1s-.4-1-1-1H4V6c0-2.2 1.8-4 4-4h6v2c-3.3 0-6 2.7-6 6v1h3c0 2.2 1.8 4 4 4s4-1.8 4-4h3v-1c0-3.3-2.7-6-6-6zm-1 9c-1.1 0-2-.9-2-2h4c0 1.1-.9 2-2 2z"/><path d="M14 17h2v3h-2zM10.056 14.535l1.413 1.416-2.123 2.12-1.413-1.416zM19.949 14.53l2.123 2.12-1.413 1.416-2.123-2.12z" data-color="color-2"/></g></svg>
