<svg id="nc_icon" xmlns="http://www.w3.org/2000/svg" xml:space="preserve" viewBox="0 0 24 24"><g fill="currentColor" class="nc-icon-wrapper"><path d="m8.9 13.7-2.6 2.6c-.4.4-.4 1 0 1.4.2.2.4.3.7.3s.5-.1.7-.3l2.6-2.6c.5.1 1.2.2 2.1.2 1.7 0 4.1-.5 6.3-2.7C22.5 8.9 23 2.3 23 2.1c0-.3-.1-.6-.3-.8-.2-.2-.5-.3-.8-.3-.3 0-6.8.5-10.6 4.3-3.2 3.2-2.7 6.9-2.4 8.4z"/><path d="M21 14c-.6 0-1 .4-1 1v7H2V4h7c.6 0 1-.4 1-1s-.4-1-1-1H1c-.6 0-1 .4-1 1v20c0 .6.4 1 1 1h20c.6 0 1-.4 1-1v-8c0-.6-.4-1-1-1z" data-color="color-2"/></g></svg>
