<svg id="nc_icon" xmlns="http://www.w3.org/2000/svg" viewBox="0 0 24 24"><path fill="currentColor" d="M23.217 15.803 8.197.783A1 1 0 0 0 6.988.625C3.295 2.771 1 6.746 1 11c0 6.617 5.383 12 12 12 4.254 0 8.229-2.295 10.375-5.988a1 1 0 0 0-.158-1.209zM8.076 3.49l4.693 4.693-8.51.709A9.015 9.015 0 0 1 8.076 3.49zM4 11c0-.027.005-.054.005-.081l8.358-.697-6.388 6.388A8.943 8.943 0 0 1 4 11zm3.389 7.025 6.388-6.388-.697 8.358c-.026 0-.053.005-.08.005a8.948 8.948 0 0 1-5.611-1.975zm7.719 1.716.709-8.51 4.693 4.693a9.015 9.015 0 0 1-5.402 3.817z" class="nc-icon-wrapper"/></svg>
