<svg id="nc_icon" xmlns="http://www.w3.org/2000/svg" xml:space="preserve" viewBox="0 0 24 24"><g fill="currentColor" class="nc-icon-wrapper"><path d="M18.586 4 21 1.586 22.414 3 20 5.414zM15 0h2v3h-2zM21 7h3v2h-3z" data-color="color-2"/><path d="M8.637 15.364a8.998 8.998 0 0 1-1.808-2.606L.294 19.293a.999.999 0 0 0 0 1.414l3 3a.997.997 0 0 0 1.413 0l6.535-6.535a8.994 8.994 0 0 1-2.605-1.808zM21.364 11.122l-8.485-8.485a.999.999 0 0 0-1.414 0L10.051 4.05C8.729 5.373 8 7.13 8 9s.729 3.627 2.051 4.95S13.131 16 15 16c1.87 0 3.627-.728 4.949-2.05l1.415-1.414a1 1 0 0 0 0-1.414z"/></g></svg>
