<svg id="nc_icon" xmlns="http://www.w3.org/2000/svg" xml:space="preserve" viewBox="0 0 24 24"><g fill="currentColor" class="nc-icon-wrapper"><path d="M7 11h10v2H7z" data-color="color-2"/><path d="M8.618 15c-.703.615-1.612 1-2.618 1-2.206 0-4-1.794-4-4s1.794-4 4-4c1.006 0 1.915.385 2.618 1h2.57A5.999 5.999 0 0 0 6 6c-3.309 0-6 2.691-6 6s2.691 6 6 6a5.999 5.999 0 0 0 5.188-3h-2.57zM15.382 15c.703.615 1.612 1 2.618 1 2.206 0 4-1.794 4-4s-1.794-4-4-4a3.962 3.962 0 0 0-2.618 1h-2.57A5.999 5.999 0 0 1 18 6c3.309 0 6 2.691 6 6s-2.691 6-6 6a5.999 5.999 0 0 1-5.188-3h2.57z"/></g></svg>
