<svg id="nc_icon" xmlns="http://www.w3.org/2000/svg" xml:space="preserve" viewBox="0 0 24 24"><g fill="currentColor" class="nc-icon-wrapper"><path d="M14 11c-.551 0-1 .448-1 1 0 1.654-1.346 3-3 3H5c-1.654 0-3-1.346-3-3s1.346-3 3-3h2.705a7.008 7.008 0 0 1 1.438-2H5c-2.757 0-5 2.243-5 5s2.243 5 5 5h5a5.006 5.006 0 0 0 4.899-6H14z"/><path d="M10 13c.551 0 1-.448 1-1 0-1.654 1.346-3 3-3h5c1.654 0 3 1.346 3 3s-1.346 3-3 3h-2.705a7.008 7.008 0 0 1-1.438 2H19c2.757 0 5-2.243 5-5s-2.243-5-5-5h-5a5.006 5.006 0 0 0-4.899 6H10z" data-color="color-2"/></g></svg>
