<svg id="nc_icon" xmlns="http://www.w3.org/2000/svg" xml:space="preserve" viewBox="0 0 24 24"><path fill="currentColor" d="m22.6 10.9-8.2-8.2c-.4-.4-.8-.8-1.3-1.1-.5-.2-1.1-.3-1.7-.2-.5.1-.9.4-1.3.7C7 5.3 3.9 8.4.8 11.5c-.4.4-.6.8-.7 1.3-.3.9.1 1.9.7 2.5l6.5 6.5c.5.5 1.2.8 1.9.8h5.3c.8.1 1.6-.2 2.2-.8l5.9-5.9c.3-.3.7-.6.9-1 .5-.7.6-1.6.3-2.4-.2-.7-.7-1.1-1.2-1.6zM7.2 14.4c-.3.4-.9.3-1.4.2-.4-.3-.8-.7-1.1-1.1-.1-.1.1-.4.3-.5 2-2 4-4.1 6-6.1.3-.3.5-.6.8-.8.3-.1.5.2.6.3.4.4.8.7 1.1 1.2.2.2 0 .5-.2.6-1.9 2.1-4 4.2-6.1 6.2zm6.4 4.8c-.3.4-.7.7-1 1-.3.1-.7.1-1.1 0-.3-.2-.6-.5-.8-.8-.2-.2-.5-.5-.3-.8.4-.5.9-.9 1.4-1.4.2-.1.4-.1.6.1l1.2 1.2c.1.3.2.6 0 .7zm-.1-5.4L10 17.3c-.3.4-.9.3-1.3.2-.4-.3-.8-.7-1.1-1-.2-.2 0-.5.2-.7l3.5-3.5c.2-.2.4-.4.7-.6.3-.1.4.1.6.3l1.2 1.2c0 .2-.2.4-.3.6z" class="nc-icon-wrapper"/></svg>
