<svg id="nc_icon" xmlns="http://www.w3.org/2000/svg" xml:space="preserve" viewBox="0 0 24 24"><g fill="currentColor" class="nc-icon-wrapper"><path d="M8.757 10.569c.003.28.26.524.412.67l.048.047c.262.258.511.388.742.388.19 0 .308-.09.35-.128.115-.108 1.42-1.43 1.545-1.557l1.456 1.452c.134.151.28.228.452.232.232 0 .485-.138.753-.41.628-.642.313-.988.161-1.155l-1.475-1.476 1.539-1.55c.337-.364.04-.752-.258-1.05-.431-.43-.848-.542-1.115-.296l-1.53 1.532-1.546-1.547a.424.424 0 0 0-.3-.12c-.205 0-.45.139-.724.414-.476.476-.578.804-.33 1.067l1.547 1.542-1.538 1.541c-.127.127-.19.262-.189.404z" data-color="color-2"/><path d="M11.348.023c-4.326.33-7.714 4.134-7.714 8.661v14.317c0 .83.63.999 1.577.999s1.577-.17 1.577-1V8.65c0-2.82 2.052-5.242 4.672-5.514a5.218 5.218 0 0 1 4.074 1.332 5.29 5.29 0 0 1 1.737 3.924c0 .43-.21 1.827-1.17 3.124-.724.98-2.099 2.148-4.535 2.148h-.046c-.625 0-1.16.03-1.262 1.51-.069.997-.063 1.443.798 1.563 1.535.213 3.101-.088 4.653-.894 2.65-1.379 4.425-3.99 4.634-6.818a8.394 8.394 0 0 0-2.43-6.571 8.402 8.402 0 0 0-6.565-2.43z"/></g></svg>
