<svg id="nc_icon" xmlns="http://www.w3.org/2000/svg" xml:space="preserve" viewBox="0 0 24 24"><path fill="currentColor" fill-rule="evenodd" d="M12 24C5.4 24 0 18.6 0 12S5.4 0 12 0s12 5.4 12 12-5.4 12-12 12zm10.1-10.4c-.4-.1-3.2-1-6.4-.4 1.3 3.7 1.9 6.7 2 7.3 2.3-1.5 4-4 4.4-6.9zM16 21.5c-.2-.9-.7-4-2.2-7.8h-.1c-5.8 2-7.9 6-8 6.4 1.7 1.4 3.9 2.2 6.3 2.2 1.4 0 2.8-.3 4-.8zM4.4 18.9c.2-.4 3-5.1 8.3-6.8.1 0 .3-.1.4-.1-.3-.6-.5-1.2-.8-1.7-5.1 1.5-10.1 1.5-10.5 1.5v.3c0 2.5.9 5 2.6 6.8zM2 9.9c.5 0 4.7 0 9.5-1.2-1.7-3-3.5-5.6-3.8-5.9C4.8 4.1 2.6 6.7 2 9.9zm7.6-7.8c.3.4 2.1 2.9 3.8 6 3.6-1.4 5.2-3.4 5.4-3.7C17 2.7 14.6 1.8 12 1.8c-.8 0-1.6.1-2.4.3zm10.3 3.4c-.2.3-1.9 2.5-5.7 4 .2.5.5 1 .7 1.5.1.2.1.4.2.5 3.4-.4 6.8.3 7.1.3 0-2.3-.8-4.5-2.3-6.3z" class="nc-icon-wrapper" clip-rule="evenodd"/></svg>
