<svg id="nc_icon" xmlns="http://www.w3.org/2000/svg" xml:space="preserve" viewBox="0 0 24 24"><g fill="currentColor" class="nc-icon-wrapper"><path d="M12 2.162c3.204 0 3.584.012 4.849.07 1.366.062 2.633.336 3.608 1.311.975.975 1.249 2.242 1.311 3.608.058 1.265.07 1.645.07 4.849s-.012 3.584-.07 4.849c-.062 1.366-.336 2.633-1.311 3.608-.975.975-2.242 1.249-3.608 1.311-1.265.058-1.645.07-4.849.07s-3.584-.012-4.849-.07c-1.366-.062-2.633-.336-3.608-1.311-.975-.975-1.249-2.242-1.311-3.608-.058-1.265-.07-1.645-.07-4.849s.012-3.584.07-4.849c.062-1.366.336-2.633 1.311-3.608.975-.975 2.242-1.249 3.608-1.311 1.265-.058 1.645-.07 4.849-.07M12 0C8.741 0 8.332.014 7.052.072c-1.95.089-3.663.567-5.038 1.942C.639 3.389.161 5.102.072 7.052.014 8.332 0 8.741 0 12c0 3.259.014 3.668.072 4.948.089 1.95.567 3.663 1.942 5.038 1.375 1.375 3.088 1.853 5.038 1.942C8.332 23.986 8.741 24 12 24s3.668-.014 4.948-.072c1.95-.089 3.663-.567 5.038-1.942 1.375-1.375 1.853-3.088 1.942-5.038.058-1.28.072-1.689.072-4.948s-.014-3.668-.072-4.948c-.089-1.95-.567-3.663-1.942-5.038C20.611.639 18.898.161 16.948.072 15.668.014 15.259 0 12 0z"/><path d="M12 5.838a6.162 6.162 0 1 0 0 12.324 6.162 6.162 0 0 0 0-12.324zM12 16a4 4 0 1 1 0-8 4 4 0 0 1 0 8z" data-color="color-2"/><circle cx="18.406" cy="5.594" r="1.44" data-color="color-2"/></g></svg>
