<svg id="nc_icon" xmlns="http://www.w3.org/2000/svg" xml:space="preserve" viewBox="0 0 24 24"><g fill="currentColor" class="nc-icon-wrapper"><path d="M0 12c0 4.7 2.8 8.9 6.8 10.8L1 7.1C.4 8.6 0 10.3 0 12zM20.1 11.4c0-1.5-.5-2.5-1-3.3-.6-1-1.2-1.8-1.2-2.8 0-1.1.8-2.1 2-2.1h.2C18 1.2 15.1 0 12 0 7.8 0 4.1 2.2 2 5.4h.8c1.3 0 3.2-.2 3.2-.2.6 0 .7.9.1 1 0 0-.7.1-1.4.1l4.4 13 2.6-7.9-1.9-5c-.6 0-1.3-.1-1.3-.1-.6 0-.6-1 .1-1 0 0 2 .2 3.2.2 1.2-.1 3.2-.2 3.2-.2.6 0 .7.9.1 1 0 0-.7.1-1.4.1L18 19.3l1.2-4c.5-1.7.9-2.9.9-3.9z"/><path d="M12.2 13 8.6 23.5c1.1.3 2.2.5 3.4.5 1.4 0 2.7-.2 4-.7 0-.1-.1-.1-.1-.2L12.2 13zM22.5 6.2c.1.4.1.8.1 1.2 0 1.2-.2 2.6-.9 4.3L18 22.4c3.6-2.1 6-5.9 6-10.4 0-2.1-.5-4-1.5-5.8z"/></g></svg>
