<svg id="nc_icon" xmlns="http://www.w3.org/2000/svg" xml:space="preserve" viewBox="0 0 24 24"><path fill="currentColor" d="M3.576 17.035c0-1.917.815-2.93 2.4-3.364-.25-.628-.376-1.09-.376-1.389 0-1.103 1.394-2.47 2.447-2.47.267 0 .58.07.941.212-.753-2.15-1.294-3.78-1.623-4.895-.43-1.451-1.006-3.339 0-4.47C7.757.219 8.282 0 8.94 0c1.13 0 2.486 2.314 4.07 6.941l.4 1.153c.6-1.5 2.443-7.647 4.518-7.647.628 0 1.122.212 1.483.635 1.014 1.141.416 2.831 0 4.306-.33 1.145-.847 2.714-1.553 4.706.894.22 1.537.643 1.93 1.27.423.675.635 1.718.635 3.13 0 2.792-.832 5.075-2.495 6.847C16.235 23.114 14.086 24 11.482 24c-3.215 0-6.04-1.889-7.294-4.447-.408-.847-.612-1.686-.612-2.518zm1.53-.117c0 .983.656 2.169 1.247 2.964 1.384 1.79 3.194 2.565 5.318 2.565 2.023 0 3.725-.76 5.105-2.282 1.365-1.506 2.048-3.412 2.048-5.718 0-.789-.003-1.968-.589-2.47-.423-.361-1.255-.675-2.494-.942a17.757 17.757 0 0 0-3.953-.423c-.54 0-.823.081-.823.612 0 .643.36 1.098 1.082 1.364.784.33 2.078.494 3.882.494h.66c.368 0 .695.193.8.989-.677.676-1.791.767-2.542 1.34a5.48 5.48 0 0 0-1.506 1.624c-.36.612-.541 1.192-.541 1.741 0 .33.078.73.235 1.2.173.518.26.855.26 1.012-.005.146-.048.247-.224.318-.73.165-1.063-.192-1.377-.788-.267-.502-.416-1.145-.447-1.93-.095.032-.439.024-.541.024.016.078.023.172.023.282 0 .47-.18.87-.54 1.2-.362.33-.785.494-1.271.494-.738 0-1.483-.353-2.236-1.059-.753-.721-1.13-1.427-1.13-2.117 0-.41.176-.622.448-.894.392.486.659.823.8 1.011.659.926 1.255 1.389 1.788 1.389.3 0 .541-.222.541-.377 0-.125-.094-.353-.282-.682-.275-.516-1.361-1.956-1.93-2.424-.235-.22-.407-.33-.517-.33-.53 0-1.294.68-1.294 1.813zm2.118-4.494c0 .203.125.556.376 1.058.463.893 1.55 2.332 2.376 3.06.377.313.66.47.848.47.241 0 .494-.287.494-.541 0-.189-.142-.644-.424-1.365-.389-.944-1.215-2.672-2-3.318-.25-.235-.494-.353-.73-.353-.335 0-.94.615-.94.989zM8.282 2.259c0 .533.189 1.372.565 2.517.345 1.114.863 2.604 1.553 4.471.355-.213 1.216-.112 1.67-.07L10.448 4.47c-.44-1.255-.784-2.071-1.035-2.447-.204-.33-.408-.495-.612-.495-.341 0-.518.386-.518.73zm3.906 12c.141.36.29.753.447 1.176.314-.36.628-.659.941-.894-.478-.096-.863-.107-1.388-.282zm2.47-4.8 1.577.282A135.574 135.574 0 0 0 17.86 5.06c.217-.703.845-2.305.423-2.847-.142-.25-.582-.324-1.082.47-.298.455-.635 1.247-1.012 2.377l-1.53 4.4z" class="nc-icon-wrapper"/></svg>
