<svg id="nc_icon" xmlns="http://www.w3.org/2000/svg" xml:space="preserve" viewBox="0 0 24 24"><path fill="currentColor" d="M20.179 11.424a.815.815 0 0 0-1.152 0l-7.603 7.603a2.774 2.774 0 0 1-3.917.001.815.815 0 0 0-1.152 1.152 4.403 4.403 0 0 0 6.221-.001l7.603-7.603a.815.815 0 0 0 0-1.152zm2.535-2.535a4.403 4.403 0 0 0-6.221.001L8.89 16.493a.815.815 0 0 0 1.152 1.152l7.603-7.603a2.774 2.774 0 0 1 3.917-.001 2.773 2.773 0 0 1 0 3.917l-6.116 6.116a.815.815 0 0 0 1.152 1.152l6.116-6.116a4.404 4.404 0 0 0 0-6.221zM17.645 3.82a4.403 4.403 0 0 0-6.221.001l-7.603 7.603a.815.815 0 0 0 1.152 1.152l7.603-7.603a2.774 2.774 0 0 1 3.917-.001.815.815 0 0 0 1.152-1.152zM15.11 6.355a.815.815 0 0 0-1.152 0l-7.603 7.603a2.774 2.774 0 0 1-3.917.001 2.773 2.773 0 0 1 0-3.917l6.116-6.116a.815.815 0 0 0-1.152-1.152L1.286 8.889c-1.715 1.715-1.715 4.506 0 6.221s4.506 1.715 6.221-.001l7.603-7.603a.812.812 0 0 0 0-1.151z" class="nc-icon-wrapper"/></svg>
