<svg id="nc_icon" xmlns="http://www.w3.org/2000/svg" xml:space="preserve" viewBox="0 0 24 24"><g fill="currentColor" class="nc-icon-wrapper"><ellipse cx="19.803" cy="8.476" rx="3.818" ry="3.804"/><ellipse cx="11.201" cy="9.561" data-color="color-2" rx="3.437" ry="3.424"/><ellipse cx="3.399" cy="10.538" rx="3.094" ry="3.081"/><path d="M3.4 14.323c-1.962 0-3.4 1.721-3.4 3.5v1.197c0 .17.139.309.309.309H6.49a.31.31 0 0 0 .309-.309v-1.197c0-1.779-1.438-3.5-3.4-3.5z"/><path d="M11.2 13.766c-2.179 0-3.777 1.913-3.777 3.89v1.33c0 .188.154.343.343.343H14.634c.19 0 .344-.155.344-.343v-1.33c0-1.977-1.598-3.89-3.777-3.89z" data-color="color-2"/><path d="M19.803 13.148c-2.422 0-4.197 2.126-4.197 4.322v1.478c0 .209.17.38.381.38H23.617a.382.382 0 0 0 .383-.38V17.47c0-2.196-1.775-4.322-4.197-4.322z"/></g></svg>
