<svg id="nc_icon" xmlns="http://www.w3.org/2000/svg" xml:space="preserve" viewBox="0 0 24 24"><g fill="currentColor" class="nc-icon-wrapper"><path d="M6.084 22.148c-.846.243-1.42.638-1.499 1.027-.103.505 1.866 1.009 5.322.758-1.573-.26-2.851-.858-3.823-1.785zM12 0a7.538 7.538 0 0 0-7.538 7.538v2.007l.298.141c.023.011 2.402 1.095 7.24 1.095 4.837 0 7.217-1.084 7.24-1.095l.298-.141V7.538A7.538 7.538 0 0 0 12 0zm1.93 2.98c.701 0 1.269.859 1.269 1.92 0 1.06-.568 1.92-1.269 1.92s-1.269-.859-1.269-1.92c0-1.06.568-1.92 1.269-1.92zm-3.86 0c.701 0 1.269.859 1.269 1.92 0 1.06-.568 1.92-1.269 1.92S8.801 5.961 8.801 4.9c0-1.06.568-1.92 1.269-1.92zM12 9.817c-3.12 0-4.593-1.21-4.523-1.543.07-.333 2.367-.911 4.523-.911s4.453.579 4.523.912c.07.332-1.403 1.542-4.523 1.542zM17.916 22.148c.846.243 1.42.638 1.499 1.027.103.505-1.866 1.009-5.322.758 1.573-.26 2.851-.858 3.823-1.785z"/><path d="M21.703 16.04c-.155-.691-.548-1.777-.969-2.843-.769.372-1.816.637-2.918.826.007.075.017.15.029.225v2.863a5.845 5.845 0 0 1-11.69 0v-2.863a3.46 3.46 0 0 0 .029-.225c-1.103-.19-2.149-.455-2.918-.826-.421 1.066-.814 2.153-.969 2.843-.394 1.762-.412 3.348-.184 3.453.171.079 1.166-.805 2.339-2.298.054 1.719.802 6.47 7.407 6.47l.14-.002.14.002c6.606 0 7.353-4.752 7.407-6.47 1.173 1.493 2.169 2.377 2.339 2.298.23-.104.213-1.691-.182-3.453z"/><path d="m20.579 12.806-1.16-2.739S17.013 11.202 12 11.202s-7.419-1.135-7.419-1.135l-1.16 2.739c.983.483 2.48.781 3.951.967v3.459h3.138v-3.199c.895.041 1.49.043 1.49.043s6.026-.017 8.579-1.27z" data-color="color-2"/></g></svg>
