<svg id="nc_icon" xmlns="http://www.w3.org/2000/svg" xml:space="preserve" viewBox="0 0 24 24"><path fill="currentColor" fill-rule="evenodd" d="M20.302 0H3.698A3.698 3.698 0 0 0 0 3.698v16.604A3.698 3.698 0 0 0 3.698 24h16.604A3.698 3.698 0 0 0 24 20.302V3.698A3.698 3.698 0 0 0 20.302 0zm-.599 16.897h-2.019c-.659 0-.742-.481-1.95-1.634-1.019-1.006-1.456-1.085-1.703-1.085-.22 0-.371.165-.371.549v1.538c0 .453-.261.632-1.332.632-1.758 0-3.708-1.085-5.191-3.09-2.211-2.98-2.774-5.205-2.774-5.686 0-.261.192-.439.453-.439h1.799c.467 0 .645.137.81.632.824 2.417 2.294 4.546 2.912 4.546.233 0 .261-.192.261-.687V9.714c0-1.192-.673-1.291-.673-1.731 0-.174.137-.302.357-.302h2.884c.385 0 .439.137.439.604v3.337c0 .381.078.522.247.522.21 0 .403-.127.783-.549 1.184-1.306 2.156-3.379 2.156-3.379.124-.261.275-.44.687-.44h1.799c.357 0 .508.192.44.536-.206.961-2.28 3.887-2.28 3.887-.192.302-.275.467 0 .755.192.247.797.783 1.167 1.277.906.961 1.497 1.772 1.497 2.225 0 .345-.192.441-.398.441z" class="nc-icon-wrapper" clip-rule="evenodd"/></svg>
