<svg id="nc_icon" xmlns="http://www.w3.org/2000/svg" xml:space="preserve" viewBox="0 0 24 24"><path fill="currentColor" d="M23.117 12.249c.845-.857 1.117-2.228.67-3.336-.356-.883-.99-1.473-1.875-1.8-.136-.05-.162-.124-.166-.251-.011-.357-.014-.715-.056-1.069a5.292 5.292 0 0 0-1.067-2.599c-.936-1.234-2.173-1.977-3.71-2.212a5.534 5.534 0 0 0-2.544.188.558.558 0 0 1-.501-.058C12.853.518 11.754.227 10.724.22 9.57.224 8.612.443 7.716.899c-1.414.721-2.437 1.814-3.05 3.281a.368.368 0 0 1-.313.247c-.946.156-1.734.6-2.383 1.304-1.228 1.334-1.473 3.412-.573 4.99.087.153.072.243-.049.368-.799.82-1.259 1.798-1.335 2.946-.072 1.078.183 2.071.803 2.961.713 1.023 1.691 1.641 2.909 1.885.118.024.167.085.175.207.014.208.032.417.072.621.229 1.171.784 2.156 1.704 2.921a4.999 4.999 0 0 0 4.259 1.036c.684-.148 1.316-.418 1.868-.856.096-.076.165-.092.264-.011a3.635 3.635 0 0 0 1.855.818c1.356.18 2.475-.262 3.367-1.286.325-.373.546-.808.688-1.283.029-.096.054-.197.192-.199.983-.015 1.564-.158 2.064-.365 1.886-.78 3.034-2.175 3.392-4.191.219-1.234.009-2.408-.584-3.513-.181-.34-.196-.255.076-.531zm-4.715 5.36c-.32.099-.783.165-.998.161-.674-.006-1.339-.096-1.952-.376-.815-.372-1.308-1.024-1.507-1.902-.153-.676.05-1.285.332-1.88.525-1.109 1.06-2.214 1.583-3.324.196-.417.594-1.187.187-1.405-.475-.254-.808.295-1.061.788-.624 1.214-1.237 2.433-1.855 3.649-.286.563-.563 1.131-.865 1.685-.279.511-.7.834-1.312.798-.931-.054-1.192-.666-.833-1.565.455-1.139.912-2.278 1.361-3.42.119-.303.252-.606.191-.949-.052-.297-.215-.489-.473-.54-.215-.043-.547.118-.655.35-.177.384-.336.776-.492 1.169-.678 1.698-1.346 3.401-2.031 5.096-.189.468-.474.897-.972 1.069-1.391.479-3.052-.413-2.907-2.089.045-.523 1.217-4.2 1.292-4.436.346-1.083.678-2.174 1.189-3.195.35-.7.955-1.09 1.685-1.312.606-.184 1.163-.044 1.704.239.285.149.582.274.869.419.213.107.427.105.612-.026.262-.185.515-.386.749-.606.519-.488 1.316-.57 1.81-.295.276.154.502.397.746.605.239.204.343.23.604.059.495-.323 1.044-.301 1.592-.269 1.435.085 1.887 1.422 1.667 2.39-.221.973-.665 1.859-1.05 2.768-.32.757-.645 1.512-.942 2.278a4 4 0 0 0-.295 1.41c-.005.522.234.81.751.906.596.112.93.12 1.308.274.342.139.479.418.473.768-.006.345-.177.607-.505.708z" class="nc-icon-wrapper"/></svg>
