<svg id="nc_icon" xmlns="http://www.w3.org/2000/svg" xml:space="preserve" viewBox="0 0 24 24"><g fill="currentColor" class="nc-icon-wrapper"><path d="M11.406.132.586 5.187a.42.42 0 0 0 .001.764l10.905 5.018c.322.148.694.148 1.016 0L23.413 5.95a.42.42 0 0 0 .002-.764L12.594.132a1.403 1.403 0 0 0-1.188 0z"/><path d="m23.415 11.676-2.235-1.044a1.216 1.216 0 0 0-1.023-.003l-7.649 3.52a1.216 1.216 0 0 1-1.016 0l-7.65-3.52a1.216 1.216 0 0 0-1.022.003L.585 11.676a.42.42 0 0 0 .002.764l10.905 5.017c.322.149.694.149 1.016 0l10.905-5.017a.42.42 0 0 0 .002-.764z" data-color="color-2"/><path d="m23.415 18.108-2.235-1.044a1.216 1.216 0 0 0-1.023-.003l-7.649 3.519a1.216 1.216 0 0 1-1.016 0l-7.65-3.52a1.216 1.216 0 0 0-1.022.004L.585 18.108a.42.42 0 0 0 .002.763l10.905 5.018c.322.148.694.148 1.016 0l10.905-5.018a.42.42 0 0 0 .002-.763z" data-color="color-2"/></g></svg>
