<svg id="nc_icon" xmlns="http://www.w3.org/2000/svg" xml:space="preserve" viewBox="0 0 24 24"><g fill="currentColor" class="nc-icon-wrapper"><path d="m20.165 6.068-.005.03.005-.03zM20.165 6.068c.007-.046.004-.027 0 0zM19.149 1.81C18.037.543 16.029 0 13.459 0H6c-.526 0-.973.382-1.055.9L1.84 20.598a.64.64 0 0 0 .632.74h4.605l1.156-7.335-.036.23c.083-.519.526-.9 1.051-.9h2.188c4.299 0 7.665-1.747 8.648-6.798.03-.149.076-.436.076-.436.28-1.87-.002-3.138-1.011-4.288z"/><path d="M21.326 7.054c-1.07 4.973-4.48 7.605-9.89 7.605H9.475L8.011 24h3.183c.459 0 .85-.335.922-.788l.038-.198.731-4.636.047-.257a.934.934 0 0 1 .922-.788h.581c3.76 0 6.705-1.527 7.565-5.945.345-1.773.18-3.26-.674-4.334z" data-color="color-2"/></g></svg>
