<svg id="nc_icon" xmlns="http://www.w3.org/2000/svg" xml:space="preserve" viewBox="0 0 24 24"><g fill="currentColor" class="nc-icon-wrapper"><path d="M3.5 11.6c-.4.6-.5 2.6-.4 3.9 0 .4.1.8.2 1 .2.3.4.5.7.5.2 0 .3 0 3.8-1.2l1.6-.5c.4-.1.7-.5.7-.9 0-.5-.2-.9-.6-1.1l-1.1-.5c-3.8-1.6-4-1.7-4.1-1.7-.3 0-.6.2-.8.5zM12 23.5c.1-.2.1-.3.1-4.1v-1.7c0-.4-.2-.8-.7-1-.4-.2-.9-.1-1.2.3l-.8.9c-2.7 3.2-2.8 3.3-2.8 3.5 0 .1-.1.2 0 .3 0 .2.1.3.2.5.6.7 3.6 1.9 4.5 1.7.3 0 .6-.2.7-.4zM18 22.1c.9-.4 2.8-2.9 3-3.9 0-.3-.1-.6-.3-.8-.1-.1-.3-.2-3.8-1.3 0 0-1.5-.5-1.6-.5-.4-.1-.8 0-1.1.4-.3.4-.3.9-.1 1.2l.6 1c2.1 3.5 2.2 3.7 2.4 3.8.3.2.6.3.9.1zM16.1 13.2c4-1 4.2-1 4.3-1.1.2-.2.4-.4.3-.8-.1-1-1.8-3.6-2.7-4-.3-.1-.6-.1-.8 0-.2.1-.3.3-2.4 3.3 0 0-1 1.3-1 1.4-.3.3-.3.8 0 1.2.3.4.7.6 1.1.5.3-.3.6-.3 1.2-.5zM12.1 9.8C12 8.2 11.6 1 11.5.6c-.1-.3-.3-.5-.6-.6-1-.2-4.9.9-5.7 1.7-.2.2-.3.5-.2.8.1.2 4.9 8 4.9 8 .7 1.2 1.3 1 1.5.9.2 0 .8-.2.7-1.6z"/></g></svg>
