<svg id="nc_icon" xmlns="http://www.w3.org/2000/svg" xml:space="preserve" viewBox="0 0 24 24"><path fill="currentColor" d="M24 8.2v-.5l-.1-.1h-.1L12.8.3c-.3-.2-.8-.2-1.1 0L.7 7.6H.6l-.1.1V16.1l.1.1h.1l11 7.3c.2.1.4.2.6.2.2 0 .4-.1.6-.2l11-7.3h.1l.1-.1V8.3c-.1 0-.1 0-.1-.1zM13 3l8.1 5.4-3.6 2.4-4.5-3V3zm-2 0v4.8l-4.5 3-3.6-2.5L11 3zm-8.9 7.3L4.6 12 2 13.7v-3.4zM11 21l-8.1-5.4 3.6-2.4 4.5 3V21zm1-6.6L8.4 12 12 9.6l3.6 2.4-3.6 2.4zm1 6.6v-4.8l4.5-3 3.6 2.4L13 21zm8.9-7.3L19.4 12l2.6-1.7v3.4z" class="nc-icon-wrapper"/></svg>
