<svg id="nc_icon" xmlns="http://www.w3.org/2000/svg" xml:space="preserve" viewBox="0 0 24 24"><path fill="currentColor" d="M23.6 11.9C22.8 6.7 19.6 3 16 3c-.4 0-.7.1-1 .1V5c0 1.7 1.3 3 3 3 .6 0 1 .4 1 1s-.4 1-1 1c-2.8 0-5-2.2-5-5V0h-2v5c0 2.8-2.2 5-5 5-.6 0-1-.4-1-1s.4-1 1-1c1.7 0 3-1.3 3-3V3.1c-.3 0-.6-.1-1-.1C4.4 3 1.2 6.7.4 11.9 0 14.5.3 17 1 19c.8 2.3 2.3 3.7 4.1 3.9h.7c1.2 0 2.3-.4 3.3-1.3 1.8-1.6 2.9-4.5 2.9-7.7 0 3.2 1.1 6.1 2.9 7.7 1 .8 2.1 1.3 3.3 1.3h.7c1.8-.3 3.3-1.7 4.1-3.9.7-2 1-4.5.6-7.1z" class="nc-icon-wrapper"/></svg>
