<svg id="nc_icon" xmlns="http://www.w3.org/2000/svg" xml:space="preserve" viewBox="0 0 24 24"><g fill="currentColor" class="nc-icon-wrapper"><path d="M12 15.816C12 11.55 15.56 9 19 9c1.815 0 3.659.716 5 2.014V2a.998.998 0 0 0-.385-.788.987.987 0 0 0-.857-.182L15.04 2.959 9.316 1.052a.985.985 0 0 0-.559-.021l-8 2A.998.998 0 0 0 0 4v18a.998.998 0 0 0 1.242.97l7.718-1.929 5.724 1.907c.18.061.375.069.559.021l.42-.105C14.114 21.151 12 18.348 12 15.816z"/><path d="M19 11c-2.458 0-5 1.802-5 4.817 0 2.716 3.869 6.486 4.31 6.907l.69.658.69-.659c.441-.421 4.31-4.191 4.31-6.907C24 12.802 21.458 11 19 11zm0 7a2 2 0 1 1 0-4 2 2 0 0 1 0 4z" data-color="color-2"/></g></svg>
