<svg id="nc_icon" xmlns="http://www.w3.org/2000/svg" xml:space="preserve" viewBox="0 0 24 24"><g fill="currentColor" class="nc-icon-wrapper"><path d="M10 18a8 8 0 0 1 8-8 7.972 7.972 0 0 1 6 2.721V2a.998.998 0 0 0-.385-.788.987.987 0 0 0-.857-.182L15.04 2.959 9.316 1.052a.985.985 0 0 0-.559-.021l-8 2A.998.998 0 0 0 0 4v18a.998.998 0 0 0 1.242.97l7.718-1.929 1.946.648A7.95 7.95 0 0 1 10 18z"/><path d="M24 19v-2h-2.141a3.954 3.954 0 0 0-.424-1.02l1.515-1.515-1.414-1.414-1.515 1.515a3.954 3.954 0 0 0-1.02-.424V12h-2v2.141a3.954 3.954 0 0 0-1.02.424l-1.515-1.515-1.414 1.414 1.515 1.515c-.186.316-.33.656-.424 1.02H12v2h2.141c.094.364.238.704.424 1.02l-1.515 1.515 1.414 1.414 1.515-1.515c.316.186.656.33 1.02.424V24h2v-2.141a3.954 3.954 0 0 0 1.02-.424l1.515 1.515 1.414-1.414-1.515-1.515c.186-.316.33-.656.424-1.02H24zm-6 0a1 1 0 1 1 0-2 1 1 0 0 1 0 2z" data-color="color-2"/></g></svg>
