<svg id="nc_icon" xmlns="http://www.w3.org/2000/svg" xml:space="preserve" viewBox="0 0 24 24"><g fill="currentColor" class="nc-icon-wrapper"><path d="M13 18a7 7 0 0 1 7-7c1.488 0 2.866.468 4 1.26V2a.998.998 0 0 0-.385-.788.989.989 0 0 0-.858-.182L15.04 2.959 9.316 1.052a.968.968 0 0 0-.559-.022l-8 2A1 1 0 0 0 0 4v18a.998.998 0 0 0 1.243.97l7.717-1.929 5.724 1.907c.131.043.269.05.406.037A6.974 6.974 0 0 1 13 18z"/><path d="M22 19c-.35 0-.675.098-.961.257l-2.042-1.225c0-.011.003-.021.003-.032s-.003-.021-.003-.032l2.042-1.225c.286.159.611.257.961.257 1.103 0 2-.897 2-2s-.897-2-2-2-2 .897-2 2c0 .011.003.021.003.032l-2.042 1.225A1.97 1.97 0 0 0 17 16c-1.103 0-2 .897-2 2s.897 2 2 2c.35 0 .675-.098.961-.257l2.042 1.225c0 .011-.003.021-.003.032 0 1.103.897 2 2 2s2-.897 2-2-.897-2-2-2z" data-color="color-2"/></g></svg>
