<svg id="nc_icon" xmlns="http://www.w3.org/2000/svg" xml:space="preserve" viewBox="0 0 24 24"><g fill="currentColor" class="nc-icon-wrapper"><path d="M12 18a7 7 0 0 1 7-7c1.96 0 3.729.808 5 2.106V2a.998.998 0 0 0-.385-.788.987.987 0 0 0-.857-.182L15.04 2.959 9.316 1.052a.985.985 0 0 0-.559-.021l-8 2A.998.998 0 0 0 0 4v18a.998.998 0 0 0 1.242.97l7.718-1.929 4.813 1.604A6.97 6.97 0 0 1 12 18z"/><path d="m22 17.586-2 2V13h-2v6.586l-2-2L14.586 19 19 23.414 23.414 19z" data-color="color-2"/></g></svg>
