<svg id="nc_icon" xmlns="http://www.w3.org/2000/svg" xml:space="preserve" viewBox="0 0 24 24"><g fill="currentColor" class="nc-icon-wrapper"><path d="m15.414 12.828-3.656 3.657c-1.131 1.131-3.112 1.131-4.243 0a3.005 3.005 0 0 1 0-4.243l3.657-3.656-4.243-4.243L3.272 8a8.94 8.94 0 0 0-2.636 6.364c0 2.403.936 4.663 2.636 6.363s3.96 2.636 6.364 2.636a8.94 8.94 0 0 0 6.363-2.636l3.657-3.656-4.242-4.243z"/><path d="m12.586 7.172 2-2a.997.997 0 0 0 0-1.414L11.757.929a1.03 1.03 0 0 0-1.414 0l-2 2 4.243 4.243zM23.071 12.243l-2.829-2.829a1.03 1.03 0 0 0-1.414 0l-2 2 4.243 4.243 2-2a.997.997 0 0 0 0-1.414z" data-color="color-2"/></g></svg>
