<svg id="nc_icon" xmlns="http://www.w3.org/2000/svg" xml:space="preserve" viewBox="0 0 24 24"><g fill="currentColor" class="nc-icon-wrapper"><path d="M1 23a.998.998 0 0 1-1-1V6h2v14.719l6.758-1.689a.994.994 0 0 1 .559.021l5.724 1.908 6.96-1.74V4h2v16a.999.999 0 0 1-.758.97l-8 2a.994.994 0 0 1-.559-.021L8.96 21.041l-7.718 1.93C1.162 22.99 1.081 23 1 23z" data-color="color-2"/><path d="M12 0C8.56 0 5 2.618 5 7c0 3.988 5.634 10.016 6.276 10.69a1.002 1.002 0 0 0 1.448 0C13.366 17.016 19 10.988 19 7c0-4.382-3.56-7-7-7zm0 9a2 2 0 1 1-.001-3.999A2 2 0 0 1 12 9z"/></g></svg>
