<svg id="nc_icon" xmlns="http://www.w3.org/2000/svg" viewBox="0 0 24 24"><g fill="currentColor" class="nc-icon-wrapper"><path d="m23.587 9.19-4-2.9a1 1 0 1 0-1.174 1.62l2.718 1.97L12 14.861l-9.131-4.98L5.587 7.91a1 1 0 1 0-1.174-1.62l-4 2.9A1 1 0 0 0 0 10v12a1 1 0 0 0 1 1h22a1 1 0 0 0 1-1V10a1 1 0 0 0-.413-.81z"/><path d="M11.362 10.463a1 1 0 0 0 1.276 0C13.366 9.86 17 6.729 17 4.23 17 2.419 15.614 1 13.846 1c-.679 0-1.32.205-1.846.575A3.202 3.202 0 0 0 10.154 1C8.386 1 7 2.42 7 4.231c0 2.498 3.634 5.63 4.362 6.232z" data-color="color-2"/></g></svg>
