<svg id="nc_icon" xmlns="http://www.w3.org/2000/svg" xml:space="preserve" viewBox="0 0 24 24"><g fill="currentColor" class="nc-icon-wrapper"><path d="m23.237 8.26-.338-.697C21.96 5.627 22 3.047 22 3.021l.03-1.624-1.465.702c-.025.012-2.55 1.204-5.462.906l-.993-.102-.104.992c-.079.736-.719 1.706-1.524 2.52-1.257-1.09-2.214-2.465-2.512-3.658l-.26-1.04-1.02.332c-2.69.88-5.344.012-5.368.004l-1.6-.542.294 1.666c.005.025.427 2.523-.824 4.233l-.576.788.776.595c1 .768 2.19 3.991 1.645 5.937l-.277.99.998.25c.89.223 1.81.559 2.624.943C7.232 14.632 9.426 13 12 13a6.01 6.01 0 0 1 5.734 4.233 19.394 19.394 0 0 1 3.508-1.263l1.003-.25-.283-.995c-.585-2.047-.09-5.302.686-5.964l.59-.502z"/><circle cx="12" cy="19" r="4" data-color="color-2"/></g></svg>
