<svg id="nc_icon" xmlns="http://www.w3.org/2000/svg" xml:space="preserve" viewBox="0 0 24 24"><g fill="currentColor" class="nc-icon-wrapper"><path d="M18 18a3 3 0 1 1 6 0c0 1.657-3 5-3 5s-3-3.343-3-5zM21 13a4.95 4.95 0 0 1 2 .424V3a2 2 0 1 0-4 0v10.424A4.95 4.95 0 0 1 21 13z" data-color="color-2"/><path d="M14 0H3a2 2 0 0 0-2 2v20a2 2 0 0 0 2 2h11a2 2 0 0 0 2-2V2a2 2 0 0 0-2-2zM8.5 21a1.5 1.5 0 1 1 .001-3.001A1.5 1.5 0 0 1 8.5 21zm4.5-7a1 1 0 0 1-1 1H5a1 1 0 0 1-1-1V4a1 1 0 0 1 1-1h7a1 1 0 0 1 1 1v10z"/></g></svg>
