<svg id="nc_icon" xmlns="http://www.w3.org/2000/svg" xml:space="preserve" viewBox="0 0 24 24"><path fill="currentColor" d="M21 9a2.99 2.99 0 0 0-2.816 2h-4.326C13.411 9.28 11.859 8 10 8c-.547 0-1.068.111-1.544.311L5.531 4.597A2.975 2.975 0 0 0 6 3a3 3 0 1 0-3 3c.337 0 .655-.068.957-.17l2.918 3.704C6.336 10.216 6 11.065 6 12s.336 1.784.875 2.466L3.957 18.17A2.975 2.975 0 0 0 3 18a3 3 0 1 0 3 3c0-.589-.176-1.134-.469-1.597l2.925-3.714c.476.2.997.311 1.544.311 1.859 0 3.411-1.28 3.858-3h4.326A2.99 2.99 0 0 0 21 15a3 3 0 1 0 0-6z" class="nc-icon-wrapper"/></svg>
