<svg id="nc_icon" xmlns="http://www.w3.org/2000/svg" xml:space="preserve" viewBox="0 0 24 24"><path fill="currentColor" d="M22 0H2a1 1 0 0 0-1 1v22a1 1 0 0 0 1 1h20a1 1 0 0 0 1-1V1a1 1 0 0 0-1-1zm-9.757 11.03c1.496.374 3.757.939 3.757 3.47 0 1.758-1.308 3.204-3 3.449V20h-2v-2.051c-1.692-.245-3-1.691-3-3.449h2c0 .827.673 1.5 1.5 1.5h1c.827 0 1.5-.673 1.5-1.5 0-.842-.505-1.096-2.243-1.53C10.261 12.596 8 12.031 8 9.5c0-1.758 1.308-3.204 3-3.449V4h2v2.051c1.692.245 3 1.691 3 3.449h-2c0-.827-.673-1.5-1.5-1.5h-1c-.827 0-1.5.673-1.5 1.5 0 .842.505 1.096 2.243 1.53z" class="nc-icon-wrapper"/></svg>
