<svg id="nc_icon" xmlns="http://www.w3.org/2000/svg" xml:space="preserve" viewBox="0 0 24 24"><g fill="currentColor" class="nc-icon-wrapper"><path d="M22.3 12.9c-.3-.3-.6-.4-1-.2-.7.2-1.5.3-2.3.3-4.4 0-8-3.6-8-8 0-.8.1-1.6.3-2.3.1-.4 0-.7-.2-1-.3-.3-.6-.4-1-.2C5.9 2.7 3 6.6 3 11c0 1.8.5 3.5 1.4 5H9c1.7 0 3 1.3 3 3 0 .7-.3 1.3-.7 1.9.5.1 1.1.1 1.7.1 4.4 0 8.3-2.9 9.6-7.1.1-.4 0-.7-.3-1z"/><path d="M9 20H1c-.6 0-1-.4-1-1s.4-1 1-1h8c.6 0 1 .4 1 1s-.4 1-1 1zM13 24H5c-.6 0-1-.4-1-1s.4-1 1-1h8c.6 0 1 .4 1 1s-.4 1-1 1z" data-color="color-2"/></g></svg>
