<svg id="nc_icon" xmlns="http://www.w3.org/2000/svg" xml:space="preserve" viewBox="0 0 24 24"><g fill="currentColor" class="nc-icon-wrapper"><path d="M24 7a1 1 0 0 0-1-1c-2.757 0-5-2.243-5-5a1 1 0 0 0-1-1c-3.195 0-6.261 2.118-6.923 6.169a6.502 6.502 0 0 0-4.113 2.928A4.828 4.828 0 0 0 5 9c-2.757 0-5 2.243-5 5s2.243 5 5 5h2.445c.367-.856 1.037-1.989 2.271-3.446.568-.673 1.401-1.059 2.284-1.059s1.716.386 2.285 1.06c1.233 1.457 1.903 2.589 2.27 3.445H19c2.757 0 5-2.243 5-5 0-1.21-.45-2.307-1.168-3.172A6.908 6.908 0 0 0 24 7zm-2.747 2.561A4.937 4.937 0 0 0 19 9c-.628 0-1.243.118-1.82.346a6.489 6.489 0 0 0-5.045-3.303 4.932 4.932 0 0 1 3.95-3.959 7.017 7.017 0 0 0 5.831 5.832 4.909 4.909 0 0 1-.663 1.645z"/><path d="M11.242 16.846C10.353 17.895 9 19.699 9 20.952 9 22.895 10.537 24 12 24s3-1.105 3-3.048c0-1.254-1.353-3.057-2.242-4.106a.994.994 0 0 0-1.516 0z" data-color="color-2"/></g></svg>
