<svg id="nc_icon" xmlns="http://www.w3.org/2000/svg" xml:space="preserve" viewBox="0 0 24 24"><g fill="currentColor" class="nc-icon-wrapper"><path d="M23 7h-4c-.6 0-1 .4-1 1v4H6V8c0-.6-.4-1-1-1H1c-.6 0-1 .4-1 1v15c0 .6.4 1 1 1h7c.6 0 1-.4 1-1v-1c0-1.7 1.3-3 3-3s3 1.3 3 3v1c0 .6.4 1 1 1h7c.6 0 1-.4 1-1V8c0-.6-.4-1-1-1z"/><path d="M8 8v2h8V7.4C15 6.5 13.5 6 12 6s-2.9.6-4 1.5V8zM24 5c0-1.4-1.8-3.2-2.3-3.7-.4-.4-1-.4-1.4 0-.5.5-2.3 2.3-2.3 3.7h6zM6 5c0-1.4-1.8-3.2-2.3-3.7-.4-.4-1-.4-1.4 0C1.8 1.8 0 3.6 0 5h6z" data-color="color-2"/></g></svg>
