<svg id="nc_icon" xmlns="http://www.w3.org/2000/svg" xml:space="preserve" viewBox="0 0 24 24"><path fill="currentColor" d="M22.1 12.1C23 10.9 24 9.2 24 7c0-4.4-4.5-5.9-4.7-6-.4-.1-.8 0-1 .2l-1 1c-.2.3-.3.6-.3.9 0 .3.2.6.5.7.8.5 1.5 1.4 1.5 1.7 0 .2-.1.3-.2.4l-1.4-.5c-2.9-1-6 0-7.8 2.4l-.1.2H7.4L5.7 6.3c-.1-.1-.3-.2-.5-.3l-4-1c-.3 0-.6 0-.8.2-.3.2-.4.5-.4.8v2c0 .3.1.5.3.7l2.8 2.6C1.3 12.1 0 13.9 0 16c0 2.8 2.2 5 5 5 2.4 0 4.4-1.7 4.9-4h4.2c.5 2.3 2.5 4 4.9 4 2.8 0 5-2.2 5-5 0-1.6-.8-3-1.9-3.9zM5 19c-1.7 0-3-1.3-3-3s1.3-3 3-3 3 1.3 3 3-1.3 3-3 3zm14 0c-1.7 0-3-1.3-3-3s1.3-3 3-3 3 1.3 3 3-1.3 3-3 3z" class="nc-icon-wrapper"/></svg>
