<svg id="nc_icon" xmlns="http://www.w3.org/2000/svg" xml:space="preserve" viewBox="0 0 24 24"><g fill="currentColor" class="nc-icon-wrapper"><g class="nc-loop_mouse-24"><path d="M14 24h-4c-3.364 0-6-2.636-6-6V6c0-3.364 2.636-6 6-6h4c3.364 0 6 2.636 6 6v12c0 3.364-2.636 6-6 6zM10 2C7.757 2 6 3.757 6 6v12c0 2.243 1.757 4 4 4h4c2.243 0 4-1.757 4-4V6c0-2.243-1.757-4-4-4h-4z"/><path d="M12 13.153c-1.16 0-2-.841-2-2v-3c0-1.159.84-2 2-2s2 .841 2 2v3c0 1.159-.84 2-2 2z" data-color="color-2"/></g><script>!function(){function t(t){this.element=t,this.wheel=this.element.querySelectorAll(&quot;*&quot;)[1],this.animationId,this.start=null,this.init()}if(!window.requestAnimationFrame){var i=null;window.requestAnimationFrame=function(t,n){var e=(new Date).getTime();i||(i=e);var a=Math.max(0,16-(e-i)),o=window.setTimeout(function(){t(e+a)},a);return i=e+a,o}}t.prototype.init=function(){var t=this;this.animationId=window.requestAnimationFrame(t.triggerAnimation.bind(t))},t.prototype.reset=function(){var t=this;window.cancelAnimationFrame(t.animationId)},t.prototype.triggerAnimation=function(t){var i=this;this.start||(this.start=t);var n=t-this.start,e=Math.min(n/85,10),a=e&gt;5?10-e:e;850&gt;n||(this.start=this.start+850),this.wheel.setAttribute(&quot;transform&quot;,&quot;translate(0 &quot;+a+&quot;)&quot;);if(document.documentElement.contains(this.element))window.requestAnimationFrame(i.triggerAnimation.bind(i))};var n=document.getElementsByClassName(&quot;nc-loop_mouse-24&quot;),e=[];if(n)for(var a=0;n.length&gt;a;a++)!function(i){e.push(new t(n[i]))}(a);document.addEventListener(&quot;visibilitychange&quot;,function(){&quot;hidden&quot;==document.visibilityState?e.forEach(function(t){t.reset()}):e.forEach(function(t){t.init()})})}();</script></g></svg>
