<svg id="nc_icon" xmlns="http://www.w3.org/2000/svg" xml:space="preserve" viewBox="0 0 24 24"><g fill="currentColor" class="nc-icon-wrapper"><path d="M11 3.414V9h2V3.414l3 3L17.414 5 12.707.293a.999.999 0 0 0-1.414 0L6.586 5 8 6.414l3-3z"/><path d="M9 13v-2H3.414l3-3L5 6.586.293 11.293a.999.999 0 0 0 0 1.414L5 17.414 6.414 16l-3-3H9z" data-color="color-2"/><path d="M13 20.586V15h-2v5.586l-3-3L6.586 19l4.707 4.707a.997.997 0 0 0 1.414 0L17.414 19 16 17.586l-3 3z"/><path d="M23.707 11.293 19 6.586 17.586 8l3 3H15v2h5.586l-3 3L19 17.414l4.707-4.707a.999.999 0 0 0 0-1.414z" data-color="color-2"/></g></svg>
