<svg id="nc_icon" xmlns="http://www.w3.org/2000/svg" xml:space="preserve" viewBox="0 0 24 24"><g fill="currentColor" class="nc-icon-wrapper"><path d="M19 3c-.4 0-.8 0-1.2.1C16.5 1.2 14.4 0 12 0S7.5 1.2 6.2 3.1C5.8 3 5.4 3 5 3 2.2 3 0 5.2 0 8s2.2 5 5 5c.9 0 1.7-.2 2.5-.7C8.7 13.4 10.3 14 12 14s3.3-.6 4.5-1.7c.8.4 1.6.7 2.5.7 2.8 0 5-2.2 5-5s-2.2-5-5-5z"/><path d="M19 15c-.8 0-1.5-.1-2.2-.4-1.5.9-3.1 1.4-4.8 1.4s-3.3-.5-4.8-1.4c-.7.3-1.4.4-2.2.4-.7 0-1.4-.1-2.1-.3L5 23.2c.1.5.5.8 1 .8h12c.5 0 .9-.3 1-.8l2.1-8.6c-.7.3-1.4.4-2.1.4z" data-color="color-2"/></g></svg>
