<svg id="nc_icon" xmlns="http://www.w3.org/2000/svg" xml:space="preserve" viewBox="0 0 24 24"><g fill="currentColor" class="nc-icon-wrapper"><circle cx="8.5" cy="8.5" r="2.5" data-color="color-2"/><path d="M24 10c0-3.335-5.188-10-12-10C5.187 0 0 6.665 0 10c0 2.17 2.936 3.734 6.702 4.489l-.506 2.53C5.577 20.113 7.944 23 11.1 23h1.802c3.155 0 5.522-2.887 4.903-5.98l-.503-2.515C21.046 13.774 24 12.245 24 10zm-12 3c-6.105 0-10-1.97-10-3 0-2.255 4.435-8 10-8 .033 0 .065.006.097.006-.056.329-.097.66-.097.994 0 3.309 2.691 6 6 6a5.93 5.93 0 0 0 3.322-1.01c.432.779.678 1.49.678 2.01 0 1.058-3.797 3-10 3z"/></g></svg>
