<svg id="nc_icon" xmlns="http://www.w3.org/2000/svg" xml:space="preserve" viewBox="0 0 24 24"><path fill="currentColor" d="M21.4 8.4c.9-.8 1.5-1.9 1.6-3.1 0-1.3-.4-2.6-1.4-3.5-.8-.8-2-1.3-3.2-1.3-1.4 0-2.7.6-3.5 1.7L11.1 7 9.4 5.2c-1.6-1.6-4.2-1.6-5.8 0S2 9.4 3.6 11L6 13.4 1.5 19c-.5.6-.6 1.5-.3 2.2.4.7 1.1 1.2 1.9 1.2.5 0 .9-.2 1.3-.5l5.5-4.4 5.7 5.7c.2.2.5.3.7.3s.5-.1.7-.3c.4-.4.4-1 0-1.4l-5.5-5.5 3.3-2.7.8.8c.8.8 1.9 1.2 2.9 1.2 1.1 0 2.1-.4 2.9-1.2 1.6-1.6 1.6-4.2 0-5.8v-.2zm-5-2.7 1.1-1.1c.4-.4 1-.4 1.4 0s.4 1 0 1.4l-1.1 1.1c-.2.2-.5.3-.7.3s-.5-.1-.7-.3c-.4-.4-.4-1 0-1.4zm-9.2 6.2L5 9.6c-.8-.8-.8-2.2 0-3 .8-.8 2.2-.8 3 0l1.9 1.9-2.7 3.4zM20.1 13c-.8.8-2.2.8-3 0l-.6-.6 3.3-2.7.3.3c.9.8.9 2.1 0 3z" class="nc-icon-wrapper"/></svg>
