<svg id="nc_icon" xmlns="http://www.w3.org/2000/svg" xml:space="preserve" viewBox="0 0 24 24"><g fill="currentColor" class="nc-icon-wrapper"><path d="M21.2 16.8c-.7.1-1.5.2-2.2.2-2.7 0-5.2-1-7.1-2.9C8.6 10.8 8 5.8 10.4 1.8c.2-.3.2-.8 0-1.1-.2-.3-.6-.5-1-.4-2.2.5-4.3 1.6-5.9 3.2C1.2 5.8 0 8.8 0 12s1.2 6.2 3.5 8.5S8.8 24 12 24s6.2-1.2 8.5-3.5c.6-.6 1.2-1.4 1.7-2.2.2-.3.2-.8 0-1.1-.2-.4-.6-.5-1-.4z"/><path d="M22.6 9.2c-.4-.5-.7-1.3-.7-2.2 0-.9.3-1.8.8-2.3.2-.2.3-.4.3-.7s-.1-.5-.3-.7c-.4-.4-1-.4-1.4 0-.5.5-1.4.8-2.3.8s-1.8-.3-2.3-.8c-.4-.4-1-.4-1.4 0-.2.2-.3.4-.3.7s.1.5.3.7c.5.5.8 1.4.8 2.3s-.3 1.8-.8 2.3c-.2.2-.3.4-.3.7s.1.5.3.7c.4.4 1 .4 1.4 0 .5-.5 1.4-.8 2.3-.8s1.8.3 2.3.8c.2.2.5.3.7.3.6 0 1-.4 1-1 0-.3-.1-.6-.4-.8z" data-color="color-2"/></g></svg>
