<svg id="nc_icon" xmlns="http://www.w3.org/2000/svg" xml:space="preserve" viewBox="0 0 24 24"><g fill="currentColor" class="nc-icon-wrapper"><path d="M14.019 8.567A3.947 3.947 0 0 0 12 8c-2.206 0-4 1.794-4 4 0 .74.215 1.424.567 2.019l5.452-5.452zM9.981 15.433A3.947 3.947 0 0 0 12 16c2.206 0 4-1.794 4-4 0-.74-.215-1.424-.567-2.019l-5.452 5.452z"/><path d="M22 0H2a1 1 0 0 0-1 1v22a1 1 0 0 0 1 1h20a1 1 0 0 0 1-1V1a1 1 0 0 0-1-1zM12 18c-3.309 0-6-2.691-6-6s2.691-6 6-6 6 2.691 6 6-2.691 6-6 6z"/></g></svg>
