<svg id="nc_icon" xmlns="http://www.w3.org/2000/svg" viewBox="0 0 24 24"><g fill="currentColor" class="nc-icon-wrapper"><path d="M22.506 9.775h-.742v4.45h.742A.516.516 0 0 0 23 13.73v-3.46a.516.516 0 0 0-.494-.495M22.506 14.719h-.742v4.45h.742a.516.516 0 0 0 .494-.5v-3.456a.516.516 0 0 0-.494-.494"/><path d="M22.506 4.831H21.27v-.755c0-.258-.312-.48-.322-.48h-6.6v2.471h4.944v.989h-4.944v1.236h4.944v.989h-4.944v1.236h4.944v.989h-4.944v1.236h4.944v.988h-4.944v1.236h4.944v.989h-4.944v1.236h4.944v.989h-4.944v2.22h6.427a.5.5 0 0 0 .5-.48V9.281h1.236A.516.516 0 0 0 23 8.787V5.319a.51.51 0 0 0-.494-.488" data-color="color-2"/><path d="M1 3.3v17.4l12.854 2.175V1.124Zm9.64 12.9-1.647-.1-2.845-5.241q-.058-.105-.108-.2c-.033-.063-.064-.122-.091-.177l-.074-.154c-.023-.048-.116-.091-.133-.131.006.074-.05.156-.045.247s0 .191 0 .3v5.176l-1.236-.064V7.921l1.571-.061 2.725 4.949.077.138.086.161.094.185c.033.065.068.134.1.208h.02c-.007-.051-.014-.113-.018-.187s-.022-.069-.025-.165 0-.189 0-.309V7.679l1.545-.092Z"/></g></svg>
