<svg id="nc_icon" xmlns="http://www.w3.org/2000/svg" viewBox="0 0 24 24"><path fill="currentColor" d="M16.74 4.974A2.943 2.943 0 0 1 15 2.256V1a1 1 0 0 0-1-1h-4a1 1 0 0 0-1 1v1.256a2.943 2.943 0 0 1-1.74 2.718A10.024 10.024 0 0 0 1 14c0 5.514 4.935 10 11 10s11-4.486 11-10a10.024 10.024 0 0 0-6.26-9.026ZM9.669 18.058l-1.338 1.486A7.424 7.424 0 0 1 6 14a7.424 7.424 0 0 1 2.331-5.544l1.338 1.486A5.5 5.5 0 0 0 8 14a5.5 5.5 0 0 0 1.669 4.058Zm6 1.486-1.338-1.486A5.5 5.5 0 0 0 16 14a5.5 5.5 0 0 0-1.669-4.058l1.338-1.486A7.424 7.424 0 0 1 18 14a7.424 7.424 0 0 1-2.331 5.544Z" class="nc-icon-wrapper"/></svg>
