<svg id="nc_icon" xmlns="http://www.w3.org/2000/svg" xml:space="preserve" viewBox="0 0 24 24"><g fill="currentColor" class="nc-icon-wrapper"><circle cx="7" cy="10" r="2" data-color="color-2"/><circle cx="17" cy="10" r="2" data-color="color-2"/><path d="M22.32 7.236A3.966 3.966 0 0 0 24 4h-4.019C18.154 1.577 15.261 0 12 0S5.846 1.577 4.019 4H0c0 1.34.667 2.513 1.68 3.236a5.98 5.98 0 0 0 1.123 7.045 4.955 4.955 0 0 0 .22 5.72 5.023 5.023 0 0 1 2.166-1.646C7.287 21.487 10 24 12 24s4.713-2.513 6.811-5.645c.86.34 1.608.906 2.166 1.645a4.955 4.955 0 0 0 .22-5.72 5.98 5.98 0 0 0 1.123-7.044zM7 14c-2.206 0-4-1.794-4-4s1.794-4 4-4 4 1.794 4 4-1.794 4-4 4zm5 3c-.552 0-1-1.448-1-2s.448-2 1-2 1 1.448 1 2-.448 2-1 2zm5-3c-2.206 0-4-1.794-4-4s1.794-4 4-4 4 1.794 4 4-1.794 4-4 4z"/></g></svg>
