<svg id="nc_icon" xmlns="http://www.w3.org/2000/svg" xml:space="preserve" viewBox="0 0 24 24"><g fill="currentColor" class="nc-icon-wrapper"><path d="M18 15c.808 0 1.573.331 2.131.893l-1.608 1.168 4.269.939.428-4.351-1.466 1.065A5.01 5.01 0 0 0 18 13a5 5 0 0 0-4.843 3.75l1.938.499A2.997 2.997 0 0 1 18 15zM18 22a3.009 3.009 0 0 1-2.131-.893l1.608-1.168L13.208 19l-.428 4.351 1.466-1.065A5.01 5.01 0 0 0 18 24a5 5 0 0 0 4.843-3.75l-1.938-.499A2.997 2.997 0 0 1 18 22z" data-color="color-2"/><path d="M11 21H3a1 1 0 0 1-1-1V4a1 1 0 0 1 1-1h12a1 1 0 0 1 1 1v7.294A6.99 6.99 0 0 1 18 11V3c0-1.654-1.346-3-3-3H3C1.346 0 0 1.346 0 3v18c0 1.654 1.346 3 3 3h8v-3z"/></g></svg>
