<svg id="nc_icon" xmlns="http://www.w3.org/2000/svg" xml:space="preserve" viewBox="0 0 24 24"><path fill="currentColor" d="M20.4 6.1c-1.1-.5-2.2-.8-3.4-.8-1.6 0-3 .5-4.3.9-.8.3-1.6.5-2.2.5-.4 0-.6-.1-.7-.3 0-.1.1-.6.2-.9.3-.9.6-2-.2-3.1-.5-.6-1.3-1-2.2-1-.9 0-1.7.3-2.5.8C1.9 4.4 0 8.1 0 12c0 6.6 5.4 12 12 12 5.3 0 10.1-3.6 11.6-8.8.1-.6 1.5-6.8-3.2-9.1zM3 12c0-1.1.9-2 2-2s2 .9 2 2-.9 2-2 2-2-.9-2-2zm4.5 7c-1.1 0-2-.9-2-2s.9-2 2-2 2 .9 2 2-.9 2-2 2zm5.5 2c-1.1 0-2-.9-2-2s.9-2 2-2 2 .9 2 2-.9 2-2 2zm4-6c-1.7 0-3-1.3-3-3s1.3-3 3-3 3 1.3 3 3-1.3 3-3 3z" class="nc-icon-wrapper"/></svg>
