<svg id="nc_icon" xmlns="http://www.w3.org/2000/svg" xml:space="preserve" viewBox="0 0 24 24"><g fill="currentColor" class="nc-icon-wrapper"><path d="M14 15h-4c-.572 0-1.086.318-1.342.83A1.49 1.49 0 0 0 8.8 17.4l2 2.667c.286.381.723.6 1.2.6s.914-.219 1.2-.6l2-2.667c.343-.457.398-1.06.142-1.57A1.492 1.492 0 0 0 14 15z"/><path d="M22.836 9.646c-.266-.701-.595-1.409-.978-2.103A4.002 4.002 0 0 0 24 4c0-2.206-1.794-4-4-4-1.44 0-2.778.841-3.504 2.084C15.171 1.408 13.672 1 12 1s-3.17.408-4.496 1.084C6.778.84 5.44 0 4 0 1.794 0 0 1.794 0 4c0 1.526.86 2.87 2.141 3.542a16.531 16.531 0 0 0-.978 2.104C.041 12.609-.835 16.81 1.368 20 3.2 22.654 6.778 24 12 24s8.8-1.346 10.632-3.999c2.203-3.19 1.327-7.392.205-10.355h-.001zm-1.85 9.218C19.55 20.945 16.526 22 12 22s-7.55-1.055-8.986-3.136c-1.71-2.475-.933-5.994.02-8.51C3.498 9.126 6.12 3 12 3s8.501 6.126 8.967 7.354c.952 2.516 1.73 6.035.02 8.51z"/><path d="M9.639 12.38c.902-1.283.98-1.794.755-2.677-.428-1.675-1.495-2.026-2.313-2.026-2.033 0-3.62 2.744-3.639 4.116-.011.824.322 1.683.871 2.24.386.39.84.598 1.312.598 1.263 0 2.232-1.138 3.014-2.251zM15.919 7.677c-.818 0-1.885.351-2.313 2.026-.225.883-.147 1.394.755 2.677.782 1.113 1.751 2.25 3.014 2.25.473 0 .926-.206 1.312-.597.55-.557.882-1.416.87-2.239-.019-1.373-1.605-4.117-3.638-4.117z" data-color="color-2"/></g></svg>
