<svg id="nc_icon" xmlns="http://www.w3.org/2000/svg" xml:space="preserve" viewBox="0 0 24 24"><g fill="currentColor" class="nc-icon-wrapper"><path d="M16.5 10A4.5 4.5 0 0 1 12 5.5v-1a4.5 4.5 0 0 1 9 0v1a4.5 4.5 0 0 1-4.5 4.5z" data-color="color-2"/><path d="M7 16a4 4 0 0 1-4-4v-1a4 4 0 0 1 8 0v1a4 4 0 0 1-4 4z"/><path d="M19 11h-5c-.343 0-.677.035-1 .101V12a5.943 5.943 0 0 1-1.206 3.586C14.266 16.667 16 19.134 16 22v2h7a1 1 0 0 0 1-1v-7a5 5 0 0 0-5-5z" data-color="color-2"/><path d="M13 24H1a1 1 0 0 1-1-1v-1a5 5 0 0 1 5-5h4a5 5 0 0 1 5 5v1a1 1 0 0 1-1 1z"/></g></svg>
