<svg id="nc_icon" xmlns="http://www.w3.org/2000/svg" xml:space="preserve" viewBox="0 0 24 24"><g fill="currentColor" class="nc-icon-wrapper"><path d="M12 10c-6.461 0-10.657 6.183-10.832 6.445a1 1 0 0 0 0 1.109C1.343 17.817 5.539 24 12 24s10.657-6.183 10.832-6.445a1 1 0 0 0 0-1.109C22.657 16.183 18.461 10 12 10Zm0 12c-4.348 0-7.632-3.593-8.752-5 1.12-1.407 4.4-5 8.752-5s7.632 3.593 8.752 5c-1.12 1.407-4.404 5-8.752 5Z"/><circle cx="12" cy="17" r="3"/><path d="M14.5 5.669A5 5 0 0 0 7.669 7.5l1.731 1a3 3 0 0 1 5.2 0l1.732-1A5 5 0 0 0 14.5 5.669Z" data-color="color-2"/><path d="M15.665 2.885a7.951 7.951 0 0 1 3.446 3.446l1.778-.916a10 10 0 0 0-17.778 0l1.777.916a8.01 8.01 0 0 1 10.777-3.446Z" data-color="color-2"/></g></svg>
