<svg id="nc_icon" xmlns="http://www.w3.org/2000/svg" xml:space="preserve" viewBox="0 0 24 24"><g fill="currentColor" class="nc-icon-wrapper"><path d="M9.607 6.814v5.02c1.246 0 2.889.111 3.877-.625a2.635 2.635 0 0 0 .088-3.789c-.947-.762-2.592-.606-3.965-.606Z"/><path d="M23 0H1a1 1 0 0 0-1 1v22a1 1 0 0 0 1 1h22a1 1 0 0 0 1-1V1a1 1 0 0 0-1-1Zm-7.738 12.605a6.456 6.456 0 0 1-4.17 1.191H9.607v5.342H7.273V4.861h4.111a6.218 6.218 0 0 1 4.009 1.094 3.927 3.927 0 0 1 1.333 3.223 4.162 4.162 0 0 1-1.464 3.427Z"/></g></svg>
