<svg id="nc_icon" xmlns="http://www.w3.org/2000/svg" xml:space="preserve" viewBox="0 0 24 24"><g fill="currentColor" class="nc-icon-wrapper"><path d="m1.756 12.829-.879.879a3.002 3.002 0 0 0 0 4.242l5.172 5.172c.567.566 1.32.878 2.121.878s1.555-.312 2.121-.878l.879-.879-9.414-9.414zM23.123 6.021 17.951.85c-1.133-1.133-3.109-1.133-4.242 0l-.879.879 9.414 9.414.879-.879a3.005 3.005 0 0 0 0-4.243z" data-color="color-2"/><path d="m11.429 3.157-8.258 8.258 9.414 9.414 8.258-8.258-9.414-9.414zM9 13a1 1 0 1 1 0-2 1 1 0 0 1 0 2zm3 3a1 1 0 1 1 0-2 1 1 0 0 1 0 2zm0-6a1 1 0 1 1 0-2 1 1 0 0 1 0 2zm3 3a1 1 0 1 1 0-2 1 1 0 0 1 0 2z"/></g></svg>
