<svg id="nc_icon" xmlns="http://www.w3.org/2000/svg" xml:space="preserve" viewBox="0 0 24 24"><g fill="currentColor" class="nc-icon-wrapper"><circle cx="12" cy="11" r="2" data-color="color-2"/><path d="M19 4V1.5a1.5 1.5 0 0 0-3 0V4h-1V1.5a1.5 1.5 0 0 0-3 0V4h-1V1.5a1.5 1.5 0 0 0-3 0V4H7V1.5a1.5 1.5 0 0 0-3 0V4H0v14h4.262c.889 3.449 4.011 6 7.738 6s6.848-2.551 7.738-6H24V4h-5zm3 12h-2V8a4 4 0 0 0-4 4v3a3.963 3.963 0 0 0-2.62 1c-1.38 1.281-1.88 3.031-1.88 3.031s-.515-1.3-.272-3.031H2V6h20v10z"/></g></svg>
