<svg id="nc_icon" xmlns="http://www.w3.org/2000/svg" xml:space="preserve" viewBox="0 0 24 24"><g fill="currentColor" class="nc-icon-wrapper"><path d="m23.707 10.293-10-10a.999.999 0 0 0-1.414 0l-2 2a.999.999 0 0 0 0 1.414l10 10a.997.997 0 0 0 1.414 0l2-2a.999.999 0 0 0 0-1.414z" data-color="color-2"/><path d="M9.592 5.835 3.649 8.063a1 1 0 0 0-.637.785L.351 22.235 6.3 16.286A2.969 2.969 0 0 1 6 15a3 3 0 1 1 3 3c-.462 0-.895-.113-1.286-.3l-5.949 5.949 13.387-2.661c.357-.055.657-.299.784-.637l2.229-5.944-8.573-8.572z"/></g></svg>
