<svg id="nc_icon" xmlns="http://www.w3.org/2000/svg" xml:space="preserve" viewBox="0 0 24 24"><g fill="currentColor" class="nc-icon-wrapper"><path d="M16.293 14.293 13 17.586 6.414 11l3.293-3.293a.999.999 0 0 0 0-1.414l-5-5a.999.999 0 0 0-1.414 0L0 4.586C0 15.653 8.345 24 19.414 24l3.293-3.293a.999.999 0 0 0 0-1.414l-5-5a1 1 0 0 0-1.414 0z"/><path d="M24 10h-2c0-4.411-3.589-8-8-8V0c5.514 0 10 4.486 10 10z" data-color="color-2"/><path d="M20 10h-2c0-2.206-1.794-4-4-4V4c3.309 0 6 2.691 6 6z" data-color="color-2"/></g></svg>
