<svg id="nc_icon" xmlns="http://www.w3.org/2000/svg" viewBox="0 0 24 24"><path fill="currentColor" d="M22.533 5.045a5.162 5.162 0 0 0-.98-1.42A9.968 9.968 0 0 0 22.918 1.4L21.082.6a7.98 7.98 0 0 1-1.177 1.863c-.094-.041-.178-.1-.276-.135a5.195 5.195 0 0 0-6.686 3.042 16.432 16.432 0 0 1-.727 1.652C12.143 7.017 12.074 7 12 7a2.985 2.985 0 0 0-2.786 4.1 12.53 12.53 0 0 1-4.662 2.78 5.192 5.192 0 1 0 3.285 9.851 23.257 23.257 0 0 0 3.3-1.4A2.969 2.969 0 0 0 13 23a3 3 0 0 0 3-3 2.964 2.964 0 0 0-.147-.882 25.151 25.151 0 0 0 6.815-10.1 5.161 5.161 0 0 0-.135-3.973ZM7 19a1 1 0 1 1 1-1 1 1 0 0 1-1 1Zm6-3a1 1 0 1 1 1-1 1 1 0 0 1-1 1Zm3-6a1 1 0 1 1 1-1 1 1 0 0 1-1 1Z" class="nc-icon-wrapper"/></svg>
