<svg id="nc_icon" xmlns="http://www.w3.org/2000/svg" xml:space="preserve" viewBox="0 0 24 24"><g fill="currentColor" class="nc-icon-wrapper"><path d="M24 0h-1c-3.587 0-6.265.822-7.996 2.428C14.048 2.155 13.043 2 12 2s-2.048.155-3.004.428C7.265.822 4.587 0 1 0H0v1c0 4.126.279 6.415 1.762 8.006A10.926 10.926 0 0 0 1 13c0 6.065 4.935 11 11 11s11-4.935 11-11c0-1.41-.276-2.754-.762-3.994C23.721 7.415 24 5.126 24 1V0zM6 8.5a1.5 1.5 0 1 1 3 0 1.5 1.5 0 0 1-3 0zM13 20h-2a4 4 0 1 1 0-8h2a4 4 0 1 1 0 8zm3.5-10a1.5 1.5 0 1 1 0-3 1.5 1.5 0 0 1 0 3z"/><circle cx="10" cy="16" r="1" data-color="color-2"/><circle cx="14" cy="16" r="1" data-color="color-2"/></g></svg>
