<svg id="nc_icon" xmlns="http://www.w3.org/2000/svg" xml:space="preserve" viewBox="0 0 24 24"><g fill="currentColor" class="nc-icon-wrapper"><path d="M16 0a8.223 8.223 0 0 0-4.76 1.55C14.92 2.796 18 6.131 18 11c0 2.685-1.638 5.724-3.466 8.288.362.389.638.673.756.792a1 1 0 0 0 1.42 0C17.456 19.327 24 12.6 24 8c0-5.008-4.067-8-8-8z" data-color="color-2"/><path d="M8 3c-3.933 0-8 2.992-8 8 0 4.6 6.544 11.327 7.29 12.08a1 1 0 0 0 1.42 0C9.456 22.327 16 15.6 16 11c0-5.008-4.067-8-8-8zm0 10a2 2 0 1 1-.001-3.999A2 2 0 0 1 8 13z"/></g></svg>
