<svg id="nc_icon" xmlns="http://www.w3.org/2000/svg" xml:space="preserve" viewBox="0 0 24 24"><g fill="currentColor" class="nc-icon-wrapper"><path d="M11 19a7 7 0 0 1 7-7c.111 0 .219.011.329.017C18.742 10.963 19 9.937 19 9c0-5.634-4.576-9-9-9S1 3.366 1 9c0 5.289 7.952 13.363 8.29 13.705a1 1 0 0 0 1.42 0c.062-.063.387-.393.871-.917A6.97 6.97 0 0 1 11 19zm-1-7a3 3 0 1 1 0-6 3 3 0 0 1 0 6z"/><path d="M22.414 16 21 14.586l-3 3-3-3L13.586 16l3 3-3 3L15 23.414l3-3 3 3L22.414 22l-3-3z" data-color="color-2"/></g></svg>
