<svg id="nc_icon" xmlns="http://www.w3.org/2000/svg" xml:space="preserve" viewBox="0 0 24 24"><g fill="currentColor" class="nc-icon-wrapper"><path d="M9.003 20.997c0-.803.312-1.557.881-2.123l6.788-6.788A3.679 3.679 0 0 1 19.293 11c.128 0 .252.024.378.037C19.878 10.33 20 9.644 20 9c0-5.634-4.576-9-9-9S2 3.366 2 9c0 4.058 4.671 9.743 7.003 12.329v-.332zM11 6a3 3 0 1 1 0 6 3 3 0 0 1 0-6z"/><path d="m18.086 13.5-6.79 6.79a1 1 0 0 0-.293.707v2h2a1 1 0 0 0 .707-.293l6.79-6.79a1.706 1.706 0 1 0-2.414-2.414z" data-color="color-2"/></g></svg>
