<svg id="nc_icon" xmlns="http://www.w3.org/2000/svg" xml:space="preserve" viewBox="0 0 24 24"><g fill="currentColor" class="nc-icon-wrapper"><path d="M11 18a7 7 0 0 1 7.672-6.966C18.879 10.328 19 9.643 19 9c0-5.634-4.576-9-9-9S1 3.366 1 9c0 5.289 7.952 13.363 8.29 13.705a1 1 0 0 0 1.42 0c.075-.076.538-.549 1.193-1.272A6.971 6.971 0 0 1 11 18zm-1-6a3 3 0 1 1 0-6 3 3 0 0 1 0 6z"/><path d="M18 15c.808 0 1.573.331 2.131.893l-1.608 1.168 4.269.939.428-4.351-1.466 1.065A5.014 5.014 0 0 0 18 13a4.996 4.996 0 0 0-4.842 3.751l1.937.498A2.997 2.997 0 0 1 18 15zM18 22a3.009 3.009 0 0 1-2.131-.893l1.608-1.168L13.208 19l-.428 4.351 1.466-1.065A5.014 5.014 0 0 0 18 24a4.996 4.996 0 0 0 4.842-3.751l-1.937-.498A2.997 2.997 0 0 1 18 22z" data-color="color-2"/></g></svg>
