<svg id="nc_icon" xmlns="http://www.w3.org/2000/svg" xml:space="preserve" viewBox="0 0 24 24"><g fill="currentColor" class="nc-icon-wrapper"><path d="M11 18c0-3.309 2.691-6 6-6 .765 0 1.494.149 2.168.411C19.676 11.219 20 10.054 20 9c0-5.634-4.576-9-9-9S2 3.366 2 9c0 5.289 7.952 13.363 8.29 13.705a1 1 0 0 0 1.42 0c.057-.057.341-.347.753-.79A5.972 5.972 0 0 1 11 18zM8 9a3 3 0 1 1 6 0 3 3 0 0 1-6 0z"/><path d="m22.707 22.293-2.274-2.274A3.947 3.947 0 0 0 21 18c0-2.206-1.794-4-4-4s-4 1.794-4 4 1.794 4 4 4c.74 0 1.424-.215 2.019-.567l2.274 2.274 1.414-1.414zM17 20c-1.103 0-2-.897-2-2s.897-2 2-2 2 .897 2 2-.897 2-2 2z" data-color="color-2"/></g></svg>
