<svg id="nc_icon" xmlns="http://www.w3.org/2000/svg" xml:space="preserve" viewBox="0 0 24 24"><g fill="currentColor" class="nc-icon-wrapper"><path d="m6.672 15.914-5.379 5.379a.999.999 0 1 0 1.414 1.414l5.379-5.379-1.414-1.414z" data-color="color-2"/><path d="m23.707 7.293-7-7a.999.999 0 1 0-1.414 1.414l.908.908L5.18 8.766 3.707 7.293a.999.999 0 1 0-1.414 1.414l13 13a.997.997 0 0 0 1.414 0 .999.999 0 0 0 0-1.414l-1.473-1.473 6.151-11.021.908.908a.997.997 0 0 0 1.414 0 .999.999 0 0 0 0-1.414z"/></g></svg>
