<svg id="nc_icon" xmlns="http://www.w3.org/2000/svg" xml:space="preserve" viewBox="0 0 24 24"><g fill="currentColor" class="nc-icon-wrapper"><path d="M5 0C2.542 0 0 1.87 0 5c0 2.838 3.894 6.358 4.338 6.75l.662.584.662-.584C6.106 11.358 10 7.838 10 5c0-3.13-2.542-5-5-5zm0 6a1 1 0 1 1 0-2 1 1 0 0 1 0 2zM19 0c-2.458 0-5 1.87-5 5 0 2.838 3.894 6.358 4.338 6.75l.662.584.662-.584C20.106 11.358 24 7.838 24 5c0-3.13-2.542-5-5-5zm0 6a1 1 0 1 1 0-2 1 1 0 0 1 0 2z"/><path d="M12 11c-2.458 0-5 1.87-5 5 0 2.838 3.894 6.358 4.338 6.75l.662.584.662-.584C13.106 22.358 17 18.838 17 16c0-3.13-2.542-5-5-5zm0 6a1 1 0 1 1 0-2 1 1 0 0 1 0 2z" data-color="color-2"/></g></svg>
