<svg id="nc_icon" xmlns="http://www.w3.org/2000/svg" xml:space="preserve" viewBox="0 0 24 24"><path fill="currentColor" d="M12 0C5.4 0 0 5.4 0 12s5.4 12 12 12c.6 0 1-.4 1-1V13h10c.6 0 1-.4 1-1 0-6.6-5.4-12-12-12zm-1 22c-4.7-.5-8.5-4.2-8.9-9h2c.5 3.6 3.3 6.5 6.9 6.9V22zM8 9c0-.6.4-1 1-1s1 .4 1 1-.4 1-1 1-1-.4-1-1zm2 6c-.6 0-1-.4-1-1s.4-1 1-1 1 .4 1 1-.4 1-1 1zm1-10.9c-3.6.4-6.5 3.3-6.9 6.9h-2c.4-4.7 4.2-8.5 8.9-8.9v2zM15 9c-.6 0-1-.4-1-1s.4-1 1-1 1 .4 1 1-.4 1-1 1zm4.9 2c-.5-3.6-3.3-6.5-6.9-6.9v-2c4.7.5 8.5 4.2 9 8.9h-2.1z" class="nc-icon-wrapper"/></svg>
