<svg id="nc_icon" xmlns="http://www.w3.org/2000/svg" xml:space="preserve" viewBox="0 0 24 24"><g fill="currentColor" class="nc-icon-wrapper"><path d="m6.611 8.904 4.978-4.977L6.454.504a3.009 3.009 0 0 0-3.785.375L.293 3.255a1.001 1.001 0 0 0 .152 1.539l6.166 4.11zM20.073 12.411l-4.978 4.978 4.111 6.166a.996.996 0 0 0 .832.445.997.997 0 0 0 .707-.293l2.376-2.376a3.01 3.01 0 0 0 .375-3.786l-3.423-5.134z" data-color="color-2"/><path d="M21.828 2.172c-1.51-1.512-4.146-1.512-5.656 0L6.394 11.95a1.008 1.008 0 0 0-.171.228l-1.69 3.095-3.453-.27c-.926-.071-1.44 1.048-.784 1.704l2.24 2.224-1.414 2.589A.999.999 0 0 0 2 23a1 1 0 0 0 .479-.122l2.589-1.413 2.224 2.24c.656.656 1.775.142 1.704-.784l-.27-3.453 3.095-1.69c.083-.046.16-.104.228-.171l9.778-9.778C22.584 7.073 23 6.068 23 5s-.416-2.073-1.172-2.828z"/></g></svg>
