<svg id="nc_icon" xmlns="http://www.w3.org/2000/svg" xml:space="preserve" viewBox="0 0 24 24"><g fill="currentColor" class="nc-icon-wrapper"><path d="M12.02 9.268h-1.125V11.5h1.184c.5 0 .869-.096 1.107-.287s.357-.484.357-.879c0-.711-.508-1.066-1.523-1.066zM13.019 7.598c.221-.152.331-.404.331-.756 0-.328-.12-.563-.36-.706s-.62-.214-1.14-.214h-.955v1.904h1.055c.491 0 .848-.076 1.069-.228z"/><path d="M17.924 2.231C16.23.768 13.965-.019 11.757.002a9.26 9.26 0 0 0-6.069 2.489C3.866 4.204 2.894 6.584 2.949 9.192c.113 5.287 8.233 13.191 8.579 13.525.187.18.436.281.695.281h.021c.267-.006.52-.118.704-.311.331-.348 8.11-8.589 7.998-13.877-.056-2.608-1.129-4.944-3.022-6.579zm-3.341 10.113c-.564.437-1.331.656-2.3.656H9.078V4.434h2.666c1.215 0 2.097.173 2.646.519s.823.896.823 1.649c0 .512-.12.932-.36 1.26s-.56.525-.958.592v.059c.543.121.935.348 1.175.68s.36.773.36 1.324c0 .78-.283 1.389-.847 1.827z"/></g></svg>
