<svg id="nc_icon" xmlns="http://www.w3.org/2000/svg" xml:space="preserve" viewBox="0 0 24 24"><g fill="currentColor" class="nc-icon-wrapper"><path d="M5 20c.6 0 1-.4 1-1v-2h12v2c0 .6.4 1 1 1s1-.4 1-1V3c0-1.7-1.3-3-3-3-.6 0-1 .4-1 1s.4 1 1 1 1 .4 1 1v2H6V3c0-.6.4-1 1-1s1-.4 1-1-.4-1-1-1C5.3 0 4 1.3 4 3v16c0 .6.4 1 1 1zm1-5v-3h12v3H6zm12-8v3H6V7h12z"/><path d="M23 18c-.6 0-1 .4-1 1 0 1.7-1.3 3-3 3-1.1 0-2.1-.6-2.6-1.6-.4-.6-1.4-.6-1.8 0-.5 1-1.5 1.6-2.6 1.6s-2.1-.6-2.6-1.6c-.4-.6-1.4-.6-1.8 0-.5 1-1.5 1.6-2.6 1.6-1.7 0-3-1.3-3-3 0-.6-.4-1-1-1s-1 .4-1 1c0 2.8 2.2 5 5 5 1.3 0 2.6-.5 3.5-1.5.9 1 2.2 1.5 3.5 1.5 1.3 0 2.6-.5 3.5-1.5.9.9 2.2 1.5 3.5 1.5 2.8 0 5-2.2 5-5 0-.6-.4-1-1-1z" data-color="color-2"/></g></svg>
