<svg id="nc_icon" xmlns="http://www.w3.org/2000/svg" xml:space="preserve" viewBox="0 0 24 24"><g fill="currentColor" class="nc-icon-wrapper"><path d="M22.692 7.546A11.957 11.957 0 0 0 12 1C7.47 1 3.373 3.508 1.309 7.545a1 1 0 0 0 1.78.91A9.967 9.967 0 0 1 12 3c3.777 0 7.19 2.09 8.91 5.457a1 1 0 1 0 1.782-.91z" data-color="color-2"/><path d="M9.552 8.404 7.79 6.034l-.041 2.953c-.022 1.606-.103 9.7.48 11.347a3.972 3.972 0 0 0 2.048 2.275 3.982 3.982 0 0 0 3.057.16 4.004 4.004 0 0 0 2.436-5.105c-.575-1.622-5.28-7.998-6.218-9.26z"/></g></svg>
