<svg id="nc_icon" xmlns="http://www.w3.org/2000/svg" xml:space="preserve" viewBox="0 0 24 24"><g fill="currentColor" class="nc-icon-wrapper"><path d="M5 13V1a1 1 0 0 0-2 0v12h2zM7 15H1a1 1 0 0 0-1 1v4a1 1 0 0 0 1 1h2v2a1 1 0 0 0 2 0v-2h2a1 1 0 0 0 1-1v-4a1 1 0 0 0-1-1z"/><path d="M13 3V1a1 1 0 0 0-2 0v2h2zM16 6a1 1 0 0 0-1-1H9a1 1 0 0 0-1 1v4a1 1 0 0 0 1 1h2v12a1 1 0 0 0 2 0V11h2a1 1 0 0 0 1-1V6z" data-color="color-2"/><path d="M21 13V1a1 1 0 0 0-2 0v12h2zM23 15h-6a1 1 0 0 0-1 1v4a1 1 0 0 0 1 1h2v2a1 1 0 0 0 2 0v-2h2a1 1 0 0 0 1-1v-4a1 1 0 0 0-1-1z"/></g></svg>
