<svg id="nc_icon" xmlns="http://www.w3.org/2000/svg" xml:space="preserve" viewBox="0 0 24 24"><g fill="currentColor" class="nc-icon-wrapper"><path d="M23.4 7.1c-.4-1-1.2-2.2-2.5-3.4-2.5-2.5-5.6-4.3-7.1-2.8L9.7 5.1C8.4 6.4 8 8 7.6 9.5c-.3 1.3-.6 2.5-1.5 3.4-.2.2-.3.5-.3.7s.1.5.3.7l3.5 3.5c.2.2.5.3.7.3s.5-.1.7-.3c.8-.8 2.1-1.2 3.4-1.5 1.5-.4 3.1-.8 4.4-2l4.2-4.2c.5-.4 1.1-1.4.4-3z"/><path d="m7.5 18.5-2.1-2.1-2 2c-.8-.8-2-.8-2.8 0-.8.8-.8 2 0 2.8.4.4 1 .6 1.5.6 0 .6.1 1.1.6 1.5.8.8 2 .8 2.8 0 .8-.8.8-2 0-2.8l2-2z" data-color="color-2"/></g></svg>
