<svg id="nc_icon" xmlns="http://www.w3.org/2000/svg" xml:space="preserve" viewBox="0 0 24 24"><g fill="currentColor" class="nc-icon-wrapper"><path d="M20 9h-1V7c0-1.7-1.3-3-3-3H6C4.3 4 3 5.3 3 7v10c0 1.7 1.3 3 3 3h10c1.7 0 3-1.3 3-3v-2h1c.6 0 1-.4 1-1v-4c0-.6-.4-1-1-1zm-5 4h-.6l-1.7 1.7c-.2.2-.4.3-.7.3h-.2c-.3-.1-.6-.3-.7-.5l-1.4-2.8-1 1c-.2.2-.4.3-.7.3H7c-.6 0-1-.4-1-1s.4-1 1-1h.6l1.7-1.7c.2-.2.5-.3.9-.3.3.1.6.3.7.5l1.4 2.8 1-1c.2-.2.4-.3.7-.3h1c.6 0 1 .4 1 1s-.4 1-1 1z"/><path d="M16.3 2 16 .8c-.1-.5-.5-.8-1-.8H7c-.5 0-.9.3-1 .8L5.7 2h10.6zM5.7 22l.3 1.2c.1.5.5.8 1 .8h8c.5 0 .9-.3 1-.8l.3-1.2H5.7z" data-color="color-2"/></g></svg>
