<svg id="nc_icon" xmlns="http://www.w3.org/2000/svg" xml:space="preserve" viewBox="0 0 24 24"><g fill="currentColor" class="nc-icon-wrapper"><path d="M22.837 2.1C22.582 1.07 22.028.573 21.608.337c-2.592-1.458-6.883 2.572-8.46 5.139-.455.74-.892 1.633-1.262 2.575a7.533 7.533 0 0 0-3.107.282C5.376 9.374 3 12.707 3 16.438V18c0 3.309 2.691 6 6 6h1.782c4.027 0 7.43-2.78 8.097-6.61a7.98 7.98 0 0 0-.347-4.072c.89-.864 1.711-1.85 2.309-2.776 1.233-1.913 2.589-6.05 1.996-8.443zM8.5 17a1.5 1.5 0 1 1 0-3 1.5 1.5 0 0 1 0 3z"/><path d="M8.194 6.422a9.56 9.56 0 0 1 2.399-.414c.268-.565.555-1.097.85-1.577.122-.2.276-.425.444-.66-.75-1.443-1.65-2.684-2.563-3.307-.576-.393-1.148-.54-1.698-.43-.379.073-.919.312-1.347 1.026-.833 1.394-.921 4.174-.64 6.587a9.686 9.686 0 0 1 2.555-1.225z" data-color="color-2"/></g></svg>
