<svg id="nc_icon" xmlns="http://www.w3.org/2000/svg" xml:space="preserve" viewBox="0 0 24 24"><g fill="currentColor" class="nc-icon-wrapper"><path d="m17.536 16.95-1.414-1.414.707-.707a4.004 4.004 0 0 0 0-5.657l-.707-.707 1.414-1.414.707.707a6.007 6.007 0 0 1 0 8.485l-.707.707z"/><path d="m20.364 19.778-1.414-1.414.707-.707c3.119-3.119 3.119-8.194 0-11.313l-.707-.708 1.414-1.414.707.707c3.899 3.899 3.899 10.243 0 14.142l-.707.707zM6.464 16.95l-.707-.707a6.007 6.007 0 0 1 0-8.485l.707-.708 1.414 1.414-.707.707a4.004 4.004 0 0 0 0 5.657l.707.707-1.414 1.415z"/><path d="m3.636 19.778-.707-.707C-.97 15.172-.97 8.828 2.929 4.929l.707-.707L5.05 5.636l-.707.707c-3.119 3.119-3.119 8.194 0 11.313l.707.707-1.414 1.415z"/><path d="M12 15c-1.654 0-3-1.346-3-3s1.346-3 3-3 3 1.346 3 3-1.346 3-3 3z" data-color="color-2"/></g></svg>
