<svg id="nc_icon" xmlns="http://www.w3.org/2000/svg" xml:space="preserve" viewBox="0 0 24 24"><g fill="currentColor" class="nc-icon-wrapper"><path d="m21.293 2.293-7 7a.999.999 0 1 0 1.414 1.414l7-7a.999.999 0 1 0-1.414-1.414zM21.293 9.293l-7 7a.999.999 0 1 0 1.414 1.414l7-7a.999.999 0 1 0-1.414-1.414zM12.707 5.293a.999.999 0 0 0-1.414 0l-7 7a.999.999 0 1 0 1.414 1.414l7-7a.999.999 0 0 0 0-1.414z"/><circle cx="2" cy="16" r="1" data-color="color-2"/><circle cx="12" cy="13" r="1" data-color="color-2"/><circle cx="12" cy="20" r="1" data-color="color-2"/></g></svg>
