<svg id="nc_icon" xmlns="http://www.w3.org/2000/svg" xml:space="preserve" viewBox="0 0 24 24"><g fill="currentColor" class="nc-icon-wrapper"><path d="M12.551 14.523v1.945c.708-.12 1.062-.427 1.062-.922 0-.527-.58-.802-1.062-1.023zM10.473 10.805c0 .552.499.799 1.008 1.023V9.992c-.672.099-1.008.37-1.008.813z"/><path d="m18 3-3-3-3 3-3-3-3 3-4-3v23a1 1 0 0 0 1 1h18a1 1 0 0 0 1-1V0l-4 3zm-5.449 15.328v1.602h-1.07v-1.57c-1.271-.026-2.386-.25-3.344-.672v-2.062c.9.445 2.328.835 3.344.898v-2.422c-1.789-.694-3.359-1.367-3.359-3.297 0-1.753 1.608-2.577 3.359-2.75V6.859h1.07v1.164c1.192.052 2.271.292 3.234.719l-.734 1.828a8.455 8.455 0 0 0-2.5-.609v2.305c1.898.73 3.414 1.395 3.414 3.164 0 1.865-1.549 2.727-3.414 2.898z"/></g></svg>
