<svg id="nc_icon" xmlns="http://www.w3.org/2000/svg" xml:space="preserve" viewBox="0 0 24 24"><g fill="currentColor" class="nc-icon-wrapper"><path d="m22.848 18.47-2.64-4.226-1.697 1.06L20.196 18H15v-2a1 1 0 0 0-1.707-.707l-3 3a1 1 0 0 0 0 1.414l3 3A.999.999 0 0 0 15 22v-2h7a1 1 0 0 0 .848-1.53zM11.999 4.89l2.464 3.959L12.82 9.89a1 1 0 0 0 .317 1.82l4.023.902a.997.997 0 0 0 1.194-.757l.903-4.023a.999.999 0 0 0-1.51-1.063l-1.593 1.008-3.304-5.306a1.002 1.002 0 0 0-1.697-.002L8.659 6.459l1.696 1.06 1.644-2.63zM8.625 9.758a1 1 0 0 0-1.213-.728l-4 1a1 1 0 0 0-.272 1.827l1.573.945-3.56 5.666A.999.999 0 0 0 2 20h5v-2H3.81l2.619-4.17 1.71 1.027a.996.996 0 0 0 1.11-.053 1 1 0 0 0 .376-1.046l-1-4z"/></g></svg>
