<svg id="nc_icon" xmlns="http://www.w3.org/2000/svg" xml:space="preserve" viewBox="0 0 24 24"><g fill="currentColor" class="nc-icon-wrapper"><path d="M24 8h-2V7c0-2.757-2.243-5-5-5h-1V0h1c3.859 0 7 3.14 7 7v1zM8 24H7c-3.859 0-7-3.14-7-7v-1h2v1c0 2.757 2.243 5 5 5h1v2z" data-color="color-2"/><path d="m16.243 22.728 6.485-6.485a3.003 3.003 0 0 0 0-4.243L12 1.272a3.003 3.003 0 0 0-4.243 0L1.272 7.757a3.003 3.003 0 0 0 0 4.243L12 22.728a3.003 3.003 0 0 0 4.243 0zM3.393 11.293a.999.999 0 0 1 0-1.414l6.485-6.485a.999.999 0 0 1 1.414 0l9.314 9.314a.999.999 0 0 1 0 1.414l-6.485 6.485a.999.999 0 0 1-1.414 0l-9.314-9.314z"/></g></svg>
