<svg id="nc_icon" xmlns="http://www.w3.org/2000/svg" xml:space="preserve" viewBox="0 0 24 24"><g fill="currentColor" class="nc-icon-wrapper"><path d="M13.592 15.564c.232-.163.54-.465.54-1.214 0-.532-.361-.851-1.132-1.181v2.659c.225-.069.432-.151.592-.264z"/><path d="M12 0C5.383 0 0 5.383 0 12s5.383 12 12 12 12-5.383 12-12S18.617 0 12 0zm4.132 14.351c0 1.549-.756 2.405-1.391 2.851-.497.349-1.096.557-1.741.677V20h-2v-2.037a12.97 12.97 0 0 1-3.34-.727l-.94-.339.679-1.881.941.34c.92.332 1.834.53 2.66.606v-3.509c-1.589-.57-3.352-1.46-3.352-3.722 0-1.128.523-2.059 1.474-2.621.542-.32 1.194-.493 1.878-.574V4h2v1.551c1.177.137 2.255.46 2.856.792l.877.481-.963 1.753-.876-.482c-.433-.238-1.14-.432-1.894-.537v3.464c1.528.54 3.132 1.322 3.132 3.329z"/><path d="M10.141 7.833c-.345.204-.493.472-.493.898 0 .757.429 1.17 1.352 1.571V7.556c-.328.057-.63.141-.859.277z"/></g></svg>
