<svg id="nc_icon" xmlns="http://www.w3.org/2000/svg" xml:space="preserve" viewBox="0 0 24 24"><g fill="currentColor" class="nc-icon-wrapper"><path d="M23.136 8.722c.43-2.916-.017-5.426-1.226-6.635C20.644.821 18.115.427 15.272.858l7.864 7.864z" data-color="color-2"/><path d="M12.964 1.378c-2.603.773-5.26 2.186-7.318 4.245-2.17 2.17-3.56 4.785-4.302 7.307l9.716 9.716c2.063-.61 4.852-1.833 7.314-4.295 2.435-2.435 3.65-5.23 4.257-7.306l-9.667-9.667zm3.289 10.609L14.839 13.4l-1.414-1.414L12.01 13.4l1.414 1.414-1.414 1.414-1.414-1.414-1.414 1.414-1.414-1.414 1.414-1.414-1.414-1.414 1.414-1.414 1.414 1.414 1.415-1.414-1.415-1.414 1.414-1.414 1.415 1.414 1.414-1.414 1.414 1.414-1.414 1.414 1.414 1.414z"/><path d="M.836 15.25c-.41 2.905.072 5.434 1.275 6.636.933.934 2.599 1.431 4.613 1.431.637 0 1.317-.066 2.011-.168L.836 15.25z" data-color="color-2"/></g></svg>
