<svg id="nc_icon" xmlns="http://www.w3.org/2000/svg" xml:space="preserve" viewBox="0 0 24 24"><g fill="currentColor" class="nc-icon-wrapper"><path d="M9.301 12.286A2.97 2.97 0 0 1 9 11c0-.462.113-.894.301-1.285L7.833 8.247a4.969 4.969 0 0 0 0 5.507l1.468-1.468zM13.285 13.699A2.95 2.95 0 0 1 12 14c-.461 0-.894-.113-1.285-.3l-1.468 1.468a4.969 4.969 0 0 0 5.506-.001l-1.468-1.468zM10.715 8.301A2.95 2.95 0 0 1 12 8c.462 0 .895.114 1.286.301l1.468-1.468a4.97 4.97 0 0 0-5.507 0l1.468 1.468z"/><path d="M23 0H1a1 1 0 0 0-1 1v20a1 1 0 0 0 1 1h3v2h2v-2h12v2h2v-2h3a1 1 0 0 0 1-1V1a1 1 0 0 0-1-1zM12 18c-3.86 0-7-3.14-7-7s3.14-7 7-7 7 3.14 7 7-3.14 7-7 7z"/><path d="M14.7 9.715c.187.391.3.824.3 1.285 0 .462-.113.894-.301 1.285l1.468 1.468a4.969 4.969 0 0 0 0-5.505L14.7 9.715z"/></g></svg>
