<svg id="nc_icon" xmlns="http://www.w3.org/2000/svg" xml:space="preserve" viewBox="0 0 24 24"><g fill="currentColor" class="nc-icon-wrapper"><path d="M0 4h24v2H0zM0 18h24v2H0z"/><path d="M2.938 14.365c-.705 0-1.447-.286-2.091-.573v1.375c.573.28 1.231.42 1.976.42.809 0 1.439-.182 1.893-.544.453-.363.68-.859.68-1.489 0-.455-.121-.839-.363-1.153-.242-.313-.689-.626-1.341-.938-.494-.235-.806-.398-.938-.489-.514-.353-.455-.874-.155-1.134.32-.279.949-.208 1.363-.105.243.061.551.167.924.32l.477-1.15a7.059 7.059 0 0 0-1.034-.363c-.874-.228-2.062-.199-2.773.4-.788.666-.929 2.09.074 2.959.557.482 1.281.662 1.864 1.05.253.168.451.369.451.673 0 .558-.456.741-1.007.741zM10.496 13.831l.506 1.661h1.595l-2.473-7.007h-1.81l-2.463 7.007h1.594l.506-1.661h2.545zm-1.27-4.263c.085.38.795 2.632.917 3.021H8.324c.496-1.607.797-2.614.902-3.021zM13.542 8.513v6.979h4.311V14.27h-2.831V8.513zM23.153 9.725V8.513h-4.019v6.979h4.019V14.27h-2.539v-1.8h2.363v-1.212h-2.363V9.725z" data-color="color-2"/></g></svg>
