<svg id="nc_icon" xmlns="http://www.w3.org/2000/svg" viewBox="0 0 24 24"><g fill="currentColor" class="nc-icon-wrapper"><path d="M14.563 6.388 12.555 3.04A4.97 4.97 0 0 0 8.879.65a4.969 4.969 0 0 0-4.146 1.427L2.078 4.731A4.972 4.972 0 0 0 .65 8.879a4.97 4.97 0 0 0 2.39 3.676l3.348 2.009 8.175-8.176zM18.961 10.476l-2.122-2.121a.999.999 0 0 0-1.414 0l-7.071 7.071a.999.999 0 0 0 0 1.414l2.121 2.121a.997.997 0 0 0 1.414 0l7.071-7.071a.997.997 0 0 0 .001-1.414z"/><circle cx="16" cy="20" r="1" data-color="color-2"/><circle cx="20" cy="16" r="1" data-color="color-2"/><circle cx="21" cy="21" r="1" data-color="color-2"/></g></svg>
