<svg id="nc_icon" xmlns="http://www.w3.org/2000/svg" viewBox="0 0 24 24"><path fill="currentColor" d="M14 10c0 2.408 1.564 5 5 5s5-2.592 5-5a1 1 0 0 0-.186-.581l-4.991-6.987a1.013 1.013 0 0 0-.429-.351A1.133 1.133 0 0 0 17.978 2H6.022a.992.992 0 0 0-.845.432L.186 9.419A1 1 0 0 0 0 10c0 2.408 1.564 5 5 5s5-2.592 5-5a.985.985 0 0 0-.081-.394L7.517 4H11v17H5a1 1 0 1 0 0 2h14a1 1 0 1 0 0-2h-6V4h3.483l-2.402 5.606A.985.985 0 0 0 14 10zm-6.088 0H2.229L5.78 5.027 7.912 10zm10.307-4.973L21.771 10h-5.683l2.131-4.973z" class="nc-icon-wrapper"/></svg>
