<svg id="nc_icon" xmlns="http://www.w3.org/2000/svg" xml:space="preserve" viewBox="0 0 24 24"><path fill="currentColor" d="M21 10h-1.3c-.2-.7-.5-1.4-.9-2.1l.9-.9c.8-.8.8-2 0-2.8-.8-.8-2-.8-2.8 0l-.9.9c-.6-.4-1.3-.7-2.1-.9V3c0-1.1-.9-2-2-2s-2 .9-2 2v1.3c-.6.2-1.3.4-2 .8l-.8-.9c-.8-.8-2-.8-2.8 0-.8.8-.8 2 0 2.8l.9.9c-.5.7-.7 1.4-.9 2.1H3c-1.1 0-2 .9-2 2s.9 2 2 2h1.3c.2.7.5 1.4.9 2.1l-.9.9c-.8.8-.8 2 0 2.8.8.8 2 .8 2.8 0l.9-.9c.6.4 1.3.7 2.1.9V21c0 1.1.9 2 2 2s2-.9 2-2v-1.3c.7-.2 1.4-.5 2.1-.9l.9.9c.8.8 2 .8 2.8 0 .8-.8.8-2 0-2.8L19 16c.4-.6.7-1.3.9-2.1H21c1.1 0 2-.9 2-2 0-1-.9-1.9-2-1.9zm-9 5c-1.7 0-3-1.3-3-3s1.3-3 3-3 3 1.3 3 3-1.3 3-3 3z" class="nc-icon-wrapper"/></svg>
