<svg id="nc_icon" xmlns="http://www.w3.org/2000/svg" xml:space="preserve" viewBox="0 0 24 24"><g fill="currentColor" class="nc-icon-wrapper"><path d="M15 11c-.395 0-.77.081-1.116.22A2.995 2.995 0 0 0 11 9c-.395 0-.77.081-1.116.22C9.539 7.945 8.383 7 7 7s-2.538.945-2.884 2.22A2.984 2.984 0 0 0 3 9c-1.654 0-3 1.346-3 3v12h2V12a1.001 1.001 0 0 1 2 0v9h2V10a1.001 1.001 0 0 1 2 0v11h2v-9a1.001 1.001 0 0 1 2 0v9h2v-7a1.001 1.001 0 0 1 2 0v10h2V14c0-1.654-1.346-3-3-3z"/><path d="M20 11h-2v-1c0-2.206-1.794-4-4-4h-1V4h1c3.309 0 6 2.691 6 6v1z" data-color="color-2"/><path d="M24 11h-2v-1c0-4.411-3.589-8-8-8h-1V0h1c5.514 0 10 4.486 10 10v1z" data-color="color-2"/></g></svg>
