<svg id="nc_icon" xmlns="http://www.w3.org/2000/svg" xml:space="preserve" viewBox="0 0 24 24"><g fill="currentColor" class="nc-icon-wrapper"><path d="M19.5 13a5.46 5.46 0 0 1-2.5-.599c-.765.392-1.615.599-2.5.599s-1.735-.207-2.5-.599c-.765.392-1.615.599-2.5.599s-1.735-.207-2.5-.598A5.472 5.472 0 0 1 4.5 13a5.596 5.596 0 0 1-1.5-.206V23a1 1 0 0 0 1 1h6v-5h4v5h6a1 1 0 0 0 1-1V12.794a5.596 5.596 0 0 1-1.5.206z"/><path d="m22.832 6.446-4-6A1 1 0 0 0 18 0H6a1 1 0 0 0-.832.446l-4 6A1.002 1.002 0 0 0 1 7c0 2.355 1.439 4 3.5 4 .979 0 1.864-.403 2.5-1.053.636.65 1.521 1.053 2.5 1.053s1.864-.403 2.5-1.053c.636.65 1.521 1.053 2.5 1.053s1.864-.403 2.5-1.053A3.487 3.487 0 0 0 19.5 11c2.061 0 3.5-1.645 3.5-4 0-.197-.059-.39-.168-.554z" data-color="color-2"/></g></svg>
