<svg id="nc_icon" xmlns="http://www.w3.org/2000/svg" xml:space="preserve" viewBox="0 0 24 24"><g fill="currentColor" class="nc-icon-wrapper"><path d="M7.115 10.638c.25-.246.503-.498.764-.759.218-.218.44-.439.664-.66C6.522 7.434 4.22 6 1 6H0v2h1c2.513 0 4.385 1.132 6.115 2.638z"/><path d="M20 8v3l4-4-4-4v3h-1c-4.414 0-7.105 2.69-9.707 5.293C6.872 13.714 4.586 16 1 16H0v2h1c4.414 0 7.105-2.69 9.707-5.293C13.128 10.286 15.414 8 19 8h1z" data-color="color-2"/><path d="M20 16h-1c-2.513 0-4.385-1.132-6.115-2.638-.25.246-.503.498-.764.759-.218.218-.44.439-.664.66C13.478 16.566 15.78 18 19 18h1v3l4-4-4-4v3z"/></g></svg>
