<svg id="nc_icon" xmlns="http://www.w3.org/2000/svg" xml:space="preserve" viewBox="0 0 24 24"><g fill="currentColor" class="nc-icon-wrapper"><path d="M0 8h4.219a3 3 0 0 1 2.229.993l1.361 1.512L9.154 9.01l-1.22-1.356A5.006 5.006 0 0 0 4.219 6H0v2z" data-color="color-2"/><path d="m24 7-5-4v3h-2.219a5.005 5.005 0 0 0-3.716 1.655l-6.617 7.352A3.001 3.001 0 0 1 4.219 16H0v2h4.219a5.005 5.005 0 0 0 3.716-1.655l6.617-7.352A3.001 3.001 0 0 1 16.781 8H19v3l5-4z"/><path d="m24 17-5-4v3h-2.219a3 3 0 0 1-2.229-.993l-1.361-1.512-1.345 1.495 1.22 1.355A5.002 5.002 0 0 0 16.782 18H19v3l5-4z" data-color="color-2"/></g></svg>
