<svg id="nc_icon" xmlns="http://www.w3.org/2000/svg" xml:space="preserve" viewBox="0 0 24 24"><g fill="currentColor" class="nc-icon-wrapper"><path d="M23 22H1a1 1 0 0 0 0 2h22a1 1 0 0 0 0-2z" data-color="color-2"/><path d="m2 20.414 1.933-1.933A3.795 3.795 0 0 0 5.829 19a3.8 3.8 0 0 0 2.707-1.122L19.874 6.541a3.832 3.832 0 0 0 0-5.414 3.832 3.832 0 0 0-5.414 0L3.122 12.464A3.803 3.803 0 0 0 2 15.171c0 .678.19 1.322.519 1.895L.586 19 2 20.414zM20.586 10l-5 5L17 16.414 23.414 10 21 7.586 19.586 9z"/></g></svg>
