<svg id="nc_icon" xmlns="http://www.w3.org/2000/svg" xml:space="preserve" viewBox="0 0 24 24"><path fill="currentColor" d="M13.42 2.095c-1.093 1.092-2.085 2.515-2.961 3.77-.72 1.03-1.398 2.003-1.99 2.594-.587.588-1.55 1.259-2.569 1.969-1.257.876-2.681 1.868-3.794 2.98a5.956 5.956 0 0 0-1.754 4.24 5.958 5.958 0 0 0 1.754 4.246 5.955 5.955 0 0 0 4.242 1.754h.005a5.96 5.96 0 0 0 4.238-1.754c1.113-1.113 2.106-2.538 2.982-3.795.71-1.019 1.38-1.981 1.968-2.57.59-.59 1.564-1.27 2.594-1.988 1.256-.875 2.677-1.869 3.77-2.96a6.007 6.007 0 0 0 0-8.486 6.006 6.006 0 0 0-8.485 0z" class="nc-icon-wrapper"/></svg>
