<svg id="nc_icon" xmlns="http://www.w3.org/2000/svg" xml:space="preserve" viewBox="0 0 24 24"><g fill="currentColor" class="nc-icon-wrapper"><path d="M18 4h-2V1a1 1 0 0 0-1-1H9a1 1 0 0 0-1 1v3H6a1 1 0 0 0 0 2h1.42A4.996 4.996 0 0 0 7 8c0 2.757 2.243 5 5 5s5-2.243 5-5c0-.696-.148-1.375-.42-2H18a1 1 0 0 0 0-2z" data-color="color-2"/><path d="M23.708 7.418a1 1 0 0 0-1.415 0l-3.856 3.852S15.469 15 12 15c-3.563 0-6.438-3.723-6.438-3.723L1.708 7.418A1 1 0 1 0 .292 8.832l4.266 4.27A7.924 7.924 0 0 0 4 16c0 4.411 3.589 8 8 8s8-3.589 8-8c0-1.01-.2-1.993-.559-2.907l4.266-4.26a1 1 0 0 0 0-1.415z"/></g></svg>
