<svg id="nc_icon" xmlns="http://www.w3.org/2000/svg" xml:space="preserve" viewBox="0 0 24 24"><path fill="currentColor" d="M9 21c-.407 0-.776-.248-.929-.628l-3.294-8.235-.945 1.418A1.001 1.001 0 0 1 3 14H0v-2h2.465l1.703-2.555a1 1 0 0 1 1.761.183l2.955 7.39 4.162-13.316A.998.998 0 0 1 14 3h.002a1 1 0 0 1 .954.706l3.422 11.123L20.2 12.4a.998.998 0 0 1 .8-.4h3v2h-2.5l-2.7 3.6c-.225.3-.599.448-.972.385a1.003 1.003 0 0 1-.784-.691l-3.052-9.917-4.038 12.921a.998.998 0 0 1-.915.701L9 21z" class="nc-icon-wrapper"/></svg>
