<svg id="nc_icon" xmlns="http://www.w3.org/2000/svg" xml:space="preserve" viewBox="0 0 24 24"><g fill="currentColor" class="nc-icon-wrapper"><path d="M16.484 1.125a1.003 1.003 0 0 0-1.015.027L7.713 6H4c-2.206 0-4 1.794-4 4s1.794 4 4 4h3.713l7.757 4.848A1 1 0 0 0 17 18V2a1 1 0 0 0-.516-.875z"/><path d="M20 9h4v2h-4zM18.428 5.134l3.466-2 1 1.732-3.466 2zM18.428 14.866l1-1.733 3.465 2-1 1.733z" data-color="color-2"/><path d="M7.702 16H4.19l2.735 6.047a1.608 1.608 0 0 0 2.936-1.31L7.702 16z"/></g></svg>
