<svg id="nc_icon" xmlns="http://www.w3.org/2000/svg" xml:space="preserve" viewBox="0 0 24 24"><g fill="currentColor" class="nc-icon-wrapper"><path d="M19.094 13.68 15.414 10l2.567-2.567A3.947 3.947 0 0 0 20 8c2.206 0 4-1.794 4-4s-1.794-4-4-4-4 1.794-4 4c0 .74.215 1.424.567 2.019L.586 22 2 23.414l12-12 4.293 4.293a.998.998 0 0 0 1.307.093l4-3-1.2-1.6-3.306 2.48z"/><path d="M10.693 5.107 13 7.414 14.414 6l-2.707-2.707a.999.999 0 0 0-.95-.263l-4.97 1.242.485 1.94 4.421-1.105zM13 14.586 11.586 16l2.726 2.726-5.654 2.827.895 1.789 6.895-3.447a1 1 0 0 0 .26-1.601L13 14.586z" data-color="color-2"/></g></svg>
