<svg id="nc_icon" xmlns="http://www.w3.org/2000/svg" xml:space="preserve" viewBox="0 0 24 24"><g fill="currentColor" class="nc-icon-wrapper"><circle cx="12" cy="3" r="3" data-color="color-2"/><path d="m19.895 13.553-2.447-4.895A2.987 2.987 0 0 0 14.764 7H9.236a2.985 2.985 0 0 0-2.683 1.658l-2.447 4.895a1 1 0 0 0 1.789.895l2.447-4.895a.99.99 0 0 1 .413-.424L6.78 19H9v4a1 1 0 1 0 2 0v-4h2v4a1 1 0 1 0 2 0v-4h2.22l-1.974-9.871a.99.99 0 0 1 .413.424l2.447 4.895a1.001 1.001 0 0 0 1.789-.895z"/></g></svg>
