<svg id="nc_icon" xmlns="http://www.w3.org/2000/svg" xml:space="preserve" viewBox="0 0 24 24"><g fill="currentColor" class="nc-icon-wrapper"><path d="M17 6c-1.8 0-2.7-.8-3.8-1.9C11.8 2.7 10 1 6 1 2.6 1 0 3.6 0 7c0 3.5 3.3 9 12 9 7.4 0 12-.2 12-5 0-3-3.6-5-7-5zm-6.8 3.5c-.7.6-1.8.9-2.8.9-.2 0-.5 0-.7-.1C5.2 10 4 8.6 4 7.2c0-1.3.9-2.7 2.6-2.7C8.1 4.6 11 6.2 11 8c0 .4-.1.9-.8 1.5z"/><path d="M12 18c-6.1 0-9.9-2.4-12-5.3V14c0 3.5 3.3 9 12 9 7.4 0 12-.2 12-5v-2.2C21.4 18 16.7 18 12 18z" data-color="color-2"/></g></svg>
