<svg id="nc_icon" xmlns="http://www.w3.org/2000/svg" viewBox="0 0 24 24"><path fill="currentColor" d="M20.856 7.705a5.97 5.97 0 0 0-3.248-2.43A11.543 11.543 0 0 0 19 2.515a36.224 36.224 0 0 0-4.323 2.109A34.7 34.7 0 0 0 12 0a34.7 34.7 0 0 0-2.677 4.624A36.224 36.224 0 0 0 5 2.515a11.543 11.543 0 0 0 1.392 2.76A5.988 5.988 0 0 0 2.655 13.4C5.7 20.433 8.847 24 12 24s6.3-3.567 9.345-10.6a6 6 0 0 0-.489-5.695ZM7 10a1 1 0 1 1 1 1 1 1 0 0 1-1-1Zm2 8a1 1 0 1 1 1-1 1 1 0 0 1-1 1Zm3-4a1 1 0 1 1 1-1 1 1 0 0 1-1 1Zm3 4a1 1 0 1 1 1-1 1 1 0 0 1-1 1Zm1-7a1 1 0 1 1 1-1 1 1 0 0 1-1 1Z" class="nc-icon-wrapper"/></svg>
