<svg id="nc_icon" xmlns="http://www.w3.org/2000/svg" xml:space="preserve" viewBox="0 0 24 24"><g fill="currentColor" class="nc-icon-wrapper"><path d="M12 24a1 1 0 0 1-1-1v-3a1 1 0 1 1 2 0v3a1 1 0 0 1-1 1zM7 18v2a1 1 0 1 0 2 0v-2H7zM15 18v2a1 1 0 1 0 2 0v-2h-2z" data-color="color-2"/><path d="M17 0a6.932 6.932 0 0 0-6.711 5.128 6.5 6.5 0 0 0-4.325 2.97A4.83 4.83 0 0 0 5 8c-2.757 0-5 2.243-5 5s2.243 5 5 5h2v-3a1 1 0 1 1 2 0v3h6v-3a1 1 0 1 1 2 0v3h2c2.757 0 5-2.243 5-5a4.962 4.962 0 0 0-.834-2.754A6.866 6.866 0 0 0 24 7c0-3.86-3.141-7-7-7zm.18 8.346a6.495 6.495 0 0 0-4.75-3.276A4.928 4.928 0 0 1 17 2c2.757 0 5 2.243 5 5a4.81 4.81 0 0 1-.349 1.778A4.95 4.95 0 0 0 19 8c-.628 0-1.243.118-1.82.346z"/></g></svg>
