<svg id="nc_icon" xmlns="http://www.w3.org/2000/svg" xml:space="preserve" viewBox="0 0 24 24"><g fill="currentColor" class="nc-icon-wrapper"><path d="M6 14h12.02a1 1 0 0 0 .978-1.215C18.883 9.024 15.788 6 12 6c-3.859 0-7 3.14-7 7a1 1 0 0 0 1 1z"/><path d="M23 16H1a1 1 0 1 0 0 2h22a1 1 0 1 0 0-2zM20 20H4a1 1 0 1 0 0 2h16a1 1 0 1 0 0-2z" data-color="color-2"/><path d="M11 1h2v3h-2zM19.779 3.807l1.414 1.415-2.122 2.12-1.414-1.413zM24 12v2h-3v-2zM6.344 5.929 4.929 7.343 2.81 5.222l1.413-1.414zM3 12v2H0v-2z"/></g></svg>
