<svg id="nc_icon" xmlns="http://www.w3.org/2000/svg" xml:space="preserve" viewBox="0 0 24 24"><g fill="currentColor" class="nc-icon-wrapper"><path d="M24 7c0-3.859-3.14-7-7-7a6.929 6.929 0 0 0-6.711 5.127 6.503 6.503 0 0 0-4.325 2.97A4.82 4.82 0 0 0 5 8c-2.757 0-5 2.243-5 5s2.243 5 5 5h.004a3.008 3.008 0 0 1 .69-1.92l5.001-6.001a3.002 3.002 0 0 1 3.839-.657 2.987 2.987 0 0 1 1.251 3.691l-.354.887H16c1.159 0 2.226.679 2.717 1.729.338.722.359 1.54.102 2.271H19c2.757 0 5-2.243 5-5a4.97 4.97 0 0 0-.833-2.754A6.874 6.874 0 0 0 24 7zm-2.349 1.778A4.95 4.95 0 0 0 19 8c-.628 0-1.243.118-1.82.346a6.494 6.494 0 0 0-4.751-3.276A4.93 4.93 0 0 1 17 2c2.757 0 5 2.243 5 5a4.81 4.81 0 0 1-.349 1.778z"/><path d="M16.906 16.576A1.002 1.002 0 0 0 16 16h-3.523l1.452-3.628a1 1 0 0 0-1.697-1.011l-5 6A1 1 0 0 0 8 19h3.523l-1.452 3.628A.998.998 0 0 0 11 24a1 1 0 0 0 .769-.36l5-6c.248-.298.301-.713.137-1.064z" data-color="color-2"/></g></svg>
