<svg id="nc_icon" xmlns="http://www.w3.org/2000/svg" xml:space="preserve" viewBox="0 0 24 24"><path fill="currentColor" d="M23 9h-.414A10.963 10.963 0 0 0 15 1.414V1a1 1 0 0 0-1-1h-4a1 1 0 0 0-1 1v.414A10.963 10.963 0 0 0 1.414 9H1a1 1 0 0 0-1 1v4a1 1 0 0 0 1 1h.414A10.963 10.963 0 0 0 9 22.586V23a1 1 0 0 0 1 1h4a1 1 0 0 0 1-1v-.414A10.963 10.963 0 0 0 22.586 15H23a1 1 0 0 0 1-1v-4a1 1 0 0 0-1-1zm-11 7c-2.206 0-4-1.794-4-4s1.794-4 4-4 4 1.794 4 4-1.794 4-4 4zm8.482-7h-3.294A6.024 6.024 0 0 0 15 6.812V3.518A8.95 8.95 0 0 1 20.482 9zM9 3.518v3.294A6.024 6.024 0 0 0 6.812 9H3.518A8.95 8.95 0 0 1 9 3.518zM3.518 15h3.294A6.024 6.024 0 0 0 9 17.188v3.294A8.95 8.95 0 0 1 3.518 15zM15 20.482v-3.294A6.032 6.032 0 0 0 17.188 15h3.294A8.95 8.95 0 0 1 15 20.482z" class="nc-icon-wrapper"/></svg>
