<svg id="nc_icon" xmlns="http://www.w3.org/2000/svg" xml:space="preserve" viewBox="0 0 24 24"><g fill="currentColor" class="nc-icon-wrapper"><path d="M12 6C5.4 6 0 11.4 0 18v3c0 .6.4 1 1 1h22c.6 0 1-.4 1-1v-3c0-6.6-5.4-12-12-12zm-3.3 7.7-1 1c-.2.2-.4.3-.7.3s-.5-.1-.7-.3c-.4-.4-.4-1 0-1.4l1-1c.4-.4 1-.4 1.4 0s.4 1 0 1.4zm5 4c-.2.2-.4.3-.7.3s-.5-.1-.7-.3l-1-1c-.4-.4-.4-1 0-1.4s1-.4 1.4 0l1 1c.4.4.4 1 0 1.4zM17 14c0 .6-.4 1-1 1s-1-.4-1-1v-1c0-.6.4-1 1-1s1 .4 1 1v1z"/><path d="M12 4c4.4 0 8.3 2 10.8 5.2.1-.4.2-.8.2-1.2 0-2.8-2.2-5-5-5-.3 0-.5 0-.8.1-1-1.9-3-3.1-5.2-3.1S7.8 1.2 6.8 3.1C6.5 3 6.3 3 6 3 3.2 3 1 5.2 1 8c0 .4.1.8.2 1.2C3.7 6 7.6 4 12 4z" data-color="color-2"/></g></svg>
