<svg id="nc_icon" xmlns="http://www.w3.org/2000/svg" xml:space="preserve" viewBox="0 0 24 24"><g fill="currentColor" class="nc-icon-wrapper"><path d="M3.34 17.004a.999.999 0 0 1-.865-.5A10.995 10.995 0 0 1 1 11C1 4.935 5.935 0 12 0s11 4.935 11 11c0 1.934-.51 3.836-1.472 5.501a1 1 0 0 1-1.732-1.002A8.988 8.988 0 0 0 21 11c0-4.962-4.038-9-9-9s-9 4.038-9 9a9 9 0 0 0 1.205 4.503 1 1 0 0 1-.864 1.5z" data-color="color-2"/><path d="M12 7c-2.757 0-5 2.243-5 5v11a1 1 0 0 0 1 1h8a1 1 0 0 0 1-1V12c0-2.757-2.243-5-5-5zm3 6a8.292 8.292 0 0 1-6 0v-1a3 3 0 1 1 6 0v1z"/></g></svg>
