<svg id="nc_icon" xmlns="http://www.w3.org/2000/svg" xml:space="preserve" viewBox="0 0 24 24"><g fill="currentColor" class="nc-icon-wrapper"><path d="M12 4a1 1 0 0 1-1-1V1a1 1 0 0 1 2 0v2a1 1 0 0 1-1 1zM18.364 6.636a1 1 0 0 1-.707-1.707l1.414-1.414a1 1 0 1 1 1.414 1.414l-1.414 1.414a.997.997 0 0 1-.707.293zM23 13h-2a1 1 0 0 1 0-2h2a1 1 0 0 1 0 2zM3 13H1a1 1 0 0 1 0-2h2a1 1 0 0 1 0 2zM5.636 6.636a.997.997 0 0 1-.707-.293L3.515 4.93a1 1 0 1 1 1.414-1.414l1.414 1.414a1 1 0 0 1-.707 1.707z" data-color="color-2"/><path d="M12 7c-2.757 0-5 2.243-5 5v11a1 1 0 0 0 1 1h8a1 1 0 0 0 1-1V12c0-2.757-2.243-5-5-5zm3 6a8.292 8.292 0 0 1-6 0v-1a3 3 0 1 1 6 0v1z"/></g></svg>
