<svg id="nc_icon" xmlns="http://www.w3.org/2000/svg" xml:space="preserve" viewBox="0 0 24 24"><g fill="currentColor" class="nc-icon-wrapper"><path d="M12 17c-1.1 0-2-.9-2-2V9c0-1.1.9-2 2-2s2 .9 2 2v6c0 1.1-.9 2-2 2z" data-color="color-2"/><path d="M22.5 4.8c-.9-.5-2-.6-3 0l-4 2.2c.3.6.5 1.3.5 2v2h3v2h-3v2c0 .7-.2 1.4-.5 2l4.1 2.3c.5.3 1 .4 1.5.4s1-.1 1.5-.4c.9-.5 1.5-1.5 1.5-2.6V7.4c-.1-1.1-.7-2-1.6-2.6zM8 13H5v-2h3V9c0-.7.2-1.4.5-2l-4-2.2c-.9-.5-2.1-.5-3 0C.6 5.4 0 6.3 0 7.4v9.2c0 1.1.6 2 1.5 2.6.5.3 1 .4 1.5.4s1-.1 1.5-.4l4-2.2c-.3-.6-.5-1.3-.5-2v-2z"/></g></svg>
