<svg id="nc_icon" xmlns="http://www.w3.org/2000/svg" viewBox="0 0 24 24"><path fill="currentColor" d="M12 0a12 12 0 1 0 12 12A12.013 12.013 0 0 0 12 0Zm4.243 6.343a1 1 0 1 1 1.414 1.414c-.391.391-2.438 1.8-2.829 1.415s1.024-2.438 1.415-2.829ZM4 12a1 1 0 0 1 1-1c.552 0 3 .448 3 1s-2.448 1-3 1a1 1 0 0 1-1-1Zm3.757 5.657a1 1 0 0 1-1.414-1.414c.391-.391 2.438-1.8 2.829-1.415s-1.024 2.438-1.415 2.829Zm1.415-8.485c-.391.39-2.438-1.024-2.829-1.415a1 1 0 0 1 1.414-1.414c.391.391 1.805 2.438 1.415 2.829ZM12 20a1 1 0 0 1-1-1c0-.552.448-3 1-3s1 2.448 1 3a1 1 0 0 1-1 1Zm0-12c-.552 0-1-2.448-1-3a1 1 0 0 1 2 0c0 .552-.448 3-1 3Zm5.657 9.657a1 1 0 0 1-1.414 0c-.391-.391-1.8-2.438-1.415-2.829s2.438 1.024 2.829 1.415a1 1 0 0 1 0 1.414ZM19 13c-.552 0-3-.448-3-1s2.448-1 3-1a1 1 0 0 1 0 2Z" class="nc-icon-wrapper"/></svg>
