<svg id="nc_icon" xmlns="http://www.w3.org/2000/svg" xml:space="preserve" viewBox="0 0 24 24"><g fill="currentColor" class="nc-icon-wrapper"><path d="M5.425 13 1.6 1.472c-.071-.215-.215-.251-.431-.305L.362.969.54 0h4.202v.97l-1.472.16 3.287 10.452L9.914 1.13 8.459.969 8.639 0h3.915v.97l-.754.197c-.217.054-.378.125-.45.341L7.653 13H5.425zM19.258 13v-.97l1.472-.16-.97-2.838h-5.01l-.952 2.837 1.455.162V13h-4.13v-.952l.772-.197c.288-.072.377-.126.449-.342L16.294 0h2.084L22.4 11.528c.071.215.215.251.431.305l.807.198V13h-4.38zM17.282 1.4l-2.118 6.321h4.2l-2.082-6.32z"/><path d="m24 19-5-4v3H5v-3l-5 4 5 4v-3h14v3z" data-color="color-2"/></g></svg>
