<svg id="nc_icon" xmlns="http://www.w3.org/2000/svg" xml:space="preserve" viewBox="0 0 24 24"><g fill="currentColor" class="nc-icon-wrapper"><path d="M0 10h2v5H0zM22 10h2v5h-2z"/><path d="M18 1H6a1 1 0 1 0 0 2h1.382l1.724 3.447 1.789-.895L9.618 3h4.764l-1.276 2.553 1.789.895L16.618 3H18a1 1 0 1 0 0-2z" data-color="color-2"/><path d="M18 5H6C4.346 5 3 6.346 3 8v14a1 1 0 0 0 1 1h16a1 1 0 0 0 1-1V8c0-1.654-1.346-3-3-3zM7 20a1 1 0 1 1 0-2 1 1 0 0 1 0 2zm10 0a1 1 0 1 1 0-2 1 1 0 0 1 0 2zm2-6a1 1 0 0 1-1 1H6a1 1 0 0 1-1-1V8a1 1 0 0 1 1-1h12a1 1 0 0 1 1 1v6z"/></g></svg>
