<svg id="nc_icon" xmlns="http://www.w3.org/2000/svg" viewBox="0 0 24 24"><g fill="currentColor" class="nc-icon-wrapper"><path d="M24 12a2.99 2.99 0 0 0-2-2.816V5.816A2.993 2.993 0 1 0 18.184 2h-3.368a2.982 2.982 0 0 0-5.632 0H5.816A2.993 2.993 0 1 0 2 5.816v3.368a2.982 2.982 0 0 0 0 5.632v3.368A2.993 2.993 0 1 0 5.816 22h3.368a2.982 2.982 0 0 0 5.632 0h3.368A2.993 2.993 0 1 0 22 18.184v-3.368A2.99 2.99 0 0 0 24 12Zm-4 2.816v3.368A2.987 2.987 0 0 0 18.184 20h-3.368a2.982 2.982 0 0 0-5.632 0H5.816A2.987 2.987 0 0 0 4 18.184v-3.368a2.982 2.982 0 0 0 0-5.632V5.816A2.987 2.987 0 0 0 5.816 4h3.368a2.982 2.982 0 0 0 5.632 0h3.368A2.987 2.987 0 0 0 20 5.816v3.368a2.982 2.982 0 0 0 0 5.632Z"/><circle cx="12" cy="12" r="3" data-color="color-2"/></g></svg>
