<svg id="nc_icon" xmlns="http://www.w3.org/2000/svg" xml:space="preserve" viewBox="0 0 24 24"><g fill="currentColor" class="nc-icon-wrapper"><path d="M21 2V1a1 1 0 0 0-1-1H4a1 1 0 0 0-1 1v1h18z" data-color="color-2"/><path d="M0 7h2v4H0zM22 7h2v4h-2z"/><path d="M22.707 13.293 21 11.586V4H3v7.586l-1.707 1.707A.997.997 0 0 0 1 14v6a1 1 0 0 0 1 1h20a1 1 0 0 0 1-1v-6a.997.997 0 0 0-.293-.707zM5 6h14v5H5V6zm0 12a1 1 0 1 1 0-2 1 1 0 0 1 0 2zm14 0a1 1 0 1 1 0-2 1 1 0 0 1 0 2z"/><path d="M3 22v1a1 1 0 0 0 1 1h3a1 1 0 0 0 1-1v-1H3zM16 22v1a1 1 0 0 0 1 1h3a1 1 0 0 0 1-1v-1h-5z" data-color="color-2"/></g></svg>
