<svg id="nc_icon" xmlns="http://www.w3.org/2000/svg" xml:space="preserve" viewBox="0 0 24 24"><g fill="currentColor" class="nc-icon-wrapper"><path d="M11 12h2v1h-2zM11 15h2v1h-2z"/><path d="M3 13H0v1c0 .6.4 1 1 1h2v-2z" data-color="color-2"/><path d="M19 9c0-.6.4-1 1-1s1 .4 1 1v2h3V4c0-2.2-1.8-4-4-4h-4c-.6 0-1 .4-1 1 0 1.7-1.3 3-3 3S9 2.7 9 1c0-.6-.4-1-1-1H4C1.8 0 0 1.8 0 4v7h3V9c0-.6.4-1 1-1s1 .4 1 1v15h14V9zm-4 8c0 .6-.4 1-1 1h-4c-.6 0-1-.4-1-1v-6c0-.6.4-1 1-1h4c.6 0 1 .4 1 1v6z"/><path d="M21 15h2c.6 0 1-.4 1-1v-1h-3v2z" data-color="color-2"/></g></svg>
