<svg id="nc_icon" xmlns="http://www.w3.org/2000/svg" xml:space="preserve" viewBox="0 0 24 24"><path fill="currentColor" d="M16 6V4c0-2.206-1.794-4-4-4S8 1.794 8 4v2H0v1c0 2.464 1.796 4.505 4.145 4.914-.21 1.176-.21 2.369.125 3.906A4.989 4.989 0 0 0 2 20c0 .572.11 1.156.324 1.735l.452 1.216 1.06-.747c.834-.585 2.151-.913 2.977-1.059C8.208 22.845 10.016 24 12 24s3.792-1.156 5.187-2.855c.826.146 2.143.474 2.976 1.06l1.06.746.453-1.216C21.89 21.156 22 20.572 22 20c0-1.71-.872-3.267-2.27-4.18.335-1.536.335-2.729.125-3.906C22.205 11.505 24 9.464 24 7V6h-8zm-4-4c1.103 0 2 .897 2 2v1.28c-.64-.176-1.308-.28-2-.28s-1.36.104-2 .28V4c0-1.103.897-2 2-2zM2.17 8h3.742a8.602 8.602 0 0 0-1.184 1.978A3.002 3.002 0 0 1 2.171 8zm1.833 11.865a2.988 2.988 0 0 1 .895-1.996c.205.511.444 1.007.71 1.486-.494.12-1.054.284-1.605.51zm15.994 0a11.261 11.261 0 0 0-1.604-.51c.265-.479.504-.975.71-1.486.53.523.86 1.229.894 1.996zm-.725-9.887A8.602 8.602 0 0 0 18.088 8h3.741a3.002 3.002 0 0 1-2.557 1.978z" class="nc-icon-wrapper"/></svg>
