<svg id="nc_icon" xmlns="http://www.w3.org/2000/svg" xml:space="preserve" viewBox="0 0 24 24"><g fill="currentColor" class="nc-icon-wrapper"><path d="M3.6 15.3C5.9 13.2 7 10.2 7 8H0v6c0 .6.4 1 1 1h1c.6 0 1.1.1 1.6.3z"/><path d="M24 4c0-.6-.4-1-1-1H1c-.6 0-1 .4-1 1v2h24V4z" data-color="color-2"/><path d="M20.4 15.3c.5-.2 1-.3 1.6-.3h1c.6 0 1-.4 1-1V8h-7c0 2.2 1.1 5.2 3.4 7.3zM15 8H9c0 2.5-1.2 5.9-3.6 8.3 1 .9 1.6 2.2 1.6 3.7 0 .6.4 1 1 1h8c.6 0 1-.4 1-1 0-1.5.6-2.8 1.6-3.7C16.2 13.9 15 10.5 15 8z"/></g></svg>
