<svg id="nc_icon" xmlns="http://www.w3.org/2000/svg" xml:space="preserve" viewBox="0 0 24 24"><g fill="currentColor" class="nc-icon-wrapper"><circle cx="19" cy="3" r="3"/><path d="m22.293 7.293-1.734 1.734c-.362.36-.934.391-1.332.074l-7.205-5.764a2.996 2.996 0 0 0-3.995.222L6.293 5.293a1 1 0 1 0 1.414 1.414l1.734-1.734a.998.998 0 0 1 1.332-.074l2.73 2.184-3.21 3.21c-.638.638-.953 1.519-.864 2.417s.57 1.7 1.321 2.2l3.047 2.063-2.594 3.423a1 1 0 0 0 1.594 1.208l2.578-3.403c.35-.436.5-1.004.414-1.556a2.005 2.005 0 0 0-.867-1.357l-3.063-2.042a.998.998 0 0 1-.152-1.539l3.367-3.367 2.904 2.323a2.994 2.994 0 0 0 3.995-.221l1.734-1.735a1 1 0 1 0-1.414-1.414zM6.293 14.293l-6 6a1 1 0 1 0 1.414 1.414l6-6a1 1 0 1 0-1.414-1.414z"/></g></svg>
