<svg id="nc_icon" xmlns="http://www.w3.org/2000/svg" xml:space="preserve" viewBox="0 0 24 24"><g fill="currentColor" class="nc-icon-wrapper"><circle cx="13" cy="5" r="3"/><path d="M18 9H6V6a1 1 0 1 0-2 0v3c0 1.103.897 2 2 2h6v3.764a.987.987 0 0 1-.475.85.987.987 0 0 1-.972.044l-2.36-1.18a2.002 2.002 0 0 0-2.494.59L3.2 18.4a.999.999 0 1 0 1.6 1.2l2.499-3.332 2.36 1.18a2.98 2.98 0 0 0 2.918-.132A2.982 2.982 0 0 0 14 14.764V11h4v3a1 1 0 1 0 2 0v-3c0-1.103-.897-2-2-2z"/><path d="M8 19h2v5H8zM7 0h2v6H7z" data-color="color-2"/></g></svg>
