<svg id="nc_icon" xmlns="http://www.w3.org/2000/svg" xml:space="preserve" viewBox="0 0 24 24"><g fill="currentColor" class="nc-icon-wrapper"><path d="m5.581 16.814 5.86-4.186 2.738 3.942a1 1 0 1 0 1.642-1.14l-5.787-8.333a.992.992 0 0 1-.176-.764.994.994 0 0 1 .43-.657l4.267-2.844a1 1 0 1 0-1.11-1.664L9.18 4.012a2.975 2.975 0 0 0-1.29 1.969 2.957 2.957 0 0 0 .515 2.274l1.896 2.73-5.881 4.201a1 1 0 0 0 1.162 1.628z"/><circle cx="16" cy="8" r="3"/><path d="M22 19c0 1.654-1.346 3-3 3-1.049 0-2.059-.615-2.637-1.604l-.863-1.48-.863 1.48C14.059 21.386 13.049 22 12 22s-2.059-.615-2.637-1.604l-.863-1.48-.863 1.48C7.059 21.386 6.049 22 5 22c-1.654 0-3-1.346-3-3H0c0 2.757 2.243 5 5 5 1.302 0 2.557-.546 3.5-1.48.943.934 2.198 1.48 3.5 1.48s2.557-.546 3.5-1.48c.943.934 2.198 1.48 3.5 1.48 2.757 0 5-2.243 5-5h-2z" data-color="color-2"/></g></svg>
