<svg id="nc_icon" xmlns="http://www.w3.org/2000/svg" xml:space="preserve" viewBox="0 0 24 24"><g fill="currentColor" class="nc-icon-wrapper"><circle cx="12" cy="4" r="3"/><path d="M4.783 12.197c.61.61 1.537.76 2.309.375L11 10.618V17H5a1 1 0 1 0 0 2h14a1 1 0 1 0 0-2h-6v-6.382l3.908 1.954c.785.391 1.71.225 2.309-.375l2.49-2.49a1 1 0 1 0-1.414-1.414l-2.49 2.49-4.908-2.454a2.006 2.006 0 0 0-1.79 0l-4.908 2.454-2.49-2.49a1 1 0 1 0-1.414 1.414l2.49 2.49z"/><path d="M0 21h24v2H0z" data-color="color-2"/></g></svg>
