<svg id="nc_icon" xmlns="http://www.w3.org/2000/svg" xml:space="preserve" viewBox="0 0 24 24"><g fill="currentColor" class="nc-icon-wrapper"><path d="M8.187 14.138 10.618 19h2.764l2.432-4.862L12 9.562l-3.813 4.576zM13 14a1 1 0 1 1-2 0 1 1 0 0 1 2 0z"/><path d="M23 4H12.5L9.8.4A1 1 0 0 0 9 0H1a1 1 0 0 0-1 1v22a1 1 0 0 0 1 1h22a1 1 0 0 0 1-1V5a1 1 0 0 0-1-1zm-5.105 10.447L15.618 19H17v2H7v-2h1.382l-2.276-4.553a1.001 1.001 0 0 1 .126-1.088l5-6c.381-.455 1.156-.455 1.537 0l5 6c.253.306.303.733.126 1.088z"/></g></svg>
