<svg id="nc_icon" xmlns="http://www.w3.org/2000/svg" xml:space="preserve" viewBox="0 0 24 24"><path fill="currentColor" d="M22.775 16.13 20.389 9H22V3h-4c-.352 0-.686.072-1 .184V2a1 1 0 0 0-1-1h-4v2h3v10c0 .551-.449 1-1 1h-2c-.551 0-1-.449-1-1V8c0-1.654-1.346-3-3-3H3C1.346 5 0 6.346 0 8v9c0 1.336.884 2.458 2.094 2.845A4.004 4.004 0 0 0 6 23c1.858 0 3.411-1.28 3.858-3h6.284c.447 1.72 2 3 3.858 3 2.206 0 4-1.794 4-4a3.98 3.98 0 0 0-1.225-2.87zM18 5h2v2h-2c-.551 0-1-.449-1-1s.449-1 1-1zM2 8c0-.551.449-1 1-1h5c.551 0 1 .449 1 1v1H2V8zm4 13c-1.103 0-2-.897-2-2s.897-2 2-2 2 .897 2 2-.897 2-2 2zm14 0c-1.103 0-2-.897-2-2s.897-2 2-2 2 .897 2 2-.897 2-2 2z" class="nc-icon-wrapper"/></svg>
