<svg id="nc_icon" xmlns="http://www.w3.org/2000/svg" xml:space="preserve" viewBox="0 0 24 24"><g fill="currentColor" class="nc-icon-wrapper"><path d="M19 7c-2.757 0-5 2.243-5 5s2.243 5 5 5 5-2.243 5-5-2.243-5-5-5zm3 5c0 .462-.113.894-.301 1.285L17.714 9.3c.392-.187.824-.3 1.286-.3 1.654 0 3 1.346 3 3zm-6 0c0-.462.113-.894.301-1.285l3.985 3.985c-.392.187-.824.3-1.286.3-1.654 0-3-1.346-3-3z" data-color="color-2"/><path d="M12 12a6.992 6.992 0 0 1 4-6.317V2a1.001 1.001 0 0 0-1.6-.8L6.667 7H1a1 1 0 0 0-1 1v8a1 1 0 0 0 1 1h5.667l7.733 5.8a.995.995 0 0 0 1.047.095c.339-.17.553-.516.553-.895v-3.683A6.992 6.992 0 0 1 12 12z"/></g></svg>
