<svg id="nc_icon" xmlns="http://www.w3.org/2000/svg" xml:space="preserve" viewBox="0 0 24 24"><g fill="currentColor" class="nc-icon-wrapper"><path d="M14.447 1.105A1.006 1.006 0 0 0 13.4 1.2L5.667 7H1a1 1 0 0 0-1 1v8a1 1 0 0 0 1 1h4.667l7.733 5.8a.995.995 0 0 0 1.047.095c.339-.17.553-.516.553-.895V2c0-.379-.214-.725-.553-.895z"/><path d="m18.243 7.758-.707-.707-1.414 1.414.707.707a4.003 4.003 0 0 1 0 5.656l-.707.707 1.414 1.414.707-.707a6.006 6.006 0 0 0 0-8.484z" data-color="color-2"/><path d="M20.364 4.222 18.95 5.636l.707.707c3.119 3.119 3.119 8.195 0 11.314l-.707.707 1.414 1.414.707-.707c3.899-3.899 3.899-10.243 0-14.143l-.707-.706z" data-color="color-2"/></g></svg>
