<svg id="nc_icon" xmlns="http://www.w3.org/2000/svg" xml:space="preserve" viewBox="0 0 24 24"><g fill="currentColor" class="nc-icon-wrapper"><path d="M13 13h-2v-3c0-2.206-1.794-4-4-4s-4 1.794-4 4v3H1a1 1 0 0 0-1 1v9a1 1 0 0 0 1 1h12a1 1 0 0 0 1-1v-9a1 1 0 0 0-1-1zm-6 6a1 1 0 1 1 0-2 1 1 0 0 1 0 2zm2-6H5v-3c0-1.103.897-2 2-2s2 .897 2 2v3z"/><path d="M20 11h-2v-1c0-2.206-1.794-4-4-4h-1V4h1c3.309 0 6 2.691 6 6v1z" data-color="color-2"/><path d="M24 11h-2v-1c0-4.411-3.589-8-8-8h-1V0h1c5.514 0 10 4.486 10 10v1z" data-color="color-2"/></g></svg>
