<svg id="nc_icon" xmlns="http://www.w3.org/2000/svg" xml:space="preserve" viewBox="0 0 24 24"><g fill="currentColor" class="nc-icon-wrapper"><path d="m6.818 10.709 1.124-.562.6-2.534-2.989 1.492a1 1 0 0 0-.5.578l-1.318 3.95 1.9.632ZM13.241 13.827l-.541 2.289 1.3 1.3V23h2v-6a1 1 0 0 0-.293-.707Z" data-color="color-2"/><path d="m18.684 10.052-2.5.834-3.661-2.743.277-1.173a3.5 3.5 0 1 0-1.959-.408L7.026 22.771l1.947.459 3.05-12.962L15.4 12.8a1 1 0 0 0 .6.2.983.983 0 0 0 .316-.052l3-1Z"/></g></svg>
