<svg id="nc_icon" xmlns="http://www.w3.org/2000/svg" xml:space="preserve" viewBox="0 0 24 24"><path fill="currentColor" d="M23 3c-.6 0-1 .4-1 1v6.4c-.2.3-.3.6-1 .6V2c0-.6-.4-1-1-1H8c-.6 0-1 .4-1 1v3.4L4.3 8.1c-.8.8-.9 2-.5 2.9-.6 0-1.2-.2-1.8-.5V4c0-.6-.4-1-1-1s-1 .4-1 1v18c0 .6.4 1 1 1h22c.6 0 1-.4 1-1V4c0-.6-.4-1-1-1zM5.7 9.6l3-3c.2-.2.3-.5.3-.8V3h10v15c0 .6-.4 1-1 1s-1-.4-1-1v-5c0-.6-.4-1-1-1s-1 .4-1 1v5c0 .6-.4 1-1 1s-1-.4-1-1v-5c0-.6-.4-1-1-1s-1 .4-1 1v5c0 .6-.4 1-1 1s-1-.4-1-1v-7.9c0-.4-.2-.8-.6-.9-.1-.1-.3-.1-.4-.1-.3 0-.5.1-.7.3l-.9.9c-.1.1-.3.1-.4.1-.1 0-.2 0-.4-.1-.1-.2-.1-.5.1-.7z" class="nc-icon-wrapper"/></svg>
