<svg id="nc_icon" xmlns="http://www.w3.org/2000/svg" xml:space="preserve" viewBox="0 0 24 24"><path fill="currentColor" d="M23 4h-7V1a1 1 0 0 0-1-1H9a1 1 0 0 0-1 1v3H1a1 1 0 1 0 0 2h2v17a1 1 0 0 0 1 1h16a1 1 0 0 0 1-1V6h2a1 1 0 1 0 0-2zM10 2h4v2h-4V2zm6.243 17.242C15.109 20.376 13.603 21 12 21s-3.11-.624-4.243-1.758C6.624 18.11 6 16.602 6 15s.624-3.11 1.757-4.242A5.96 5.96 0 0 1 12 9a5.95 5.95 0 0 1 3.473 1.113l1.632-1.633.27 4.895-4.874-.29 1.512-1.512c-1.523-.859-3.574-.67-4.842.599C8.416 12.928 8 13.932 8 15s.416 2.072 1.171 2.828c1.512 1.512 4.146 1.512 5.658 0 .357-.357.639-.77.838-1.227l1.834.798a5.959 5.959 0 0 1-1.258 1.843z" class="nc-icon-wrapper"/></svg>
