<svg id="nc_icon" xmlns="http://www.w3.org/2000/svg" xml:space="preserve" viewBox="0 0 24 24"><g fill="currentColor" class="nc-icon-wrapper"><path d="M17.985.828A1 1 0 0 0 17 0H7a1 1 0 0 0-.985.828l-.954 5.447C3.774 7.832 3 9.827 3 12s.774 4.168 2.061 5.725l.954 5.448A1 1 0 0 0 7 24h10a1 1 0 0 0 .985-.828l.954-5.448C20.226 16.168 21 14.173 21 12s-.774-4.168-2.061-5.725L17.985.828zM12 19c-3.86 0-7-3.14-7-7s3.14-7 7-7 7 3.14 7 7-3.14 7-7 7z"/><path d="M13 8h-2v5h5v-2h-3z" data-color="color-2"/></g></svg>
