<svg id="nc_icon" xmlns="http://www.w3.org/2000/svg" xml:space="preserve" viewBox="0 0 24 24"><g fill="currentColor" class="nc-icon-wrapper"><path d="M21 6a3.001 3.001 0 0 0-2.455-2.945L17.97.757A1 1 0 0 0 17 0H7a1 1 0 0 0-.97.757l-.575 2.298A3.001 3.001 0 0 0 3 6v12a3.001 3.001 0 0 0 2.455 2.945l.574 2.298c.112.445.512.757.971.757h10a1 1 0 0 0 .97-.757l.574-2.298A3 3 0 0 0 21 18v-3h2V9h-2V6zm-2 12c0 .551-.449 1-1 1H6c-.551 0-1-.449-1-1V6c0-.551.449-1 1-1h12c.551 0 1 .449 1 1v12z"/><path d="M13 7h-2v6h6v-2h-4z" data-color="color-2"/></g></svg>
