<svg id="nc_icon" xmlns="http://www.w3.org/2000/svg" xml:space="preserve" viewBox="0 0 24 24"><g fill="currentColor" class="nc-icon-wrapper"><path d="M22.996 16.909C22.903 15.902 21.95 14 19 14h-5.002A4.995 4.995 0 0 0 10 12H7.472C5.94 10.372 3.06 10 2 10H0v8.618l7.37 3.685a4.004 4.004 0 0 0 3.225.155l12.47-4.796-.069-.753zM9.876 20.59c-.522.201-1.11.174-1.612-.077L2 17.382V12c1.523 0 3.42.487 4.48 2H10c1.304 0 2.416.836 2.83 2H7a1 1 0 1 0 0 2h8v-1c0-.342-.034-.677-.1-1H19c.848 0 1.338.216 1.622.459L9.876 20.59z"/><path d="M14 11c1.966 0 4-1.496 4-4 0-2.193-2.733-5.13-3.281-5.695L14 .562l-.719.743C12.733 1.87 10 4.807 10 7c0 2.504 2.034 4 4 4z" data-color="color-2"/></g></svg>
