<svg id="nc_icon" xmlns="http://www.w3.org/2000/svg" xml:space="preserve" viewBox="0 0 24 24"><path fill="currentColor" d="M23.3 17.8 6.2.7C6 .5 5.7.4 5.4.4s-.5.1-.7.3c-5.1 5.1-5.1 13.4 0 18.5C7.3 21.8 10.6 23 14 23s6.7-1.3 9.3-3.8c.4-.3.4-1 0-1.4zm-10-3.8c.4-.4 1-.4 1.4 0l.8.8c.4.4.4 1 0 1.4-.2.2-.5.3-.7.3s-.5-.1-.7-.3l-.8-.8c-.4-.4-.4-1.1 0-1.4zm-1.7-1.6c.4.4.4 1 0 1.4l-.8.8c-.2.2-.5.3-.7.3s-.5-.1-.7-.3c-.4-.4-.4-1 0-1.4l.8-.8c.4-.4 1-.4 1.4 0zM7.8 8.5c.4-.4 1-.4 1.4 0l.8.8c.4.4.4 1 0 1.4-.2.2-.4.3-.7.3s-.5-.1-.7-.3l-.8-.8c-.3-.4-.3-1 0-1.4zm-1.6 9.3c-4.1-4.1-4.3-10.6-.7-15l1.6 1.6C4.4 8 4.6 13 7.8 16.2c3.2 3.2 8.2 3.4 11.7.7l1.6 1.6c-4.3 3.7-10.9 3.4-14.9-.7z" class="nc-icon-wrapper"/></svg>
