<svg id="nc_icon" xmlns="http://www.w3.org/2000/svg" xml:space="preserve" viewBox="0 0 24 24"><path fill="currentColor" d="M12 0a12 12 0 1 0 12 12A12.013 12.013 0 0 0 12 0Zm8.192 8.287-4.826 1.568A3.99 3.99 0 0 0 13 8.141V3.059a9 9 0 0 1 7.192 5.228ZM11 3.059v5.082a3.99 3.99 0 0 0-2.366 1.714L3.808 8.287A9 9 0 0 1 11 3.059ZM3 12a9.042 9.042 0 0 1 .183-1.813l4.841 1.573c0 .081-.024.158-.024.24a3.963 3.963 0 0 0 .926 2.53L5.94 18.64A8.966 8.966 0 0 1 3 12Zm4.555 7.819 2.982-4.1a3.9 3.9 0 0 0 2.926 0l2.982 4.1a8.959 8.959 0 0 1-8.89 0ZM18.06 18.64l-2.986-4.11A3.963 3.963 0 0 0 16 12c0-.082-.019-.159-.024-.24l4.841-1.573a8.991 8.991 0 0 1-2.757 8.453Z" class="nc-icon-wrapper"/></svg>
