<svg id="nc_icon" xmlns="http://www.w3.org/2000/svg" xml:space="preserve" viewBox="0 0 24 24"><g fill="currentColor" class="nc-icon-wrapper"><circle cx="12" cy="18" r="3" data-color="color-2"/><path d="M12 9a8.94 8.94 0 0 0-6.364 2.636l-.707.707 1.414 1.414.707-.707C8.373 11.728 10.13 11 12 11s3.627.728 4.95 2.05l.707.707 1.414-1.414-.707-.707A8.94 8.94 0 0 0 12 9z"/><path d="M22.606 7.394C19.774 4.561 16.007 3 12 3S4.226 4.561 1.394 7.394l-.707.707 1.414 1.414.707-.707C5.263 6.352 8.527 5 12 5s6.737 1.352 9.192 3.808l.707.707 1.414-1.414-.707-.707z"/></g></svg>
