<svg id="nc_icon" xmlns="http://www.w3.org/2000/svg" xml:space="preserve" viewBox="0 0 24 24"><g fill="currentColor" class="nc-icon-wrapper"><path d="M1 9h12.8c2.2 0 4-1.8 4-4s-1.8-4-4-4c-1.7 0-3.2 1.1-3.8 2.7-.2.5.1 1.1.6 1.3s1.1-.1 1.3-.6C12.2 3.5 13 3 13.8 3c1.1 0 2 .9 2 2s-.9 2-2 2H1c-.6 0-1 .4-1 1s.4 1 1 1zM7.8 15H1c-.6 0-1 .4-1 1s.4 1 1 1h6.8c1.1 0 2 .9 2 2s-.9 2-2 2c-.8 0-1.6-.5-1.9-1.3-.2-.5-.8-.8-1.3-.6-.5.2-.8.8-.6 1.3.6 1.5 2.1 2.6 3.8 2.6 2.2 0 4-1.8 4-4s-1.8-4-4-4z"/><path d="M20 11H1c-.6 0-1 .4-1 1s.4 1 1 1h19c1.1 0 2 .9 2 2s-.9 2-2 2c-.8 0-1.6-.5-1.9-1.3-.2-.5-.8-.8-1.3-.6-.5.2-.8.8-.6 1.3.6 1.6 2.1 2.7 3.8 2.7 2.2 0 4-1.8 4-4S22.2 11 20 11z" data-color="color-2"/></g></svg>
