<svg id="nc_icon" xmlns="http://www.w3.org/2000/svg" xml:space="preserve" viewBox="0 0 24 24"><path fill="currentColor" d="M18.4 14.727 17.27 8.726c4.063.382 5.29-.584 5.666-1.37.186-.488.085-1.019-.3-1.577C21.228 3.738 14.74 0 12 0 9.46 0 7.23 7.421 5.652 14.72 2.062 15.598 0 17.135 0 19c0 3.283 6.037 5 12 5s12-1.717 12-5c0-1.867-2.043-3.4-5.6-4.273zm-1.532 2.667c-.766.252-2.3.606-4.868.606-2.565 0-4.097-.353-4.86-.603.11-.543.615-2.747.641-2.866 1.27.425 2.744.781 4.5.781 1.485 0 2.905-.253 4.094-.624l.493 2.706z" class="nc-icon-wrapper"/></svg>
