<svg id="nc_icon" xmlns="http://www.w3.org/2000/svg" xml:space="preserve" viewBox="0 0 24 24"><g fill="currentColor" class="nc-icon-wrapper"><path d="M14 11c0-3.86-3.14-7-7-7s-7 3.14-7 7c0 3.519 2.613 6.432 6 6.92V20H4v2h2v2h2v-2h2v-2H8v-2.08c3.387-.488 6-3.401 6-6.92zM2 11c0-2.757 2.243-5 5-5s5 2.243 5 5-2.243 5-5 5-5-2.243-5-5z" data-color="color-2"/><path d="M18 1v2h2.586l-2.402 2.402A6.953 6.953 0 0 0 14 4c-3.86 0-7 3.14-7 7s3.14 7 7 7 7-3.14 7-7c0-1.57-.526-3.015-1.402-4.184L22 4.414V7h2V1h-6zm-4 15c-2.757 0-5-2.243-5-5s2.243-5 5-5 5 2.243 5 5-2.243 5-5 5z"/></g></svg>
