<svg id="nc_icon" xmlns="http://www.w3.org/2000/svg" xml:space="preserve" viewBox="0 0 24 24"><g fill="currentColor" class="nc-icon-wrapper"><path d="M12 0C5.383 0 0 5.383 0 12v9.535l.445.297C.578 21.92 3.792 24 12 24s11.422-2.08 11.555-2.168l.445-.297V12c0-6.617-5.383-12-12-12zm0 21c-4.962 0-9-4.038-9-9 0-1.855.505-3.017.924-4.017 4.2-.422 7.044-1.749 10.081-4.775C18.718 4.614 21 8.226 21 12c0 4.962-4.038 9-9 9z"/><circle cx="7.5" cy="12.5" r="1.5" data-color="color-2"/><circle cx="16.5" cy="12.5" r="1.5" data-color="color-2"/></g></svg>
