<svg id="nc_icon" xmlns="http://www.w3.org/2000/svg" xml:space="preserve" viewBox="0 0 24 24"><g fill="currentColor" class="nc-icon-wrapper"><path d="m23.566 13.469.005-.018c.275-.938.429-1.926.429-2.951C24 4.71 19.29 0 13.5 0S3 4.71 3 10.5c0 4.967 3.471 9.13 8.112 10.216l.017.004c.764.177 1.555.28 2.371.28 4.758 0 8.781-3.184 10.066-7.531zm-2.35.575c-3.652-.319-6.977 1.739-8.434 4.92a8.447 8.447 0 0 1-2.006-.419c1.755-4.301 6.268-7.072 11.069-6.45a8.396 8.396 0 0 1-.629 1.949zM20.5 10c-5.051 0-9.584 3.061-11.517 7.688a8.534 8.534 0 0 1-1.606-1.307 14.523 14.523 0 0 1 4.367-5.414 14.427 14.427 0 0 1-1.447-2.492 10.365 10.365 0 0 1-5.279 2.401C5.013 10.75 5 10.627 5 10.5c0-.577.059-1.14.169-1.685a8.39 8.39 0 0 0 4.385-2.378 14.604 14.604 0 0 1-.526-3.152 8.403 8.403 0 0 1 1.978-.91c-.001.042-.006.083-.006.125 0 2.656.859 5.239 2.419 7.366a14.553 14.553 0 0 1 1.85-.877A10.51 10.51 0 0 1 13 2.5c0-.155.012-.316.02-.476.16-.009.318-.024.48-.024.518 0 1.023.054 1.516.143-.006.12-.016.242-.016.357 0 2.214.839 4.27 2.358 5.853A14.423 14.423 0 0 1 20.5 8c.375 0 .754.021 1.138.054.197.654.31 1.343.343 2.053A11.898 11.898 0 0 0 20.5 10z"/><path d="M6 24H3c-1.654 0-3-1.346-3-3s1.346-3 3-3h1a1 1 0 1 1 0 2H3a1.001 1.001 0 0 0 0 2h3a1 1 0 1 1 0 2z" data-color="color-2"/></g></svg>
