<svg id="nc_icon" xmlns="http://www.w3.org/2000/svg" xml:space="preserve" viewBox="0 0 24 24"><g fill="currentColor" class="nc-icon-wrapper"><path d="M20.8 11.4c.1.5.2 1.1.2 1.6 0 1.4-.3 2.8-.9 4-2 1.1-2.9.5-3.8-.2-.6-.5-1.5-1.1-2.6-.7-1.1.4-1.9 1.3-2.4 2.4-.4 1-.5 2.3-.3 3.5-2-.2-3.8-1.1-5.1-2.4.7-1.5.7-3-.2-4.3-.2-.4-.5-.7-.8-1-.5-.5-.3-1.4.3-1.7.8-.4 1.7-.8 2.3-1.6 1.2-1.8-.2-4.4-.5-4.9-.1-.1-.2-.2-.3-.4 1-.7 2.1-1.2 3.3-1.5.1-.8.3-1.5.6-2.1C5.2 2.8 1 7.4 1 13c0 6.1 4.9 11 11 11s11-4.9 11-11c0-1.2-.2-2.4-.6-3.6-.5.7-1 1.4-1.6 2z"/><path d="M17 0c-2.5 0-5 1.9-5 5 0 2.8 3.9 6.4 4.3 6.7.2.2.4.3.7.3s.5-.1.7-.3c.4-.3 4.3-3.9 4.3-6.7 0-3.1-2.5-5-5-5zm0 7c-1.1 0-2-.9-2-2s.9-2 2-2 2 .9 2 2-.9 2-2 2z" data-color="color-2"/></g></svg>
