<svg id="nc_icon" xmlns="http://www.w3.org/2000/svg" xml:space="preserve" viewBox="0 0 24 24"><g fill="currentColor" class="nc-icon-wrapper"><path d="M11 22.2V13H6c.3 4.2 2.5 7.5 5 9.2zM18 13h-5v9.2c2.5-1.7 4.7-5 5-9.2zM11 11V1.8c-2.8 2-4.7 5.5-5 9.2h5z" data-color="color-2"/><path d="M20 11h4c-.4-5.4-4.5-9.8-9.7-10.8C17.5 2.6 19.7 6.7 20 11z"/><path d="M13 1.8V11h5c-.3-3.7-2.2-7.3-5-9.2z" data-color="color-2"/><path d="M20 13c-.3 4.4-2.4 8.4-5.7 10.8 5.2-1 9.2-5.4 9.7-10.8h-4zM4 13H0c.4 5.4 4.4 9.8 9.7 10.8C6.5 21.4 4.3 17.4 4 13zM4 11C4.3 6.7 6.5 2.6 9.7.2 4.5 1.2.5 5.6.1 11H4z"/></g></svg>
