<svg id="nc_icon" xmlns="http://www.w3.org/2000/svg" xmlns:xlink="http://www.w3.org/1999/xlink" x="0px" y="0px" viewBox="0 0 24 24"><g >
<circle fill="currentColor" cx="12" cy="12" r="5"/>
<path data-color="color-2" fill="currentColor" d="M2,8H0V1c0-0.553,0.447-1,1-1h7v2H2V8z"/>
<path data-color="color-2" fill="currentColor" d="M16,2V0h7c0.553,0,1,0.447,1,1v7h-2V2H16z"/>
<path data-color="color-2" fill="currentColor" d="M22,16h2v7c0,0.553-0.447,1-1,1h-7v-2h6V16z"/>
<path data-color="color-2" fill="currentColor" d="M8,22v2H1c-0.553,0-1-0.447-1-1v-7h2v6H8z"/>
</g></svg>