<svg id="nc_icon" xmlns="http://www.w3.org/2000/svg" xmlns:xlink="http://www.w3.org/1999/xlink" x="0px" y="0px" viewBox="0 0 24 24"><path  fill="currentColor" d="M23,0H1C0.448,0,0,0.448,0,1v22c0,0.552,0.448,1,1,1h22c0.552,0,1-0.448,1-1V1C24,0.448,23.552,0,23,0z&#10;&#9; M15.555,12.832l-6,4C9.387,16.943,9.194,17,9,17c-0.162,0-0.324-0.039-0.472-0.118C8.203,16.708,8,16.369,8,16V8&#10;&#9;c0-0.369,0.203-0.708,0.528-0.882c0.323-0.174,0.719-0.156,1.026,0.05l6,4C15.833,11.354,16,11.666,16,12&#10;&#9;S15.833,12.646,15.555,12.832z"/></svg>