<svg id="nc_icon" xmlns="http://www.w3.org/2000/svg" xmlns:xlink="http://www.w3.org/1999/xlink" x="0px" y="0px" viewBox="0 0 24 24"><path  fill="currentColor" d="M23,0H1C0.448,0,0,0.448,0,1v22c0,0.552,0.448,1,1,1h22c0.552,0,1-0.448,1-1V1C24,0.448,23.552,0,23,0z&#10;&#9; M16.832,9.555l-4,6C12.646,15.833,12.334,16,12,16s-0.646-0.167-0.832-0.445l-4-6c-0.205-0.307-0.224-0.701-0.05-1.026&#10;&#9;C7.292,8.203,7.631,8,8,8h8c0.369,0,0.708,0.203,0.882,0.528C17.056,8.854,17.037,9.248,16.832,9.555z"/></svg>