<svg id="nc_icon" xmlns="http://www.w3.org/2000/svg" xmlns:xlink="http://www.w3.org/1999/xlink" x="0px" y="0px" viewBox="0 0 24 24"><path  fill="currentColor" d="M23,0H1C0.448,0,0,0.448,0,1v22c0,0.552,0.448,1,1,1h22c0.552,0,1-0.448,1-1V1C24,0.448,23.552,0,23,0z&#10;&#9; M16.02,16c-0.007,0-0.014-0.001-0.02,0H8c-0.369,0-0.708-0.203-0.882-0.528c-0.174-0.325-0.155-0.72,0.05-1.026l4-6&#10;&#9;c0.371-0.557,1.293-0.557,1.664,0l3.905,5.858c0.175,0.18,0.283,0.426,0.283,0.697C17.02,15.552,16.572,16,16.02,16z"/></svg>