<svg id="nc_icon" xmlns="http://www.w3.org/2000/svg" xmlns:xlink="http://www.w3.org/1999/xlink" x="0px" y="0px" viewBox="0 0 24 24"><g >
<path fill="currentColor" d="M12,0C5.383,0,0,5.383,0,12s5.383,12,12,12s12-5.383,12-12S18.617,0,12,0z M16.555,12.832l-6,4&#10;&#9;C10.388,16.943,10.194,17,10,17c-0.162,0-0.324-0.039-0.472-0.118C9.203,16.708,9,16.369,9,16V8c0-0.369,0.203-0.708,0.528-0.882&#10;&#9;c0.325-0.173,0.72-0.155,1.026,0.05l6,4C16.833,11.354,17,11.666,17,12S16.833,12.646,16.555,12.832z"/>
</g></svg>