<svg id="nc_icon" xmlns="http://www.w3.org/2000/svg" xmlns:xlink="http://www.w3.org/1999/xlink" x="0px" y="0px" viewBox="0 0 24 24"><path  fill="currentColor" d="M23,0H1C0.448,0,0,0.448,0,1v22c0,0.552,0.448,1,1,1h22c0.552,0,1-0.448,1-1V1C24,0.448,23.552,0,23,0z&#10;&#9; M16,16c0,0.369-0.203,0.708-0.528,0.882C15.324,16.961,15.162,17,15,17c-0.194,0-0.387-0.056-0.555-0.168l-6-4&#10;&#9;C8.167,12.646,8,12.334,8,12s0.167-0.646,0.445-0.832l6-4c0.307-0.205,0.701-0.224,1.026-0.05S16,7.631,16,8V16z"/></svg>