<svg id="nc_icon" xmlns="http://www.w3.org/2000/svg" xmlns:xlink="http://www.w3.org/1999/xlink" x="0px" y="0px" viewBox="0 0 24 24"><g >
<path fill="currentColor" d="M12.293,11.707C12.488,11.902,12.744,12,13,12s0.512-0.098,0.707-0.293l2.439-2.439l3.793,3.793l2.121-2.121&#10;&#9;l-3.793-3.793l2.439-2.439c0.391-0.391,0.391-1.023,0-1.414l-3-3c-0.391-0.391-1.023-0.391-1.414,0l-7,7&#10;&#9;c-0.391,0.391-0.391,1.023,0,1.414L12.293,11.707z"/>
<rect data-color="color-2" x="1" y="10" fill="currentColor" width="4" height="2"/>
<rect data-color="color-2" x="4.636" y="2.636" transform="matrix(0.7071 -0.7071 0.7071 0.7071 -1.6273 5.3428)" fill="currentColor" width="2" height="4"/>
<path fill="currentColor" d="M23,14H8H0v1c0,2.757,2.243,5,5,5h2v3c0,0.553,0.447,1,1,1h11c0.553,0,1-0.447,1-1c0-1.654,1.346-3,3-3&#10;&#9;c0.553,0,1-0.447,1-1v-4C24,14.447,23.553,14,23,14z"/>
</g></svg>