<svg id="nc_icon" xmlns="http://www.w3.org/2000/svg" xmlns:xlink="http://www.w3.org/1999/xlink" x="0px" y="0px" viewBox="0 0 24 24"><g >
<path fill="currentColor" d="M23,8H1C0.448,8,0,8.448,0,9v14c0,0.552,0.448,1,1,1h22c0.552,0,1-0.448,1-1V9C24,8.448,23.552,8,23,8z&#10;&#9; M12,19c-1.657,0-3-1.343-3-3s1.343-3,3-3s3,1.343,3,3S13.657,19,12,19z"/>
<rect data-color="color-2" x="3" y="4" fill="currentColor" width="18" height="2"/>
<rect data-color="color-2" x="7" fill="currentColor" width="10" height="2"/>
</g></svg>