<svg id="nc_icon" xmlns="http://www.w3.org/2000/svg" xmlns:xlink="http://www.w3.org/1999/xlink" x="0px" y="0px" viewBox="0 0 24 24"><g >
<path fill="currentColor" d="M13.6,6.2C13.1,6.1,12.5,6,12,6H2V5c0-0.6,0.4-1,1-1h7c0.6,0,1-0.4,1-1s-0.4-1-1-1H3C1.3,2,0,3.3,0,5v14&#10;&#9;c0,0.2,0.1,0.4,0.2,0.6L13.6,6.2z"/>
<path fill="currentColor" d="M21,14.8c-0.1-2.1-0.8-4-2-5.5L12.2,16h7.1l1,2H10.2l-2,2H22c0.3,0,0.7-0.2,0.9-0.5c0.2-0.3,0.2-0.7,0-1&#10;&#9;L21,14.8z"/>
<path data-color="color-2" fill="currentColor" d="M2,23c-0.3,0-0.5-0.1-0.7-0.3c-0.4-0.4-0.4-1,0-1.4l20-20c0.4-0.4,1-0.4,1.4,0s0.4,1,0,1.4&#10;&#9;l-20,20C2.5,22.9,2.3,23,2,23z"/>
</g></svg>