<svg id="nc_icon" xmlns="http://www.w3.org/2000/svg" xmlns:xlink="http://www.w3.org/1999/xlink" x="0px" y="0px" viewBox="0 0 24 24"><g >
<path data-color="color-2" fill="currentColor" d="M22.767,20H1.233L12,2.056L22.767,20z M4.767,18h14.467L12,5.944L4.767,18z"/>
<path fill="currentColor" d="M14,1h-4C9.447,1,9,1.448,9,2v4c0,0.552,0.447,1,1,1h4c0.553,0,1-0.448,1-1V2C15,1.448,14.553,1,14,1z"/>
<path fill="currentColor" d="M5,16H1c-0.553,0-1,0.448-1,1v4c0,0.552,0.447,1,1,1h4c0.553,0,1-0.448,1-1v-4C6,16.448,5.553,16,5,16z"/>
<path fill="currentColor" d="M23,16h-4c-0.553,0-1,0.448-1,1v4c0,0.552,0.447,1,1,1h4c0.553,0,1-0.448,1-1v-4C24,16.448,23.553,16,23,16z&#10;&#9;"/>
</g></svg>