<svg id="nc_icon" xmlns="http://www.w3.org/2000/svg" xmlns:xlink="http://www.w3.org/1999/xlink" x="0px" y="0px" viewBox="0 0 24 24"><g >
<path data-color="color-2" fill="currentColor" d="M1.9,17.3L1,21.8c-0.1,0.3,0,0.7,0.3,0.9C1.5,22.9,1.7,23,2,23c0.1,0,0.1,0,0.2,0l4.5-0.9&#10;&#9;L1.9,17.3z"/>
<rect x="3.5" y="9.2" transform="matrix(0.7071 -0.7071 0.7071 0.7071 -5.9706 11.5858)" fill="currentColor" width="15" height="7.7"/>
<path data-color="color-2" fill="currentColor" d="M22.7,5.3l-4-4c-0.4-0.4-1-0.4-1.4,0L15,3.6L20.4,9l2.3-2.3C23.1,6.3,23.1,5.7,22.7,5.3z"/>
</g></svg>