<svg id="nc_icon" xmlns="http://www.w3.org/2000/svg" xmlns:xlink="http://www.w3.org/1999/xlink" x="0px" y="0px" viewBox="0 0 24 24"><g >
<path data-color="color-2" fill="currentColor" d="M22.22,20H1.78l3.4-17h13.64L22.22,20z M4.22,18H19.78l-2.6-13H6.82L4.22,18z"/>
<path fill="currentColor" d="M8,1H4C3.448,1,3,1.448,3,2v4c0,0.552,0.448,1,1,1h4c0.552,0,1-0.448,1-1V2C9,1.448,8.552,1,8,1z"/>
<path fill="currentColor" d="M5,16H1c-0.552,0-1,0.448-1,1v4c0,0.552,0.448,1,1,1h4c0.552,0,1-0.448,1-1v-4C6,16.448,5.552,16,5,16z"/>
<path fill="currentColor" d="M23,16h-4c-0.552,0-1,0.448-1,1v4c0,0.552,0.448,1,1,1h4c0.552,0,1-0.448,1-1v-4C24,16.448,23.552,16,23,16z&#10;&#9;"/>
<path fill="currentColor" d="M21,6V2c0-0.552-0.448-1-1-1h-4c-0.552,0-1,0.448-1,1v4c0,0.552,0.448,1,1,1h4C20.552,7,21,6.552,21,6z"/>
</g></svg>