<svg id="nc_icon" xmlns="http://www.w3.org/2000/svg" xmlns:xlink="http://www.w3.org/1999/xlink" x="0px" y="0px" viewBox="0 0 24 24"><g >
<path data-color="color-2" fill="currentColor" d="M12,22C6.486,22,2,17.514,2,12S6.486,2,12,2s10,4.486,10,10S17.514,22,12,22z M12,4&#10;&#9;c-4.411,0-8,3.589-8,8s3.589,8,8,8s8-3.589,8-8S16.411,4,12,4z"/>
<path fill="currentColor" d="M14,0h-4C9.447,0,9,0.448,9,1v4c0,0.552,0.447,1,1,1h4c0.553,0,1-0.448,1-1V1C15,0.448,14.553,0,14,0z"/>
<path fill="currentColor" d="M14,18h-4c-0.553,0-1,0.448-1,1v4c0,0.552,0.447,1,1,1h4c0.553,0,1-0.448,1-1v-4C15,18.448,14.553,18,14,18z&#10;&#9;"/>
<path fill="currentColor" d="M5,9H1c-0.553,0-1,0.448-1,1v4c0,0.552,0.447,1,1,1h4c0.553,0,1-0.448,1-1v-4C6,9.448,5.553,9,5,9z"/>
<path fill="currentColor" d="M23,9h-4c-0.553,0-1,0.448-1,1v4c0,0.552,0.447,1,1,1h4c0.553,0,1-0.448,1-1v-4C24,9.448,23.553,9,23,9z"/>
</g></svg>