<svg id="nc_icon" xmlns="http://www.w3.org/2000/svg" xmlns:xlink="http://www.w3.org/1999/xlink" x="0px" y="0px" viewBox="0 0 24 24"><g >
<path fill="currentColor" d="M22.8,6.4l-3-4c-0.1-0.1-0.1-0.1-0.2-0.2c0,0,0,0,0,0c0,0,0,0,0,0C19.4,2.1,19.2,2,19,2H5&#10;&#9;C4.8,2,4.6,2.1,4.4,2.2c0,0,0,0,0,0l0,0c0,0,0,0,0,0C4.3,2.3,4.2,2.3,4.2,2.4l-3,4c-0.3,0.4-0.3,0.9,0,1.2l5.3,6.9&#10;&#9;C6.2,15.3,6,16.1,6,17c0,3.3,2.7,6,6,6s6-2.7,6-6c0-0.9-0.2-1.7-0.5-2.5l5.3-6.9C23.1,7.3,23.1,6.8,22.8,6.4z M14.1,8L12,10.9L9.9,8&#10;&#9;H14.1z M3.3,7L5,4.7l4.9,6.7c-0.8,0.3-1.5,0.8-2.1,1.4L3.3,7z M16.3,12.8c-0.6-0.6-1.3-1.1-2.1-1.4L19,4.7L20.7,7L16.3,12.8z"/>
</g></svg>