<svg id="nc_icon" xmlns="http://www.w3.org/2000/svg" xmlns:xlink="http://www.w3.org/1999/xlink" x="0px" y="0px" viewBox="0 0 24 24"><g >
<path fill="currentColor" d="M22.5,8.1l-10-6c-0.3-0.2-0.7-0.2-1,0l-10,6C1.2,8.3,1,8.6,1,9c0,0.3,0.1,0.7,0.4,0.9l10,7&#10;&#9;c0.2,0.1,0.4,0.2,0.6,0.2s0.4-0.1,0.6-0.2l7.4-5.2V17c0,0.6,0.4,1,1,1s1-0.4,1-1v-6.8l0.6-0.4C22.9,9.6,23,9.3,23,9&#10;&#9;C23,8.6,22.8,8.3,22.5,8.1z"/>
<path data-color="color-2" fill="currentColor" d="M13.7,18.5C13.2,18.8,12.6,19,12,19s-1.2-0.2-1.7-0.5L5,14.8V18c0,2.3,3,4,7,4s7-1.7,7-4&#10;&#9;v-3.2L13.7,18.5z"/>
</g></svg>