<svg id="nc_icon" xmlns="http://www.w3.org/2000/svg" xmlns:xlink="http://www.w3.org/1999/xlink" x="0px" y="0px" viewBox="0 0 24 24"><g >
<path fill="currentColor" d="M22,1H2C1.4,1,1,1.4,1,2v21c0,0.6,0.4,1,1,1h20c0.6,0,1-0.4,1-1V2C23,1.4,22.6,1,22,1z M20,20&#10;&#9;c0,0.6-0.4,1-1,1H5c-0.6,0-1-0.4-1-1V5c0-0.6,0.4-1,1-1h2v3c0,0.6,0.4,1,1,1h2c0.6,0,1-0.4,1-1c0-0.6,0.4-1,1-1s1,0.4,1,1&#10;&#9;c0,0.6,0.4,1,1,1h2c0.6,0,1-0.4,1-1V4h2c0.6,0,1,0.4,1,1V20z"/>
<rect data-color="color-2" x="8" y="11" fill="currentColor" width="8" height="2"/>
<rect data-color="color-2" x="8" y="15" fill="currentColor" width="8" height="2"/>
</g></svg>