<svg id="nc_icon" xmlns="http://www.w3.org/2000/svg" xmlns:xlink="http://www.w3.org/1999/xlink" x="0px" y="0px" viewBox="0 0 24 24"><g >
<path fill="currentColor" d="M23,18h-2V3.5C21,1.6,19.4,0,17.5,0h-14C1.6,0,0,1.6,0,3.5V5c0,0.6,0.4,1,1,1h4v14.5C5,22.4,6.6,24,8.5,24&#10;&#9;H20h0.5c1.9,0,3.5-1.6,3.5-3.5V19C24,18.4,23.6,18,23,18z M5,4H2V3.5C2,2.7,2.7,2,3.5,2S5,2.7,5,3.5V4z M9,5h8v2H9V5z M9,9h8v2H9V9z&#10;&#9; M9,13h8v2H9V13z M22,20.5c0,0.8-0.7,1.5-1.5,1.5h-8.8c0.2-0.4,0.3-0.9,0.3-1.5V20h10V20.5z"/>
</g></svg>