<svg id="nc_icon" xmlns="http://www.w3.org/2000/svg" xmlns:xlink="http://www.w3.org/1999/xlink" x="0px" y="0px" viewBox="0 0 24 24"><g >
<path fill="currentColor" d="M23,4h-6V1c0-0.6-0.4-1-1-1H8C7.4,0,7,0.4,7,1v3H1C0.4,4,0,4.4,0,5v7c0,2.8,2.2,5,5,5h1v-3c-0.6,0-1-0.4-1-1&#10;&#9;s0.4-1,1-1h2c0.6,0,1,0.4,1,1s-0.4,1-1,1v3h8v-3c-0.6,0-1-0.4-1-1s0.4-1,1-1h2c0.6,0,1,0.4,1,1s-0.4,1-1,1v3h1c2.8,0,5-2.2,5-5V5&#10;&#9;C24,4.4,23.6,4,23,4z M15,4H9V2h6V4z"/>
<path data-color="color-2" fill="currentColor" d="M19,19h-1v2c0,0.6-0.4,1-1,1s-1-0.4-1-1v-2H8v2c0,0.6-0.4,1-1,1s-1-0.4-1-1v-2H5&#10;&#9;c-1.1,0-2.1-0.3-3-0.7V23c0,0.6,0.4,1,1,1h18c0.6,0,1-0.4,1-1v-4.7C21.1,18.7,20.1,19,19,19z"/>
</g></svg>