<svg id="nc_icon" xmlns="http://www.w3.org/2000/svg" xmlns:xlink="http://www.w3.org/1999/xlink" x="0px" y="0px" viewBox="0 0 24 24"><g >
<path fill="currentColor" d="M20,8c-1.9,0-3.4,1.3-3.9,3h-2.3c-0.4-1.7-2-3-3.9-3C9.5,8,8.9,8.1,8.5,8.3L7.1,6.5C7.7,5.8,8,4.9,8,4&#10;&#9;c0-2.2-1.8-4-4-4S0,1.8,0,4s1.8,4,4,4c0.5,0,1.1-0.1,1.5-0.3l1.4,1.8C6.3,10.2,6,11.1,6,12s0.3,1.8,0.9,2.5l-1.4,1.8&#10;&#9;C5.1,16.1,4.5,16,4,16c-2.2,0-4,1.8-4,4s1.8,4,4,4s4-1.8,4-4c0-0.9-0.3-1.8-0.9-2.5l1.4-1.8c0.5,0.2,1,0.3,1.5,0.3&#10;&#9;c1.9,0,3.4-1.3,3.9-3h2.3c0.4,1.7,2,3,3.9,3c2.2,0,4-1.8,4-4S22.2,8,20,8z"/>
</g></svg>