<svg id="nc_icon" xmlns="http://www.w3.org/2000/svg" xmlns:xlink="http://www.w3.org/1999/xlink" x="0px" y="0px" viewBox="0 0 24 24"><g >
<path data-color="color-2" fill="currentColor" d="M16,7c-0.3,0-0.5-0.1-0.7-0.3L12,3.4L8.7,6.7c-0.4,0.4-1,0.4-1.4,0s-0.4-1,0-1.4l4-4&#10;&#9;c0.4-0.4,1-0.4,1.4,0l4,4c0.4,0.4,0.4,1,0,1.4C16.5,6.9,16.3,7,16,7z"/>
<path fill="currentColor" d="M23,5H1C0.4,5,0,5.4,0,6v17c0,0.6,0.4,1,1,1h22c0.6,0,1-0.4,1-1V6C24,5.4,23.6,5,23,5z M17,18h-5&#10;&#9;c-0.6,0-1,0.4-1,1v2H4c-0.6,0-1-0.4-1-1V9c0-0.6,0.4-1,1-1h16c0.6,0,1,0.4,1,1v11c0,0.6-0.4,1-1,1h-2v-2C18,18.4,17.6,18,17,18z"/>
</g></svg>