<svg id="nc_icon" xmlns="http://www.w3.org/2000/svg" xmlns:xlink="http://www.w3.org/1999/xlink" x="0px" y="0px" viewBox="0 0 24 24"><g >
<path fill="currentColor" d="M20,20H8v-1c0-2.4-1.7-4.4-4-4.9V13c0-2.3,1.1-4.3,2.8-5.6l2.5,6.2c0.1,0.2,0.3,0.4,0.5,0.5&#10;&#9;c0.1,0.1,0.3,0.1,0.4,0.1c0.1,0,0.3,0,0.4-0.1l3.7-1.5c0.5-0.2,0.8-0.8,0.5-1.3L10.8,1.1c-0.1-0.2-0.3-0.4-0.5-0.5&#10;&#9;c-0.2-0.1-0.5-0.1-0.8,0L5.7,2.1C5.2,2.3,5,2.9,5.2,3.4l0.9,2.1C3.5,7.1,2,9.9,2,13v2v6v2c0,0.6,0.4,1,1,1h17c0.6,0,1-0.4,1-1v-2&#10;&#9;C21,20.4,20.6,20,20,20z"/>
<path data-color="color-2" fill="currentColor" d="M10,17c0,0.6,0.4,1,1,1h7c0.6,0,1-0.4,1-1s-0.4-1-1-1h-7C10.4,16,10,16.4,10,17z"/>
</g></svg>