<svg id="nc_icon" xmlns="http://www.w3.org/2000/svg" xmlns:xlink="http://www.w3.org/1999/xlink" x="0px" y="0px" viewBox="0 0 24 24"><g >
<path fill="currentColor" d="M16,10V5V4c0-1.7-1.3-3-3-3h-2c-0.6,0-1,0.4-1,1s0.4,1,1,1h2c0.6,0,1,0.4,1,1h-2.5C9.6,4,8,5.6,8,7.5&#10;&#9;S9.6,11,11.5,11H15C15.6,11,16,10.6,16,10z M10,7.5C10,6.7,10.7,6,11.5,6H14v3h-2.5C10.7,9,10,8.3,10,7.5z"/>
<path fill="currentColor" d="M6,15H4v-4c0-0.6-0.4-1-1-1s-1,0.4-1,1v5v6c0,0.6,0.4,1,1,1h3c2.2,0,4-1.8,4-4S8.2,15,6,15z M6,21H4v-4h2&#10;&#9;c1.1,0,2,0.9,2,2S7.1,21,6,21z"/>
<path fill="currentColor" d="M22.2,20.1c-0.5-0.3-1.1-0.1-1.4,0.4C20.7,20.8,20.4,21,20,21h-2c-0.6,0-1-0.4-1-1v-3c0-0.6,0.4-1,1-1h2&#10;&#9;c0.4,0,0.7,0.2,0.9,0.5c0.3,0.5,0.9,0.6,1.4,0.4c0.5-0.3,0.6-0.9,0.4-1.4C22.1,14.6,21.1,14,20,14h-2c-1.7,0-3,1.3-3,3v3&#10;&#9;c0,1.7,1.3,3,3,3h2c1.1,0,2.1-0.6,2.6-1.5C22.9,21,22.7,20.4,22.2,20.1z"/>
</g></svg>