<svg id="nc_icon" xmlns="http://www.w3.org/2000/svg" xmlns:xlink="http://www.w3.org/1999/xlink" x="0px" y="0px" viewBox="0 0 24 24"><g >
<path fill="currentColor" d="M23.6,1.2C23.4,1,23,1,22.7,1L12,4L1.3,1C1,1,0.6,1,0.4,1.2C0.1,1.4,0,1.7,0,2v17c0,0.5,0.3,0.8,0.7,1l11,3&#10;&#9;c0.1,0,0.2,0,0.3,0s0.2,0,0.3,0l11-3c0.4-0.1,0.7-0.5,0.7-1V2C24,1.7,23.9,1.4,23.6,1.2z M10,17.3C9.8,17.7,9.4,18,9,18&#10;&#9;c-0.1,0-0.2,0-0.3,0l-4-1.1c-0.5-0.1-0.8-0.7-0.7-1.2c0.1-0.5,0.7-0.8,1.2-0.7l4,1.1C9.8,16.2,10.1,16.8,10,17.3z M10,12.8&#10;&#9;c-0.1,0.4-0.5,0.7-1,0.7c-0.1,0-0.2,0-0.3,0l-4-1.1c-0.5-0.1-0.8-0.7-0.7-1.2c0.1-0.5,0.7-0.8,1.2-0.7l4,1.1&#10;&#9;C9.8,11.7,10.1,12.3,10,12.8z M10,8.6C9.8,9,9.4,9.3,9,9.3c-0.1,0-0.2,0-0.3,0l-4-1.1C4.2,8.1,3.9,7.5,4,7c0.1-0.5,0.7-0.8,1.2-0.7&#10;&#9;l4,1.1C9.8,7.5,10.1,8.1,10,8.6z M19.3,16.9l-4,1.1c-0.1,0-0.2,0-0.3,0c-0.4,0-0.8-0.3-1-0.7c-0.1-0.5,0.2-1.1,0.7-1.2l4-1.1&#10;&#9;c0.5-0.1,1.1,0.2,1.2,0.7C20.1,16.2,19.8,16.8,19.3,16.9z M19.3,12.4l-4,1.1c-0.1,0-0.2,0-0.3,0c-0.4,0-0.8-0.3-1-0.7&#10;&#9;c-0.1-0.5,0.2-1.1,0.7-1.2l4-1.1c0.5-0.1,1.1,0.2,1.2,0.7C20.1,11.7,19.8,12.3,19.3,12.4z M19.3,8.2l-4,1.1c-0.1,0-0.2,0-0.3,0&#10;&#9;c-0.4,0-0.8-0.3-1-0.7c-0.1-0.5,0.2-1.1,0.7-1.2l4-1.1C19.3,6.1,19.8,6.4,20,7C20.1,7.5,19.8,8.1,19.3,8.2z"/>
</g></svg>