<svg id="nc_icon" xmlns="http://www.w3.org/2000/svg" xmlns:xlink="http://www.w3.org/1999/xlink" x="0px" y="0px" viewBox="0 0 24 24"><g >
<path data-color="color-2" fill="currentColor" d="M23.7,16.3l-3.2-3.2c0.3-0.6,0.5-1.4,0.5-2.1c0-2.8-2.2-5-5-5s-5,2.2-5,5s2.2,5,5,5&#10;&#9;c1.3,0,2.4-0.5,3.3-1.3l3,3c0.2,0.2,0.5,0.3,0.7,0.3s0.5-0.1,0.7-0.3C24.1,17.3,24.1,16.7,23.7,16.3z"/>
<path fill="currentColor" d="M16,4c1.5,0,2.9,0.5,4,1.3V1c0-0.6-0.4-1-1-1H1C0.4,0,0,0.4,0,1v22c0,0.6,0.4,1,1,1h18c0.6,0,1-0.4,1-1v-4.8&#10;&#9;l-1-1c-0.9,0.5-2,0.7-3,0.7c-3.9,0-7-3.1-7-7S12.1,4,16,4z M3,6h5v2H3V6z M3,11h4v2H3V11z M9,18H3v-2h6V18z"/>
</g></svg>