<svg id="nc_icon" xmlns="http://www.w3.org/2000/svg" xmlns:xlink="http://www.w3.org/1999/xlink" x="0px" y="0px" viewBox="0 0 24 24"><g >
<path fill="currentColor" d="M19,0h-3v8c0,0.6-0.4,1-1,1s-1-0.4-1-1V0h-4v8c0,0.6-0.4,1-1,1S8,8.6,8,8V0H5C4.4,0,4,0.4,4,1v13&#10;&#9;c0,0,0,0.1,0,0.1c0,0.1,0,0.1,0,0.2c0,0.1,0.1,0.1,0.1,0.2c0,0,0,0.1,0,0.1c0,0,0,0,0,0c0,0,0,0,0,0l7,8c0.2,0.2,0.5,0.3,0.8,0.3&#10;&#9;s0.6-0.1,0.8-0.3l7-8c0,0,0,0,0,0c0,0,0,0,0,0c0,0,0-0.1,0-0.1c0-0.1,0.1-0.1,0.1-0.2c0-0.1,0-0.1,0-0.2c0,0,0-0.1,0-0.1V1&#10;&#9;C20,0.4,19.6,0,19,0z M13.3,19h-2.6l-4.2-4.8l2.4-1.8l2.4,2.4c0.4,0.4,1,0.4,1.4,0l2.4-2.4l2.4,1.8L13.3,19z"/>
</g></svg>