<svg id="nc_icon" xmlns="http://www.w3.org/2000/svg" xmlns:xlink="http://www.w3.org/1999/xlink" x="0px" y="0px" viewBox="0 0 24 24"><g >
<path fill="currentColor" d="M20,1h-1c-0.6,0-1,0.4-1,1s0.4,1,1,1h1c1.1,0,2,0.9,2,2v8.3c-1-0.8-2.2-1.3-3.5-1.3c-2,0-3.7,1.1-4.7,2.6&#10;&#9;C13.3,14.2,12.7,14,12,14s-1.3,0.2-1.8,0.6c-1-1.6-2.7-2.6-4.7-2.6C4.2,12,3,12.5,2,13.3V5c0-1.1,0.9-2,2-2h1c0.6,0,1-0.4,1-1&#10;&#9;S5.6,1,5,1H4C1.8,1,0,2.8,0,5v12.5c0,3,2.5,5.5,5.5,5.5s5.5-2.5,5.5-5.5c0-0.1,0-0.3,0-0.4c0,0,0-0.1,0-0.1c0-0.6,0.4-1,1-1&#10;&#9;s1,0.4,1,1c0,0,0,0.1,0,0.1c0,0.1,0,0.3,0,0.4c0,3,2.5,5.5,5.5,5.5s5.5-2.5,5.5-5.5V5C24,2.8,22.2,1,20,1z"/>
</g></svg>