<svg id="nc_icon" xmlns="http://www.w3.org/2000/svg" xmlns:xlink="http://www.w3.org/1999/xlink" x="0px" y="0px" viewBox="0 0 24 24"><g >
<path fill="currentColor" d="M23,17h-1V4c0-0.2-0.1-0.3-0.1-0.5l1.8-1.8c0.4-0.4,0.4-1,0-1.4s-1-0.4-1.4,0L19.6,3H14V2c0-0.6-0.4-1-1-1&#10;&#9;h-2c-0.6,0-1,0.4-1,1v1H3C2.4,3,2,3.4,2,4v13H1c-0.6,0-1,0.4-1,1s0.4,1,1,1h6.9l-2.7,3.4c-0.3,0.4-0.3,1.1,0.2,1.4&#10;&#9;C5.6,23.9,5.8,24,6,24c0.3,0,0.6-0.1,0.8-0.4l3.7-4.6H11v3c0,0.6,0.4,1,1,1s1-0.4,1-1v-3h0.5l3.7,4.6c0.2,0.2,0.5,0.4,0.8,0.4&#10;&#9;c0.2,0,0.4-0.1,0.6-0.2c0.4-0.3,0.5-1,0.2-1.4L16.1,19H23c0.6,0,1-0.4,1-1S23.6,17,23,17z M4,5h13.6l-3.3,3.3c-0.4,0.4-0.4,1,0,1.4&#10;&#9;C14.5,9.9,14.7,10,15,10s0.5-0.1,0.7-0.3L20,5.4V17H4V5z"/>
<path data-color="color-2" fill="currentColor" d="M7,10h4c0.6,0,1-0.4,1-1s-0.4-1-1-1H7C6.4,8,6,8.4,6,9S6.4,10,7,10z"/>
<path data-color="color-2" fill="currentColor" d="M18,13c0-0.6-0.4-1-1-1H7c-0.6,0-1,0.4-1,1s0.4,1,1,1h10C17.6,14,18,13.6,18,13z"/>
</g></svg>