<svg id="nc_icon" xmlns="http://www.w3.org/2000/svg" xmlns:xlink="http://www.w3.org/1999/xlink" x="0px" y="0px" viewBox="0 0 24 24"><g >
<path fill="currentColor" d="M22.1,5.5c-0.6-0.9-2-1.8-5.3-1.1c-0.3,0.1-0.5,0.1-0.8,0.2C15.2,1.9,13.8,0,12,0c-1.7,0-3.1,1.7-4,4.7&#10;&#9;c-2.6-0.7-5-0.7-6.1,0.9c-0.6,0.9-0.8,2.6,1.2,5.3c0.3,0.4,0.7,0.8,1,1.2c-0.4,0.4-0.7,0.8-1,1.2c-2.1,2.7-1.8,4.4-1.2,5.3&#10;&#9;c0.6,0.9,1.6,1.4,3.1,1.4c0.9,0,1.9-0.2,3-0.5C8.8,22,10.1,24,12,24c1.8,0,3.2-1.9,4-4.6c0.3,0.1,0.5,0.1,0.8,0.2&#10;&#9;c0.9,0.2,1.6,0.3,2.2,0.3c1.8,0,2.7-0.7,3.1-1.4c1-1.5,0.2-3.8-2.3-6.4C21.9,9.8,23.2,7.3,22.1,5.5z M17.2,6.4&#10;&#9;c1.8-0.4,2.9-0.2,3.2,0.2c0.4,0.7-0.6,2.9-3.4,5.4c0-1.9-0.2-3.7-0.5-5.4C16.8,6.5,17,6.5,17.2,6.4z M7,12c1-0.9,2.1-1.7,3.4-2.5&#10;&#9;c1.4-0.9,2.8-1.7,4.2-2.2c0.3,1.4,0.4,3,0.4,4.7c0,0.7,0,1.4-0.1,2c0,0,0,0,0,0c-0.1,1-0.2,1.9-0.3,2.7c-1.4-0.6-2.8-1.3-4.2-2.2&#10;&#9;C9.1,13.7,8,12.9,7,12z M12,2c0.7,0,1.5,1.2,2.1,3.3c-0.7,0.3-1.4,0.6-2.1,1c-0.7-0.3-1.4-0.7-2.1-1C10.6,2.9,11.5,2,12,2z M3.6,6.6&#10;&#9;C4,5.9,6.4,6,9.9,7.5C9.7,7.6,9.5,7.7,9.3,7.8c-1.4,0.9-2.6,1.8-3.7,2.8c-0.3-0.3-0.6-0.7-0.9-1C3.6,8.1,3.3,7,3.6,6.6z M3.6,17.4&#10;&#9;c-0.3-0.4,0-1.5,1.1-3c0.3-0.3,0.6-0.7,0.9-1c0.5,0.4,1,0.9,1.5,1.3c0.1,0.9,0.2,1.8,0.4,2.7C5.1,18.1,3.8,17.8,3.6,17.4z M12,22&#10;&#9;c-0.8,0-2.1-2-2.7-5.8c1.6,1,3.2,1.9,4.8,2.5C13.5,20.8,12.7,22,12,22z M20.4,17.4c-0.3,0.4-1.3,0.6-3.2,0.2&#10;&#9;c-0.2-0.1-0.5-0.1-0.7-0.2c0.2-0.9,0.3-1.8,0.4-2.7c0.5-0.4,1-0.8,1.5-1.3C20.4,15.5,20.7,16.9,20.4,17.4z"/>
<circle data-color="color-2" fill="currentColor" cx="12" cy="12" r="2"/>
</g></svg>