<svg id="nc_icon" xmlns="http://www.w3.org/2000/svg" xmlns:xlink="http://www.w3.org/1999/xlink" x="0px" y="0px" viewBox="0 0 24 24"><g >
<path data-color="color-2" fill="currentColor" d="M17,20h-4v-4h-2v4H7c-0.55273,0-1,0.44775-1,1s0.44727,1,1,1h10c0.55273,0,1-0.44775,1-1&#10;&#9;S17.55273,20,17,20z"/>
<path fill="currentColor" d="M11,7V2H6C5.59082,2,5.22363,2.24902,5.07129,2.62842L3.32263,7H11z"/>
<path fill="currentColor" d="M20.67737,7l-1.74866-4.37158C18.77637,2.24902,18.40918,2,18,2h-5v5H20.67737z"/>
<path fill="currentColor" d="M2.52264,9l-1.45135,3.62842c-0.12305,0.30811-0.08496,0.65723,0.10059,0.93213&#10;&#9;C1.3584,13.83545,1.66797,14,2,14h9V9H2.52264z"/>
<path fill="currentColor" d="M21.47736,9H13v5h9c0.33203,0,0.6416-0.16455,0.82812-0.43945&#10;&#9;c0.18555-0.2749,0.22363-0.62402,0.10059-0.93213L21.47736,9z"/>
</g></svg>