<svg id="nc_icon" xmlns="http://www.w3.org/2000/svg" xmlns:xlink="http://www.w3.org/1999/xlink" x="0px" y="0px" viewBox="0 0 24 24"><g >
<path fill="currentColor" d="M13,8c0-0.551-0.449-1-1-1s-1,0.449-1,1v3h2V8z"/>
<path fill="currentColor" d="M22,0H2C1.448,0,1,0.448,1,1v22c0,0.552,0.448,1,1,1h20c0.552,0,1-0.448,1-1V1C23,0.448,22.552,0,22,0z&#10;&#9; M17,17c0,0.552-0.448,1-1,1H8c-0.552,0-1-0.448-1-1v-5c0-0.552,0.448-1,1-1h1V8c0-1.654,1.346-3,3-3s3,1.346,3,3v3h1&#10;&#9;c0.552,0,1,0.448,1,1V17z"/>
</g></svg>