<svg id="nc_icon" xmlns="http://www.w3.org/2000/svg" xmlns:xlink="http://www.w3.org/1999/xlink" x="0px" y="0px" viewBox="0 0 24 24"><g >
<path fill="currentColor" d="M23,0H1C0.448,0,0,0.448,0,1v22c0,0.552,0.448,1,1,1h22c0.552,0,1-0.448,1-1V1C24,0.448,23.552,0,23,0z&#10;&#9; M22,2v13h-6c-0.552,0-1,0.448-1,1v2H9v-2c0-0.552-0.448-1-1-1H2V2H22z"/>
<path data-color="color-2" fill="currentColor" d="M10,13c-0.256,0-0.512-0.098-0.707-0.293L6.586,10L8,8.586l2,2l6-6L17.414,6l-6.707,6.707&#10;&#9;C10.512,12.902,10.256,13,10,13z"/>
</g></svg>