<svg id="nc_icon" xmlns="http://www.w3.org/2000/svg" xmlns:xlink="http://www.w3.org/1999/xlink" x="0px" y="0px" viewBox="0 0 24 24"><g >
<path fill="currentColor" d="M22.9,22c-0.4-4.7-3.8-8.5-8.3-9.7c0.2-0.4,0.3-0.9,0.3-1.3c0-1.7-1.3-3-3-3s-3,1.3-3,3&#10;&#9;c0,0.5,0.1,0.9,0.3,1.3c-4.5,1.1-7.9,5-8.3,9.7H0v2h23.8v-2H22.9z"/>
<path data-color="color-2" fill="currentColor" d="M12,5c0.6,0,1-0.4,1-1V1c0-0.6-0.4-1-1-1s-1,0.4-1,1v3C11,4.6,11.4,5,12,5z"/>
<path data-color="color-2" fill="currentColor" d="M7,7c0.6,0,1-0.4,1-1V3c0-0.6-0.4-1-1-1S6,2.4,6,3v3C6,6.6,6.4,7,7,7z"/>
<path data-color="color-2" fill="currentColor" d="M17,7c0.6,0,1-0.4,1-1V3c0-0.6-0.4-1-1-1s-1,0.4-1,1v3C16,6.6,16.4,7,17,7z"/>
</g></svg>