<svg id="nc_icon" xmlns="http://www.w3.org/2000/svg" xmlns:xlink="http://www.w3.org/1999/xlink" x="0px" y="0px" viewBox="0 0 24 24"><g >
<path fill="currentColor" d="M13,19.9C13,19.9,13,19.9,13,19.9l0.8-8.5l-7.2,6.4C8,19.2,9.9,20,12,20C12.3,20,12.7,20,13,19.9z"/>
<path fill="currentColor" d="M12.1,10.3l-8,0.7c0,0,0,0,0,0C4,11.3,4,11.7,4,12c0,1.6,0.5,3.1,1.3,4.3L12.1,10.3z"/>
<path fill="currentColor" d="M22.4,16.6l-6.4-7l-0.9,9.8c1.7-0.7,3-1.9,3.9-3.5l1.4,1.5c-1.8,2.8-5,4.6-8.4,4.6C6.5,22,2,17.5,2,12&#10;&#9;c0-3.7,2.1-7.1,5.3-8.8l1.4,1.5C6.9,5.5,5.4,7.1,4.6,8.9L14.5,8L8.3,1.3C8,0.9,7.6,0.8,7.2,1C2.8,2.9,0,7.2,0,12c0,6.6,5.4,12,12,12&#10;&#9;c4.4,0,8.4-2.4,10.5-6.2C22.7,17.4,22.7,17,22.4,16.6z"/>
</g></svg>