<svg id="nc_icon" xmlns="http://www.w3.org/2000/svg" xmlns:xlink="http://www.w3.org/1999/xlink" x="0px" y="0px" viewBox="0 0 24 24"><g >
<path fill="currentColor" d="M15.8,12.4l-4.2-4.2c-0.4-0.4-1-0.4-1.4,0l-1.9,1.9C6,9.7,3.7,10.4,2.1,12c-2.7,2.7-2.7,7.2,0,9.9&#10;&#9;c1.4,1.4,3.2,2,4.9,2s3.6-0.7,4.9-2c1.6-1.6,2.3-3.9,1.9-6.2l1.9-1.9C16.2,13.5,16.2,12.8,15.8,12.4z"/>
<path data-color="color-2" fill="currentColor" d="M22.2,3.9c-0.4-0.4-0.9-0.6-1.4-0.7c-0.1-0.5-0.3-1-0.7-1.4c-1-1-2.6-1-3.5,0&#10;&#9;c-0.9,0.9-1,2.2-0.3,3.1l-2.6,2.6l2.8,2.8l2.6-2.6c1,0.6,2.3,0.5,3.1-0.3C23.2,6.5,23.2,4.9,22.2,3.9z"/>
</g></svg>