<svg id="nc_icon" xmlns="http://www.w3.org/2000/svg" xmlns:xlink="http://www.w3.org/1999/xlink" x="0px" y="0px" viewBox="0 0 24 24"><g >
<path fill="currentColor" d="M6,0C3.2,0,1,2.2,1,5v2c0,2,1.2,3.8,3,4.6V22c0,1.1,0.9,2,2,2s2-0.9,2-2V11.6C9.8,10.8,11,9,11,7V5&#10;&#9;C11,2.2,8.8,0,6,0z"/>
<path data-color="color-2" fill="currentColor" d="M22,0c-0.6,0-1,0.4-1,1v4h-2V1c0-0.6-0.4-1-1-1s-1,0.4-1,1v4h-2V1c0-0.6-0.4-1-1-1&#10;&#9;s-1,0.4-1,1v8c0,1.7,1.3,3,3,3v10c0,1.1,0.9,2,2,2s2-0.9,2-2V12c1.7,0,3-1.3,3-3V1C23,0.4,22.6,0,22,0z"/>
</g></svg>