<svg id="nc_icon" xmlns="http://www.w3.org/2000/svg" xmlns:xlink="http://www.w3.org/1999/xlink" x="0px" y="0px" viewBox="0 0 24 24"><g >
<path fill="currentColor" d="M0.6,7.9l3.9,1.6c-0.2,0.5-0.4,1-0.5,1.5H1c-0.6,0-1,0.4-1,1c0,1,0.1,2,0.4,3h23.2c0.2-1,0.4-2,0.4-3&#10;&#9;c0-0.6-0.4-1-1-1h-7.1C15.4,8.2,13,6,10,6C9.2,6,8.5,6.2,7.8,6.4L2.7,1.3c-0.4-0.4-1-0.4-1.4,0s-0.4,1,0,1.4l4.8,4.8&#10;&#9;C5.9,7.6,5.8,7.7,5.7,7.8L1.4,6.1c-0.5-0.2-1.1,0-1.3,0.6C-0.1,7.1,0.1,7.7,0.6,7.9z"/>
<path data-color="color-2" fill="currentColor" d="M1.1,17C3,21.1,7.2,24,12,24s9-2.9,10.9-7H1.1z"/>
<path data-color="color-2" fill="currentColor" d="M17.4,9H22c0-3.9-3.1-7-7-7c-1.9,0-3.6,0.8-4.9,2C13.4,4,16.2,6.1,17.4,9z"/>
</g></svg>