<svg id="nc_icon" xmlns="http://www.w3.org/2000/svg" xmlns:xlink="http://www.w3.org/1999/xlink" x="0px" y="0px" viewBox="0 0 24 24"><g >
<path data-color="color-2" fill="currentColor" d="M10,4c0.6,0,1-0.4,1-1V1c0-0.6-0.4-1-1-1S9,0.4,9,1v2C9,3.6,9.4,4,10,4z"/>
<path data-color="color-2" fill="currentColor" d="M5,4c0.6,0,1-0.4,1-1V1c0-0.6-0.4-1-1-1S4,0.4,4,1v2C4,3.6,4.4,4,5,4z"/>
<path data-color="color-2" fill="currentColor" d="M15,4c0.6,0,1-0.4,1-1V1c0-0.6-0.4-1-1-1s-1,0.4-1,1v2C14,3.6,14.4,4,15,4z"/>
<path fill="currentColor" d="M22,6h-4H2C1.4,6,1,6.4,1,7v12c0,2.8,2.2,5,5,5h8c2.8,0,5-2.2,5-5v-5h1c1.7,0,3-1.3,3-3V7&#10;&#9;C23,6.4,22.6,6,22,6z M21,11c0,0.6-0.4,1-1,1h-1V8h2V11z"/>
</g></svg>