<svg id="nc_icon" xmlns="http://www.w3.org/2000/svg" xmlns:xlink="http://www.w3.org/1999/xlink" x="0px" y="0px" viewBox="0 0 24 24"><g >
<path fill="currentColor" d="M23.4,7.1c-0.4-1-1.2-2.2-2.5-3.4c-2.5-2.5-5.6-4.3-7.1-2.8L9.7,5.1C8.4,6.4,8,8,7.6,9.5&#10;&#9;C7.3,10.8,7,12,6.1,12.9c-0.2,0.2-0.3,0.5-0.3,0.7s0.1,0.5,0.3,0.7l3.5,3.5c0.2,0.2,0.5,0.3,0.7,0.3s0.5-0.1,0.7-0.3&#10;&#9;c0.8-0.8,2.1-1.2,3.4-1.5c1.5-0.4,3.1-0.8,4.4-2l4.2-4.2C23.5,9.7,24.1,8.7,23.4,7.1z"/>
<path data-color="color-2" fill="currentColor" d="M7.5,18.5l-2.1-2.1l-2,2c-0.8-0.8-2-0.8-2.8,0c-0.8,0.8-0.8,2,0,2.8c0.4,0.4,1,0.6,1.5,0.6&#10;&#9;c0,0.6,0.1,1.1,0.6,1.5c0.8,0.8,2,0.8,2.8,0c0.8-0.8,0.8-2,0-2.8L7.5,18.5z"/>
</g></svg>