<svg id="nc_icon" xmlns="http://www.w3.org/2000/svg" xmlns:xlink="http://www.w3.org/1999/xlink" x="0px" y="0px" viewBox="0 0 24 24"><g >
<path fill="currentColor" d="M23,1c-1.9,0-3.3,0.7-4.3,2c-0.9-0.5-1.9-0.7-2.9-0.6c-1.6,0.1-3,0.8-4,2.1L10.7,6l3.7,3.7&#10;&#9;c0.4,0.4,0.4,1,0,1.4c-0.2,0.2-0.5,0.3-0.7,0.3S13.2,11.2,13,11L9.5,7.5L0.7,18.7C-0.3,20-0.2,21.9,1,23c0.6,0.6,1.5,1,2.3,1&#10;&#9;c0.7,0,1.4-0.2,2-0.7l6.4-5.1l-3-3c-0.4-0.4-0.4-1,0-1.4s1-0.4,1.4,0l3.1,3.1l6.3-4.9c1.2-1,2-2.4,2.1-4c0.1-1.4-0.4-2.8-1.3-3.9&#10;&#9;C20.9,3.4,21.8,3,23,3c0.6,0,1-0.4,1-1S23.6,1,23,1z"/>
</g></svg>