<svg id="nc_icon" xmlns="http://www.w3.org/2000/svg" xmlns:xlink="http://www.w3.org/1999/xlink" x="0px" y="0px" viewBox="0 0 24 24"><g >
<path data-color="color-2" fill="currentColor" d="M10,5C9.4,5,9,4.6,9,4V1c0-0.6,0.4-1,1-1s1,0.4,1,1v3C11,4.6,10.6,5,10,5z"/>
<path data-color="color-2" fill="currentColor" d="M5,6C4.4,6,4,5.6,4,5V2c0-0.6,0.4-1,1-1s1,0.4,1,1v3C6,5.6,5.6,6,5,6z"/>
<path data-color="color-2" fill="currentColor" d="M15,6c-0.6,0-1-0.4-1-1V2c0-0.6,0.4-1,1-1s1,0.4,1,1v3C16,5.6,15.6,6,15,6z"/>
<path fill="currentColor" d="M23,8H13v5h2v5H9v-5h2V8H1C0.4,8,0,8.4,0,9v5c0,5.5,4.5,10,10,10c4.8,0,8.9-3.4,9.8-8H21c1.7,0,3-1.3,3-3V9&#10;&#9;C24,8.4,23.6,8,23,8z M22,13c0,0.6-0.4,1-1,1h-1v-4h2V13z"/>
</g></svg>