<svg id="nc_icon" xmlns="http://www.w3.org/2000/svg" xmlns:xlink="http://www.w3.org/1999/xlink" x="0px" y="0px" viewBox="0 0 24 24"><g >
<path fill="currentColor" d="M17.4,11.4L15,9.5V4H9v5.5l-2.4,1.9C5,12.8,4,14.7,4,16.9V23c0,0.6,0.4,1,1,1h14c0.6,0,1-0.4,1-1v-6.1&#10;&#9;C20,14.7,19,12.8,17.4,11.4z M14.7,18.3c0.4,0.4,0.4,1,0,1.4C14.5,19.9,14.3,20,14,20s-0.5-0.1-0.7-0.3L12,18.4l-1.3,1.3&#10;&#9;C10.5,19.9,10.3,20,10,20s-0.5-0.1-0.7-0.3c-0.4-0.4-0.4-1,0-1.4l1.3-1.3l-1.3-1.3c-0.4-0.4-0.4-1,0-1.4s1-0.4,1.4,0l1.3,1.3&#10;&#9;l1.3-1.3c0.4-0.4,1-0.4,1.4,0s0.4,1,0,1.4L13.4,17L14.7,18.3z"/>
<path data-color="color-2" fill="currentColor" d="M15,2V1c0-0.6-0.4-1-1-1h-4C9.4,0,9,0.4,9,1v1H15z"/>
</g></svg>