<svg id="nc_icon" xmlns="http://www.w3.org/2000/svg" xmlns:xlink="http://www.w3.org/1999/xlink" x="0px" y="0px" viewBox="0 0 24 24"><g >
<path fill="currentColor" d="M23,7h-4H1C0.4,7,0,7.4,0,8v12c0,2.2,1.8,4,4,4h12c2.2,0,4-1.8,4-4v-9h3c0.6,0,1-0.4,1-1V8&#10;&#9;C24,7.4,23.6,7,23,7z"/>
<path data-color="color-2" fill="currentColor" d="M10,5c0.6,0,1-0.4,1-1V1c0-0.6-0.4-1-1-1S9,0.4,9,1v3C9,4.6,9.4,5,10,5z"/>
<path data-color="color-2" fill="currentColor" d="M6,5c0.6,0,1-0.4,1-1V1c0-0.6-0.4-1-1-1S5,0.4,5,1v3C5,4.6,5.4,5,6,5z"/>
<path data-color="color-2" fill="currentColor" d="M14,5c0.6,0,1-0.4,1-1V1c0-0.6-0.4-1-1-1s-1,0.4-1,1v3C13,4.6,13.4,5,14,5z"/>
</g></svg>