<svg id="nc_icon" xmlns="http://www.w3.org/2000/svg" xmlns:xlink="http://www.w3.org/1999/xlink" x="0px" y="0px" viewBox="0 0 24 24"><g >
<path data-color="color-2" fill="currentColor" d="M22.7,9c-0.9-2.4-3.9-4.8-7.7-5.7V1c0-0.6-0.4-1-1-1h-4C9.4,0,9,0.4,9,1v2.3&#10;&#9;C5.2,4.2,2.2,6.6,1.3,9H22.7z M11,2h2v1c-0.3,0-0.7,0-1,0c-0.3,0-0.7,0-1,0V2z"/>
<path fill="currentColor" d="M22.9,11H1.1c0.3,3.7,2.5,6.8,5.5,8.6l-1.5,3c-0.2,0.5,0,1.1,0.5,1.3C5.7,24,5.9,24,6,24&#10;&#9;c0.4,0,0.7-0.2,0.9-0.6l1.5-3.1C9.5,20.8,10.7,21,12,21s2.5-0.2,3.6-0.6l1.5,3.1c0.2,0.4,0.5,0.6,0.9,0.6c0.1,0,0.3,0,0.4-0.1&#10;&#9;c0.5-0.2,0.7-0.8,0.5-1.3l-1.5-3C20.5,17.8,22.6,14.7,22.9,11z M14,15h-4c-0.6,0-1-0.4-1-1s0.4-1,1-1h4c0.6,0,1,0.4,1,1&#10;&#9;S14.6,15,14,15z"/>
</g></svg>