<svg id="nc_icon" xmlns="http://www.w3.org/2000/svg" xmlns:xlink="http://www.w3.org/1999/xlink" x="0px" y="0px" viewBox="0 0 24 24"><g >
<path fill="currentColor" d="M17.2,6c0,0-0.1,0-0.1,0c1-1.9,0.6-4.5,0.6-4.8c-0.1-0.5-0.6-0.9-1.2-0.8C16.2,0.5,13.3,1,11.9,3&#10;&#9;c-0.2,0.2-0.3,0.5-0.4,0.8c-1-1.4-2.2-2.2-3.1-2.6C8,0.9,7.4,1.1,7.1,1.6C6.9,2,7.1,2.6,7.6,2.9C8.3,3.3,9.3,4,10.1,5.2&#10;&#9;c0.3,0.5,0.5,1,0.7,1.5c-0.1,0-0.3-0.1-0.4-0.1C9.3,6.2,8.1,5.8,6.8,6C3.8,6.6,2,9.3,2,13c0,5.5,6.4,11,10,11s10-5.5,10-11&#10;&#9;C22,9.3,20.2,6.6,17.2,6z M13.6,4.1C14,3.4,15,3,15.8,2.7c0,0.8-0.1,1.9-0.6,2.6c-0.5,0.7-1.4,1.2-2.2,1.4C13,5.8,13.1,4.8,13.6,4.1&#10;&#9;z M8,14c-0.6,0-1-0.4-1-1v-1c0-0.6,0.4-1,1-1s1,0.4,1,1v1C9,13.6,8.6,14,8,14z M11,18c0,0.6-0.4,1-1,1s-1-0.4-1-1v-1&#10;&#9;c0-0.6,0.4-1,1-1s1,0.4,1,1V18z M12,15c-0.6,0-1-0.4-1-1v-1c0-0.6,0.4-1,1-1s1,0.4,1,1v1C13,14.6,12.6,15,12,15z M15,18&#10;&#9;c0,0.6-0.4,1-1,1s-1-0.4-1-1v-1c0-0.6,0.4-1,1-1s1,0.4,1,1V18z M17,13c0,0.6-0.4,1-1,1s-1-0.4-1-1v-1c0-0.6,0.4-1,1-1s1,0.4,1,1V13z&#10;&#9;"/>
</g></svg>