<svg id="nc_icon" xmlns="http://www.w3.org/2000/svg" xmlns:xlink="http://www.w3.org/1999/xlink" x="0px" y="0px" viewBox="0 0 24 24"><g >
<path fill="currentColor" d="M22.9,10.6c-0.2-0.5-0.8-0.8-1.3-0.6l0,0C21.9,9.4,22,8.7,22,8c0-3.3-2.7-6-6-6c-0.7,0-1.4,0.1-2.1,0.4l0,0&#10;&#9;c0.2-0.5,0-1.1-0.6-1.3c-0.5-0.2-1.1,0-1.3,0.6L6.2,16.2l-4.6,1.8c-0.5,0.2-0.8,0.8-0.6,1.3C1.2,19.8,1.6,20,2,20&#10;&#9;c0.1,0,0.2,0,0.4-0.1l2.8-1.1l-1.1,2.8c-0.2,0.5,0,1.1,0.6,1.3C4.8,23,4.9,23,5,23c0.4,0,0.8-0.2,0.9-0.6l1.8-4.6l14.6-5.8&#10;&#9;C22.9,11.7,23.1,11.1,22.9,10.6z M8.8,15.2l1.8-4.6c0.6,1.2,1.6,2.2,2.7,2.7L8.8,15.2z M16,10c-1.1,0-2-0.9-2-2c0-1.1,0.9-2,2-2&#10;&#9;s2,0.9,2,2C18,9.1,17.1,10,16,10z"/>
</g></svg>