<svg id="nc_icon" xmlns="http://www.w3.org/2000/svg" xmlns:xlink="http://www.w3.org/1999/xlink" x="0px" y="0px" viewBox="0 0 24 24"><g >
<path fill="currentColor" d="M23,1H13v4h11V2C24,1.4,23.6,1,23,1z"/>
<rect x="13" y="13" fill="currentColor" width="11" height="4"/>
<path fill="currentColor" d="M0,2v3h11V1H1C0.4,1,0,1.4,0,2z"/>
<rect data-color="color-2" x="13" y="7" fill="currentColor" width="11" height="4"/>
<path data-color="color-2" fill="currentColor" d="M22,22c0,0.6,0.4,1,1,1s1-0.4,1-1v-3h-2V22z"/>
<path data-color="color-2" fill="currentColor" d="M0,22c0,0.6,0.4,1,1,1s1-0.4,1-1v-3H0V22z"/>
<rect y="13" fill="currentColor" width="11" height="4"/>
<rect data-color="color-2" y="7" fill="currentColor" width="11" height="4"/>
</g></svg>