<svg id="nc_icon" xmlns="http://www.w3.org/2000/svg" xmlns:xlink="http://www.w3.org/1999/xlink" x="0px" y="0px" viewBox="0 0 24 24"><g >
<polygon data-color="color-2" fill="currentColor" points="12,0 16,5 13,5 13,9 11,9 11,5 8,5 "/>
<path fill="currentColor" d="M9,24V14c0-1.65685,1.34314-3,3-3H12c1.65685,0,3,1.34314,3,3v10H9z"/>
<path fill="currentColor" d="M2,24v-9c0-1.65685,1.34314-3,3-3H5c1.65685,0,3,1.34314,3,3v9H2z"/>
<path fill="currentColor" d="M16,24v-9c0-1.65685,1.34314-3,3-3H19c1.65685,0,3,1.34314,3,3v9H16z"/>
</g></svg>