<svg id="nc_icon" xmlns="http://www.w3.org/2000/svg" xmlns:xlink="http://www.w3.org/1999/xlink" x="0px" y="0px" viewBox="0 0 24 24"><g >
<path fill="currentColor" d="M23,1H1C0.4477539,1,0,1.4477539,0,2v4c0,0.5522461,0.4477539,1,1,1h22c0.5522461,0,1-0.4477539,1-1V2&#10;&#9;C24,1.4477539,23.5522461,1,23,1z"/>
<rect data-color="color-2" x="16" y="9" fill="currentColor" width="5" height="6"/>
<rect data-color="color-2" x="3" y="9" fill="currentColor" width="11" height="6"/>
<path data-color="color-2" fill="currentColor" d="M10,17v6h10c0.5523071,0,1-0.4477539,1-1v-5H10z"/>
<path data-color="color-2" fill="currentColor" d="M8,17H3v5c0,0.5522461,0.4476929,1,1,1h4V17z"/>
</g></svg>