<svg id="nc_icon" xmlns="http://www.w3.org/2000/svg" xmlns:xlink="http://www.w3.org/1999/xlink" x="0px" y="0px" viewBox="0 0 24 24"><g >
<path fill="currentColor" d="M12,15.816C12,11.55,15.56,9,19,9c1.815,0,3.659,0.716,5,2.014V2c0-0.308-0.142-0.599-0.385-0.788&#10;&#9;c-0.243-0.19-0.56-0.26-0.857-0.182L15.04,2.959L9.316,1.052c-0.18-0.06-0.374-0.069-0.559-0.021l-8,2C0.312,3.142,0,3.541,0,4v18&#10;&#9;c0,0.308,0.142,0.599,0.385,0.788C0.562,22.927,0.779,23,1,23c0.081,0,0.162-0.01,0.242-0.03l7.718-1.929l5.724,1.907&#10;&#9;c0.18,0.061,0.375,0.069,0.559,0.021l0.42-0.105C14.114,21.151,12,18.348,12,15.816z"/>
<path data-color="color-2" fill="currentColor" d="M19,11c-2.458,0-5,1.802-5,4.817c0,2.716,3.869,6.486,4.31,6.907L19,23.382l0.69-0.659&#10;&#9;c0.441-0.421,4.31-4.191,4.31-6.907C24,12.802,21.458,11,19,11z M19,17c-0.552,0-1-0.448-1-1c0-0.552,0.448-1,1-1s1,0.448,1,1&#10;&#9;C20,16.552,19.552,17,19,17z"/>
</g></svg>