<svg id="nc_icon" xmlns="http://www.w3.org/2000/svg" xmlns:xlink="http://www.w3.org/1999/xlink" x="0px" y="0px" viewBox="0 0 24 24"><g >
<path fill="currentColor" d="M23.55,6.165c-0.28-0.186-0.635-0.217-0.944-0.084L17,8.483V4c0-0.553-0.448-1-1-1H1C0.448,3,0,3.447,0,4v16&#10;&#9;c0,0.553,0.448,1,1,1h15c0.552,0,1-0.447,1-1v-4.483l5.606,2.402c0.31,0.134,0.664,0.102,0.944-0.084C23.831,17.649,24,17.336,24,17&#10;&#9;V7C24,6.664,23.831,6.351,23.55,6.165z M5,9C4.448,9,4,8.552,4,8c0-0.552,0.448-1,1-1s1,0.448,1,1C6,8.552,5.552,9,5,9z"/>
</g></svg>