<svg id="nc_icon" xmlns="http://www.w3.org/2000/svg" xmlns:xlink="http://www.w3.org/1999/xlink" x="0px" y="0px" viewBox="0 0 24 24"><g >
<path data-color="color-2" fill="currentColor" d="M10.637,13.364C9.58,12.307,8.82,11.034,8.395,9.646l-5.623,7.353&#10;&#9;c-0.305,0.398-0.268,0.96,0.087,1.314l2.828,2.829c0.193,0.194,0.45,0.293,0.707,0.293c0.213,0,0.427-0.068,0.607-0.206l7.354-5.624&#10;&#9;C12.966,15.181,11.693,14.42,10.637,13.364z"/>
<path fill="currentColor" d="M21.949,2.05C20.627,0.728,18.87,0,17,0c-1.869,0-3.627,0.728-4.949,2.05S10,5.13,10,7&#10;&#9;s0.729,3.627,2.051,4.95S15.13,14,17,14s3.627-0.728,4.949-2.05S24,8.87,24,7S23.271,3.373,21.949,2.05z"/>
<rect x="1.293" y="19.707" transform="matrix(0.7071 -0.7071 0.7071 0.7071 -14.6776 7.9792)" fill="currentColor" width="2" height="4"/>
</g></svg>