<svg id="nc_icon" xmlns="http://www.w3.org/2000/svg" xmlns:xlink="http://www.w3.org/1999/xlink" x="0px" y="0px" viewBox="0 0 24 24"><g >
<rect data-color="color-2" x="9" y="17" fill="currentColor" width="6" height="6"/>
<rect data-color="color-2" x="1" y="9" fill="currentColor" width="6" height="6"/>
<rect data-color="color-2" x="17" y="9" fill="currentColor" width="6" height="6"/>
<rect x="9" y="9" fill="currentColor" width="6" height="6"/>
<path fill="currentColor" d="M7,1H2C1.448,1,1,1.448,1,2v5h6V1z"/>
<path fill="currentColor" d="M17,17v6h5c0.552,0,1-0.448,1-1v-5H17z"/>
<path fill="currentColor" d="M23,7V2c0-0.552-0.448-1-1-1h-5v6H23z"/>
<path fill="currentColor" d="M7,17H1v5c0,0.552,0.448,1,1,1h5V17z"/>
<rect data-color="color-2" x="9" y="1" fill="currentColor" width="6" height="6"/>
</g></svg>