<svg id="nc_icon" xmlns="http://www.w3.org/2000/svg" xmlns:xlink="http://www.w3.org/1999/xlink" x="0px" y="0px" viewBox="0 0 24 24"><g >
<path fill="currentColor" d="M2,3h6V1H1C0.447,1,0,1.448,0,2v7h2V3z"/>
<path fill="currentColor" d="M23,1h-7v2h6v6h2V2C24,1.448,23.553,1,23,1z"/>
<path fill="currentColor" d="M22,21h-6v2h7c0.553,0,1-0.448,1-1v-7h-2V21z"/>
<path fill="currentColor" d="M2,15H0v7c0,0.552,0.447,1,1,1h7v-2H2V15z"/>
<circle data-color="color-2" fill="currentColor" cx="12" cy="12" r="4"/>
</g></svg>