<svg id="nc_icon" xmlns="http://www.w3.org/2000/svg" xmlns:xlink="http://www.w3.org/1999/xlink" x="0px" y="0px" viewBox="0 0 24 24"><g >
<rect data-color="color-2" x="3" y="1" fill="currentColor" width="6" height="2"/>
<path fill="currentColor" d="M23,4H1C0.447,4,0,4.448,0,5v17c0,0.552,0.447,1,1,1h22c0.553,0,1-0.448,1-1V5C24,4.448,23.553,4,23,4z&#10;&#9; M6,11c-0.552,0-1-0.448-1-1c0-0.552,0.448-1,1-1s1,0.448,1,1C7,10.552,6.552,11,6,11z M15,19c-2.761,0-5-2.239-5-5s2.239-5,5-5&#10;&#9;s5,2.239,5,5S17.761,19,15,19z"/>
</g></svg>