<svg id="nc_icon" xmlns="http://www.w3.org/2000/svg" xmlns:xlink="http://www.w3.org/1999/xlink" x="0px" y="0px" viewBox="0 0 24 24"><g >
<path fill="currentColor" d="M22,14H2c-0.55273,0-1,0.44775-1,1v2c0,0.55225,0.44727,1,1,1h2v5c0,0.55225,0.44727,1,1,1h14&#10;&#9;c0.55273,0,1-0.44775,1-1v-5h2c0.55273,0,1-0.44775,1-1v-2C23,14.44775,22.55273,14,22,14z"/>
<path data-color="color-2" fill="currentColor" d="M13,9c2.76141,0,5-2.23859,5-5V2h-1c-1.64331,0-3.08856,0.80353-4,2.02747V0h-2v12h2V9z"/>
</g></svg>