<svg id="nc_icon" xmlns="http://www.w3.org/2000/svg" xmlns:xlink="http://www.w3.org/1999/xlink" x="0px" y="0px" viewBox="0 0 24 24"><g >
<path fill="currentColor" d="M23.868,1.186c0.017-0.284-0.089-0.561-0.289-0.762c-0.201-0.202-0.496-0.312-0.761-0.293&#10;&#9;c-4.195,0.219-7.593,1.493-10.306,3.17C9.225,2.1,5.571,2.871,3.071,5.372C2.55,5.893,2.085,6.499,1.688,7.171&#10;&#9;C1.457,7.563,1.521,8.063,1.843,8.386l2.882,2.882c-0.784,1.297-1.154,2.183-1.167,2.216c-0.149,0.372-0.062,0.797,0.221,1.08&#10;&#9;l5.657,5.657c0.191,0.191,0.447,0.293,0.707,0.293c0.128,0,0.256-0.024,0.379-0.074c0.033-0.013,0.912-0.386,2.202-1.174&#10;&#9;l2.891,2.891c0.192,0.193,0.448,0.293,0.707,0.293c0.175,0,0.35-0.045,0.508-0.139c0.674-0.397,1.278-0.862,1.799-1.383&#10;&#9;c2.522-2.522,3.288-6.193,2.059-9.49C22.358,8.732,23.632,5.35,23.868,1.186z M10.358,18.315l-4.678-4.677&#10;&#9;c0.817-1.688,3.538-6.485,9.051-9.335l4.94,4.94C16.816,14.746,12.044,17.488,10.358,18.315z"/>
<ellipse data-color="color-2" transform="matrix(0.7071 -0.7071 0.7071 0.7071 -2.9705 12.8286)" fill="currentColor" cx="14" cy="10" rx="2" ry="2"/>
<path data-color="color-2" fill="currentColor" d="M1.113,18.844c1.111-1.111,2.911-1.111,4.022,0c1.111,1.111,1.111,2.911,0,4.022S0,24,0,24&#10;&#9;S0.002,19.954,1.113,18.844z"/>
</g></svg>