<svg id="nc_icon" xmlns="http://www.w3.org/2000/svg" xmlns:xlink="http://www.w3.org/1999/xlink" x="0px" y="0px" viewBox="0 0 24 24"><g >
<path fill="currentColor" d="M5,5h5V3H5V1c0-0.552-0.447-1-1-1H0v2h3v14c0,0.552,0.447,1,1,1h20v-2H5V5z"/>
<path data-color="color-2" fill="currentColor" d="M18,2c0.808,0,1.573,0.331,2.131,0.893l-1.608,1.168L22.792,5l0.428-4.351l-1.466,1.065&#10;&#9;C20.814,0.644,19.451,0,18,0c-2.282,0-4.273,1.542-4.843,3.75l1.938,0.499C15.436,2.925,16.63,2,18,2z"/>
<path data-color="color-2" fill="currentColor" d="M18,11c2.282,0,4.273-1.542,4.843-3.75l-1.938-0.499C20.564,8.075,19.37,9,18,9&#10;&#9;c-0.808,0-1.573-0.331-2.131-0.893l1.608-1.168L13.208,6l-0.428,4.351l1.466-1.065C15.186,10.356,16.549,11,18,11z"/>
<circle data-color="color-2" fill="currentColor" cx="5.5" cy="21.5" r="2.5"/>
<circle data-color="color-2" fill="currentColor" cx="21.5" cy="21.5" r="2.5"/>
</g></svg>