<svg id="nc_icon" xmlns="http://www.w3.org/2000/svg" xmlns:xlink="http://www.w3.org/1999/xlink" x="0px" y="0px" viewBox="0 0 24 24"><g >
<path fill="currentColor" d="M21,0H3C1.34314,0,0,1.34314,0,3v18c0,1.65686,1.34314,3,3,3h18c1.65686,0,3-1.34314,3-3V3&#10;&#9;C24,1.34314,22.65686,0,21,0z M10.37653,11.76581l-0.02802-0.02698c-0.08911-0.08545-0.23834-0.22839-0.24005-0.39142&#10;&#9;c-0.00092-0.08252,0.03607-0.16168,0.10992-0.23541l0.89728-0.89886l-0.90265-0.89984&#10;&#9;c-0.14441-0.15302-0.0849-0.34485,0.19263-0.62231c0.1604-0.1604,0.30267-0.2417,0.42291-0.2417&#10;&#9;c0.06628,0,0.12659,0.02423,0.17444,0.07007l0.90234,0.90259l0.89233-0.89386c0.15564-0.14343,0.3985-0.07849,0.65015,0.17322&#10;&#9;c0.1734,0.17334,0.34711,0.39966,0.15033,0.61261l-0.8974,0.90375l0.86047,0.86078c0.08868,0.0976,0.27209,0.29932-0.09442,0.67352&#10;&#9;c-0.15582,0.15906-0.30359,0.23975-0.43921,0.23975c-0.09961-0.00275-0.18512-0.04718-0.26373-0.13574l-0.8493-0.84656&#10;&#9;c-0.07263,0.07361-0.83417,0.84528-0.90149,0.90778c-0.02429,0.02258-0.09277,0.0752-0.20392,0.0752&#10;&#9;C10.67493,11.99237,10.52936,11.91614,10.37653,11.76581z M16.86652,10.26477c-0.12164,1.64905-1.15723,3.17273-2.70282,3.97693&#10;&#9;c-0.90533,0.47046-1.81866,0.64557-2.71454,0.5213c-0.5022-0.06995-0.50549-0.3299-0.46533-0.91132&#10;&#9;c0.05994-0.86395,0.3714-0.8811,0.73596-0.8811c0.00897,0,0.01929,0.00018,0.02698,0c1.42133,0,2.2229-0.68115,2.646-1.25287&#10;&#9;c0.55951-0.75671,0.68207-1.5719,0.68207-1.8222c-0.00037-0.87463-0.36969-1.70898-1.01349-2.28931&#10;&#9;c-0.65588-0.59161-1.49915-0.86609-2.3764-0.77667C10.1568,6.98779,8.95966,8.4007,8.95966,10.0462v8.37097&#10;&#9;C8.95966,18.90094,8.59192,19,8.03979,19s-0.91986-0.09906-0.91986-0.58282v-8.35132c0-2.64111,1.97644-4.86029,4.49957-5.05225&#10;&#9;c1.42419-0.10602,2.8194,0.40997,3.82971,1.41766C16.45563,7.43542,16.97217,8.83258,16.86652,10.26477z"/>
</g></svg>