<svg id="nc_icon" xmlns="http://www.w3.org/2000/svg" xmlns:xlink="http://www.w3.org/1999/xlink" x="0px" y="0px" viewBox="0 0 24 24"><g >
<rect x="10.7" y="10.7" transform="matrix(-0.3176 -0.9482 0.9482 -0.3176 4.4323 27.1898)" fill="currentColor" width="2.5" height="2.6"/>
<path fill="currentColor" d="M12,0C5.4,0,0,5.4,0,12c0,6.6,5.4,12,12,12s12-5.4,12-12C24,5.4,18.6,0,12,0z M17.3,13.6L16.1,14l0.4,1.3&#10;&#9;c0.2,0.5-0.1,1.1-0.6,1.2c-0.1,0-0.2,0.1-0.3,0.1c-0.4,0-0.8-0.3-0.9-0.7l-0.4-1.3l-2.5,0.8l0.4,1.3c0.2,0.5-0.1,1.1-0.6,1.2&#10;&#9;c-0.1,0-0.2,0.1-0.3,0.1c-0.4,0-0.8-0.3-0.9-0.7l-0.4-1.3l-1.2,0.4c-0.1,0-0.2,0.1-0.3,0.1c-0.4,0-0.8-0.3-0.9-0.7&#10;&#9;c-0.2-0.5,0.1-1.1,0.6-1.2l1.2-0.4l-0.8-2.4l-1.2,0.4c-0.1,0-0.2,0.1-0.3,0.1c-0.4,0-0.8-0.3-0.9-0.7c-0.2-0.5,0.1-1.1,0.6-1.2&#10;&#9;L7.9,10L7.5,8.7C7.3,8.2,7.6,7.7,8.1,7.5c0.5-0.2,1.1,0.1,1.2,0.6l0.4,1.3l2.5-0.8l-0.4-1.3c-0.2-0.5,0.1-1.1,0.6-1.2&#10;&#9;c0.5-0.2,1.1,0.1,1.2,0.6l0.4,1.3l1.2-0.4c0.5-0.2,1.1,0.1,1.2,0.6c0.2,0.5-0.1,1.1-0.6,1.2l-1.2,0.4l0.8,2.4l1.2-0.4&#10;&#9;c0.5-0.2,1.1,0.1,1.2,0.6C18.1,12.9,17.8,13.4,17.3,13.6z"/>
</g></svg>