<svg id="nc_icon" xmlns="http://www.w3.org/2000/svg" xmlns:xlink="http://www.w3.org/1999/xlink" x="0px" y="0px" viewBox="0 0 24 24"><g >
<path fill="currentColor" d="M12,0C5.4,0,0,5.4,0,12c0,6.6,5.4,12,12,12s12-5.4,12-12C24,5.4,18.6,0,12,0z M16.8,9.6c0,0.1,0,0.2,0,0.3&#10;&#9;c0,3.3-2.5,7-7,7c-1.4,0-2.7-0.4-3.8-1.1c0.2,0,0.4,0,0.6,0c1.2,0,2.2-0.4,3.1-1.1c-1.1,0-2-0.7-2.3-1.7c0.2,0,0.3,0,0.5,0&#10;&#9;c0.2,0,0.4,0,0.6-0.1c-1.1-0.2-2-1.2-2-2.4c0,0,0,0,0,0c0.3,0.2,0.7,0.3,1.1,0.3c-0.7-0.4-1.1-1.2-1.1-2c0-0.5,0.1-0.9,0.3-1.2&#10;&#9;c1.2,1.5,3,2.5,5.1,2.6c0-0.2-0.1-0.4-0.1-0.6c0-1.4,1.1-2.5,2.5-2.5c0.7,0,1.3,0.3,1.8,0.8c0.6-0.1,1.1-0.3,1.6-0.6&#10;&#9;c-0.2,0.6-0.6,1.1-1.1,1.4c0.5-0.1,1-0.2,1.4-0.4C17.7,8.8,17.3,9.2,16.8,9.6z"/>
</g></svg>