<svg id="nc_icon" xmlns="http://www.w3.org/2000/svg" xmlns:xlink="http://www.w3.org/1999/xlink" x="0px" y="0px" viewBox="0 0 24 24"><g >
<polygon fill="currentColor" points="8.4,10.7 12,12.9 15.6,10.7 12,8.5 "/>
<path fill="currentColor" d="M21,0H3C1.3,0,0,1.3,0,3v18c0,1.7,1.3,3,3,3h18c1.7,0,3-1.3,3-3V3C24,1.3,22.7,0,21,0z M15.5,15.5L12,17.6&#10;&#9;l-3.5-2.1v-0.8l1.1,0.7l2.5-2.1l2.5,2.1l1.1-0.7V15.5z M18,12.6l-3.5,2.3L12,12.9l-2.5,2.1L6,12.6l2.4-2L6,8.7l3.5-2.3L12,8.5&#10;&#9;l2.5-2.1L18,8.7l-2.4,2L18,12.6z"/>
</g></svg>