<svg id="nc_icon" xmlns="http://www.w3.org/2000/svg" xmlns:xlink="http://www.w3.org/1999/xlink" x="0px" y="0px" viewBox="0 0 24 24"><g >
<path fill="currentColor" d="M12.4,12.1c0.1,0,0.1,0,0.2-0.1c-0.1-0.3-0.3-0.6-0.4-0.9c-2.6,0.8-5,0.7-5.3,0.7c0,0.1,0,0.1,0,0.2&#10;&#9;c0,1.3,0.5,2.5,1.3,3.4C8.3,15.2,9.7,12.9,12.4,12.1z"/>
<path fill="currentColor" d="M11.7,10.3c-0.8-1.5-1.8-2.8-1.9-3C8.4,8,7.3,9.4,7,11C7.2,11,9.3,11,11.7,10.3z"/>
<path fill="currentColor" d="M15.4,8.2c-0.9-0.8-2.1-1.3-3.4-1.3c-0.4,0-0.8,0-1.2,0.1c0.1,0.2,1.1,1.5,1.9,3C14.5,9.3,15.3,8.3,15.4,8.2&#10;&#9;z"/>
<path fill="currentColor" d="M12.9,12.9c-2.9,1-3.9,3-4,3.2c0.9,0.7,2,1.1,3.1,1.1c0.7,0,1.4-0.1,2-0.4C13.9,16.3,13.6,14.7,12.9,12.9&#10;&#9;C12.9,12.8,12.9,12.8,12.9,12.9z"/>
<path fill="currentColor" d="M13.1,10.8c0.1,0.2,0.2,0.5,0.3,0.7c0,0.1,0.1,0.2,0.1,0.3c1.7-0.2,3.4,0.1,3.6,0.2c0-1.2-0.4-2.3-1.2-3.2&#10;&#9;C15.9,8.9,15,10,13.1,10.8z"/>
<path fill="currentColor" d="M13.9,12.6c0.7,1.8,0.9,3.3,1,3.7c1.1-0.8,2-2,2.2-3.4C16.9,12.8,15.5,12.3,13.9,12.6z"/>
<path fill="currentColor" d="M21,0H3C1.3,0,0,1.3,0,3v18c0,1.7,1.3,3,3,3h18c1.7,0,3-1.3,3-3V3C24,1.3,22.7,0,21,0z M12,18&#10;&#9;c-3.3,0-6-2.7-6-6s2.7-6,6-6s6,2.7,6,6S15.3,18,12,18z"/>
</g></svg>