<svg id="nc_icon" xmlns="http://www.w3.org/2000/svg" xmlns:xlink="http://www.w3.org/1999/xlink" x="0px" y="0px" viewBox="0 0 24 24"><g >
<path fill="currentColor" d="M21,0H3C1.3,0,0,1.3,0,3v18c0,1.7,1.3,3,3,3h18c1.7,0,3-1.3,3-3V3C24,1.3,22.7,0,21,0z M15.1,15.3&#10;&#9;c-2.4,0-3.2-1.1-3.6-2.4l-0.4-1.4c-0.3-1-0.7-1.8-1.9-1.8c-0.8,0-1.7,0.6-1.7,2.3c0,1.3,0.7,2.1,1.6,2.1c1.1,0,1.8-0.8,1.8-0.8&#10;&#9;l0.4,1.2c0,0-0.7,0.7-2.3,0.7c-1.9,0-3-1.1-3-3.2c0-2.2,1.1-3.5,3.1-3.5c1.8,0,2.7,0.7,3.3,2.4l0.5,1.4c0.3,1,0.9,1.7,2.3,1.7&#10;&#9;c0.9,0,1.4-0.2,1.4-0.7c0-0.4-0.2-0.7-0.9-0.9l-0.9-0.2c-1.1-0.3-1.6-0.9-1.6-1.8c0-1.5,1.2-2,2.4-2c1.4,0,2.3,0.5,2.4,1.7l-1.4,0.2&#10;&#9;c-0.1-0.6-0.4-0.8-1.1-0.8c-0.6,0-1,0.3-1,0.7c0,0.4,0.2,0.7,0.8,0.8l0.9,0.2c1.2,0.3,1.8,0.9,1.8,2C18,14.8,16.8,15.3,15.1,15.3z"/>
</g></svg>