<svg id="nc_icon" xmlns="http://www.w3.org/2000/svg" xmlns:xlink="http://www.w3.org/1999/xlink" x="0px" y="0px" viewBox="0 0 24 24"><g >
<path fill="currentColor" d="M12,0C5.4,0,0,5.4,0,12c0,6.6,5.4,12,12,12s12-5.4,12-12C24,5.4,18.6,0,12,0z M18,12.5c0,1-0.1,1.9-0.1,1.9&#10;&#9;s-0.1,0.8-0.5,1.2c-0.5,0.5-1,0.5-1.2,0.5c-1.7,0.1-4.2,0.1-4.2,0.1s-3.1,0-4.1-0.1c-0.3-0.1-0.9,0-1.3-0.5&#10;&#9;c-0.4-0.4-0.5-1.2-0.5-1.2S6,13.4,6,12.5v-0.9c0-1,0.1-1.9,0.1-1.9s0.1-0.8,0.5-1.2c0.5-0.5,1-0.5,1.2-0.5C9.5,7.8,12,7.8,12,7.8h0&#10;&#9;c0,0,2.5,0,4.2,0.1c0.2,0,0.7,0,1.2,0.5c0.4,0.4,0.5,1.2,0.5,1.2s0.1,1,0.1,1.9V12.5z"/>
<polygon fill="currentColor" points="10.8,13.6 14,11.9 10.8,10.2 "/>
</g></svg>