<svg id="nc_icon" xmlns="http://www.w3.org/2000/svg" xmlns:xlink="http://www.w3.org/1999/xlink" x="0px" y="0px" viewBox="0 0 24 24"><g >
<path fill="currentColor" d="M12.8,9.8c-0.2-0.2-0.4-0.4-0.6-0.6c-0.1-0.1-0.2-0.2-0.3-0.2c-0.2,0.1-0.3,0.3-0.4,0.4c-1,1-2,2-3,3&#10;&#9;c-0.1,0.1-0.2,0.2-0.1,0.3c0.2,0.2,0.3,0.4,0.5,0.5c0.2,0,0.5,0.1,0.7-0.1c1-1,2.1-2.1,3.1-3.1C12.8,10,12.9,9.9,12.8,9.8z"/>
<path fill="currentColor" d="M12.2,12c-0.1-0.1-0.2-0.2-0.3-0.1c-0.1,0.1-0.2,0.2-0.3,0.3c-0.6,0.6-1.2,1.2-1.7,1.7&#10;&#9;c-0.1,0.1-0.2,0.2-0.1,0.3c0.2,0.2,0.3,0.4,0.6,0.5c0.2,0,0.5,0.1,0.7-0.1c0.6-0.6,1.2-1.2,1.7-1.7c0.1-0.1,0.2-0.2,0.1-0.3&#10;&#9;C12.7,12.4,12.4,12.2,12.2,12z"/>
<path fill="currentColor" d="M12.2,14.7c-0.1-0.1-0.2-0.1-0.3,0c-0.2,0.2-0.5,0.4-0.7,0.7c-0.1,0.1,0,0.3,0.1,0.4&#10;&#9;c0.1,0.1,0.3,0.3,0.4,0.4c0.2,0,0.4,0,0.5,0c0.2-0.2,0.4-0.3,0.5-0.5c0.1-0.1,0-0.2,0-0.3C12.6,15.1,12.4,14.9,12.2,14.7z"/>
<path fill="currentColor" d="M12,0C5.4,0,0,5.4,0,12c0,6.6,5.4,12,12,12s12-5.4,12-12C24,5.4,18.6,0,12,0z M17.8,13.4&#10;&#9;c-0.1,0.2-0.3,0.3-0.5,0.5c-1,1-2,2-3,3c-0.3,0.3-0.7,0.4-1.1,0.4c-0.9,0-1.8,0-2.7,0c-0.3,0-0.7-0.1-0.9-0.4&#10;&#9;c-1.1-1.1-2.2-2.2-3.3-3.3c-0.3-0.3-0.5-0.8-0.4-1.3c0.1-0.2,0.2-0.5,0.4-0.6C8,10.2,9.5,8.6,11,7.1c0.2-0.2,0.4-0.3,0.6-0.4&#10;&#9;c0.3-0.1,0.6,0,0.8,0.1c0.3,0.1,0.5,0.3,0.7,0.5c1.4,1.4,2.7,2.7,4.1,4.1c0.2,0.2,0.5,0.4,0.6,0.8C18.1,12.6,18,13.1,17.8,13.4z"/>
</g></svg>