<svg id="nc_icon" xmlns="http://www.w3.org/2000/svg" xmlns:xlink="http://www.w3.org/1999/xlink" x="0px" y="0px" viewBox="0 0 24 24"><g >
<path fill="currentColor" d="M21,0H3C1.3,0,0,1.3,0,3v18c0,1.7,1.3,3,3,3h18c1.7,0,3-1.3,3-3V3C24,1.3,22.7,0,21,0z M9.7,17.5&#10;&#9;c-3.1,0-5.7-2.5-5.7-5.7c0-3.1,2.5-5.7,5.7-5.7c1.5,0,2.8,0.6,3.8,1.5l-1.5,1.5c-0.4-0.4-1.2-0.9-2.3-0.9c-1.9,0-3.5,1.6-3.5,3.6&#10;&#9;s1.6,3.6,3.5,3.6c2.2,0,3-1.5,3.2-2.4H10v-2l5,0C15.6,14.2,13.6,17.5,9.7,17.5z M20,12h-1v1h-1v-1h-1v-1h1v-1h1v1h1V12z"/>
</g></svg>