<svg id="nc_icon" xmlns="http://www.w3.org/2000/svg" xmlns:xlink="http://www.w3.org/1999/xlink" x="0px" y="0px" viewBox="0 0 24 24"><g >
<circle fill="currentColor" cx="15.8" cy="8.2" r="0.7"/>
<path fill="currentColor" d="M13.2,11.8l1.5-0.8l-0.6-1L12.8,11c-0.1,0-0.1,0-0.2,0c-0.1,0-0.1-0.1-0.1-0.2l0.1-1.7h-1.1l0.1,1.7&#10;&#9;c0,0.1,0,0.1-0.1,0.2c-0.1,0-0.1,0-0.2,0l-1.4-0.9l-0.6,1l1.5,0.7c0.1,0,0.1,0.1,0.1,0.2c0,0.1,0,0.1-0.1,0.2l-1.5,0.8l0.6,1&#10;&#9;l1.4-0.9c0.1,0,0.1,0,0.2,0c0.1,0,0.1,0.1,0.1,0.2c0,0-0.1,1.7-0.1,1.7c0,0,0,0,0,0h1.1l-0.1-1.7c0-0.1,0-0.1,0.1-0.2&#10;&#9;c0,0,0.1,0,0.1,0c0,0,0.1,0,0.1,0l1.4,0.9l0.6-1l-1.5-0.7c-0.1,0-0.1-0.1-0.1-0.2C13.1,11.9,13.2,11.8,13.2,11.8z"/>
<path fill="currentColor" d="M12,0C5.4,0,0,5.4,0,12c0,6.6,5.4,12,12,12s12-5.4,12-12C24,5.4,18.6,0,12,0z M17.2,12.6&#10;&#9;c-0.4,0.4-4.9,4.9-5,5c-0.2,0.2-0.9,0.8-2-0.3l-3.5-3.5c-1.1-1.1-0.4-1.8-0.3-2c0.2-0.2,4.6-4.6,5-5C12.2,6,12.7,6,13.3,6&#10;&#9;c0.5,0,3.2,0.2,3.2,0.2c0.4,0,0.7,0.2,0.9,0.4c0.2,0.2,0.4,0.5,0.4,0.9c0,0,0.2,2.7,0.2,3.2C18,11.3,18,11.8,17.2,12.6z"/>
</g></svg>