<svg id="nc_icon" xmlns="http://www.w3.org/2000/svg" xmlns:xlink="http://www.w3.org/1999/xlink" x="0px" y="0px" viewBox="0 0 24 24"><g ><path fill="currentColor" d="M21,0H3C1.34314,0,0,1.34314,0,3v18c0,1.65686,1.34314,3,3,3h18c1.65686,0,3-1.34314,3-3V3&#10;&#9;C24,1.34314,22.65686,0,21,0z M17.92651,17.2312c0,0-1.43207,0.4812-1.96118,0.51056&#10;&#9;c-0.04144,0.0025-0.13892-0.25012-0.21655-0.56104c-0.07758-0.31097-0.27094-0.86011-0.42963-1.22021&#10;&#9;c-0.31-0.70343-0.70972-2.0321-1.12842-3.74994c-0.14355-0.58929-0.30359-1.1496-0.35535-1.24524&#10;&#9;c-0.13379-0.24677-0.21344,0.53394-0.28479,2.79285c-0.03308,1.04755-0.13129,2.14575-0.21808,2.44043l-0.15796,0.53571&#10;&#9;c-1.4314,0.13245-0.8681,0.08032-2.35162,0.21747c-0.47076-0.59039-2.05365-3.1048-2.05365-3.1048&#10;&#9;c-0.00085,0.00085,0.27136,2.28424,0.22107,2.47626c-0.08142,0.31104-1.2038,0.75214-1.86603,0.7334&#10;&#9;c-0.54999-0.01569-0.66699-0.24365-0.84204-1.64233c-0.29877-2.38544-0.32532-2.93872-0.23987-4.99072l0.08502-2.03998&#10;&#9;l0.52368-0.14014c0.84332-0.22559,1.78149-0.18213,2.039,0.0943c0.12,0.12897,0.69556,1.1601,1.27893,2.29163l1.06067,2.05725&#10;&#9;l0.15021-1.13092c0.22131-1.66681,0.88074-3.89819,1.44891-4.90277l0.22321-0.39478l1.05121,0.0257&#10;&#9;c0.86487,0.02124,1.09271,0.06726,1.28546,0.26001c0.29865,0.29871,0.86267,2.43427,1.69244,6.40729&#10;&#9;c0.09869,0.47308,0.258,1.08246,0.35406,1.35437c0.09595,0.27179,0.17438,0.59296,0.17438,0.71368&#10;&#9;c0,0.12067,0.13391,0.6297,0.29761,1.13116C18.00806,17.07214,18.06934,17.3739,17.92651,17.2312z"/></g></svg>