<svg id="nc_icon" xmlns="http://www.w3.org/2000/svg" xmlns:xlink="http://www.w3.org/1999/xlink" x="0px" y="0px" viewBox="0 0 24 24"><g >
<path fill="currentColor" d="M21,0H3C1.3,0,0,1.3,0,3v18c0,1.7,1.3,3,3,3h18c1.7,0,3-1.3,3-3V3C24,1.3,22.7,0,21,0z M14.5,7.8&#10;&#9;c-0.5,0-0.8,0.5-0.8,1.4c0,1.8,1.2,2.9,2.7,2.9c0.3,0,0.6,0,0.9-0.1v1.4c-0.5,0.1-1,0.2-1.4,0.2c-1,2.1-2.8,3.9-3.4,4.3&#10;&#9;c-0.4,0.2-0.7,0.2-1.2,0c-0.7-0.4-3.6-2.8-4.5-10h2c0.5,4.4,1.8,6.6,3.1,8.3c0.8-0.8,1.5-1.8,2.1-2.9c-1.4-0.7-2.2-2.2-2.2-4&#10;&#9;c0-1.8,1-3.1,2.8-3.1c1.7,0,2.7,1.1,2.7,2.9c0,0.7-0.1,1.5-0.4,2.1c-1.3,0.2-1.7-0.6-1.7-0.6c0.1-0.3,0.2-0.8,0.2-1.3&#10;&#9;C15.3,8.2,15,7.8,14.5,7.8z"/>
</g></svg>