<svg id="nc_icon" xmlns="http://www.w3.org/2000/svg" xmlns:xlink="http://www.w3.org/1999/xlink" x="0px" y="0px" viewBox="0 0 24 24"><g ><path data-color="color-2" fill="currentColor" d="M10.08581,9.38614h1.10891c0,0-0.84488-4.19802-4.93729-4.19802S0,8.48845,0,11.89439&#10;&#9;s1.92739,6.91749,5.9934,6.91749s5.41254-3.74918,5.41254-5.14852h-1.18812c0,0-0.47525,4.14521-4.0396,4.14521&#10;&#9;s-5.0429-3.06271-5.0429-5.88779S3.0099,6.24422,6.23102,6.24422S10.08581,9.38614,10.08581,9.38614z"/>
<path fill="currentColor" d="M21.49175,11.53795c1.63696-0.50165,1.9538-1.62816,1.9538-2.74587&#10;&#9;c0-1.17052-0.58086-3.22112-2.93069-3.22112s-7.18152,0-7.18152,0v12.85809c0,0,5.62376,0,7.26073,0&#10;&#9;c1.63696,0,3.40594-1.66337,3.40594-3.51155C24,13.32453,23.25192,11.93399,21.49175,11.53795z M15.57756,7.39274h3.88119&#10;&#9;c0.95753,0,1.73377,0.77623,1.73377,1.73377c0,0.95755-0.77623,1.73378-1.73377,1.73378h-3.88119V7.39274z M19.73158,16.63366&#10;&#9;h-4.15402v-4.0132h4.15402c1.10822,0,2.0066,0.89839,2.0066,2.0066S20.83979,16.63366,19.73158,16.63366z"/></g></svg>