<svg id="nc_icon" xmlns="http://www.w3.org/2000/svg" xmlns:xlink="http://www.w3.org/1999/xlink" x="0px" y="0px" viewBox="0 0 24 24"><g >
<path fill="currentColor" d="M12,0C5.4,0,0,5.4,0,12c0,6.6,5.4,12,12,12s12-5.4,12-12C24,5.4,18.6,0,12,0z M8.7,18H6.2v-8h2.5V18z&#10;&#9; M7.4,8.9C6.6,8.9,6,8.2,6,7.5C6,6.7,6.6,6,7.4,6c0.8,0,1.4,0.6,1.4,1.4C8.9,8.2,8.2,8.9,7.4,8.9z M18,18h-2.5v-3.9&#10;&#9;c0-0.9,0-2.1-1.3-2.1c-1.3,0-1.5,1-1.5,2.1v4h-2.5v-8h2.4v1.1h0c0.3-0.6,1.1-1.3,2.4-1.3c2.5,0,3,1.7,3,3.8V18z"/>
</g></svg>