<svg id="nc_icon" xmlns="http://www.w3.org/2000/svg" xmlns:xlink="http://www.w3.org/1999/xlink" x="0px" y="0px" viewBox="0 0 24 24"><g >
<path fill="currentColor" d="M9.9,10.5H12c0.4,0,0.7-0.3,0.7-0.7c0-0.4-0.3-0.7-0.7-0.7H9.9c-0.4,0-0.7,0.3-0.7,0.7&#10;&#9;C9.1,10.2,9.5,10.5,9.9,10.5z"/>
<path fill="currentColor" d="M14.1,13.4H9.9c-0.4,0-0.7,0.3-0.7,0.7c0,0.4,0.3,0.7,0.7,0.7h4.3c0.4,0,0.7-0.3,0.7-0.7&#10;&#9;C14.9,13.8,14.5,13.4,14.1,13.4z"/>
<path fill="currentColor" d="M12,0C5.4,0,0,5.4,0,12c0,6.6,5.4,12,12,12s12-5.4,12-12C24,5.4,18.6,0,12,0z M18,14.2&#10;&#9;c0,2.1-1.7,3.8-3.8,3.8H9.8C7.7,18,6,16.3,6,14.2V9.8C6,7.7,7.7,6,9.8,6h2.7c1.1,0,2.4,1,2.9,2.1c0.1,0.3,0.2,0.5,0.3,1.3&#10;&#9;c0.1,0.5,0.1,0.8,0.3,1c0.3,0.3,1.4,0.2,1.6,0.3c0.3,0.1,0.3,0.5,0.3,0.5L18,14.2z"/>
</g></svg>