<svg id="nc_icon" xmlns="http://www.w3.org/2000/svg" xmlns:xlink="http://www.w3.org/1999/xlink" x="0px" y="0px" viewBox="0 0 24 24"><g >
<polygon fill="currentColor" points="7,11.1 7,12.9 8.3,12 "/>
<polygon fill="currentColor" points="7.4,13.8 11.5,16.5 11.5,14.1 9.2,12.6 "/>
<polygon fill="currentColor" points="16.6,10.2 12.5,7.5 12.5,9.9 14.8,11.4 "/>
<polygon fill="currentColor" points="12,10.8 10.2,12 12,13.2 13.8,12 "/>
<polygon fill="currentColor" points="11.5,9.9 11.5,7.5 7.4,10.2 9.2,11.4 "/>
<polygon fill="currentColor" points="12.5,14.1 12.5,16.5 16.6,13.8 14.8,12.6 "/>
<path fill="currentColor" d="M12,0C5.4,0,0,5.4,0,12c0,6.6,5.4,12,12,12s12-5.4,12-12C24,5.4,18.6,0,12,0z M18,13.8&#10;&#9;C18,13.9,18,13.9,18,13.8C18,13.9,18,13.9,18,13.8c0,0.1,0,0.1,0,0.1c0,0,0,0,0,0c0,0,0,0,0,0c0,0,0,0,0,0c0,0,0,0,0,0c0,0,0,0,0,0&#10;&#9;c0,0,0,0,0,0c0,0,0,0,0,0c0,0,0,0,0,0c0,0,0,0,0,0c0,0,0,0,0,0c0,0,0,0,0,0c0,0,0,0,0,0l-5.5,3.7C12.2,18,12.1,18,12,18&#10;&#9;c-0.1,0-0.2,0-0.3-0.1l-5.5-3.7c0,0,0,0,0,0c0,0,0,0,0,0c0,0,0,0,0,0c0,0,0,0,0,0c0,0,0,0,0,0c0,0,0,0,0,0c0,0,0,0,0,0c0,0,0,0,0,0&#10;&#9;c0,0,0,0,0,0c0,0,0,0,0,0c0,0,0,0,0,0c0,0,0,0,0,0c0,0,0,0,0,0c0,0,0,0,0,0c0,0,0,0,0-0.1v-3.7c0,0,0,0,0-0.1c0,0,0,0,0,0&#10;&#9;c0,0,0,0,0,0c0,0,0,0,0,0c0,0,0,0,0,0c0,0,0,0,0,0c0,0,0,0,0,0c0,0,0,0,0,0c0,0,0,0,0,0c0,0,0,0,0,0c0,0,0,0,0,0c0,0,0,0,0,0&#10;&#9;c0,0,0,0,0,0c0,0,0,0,0,0c0,0,0,0,0,0l5.5-3.7c0.2-0.1,0.4-0.1,0.6,0l5.5,3.7c0,0,0,0,0,0c0,0,0,0,0,0c0,0,0,0,0,0c0,0,0,0,0,0&#10;&#9;c0,0,0,0,0,0c0,0,0,0,0,0c0,0,0,0,0,0c0,0,0,0,0,0c0,0,0,0,0,0c0,0,0,0,0,0c0,0,0,0,0,0c0,0,0,0,0,0c0,0,0,0,0,0c0,0,0,0,0,0&#10;&#9;c0,0,0,0,0,0.1V13.8z"/>
<polygon fill="currentColor" points="17,12.9 17,11.1 15.7,12 "/>
</g></svg>