<svg id="nc_icon" xmlns="http://www.w3.org/2000/svg" xmlns:xlink="http://www.w3.org/1999/xlink" x="0px" y="0px" viewBox="0 0 24 24"><g ><path fill="currentColor" d="M10.651,15.02747c0.25098,0.20911,0.43921,0.31372,0.5647,0.31372&#10;&#9;c0.16095,0,0.32941-0.19147,0.32941-0.36084c0-0.12549-0.09412-0.42871-0.28235-0.90979&#10;&#9;c-0.25909-0.62921-0.81018-1.78094-1.33331-2.21173c-0.16736-0.15686-0.32941-0.23529-0.48627-0.23529&#10;&#9;c-0.22382,0-0.6275,0.41003-0.6275,0.65881c0,0.13593,0.08368,0.37122,0.25104,0.70587&#10;&#9;C9.37512,13.58301,10.10022,14.54272,10.651,15.02747z"/>
<path fill="currentColor" d="M14.49414,11.35687c-0.82617-0.18823-1.70459-0.28235-2.63531-0.28235&#10;&#9;c-0.35968,0-0.54901,0.05426-0.54901,0.40784c0,0.42871,0.24054,0.73199,0.72156,0.90979&#10;&#9;c0.52289,0.2196,1.38562,0.32941,2.58826,0.32941h0.43921c0.24585,0,0.46417,0.12842,0.53333,0.65881&#10;&#9;c-0.45093,0.45093-1.19373,0.51147-1.69409,0.8941c-0.41833,0.30328-0.75293,0.66406-1.00397,1.0824&#10;&#9;c-0.24048,0.40784-0.36078,0.79474-0.36078,1.16077c0,0.2196,0.05231,0.48627,0.15686,0.79999&#10;&#9;c0.11505,0.34509,0.17255,0.56995,0.17255,0.6745c-0.00275,0.09711-0.03137,0.16473-0.14899,0.21179&#10;&#9;c-0.48627,0.1098-0.7085-0.12811-0.91766-0.52551c-0.1778-0.33466-0.2771-0.76337-0.29803-1.28625&#10;&#9;c-0.06329,0.02112-0.2926,0.01569-0.36078,0.01569c0.01044,0.05231,0.01569,0.11505,0.01569,0.18823&#10;&#9;c0,0.31372-0.12024,0.58038-0.36078,0.79999s-0.52289,0.32941-0.84705,0.32941c-0.49152,0-0.98828-0.23529-1.49023-0.70587&#10;&#9;c-0.50195-0.48102-0.75293-0.95166-0.75293-1.41174c0-0.27307,0.11682-0.41486,0.29803-0.59607&#10;&#9;c0.26147,0.32416,0.43921,0.54901,0.53333,0.6745c0.43921,0.61694,0.83661,0.92548,1.1922,0.92548&#10;&#9;c0.19965,0,0.36078-0.14789,0.36078-0.25098c0-0.08368-0.06274-0.23529-0.18823-0.4549&#10;&#9;c-0.18353-0.34406-0.90741-1.30365-1.28632-1.61572c-0.15686-0.14636-0.27185-0.2196-0.34509-0.2196&#10;&#9;c-0.35297,0-0.86273,0.45306-0.86273,1.20789c0,0.65521,0.43744,1.44611,0.83136,1.97644&#10;&#9;c0.92279,1.19281,2.12939,1.70978,3.5451,1.70978c1.34906,0,2.48364-0.50714,3.40393-1.52155&#10;&#9;c0.90979-1.00391,1.36469-2.27448,1.36469-3.81177c0-0.52576-0.0014-1.31213-0.39215-1.64703&#10;&#9;C15.87451,11.74377,15.32025,11.53461,14.49414,11.35687z"/>
<path fill="currentColor" d="M15.90588,7.37256c0.14459-0.46857,0.5636-1.5365,0.28235-1.89807&#10;&#9;c-0.09503-0.16632-0.38794-0.21606-0.72156,0.31372c-0.19867,0.30328-0.42352,0.83136-0.6745,1.58435l-1.01959,2.93329&#10;&#9;l1.05096,0.18823C15.29413,9.19739,15.65491,8.15686,15.90588,7.37256z"/>
<path fill="currentColor" d="M12.04706,10.11761l-1.08234-3.13727C10.67194,6.1438,10.44183,5.59998,10.27454,5.349&#10;&#9;c-0.13599-0.2196-0.27191-0.32941-0.40784-0.32941c-0.22754,0-0.34509,0.2569-0.34509,0.48627&#10;&#9;c0,0.35559,0.12549,0.91504,0.37646,1.67847c0.23004,0.74243,0.57513,1.7359,1.03528,2.98035&#10;&#9;C11.17023,10.02258,11.74377,10.09009,12.04706,10.11761z"/>
<path fill="currentColor" d="M13.05103,13.69409c-0.31909-0.06378-0.57593-0.07172-0.92554-0.18823&#10;&#9;c0.09412,0.24054,0.19348,0.50195,0.29803,0.7843C12.63269,14.04968,12.84186,13.85095,13.05103,13.69409z"/>
<path fill="currentColor" d="M12,0C5.37262,0,0,5.37256,0,12c0,6.62738,5.37262,12,12,12c6.62744,0,12-5.37262,12-12&#10;&#9;C24,5.37256,18.62744,0,12,0z M15.95294,18.22742C14.82355,19.40912,13.39087,20,11.65491,20&#10;&#9;c-2.14386,0-4.02673-1.25928-4.86273-2.96472c-0.27191-0.5647-0.40784-1.12421-0.40784-1.67841&#10;&#9;c0-1.2782,0.54297-1.953,1.59998-2.24316c-0.1673-0.41827-0.25098-0.72681-0.25098-0.92548&#10;&#9;c0-0.73553,0.92944-1.64709,1.63141-1.64709c0.17773,0,0.3869,0.04706,0.62744,0.14117&#10;&#9;c-0.50195-1.43268-0.86273-2.52026-1.0824-3.2627c-0.28668-0.96771-0.67047-2.22607,0-2.98041C9.17126,4.14636,9.52161,4,9.96082,4&#10;&#9;c0.75293,0,1.65747,1.54248,2.71368,4.62744l0.26666,0.76862c0.40015-1.00024,1.62793-5.09802,3.01178-5.09802&#10;&#9;c0.41833,0,0.74774,0.14117,0.98822,0.42352c0.67621,0.76068,0.27771,1.88708,0,2.87061&#10;&#9;c-0.2196,0.76337-0.5647,1.80914-1.03528,3.13721c0.59607,0.14642,1.02484,0.42877,1.28632,0.84711&#10;&#9;c0.28235,0.44965,0.42352,1.14508,0.42352,2.08624C17.61572,15.52417,17.06146,17.04572,15.95294,18.22742z"/></g></svg>