<svg id="nc_icon" xmlns="http://www.w3.org/2000/svg" xmlns:xlink="http://www.w3.org/1999/xlink" x="0px" y="0px" viewBox="0 0 24 24"><g ><path fill="currentColor" d="M17.15436,12.42242h-2.76935v2.67548h2.76935c0.73883,0,1.33777-0.59894,1.33777-1.33777&#10;&#9;C18.49213,13.02136,17.89319,12.42242,17.15436,12.42242z"/>
<path fill="currentColor" d="M21,0H3C1.34314,0,0,1.34314,0,3v18c0,1.65686,1.34314,3,3,3h18c1.65686,0,3-1.34314,3-3V3&#10;&#9;C24,1.34314,22.65686,0,21,0z M7.99561,16.54126C5.28491,16.54126,4,14.2002,4,11.92957s1.44336-4.47083,4.17163-4.47083&#10;&#9;s3.2915,2.79865,3.2915,2.79865h-0.73926c0,0-0.42242-2.0946-2.56989-2.0946c-2.1474,0-3.39709,1.901-3.39709,3.78442&#10;&#9;c0,1.88336,0.98566,3.92517,3.36194,3.92517c2.37622,0,2.69305-2.76349,2.69305-2.76349h0.79205&#10;&#9;C11.60394,14.04181,10.7063,16.54126,7.99561,16.54126z M17.72937,16.2948c-1.09131,0-4.84045,0-4.84045,0V7.72278&#10;&#9;c0,0,3.22107,0,4.78766,0c1.56653,0,1.9538,1.36707,1.9538,2.1474c0,0.74512-0.21124,1.49615-1.30255,1.83057&#10;&#9;C19.50128,11.96478,20,12.89178,20,13.9538C20,15.18591,18.82068,16.2948,17.72937,16.2948z"/>
<path fill="currentColor" d="M18.12836,10.09314c0-0.63837-0.51752-1.15588-1.15588-1.15588h-2.58746v2.31171h2.58746&#10;&#9;C17.61084,11.24896,18.12836,10.73151,18.12836,10.09314z"/></g></svg>