<svg id="nc_icon" xmlns="http://www.w3.org/2000/svg" xmlns:xlink="http://www.w3.org/1999/xlink" x="0px" y="0px" viewBox="0 0 24 24"><g >
<path fill="currentColor" d="M21,0H3C1.3,0,0,1.3,0,3v18c0,1.7,1.3,3,3,3h18c1.7,0,3-1.3,3-3V3C24,1.3,22.7,0,21,0z M7.7,14.2&#10;&#9;c-0.1-0.1-0.1-0.3-0.1-0.5c-0.1-0.7,0-1.6,0.2-1.9c0.1-0.1,0.2-0.2,0.4-0.2c0.1,0,0.2,0,2.1,0.8c0,0,0.6,0.2,0.6,0.2&#10;&#9;c0.2,0.1,0.3,0.3,0.3,0.5c0,0.2-0.1,0.4-0.3,0.5c0,0-0.8,0.3-0.8,0.3c-1.8,0.6-1.8,0.6-1.9,0.6C7.9,14.5,7.7,14.4,7.7,14.2z&#10;&#9; M12,15.7c0,1.9,0,2,0,2c-0.1,0.1-0.2,0.2-0.3,0.3c-0.5,0.1-1.9-0.5-2.3-0.8c-0.1-0.1-0.1-0.2-0.1-0.2c0-0.1,0-0.1,0-0.2&#10;&#9;c0-0.1,0.1-0.2,1.4-1.8c0,0,0.4-0.5,0.4-0.5c0.1-0.2,0.4-0.2,0.6-0.1c0.2,0.1,0.3,0.3,0.3,0.5C12,14.8,12,15.7,12,15.7z M11.7,11.7&#10;&#9;c-0.1,0-0.4,0.1-0.7-0.5c0,0-2.4-3.9-2.5-4c0-0.1,0-0.3,0.1-0.4C9,6.4,10.9,5.9,11.4,6c0.2,0,0.3,0.2,0.3,0.3c0,0.2,0.3,3.8,0.3,4.6&#10;&#9;C12.1,11.6,11.8,11.7,11.7,11.7z M12.9,11.9c0,0,0.5-0.7,0.5-0.7c1.1-1.5,1.1-1.6,1.2-1.6c0.1-0.1,0.3-0.1,0.4,0&#10;&#9;c0.4,0.2,1.3,1.5,1.3,2c0,0,0,0,0,0c0,0.2-0.1,0.3-0.2,0.4c-0.1,0.1-0.2,0.1-2.2,0.6c-0.3,0.1-0.5,0.1-0.6,0.2c0,0,0,0,0,0&#10;&#9;c-0.2,0.1-0.4,0-0.5-0.2C12.8,12.3,12.8,12.1,12.9,11.9z M15,17.1c-0.2,0.1-0.3,0-0.4,0c-0.1-0.1-0.2-0.2-1.2-1.9l-0.3-0.5&#10;&#9;c-0.1-0.2-0.1-0.4,0.1-0.6c0.1-0.2,0.4-0.2,0.5-0.2c0,0,0.8,0.3,0.8,0.3c1.8,0.6,1.8,0.6,1.9,0.7c0.1,0.1,0.2,0.2,0.1,0.4&#10;&#9;C16.4,15.6,15.4,16.9,15,17.1z"/>
</g></svg>