<svg id="nc_icon" xmlns="http://www.w3.org/2000/svg" xmlns:xlink="http://www.w3.org/1999/xlink" x="0px" y="0px" viewBox="0 0 24 24"><g >
<path fill="currentColor" d="M21,0H3C1.3,0,0,1.3,0,3v18c0,1.7,1.3,3,3,3h18c1.7,0,3-1.3,3-3V3C24,1.3,22.7,0,21,0z M15.5,14&#10;&#9;c-1.6,2.1-3,3.2-4.1,3.2c-0.7,0-1.3-0.6-1.8-1.9c-0.3-1.2-0.6-2.4-1-3.6c-0.4-1.3-0.7-1.9-1.2-1.9c-0.1,0-0.4,0.2-0.9,0.6L6,9.6&#10;&#9;c0.6-0.5,1.2-1,1.8-1.6C8.5,7.4,9.1,7,9.5,7c0.9-0.1,1.5,0.5,1.7,1.9c0.2,1.5,0.4,2.4,0.5,2.7c0.3,1.2,0.6,1.8,0.9,1.8&#10;&#9;c0.3,0,0.6-0.4,1.1-1.2c0.5-0.8,0.8-1.4,0.8-1.8c0.1-0.7-0.2-1-0.8-1c-0.3,0-0.6,0.1-0.9,0.2c0.6-1.9,1.7-2.9,3.4-2.8&#10;&#9;c1.2,0,1.8,0.8,1.7,2.4C17.9,10.4,17.1,12,15.5,14z"/>
</g></svg>