<svg id="nc_icon" xmlns="http://www.w3.org/2000/svg" xmlns:xlink="http://www.w3.org/1999/xlink" x="0px" y="0px" viewBox="0 0 24 24"><g >
<path fill="currentColor" d="M12,0C5.4,0,0,5.4,0,12c0,6.6,5.4,12,12,12s12-5.4,12-12C24,5.4,18.6,0,12,0z M7.2,16.7&#10;&#9;c-0.2,0-0.3-0.2-0.3-0.4l1.6-9.8C8.5,6.2,8.7,6,9,6h3.7C14,6,15,6.3,15.6,6.9c0.5,0.6,0.6,1.2,0.5,2.1c0,0,0,0.1,0,0.2&#10;&#9;c-0.5,2.5-2.2,3.4-4.3,3.4h-1.1c-0.3,0-0.5,0.2-0.5,0.5l0-0.1l-0.6,3.7H7.2z M17,11.7c-0.4,2.2-1.9,3-3.8,3h-0.3&#10;&#9;c-0.2,0-0.4,0.2-0.5,0.4l0,0.1l-0.4,2.3l0,0.1c0,0.2-0.2,0.4-0.5,0.4H10l0.7-4.7h1c2.7,0,4.4-1.3,4.9-3.8&#10;&#9;C17.1,10.1,17.2,10.8,17,11.7z"/>
</g></svg>