<svg id="nc_icon" xmlns="http://www.w3.org/2000/svg" xmlns:xlink="http://www.w3.org/1999/xlink" x="0px" y="0px" viewBox="0 0 24 24"><g >
<path fill="currentColor" d="M13.1,11.3L11.7,11c-0.5-0.1-1.1-0.3-1.1-0.7c0-0.5,0.4-0.8,1.1-0.8c1.5,0,1.3,1,2.1,1&#10;&#9;c0.4,0,0.7-0.2,0.7-0.6c0-0.9-1.5-1.6-2.7-1.6c-1.3,0-2.8,0.6-2.8,2.1c0,0.7,0.3,1.5,1.7,1.9l1.8,0.4c0.5,0.1,0.7,0.4,0.7,0.7&#10;&#9;c0,0.5-0.5,0.9-1.3,0.9c-1.6,0-1.4-1.2-2.2-1.2c-0.4,0-0.7,0.3-0.7,0.6c0,0.7,0.9,1.7,2.9,1.7c1.9,0,2.9-0.9,2.9-2.2&#10;&#9;C14.9,12.5,14.5,11.6,13.1,11.3z"/>
<path fill="currentColor" d="M21,0H3C1.3,0,0,1.3,0,3v18c0,1.7,1.3,3,3,3h18c1.7,0,3-1.3,3-3V3C24,1.3,22.7,0,21,0z M17,17&#10;&#9;c-0.6,0.6-1.5,1-2.4,1c-0.6,0-1.1-0.2-1.7-0.4c-0.3,0.1-0.7,0.1-1,0.1c-0.8,0-1.5-0.1-2.2-0.4C9.1,16.9,8.5,16.5,8,16&#10;&#9;c-0.5-0.5-0.9-1.1-1.2-1.8c-0.3-0.7-0.4-1.4-0.4-2.2c0-0.3,0-0.7,0.1-1C6.1,10.5,6,9.9,6,9.4C6,8.5,6.3,7.6,7,7c0.6-0.6,1.5-1,2.4-1&#10;&#9;c0.5,0,1.1,0.1,1.6,0.4c0,0,0,0,0,0c0.4-0.1,0.7-0.1,1.1-0.1c0.8,0,1.5,0.1,2.2,0.4C14.9,7,15.5,7.4,16,8c0.5,0.5,0.9,1.1,1.2,1.8&#10;&#9;c0.3,0.7,0.4,1.4,0.4,2.2c0,0.3,0,0.7-0.1,1c0.3,0.5,0.4,1.1,0.4,1.6C18,15.5,17.7,16.4,17,17z"/>
</g></svg>