<svg id="nc_icon" xmlns="http://www.w3.org/2000/svg" xmlns:xlink="http://www.w3.org/1999/xlink" x="0px" y="0px" viewBox="0 0 24 24"><g >
<path fill="currentColor" d="M21,0H3C1.3,0,0,1.3,0,3v18c0,1.7,1.3,3,3,3h18c1.7,0,3-1.3,3-3V3C24,1.3,22.7,0,21,0z M6.3,14.4&#10;&#9;c0,0-0.1,0.1-0.1,0.1c-0.1,0-0.1,0-0.1-0.1l-0.2-1.1l0.2-1.1c0,0,0.1-0.1,0.1-0.1c0.1,0,0.1,0,0.1,0.1l0.3,1.1L6.3,14.4z M8.4,14.6&#10;&#9;L8.4,14.6c0,0.1-0.1,0.1-0.2,0.1c-0.1,0-0.2,0-0.2-0.1l-0.2-1.3l0.2-2.1c0-0.1,0.1-0.1,0.2-0.1c0.1,0,0.2,0,0.2,0.1l0.2,2.1&#10;&#9;L8.4,14.6z M10.5,14.6L10.5,14.6c0,0.1-0.2,0.1-0.4,0.1c-0.2,0-0.4-0.1-0.4-0.1l-0.2-1.3l0.2-2.8c0-0.1,0.2-0.1,0.4-0.1&#10;&#9;c0.2,0,0.4,0.1,0.4,0.1l0.2,2.8L10.5,14.6z M16.5,14.7c0,0-4.2,0-4.2,0c-0.1,0-0.2-0.1-0.2-0.2V9.7c0-0.1,0-0.1,0.1-0.2&#10;&#9;c0.3-0.1,0.6-0.2,1-0.2c1.4,0,2.6,1.1,2.7,2.5c0.2-0.1,0.4-0.1,0.6-0.1c0.8,0,1.5,0.7,1.5,1.5C18,14,17.3,14.7,16.5,14.7z"/>
</g></svg>