<svg id="nc_icon" xmlns="http://www.w3.org/2000/svg" xmlns:xlink="http://www.w3.org/1999/xlink" x="0px" y="0px" viewBox="0 0 24 24"><g >
<path fill="currentColor" d="M21,0H3C1.3,0,0,1.3,0,3v18c0,1.7,1.3,3,3,3h18c1.7,0,3-1.3,3-3V3C24,1.3,22.7,0,21,0z M12.9,14.7&#10;&#9;c-0.7,0-1.4-0.4-1.7-0.9c0,0-0.4,1.6-0.5,1.9c-0.3,1.1-1.2,2.2-1.2,2.3c0,0.1-0.2,0-0.2,0c0-0.1-0.2-1.5,0-2.6&#10;&#9;c0.1-0.6,0.9-3.8,0.9-3.8S10,11.1,10,10.5c0-1,0.6-1.8,1.3-1.8c0.6,0,0.9,0.5,0.9,1c0,0.6-0.4,1.6-0.6,2.4c-0.2,0.7,0.4,1.3,1.1,1.3&#10;&#9;c1.3,0,2.2-1.7,2.2-3.7c0-1.5-1-2.6-2.9-2.6c-2.1,0-3.4,1.6-3.4,3.3c0,0.6,0.2,1,0.5,1.4C9.3,12,9.3,12,9.3,12.2&#10;&#9;c0,0.1-0.1,0.4-0.1,0.6c0,0.2-0.2,0.2-0.3,0.2c-1-0.4-1.4-1.4-1.4-2.6C7.4,8.3,9,6,12.3,6c2.6,0,4.4,1.9,4.4,3.9&#10;&#9;C16.6,12.7,15.1,14.7,12.9,14.7z"/>
</g></svg>