<svg id="nc_icon" xmlns="http://www.w3.org/2000/svg" xmlns:xlink="http://www.w3.org/1999/xlink" x="0px" y="0px" viewBox="0 0 24 24"><g >
<path fill="currentColor" d="M12,7c-2.7,0-4.9,2.2-4.9,4.9c0,0.9,0.3,1.8,0.8,2.6L8,14.8l-0.5,1.8l1.9-0.5l0.2,0.1&#10;&#9;c0.8,0.5,1.6,0.7,2.5,0.7h0c2.7,0,4.9-2.2,4.9-4.9c0-1.3-0.5-2.6-1.4-3.5C14.6,7.5,13.3,7,12,7z M14.9,14.1c-0.1,0.3-0.7,0.7-1,0.7&#10;&#9;c-0.3,0-0.6,0.1-0.9-0.1c-0.2-0.1-0.5-0.2-0.8-0.3c-1.5-0.6-2.5-2.1-2.5-2.2C9.5,12.1,9,11.4,9,10.6c0-0.7,0.4-1.1,0.5-1.2&#10;&#9;c0.1-0.1,0.3-0.2,0.4-0.2c0.1,0,0.2,0,0.3,0c0.1,0,0.2,0,0.3,0.3c0.1,0.3,0.4,1,0.5,1.1s0.1,0.2,0,0.3c0,0.1-0.1,0.2-0.1,0.2&#10;&#9;c-0.1,0.1-0.2,0.2-0.2,0.3c-0.1,0.1-0.2,0.2-0.1,0.3c0.1,0.1,0.4,0.6,0.8,1c0.6,0.5,1,0.7,1.2,0.7c0.1,0.1,0.2,0.1,0.3,0&#10;&#9;c0.1-0.1,0.4-0.4,0.5-0.6c0.1-0.1,0.2-0.1,0.3-0.1c0.1,0,0.9,0.4,1,0.5c0.1,0.1,0.2,0.1,0.3,0.2C15.1,13.4,15.1,13.7,14.9,14.1z"/>
<path fill="currentColor" d="M12,0C5.4,0,0,5.4,0,12c0,6.6,5.4,12,12,12s12-5.4,12-12C24,5.4,18.6,0,12,0z M12,17.9L12,17.9&#10;&#9;c-1,0-2-0.2-2.8-0.7L6,18l0.8-3.1c-0.5-0.9-0.8-1.9-0.8-3C6.1,8.7,8.7,6,12,6c1.6,0,3.1,0.6,4.2,1.7C17.4,8.9,18,10.4,18,12&#10;&#9;C18,15.2,15.3,17.9,12,17.9z"/>
</g></svg>