<svg id="nc_icon" xmlns="http://www.w3.org/2000/svg" xmlns:xlink="http://www.w3.org/1999/xlink" x="0px" y="0px" viewBox="0 0 24 24"><g >
<path fill="currentColor" d="M21,0H3C1.3,0,0,1.3,0,3v18c0,1.7,1.3,3,3,3h18c1.7,0,3-1.3,3-3V3C24,1.3,22.7,0,21,0z M15.9,8.3&#10;&#9;c1.1,0,1.9,0.9,1.9,1.9c0,1.1-0.9,1.9-1.9,1.9c-1.1,0-1.9-0.9-1.9-1.9C14,9.2,14.8,8.3,15.9,8.3z M11.6,9.1c0.9,0,1.7,0.8,1.7,1.7&#10;&#9;c0,0.9-0.8,1.7-1.7,1.7c-0.9,0-1.7-0.8-1.7-1.7C9.9,9.8,10.7,9.1,11.6,9.1z M7.7,9.7c0.9,0,1.5,0.7,1.5,1.5c0,0.9-0.7,1.5-1.5,1.5&#10;&#9;c-0.9,0-1.5-0.7-1.5-1.5C6.2,10.4,6.8,9.7,7.7,9.7z M9.4,15.5c0,0.1-0.1,0.2-0.2,0.2H9.2h-3H6.2c-0.1,0-0.2-0.1-0.2-0.2v-0.6&#10;&#9;c0-0.9,0.7-1.8,1.7-1.8c1,0,1.7,0.9,1.7,1.8V15.5z M13.5,15.5c0,0.1-0.1,0.2-0.2,0.2h-0.1H9.9H9.9c-0.1,0-0.2-0.1-0.2-0.2v-0.7&#10;&#9;c0-1,0.8-1.9,1.9-1.9s1.9,1,1.9,1.9V15.5z M18,15.5c0,0.1-0.1,0.2-0.2,0.2h-0.1h-3.7H14c-0.1,0-0.2-0.1-0.2-0.2v-0.7&#10;&#9;c0-1.1,0.9-2.2,2.1-2.2c1.2,0,2.1,1.1,2.1,2.2V15.5z"/>
</g></svg>