<svg id="nc_icon" xmlns="http://www.w3.org/2000/svg" xmlns:xlink="http://www.w3.org/1999/xlink" x="0px" y="0px" viewBox="0 0 24 24"><g >
<path fill="currentColor" d="M15.4,12.4c-1.9-1.1-4.6-1.5-6.8-0.8c-0.2,0.1-0.4,0.3-0.3,0.6s0.3,0.4,0.6,0.3c1.9-0.6,4.3-0.3,6,0.7&#10;&#9;c0.2,0.2,0.5,0.1,0.6-0.2C15.6,12.8,15.5,12.5,15.4,12.4z"/>
<path fill="currentColor" d="M14.6,14.2c-1.6-1-3.5-1.2-5.8-0.7c-0.2,0.1-0.3,0.2-0.3,0.5c0.1,0.2,0.2,0.3,0.4,0.3&#10;&#9;c2.1-0.5,3.9-0.3,5.3,0.6c0.2,0.1,0.4,0.1,0.5-0.1C14.8,14.5,14.8,14.2,14.6,14.2z"/>
<path fill="currentColor" d="M8.2,9.6C8,9.7,7.8,10,7.9,10.3c0.1,0.3,0.4,0.5,0.7,0.4c1.8-0.6,5-0.4,7,0.7c0.3,0.2,0.6,0.1,0.8-0.1&#10;&#9;c0.1-0.3,0.1-0.6-0.2-0.8C13.9,9.1,10.4,9,8.2,9.6z"/>
<path fill="currentColor" d="M21,0H3C1.3,0,0,1.3,0,3v18c0,1.7,1.3,3,3,3h18c1.7,0,3-1.3,3-3V3C24,1.3,22.7,0,21,0z M12,18&#10;&#9;c-3.3,0-6-2.7-6-6s2.7-6,6-6c3.3,0,6,2.7,6,6S15.3,18,12,18z"/>
</g></svg>