<svg id="nc_icon" xmlns="http://www.w3.org/2000/svg" xmlns:xlink="http://www.w3.org/1999/xlink" x="0px" y="0px" viewBox="0 0 24 24"><g >
<path fill="currentColor" d="M15.4,11.2c-1.1,0-1.3,1.1-1.3,1.1h2.4C16.6,12.3,16.6,11.2,15.4,11.2z"/>
<path fill="currentColor" d="M10.4,10.3c0-0.8-0.5-0.8-0.5-0.8H9.6H7.7v1.7h2C10.1,11.2,10.4,11.1,10.4,10.3z"/>
<path fill="currentColor" d="M21,0H3C1.3,0,0,1.3,0,3v18c0,1.7,1.3,3,3,3h18c1.7,0,3-1.3,3-3V3C24,1.3,22.7,0,21,0z M13.8,8.6h3.1v0.9&#10;&#9;h-3.1V8.6z M12.2,13.4c0,2.3-2.4,2.2-2.4,2.2H7.7H7.6H6V8.2h1.6h0.1h2.2c1.2,0,2.1,0.6,2.1,2s-1.1,1.4-1.1,1.4&#10;&#9;C12.3,11.6,12.2,13.4,12.2,13.4z M18,13.3h-3.9c0,1.4,1.3,1.3,1.3,1.3c1.2,0,1.2-0.8,1.2-0.8h1.3c0,2.1-2.5,2-2.5,2&#10;&#9;c-3.1,0-2.9-2.8-2.9-2.8s0-2.9,2.9-2.9C18.4,10.1,18,13.3,18,13.3z"/>
<path fill="currentColor" d="M9.9,12.3H7.7v2h2.1c0.3,0,0.9-0.1,0.9-1C10.7,12.3,9.9,12.3,9.9,12.3z"/>
</g></svg>