<svg id="nc_icon" xmlns="http://www.w3.org/2000/svg" xmlns:xlink="http://www.w3.org/1999/xlink" x="0px" y="0px" viewBox="0 0 24 24"><g >
<path fill="currentColor" d="M12,0C5.4,0,0,5.4,0,12c0,6.6,5.4,12,12,12s12-5.4,12-12C24,5.4,18.6,0,12,0z M12,18c-3.3,0-6-2.7-6-6&#10;&#9;c0-3.3,2.7-6,6-6c3.3,0,6,2.7,6,6C18,15.3,15.3,18,12,18z"/>
<path fill="currentColor" d="M15.6,11.7c0-0.7-0.2-1.1-0.4-1.5c-0.3-0.4-0.5-0.8-0.5-1.3c0-0.5,0.4-1,0.9-1c0,0,0,0,0.1,0&#10;&#9;c-1-0.9-2.2-1.4-3.6-1.4c-1.9,0-3.5,1-4.5,2.4c0.1,0,0.2,0,0.3,0C8.4,9,9.3,9,9.3,9c0.3,0,0.3,0.4,0,0.4c0,0-0.3,0-0.6,0.1l2,5.8&#10;&#9;l1.2-3.5L11,9.5c-0.3,0-0.6-0.1-0.6-0.1c-0.3,0-0.3-0.5,0-0.4c0,0,0.9,0.1,1.4,0.1C12.5,9,13.3,9,13.3,9c0.3,0,0.3,0.4,0,0.4&#10;&#9;c0,0-0.3,0-0.6,0.1l1.9,5.8l0.5-1.8C15.5,12.7,15.6,12.2,15.6,11.7z"/>
<path fill="currentColor" d="M6.6,12c0,2.1,1.2,4,3,4.9L7.1,9.8C6.8,10.5,6.6,11.2,6.6,12z"/>
<path fill="currentColor" d="M12.1,12.5l-1.6,4.7c0.5,0.1,1,0.2,1.5,0.2c0.6,0,1.2-0.1,1.8-0.3c0,0,0,0,0-0.1L12.1,12.5z"/>
<path fill="currentColor" d="M14.7,16.7c1.6-0.9,2.7-2.7,2.7-4.7c0-0.9-0.2-1.8-0.7-2.6c0,0.2,0,0.4,0,0.6c0,0.5-0.1,1.2-0.4,1.9&#10;&#9;L14.7,16.7z"/>
</g></svg>