<svg id="nc_icon" xmlns="http://www.w3.org/2000/svg" xmlns:xlink="http://www.w3.org/1999/xlink" x="0px" y="0px" viewBox="0 0 24 24"><g >
<path fill="currentColor" d="M14.7,11c-0.5,0-0.6,0.4-0.7,0.7c0.1,0,0.3,0,0.5,0c0.3,0,0.6,0.1,0.8,0.2C15.3,11.5,15.2,11,14.7,11z"/>
<path fill="currentColor" d="M12,0C5.4,0,0,5.4,0,12c0,6.6,5.4,12,12,12s12-5.4,12-12C24,5.4,18.6,0,12,0z M7.2,8.5l2.2-2.2c0,0,0,0,0,0&#10;&#9;l0,0.1C9.3,6.6,9.2,6.7,9.2,7v0c0,0.3,0,1.2,0,1.2c0,0.1-0.1,0.1-0.1,0.1H8c0,0,0,0,0,0c-0.3,0-0.5,0-0.7,0.1&#10;&#9;C7.3,8.5,7.2,8.5,7.2,8.5C7.2,8.5,7.2,8.5,7.2,8.5z M17,13.2c-0.2,1.7-0.4,2.7-0.5,3c-0.5,1.7-1,1.7-2.3,1.7c-1.7,0-2.2-0.2-2.2-1.6&#10;&#9;c0-1.5,0.7-1.5,1.9-1.5c0.2,0,0,0.2,0,0.5c0,0.3,0.1,0.4,0,0.4c-0.3,0-0.8,0-0.8,0.4c0,0.6,0.3,0.6,1,0.6c0.9,0,1.1-0.1,1.1-0.9&#10;&#9;c0-1.3-0.4-1.5-0.9-1.6c-0.6-0.1-1.1-0.2-1.4-0.3c-0.7-0.2-0.6-1.2-0.6-1.4c0,0-0.1,0-0.1,0c0,0.4,0,0.9-0.2,1.4&#10;&#9;c-0.1,0.2-0.1,0.3-0.1,0.3c-0.2,0.5-0.6,0.3-1.2,0.2c-0.6-0.1-1.8-0.3-2.4-0.6c-0.2-0.1-0.3-0.2-0.5-0.5c-0.3-0.7-0.7-2.8-0.7-3.1&#10;&#9;C7,9.9,7,9.7,7,9.7C7,9.5,7,9.2,7.2,9c0.1-0.1,0.2-0.2,0.3-0.3C7.6,8.7,7.8,8.7,8,8.7h1.1c0.2,0,0.4-0.2,0.4-0.4c0,0,0-0.2,0-0.5&#10;&#9;c0-0.3,0-0.6,0-0.7c0-0.2,0.1-0.4,0.1-0.5c0.1-0.2,0.4-0.3,0.6-0.4c0.3-0.1,1.3-0.1,2,0.1c0.3,0.1,0.5,0.4,0.5,0.7&#10;&#9;c0.4,0,1.1,0,1.6,0c0.7,0.1,1.3,0.2,1.5,0.3c0.3,0.1,0.5,0.3,0.6,0.8C16.9,8.9,17.1,12.2,17,13.2z"/>
</g></svg>