<svg id="nc_icon" xmlns="http://www.w3.org/2000/svg" xmlns:xlink="http://www.w3.org/1999/xlink" x="0px" y="0px" viewBox="0 0 24 24"><g ><path fill="currentColor" d="M19.49757,22.36145c-0.15523-0.62189-0.54189-1.72021-0.85927-2.44043&#10;&#9;c-0.61999-1.40688-1.4195-4.06421-2.25686-7.49986c-0.28714-1.17855-0.60713-2.29924-0.7107-2.49043&#10;&#9;c-0.26761-0.49356-0.4269,1.06784-0.56951,5.58561c-0.06619,2.0952-0.26261,4.29158-0.43618,4.88086l-0.31595,1.07141&#10;&#9;c-2.86286,0.26493-1.7362,0.16073-4.70324,0.43499c-0.94148-1.18079-4.1073-6.20964-4.1073-6.20964&#10;&#9;c-0.00174,0.00173,0.54268,4.5685,0.44213,4.95252c-0.16285,0.62213-2.40757,1.50426-3.73207,1.46688&#10;&#9;c-1.09998-0.03143-1.33402-0.48737-1.68402-3.2847c-0.59761-4.77086-0.6507-5.87751-0.47975-9.98148l0.17-4.07992L1.3022,4.48702&#10;&#9;c1.68663-0.45118,3.56303-0.36428,4.07802,0.18857c0.24,0.25785,1.39116,2.32019,2.55781,4.58325l2.12139,4.11445l0.30047-2.26186&#10;&#9;c0.44261-3.33351,1.7614-7.79628,2.8978-9.80552l0.44642-0.78951l2.10234,0.05143c1.72973,0.04238,2.18543,0.13452,2.5709,0.51999&#10;&#9;c0.59737,0.59737,1.72544,4.86848,3.38494,12.81451c0.19738,0.94617,0.51594,2.16496,0.70808,2.70876&#10;&#9;c0.1919,0.54356,0.3488,1.18593,0.3488,1.42735s0.26785,1.2595,0.59523,2.26234c0.60165,1.84354,0.72427,2.4471,0.43856,2.16162&#10;&#9;c0,0-2.86412,0.96242-3.92231,1.02117C19.8478,23.48857,19.65281,22.98334,19.49757,22.36145L19.49757,22.36145z"/></g></svg>