<svg id="nc_icon" xmlns="http://www.w3.org/2000/svg" xmlns:xlink="http://www.w3.org/1999/xlink" x="0px" y="0px" viewBox="0 0 24 24"><g >
<path fill="currentColor" d="M12,0C5.4,0,0,5.4,0,12c0,6.6,5.4,12,12,12s12-5.4,12-12C24,5.4,18.6,0,12,0z M15.5,15.5L12,17.6l-3.5-2.1&#10;&#9;v-0.8l1.1,0.7l2.5-2.1l2.5,2.1l1.1-0.7V15.5z M18,12.6l-3.5,2.3L12,12.9l-2.5,2.1L6,12.6l2.4-2L6,8.7l3.5-2.3L12,8.5l2.5-2.1L18,8.7&#10;&#9;l-2.4,2L18,12.6z"/>
<polygon fill="currentColor" points="8.4,10.7 12,12.9 15.6,10.7 12,8.5 "/>
</g></svg>