<svg id="nc_icon" xmlns="http://www.w3.org/2000/svg" xmlns:xlink="http://www.w3.org/1999/xlink" x="0px" y="0px" viewBox="0 0 24 24"><g >
<circle fill="currentColor" cx="12" cy="12" r="2"/>
<path fill="currentColor" d="M16.229,7.771c-0.488-0.488-1.121-0.624-1.804-0.655C13.792,7.087,13.602,7.081,12,7.081&#10;&#9;s-1.792,0.006-2.424,0.035C8.893,7.147,8.259,7.284,7.771,7.771S7.147,8.893,7.116,9.576C7.087,10.208,7.081,10.398,7.081,12&#10;&#9;c0,1.602,0.006,1.792,0.035,2.424c0.031,0.683,0.168,1.316,0.655,1.804s1.121,0.624,1.804,0.655&#10;&#9;c0.633,0.029,0.822,0.035,2.424,0.035s1.792-0.006,2.424-0.035c0.683-0.031,1.316-0.168,1.804-0.655s0.624-1.121,0.655-1.804&#10;&#9;c0.029-0.633,0.035-0.822,0.035-2.424c0-1.602-0.006-1.792-0.035-2.425C16.853,8.893,16.716,8.259,16.229,7.771z M12,15.081&#10;&#9;c-1.702,0-3.081-1.379-3.081-3.081c0-1.702,1.379-3.081,3.081-3.081s3.081,1.379,3.081,3.081C15.081,13.702,13.702,15.081,12,15.081&#10;&#9;z M15.203,9.517c-0.398,0-0.72-0.322-0.72-0.72s0.322-0.72,0.72-0.72s0.72,0.322,0.72,0.72S15.6,9.517,15.203,9.517z"/>
<path fill="currentColor" d="M21,0H3C1.343,0,0,1.343,0,3v18c0,1.657,1.343,3,3,3h18c1.657,0,3-1.343,3-3V3C24,1.343,22.657,0,21,0z&#10;&#9; M17.964,14.474c-0.045,0.975-0.284,1.832-0.971,2.519c-0.688,0.688-1.544,0.926-2.519,0.971C13.834,17.993,13.63,18,12,18&#10;&#9;s-1.834-0.007-2.474-0.036c-0.975-0.044-1.832-0.284-2.519-0.971c-0.688-0.688-0.926-1.544-0.971-2.519C6.007,13.834,6,13.63,6,12&#10;&#9;s0.007-1.834,0.036-2.474C6.081,8.551,6.32,7.694,7.007,7.007c0.688-0.688,1.544-0.926,2.519-0.971C10.166,6.007,10.37,6,12,6&#10;&#9;s1.834,0.007,2.474,0.036c0.975,0.044,1.832,0.284,2.519,0.971c0.688,0.688,0.926,1.544,0.971,2.519C17.993,10.166,18,10.37,18,12&#10;&#9;S17.993,13.834,17.964,14.474z"/>
</g></svg>