<svg id="nc_icon" xmlns="http://www.w3.org/2000/svg" xmlns:xlink="http://www.w3.org/1999/xlink" x="0px" y="0px" viewBox="0 0 24 24"><g >
<path fill="currentColor" d="M13.5,14.7c-0.3,0.3-0.8,0.4-1.5,0.4c0,0,0,0,0,0s0,0,0,0c-0.7,0-1.2-0.1-1.5-0.4c-0.1-0.1-0.3-0.1-0.5,0&#10;&#9;c-0.1,0.1-0.1,0.3,0,0.5c0.4,0.4,1.1,0.6,2,0.6c0,0,0,0,0,0s0,0,0,0c0.9,0,1.6-0.2,2-0.6c0.1-0.1,0.1-0.3,0-0.5&#10;&#9;C13.8,14.6,13.6,14.6,13.5,14.7z"/>
<path fill="currentColor" d="M11,12.8c0-0.4-0.4-0.8-0.8-0.8s-0.8,0.4-0.8,0.8c0,0.4,0.4,0.8,0.8,0.8S11,13.2,11,12.8z"/>
<path fill="currentColor" d="M13.8,12c-0.4,0-0.8,0.4-0.8,0.8s0.4,0.8,0.8,0.8s0.8-0.4,0.8-0.8S14.2,12,13.8,12z"/>
<path fill="currentColor" d="M12,0C5.4,0,0,5.4,0,12c0,6.6,5.4,12,12,12s12-5.4,12-12C24,5.4,18.6,0,12,0z M17.3,13.1c0,0.1,0,0.2,0,0.3&#10;&#9;c0,1-0.6,1.9-1.6,2.6c-1,0.7-2.3,1-3.7,1c-1.4,0-2.7-0.4-3.7-1c-1-0.7-1.6-1.6-1.6-2.6c0-0.1,0-0.2,0-0.3C6.2,12.8,6,12.4,6,11.9&#10;&#9;c0-0.8,0.6-1.4,1.4-1.4c0.3,0,0.6,0.1,0.9,0.3c0.9-0.6,2.2-0.9,3.4-1l0.8-2.4c0.1-0.2,0.2-0.3,0.4-0.2l2,0.5C15.1,7.2,15.5,7,16,7&#10;&#9;c0.7,0,1.2,0.5,1.2,1.2c0,0.7-0.5,1.2-1.2,1.2c-0.6,0-1.2-0.5-1.2-1.1l-1.7-0.4l-0.6,2c1.2,0.1,2.3,0.4,3.2,1&#10;&#9;c0.2-0.2,0.6-0.3,0.9-0.3c0.8,0,1.4,0.6,1.4,1.4C18,12.4,17.7,12.9,17.3,13.1z"/>
</g></svg>