<svg id="nc_icon" xmlns="http://www.w3.org/2000/svg" xmlns:xlink="http://www.w3.org/1999/xlink" x="0px" y="0px" viewBox="0 0 24 24"><g >
<circle fill="currentColor" cx="17" cy="6" r="3"/>
<path fill="currentColor" d="M7,16h2.8769531L13,16.7807617V19h2v-2.2192383c0-0.9194336-0.6230469-1.7172852-1.515625-1.9404297&#10;&#9;l-1.7802734-0.4450684l1.8771362-2.5010986l6.7634888,5.8616943c0.4175415,0.3605347,1.0481567,0.3173218,1.4111328-0.1010742&#10;&#9;c0.3613281-0.4169922,0.3164062-1.0488281-0.1005859-1.4106445l-15-13C6.2382812,2.8837891,5.6074219,2.9267578,5.2441406,3.3452148&#10;&#9;C4.8828125,3.762207,4.9277344,4.394043,5.3447266,4.7558594l6.7214966,5.8253174L9.5,14H7c-1.1025391,0-2,0.8969727-2,2v3h2V16z"/>
<rect data-color="color-2" y="19" fill="currentColor" width="24" height="2"/>
</g></svg>