<svg id="nc_icon" xmlns="http://www.w3.org/2000/svg" xmlns:xlink="http://www.w3.org/1999/xlink" x="0px" y="0px" viewBox="0 0 24 24"><g >
<polygon fill="currentColor" points="17,12 7,12 7.5,17 16.5,17 "/>
<path fill="currentColor" d="M23,0H1C0.4477539,0,0,0.4477539,0,1v15c0,0.5522461,0.4477539,1,1,1h4.4900513l-0.4801025-4.8010254&#10;&#9;L4.7900391,10H7h10h2.2099609l-0.2199097,2.1989746L18.5099487,17H23c0.5522461,0,1-0.4477539,1-1V1C24,0.4477539,23.5522461,0,23,0&#10;&#9;z"/>
<polygon data-color="color-2" fill="currentColor" points="10,21 12,22 14,21 16,22 17,12 7,12 8,22 "/>
</g></svg>