<svg id="nc_icon" xmlns="http://www.w3.org/2000/svg" xmlns:xlink="http://www.w3.org/1999/xlink" x="0px" y="0px" viewBox="0 0 24 24"><g >
<path fill="currentColor" d="M13.044,15.198l-3.846,3.846C9.624,20.183,10.714,21,12,21c1.654,0,3-1.346,3-3&#10;&#9;C15,16.714,14.183,15.624,13.044,15.198z"/>
<path fill="currentColor" d="M7.05,13.05C8.372,11.728,10.131,11,12,11c0.315,0,0.624,0.028,0.931,0.069l1.684-1.684&#10;&#9;C13.778,9.131,12.899,9,12,9c-2.403,0-4.664,0.936-6.364,2.636l-0.707,0.707l1.414,1.414L7.05,13.05z"/>
<path fill="currentColor" d="M17.418,10.824l-1.428,1.428c0.339,0.236,0.662,0.5,0.96,0.798l0.707,0.707l1.414-1.414l-0.707-0.707&#10;&#9;C18.067,11.339,17.747,11.074,17.418,10.824z"/>
<path fill="currentColor" d="M2.808,8.808C5.263,6.352,8.527,5,12,5c2.004,0,3.933,0.464,5.683,1.317l1.491-1.491&#10;&#9;C16.998,3.637,14.549,3,12,3C7.993,3,4.227,4.561,1.394,7.394L0.687,8.101l1.414,1.414L2.808,8.808z"/>
<path fill="currentColor" d="M21.685,6.557l-1.414,1.414c0.318,0.263,0.626,0.541,0.922,0.836l0.707,0.707l1.414-1.414l-0.707-0.707&#10;&#9;C22.311,7.098,22,6.825,21.685,6.557z"/>
<rect data-color="color-2" x="-0.728" y="10" transform="matrix(0.7071 -0.7071 0.7071 0.7071 -3.9706 12.4142)" fill="currentColor" width="27.456" height="2"/>
</g></svg>