<svg id="nc_icon" xmlns="http://www.w3.org/2000/svg" xmlns:xlink="http://www.w3.org/1999/xlink" x="0px" y="0px" viewBox="0 0 24 24"><g >
<path fill="currentColor" d="M13.757,21H5c-0.552,0-1-0.448-1-1V4c0-0.552,0.448-1,1-1h12c0.552,0,1,0.448,1,1v7h2V3c0-1.654-1.346-3-3-3&#10;&#9;H5C3.346,0,2,1.346,2,3v18c0,1.654,1.346,3,3,3h11.758L13.757,21z"/>
<polygon data-color="color-2" fill="currentColor" points="22,17.586 20,19.586 20,13 18,13 18,19.586 16,17.586 14.586,19 19,23.414 &#10;&#9;23.414,19 "/>
</g></svg>