<svg id="nc_icon" xmlns="http://www.w3.org/2000/svg" xmlns:xlink="http://www.w3.org/1999/xlink" x="0px" y="0px" viewBox="0 0 24 24"><g >
<path fill="currentColor" d="M23,1H1C0.447,1,0,1.448,0,2v12c0,0.552,0.447,1,1,1h11v3c0,2.757,2.243,5,5,5s5-2.243,5-5v-3h1&#10;&#9;c0.553,0,1-0.448,1-1V2C24,1.448,23.553,1,23,1z M18,5h3v2h-3V5z M13,5h3v2h-3V5z M8,5h3v2H8V5z M6,11H3V9h3V11z M6,7H3V5h3V7z&#10;&#9; M8,11V9h4v2H8z M20,18c0,1.654-1.346,3-3,3s-3-1.346-3-3v-3c0-1.654,1.346-3,3-3s3,1.346,3,3V18z"/>
<rect data-color="color-2" x="16" y="14" fill="currentColor" width="2" height="3"/>
</g></svg>