<svg id="nc_icon" xmlns="http://www.w3.org/2000/svg" xmlns:xlink="http://www.w3.org/1999/xlink" x="0px" y="0px" viewBox="0 0 24 24"><g ><path fill="currentColor" d="M23,4H1C0.44727,4,0,3.55225,0,3s0.44727-1,1-1h22c0.55273,0,1,0.44775,1,1S23.55273,4,23,4z"/>
<path data-color="color-2" fill="currentColor" d="M23,10H11c-0.55273,0-1-0.44775-1-1s0.44727-1,1-1h12c0.55273,0,1,0.44775,1,1&#10;&#9;S23.55273,10,23,10z"/>
<path fill="currentColor" d="M23,16H1c-0.55273,0-1-0.44775-1-1s0.44727-1,1-1h22c0.55273,0,1,0.44775,1,1S23.55273,16,23,16z"/>
<path data-color="color-2" fill="currentColor" d="M23,22H11c-0.55273,0-1-0.44775-1-1s0.44727-1,1-1h12c0.55273,0,1,0.44775,1,1&#10;&#9;S23.55273,22,23,22z"/></g></svg>