<svg id="nc_icon" xmlns="http://www.w3.org/2000/svg" xmlns:xlink="http://www.w3.org/1999/xlink" x="0px" y="0px" viewBox="0 0 24 24"><g >
<path data-color="color-2" fill="currentColor" d="M1,6C0.4,6,0,6.4,0,7v3c0,0.6,0.4,1,1,1s1-0.4,1-1V7C2,6.4,1.6,6,1,6z"/>
<path data-color="color-2" fill="currentColor" d="M23,6c-0.6,0-1,0.4-1,1v3c0,0.6,0.4,1,1,1s1-0.4,1-1V7C24,6.4,23.6,6,23,6z"/>
<path fill="currentColor" d="M21,17V3c0-1.7-1.3-3-3-3H6C4.3,0,3,1.3,3,3v14c0,0.6,0.4,1,1,1h1.4l-2.3,4.6c-0.2,0.5,0,1.1,0.4,1.3&#10;&#9;C3.7,24,3.8,24,4,24c0.4,0,0.7-0.2,0.9-0.6L6.1,21h11.8l1.2,2.4c0.2,0.4,0.5,0.6,0.9,0.6c0.1,0,0.3,0,0.4-0.1&#10;&#9;c0.5-0.2,0.7-0.8,0.4-1.3L18.6,18H20C20.6,18,21,17.6,21,17z M6,14c0-0.6,0.4-1,1-1h2c0.6,0,1,0.4,1,1s-0.4,1-1,1H7&#10;&#9;C6.4,15,6,14.6,6,14z M7.1,19l0.5-1h8.8l0.5,1H7.1z M17,15h-2c-0.6,0-1-0.4-1-1s0.4-1,1-1h2c0.6,0,1,0.4,1,1S17.6,15,17,15z M18,9&#10;&#9;c0,0.6-0.4,1-1,1H7c-0.6,0-1-0.4-1-1V4c0-0.6,0.4-1,1-1h10c0.6,0,1,0.4,1,1V9z"/>
</g></svg>