<svg id="nc_icon" xmlns="http://www.w3.org/2000/svg" xmlns:xlink="http://www.w3.org/1999/xlink" x="0px" y="0px" viewBox="0 0 24 24"><g >
<path data-color="color-2" fill="currentColor" d="M21.9,18.6C21.8,18.2,21.4,18,21,18H3c-0.3,0-0.7,0.2-0.9,0.5c-0.2,0.3-0.2,0.7,0,1l1,2&#10;&#9;C3.3,21.8,3.6,22,4,22h15c0.3,0,0.5-0.1,0.7-0.3l2-2C22,19.4,22.1,19,21.9,18.6z"/>
<path fill="currentColor" d="M4,16h8c0.6,0,1-0.4,1-1V4c0-0.4-0.3-0.8-0.7-1c-0.4-0.1-0.9,0-1.1,0.4l-8,11c-0.2,0.3-0.3,0.7-0.1,1&#10;&#9;C3.3,15.8,3.6,16,4,16z"/>
</g></svg>