<svg id="nc_icon" xmlns="http://www.w3.org/2000/svg" xmlns:xlink="http://www.w3.org/1999/xlink" x="0px" y="0px" viewBox="0 0 24 24"><g >
<path fill="currentColor" d="M22.7,11.3l-1.8-1.8l-1-7.7C19.9,1.4,19.5,1,19,1H5C4.5,1,4.1,1.4,4,1.9l-1,7.7l-1.8,1.8&#10;&#9;C1.1,11.5,1,11.7,1,12v6c0,0.6,0.4,1,1,1h1v2c0,0.6,0.4,1,1,1h3c0.6,0,1-0.4,1-1v-2h8v2c0,0.6,0.4,1,1,1h3c0.6,0,1-0.4,1-1v-2h1&#10;&#9;c0.6,0,1-0.4,1-1v-6C23,11.7,22.9,11.5,22.7,11.3z M5.9,3h12.2l0.8,6H5.1L5.9,3z M8,15H6c-0.6,0-1-0.4-1-1s0.4-1,1-1h2&#10;&#9;c0.6,0,1,0.4,1,1S8.6,15,8,15z M18,15h-2c-0.6,0-1-0.4-1-1s0.4-1,1-1h2c0.6,0,1,0.4,1,1S18.6,15,18,15z"/>
</g></svg>