<svg id="nc_icon" xmlns="http://www.w3.org/2000/svg" xmlns:xlink="http://www.w3.org/1999/xlink" x="0px" y="0px" viewBox="0 0 24 24"><g >
<path data-color="color-2" fill="currentColor" d="M23,19H2c-0.6,0-1,0.4-1,1s0.4,1,1,1h21c0.6,0,1-0.4,1-1S23.6,19,23,19z"/>
<path data-color="color-2" fill="currentColor" d="M6,18c0.6,0,1-0.4,1-1s-0.4-1-1-1H5c-0.6,0-1,0.4-1,1s0.4,1,1,1H6z"/>
<path data-color="color-2" fill="currentColor" d="M11,18c0.6,0,1-0.4,1-1s-0.4-1-1-1h-1c-0.6,0-1,0.4-1,1s0.4,1,1,1H11z"/>
<path data-color="color-2" fill="currentColor" d="M16,18c0.6,0,1-0.4,1-1s-0.4-1-1-1h-1c-0.6,0-1,0.4-1,1s0.4,1,1,1H16z"/>
<path data-color="color-2" fill="currentColor" d="M21,18c0.6,0,1-0.4,1-1s-0.4-1-1-1h-1c-0.6,0-1,0.4-1,1s0.4,1,1,1H21z"/>
<path fill="currentColor" d="M11,10c-0.6,0-1-0.4-1-1s0.4-1,1-1h13V4c0-0.6-0.4-1-1-1H4C1.8,3,0,4.8,0,7v1h6c0.6,0,1,0.4,1,1s-0.4,1-1,1&#10;&#9;H0v4c0,0.6,0.4,1,1,1h22c0.6,0,1-0.4,1-1v-4H11z"/>
</g></svg>