<svg id="nc_icon" xmlns="http://www.w3.org/2000/svg" xmlns:xlink="http://www.w3.org/1999/xlink" x="0px" y="0px" viewBox="0 0 24 24"><g >
<path fill="currentColor" d="M8.3,1C7.8,0.9,7.2,1.2,7,1.7l-6,20c-0.2,0.5,0.1,1.1,0.7,1.2c0.1,0,0.2,0,0.3,0c0.4,0,0.8-0.3,1-0.7l6-20&#10;&#9;C9.1,1.8,8.8,1.2,8.3,1z"/>
<path fill="currentColor" d="M17,1.7c-0.2-0.5-0.7-0.8-1.2-0.7c-0.5,0.2-0.8,0.7-0.7,1.2l6,20c0.1,0.4,0.5,0.7,1,0.7c0.1,0,0.2,0,0.3,0&#10;&#9;c0.5-0.2,0.8-0.7,0.7-1.2L17,1.7z"/>
<path data-color="color-2" fill="currentColor" d="M12,4c-0.6,0-1,0.4-1,1v2c0,0.6,0.4,1,1,1s1-0.4,1-1V5C13,4.4,12.6,4,12,4z"/>
<path data-color="color-2" fill="currentColor" d="M12,10c-0.6,0-1,0.4-1,1v2c0,0.6,0.4,1,1,1s1-0.4,1-1v-2C13,10.4,12.6,10,12,10z"/>
<path data-color="color-2" fill="currentColor" d="M12,16c-0.6,0-1,0.4-1,1v2c0,0.6,0.4,1,1,1s1-0.4,1-1v-2C13,16.4,12.6,16,12,16z"/>
</g></svg>