<svg id="nc_icon" xmlns="http://www.w3.org/2000/svg" xmlns:xlink="http://www.w3.org/1999/xlink" x="0px" y="0px" viewBox="0 0 24 24"><g >
<path fill="currentColor" d="M20,14c0.4,0,0.7-0.2,0.9-0.6l2-4c0.2-0.3,0.1-0.7,0-1C22.7,8.2,22.3,8,22,8h-3V7h1c0.4,0,0.7-0.2,0.9-0.6&#10;&#9;l2-4c0.2-0.3,0.1-0.7,0-1C22.7,1.2,22.3,1,22,1h-3c0-0.6-0.4-1-1-1H6C5.4,0,5,0.4,5,1H2C1.7,1,1.3,1.2,1.1,1.5C1,1.8,1,2.1,1.1,2.4&#10;&#9;l2,4C3.3,6.8,3.6,7,4,7h1v1H2C1.7,8,1.3,8.2,1.1,8.5C1,8.8,1,9.1,1.1,9.4l2,4C3.3,13.8,3.6,14,4,14h1v1H2c-0.3,0-0.7,0.2-0.9,0.5&#10;&#9;c-0.2,0.3-0.2,0.7,0,1l2,4C3.3,20.8,3.6,21,4,21h1v2c0,0.6,0.4,1,1,1h12c0.6,0,1-0.4,1-1v-2h1c0.4,0,0.7-0.2,0.9-0.6l2-4&#10;&#9;c0.2-0.3,0.1-0.7,0-1C22.7,15.2,22.3,15,22,15h-3v-1H20z M19,3h1.4l-1,2H19V3z M19,10h1.4l-1,2H19V10z M5,19H4.6l-1-2H5V19z M5,12&#10;&#9;H4.6l-1-2H5V12z M5,5H4.6l-1-2H5V5z M12,21c-1.1,0-2-0.9-2-2c0-1.1,0.9-2,2-2s2,0.9,2,2C14,20.1,13.1,21,12,21z M12,14&#10;&#9;c-1.1,0-2-0.9-2-2c0-1.1,0.9-2,2-2s2,0.9,2,2C14,13.1,13.1,14,12,14z M12,7c-1.1,0-2-0.9-2-2c0-1.1,0.9-2,2-2s2,0.9,2,2&#10;&#9;C14,6.1,13.1,7,12,7z M20.4,17l-1,2H19v-2H20.4z"/>
</g></svg>