<svg id="nc_icon" xmlns="http://www.w3.org/2000/svg" xmlns:xlink="http://www.w3.org/1999/xlink" x="0px" y="0px" viewBox="0 0 24 24"><g >
<path fill="currentColor" d="M23,9h-4.4l-2.7-4.5C15.7,4.2,15.4,4,15,4H5C4.7,4,4.4,4.2,4.2,4.4l-4,6C0.1,10.6,0,10.8,0,11v5&#10;&#9;c0,0.6,0.4,1,1,1h1.1c0.2,1.7,1.7,3,3.4,3s3.2-1.3,3.4-3h5.1c0.2,1.7,1.7,3,3.4,3s3.2-1.3,3.4-3H23c0.6,0,1-0.4,1-1v-6&#10;&#9;C24,9.4,23.6,9,23,9z M5.5,18C4.7,18,4,17.3,4,16.5S4.7,15,5.5,15S7,15.7,7,16.5S6.3,18,5.5,18z M17.5,18c-0.8,0-1.5-0.7-1.5-1.5&#10;&#9;s0.7-1.5,1.5-1.5s1.5,0.7,1.5,1.5S18.3,18,17.5,18z"/>
</g></svg>