<svg id="nc_icon" xmlns="http://www.w3.org/2000/svg" xmlns:xlink="http://www.w3.org/1999/xlink" x="0px" y="0px" viewBox="0 0 24 24"><g >
<path data-color="color-2" fill="currentColor" d="M6.8,8.7l5-5L7,0.6C5.8-0.2,4.3-0.1,3.2,1L0.9,3.3C0.7,3.5,0.6,3.8,0.6,4.1&#10;&#9;c0,0.3,0.2,0.6,0.4,0.7L6.8,8.7z"/>
<path data-color="color-2" fill="currentColor" d="M23.4,17l-3.2-4.7l-5,5l3.8,5.8c0.2,0.2,0.4,0.4,0.7,0.4c0,0,0.1,0,0.1,0&#10;&#9;c0.3,0,0.5-0.1,0.7-0.3l2.4-2.4C24.1,19.7,24.2,18.2,23.4,17z"/>
<path fill="currentColor" d="M20.7,3.3c-1.5-1.5-4.1-1.5-5.7,0l-7.8,7.8c-0.1,0.1-0.1,0.1-0.1,0.2L4.7,15l-2.6-0.2&#10;&#9;c-0.9-0.1-1.4,1-0.8,1.7L2.8,18l-0.7,1.2c-0.4,0.6-0.4,1.4,0,2c0.4,0.6,1,1,1.7,1c0.4,0,0.7-0.1,1.1-0.3L6,21.2l1.5,1.5&#10;&#9;c0.7,0.7,1.8,0.1,1.7-0.8l-0.2-2.5l3.8-2.4c0.1,0,0.1-0.1,0.2-0.1L20.7,9c0.8-0.8,1.2-1.8,1.2-2.8S21.4,4.1,20.7,3.3z"/>
</g></svg>