<svg id="nc_icon" xmlns="http://www.w3.org/2000/svg" xmlns:xlink="http://www.w3.org/1999/xlink" x="0px" y="0px" viewBox="0 0 24 24"><g >
<path data-color="color-2" fill="currentColor" d="M1,9h9c0,0,0,0,0,0c0.6,0,1-0.4,1-1c0-0.1,0-0.2,0-0.2C10.9,6.2,9.6,5,8,5H3C1.3,5,0,6.3,0,8&#10;&#9;C0,8.6,0.4,9,1,9z"/>
<path fill="currentColor" d="M22.8,16.1L20.3,8H22c0.6,0,1-0.4,1-1V3c0-0.6-0.4-1-1-1h-3c-0.8,0-1.5,0.3-2,0.8V2c0-0.6-0.4-1-1-1h-3&#10;&#9;c-0.6,0-1,0.4-1,1s0.4,1,1,1h2v10c0,0.6-0.4,1-1,1h-2c-0.6,0-1-0.4-1-1v-1c0-0.6-0.4-1-1-1H1c-0.6,0-1,0.4-1,1v5&#10;&#9;c0,1.3,0.9,2.5,2.1,2.8C2.5,21.6,4.1,23,6,23c1.9,0,3.4-1.3,3.9-3h6.3c0.4,1.7,2,3,3.9,3c2.2,0,4-1.8,4-4&#10;&#9;C24,17.9,23.5,16.9,22.8,16.1z M6,21c-1.1,0-2-0.9-2-2s0.9-2,2-2s2,0.9,2,2S7.1,21,6,21z M20,21c-1.1,0-2-0.9-2-2s0.9-2,2-2&#10;&#9;s2,0.9,2,2S21.1,21,20,21z"/>
</g></svg>