<svg id="nc_icon" xmlns="http://www.w3.org/2000/svg" xmlns:xlink="http://www.w3.org/1999/xlink" x="0px" y="0px" viewBox="0 0 24 24"><g >
<path fill="currentColor" d="M21,14.1V13c0-1.7-1.3-3-3-3V8h1c0.6,0,1-0.4,1-1s-0.4-1-1-1h-1c-1.1,0-2,0.9-2,2v2h-1.2L13,2.8&#10;&#9;C12.9,2.3,12.5,2,12,2H6H4C3.4,2,3,2.4,3,3s0.4,1,1,1h1v6.1C2.2,10.6,0,13,0,16c0,3.3,2.7,6,6,6c2.2,0,4.1-1.2,5.2-3h5&#10;&#9;c0.4,1.7,2,3,3.9,3c2.2,0,4-1.8,4-4C24,16.1,22.7,14.6,21,14.1z M12.7,10H7V4h4.2L12.7,10z M6,20c-2.2,0-4-1.8-4-4s1.8-4,4-4&#10;&#9;s4,1.8,4,4S8.2,20,6,20z M20,20c-1.1,0-2-0.9-2-2c0-1.1,0.9-2,2-2c0,0,0,0,0,0s0,0,0,0c1.1,0,2,0.9,2,2C22,19.1,21.1,20,20,20z"/>
</g></svg>