<svg id="nc_icon" xmlns="http://www.w3.org/2000/svg" xmlns:xlink="http://www.w3.org/1999/xlink" x="0px" y="0px" viewBox="0 0 24 24"><g >
<path data-color="color-2" fill="currentColor" d="M14,20h-4c-0.6,0-1,0.4-1,1v2c0,0.6,0.4,1,1,1h4c0.6,0,1-0.4,1-1v-2C15,20.4,14.6,20,14,20z"/>
<path fill="currentColor" d="M12.1,0C12.1,0,12.1,0,12.1,0C12,0,12,0,12.1,0C12,0,12,0,12,0c0,0,0,0,0,0C7.6,0,4,3.6,4,8&#10;&#9;c0,3,3.7,8.9,4.2,9.5C8.3,17.8,8.7,18,9,18h1c0,0,0,0,0,0c0,0,0,0,0,0h5c0.3,0,0.7-0.2,0.8-0.5C16.3,16.9,20,11,20,8&#10;&#9;C20,3.6,16.4,0,12.1,0z M18,8c0,1.2-1,3.4-2,5.3c0.6-3.1,0.9-7.3-0.6-10.3C17,4.1,18,5.9,18,8z M13,16V3c2.8,3.4,0.9,10.7,0.3,13H13&#10;&#9;z M10.7,16c-1-3.3-2.2-9.8,0.3-12.9V16H10.7z M8.6,3.1c-1.5,3-1.2,7.2-0.6,10.3C7,11.4,6,9.2,6,8C6,5.9,7,4.1,8.6,3.1z"/>
</g></svg>