<svg id="nc_icon" xmlns="http://www.w3.org/2000/svg" xmlns:xlink="http://www.w3.org/1999/xlink" x="0px" y="0px" viewBox="0 0 24 24"><g >
<path fill="currentColor" d="M11,3h2c0.6,0,1-0.4,1-1V1c0-0.6-0.4-1-1-1h-2c-0.6,0-1,0.4-1,1v1C10,2.6,10.4,3,11,3z"/>
<path data-color="color-2" fill="currentColor" d="M23,18.1c-0.6,0-1,0.4-1,1c0,1.7-1.3,3-3,3c-1.1,0-2.1-0.6-2.6-1.6c-0.4-0.6-1.4-0.6-1.8,0&#10;&#9;c-0.5,1-1.5,1.6-2.6,1.6s-2.1-0.6-2.6-1.6c-0.4-0.6-1.4-0.6-1.8,0c-0.5,1-1.5,1.6-2.6,1.6c-1.7,0-3-1.3-3-3c0-0.6-0.4-1-1-1&#10;&#9;s-1,0.4-1,1c0,2.8,2.2,5,5,5c1.3,0,2.6-0.5,3.5-1.5c0.9,0.9,2.2,1.5,3.5,1.5s2.6-0.5,3.5-1.5c0.9,0.9,2.2,1.5,3.5,1.5&#10;&#9;c2.8,0,5-2.2,5-5C24,18.5,23.6,18.1,23,18.1z"/>
<path fill="currentColor" d="M4.1,19.4c0.2,0.5,0.8,0.7,1.3,0.4c0.5-0.2,0.7-0.8,0.4-1.3l-1.6-3.1l7.7-4.3l7.7,4.3l-1.6,3.1&#10;&#9;c-0.2,0.5,0,1.1,0.4,1.3C18.7,20,18.8,20,19,20c0.4,0,0.7-0.2,0.9-0.6l2-4c0.2-0.5,0.1-1.1-0.4-1.3L20,13.3V6c0-0.6-0.4-1-1-1H5&#10;&#9;C4.4,5,4,5.4,4,6v7.3l-1.5,0.8C2,14.4,1.9,15,2.1,15.4L4.1,19.4z"/>
</g></svg>