<svg id="nc_icon" xmlns="http://www.w3.org/2000/svg" xmlns:xlink="http://www.w3.org/1999/xlink" x="0px" y="0px" viewBox="0 0 24 24"><g >
<path fill="currentColor" d="M18,1H6C4.3,1,3,2.3,3,4v15c0,0.6,0.4,1,1,1v2c0,0.6,0.4,1,1,1h3c0.6,0,1-0.4,1-1v-2h6v2c0,0.6,0.4,1,1,1h3&#10;&#9;c0.6,0,1-0.4,1-1v-2c0.6,0,1-0.4,1-1V4C21,2.3,19.7,1,18,1z M9,17H7c-0.6,0-1-0.4-1-1s0.4-1,1-1h2c0.6,0,1,0.4,1,1S9.6,17,9,17z&#10;&#9; M17,17h-2c-0.6,0-1-0.4-1-1s0.4-1,1-1h2c0.6,0,1,0.4,1,1S17.6,17,17,17z M19,12H5V6h14V12z"/>
<path data-color="color-2" fill="currentColor" d="M1,8C0.4,8,0,8.4,0,9v3c0,0.6,0.4,1,1,1s1-0.4,1-1V9C2,8.4,1.6,8,1,8z"/>
<path data-color="color-2" fill="currentColor" d="M23,8c-0.6,0-1,0.4-1,1v3c0,0.6,0.4,1,1,1s1-0.4,1-1V9C24,8.4,23.6,8,23,8z"/>
</g></svg>