<svg id="nc_icon" xmlns="http://www.w3.org/2000/svg" xmlns:xlink="http://www.w3.org/1999/xlink" x="0px" y="0px" viewBox="0 0 24 24"><g >
<path fill="currentColor" d="M18.9,10L18,4.8C17.9,4.3,17.5,4,17,4h-4c-0.6,0-1,0.4-1,1s0.4,1,1,1h3.2l0.4,2H7C6.6,8,6.2,8.3,6,8.7&#10;&#9;L5.7,10c-0.1,0-0.1,0-0.2,0c-3,0-5.5,2.5-5.5,5.5S2.5,21,5.5,21s5.5-2.5,5.5-5.5c0-2.3-1.4-4.2-3.4-5.1L7.8,10h9.1l0,0.2&#10;&#9;C14.7,10.9,13,13,13,15.5c0,3,2.5,5.5,5.5,5.5s5.5-2.5,5.5-5.5C24,12.6,21.8,10.2,18.9,10z M9,15.5C9,17.4,7.4,19,5.5,19&#10;&#9;S2,17.4,2,15.5c0-1.8,1.4-3.3,3.1-3.5L4,15.7c-0.2,0.5,0.2,1.1,0.7,1.2c0.1,0,0.2,0,0.3,0c0.4,0,0.8-0.3,1-0.7l1.1-3.9&#10;&#9;C8.2,13,9,14.1,9,15.5z M18.5,19c-1.9,0-3.5-1.6-3.5-3.5c0-1.5,1-2.8,2.3-3.3l0.7,4c0.1,0.5,0.5,0.8,1,0.8c0.1,0,0.1,0,0.2,0&#10;&#9;c0.5-0.1,0.9-0.6,0.8-1.2l-0.7-3.7c1.5,0.4,2.7,1.7,2.7,3.4C22,17.4,20.4,19,18.5,19z"/>
<path data-color="color-2" fill="currentColor" d="M5,7h4c0.6,0,1-0.4,1-1S9.6,5,9,5H5C4.4,5,4,5.4,4,6S4.4,7,5,7z"/>
</g></svg>