<svg id="nc_icon" xmlns="http://www.w3.org/2000/svg" xmlns:xlink="http://www.w3.org/1999/xlink" x="0px" y="0px" viewBox="0 0 24 24"><g >
<path fill="currentColor" d="M22.7,12.3l-1.8-1.8L20,4.8C19.9,4.4,19.5,4,19,4h-3V2c0-0.6-0.4-1-1-1H9C8.4,1,8,1.4,8,2v2H5&#10;&#9;C4.5,4,4.1,4.4,4,4.8l-0.9,5.7l-1.8,1.8C1.1,12.5,1,12.7,1,13v6c0,0.6,0.4,1,1,1h1v2c0,0.6,0.4,1,1,1h3c0.6,0,1-0.4,1-1v-2h8v2&#10;&#9;c0,0.6,0.4,1,1,1h3c0.6,0,1-0.4,1-1v-2h1c0.6,0,1-0.4,1-1v-6C23,12.7,22.9,12.5,22.7,12.3z M5.8,6h12.3l0.7,4H5.2L5.8,6z M8,16H6&#10;&#9;c-0.6,0-1-0.4-1-1s0.4-1,1-1h2c0.6,0,1,0.4,1,1S8.6,16,8,16z M18,16h-2c-0.6,0-1-0.4-1-1s0.4-1,1-1h2c0.6,0,1,0.4,1,1S18.6,16,18,16&#10;&#9;z"/>
</g></svg>