<svg id="nc_icon" xmlns="http://www.w3.org/2000/svg" xmlns:xlink="http://www.w3.org/1999/xlink" x="0px" y="0px" viewBox="0 0 24 24"><g >
<path data-color="color-2" fill="currentColor" d="M4,2h16c0.6,0,1-0.4,1-1s-0.4-1-1-1H4C3.4,0,3,0.4,3,1S3.4,2,4,2z"/>
<path data-color="color-2" fill="currentColor" d="M1,12c-0.6,0-1-0.4-1-1V9c0-0.6,0.4-1,1-1s1,0.4,1,1v2C2,11.6,1.6,12,1,12z"/>
<path data-color="color-2" fill="currentColor" d="M23,12c-0.6,0-1-0.4-1-1V9c0-0.6,0.4-1,1-1s1,0.4,1,1v2C24,11.6,23.6,12,23,12z"/>
<path fill="currentColor" d="M21.9,13.6L21,11.8V5c0-0.6-0.4-1-1-1H4C3.4,4,3,4.4,3,5v6.8l-0.9,1.8C2,13.7,2,13.8,2,14v6c0,0.6,0.4,1,1,1&#10;&#9;h1v2c0,0.6,0.4,1,1,1h3c0.6,0,1-0.4,1-1v-2h6v2c0,0.6,0.4,1,1,1h3c0.6,0,1-0.4,1-1v-2h1c0.6,0,1-0.4,1-1v-6&#10;&#9;C22,13.8,22,13.7,21.9,13.6z M8,18H6c-0.6,0-1-0.4-1-1s0.4-1,1-1h2c0.6,0,1,0.4,1,1S8.6,18,8,18z M7,12c-0.6,0-1-0.4-1-1V8&#10;&#9;c0-0.6,0.4-1,1-1h10c0.6,0,1,0.4,1,1v3c0,0.6-0.4,1-1,1H7z M18,18h-2c-0.6,0-1-0.4-1-1s0.4-1,1-1h2c0.6,0,1,0.4,1,1S18.6,18,18,18z"/>
</g></svg>