<svg id="nc_icon" xmlns="http://www.w3.org/2000/svg" xmlns:xlink="http://www.w3.org/1999/xlink" x="0px" y="0px" viewBox="0 0 24 24"><g >
<path fill="currentColor" d="M21,3H3C1.3,3,0,4.3,0,6v11c0,0.6,0.4,1,1,1h1.1c0.2,1.7,1.7,3,3.4,3s3.2-1.3,3.4-3h6.1c0.2,1.7,1.7,3,3.4,3&#10;&#9;s3.2-1.3,3.4-3H23c0.6,0,1-0.4,1-1V6C24,4.3,22.7,3,21,3z M5.5,19C4.7,19,4,18.3,4,17.5S4.7,16,5.5,16S7,16.7,7,17.5S6.3,19,5.5,19z&#10;&#9; M14,11c0,0.6-0.4,1-1,1H4c-0.6,0-1-0.4-1-1V7c0-0.6,0.4-1,1-1h9c0.6,0,1,0.4,1,1V11z M18.5,19c-0.8,0-1.5-0.7-1.5-1.5&#10;&#9;s0.7-1.5,1.5-1.5s1.5,0.7,1.5,1.5S19.3,19,18.5,19z M21,11c0,0.6-0.4,1-1,1h-3c-0.6,0-1-0.4-1-1V7c0-0.6,0.4-1,1-1h3&#10;&#9;c0.6,0,1,0.4,1,1V11z"/>
</g></svg>