<svg id="nc_icon" xmlns="http://www.w3.org/2000/svg" xmlns:xlink="http://www.w3.org/1999/xlink" x="0px" y="0px" viewBox="0 0 24 24"><g >
<path data-color="color-2" fill="currentColor" d="M1,10c-0.6,0-1,0.4-1,1v3c0,0.6,0.4,1,1,1s1-0.4,1-1v-3C2,10.4,1.6,10,1,10z"/>
<path data-color="color-2" fill="currentColor" d="M23,10c-0.6,0-1,0.4-1,1v3c0,0.6,0.4,1,1,1s1-0.4,1-1v-3C24,10.4,23.6,10,23,10z"/>
<path fill="currentColor" d="M18,5h-2.4l1-2H18c0.6,0,1-0.4,1-1s-0.4-1-1-1H6C5.4,1,5,1.4,5,2s0.4,1,1,1h1.4l1,2H6C4.3,5,3,6.3,3,8v14&#10;&#9;c0,0.6,0.4,1,1,1h16c0.6,0,1-0.4,1-1V8C21,6.3,19.7,5,18,5z M14.4,3l-1,2h-2.8l-1-2H14.4z M9,20H7c-0.6,0-1-0.4-1-1s0.4-1,1-1h2&#10;&#9;c0.6,0,1,0.4,1,1S9.6,20,9,20z M17,20h-2c-0.6,0-1-0.4-1-1s0.4-1,1-1h2c0.6,0,1,0.4,1,1S17.6,20,17,20z M18,14c0,0.6-0.4,1-1,1H7&#10;&#9;c-0.6,0-1-0.4-1-1V9c0-0.6,0.4-1,1-1h10c0.6,0,1,0.4,1,1V14z"/>
</g></svg>