<svg id="nc_icon" xmlns="http://www.w3.org/2000/svg" xmlns:xlink="http://www.w3.org/1999/xlink" x="0px" y="0px" viewBox="0 0 24 24"><g >
<path fill="currentColor" d="M24,12c0-3.9-3.1-7-7-7V3h6c0.6,0,1-0.4,1-1s-0.4-1-1-1H9C8.4,1,8,1.4,8,2s0.4,1,1,1h6v2H6.7L5.9,2.7&#10;&#9;C5.8,2.3,5.4,2,5,2H2C1.7,2,1.4,2.1,1.2,2.4C1,2.6,1,2.9,1,3.2l0.7,4.3C2,8.9,3.2,10,4.7,10H8v2c0,3.3,2.3,6.1,5.5,6.8L12.4,21H9&#10;&#9;c-0.6,0-1,0.4-1,1s0.4,1,1,1h12c1.7,0,3-1.3,3-3c0-0.6-0.4-1-1-1s-1,0.4-1,1c0,0.6-0.4,1-1,1h-0.4l-1.2-2.4C22.1,17.6,24,15,24,12z&#10;&#9; M14.6,21l1-2H17c0.1,0,0.2,0,0.4,0l1,2H14.6z M20,13h-5c-0.6,0-1-0.4-1-1V9c0-0.6,0.4-1,1-1s1,0.4,1,1v2h4c0.6,0,1,0.4,1,1&#10;&#9;S20.6,13,20,13z"/>
</g></svg>