<svg id="nc_icon" xmlns="http://www.w3.org/2000/svg" xmlns:xlink="http://www.w3.org/1999/xlink" x="0px" y="0px" viewBox="0 0 24 24"><g >
<polygon fill="currentColor" points="23,18 23,14 1,14 1,18 5,18 5,16 7,16 7,18 9,18 9,16 11,16 11,18 13,18 13,16 15,16 15,18 17,18 &#10;&#9;17,16 19,16 19,18 "/>
<polygon fill="currentColor" points="1,8 1,12 5,12 5,10 7,10 7,12 9,12 9,10 11,10 11,12 13,12 13,10 15,10 15,12 17,12 17,10 19,10 &#10;&#9;19,12 23,12 23,8 "/>
<path fill="currentColor" d="M5,6V4h2v2h2V4h2v2h5.5l-3.7-5.6C12.6,0.2,12.3,0,12,0H4C2.3,0,1,1.3,1,3v3H5z"/>
<path data-color="color-2" fill="currentColor" d="M0,20v3c0,0.6,0.4,1,1,1h22c0.6,0,1-0.4,1-1v-3H0z"/>
</g></svg>