<svg id="nc_icon" xmlns="http://www.w3.org/2000/svg" xmlns:xlink="http://www.w3.org/1999/xlink" x="0px" y="0px" viewBox="0 0 24 24"><g >
<path fill="currentColor" d="M5,0H1C0.447,0,0,0.447,0,1v4c0,0.553,0.447,1,1,1h4c0.553,0,1-0.447,1-1V1C6,0.447,5.553,0,5,0z"/>
<path fill="currentColor" d="M5,9H1c-0.553,0-1,0.447-1,1v4c0,0.553,0.447,1,1,1h4c0.553,0,1-0.447,1-1v-4C6,9.447,5.553,9,5,9z"/>
<path data-color="color-2" fill="currentColor" d="M5,18H1c-0.553,0-1,0.447-1,1v4c0,0.553,0.447,1,1,1h4c0.553,0,1-0.447,1-1v-4&#10;&#9;C6,18.447,5.553,18,5,18z"/>
<path fill="currentColor" d="M14,0h-4C9.447,0,9,0.447,9,1v4c0,0.553,0.447,1,1,1h4c0.553,0,1-0.447,1-1V1C15,0.447,14.553,0,14,0z"/>
<path data-color="color-2" fill="currentColor" d="M14,9h-4c-0.553,0-1,0.447-1,1v4c0,0.553,0.447,1,1,1h4c0.553,0,1-0.447,1-1v-4&#10;&#9;C15,9.447,14.553,9,14,9z"/>
<path fill="currentColor" d="M14,18h-4c-0.553,0-1,0.447-1,1v4c0,0.553,0.447,1,1,1h4c0.553,0,1-0.447,1-1v-4C15,18.447,14.553,18,14,18z&#10;&#9;"/>
<path data-color="color-2" fill="currentColor" d="M23,0h-4c-0.553,0-1,0.447-1,1v4c0,0.553,0.447,1,1,1h4c0.553,0,1-0.447,1-1V1&#10;&#9;C24,0.447,23.553,0,23,0z"/>
<path fill="currentColor" d="M23,9h-4c-0.553,0-1,0.447-1,1v4c0,0.553,0.447,1,1,1h4c0.553,0,1-0.447,1-1v-4C24,9.447,23.553,9,23,9z"/>
<path fill="currentColor" d="M23,18h-4c-0.553,0-1,0.447-1,1v4c0,0.553,0.447,1,1,1h4c0.553,0,1-0.447,1-1v-4C24,18.447,23.553,18,23,18z&#10;&#9;"/>
</g></svg>