<svg id="nc_icon" xmlns="http://www.w3.org/2000/svg" xmlns:xlink="http://www.w3.org/1999/xlink" x="0px" y="0px" viewBox="0 0 24 24"><g >
<path fill="currentColor" d="M18,14.414L16.586,13l4-4L15,3.414l-4,4L9.586,6l4.707-4.707c0.391-0.391,1.023-0.391,1.414,0l7,7&#10;&#9;c0.391,0.391,0.391,1.023,0,1.414L18,14.414z"/>
<path fill="currentColor" d="M9,23c-0.256,0-0.512-0.098-0.707-0.293l-7-7c-0.391-0.391-0.391-1.023,0-1.414L6,9.586L7.414,11l-4,4&#10;&#9;L9,20.586l4-4L14.414,18l-4.707,4.707C9.512,22.902,9.256,23,9,23z"/>
<rect data-color="color-2" x="6.757" y="11" transform="matrix(0.7071 -0.7071 0.7071 0.7071 -4.9706 12)" fill="currentColor" width="10.485" height="2"/>
</g></svg>