<svg id="nc_icon" xmlns="http://www.w3.org/2000/svg" xmlns:xlink="http://www.w3.org/1999/xlink" x="0px" y="0px" viewBox="0 0 24 24"><g >
<path fill="currentColor" d="M9,13.586L4.285,18.3C3.894,18.113,3.462,18,3,18c-1.654,0-3,1.346-3,3s1.346,3,3,3s3-1.346,3-3&#10;&#9;c0-0.462-0.114-0.894-0.301-1.286L10.414,15L9,13.586z"/>
<path fill="currentColor" d="M3,1H2v2h1c9.925,0,18,8.075,18,18v1h2v-1C23,9.972,14.028,1,3,1z"/>
<rect data-color="color-2" x="2" y="5" fill="currentColor" width="2" height="4"/>
<rect data-color="color-2" x="10.9" y="10.101" transform="matrix(0.7071 -0.7071 0.7071 0.7071 -4.0711 12.3725)" fill="currentColor" width="4" height="2"/>
<rect data-color="color-2" x="15" y="20" fill="currentColor" width="4" height="2"/>
</g></svg>