<svg id="nc_icon" xmlns="http://www.w3.org/2000/svg" xmlns:xlink="http://www.w3.org/1999/xlink" x="0px" y="0px" viewBox="0 0 24 24"><g >
<path fill="currentColor" d="M23,3H11v2h12c0.552,0,1-0.448,1-1S23.552,3,23,3z"/>
<path fill="currentColor" d="M1,5h2v2c0,0.552,0.448,1,1,1h4c0.552,0,1-0.448,1-1V1c0-0.552-0.448-1-1-1H4C3.448,0,3,0.448,3,1v2H1&#10;&#9;C0.448,3,0,3.448,0,4S0.448,5,1,5z"/>
<path data-color="color-2" fill="currentColor" d="M23,11h-2v2h2c0.552,0,1-0.448,1-1S23.552,11,23,11z"/>
<path data-color="color-2" fill="currentColor" d="M1,13h12v2c0,0.552,0.448,1,1,1h4c0.552,0,1-0.448,1-1V9c0-0.552-0.448-1-1-1h-4&#10;&#9;c-0.552,0-1,0.448-1,1v2H1c-0.552,0-1,0.448-1,1S0.448,13,1,13z"/>
<path fill="currentColor" d="M23,19H11v2h12c0.552,0,1-0.448,1-1S23.552,19,23,19z"/>
<path fill="currentColor" d="M8,16H4c-0.552,0-1,0.448-1,1v2H1c-0.552,0-1,0.448-1,1s0.448,1,1,1h2v2c0,0.552,0.448,1,1,1h4&#10;&#9;c0.552,0,1-0.448,1-1v-6C9,16.448,8.552,16,8,16z"/>
</g></svg>