<svg id="nc_icon" xmlns="http://www.w3.org/2000/svg" xmlns:xlink="http://www.w3.org/1999/xlink" x="0px" y="0px" viewBox="0 0 24 24"><g >
<path fill="currentColor" d="M11.864,16.378c-0.074,0.9-0.437,1.781-1.124,2.468l-2,2c-1.541,1.539-4.045,1.539-5.586,0&#10;&#9;c-1.54-1.54-1.54-4.046,0-5.586l2-2c0.688-0.687,1.568-1.05,2.468-1.124l1.816-1.816c-1.974-0.51-4.155-0.017-5.698,1.527l-2,2&#10;&#9;c-2.32,2.319-2.32,6.095,0,8.414C2.9,23.42,4.424,24,5.947,24s3.047-0.58,4.207-1.74l2-2c1.543-1.543,2.036-3.724,1.527-5.698&#10;&#9;L11.864,16.378z"/>
<path fill="currentColor" d="M16.378,11.864c0.9-0.074,1.781-0.437,2.468-1.124l2-2c1.539-1.541,1.539-4.045,0-5.586&#10;&#9;c-1.54-1.54-4.046-1.54-5.586,0l-2,2c-0.687,0.688-1.05,1.568-1.124,2.468l-1.816,1.816c-0.51-1.974-0.017-4.155,1.527-5.698l2-2&#10;&#9;c2.319-2.32,6.095-2.32,8.414,0C23.42,2.9,24,4.424,24,5.947s-0.58,3.047-1.74,4.207l-2,2c-1.543,1.543-3.724,2.036-5.698,1.527&#10;&#9;L16.378,11.864z"/>
<rect data-color="color-2" x="6.757" y="11" transform="matrix(0.7071 -0.7071 0.7071 0.7071 -4.9706 12)" fill="currentColor" width="10.485" height="2"/>
</g></svg>