<svg id="nc_icon" xmlns="http://www.w3.org/2000/svg" xmlns:xlink="http://www.w3.org/1999/xlink" x="0px" y="0px" viewBox="0 0 24 24"><g >
<path fill="currentColor" d="M10,0H1C0.4,0,0,0.4,0,1v9c0,0.6,0.4,1,1,1h9c0.6,0,1-0.4,1-1V1C11,0.4,10.6,0,10,0z"/>
<path fill="currentColor" d="M10,13H1c-0.6,0-1,0.4-1,1v9c0,0.6,0.4,1,1,1h9c0.6,0,1-0.4,1-1v-9C11,13.4,10.6,13,10,13z"/>
<rect data-color="color-2" x="13" y="2" fill="currentColor" width="11" height="2"/>
<rect data-color="color-2" x="13" y="7" fill="currentColor" width="11" height="2"/>
<rect data-color="color-2" x="13" y="15" fill="currentColor" width="11" height="2"/>
<rect data-color="color-2" x="13" y="20" fill="currentColor" width="11" height="2"/>
</g></svg>