<svg id="nc_icon" xmlns="http://www.w3.org/2000/svg" xmlns:xlink="http://www.w3.org/1999/xlink" x="0px" y="0px" viewBox="0 0 24 24"><g >
<path fill="currentColor" d="M19,7c-2.691,0-5.185,1.895-7,3.605C10.185,8.895,7.691,7,5,7c-2.757,0-5,2.243-5,5s2.243,5,5,5&#10;&#9;c2.691,0,5.185-1.895,7-3.605C13.815,15.105,16.309,17,19,17c2.757,0,5-2.243,5-5S21.757,7,19,7z M5,15c-1.654,0-3-1.346-3-3&#10;&#9;s1.346-3,3-3c1.567,0,3.392,0.983,5.561,3C8.392,14.017,6.567,15,5,15z M19,15c-1.567,0-3.392-0.983-5.561-3&#10;&#9;C15.608,9.983,17.433,9,19,9c1.654,0,3,1.346,3,3S20.654,15,19,15z"/>
</g></svg>