<svg id="nc_icon" xmlns="http://www.w3.org/2000/svg" xmlns:xlink="http://www.w3.org/1999/xlink" x="0px" y="0px" viewBox="0 0 24 24"><g >
<path data-color="color-2" fill="currentColor" d="M17,2c-0.905,0-1.73,0.312-2.4,0.818C15.475,3.986,16,5.431,16,7v1&#10;&#9;c0,0.953-0.193,1.862-0.54,2.691C15.935,10.889,16.454,11,17,11c2.209,0,4-1.791,4-4V6C21,3.791,19.209,2,17,2z"/>
<path fill="currentColor" d="M9,13L9,13c-2.761,0-5-2.239-5-5V7c0-2.761,2.239-5,5-5h0c2.761,0,5,2.239,5,5v1C14,10.761,11.761,13,9,13z"/>
<path data-color="color-2" fill="currentColor" d="M22.839,14.405C21.555,13.815,19.354,13,17,13c-1.195,0-2.35,0.211-3.367,0.495&#10;&#9;c0.376,0.078,0.753,0.157,1.13,0.253c2.911,0.742,4.97,3.275,5.192,6.252H23c0.552,0,1-0.448,1-1v-2.779&#10;&#9;C24,15.439,23.55,14.731,22.839,14.405z"/>
<path fill="currentColor" d="M17,22H1c-0.552,0-1-0.448-1-1v-0.475c0-2.275,1.527-4.277,3.731-4.839C5.205,15.31,7.021,15,9,15&#10;&#9;s3.795,0.31,5.269,0.686C16.473,16.248,18,18.25,18,20.525V21C18,21.552,17.552,22,17,22z"/>
</g></svg>