<svg id="nc_icon" xmlns="http://www.w3.org/2000/svg" xmlns:xlink="http://www.w3.org/1999/xlink" x="0px" y="0px" viewBox="0 0 24 24"><g >
<rect data-color="color-2" x="21" y="4" fill="currentColor" width="3" height="5"/>
<rect data-color="color-2" x="21" y="11" fill="currentColor" width="3" height="5"/>
<path fill="currentColor" d="M17,0H1v24h16c1.654,0,3-1.346,3-3V3C20,1.346,18.654,0,17,0z M10.5,6C11.881,6,13,7.119,13,8.5&#10;&#9;c0,1.381-1.119,2.5-2.5,2.5S8,9.881,8,8.5C8,7.119,9.119,6,10.5,6z M15,17H6v-1.621c0-0.891,0.585-1.67,1.44-1.922&#10;&#9;C8.235,13.222,9.303,13,10.5,13s2.265,0.222,3.06,0.457c0.855,0.252,1.44,1.031,1.44,1.922V17z"/>
</g></svg>