<svg id="nc_icon" xmlns="http://www.w3.org/2000/svg" xmlns:xlink="http://www.w3.org/1999/xlink" x="0px" y="0px" viewBox="0 0 24 24"><g >
<circle data-color="color-2" fill="currentColor" cx="12" cy="2" r="2"/>
<circle data-color="color-2" fill="currentColor" cx="22" cy="8" r="2"/>
<circle data-color="color-2" fill="currentColor" cx="2" cy="8" r="2"/>
<path fill="currentColor" d="M19,24H5v-2.323c0-1.211,0.721-2.306,1.84-2.769C7.969,18.44,9.654,18,12,18s4.031,0.44,5.16,0.908&#10;&#9;c1.119,0.463,1.84,1.558,1.84,2.769V24z"/>
<path fill="currentColor" d="M8,12c0-2.209,1.791-4,4-4s4,1.791,4,4s-1.791,5-4,5S8,14.209,8,12z"/>
</g></svg>