<svg id="nc_icon" xmlns="http://www.w3.org/2000/svg" xmlns:xlink="http://www.w3.org/1999/xlink" x="0px" y="0px" viewBox="0 0 24 24"><g >
<path fill="currentColor" d="M12,14c3.309,0,6-2.691,6-6V6c0-3.309-2.691-6-6-6S6,2.691,6,6v2C6,11.309,8.691,14,12,14z"/>
<path fill="currentColor" d="M21,20c-2.419,0-4.436-1.718-4.899-4H7c-3.859,0-7,3.14-7,7v1h24v-1c0-1.26-0.339-2.44-0.925-3.463&#10;&#9;C22.442,19.828,21.743,20,21,20z"/>
<rect data-color="color-2" x="18" y="14" fill="currentColor" width="6" height="2"/>
</g></svg>