<svg id="nc_icon" xmlns="http://www.w3.org/2000/svg" xmlns:xlink="http://www.w3.org/1999/xlink" x="0px" y="0px" viewBox="0 0 24 24"><g >
<path fill="currentColor" d="M19.2,11.1c0.3-0.7,1-1.1,1.8-1.1c0.6,0,1-0.4,1-1s-0.4-1-1-1c-1.9,0-3.5,1.3-3.9,3.1&#10;&#9;c-0.6,0.1-1.3,0.3-1.8,0.6c-0.1-0.1-0.1-0.3-0.2-0.4C15.4,8.3,18,6,21,6c0.6,0,1-0.4,1-1s-0.4-1-1-1c-3.4,0-6.4,2.2-7.5,5.2&#10;&#9;C13,8.7,12.4,8.3,11.8,8C13.4,4.4,17,2,21,2c0.6,0,1-0.4,1-1s-0.4-1-1-1c-4.8,0-9.2,2.9-11,7.3C9.3,7.1,8.7,7,8,7c-4.4,0-8,3.6-8,8&#10;&#9;s3.6,8,8,8h10c3.3,0,6-2.7,6-6C24,14.1,21.9,11.7,19.2,11.1z"/>
</g></svg>