<svg id="nc_icon" xmlns="http://www.w3.org/2000/svg" xmlns:xlink="http://www.w3.org/1999/xlink" x="0px" y="0px" viewBox="0 0 24 24"><g >
<path data-color="color-2" fill="currentColor" d="M1,13h1c0.6,0,1-0.4,1-1s-0.4-1-1-1H1c-0.6,0-1,0.4-1,1S0.4,13,1,13z"/>
<path data-color="color-2" fill="currentColor" d="M4.2,5.6c0.2,0.2,0.5,0.3,0.7,0.3s0.5-0.1,0.7-0.3c0.4-0.4,0.4-1,0-1.4L4.9,3.5c-0.4-0.4-1-0.4-1.4,0&#10;&#9;c-0.4,0.4-0.4,1,0,1.4L4.2,5.6z"/>
<path data-color="color-2" fill="currentColor" d="M12,3c0.6,0,1-0.4,1-1V1c0-0.6-0.4-1-1-1s-1,0.4-1,1v1C11,2.6,11.4,3,12,3z"/>
<path data-color="color-2" fill="currentColor" d="M19.1,5.9c0.3,0,0.5-0.1,0.7-0.3l0.7-0.7c0.4-0.4,0.4-1,0-1.4c-0.4-0.4-1-0.4-1.4,0l-0.7,0.7&#10;&#9;c-0.4,0.4-0.4,1,0,1.4C18.6,5.8,18.8,5.9,19.1,5.9z"/>
<path data-color="color-2" fill="currentColor" d="M22,13h1c0.6,0,1-0.4,1-1s-0.4-1-1-1h-1c-0.6,0-1,0.4-1,1S21.4,13,22,13z"/>
<path fill="currentColor" d="M19,14c-0.1,0-0.2,0-0.3,0c0.2-0.7,0.3-1.3,0.3-2c0-3.9-3.1-7-7-7s-7,3.1-7,7c0,0.7,0.1,1.4,0.3,2&#10;&#9;c-0.1,0-0.2,0-0.3,0c-2.8,0-5,2.2-5,5s2.2,5,5,5h14c2.8,0,5-2.2,5-5S21.8,14,19,14z M12,7c2.8,0,5,2.2,5,5c0,0.6-0.1,1.1-0.3,1.6&#10;&#9;C15.5,12,13.6,11,11.5,11c-1.7,0-3.3,0.7-4.4,1.8C7,12.5,7,12.3,7,12C7,9.2,9.2,7,12,7z"/>
</g></svg>