<svg id="nc_icon" xmlns="http://www.w3.org/2000/svg" xmlns:xlink="http://www.w3.org/1999/xlink" x="0px" y="0px" viewBox="0 0 24 24"><g >
<path fill="currentColor" d="M1,14h1c0.6,0,1-0.4,1-1s-0.4-1-1-1H1c-0.6,0-1,0.4-1,1S0.4,14,1,14z"/>
<path fill="currentColor" d="M4.2,6.6c0.2,0.2,0.5,0.3,0.7,0.3s0.5-0.1,0.7-0.3c0.4-0.4,0.4-1,0-1.4L4.9,4.5c-0.4-0.4-1-0.4-1.4,0&#10;&#9;s-0.4,1,0,1.4L4.2,6.6z"/>
<path fill="currentColor" d="M12,4c0.6,0,1-0.4,1-1V2c0-0.6-0.4-1-1-1s-1,0.4-1,1v1C11,3.6,11.4,4,12,4z"/>
<path fill="currentColor" d="M19.1,6.9c0.3,0,0.5-0.1,0.7-0.3l0.7-0.7c0.4-0.4,0.4-1,0-1.4s-1-0.4-1.4,0l-0.7,0.7c-0.4,0.4-0.4,1,0,1.4&#10;&#9;C18.6,6.8,18.8,6.9,19.1,6.9z"/>
<path fill="currentColor" d="M23,12h-1c-0.6,0-1,0.4-1,1s0.4,1,1,1h1c0.6,0,1-0.4,1-1S23.6,12,23,12z"/>
<path fill="currentColor" d="M6,14h12c0,0,0,0,0,0c0.6,0,1-0.4,1-1c0-0.1,0-0.1,0-0.2C18.9,9,15.8,6,12,6c-3.9,0-7,3.1-7,7&#10;&#9;C5,13.6,5.4,14,6,14z"/>
<path data-color="color-2" fill="currentColor" d="M23,16H1c-0.6,0-1,0.4-1,1s0.4,1,1,1h22c0.6,0,1-0.4,1-1S23.6,16,23,16z"/>
<path data-color="color-2" fill="currentColor" d="M20,20H4c-0.6,0-1,0.4-1,1s0.4,1,1,1h16c0.6,0,1-0.4,1-1S20.6,20,20,20z"/>
</g></svg>