<svg id="nc_icon" xmlns="http://www.w3.org/2000/svg" xmlns:xlink="http://www.w3.org/1999/xlink" x="0px" y="0px" viewBox="0 0 24 24"><g >
<path data-color="color-2" fill="currentColor" d="M11,23c-0.2,0-0.4,0-0.5-0.1c-0.5-0.3-0.6-0.9-0.3-1.4l2.1-3.5H10c-0.4,0-0.7-0.2-0.9-0.5&#10;&#9;c-0.2-0.3-0.2-0.7,0-1l3-5c0.3-0.5,0.9-0.6,1.4-0.3c0.5,0.3,0.6,0.9,0.3,1.4L11.8,16H14c0.4,0,0.7,0.2,0.9,0.5c0.2,0.3,0.2,0.7,0,1&#10;&#9;l-3,5C11.7,22.8,11.3,23,11,23z"/>
<path fill="currentColor" d="M19.9,7.1C19.2,3,15.7,0,11.5,0C7.3,0,3.6,3.2,3.1,7.4C1.3,8.1,0,9.9,0,12c0,2.8,2.2,5,5,5h2&#10;&#9;c0-0.5,0.1-1.1,0.4-1.5l3-5C11,9.6,12,9,13,9c0.5,0,1.1,0.1,1.5,0.4c1.4,0.9,1.9,2.7,1,4.1l-0.4,0.7c0.6,0.3,1.1,0.7,1.5,1.3&#10;&#9;c0.3,0.5,0.4,1,0.4,1.5h2c2.8,0,5-2.2,5-5C24,9.5,22.2,7.5,19.9,7.1z"/>
</g></svg>