<svg id="nc_icon" xmlns="http://www.w3.org/2000/svg" xmlns:xlink="http://www.w3.org/1999/xlink" x="0px" y="0px" viewBox="0 0 24 24"><g >
<path fill="currentColor" d="M19.9,7.1C19.2,3,15.7,0,11.5,0C7.3,0,3.6,3.2,3.1,7.4C1.3,8.1,0,9.9,0,12c0,2.8,2.2,5,5,5h14&#10;&#9;c2.8,0,5-2.2,5-5C24,9.5,22.2,7.5,19.9,7.1z"/>
<path data-color="color-2" fill="currentColor" d="M12,21c-0.6,0-1,0.4-1,1v1c0,0.6,0.4,1,1,1s1-0.4,1-1v-1C13,21.4,12.6,21,12,21z"/>
<path data-color="color-2" fill="currentColor" d="M8,19c-0.6,0-1,0.4-1,1v1c0,0.6,0.4,1,1,1s1-0.4,1-1v-1C9,19.4,8.6,19,8,19z"/>
<path data-color="color-2" fill="currentColor" d="M16,19c-0.6,0-1,0.4-1,1v1c0,0.6,0.4,1,1,1s1-0.4,1-1v-1C17,19.4,16.6,19,16,19z"/>
</g></svg>