<svg id="nc_icon" xmlns="http://www.w3.org/2000/svg" xmlns:xlink="http://www.w3.org/1999/xlink" x="0px" y="0px" viewBox="0 0 24 24"><g >
<path data-color="color-2" fill="currentColor" d="M14,16h-2l1.8-2.4c0.3-0.4,0.2-1.1-0.2-1.4c-0.4-0.3-1.1-0.2-1.4,0.2l-3,4c-0.2,0.3-0.3,0.7-0.1,1&#10;&#9;S9.6,18,10,18h2.2l-2.1,3.5c-0.3,0.5-0.1,1.1,0.3,1.4C10.6,23,10.8,23,11,23c0.3,0,0.7-0.2,0.9-0.5l3-5c0.2-0.3,0.2-0.7,0-1&#10;&#9;C14.7,16.2,14.4,16,14,16z"/>
<path fill="currentColor" d="M17,0c-3.2,0-5.9,2.1-6.7,5.1C8.5,5.5,6.9,6.5,6,8.1C5.6,8,5.3,8,5,8c-2.8,0-5,2.2-5,5s2.2,5,5,5h2.2&#10;&#9;c-0.3-0.9-0.2-2,0.4-2.8l3-4c0.6-0.8,1.5-1.2,2.4-1.2c0.7,0,1.3,0.2,1.8,0.6c0.6,0.5,1.1,1.2,1.2,2c0.1,0.7,0,1.3-0.4,1.9&#10;&#9;c0.4,0.3,0.8,0.6,1,1.1c0.4,0.8,0.5,1.7,0.2,2.5H19c2.8,0,5-2.2,5-5c0-1-0.3-2-0.8-2.8C23.7,9.2,24,8.1,24,7C24,3.1,20.9,0,17,0z&#10;&#9; M17.2,8.3c-1-1.8-2.7-3-4.8-3.3C13.2,3.2,14.9,2,17,2c2.8,0,5,2.2,5,5c0,0.6-0.1,1.2-0.3,1.8C20.9,8.3,20,8,19,8&#10;&#9;C18.4,8,17.8,8.1,17.2,8.3z"/>
</g></svg>