<svg id="nc_icon" xmlns="http://www.w3.org/2000/svg" xmlns:xlink="http://www.w3.org/1999/xlink" x="0px" y="0px" viewBox="0 0 24 24"><g >
<path fill="currentColor" d="M23,1H1C0.4,1,0,1.4,0,2s0.4,1,1,1h22c0.6,0,1-0.4,1-1S23.6,1,23,1z"/>
<path fill="currentColor" d="M4,7h16c0.6,0,1-0.4,1-1s-0.4-1-1-1H4C3.4,5,3,5.4,3,6S3.4,7,4,7z"/>
<path fill="currentColor" d="M21,9H7c-0.6,0-1,0.4-1,1s0.4,1,1,1h14c0.6,0,1-0.4,1-1S21.6,9,21,9z"/>
<path fill="currentColor" d="M18,13H9c-0.6,0-1,0.4-1,1s0.4,1,1,1h9c0.6,0,1-0.4,1-1S18.6,13,18,13z"/>
<path fill="currentColor" d="M13,17H7c-0.6,0-1,0.4-1,1s0.4,1,1,1h6c0.6,0,1-0.4,1-1S13.6,17,13,17z"/>
<path fill="currentColor" d="M8,21H4c-0.6,0-1,0.4-1,1s0.4,1,1,1h4c0.6,0,1-0.4,1-1S8.6,21,8,21z"/>
</g></svg>