<svg id="nc_icon" xmlns="http://www.w3.org/2000/svg" xmlns:xlink="http://www.w3.org/1999/xlink" x="0px" y="0px" viewBox="0 0 24 24"><g >
<path data-color="color-2" fill="currentColor" d="M23,16H1c-0.6,0-1,0.4-1,1s0.4,1,1,1h22c0.6,0,1-0.4,1-1S23.6,16,23,16z"/>
<path data-color="color-2" fill="currentColor" d="M20,20H4c-0.6,0-1,0.4-1,1s0.4,1,1,1h16c0.6,0,1-0.4,1-1S20.6,20,20,20z"/>
<path fill="currentColor" d="M1,14h22c0,0,0,0,0,0c0.6,0,1-0.4,1-1c0-0.1,0-0.2,0-0.2c0-0.9-0.3-1.8-0.8-2.5C23.7,9.2,24,8.1,24,7&#10;&#9;c0-0.6-0.4-1-1-1c-2.8,0-5-2.2-5-5c0-0.6-0.4-1-1-1c-3.2,0-5.9,2.1-6.7,5.1C8.5,5.5,6.9,6.5,6,8.1C5.6,8,5.3,8,5,8c-2.8,0-5,2.2-5,5&#10;&#9;C0,13.6,0.4,14,1,14z M16.1,2.1c0.5,3,2.8,5.4,5.8,5.8c-0.1,0.3-0.1,0.6-0.3,0.9C20.9,8.3,20,8,19,8c-0.6,0-1.2,0.1-1.8,0.3&#10;&#9;c-1-1.8-2.7-3-4.8-3.3C13.1,3.5,14.4,2.4,16.1,2.1z"/>
</g></svg>