<svg id="nc_icon" xmlns="http://www.w3.org/2000/svg" xmlns:xlink="http://www.w3.org/1999/xlink" x="0px" y="0px" viewBox="0 0 24 24"><g >
<path fill="currentColor" d="M23,6c-2.8,0-5-2.2-5-5c0-0.6-0.4-1-1-1c-3.2,0-5.9,2.1-6.7,5.1C8.5,5.5,6.9,6.5,6,8.1C5.6,8,5.3,8,5,8&#10;&#9;c-2.8,0-5,2.2-5,5s2.2,5,5,5h14c2.8,0,5-2.2,5-5c0-1-0.3-2-0.8-2.8C23.7,9.2,24,8.1,24,7C24,6.4,23.6,6,23,6z M9,14c0,0.6-0.4,1-1,1&#10;&#9;s-1-0.4-1-1v-1c0-0.6,0.4-1,1-1s1,0.4,1,1V14z M13,16c0,0.6-0.4,1-1,1s-1-0.4-1-1v-1c0-0.6,0.4-1,1-1s1,0.4,1,1V16z M17,14&#10;&#9;c0,0.6-0.4,1-1,1s-1-0.4-1-1v-1c0-0.6,0.4-1,1-1s1,0.4,1,1V14z M17.2,8.3c-1-1.8-2.7-3-4.8-3.3c0.6-1.5,2-2.7,3.7-3&#10;&#9;c0.5,3,2.8,5.4,5.8,5.8c-0.1,0.3-0.1,0.6-0.3,0.9C20.9,8.3,20,8,19,8C18.4,8,17.8,8.1,17.2,8.3z"/>
<path data-color="color-2" fill="currentColor" d="M12,21c-0.6,0-1,0.4-1,1v1c0,0.6,0.4,1,1,1s1-0.4,1-1v-1C13,21.4,12.6,21,12,21z"/>
<path data-color="color-2" fill="currentColor" d="M8,19c-0.6,0-1,0.4-1,1v1c0,0.6,0.4,1,1,1s1-0.4,1-1v-1C9,19.4,8.6,19,8,19z"/>
<path data-color="color-2" fill="currentColor" d="M16,19c-0.6,0-1,0.4-1,1v1c0,0.6,0.4,1,1,1s1-0.4,1-1v-1C17,19.4,16.6,19,16,19z"/>
</g></svg>