<svg id="nc_icon" xmlns="http://www.w3.org/2000/svg" xmlns:xlink="http://www.w3.org/1999/xlink" x="0px" y="0px" viewBox="0 0 24 24"><g >
<path fill="currentColor" d="M17,0c-3.2,0-5.9,2.1-6.7,5.1C8.5,5.5,6.9,6.5,6,8.1C5.6,8,5.3,8,5,8c-2.8,0-5,2.2-5,5s2.2,5,5,5h2v-3&#10;&#9;c0-0.6,0.4-1,1-1s1,0.4,1,1v3h6v-3c0-0.6,0.4-1,1-1s1,0.4,1,1v3h2c2.8,0,5-2.2,5-5c0-1-0.3-2-0.8-2.8C23.7,9.2,24,8.1,24,7&#10;&#9;C24,3.1,20.9,0,17,0z M17.2,8.3c-1-1.8-2.7-3-4.7-3.3C13.2,3.2,14.9,2,17,2c2.8,0,5,2.2,5,5c0,0.6-0.1,1.2-0.3,1.8&#10;&#9;C20.9,8.3,20,8,19,8C18.4,8,17.8,8.1,17.2,8.3z"/>
<path data-color="color-2" fill="currentColor" d="M12,20c-0.6,0-1,0.4-1,1v2c0,0.6,0.4,1,1,1s1-0.4,1-1v-2C13,20.4,12.6,20,12,20z"/>
<path data-color="color-2" fill="currentColor" d="M7,20c0,0.6,0.4,1,1,1s1-0.4,1-1v-2H7V20z"/>
<path data-color="color-2" fill="currentColor" d="M15,20c0,0.6,0.4,1,1,1s1-0.4,1-1v-2h-2V20z"/>
</g></svg>