<svg id="nc_icon" xmlns="http://www.w3.org/2000/svg" xmlns:xlink="http://www.w3.org/1999/xlink" x="0px" y="0px" viewBox="0 0 24 24"><g >
<path data-color="color-2" fill="currentColor" d="M12.3,11.3l-1,1c-0.4,0.4-0.4,1,0,1.4c0.2,0.2,0.5,0.3,0.7,0.3s0.5-0.1,0.7-0.3l1-1c0.4-0.4,0.4-1,0-1.4&#10;&#9;S12.7,10.9,12.3,11.3z"/>
<path fill="currentColor" d="M21.3,2.3l-6,6c-0.4,0.4-0.4,1,0,1.4C15.5,9.9,15.7,10,16,10s0.5-0.1,0.7-0.3l6-6c0.4-0.4,0.4-1,0-1.4&#10;&#9;S21.7,1.9,21.3,2.3z"/>
<path data-color="color-2" fill="currentColor" d="M12.3,18.3l-1,1c-0.4,0.4-0.4,1,0,1.4c0.2,0.2,0.5,0.3,0.7,0.3s0.5-0.1,0.7-0.3l1-1c0.4-0.4,0.4-1,0-1.4&#10;&#9;S12.7,17.9,12.3,18.3z"/>
<path fill="currentColor" d="M21.3,9.3l-6,6c-0.4,0.4-0.4,1,0,1.4c0.2,0.2,0.5,0.3,0.7,0.3s0.5-0.1,0.7-0.3l6-6c0.4-0.4,0.4-1,0-1.4&#10;&#9;S21.7,8.9,21.3,9.3z"/>
<path data-color="color-2" fill="currentColor" d="M2.3,14.3l-1,1c-0.4,0.4-0.4,1,0,1.4C1.5,16.9,1.7,17,2,17s0.5-0.1,0.7-0.3l1-1c0.4-0.4,0.4-1,0-1.4&#10;&#9;S2.7,13.9,2.3,14.3z"/>
<path fill="currentColor" d="M12.7,5.3c-0.4-0.4-1-0.4-1.4,0l-6,6c-0.4,0.4-0.4,1,0,1.4C5.5,12.9,5.7,13,6,13s0.5-0.1,0.7-0.3l6-6&#10;&#9;C13.1,6.3,13.1,5.7,12.7,5.3z"/>
</g></svg>