<svg id="nc_icon" xmlns="http://www.w3.org/2000/svg" xmlns:xlink="http://www.w3.org/1999/xlink" x="0px" y="0px" viewBox="0 0 24 24"><g >
<path data-color="color-2" fill="currentColor" d="M21,10c0,0.6,0.4,1,1,1h1c0.6,0,1-0.4,1-1s-0.4-1-1-1h-1C21.4,9,21,9.4,21,10z"/>
<path data-color="color-2" fill="currentColor" d="M19.7,5.3c0.3,0,0.5-0.1,0.7-0.3l0.7-0.7c0.4-0.4,0.4-1,0-1.4s-1-0.4-1.4,0L19,3.6c-0.4,0.4-0.4,1,0,1.4&#10;&#9;C19.1,5.2,19.4,5.3,19.7,5.3z"/>
<path data-color="color-2" fill="currentColor" d="M14,3c0.6,0,1-0.4,1-1V1c0-0.6-0.4-1-1-1s-1,0.4-1,1v1C13,2.6,13.4,3,14,3z"/>
<path data-color="color-2" fill="currentColor" d="M7.6,5.1c0.2,0.2,0.5,0.3,0.7,0.3S8.9,5.2,9,5.1c0.4-0.4,0.4-1,0-1.4L8.3,2.9c-0.4-0.4-1-0.4-1.4,0&#10;&#9;s-0.4,1,0,1.4L7.6,5.1z"/>
<path fill="currentColor" d="M19.6,12.2c0.3-0.7,0.4-1.4,0.4-2.2c0-3.3-2.7-6-6-6c-2.6,0-4.8,1.7-5.7,4C8.2,8,8.1,8,8,8c-4.4,0-8,3.6-8,8&#10;&#9;s3.6,8,8,8h10c3.3,0,6-2.7,6-6C24,15.2,22.1,12.9,19.6,12.2z M14,6c2.2,0,4,1.8,4,4c0,0.7-0.2,1.4-0.6,2c-0.8,0.1-1.5,0.3-2.2,0.6&#10;&#9;c-1-2.1-2.8-3.6-4.9-4.3C11,7,12.4,6,14,6z"/>
</g></svg>