<svg id="nc_icon" xmlns="http://www.w3.org/2000/svg" xmlns:xlink="http://www.w3.org/1999/xlink" x="0px" y="0px" viewBox="0 0 24 24"><g >
<path fill="currentColor" d="M4.9,5.9c-0.3,0-0.5-0.1-0.7-0.3L3.5,4.9c-0.4-0.4-0.4-1,0-1.4s1-0.4,1.4,0l0.7,0.7c0.4,0.4,0.4,1,0,1.4&#10;&#9;C5.4,5.8,5.2,5.9,4.9,5.9z"/>
<path fill="currentColor" d="M12,3c-0.6,0-1-0.4-1-1V1c0-0.6,0.4-1,1-1s1,0.4,1,1v1C13,2.6,12.6,3,12,3z"/>
<path fill="currentColor" d="M19.1,5.9c-0.3,0-0.5-0.1-0.7-0.3c-0.4-0.4-0.4-1,0-1.4l0.7-0.7c0.4-0.4,1-0.4,1.4,0s0.4,1,0,1.4l-0.7,0.7&#10;&#9;C19.6,5.8,19.4,5.9,19.1,5.9z"/>
<path fill="currentColor" d="M23,13h-1c-0.6,0-1-0.4-1-1s0.4-1,1-1h1c0.6,0,1,0.4,1,1S23.6,13,23,13z"/>
<path fill="currentColor" d="M2,13H1c-0.6,0-1-0.4-1-1s0.4-1,1-1h1c0.6,0,1,0.4,1,1S2.6,13,2,13z"/>
<path fill="currentColor" d="M19.8,20.8c-0.3,0-0.5-0.1-0.7-0.3l-0.7-0.7c-0.4-0.4-0.4-1,0-1.4s1-0.4,1.4,0l0.7,0.7c0.4,0.4,0.4,1,0,1.4&#10;&#9;C20.3,20.7,20.1,20.8,19.8,20.8z"/>
<path fill="currentColor" d="M12,5c-3.9,0-7,3.1-7,7c0,1.1,0.3,2.1,0.7,3H8c1.7,0,3,1.3,3,3c0,0.3-0.1,0.6-0.2,0.9C11.2,19,11.6,19,12,19&#10;&#9;c3.9,0,7-3.1,7-7S15.9,5,12,5z"/>
<path data-color="color-2" fill="currentColor" d="M8,19H1c-0.6,0-1-0.4-1-1s0.4-1,1-1h7c0.6,0,1,0.4,1,1S8.6,19,8,19z"/>
<path data-color="color-2" fill="currentColor" d="M13,23H5c-0.6,0-1-0.4-1-1s0.4-1,1-1h8c0.6,0,1,0.4,1,1S13.6,23,13,23z"/>
</g></svg>