<svg id="nc_icon" version="1.1" xmlns="http://www.w3.org/2000/svg" xmlns:xlink="http://www.w3.org/1999/xlink" x="0px" y="0px" viewBox="0 0 24 24" xml:space="preserve" ><g transform="translate(0, 0)" class="nc-icon-wrapper" fill="none"><path data-cap="butt" fill="none" stroke="currentColor" vector-effect="non-scaling-stroke" stroke-miterlimit="10" d="M11,13 c-2.824,0-5.329,0.638-6.975,1.193C2.81,14.604,2,15.749,2,17.032V21c0,0,9.958,0,10,0" stroke-linejoin="miter" stroke-linecap="butt"></path> <path fill="none" stroke="currentColor" vector-effect="non-scaling-stroke" stroke-linecap="square" stroke-miterlimit="10" d="M11,13L11,13 c-2.761,0-5-3.239-5-6V6c0-2.761,2.239-5,5-5h0c2.761,0,5,2.239,5,5v1C16,9.761,13.761,13,11,13z" stroke-linejoin="miter"></path> <line data-color="color-2" fill="none" stroke="currentColor" vector-effect="non-scaling-stroke" stroke-linecap="square" stroke-miterlimit="10" x1="16" y1="19" x2="22" y2="19" stroke-linejoin="miter"></line></g></svg>