<svg id="nc_icon" version="1.1" xmlns="http://www.w3.org/2000/svg" xmlns:xlink="http://www.w3.org/1999/xlink" x="0px" y="0px" viewBox="0 0 24 24" xml:space="preserve" ><g transform="translate(0, 0)" class="nc-icon-wrapper" fill="none"><path fill="none" stroke="currentColor" vector-effect="non-scaling-stroke" stroke-linecap="square" stroke-miterlimit="10" d="M5.7,22.5l-4.2-4.2l2.1-2.1 c2.3-2.3,4.7-2.5,6.4-2.6c1.3-0.1,2-0.1,2.8-1c0.8-0.8,0.9-1.5,1-2.9c0.1-1.7,0.3-4.1,2.5-6.3l2-2l4.2,4.2l-2,2 c-0.6,0.6-0.7,1.1-0.8,2.5c-0.1,1.7-0.3,4.3-2.8,6.7c-2.4,2.4-5,2.6-6.7,2.7c-1.4,0.1-1.9,0.2-2.5,0.8L5.7,22.5z" stroke-linejoin="miter"></path></g></svg>