<svg id="nc_icon" version="1.1" xmlns="http://www.w3.org/2000/svg" xmlns:xlink="http://www.w3.org/1999/xlink" x="0px" y="0px" viewBox="0 0 24 24" xml:space="preserve" ><g transform="translate(0, 0)" class="nc-icon-wrapper" fill="none"><path fill="none" stroke="currentColor" vector-effect="non-scaling-stroke" stroke-linecap="square" stroke-miterlimit="10" d="M12,1C5.9,1,1,5.9,1,12 s4.9,11,11,11s11-4.9,11-11S18.1,1,12,1z M12,5c1.2,0,2.3,0.3,3.3,0.8l-9.5,9.5C5.3,14.3,5,13.2,5,12C5,8.1,8.1,5,12,5z M12,19 c-1.2,0-2.3-0.3-3.3-0.8l9.5-9.5c0.5,1,0.8,2.1,0.8,3.3C19,15.9,15.9,19,12,19z" stroke-linejoin="miter"></path></g></svg>