<svg id="nc_icon" version="1.1" xmlns="http://www.w3.org/2000/svg" xmlns:xlink="http://www.w3.org/1999/xlink" x="0px" y="0px" viewBox="0 0 24 24" xml:space="preserve" ><g transform="translate(0, 0)" class="nc-icon-wrapper" fill="none"><line data-cap="butt" data-color="color-2" fill="none" stroke="currentColor" vector-effect="non-scaling-stroke" stroke-miterlimit="10" x1="5.572" y1="7" x2="9" y2="1" stroke-linejoin="miter" stroke-linecap="butt"></line> <line data-cap="butt" data-color="color-2" fill="none" stroke="currentColor" vector-effect="non-scaling-stroke" stroke-miterlimit="10" x1="18.427" y1="6.997" x2="15" y2="1" stroke-linejoin="miter" stroke-linecap="butt"></line> <polyline fill="none" stroke="currentColor" vector-effect="non-scaling-stroke" stroke-linecap="square" stroke-miterlimit="10" points="9,22 3,22 3,11 " stroke-linejoin="miter"></polyline> <polygon fill="none" stroke="currentColor" vector-effect="non-scaling-stroke" stroke-linecap="square" stroke-miterlimit="10" points="23,11 1,11 1,7 1,7 23,7 " stroke-linejoin="miter"></polygon> <path data-cap="butt" data-color="color-2" fill="none" stroke="currentColor" vector-effect="non-scaling-stroke" stroke-miterlimit="10" d="M14.126,17 c0.444-1.725,2.01-3,3.874-3c1.48,0,2.772,0.804,3.464,1.999" stroke-linejoin="miter" stroke-linecap="butt"></path> <polygon data-color="color-2" data-stroke="none" fill="none" points="23.22,13.649 22.792,18 18.522,17.061 " stroke-linejoin="miter" stroke-linecap="square"></polygon> <path data-cap="butt" data-color="color-2" fill="none" stroke="currentColor" vector-effect="non-scaling-stroke" stroke-miterlimit="10" d="M21.874,20 c-0.444,1.725-2.01,3-3.874,3c-1.48,0-2.772-0.804-3.464-1.999" stroke-linejoin="miter" stroke-linecap="butt"></path> <polygon data-color="color-2" data-stroke="none" fill="none" points="12.78,23.351 13.208,19 17.478,19.939 " stroke-linejoin="miter" stroke-linecap="square"></polygon></g></svg>