<svg id="nc_icon" version="1.1" xmlns="http://www.w3.org/2000/svg" xmlns:xlink="http://www.w3.org/1999/xlink" x="0px" y="0px" viewBox="0 0 24 24" xml:space="preserve" ><g transform="translate(0, 0)" class="nc-icon-wrapper" fill="none"><path data-cap="butt" data-color="color-2" fill="none" stroke="currentColor" vector-effect="non-scaling-stroke" stroke-miterlimit="10" d="M12.0009422,9.0009422 L9.1213379,6.1213379C9.6642456,5.5784912,10,4.8284302,10,4c0-1.6568604-1.3431396-3-3-3S4,2.3431396,4,4 C2.3431396,4,1,5.3431396,1,7s1.3431396,3,3,3c0.8284302,0,1.5784912-0.3357544,2.1213379-0.8786621l2.8796043,2.8796043" stroke-linejoin="miter" stroke-linecap="butt"></path> <path data-cap="butt" data-color="color-2" fill="none" stroke="currentColor" vector-effect="non-scaling-stroke" stroke-miterlimit="10" d="M12.0000687,15.0000687 l2.8785934,2.8785934C14.3357544,18.4215698,14,19.1715698,14,20c0,1.6568604,1.3431396,3,3,3s3-1.3431396,3-3 c1.6568604,0,3-1.3431396,3-3s-1.3431396-3-3-3c-0.8284302,0-1.5784302,0.3357544-2.1213379,0.8786621l-2.8785934-2.8785934" stroke-linejoin="miter" stroke-linecap="butt"></path> <path fill="none" stroke="currentColor" vector-effect="non-scaling-stroke" stroke-linecap="square" stroke-miterlimit="10" d="M20,4 c0-1.6568604-1.3431396-3-3-3s-3,1.3431396-3,3c0,0.8284302,0.3357544,1.5784912,0.8786621,2.1213379l-8.7573242,8.7573242 C5.5784302,14.3357544,4.8284302,14,4,14c-1.6568604,0-3,1.3431396-3,3s1.3431396,3,3,3c0,1.6568604,1.3431396,3,3,3 s3-1.3431396,3-3c0-0.8284302-0.3357544-1.5784302-0.8786621-2.1213379l8.7573242-8.7573242 C18.4215088,9.6642456,19.1715698,10,20,10c1.6568604,0,3-1.3431396,3-3S21.6568604,4,20,4z" stroke-linejoin="miter"></path></g></svg>