<svg id="nc_icon" version="1.1" xmlns="http://www.w3.org/2000/svg" xmlns:xlink="http://www.w3.org/1999/xlink" x="0px" y="0px" viewBox="0 0 24 24" xml:space="preserve" ><g transform="translate(0, 0)" class="nc-icon-wrapper" fill="none"><polyline data-cap="butt" data-color="color-2" fill="none" stroke="currentColor" vector-effect="non-scaling-stroke" stroke-miterlimit="10" points="13,1 13,9 10,7 7,9 7,1 " stroke-linecap="butt" stroke-linejoin="miter"></polyline> <path fill="none" stroke="currentColor" vector-effect="non-scaling-stroke" stroke-linecap="square" stroke-miterlimit="10" d="M5,1C3.895,1,3,1.895,3,3 v18c0-1.105,0.895-2,2-2h14c1.105,0,2-0.895,2-2V3c0-1.105-0.895-2-2-2H5z" stroke-linejoin="miter"></path> <path fill="none" stroke="currentColor" vector-effect="non-scaling-stroke" stroke-linecap="square" stroke-miterlimit="10" d="M19,23c1.105,0,2-0.895,2-2 v-2v-2c0,1.105-0.895,2-2,2H5c-1.105,0-2,0.895-2,2c0,1.105,0.895,2,2,2H19z" stroke-linejoin="miter"></path></g></svg>