<svg id="nc_icon" version="1.1" xmlns="http://www.w3.org/2000/svg" xmlns:xlink="http://www.w3.org/1999/xlink" x="0px" y="0px" viewBox="0 0 24 24" xml:space="preserve" ><g transform="translate(0, 0)" class="nc-icon-wrapper" fill="none"><path data-color="color-2" fill="none" stroke="currentColor" vector-effect="non-scaling-stroke" stroke-linecap="square" stroke-miterlimit="10" d="M12,8 c1.1,0,2-0.9,2-2s-2-4-2-4s-2,2.9-2,4S10.9,8,12,8z" stroke-linejoin="miter"></path> <line data-color="color-2" fill="none" stroke="currentColor" vector-effect="non-scaling-stroke" stroke-linecap="square" stroke-miterlimit="10" x1="12" y1="8" x2="12" y2="11" stroke-linejoin="miter"></line> <rect x="1" y="15" fill="none" stroke="currentColor" vector-effect="non-scaling-stroke" stroke-linecap="square" stroke-miterlimit="10" width="22" height="8" stroke-linejoin="miter"></rect> <path fill="none" stroke="currentColor" vector-effect="non-scaling-stroke" stroke-linecap="square" stroke-miterlimit="10" d="M23,15c0,2.2-1.8,4-4,4 c-1.5,0-2.8-0.9-3.5-2.1c-0.7,1.2-2,2.1-3.5,2.1s-2.8-0.9-3.5-2.1C7.8,18.1,6.5,19,5,19c-2.2,0-4-1.8-4-4" stroke-linejoin="miter"></path> <polyline fill="none" stroke="currentColor" vector-effect="non-scaling-stroke" stroke-linecap="square" stroke-miterlimit="10" points="20,15 20,11 4,11 4,15 " stroke-linejoin="miter"></polyline></g></svg>