<svg id="nc_icon" version="1.1" xmlns="http://www.w3.org/2000/svg" xmlns:xlink="http://www.w3.org/1999/xlink" x="0px" y="0px" viewBox="0 0 24 24" xml:space="preserve" ><g transform="translate(0, 0)" class="nc-icon-wrapper" fill="none"><line data-cap="butt" data-color="color-2" fill="none" stroke="currentColor" vector-effect="non-scaling-stroke" stroke-miterlimit="10" x1="7.03125" y1="17.0625" x2="8.9168682" y2="20.8337364" stroke-linejoin="miter" stroke-linecap="butt"></line> <line data-cap="butt" data-color="color-2" fill="none" stroke="currentColor" vector-effect="non-scaling-stroke" stroke-miterlimit="10" x1="10.0320311" y1="14.0617189" x2="11.9168682" y2="17.8337364" stroke-linejoin="miter" stroke-linecap="butt"></line> <line data-cap="butt" data-color="color-2" fill="none" stroke="currentColor" vector-effect="non-scaling-stroke" stroke-miterlimit="10" x1="13.03125" y1="11.0625" x2="14.9168682" y2="14.8337364" stroke-linejoin="miter" stroke-linecap="butt"></line> <line data-cap="butt" data-color="color-2" fill="none" stroke="currentColor" vector-effect="non-scaling-stroke" stroke-miterlimit="10" x1="15.9681339" y1="7.9591718" x2="18.2978859" y2="11.4527187" stroke-linejoin="miter" stroke-linecap="butt"></line> <line data-cap="butt" data-color="color-2" fill="none" stroke="currentColor" vector-effect="non-scaling-stroke" stroke-miterlimit="10" x1="15.8768034" y1="6.0821538" x2="19.206852" y2="3.8622234" stroke-linejoin="miter" stroke-linecap="butt"></line> <line data-cap="butt" data-color="color-2" fill="none" stroke="currentColor" vector-effect="non-scaling-stroke" stroke-miterlimit="10" x1="14" y1="1.1092445" x2="14" y2="5.1136236" stroke-linejoin="miter" stroke-linecap="butt"></line> <path fill="none" stroke="currentColor" vector-effect="non-scaling-stroke" stroke-linecap="square" stroke-miterlimit="10" d="M4.429667,22.4925098 c0.7809939,0.7809944,2.0474334,0.7809944,2.8284273,0L18.401432,11.3491726c2.339529-2.339529,2.339529-6.1457524,0-8.485281 s-6.1457529-2.3395293-8.4852819,0c-0.7809935,0.7809937-0.7809935,2.0474331,0,2.8284271 c0.7809944,0.7809939,2.0474329,0.7809939,2.8284273,0c0.7799578-0.7799582,2.0484686-0.7799582,2.8284273,0 c0.7799578,0.7799582,0.7799578,2.0484691,0,2.8284268L4.429667,19.6640835 C3.6486731,20.445076,3.6486731,21.7115154,4.429667,22.4925098z" stroke-linejoin="miter"></path></g></svg>