<svg id="nc_icon" version="1.1" xmlns="http://www.w3.org/2000/svg" xmlns:xlink="http://www.w3.org/1999/xlink" x="0px" y="0px" viewBox="0 0 24 24" xml:space="preserve" ><g transform="translate(0, 0)" class="nc-icon-wrapper" fill="none"><path data-cap="butt" data-color="color-2" fill="none" stroke="currentColor" vector-effect="non-scaling-stroke" stroke-miterlimit="10" d="M3.1,8C3.6,4.6,6.5,2,10,2h4 c3.5,0,6.4,2.6,6.9,6" stroke-linejoin="miter" stroke-linecap="butt"></path> <path data-cap="butt" data-color="color-2" fill="none" stroke="currentColor" vector-effect="non-scaling-stroke" stroke-miterlimit="10" d="M3,16.9L3,16.9 C3,19.7,5.3,22,8.1,22h7.9c2.8,0,5.1-2.3,5.1-5.1v0" stroke-linejoin="miter" stroke-linecap="butt"></path> <path fill="none" stroke="currentColor" vector-effect="non-scaling-stroke" stroke-linecap="square" stroke-miterlimit="10" d="M13,12H3c-1.1,0-2-0.9-2-2 v0c0-1.1,0.9-2,2-2h18c1.1,0,2,0.9,2,2v0c0,1.1-0.9,2-2,2h-2l-3,2L13,12z" stroke-linejoin="miter"></path> <path fill="none" stroke="currentColor" vector-effect="non-scaling-stroke" stroke-linecap="square" stroke-miterlimit="10" d="M3.5,12 C2.1,12,1,13.1,1,14.5v0C1,15.9,2.1,17,3.5,17h17c1.4,0,2.5-1.1,2.5-2.5v0c0-1.4-1.1-2.5-2.5-2.5" stroke-linejoin="miter"></path></g></svg>