<svg id="nc_icon" version="1.1" xmlns="http://www.w3.org/2000/svg" xmlns:xlink="http://www.w3.org/1999/xlink" x="0px" y="0px" viewBox="0 0 24 24" xml:space="preserve" ><g transform="translate(0, 0)" class="nc-icon-wrapper" fill="none"><path data-cap="butt" data-color="color-2" fill="none" stroke="currentColor" vector-effect="non-scaling-stroke" stroke-miterlimit="10" d="M14,4c1.7-0.7,3.4-1,5-1 c-3,3-3,7-1,11" stroke-linejoin="miter" stroke-linecap="butt"></path> <path data-cap="butt" data-color="color-2" fill="none" stroke="currentColor" vector-effect="non-scaling-stroke" stroke-miterlimit="10" d="M6,14c0-2.9,1.4-5.3,3.4-7.2" stroke-linejoin="miter" stroke-linecap="butt"></path> <path fill="none" stroke="currentColor" vector-effect="non-scaling-stroke" stroke-linecap="square" stroke-miterlimit="10" d="M1,18c0-1.6,0.8-3.1,2-4 c0.8-0.6,1.9,0,3,0c1.1,0,2.2-0.6,3,0c1.2,0.9,2,2.4,2,4c0,2.8-2.2,5-5,5S1,20.8,1,18z" stroke-linejoin="miter"></path> <path fill="none" stroke="currentColor" vector-effect="non-scaling-stroke" stroke-linecap="square" stroke-miterlimit="10" d="M13,18c0-1.6,0.8-3.1,2-4 c0.8-0.6,1.9,0,3,0c1.1,0,2.2-0.6,3,0c1.2,0.9,2,2.4,2,4c0,2.8-2.2,5-5,5S13,20.8,13,18z" stroke-linejoin="miter"></path> <path data-color="color-2" fill="none" stroke="currentColor" vector-effect="non-scaling-stroke" stroke-linecap="square" stroke-miterlimit="10" d="M2,4 c0,0,3.1-3,6-3c3,0,6,3,6,3s-2.9,3-6,3C5,7,2,4,2,4z" stroke-linejoin="miter"></path></g></svg>