<svg id="nc_icon" version="1.1" xmlns="http://www.w3.org/2000/svg" xmlns:xlink="http://www.w3.org/1999/xlink" x="0px" y="0px" viewBox="0 0 24 24" xml:space="preserve" ><g transform="translate(0, 0)" class="nc-icon-wrapper" fill="none"><path fill="none" stroke="currentColor" vector-effect="non-scaling-stroke" stroke-linecap="square" stroke-miterlimit="10" d="M5,6c2.2,0,3.7,1.3,4,3 c0.3,1.7-0.3,4.3,1,6c2.8,3.6,5.2,2.4,11.5,1.3c0.5-0.1,0.9,0.5,0.5,0.9C16.7,23.5,8.3,23.9,4,19c-1.4-1.6-3-5-3-9C1,7.2,2.4,6,5,6z " stroke-linejoin="miter"></path> <path fill="none" stroke="currentColor" vector-effect="non-scaling-stroke" stroke-linecap="square" stroke-miterlimit="10" d="M5,8C4.7,5.2,6.1,4.2,7,4" stroke-linejoin="miter"></path> <line data-cap="butt" data-color="color-2" fill="none" stroke="currentColor" vector-effect="non-scaling-stroke" stroke-miterlimit="10" x1="16" y1="8" x2="19" y2="5" stroke-linejoin="miter" stroke-linecap="butt"></line> <line data-cap="butt" data-color="color-2" fill="none" stroke="currentColor" vector-effect="non-scaling-stroke" stroke-miterlimit="10" x1="17.6" y1="11" x2="21.7" y2="10.3" stroke-linejoin="miter" stroke-linecap="butt"></line> <line data-cap="butt" data-color="color-2" fill="none" stroke="currentColor" vector-effect="non-scaling-stroke" stroke-miterlimit="10" x1="13" y1="6.4" x2="13.7" y2="2.3" stroke-linejoin="miter" stroke-linecap="butt"></line></g></svg>