<svg id="nc_icon" version="1.1" xmlns="http://www.w3.org/2000/svg" xmlns:xlink="http://www.w3.org/1999/xlink" x="0px" y="0px" viewBox="0 0 24 24" xml:space="preserve" ><g transform="translate(0, 0)" class="nc-icon-wrapper" fill="none"><circle fill="none" stroke="currentColor" vector-effect="non-scaling-stroke" stroke-linecap="square" stroke-miterlimit="10" cx="20" cy="4" r="3" stroke-linejoin="miter"></circle> <path data-color="color-2" fill="none" stroke="currentColor" vector-effect="non-scaling-stroke" stroke-miterlimit="10" d="M12.992,11.737L15.2,13.4 c0.504,0.378,0.8,0.97,0.8,1.6v1H8v-1c0-0.63,0.296-1.222,0.8-1.6l2.208-1.663" stroke-linejoin="miter" stroke-linecap="square"></path> <path data-color="color-2" fill="none" stroke="currentColor" vector-effect="non-scaling-stroke" stroke-linecap="square" stroke-miterlimit="10" d="M12,12 L12,12c-1.105,0-2-0.895-2-2V9c0-1.105,0.895-2,2-2h0c1.105,0,2,0.895,2,2v1C14,11.105,13.105,12,12,12z" stroke-linejoin="miter"></path> <path data-cap="butt" fill="none" stroke="currentColor" vector-effect="non-scaling-stroke" stroke-miterlimit="10" d="M22.817,10 C22.937,10.649,23,11.317,23,12c0,6.075-4.925,11-11,11S1,18.075,1,12S5.925,1,12,1c1.98,0,3.835,0.52,5.44,1.436" stroke-linejoin="miter" stroke-linecap="butt"></path></g></svg>