<svg id="nc_icon" version="1.1" xmlns="http://www.w3.org/2000/svg" xmlns:xlink="http://www.w3.org/1999/xlink" x="0px" y="0px" viewBox="0 0 24 24" xml:space="preserve" ><g transform="translate(0, 0)" class="nc-icon-wrapper" fill="none"><path data-cap="butt" data-color="color-2" fill="none" stroke="currentColor" vector-effect="non-scaling-stroke" stroke-miterlimit="10" d="M8,23v-5.9l2.1-2.1 c0.8-0.8,0.8-2,0-2.8c-0.8-0.8-2-0.8-2.8,0L4,15.4" stroke-linejoin="miter" stroke-linecap="butt"></path> <line fill="none" stroke="currentColor" vector-effect="non-scaling-stroke" stroke-linecap="square" stroke-miterlimit="10" x1="8" y1="3" x2="8" y2="9" stroke-linejoin="miter"></line> <line fill="none" stroke="currentColor" vector-effect="non-scaling-stroke" stroke-linecap="square" stroke-miterlimit="10" x1="12" y1="3" x2="12" y2="9" stroke-linejoin="miter"></line> <line fill="none" stroke="currentColor" vector-effect="non-scaling-stroke" stroke-linecap="square" stroke-miterlimit="10" x1="16" y1="5" x2="16" y2="9" stroke-linejoin="miter"></line> <path fill="none" stroke="currentColor" vector-effect="non-scaling-stroke" stroke-linecap="square" stroke-miterlimit="10" d="M18,4c-1.1,0-2,0.9-2,2V4 c0-1.1-0.9-2-2-2s-2,0.9-2,2V3c0-1.1-0.9-2-2-2S8,1.9,8,3v1c0-1.1-0.9-2-2-2S4,2.9,4,4v5v14h9h7V6C20,4.9,19.1,4,18,4z" stroke-linejoin="miter"></path></g></svg>