<svg id="nc_icon" version="1.1" xmlns="http://www.w3.org/2000/svg" xmlns:xlink="http://www.w3.org/1999/xlink" x="0px" y="0px" viewBox="0 0 24 24" xml:space="preserve" ><g transform="translate(0, 0)" class="nc-icon-wrapper" fill="none"><line data-cap="butt" data-color="color-2" fill="none" stroke="currentColor" vector-effect="non-scaling-stroke" stroke-miterlimit="10" x1="1" y1="8" x2="9.764" y2="8" stroke-linejoin="miter" stroke-linecap="butt"></line> <polyline data-cap="butt" fill="none" stroke="currentColor" vector-effect="non-scaling-stroke" stroke-miterlimit="10" points="16,12.459 16,16 1,16 1,7 1,3 16,3 16,6 " stroke-linejoin="miter" stroke-linecap="butt"></polyline> <line data-color="color-2" fill="none" stroke="currentColor" vector-effect="non-scaling-stroke" stroke-linecap="square" stroke-miterlimit="10" x1="4" y1="12" x2="7" y2="12" stroke-linejoin="miter"></line> <path data-cap="butt" fill="none" stroke="currentColor" vector-effect="non-scaling-stroke" stroke-miterlimit="10" d="M18,13c-2.2,0-4-1.8-4-4h-2 c-1.657,0-3-1.343-3-3v0l6.944,0c3.79,0,7.018,2.992,7.055,6.781C23.037,16.773,20.024,20,16,20c-2.701,0-6.77-0.456-9.128-0.752 c-1.146-0.144-2.1-0.932-2.465-2.027L4,16" stroke-linejoin="miter" stroke-linecap="butt"></path></g></svg>