<svg id="nc_icon" version="1.1" xmlns="http://www.w3.org/2000/svg" xmlns:xlink="http://www.w3.org/1999/xlink" x="0px" y="0px" viewBox="0 0 24 24" xml:space="preserve" ><g transform="translate(0, 0)" class="nc-icon-wrapper" fill="none"><path data-cap="butt" data-color="color-2" fill="none" stroke="currentColor" vector-effect="non-scaling-stroke" stroke-miterlimit="10" d="M2,14.337V9c0-4.418,3.582-8,8-8 h4c4.418,0,8,3.582,8,8v5.343" stroke-linejoin="miter" stroke-linecap="butt"></path> <path fill="none" stroke="currentColor" vector-effect="non-scaling-stroke" stroke-linecap="square" stroke-miterlimit="10" d="M8,12.212 C7.523,12.077,7.021,12,6.5,12C3.462,12,1,14.462,1,17.5C1,20.538,3.462,23,6.5,23c0.521,0,1.023-0.077,1.5-0.212V12.212z" stroke-linejoin="miter"></path> <path fill="none" stroke="currentColor" vector-effect="non-scaling-stroke" stroke-linecap="square" stroke-miterlimit="10" d="M16,22.788 C16.477,22.923,16.979,23,17.5,23c3.038,0,5.5-2.462,5.5-5.5c0-3.038-2.462-5.5-5.5-5.5c-0.521,0-1.023,0.077-1.5,0.212V22.788z" stroke-linejoin="miter"></path></g></svg>