<svg id="nc_icon" version="1.1" xmlns="http://www.w3.org/2000/svg" xmlns:xlink="http://www.w3.org/1999/xlink" x="0px" y="0px" viewBox="0 0 24 24" xml:space="preserve" ><g transform="translate(0, 0)" class="nc-icon-wrapper" fill="none"><line data-cap="butt" data-color="color-2" fill="none" stroke="currentColor" vector-effect="non-scaling-stroke" stroke-miterlimit="10" x1="5.8" y1="17" x2="18.2" y2="17" stroke-linejoin="miter" stroke-linecap="butt"></line> <path data-cap="butt" fill="none" stroke="currentColor" vector-effect="non-scaling-stroke" stroke-miterlimit="10" d="M19,23c0-0.3,0-0.7,0-1 c0-4.4-1.7-8.3-4.1-10C17.3,10.3,19,6.4,19,2c0-0.3,0-0.7,0-1" stroke-linejoin="miter" stroke-linecap="butt"></path> <path data-cap="butt" fill="none" stroke="currentColor" vector-effect="non-scaling-stroke" stroke-miterlimit="10" d="M5,1c0,0.3,0,0.7,0,1 c0,4.4,1.7,8.3,4.1,10C6.7,13.7,5,17.6,5,22c0,0.3,0,0.7,0,1" stroke-linejoin="miter" stroke-linecap="butt"></path> <line fill="none" stroke="currentColor" vector-effect="non-scaling-stroke" stroke-linecap="square" stroke-miterlimit="10" x1="3" y1="1" x2="21" y2="1" stroke-linejoin="miter"></line> <line fill="none" stroke="currentColor" vector-effect="non-scaling-stroke" stroke-linecap="square" stroke-miterlimit="10" x1="3" y1="23" x2="21" y2="23" stroke-linejoin="miter"></line></g></svg>