<svg id="nc_icon" version="1.1" xmlns="http://www.w3.org/2000/svg" xmlns:xlink="http://www.w3.org/1999/xlink" x="0px" y="0px" viewBox="0 0 24 24" xml:space="preserve" ><g transform="translate(0, 0)" class="nc-icon-wrapper" fill="none"><path data-color="color-2" fill="none" stroke="currentColor" vector-effect="non-scaling-stroke" stroke-linecap="square" stroke-miterlimit="10" d="M12,16 c-0.5,0-2-0.4-2-2.1c0-1.3,2-3.9,2-3.9s2,2.5,2,3.9C14,15.6,12.5,16,12,16z" stroke-linejoin="miter"></path> <polyline data-cap="butt" fill="none" stroke="currentColor" vector-effect="non-scaling-stroke" stroke-miterlimit="10" points="8,19.9 8,23 16,23 16,19.9 " stroke-linejoin="miter" stroke-linecap="butt"></polyline> <path fill="none" stroke="currentColor" vector-effect="non-scaling-stroke" stroke-linecap="square" stroke-miterlimit="10" d="M20,4v11c0,2.8-2.2,5-5,5H9 c-2.8,0-5-2.2-5-5V4" stroke-linejoin="miter"></path> <line fill="none" stroke="currentColor" vector-effect="non-scaling-stroke" stroke-linecap="square" stroke-miterlimit="10" x1="2" y1="4" x2="22" y2="4" stroke-linejoin="miter"></line> <rect x="9" y="1" fill="none" stroke="currentColor" vector-effect="non-scaling-stroke" stroke-linecap="square" stroke-miterlimit="10" width="6" height="3" stroke-linejoin="miter"></rect></g></svg>