<svg id="nc_icon" version="1.1" xmlns="http://www.w3.org/2000/svg" xmlns:xlink="http://www.w3.org/1999/xlink" x="0px" y="0px" viewBox="0 0 24 24" xml:space="preserve" ><g transform="translate(0, 0)" class="nc-icon-wrapper" fill="none"><polygon data-stroke="none" fill="none" points="4,7 2,7 0,2 4,2 "></polygon> <polygon data-stroke="none" fill="none" points="4,14 2,14 0,9 4,9 "></polygon> <polygon data-stroke="none" fill="none" points="4,21 2,21 0,16 4,16 "></polygon> <polygon data-stroke="none" fill="none" points="20,7 22,7 24,2 20,2 "></polygon> <polygon data-stroke="none" fill="none" points="20,14 22,14 24,9 20,9 "></polygon> <polygon data-stroke="none" fill="none" points="20,21 22,21 24,16 20,16 "></polygon> <rect x="6" y="1" fill="none" stroke="currentColor" vector-effect="non-scaling-stroke" stroke-linecap="square" stroke-miterlimit="10" width="12" height="22" stroke-linejoin="miter"></rect> <circle data-color="color-2" data-stroke="none" fill="none" cx="12" cy="12" r="2"></circle> <circle data-color="color-2" data-stroke="none" fill="none" cx="12" cy="18" r="2"></circle> <circle data-color="color-2" data-stroke="none" fill="none" cx="12" cy="6" r="2"></circle></g></svg>