<svg id="nc_icon" version="1.1" xmlns="http://www.w3.org/2000/svg" xmlns:xlink="http://www.w3.org/1999/xlink" x="0px" y="0px" viewBox="0 0 24 24" xml:space="preserve" ><g transform="translate(0, 0)" class="nc-icon-wrapper" fill="none"><polyline fill="none" stroke="currentColor" vector-effect="non-scaling-stroke" stroke-linecap="square" stroke-miterlimit="10" points="18,14 18,11 11,11 11,14 " stroke-linejoin="miter"></polyline> <path fill="none" stroke="currentColor" vector-effect="non-scaling-stroke" stroke-linecap="square" stroke-miterlimit="10" d="M21,14H7v7c0,1.1,0.9,2,2,2 h10c1.1,0,2-0.9,2-2V14z" stroke-linejoin="miter"></path> <path fill="none" stroke="currentColor" vector-effect="non-scaling-stroke" stroke-linecap="square" stroke-miterlimit="10" d="M7,14H5c-1.1,0-2-0.9-2-2V4 c0-1.1,0.9-2,2-2h2V14z" stroke-linejoin="miter"></path> <path data-color="color-2" fill="none" stroke="currentColor" vector-effect="non-scaling-stroke" stroke-linecap="square" stroke-miterlimit="10" d="M16,8 c1.1,0,2-0.9,2-2s-2-4-2-4s-2,2.9-2,4S14.9,8,16,8z" stroke-linejoin="miter"></path></g></svg>