<svg id="nc_icon" version="1.1" xmlns="http://www.w3.org/2000/svg" xmlns:xlink="http://www.w3.org/1999/xlink" x="0px" y="0px" viewBox="0 0 24 24" xml:space="preserve" ><g transform="translate(0, 0)" class="nc-icon-wrapper" fill="none"><path data-cap="butt" fill="none" stroke="currentColor" vector-effect="non-scaling-stroke" stroke-miterlimit="10" d="M5.992,18.737L8.2,20.4 C8.704,20.778,9,21.37,9,22v1H1v-1c0-0.63,0.296-1.222,0.8-1.6l2.208-1.663" stroke-linejoin="miter" stroke-linecap="butt"></path> <path fill="none" stroke="currentColor" vector-effect="non-scaling-stroke" stroke-linecap="square" stroke-miterlimit="10" d="M5,19L5,19 c-1.105,0-2-0.895-2-2v-1c0-1.105,0.895-2,2-2h0c1.105,0,2,0.895,2,2v1C7,18.105,6.105,19,5,19z" stroke-linejoin="miter"></path> <path data-cap="butt" data-color="color-2" fill="none" stroke="currentColor" vector-effect="non-scaling-stroke" stroke-miterlimit="10" d="M12.992,5.737L15.2,7.4 C15.704,7.778,16,8.37,16,9v1H8V9c0-0.63,0.296-1.222,0.8-1.6l2.208-1.663" stroke-linejoin="miter" stroke-linecap="butt"></path> <path data-color="color-2" fill="none" stroke="currentColor" vector-effect="non-scaling-stroke" stroke-linecap="square" stroke-miterlimit="10" d="M12,6L12,6 c-1.105,0-2-0.895-2-2V3c0-1.105,0.895-2,2-2h0c1.105,0,2,0.895,2,2v1C14,5.105,13.105,6,12,6z" stroke-linejoin="miter"></path> <path data-cap="butt" fill="none" stroke="currentColor" vector-effect="non-scaling-stroke" stroke-miterlimit="10" d="M19.992,18.737L22.2,20.4 c0.504,0.378,0.8,0.97,0.8,1.6v1h-8v-1c0-0.63,0.296-1.222,0.8-1.6l2.208-1.663" stroke-linejoin="miter" stroke-linecap="butt"></path> <path fill="none" stroke="currentColor" vector-effect="non-scaling-stroke" stroke-linecap="square" stroke-miterlimit="10" d="M19,19 L19,19c-1.105,0-2-0.895-2-2v-1c0-1.105,0.895-2,2-2h0c1.105,0,2,0.895,2,2v1C21,18.105,20.105,19,19,19z" stroke-linejoin="miter"></path></g></svg>