<svg id="nc_icon" version="1.1" xmlns="http://www.w3.org/2000/svg" xmlns:xlink="http://www.w3.org/1999/xlink" x="0px" y="0px" viewBox="0 0 24 24" xml:space="preserve" ><g transform="translate(0, 0)" class="nc-icon-wrapper" fill="none"><line data-cap="butt" data-color="color-2" fill="none" stroke="currentColor" vector-effect="non-scaling-stroke" stroke-miterlimit="10" x1="14.2032909" y1="14.6611824" x2="17" y2="10" stroke-linejoin="miter" stroke-linecap="butt"></line> <path data-cap="butt" data-color="color-2" fill="none" stroke="currentColor" vector-effect="non-scaling-stroke" stroke-miterlimit="10" d="M15.9435139,17.3263378 C17.0212994,16.6140289,18.908844,15.522789,21,15c-0.625-2.1875-0.2231026-5.9580088,1-7c-1.0625134-2.1875-1-5-1-5 s-2.75,1.3333335-6,1c-0.208333,1.9583335-3.041667,4.791667-5,5c0.5189209,1.7585649,0.7984877,3.9599657,0.9214964,5.1470823" stroke-linejoin="miter" stroke-linecap="butt"></path> <path data-cap="butt" data-color="color-2" fill="none" stroke="currentColor" vector-effect="non-scaling-stroke" stroke-miterlimit="10" d="M8.1862507,16.7900906 C7.096549,16.1478615,5.6027832,15.4006958,4,15c0.65625-2.34375-0.65625-5.96875-2-7c1.53125-2.09375,1-5,1-5s2.9374876,1,6,0 c0.4226685,1.6906738,1.85431,3.5088496,3.5239592,4.7323012" stroke-linejoin="miter" stroke-linecap="butt"></path> <circle fill="none" stroke="currentColor" vector-effect="non-scaling-stroke" stroke-linecap="square" stroke-miterlimit="10" cx="12" cy="18" r="4" stroke-linejoin="miter"></circle></g></svg>