<svg id="nc_icon" version="1.1" xmlns="http://www.w3.org/2000/svg" xmlns:xlink="http://www.w3.org/1999/xlink" x="0px" y="0px" viewBox="0 0 24 24" xml:space="preserve" ><g transform="translate(0, 0)" class="nc-icon-wrapper" fill="none"><line fill="none" stroke="currentColor" vector-effect="non-scaling-stroke" stroke-linecap="square" stroke-miterlimit="10" x1="1" y1="5" x2="23" y2="5" stroke-linejoin="miter"></line> <line fill="none" stroke="currentColor" vector-effect="non-scaling-stroke" stroke-linecap="square" stroke-miterlimit="10" x1="1" y1="19" x2="23" y2="19" stroke-linejoin="miter"></line> <path data-color="color-2" data-stroke="none" fill="none" d="M7.154,15.5H5.285l-3.018-5.295c0,0,0.048,1.66,0.048,5.295H1v-7h1.855l3.013,5.243 c0,0-0.033-4.06-0.038-5.243h1.324V15.5z" stroke-linejoin="miter" stroke-linecap="square"></path> <path data-color="color-2" data-stroke="none" fill="none" d="M12.963,15.5H8.968v-7h3.995v1.216h-2.524v1.537h2.349v1.216h-2.349v1.805h2.524 V15.5z" stroke-linejoin="miter" stroke-linecap="square"></path> <path data-color="color-2" data-stroke="none" fill="none" d="M21.235,15.5H19.56l-0.94-3.677c-0.069-0.26-0.296-1.34-0.322-1.638 c-0.04,0.362-0.238,1.33-0.318,1.647L17.045,15.5h-1.67l-1.77-7h1.447l0.887,3.821c0.155,0.705,0.267,1.316,0.337,1.834 c0.14-0.925,0.953-4.217,1.333-5.655H19l1.011,3.921c0.102,0.406,0.259,1.297,0.318,1.733c0.066-0.519,0.233-1.396,0.342-1.834 L21.553,8.5H23L21.235,15.5z" stroke-linejoin="miter" stroke-linecap="square"></path></g></svg>