<svg id="nc_icon" version="1.1" xmlns="http://www.w3.org/2000/svg" xmlns:xlink="http://www.w3.org/1999/xlink" x="0px" y="0px" viewBox="0 0 24 24" xml:space="preserve" ><g transform="translate(0, 0)" class="nc-icon-wrapper" fill="none"><path data-cap="butt" data-color="color-2" fill="none" stroke="currentColor" vector-effect="non-scaling-stroke" stroke-miterlimit="10" d="M19.4841919,4.9996338 C17.8696289,2.5878296,15.1202393,1,12,1S6.1303711,2.5878296,4.5158081,4.9996338" stroke-linejoin="miter" stroke-linecap="butt"></path> <path data-cap="butt" data-color="color-2" fill="none" stroke="currentColor" vector-effect="non-scaling-stroke" stroke-miterlimit="10" d="M4.18573,14.1324463 C6.3466797,18.4863892,10.8128662,23,12,23s5.6533203-4.5136108,7.81427-8.8675537" stroke-linejoin="miter" stroke-linecap="butt"></path> <path data-cap="butt" data-color="color-2" fill="none" stroke="currentColor" vector-effect="non-scaling-stroke" stroke-miterlimit="10" d="M3.9995213,14.0000048 C2.7794306,14.9117451,2,16.3597374,2,18c0,1.1309204,0.3895874,2.1623535,1.022644,3 c1.0051088-1.330019,2.6095624-2.1297474,4.4110084-1.9790363" stroke-linejoin="miter" stroke-linecap="butt"></path> <path data-cap="butt" data-color="color-2" fill="none" stroke="currentColor" vector-effect="non-scaling-stroke" stroke-miterlimit="10" d="M20.0004787,14.0000048 C21.2205696,14.9117451,22,16.3597374,22,18c0,1.1309204-0.3895874,2.1623535-1.022644,3 c-1.0051098-1.330019-2.6095619-2.1297474-4.4110088-1.9790363" stroke-linejoin="miter" stroke-linecap="butt"></path> <path data-cap="butt" fill="none" stroke="currentColor" vector-effect="non-scaling-stroke" stroke-miterlimit="10" d="M10.1167812,13.9115324 C9.2616625,14.5949793,8.1798077,15,7,15c-2.7614236,0-5-2.2385759-5-5c0-0.7014799,0.1383705-1.3550119,0.3991578-1.9608879" stroke-linejoin="miter" stroke-linecap="butt"></path> <path data-cap="butt" fill="none" stroke="currentColor" vector-effect="non-scaling-stroke" stroke-miterlimit="10" d="M13.8832188,13.9115324 C14.7383375,14.5949793,15.8201923,15,17,15c2.7614231,0,5-2.2385759,5-5c0-0.7014799-0.1383705-1.3550119-0.3991585-1.9608879" stroke-linejoin="miter" stroke-linecap="butt"></path> <circle fill="none" stroke="currentColor" vector-effect="non-scaling-stroke" stroke-linecap="square" stroke-miterlimit="10" cx="7" cy="10" r="1" stroke-linejoin="miter"></circle> <path fill="none" stroke="currentColor" vector-effect="non-scaling-stroke" stroke-linecap="square" stroke-miterlimit="10" d="M12,9H4.9999962 C2.7908592,9,1,7.2091408,1,5.0000038V5h7.0000038C10.2091408,5,12,6.7908592,12,8.9999962V9z" stroke-linejoin="miter"></path> <path fill="none" stroke="currentColor" vector-effect="non-scaling-stroke" stroke-linecap="square" stroke-miterlimit="10" d="M10,13 c0-1.1045694,0.8954306-4,2-4s2,2.8954306,2,4s-0.8954306,4-2,4S10,14.1045694,10,13z" stroke-linejoin="miter"></path> <circle fill="none" stroke="currentColor" vector-effect="non-scaling-stroke" stroke-linecap="square" stroke-miterlimit="10" cx="17" cy="10" r="1" stroke-linejoin="miter"></circle> <path fill="none" stroke="currentColor" vector-effect="non-scaling-stroke" stroke-linecap="square" stroke-miterlimit="10" d="M12,9h7.0000038 C21.2091408,9,23,7.2091408,23,5.0000038V5h-7.0000038C13.7908592,5,12,6.7908592,12,8.9999962V9z" stroke-linejoin="miter"></path></g></svg>