<svg id="nc_icon" version="1.1" xmlns="http://www.w3.org/2000/svg" xmlns:xlink="http://www.w3.org/1999/xlink" x="0px" y="0px" viewBox="0 0 24 24" xml:space="preserve" ><g transform="translate(0, 0)" class="nc-icon-wrapper" fill="none"><path data-color="color-2" fill="none" stroke="currentColor" vector-effect="non-scaling-stroke" stroke-linecap="square" stroke-miterlimit="10" d="M9.99999,17 h4c0.41202,0,0.64721,0.47038,0.4,0.8l-2,2.66667c-0.2,0.26667-0.6,0.26667-0.8,0l-2-2.66667 C9.35278,17.47038,9.58797,17,9.99999,17z" stroke-linejoin="miter"></path> <path data-color="color-2" fill="none" stroke="currentColor" vector-effect="non-scaling-stroke" stroke-linecap="square" stroke-miterlimit="10" d=" M8.08101,8.17713c1.23131,0,1.65026,0.95456,1.82823,1.65026s0.16179,1.06781-0.67952,2.26506 C8.38842,13.28969,7.56329,14.131,6.6249,14.131s-1.69879-1.21343-1.68262-2.32978S6.38222,8.17713,8.08101,8.17713z" stroke-linejoin="miter"></path> <path data-color="color-2" fill="none" stroke="currentColor" vector-effect="non-scaling-stroke" stroke-linecap="square" stroke-miterlimit="10" d=" M15.91899,8.17713c-1.23131,0-1.65026,0.95456-1.82823,1.65026s-0.16179,1.06781,0.67952,2.26506 c0.84131,1.19725,1.66644,2.03855,2.60482,2.03855c0.93838,0,1.6988-1.21343,1.68262-2.32978 C19.04153,10.68487,17.61778,8.17713,15.91899,8.17713z" stroke-linejoin="miter"></path> <path data-cap="butt" fill="none" stroke="currentColor" vector-effect="non-scaling-stroke" stroke-miterlimit="10" d="M3.64407,6.97983 C2.15456,6.80419,1,5.53672,1,4c0-1.65685,1.34315-3,3-3c1.44692,0,2.72302,1.15554,3.00583,2.51859" stroke-linejoin="miter" stroke-linecap="butt"></path> <path data-cap="butt" fill="none" stroke="currentColor" vector-effect="non-scaling-stroke" stroke-miterlimit="10" d="M20.35593,6.97983 C21.84543,6.80419,23,5.53672,23,4c0-1.65685-1.34315-3-3-3c-1.44692,0-2.72302,1.15554-3.00583,2.51859" stroke-linejoin="miter" stroke-linecap="butt"></path> <path fill="none" stroke="currentColor" vector-effect="non-scaling-stroke" stroke-linecap="square" stroke-miterlimit="10" d="M21.90095,10 C20.6546,6.71088,17.46816,2,12,2s-8.6546,4.71088-9.90095,8C-0.0324,15.625-0.10116,23,12,23S24.0324,15.625,21.90095,10z" stroke-linejoin="miter"></path></g></svg>