<svg id="nc_icon" version="1.1" xmlns="http://www.w3.org/2000/svg" xmlns:xlink="http://www.w3.org/1999/xlink" x="0px" y="0px" viewBox="0 0 24 24" xml:space="preserve" ><g transform="translate(0, 0)" class="nc-icon-wrapper" fill="none"><path data-cap="butt" data-color="color-2" fill="none" stroke="currentColor" vector-effect="non-scaling-stroke" stroke-miterlimit="10" d="M9.7,16.4l-2.8,2.8 c0.8,0.8,0.8,2,0,2.8c-0.8,0.8-2,0.8-2.8,0c-0.4-0.4-0.6-1-0.6-1.5c-0.6,0-1.1-0.1-1.5-0.6c-0.8-0.8-0.8-2,0-2.8 c0.8-0.8,2-0.8,2.8,0l2.8-2.8" stroke-linejoin="miter" stroke-linecap="butt"></path> <path data-cap="butt" fill="none" stroke="currentColor" vector-effect="non-scaling-stroke" stroke-miterlimit="10" d="M22.4,9.3l-4.2,4.2 c-2.1,2.1-5.7,1.4-7.8,3.5c-0.7-0.7-3.5-3.5-3.5-3.5s0.9,0.9,0,0c2.1-2.1,1.4-5.7,3.5-7.8l4.2-4.2" stroke-linejoin="miter" stroke-linecap="butt"></path> <path fill="none" stroke="currentColor" vector-effect="non-scaling-stroke" stroke-linecap="square" stroke-miterlimit="10" d="M17.4,7.2 c2.3,2.3,4.2,2.9,4.9,2.1s0.2-2.6-2.1-4.9s-4.9-3.6-5.7-2.8S15.1,4.9,17.4,7.2z" stroke-linejoin="miter"></path></g></svg>