<svg id="nc_icon" version="1.1" xmlns="http://www.w3.org/2000/svg" xmlns:xlink="http://www.w3.org/1999/xlink" x="0px" y="0px" viewBox="0 0 24 24" xml:space="preserve" ><g transform="translate(0, 0)" class="nc-icon-wrapper" fill="none"><path data-color="color-2" fill="none" stroke="currentColor" vector-effect="non-scaling-stroke" stroke-linecap="square" stroke-miterlimit="10" d="M4,11 V4.9999962C4,2.7908592,5.7908592,1,7.9999962,1h0.0000076C10.2091408,1,12,2.7908592,12,4.9999962v14.0000076 C12,21.2091408,13.7908592,23,15.9999962,23h0.0000076C18.2091408,23,20,21.2091408,20,19.0000038V13" stroke-linejoin="miter"></path> <line fill="none" stroke="currentColor" vector-effect="non-scaling-stroke" stroke-linecap="square" stroke-miterlimit="10" x1="1" y1="11" x2="7" y2="11" stroke-linejoin="miter"></line> <line fill="none" stroke="currentColor" vector-effect="non-scaling-stroke" stroke-linecap="square" stroke-miterlimit="10" x1="1" y1="20" x2="7" y2="20" stroke-linejoin="miter"></line> <line fill="none" stroke="currentColor" vector-effect="non-scaling-stroke" stroke-linecap="square" stroke-miterlimit="10" x1="17" y1="13" x2="23" y2="13" stroke-linejoin="miter"></line> <line fill="none" stroke="currentColor" vector-effect="non-scaling-stroke" stroke-linecap="square" stroke-miterlimit="10" x1="17" y1="4" x2="23" y2="4" stroke-linejoin="miter"></line> <line fill="none" stroke="currentColor" vector-effect="non-scaling-stroke" stroke-linecap="square" stroke-miterlimit="10" x1="6" y1="20" x2="6" y2="11" stroke-linejoin="miter"></line> <line fill="none" stroke="currentColor" vector-effect="non-scaling-stroke" stroke-linecap="square" stroke-miterlimit="10" x1="2" y1="11" x2="2" y2="20" stroke-linejoin="miter"></line> <line fill="none" stroke="currentColor" vector-effect="non-scaling-stroke" stroke-linecap="square" stroke-miterlimit="10" x1="22" y1="13" x2="22" y2="4" stroke-linejoin="miter"></line> <line fill="none" stroke="currentColor" vector-effect="non-scaling-stroke" stroke-linecap="square" stroke-miterlimit="10" x1="18" y1="4" x2="18" y2="13" stroke-linejoin="miter"></line></g></svg>