<svg id="nc_icon" version="1.1" xmlns="http://www.w3.org/2000/svg" xmlns:xlink="http://www.w3.org/1999/xlink" x="0px" y="0px" viewBox="0 0 24 24" xml:space="preserve" ><g transform="translate(0, 0)" class="nc-icon-wrapper" fill="none"><path fill="none" stroke="currentColor" vector-effect="non-scaling-stroke" stroke-linecap="square" stroke-miterlimit="10" d="M21.45,15.278l-6.172,6.172 c-0.781,0.781-2.047,0.781-2.828,0L2.55,11.55c-0.781-0.781-0.781-2.047,0-2.828L8.722,2.55c0.781-0.781,2.047-0.781,2.828,0 l9.899,9.899C22.231,13.231,22.231,14.497,21.45,15.278z" stroke-linejoin="miter"></path> <ellipse data-stroke="none" transform="matrix(0.7071 -0.7071 0.7071 0.7071 -6.435 15.5355)" fill="none" cx="15.536" cy="15.536" rx="1" ry="1" stroke-linejoin="miter" stroke-linecap="square"></ellipse> <path data-color="color-2" fill="none" stroke="currentColor" vector-effect="non-scaling-stroke" stroke-linecap="square" stroke-miterlimit="10" d="M17,1 c3.314,0,6,2.686,6,6" stroke-linejoin="miter"></path> <path data-color="color-2" fill="none" stroke="currentColor" vector-effect="non-scaling-stroke" stroke-linecap="square" stroke-miterlimit="10" d="M7,23 c-3.314,0-6-2.686-6-6" stroke-linejoin="miter"></path></g></svg>