<svg id="nc_icon" version="1.1" xmlns="http://www.w3.org/2000/svg" xmlns:xlink="http://www.w3.org/1999/xlink" x="0px" y="0px" viewBox="0 0 24 24" xml:space="preserve" ><g transform="translate(0, 0)" class="nc-icon-wrapper" fill="none"><line fill="none" stroke="currentColor" vector-effect="non-scaling-stroke" stroke-linecap="square" stroke-miterlimit="10" x1="1" y1="5" x2="23" y2="5" stroke-linejoin="miter"></line> <line fill="none" stroke="currentColor" vector-effect="non-scaling-stroke" stroke-linecap="square" stroke-miterlimit="10" x1="1" y1="19" x2="23" y2="19" stroke-linejoin="miter"></line> <path data-color="color-2" data-stroke="none" fill="none" d="M5.396,13.554c0,0.63-0.227,1.126-0.68,1.489c-0.454,0.363-1.084,0.544-1.893,0.544 c-0.745,0-1.403-0.14-1.976-0.42v-1.375c0.644,0.287,1.386,0.573,2.091,0.573c0.552,0,1.007-0.183,1.007-0.74 c0-0.305-0.199-0.505-0.451-0.673c-0.583-0.389-1.307-0.568-1.864-1.05c-1.003-0.869-0.862-2.294-0.074-2.959 c0.711-0.6,1.9-0.629,2.773-0.401c0.329,0.086,0.674,0.207,1.033,0.363l-0.477,1.15c-0.373-0.153-0.681-0.259-0.924-0.32 C3.547,9.632,2.919,9.56,2.599,9.84c-0.299,0.26-0.359,0.781,0.155,1.134c0.132,0.091,0.444,0.254,0.938,0.489 c0.652,0.312,1.099,0.625,1.341,0.938C5.275,12.714,5.396,13.099,5.396,13.554z" stroke-linejoin="miter" stroke-linecap="square"></path> <path data-color="color-2" data-stroke="none" fill="none" d="M11.001,15.492l-0.506-1.661H7.952l-0.506,1.661H5.851l2.463-7.007h1.81 l2.473,7.007H11.001z M10.143,12.589c-0.121-0.39-0.832-2.641-0.917-3.021c-0.105,0.407-0.406,1.415-0.902,3.021H10.143z" stroke-linejoin="miter" stroke-linecap="square"></path> <path data-color="color-2" data-stroke="none" fill="none" d="M13.542,15.492V8.513h1.479v5.757h2.831v1.222H13.542z" stroke-linejoin="miter" stroke-linecap="square"></path> <path data-color="color-2" data-stroke="none" fill="none" d="M23.153,15.492h-4.019V8.513h4.019v1.212h-2.54v1.533h2.363v1.212h-2.363v1.799 h2.54V15.492z" stroke-linejoin="miter" stroke-linecap="square"></path></g></svg>