<svg id="nc_icon" version="1.1" xmlns="http://www.w3.org/2000/svg" xmlns:xlink="http://www.w3.org/1999/xlink" x="0px" y="0px" viewBox="0 0 24 24" xml:space="preserve" ><g transform="translate(0, 0)" class="nc-icon-wrapper" fill="none"><circle data-color="color-2" fill="none" stroke="currentColor" vector-effect="non-scaling-stroke" stroke-linecap="square" stroke-miterlimit="10" cx="12" cy="12" r="3" stroke-linejoin="miter"></circle> <path fill="none" stroke="currentColor" vector-effect="non-scaling-stroke" stroke-linecap="square" stroke-miterlimit="10" d="M19.975,11.512l3.104-1.009 l-1.236-3.804l-3.101,1.008C17.669,6.023,15.985,4.774,14,4.262V1h-4v3.262C8.015,4.774,6.331,6.023,5.257,7.706L2.156,6.699 L0.92,10.503l3.104,1.009c-0.13,2.149,0.565,4.079,1.804,5.58l-1.913,2.632l3.236,2.351l1.916-2.637c1.898,0.749,3.963,0.75,5.864,0 l1.916,2.637l3.236-2.351l-1.913-2.632C19.408,15.593,20.106,13.666,19.975,11.512z" stroke-linejoin="miter"></path></g></svg>