<svg id="nc_icon" version="1.1" xmlns="http://www.w3.org/2000/svg" xmlns:xlink="http://www.w3.org/1999/xlink" x="0px" y="0px" viewBox="0 0 24 24" xml:space="preserve" ><g transform="translate(0, 0)" class="nc-icon-wrapper" fill="none"><line data-cap="butt" data-color="color-2" fill="none" stroke="currentColor" vector-effect="non-scaling-stroke" stroke-miterlimit="10" x1="5.6360688" y1="9.8786497" x2="9.8787842" y2="5.6359339" stroke-linejoin="miter" stroke-linecap="butt"></line> <line data-cap="butt" data-color="color-2" fill="none" stroke="currentColor" vector-effect="non-scaling-stroke" stroke-miterlimit="10" x1="18.3640652" y1="14.1212158" x2="14.1213503" y2="18.3639317" stroke-linejoin="miter" stroke-linecap="butt"></line> <path data-cap="butt" data-color="color-2" fill="none" stroke="currentColor" vector-effect="non-scaling-stroke" stroke-miterlimit="10" d="M12.7071114,2.8076077 c2.3431435-2.3431435,6.1421299-2.3431435,8.4852734,0l0.0000076,0.0000083c2.3431435,2.3431437,2.3431435,6.1421289,0,8.4852724" stroke-linejoin="miter" stroke-linecap="butt"></path> <path data-cap="butt" data-color="color-2" fill="none" stroke="currentColor" vector-effect="non-scaling-stroke" stroke-miterlimit="10" d="M2.8076077,12.7071114 c-2.3431435,2.3431435-2.3431435,6.1421299,0,8.4852734l0.0000083,0.0000076c2.3431437,2.3431435,6.1421289,2.3431435,8.4852724,0" stroke-linejoin="miter" stroke-linecap="butt"></path> <line fill="none" stroke="currentColor" vector-effect="non-scaling-stroke" stroke-linecap="square" stroke-miterlimit="10" x1="12.7071066" y1="5.6360388" x2="18.3639603" y2="11.2928934" stroke-linejoin="miter"></line> <rect x="10.1464462" y="2.5753789" transform="matrix(-0.7071068 -0.7071068 0.7071068 -0.7071068 16.6464462 16.0459423)" fill="none" stroke="currentColor" vector-effect="non-scaling-stroke" stroke-linecap="square" stroke-miterlimit="10" width="3" height="4" stroke-linejoin="miter"></rect> <rect x="17.9246216" y="10.3535538" transform="matrix(-0.7071068 -0.7071068 0.7071068 -0.7071068 24.4246216 34.8241158)" fill="none" stroke="currentColor" vector-effect="non-scaling-stroke" stroke-linecap="square" stroke-miterlimit="10" width="3" height="4" stroke-linejoin="miter"></rect> <line fill="none" stroke="currentColor" vector-effect="non-scaling-stroke" stroke-linecap="square" stroke-miterlimit="10" x1="5.6360388" y1="12.7071066" x2="11.2928934" y2="18.3639603" stroke-linejoin="miter"></line> <rect x="3.0753789" y="9.6464462" transform="matrix(-0.7071068 -0.7071068 0.7071068 -0.7071068 -0.4246212 23.1170101)" fill="none" stroke="currentColor" vector-effect="non-scaling-stroke" stroke-linecap="square" stroke-miterlimit="10" width="3" height="4" stroke-linejoin="miter"></rect> <rect x="10.8535538" y="17.4246216" transform="matrix(-0.7071068 -0.7071068 0.7071068 -0.7071068 7.3535533 41.8951836)" fill="none" stroke="currentColor" vector-effect="non-scaling-stroke" stroke-linecap="square" stroke-miterlimit="10" width="3" height="4" stroke-linejoin="miter"></rect></g></svg>