<svg id="nc_icon" version="1.1" xmlns="http://www.w3.org/2000/svg" xmlns:xlink="http://www.w3.org/1999/xlink" x="0px" y="0px" viewBox="0 0 24 24" xml:space="preserve" ><g transform="translate(0, 0)" class="nc-icon-wrapper" fill="none"><path data-cap="butt" data-color="color-2" fill="none" stroke="currentColor" vector-effect="non-scaling-stroke" stroke-miterlimit="10" d="M1,8v5c0,3.1,3.1,8,11,8 c8.2,0,11-0.6,11-4v-5" stroke-linejoin="miter" stroke-linecap="butt"></path> <path fill="none" stroke="currentColor" vector-effect="non-scaling-stroke" stroke-linecap="square" stroke-miterlimit="10" d="M6,3C3.1,3,1,5.2,1,8 c0,3.1,3.1,8,11,8c8.2,0,11-0.6,11-4c0-2.3-3-4-6-4C12.1,8,12.7,3,6,3z" stroke-linejoin="miter"></path> <path data-color="color-2" fill="none" stroke="currentColor" vector-effect="non-scaling-stroke" stroke-linecap="square" stroke-miterlimit="10" d="M10,9 c0,0.8-1.9,1.6-3.1,1.4C5.8,10.1,5,9.1,5,8.2s0.5-1.7,1.6-1.7S10,7.9,10,9z" stroke-linejoin="miter"></path></g></svg>