<svg id="nc_icon" version="1.1" xmlns="http://www.w3.org/2000/svg" xmlns:xlink="http://www.w3.org/1999/xlink" x="0px" y="0px" viewBox="0 0 24 24" xml:space="preserve" ><g transform="translate(0, 0)" class="nc-icon-wrapper" fill="none"><path data-cap="butt" fill="none" stroke="currentColor" vector-effect="non-scaling-stroke" stroke-miterlimit="10" d="M14.2,6c2.1,0.1,3.8,1.9,3.8,4v10h-4" stroke-linejoin="miter" stroke-linecap="butt"></path> <path data-cap="butt" fill="none" stroke="currentColor" vector-effect="non-scaling-stroke" stroke-miterlimit="10" d="M10,20H6V10c0-2.1,1.7-3.9,3.8-4" stroke-linejoin="miter" stroke-linecap="butt"></path> <path data-color="color-2" fill="none" stroke="currentColor" vector-effect="non-scaling-stroke" stroke-linecap="square" stroke-miterlimit="10" d="M12,23 L12,23c-1.1,0-2-0.9-2-2v-5c0-1.1,0.9-2,2-2h0c1.1,0,2,0.9,2,2v5C14,22.1,13.1,23,12,23z" stroke-linejoin="miter"></path> <line fill="none" stroke="currentColor" vector-effect="non-scaling-stroke" stroke-linecap="square" stroke-miterlimit="10" x1="9" y1="4" x2="6" y2="4" stroke-linejoin="miter"></line> <line fill="none" stroke="currentColor" vector-effect="non-scaling-stroke" stroke-linecap="square" stroke-miterlimit="10" x1="18" y1="4" x2="15" y2="4" stroke-linejoin="miter"></line> <circle data-color="color-2" fill="none" stroke="currentColor" vector-effect="non-scaling-stroke" stroke-linecap="square" stroke-miterlimit="10" cx="12" cy="4" r="3" stroke-linejoin="miter"></circle></g></svg>