<svg id="nc_icon" version="1.1" xmlns="http://www.w3.org/2000/svg" xmlns:xlink="http://www.w3.org/1999/xlink" x="0px" y="0px" viewBox="0 0 24 24" xml:space="preserve" ><g transform="translate(0, 0)" class="nc-icon-wrapper" fill="none"><path fill="none" stroke="currentColor" vector-effect="non-scaling-stroke" stroke-linecap="square" stroke-miterlimit="10" d="M16.33014,15.70178 c1.20111-2.23303,3.16986-2.88928,5.66339-3.10309c-0.47101-0.62897-1.07367-1.17523-1.79736-1.59308 c-0.94928-0.5481-1.98572-0.80151-3.0083-0.79907C17.70123,9.3222,18,8.29791,18,7.20178c0-1.26398-0.39288-2.43512-1.06024-3.40222 C16.64111,6.2757,14.55664,8.20178,12,8.20178S7.35889,6.2757,7.06024,3.79956C6.39288,4.76666,6,5.93781,6,7.20178 c0,1.09613,0.29877,2.12042,0.81213,3.00476c-1.02258-0.00244-2.05902,0.25098-3.0083,0.79907 c-0.72369,0.41785-1.32635,0.96411-1.79736,1.59308C4.5,12.8125,6.46875,13.46875,7.66986,15.70178 c1.27832,2.21411,0.65253,4.98236-1.34253,6.47906c1.1712,0.09436,2.3819-0.15094,3.4765-0.7829 c0.94934-0.5481,1.68701-1.31903,2.19617-2.20581c0.50916,0.88678,1.24683,1.65771,2.19617,2.20581 c1.0946,0.63196,2.3053,0.87726,3.4765,0.7829C15.67761,20.68414,15.05182,17.91589,16.33014,15.70178z" stroke-linejoin="miter"></path></g></svg>