<svg id="nc_icon" version="1.1" xmlns="http://www.w3.org/2000/svg" xmlns:xlink="http://www.w3.org/1999/xlink" x="0px" y="0px" viewBox="0 0 24 24" xml:space="preserve" ><g transform="translate(0, 0)" class="nc-icon-wrapper" fill="none"><line data-cap="butt" fill="none" stroke="currentColor" vector-effect="non-scaling-stroke" stroke-miterlimit="10" x1="20.4" y1="3.6" x2="6.3" y2="17.7" stroke-linejoin="miter" stroke-linecap="butt"></line> <path fill="none" stroke="currentColor" vector-effect="non-scaling-stroke" stroke-linecap="square" stroke-miterlimit="10" d="M11.2,12.8L11.2,12.8 c-0.8-0.8-0.9-2.1-0.2-3L16,3c0.8-1.2,2.5-1.3,3.5-0.3l1.8,1.8c1,1,0.9,2.7-0.3,3.5l-6.8,5C13.3,13.7,12,13.6,11.2,12.8z" stroke-linejoin="miter"></path> <path fill="none" stroke="currentColor" vector-effect="non-scaling-stroke" stroke-linecap="square" stroke-miterlimit="10" d="M5.3,21.5 c-0.8,0.8-1.8,0.5-2.6-0.2c-0.8-0.8-1.1-1.7-0.2-2.6c1-1,3.3-1.4,3.8-0.9S6.3,20.5,5.3,21.5z" stroke-linejoin="miter"></path></g></svg>