<svg id="nc_icon" version="1.1" xmlns="http://www.w3.org/2000/svg" xmlns:xlink="http://www.w3.org/1999/xlink" x="0px" y="0px" viewBox="0 0 24 24" xml:space="preserve" ><g transform="translate(0, 0)" class="nc-icon-wrapper" fill="none"><path fill="none" stroke="currentColor" vector-effect="non-scaling-stroke" stroke-linecap="square" stroke-miterlimit="10" d="M21.492,18.615 c-1.842-0.47-4.791-1.22-5.4-1.368c-0.887-0.215-1.591-0.721-1.75-1.633c-0.063-0.363,0.227-0.685,0.595-0.717 C17.417,14.685,18.721,14.123,20,13c-2.417-2.083-3-4.821-3-7c0-2.761-2.239-4.997-5-4.997C9.239,1.003,7,3.239,7,6 c0,2.179-0.583,4.917-3,7c1.279,1.123,2.583,1.685,5.064,1.897c0.368,0.031,0.658,0.353,0.595,0.717 c-0.159,0.912-0.863,1.418-1.75,1.633c-0.61,0.148-3.558,0.898-5.4,1.368c-0.888,0.226-1.504,1.02-1.502,1.936 C1.008,21.183,1.009,22.002,1.008,23h21.983c0-0.998,0.001-1.817,0.003-2.449C22.996,19.635,22.379,18.841,21.492,18.615z" stroke-linejoin="miter"></path></g></svg>