<svg id="nc_icon" version="1.1" xmlns="http://www.w3.org/2000/svg" xmlns:xlink="http://www.w3.org/1999/xlink" x="0px" y="0px" viewBox="0 0 24 24" xml:space="preserve" ><g transform="translate(0, 0)" class="nc-icon-wrapper" fill="none"><line data-cap="butt" data-color="color-2" fill="none" stroke="currentColor" vector-effect="non-scaling-stroke" stroke-miterlimit="10" x1="19" y1="18" x2="19" y2="6" stroke-linejoin="miter" stroke-linecap="butt"></line> <path fill="none" stroke="currentColor" vector-effect="non-scaling-stroke" stroke-linecap="square" stroke-miterlimit="10" d="M8,7L8,7 C6.343,7,5,5.657,5,4v0c0-1.657,1.343-3,3-3h0c1.657,0,3,1.343,3,3v0C11,5.657,9.657,7,8,7z" stroke-linejoin="miter"></path> <polygon fill="none" stroke="currentColor" vector-effect="non-scaling-stroke" stroke-linecap="square" stroke-miterlimit="10" points="11,23 5,23 5,19 2,19 5,10 11,10 14,19 11,19 " stroke-linejoin="miter"></polygon> <polyline data-color="color-2" fill="none" stroke="currentColor" vector-effect="non-scaling-stroke" stroke-linecap="square" stroke-miterlimit="10" points=" 16,9 19,6 22,9 " stroke-linejoin="miter"></polyline></g></svg>