<svg id="nc_icon" version="1.1" xmlns="http://www.w3.org/2000/svg" xmlns:xlink="http://www.w3.org/1999/xlink" x="0px" y="0px" viewBox="0 0 24 24" xml:space="preserve" ><g transform="translate(0, 0)" class="nc-icon-wrapper" fill="none"><circle data-color="color-2" fill="none" stroke="currentColor" vector-effect="non-scaling-stroke" stroke-linecap="square" stroke-miterlimit="10" cx="9" cy="9" r="1" stroke-linejoin="miter"></circle> <circle data-color="color-2" fill="none" stroke="currentColor" vector-effect="non-scaling-stroke" stroke-linecap="square" stroke-miterlimit="10" cx="15" cy="9.0000038" r="1" stroke-linejoin="miter"></circle> <path data-color="color-2" fill="none" stroke="currentColor" vector-effect="non-scaling-stroke" stroke-linecap="square" stroke-miterlimit="10" d="M16,17H8 v-0.0000038C8,14.7908592,9.7908592,13,11.9999962,13h0.0000076C14.2091408,13,16,14.7908592,16,16.9999962V17z" stroke-linejoin="miter"></path> <line data-color="color-2" fill="none" stroke="currentColor" vector-effect="non-scaling-stroke" stroke-linecap="square" stroke-miterlimit="10" x1="14" y1="17" x2="14" y2="19" stroke-linejoin="miter"></line> <path fill="none" stroke="currentColor" vector-effect="non-scaling-stroke" stroke-linecap="square" stroke-miterlimit="10" d="M18,5 c-2.2091675,0-4-1.7908936-4-4h-4C6.1340332,1,3,4.1339722,3,8v6c0,4.9705811,4.0294189,9,9,9s9-4.0294189,9-9V8 C19.3431396,8,18,6.6568604,18,5z" stroke-linejoin="miter"></path></g></svg>