<svg id="nc_icon" xmlns="http://www.w3.org/2000/svg" xml:space="preserve" viewBox="0 0 24 24"><g fill="none" stroke="currentColor" stroke-miterlimit="10" class="nc-icon-wrapper"><path d="M22 10c0-2.692-2.132-4.87-4.797-4.98a5.993 5.993 0 0 0-10.44.057A4.961 4.961 0 0 0 6 5a5 5 0 0 0-5 5" data-cap="butt" data-color="color-2" vector-effect="non-scaling-stroke"/><path stroke-linecap="square" d="M9 22V9.5A2.5 2.5 0 0 1 11.5 7h0A2.5 2.5 0 0 1 14 9.5V22M14 12v-.5A2.5 2.5 0 0 1 16.5 9h0a2.5 2.5 0 0 1 2.5 2.5V22M4 22V11.5A2.5 2.5 0 0 1 6.5 9h0A2.5 2.5 0 0 1 9 11.5v.5" vector-effect="non-scaling-stroke"/></g></svg>
