<svg id="nc_icon" xmlns="http://www.w3.org/2000/svg" xml:space="preserve" viewBox="0 0 24 24"><g fill="none" stroke="currentColor" stroke-miterlimit="10" class="nc-icon-wrapper"><path d="M11 13c-2.824 0-5.329.638-6.975 1.193A2.99 2.99 0 0 0 2 17.032V21h10" data-cap="butt" vector-effect="non-scaling-stroke"/><path stroke-linecap="square" d="M11 13h0c-2.761 0-5-3.239-5-6V6a5 5 0 0 1 5-5h0a5 5 0 0 1 5 5v1c0 2.761-2.239 6-5 6z" vector-effect="non-scaling-stroke"/><path stroke-linecap="square" d="M22.361 15.631a2.199 2.199 0 0 0-3.361.333 2.199 2.199 0 0 0-3.361-.333 2.137 2.137 0 0 0 0 3.048L19 22l3.361-3.321a2.137 2.137 0 0 0 0-3.048z" data-color="color-2" vector-effect="non-scaling-stroke"/></g></svg>
