<svg id="nc_icon" xmlns="http://www.w3.org/2000/svg" xml:space="preserve" viewBox="0 0 24 24"><g fill="none" class="nc-icon-wrapper"><path stroke="currentColor" stroke-miterlimit="10" d="M11 13c-2.824 0-5.329.638-6.975 1.193A2.99 2.99 0 0 0 2 17.032V21h9" data-cap="butt" vector-effect="non-scaling-stroke"/><path stroke="currentColor" stroke-linecap="square" stroke-miterlimit="10" d="M11 13h0c-2.761 0-5-3.239-5-6V6a5 5 0 0 1 5-5h0a5 5 0 0 1 5 5v1c0 2.761-2.239 6-5 6z" vector-effect="non-scaling-stroke"/><path stroke="currentColor" stroke-miterlimit="10" d="m16.858 19.515 3.284 1.97M16.858 18.485l3.284-1.97" data-cap="butt" data-color="color-2" vector-effect="non-scaling-stroke"/><circle cx="16" cy="19" r="1" stroke="currentColor" stroke-linecap="square" stroke-miterlimit="10" data-color="color-2" vector-effect="non-scaling-stroke"/><circle cx="21" cy="16" r="1" stroke="currentColor" stroke-linecap="square" stroke-miterlimit="10" data-color="color-2" vector-effect="non-scaling-stroke"/><circle cx="21" cy="22" r="1" stroke="currentColor" stroke-linecap="square" stroke-miterlimit="10" data-color="color-2" vector-effect="non-scaling-stroke"/><circle cx="16" cy="19" r="1" data-color="color-2" data-stroke="none"/><circle cx="21" cy="16" r="1" data-color="color-2" data-stroke="none"/><circle cx="21" cy="22" r="1" data-color="color-2" data-stroke="none"/></g></svg>
