<svg id="nc_icon" xmlns="http://www.w3.org/2000/svg" xml:space="preserve" viewBox="0 0 24 24"><g fill="none" class="nc-icon-wrapper"><path stroke="currentColor" stroke-miterlimit="10" d="M11 14c-2.824 0-5.329.638-6.975 1.193A2.99 2.99 0 0 0 2 18.032V22h10" data-cap="butt" vector-effect="non-scaling-stroke"/><path stroke="currentColor" stroke-linecap="square" stroke-miterlimit="10" d="M11 14h0c-2.761 0-5-3.239-5-6V7a5 5 0 0 1 5-5h0a5 5 0 0 1 5 5v1c0 2.761-2.239 6-5 6z" vector-effect="non-scaling-stroke"/><path d="m19 13 1.545 3.131 3.455.502-2.5 2.437.59 3.441L19 20.886l-3.09 1.625.59-3.441-2.5-2.437 3.455-.502z" data-color="color-2" stroke="currentColor" stroke-linecap="square" stroke-miterlimit="10" fill="none" vector-effect="non-scaling-stroke"/></g></svg> 