<svg id="nc_icon" xmlns="http://www.w3.org/2000/svg" xml:space="preserve" viewBox="0 0 24 24"><g fill="none" class="nc-icon-wrapper"><path stroke="currentColor" stroke-miterlimit="10" d="M11 13c-2.824 0-5.329.638-6.975 1.193A2.99 2.99 0 0 0 2 17.032V21h9" data-cap="butt" vector-effect="non-scaling-stroke"/><path stroke="currentColor" stroke-linecap="square" stroke-miterlimit="10" d="M11 13h0c-2.761 0-5-3.239-5-6V6a5 5 0 0 1 5-5h0a5 5 0 0 1 5 5v1c0 2.761-2.239 6-5 6z" vector-effect="non-scaling-stroke"/><path stroke="currentColor" stroke-miterlimit="10" d="M14.126 17a4.002 4.002 0 0 1 7.338-1.001" data-cap="butt" data-color="color-2" vector-effect="non-scaling-stroke"/><path d="M23.22 13.649 22.792 18l-4.27-.939z" data-color="color-2" data-stroke="none"/><path stroke="currentColor" stroke-miterlimit="10" d="M21.874 20a4.002 4.002 0 0 1-7.338 1.001" data-cap="butt" data-color="color-2" vector-effect="non-scaling-stroke"/><path d="M12.78 23.351 13.208 19l4.27.939z" data-color="color-2" data-stroke="none"/></g></svg>
