<svg id="nc_icon" xmlns="http://www.w3.org/2000/svg" xml:space="preserve" viewBox="0 0 24 24"><g fill="none" stroke="currentColor" stroke-linecap="square" stroke-miterlimit="10" class="nc-icon-wrapper"><path d="M15 10h-3.5A2.5 2.5 0 0 1 9 7.5h0A2.5 2.5 0 0 1 11.5 5H15v5z" data-color="color-2" vector-effect="non-scaling-stroke"/><path d="M11 2h2a2 2 0 0 1 2 2v6" data-color="color-2" vector-effect="non-scaling-stroke"/><path d="M3 11v11M6 22H3v-6h3a3 3 0 0 1 3 3h0a3 3 0 0 1-3 3zM21.732 15.999A2 2 0 0 0 20 15h-2a2 2 0 0 0-2 2v3a2 2 0 0 0 2 2h2c.74 0 1.387-.402 1.732-1" vector-effect="non-scaling-stroke"/></g></svg>
