<svg id="nc_icon" xmlns="http://www.w3.org/2000/svg" xml:space="preserve" viewBox="0 0 24 24"><g fill="none" stroke="currentColor" stroke-linecap="square" stroke-miterlimit="10" class="nc-icon-wrapper"><path d="M1 10c0-5 4.9-9 11-9 5.9 0 11 4 11 9s-6.9 13-11 13C7.8 23 1 15 1 10z" vector-effect="non-scaling-stroke"/><path d="M5 9s2.7-.1 4.4 1.6c1.3 1.3.6 4.4.6 4.4s-2.1-.3-3.4-1.6C5 11.9 5 9 5 9zM19 9s-2.7-.1-4.4 1.6C13.3 11.9 14 15 14 15s2.1-.3 3.4-1.6C19 11.9 19 9 19 9z" data-color="color-2" vector-effect="non-scaling-stroke"/></g></svg>
