<svg id="nc_icon" xmlns="http://www.w3.org/2000/svg" xml:space="preserve" viewBox="0 0 24 24"><g fill="none" class="nc-icon-wrapper"><path stroke="currentColor" stroke-linecap="square" stroke-miterlimit="10" d="M21 17.423c-.492 1.09-.727 1.576-1.361 2.54-.883 1.345-2.129 3.02-3.673 3.034-1.372.013-1.724-.892-3.586-.882-1.861.01-2.25.898-3.622.885-1.544-.014-2.723-1.526-3.608-2.872-2.47-3.762-2.728-8.176-1.204-10.522 1.083-1.668 2.792-2.643 4.399-2.643 1.636 0 2.664.897 4.017.897 1.312 0 2.112-.898 4.003-.898 1.43 0 2.944.778 4.024 2.123-3.536 1.938-2.962 6.987.611 8.338h0z" vector-effect="non-scaling-stroke"/><path d="M15.1 3.45c.65-.834 1.143-2.011.964-3.214-1.062.073-2.302.748-3.027 1.628-.658.799-1.201 1.983-.99 3.135 1.158.036 2.357-.656 3.053-1.549z" data-color="color-2" data-stroke="none"/></g></svg>
