<svg id="nc_icon" xmlns="http://www.w3.org/2000/svg" xml:space="preserve" viewBox="0 0 24 24"><g fill="none" class="nc-icon-wrapper"><path stroke="currentColor" stroke-miterlimit="10" d="M8.665 5.91C9.382 2.944 10.608 1 12 1c2.209 0 4 4.925 4 11s-1.791 11-4 11c-1.943 0-3.562-3.803-3.924-8.853" data-cap="butt" vector-effect="non-scaling-stroke"/><path stroke="currentColor" stroke-miterlimit="10" d="M8.661 18.092c-2.876.99-5.176 1.009-5.925-.161-1.191-1.861 1.991-6.024 7.107-9.3s10.23-4.423 11.421-2.562c1.048 1.637-1.288 5.055-5.348 8.084" data-cap="butt" vector-effect="non-scaling-stroke"/><path stroke="currentColor" stroke-miterlimit="10" d="M11.991 7.368C7.669 5.091 3.758 4.472 2.736 6.069c-1.191 1.861 1.991 6.024 7.107 9.3s10.23 4.423 11.421 2.562c.805-1.258-.396-3.532-2.835-5.909" data-cap="butt" vector-effect="non-scaling-stroke"/><circle cx="12" cy="12" r="1" data-color="color-2" data-stroke="none"/></g></svg>
