<svg id="nc_icon" xmlns="http://www.w3.org/2000/svg" xml:space="preserve" viewBox="0 0 24 24"><g fill="none" stroke="currentColor" stroke-linecap="square" stroke-miterlimit="10" class="nc-icon-wrapper"><path d="M10 21.836c0-.604-.265-1.179-.738-1.554C8.539 19.708 7.285 19 5.5 19s-3.039.708-3.762 1.282c-.473.375-.738.95-.738 1.554V23h9v-1.164zM7.5 15A2.5 2.5 0 1 1 5 11.05M16.5 15a2.5 2.5 0 1 0 2.5-3.95M23 21.836c0-.604-.265-1.179-.738-1.554C21.539 19.708 20.285 19 18.5 19s-3.039.708-3.762 1.282c-.473.375-.738.95-.738 1.554V23h9v-1.164z" vector-effect="non-scaling-stroke"/><path d="M8 6h8v5H8zM10 6V3c0-1.1.9-2 2-2h0c1.1 0 2 .9 2 2v3" data-color="color-2" vector-effect="non-scaling-stroke"/></g></svg>
