<svg id="nc_icon" xmlns="http://www.w3.org/2000/svg" xml:space="preserve" viewBox="0 0 24 24"><g fill="none" stroke="currentColor" stroke-miterlimit="10" class="nc-icon-wrapper"><path d="M9 16v.5a1.5 1.5 0 1 0 3 0v-1.837" data-cap="butt" data-color="color-2" vector-effect="non-scaling-stroke"/><path stroke-linecap="square" d="M8 8h1M15 8h1M10 11h4a.5.5 0 0 1 .4.8l-2 2.667a.5.5 0 0 1-.8 0l-2-2.667a.5.5 0 0 1 .4-.8z" data-color="color-2" vector-effect="non-scaling-stroke"/><path d="M15 16v.5a1.5 1.5 0 1 1-3 0" data-cap="butt" data-color="color-2" vector-effect="non-scaling-stroke"/><path d="M3.662 6.982C2.172 6.806 1 5.537 1 4a3 3 0 0 1 5.938-.616M20.338 6.982C21.828 6.806 23 5.537 23 4a3 3 0 0 0-5.938-.616" data-cap="butt" vector-effect="non-scaling-stroke"/><path stroke-linecap="square" d="M3 10c0-4.418 4.03-8 9-8s9 3.582 9 8c0 5-4.03 13-9 13s-9-7.958-9-13z" vector-effect="non-scaling-stroke"/></g></svg>
