<svg id="nc_icon" xmlns="http://www.w3.org/2000/svg" xml:space="preserve" viewBox="0 0 24 24"><g fill="none" stroke="currentColor" stroke-miterlimit="10" class="nc-icon-wrapper"><path d="M12 9 9.122 6.122A3 3 0 1 0 4 4a3 3 0 1 0 2.121 5.121l2.88 2.88M12 15l2.879 2.879A3 3 0 1 0 20 20a3 3 0 1 0-2.121-5.121L15 12" data-cap="butt" data-color="color-2" vector-effect="non-scaling-stroke"/><path stroke-linecap="square" d="M20 4a3 3 0 1 0-5.121 2.121L6.12 14.88A3 3 0 1 0 4 20a3 3 0 1 0 5.121-2.121L17.88 9.12A3 3 0 1 0 20 4z" vector-effect="non-scaling-stroke"/></g></svg>
