<svg id="nc_icon" xmlns="http://www.w3.org/2000/svg" xml:space="preserve" viewBox="0 0 24 24"><g fill="none" stroke="currentColor" stroke-miterlimit="10" class="nc-icon-wrapper"><path d="M13 1v8l-3-2-3 2V1" data-cap="butt" data-color="color-2" vector-effect="non-scaling-stroke"/><path stroke-linecap="square" d="M5 1a2 2 0 0 0-2 2v18a2 2 0 0 1 2-2h14a2 2 0 0 0 2-2V3a2 2 0 0 0-2-2H5z" vector-effect="non-scaling-stroke"/><path stroke-linecap="square" d="M19 23a2 2 0 0 0 2-2v-4a2 2 0 0 1-2 2H5a2 2 0 1 0 0 4h14z" vector-effect="non-scaling-stroke"/></g></svg>
