<svg id="nc_icon" xmlns="http://www.w3.org/2000/svg" xml:space="preserve" viewBox="0 0 24 24"><path fill="none" stroke="currentColor" stroke-miterlimit="10" d="M11.631 5.205C8.344 5.754 8 8.583 8 10h8s.502-4.795-4.369-4.795c-1.835 0-4.089.637-5.672 1.622-2.617 1.629-4.113 3.944-4.113 3.944C2.277 5.376 6.504 1 12.191 1 16.763 1 21.815 3.553 22 11v3H8s.458 4.41 6.354 4.41c2.18 0 3.73-.285 5.646-1.41v4c-2.427 1.495-6.694 2.492-9.623 1.542C4.281 20.564 2.708 13.271 6 9c1.396-1.875 3.742-3.602 3.742-3.602" class="nc-icon-wrapper" data-cap="butt" vector-effect="non-scaling-stroke"/></svg>
