<svg id="nc_icon" xmlns="http://www.w3.org/2000/svg" xml:space="preserve" viewBox="0 0 24 24"><g fill="none" class="nc-icon-wrapper"><path stroke="currentColor" stroke-linecap="square" stroke-miterlimit="10" d="M1 12C1 5.925 5.925 1 12 1s11 4.925 11 11" data-color="color-2" vector-effect="non-scaling-stroke"/><path d="M19.631 2.737c2.983 9.468-3.991 18.431-11.08 13.253.01.002 2.714.032 3.678-.486.608-.327 1.385-.973 1.76-.912.608.09.751-.399.445-.75-.351-.403-1.281-1.167-2.36-.655-2.964 1.404-4.941-.671-4.598-1.888.064-.229.309-.531.412-.551.501-.487 3.403-2.396 3.766-3.282.086-.21.183-.703-.098-.806-.467-.111-1.576-.115-1.986-.112-.781.007-1.305-.48-1.27-.965.044-.605.466-1.359 1.664-2.347-2.057-.3-3.244 1.341-3.245 1.343-1.108-.275-2.837.042-2.838.041-1.139-.666-1.382-2.343-1.382-2.343s-1.7 1.268-1.244 4.347c0 0-2.984 5.251.286 11.265C1.541 17.888 4.562 24 12 24c7.5 0 12-6.217 12-12 0-4.235-2.129-7.459-4.369-9.263z" data-stroke="none"/></g></svg>
