<svg id="nc_icon" xmlns="http://www.w3.org/2000/svg" xml:space="preserve" viewBox="0 0 24 24"><g fill="none" stroke="currentColor" stroke-miterlimit="10" class="nc-icon-wrapper"><path d="M8.379 18.199c-1.216-1.436-2.004-3.558-2.057-5.94v-.518c.053-2.382.841-4.504 2.057-5.94 1.578-2.049 3.924-3.349 6.543-3.349 1.611 0 3.119.492 4.409 1.348a10.964 10.964 0 0 0-7.29-2.8H12C5.925 1 1 5.925 1 12c0 5.899 4.644 10.714 10.476 10.987a10.963 10.963 0 0 0 7.855-2.786 7.937 7.937 0 0 1-4.408 1.347c-2.62 0-4.966-1.3-6.544-3.349z" data-cap="butt" vector-effect="non-scaling-stroke"/><path d="M8.379 5.801c1.009-1.191 2.313-1.91 3.737-1.91 3.202 0 5.798 3.631 5.798 8.109s-2.596 8.109-5.798 8.109c-1.424 0-2.728-.719-3.737-1.91 1.578 2.049 3.924 3.349 6.543 3.349a7.937 7.937 0 0 0 4.408-1.347A10.974 10.974 0 0 0 23 12c0-3.259-1.417-6.186-3.669-8.2a7.939 7.939 0 0 0-4.409-1.348c-2.619.001-4.965 1.3-6.543 3.349z" data-cap="butt" vector-effect="non-scaling-stroke"/></g></svg>
