<svg id="nc_icon" xmlns="http://www.w3.org/2000/svg" xml:space="preserve" viewBox="0 0 24 24"><g fill="none" stroke="currentColor" stroke-miterlimit="10" class="nc-icon-wrapper"><path stroke-linecap="square" d="M22 13c.347-7.188-4.708-10-10-10C3.887 3 2 9.119 2 12s1.918 10 10 10 10-4.917 10-6h-7s-.813 1-3 1c-3.063 0-3-4-3-4h13zM9 10s-.207-3 3-3c2.585 0 3 2.28 3 3H9z" vector-effect="non-scaling-stroke"/><path d="M8.212 21.375c-3.078 1.803-5.335 2.047-6.474 1.019C.3 21.096.539 15.198 6.326 9.074 12.065 3 18.282.035 20.386 1.279c1.099.649 1.447 2.554-.051 5.333" data-cap="butt" vector-effect="non-scaling-stroke"/></g></svg>
