<svg id="nc_icon" xmlns="http://www.w3.org/2000/svg" xml:space="preserve" viewBox="0 0 24 24"><g fill="none" stroke="currentColor" stroke-miterlimit="10" class="nc-icon-wrapper"><path stroke-linecap="square" d="M14 19h3" data-color="color-2" vector-effect="non-scaling-stroke"/><path d="m8.796 13.907-5.825 3.51A2.002 2.002 0 0 0 2 19.132V23h20v-3.868a2 2 0 0 0-.971-1.715l-5.825-3.51M6.003 6.796c.63.186 1.292.31 1.982.31 1.96 0 3.729-.808 5-2.106a7.008 7.008 0 0 0 5.014 2.106" data-cap="butt" vector-effect="non-scaling-stroke"/><path stroke-linecap="square" d="M6 7a6 6 0 1 1 12 0c0 5-2.686 8-6 8s-6-3-6-8z" vector-effect="non-scaling-stroke"/></g></svg>
