<svg id="nc_icon" xmlns="http://www.w3.org/2000/svg" viewBox="0 0 24 24"><g fill="none" stroke="currentColor" stroke-linecap="square" stroke-miterlimit="10" class="nc-icon-wrapper"><path d="M12 8c1.104 0 2-.896 2-2s-2-4-2-4-2 2.896-2 4 .896 2 2 2z" data-color="color-2" vector-effect="non-scaling-stroke"/><path d="M1 15h22v8H1z" vector-effect="non-scaling-stroke"/><path d="M23 15a4 4 0 0 1-4 4c-1.518 0-2.822-.855-3.5-2.101C14.822 18.145 13.518 19 12 19s-2.822-.855-3.5-2.101C7.822 18.145 6.518 19 5 19a4 4 0 0 1-4-4M20 15v-4H4v4" vector-effect="non-scaling-stroke"/></g></svg>
