<svg id="nc_icon" xmlns="http://www.w3.org/2000/svg" viewBox="0 0 24 24"><g fill="none" class="nc-icon-wrapper"><path stroke="currentColor" stroke-linecap="square" stroke-miterlimit="10" d="M23 9v14H1V9M1 3h22v6H1zM12 1v4M6 1v4M18 1v4" vector-effect="non-scaling-stroke"/><path stroke="currentColor" stroke-linecap="square" stroke-miterlimit="10" d="M5 13h2v1H5zM11 13h2v1h-2zM5 18h2v1H5zM11 18h2v1h-2zM17 13h2v1h-2z" data-color="color-2" vector-effect="non-scaling-stroke"/><path d="M5 13h2v1H5zM11 13h2v1h-2zM5 18h2v1H5zM11 18h2v1h-2zM17 13h2v1h-2z" data-color="color-2" data-stroke="none"/></g></svg>
