<svg id="nc_icon" xmlns="http://www.w3.org/2000/svg" xml:space="preserve" viewBox="0 0 24 24"><g fill="none" stroke="currentColor" stroke-miterlimit="10" class="nc-icon-wrapper"><path d="m7.031 17.063 1.886 3.771M10.032 14.062l1.885 3.772M13.031 11.063l1.886 3.771M15.968 7.959l2.33 3.494M15.877 6.082l3.33-2.22M14 1.109v4.005" data-cap="butt" data-color="color-2" vector-effect="non-scaling-stroke"/><path stroke-linecap="square" d="M4.43 22.493a2 2 0 0 0 2.828 0l11.143-11.144c2.34-2.34 2.34-6.146 0-8.485s-6.145-2.34-8.485 0a2 2 0 0 0 2.829 2.828c.78-.78 2.048-.78 2.828 0 .78.78.78 2.049 0 2.829L4.43 19.664a2 2 0 0 0 0 2.829z" vector-effect="non-scaling-stroke"/></g></svg>
