<svg id="nc_icon" xmlns="http://www.w3.org/2000/svg" xml:space="preserve" viewBox="0 0 24 24"><g fill="none" class="nc-icon-wrapper"><path stroke="currentColor" stroke-miterlimit="10" d="m20 15-1.8-5.3a.961.961 0 0 0-.9-.7H6.7a.961.961 0 0 0-.9.7L4 15" data-cap="butt" vector-effect="non-scaling-stroke"/><path stroke="currentColor" stroke-linecap="square" stroke-miterlimit="10" d="M22 21H2v-3.6a.908.908 0 0 1 .3-.7L4 15h16l1.7 1.7a.908.908 0 0 1 .3.7Z" vector-effect="non-scaling-stroke"/><circle cx="6" cy="18" r="1" data-cap="butt" data-stroke="none"/><circle cx="18" cy="18" r="1" data-cap="butt" data-stroke="none"/><path stroke="currentColor" stroke-miterlimit="10" d="m1 7 11-5 11 5" data-cap="butt" data-color="color-2" vector-effect="non-scaling-stroke"/><path stroke="currentColor" stroke-linecap="square" stroke-miterlimit="10" d="M2 21h4v2H2zM18 21h4v2h-4z" vector-effect="non-scaling-stroke"/></g></svg>
