<svg id="nc_icon" xmlns="http://www.w3.org/2000/svg" xml:space="preserve" viewBox="0 0 24 24"><g fill="none" class="nc-icon-wrapper"><path d="M1 21h4v2H1z" data-cap="butt" data-stroke="none"/><path stroke="currentColor" stroke-miterlimit="10" d="M7 9H5.721a1 1 0 0 0-.949.684L3 15M21 15l-1.772-5.316A1 1 0 0 0 18.279 9H17" data-cap="butt" vector-effect="non-scaling-stroke"/><path stroke="currentColor" stroke-linecap="square" stroke-miterlimit="10" d="M23 21H1v-3.586a1 1 0 0 1 .293-.707L3 15h18l1.707 1.707a1 1 0 0 1 .293.707Z" vector-effect="non-scaling-stroke"/><circle cx="5" cy="18" r="1" data-cap="butt" data-stroke="none"/><circle cx="19" cy="18" r="1" data-cap="butt" data-stroke="none"/><path stroke="currentColor" stroke-linecap="square" stroke-miterlimit="10" d="M9 7c0-1.9 3-5 3-5s3 3.1 3 5a3 3 0 0 1-6 0Z" data-color="color-2" vector-effect="non-scaling-stroke"/><path stroke="currentColor" stroke-linecap="square" stroke-miterlimit="10" d="M5 21v2H1v-2" vector-effect="non-scaling-stroke"/><path d="M19 21h4v2h-4z" data-cap="butt" data-stroke="none"/><path stroke="currentColor" stroke-linecap="square" stroke-miterlimit="10" d="M23 21v2h-4v-2" vector-effect="non-scaling-stroke"/></g></svg>
