<svg id="nc_icon" xmlns="http://www.w3.org/2000/svg" xml:space="preserve" viewBox="0 0 24 24"><g fill="none" stroke="currentColor" stroke-miterlimit="10" class="nc-icon-wrapper"><path d="M7.799 16.601C9.092 18.61 11.826 20 15 20c.59 0 1.163-.051 1.716-.142L21 22v-4.04c1.241-1.057 2-2.44 2-3.96 0-1.552-.792-2.961-2.081-4.027" data-cap="butt" data-color="color-2" vector-effect="non-scaling-stroke"/><path stroke-linecap="square" d="M11 1C5.477 1 1 4.582 1 9c0 1.797.75 3.45 2 4.785V19l4.833-2.416C8.829 16.85 9.892 17 11 17c5.523 0 10-3.582 10-8s-4.477-8-10-8z" vector-effect="non-scaling-stroke"/></g></svg>
