<svg id="nc_icon" xmlns="http://www.w3.org/2000/svg" viewBox="0 0 24 24"><g fill="none" class="nc-icon-wrapper"><path stroke="currentColor" stroke-linecap="square" stroke-miterlimit="10" d="M10 16h4a7 7 0 0 1 7 7v0h0H3h0v0a7 7 0 0 1 7-7Z" vector-effect="non-scaling-stroke"/><circle cx="12" cy="19" r="1" data-cap="butt" data-color="color-2" data-stroke="none"/><path stroke="currentColor" stroke-linecap="square" stroke-miterlimit="10" d="M16 9v3a4 4 0 0 1-4 4h0a4 4 0 0 1-4-4V9" vector-effect="non-scaling-stroke"/><path stroke="currentColor" stroke-linecap="square" stroke-miterlimit="10" d="M16 1H8a2 2 0 0 0 0 4v4h8V5a2 2 0 0 0 0-4Z" data-color="color-2" vector-effect="non-scaling-stroke"/></g></svg>
