<svg id="nc_icon" xmlns="http://www.w3.org/2000/svg" xml:space="preserve" viewBox="0 0 24 24"><g fill="none" stroke="currentColor" stroke-miterlimit="10" class="nc-icon-wrapper"><path stroke-linecap="square" d="M5 6c2.2 0 3.7 1.3 4 3 .3 1.7-.3 4.3 1 6 2.8 3.6 5.2 2.4 11.5 1.3.5-.1.9.5.5.9-5.3 6.3-13.7 6.7-18 1.8-1.4-1.6-3-5-3-9 0-2.8 1.4-4 4-4z" vector-effect="non-scaling-stroke"/><path stroke-linecap="square" d="M5 8c-.3-2.8 1.1-3.8 2-4" vector-effect="non-scaling-stroke"/><path d="m16 8 3-3M17.6 11l4.1-.7M13 6.4l.7-4.1" data-cap="butt" data-color="color-2" vector-effect="non-scaling-stroke"/></g></svg>
