<svg id="nc_icon" xmlns="http://www.w3.org/2000/svg" xml:space="preserve" viewBox="0 0 24 24"><g fill="none" class="nc-icon-wrapper"><circle cx="8.5" cy="14.5" r="1.5" data-stroke="none"/><circle cx="15.5" cy="14.5" r="1.5" data-stroke="none"/><path stroke="currentColor" stroke-linecap="square" stroke-miterlimit="10" d="M23 13a2.994 2.994 0 0 0-2.505-2.95C19.273 6.53 15.936 4 12 4s-7.273 2.53-8.495 6.05C2.085 10.287 1 11.513 1 13s1.085 2.713 2.505 2.95C4.727 19.47 8.064 22 12 22s7.273-2.53 8.495-6.05A2.994 2.994 0 0 0 23 13z" vector-effect="non-scaling-stroke"/><path stroke="currentColor" stroke-miterlimit="10" d="M12 7c-.25-3.583 1.667-5.792 5-6" data-cap="butt" data-color="color-2" vector-effect="non-scaling-stroke"/></g></svg>
