<svg id="nc_icon" xmlns="http://www.w3.org/2000/svg" viewBox="0 0 24 24"><g fill="none" class="nc-icon-wrapper"><path stroke="currentColor" stroke-miterlimit="10" d="M3.467 12H9v4a2 2 0 0 0 2 2 2 2 0 0 0 2-2v-4h7.533" data-cap="butt" data-color="color-2" vector-effect="non-scaling-stroke"/><path stroke="currentColor" stroke-miterlimit="10" d="M5.751 8h12.5a2 2 0 0 1 1.982 1.736L22 23H2L3.769 9.736A2 2 0 0 1 5.751 8Z" data-cap="butt" vector-effect="non-scaling-stroke"/><circle cx="10" cy="4" r="2" data-cap="butt" data-color="color-2" data-stroke="none"/><path d="M18 0v2a4 4 0 0 1-4 4V4a4 4 0 0 1 4-4Z" data-cap="butt" data-color="color-2" data-stroke="none"/></g></svg>
