<svg id="nc_icon" xmlns="http://www.w3.org/2000/svg" viewBox="0 0 24 24"><g fill="none" stroke="currentColor" stroke-miterlimit="10" class="nc-icon-wrapper"><path stroke-linecap="square" d="M17.392 10C19.145 12.267 20 14.238 20 16c0 4.252-3.14 7-8 7s-8-2.748-8-7c0-5.729 9.849-13.182 11.824-14.618l2.353 3.235C14.073 7.605 8 13.29 8 16c0 2.479 2.175 3 4 3s4-.521 4-3a5.723 5.723 0 0 0-1.362-3" vector-effect="non-scaling-stroke"/><path d="M9.057 7.2a50.41 50.41 0 0 0-3.234-2.583l2.353-3.235A58.68 58.68 0 0 1 12 4.434" data-cap="butt" vector-effect="non-scaling-stroke"/></g></svg>
