<svg id="nc_icon" xmlns="http://www.w3.org/2000/svg" xml:space="preserve" viewBox="0 0 24 24"><g fill="none" stroke="currentColor" stroke-miterlimit="10" class="nc-icon-wrapper"><path d="M18.989 20.495c-.135-2.388-1.497-3.146-3.489-3.81-1.522-.507-1.941-2.105-2.056-2.953M10.555 13.731c-.113.844-.524 2.444-2.055 2.954-1.992.664-3.356 1.42-3.491 3.808" data-cap="butt" data-color="color-2" vector-effect="non-scaling-stroke"/><path stroke-linecap="square" d="M12 14h0a4 4 0 0 1-4-4V9a4 4 0 0 1 4-4h0a4 4 0 0 1 4 4v1a4 4 0 0 1-4 4z" data-color="color-2" vector-effect="non-scaling-stroke"/><circle cx="12" cy="12" r="11" stroke-linecap="square" vector-effect="non-scaling-stroke"/></g></svg>
