<svg id="nc_icon" xmlns="http://www.w3.org/2000/svg" xml:space="preserve" viewBox="0 0 24 24"><g fill="none" stroke="currentColor" stroke-miterlimit="10" class="nc-icon-wrapper"><path stroke-linecap="square" d="M12 23v-4" data-color="color-2" vector-effect="non-scaling-stroke"/><path d="m8.796 13.907-5.825 3.51A2.002 2.002 0 0 0 2 19.132V23h20v-3.868a2 2 0 0 0-.971-1.715l-5.825-3.51M17.999 7.106A7.008 7.008 0 0 1 12.985 5a6.976 6.976 0 0 1-5 2.106c-.69 0-1.352-.124-1.982-.31" data-cap="butt" vector-effect="non-scaling-stroke"/><path stroke-linecap="square" d="M6 7a6 6 0 1 1 12 0c0 5-2.686 8-6 8s-6-3-6-8z" vector-effect="non-scaling-stroke"/><path d="M6 7s0 4-4 7c.844 2.057 2.751 2.345 2.751 2.345M17.938 7s0 4 4 7c-.844 2.057-2.751 2.345-2.751 2.345" data-cap="butt" vector-effect="non-scaling-stroke"/></g></svg>
