<svg id="nc_icon" xmlns="http://www.w3.org/2000/svg" xml:space="preserve" viewBox="0 0 24 24"><g fill="none" stroke="currentColor" stroke-miterlimit="10" class="nc-icon-wrapper"><path stroke-linecap="square" d="M12 6V3" data-color="color-2" vector-effect="non-scaling-stroke"/><path stroke-linecap="square" d="M14 17h-4" vector-effect="non-scaling-stroke"/><path d="m6.8 18.6-3.7 2.8c-.7.6-1.8-.1-1.6-1l2-9.8C3.8 9.1 5.1 8 6.7 8c.9 0 1.7.3 2.3.9l1 1.1h4l1.1-1.1c.6-.6 1.4-.9 2.2-.9 1.5 0 2.9 1.1 3.2 2.6l2 9.8c.2.9-.8 1.5-1.6 1l-3.7-2.8" data-cap="butt" vector-effect="non-scaling-stroke"/><circle cx="8" cy="17" r="2" stroke-linecap="square" data-color="color-2" vector-effect="non-scaling-stroke"/><circle cx="16" cy="17" r="2" stroke-linecap="square" data-color="color-2" vector-effect="non-scaling-stroke"/></g></svg>
