<svg id="nc_icon" xmlns="http://www.w3.org/2000/svg" viewBox="0 0 24 24"><g fill="none" class="nc-icon-wrapper"><path stroke="currentColor" stroke-miterlimit="10" d="M18.957 6.37A1.094 1.094 0 0 0 19 6a3.979 3.979 0 0 0-6.575-3.037A3.989 3.989 0 0 0 5 5a3.909 3.909 0 0 0 .235 1.293" data-cap="butt" data-color="color-2" vector-effect="non-scaling-stroke"/><circle cx="15" cy="10" r="1" data-cap="butt" stroke="currentColor" stroke-linecap="square" stroke-miterlimit="10" fill="none" vector-effect="non-scaling-stroke"/><circle cx="9" cy="10" r="1" data-cap="butt" stroke="currentColor" stroke-linecap="square" stroke-miterlimit="10" fill="none" vector-effect="non-scaling-stroke"/><circle cx="12" cy="15" r="1" data-cap="butt" stroke="currentColor" stroke-linecap="square" stroke-miterlimit="10" fill="none" vector-effect="non-scaling-stroke"/><path stroke="currentColor" stroke-linecap="square" stroke-miterlimit="10" d="M12 5A18.069 18.069 0 0 0 2 8l8.276 14.014a2 2 0 0 0 3.448 0L22 8a18.069 18.069 0 0 0-10-3Z" vector-effect="non-scaling-stroke"/></g></svg> 