<svg id="nc_icon" xmlns="http://www.w3.org/2000/svg" xml:space="preserve" viewBox="0 0 24 24"><g fill="none" stroke="currentColor" stroke-miterlimit="10" class="nc-icon-wrapper"><path d="m5.136 13.207 5.657 5.657M19.34 10.316l2.767-2.766a2 2 0 0 0 0-2.828l-2.829-2.829a2 2 0 0 0-2.828 0L5.136 13.207c-1.414 1.414-.044 2.873-1.414 4.243L1.6 19.57a1 1 0 0 0 0 1.414L3.015 22.4a1 1 0 0 0 1.414 0l2.121-2.12c1.37-1.37 2.873-.045 4.243-1.415.544-.544 2.433-2.437 4.522-4.525" data-cap="butt" vector-effect="non-scaling-stroke"/><circle cx="18" cy="13" r="3" stroke-linecap="square" data-color="color-2" vector-effect="non-scaling-stroke"/></g></svg>
