<svg id="nc_icon" xmlns="http://www.w3.org/2000/svg" viewBox="0 0 24 24"><g fill="none" class="nc-icon-wrapper"><path stroke="currentColor" stroke-linecap="square" stroke-miterlimit="10" d="M9 22H1V3h22v8M7 1v4M17 1v4" vector-effect="non-scaling-stroke"/><path stroke="currentColor" stroke-linecap="square" stroke-miterlimit="10" d="m17 22.567 1.084.338a2 2 0 0 0 2.487-1.163l1.247-3.5c.875-2.456-1.549-4.824-4.209-4.113l-.609.162-.609-.163c-2.66-.711-5.084 1.657-4.209 4.113l1.247 3.5a2 2 0 0 0 2.487 1.159Z" data-color="color-2" vector-effect="non-scaling-stroke"/><path d="M20 8v1a3 3 0 0 1-3 3v-1a3 3 0 0 1 3-3Z" data-cap="butt" data-color="color-2" data-stroke="none"/></g></svg>
