<svg id="nc_icon" xmlns="http://www.w3.org/2000/svg" xml:space="preserve" viewBox="0 0 24 24"><g fill="none" stroke="currentColor" stroke-miterlimit="10" class="nc-icon-wrapper"><path d="m1 7 2.8-1.7c1.3-.8 3-.8 4.3.1l1.7 1.1c1.3.9 3.1.9 4.4 0l1.7-1.1c1.3-.9 3-.9 4.3-.1L23 7M1 19.1l2.8-1.7c1.3-.8 3-.8 4.3.1l1.7 1.1c1.3.9 3.1.9 4.4 0l1.7-1.1c1.3-.9 3-.9 4.3-.1l2.8 1.7" data-cap="butt" vector-effect="non-scaling-stroke"/><path d="m1 13 2.8-1.7c1.3-.8 3-.8 4.3.1l1.7 1.1c1.3.9 3.1.9 4.4 0l1.7-1.1c1.3-.9 3-.9 4.3-.1L23 13" data-cap="butt" data-color="color-2" vector-effect="non-scaling-stroke"/></g></svg>
