<svg id="nc_icon" xmlns="http://www.w3.org/2000/svg" xml:space="preserve" viewBox="0 0 24 24"><g fill="none" stroke="currentColor" stroke-linecap="square" stroke-miterlimit="10" class="nc-icon-wrapper"><path d="M12 23h0a8 8 0 0 1-8-8V3a2 2 0 0 1 2-2h12a2 2 0 0 1 2 2v12a8 8 0 0 1-8 8z" vector-effect="non-scaling-stroke"/><circle cx="9" cy="13" r="1" data-color="color-2" vector-effect="non-scaling-stroke"/><circle cx="15" cy="13" r="1" data-color="color-2" vector-effect="non-scaling-stroke"/><path d="M4 6h16" vector-effect="non-scaling-stroke"/><path d="M10 18h4" data-color="color-2" vector-effect="non-scaling-stroke"/><path d="M8 5v2M12 5v2M16 5v2M1 9v4M1 11h3M23 9v4M23 11h-3" vector-effect="non-scaling-stroke"/></g></svg>
