<svg id="nc_icon" xmlns="http://www.w3.org/2000/svg" xml:space="preserve" viewBox="0 0 24 24"><g fill="none" stroke="currentColor" stroke-miterlimit="10" class="nc-icon-wrapper"><path d="M8 23v-5.9l2.1-2.1c.8-.8.8-2 0-2.8-.8-.8-2-.8-2.8 0L4 15.4" data-cap="butt" data-color="color-2" vector-effect="non-scaling-stroke"/><path stroke-linecap="square" d="M8 3v6M12 3v6M16 5v4M18 4c-1.1 0-2 .9-2 2V4c0-1.1-.9-2-2-2s-2 .9-2 2V3c0-1.1-.9-2-2-2s-2 .9-2 2v1c0-1.1-.9-2-2-2s-2 .9-2 2v19h16V6c0-1.1-.9-2-2-2z" vector-effect="non-scaling-stroke"/></g></svg>
