<svg id="nc_icon" xmlns="http://www.w3.org/2000/svg" xml:space="preserve" viewBox="0 0 24 24"><g fill="none" stroke="currentColor" stroke-linecap="square" stroke-miterlimit="10" class="nc-icon-wrapper"><path d="M20 8h-7V6.177a2 2 0 0 1 1.029-1.749l5-2.777C20.362.91 22 1.874 22 3.399V6a2 2 0 0 1-2 2zM13 8v6M3 10h6V7.66a1 1 0 0 0-.606-.92l-5-2.143A1 1 0 0 0 2 5.517V9a1 1 0 0 0 1 1zM9 10v4" data-color="color-2" vector-effect="non-scaling-stroke"/><path d="M4 14h14v4H4zM16 18v5M6 23v-5" vector-effect="non-scaling-stroke"/></g></svg>
