<svg id="nc_icon" xmlns="http://www.w3.org/2000/svg" xml:space="preserve" viewBox="0 0 24 24"><g fill="none" stroke="currentColor" stroke-linecap="square" stroke-miterlimit="10" class="nc-icon-wrapper"><path d="M2 2h2v2H2zM8 2h2v2H8zM14 2h2v2h-2z" vector-effect="non-scaling-stroke"/><path d="M20 2h2v2h-2z" data-color="color-2" vector-effect="non-scaling-stroke"/><path d="M2 8h2v2H2zM8 8h2v2H8z" vector-effect="non-scaling-stroke"/><path d="M14 8h2v2h-2z" data-color="color-2" vector-effect="non-scaling-stroke"/><path d="M20 8h2v2h-2zM2 14h2v2H2z" vector-effect="non-scaling-stroke"/><path d="M8 14h2v2H8z" data-color="color-2" vector-effect="non-scaling-stroke"/><path d="M14 14h2v2h-2zM20 14h2v2h-2z" vector-effect="non-scaling-stroke"/><path d="M2 20h2v2H2z" data-color="color-2" vector-effect="non-scaling-stroke"/><path d="M8 20h2v2H8zM14 20h2v2h-2zM20 20h2v2h-2z" vector-effect="non-scaling-stroke"/></g></svg>
