<svg id="nc_icon" xmlns="http://www.w3.org/2000/svg" xml:space="preserve" viewBox="0 0 24 24"><g fill="none" class="nc-icon-wrapper"><path stroke="currentColor" stroke-linecap="square" stroke-miterlimit="10" d="M11.95 17.707a2 2 0 0 1 2.828 0l.707-.707A6 6 0 0 0 7 8.515l-.707.707a2 2 0 1 1-2.828 2.828l-.707.707a6 6 0 0 0 8.485 8.485l.707-.707a2 2 0 0 1 0-2.828z" vector-effect="non-scaling-stroke"/><path stroke="currentColor" stroke-linecap="square" stroke-miterlimit="10" d="m19.728 1.444 2.828 2.828L19.728 7.1 16.9 4.272z" data-color="color-2" vector-effect="non-scaling-stroke"/><path stroke="currentColor" stroke-miterlimit="10" d="m18.314 5.686-5.657 5.657" data-cap="butt" data-color="color-2" vector-effect="non-scaling-stroke"/><circle cx="11.95" cy="12.05" r="1" stroke="currentColor" stroke-linecap="square" stroke-miterlimit="10" data-color="color-2" transform="rotate(-45.001 11.95 12.05)" vector-effect="non-scaling-stroke"/><circle cx="11.95" cy="12.05" r="1" data-color="color-2" data-stroke="none" transform="rotate(-45.001 11.95 12.05)"/><path stroke="currentColor" stroke-linecap="square" stroke-miterlimit="10" d="M5.586 17 7 18.414" data-color="color-2" vector-effect="non-scaling-stroke"/></g></svg>
