<svg id="nc_icon" xmlns="http://www.w3.org/2000/svg" xml:space="preserve" viewBox="0 0 24 24"><g fill="none" stroke="currentColor" stroke-miterlimit="10" class="nc-icon-wrapper"><path d="M2 14.3V9c0-4.4 3.6-8 8-8h4c4.4 0 8 3.6 8 8v5.3" data-cap="butt" data-color="color-2" vector-effect="non-scaling-stroke"/><path d="M5 12.2v10.6M19 12.2v10.6" data-cap="butt" vector-effect="non-scaling-stroke"/><path stroke-linecap="square" d="M8 12.2c-.5-.1-1-.2-1.5-.2-3 0-5.5 2.5-5.5 5.5S3.5 23 6.5 23c.5 0 1-.1 1.5-.2V12.2zM16 22.8c.5.1 1 .2 1.5.2 3 0 5.5-2.5 5.5-5.5S20.5 12 17.5 12c-.5 0-1 .1-1.5.2v10.6z" vector-effect="non-scaling-stroke"/></g></svg>
