<svg id="nc_icon" xmlns="http://www.w3.org/2000/svg" xml:space="preserve" viewBox="0 0 24 24"><g fill="none" stroke="currentColor" stroke-miterlimit="10" class="nc-icon-wrapper"><path stroke-linecap="square" d="M9 2h14M16 2v4" data-color="color-2" vector-effect="non-scaling-stroke"/><path d="m15 18-2 4M18 18l2 4" data-cap="butt" data-color="color-2" vector-effect="non-scaling-stroke"/><path stroke-linecap="square" d="M15 9v3h5" data-color="color-2" vector-effect="non-scaling-stroke"/><path stroke-linecap="square" d="M6 6 5 3H2l.7 4.3c.2 1 1 1.7 2 1.7H9v3c0 3.3 2.7 6 6 6h2c3.3 0 6-2.7 6-6h0c0-3.3-2.7-6-6-6H6z" vector-effect="non-scaling-stroke"/><path stroke-linecap="square" d="M9 22h12c1.1 0 2-.9 2-2h0" data-color="color-2" vector-effect="non-scaling-stroke"/></g></svg>
