<svg id="nc_icon" xmlns="http://www.w3.org/2000/svg" viewBox="0 0 24 24"><g fill="none" stroke="currentColor" stroke-miterlimit="10" class="nc-icon-wrapper"><rect width="4" height="12" x="11.757" y="1.243" stroke-linecap="square" rx="2" ry="2" transform="rotate(-45 13.757 7.243)" vector-effect="non-scaling-stroke"/><path d="M9.515 11.485 1 20" data-cap="butt" vector-effect="non-scaling-stroke"/><path stroke-linecap="square" d="M17 20c0-2 3-6 3-6s3 4 3 6a3 3 0 0 1-6 0Z" data-color="color-2" vector-effect="non-scaling-stroke"/><path stroke-linecap="square" d="M13.757 10.071a2 2 0 0 1 0 2.828h0a2 2 0 0 1-2.828 0L8.1 10.071a2 2 0 0 1 0-2.828h0a2 2 0 0 1 2.828 0M13.757 4.414a2 2 0 0 1 0-2.828h0a2 2 0 0 1 2.829 0l2.828 2.828a2 2 0 0 1 0 2.829h0a2 2 0 0 1-2.828 0" vector-effect="non-scaling-stroke"/></g></svg>
