<svg id="nc_icon" xmlns="http://www.w3.org/2000/svg" xml:space="preserve" viewBox="0 0 24 24"><g fill="none" stroke="currentColor" stroke-miterlimit="10" class="nc-icon-wrapper"><path d="M16.9 2.8c-1.6-1.6-4.1-1.6-5.7 0l-8.5 8.5c-1.6 1.6-1.6 4.1 0 5.7M21.2 7.1c1.6 1.6 1.6 4.1 0 5.7l-8.5 8.5c-1.6 1.6-4.1 1.6-5.7 0" data-cap="butt" data-color="color-2" vector-effect="non-scaling-stroke"/><path stroke-linecap="square" d="M21.2 7.1 7.1 21.2c-1.2 1.2-3.1 1.2-4.2 0h0c-1.2-1.2-1.2-3.1 0-4.2l14-14.2c1.2-1.2 3.1-1.2 4.2 0h0c1.3 1.2 1.3 3.1.1 4.3z" vector-effect="non-scaling-stroke"/></g></svg>
