<svg id="nc_icon" xmlns="http://www.w3.org/2000/svg" xml:space="preserve" viewBox="0 0 24 24"><g fill="none" stroke="currentColor" stroke-linecap="square" stroke-miterlimit="10" class="nc-icon-wrapper"><path d="M7 9H6C3.8 9 2 7.2 2 5h0c0-2.2 1.8-4 4-4h10c1.1 0 2 .9 2 2h0c0 1.1-.9 2-2 2" vector-effect="non-scaling-stroke"/><path d="M7 5h12c2.2 0 4 1.8 4 4h0c0 2.2-1.8 4-4 4H7" vector-effect="non-scaling-stroke"/><path d="M17 9H5c-2.2 0-4 1.8-4 4h0c0 2.2 1.8 4 4 4h5v6" vector-effect="non-scaling-stroke"/><path d="M9 13h2c1.7 0 3 1.3 3 3v7" vector-effect="non-scaling-stroke"/></g></svg>
