<svg id="nc_icon" xmlns="http://www.w3.org/2000/svg" viewBox="0 0 24 24"><g fill="none" class="nc-icon-wrapper"><path stroke="currentColor" stroke-miterlimit="10" d="M14.326 9h2.206a4 4 0 0 1 3.96 3.435L22 23H2l1.51-10.566A4 4 0 0 1 7.47 9h2.2" data-cap="butt" vector-effect="non-scaling-stroke"/><path d="M16 0v2a4 4 0 0 1-4 4V4a4 4 0 0 1 4-4Z" data-cap="butt" data-color="color-2" data-stroke="none"/><path stroke="currentColor" stroke-miterlimit="10" d="m8 23 .8-12.007A3.208 3.208 0 0 1 12 8a3.208 3.208 0 0 1 3.2 2.993L16 23" data-cap="butt" vector-effect="non-scaling-stroke"/></g></svg>
