<svg id="nc_icon" xmlns="http://www.w3.org/2000/svg" xml:space="preserve" viewBox="0 0 24 24"><g fill="none" stroke="currentColor" stroke-linecap="square" stroke-miterlimit="10" class="nc-icon-wrapper"><path d="M10 11v10c0 1.1-.9 2-2 2h0c-1.1 0-2-.9-2-2h0M6 11v5c0 1.1-.9 2-2 2h0c-1.1 0-2-.9-2-2h0M18 11v5c0 1.1.9 2 2 2h0c1.1 0 2-.9 2-2h0M14 11v10c0 1.1.9 2 2 2h0c1.1 0 2-.9 2-2h0" data-color="color-2" vector-effect="non-scaling-stroke"/><path d="M2 11C2 5.5 6.5 1 12 1s10 4.5 10 10H2z" vector-effect="non-scaling-stroke"/></g></svg>
