<svg id="nc_icon" xmlns="http://www.w3.org/2000/svg" xml:space="preserve" viewBox="0 0 24 24"><g fill="none" stroke="currentColor" stroke-linecap="square" stroke-miterlimit="10" class="nc-icon-wrapper"><path d="M16.564 19.627s-1.793 2.771-4.717 3.283C9.6 23.303 7 20.42 7 20.42s1.752-1.958 3.999-2.351c2.638-.462 5.565 1.558 5.565 1.558zM1.669 13.845s2.036-1.694 4.398-1.388c1.815.235 3.118 3.065 3.118 3.065s-1.81 1.081-3.625.846c-2.132-.276-3.891-2.523-3.891-2.523zM11.754 10.228S9.811 8.114 10.016 5.54C10.173 3.562 13.167 2 13.167 2s1.268 1.902 1.11 3.88c-.184 2.323-2.523 4.348-2.523 4.348zM16.643 11s-1.33 3.001-.165 5.713c.895 2.084 4.71 2.678 4.71 2.678s.676-2.524-.219-4.608C19.917 12.336 16.643 11 16.643 11z" data-color="color-2" vector-effect="non-scaling-stroke"/><path d="M23 20C13.611 20 6 12.389 6 3" vector-effect="non-scaling-stroke"/></g></svg>
