<svg id="nc_icon" xmlns="http://www.w3.org/2000/svg" xml:space="preserve" viewBox="0 0 24 24"><g fill="none" stroke="currentColor" stroke-linecap="square" stroke-miterlimit="10" class="nc-icon-wrapper"><path d="M21.645 9.999A3.99 3.99 0 0 1 23 13v4a4 4 0 0 1-4 4h-9a4 4 0 0 1-4-4v-4a4 4 0 0 1 4-4h4" data-color="color-2" vector-effect="non-scaling-stroke"/><path d="M2.355 14.001A3.99 3.99 0 0 1 1 11V7a4 4 0 0 1 4-4h9a4 4 0 0 1 4 4v4a4 4 0 0 1-4 4h-4" vector-effect="non-scaling-stroke"/></g></svg>
