<svg id="nc_icon" xmlns="http://www.w3.org/2000/svg" xml:space="preserve" viewBox="0 0 24 24"><g fill="none" stroke="currentColor" stroke-miterlimit="10" class="nc-icon-wrapper"><path d="M5 9c0 2 1.7 4.2 3.6 4.8M18.9 9c0 2-1.6 4.2-3.5 4.8" data-cap="butt" data-color="color-2" vector-effect="non-scaling-stroke"/><path d="m13 20 2-4c.6-1.2.6-2.7-.1-3.8l-1.4-2.3c-.3-.6-.9-.9-1.5-.9s-1.2.3-1.5.9l-1.4 2.3c-.7 1.1-.7 2.5-.1 3.8l2 4" data-cap="butt" vector-effect="non-scaling-stroke"/><path stroke-linecap="square" d="M7.8 2.1C7.3 3.2 6.3 4 5 4s-2.3-.8-2.8-1.9C1.5 2.9 1 3.9 1 5c0 2.2 1.8 4 4 4s4-1.8 4-4c0-1.1-.5-2.1-1.2-2.9zM21.8 2.1C21.3 3.2 20.3 4 19 4s-2.3-.8-2.8-1.9C15.5 2.9 15 3.9 15 5c0 2.2 1.8 4 4 4s4-1.8 4-4c0-1.1-.5-2.1-1.2-2.9zM13 20h-2c-1.7 0-3 1.3-3 3h8c0-1.7-1.3-3-3-3z" vector-effect="non-scaling-stroke"/></g></svg>
