<svg id="nc_icon" xmlns="http://www.w3.org/2000/svg" xml:space="preserve" viewBox="0 0 24 24"><g fill="none" stroke="currentColor" stroke-miterlimit="10" class="nc-icon-wrapper"><path d="M19 18V6" data-cap="butt" data-color="color-2" vector-effect="non-scaling-stroke"/><path stroke-linecap="square" d="M7 7h0a3 3 0 0 1-3-3h0a3 3 0 0 1 3-3h0a3 3 0 0 1 3 3h0a3 3 0 0 1-3 3zM10 23H4v-5H2v-6a2 2 0 0 1 2-2h6a2 2 0 0 1 2 2v6h-2v5z" vector-effect="non-scaling-stroke"/><path stroke-linecap="square" d="m16 9 3-3 3 3" data-color="color-2" vector-effect="non-scaling-stroke"/></g></svg>
