<svg id="nc_icon" xmlns="http://www.w3.org/2000/svg" xml:space="preserve" viewBox="0 0 24 24"><g fill="none" stroke="currentColor" stroke-miterlimit="10" class="nc-icon-wrapper"><path d="M18 8v13a2 2 0 0 1-2 2H6a2 2 0 0 1-2-2V3a2 2 0 0 1 2-2h10a2 2 0 0 1 2 2v1" data-cap="butt" vector-effect="non-scaling-stroke"/><circle cx="11" cy="19" r="1" stroke-linecap="square" vector-effect="non-scaling-stroke"/><path d="M4 5h13M15 15h3M4 15h5" data-cap="butt" vector-effect="non-scaling-stroke"/><path stroke-linecap="square" d="m15 11-2-2 7-7a1.415 1.415 0 0 1 2 0h0a1.415 1.415 0 0 1 0 2l-7 7zM9.688 11.568a1.94 1.94 0 1 1 2.744 2.744c-.758.758-3.43.686-3.43.686s-.072-2.672.686-3.43z" data-color="color-2" vector-effect="non-scaling-stroke"/></g></svg>
