<svg id="nc_icon" xmlns="http://www.w3.org/2000/svg" xml:space="preserve" viewBox="0 0 24 24"><g fill="none" stroke="currentColor" stroke-miterlimit="10" class="nc-icon-wrapper"><path d="M3.1 11.5 6 23h12l2.9-11.5M10 23l-1-6M14 23l1-6" data-cap="butt" data-color="color-2" vector-effect="non-scaling-stroke"/><path stroke-linecap="square" d="M19 4c-.6 0-1.1.1-1.6.4-1-2-3-3.4-5.4-3.4S7.6 2.4 6.6 4.4C6.1 4.1 5.6 4 5 4 2.8 4 1 5.8 1 8s1.8 4 4 4c1 0 1.9-.4 2.6-1 1.1 1.2 2.7 2 4.4 2s3.3-.8 4.4-2c.7.6 1.6 1 2.6 1 2.2 0 4-1.8 4-4s-1.8-4-4-4z" vector-effect="non-scaling-stroke"/></g></svg>
