<svg id="nc_icon" xmlns="http://www.w3.org/2000/svg" xml:space="preserve" viewBox="0 0 24 24"><g fill="none" stroke="currentColor" stroke-linecap="square" stroke-miterlimit="10" class="nc-icon-wrapper"><path d="M4 7h0a2 2 0 0 1-2-2h0a2 2 0 0 1 2-2h0a2 2 0 0 1 2 2h0a2 2 0 0 1-2 2zM6 21H3v-4H1v-5a2 2 0 0 1 2-2h1M20 7h0a2 2 0 0 0 2-2h0a2 2 0 0 0-2-2h0a2 2 0 0 0-2 2h0a2 2 0 0 0 2 2zM18 21h3v-4h2v-5a2 2 0 0 0-2-2h-1" data-color="color-2" vector-effect="non-scaling-stroke"/><path d="M12 7h0a3 3 0 0 1-3-3h0a3 3 0 0 1 3-3h0a3 3 0 0 1 3 3h0a3 3 0 0 1-3 3zM15 23H9v-6H7v-5a2 2 0 0 1 2-2h6a2 2 0 0 1 2 2v6h-2v5z" vector-effect="non-scaling-stroke"/></g></svg>
