<svg id="nc_icon" xmlns="http://www.w3.org/2000/svg" xml:space="preserve" viewBox="0 0 24 24"><g fill="none" stroke="currentColor" stroke-miterlimit="10" class="nc-icon-wrapper"><path d="M16.667 15H23v-3.94c0-.685-.359-1.32-.947-1.672l-2.825-1.695" data-cap="butt" data-color="color-2" vector-effect="non-scaling-stroke"/><path d="M13.248 3.199A3.498 3.498 0 0 1 16.5 1 3.5 3.5 0 0 1 20 4.5v1A3.5 3.5 0 0 1 16.5 9c-.547 0-1.039-.12-1.5-.344" data-cap="butt" data-color="color-2" vector-effect="non-scaling-stroke"/><path d="m6.858 12.89-4.547 2.724A2.698 2.698 0 0 0 1 17.929V22h18v-4.071a2.7 2.7 0 0 0-1.311-2.315l-4.547-2.724" data-cap="butt" vector-effect="non-scaling-stroke"/><path stroke-linecap="square" d="M10 14h0a5 5 0 0 1-5-5V7a5 5 0 0 1 5-5h0a5 5 0 0 1 5 5v2a5 5 0 0 1-5 5z" vector-effect="non-scaling-stroke"/></g></svg>
