<svg id="nc_icon" xmlns="http://www.w3.org/2000/svg" xml:space="preserve" viewBox="0 0 24 24"><g fill="none" stroke="currentColor" stroke-miterlimit="10" class="nc-icon-wrapper"><path d="m6.897 13.514-.94 4.702A4 4 0 0 0 9.879 23h4.242a4 4 0 0 0 3.922-4.784l-.938-4.69M13.374 1.114A4.977 4.977 0 0 0 13 3a5 5 0 0 0 5 5c1.405 0 2.67-.584 3.579-1.517" data-cap="butt" data-color="color-2" vector-effect="non-scaling-stroke"/><circle cx="8.5" cy="8.5" r="2.5" data-cap="butt" data-color="color-2" vector-effect="non-scaling-stroke"/><path stroke-linecap="square" d="M1 10c0-2.938 4.925-9 11-9s11 6.063 11 9c0 2.125-4.925 4-11 4S1 12.062 1 10z" vector-effect="non-scaling-stroke"/></g></svg>
