<svg id="nc_icon" xmlns="http://www.w3.org/2000/svg" xml:space="preserve" viewBox="0 0 24 24"><g fill="none" class="nc-icon-wrapper"><path stroke="currentColor" stroke-miterlimit="10" d="M16.609 4H20a3 3 0 0 1 3 3v13a3 3 0 0 1-3 3H4a3 3 0 0 1-3-3V7a3 3 0 0 1 3-3h3.391" data-cap="butt" vector-effect="non-scaling-stroke"/><path stroke="currentColor" stroke-miterlimit="10" d="M19 10v9H5v-9" data-cap="butt" vector-effect="non-scaling-stroke"/><path stroke="currentColor" stroke-linecap="square" stroke-miterlimit="10" d="M17 6c0 3.086-5 8.125-5 8.125S7 9.086 7 6c0-3.164 2.584-5 5-5s5 1.836 5 5z" data-color="color-2" vector-effect="non-scaling-stroke"/><circle cx="12" cy="6" r="1" data-color="color-2" stroke="currentColor" stroke-linecap="square" stroke-miterlimit="10" fill="none" vector-effect="non-scaling-stroke"/></g></svg> 