<svg id="nc_icon" xmlns="http://www.w3.org/2000/svg" xml:space="preserve" viewBox="0 0 24 24"><g fill="none" stroke="currentColor" stroke-miterlimit="10" class="nc-icon-wrapper"><path stroke-linecap="square" d="M2.3 19.6 15.7 2.8c1.3-1.6 3.8-1.8 5.2-.3h0c1.5 1.5 1.3 3.9-.3 5.2L3.8 21.2c-1 .8-2.3-.6-1.5-1.6z" vector-effect="non-scaling-stroke"/><path stroke-linecap="square" d="m17.1 6.4 1.1-1.1" data-color="color-2" vector-effect="non-scaling-stroke"/><path d="m10.1 16.2 6.3 6.3M19.9 8.3l.9.9c1.2 1.2 1.2 3.2 0 4.4-1.2 1.2-3.2 1.2-4.4 0L8.7 5.9c-1.2-1.2-3.2-1.2-4.4 0C3 7.2 3 9.1 4.3 10.4l3 3" data-cap="butt" vector-effect="non-scaling-stroke"/></g></svg>
