<svg id="nc_icon" xmlns="http://www.w3.org/2000/svg" xml:space="preserve" viewBox="0 0 24 24"><g fill="none" class="nc-icon-wrapper"><path stroke="currentColor" stroke-linecap="square" stroke-miterlimit="10" d="M6.98 20.366C7.458 19.569 2.917 12 1.961 12c.956 0 5.498-7.569 5.02-8.366.478.797 9.561.797 10.039 0-.478.797 4.063 8.366 5.019 8.366-.956 0-5.498 7.569-5.02 8.366-.477-.797-9.561-.797-10.039 0z" vector-effect="non-scaling-stroke"/><path stroke="currentColor" stroke-linecap="square" stroke-miterlimit="10" d="M9.594 16.017C9.823 15.635 7.457 12 6.978 12c.478 0 2.845-3.635 2.615-4.017.229.383 4.583.383 4.812 0-.228.382 2.138 4.017 2.617 4.017-.478 0-2.845 3.635-2.615 4.017-.23-.382-4.584-.382-4.813 0zM16.988 12H23M1 12h6.012M14.406 16.017l3.284 5.397M6.31 2.586l3.284 5.397M9.594 16.017 6.31 21.414M17.69 2.586l-3.288 5.405" vector-effect="non-scaling-stroke"/><circle cx="12" cy="12" r="1" data-color="color-2" data-stroke="none"/></g></svg>
