<svg id="nc_icon" xmlns="http://www.w3.org/2000/svg" xml:space="preserve" viewBox="0 0 24 24"><g fill="none" stroke="currentColor" stroke-miterlimit="10" class="nc-icon-wrapper"><path d="M9.455 18.086 6.212 19.48A2.002 2.002 0 0 0 5 21.319V23h14v-1.681a2 2 0 0 0-1.212-1.838l-3.251-1.388" data-cap="butt" vector-effect="non-scaling-stroke"/><circle cx="12" cy="3" r="2" stroke-linecap="square" data-color="color-2" vector-effect="non-scaling-stroke"/><circle cx="21" cy="8" r="2" stroke-linecap="square" data-color="color-2" vector-effect="non-scaling-stroke"/><circle cx="3" cy="8" r="2" stroke-linecap="square" data-color="color-2" vector-effect="non-scaling-stroke"/><path stroke-linecap="square" d="M12 19h0a4 4 0 0 1-4-4v-1a4 4 0 0 1 4-4h0a4 4 0 0 1 4 4v1a4 4 0 0 1-4 4z" vector-effect="non-scaling-stroke"/></g></svg>
