<svg id="nc_icon" xmlns="http://www.w3.org/2000/svg" xml:space="preserve" viewBox="0 0 24 24"><g fill="none" class="nc-icon-wrapper"><path stroke="currentColor" stroke-linecap="square" stroke-miterlimit="10" d="M1 5h22M1 19h22" vector-effect="non-scaling-stroke"/><path d="M7.154 15.5H5.285l-3.018-5.295s.048 1.66.048 5.295H1v-7h1.855l3.013 5.243S5.835 9.683 5.83 8.5h1.324v7zM12.963 15.5H8.968v-7h3.995v1.216h-2.524v1.537h2.349v1.216h-2.349v1.805h2.524V15.5zM21.235 15.5H19.56l-.94-3.677c-.069-.26-.296-1.34-.322-1.638-.04.362-.238 1.33-.318 1.647l-.935 3.668h-1.67l-1.77-7h1.447l.887 3.821c.155.705.267 1.316.337 1.834.14-.925.953-4.217 1.333-5.655H19l1.011 3.921c.102.406.259 1.297.318 1.733.066-.519.233-1.396.342-1.834l.882-3.82H23l-1.765 7z" data-color="color-2" data-stroke="none"/></g></svg>
