<svg id="nc_icon" xmlns="http://www.w3.org/2000/svg" xml:space="preserve" viewBox="0 0 24 24"><g fill="none" stroke="currentColor" stroke-linecap="square" stroke-miterlimit="10" class="nc-icon-wrapper"><path d="M11.2 14.8C7.6 11.1 7 5.5 9.6 1.3c-2 .4-3.9 1.4-5.4 3-4.3 4.3-4.3 11.3 0 15.6 4.3 4.3 11.3 4.3 15.6 0 .6-.6 1.2-1.3 1.6-2-3.6.6-7.4-.4-10.2-3.1z" vector-effect="non-scaling-stroke"/><path d="M22 10c-1.4-1.4-4.6-1.4-6 0 1.4-1.4 1.4-4.6 0-6 1.4 1.4 4.6 1.4 6 0-1.4 1.4-1.4 4.6 0 6z" data-color="color-2" vector-effect="non-scaling-stroke"/></g></svg>
