<svg id="nc_icon" xmlns="http://www.w3.org/2000/svg" viewBox="0 0 24 24"><g fill="none" stroke="currentColor" stroke-linecap="square" stroke-miterlimit="10" class="nc-icon-wrapper"><path d="M18.255 5a21.414 21.414 0 0 1 2.36-1.59s3.434 6.181 2.061 10.99c-.852 2.981-2.667 4.438-4.676 4.589M5.745 5a21.414 21.414 0 0 0-2.36-1.59S-.049 9.591 1.324 14.4c.852 2.979 2.667 4.436 4.676 4.587" data-color="color-2" vector-effect="non-scaling-stroke"/><path d="M12 23V13M7 12c0-5 5-10 5-10s5 5 5 10c0 4-2.239 6-5 6s-5-2-5-6Z" vector-effect="non-scaling-stroke"/></g></svg>
