<svg id="nc_icon" xmlns="http://www.w3.org/2000/svg" xml:space="preserve" viewBox="0 0 24 24"><g fill="none" stroke="currentColor" stroke-miterlimit="10" class="nc-icon-wrapper"><path d="M19.484 5C17.87 2.588 15.12 1 12 1S6.13 2.588 4.516 5M4.186 14.132C6.346 18.486 10.813 23 12 23s5.653-4.514 7.814-8.868" data-cap="butt" data-color="color-2" vector-effect="non-scaling-stroke"/><path d="M4 14c-1.22.912-2 2.36-2 4 0 1.13.39 2.162 1.023 3 1.005-1.33 2.61-2.13 4.41-1.979M20 14c1.22.912 2 2.36 2 4 0 1.13-.39 2.162-1.023 3-1.005-1.33-2.61-2.13-4.41-1.979" data-cap="butt" data-color="color-2" vector-effect="non-scaling-stroke"/><path d="M10.117 13.912A4.969 4.969 0 0 1 7 15a5 5 0 0 1-5-5c0-.701.138-1.355.4-1.96M13.883 13.912A4.969 4.969 0 0 0 17 15a5 5 0 0 0 5-5 4.91 4.91 0 0 0-.4-1.96" data-cap="butt" vector-effect="non-scaling-stroke"/><circle cx="7" cy="10" r="1" stroke-linecap="square" vector-effect="non-scaling-stroke"/><path stroke-linecap="square" d="M12 9H5a4 4 0 0 1-4-4v0h7a4 4 0 0 1 4 4v0zM10 13c0-1.105.895-4 2-4s2 2.895 2 4-.895 4-2 4-2-2.895-2-4z" vector-effect="non-scaling-stroke"/><circle cx="17" cy="10" r="1" stroke-linecap="square" vector-effect="non-scaling-stroke"/><path stroke-linecap="square" d="M12 9h7a4 4 0 0 0 4-4v0h-7a4 4 0 0 0-4 4v0z" vector-effect="non-scaling-stroke"/></g></svg>
