<svg id="nc_icon" xmlns="http://www.w3.org/2000/svg" xml:space="preserve" viewBox="0 0 24 24"><g fill="none" class="nc-icon-wrapper"><path stroke="currentColor" stroke-linecap="square" stroke-miterlimit="10" d="M10 23H3a2 2 0 0 1-2-2V3a2 2 0 0 1 2-2h12a2 2 0 0 1 2 2v5" vector-effect="non-scaling-stroke"/><circle cx="9" cy="19" r="1" data-stroke="none"/><circle cx="18" cy="18" r="3" stroke="currentColor" stroke-linecap="square" stroke-miterlimit="10" data-color="color-2" vector-effect="non-scaling-stroke"/><path stroke="currentColor" stroke-linecap="square" stroke-miterlimit="10" d="M18 15v-2M20.121 15.879l1.415-1.415M21 18h2M20.121 20.121l1.415 1.415M18 21v2M15.879 20.121l-1.415 1.415M15 18h-2M15.879 15.879l-1.415-1.415" data-color="color-2" vector-effect="non-scaling-stroke"/></g></svg>
