<svg id="nc_icon" xmlns="http://www.w3.org/2000/svg" xml:space="preserve" viewBox="0 0 24 24"><g fill="none" class="nc-icon-wrapper"><path stroke="currentColor" stroke-linecap="square" stroke-miterlimit="10" d="M10 23H3a2 2 0 0 1-2-2V3a2 2 0 0 1 2-2h12a2 2 0 0 1 2 2v7" vector-effect="non-scaling-stroke"/><circle cx="9" cy="18" r="1" stroke="currentColor" stroke-linecap="square" stroke-miterlimit="10" fill="none" vector-effect="non-scaling-stroke"/><path stroke="currentColor" stroke-miterlimit="10" d="M14.126 17a4.002 4.002 0 0 1 7.338-1.001" data-cap="butt" data-color="color-2" vector-effect="non-scaling-stroke"/><path d="M23.22 13.649 22.792 18l-4.27-.939z" data-color="color-2" stroke="currentColor" stroke-linecap="square" stroke-miterlimit="10" fill="none" vector-effect="non-scaling-stroke"/><path stroke="currentColor" stroke-miterlimit="10" d="M21.874 20a4.002 4.002 0 0 1-7.338 1.001" data-cap="butt" data-color="color-2" vector-effect="non-scaling-stroke"/><path d="M12.78 23.351 13.208 19l4.27.939z" data-color="color-2" stroke="currentColor" stroke-linecap="square" stroke-miterlimit="10" fill="none" vector-effect="non-scaling-stroke"/></g></svg> 