<svg id="nc_icon" xmlns="http://www.w3.org/2000/svg" xml:space="preserve" viewBox="0 0 24 24"><g fill="none" stroke="currentColor" stroke-miterlimit="10" class="nc-icon-wrapper"><path d="M4 13h16" data-cap="butt" data-color="color-2" vector-effect="non-scaling-stroke"/><path stroke-linecap="square" d="M16 19a4 4 0 0 0 4 4V12a3 3 0 0 0-3-3h-3V3.107c0-.996-.681-1.92-1.664-2.08A2.002 2.002 0 0 0 10 3v6H7a3 3 0 0 0-3 3v11a4 4 0 0 0 4-4" vector-effect="non-scaling-stroke"/><path stroke-linecap="square" d="M8 19a4 4 0 0 0 8 0" vector-effect="non-scaling-stroke"/></g></svg>
