<svg id="nc_icon" xmlns="http://www.w3.org/2000/svg" xml:space="preserve" viewBox="0 0 24 24"><g fill="none" stroke="currentColor" stroke-miterlimit="10" class="nc-icon-wrapper"><path d="M20 4v-.5C20 2.1 18.9 1 17.5 1h-14C4.9 1 6 2.1 6 3.5v17C6 21.9 7.1 23 8.5 23H20M20 20V8" data-cap="butt" vector-effect="non-scaling-stroke"/><path stroke-linecap="square" d="m16 12-2-2 6-6c.6-.6 1.4-.6 2 0h0c.6.6.6 1.4 0 2l-6 6z" data-color="color-2" vector-effect="non-scaling-stroke"/><path stroke-linecap="square" d="M11 20v.5c0 2.2-2.5 2.5-2.5 2.5h12c1.4 0 2.5-1.1 2.5-2.5V20H11zM6 4H1v-.5C1 2.1 2.1 1 3.5 1h0C4.9 1 6 2.1 6 3.5V4z" vector-effect="non-scaling-stroke"/><path stroke-linecap="square" d="M10.7 12.5c.8-.8 2-.8 2.8 0s.8 2 0 2.8c-.7.8-3.5.7-3.5.7s-.1-2.8.7-3.5z" data-color="color-2" vector-effect="non-scaling-stroke"/></g></svg>
