<svg id="nc_icon" xmlns="http://www.w3.org/2000/svg" viewBox="0 0 24 24"><g fill="none" class="nc-icon-wrapper"><path stroke="currentColor" stroke-miterlimit="10" d="m15.707 10.007 2.744-6.85a1.838 1.838 0 0 1 2.393-1.019 1.419 1.419 0 0 1 .138.062 1.839 1.839 0 0 1 .818 2.469 1.668 1.668 0 0 1-.072.131l-3.425 5.65" data-cap="butt" vector-effect="non-scaling-stroke"/><path stroke="currentColor" stroke-linecap="square" stroke-miterlimit="10" d="M1 17h22" vector-effect="non-scaling-stroke"/><path stroke="currentColor" stroke-miterlimit="10" d="m22 17-.491 1.228A6 6 0 0 1 15.938 22H8.062a6 6 0 0 1-5.571-3.772L2 17" data-cap="butt" vector-effect="non-scaling-stroke"/><path d="M12 6v2a3 3 0 0 1-3-3V3a3 3 0 0 1 3 3Z" data-cap="butt" data-stroke="none"/><path stroke="currentColor" stroke-miterlimit="10" d="M3 14c0-2.209 2.239-4 5-4a5.487 5.487 0 0 1 4 1.6" data-cap="butt" data-color="color-2" vector-effect="non-scaling-stroke"/><path stroke="currentColor" stroke-miterlimit="10" d="M11 14c0-2.209 2.239-4 5-4s5 1.791 5 4" data-cap="butt" data-color="color-2" vector-effect="non-scaling-stroke"/></g></svg>
