<svg id="nc_icon" xmlns="http://www.w3.org/2000/svg" viewBox="0 0 24 24"><g fill="none" class="nc-icon-wrapper"><path stroke="currentColor" stroke-miterlimit="10" d="M12.082 10.587a11.862 11.862 0 0 1 .794-1.339C15.7 5.121 19.87 4.339 21.52 5.469s2.433 5.3-.391 9.425c-2.592 3.789-6.32 4.759-8.19 4.018M21.52 5.469l-8.521 12.453" data-cap="butt" data-color="color-2" vector-effect="non-scaling-stroke"/><circle cx="8" cy="15" r="1" data-cap="butt" stroke="currentColor" stroke-linecap="square" stroke-miterlimit="10" fill="none" vector-effect="non-scaling-stroke"/><circle cx="6" cy="18" r="1" data-cap="butt" stroke="currentColor" stroke-linecap="square" stroke-miterlimit="10" fill="none" vector-effect="non-scaling-stroke"/><circle cx="10" cy="18" r="1" data-cap="butt" stroke="currentColor" stroke-linecap="square" stroke-miterlimit="10" fill="none" vector-effect="non-scaling-stroke"/><path stroke="currentColor" stroke-miterlimit="10" d="M13 6a4.681 4.681 0 0 0-5-5 4.681 4.681 0 0 0-5 5c0 2 1 3 1 6s-1 4-1 6a4.681 4.681 0 0 0 5 5 4.681 4.681 0 0 0 5-5c0-2-1-3-1-6s1-4 1-6Z" data-cap="butt" vector-effect="non-scaling-stroke"/></g></svg> 