<svg id="nc_icon" xmlns="http://www.w3.org/2000/svg" viewBox="0 0 24 24"><g fill="none" class="nc-icon-wrapper"><path stroke="currentColor" stroke-miterlimit="10" d="M20.08 3.67A7.76 7.76 0 0 0 22 1" data-cap="butt" vector-effect="non-scaling-stroke"/><path stroke="currentColor" stroke-linecap="square" stroke-miterlimit="10" d="M19.278 3.268a4.192 4.192 0 0 0-5.4 2.454 17.6 17.6 0 0 1-1.133 2.425 1.991 1.991 0 0 0-2.286 3.116 13.54 13.54 0 0 1-5.593 3.565 4.193 4.193 0 1 0 2.654 7.955 22.223 22.223 0 0 0 3.81-1.683 2 2 0 1 0 3.294-2.258 24 24 0 0 0 7.108-10.176 4.193 4.193 0 0 0-2.454-5.398Z" vector-effect="non-scaling-stroke"/><circle cx="7" cy="18" r="1" data-cap="butt" data-color="color-2" stroke="currentColor" stroke-linecap="square" stroke-miterlimit="10" fill="none" vector-effect="non-scaling-stroke"/><circle cx="13" cy="15" r="1" data-cap="butt" data-color="color-2" stroke="currentColor" stroke-linecap="square" stroke-miterlimit="10" fill="none" vector-effect="non-scaling-stroke"/><circle cx="17" cy="9" r="1" data-cap="butt" data-color="color-2" stroke="currentColor" stroke-linecap="square" stroke-miterlimit="10" fill="none" vector-effect="non-scaling-stroke"/></g></svg> 