<svg id="nc_icon" xmlns="http://www.w3.org/2000/svg" xml:space="preserve" viewBox="0 0 24 24"><g fill="none" stroke="currentColor" stroke-linecap="square" stroke-miterlimit="10" class="nc-icon-wrapper"><path d="M12 19.813C10.852 21.141 10 22 10 22S2 13.938 2 9c0-5.062 4.134-8 8-8s8 2.938 8 8c0 .916-.276 1.94-.724 3" vector-effect="non-scaling-stroke"/><path d="M22.361 15.631a2.199 2.199 0 0 0-3.361.333 2.199 2.199 0 0 0-3.361-.333 2.137 2.137 0 0 0 0 3.048L19 22l3.361-3.321a2.137 2.137 0 0 0 0-3.048z" data-color="color-2" vector-effect="non-scaling-stroke"/><circle cx="10" cy="9" r="3" vector-effect="non-scaling-stroke"/></g></svg>
