<svg id="nc_icon" xmlns="http://www.w3.org/2000/svg" xml:space="preserve" viewBox="0 0 24 24"><g fill="none" class="nc-icon-wrapper"><path stroke="currentColor" stroke-linecap="square" stroke-miterlimit="10" d="M9 5c0 2.469-4 6-4 6S1 7.469 1 5c0-2.531 2.067-4 4-4s4 1.469 4 4zM23 5c0 2.469-4 6-4 6s-4-3.531-4-6c0-2.531 2.067-4 4-4s4 1.469 4 4z" vector-effect="non-scaling-stroke"/><circle cx="5" cy="5" r="1" stroke="currentColor" stroke-linecap="square" stroke-miterlimit="10" fill="none" vector-effect="non-scaling-stroke"/><circle cx="19" cy="5" r="1" stroke="currentColor" stroke-linecap="square" stroke-miterlimit="10" fill="none" vector-effect="non-scaling-stroke"/><path stroke="currentColor" stroke-linecap="square" stroke-miterlimit="10" d="M16 16c0 2.469-4 6-4 6s-4-3.531-4-6c0-2.531 2.067-4 4-4s4 1.469 4 4z" data-color="color-2" vector-effect="non-scaling-stroke"/><circle cx="12" cy="16" r="1" data-color="color-2" stroke="currentColor" stroke-linecap="square" stroke-miterlimit="10" fill="none" vector-effect="non-scaling-stroke"/></g></svg> 