<svg id="nc_icon" xmlns="http://www.w3.org/2000/svg" xml:space="preserve" viewBox="0 0 24 24"><g fill="none" class="nc-icon-wrapper"><path stroke="currentColor" stroke-linecap="square" stroke-miterlimit="10" d="M19.945 8.831c.105 4.936-7.722 13.167-7.722 13.167S4.054 14.107 3.949 9.17c-.107-5.061 3.963-8.086 7.828-8.168s8.061 2.767 8.168 7.829z" vector-effect="non-scaling-stroke"/><path d="M9.078 4.434h2.666c1.215 0 2.097.173 2.646.519s.823.896.823 1.649c0 .512-.12.932-.36 1.26s-.56.525-.958.592v.059c.543.121.935.348 1.175.68s.36.773.36 1.324c0 .781-.282 1.391-.847 1.828s-1.331.655-2.3.655H9.078V4.434zm1.817 3.392h1.055c.492 0 .849-.076 1.069-.229s.331-.404.331-.756c0-.328-.12-.563-.36-.706s-.62-.214-1.14-.214h-.955v1.905zm0 1.442V11.5h1.184c.5 0 .869-.096 1.107-.287s.357-.484.357-.879c0-.711-.508-1.066-1.523-1.066h-1.125z" data-color="color-2" stroke="currentColor" stroke-linecap="square" stroke-miterlimit="10" fill="none" vector-effect="non-scaling-stroke"/></g></svg> 