<svg id="nc_icon" xmlns="http://www.w3.org/2000/svg" xml:space="preserve" viewBox="0 0 24 24"><g fill="none" stroke="currentColor" stroke-linecap="square" stroke-miterlimit="10" class="nc-icon-wrapper"><path d="M5 19V3c0-1.1.9-2 2-2h0M19 19V3c0-1.1-.9-2-2-2h0M5 16h14M5 11h14M5 6h14" vector-effect="non-scaling-stroke"/><path d="M1 19c0 2.2 1.8 4 4 4 1.5 0 2.8-.9 3.5-2.1.7 1.2 2 2.1 3.5 2.1s2.8-.9 3.5-2.1c.7 1.2 2 2.1 3.5 2.1 2.2 0 4-1.8 4-4" data-color="color-2" vector-effect="non-scaling-stroke"/></g></svg>
