<svg id="nc_icon" xmlns="http://www.w3.org/2000/svg" xml:space="preserve" viewBox="0 0 24 24"><g fill="none" stroke="currentColor" stroke-miterlimit="10" class="nc-icon-wrapper"><circle cx="9" cy="11" r="1" stroke-linecap="square" data-color="color-2" vector-effect="non-scaling-stroke"/><circle cx="15" cy="11" r="1" stroke-linecap="square" data-color="color-2" vector-effect="non-scaling-stroke"/><path d="M5.239 10.87C2.815 10.348 1 8.363 1 6c0-2.761 2.462-5 5.5-5 1.822 0 3.465.824 4.466 2.065M18.761 10.87C21.185 10.348 23 8.363 23 6c0-2.761-2.462-5-5.5-5-1.822 0-3.465.824-4.466 2.065" data-cap="butt" vector-effect="non-scaling-stroke"/><path stroke-linecap="square" d="M5 9c0-3.314 3.134-6 7-6s7 2.686 7 6-4 14-7 14C8.958 23 5 12.314 5 9z" vector-effect="non-scaling-stroke"/><path stroke-linecap="square" d="m4 21.172 6-1.022M3 16.583l6.367.955M20 21.172l-6-1.022M21 16.583l-6.367.955" data-color="color-2" vector-effect="non-scaling-stroke"/></g></svg>
