<svg id="nc_icon" xmlns="http://www.w3.org/2000/svg" xml:space="preserve" viewBox="0 0 24 24"><g fill="none" stroke="currentColor" stroke-miterlimit="10" class="nc-icon-wrapper"><path d="M16.9 4.2 19 2.1c.8-.8 2-.8 2.8 0 .8.8.8 2 0 2.8L19.7 7M7.1 19.8 5 21.9c-.8.8-2 .8-2.8 0-.8-.8-.8-2 0-2.8L4.3 17" data-cap="butt" data-color="color-2" vector-effect="non-scaling-stroke"/><path stroke-linecap="square" d="M7.1 19.8 4.3 17c-.4-.4-.4-1 0-1.4L15.5 4.2c.4-.4 1-.4 1.4 0L19.7 7c.4.4.4 1 0 1.4L8.5 19.8c-.4.4-1.1.4-1.4 0z" vector-effect="non-scaling-stroke"/></g></svg>
