<svg id="nc_icon" xmlns="http://www.w3.org/2000/svg" xml:space="preserve" viewBox="0 0 24 24"><g fill="none" class="nc-icon-wrapper"><path stroke="currentColor" stroke-linecap="square" stroke-miterlimit="10" d="M1 5h22M1 19h22" vector-effect="non-scaling-stroke"/><path d="M5.396 13.554c0 .63-.227 1.126-.68 1.489-.454.363-1.084.544-1.893.544-.745 0-1.403-.14-1.976-.42v-1.375c.644.287 1.386.573 2.091.573.552 0 1.007-.183 1.007-.74 0-.305-.199-.505-.451-.673-.583-.389-1.307-.568-1.864-1.05-1.003-.869-.862-2.294-.074-2.959.711-.6 1.9-.629 2.773-.401.329.086.674.207 1.033.363l-.477 1.15a7.09 7.09 0 0 0-.924-.32c-.414-.103-1.042-.175-1.362.105-.299.26-.359.781.155 1.134.132.091.444.254.938.489.652.312 1.099.625 1.341.938.242.313.363.698.363 1.153zM11.001 15.492l-.506-1.661H7.952l-.506 1.661H5.851l2.463-7.007h1.81l2.473 7.007h-1.596zm-.858-2.903c-.121-.39-.832-2.641-.917-3.021-.105.407-.406 1.415-.902 3.021h1.819zM13.542 15.492V8.513h1.479v5.757h2.831v1.222h-4.31zM23.153 15.492h-4.019V8.513h4.019v1.212h-2.54v1.533h2.363v1.212h-2.363v1.799h2.54v1.223z" data-color="color-2" stroke="currentColor" stroke-linecap="square" stroke-miterlimit="10" fill="none" vector-effect="non-scaling-stroke"/></g></svg> 