<svg id="nc_icon" xmlns="http://www.w3.org/2000/svg" xml:space="preserve" viewBox="0 0 24 24"><g fill="none" stroke="currentColor" stroke-miterlimit="10" class="nc-icon-wrapper"><path d="M18.071 18.071 23 23" data-cap="butt" vector-effect="non-scaling-stroke"/><path d="M11.992 10.737 14.2 12.4c.504.378.8.97.8 1.6v1H7v-1c0-.63.296-1.222.8-1.6l2.208-1.663" data-cap="butt" data-color="color-2" vector-effect="non-scaling-stroke"/><path stroke-linecap="square" d="M11 11h0a2 2 0 0 1-2-2V8a2 2 0 0 1 2-2h0a2 2 0 0 1 2 2v1a2 2 0 0 1-2 2z" data-color="color-2" vector-effect="non-scaling-stroke"/><circle cx="11" cy="11" r="10" stroke-linecap="square" vector-effect="non-scaling-stroke"/></g></svg>
