<svg id="nc_icon" xmlns="http://www.w3.org/2000/svg" xml:space="preserve" viewBox="0 0 24 24"><g fill="none" stroke="currentColor" stroke-miterlimit="10" class="nc-icon-wrapper"><path stroke-linecap="square" d="M9 1h6a1 1 0 0 1 1 1v3h0-8 0V2a1 1 0 0 1 1-1Z" data-color="color-2" vector-effect="non-scaling-stroke"/><path d="M12 5v4" data-cap="butt" data-color="color-2" vector-effect="non-scaling-stroke"/><path stroke-linecap="square" d="M22 23H2v-2a2 2 0 0 1 2-2h16a2 2 0 0 1 2 2Z" vector-effect="non-scaling-stroke"/><path d="m5 19 .82-8.2A2 2 0 0 1 7.81 9h8.38a2 2 0 0 1 1.99 1.8L19 19" data-cap="butt" vector-effect="non-scaling-stroke"/></g></svg>
