<svg id="nc_icon" xmlns="http://www.w3.org/2000/svg" xml:space="preserve" viewBox="0 0 24 24"><g fill="none" stroke="currentColor" stroke-miterlimit="10" class="nc-icon-wrapper"><path d="m11.3 16.5 5.4 5.4c1.4 1.4 3.6 1.4 5 0s1.4-3.6 0-5l-5-5M9.8 10.1 6.5 6.8" data-cap="butt" data-color="color-2" vector-effect="non-scaling-stroke"/><path stroke-linecap="square" d="m4.4 7.5 2.1-.7.7-2.1-2.8-2.8-2.8 2.8z" data-color="color-2" vector-effect="non-scaling-stroke"/><path stroke-linecap="square" d="m22.4 4.8-3 3-3.5-3.5 3-3c-.7-.3-1.4-.4-2.2-.3-2.8.2-5.1 2.7-5 5.6 0 .6.1 1.1.3 1.6l-9.6 8.5C1 18 .9 20.2 2.2 21.5h0c1.4 1.4 3.6 1.3 4.8-.2l8.5-9.6c.9.3 1.8.3 2.8.2 2-.4 3.6-1.9 4.2-3.9.3-1.1.3-2.2-.1-3.2z" vector-effect="non-scaling-stroke"/></g></svg>
