<svg id="nc_icon" xmlns="http://www.w3.org/2000/svg" xml:space="preserve" viewBox="0 0 24 24"><g fill="none" stroke="currentColor" stroke-linecap="square" stroke-miterlimit="10" class="nc-icon-wrapper"><path d="M1 23V12c0-1.1.9-2 2-2h0c1.1 0 2 .9 2 2v8M13 20v-8c0-1.1-.9-2-2-2h0c-1.1 0-2 .9-2 2v8M17 23v-9c0-1.1-.9-2-2-2h0c-1.1 0-2 .9-2 2v6M5 20V10c0-1.1.9-2 2-2h0c1.1 0 2 .9 2 2v10" vector-effect="non-scaling-stroke"/><path d="M19 10c0-2.8-2.2-5-5-5M23 10c0-5-4-9-9-9" data-color="color-2" vector-effect="non-scaling-stroke"/></g></svg>
