<svg id="nc_icon" xmlns="http://www.w3.org/2000/svg" xml:space="preserve" viewBox="0 0 24 24"><g fill="none" stroke="currentColor" stroke-miterlimit="10" class="nc-icon-wrapper"><path d="M12 18.667V23" data-cap="butt" data-color="color-2" vector-effect="non-scaling-stroke"/><path stroke-linecap="square" d="M10 15h4a.5.5 0 0 1 .4.8l-2 2.667a.5.5 0 0 1-.8 0l-2-2.667a.5.5 0 0 1 .4-.8zM9 11h1M14 11h1" data-color="color-2" vector-effect="non-scaling-stroke"/><path d="M7.247 5.529A4.998 4.998 0 0 0 5 5H1a5.008 5.008 0 0 0 4 4.898M16.753 5.529A4.998 4.998 0 0 1 19 5h4a5.008 5.008 0 0 1-4 4.898" data-cap="butt" vector-effect="non-scaling-stroke"/><path d="M15.776 5.14A4.323 4.323 0 0 1 19 9.32V16a7 7 0 1 1-14 0V9.32a4.324 4.324 0 0 1 3.337-4.208" data-cap="butt" vector-effect="non-scaling-stroke"/><path stroke-linecap="square" d="M13 1c-.943 0-1.775.444-2.325 1.125A1.982 1.982 0 0 0 10 2a2 2 0 1 0 0 4c.238 0 .463-.049.675-.125A2.981 2.981 0 0 0 13 7a3 3 0 1 0 0-6z" vector-effect="non-scaling-stroke"/></g></svg>
