<svg id="nc_icon" xmlns="http://www.w3.org/2000/svg" xml:space="preserve" viewBox="0 0 24 24"><g fill="none" class="nc-icon-wrapper"><path stroke="currentColor" stroke-miterlimit="10" d="M13.374 11.997A2.5 2.5 0 0 1 11 9.5a2.5 2.5 0 1 1-5 0C6 10.881 4.881 12 3.5 12S1 10.958 1 9l4-8h12l4 8" data-cap="butt" vector-effect="non-scaling-stroke"/><path stroke="currentColor" stroke-miterlimit="10" d="M4 12v9h8" data-cap="butt" vector-effect="non-scaling-stroke"/><path stroke="currentColor" stroke-linecap="square" stroke-miterlimit="10" d="M23 14c0 3.1-5 8.1-5 8.1s-5-5-5-8.1c0-3.2 2.6-5 5-5s5 1.8 5 5z" data-color="color-2" vector-effect="non-scaling-stroke"/><circle cx="18" cy="14" r="1" data-color="color-2" stroke="currentColor" stroke-linecap="square" stroke-miterlimit="10" fill="none" vector-effect="non-scaling-stroke"/></g></svg> 