<svg id="nc_icon" xmlns="http://www.w3.org/2000/svg" xml:space="preserve" viewBox="0 0 24 24"><g fill="none" stroke="currentColor" stroke-linecap="square" stroke-miterlimit="10" class="nc-icon-wrapper"><path d="M18.999 17.857C20.851 18.402 22 19.161 22 20c0 1.657-4.477 3-10 3S2 21.657 2 20c0-.839 1.149-1.598 3-2.142" data-color="color-2" vector-effect="non-scaling-stroke"/><path d="M14 20h-4v-5H8v-5a2 2 0 0 1 2-2h4a2 2 0 0 1 2 2v5h-2v5zM12 5h0a2 2 0 0 1-2-2h0a2 2 0 0 1 2-2h0a2 2 0 0 1 2 2h0a2 2 0 0 1-2 2z" vector-effect="non-scaling-stroke"/></g></svg>
