<svg id="nc_icon" xmlns="http://www.w3.org/2000/svg" xml:space="preserve" viewBox="0 0 24 24"><g fill="none" stroke="currentColor" stroke-linecap="square" stroke-miterlimit="10" class="nc-icon-wrapper"><path d="M12 12h0a5 5 0 0 1-5-5V6a5 5 0 0 1 5-5h0a5 5 0 0 1 5 5v1a5 5 0 0 1-5 5z" vector-effect="non-scaling-stroke"/><path d="M22 20.908a3.99 3.99 0 0 0-2.934-3.856C17.172 16.535 14.586 16 12 16s-5.172.535-7.066 1.052A3.99 3.99 0 0 0 2 20.908V23h20v-2.092z" data-color="color-2" vector-effect="non-scaling-stroke"/></g></svg>
