<svg id="nc_icon" xmlns="http://www.w3.org/2000/svg" xml:space="preserve" viewBox="0 0 24 24"><g fill="none" stroke="currentColor" stroke-miterlimit="10" class="nc-icon-wrapper"><path d="M16.472 16A5.985 5.985 0 0 1 12 18a5.994 5.994 0 0 1-5-2.683" data-cap="butt" vector-effect="non-scaling-stroke"/><path d="M20.113 16.124A9.965 9.965 0 0 1 11 22C5.477 22 1 17.523 1 12S5.477 2 11 2s10 4.477 10 10c0 .648-.065 1.293-.183 1.906" data-cap="butt" vector-effect="non-scaling-stroke"/><circle cx="8" cy="9" r="1" stroke-linecap="square" vector-effect="non-scaling-stroke"/><circle cx="15" cy="9" r="1" stroke-linecap="square" vector-effect="non-scaling-stroke"/><path stroke-linecap="square" d="M11.523 14.946a2 2 0 0 1 .93-3.89c1.074.256 10.882 3.062 10.538 4.576-.313 1.38-10.394-.43-11.468-.686z" data-color="color-2" vector-effect="non-scaling-stroke"/></g></svg>
