<svg id="nc_icon" xmlns="http://www.w3.org/2000/svg" xml:space="preserve" viewBox="0 0 24 24"><g fill="none" stroke="currentColor" stroke-miterlimit="10" class="nc-icon-wrapper"><path d="M1 8v5c0 3.1 3.1 8 11 8 8.2 0 11-.6 11-4v-5" data-cap="butt" data-color="color-2" vector-effect="non-scaling-stroke"/><path stroke-linecap="square" d="M6 3C3.1 3 1 5.2 1 8c0 3.1 3.1 8 11 8 8.2 0 11-.6 11-4 0-2.3-3-4-6-4-4.9 0-4.3-5-11-5z" vector-effect="non-scaling-stroke"/><path stroke-linecap="square" d="M10 9c0 .8-1.9 1.6-3.1 1.4C5.8 10.1 5 9.1 5 8.2s.5-1.7 1.6-1.7S10 7.9 10 9z" data-color="color-2" vector-effect="non-scaling-stroke"/></g></svg>
