<svg id="nc_icon" xmlns="http://www.w3.org/2000/svg" xml:space="preserve" viewBox="0 0 24 24"><g fill="none" stroke="currentColor" stroke-linecap="square" stroke-miterlimit="10" class="nc-icon-wrapper"><path d="M21 13h-6c0-3.8-1-4.6-1-7 0-3 1.8-5 4-5h0c2.2 0 4 2 4 5s-1 7-1 7z" vector-effect="non-scaling-stroke"/><path d="M18 21h0c-2.1 0-3.6-1.9-3.2-3.9L15 16h6l.2 1.1c.4 2-1.1 3.9-3.2 3.9z" data-color="color-2" vector-effect="non-scaling-stroke"/><path d="M3 15h6c0-3.8 1-4.6 1-7 0-3-1.8-5-4-5h0C3.8 3 2 5 2 8s1 7 1 7z" vector-effect="non-scaling-stroke"/><path d="M6 23h0c2.1 0 3.6-1.9 3.2-3.9L9 18H3l-.2 1.1C2.4 21.1 3.9 23 6 23z" data-color="color-2" vector-effect="non-scaling-stroke"/></g></svg>
