<svg id="nc_icon" xmlns="http://www.w3.org/2000/svg" viewBox="0 0 24 24"><g fill="none" class="nc-icon-wrapper"><path stroke="currentColor" stroke-linecap="square" stroke-miterlimit="10" d="M2 4V2h16v2M10 2v17M6 19h8" vector-effect="non-scaling-stroke"/><path d="M17.31 22v-.944l1.361-1.33c1.025-.995 1.462-1.401 1.462-1.979 0-.376-.183-.65-.721-.65-.559 0-.792.183-.792.904l-1.38-.122C17.249 16.264 18.477 16 19.543 16c1.574 0 2.132.67 2.132 1.624 0 .955-.66 1.584-1.401 2.294l-1.147 1.097h1.493c.101 0 .142-.02.162-.122l.142-.802H22V22h-4.69z" stroke="currentColor" stroke-linecap="square" stroke-miterlimit="10" fill="none" data-color="color-2" vector-effect="non-scaling-stroke"/></g></svg>
