<svg id="nc_icon" xmlns="http://www.w3.org/2000/svg" xml:space="preserve" viewBox="0 0 24 24"><g fill="none" stroke="currentColor" stroke-miterlimit="10" class="nc-icon-wrapper"><path stroke-linecap="square" d="M12 15v8M8.5 17l7 4M8.5 21l7-4" data-color="color-2" vector-effect="non-scaling-stroke"/><path d="M11.1 6c.5-2.8 2.9-5 5.9-5 3.3 0 6 2.7 6 6 0 1.2-.4 2.4-1 3.3" data-cap="butt" data-color="color-2" vector-effect="non-scaling-stroke"/><path stroke-linecap="square" d="M5 17c-2.2 0-4-1.8-4-4s1.8-4 4-4c.5 0 1 .1 1.5.3.8-1.9 2.8-3.3 5-3.3 2.4 0 4.5 1.6 5.2 3.7.7-.4 1.4-.7 2.3-.7 2.2 0 4 1.8 4 4s-1.8 4-4 4" vector-effect="non-scaling-stroke"/></g></svg>
