<svg id="nc_icon" xmlns="http://www.w3.org/2000/svg" viewBox="0 0 24 24"><g fill="none" class="nc-icon-wrapper"><path stroke="currentColor" stroke-linecap="square" stroke-miterlimit="10" d="M1 7V5h16v2M9 5v17M5 22h8" vector-effect="non-scaling-stroke"/><path d="M19.31 6v-.944l1.361-1.33c1.025-.995 1.462-1.401 1.462-1.979 0-.376-.183-.65-.721-.65-.559 0-.792.183-.792.904l-1.38-.122C19.249.264 20.477 0 21.543 0c1.574 0 2.132.67 2.132 1.624 0 .955-.66 1.584-1.401 2.294l-1.147 1.097h1.493c.101 0 .142-.02.162-.122l.142-.802H24V6h-4.69z" stroke="currentColor" stroke-linecap="square" stroke-miterlimit="10" fill="none" data-color="color-2" vector-effect="non-scaling-stroke"/></g></svg>
