<svg id="nc_icon" xmlns="http://www.w3.org/2000/svg" xml:space="preserve" viewBox="0 0 24 24"><g fill="none" stroke="currentColor" stroke-linecap="square" stroke-miterlimit="10" class="nc-icon-wrapper"><path d="M14 1h0c2.8 0 5 2.2 5 5h0M5 18h0c0 2.8 2.2 5 5 5h0" data-color="color-2" vector-effect="non-scaling-stroke"/><path d="M8 14H3c-1.1 0-2-.9-2-2V3c0-1.1.9-2 2-2h5c1.1 0 2 .9 2 2v9c0 1.1-.9 2-2 2zM1 10h9M1 4h9M21 23h-5c-1.1 0-2-.9-2-2v-9c0-1.1.9-2 2-2h5c1.1 0 2 .9 2 2v9c0 1.1-.9 2-2 2zM14 19h9M14 13h9" vector-effect="non-scaling-stroke"/></g></svg>
