<svg id="nc_icon" xmlns="http://www.w3.org/2000/svg" xml:space="preserve" viewBox="0 0 24 24"><g fill="none" class="nc-icon-wrapper"><path stroke="currentColor" stroke-linecap="square" stroke-miterlimit="10" d="M14 17H2a1 1 0 0 1-1-1V2a1 1 0 0 1 1-1h18a1 1 0 0 1 1 1v7" vector-effect="non-scaling-stroke"/><path stroke="currentColor" stroke-linecap="square" stroke-miterlimit="10" d="M15 13H7V5h10v4" vector-effect="non-scaling-stroke"/><circle cx="4" cy="9" r="1" stroke="currentColor" stroke-linecap="square" stroke-miterlimit="10" fill="none" vector-effect="non-scaling-stroke"/><path stroke="currentColor" stroke-linecap="square" stroke-miterlimit="10" d="M22 23h-6a1 1 0 0 1-1-1V10a1 1 0 0 1 1-1h6a1 1 0 0 1 1 1v12a1 1 0 0 1-1 1zM15 19h8" data-color="color-2" vector-effect="non-scaling-stroke"/></g></svg>
