<svg id="nc_icon" xmlns="http://www.w3.org/2000/svg" xml:space="preserve" viewBox="0 0 24 24"><g fill="none" stroke="currentColor" stroke-miterlimit="10" class="nc-icon-wrapper"><path d="M21 11.7c.6-.7 1-1.6 1-2.7 0-2.2-1.8-4-4-4-.5 0-.9.1-1.3.2C16 3.4 14.1 2 12 2S8 3.4 7.3 5.2C6.9 5.1 6.5 5 6 5 3.8 5 2 6.8 2 9c0 1 .4 1.9 1 2.7" data-cap="butt" data-color="color-2" vector-effect="non-scaling-stroke"/><path stroke-linecap="square" d="m12 16 1 1M16 14v-1M7 14l1-1" data-color="color-2" vector-effect="non-scaling-stroke"/><path stroke-linecap="square" d="M23 21H1v-3C1 11.9 5.9 7 12 7h0c6.1 0 11 4.9 11 11v3z" vector-effect="non-scaling-stroke"/></g></svg>
