<svg id="nc_icon" xmlns="http://www.w3.org/2000/svg" xml:space="preserve" viewBox="0 0 24 24"><g fill="none" stroke="currentColor" stroke-miterlimit="10" class="nc-icon-wrapper"><path d="M9 7a3 3 0 0 1 3 3M15 7a3 3 0 0 0-3 3M9 17a3 3 0 0 0 3-3M15 17a3 3 0 0 1-3-3M12 10v4" data-cap="butt" data-color="color-2" vector-effect="non-scaling-stroke"/><path stroke-linecap="square" d="M21 5v14M5 3h14M5 21h14M3 19V5M1 1h4v4H1zM23 1v4h-4V1zM23 23h-4v-4h4zM1 23v-4h4v4z" vector-effect="non-scaling-stroke"/></g></svg>
