<svg id="nc_icon" xmlns="http://www.w3.org/2000/svg" xml:space="preserve" viewBox="0 0 24 24"><g fill="none" stroke="currentColor" stroke-miterlimit="10" class="nc-icon-wrapper"><path stroke-linecap="square" d="M14 12h3M10 12H7" data-color="color-2" vector-effect="non-scaling-stroke"/><path d="M13.8 9.1 20 5.7c1.3-.7 3 .2 3 1.7v9.2c0 1.5-1.6 2.5-3 1.7l-6.2-3.5M10.2 9.1 4 5.7c-1.4-.8-3 .2-3 1.7v9.2c0 1.5 1.6 2.5 3 1.7l6.2-3.5" data-cap="butt" vector-effect="non-scaling-stroke"/><path stroke-linecap="square" d="M12 16h0c-1.1 0-2-.9-2-2v-4c0-1.1.9-2 2-2h0c1.1 0 2 .9 2 2v4c0 1.1-.9 2-2 2z" vector-effect="non-scaling-stroke"/></g></svg>
