<svg id="nc_icon" xmlns="http://www.w3.org/2000/svg" xml:space="preserve" viewBox="0 0 24 24"><g fill="none" stroke="currentColor" stroke-miterlimit="10" class="nc-icon-wrapper"><path stroke-linecap="square" d="M12 10v4h4" data-color="color-2" vector-effect="non-scaling-stroke"/><path d="m3 23 3.3-3.3M21 23l-3.3-3.3" data-cap="butt" vector-effect="non-scaling-stroke"/><circle cx="12" cy="14" r="8" stroke-linecap="square" vector-effect="non-scaling-stroke"/><path stroke-linecap="square" d="M9.3 2.3C8.5 1.5 7.3 1 6 1 3.2 1 1 3.2 1 6c0 .8.2 1.5.5 2.2 1.7-3 4.5-5.1 7.8-5.9zM14.7 2.3c.8-.8 2-1.3 3.3-1.3 2.8 0 5 2.2 5 5 0 .8-.2 1.5-.5 2.2-1.7-3-4.5-5.1-7.8-5.9z" vector-effect="non-scaling-stroke"/></g></svg>
