<svg id="nc_icon" xmlns="http://www.w3.org/2000/svg" viewBox="0 0 24 24"><g fill="none" class="nc-icon-wrapper"><circle cx="12" cy="12" r="11" stroke="currentColor" stroke-linecap="square" stroke-miterlimit="10" vector-effect="non-scaling-stroke"/><path d="M11 5a1 1 0 0 1 2 0c0 .552-.448 3-1 3s-1-2.448-1-3ZM16.243 6.343a1 1 0 1 1 1.414 1.414c-.391.391-2.438 1.8-2.829 1.415s1.024-2.438 1.415-2.829ZM19 11a1 1 0 0 1 0 2c-.552 0-3-.448-3-1s2.448-1 3-1ZM17.657 16.243a1 1 0 0 1-1.414 1.414c-.391-.391-1.8-2.438-1.415-2.829s2.438 1.024 2.829 1.415ZM13 19a1 1 0 0 1-2 0c0-.552.448-3 1-3s1 2.448 1 3ZM7.757 17.657a1 1 0 0 1-1.414-1.414c.391-.391 2.438-1.8 2.829-1.415s-1.024 2.438-1.415 2.829ZM5 13a1 1 0 0 1 0-2c.552 0 3 .448 3 1s-2.448 1-3 1ZM6.343 7.757a1 1 0 0 1 1.414-1.414c.391.391 1.8 2.438 1.415 2.829S6.734 8.148 6.343 7.757Z" stroke="currentColor" stroke-linecap="square" stroke-miterlimit="10" fill="none" data-cap="butt" data-color="color-2" vector-effect="non-scaling-stroke"/></g></svg>
