<svg id="nc_icon" xmlns="http://www.w3.org/2000/svg" xml:space="preserve" viewBox="0 0 24 24"><g fill="none" stroke="currentColor" stroke-linecap="square" stroke-miterlimit="10" class="nc-icon-wrapper"><path d="M12 5V4a2 2 0 0 0-2-2h0a2 2 0 0 0-2 2v9.523a1 1 0 0 1-1.371.928l-2.543-1.017a1.773 1.773 0 0 0-1.913.393h0a1.773 1.773 0 0 0-.081 2.422l3.218 3.678A9 9 0 0 0 12.084 23H14a9 9 0 0 0 9-9V5.5A1.5 1.5 0 0 0 21.5 4h0A1.5 1.5 0 0 0 20 5.5V6" vector-effect="non-scaling-stroke"/><path d="M12 11V3a2 2 0 0 1 2-2h0a2 2 0 0 1 2 2v8M16 5V4a2 2 0 0 1 2-2h0a2 2 0 0 1 2 2v7" vector-effect="non-scaling-stroke"/></g></svg>
