<svg id="nc_icon" xmlns="http://www.w3.org/2000/svg" xml:space="preserve" viewBox="0 0 24 24"><g fill="none" stroke="currentColor" stroke-linecap="square" stroke-miterlimit="10" class="nc-icon-wrapper"><path d="M3 5c-1.1 0-2-.9-2-2v13c0 1.7 1.3 3 3 3h17c1.1 0 2 .9 2 2V8c0-1.7-1.3-3-3-3H3z" vector-effect="non-scaling-stroke"/><path d="M6 5V1H3c-1.1 0-2 .9-2 2M18 19v4h3c1.1 0 2-.9 2-2" vector-effect="non-scaling-stroke"/><path d="m15 10 4 4M19 10l-4 4M5 12h1M10 12h1" data-color="color-2" vector-effect="non-scaling-stroke"/></g></svg>
