<svg id="nc_icon" xmlns="http://www.w3.org/2000/svg" xml:space="preserve" viewBox="0 0 24 24"><g fill="none" stroke="currentColor" stroke-miterlimit="10" class="nc-icon-wrapper"><path d="M12 18v5M7 23h10" data-cap="butt" data-color="color-2" vector-effect="non-scaling-stroke"/><path stroke-linecap="square" d="M18 10h-.555c.344-.59.555-1.268.555-2a4 4 0 0 0-4-4c-.017 0-.033.005-.05.005A3.49 3.49 0 0 0 10.5 1 3.5 3.5 0 0 0 7 4.5c0 .34.064.661.154.971C5.879 6.141 5 7.461 5 9c0 .38.07.74.169 1.089A4 4 0 0 0 6 18h12a4 4 0 1 0 0-8z" vector-effect="non-scaling-stroke"/></g></svg>
