<svg id="nc_icon" xmlns="http://www.w3.org/2000/svg" xml:space="preserve" viewBox="0 0 24 24"><g fill="none" stroke="currentColor" stroke-miterlimit="10" class="nc-icon-wrapper"><path d="M13.455 14.732c.115.848.534 2.446 2.056 2.953 1.991.664 3.353 1.406 3.489 3.794V23M10.566 14.731c-.113.844-.524 2.444-2.055 2.954-1.992.664-3.354 1.406-3.489 3.795L5 23" data-cap="butt" data-color="color-2" vector-effect="non-scaling-stroke"/><path stroke-linecap="square" d="M12.011 15h0a4 4 0 0 1-4-4v-1a4 4 0 0 1 4-4h0a4 4 0 0 1 4 4v1a4 4 0 0 1-4 4z" data-color="color-2" vector-effect="non-scaling-stroke"/><path stroke-linecap="square" d="M1 1h22v22H1z" vector-effect="non-scaling-stroke"/></g></svg>
