<svg id="nc_icon" xmlns="http://www.w3.org/2000/svg" xml:space="preserve" viewBox="0 0 24 24"><g fill="none" stroke="currentColor" stroke-miterlimit="10" class="nc-icon-wrapper"><path stroke-linecap="square" d="M2 1h20v22H2z" vector-effect="non-scaling-stroke"/><path d="M12.992 12.737 15.2 14.4c.504.378.8.97.8 1.6v1H8v-1c0-.63.296-1.222.8-1.6l2.208-1.663" data-cap="butt" data-color="color-2" vector-effect="non-scaling-stroke"/><path stroke-linecap="square" d="M12 13h0a2 2 0 0 1-2-2v-1a2 2 0 0 1 2-2h0a2 2 0 0 1 2 2v1a2 2 0 0 1-2 2z" data-color="color-2" vector-effect="non-scaling-stroke"/></g></svg>
