<svg id="nc_icon" xmlns="http://www.w3.org/2000/svg" xml:space="preserve" viewBox="0 0 24 24"><g fill="none" stroke="currentColor" stroke-linecap="square" stroke-miterlimit="10" class="nc-icon-wrapper"><path d="M1 9h3M20 9h3M1 19h3M8 9h2M14 9h2M8 19h2M14 19h2M20 19h3" data-color="color-2" vector-effect="non-scaling-stroke"/><path d="M23 5H3a2 2 0 0 1-2-2v17a3 3 0 0 0 3 3h19V5z" vector-effect="non-scaling-stroke"/><path d="M19 2V1H3a2 2 0 0 0-2 2h0a2 2 0 0 0 2 2" vector-effect="non-scaling-stroke"/></g></svg>
