<svg id="nc_icon" xmlns="http://www.w3.org/2000/svg" xml:space="preserve" viewBox="0 0 24 24"><path fill="none" stroke="currentColor" stroke-linecap="square" stroke-miterlimit="10" d="M16.33 15.702c1.201-2.233 3.17-2.89 5.664-3.103a5.965 5.965 0 0 0-1.798-1.593 5.964 5.964 0 0 0-3.008-.8A5.97 5.97 0 0 0 16.94 3.8C16.64 6.277 14.557 8.203 12 8.203S7.359 6.276 7.06 3.8a5.97 5.97 0 0 0-.248 6.407 5.964 5.964 0 0 0-3.008.799 5.965 5.965 0 0 0-1.798 1.593c2.494.213 4.463.87 5.664 3.103 1.278 2.214.652 4.982-1.343 6.479A5.97 5.97 0 0 0 12 19.192a5.97 5.97 0 0 0 5.673 2.989c-1.995-1.497-2.621-4.265-1.343-6.48z" class="nc-icon-wrapper" vector-effect="non-scaling-stroke"/></svg>
