<svg id="nc_icon" xmlns="http://www.w3.org/2000/svg" xml:space="preserve" viewBox="0 0 24 24"><g fill="none" stroke="currentColor" stroke-miterlimit="10" class="nc-icon-wrapper"><path d="M3.223 11a9 9 0 0 1 3.12-5M16.126 21c-1.236.64-2.639 1-4.126 1a8.963 8.963 0 0 1-4.003-.937M17.657 6a9 9 0 0 1 3.12 5" data-cap="butt" data-color="color-2" vector-effect="non-scaling-stroke"/><path d="M10.843 15.769 4.74 18.683a2 2 0 0 1-1.724-3.61L9.12 12.16M13.157 15.769l6.103 2.914a2 2 0 1 0 1.724-3.61L14.88 12.16M10 10.764V4a2 2 0 1 1 4 0v6.764" data-cap="butt" vector-effect="non-scaling-stroke"/><circle cx="12" cy="13" r="3" stroke-linecap="square" vector-effect="non-scaling-stroke"/></g></svg>
