<svg id="nc_icon" xmlns="http://www.w3.org/2000/svg" xml:space="preserve" viewBox="0 0 24 24"><g fill="none" stroke="currentColor" stroke-miterlimit="10" class="nc-icon-wrapper"><path d="M22.595 13.239A9.514 9.514 0 0 0 20.5 13c-4.294 0-7.919 2.85-9.095 6.761M14.125 1.032A9.46 9.46 0 0 0 14 2.5a9.453 9.453 0 0 0 3.018 6.937M4.027 9.973a9.467 9.467 0 0 0 6.652-3.267" data-cap="butt" vector-effect="non-scaling-stroke"/><path d="M10.042 1.659c-.017.279-.042.557-.042.841 0 3.3 1.185 6.319 3.152 8.66" data-cap="butt" vector-effect="non-scaling-stroke"/><path d="M22.905 9.226A13.522 13.522 0 0 0 20.5 9c-5.898 0-10.899 3.788-12.737 9.059" data-cap="butt" vector-effect="non-scaling-stroke"/><path d="M6 23H3a2 2 0 1 1 0-4h1" data-cap="butt" data-color="color-2" vector-effect="non-scaling-stroke"/><circle cx="13.5" cy="10.5" r="9.5" stroke-linecap="square" vector-effect="non-scaling-stroke"/></g></svg>
