<svg id="nc_icon" xmlns="http://www.w3.org/2000/svg" xml:space="preserve" viewBox="0 0 24 24"><g fill="none" stroke="currentColor" stroke-miterlimit="10" class="nc-icon-wrapper"><path d="M12 23c-1.958-1.583-2.083-6.792 1-8 1.636-.641 2.166 2.937 5.375 2.042.621-.173 2.083.708 1.551 2.052M6.294 4.787c.631.466 1.124 1.071 1.589 1.849.405.679 1.306 2.57.481 3.638C7.43 11.48 4.727 11.887 4.727 13c0 .837 1.185 1.793 1.818 2.727.952 1.405.519 2.767 0 3.636-.269.451-.727.811-1.203 1.097" data-cap="butt" vector-effect="non-scaling-stroke"/><path d="M21.8 11c.131.646.2 1.315.2 2 0 5.523-4.477 10-10 10S2 18.523 2 13 6.477 3 12 3c.494 0 .98.036 1.455.105" data-cap="butt" vector-effect="non-scaling-stroke"/><path stroke-linecap="square" d="M21 5c0 2.469-4 6-4 6s-4-3.531-4-6c0-2.531 2.067-4 4-4s4 1.469 4 4z" data-color="color-2" vector-effect="non-scaling-stroke"/></g></svg>
