<svg id="nc-dynamic-img" viewBox="0 0 16 16" version="1.1" xmlns="http://www.w3.org/2000/svg" xmlns:xlink="http://www.w3.org/1999/xlink">
    <g id="dynamic-img" stroke="none" stroke-width="1" fill="none" fill-rule="evenodd">
        <path d="M14,7.70659632 L14,14.1232877 C14,14.6318493 13.5085616,14.9708904 13,14.9708904 L0.84760274,14.9708904 C0.339041096,14.9708904 0,14.6318493 0,14.1232877 L0,2 C0,1.49143836 0.491438356,1 1,1 L8.85633878,1 C8.40231016,1.70127776 8.13869863,2.53731975 8.13869863,3.43493151 C8.13869863,5.91264734 10.1472842,7.92123288 12.625,7.92123288 C13.1046355,7.92123288 13.5666913,7.84596494 14,7.70659632 Z M5.14212329,4.66267123 C4.63356164,4.66267123 4.29452055,5.00171233 4.29452055,5.51027397 C4.29452055,6.01883562 4.63356164,6.35787671 5.14212329,6.35787671 C5.65068493,6.35787671 5.98972603,6.01883562 5.98972603,5.51027397 C5.98972603,5.00171233 5.65068493,4.66267123 5.14212329,4.66267123 Z M2.48630137,11.5565068 L10.8493151,11.5565068 L8.34041096,6.35787671 L5.83150685,9.82363014 L4.15890411,8.09075342 L2.48630137,11.5565068 Z M12.625,6.75 C10.761039,6.75 9.25,5.23896103 9.25,3.375 C9.25,1.51103897 10.761039,-1.13686838e-13 12.625,-1.13686838e-13 C14.488961,-1.13686838e-13 16,1.51103897 16,3.375 C16,5.23896103 14.488961,6.75 12.625,6.75 Z M12.7049721,1.87189244 C11.9784953,1.87189244 11.1869609,2.01476408 11.1869609,2.31836631 C11.1869609,2.62196854 11.9784953,2.76484018 12.7049721,2.76484018 C13.4314489,2.76484018 14.2229833,2.62196854 14.2229833,2.31836631 C14.2229833,2.01476408 13.4314489,1.87189244 12.7049721,1.87189244 Z M12.7049721,3.10211094 C12.1194535,3.10211094 11.5014061,3.00725354 11.1869609,2.76484018 L11.1869609,3.30939192 C11.1869609,3.6677421 11.9784953,3.83637747 12.7049721,3.83637747 C13.4314489,3.83637747 14.2229833,3.6677421 14.2229833,3.30939192 L14.2229833,2.76484018 C13.9085381,3.00725354 13.2904907,3.10211094 12.7049721,3.10211094 Z M12.7049721,4.17364823 C12.1194535,4.17364823 11.5014061,4.07879083 11.1869609,3.83637747 L11.1869609,4.38092921 C11.1869609,4.73927939 11.9784953,4.90791476 12.7049721,4.90791476 C13.4314489,4.90791476 14.2229833,4.73927939 14.2229833,4.38092921 L14.2229833,3.83637747 C13.9085381,4.07879083 13.2904907,4.17364823 12.7049721,4.17364823 Z" id="Image-dinamic" fill="currentColor" fill-rule="nonzero"></path>
    </g>
</svg>
