<svg id="brz_icon" viewBox="0 0 16 16"><path fill="currentColor" fill-rule="nonzero" d="M7.418 15.981a7.87 7.87 0 0 1-4.052-1.463c-.24-.171-.276-.21-.29-.309-.013-.099.03-.174.205-.355.643-.668 1.611-1.274 2.56-1.605 1.004-.349 1.971-.441 3.112-.293 1.442.184 2.801.864 3.82 1.908.191.194.216.23.216.3 0 .104-.211.287-.696.597-.7.448-1.52.8-2.34 1.002a8.31 8.31 0 0 1-2.535.218ZM.69 11.264a8.884 8.884 0 0 0-.06-.147A7.999 7.999 0 0 1 0 8.004C0 6.41.448 4.913 1.317 3.599c.31-.468.571-.794.94-1.173A7.986 7.986 0 0 1 5.466.404C6.01.219 6.5.114 7.25.021a13.19 13.19 0 0 1 1.502 0c.876.103 1.482.249 2.19.527a8.1 8.1 0 0 1 2.628 1.697 7.943 7.943 0 0 1 2.363 4.643c.057.413.067.59.067 1.133a6.388 6.388 0 0 1-.039.86 7.91 7.91 0 0 1-.362 1.657c-.12.357-.285.755-.314.755-.012 0-.418-.593-.903-1.317C12.222 6.746 9.754 3.054 9 1.92 8.469 1.13 8.154.674 8.12.649a.209.209 0 0 0-.228-.003c-.039.023-.227.292-.662.943l-1.64 2.455a5325.685 5325.685 0 0 0-4.245 6.354c-.329.495-.61.902-.621.902-.012.001-.027-.016-.035-.036Z"/></svg>
