<svg
    viewBox="0 0 16 16"
  >
    <g stroke="none" strokeWidth="1" fill="currentColor" fillRule="evenodd">
      <g
        transform="translate(-248.000000, -335.000000)"
        fill="currentColor"
        fillRule="nonzero"
      >
        <path d="M254,349 L249,349 C248.447715,349 248,348.552285 248,348 L248,336 C248,335.447715 248.447715,335 249,335 L254,335 C254.552285,335 255,335.447715 255,336 L255,348 C255,348.552285 254.552285,349 254,349 Z M257,340 L259,340 L259,344 L257,344 L257,340 Z M262,347 L259,347 L259,346 L257,346 L257,348 C257,348.552285 257.447715,349 258,349 L263,349 C263.552285,349 264,348.552285 264,348 L264,346 L262,346 L262,347 Z M263,335 L258,335 C257.447715,335 257,335.447715 257,336 L257,338 L259,338 L259,337 L262,337 L262,338 L264,338 L264,336 C264,335.447715 263.552285,335 263,335 Z M262,340 L264,340 L264,344 L262,344 L262,340 Z"></path>
      </g>
    </g>
  </svg>