<svg id="brz_icon" xmlns="http://www.w3.org/2000/svg" viewBox="0 0 16 16"><path fill="currentColor" d="M6.667 0c.433 0 .812.14 1.092.368.103.083.19.18.268.281.1-.015.2-.034.306-.034.709 0 1.223.486 1.535 1.035.125.22.218.456.292.694l1.395-.294.445.446v13.14L10.221 16 0 14.154l1.779-10.05 1.609-.338c.11-.714.39-1.488.814-2.158C4.759.73 5.596 0 6.667 0zM13 3.41l1.221.282L16 14.817l-3 .614V3.41zM7.42 5.332c-.206 0-.425.012-.652.04-.488.055-.986.154-1.372.32-.375.16-.7.37-.968.618a2.74 2.74 0 0 0-.62.839 2.775 2.775 0 0 0-.25 1.034 1.796 1.796 0 0 0 .329 1.151c.112.165.25.332.415.463.208.164.382.282.57.403.152.095.281.184.388.272.108.088.194.174.26.259a.847.847 0 0 1 .14.257.778.778 0 0 1 .033.274.62.62 0 0 1-.07.266.573.573 0 0 1-.184.204.725.725 0 0 1-.287.118 1.212 1.212 0 0 1-.38.006 2.563 2.563 0 0 1-.48-.113 3.819 3.819 0 0 1-.448-.182 4.806 4.806 0 0 1-.686-.408l-.491 1.397c.08.092.184.181.306.266a3.97 3.97 0 0 0 .943.468c.187.065.389.122.597.164l.012.003h.006c.007 0 .011.003.015.003l.011.002c.445.083.745.103 1.147.057a2.888 2.888 0 0 0 1.123-.357 2.25 2.25 0 0 0 .816-.806c.206-.347.354-.765.354-1.251 0-1.561-1.218-2.176-1.885-2.549-.297-.165-.52-.386-.52-.699 0-.267.076-.348.124-.434.046-.086.143-.16.228-.223.085-.063.19-.114.31-.15a1.7 1.7 0 0 1 .409-.07 3.495 3.495 0 0 1 .91.075 3.51 3.51 0 0 1 .674.208l.641-1.684a2.338 2.338 0 0 0-.384-.125 3.706 3.706 0 0 0-.499-.086 5.426 5.426 0 0 0-.586-.03zM6.666.615c-.736 0-1.398.529-1.89 1.304a5.311 5.311 0 0 0-.675 1.696l1.562-.328c.068-.204.145-.417.24-.633.211-.483.493-.975.884-1.363.165-.164.36-.303.57-.417C7.344.86 7.333.84 7.318.828 7.15.691 6.957.615 6.667.615zm1.036.777a1.81 1.81 0 0 0-.427.317c-.306.304-.561.736-.754 1.176-.036.082-.06.16-.091.241L7.98 2.8c-.03-.488-.102-.975-.252-1.356zm.654-.156c.173.441.248.938.282 1.426l.868-.181a2.913 2.913 0 0 0-.23-.545c-.245-.431-.556-.69-.92-.7z" class="nc-icon-wrapper"/></svg>
