<svg viewBox="0 0 16 16"><g stroke="none" stroke-width="1" fill="currentColor" fill-rule="evenodd"><g transform="translate(-180.000000, -334.000000)" fill="currentColor" fill-rule="nonzero"><path d="M196,344 L196,348 C196,349.104569 195.104569,350 194,350 L194,350 L190,350 L190,348 L194,348 L194,344 L196,344 Z M182,344 L182,348 L186,348 L186,350 L182,350 C180.895431,350 180,349.104569 180,348 L180,348 L180,344 L182,344 Z M188,337.008384 C188.113922,337.008384 188.223793,337.046048 188.313117,337.114242 L188.376,337.171 L191.876,341.171 C192.004992,341.318618 192.035818,341.527999 191.954844,341.706529 C191.885437,341.859555 191.744869,341.965716 191.582672,341.99305 L191.5,342 L189,342 L189,346 C189,346.552285 188.552285,347 188,347 C187.487164,347 187.064493,346.61396 187.006728,346.116621 L187,346 L187,342 L184.5,342 C184.303964,341.999801 184.12613,341.88506 184.045156,341.706529 C183.977678,341.557754 183.987839,341.387555 184.067748,341.249527 L184.124,341.171 L187.624,337.171 C187.721525,337.067234 187.857597,337.008384 188,337.008384 Z M186,334 L186,336 L182,336 L182,340 L180,340 L180,336 C180,334.945638 180.815878,334.081835 181.850738,334.005486 L182,334 L186,334 Z M194,334 C195.104569,334 196,334.895431 196,336 L196,336 L196,340 L194,340 L194,336 L190,336 L190,334 Z"></path></g></g></svg>
