<svg viewBox="0 0 16 16"><g stroke="none" stroke-width="1" fill="currentColor" fill-rule="evenodd"><g id="Shopify-Add-Eleemnts" transform="translate(-248.000000, -334.000000)" fill="currentColor" fill-rule="nonzero"><path d="M263.9,338.55303 L261.9,334.55303 C261.729775,334.21236 261.380826,333.997951 261,334.000015 L251,334.000015 C250.620974,333.999853 250.274425,334.213978 250.105,334.55303 L248.105,338.55303 C248.035803,338.691869 248,338.844902 248,339.00003 C248.00078,339.831476 248.515885,340.575719 249.29377,340.869315 C250.071655,341.162911 250.950051,340.944615 251.5,340.32103 C251.879667,340.751531 252.425999,340.998154 253,340.998154 C253.574002,340.998154 254.120334,340.751531 254.5,340.32103 C254.879667,340.751531 255.425999,340.998154 256,340.998154 C256.574002,340.998154 257.120334,340.751531 257.5,340.32103 C257.879667,340.751531 258.425999,340.998154 259,340.998154 C259.574002,340.998154 260.120334,340.751531 260.5,340.32103 C261.04995,340.944615 261.928346,341.162911 262.706231,340.869315 C263.484116,340.575719 263.999221,339.831476 264.000061,339.00003 C264.0017,338.8453 263.967469,338.692286 263.9,338.55303 Z M261,348.00003 L258,348.00003 L258,345.00003 C258,344.447745 257.552285,344.00003 257,344.00003 L255,344.00003 C254.447716,344.00003 254,344.447745 254,345.00003 L254,348.00003 L251,348.00003 L251,342.00003 L249,342.00003 L249,349.00003 C249,349.552314 249.447716,350.00003 250,350.00003 L262,350.00003 C262.552285,350.00003 263,349.552314 263,349.00003 L263,342.00003 L261,342.00003 L261,348.00003 Z"></path></g></g></svg>
