<svg viewBox="0 0 16 16"><g stroke="none" stroke-width="1" fill="currentColor" fill-rule="evenodd"><g transform="translate(-112.000000, -334.000000)" fill="currentColor" fill-rule="nonzero"><path d="M116.6,343 L113.4,343 C112.6,343 112,342.4 112,341.6 L112,335.4 C112,334.6 112.6,334 113.4,334 L116.7,334 C117.4,334 118,334.6 118,335.4 L118,341.7 C118,342.4 117.4,343 116.6,343 Z M126.6,350 L123.3,350 C122.5,350 121.9,349.4 121.9,348.6 L121.9,342.4 C122,341.6 122.6,341 123.4,341 L126.7,341 C127.4,341 128,341.6 128,342.4 L128,348.7 C128,349.4 127.4,350 126.6,350 Z M120,349 C117.5,349 115.2,347.7 113.9,345.5 L115.6,344.5 C116.6,346 118.2,347 120,347 L120,349 Z M124.3,339.5 C123.4,338 121.8,337 120,337 L120,335 C122.5,335 124.8,336.3 126.1,338.5 L124.3,339.5 Z"></path></g></g></svg>
