<svg id="nc-sound-cloud" viewBox="0 0 16 16" xmlns="http://www.w3.org/2000/svg"><g class="nc-icon-wrapper"><title>sound-cloud</title><g fill-rule="nonzero" fill="currentColor" stroke="none" stroke-width="1"><path d="M2.777 5.974c-.279 0-.557.171-.557.343l-.279 4.628.279 3.086c0 .171.278.171.278.171.279 0 .279-.171.279-.171l.278-3.086V6.317c0-.172-.278-.343-.278-.343z"/><path d="M.945 8.209c-.25.008-.494.142-.49.267l-.132 3.382.328 2.24c.005.125.254.116.254.116.25-.009.245-.134.245-.134l.17-2.257-.117-3.373c-.004-.125-.258-.241-.258-.241z"/><path d="M6.57 14.202c.217 0 .434-.171.434-.343l.217-2.914-.217-7.2c0-.171-.217-.342-.433-.342-.217 0-.434.171-.434.342l-.216 7.2.216 2.914c0 .172.217.343.434.343z"/><path d="M4.53 14.202c.2 0 .4-.171.4-.343l.2-2.914-.2-6.342c0-.172-.2-.343-.4-.343s-.4.171-.4.343l-.2 6.342.2 2.914c0 .172.2.343.4.343z"/><path d="M13.084 7.517C13.87 4.35 12.37 1.86 9.502 1.86c-.497 0-.895.171-1.293.343-.2.171-.2.343-.2.514v11.142c0 .172.1.343.2.343h5.571c1.09 0 2.09-1.352 2.09-3.352 0-2-1-3-2.786-3.333z"/></g></g></svg>
