<svg id="nc-user-email" width="16px" height="16px" viewBox="0 0 16 16" version="1.1" xmlns="http://www.w3.org/2000/svg" xmlns:xlink="http://www.w3.org/1999/xlink">
    <g stroke="none" stroke-width="1" fill="currentColor" fill-rule="evenodd">
        <path 
        d="M7.9936451,-1.687539e-13 C4.74135211,0.00268751108 1.81437989,1.97402386 0.589407007,4.98680636 C-0.635565872,7.99958887 0.0852984604,11.4541059 2.41294709,13.7255523 C4.74059571,15.9969988 8.21169683,16.6332301 11.1936451,15.335 L12.1096451,14.935 L11.3096451,13.102 L10.3936451,13.502 C7.96211779,14.5632052 5.12230712,13.9015439 3.41023249,11.8749009 C1.69815786,9.84825787 1.52031192,6.93781271 2.97288938,4.71779015 C4.42546685,2.49776759 7.16358671,1.49526079 9.70623289,2.25251361 C12.2488791,3.00976643 13.9923589,5.34698665 13.9936451,8 L13.9936451,9 C13.9936451,9.55228475 13.5459299,10 12.9936451,10 C12.4413604,10 11.9936451,9.55228475 11.9936451,9 L11.9936451,8 C12.0092705,6.0866209 10.6782506,4.42563923 8.80744816,4.02394024 C6.93664576,3.62224126 5.04109363,4.59041289 4.26987342,6.34155055 C3.4986532,8.09268821 4.06408218,10.1447029 5.62339792,11.2536655 C7.18271366,12.3626282 9.30663582,12.2232408 10.7076451,10.92 C11.5128481,11.8907327 12.8409938,12.2511186 14.0264364,11.8205379 C15.211879,11.3899571 15.9991354,10.2612073 15.9936736,9 L15.9936736,8 C15.9886852,3.58377808 12.409867,0.00495988455 7.9936451,-1.687539e-13 Z M7.9936451,10 C6.8890756,10 5.9936451,9.1045695 5.9936451,8 C5.9936451,6.8954305 6.8890756,6 7.9936451,6 C9.0982146,6 9.9936451,6.8954305 9.9936451,8 C9.9936451,8.53043298 9.78293142,9.03914081 9.40785867,9.41421356 C9.03278591,9.78928632 8.52407808,10 7.9936451,10 Z" 
        fill="currentColor" 
        fill-rule="nonzero"
        ></path>
    </g>
</svg>
