<svg id="nc-woo-add-to-cart" viewBox="0 0 16 16">
    <g stroke="none" stroke-width="1" fill-rule="evenodd">
    <path
    d="M5,12 C6.1045695,12 7,12.8954305 7,14 C7,15.1045695 6.1045695,16 5,16 C3.8954305,16 3,15.1045695 3,14 C3,12.8954305 3.8954305,12 5,12 Z M13,12 C14.1045695,12 15,12.8954305 15,14 C15,15.1045695 14.1045695,16 13,16 C11.8954305,16 11,15.1045695 11,14 C11,12.8954305 11.8954305,12 13,12 Z M3,0 C3.5,0 3.9,0.3 4,0.8 L4,0.8 L4.5,3 L8,3 L8,6 L6,6 L9,9 L12,6 L10,6 L10,3 L15,3 C15.8,3 16.1,3.8 15.9,4.3 L15.9,4.3 L13.9,10.3 C13.8,10.7 13.4,11 13,11 L13,11 L5,11 C4.5,11 4.1,10.7 4,10.2 L4,10.2 L2.2,2 L1.0658141e-13,2 L1.0658141e-13,0 L3,0 Z"
    fill="currentColor"
    fill-rule="nonzero"
    ></path>
    </g>
</svg>
