<svg id="nc-woo-rating" viewBox="0 0 16 16">
    <g stroke="none" stroke-width="1" fill-rule="evenodd">
        <path
        d="M9.51112893,6.17706325 L9.04162887,5.24301454 L8.00081548,3.17236329 L7,5 L7,11 L8.00069193,10.6415494 L8.9183147,11.1154517 L10.991782,12.1862868 L10.4219323,8.921246 L11.1926954,8.18354068 L12.7989122,6.64621962 L9.51112893,6.17706325 Z M15.1445847,4.96067996 C15.9615847,5.0775694 16.2925847,6.06769175 15.6995847,6.63838727 L12.5755847,9.62839961 L13.3125847,13.8511536 C13.4525847,14.6566102 12.5895847,15.2607027 11.8615847,14.8864601 L8.0005847,12.8924637 L4.1405847,14.8854778 C3.4065847,15.2636495 2.5505847,14.6497344 2.6895847,13.8501713 L3.4265847,9.62741734 L0.3025847,6.63740501 C-0.2914153,6.06769175 0.0395846999,5.0775694 0.8565847,4.96067996 L5.1735847,4.34480028 L7.1035847,0.503164855 C7.4415847,-0.167721618 8.5595847,-0.167721618 8.8975847,0.503164855 L10.8285847,4.34480028 L15.1445847,4.96067996 Z"
        fill="currentColor"
        fill-rule="nonzero"
        ></path>
    </g>
</svg>
