<svg id="nc-wp-breadcrumbs" viewBox="0 0 16 16" >
    <g stroke="none" stroke-width="1" fill-rule="evenodd">
        <path 
            d="M9.1072538,1.17037069 C8.6018874,1.67899278 8.24132189,2.31319921 8.06273153,3.00760335 C8.90992016,3.30121449 9.6208313,3.89391861 10.0620405,4.67447645 C9.45185312,4.20028837 8.69963853,3.94562681 7.92688565,3.95162176 C6.11741573,3.98084505 4.55088103,5.21636918 4.1008362,6.96922257 C4.94802483,7.26283371 5.65893597,7.85553783 6.10014515,8.63609567 C5.48995779,8.16190759 4.7377432,7.90724603 3.96499032,7.91324098 C2.14438041,7.94929728 0.572329949,9.1975088 0.124546952,10.9625615 C-0.323236045,12.7276141 0.463663869,14.5742768 2.04690545,15.4738693 C3.63014703,16.3734618 5.61933062,16.1041603 6.90638491,14.8159787 L14.8307278,6.8916358 C16.3961475,5.30868609 16.3888019,2.75851185 14.8142889,1.18460658 C13.239776,-0.389298682 10.6895991,-0.395659964 9.1072538,1.17037069 Z" id="Path" 
            fill="currentColor" 
            fill-rule="nonzero">
        </path>
    </g>
</svg>
