<svg id="nc-wp-shortcode" viewBox="0 0 16 16" xmlns="http://www.w3.org/2000/svg"><g class="nc-icon-wrapper"><g fill="currentColor" fill-rule="nonzero" stroke="none" stroke-width="1"><path d="M0 8c0 3.2 1.8 5.9 4.5 7.2L.7 4.7C.2 5.7 0 6.8 0 8z"/><path d="M13.4 7.6c0-1-.4-1.7-.7-2.2-.4-.7-.7-1.2-.7-1.9s.6-1.4 1.3-1.4h.1C12 .8 10.1 0 8 0 5.2 0 2.7 1.4 1.3 3.6c.2 0 2.7-.1 2.7-.1.4 0 .5.6.1.7 0 0-.4.1-.9.1L6 12.9l1.8-5.3-1.3-3.4c-.4 0-.8-.1-.8-.1-.4 0-.4-.7.1-.7 0 0 1.3.1 2.1.1s2.1-.1 2.1-.1c.4 0 .5.6.1.7 0 0-.4.1-.9.1l2.9 8.6.8-2.7c.2-1 .5-1.8.5-2.5z"/><path d="M8.1 8.7l-2.4 7c.8.2 1.5.3 2.3.3.9 0 1.8-.2 2.7-.5 0 0 0-.1-.1-.1L8.1 8.7z"/><path d="M15 4.2c0 .3.1.5.1.8 0 .8-.2 1.7-.6 2.9l-2.5 7c2.4-1.4 4-4 4-6.9 0-1.4-.4-2.7-1-3.8z"/></g></g></svg>
