<svg id="nc-wp-post-title" viewBox="0 0 16 16">
    <g stroke="none" stroke-width="1" fill-rule="evenodd">
        <path
        d="M15,1 L1,1 C0.44771525,1 0,1.52233446 0,2.16666667 L0,13.8333333 C0,14.4776655 0.44771525,15 1,15 L15,15 C15.5522847,15 16,14.4776655 16,13.8333333 L16,2.16666667 C16,1.52233446 15.5522847,1 15,1 Z M13,11 L3,11 C2.44771525,11 2,10.5522847 2,10 C2,9.44771525 2.44771525,9 3,9 L13,9 C13.5522847,9 14,9.44771525 14,10 C14,10.5522847 13.5522847,11 13,11 Z M9,7 L3,7 C2.44771525,7 2,6.55228475 2,6 C2,5.44771525 2.44771525,5 3,5 L9,5 C9.55228475,5 10,5.44771525 10,6 C10,6.55228475 9.55228475,7 9,7 Z"
        fill="currentColor"
        fill-rule="nonzero"
        transform="translate(8.000000, 8.000000) scale(-1, 1) rotate(-180.000000) translate(-8.000000, -8.000000) "
        ></path>
    </g>
</svg>
