<svg id="nc_icon" version="1.1" xmlns="http://www.w3.org/2000/svg" xmlns:xlink="http://www.w3.org/1999/xlink" x="0px" y="0px" viewBox="0 0 24 24" xml:space="preserve" ><g class="nc-icon-wrapper" fill="currentColor"><polygon data-color="color-2" fill="currentColor" points="1,4 6,0 6,3 23,3 23,5 6,5 6,8 "></polygon> <path fill="currentColor" d="M9,24V12c0-1.65685,1.34314-3,3-3H12c1.65685,0,3,1.34314,3,3v12H9z"></path> <path fill="currentColor" d="M2,24V13c0-1.65685,1.34314-3,3-3H5c1.65685,0,3,1.34314,3,3v11H2z"></path> <path fill="currentColor" d="M16,24V13c0-1.65685,1.34314-3,3-3H19c1.65685,0,3,1.34314,3,3v11H16z"></path></g></svg>