<svg id="nc_icon" version="1.1" xmlns="http://www.w3.org/2000/svg" xmlns:xlink="http://www.w3.org/1999/xlink" x="0px" y="0px" viewBox="0 0 24 24" xml:space="preserve" ><g class="nc-icon-wrapper" fill="currentColor"><path data-color="color-2" fill="currentColor" d="M22,11c-0.55273,0-1-0.44775-1-1c0-2.14404-1.68555-3.89258-3.83789-3.98047 c-0.34277-0.01367-0.65527-0.20312-0.82617-0.50098C15.44434,3.96484,13.7832,3,12,3c-1.80664,0-3.47949,0.98291-4.36426,2.56494 c-0.2041,0.36377-0.59961,0.56348-1.02539,0.5C6.41016,6.03418,6.20996,6,6,6c-2.20605,0-4,1.79443-4,4c0,0.55225-0.44727,1-1,1 s-1-0.44775-1-1c0-3.30859,2.69141-6,6-6c0.08691,0,0.1709,0.00293,0.25293,0.0083C7.55371,2.13721,9.69824,1,12,1 c2.31738,0,4.48828,1.16309,5.78516,3.06738C20.75,4.45264,23,6.96191,23,10C23,10.55225,22.55273,11,22,11z"></path> <path fill="currentColor" d="M9,22V9.5C9,8.11929,10.11929,7,11.5,7H11.5C12.88071,7,14,8.11929,14,9.5V22H9z"></path> <path fill="currentColor" d="M15,22V11.5c0-1.38071,1.11929-2.5,2.5-2.5h0c1.38071,0,2.5,1.11929,2.5,2.5V22H15z"></path> <path fill="currentColor" d="M3,22V11.5C3,10.11929,4.11929,9,5.5,9h0C6.88071,9,8,10.11929,8,11.5V22H3z"></path></g></svg>