<svg id="nc_icon" version="1.1" xmlns="http://www.w3.org/2000/svg" xmlns:xlink="http://www.w3.org/1999/xlink" x="0px" y="0px" viewBox="0 0 24 24" xml:space="preserve" ><g class="nc-icon-wrapper" fill="currentColor"><path fill="currentColor" d="M9,12L9,12c-2.761,0-5-3.239-5-6V5c0-2.761,2.239-5,5-5h0c2.761,0,5,2.239,5,5v1C14,8.761,11.761,12,9,12z"></path> <path fill="currentColor" d="M12,20c0-2.106,0.934-3.99,2.406-5.273C12.904,14.333,11.038,14,9,14c-2.824,0-5.329,0.638-6.974,1.193 C0.81,15.604,0,16.749,0,18.032V22h12.294C12.105,21.366,12,20.695,12,20z"></path> <polygon data-color="color-2" fill="currentColor" points="17,23.414 13.586,20 15,18.586 17,20.586 22,15.586 23.414,17 "></polygon></g></svg>