<svg id="nc_icon" version="1.1" xmlns="http://www.w3.org/2000/svg" xmlns:xlink="http://www.w3.org/1999/xlink" x="0px" y="0px" viewBox="0 0 24 24" xml:space="preserve" ><g class="nc-icon-wrapper" fill="currentColor"><path fill="currentColor" d="M9,12L9,12c-2.761,0-5-3.239-5-6V5c0-2.761,2.239-5,5-5h0c2.761,0,5,2.239,5,5v1C14,8.761,11.761,12,9,12z"></path> <path fill="currentColor" d="M13.53,20.813C12.543,19.838,12,18.54,12,17.155c0-1.005,0.294-1.961,0.829-2.784 C11.669,14.152,10.373,14,9,14c-2.824,0-5.329,0.638-6.974,1.193C0.81,15.604,0,16.749,0,18.032V22h14.731L13.53,20.813z"></path> <path data-color="color-2" fill="currentColor" d="M23.063,14.92c-0.678-0.67-1.611-0.998-2.566-0.904c-0.546,0.055-1.06,0.246-1.498,0.549 c-0.438-0.303-0.951-0.494-1.498-0.549c-0.953-0.092-1.888,0.234-2.566,0.904C14.333,15.516,14,16.31,14,17.155 s0.333,1.639,0.936,2.235L19,23.406l4.064-4.015C23.667,18.794,24,18,24,17.155S23.667,15.516,23.063,14.92z"></path></g></svg>