<svg id="nc_icon" version="1.1" xmlns="http://www.w3.org/2000/svg" xmlns:xlink="http://www.w3.org/1999/xlink" x="0px" y="0px" viewBox="0 0 24 24" xml:space="preserve" ><g class="nc-icon-wrapper" fill="currentColor"><path fill="currentColor" d="M9,12L9,12c-2.761,0-5-3.239-5-6V5c0-2.761,2.239-5,5-5h0c2.761,0,5,2.239,5,5v1C14,8.761,11.761,12,9,12z"></path> <path fill="currentColor" d="M12,18c0-1.333,0.442-2.561,1.18-3.558C11.932,14.186,10.515,14,9,14c-2.824,0-5.329,0.638-6.974,1.193 C0.81,15.604,0,16.749,0,18.032V22h13.54C12.586,20.937,12,19.538,12,18z"></path> <path data-color="color-2" fill="currentColor" d="M23.707,22.293l-2.274-2.274C21.785,19.424,22,18.74,22,18c0-2.206-1.794-4-4-4s-4,1.794-4,4 s1.794,4,4,4c0.74,0,1.424-0.215,2.019-0.567l2.274,2.274L23.707,22.293z M18,20c-1.103,0-2-0.897-2-2s0.897-2,2-2s2,0.897,2,2 S19.103,20,18,20z"></path></g></svg>