<svg id="nc_icon" version="1.1" xmlns="http://www.w3.org/2000/svg" xmlns:xlink="http://www.w3.org/1999/xlink" x="0px" y="0px" viewBox="0 0 24 24" xml:space="preserve" ><g class="nc-icon-wrapper" fill="currentColor"><path fill="currentColor" d="M23,12H1c-0.6,0-1,0.4-1,1v9c0,0.6,0.4,1,1,1h22c0.6,0,1-0.4,1-1v-9C24,12.4,23.6,12,23,12z M20,19H4v-2h16 V19z"></path> <path data-color="color-2" fill="currentColor" d="M12,8c0.6,0,1-0.4,1-1V2c0-0.6-0.4-1-1-1c-0.6,0-1,0.4-1,1v5C11,7.6,11.4,8,12,8z"></path> <path data-color="color-2" fill="currentColor" d="M7,10c0.6,0,1-0.4,1-1V6c0-0.6-0.4-1-1-1C6.4,5,6,5.4,6,6v3C6,9.6,6.4,10,7,10z"></path> <path data-color="color-2" fill="currentColor" d="M17,10c0.6,0,1-0.4,1-1V6c0-0.6-0.4-1-1-1c-0.6,0-1,0.4-1,1v3C16,9.6,16.4,10,17,10z"></path></g></svg>