<svg id="nc_icon" version="1.1" xmlns="http://www.w3.org/2000/svg" xmlns:xlink="http://www.w3.org/1999/xlink" x="0px" y="0px" viewBox="0 0 24 24" xml:space="preserve" ><g class="nc-icon-wrapper" fill="currentColor"><path fill="currentColor" d="M20,11.101V11c0-4.072-3.06-7.436-7-7.931V1c0-0.552-0.448-1-1-1s-1,0.448-1,1v2.069 C7.06,3.564,4,6.928,4,11v0.101C1.721,11.566,0,13.586,0,16c0,0.552,0.448,1,1,1h22c0.552,0,1-0.448,1-1 C24,13.586,22.279,11.566,20,11.101z M12,5c3.309,0,6,2.691,6,6H6C6,7.691,8.691,5,12,5z"></path> <rect data-color="color-2" x="11" y="20" fill="currentColor" width="2" height="4"></rect> <rect data-color="color-2" x="16.071" y="18.875" transform="matrix(0.9063 -0.4225 0.4225 0.9063 -7.222 9.1685)" fill="currentColor" width="2" height="4.001"></rect> <rect data-color="color-2" x="4.928" y="19.876" transform="matrix(0.4225 -0.9063 0.9063 0.4225 -14.9197 18.3345)" fill="currentColor" width="4.001" height="2"></rect> <circle fill="currentColor" cx="12" cy="8" r="1"></circle></g></svg>