<svg id="nc_icon" version="1.1" xmlns="http://www.w3.org/2000/svg" xmlns:xlink="http://www.w3.org/1999/xlink" x="0px" y="0px" viewBox="0 0 24 24" xml:space="preserve" ><g class="nc-icon-wrapper" fill="currentColor"><path fill="currentColor" d="M12,0C5.4,0,0,5.4,0,12s5.4,12,12,12c6.6,0,12-5.4,12-12S18.6,0,12,0z M17.4,5.7l0.9,1.8l-3.8,1.9l-0.9-1.8 L17.4,5.7z M6.6,5.7l3.8,1.9L9.4,9.3L5.7,7.4L6.6,5.7z M15.5,19h-7C6.6,19,5,17.4,5,15.5S6.6,12,8.5,12h7c1.9,0,3.5,1.6,3.5,3.5 S17.4,19,15.5,19z"></path></g></svg>