<svg id="nc_icon" version="1.1" xmlns="http://www.w3.org/2000/svg" xmlns:xlink="http://www.w3.org/1999/xlink" x="0px" y="0px" viewBox="0 0 24 24" xml:space="preserve" ><g class="nc-icon-wrapper" fill="currentColor"><path data-color="color-2" fill="currentColor" d="M23,10h-3c-0.6,0-1,0.4-1,1v4H5v-4c0-0.6-0.4-1-1-1H1c-0.6,0-1,0.4-1,1v9c0,0.6,0.4,1,1,1h2 v2c0,0.6,0.4,1,1,1s1-0.4,1-1v-2h14v2c0,0.6,0.4,1,1,1s1-0.4,1-1v-2h2c0.6,0,1-0.4,1-1v-9C24,10.4,23.6,10,23,10z"></path> <path fill="currentColor" d="M6,8c0.6,0,1,0.4,1,1v4h10V9c0-0.6,0.4-1,1-1h3V1c0-0.6-0.4-1-1-1H4C3.4,0,3,0.4,3,1v7H6z"></path></g></svg>