<svg id="nc_icon" version="1.1" xmlns="http://www.w3.org/2000/svg" xmlns:xlink="http://www.w3.org/1999/xlink" x="0px" y="0px" viewBox="0 0 24 24" xml:space="preserve" ><g class="nc-icon-wrapper" fill="currentColor"><path fill="currentColor" d="M18,5H6C5.447,5,5,5.448,5,6v12c0,0.552,0.447,1,1,1h12c0.553,0,1-0.448,1-1V6C19,5.448,18.553,5,18,5z"></path> <rect data-color="color-2" x="5" fill="currentColor" width="2" height="3"></rect> <rect data-color="color-2" x="0.5" y="4.5" transform="matrix(4.456530e-11 -1 1 4.456530e-11 -4.5 7.5)" fill="currentColor" width="2" height="3"></rect> <rect data-color="color-2" x="17" y="0" transform="matrix(-1 -4.502011e-11 4.502011e-11 -1 36 3)" fill="currentColor" width="2" height="3"></rect> <rect data-color="color-2" x="21.5" y="4.5" transform="matrix(6.123234e-17 -1 1 6.123234e-17 16.5 28.5)" fill="currentColor" width="2" height="3"></rect> <rect data-color="color-2" x="5" y="21" fill="currentColor" width="2" height="3"></rect> <rect data-color="color-2" x="0.5" y="16.5" transform="matrix(4.456506e-11 1 -1 4.456506e-11 19.5 16.5)" fill="currentColor" width="2" height="3"></rect> <rect data-color="color-2" x="17" y="21" transform="matrix(-1 4.501987e-11 -4.501987e-11 -1 36 45)" fill="currentColor" width="2" height="3"></rect> <rect data-color="color-2" x="21.5" y="16.5" transform="matrix(-1.836970e-16 1 -1 -1.836970e-16 40.5 -4.5)" fill="currentColor" width="2" height="3"></rect></g></svg>