<svg id="nc_icon" version="1.1" xmlns="http://www.w3.org/2000/svg" xmlns:xlink="http://www.w3.org/1999/xlink" x="0px" y="0px" viewBox="0 0 24 24" xml:space="preserve" ><g class="nc-icon-wrapper" fill="currentColor"><path fill="currentColor" d="M12,16c3.3,0,6-2.7,6-6V6c0-3.3-2.7-6-6-6S6,2.7,6,6v4C6,13.3,8.7,16,12,16z"></path> <path data-color="color-2" fill="currentColor" d="M22,10c0-0.6-0.4-1-1-1s-1,0.4-1,1c0,4.4-3.6,8-8,8s-8-3.6-8-8c0-0.6-0.4-1-1-1s-1,0.4-1,1 c0,5.2,4,9.4,9,9.9V22H7c-0.6,0-1,0.4-1,1s0.4,1,1,1h10c0.6,0,1-0.4,1-1s-0.4-1-1-1h-4v-2.1C18,19.4,22,15.2,22,10z"></path></g></svg>