<svg id="nc_icon" version="1.1" xmlns="http://www.w3.org/2000/svg" xmlns:xlink="http://www.w3.org/1999/xlink" x="0px" y="0px" viewBox="0 0 24 24" xml:space="preserve" ><g class="nc-icon-wrapper" fill="currentColor"><polygon data-color="color-2" fill="currentColor" points="16,0.586 11,5.586 9,3.586 7.586,5 11,8.414 17.414,2 "></polygon> <path fill="currentColor" d="M9.884,19.499C9.023,18.815,7.563,18,5.5,18s-3.523,0.815-4.383,1.498C0.407,20.061,0,20.912,0,21.836V24h11 v-2.164C11,20.912,10.593,20.061,9.884,19.499z"></path> <circle fill="currentColor" cx="5.5" cy="13.5" r="3.5"></circle> <path fill="currentColor" d="M22.884,19.499C22.023,18.815,20.563,18,18.5,18s-3.523,0.815-4.383,1.498 C13.407,20.061,13,20.912,13,21.836V24h11v-2.164C24,20.912,23.593,20.061,22.884,19.499z"></path> <circle fill="currentColor" cx="18.5" cy="13.5" r="3.5"></circle></g></svg>