<svg id="nc_icon" version="1.1" xmlns="http://www.w3.org/2000/svg" xmlns:xlink="http://www.w3.org/1999/xlink" x="0px" y="0px" viewBox="0 0 24 24" xml:space="preserve" ><g class="nc-icon-wrapper" fill="currentColor"><path fill="currentColor" d="M18,5h-3.3l-1.2-4c-0.2-0.6-0.8-1-1.5-1s-1.2,0.4-1.5,1.1L9.3,5H6C5.4,5,5,5.4,5,6v2c0,0.6,0.4,1,1,1h1.4 C6.5,9.7,6,10.8,6,12v8c0,2.2,1.8,4,4,4h4c2.2,0,4-1.8,4-4v-8c0-1.2-0.5-2.3-1.4-3H18c0.6,0,1-0.4,1-1V6C19,5.4,18.6,5,18,5z M15,21 h-3v-2h3V21z M15,17h-3v-2h3V17z M15,13h-3v-2h3V13z"></path></g></svg>