<svg id="nc_icon" version="1.1" xmlns="http://www.w3.org/2000/svg" xmlns:xlink="http://www.w3.org/1999/xlink" x="0px" y="0px" viewBox="0 0 24 24" xml:space="preserve" ><g class="nc-icon-wrapper" fill="currentColor"><path fill="currentColor" d="M23,4h-6V1c0-0.553-0.447-1-1-1H8C7.447,0,7,0.447,7,1v3H1C0.447,4,0,4.447,0,5v6c0,2.757,2.243,5,5,5h1v-3 H4v-2h6v2H8v3h8v-3h-2v-2h6v2h-2v3h1c2.757,0,5-2.243,5-5V5C24,4.447,23.553,4,23,4z M15,4H9V2h6V4z"></path> <path data-color="color-2" fill="currentColor" d="M19,18h-1v3h-2v-3H8v3H6v-3H5c-1.074,0-2.089-0.251-3-0.685V23c0,0.553,0.447,1,1,1h18 c0.553,0,1-0.447,1-1v-5.685C21.089,17.749,20.074,18,19,18z"></path></g></svg>