<svg id="nc_icon" version="1.1" xmlns="http://www.w3.org/2000/svg" xmlns:xlink="http://www.w3.org/1999/xlink" x="0px" y="0px" viewBox="0 0 24 24" xml:space="preserve" ><g class="nc-icon-wrapper" fill="currentColor"><path fill="currentColor" d="M15,20c0-3.151,2.887-5.531,6-4.899V6c0-0.552-0.448-1-1-1h-4c0-2.757-2.243-5-5-5S6,2.243,6,5H2 C1.448,5,1,5.448,1,6v17c0,0.552,0.448,1,1,1h15.027C15.804,23.089,15,21.643,15,20z M8,5c0-1.654,1.346-3,3-3s3,1.346,3,3H8z"></path> <rect data-color="color-2" x="17" y="19" fill="currentColor" width="6" height="2"></rect></g></svg>