<svg id="nc_icon" version="1.1" xmlns="http://www.w3.org/2000/svg" xmlns:xlink="http://www.w3.org/1999/xlink" x="0px" y="0px" viewBox="0 0 24 24" xml:space="preserve" ><g class="nc-icon-wrapper" fill="currentColor"><path fill="currentColor" d="M15,20c0-3.161,2.903-5.541,6.021-4.894l-1.029-8.23C19.93,6.376,19.504,6,19,6h-3V5c0-2.757-2.243-5-5-5 S6,2.243,6,5v1H3C2.496,6,2.07,6.376,2.008,6.876l-2,16C-0.066,23.467,0.394,24,1,24h16.028C15.804,23.089,15,21.643,15,20z M14,6H8 V5c0-1.654,1.346-3,3-3s3,1.346,3,3V6z"></path> <polygon data-color="color-2" fill="currentColor" points="23,19 21,19 21,17 19,17 19,19 17,19 17,21 19,21 19,23 21,23 21,21 23,21 "></polygon></g></svg>