<svg id="nc_icon" version="1.1" xmlns="http://www.w3.org/2000/svg" xmlns:xlink="http://www.w3.org/1999/xlink" x="0px" y="0px" viewBox="0 0 24 24" xml:space="preserve" ><g class="nc-icon-wrapper" fill="currentColor"><path fill="currentColor" d="M21.9,2.1c-2.3-2.3-6.1-2.3-8.5,0L2.1,13.4c-2.3,2.3-2.3,6.1,0,8.5c1.2,1.2,2.7,1.8,4.2,1.8 c1.5,0,3.1-0.6,4.2-1.8l11.3-11.3C24.2,8.2,24.2,4.4,21.9,2.1z M8.8,19.3c-0.1,0-0.2,0.1-0.3,0.1c-0.4,0-0.8-0.3-0.9-0.7l-1.4-4.2 c-0.2-0.5,0.1-1.1,0.6-1.3C7.3,13,7.8,13.3,8,13.8L9.4,18C9.6,18.6,9.3,19.1,8.8,19.3z M13,15.1c-0.1,0-0.2,0.1-0.3,0.1 c-0.4,0-0.8-0.3-0.9-0.7l-1.4-4.2c-0.2-0.5,0.1-1.1,0.6-1.3c0.5-0.2,1.1,0.1,1.3,0.6l1.4,4.2C13.8,14.3,13.5,14.9,13,15.1z M17.3,10.8c-0.1,0-0.2,0.1-0.3,0.1c-0.4,0-0.8-0.3-0.9-0.7L14.6,6c-0.2-0.5,0.1-1.1,0.6-1.3c0.5-0.2,1.1,0.1,1.3,0.6l1.4,4.2 C18.1,10.1,17.8,10.7,17.3,10.8z"></path></g></svg>