<svg id="nc_icon" version="1.1" xmlns="http://www.w3.org/2000/svg" xmlns:xlink="http://www.w3.org/1999/xlink" x="0px" y="0px" viewBox="0 0 24 24" xml:space="preserve" ><g class="nc-icon-wrapper" fill="currentColor"><path data-color="color-2" fill="currentColor" d="M1.7,12.3C1.5,12,1,11.9,0.6,12.1C0.3,12.2,0,12.6,0,13v9c0,0.6,0.4,1,1,1h8 c0.4,0,0.8-0.2,0.9-0.6s0.1-0.8-0.2-1.1L1.7,12.3z"></path> <path data-color="color-2" fill="currentColor" d="M23.4,12.1c-0.4-0.1-0.8,0-1.1,0.3l-8,9c-0.3,0.3-0.3,0.7-0.2,1.1S14.6,23,15,23h8 c0.6,0,1-0.4,1-1v-9C24,12.6,23.7,12.2,23.4,12.1z"></path> <path fill="currentColor" d="M6,13h12c0.6,0,1-0.4,1-1V2c0-0.6-0.4-1-1-1H6C5.4,1,5,1.4,5,2v10C5,12.6,5.4,13,6,13z"></path></g></svg>