<svg id="nc_icon" version="1.1" xmlns="http://www.w3.org/2000/svg" xmlns:xlink="http://www.w3.org/1999/xlink" x="0px" y="0px" viewBox="0 0 24 24" xml:space="preserve" ><g class="nc-icon-wrapper" fill="currentColor"><path fill="currentColor" d="M12,0C5.4,0,0,5.4,0,12s5.4,12,12,12s12-5.4,12-12S18.6,0,12,0z M18.1,13c0.2,1.8,0.9,3.5,1.9,5 c-0.4,0.5-0.9,1-1.4,1.5c-1.5-1.9-2.4-4.1-2.6-6.5h-3v8.9c-0.3,0-0.7,0.1-1,0.1s-0.7,0-1-0.1V13H8c-0.2,2.4-1.1,4.6-2.6,6.5 c-0.5-0.5-1-1-1.4-1.5c1.1-1.5,1.8-3.2,1.9-5H2.1C2,12.7,2,12.3,2,12s0-0.7,0.1-1h3.9C5.8,9.2,5.1,7.5,4,6c0.4-0.5,0.9-1,1.4-1.5 C6.9,6.4,7.8,8.6,8,11h3V2.1C11.3,2,11.7,2,12,2s0.7,0,1,0.1V11h3c0.2-2.4,1.1-4.6,2.6-6.5c0.5,0.5,1,1,1.4,1.5 c-1.1,1.5-1.8,3.2-1.9,5h3.9c0,0.3,0.1,0.7,0.1,1s0,0.7-0.1,1H18.1z"></path></g></svg>