<svg id="nc_icon" version="1.1" xmlns="http://www.w3.org/2000/svg" xmlns:xlink="http://www.w3.org/1999/xlink" x="0px" y="0px" viewBox="0 0 24 24" xml:space="preserve" ><g class="nc-icon-wrapper" fill="currentColor"><path data-color="color-2" fill="currentColor" d="M12.2,11.6c2.3,1,4.5,1.6,6.4,1.6c1.1,0,1.8-0.2,2.2-0.3l0.1,0c0.3-0.1,0.6-0.1,0.9-0.1 c0.4,0,0.8,0.1,1.1,0.2c0.1-0.2,0.2-0.3,0.2-0.5c0.6-1.7,0-3.2-0.9-4c-0.6-0.6-1.4-0.7-2.1-0.3l-0.1,0.1c-1,0.5-4,2.1-10,1 C9.5,9,8.9,8.9,8.3,8.7C9.1,9.9,10.2,10.7,12.2,11.6z"></path> <path fill="currentColor" d="M23.4,15.6c-0.5-0.7-1.2-1-2-0.8l-0.1,0c-1.1,0.3-4.4,1.1-9.9-1.4C5.8,10.9,5.4,8.2,5,2.2 C5,2,4.8,1.7,4.6,1.5C4.4,1.4,4.1,1.3,3.9,1.3L1.4,1.6c-0.5,0.1-0.9,0.5-0.9,1l0.1,3.5C0.4,7-0.5,10.8,0.4,14.5 c1.2,5.2,7.3,8.1,12.6,8.2c0.3,0,0.5,0,0.8,0c4.6,0,8.3-1.2,9.5-3C24.3,18.2,24.1,16.5,23.4,15.6z"></path></g></svg>