<svg id="nc_icon" version="1.1" xmlns="http://www.w3.org/2000/svg" xmlns:xlink="http://www.w3.org/1999/xlink" x="0px" y="0px" viewBox="0 0 24 24" xml:space="preserve" ><g class="nc-icon-wrapper" fill="currentColor"><path fill="currentColor" d="M23,6h-3.991l-3.141-5.496c-0.273-0.479-0.884-0.646-1.364-0.372c-0.479,0.273-0.646,0.885-0.372,1.364 L16.705,6H7.294l2.574-4.504c0.274-0.479,0.107-1.09-0.372-1.364c-0.478-0.274-1.09-0.107-1.364,0.372L4.991,6H1 C0.448,6,0,6.447,0,7v3c0,0.553,0.448,1,1,1h1v11c0,0.553,0.448,1,1,1h7v-2H4V11h19c0.552,0,1-0.447,1-1V7C24,6.447,23.552,6,23,6z"></path> <path data-color="color-2" fill="currentColor" d="M18,13c-2.283,0-4.274,1.542-4.842,3.751l1.937,0.498C15.436,15.925,16.63,15,18,15 c0.808,0,1.573,0.331,2.131,0.893l-1.608,1.168L22.792,18l0.428-4.351l-1.466,1.065C20.813,13.644,19.45,13,18,13z"></path> <path data-color="color-2" fill="currentColor" d="M18,22c-0.808,0-1.573-0.331-2.131-0.893l1.608-1.168L13.208,19l-0.428,4.351l1.466-1.065 C15.187,23.356,16.55,24,18,24c2.283,0,4.274-1.542,4.842-3.751l-1.937-0.498C20.564,21.075,19.37,22,18,22z"></path></g></svg>