<svg id="nc_icon" version="1.1" xmlns="http://www.w3.org/2000/svg" xmlns:xlink="http://www.w3.org/1999/xlink" x="0px" y="0px" viewBox="0 0 24 24" xml:space="preserve" ><g class="nc-icon-wrapper" fill="currentColor"><path fill="currentColor" d="M19.6005859,2.2011719L18.0048828,1l-0.0058594,1.9970703 C17.9943237,4.8170166,16.7412109,6.3969727,15,6.8469849C15,5.3157959,15,3,15,3l-2,2h-2L9,3c0,0,0,2.3157959,0,3.8469849 C7.2587891,6.3969727,6.0056763,4.8170166,6.0009766,2.9970703L5.9951172,1L4.3994141,2.2011719 C1.6035156,4.3051758,0,7.5073242,0,10.9873047c0,2.0009766,0.5537109,3.9711914,1.6025391,5.6972656l0.5664062,0.9331055 l0.8798828-0.6459961C3.9140625,16.3359375,4.9345703,16,6,16c1.7949219,0,4.2148438,3.6704102,5.1054688,5.4477539L12,23.230957 l0.8945312-1.7832031C13.7851562,19.6704102,16.2050781,16,18,16c1.0654297,0,2.0859375,0.3359375,2.9511719,0.9716797 l0.8798828,0.6459961l0.5664062-0.9331055C23.4462891,14.9584961,24,12.9882812,24,10.9873047 C24,7.5073242,22.3964844,4.3051758,19.6005859,2.2011719z"></path></g></svg>