<svg id="nc_icon" version="1.1" xmlns="http://www.w3.org/2000/svg" xmlns:xlink="http://www.w3.org/1999/xlink" x="0px" y="0px" viewBox="0 0 24 24" xml:space="preserve" ><g class="nc-icon-wrapper" fill="currentColor"><path fill="currentColor" d="M24,4c0-2.20557-1.79443-4-4-4c-1.44934,0-2.75116,0.79297-3.45325,1.99408C15.18085,1.3631,13.638,1,12,1 S8.81915,1.3631,7.45325,1.99408C6.75116,0.79297,5.44934,0,4,0C1.79443,0,0,1.79443,0,4c0,1.60541,0.96228,2.9978,2.36292,3.63196 C2.13324,8.38788,2,9.17938,2,10c0,5.50684,4.29395,14,10,14s10-8.49316,10-14c0-0.82062-0.13324-1.61212-0.36292-2.36804 C23.03772,6.9978,24,5.60541,24,4z M7,8.5C7,7.67157,7.67157,7,8.5,7S10,7.67157,10,8.5S9.32843,10,8.5,10S7,9.32843,7,8.5z M15,19 H9v-2h2v-2.33331l-1.40002-1.8667C9.35278,12.47034,9.58795,12,10,12h4c0.41205,0,0.64722,0.47034,0.40002,0.79999L13,14.66669V17h2 V19z M15.5,10C14.67157,10,14,9.32843,14,8.5S14.67157,7,15.5,7S17,7.67157,17,8.5S16.32843,10,15.5,10z"></path></g></svg>