<svg id="nc_icon" version="1.1" xmlns="http://www.w3.org/2000/svg" xmlns:xlink="http://www.w3.org/1999/xlink" x="0px" y="0px" viewBox="0 0 24 24" xml:space="preserve" ><g class="nc-icon-wrapper" fill="currentColor"><path fill="currentColor" d="M19,11c0-1.6,0-3,0-3c0-3.9-3.1-7-7-7S5,4.1,5,8c0,0,0,1.4,0,3c0,3.3-3,4.1-3,6c0,1.7,3.9,3,10,3 s10-1.3,10-3C22,15.1,19,14.3,19,11z"></path> <path data-color="color-2" fill="currentColor" d="M12,22c-1.3,0-2.4-0.1-3.5-0.2c0.7,1.3,2,2.2,3.5,2.2s2.9-0.9,3.5-2.2 C14.4,21.9,13.3,22,12,22z"></path></g></svg>