<svg id="nc_icon" version="1.1" xmlns="http://www.w3.org/2000/svg" xmlns:xlink="http://www.w3.org/1999/xlink" x="0px" y="0px" viewBox="0 0 24 24" xml:space="preserve" ><g class="nc-icon-wrapper" fill="currentColor"><circle data-color="color-2" fill="currentColor" cx="12" cy="5" r="4"></circle> <path fill="currentColor" d="M22.000061,18.5L18,15.4411621v-3.8823853l4.000061-3.0588379 c1.1044922-0.8286133,1.328125-2.3955078,0.5-3.5c-0.828125-1.1035156-2.3945312-1.3286133-3.5-0.5L17.986084,5.2753906 C17.8406982,8.4557495,15.2156372,11,12,11S6.1593018,8.4557495,6.013916,5.2753906L4.999939,4.499939 c-1.1054688-0.8286133-2.671875-0.6035156-3.5,0.5c-0.828125,1.1044922-0.6044922,2.6713867,0.5,3.5L6,11.5587769v3.8823853 L1.999939,18.5c-1.1044922,0.8286133-1.328125,2.3955078-0.5,3.5c0.828125,1.1035156,2.3945312,1.3286133,3.5,0.5 l3.3553467-2.5658569c2.1513062-1.6452026,5.1381226-1.6452026,7.2894287,0L19.000061,22.5 c1.1054688,0.8286133,2.671875,0.6035156,3.5-0.5C23.328186,20.8955078,23.1045532,19.3286133,22.000061,18.5z"></path></g></svg>