<svg id="nc_icon" version="1.1" xmlns="http://www.w3.org/2000/svg" xmlns:xlink="http://www.w3.org/1999/xlink" x="0px" y="0px" viewBox="0 0 24 24" xml:space="preserve" ><g class="nc-icon-wrapper" fill="currentColor"><path fill="currentColor" d="M12,0C5.4,0,0,5.4,0,12s5.4,12,12,12c6.6,0,12-5.4,12-12S18.6,0,12,0z M6,12.4L4.6,11l1.5-1.5L4.6,8L6,6.6 l1.5,1.5L9,6.6L10.4,8L8.9,9.5l1.5,1.5L9,12.4l-1.5-1.5L6,12.4z M12,20c-1.7,0-3-1.3-3-3s1.3-3,3-3c1.7,0,3,1.3,3,3S13.7,20,12,20z M19.4,11L18,12.4l-1.5-1.5L15,12.4L13.6,11l1.5-1.5L13.6,8L15,6.6l1.5,1.5L18,6.6L19.4,8l-1.5,1.5L19.4,11z"></path></g></svg>