<svg id="nc_icon" version="1.1" xmlns="http://www.w3.org/2000/svg" xmlns:xlink="http://www.w3.org/1999/xlink" x="0px" y="0px" viewBox="0 0 24 24" xml:space="preserve" ><g class="nc-icon-wrapper" fill="currentColor"><path data-color="color-2" fill="currentColor" d="M23,18H13h-2H1c-0.553,0-1,0.448-1,1s0.447,1,1,1h6.586l-2.293,2.293l1.414,1.414L10.414,20 H11v3h2v-3h0.586l3.707,3.707l1.414-1.414L16.414,20H23c0.553,0,1-0.448,1-1S23.553,18,23,18z"></path> <path fill="currentColor" d="M21,0H3C2.448,0,2,0.448,2,1v15h20V1C22,0.448,21.552,0,21,0z M9,12H7V8h2V12z M13,12h-2V4h2V12z M17,12h-2 V6h2V12z"></path></g></svg>