<svg id="nc_icon" version="1.1" xmlns="http://www.w3.org/2000/svg" xmlns:xlink="http://www.w3.org/1999/xlink" x="0px" y="0px" viewBox="0 0 24 24" xml:space="preserve" ><g class="nc-icon-wrapper" fill="currentColor"><path fill="currentColor" d="M22.7,4.3l-3-3c-0.4-0.4-1-0.4-1.4,0L12,7.6L5.7,1.3c-0.4-0.4-1-0.4-1.4,0l-3,3c-0.4,0.4-0.4,1,0,1.4L7.6,12 l-6.3,6.3c-0.4,0.4-0.4,1,0,1.4l3,3c0.4,0.4,1,0.4,1.4,0l6.3-6.3l6.3,6.3c0.2,0.2,0.5,0.3,0.7,0.3s0.5-0.1,0.7-0.3l3-3 c0.4-0.4,0.4-1,0-1.4L16.4,12l6.3-6.3C23.1,5.3,23.1,4.7,22.7,4.3z"></path></g></svg>