<svg id="nc_icon" version="1.1" xmlns="http://www.w3.org/2000/svg" xmlns:xlink="http://www.w3.org/1999/xlink" x="0px" y="0px" viewBox="0 0 24 24" xml:space="preserve" ><g class="nc-icon-wrapper" fill="currentColor"><path fill="currentColor" d="M5,2H1C0.448,2,0,2.447,0,3v18c0,0.553,0.448,1,1,1h4c0.552,0,1-0.447,1-1V3C6,2.447,5.552,2,5,2z"></path> <path data-color="color-2" fill="currentColor" d="M13,2H9C8.448,2,8,2.447,8,3v18c0,0.553,0.448,1,1,1h4c0.552,0,1-0.447,1-1V3 C14,2.447,13.552,2,13,2z"></path> <path fill="currentColor" d="M23.972,19.823L19.736,2.329c-0.13-0.537-0.675-0.87-1.207-0.736l-3.888,0.94 c-0.258,0.062-0.48,0.225-0.618,0.451c-0.138,0.226-0.181,0.498-0.119,0.756l4.235,17.495c0.062,0.258,0.225,0.48,0.451,0.618 C18.75,21.95,18.93,22,19.112,22c0.079,0,0.158-0.01,0.235-0.028l3.888-0.941C23.772,20.9,24.102,20.36,23.972,19.823z"></path></g></svg>