<svg id="nc_icon" version="1.1" xmlns="http://www.w3.org/2000/svg" xmlns:xlink="http://www.w3.org/1999/xlink" x="0px" y="0px" viewBox="0 0 24 24" xml:space="preserve" ><g class="nc-icon-wrapper" fill="currentColor"><circle data-color="color-2" fill="currentColor" cx="12" cy="12" r="4"></circle> <path fill="currentColor" d="M6.302,10.131C7.09,7.735,9.344,6,12,6h10.252c-2.079-3.581-5.946-6-10.377-6C8.27,0,5.039,1.605,2.838,4.13 L6.302,10.131z"></path> <path fill="currentColor" d="M13.228,17.873C12.831,17.956,12.421,18,12,18c-2.217,0-4.151-1.211-5.19-3.003L6.804,15L1.554,5.908 C0.495,7.696-0.125,9.775-0.125,12c0,5.909,4.296,10.821,9.926,11.808L13.228,17.873z"></path> <path fill="currentColor" d="M16.46,8C17.414,9.063,18,10.462,18,12c0,1.092-0.298,2.114-0.81,2.997L17.196,15l-5.192,8.993 c6.557-0.07,11.871-5.42,11.871-11.993c0-1.404-0.255-2.747-0.7-4H16.46z"></path></g></svg>