<svg id="nc_icon" version="1.1" xmlns="http://www.w3.org/2000/svg" xmlns:xlink="http://www.w3.org/1999/xlink" x="0px" y="0px" viewBox="0 0 24 24" xml:space="preserve" ><g class="nc-icon-wrapper" fill="currentColor"><path data-color="color-2" fill="currentColor" d="M7,10H5V1c0-0.553,0.447-1,1-1h12c0.553,0,1,0.447,1,1v6h-2V2H7V10z"></path> <path fill="currentColor" d="M23,8h-9c-0.553,0-1,0.447-1,1v13h-2v-9c0-0.553-0.447-1-1-1H1c-0.553,0-1,0.447-1,1v10c0,0.553,0.447,1,1,1 h22c0.553,0,1-0.447,1-1V9C24,8.447,23.553,8,23,8z M7,21H4v-2h3V21z M7,17H4v-2h3V17z M20,21h-3v-2h3V21z M20,17h-3v-2h3V17z M20,13h-3v-2h3V13z"></path></g></svg>