<svg id="nc_icon" version="1.1" xmlns="http://www.w3.org/2000/svg" xmlns:xlink="http://www.w3.org/1999/xlink" x="0px" y="0px" viewBox="0 0 24 24" xml:space="preserve" ><g class="nc-icon-wrapper" fill="currentColor"><path data-color="color-2" fill="currentColor" d="M7,13V2c0-1.10457,0.89543-2,2-2h0c1.10457,0,2,0.89543,2,2v11H7z"></path> <path data-color="color-2" fill="currentColor" d="M13,13V2c0-1.10457,0.89543-2,2-2h0c1.10457,0,2,0.89543,2,2v11H13z"></path> <path fill="currentColor" d="M12.00001,24h-0.00001C8.134,24,5,20.866,5,17.00001V15c0-0.55229,0.44772-1,1-1h12c0.55228,0,1,0.44771,1,1 v2.00001C19,20.866,15.866,24,12.00001,24z"></path></g></svg>