<svg id="nc_icon" version="1.1" xmlns="http://www.w3.org/2000/svg" xmlns:xlink="http://www.w3.org/1999/xlink" x="0px" y="0px" viewBox="0 0 24 24" xml:space="preserve" ><g class="nc-icon-wrapper" fill="currentColor"><path fill="currentColor" d="M12,0C6.48633,0,2,4.48584,2,10c0,3.604,1.90039,6.86426,5,8.65088V23c0,0.55225,0.44727,1,1,1h8 c0.55273,0,1-0.44775,1-1v-4.34912C20.09961,16.86426,22,13.604,22,10C22,4.48584,17.51367,0,12,0z M17,10c0,2.20911-1.79083,4-4,4 v4h-2V6h2v3.37952C13.73322,8.54077,14.7984,8,16,8h1V10z"></path></g></svg>