<svg id="nc_icon" version="1.1" xmlns="http://www.w3.org/2000/svg" xmlns:xlink="http://www.w3.org/1999/xlink" x="0px" y="0px" viewBox="0 0 24 24" xml:space="preserve" ><g class="nc-icon-wrapper" fill="currentColor"><path fill="currentColor" d="M6,1H2C1.447,1,1,1.447,1,2v4c0,0.553,0.447,1,1,1h4c0.553,0,1-0.447,1-1V2C7,1.447,6.553,1,6,1z"></path> <path fill="currentColor" d="M6,9H2c-0.553,0-1,0.447-1,1v4c0,0.553,0.447,1,1,1h4c0.553,0,1-0.447,1-1v-4C7,9.447,6.553,9,6,9z"></path> <path fill="currentColor" d="M6,17H2c-0.553,0-1,0.447-1,1v4c0,0.553,0.447,1,1,1h4c0.553,0,1-0.447,1-1v-4C7,17.447,6.553,17,6,17z"></path> <rect data-color="color-2" x="9" y="3" fill="currentColor" width="14" height="2"></rect> <rect data-color="color-2" x="9" y="11" fill="currentColor" width="14" height="2"></rect> <rect data-color="color-2" x="9" y="19" fill="currentColor" width="14" height="2"></rect></g></svg>