<svg id="nc_icon" version="1.1" xmlns="http://www.w3.org/2000/svg" xmlns:xlink="http://www.w3.org/1999/xlink" x="0px" y="0px" viewBox="0 0 24 24" xml:space="preserve" ><g class="nc-icon-wrapper" fill="currentColor"><path fill="currentColor" d="M23,3h-4V1c0-0.6-0.4-1-1-1H6C5.4,0,5,0.4,5,1v2H1C0.4,3,0,3.4,0,4v19c0,0.6,0.4,1,1,1h10V9c0-0.6,0.4-1,1-1 s1,0.4,1,1v15h10c0.6,0,1-0.4,1-1V4C24,3.4,23.6,3,23,3z M7.8,7.6C7.4,7.8,7,7.6,7,7.2V3.1l3.3,2.8L7.8,7.6z M17,3.1v4.1 c0,0.4-0.4,0.6-0.8,0.4l-2.6-1.7L17,3.1z M21,15h-5v-2h5V15z"></path></g></svg>