<svg id="nc_icon" version="1.1" xmlns="http://www.w3.org/2000/svg" xmlns:xlink="http://www.w3.org/1999/xlink" x="0px" y="0px" viewBox="0 0 24 24" xml:space="preserve" ><g class="nc-icon-wrapper" fill="currentColor"><path fill="currentColor" d="M21.548,16.562l-4.708-2.837c1.221-1.437,1.993-3.474,2.136-5.899c0.226-3.831-2.569-7.492-6.394-7.802 C8.461-0.311,5,2.948,5,7c0,2.789,0.803,5.128,2.16,6.726L2.456,16.56C1.552,17.104,1,18.082,1,19.137V23c0,0.552,0.448,1,1,1h20 c0.552,0,1-0.448,1-1v-3.867C23,18.081,22.449,17.105,21.548,16.562z M7.05,8.032c0.315,0.041,0.628,0.073,0.935,0.073 c1.842,0,3.586-0.618,5-1.757c1.144,0.92,2.508,1.494,3.964,1.682C16.634,11.591,14.691,14,12,14C9.31,14,7.366,11.592,7.05,8.032z M18,20h-5v-2h5V20z"></path></g></svg>