<svg id="nc_icon" version="1.1" xmlns="http://www.w3.org/2000/svg" xmlns:xlink="http://www.w3.org/1999/xlink" x="0px" y="0px" viewBox="0 0 24 24" xml:space="preserve" ><g class="nc-icon-wrapper" fill="currentColor"><path fill="currentColor" d="M17.497,3.47c-0.478-0.276-1.09-0.113-1.366,0.366c-0.276,0.478-0.112,1.09,0.366,1.366 C19.274,6.808,21,9.796,21,13c0,4.963-4.037,9-9,9s-9-4.037-9-9c0-3.203,1.725-6.19,4.501-7.797 c0.478-0.276,0.642-0.888,0.364-1.366C7.59,3.358,6.978,3.193,6.499,3.473C3.107,5.435,1,9.086,1,13c0,6.065,4.935,11,11,11 s11-4.935,11-11C23,9.084,20.892,5.432,17.497,3.47z"></path> <path data-color="color-2" fill="currentColor" d="M12,9c0.553,0,1-0.447,1-1V1c0-0.553-0.447-1-1-1s-1,0.447-1,1v7C11,8.553,11.447,9,12,9z"></path></g></svg>