<svg id="nc_icon" version="1.1" xmlns="http://www.w3.org/2000/svg" xmlns:xlink="http://www.w3.org/1999/xlink" x="0px" y="0px" viewBox="0 0 24 24" xml:space="preserve" ><g class="nc-icon-wrapper" fill="currentColor"><path fill="currentColor" d="M17.581,11.187l-14-10C3.276,0.969,2.875,0.941,2.542,1.11C2.209,1.282,2,1.625,2,2v20 c0,0.375,0.209,0.718,0.542,0.89C2.687,22.964,2.844,23,3,23c0.205,0,0.408-0.062,0.581-0.187l14-10C17.844,12.626,18,12.323,18,12 S17.844,11.374,17.581,11.187z"></path> <path data-color="color-2" fill="currentColor" d="M21,0c-0.552,0-1,0.447-1,1v22c0,0.553,0.448,1,1,1s1-0.447,1-1V1C22,0.447,21.552,0,21,0z"></path></g></svg>