<svg id="nc_icon" version="1.1" xmlns="http://www.w3.org/2000/svg" xmlns:xlink="http://www.w3.org/1999/xlink" x="0px" y="0px" viewBox="0 0 24 24" xml:space="preserve" ><g class="nc-icon-wrapper" fill="currentColor"><path fill="currentColor" d="M9.61,1.207c-0.303-0.232-0.71-0.271-1.052-0.104C8.216,1.271,8,1.619,8,2v4.43L1.633,1.226 c-0.3-0.243-0.712-0.297-1.062-0.129C0.223,1.262,0,1.613,0,2v20c0,0.387,0.223,0.738,0.571,0.903C0.708,22.969,0.854,23,1,23 c0.226,0,0.451-0.077,0.633-0.226L8,17.57V22c0,0.381,0.216,0.729,0.558,0.897c0.341,0.166,0.749,0.127,1.052-0.104l13-10 C22.856,12.604,23,12.311,23,12s-0.144-0.604-0.39-0.793L9.61,1.207z"></path></g></svg>