<svg id="nc_icon" version="1.1" xmlns="http://www.w3.org/2000/svg" xmlns:xlink="http://www.w3.org/1999/xlink" x="0px" y="0px" viewBox="0 0 24 24" xml:space="preserve" ><g class="nc-icon-wrapper" fill="currentColor"><path fill="currentColor" d="M14.2,8.1C14.7,7.5,15,6.8,15,6c0-1.3-1.5-3.6-2.2-4.6L12,0.2l-0.8,1.2C10.5,2.4,9,4.7,9,6 c0,0.8,0.3,1.5,0.8,2.1C5.3,8.4,1,9.6,1,12v8c0,2.7,5.7,4,11,4s11-1.3,11-4v-8C23,9.6,18.7,8.4,14.2,8.1z M11,10v2h2v-2 c5.1,0.2,7.8,1.5,8,2c-0.2,0.6-3.2,2-9,2c-5.9,0-8.8-1.5-9-2C3.1,11.5,5.8,10.2,11,10z"></path></g></svg>