<svg id="nc_icon" version="1.1" xmlns="http://www.w3.org/2000/svg" xmlns:xlink="http://www.w3.org/1999/xlink" x="0px" y="0px" viewBox="0 0 24 24" xml:space="preserve" ><g class="nc-icon-wrapper" fill="currentColor"><path fill="currentColor" d="M23,4h-3.465l-1.703-2.555C17.646,1.167,17.334,1,17,1h-6c-0.334,0-0.646,0.167-0.832,0.445L8.465,4H1 C0.447,4,0,4.448,0,5v17c0,0.552,0.447,1,1,1h22c0.553,0,1-0.448,1-1V5C24,4.448,23.553,4,23,4z M6,21H4V6h2V21z M14,18 c-2.761,0-5-2.239-5-5s2.239-5,5-5s5,2.239,5,5S16.761,18,14,18z"></path></g></svg>