<svg id="nc_icon" version="1.1" xmlns="http://www.w3.org/2000/svg" xmlns:xlink="http://www.w3.org/1999/xlink" x="0px" y="0px" viewBox="0 0 24 24" xml:space="preserve" ><g class="nc-icon-wrapper" fill="currentColor"><path fill="currentColor" d="M19,0H5C2.243,0,0,2.243,0,5v14c0,2.757,2.243,5,5,5h14c2.757,0,5-2.243,5-5V5C24,2.243,21.757,0,19,0z M12,5c2.761,0,5,2.239,5,5s-2.239,5-5,5s-5-2.239-5-5S9.239,5,12,5z M5,4c0.552,0,1,0.448,1,1c0,0.552-0.448,1-1,1S4,5.552,4,5 C4,4.448,4.448,4,5,4z M20,20H4v-2h16V20z"></path></g></svg>