<svg id="nc_icon" version="1.1" xmlns="http://www.w3.org/2000/svg" xmlns:xlink="http://www.w3.org/1999/xlink" x="0px" y="0px" viewBox="0 0 24 24" xml:space="preserve" ><g class="nc-icon-wrapper" fill="currentColor"><path fill="currentColor" d="M5,15V5h5V3H5V1c0-0.552-0.447-1-1-1H0v2h3v14c0,0.552,0.447,1,1,1h20v-2H5z"></path> <path data-color="color-2" fill="currentColor" d="M18,10l4.202-4.269c1.065-1.082,1.065-2.837,0-3.919C20.985,0.576,18.955,0.778,18,2.24 c-0.956-1.464-2.986-1.663-4.201-0.428c-1.065,1.082-1.065,2.837,0,3.919L18,10z"></path> <circle data-color="color-2" fill="currentColor" cx="5.5" cy="21.5" r="2.5"></circle> <circle data-color="color-2" fill="currentColor" cx="21.5" cy="21.5" r="2.5"></circle></g></svg>