<svg id="nc_icon" version="1.1" xmlns="http://www.w3.org/2000/svg" xmlns:xlink="http://www.w3.org/1999/xlink" x="0px" y="0px" viewBox="0 0 24 24" xml:space="preserve" ><g class="nc-icon-wrapper" fill="currentColor"><path fill="currentColor" d="M2.9,15.763c-0.473,0-0.893-0.336-0.982-0.817L0.453,7.082c-0.101-0.543,0.258-1.065,0.8-1.166 c0.548-0.105,1.065,0.257,1.167,0.8l1.465,7.865c0.101,0.543-0.258,1.065-0.8,1.166C3.022,15.758,2.961,15.763,2.9,15.763z"></path> <path fill="currentColor" d="M21.899,2.071C21.851,1.81,21.7,1.58,21.481,1.429c-0.217-0.149-0.486-0.207-0.748-0.158L5.004,4.2 C4.461,4.301,4.103,4.823,4.203,5.366l1.83,9.831c0.049,0.261,0.199,0.491,0.418,0.642c0.167,0.115,0.365,0.175,0.565,0.175 c0.061,0,0.122-0.005,0.183-0.017l15.729-2.929c0.543-0.101,0.901-0.623,0.801-1.166L21.899,2.071z M10.183,8.983 c-0.543,0.101-1.065-0.257-1.166-0.8c-0.101-0.543,0.257-1.065,0.8-1.166c0.543-0.101,1.065,0.257,1.166,0.8 C11.084,8.36,10.726,8.882,10.183,8.983z"></path> <path data-color="color-2" fill="currentColor" d="M23,21h-4v-5h-2v5h-4c-0.553,0-1,0.448-1,1s0.447,1,1,1h10c0.553,0,1-0.448,1-1 S23.553,21,23,21z"></path></g></svg>