<svg id="nc_icon" version="1.1" xmlns="http://www.w3.org/2000/svg" xmlns:xlink="http://www.w3.org/1999/xlink" x="0px" y="0px" viewBox="0 0 24 24" xml:space="preserve" ><g class="nc-icon-wrapper" fill="currentColor"><path fill="currentColor" d="M23,7h-2v2h1v7H2V9h1V7H1C0.447,7,0,7.448,0,8v11c0,0.552,0.447,1,1,1h10v2H7c-0.553,0-1,0.448-1,1 s0.447,1,1,1h4h2h4c0.553,0,1-0.448,1-1s-0.447-1-1-1h-4v-2h10c0.553,0,1-0.448,1-1V8C24,7.448,23.553,7,23,7z"></path> <path data-color="color-2" fill="currentColor" d="M5,14h14V1c0-0.552-0.448-1-1-1H6C5.448,0,5,0.448,5,1V14z"></path></g></svg>