<svg id="nc_icon" version="1.1" xmlns="http://www.w3.org/2000/svg" xmlns:xlink="http://www.w3.org/1999/xlink" x="0px" y="0px" viewBox="0 0 24 24" xml:space="preserve" ><g class="nc-icon-wrapper" fill="currentColor"><path fill="currentColor" d="M23,4h-5.65l-4.726-3.781c-0.365-0.292-0.884-0.292-1.249,0L6.65,4H1C0.448,4,0,4.448,0,5v18 c0,0.552,0.448,1,1,1h22c0.552,0,1-0.448,1-1V5C24,4.448,23.552,4,23,4z M12,2.281L14.149,4H9.851L12,2.281z M21,21H3V7h18V21z"></path> <path data-color="color-2" fill="currentColor" d="M18,16h-5c-0.552,0-1,0.448-1,1v2h7v-2C19,16.448,18.552,16,18,16z"></path></g></svg>