<svg id="nc_icon" version="1.1" xmlns="http://www.w3.org/2000/svg" xmlns:xlink="http://www.w3.org/1999/xlink" x="0px" y="0px" viewBox="0 0 24 24" xml:space="preserve" ><g class="nc-icon-wrapper" fill="currentColor"><polygon data-color="color-2" fill="currentColor" points="24,13 19,9 19,12 10,12 10,14 19,14 19,17 "></polygon> <path fill="currentColor" d="M18,22H2V4h3v2h2V4h6v2h2V4h3v3h2V3c0-0.552-0.447-1-1-1h-4V0h-2v2H7V0H5v2H1C0.447,2,0,2.448,0,3v20 c0,0.552,0.447,1,1,1h18c0.553,0,1-0.448,1-1v-4h-2V22z"></path></g></svg>