<svg id="nc_icon" version="1.1" xmlns="http://www.w3.org/2000/svg" xmlns:xlink="http://www.w3.org/1999/xlink" x="0px" y="0px" viewBox="0 0 24 24" xml:space="preserve" ><g class="nc-icon-wrapper" fill="currentColor"><path fill="currentColor" d="M11,16c-0.3,0-0.5-0.1-0.7-0.3l-4-4c-0.4-0.4-0.4-1,0-1.4s1-0.4,1.4,0l3.3,3.3L21.3,3.3c0.4-0.4,1-0.4,1.4,0 s0.4,1,0,1.4l-11,11C11.5,15.9,11.3,16,11,16z"></path> <path data-color="color-2" fill="currentColor" d="M20,24H1c-0.6,0-1-0.4-1-1V4c0-0.6,0.4-1,1-1h14c0.6,0,1,0.4,1,1s-0.4,1-1,1H2v17h17v-9 c0-0.6,0.4-1,1-1s1,0.4,1,1v10C21,23.6,20.6,24,20,24z"></path></g></svg>