<svg id="nc_icon" version="1.1" xmlns="http://www.w3.org/2000/svg" xmlns:xlink="http://www.w3.org/1999/xlink" x="0px" y="0px" viewBox="0 0 24 24" xml:space="preserve" ><g class="nc-icon-wrapper" fill="currentColor"><path fill="currentColor" d="M2,18c0,3.3,2.7,6,6,6H16c3.3,0,6-2.7,6-6H2z"></path> <path fill="currentColor" d="M14,1h-4C5.6,1,2,4.6,2,9h20C22,4.6,18.4,1,14,1z"></path> <path data-color="color-2" fill="currentColor" d="M21.3,11H19l-3,3l-3-3H2.7C1.2,11,0,12.1,0,13.5C0,14.9,1.2,16,2.7,16h18.5 c1.5,0,2.7-1.1,2.7-2.5C24,12.1,22.8,11,21.3,11z"></path></g></svg>