<svg id="nc_icon" version="1.1" xmlns="http://www.w3.org/2000/svg" xmlns:xlink="http://www.w3.org/1999/xlink" x="0px" y="0px" viewBox="0 0 24 24" xml:space="preserve" ><g class="nc-icon-wrapper" fill="currentColor"><path data-color="color-2" fill="currentColor" d="M13,21h-2H5v2c0,0.6,0.4,1,1,1h12c0.6,0,1-0.4,1-1v-2H13z"></path> <path fill="currentColor" d="M18,4c-0.1,0-0.2,0-0.3,0c-0.8-2.3-3-4-5.7-4S7.2,1.7,6.3,4C6.2,4,6.1,4,6,4c-3.3,0-6,2.7-6,6 c0,3,2.2,5.4,5,5.9V19h6v-4h2v4h6v-3.1c2.8-0.5,5-2.9,5-5.9C24,6.7,21.3,4,18,4z"></path></g></svg>