<svg id="nc_icon" version="1.1" xmlns="http://www.w3.org/2000/svg" xmlns:xlink="http://www.w3.org/1999/xlink" x="0px" y="0px" viewBox="0 0 24 24" xml:space="preserve" ><g class="nc-icon-wrapper" fill="currentColor"><path fill="currentColor" d="M23,16H1c-0.553,0-1,0.447-1,1v6c0,0.553,0.447,1,1,1h22c0.553,0,1-0.447,1-1v-6C24,16.447,23.553,16,23,16z M6,21H3v-2h3V21z M21,21H10v-2h11V21z"></path> <path data-color="color-2" fill="currentColor" d="M4,6v8h16V3.5C20,1.57,18.43,0,16.5,0h-13C1.57,0,0,1.57,0,3.5V5c0,0.553,0.447,1,1,1H4z M2,3.5 C2,2.673,2.673,2,3.5,2h9.838C13.121,2.455,13,2.964,13,3.5V4H2V3.5z"></path></g></svg>