<svg id="nc_icon" version="1.1" xmlns="http://www.w3.org/2000/svg" xmlns:xlink="http://www.w3.org/1999/xlink" x="0px" y="0px" viewBox="0 0 24 24" xml:space="preserve" ><g class="nc-icon-wrapper" fill="currentColor"><path fill="currentColor" d="M21,14c-0.6-0.4-1.3-0.3-2-0.1c0-0.1,0-0.2-0.1-0.3c-1.4-2.7-2.3-6.7,0.8-9.8C20,3.4,20.1,3,19.9,2.6 C19.8,2.2,19.4,2,19,2c-1.6,0-3.2,0.3-4.8,0.9C13.2,2,10.7,0,8,0C4.7,0,1.4,3.2,1.3,3.3L0.6,4l0.7,0.7c0.1,0.1,2.8,2.7,5.8,3.2 c-1.3,1.8-2,3.8-2.1,6c-0.7-0.1-1.4-0.3-2,0.1c-1.2,0.9-2,2.4-2,4c0,2.8,2.2,5,5,5s5-2.2,5-5c0-1.6-0.8-3.1-2-4 c-0.6-0.4-1.3-0.3-2-0.1C7.1,11,8.6,9,10,7.7c2.2-0.7,4-2.3,4.6-2.8c0.8-0.3,1.5-0.5,2.3-0.7c-1.6,2.7-1.6,6.1,0,9.6 c-0.7-0.1-1.3-0.3-1.8,0.2c-1.2,0.9-2,2.4-2,4c0,2.8,2.2,5,5,5s5-2.2,5-5C23,16.4,22.2,14.9,21,14z"></path></g></svg>