<svg id="nc_icon" version="1.1" xmlns="http://www.w3.org/2000/svg" xmlns:xlink="http://www.w3.org/1999/xlink" x="0px" y="0px" viewBox="0 0 24 24" xml:space="preserve" ><g class="nc-icon-wrapper" fill="currentColor"><path fill="currentColor" d="M23,16.1c-0.3-0.6-1-0.9-1.6-0.8c-0.9,0.2-1.8,0.3-2.6,0.5c-4.5,0.9-6,1.2-8-1.4c-0.7-0.9-0.7-2.2-0.7-3.5 c0-0.7,0-1.5-0.1-2.1c-0.3-1.7-1.6-3-3.3-3.6C6.9,5.1,7,5,7.2,5C7.7,4.9,8.1,4.4,8,3.8C7.9,3.3,7.4,2.9,6.8,3C6.1,3.1,5,3.7,4.4,5 C1.5,5.2,0,6.9,0,10c0,4.5,1.7,8,3.2,9.7c2.1,2.4,5.1,3.7,8.4,3.7c0.1,0,0.1,0,0.2,0c4.1-0.1,8-2,11-5.5 C23.2,17.3,23.3,16.6,23,16.1z"></path> <path data-color="color-2" fill="currentColor" d="M16,9c0.3,0,0.5-0.1,0.7-0.3l3-3c0.4-0.4,0.4-1,0-1.4s-1-0.4-1.4,0l-3,3 c-0.4,0.4-0.4,1,0,1.4C15.5,8.9,15.7,9,16,9z"></path> <path data-color="color-2" fill="currentColor" d="M16.6,11.2c0.1,0.5,0.5,0.8,1,0.8c0.1,0,0.1,0,0.2,0l4.2-0.7c0.5-0.1,0.9-0.6,0.8-1.2 c-0.1-0.5-0.6-0.9-1.2-0.8L17.4,10C16.9,10.1,16.5,10.6,16.6,11.2z"></path> <path data-color="color-2" fill="currentColor" d="M12.8,7.4c0.1,0,0.1,0,0.2,0c0.5,0,0.9-0.3,1-0.8l0.7-4.2c0.1-0.5-0.3-1.1-0.8-1.2 c-0.5-0.1-1.1,0.3-1.2,0.8L12,6.3C11.9,6.8,12.3,7.3,12.8,7.4z"></path></g></svg>