<svg id="nc_icon" version="1.1" xmlns="http://www.w3.org/2000/svg" xmlns:xlink="http://www.w3.org/1999/xlink" x="0px" y="0px" viewBox="0 0 24 24" xml:space="preserve" ><g class="nc-icon-wrapper" fill="currentColor"><path fill="currentColor" d="M23,11c-0.1,0-1.5-0.1-2.4-1H21c0.6,0,1-0.4,1-1V8c0-0.5-0.4-1-1-1c0,0-2.5-0.1-3-2.2C17.9,4.3,17.5,4,17,4 h-1.1c-0.6-2.2-3-3.7-3.3-3.9c-0.3-0.2-0.7-0.2-1,0C11.2,0.3,8.8,1.8,8.1,4H7C6.5,4,6.1,4.3,6,4.8C5.5,6.9,3.1,7,3,7 C2.4,7,2,7.5,2,8v1c0,0.6,0.4,1,1,1h0.4c-0.9,0.9-2.3,1-2.4,1c-0.5,0-1,0.5-1,1v1c0,0.6,0.4,1,1,1h22c0.6,0,1-0.4,1-1v-1 C24,11.5,23.6,11,23,11z"></path> <path data-color="color-2" fill="currentColor" d="M2,16v6c0,0.6,0.4,1,1,1h8v-3h2v3h8c0.6,0,1-0.4,1-1v-6H2z"></path></g></svg>