<svg id="nc_icon" version="1.1" xmlns="http://www.w3.org/2000/svg" xmlns:xlink="http://www.w3.org/1999/xlink" x="0px" y="0px" viewBox="0 0 24 24" xml:space="preserve" ><g class="nc-icon-wrapper" fill="currentColor"><path data-color="color-2" fill="currentColor" d="M12,24c-0.6,0-1-0.4-1-1v-3c0-0.6,0.4-1,1-1s1,0.4,1,1v3C13,23.6,12.6,24,12,24z"></path> <path fill="currentColor" d="M19.9,7.1C19.2,3,15.7,0,11.5,0C7.3,0,3.6,3.2,3.1,7.4C1.3,8.1,0,9.9,0,12c0,2.8,2.2,5,5,5h2v-3 c0-0.6,0.4-1,1-1s1,0.4,1,1v3h6v-3c0-0.6,0.4-1,1-1s1,0.4,1,1v3h2c2.8,0,5-2.2,5-5C24,9.5,22.2,7.5,19.9,7.1z"></path> <path data-color="color-2" fill="currentColor" d="M7,17v3c0,0.6,0.4,1,1,1s1-0.4,1-1v-3H7z"></path> <path data-color="color-2" fill="currentColor" d="M15,17v3c0,0.6,0.4,1,1,1s1-0.4,1-1v-3H15z"></path></g></svg>