<svg id="nc_icon" version="1.1" xmlns="http://www.w3.org/2000/svg" xmlns:xlink="http://www.w3.org/1999/xlink" x="0px" y="0px" viewBox="0 0 24 24" xml:space="preserve" ><g class="nc-icon-wrapper" fill="currentColor"><path fill="currentColor" d="M18,8c-0.6,0-1,0.4-1,1v1h-4V1c0-0.6-0.4-1-1-1s-1,0.4-1,1v3H7V3c0-0.6-0.4-1-1-1S5,2.4,5,3v2 c0,0.6,0.4,1,1,1h5v10H7v-1c0-0.6-0.4-1-1-1s-1,0.4-1,1v2c0,0.6,0.4,1,1,1h5v4H9c-0.6,0-1,0.4-1,1s0.4,1,1,1h6c0.6,0,1-0.4,1-1 s-0.4-1-1-1h-2V12h5c0.6,0,1-0.4,1-1V9C19,8.4,18.6,8,18,8z"></path></g></svg>