<svg id="nc_icon" version="1.1" xmlns="http://www.w3.org/2000/svg" xmlns:xlink="http://www.w3.org/1999/xlink" x="0px" y="0px" viewBox="0 0 24 24" xml:space="preserve" ><g class="nc-icon-wrapper" fill="currentColor"><path fill="currentColor" d="M23,7c0-2.8-2.2-5-5-5c-2.4,0-4.4,1.7-4.9,4h-4L8,0.8C7.9,0.3,7.5,0,7,0H3C2.4,0,2,0.4,2,1s0.4,1,1,1h3.2 l0.9,4H4C3.4,6,3,6.4,3,7v13c0,2.2,1.8,4,4,4h8c2.2,0,4-1.8,4-4v-8.1C21.3,11.4,23,9.4,23,7z M17,8v6h-6.1L9.6,8H17z M7.5,8l1.3,6H5 V8H7.5z"></path></g></svg>