<svg id="nc_icon" version="1.1" xmlns="http://www.w3.org/2000/svg" xmlns:xlink="http://www.w3.org/1999/xlink" x="0px" y="0px" viewBox="0 0 24 24" xml:space="preserve" ><g class="nc-icon-wrapper" fill="currentColor"><path data-color="color-2" fill="currentColor" d="M22,2h-4.4l-0.7-1.4C16.7,0.2,16.4,0,16,0H8C7.6,0,7.3,0.2,7.1,0.6L6.4,2H2C1.4,2,1,2.4,1,3 v2c0,0.6,0.4,1,1,1h20c0.6,0,1-0.4,1-1V3C23,2.4,22.6,2,22,2z"></path> <path fill="currentColor" d="M20.8,8H3.2L5,23.1C5.1,23.6,5.5,24,6,24h12c0.5,0,0.9-0.4,1-0.9L20.8,8z"></path></g></svg>