<svg id="nc_icon" version="1.1" xmlns="http://www.w3.org/2000/svg" xmlns:xlink="http://www.w3.org/1999/xlink" x="0px" y="0px" viewBox="0 0 24 24" xml:space="preserve" ><g class="nc-icon-wrapper" fill="currentColor"><path data-color="color-2" fill="currentColor" d="M23,18H1c-0.55273,0-1,0.44775-1,1v4c0,0.55225,0.44727,1,1,1h22c0.55273,0,1-0.44775,1-1v-4 C24,18.44775,23.55273,18,23,18z"></path> <path fill="currentColor" d="M14.49021,16v-1.19305l1.81207-0.19884L15,11H9l-1.22902,3.60811l1.79047,0.19884V16H4.47795v-1.17146 l0.95012-0.24293c0.3545-0.08817,0.46426-0.15475,0.55244-0.42018L10.84268,0h2.56425l4.95035,14.18793 c0.08817,0.26542,0.26452,0.30951,0.53084,0.37519l0.99331,0.24383V16H14.49021z M12.05912,1.72389L9.45169,9.50301h5.16988 L12.05912,1.72389z"></path></g></svg>