<svg id="nc_icon" version="1.1" xmlns="http://www.w3.org/2000/svg" xmlns:xlink="http://www.w3.org/1999/xlink" x="0px" y="0px" viewBox="0 0 24 24" xml:space="preserve" ><g class="nc-icon-wrapper" fill="currentColor"><path data-color="color-2" fill="currentColor" d="M6,18H1c-0.553,0-1-0.448-1-1V3c0-0.552,0.447-1,1-1h5v2H2v12h4V18z"></path> <path fill="currentColor" d="M23,0H9C8.447,0,8,0.448,8,1v22c0,0.552,0.447,1,1,1h14c0.553,0,1-0.448,1-1V1C24,0.448,23.553,0,23,0z M16,19c-1.654,0-3-1.346-3-3s1.346-3,3-3s3,1.346,3,3S17.654,19,16,19z M19,11h-6V9h6V11z M19,7h-6V5h6V7z"></path> <path data-color="color-2" fill="currentColor" d="M3,20c-0.553,0-1,0.448-1,1s0.447,1,1,1h3v-2H3z"></path></g></svg>