<svg id="nc_icon" version="1.1" xmlns="http://www.w3.org/2000/svg" xmlns:xlink="http://www.w3.org/1999/xlink" x="0px" y="0px" viewBox="0 0 24 24" xml:space="preserve" ><g class="nc-icon-wrapper" fill="currentColor"><path fill="currentColor" d="M12,24C5.383,24,0,18.617,0,12S5.383,0,12,0s12,5.383,12,12S18.617,24,12,24z M12,2C6.486,2,2,6.486,2,12 s4.486,10,10,10s10-4.486,10-10S17.514,2,12,2z"></path> <path data-color="color-2" fill="currentColor" d="M9.238,9.238l-4.142,9.666l9.666-4.142l4.142-9.666L9.238,9.238z M8.904,15.096l1.858-4.334 l2.477,2.477L8.904,15.096z"></path></g></svg>