<svg id="nc_icon" version="1.1" xmlns="http://www.w3.org/2000/svg" xmlns:xlink="http://www.w3.org/1999/xlink" x="0px" y="0px" viewBox="0 0 24 24" xml:space="preserve" ><g class="nc-icon-wrapper" fill="currentColor"><path data-color="color-2" fill="currentColor" d="M23,15H13v-1c0-0.552-0.448-1-1-1s-1,0.448-1,1v1H1v2h10v1c0,0.552,0.448,1,1,1s1-0.448,1-1 v-1h10V15z"></path> <path fill="currentColor" d="M23,23L15.568,8.771C15.836,8.235,16,7.639,16,7c0-1.858-1.28-3.411-3-3.858V1h-2v2.142 C9.28,3.589,8,5.142,8,7c0,0.639,0.164,1.235,0.432,1.771L1,23l5-3l4.762-9.216c0.874,0.287,1.598,0.288,2.476,0L18,20L23,23z M10,7 c0-1.103,0.897-2,2-2s2,0.897,2,2s-0.897,2-2,2S10,8.103,10,7z"></path></g></svg>