<svg id="nc_icon" version="1.1" xmlns="http://www.w3.org/2000/svg" xmlns:xlink="http://www.w3.org/1999/xlink" x="0px" y="0px" viewBox="0 0 24 24" xml:space="preserve" ><g class="nc-icon-wrapper" fill="currentColor"><path fill="currentColor" d="M17,8H7c-3.86,0-7,3.14-7,7s3.14,7,7,7h10c3.86,0,7-3.14,7-7S20.86,8,17,8z M10,16H8v2H6v-2H4v-2h2v-2h2v2h2 V16z M15,17c-0.552,0-1-0.448-1-1c0-0.552,0.448-1,1-1s1,0.448,1,1C16,16.552,15.552,17,15,17z M18,15c-0.552,0-1-0.448-1-1 c0-0.552,0.448-1,1-1s1,0.448,1,1C19,14.552,18.552,15,18,15z"></path> <path data-color="color-2" fill="currentColor" d="M13,2c0-0.552-0.448-1-1-1s-1,0.448-1,1v4h2V2z"></path></g></svg>