<svg id="nc_icon" version="1.1" xmlns="http://www.w3.org/2000/svg" xmlns:xlink="http://www.w3.org/1999/xlink" x="0px" y="0px" viewBox="0 0 24 24" xml:space="preserve" ><g class="nc-icon-wrapper" fill="currentColor"><path data-color="color-2" fill="currentColor" d="M13,2c0-0.552-0.448-1-1-1s-1,0.448-1,1v5h2V2z"></path> <path fill="currentColor" d="M18,9H6c-3.309,0-6,2.691-6,6s2.691,6,6,6c2.155,0,4.127-1.158,5.191-3h1.617c1.064,1.842,3.036,3,5.191,3 c3.309,0,6-2.691,6-6S21.309,9,18,9z M9,16H7v2H5v-2H3v-2h2v-2h2v2h2V16z M17,18c-0.552,0-1-0.448-1-1c0-0.552,0.448-1,1-1 s1,0.448,1,1C18,17.552,17.552,18,17,18z M20,15c-0.552,0-1-0.448-1-1c0-0.552,0.448-1,1-1s1,0.448,1,1C21,14.552,20.552,15,20,15z"></path></g></svg>