<svg id="nc_icon" version="1.1" xmlns="http://www.w3.org/2000/svg" xmlns:xlink="http://www.w3.org/1999/xlink" x="0px" y="0px" viewBox="0 0 24 24" xml:space="preserve" ><g class="nc-icon-wrapper" fill="currentColor"><path fill="currentColor" d="M20,1c0-0.6-0.4-1-1-1s-1,0.4-1,1v2.1c-3.1,0.2-5,1.5-6,2.5c-1-0.9-2.9-2.2-6-2.5V1c0-0.6-0.4-1-1-1 S4,0.4,4,1v3c0,3.7,1.2,7.3,1.8,8.7c-0.4,0.4-1,1.1-1.4,2c-1.6,3.6,5.7,7.4,7.2,8.1C11.7,23,11.9,23,12,23s0.3,0,0.4-0.1 c1.5-0.7,8.8-4.5,7.2-8.1c-0.4-0.9-1-1.6-1.4-2C18.8,11.3,20,7.7,20,4V1z"></path></g></svg>