<svg id="nc_icon" version="1.1" xmlns="http://www.w3.org/2000/svg" xmlns:xlink="http://www.w3.org/1999/xlink" x="0px" y="0px" viewBox="0 0 24 24" xml:space="preserve" ><g class="nc-icon-wrapper" fill="currentColor"><path data-color="color-2" fill="currentColor" d="M9.878,15.121C10.445,15.688,11.199,16,12,16s1.555-0.312,2.121-0.878 C14.688,14.555,15,13.801,15,13s-0.312-1.555-0.879-2.122c-0.808-0.808-6.307-4.108-7.973-5.101L2.757,3.757l2.021,3.391 C5.77,8.814,9.072,14.315,9.878,15.121z"></path> <circle fill="currentColor" cx="12" cy="3" r="3"></circle> <path fill="currentColor" d="M17.505,3.475l-0.522-0.303c-0.025,0.723-0.207,1.402-0.509,2.016l0.029,0.017C19.277,6.812,21,9.798,21,13 c0,4.962-4.038,9-9,9s-9-4.038-9-9v-1H1v1c0,6.065,4.935,11,11,11s11-4.935,11-11C23,9.087,20.895,5.437,17.505,3.475z"></path></g></svg>