<svg id="nc_icon" version="1.1" xmlns="http://www.w3.org/2000/svg" xmlns:xlink="http://www.w3.org/1999/xlink" x="0px" y="0px" viewBox="0 0 24 24" xml:space="preserve" ><g class="nc-icon-wrapper" fill="currentColor"><path data-color="color-2" fill="currentColor" d="M14,10c0-3.86-3.141-7-7-7s-7,3.14-7,7c0,3.519,2.614,6.432,6,6.92v2.666l-2-2L2.586,19 L7,23.414L11.414,19L10,17.586l-2,2V16.92C11.386,16.432,14,13.519,14,10z M2,10c0-2.757,2.243-5,5-5s5,2.243,5,5s-2.243,5-5,5 S2,12.757,2,10z"></path> <path fill="currentColor" d="M18,0v2h2.586l-2.402,2.401C17.015,3.526,15.57,3,14,3c-3.859,0-7,3.14-7,7c0,3.859,3.141,7,7,7s7-3.141,7-7 c0-1.57-0.526-3.016-1.402-4.185L22,3.414V6h2V0H18z M14,15c-2.757,0-5-2.243-5-5s2.243-5,5-5s5,2.243,5,5S16.757,15,14,15z"></path></g></svg>