<svg id="nc_icon" version="1.1" xmlns="http://www.w3.org/2000/svg" xmlns:xlink="http://www.w3.org/1999/xlink" x="0px" y="0px" viewBox="0 0 24 24" xml:space="preserve" ><g class="nc-icon-wrapper" fill="currentColor"><path fill="currentColor" d="M18.6,13c0.7-0.8,1.2-1.9,1.3-3.1C22.2,9.5,24,7.4,24,5c0-1.4-0.5-2.6-1.5-3.6l-1.1-1l-0.6,1.4 C20.5,2.5,19.8,3,19,3s-1.5-0.5-1.9-1.2l-0.6-1.4l-1.1,1c-1,1-1.5,2.2-1.5,3.6c0,2.4,1.7,4.4,3.9,4.9c-0.2,1-0.7,1.8-1.2,2.2 c-1.4-0.6-3-1-4.7-1s-3.3,0.4-4.7,1c-0.5-0.4-1-1.2-1.2-2.2C8.3,9.4,10,7.4,10,5c0-1.4-0.5-2.6-1.5-3.6l-1.1-1L6.9,1.8 C6.5,2.5,5.8,3,5,3S3.5,2.5,3.1,1.8L2.6,0.4l-1.1,1C0.5,2.4,0,3.6,0,5c0,2.4,1.8,4.5,4.1,4.9c0.2,1.2,0.7,2.3,1.3,3.1 c-2.5,1.5-4,3.2-4.2,3.3c-0.3,0.4-0.3,1,0,1.3c0.1,0.1,1.1,1.2,2.8,2.4C3.2,21,3,22.2,3,23c0,0.6,0.4,1,1,1h0c0.6,0,1-0.4,1-1 c0,0,0-1.3,0.7-1.8c1.8,1,3.9,1.8,6.3,1.8c2.4,0,4.5-0.8,6.3-1.8C19,21.7,19,23,19,23c0,0.6,0.4,1,1,1h0c0.6,0,1-0.4,1-1 c0-0.8-0.3-2-1-2.9c1.6-1.2,2.7-2.3,2.8-2.4c0.3-0.4,0.3-1,0-1.3C22.6,16.2,21,14.5,18.6,13z"></path></g></svg>