<svg id="nc_icon" version="1.1" xmlns="http://www.w3.org/2000/svg" xmlns:xlink="http://www.w3.org/1999/xlink" x="0px" y="0px" viewBox="0 0 24 24" xml:space="preserve" ><g class="nc-icon-wrapper" fill="currentColor"><path fill="currentColor" d="M20.4,4.8C17.9,3,15,2,12,2S6.1,3,3.6,4.8C3.2,5.1,2.9,5.7,2.8,6.3c0,0.6,0.2,1.1,0.6,1.6l7.9,7.9 c0.2,0.2,0.5,0.3,0.7,0.3s0.5-0.1,0.7-0.3l7.9-7.9c0.4-0.4,0.6-1,0.6-1.6C21.1,5.7,20.8,5.1,20.4,4.8z"></path> <path data-color="color-2" fill="currentColor" d="M22.3,8.9C22.2,9,22.1,9.1,22,9.2L15.2,16h6.7c0.6,0,1.1-0.2,1.5-0.7c0.4-0.4,0.6-1,0.5-1.5 C23.8,12,23.2,10.4,22.3,8.9z"></path> <path fill="currentColor" d="M10.2,14.6l0.8,0.8c0.1-0.4,0.1-0.8-0.2-1.1c-0.3-0.3-0.7-0.4-1.1-0.2L10.2,14.6z"></path> <path fill="currentColor" d="M14.3,14.1c-0.4-0.1-0.8-0.1-1.1,0.2c-0.3,0.3-0.4,0.7-0.2,1.1L14.3,14.1z"></path> <path fill="currentColor" d="M21.9,18h-6.4l2.8,2.8c0.4,0.4,0.9,0.6,1.4,0.6c0.1,0,0.2,0,0.3,0c0.6-0.1,1.2-0.4,1.5-1 c0.4-0.8,0.8-1.6,1-2.5C22.4,18,22.2,18,21.9,18z"></path> <path fill="currentColor" d="M2.1,18c-0.2,0-0.4,0-0.7-0.1c0.2,0.9,0.6,1.7,1,2.5c0.3,0.5,0.8,0.9,1.5,1c0.1,0,0.2,0,0.3,0 c0.5,0,1-0.2,1.4-0.6L8.4,18H2.1z"></path> <path data-color="color-2" fill="currentColor" d="M2,9.2C1.9,9.1,1.8,9,1.7,8.9c-0.9,1.5-1.5,3.2-1.6,4.9c-0.1,0.6,0.1,1.1,0.5,1.5 C0.9,15.8,1.5,16,2.1,16h6.7L2,9.2z"></path></g></svg>