<svg id="nc_icon" version="1.1" xmlns="http://www.w3.org/2000/svg" xmlns:xlink="http://www.w3.org/1999/xlink" x="0px" y="0px" viewBox="0 0 24 24" xml:space="preserve" ><g class="nc-icon-wrapper" fill="currentColor"><path fill="currentColor" d="M14.584,4.487c-1.285,0-2.336,0.383-3.151,1.148s-1.36,1.923-1.634,3.473h6.234v2.105H9.594 c-0.035,0.779-0.049,0.941,0,1.9h5.578v2.092H9.826c0.583,2.844,2.242,4.266,4.977,4.266c1.303,0,2.639-0.282,4.006-0.848v2.775 c-2.564,1.194-6.906,1.323-9.522-0.971c-1.372-1.203-2.268-2.944-2.687-5.223H4.521v-2.092h1.859c-0.029-0.53-0.045-0.423,0-1.9 H4.521V9.108h2.051c0.346-2.288,1.217-4.083,2.611-5.387c1.395-1.303,3.194-1.955,5.4-1.955c1.822,0,3.454,0.401,4.895,1.203 L18.33,5.526C16.926,4.834,15.678,4.487,14.584,4.487z"></path></g></svg>