<svg id="nc_icon" version="1.1" xmlns="http://www.w3.org/2000/svg" xmlns:xlink="http://www.w3.org/1999/xlink" x="0px" y="0px" viewBox="0 0 24 24" xml:space="preserve" ><g class="nc-icon-wrapper" fill="currentColor"><path fill="currentColor" d="M14,19.242c0-0.79-0.46-1.503-1.181-1.826C11.498,16.826,9.249,16,7,16s-4.498,0.826-5.819,1.416 C0.46,17.739,0,18.452,0,19.242V22h14V19.242z"></path> <path fill="currentColor" d="M7,15L7,15c-1.7,0-3-1.3-3-3v-1c0-1.7,1.3-3,3-3l0,0c1.7,0,3,1.3,3,3v1C10,13.7,8.7,15,7,15z"></path> <path data-color="color-2" fill="currentColor" d="M12,2v10l4-3h7c0.552,0,1-0.448,1-1V2c0-0.552-0.448-1-1-1H13C12.448,1,12,1.448,12,2z"></path></g></svg>