<svg id="nc_icon" version="1.1" xmlns="http://www.w3.org/2000/svg" xmlns:xlink="http://www.w3.org/1999/xlink" x="0px" y="0px" viewBox="0 0 24 24" xml:space="preserve" ><g class="nc-icon-wrapper" fill="currentColor"><rect data-color="color-2" x="14" y="7" fill="currentColor" width="4" height="2"></rect> <rect data-color="color-2" x="14" y="21" fill="currentColor" width="4" height="2"></rect> <rect data-color="color-2" x="8" y="21" fill="currentColor" width="4" height="2"></rect> <rect data-color="color-2" x="22" y="13" fill="currentColor" width="2" height="4"></rect> <path data-color="color-2" fill="currentColor" d="M23,7h-3v2h2v2h2V8C24,7.447,23.553,7,23,7z"></path> <path data-color="color-2" fill="currentColor" d="M22,21h-2v2h3c0.553,0,1-0.447,1-1v-3h-2V21z"></path> <path data-color="color-2" fill="currentColor" d="M4,19H2v3c0,0.553,0.447,1,1,1h3v-2H4V19z"></path> <path fill="currentColor" d="M8.909,9.31l6.446,5.454C15.542,14.922,15.771,15,15.999,15c0.284,0,0.566-0.12,0.765-0.354 c0.356-0.421,0.304-1.052-0.118-1.409L10.457,8l6.189-5.236c0.422-0.357,0.475-0.988,0.118-1.409 c-0.357-0.422-0.987-0.474-1.409-0.118L8.909,6.69L5.798,4.058C5.923,3.728,6,3.374,6,3c0-1.654-1.346-3-3-3S0,1.346,0,3 s1.346,3,3,3c0.55,0,1.059-0.159,1.502-0.419L7.361,8l-2.858,2.419C4.059,10.159,3.55,10,3,10c-1.654,0-3,1.346-3,3s1.346,3,3,3 s3-1.346,3-3c0-0.374-0.077-0.728-0.202-1.058L8.909,9.31z M2,3c0-0.552,0.448-1,1-1s1,0.448,1,1S3.552,4,3,4S2,3.552,2,3z M3,14 c-0.552,0-1-0.448-1-1s0.448-1,1-1s1,0.448,1,1S3.552,14,3,14z"></path></g></svg>