<svg id="nc_icon" version="1.1" xmlns="http://www.w3.org/2000/svg" xmlns:xlink="http://www.w3.org/1999/xlink" x="0px" y="0px" viewBox="0 0 24 24" xml:space="preserve" ><g class="nc-icon-wrapper" fill="currentColor"><path fill="currentColor" d="M10,0C9.4,0,9,0.4,9,1v4H7V1c0-0.6-0.4-1-1-1S5,0.4,5,1v4H3V1c0-0.6-0.4-1-1-1S1,0.4,1,1v8c0,1.7,1.3,3,3,3 v10c0,1.1,0.9,2,2,2s2-0.9,2-2V12c1.7,0,3-1.3,3-3V1C11,0.4,10.6,0,10,0z"></path> <path data-color="color-2" fill="currentColor" d="M19,0c-3.3,0-6,2.7-6,6v9c0,0.6,0.4,1,1,1h2v6c0,1.1,0.9,2,2,2s2-0.9,2-2V1 C20,0.4,19.6,0,19,0z"></path></g></svg>