<svg id="nc_icon" version="1.1" xmlns="http://www.w3.org/2000/svg" xmlns:xlink="http://www.w3.org/1999/xlink" x="0px" y="0px" viewBox="0 0 24 24" xml:space="preserve" ><g class="nc-icon-wrapper" fill="currentColor"><path fill="currentColor" d="M24,5V1c0-0.5522461-0.4477539-1-1-1s-1,0.4477539-1,1v4c0,0.5512695-0.4487305,1-1,1h-1V3 c0-0.5522461-0.4477539-1-1-1s-1,0.4477539-1,1v3h-1.1193848C15.6275635,5.335022,13.999939,5,12,5S8.3724365,5.335022,7.1193848,6 H6V3c0-0.5522461-0.4477539-1-1-1S4,2.4477539,4,3v3H3C2.4487305,6,2,5.5512695,2,5V1c0-0.5522461-0.4477539-1-1-1S0,0.4477539,0,1 v4c0,1.6542969,1.3457031,3,3,3h1.9775391c-0.1896973,0.3108521-0.3571167,0.6410522-0.491272,1H1c-0.5522461,0-1,0.4477539-1,1 c0,2.0753326,1.613631,4,4.1448975,4C4.7800903,18.6270142,7.5169678,24,12,24s7.2199097-5.3729858,7.8551025-10 C22.4021873,14,24,12.0594931,24,10c0-0.5522461-0.4477539-1-1-1h-3.4862671c-0.1341553-0.3589478-0.3015747-0.6891479-0.491272-1 H21C22.6542969,8,24,6.6542969,24,5z M8,12c0-0.5523071,0.4476929-1,1-1s1,0.4476929,1,1c0,0.5522461-0.4476929,1-1,1 S8,12.5522461,8,12z M12,21c-1.6568604,0-3-1.3431396-3-3s1.3431396-3,3-3s3,1.3431396,3,3S13.6568604,21,12,21z M15,13 c-0.5523071,0-1-0.4477539-1-1c0-0.5523071,0.4476929-1,1-1s1,0.4476929,1,1C16,12.5522461,15.5523071,13,15,13z"></path></g></svg>