<svg id="nc_icon" version="1.1" xmlns="http://www.w3.org/2000/svg" xmlns:xlink="http://www.w3.org/1999/xlink" x="0px" y="0px" viewBox="0 0 24 24" xml:space="preserve" ><g class="nc-icon-wrapper" fill="currentColor"><path fill="currentColor" d="M23.447,12.105l-3.589-1.794L18.97,6.758C18.858,6.312,18.459,6,18,6h-4c0,4.418-3.582,8-8,8 c-2.393,0-4.534-1.056-6-2.721V19c0,0.553,0.447,1,1,1h10h0.051c0.252,2.244,2.139,4,4.449,4s4.197-1.756,4.449-4H23 c0.553,0,1-0.447,1-1v-6C24,12.621,23.786,12.275,23.447,12.105z M15.5,22c-1.379,0-2.5-1.121-2.5-2.5s1.121-2.5,2.5-2.5 s2.5,1.121,2.5,2.5S16.879,22,15.5,22z"></path> <path data-color="color-2" fill="currentColor" d="M6,12c3.314,0,6-2.686,6-6S9.314,0,6,0S0,2.686,0,6S2.686,12,6,12z M5,2h2v3h3v2H5V2z"></path></g></svg>