<svg id="nc_icon" version="1.1" xmlns="http://www.w3.org/2000/svg" xmlns:xlink="http://www.w3.org/1999/xlink" x="0px" y="0px" viewBox="0 0 24 24" xml:space="preserve" ><g class="nc-icon-wrapper" fill="currentColor"><path data-color="color-2" fill="currentColor" d="M20,3h4V1c0-0.6-0.4-1-1-1h-3V3z"></path> <path data-color="color-2" fill="currentColor" d="M18,3V0H1C0.4,0,0,0.4,0,1v2H18z"></path> <path fill="currentColor" d="M20,5h-2H0v18c0,0.6,0.4,1,1,1h22c0.6,0,1-0.4,1-1V5H20z M16,12c0,1.9-1.3,3.4-3,3.9V18h1c0.6,0,1,0.4,1,1 s-0.4,1-1,1h-4c-0.6,0-1-0.4-1-1s0.4-1,1-1h1v-2.1c-1.7-0.4-3-2-3-3.9V9h8V12z"></path></g></svg>