<svg id="nc_icon" version="1.1" xmlns="http://www.w3.org/2000/svg" xmlns:xlink="http://www.w3.org/1999/xlink" x="0px" y="0px" viewBox="0 0 24 24" xml:space="preserve" ><g class="nc-icon-wrapper" fill="currentColor"><path fill="currentColor" d="M23.2,16.4C23.7,15,24,13.5,24,12c0-6.6-5.4-12-12-12S0,5.4,0,12s5.4,12,12,12c5,0,9.3-3.1,11.1-7.5 C23.1,16.4,23.2,16.4,23.2,16.4z M5.8,4.2l0.5,0.5C6.5,4.9,6.7,5,7,5s0.5-0.1,0.7-0.3c0.4-0.4,0.4-1,0-1.4L7.5,3.1 C8.9,2.4,10.4,2,12,2c4.2,0,7.8,2.6,9.3,6.3l-1,1c-0.4,0.4-0.4,1,0,1.4c0.2,0.2,0.5,0.3,0.7,0.3s0.5-0.1,0.7-0.3l0.2-0.2 C22,11,22,11.5,22,12c0,1-0.2,2-0.4,2.9C19,14.4,17.8,13,17,11.7C16.8,9.1,14.6,7,12,7c-2.6,0-4.7,2-4.9,4.5c-1.7,1.3-3.7,1.1-5,0.1 C2.2,8.6,3.6,5.9,5.8,4.2z M15,12c0,1.7-1.3,3-3,3s-3-1.3-3-3s1.3-3,3-3S15,10.3,15,12z"></path> <path fill="currentColor" d="M17.3,7.7C17.5,7.9,17.7,8,18,8s0.5-0.1,0.7-0.3c0.4-0.4,0.4-1,0-1.4l-1-1c-0.4-0.4-1-0.4-1.4,0 s-0.4,1,0,1.4L17.3,7.7z"></path> <path fill="currentColor" d="M11,6c0.3,0,0.5-0.1,0.7-0.3l1-1c0.4-0.4,0.4-1,0-1.4s-1-0.4-1.4,0l-1,1c-0.4,0.4-0.4,1,0,1.4 C10.5,5.9,10.7,6,11,6z"></path> <path fill="currentColor" d="M4.3,9.7C4.5,9.9,4.7,10,5,10s0.5-0.1,0.7-0.3l1-1c0.4-0.4,0.4-1,0-1.4s-1-0.4-1.4,0l-1,1 C3.9,8.7,3.9,9.3,4.3,9.7z"></path></g></svg>