<svg id="nc_icon" version="1.1" xmlns="http://www.w3.org/2000/svg" xmlns:xlink="http://www.w3.org/1999/xlink" x="0px" y="0px" viewBox="0 0 24 24" xml:space="preserve" ><g class="nc-icon-wrapper" fill="currentColor"><path fill="currentColor" d="M19,1c-2.4,0-4.4,1.7-4.9,4H3C2.6,5,2.2,5.2,2.1,5.6C1.9,5.9,2,6.4,2.3,6.7l7.7,8.7V21H6c-0.6,0-1,0.4-1,1 s0.4,1,1,1h10c0.6,0,1-0.4,1-1s-0.4-1-1-1h-4v-5.6l4.5-5.1c0.8,0.4,1.6,0.7,2.5,0.7c2.8,0,5-2.2,5-5S21.8,1,19,1z M16.8,7l-2.7,3 H7.9L5.2,7H16.8z"></path></g></svg>