<svg id="nc_icon" version="1.1" xmlns="http://www.w3.org/2000/svg" xmlns:xlink="http://www.w3.org/1999/xlink" x="0px" y="0px" viewBox="0 0 24 24" xml:space="preserve" ><g class="nc-icon-wrapper" fill="currentColor"><path fill="currentColor" d="M10.6,17H8c-0.6,0-1-0.4-1-1v-2.6c0-0.3,0.1-0.5,0.3-0.7l10-10c0.4-0.4,1-0.4,1.4,0l2.6,2.6 c0.4,0.4,0.4,1,0,1.4l-10,10C11.1,16.9,10.9,17,10.6,17z"></path> <path data-color="color-2" fill="currentColor" d="M19,24H1c-0.6,0-1-0.4-1-1V5c0-0.6,0.4-1,1-1h8c0.6,0,1,0.4,1,1S9.6,6,9,6H2v16h16v-7 c0-0.6,0.4-1,1-1s1,0.4,1,1v8C20,23.6,19.6,24,19,24z"></path></g></svg>