<svg id="nc_icon" version="1.1" xmlns="http://www.w3.org/2000/svg" xmlns:xlink="http://www.w3.org/1999/xlink" x="0px" y="0px" viewBox="0 0 24 24" xml:space="preserve" ><g class="nc-icon-wrapper" fill="currentColor"><path data-color="color-2" fill="currentColor" d="M19,24H1c-0.6,0-1-0.4-1-1V5c0-0.6,0.4-1,1-1h8c0.6,0,1,0.4,1,1S9.6,6,9,6H2v16h16v-7 c0-0.6,0.4-1,1-1s1,0.4,1,1v8C20,23.6,19.6,24,19,24z"></path> <path fill="currentColor" d="M19.7,8.3l1.6-1.6c0.4-0.4,0.4-1,0-1.4l-2.6-2.6c-0.4-0.4-1-0.4-1.4,0l-1.6,1.6L19.7,8.3z"></path> <path fill="currentColor" d="M14.3,5.7l-7,7C7.1,12.9,7,13.1,7,13.4V16c0,0.6,0.4,1,1,1h2.6c0.3,0,0.5-0.1,0.7-0.3l7-7L14.3,5.7z"></path></g></svg>