<svg id="nc_icon" version="1.1" xmlns="http://www.w3.org/2000/svg" xmlns:xlink="http://www.w3.org/1999/xlink" x="0px" y="0px" viewBox="0 0 24 24" xml:space="preserve" ><g class="nc-icon-wrapper" fill="currentColor"><path fill="currentColor" d="M12.848,13.47c-0.365-0.584-1.33-0.584-1.695,0l-5,8c-0.193,0.309-0.203,0.697-0.027,1.015 C6.302,22.803,6.637,23,7,23h10c0.363,0,0.698-0.197,0.875-0.516c0.176-0.317,0.166-0.706-0.027-1.015L12.848,13.47z"></path> <path data-color="color-2" fill="currentColor" d="M23,1H1C0.447,1,0,1.447,0,2v17c0,0.553,0.447,1,1,1h4v-2H2V3h20v15h-3v2h4 c0.553,0,1-0.447,1-1V2C24,1.447,23.553,1,23,1z"></path></g></svg>