<svg id="nc_icon" version="1.1" xmlns="http://www.w3.org/2000/svg" xmlns:xlink="http://www.w3.org/1999/xlink" x="0px" y="0px" viewBox="0 0 24 24" xml:space="preserve" ><g class="nc-icon-wrapper" fill="currentColor"><rect x="4" y="6" fill="currentColor" width="16" height="12"></rect> <path data-color="color-2" fill="currentColor" d="M2,10H0V3c0-0.553,0.447-1,1-1h7v2H2V10z"></path> <path data-color="color-2" fill="currentColor" d="M24,10h-2V4h-6V2h7c0.553,0,1,0.447,1,1V10z"></path> <path data-color="color-2" fill="currentColor" d="M8,22H1c-0.553,0-1-0.447-1-1v-7h2v6h6V22z"></path> <path data-color="color-2" fill="currentColor" d="M23,22h-7v-2h6v-6h2v7C24,21.553,23.553,22,23,22z"></path></g></svg>