<svg id="nc_icon" version="1.1" xmlns="http://www.w3.org/2000/svg" xmlns:xlink="http://www.w3.org/1999/xlink" x="0px" y="0px" viewBox="0 0 24 24" xml:space="preserve" ><g class="nc-icon-wrapper" fill="currentColor"><path fill="currentColor" d="M5,12c0,3.9,3.1,7,7,7s7-3.1,7-7s-3.1-7-7-7S5,8.1,5,12z M17,12c0,2.8-2.2,5-5,5s-5-2.2-5-5s2.2-5,5-5 S17,9.2,17,12z"></path> <circle data-color="color-2" fill="currentColor" cx="12" cy="12" r="2"></circle> <circle fill="currentColor" cx="20" cy="4" r="3"></circle> <path data-color="color-2" fill="currentColor" d="M23.2,7.8c-0.5,0.4-1.1,0.8-1.8,1c0.4,1,0.5,2.1,0.5,3.2c0,5.5-4.5,10-10,10S2,17.5,2,12 S6.5,2,12,2c1.1,0,2.2,0.2,3.2,0.5c0.2-0.7,0.5-1.3,1-1.8C14.9,0.3,13.5,0,12,0C5.4,0,0,5.4,0,12s5.4,12,12,12s12-5.4,12-12 C24,10.5,23.7,9.1,23.2,7.8z"></path></g></svg>