<svg id="nc_icon" version="1.1" xmlns="http://www.w3.org/2000/svg" xmlns:xlink="http://www.w3.org/1999/xlink" x="0px" y="0px" viewBox="0 0 24 24" xml:space="preserve" ><g class="nc-icon-wrapper" fill="currentColor"><path fill="currentColor" d="M6.524,17.476l1.486-1.486c-2.324-1.171-4.021-3.061-4.762-3.993c0.658-0.832,2.075-2.425,4.024-3.59 C7.1,8.908,7,9.441,7,10c0,1.894,1.071,3.525,2.627,4.373l7.85-7.85C15.924,5.645,14.082,5,12,5C5.506,5,1.34,11.185,1.166,11.448 c-0.222,0.335-0.222,0.771,0.002,1.106C1.287,12.733,3.257,15.628,6.524,17.476z"></path> <path fill="currentColor" d="M19.956,8.286l-1.429,1.429c1.022,0.864,1.789,1.736,2.223,2.283C19.623,13.407,16.324,17,12,17 c-0.244,0-0.484-0.015-0.721-0.037l-1.731,1.731C10.324,18.885,11.14,19,12,19c6.428,0,10.653-6.179,10.83-6.442 c0.226-0.336,0.227-0.775,0.002-1.112C22.747,11.318,21.718,9.811,19.956,8.286z"></path> <path data-color="color-2" fill="currentColor" d="M3,22c-0.256,0-0.512-0.098-0.707-0.293c-0.391-0.391-0.391-1.023,0-1.414l19-19 c0.391-0.391,1.023-0.391,1.414,0s0.391,1.023,0,1.414l-19,19C3.512,21.902,3.256,22,3,22z"></path></g></svg>