<svg id="nc_icon" version="1.1" xmlns="http://www.w3.org/2000/svg" xmlns:xlink="http://www.w3.org/1999/xlink" x="0px" y="0px" viewBox="0 0 24 24" xml:space="preserve" ><g class="nc-icon-wrapper" fill="currentColor"><polygon data-color="color-2" fill="currentColor" points="13,0 13,7 16,7 12,12 8,7 11,7 11,0 "></polygon> <path fill="currentColor" d="M23,5h-5v2h4v7H2V7h4V5H1C0.447,5,0,5.447,0,6v9v8c0,0.553,0.447,1,1,1h22c0.553,0,1-0.447,1-1v-8V6 C24,5.447,23.553,5,23,5z M15,20H9v-2h6V20z"></path></g></svg>