<svg id="nc_icon" version="1.1" xmlns="http://www.w3.org/2000/svg" xmlns:xlink="http://www.w3.org/1999/xlink" x="0px" y="0px" viewBox="0 0 24 24" xml:space="preserve" ><g class="nc-icon-wrapper" fill="currentColor"><path fill="currentColor" d="M23,10H1c-0.553,0-1-0.447-1-1s0.447-1,1-1h22c0.553,0,1,0.447,1,1S23.553,10,23,10z"></path> <path fill="currentColor" d="M23,4H1C0.447,4,0,3.553,0,3s0.447-1,1-1h22c0.553,0,1,0.447,1,1S23.553,4,23,4z"></path> <path fill="currentColor" d="M9,16H1c-0.553,0-1-0.447-1-1s0.447-1,1-1h8c0.553,0,1,0.447,1,1S9.553,16,9,16z"></path> <path fill="currentColor" d="M9,22H1c-0.553,0-1-0.447-1-1s0.447-1,1-1h8c0.553,0,1,0.447,1,1S9.553,22,9,22z"></path> <path data-color="color-2" fill="currentColor" d="M16,22c-0.256,0-0.512-0.098-0.707-0.293l-3-3c-0.391-0.391-0.391-1.023,0-1.414 s1.023-0.391,1.414,0L16,19.586l5.293-5.293c0.391-0.391,1.023-0.391,1.414,0s0.391,1.023,0,1.414l-6,6 C16.512,21.902,16.256,22,16,22z"></path></g></svg>