<svg id="nc_icon" version="1.1" xmlns="http://www.w3.org/2000/svg" xmlns:xlink="http://www.w3.org/1999/xlink" x="0px" y="0px" viewBox="0 0 24 24" xml:space="preserve" ><g class="nc-icon-wrapper" fill="currentColor"><path data-color="color-2" fill="currentColor" d="M7,6V4H4V1c0-0.552-0.448-1-1-1S2,0.448,2,1v20c0,0.552,0.448,1,1,1h4v-2H4v-6h3v-2H4V6H7z"></path> <path fill="currentColor" d="M21,8H10C9.448,8,9,7.552,9,7V3c0-0.552,0.448-1,1-1h11c0.552,0,1,0.448,1,1v4C22,7.552,21.552,8,21,8z"></path> <path fill="currentColor" d="M21,24H10c-0.552,0-1-0.447-1-1v-4c0-0.553,0.448-1,1-1h11c0.552,0,1,0.447,1,1v4C22,23.553,21.552,24,21,24 z"></path> <path fill="currentColor" d="M21,16H10c-0.552,0-1-0.447-1-1v-4c0-0.552,0.448-1,1-1h11c0.552,0,1,0.448,1,1v4C22,15.553,21.552,16,21,16 z"></path></g></svg>