<svg id="nc_icon" version="1.1" xmlns="http://www.w3.org/2000/svg" xmlns:xlink="http://www.w3.org/1999/xlink" x="0px" y="0px" viewBox="0 0 24 24" xml:space="preserve" ><g class="nc-icon-wrapper" fill="currentColor"><path fill="currentColor" d="M7,9c0-3,5-8,5-8s5,5,5,8c0,3.2-2.6,5-5,5C9.6,14,7,12.2,7,9z"></path> <path data-color="color-2" fill="currentColor" d="M21.7,16.5L21,14.6c-0.2-0.5-0.8-0.8-1.3-0.6l-4.8,1.7l-2.5,0.9l-0.5,0.2l-2.7-1L4.1,14 c-0.5-0.2-1.1,0.1-1.3,0.6l-0.7,1.9C2,17,2.3,17.6,2.8,17.8L6.1,19l0,0l-3.3,1.2c-0.5,0.2-0.8,0.8-0.6,1.3l0.7,1.9 c0.2,0.5,0.8,0.8,1.3,0.6l16.9-6.2C21.6,17.6,21.8,17,21.7,16.5z M21.1,20.2L20.7,20l-5.8,2.1l4.8,1.8c0.5,0.2,1.1-0.1,1.3-0.6 l0.7-1.9C21.8,20.9,21.6,20.4,21.1,20.2z"></path></g></svg>