<svg id="nc_icon" version="1.1" xmlns="http://www.w3.org/2000/svg" xmlns:xlink="http://www.w3.org/1999/xlink" x="0px" y="0px" viewBox="0 0 24 24" xml:space="preserve" ><g class="nc-icon-wrapper" fill="currentColor"><path data-color="color-2" fill="currentColor" d="M7.2,18.4C8.2,17,9,14,9,12c0-2-0.8-5-1.8-6.4l0,0c-3.8,1.5-6,5.8-6.1,6 c-0.1,0.3-0.1,0.6,0,0.9C1.2,12.7,3.3,16.9,7.2,18.4L7.2,18.4z"></path> <path fill="currentColor" d="M19.3,10.5C18.1,8.7,15,5,10,5C9.7,5,9.5,5,9.2,5.1c1.1,2,1.8,5,1.8,6.9c0,1.9-0.7,5-1.8,6.9 C9.5,19,9.7,19,10,19c5,0,8.1-3.7,9.3-5.5L24,17V7L19.3,10.5z"></path></g></svg>