<svg id="nc_icon" version="1.1" xmlns="http://www.w3.org/2000/svg" xmlns:xlink="http://www.w3.org/1999/xlink" x="0px" y="0px" viewBox="0 0 24 24" xml:space="preserve" ><g class="nc-icon-wrapper" fill="currentColor"><path fill="currentColor" d="M18.6132812,15.7226562l1.109375,1.6640625L22,15.8686523V17.5c0,2.4814453-2.0185547,4.5-4.5,4.5 S13,19.9814453,13,17.5v-1V7.8580322C14.72052,7.4108276,16,5.8583374,16,4c0-2.2055664-1.7939453-4-4-4S8,1.7944336,8,4 c0,1.8583374,1.27948,3.4108276,3,3.8580322V16.5v1c0,2.4814453-2.0185547,4.5-4.5,4.5S2,19.9814453,2,17.5v-1.6313477 l2.2773438,1.5180664l1.109375-1.6640625L0,12.1313477V17.5C0,21.0839844,2.9160156,24,6.5,24 c2.3167114,0,4.3486938-1.22229,5.5-3.0519409C13.1513062,22.77771,15.1832886,24,17.5,24c3.5839844,0,6.5-2.9160156,6.5-6.5 v-5.3686523L18.6132812,15.7226562z M10,4c0-1.1030273,0.8974609-2,2-2s2,0.8969727,2,2s-0.8974609,2-2,2S10,5.1030273,10,4z"></path></g></svg>