<svg id="nc_icon" version="1.1" xmlns="http://www.w3.org/2000/svg" xmlns:xlink="http://www.w3.org/1999/xlink" x="0px" y="0px" viewBox="0 0 24 24" xml:space="preserve" ><g class="nc-icon-wrapper" fill="currentColor"><path data-color="color-2" fill="currentColor" d="M4,24c-0.552,0-1-0.448-1-1V1c0-0.552,0.448-1,1-1s1,0.448,1,1v22C5,23.552,4.552,24,4,24z"></path> <path fill="currentColor" d="M8,17c-0.168,0-0.336-0.042-0.488-0.127C7.196,16.696,7,16.362,7,16V2c0-0.341,0.174-0.659,0.461-0.842 C7.75,0.974,8.11,0.95,8.419,1.092l13,6c0.335,0.155,0.557,0.48,0.579,0.849c0.022,0.368-0.16,0.718-0.474,0.911l-13,8 C8.364,16.95,8.182,17,8,17z"></path></g></svg>