<svg id="nc_icon" version="1.1" xmlns="http://www.w3.org/2000/svg" xmlns:xlink="http://www.w3.org/1999/xlink" x="0px" y="0px" viewBox="0 0 24 24" xml:space="preserve" ><g class="nc-icon-wrapper" fill="currentColor"><path fill="currentColor" d="M19.897,9.558C19.729,9.216,19.381,9,19,9h-7.883l0.876-7.89c0.05-0.446-0.204-0.87-0.62-1.038 c-0.418-0.17-0.894-0.038-1.167,0.317l-10,13c-0.232,0.302-0.273,0.71-0.104,1.052C0.271,14.784,0.619,15,1,15h7.883l-0.876,7.89 c-0.05,0.446,0.204,0.87,0.62,1.038C8.748,23.977,8.875,24,9,24c0.304,0,0.6-0.139,0.793-0.39l10-13 C20.025,10.308,20.065,9.9,19.897,9.558z"></path> <path data-color="color-2" fill="currentColor" d="M19.5,15c-2.481,0-4.5,2.019-4.5,4.5s2.019,4.5,4.5,4.5s4.5-2.019,4.5-4.5S21.981,15,19.5,15 z M22,19.5c0,0.321-0.066,0.626-0.177,0.909l-3.232-3.232C18.874,17.066,19.179,17,19.5,17C20.879,17,22,18.122,22,19.5z M17,19.5 c0-0.321,0.066-0.627,0.177-0.909l3.232,3.232C20.126,21.934,19.821,22,19.5,22C18.121,22,17,20.878,17,19.5z"></path></g></svg>