<svg id="nc_icon" version="1.1" xmlns="http://www.w3.org/2000/svg" xmlns:xlink="http://www.w3.org/1999/xlink" x="0px" y="0px" viewBox="0 0 24 24" xml:space="preserve" ><g class="nc-icon-wrapper" fill="currentColor"><path data-color="color-2" fill="currentColor" d="M23,6l-6-5v4H7c-3.30859,0-6,2.69141-6,6h2c0-2.20557,1.79395-4,4-4h10v4L23,6z"></path> <path fill="currentColor" d="M14.21875,10.91406c-1.98047-1.49951-4.80664-1.10938-6.31641,0.88379L0.19141,22.41211 c-0.22168,0.3042-0.25293,0.70703-0.08203,1.04199C0.2793,23.78906,0.62402,24,1,24l8.44727,0.00049 c0.3125,0,0.60742-0.14648,0.79688-0.396l4.8418-6.38574C16.58496,15.2417,16.19531,12.41357,14.21875,10.91406z M13.49493,16.15509 l-0.90588,1.19556c-0.48364-0.08911-1.40033-0.32428-2.32629-1.0177c-0.95374-0.71429-1.44116-1.55829-1.65887-2.00195 c0.30194-0.39856,0.60394-0.79706,0.90588-1.19556c0.83386-1.10046,2.40198-1.31659,3.50244-0.48273 C14.11267,13.48651,14.3288,15.05463,13.49493,16.15509z"></path></g></svg>