<svg id="nc_icon" version="1.1" xmlns="http://www.w3.org/2000/svg" xmlns:xlink="http://www.w3.org/1999/xlink" x="0px" y="0px" viewBox="0 0 24 24" xml:space="preserve" ><g class="nc-icon-wrapper" fill="currentColor"><path data-color="color-2" fill="currentColor" d="M9.5,3c0.6,0,1.2,0.3,1.6,0.8L13.5,7H22V1c0-0.6-0.4-1-1-1H3C2.4,0,2,0.4,2,1v2H9.5z"></path> <path fill="currentColor" d="M23,9H12.5L9.8,5.4C9.6,5.1,9.3,5,9,5H1C0.4,5,0,5.4,0,6v17c0,0.6,0.4,1,1,1h22c0.6,0,1-0.4,1-1V10 C24,9.4,23.6,9,23,9z"></path></g></svg>