<svg id="nc_icon" version="1.1" xmlns="http://www.w3.org/2000/svg" xmlns:xlink="http://www.w3.org/1999/xlink" x="0px" y="0px" viewBox="0 0 24 24" xml:space="preserve" ><g class="nc-icon-wrapper" fill="currentColor"><path fill="currentColor" d="M23,4H12.5L9.8,0.4C9.611,0.148,9.315,0,9,0H1C0.448,0,0,0.447,0,1v22c0,0.553,0.448,1,1,1h22 c0.552,0,1-0.447,1-1V5C24,4.447,23.552,4,23,4z M9,7c1.105,0,2,0.895,2,2c0,1.105-0.895,2-2,2s-2-0.895-2-2C7,7.895,7.895,7,9,7z M20.875,19.485C20.698,19.803,20.363,20,20,20H4c-0.379,0-0.725-0.214-0.895-0.553C2.936,19.108,2.973,18.703,3.2,18.4l3-4 c0.174-0.232,0.439-0.377,0.729-0.397c0.298-0.017,0.573,0.085,0.778,0.291l2.165,2.165l4.314-6.039 c0.193-0.271,0.494-0.424,0.845-0.418c0.333,0.01,0.64,0.187,0.816,0.47l5,8C21.041,18.778,21.051,19.167,20.875,19.485z"></path></g></svg>