<svg id="nc_icon" version="1.1" xmlns="http://www.w3.org/2000/svg" xmlns:xlink="http://www.w3.org/1999/xlink" x="0px" y="0px" viewBox="0 0 24 24" xml:space="preserve" ><g class="nc-icon-wrapper" fill="currentColor"><path fill="currentColor" d="M23,4H12.5L9.8,0.4C9.611,0.148,9.315,0,9,0H1C0.448,0,0,0.447,0,1v22c0,0.553,0.448,1,1,1h22 c0.552,0,1-0.447,1-1V5C24,4.447,23.552,4,23,4z M18,16.5c0,1.379-1.122,2.5-2.5,2.5S13,17.879,13,16.5s1.122-2.5,2.5-2.5 c0.171,0,0.338,0.018,0.5,0.051V10h-5v7.5c0,1.379-1.122,2.5-2.5,2.5S6,18.879,6,17.5S7.122,15,8.5,15 c0.171,0,0.338,0.018,0.5,0.051V9c0-0.553,0.448-1,1-1h7c0.552,0,1,0.447,1,1V16.5z"></path></g></svg>