<svg id="nc_icon" version="1.1" xmlns="http://www.w3.org/2000/svg" xmlns:xlink="http://www.w3.org/1999/xlink" x="0px" y="0px" viewBox="0 0 24 24" xml:space="preserve" ><g class="nc-icon-wrapper" fill="currentColor"><circle fill="currentColor" cx="10.5" cy="12.5" r="2.5"></circle> <path fill="currentColor" d="M23,4H12.5L9.8,0.4C9.611,0.148,9.314,0,9,0H1C0.447,0,0,0.447,0,1v22c0,0.553,0.447,1,1,1h22 c0.553,0,1-0.447,1-1V5C24,4.447,23.553,4,23,4z M16.293,19.707L12.886,16.3C12.193,16.737,11.379,17,10.5,17 C8.019,17,6,14.981,6,12.5S8.019,8,10.5,8s4.5,2.019,4.5,4.5c0,0.879-0.263,1.693-0.7,2.386l3.407,3.407L16.293,19.707z"></path></g></svg>