<svg id="nc_icon" version="1.1" xmlns="http://www.w3.org/2000/svg" xmlns:xlink="http://www.w3.org/1999/xlink" x="0px" y="0px" viewBox="0 0 24 24" xml:space="preserve" ><g class="nc-icon-wrapper" fill="currentColor"><path fill="currentColor" d="M21,3c-1.103,0-2-0.897-2-2c0-0.552-0.447-1-1-1H6C5.447,0,5,0.448,5,1c0,1.103-0.897,2-2,2 C2.447,3,2,3.448,2,4v16c0,0.552,0.447,1,1,1c1.103,0,2,0.897,2,2c0,0.552,0.447,1,1,1h12c0.553,0,1-0.448,1-1c0-1.103,0.897-2,2-2 c0.553,0,1-0.448,1-1V4C22,3.448,21.553,3,21,3z M12,20c-3.309,0-6-3.589-6-8s2.691-8,6-8s6,3.589,6,8S15.309,20,12,20z"></path></g></svg>