<svg id="nc_icon" version="1.1" xmlns="http://www.w3.org/2000/svg" xmlns:xlink="http://www.w3.org/1999/xlink" x="0px" y="0px" viewBox="0 0 24 24" xml:space="preserve" ><g class="nc-icon-wrapper" fill="currentColor"><path fill="currentColor" d="M22,4v2h-2V4h-2v5c0,1.30194,0.8385,2.40155,2,2.81567V16.5c0,0.82715-0.67285,1.5-1.5,1.5 S17,17.32715,17,16.5V15V4c0-1.6543-1.3457-3-3-3H3C1.3457,1,0,2.3457,0,4v18c0,0.55225,0.44775,1,1,1h15c0.55225,0,1-0.44775,1-1 v-2.35107C17.45642,19.86743,17.96118,20,18.5,20c1.92969,0,3.5-1.57031,3.5-3.5v-4.68427C23.1615,11.40161,24,10.30194,24,9V4H22z M13,11H4V5h9V11z"></path></g></svg>