<svg id="nc_icon" version="1.1" xmlns="http://www.w3.org/2000/svg" xmlns:xlink="http://www.w3.org/1999/xlink" x="0px" y="0px" viewBox="0 0 24 24" xml:space="preserve" ><g class="nc-icon-wrapper" fill="currentColor"><path fill="currentColor" d="M23.9,13.6l-4-11C19.8,2.3,19.4,2,19,2h-3c-0.6,0-1,0.4-1,1s0.4,1,1,1h2.3l3.3,9H14h-4H2.4l3.3-9H8 c0.6,0,1-0.4,1-1S8.6,2,8,2H5C4.6,2,4.2,2.3,4.1,2.7l-4,11C0,13.7,0,13.9,0,14c0,0,0,0,0,0v0c0,0,0,0,0,0v5c0,1.7,1.3,3,3,3h5 c1.7,0,3-1.3,3-3v-4h2v4c0,1.7,1.3,3,3,3h5c1.7,0,3-1.3,3-3v-5c0,0,0,0,0,0v0c0,0,0,0,0,0C24,13.9,24,13.7,23.9,13.6z"></path></g></svg>