<svg id="nc_icon" version="1.1" xmlns="http://www.w3.org/2000/svg" xmlns:xlink="http://www.w3.org/1999/xlink" x="0px" y="0px" viewBox="0 0 24 24" xml:space="preserve" ><g class="nc-icon-wrapper" fill="currentColor"><path fill="currentColor" d="M18,3c-0.4,0-0.8,0.1-1.1,0.2C16.5,1.9,15.4,1,14,1c-0.5,0-1,0.1-1.5,0.4C12,0.6,11.1,0,10,0S8,0.6,7.5,1.4 C7,1.1,6.5,1,6,1C4.3,1,3,2.3,3,4v19c0,0.6,0.4,1,1,1h16c0.6,0,1-0.4,1-1V6C21,4.3,19.7,3,18,3z M19,22H8v-4.9l2.1-2.1 c0.8-0.8,0.8-2,0-2.8c-0.8-0.8-2-0.8-2.8,0L5,14.4V4c0-0.6,0.4-1,1-1s1,0.4,1,1v5c0,0.6,0.4,1,1,1s1-0.4,1-1V4V3c0-0.6,0.4-1,1-1 s1,0.4,1,1v1v5c0,0.6,0.4,1,1,1s1-0.4,1-1V4c0-0.6,0.4-1,1-1s1,0.4,1,1v1v1v3c0,0.6,0.4,1,1,1s1-0.4,1-1V6c0-0.6,0.4-1,1-1 s1,0.4,1,1V22z"></path></g></svg>