<svg id="nc_icon" version="1.1" xmlns="http://www.w3.org/2000/svg" xmlns:xlink="http://www.w3.org/1999/xlink" x="0px" y="0px" viewBox="0 0 24 24" xml:space="preserve" ><g class="nc-icon-wrapper" fill="currentColor"><path fill="currentColor" d="M10,24C4.486,24,0,19.514,0,14S4.486,4,10,4c0.375,0,0.746,0.021,1.109,0.061l0.994,0.109l-0.219,1.988 l-0.994-0.109C10.598,6.017,10.301,6,10,6c-4.411,0-8,3.589-8,8s3.589,8,8,8s8-3.589,8-8c0-0.301-0.017-0.599-0.049-0.891 l-0.109-0.994l1.988-0.219l0.109,0.994C19.979,13.255,20,13.625,20,14C20,19.514,15.514,24,10,24z"></path> <path fill="currentColor" d="M10,20c-3.309,0-6-2.691-6-6s2.691-6,6-6s6,2.691,6,6S13.309,20,10,20z M10,10c-2.206,0-4,1.794-4,4 s1.794,4,4,4s4-1.794,4-4S12.206,10,10,10z"></path> <path data-color="color-2" fill="currentColor" d="M19.27,10.145l4.581-4.582l-3-1l1.856-1.856l-1.414-1.414l-1.856,1.856l-1-3l-4.581,4.581 l1,3.001l-4.344,4.344C10.347,12.031,10.178,12,10,12c-1.105,0-2,0.895-2,2c0,1.105,0.895,2,2,2s2-0.895,2-2 c0-0.178-0.031-0.347-0.074-0.512l4.344-4.344L19.27,10.145z"></path></g></svg>