<svg id="nc_icon" version="1.1" xmlns="http://www.w3.org/2000/svg" xmlns:xlink="http://www.w3.org/1999/xlink" x="0px" y="0px" viewBox="0 0 24 24" xml:space="preserve" ><g class="nc-icon-wrapper" fill="currentColor"><path fill="currentColor" d="M21.5214844,0.8134766c-0.9262695-0.5449219-2.0390625-0.5581055-2.9785156-0.0366211L13.543457,3.5541992 C12.5913086,4.0825195,12,5.0874023,12,6.1767578V14h2V9h6c1.6542969,0,3-1.3457031,3-3V3.3989258 C23,2.324707,22.4472656,1.3579102,21.5214844,0.8134766z"></path> <path fill="currentColor" d="M8,11v3h2V7.6591797c0-0.8007812-0.4755859-1.5219727-1.2119141-1.8378906L3.7875977,3.6777344 c-0.6201172-0.265625-1.3266602-0.2021484-1.8886719,0.1689453C1.3359375,4.2182617,1,4.8422852,1,5.5166016V9 c0,1.1030273,0.8969727,2,2,2H8z"></path> <path data-color="color-2" fill="currentColor" d="M18,15H4c-0.5522461,0-1,0.4477539-1,1v2c0,0.5522461,0.4477539,1,1,1h2v5h10v-5h2 c0.5522461,0,1-0.4477539,1-1v-2C19,15.4477539,18.5522461,15,18,15z"></path></g></svg>