<svg id="nc_icon" version="1.1" xmlns="http://www.w3.org/2000/svg" xmlns:xlink="http://www.w3.org/1999/xlink" x="0px" y="0px" viewBox="0 0 24 24" xml:space="preserve" ><g class="nc-icon-wrapper" fill="currentColor"><path fill="currentColor" d="M22,0H1C0.447,0,0,0.447,0,1v21c0,0.553,0.447,1,1,1h21c0.553,0,1-0.447,1-1V1C23,0.447,22.553,0,22,0z M7,19H4v-3h3V19z M7,13H4v-3h3V13z M7,7H4V4h3V7z M13,19h-3v-3h3V19z M13,13h-3v-3h3V13z M13,7h-3V4h3V7z M19,19h-3v-3h3V19z M19,13h-3v-3h3V13z M19,7h-3V4h3V7z"></path></g></svg>