<svg id="nc_icon" version="1.1" xmlns="http://www.w3.org/2000/svg" xmlns:xlink="http://www.w3.org/1999/xlink" x="0px" y="0px" viewBox="0 0 24 24" xml:space="preserve" ><g class="nc-icon-wrapper" fill="currentColor"><path fill="currentColor" d="M23.707,3.293l-3-3c-0.391-0.391-1.023-0.391-1.414,0l-3,3c-0.391,0.391-0.391,1.023,0,1.414L17.086,5.5 L15.43,7.156c-1.203-0.903-2.656-1.399-4.188-1.399c-1.869,0-3.627,0.728-4.949,2.05L4.879,9.222l0.707,0.707 c0.392,0.393,0.391,1.024,0,1.414c-0.377,0.379-1.037,0.378-1.414,0l-0.707-0.708L2.051,12.05C0.729,13.373,0,15.13,0,17 s0.729,3.627,2.051,4.95S5.13,24,7,24s3.627-0.728,4.949-2.05l1.416-1.414l-0.708-0.708c-0.39-0.39-0.39-1.024,0-1.415l0.001,0 c0.388-0.39,1.023-0.39,1.413,0.001l0.707,0.707l1.414-1.414c2.488-2.489,2.7-6.396,0.651-9.136L18.5,6.914l0.793,0.793 c0.391,0.391,1.023,0.391,1.414,0l3-3C24.098,4.316,24.098,3.684,23.707,3.293z M7,19.828L4.172,17l1.414-1.414l2.828,2.828 L7,19.828z M12,14c-1.105,0-2-0.895-2-2s0.895-2,2-2s2,0.895,2,2S13.105,14,12,14z"></path></g></svg>