<svg id="nc_icon" version="1.1" xmlns="http://www.w3.org/2000/svg" xmlns:xlink="http://www.w3.org/1999/xlink" x="0px" y="0px" viewBox="0 0 24 24" xml:space="preserve" ><g class="nc-icon-wrapper" fill="currentColor"><path fill="currentColor" d="M21.7,2.633c-1.577-1.666-3.707-2.601-5.997-2.632c-1.321-0.013-2.593,0.278-3.739,0.823 c-3.31-1.48-6.985-0.875-9.5,1.64c-2.817,2.818-3.263,7.222-1.074,10.57C1.126,13.89,1.322,14.858,2,15.536l6.414,6.414 c0.635,0.635,1.524,0.849,2.339,0.659c0.746,0.639,1.663,0.975,2.59,0.975c1.024,0,2.05-0.39,2.829-1.17l4.242-4.243 c0.756-0.755,1.172-1.76,1.172-2.828c0-0.318-0.048-0.626-0.119-0.927C24.621,11.087,24.746,5.85,21.7,2.633z M19,16.757L14.758,21 c-0.64,0.639-1.603,0.745-2.368,0.33c0.489-0.942,0.35-2.125-0.44-2.916L5.536,12c-0.74-0.74-1.828-0.917-2.737-0.534 c-1.344-2.467-0.946-5.561,1.08-7.587C5.484,2.272,7.723,1.7,9.906,2.221C9.83,2.291,9.749,2.356,9.676,2.429L3.549,7.963 l0.744,0.744c1.503,1.502,3.824,1.788,5.647,0.695l2.129-1.278c0.392,0.16,0.977,0.371,1.657,0.53c1.982,0.408,4.607-0.8,4.607-0.8 s-0.792,1.312-3.008,2.399L19,13.929c0.378,0.378,0.586,0.88,0.586,1.415S19.378,16.379,19,16.757z"></path></g></svg>