<svg id="nc_icon" version="1.1" xmlns="http://www.w3.org/2000/svg" xmlns:xlink="http://www.w3.org/1999/xlink" x="0px" y="0px" viewBox="0 0 24 24" xml:space="preserve" ><g class="nc-icon-wrapper" fill="currentColor"><path fill="currentColor" d="M20.9,11c-0.2-1.7-0.9-3.3-1.9-4.6l1.1-1.1l-1.4-1.4L17.6,5c-1.3-1-2.9-1.7-4.6-1.9V0h-2v3.1 C9.3,3.3,7.7,3.9,6.4,5L5.3,3.9L3.9,5.3L5,6.4c-1,1.3-1.7,2.9-1.9,4.6H0v2h3.1c0.2,1.7,0.9,3.3,1.9,4.6l-1.1,1.1l1.4,1.4L6.4,19 c1.3,1,2.9,1.7,4.6,1.9V24h2v-3.1c1.7-0.2,3.3-0.9,4.6-1.9l1.1,1.1l1.4-1.4L19,17.6c1-1.3,1.7-2.9,1.9-4.6H24v-2H20.9z M8,8h3v2H8V8 z M12,17c-2.2,0-4-1.8-4-4h2c0,1.1,0.9,2,2,2s2-0.9,2-2h2C16,15.2,14.2,17,12,17z M16,10h-3V8h3V10z"></path></g></svg>