<svg id="nc_icon" version="1.1" xmlns="http://www.w3.org/2000/svg" xmlns:xlink="http://www.w3.org/1999/xlink" x="0px" y="0px" viewBox="0 0 24 24" xml:space="preserve" ><g class="nc-icon-wrapper" fill="currentColor"><path fill="currentColor" d="M23,14.052V9c0-4.962-4.037-9-9-9h-4C5.037,0,1,4.038,1,9v5.052c-0.63,1.001-1,2.181-1,3.448 C0,21.084,2.916,24,6.5,24c0.59,0,1.187-0.084,1.772-0.25L9,23.543V11.457L8.272,11.25C7.687,11.084,7.09,11,6.5,11 c-1.289,0-2.488,0.382-3.5,1.032V9c0-3.86,3.141-7,7-7h4c3.859,0,7,3.14,7,7v3.032C19.988,11.382,18.789,11,17.5,11 c-0.59,0-1.187,0.084-1.772,0.25L15,11.457v12.087l0.728,0.206C16.313,23.916,16.91,24,17.5,24c3.584,0,6.5-2.916,6.5-6.5 C24,16.233,23.63,15.053,23,14.052z"></path></g></svg>