<svg id="nc_icon" version="1.1" xmlns="http://www.w3.org/2000/svg" xmlns:xlink="http://www.w3.org/1999/xlink" x="0px" y="0px" viewBox="0 0 24 24" xml:space="preserve" ><g class="nc-icon-wrapper" fill="currentColor"><rect data-color="color-2" x="16" y="18" fill="currentColor" width="6" height="2"></rect> <path fill="currentColor" d="M14,19c0-2.761,2.239-5,5-5c0.567,0,1.102,0.115,1.61,0.289l1.339-1.339C23.272,11.627,24,9.87,24,8 c0-1.869-0.728-3.627-2.05-4.949S18.87,1,17,1s-3.627,0.729-4.949,2.05C12.034,3.067,12.017,3.084,12,3.102 c-0.017-0.018-0.033-0.034-0.05-0.051C10.627,1.729,8.87,1,7,1S3.373,1.729,2.05,3.051S0,6.13,0,8s0.728,3.627,2.05,4.949l9.95,9.95 l2.289-2.289C14.115,20.103,14,19.567,14,19z"></path></g></svg>