<svg id="nc_icon" version="1.1" xmlns="http://www.w3.org/2000/svg" xmlns:xlink="http://www.w3.org/1999/xlink" x="0px" y="0px" viewBox="0 0 24 24" xml:space="preserve" ><g class="nc-icon-wrapper" fill="currentColor"><path fill="currentColor" d="M24,12c0-3.86-3.14-7-7-7V3h6c0.552,0,1-0.448,1-1s-0.448-1-1-1H9C8.448,1,8,1.448,8,2s0.448,1,1,1h6v2 H4.721L3.949,2.684C3.812,2.275,3.431,2,3,2H1C0.706,2,0.427,2.129,0.237,2.354c-0.19,0.225-0.271,0.521-0.223,0.811l0.722,4.329 C0.977,8.946,2.222,10,3.694,10H8v2c0,3.333,2.344,6.125,5.469,6.826L12.382,21H9c-0.552,0-1,0.448-1,1s0.448,1,1,1h12 c1.654,0,3-1.346,3-3c0-0.552-0.448-1-1-1s-1,0.448-1,1c0,0.551-0.449,1-1,1h-0.382l-1.217-2.433C22.08,17.584,24,15.015,24,12z M14.618,21l1-2H17c0.126,0,0.248-0.012,0.372-0.019L18.382,21H14.618z M21,13h-6c-0.552,0-1-0.448-1-1V8h2v3h5V13z"></path></g></svg>