<svg id="nc_icon" version="1.1" xmlns="http://www.w3.org/2000/svg" xmlns:xlink="http://www.w3.org/1999/xlink" x="0px" y="0px" viewBox="0 0 24 24" xml:space="preserve" ><g class="nc-icon-wrapper" fill="currentColor"><path fill="currentColor" d="M23,1H1C0.4,1,0,1.4,0,2v21c0,0.6,0.4,1,1,1h22c0.6,0,1-0.4,1-1V2C24,1.4,23.6,1,23,1z M8,20 c-1.7,0-3-1.3-3-3s1.3-3,3-3s3,1.3,3,3S9.7,20,8,20z M8,11c-1.7,0-3-1.3-3-3s1.3-3,3-3s3,1.3,3,3S9.7,11,8,11z M18,20h-2 c-0.6,0-1-0.4-1-1s0.4-1,1-1h2c0.6,0,1,0.4,1,1S18.6,20,18,20z M18,16h-2c-0.6,0-1-0.4-1-1s0.4-1,1-1h2c0.6,0,1,0.4,1,1 S18.6,16,18,16z M18,11h-2c-0.6,0-1-0.4-1-1s0.4-1,1-1h2c0.6,0,1,0.4,1,1S18.6,11,18,11z M18,7h-2c-0.6,0-1-0.4-1-1s0.4-1,1-1h2 c0.6,0,1,0.4,1,1S18.6,7,18,7z"></path></g></svg>