<svg id="nc_icon" version="1.1" xmlns="http://www.w3.org/2000/svg" xmlns:xlink="http://www.w3.org/1999/xlink" x="0px" y="0px" viewBox="0 0 24 24" xml:space="preserve" ><g class="nc-icon-wrapper" fill="currentColor"><path fill="currentColor" d="M20.4737549,16.6889648l-7.1384277,1.6650391L4.6841431,2.9738159 C4.1567993,2.036377,2.9693604,1.7039185,2.0319824,2.2313843C1.0932617,2.7595215,0.7615967,3.9492798,1.291687,4.8869019 l9.100708,16.0973511C10.7471924,21.6119385,11.4124146,22,12.1334229,22H22c0.5523071,0,1-0.4477539,1-1v-2.3815308 C23,17.2997437,21.7460327,16.34198,20.4737549,16.6889648z"></path> <path data-color="color-2" fill="currentColor" d="M17.5,12.8125c2.6494141,0,4.5-1.027832,4.5-2.5V8.5C22,7.027832,20.1494141,6,17.5,6 S13,7.027832,13,8.5v1.8125C13,11.784668,14.8505859,12.8125,17.5,12.8125z M17.5,8c1.2402344,0,2.0253906,0.2939453,2.3598633,0.5 C19.5253906,8.7060547,18.7402344,9,17.5,9s-2.0253906-0.2939453-2.3598633-0.5C15.4746094,8.2939453,16.2597656,8,17.5,8z"></path></g></svg>