<svg id="nc_icon" version="1.1" xmlns="http://www.w3.org/2000/svg" xmlns:xlink="http://www.w3.org/1999/xlink" x="0px" y="0px" viewBox="0 0 24 24" xml:space="preserve" ><g class="nc-icon-wrapper" fill="currentColor"><path fill="currentColor" d="M21,4h-0.2C20.9,3.7,21,3.4,21,3c0-1.7-1.3-3-3-3H6C4.3,0,3,1.3,3,3c0,0.4,0.1,0.7,0.2,1H3C1.3,4,0,5.3,0,7 v16c0,0.6,0.4,1,1,1h22c0.6,0,1-0.4,1-1V7C24,5.3,22.7,4,21,4z M18,4h-1c-0.6,0-1,0.4-1,1v9c0,0.6-0.4,1-1,1s-1-0.4-1-1V8.4 C13.4,8.8,12.7,9,12,9s-1.4-0.2-2-0.6V14c0,0.6-0.4,1-1,1s-1-0.4-1-1V5c0-0.6-0.4-1-1-1H6C5.4,4,5,3.6,5,3s0.4-1,1-1h12 c0.6,0,1,0.4,1,1S18.6,4,18,4z"></path></g></svg>