<svg id="nc_icon" version="1.1" xmlns="http://www.w3.org/2000/svg" xmlns:xlink="http://www.w3.org/1999/xlink" x="0px" y="0px" viewBox="0 0 24 24" xml:space="preserve" ><g class="nc-icon-wrapper" fill="currentColor"><path data-color="color-2" fill="currentColor" d="M23,24H1c-0.6,0-1-0.4-1-1s0.4-1,1-1h22c0.6,0,1,0.4,1,1S23.6,24,23,24z"></path> <path fill="currentColor" d="M13,4.1V2h3c0.6,0,1-0.4,1-1s-0.4-1-1-1H8C7.4,0,7,0.4,7,1s0.4,1,1,1h3v2.1C4.9,4.6,0,9.7,0,16v3 c0,0.6,0.4,1,1,1h22c0.6,0,1-0.4,1-1v-3C24,9.7,19.1,4.6,13,4.1z M8.6,11.1c-1.4,1-2.3,2.4-2.5,4.1l-0.1,1l-2-0.3l0.1-1 c0.3-2.2,1.5-4.2,3.3-5.4l0.8-0.6l1.1,1.6L8.6,11.1z"></path></g></svg>