<svg id="nc_icon" version="1.1" xmlns="http://www.w3.org/2000/svg" xmlns:xlink="http://www.w3.org/1999/xlink" x="0px" y="0px" viewBox="0 0 24 24" xml:space="preserve" ><g class="nc-icon-wrapper" fill="currentColor"><path fill="currentColor" d="M23,1H1C0.448,1,0,1.448,0,2s0.448,1,1,1h22c0.552,0,1-0.448,1-1S23.552,1,23,1z"></path> <path data-color="color-2" fill="currentColor" d="M4,7h16c0.552,0,1-0.448,1-1s-0.448-1-1-1H4C3.448,5,3,5.448,3,6S3.448,7,4,7z"></path> <path fill="currentColor" d="M21,9H7c-0.552,0-1,0.448-1,1s0.448,1,1,1h14c0.552,0,1-0.448,1-1S21.552,9,21,9z"></path> <path data-color="color-2" fill="currentColor" d="M18,13H9c-0.552,0-1,0.448-1,1s0.448,1,1,1h9c0.552,0,1-0.448,1-1S18.552,13,18,13z"></path> <path fill="currentColor" d="M13,17H7c-0.552,0-1,0.448-1,1s0.448,1,1,1h6c0.552,0,1-0.448,1-1S13.552,17,13,17z"></path> <path data-color="color-2" fill="currentColor" d="M8,21H4c-0.552,0-1,0.448-1,1s0.448,1,1,1h4c0.552,0,1-0.448,1-1S8.552,21,8,21z"></path></g></svg>