<svg id="nc_icon" version="1.1" xmlns="http://www.w3.org/2000/svg" xmlns:xlink="http://www.w3.org/1999/xlink" x="0px" y="0px" viewBox="0 0 24 24" xml:space="preserve" ><g class="nc-icon-wrapper" fill="currentColor"><path data-color="color-2" fill="currentColor" d="M23,20H1c-0.6,0-1,0.4-1,1s0.4,1,1,1h22c0.6,0,1-0.4,1-1S23.6,20,23,20z"></path> <path fill="currentColor" d="M1,18h22c0.6,0,1-0.4,1-1c0-6.1-4.9-11-11-11H2V4h12c0.6,0,1-0.4,1-1s-0.4-1-1-1H1C0.4,2,0,2.4,0,3v14 C0,17.6,0.4,18,1,18z"></path></g></svg>