<svg id="nc_icon" version="1.1" xmlns="http://www.w3.org/2000/svg" xmlns:xlink="http://www.w3.org/1999/xlink" x="0px" y="0px" viewBox="0 0 24 24" xml:space="preserve" ><g class="nc-icon-wrapper" fill="currentColor"><path fill="currentColor" d="M22,3.2V1c0-0.6-0.4-1-1-1s-1,0.4-1,1v2.2c-1.2,0.4-2,1.5-2,2.8v3v3c0-3-2.2-5.4-5-5.9V4c0-0.6-0.4-1-1-1 s-1,0.4-1,1v2.1C8.2,6.6,6,9,6,12V9V6c0-1.3-0.8-2.4-2-2.8V1c0-0.6-0.4-1-1-1S2,0.4,2,1v2.2C0.8,3.6,0,4.7,0,6v3v14c0,0.6,0.4,1,1,1 h9v-2c0-1.1,0.9-2,2-2l0,0c1.1,0,2,0.9,2,2v2h9c0.6,0,1-0.4,1-1V9V6C24,4.7,23.2,3.6,22,3.2z M4,8H2V6c0-0.6,0.4-1,1-1s1,0.4,1,1V8z M16,13H8v-1c0-2.2,1.8-4,4-4c2.2,0,4,1.8,4,4V13z M22,8h-2V6c0-0.6,0.4-1,1-1s1,0.4,1,1V8z"></path></g></svg>