<svg id="nc_icon" version="1.1" xmlns="http://www.w3.org/2000/svg" xmlns:xlink="http://www.w3.org/1999/xlink" x="0px" y="0px" viewBox="0 0 24 24" xml:space="preserve" ><g class="nc-icon-wrapper" fill="currentColor"><path data-color="color-2" fill="currentColor" d="M2,12v8c0,1.7,1.3,3,3,3h14c1.7,0,3-1.3,3-3v-8H2z M16,19H8v-4h8V19z"></path> <path fill="currentColor" d="M21.1,5C22.2,4.9,23,4.1,23,3c0-1.1-0.9-2-2-2H3C1.9,1,1,1.9,1,3c0,1.1,0.8,1.9,1.9,2L1.1,8.6 C1,8.9,1,9.2,1.1,9.5C1.3,9.8,1.7,10,2,10h20c0.3,0,0.7-0.2,0.9-0.5c0.2-0.3,0.2-0.7,0-1L21.1,5z"></path></g></svg>