<svg id="nc_icon" version="1.1" xmlns="http://www.w3.org/2000/svg" xmlns:xlink="http://www.w3.org/1999/xlink" x="0px" y="0px" viewBox="0 0 24 24" xml:space="preserve" ><g class="nc-icon-wrapper" fill="currentColor"><path fill="currentColor" d="M21,0H6C5.4,0,5,0.4,5,1v8.7l-2.8,3.7C2,13.6,2,13.9,2,14.2l2,9C4.1,23.7,4.5,24,5,24h16c0.6,0,1-0.4,1-1V1 C22,0.4,21.6,0,21,0z M12,2h3v2h-3V2z M7,2h3v2H7V2z M18,14c0,0.3-0.2,0.6-0.4,0.8l-3,2C14.4,16.9,14.2,17,14,17s-0.4-0.1-0.6-0.2 l-3-2C10.2,14.6,10,14.3,10,14V9c0-0.6,0.4-1,1-1h6c0.6,0,1,0.4,1,1V14z M20,4h-3V2h3V4z"></path></g></svg>