<svg id="nc_icon" version="1.1" xmlns="http://www.w3.org/2000/svg" xmlns:xlink="http://www.w3.org/1999/xlink" x="0px" y="0px" viewBox="0 0 24 24" xml:space="preserve" ><g class="nc-icon-wrapper" fill="currentColor"><path data-color="color-2" fill="currentColor" d="M19,19c0,1.654-1.346,3-3,3s-3-1.346-3-3V5c0-2.757-2.243-5-5-5S3,2.243,3,5v9h2V5 c0-1.654,1.346-3,3-3s3,1.346,3,3v14c0,2.757,2.243,5,5,5s5-2.243,5-5v-9h-2V19z"></path> <path fill="currentColor" d="M7,16H1c-0.552,0-1,0.448-1,1v6c0,0.552,0.448,1,1,1h6c0.552,0,1-0.448,1-1v-6C8,16.448,7.552,16,7,16z"></path> <path fill="currentColor" d="M23,0h-6c-0.552,0-1,0.448-1,1v6c0,0.552,0.448,1,1,1h6c0.552,0,1-0.448,1-1V1C24,0.448,23.552,0,23,0z"></path></g></svg>