<svg id="nc_icon" version="1.1" xmlns="http://www.w3.org/2000/svg" xmlns:xlink="http://www.w3.org/1999/xlink" x="0px" y="0px" viewBox="0 0 24 24" xml:space="preserve" ><g class="nc-icon-wrapper" fill="currentColor"><path fill="currentColor" d="M18,7.0189819V4c0-2.2055664-1.7944336-4-4-4h-4C7.7944336,0,6,1.7944336,6,4v3.0189819 C3.5765381,8.84552,2,11.7383423,2,15c0,3.7578125,2.0810547,7.1635742,5.4311523,8.8891602 C7.5727539,23.9619141,7.7299805,24,7.8891602,24h8.2216797c0.1591797,0,0.3164062-0.0380859,0.4580078-0.1108398 C19.9189453,22.1635742,22,18.7578125,22,15C22,11.7383423,20.4234619,8.84552,18,7.0189819z M8,4c0-1.1030273,0.8969727-2,2-2h4 c1.1030273,0,2,0.8969727,2,2v1.8406982C14.7738037,5.3030396,13.4223633,5,12,5S9.2261963,5.3030396,8,5.8406982V4z"></path></g></svg>