<svg id="nc_icon" version="1.1" xmlns="http://www.w3.org/2000/svg" xmlns:xlink="http://www.w3.org/1999/xlink" x="0px" y="0px" viewBox="0 0 24 24" xml:space="preserve" ><g class="nc-icon-wrapper" fill="currentColor"><path data-color="color-2" fill="currentColor" d="M23.707,7.293L20.414,4l2.293-2.293c0.391-0.391,0.391-1.023,0-1.414s-1.023-0.391-1.414,0 L10.901,10.685c0.262,0.204,0.517,0.42,0.756,0.658c0.239,0.239,0.454,0.494,0.658,0.756L16,8.414l3.293,3.293 C19.488,11.902,19.744,12,20,12s0.512-0.098,0.707-0.293l3-3C24.098,8.316,24.098,7.684,23.707,7.293z"></path> <path fill="currentColor" d="M6,23c1.603,0,3.109-0.624,4.243-1.757S12,18.603,12,17s-0.624-3.109-1.757-4.243S7.603,11,6,11 s-3.109,0.624-4.243,1.757S0,15.397,0,17s0.624,3.109,1.757,4.243S4.397,23,6,23z"></path></g></svg>