<svg id="nc_icon" version="1.1" xmlns="http://www.w3.org/2000/svg" xmlns:xlink="http://www.w3.org/1999/xlink" x="0px" y="0px" viewBox="0 0 24 24" xml:space="preserve" ><g class="nc-icon-wrapper" fill="currentColor"><path fill="currentColor" d="M23,5h-5V2h-2v3h-4V4c0-2.206-1.794-4-4-4S4,1.794,4,4v1H1C0.448,5,0,5.448,0,6v12c0,0.552,0.448,1,1,1h9v1 c0,2.206,1.794,4,4,4s4-1.794,4-4v-1h5c0.552,0,1-0.448,1-1V6C24,5.448,23.552,5,23,5z M11,9v2H8V9H11z M6,15H3v-2h3V15z M6,11H3V9 h3V11z M6,4c0-1.103,0.897-2,2-2s2,0.897,2,2v1H6V4z M16,20c0,1.103-0.897,2-2,2s-2-0.897-2-2v-1h4V20z M16,15H8v-2h8V15z M16,11h-3 V9h3V11z M21,15h-3v-2h3V15z M21,11h-3V9h3V11z"></path></g></svg>