<svg id="nc_icon" version="1.1" xmlns="http://www.w3.org/2000/svg" xmlns:xlink="http://www.w3.org/1999/xlink" x="0px" y="0px" viewBox="0 0 24 24" xml:space="preserve" ><g class="nc-icon-wrapper" fill="currentColor"><path data-color="color-2" fill="currentColor" d="M4.3,16.6l-2.2,2.2c-0.6,0.6-0.9,1.3-0.9,2.1c0,0.8,0.3,1.6,0.9,2.1s1.3,0.9,2.1,0.9 c0.8,0,1.6-0.3,2.1-0.9l2.2-2.2L4.3,16.6z"></path> <path fill="currentColor" d="M22.6,5.4l-3.5-3.5c-1.1-1.1-2.6-1.8-4.2-1.8s-3.1,0.6-4.2,1.8l-8.4,8.4c-0.4,0.4-0.4,1,0,1.4l7.1,7.1 C9.5,18.9,9.7,19,10,19c0,0,0,0,0,0c0.3,0,0.5-0.1,0.7-0.3L22.6,6.8C23,6.4,23,5.8,22.6,5.4z M9.2,14.6l-1.4-1.4l6.4-6.4l1.4,1.4 L9.2,14.6z"></path></g></svg>