<svg id="nc_icon" version="1.1" xmlns="http://www.w3.org/2000/svg" xmlns:xlink="http://www.w3.org/1999/xlink" x="0px" y="0px" viewBox="0 0 24 24" xml:space="preserve" ><g class="nc-icon-wrapper" fill="currentColor"><polygon data-color="color-2" fill="currentColor" points="24,18 21,18 21,15 19,15 19,18 16,18 16,20 19,20 19,23 21,23 21,20 24,20 "></polygon> <path fill="currentColor" d="M4,4h16v9h2V4c0-1.103-0.897-2-2-2H4C2.897,2,2,2.897,2,4v11h2V4z"></path> <path fill="currentColor" d="M0,18c0,2.206,1.794,4,4,4h10v-5H0V18z"></path></g></svg>