<svg id="nc_icon" version="1.1" xmlns="http://www.w3.org/2000/svg" xmlns:xlink="http://www.w3.org/1999/xlink" x="0px" y="0px" viewBox="0 0 24 24" xml:space="preserve" ><g class="nc-icon-wrapper" fill="currentColor"><path fill="currentColor" d="M4,4h16v5h2V4c0-1.103-0.897-2-2-2H4C2.897,2,2,2.897,2,4v11h2V4z"></path> <path fill="currentColor" d="M0,17v1c0,2.206,1.794,4,4,4h10.916c-1.148-1.395-2.365-3.211-2.771-5H0z"></path> <path data-color="color-2" fill="currentColor" d="M19,11c-2.458,0-5,1.802-5,4.817c0,2.716,3.869,6.486,4.31,6.907L19,23.382l0.69-0.659 c0.441-0.421,4.31-4.191,4.31-6.907C24,12.802,21.458,11,19,11z M19,17c-0.552,0-1-0.448-1-1c0-0.552,0.448-1,1-1s1,0.448,1,1 C20,16.552,19.552,17,19,17z"></path></g></svg>