<svg id="nc_icon" version="1.1" xmlns="http://www.w3.org/2000/svg" xmlns:xlink="http://www.w3.org/1999/xlink" x="0px" y="0px" viewBox="0 0 24 24" xml:space="preserve" ><g class="nc-icon-wrapper" fill="currentColor"><path data-color="color-2" fill="currentColor" d="M4.882,12.037c-2.362-0.306-4.398,1.388-4.398,1.388s1.759,2.247,3.891,2.523 C6.19,16.184,8,15.102,8,15.102S6.697,12.272,4.882,12.037z"></path> <path data-color="color-2" fill="currentColor" d="M14.278,4.88C14.435,2.902,13.167,1,13.167,1s-2.995,1.562-3.152,3.54 c-0.205,2.574,1.739,4.688,1.739,4.688S14.093,7.203,14.278,4.88z"></path> <path fill="currentColor" d="M21.29,17.906c0.147-0.832,0.336-2.594-0.321-4.122C19.917,11.336,16.643,10,16.643,10 s-1.33,3.001-0.164,5.713c0.239,0.556,0.688,1.003,1.214,1.364C11.475,14.88,7,8.96,7,2V1H5v1c0,6.407,3.376,12.028,8.432,15.219 c-0.775-0.198-1.618-0.293-2.433-0.151C8.752,17.462,7,19.42,7,19.42s2.6,2.883,4.846,2.49c2.545-0.446,4.233-2.601,4.627-3.153 C18.5,19.549,20.696,20,23,20h1v-2h-1C22.422,18,21.852,17.966,21.29,17.906z"></path></g></svg>