<svg id="nc_icon" version="1.1" xmlns="http://www.w3.org/2000/svg" xmlns:xlink="http://www.w3.org/1999/xlink" x="0px" y="0px" viewBox="0 0 24 24" xml:space="preserve" ><g class="nc-icon-wrapper" fill="currentColor"><path fill="currentColor" d="M8.9,13.7l-2.6,2.6c-0.4,0.4-0.4,1,0,1.4C6.5,17.9,6.7,18,7,18s0.5-0.1,0.7-0.3l2.6-2.6 c0.5,0.1,1.2,0.2,2.1,0.2c1.7,0,4.1-0.5,6.3-2.7C22.5,8.9,23,2.3,23,2.1c0-0.3-0.1-0.6-0.3-0.8C22.5,1.1,22.2,1,21.9,1 c-0.3,0-6.8,0.5-10.6,4.3C8.1,8.5,8.6,12.2,8.9,13.7z"></path> <path data-color="color-2" fill="currentColor" d="M21,14c-0.6,0-1,0.4-1,1v7H2V4h7c0.6,0,1-0.4,1-1S9.6,2,9,2H1C0.4,2,0,2.4,0,3v20 c0,0.6,0.4,1,1,1h20c0.6,0,1-0.4,1-1v-8C22,14.4,21.6,14,21,14z"></path></g></svg>