<svg id="nc_icon" version="1.1" xmlns="http://www.w3.org/2000/svg" xmlns:xlink="http://www.w3.org/1999/xlink" x="0px" y="0px" viewBox="0 0 24 24" xml:space="preserve" ><g class="nc-icon-wrapper" fill="currentColor"><path fill="currentColor" d="M22.7,1.3C22.5,1.1,22.2,1,21.8,1C21.4,1.1,10.7,2.9,6.3,7.3c-3.1,3.1-3.3,6.5-2.8,8.9L7.2,14 c0.5-0.3,1,0.4,0.6,0.8l-3.7,3.7c0,0,0,0,0,0l-2.8,2.8c-0.4,0.4-0.4,1,0,1.4C1.5,22.9,1.7,23,2,23s0.5-0.1,0.7-0.3l2.8-2.8 c0.8,0.4,2.3,0.9,4.2,0.9c2.2,0,4.2-0.7,6-2.1c0.3-0.2,0.5-0.7,0.3-1.1l-1.4-5l3.6,1.4c0.5,0.2,1.1,0,1.3-0.5 c2.1-4.7,3.4-11,3.5-11.2C23,1.9,22.9,1.5,22.7,1.3z"></path></g></svg>