<svg id="nc_icon" version="1.1" xmlns="http://www.w3.org/2000/svg" xmlns:xlink="http://www.w3.org/1999/xlink" x="0px" y="0px" viewBox="0 0 24 24" xml:space="preserve" ><g class="nc-icon-wrapper" fill="currentColor"><polygon fill="currentColor" points="10,8.6 8.1,12 10.1,15.4 14,15.4 15.9,12 13.9,8.6 "></polygon> <path fill="currentColor" d="M12,0C5.4,0,0,5.4,0,12s5.4,12,12,12s12-5.4,12-12S18.6,0,12,0z M19.7,18.4L17.1,14l-4.5,8 c-0.2,0-0.4,0-0.6,0c-0.6,0-1.1-0.1-1.7-0.2l2.5-4.4l-9.2,0.1c-0.4-0.6-0.7-1.3-1-2l5.1,0L3.1,7.5c0.3-0.7,0.7-1.3,1.2-1.9L6.9,10 l4.5-8c0.2,0,0.4,0,0.6,0c0.6,0,1.1,0.1,1.7,0.2l-2.5,4.4l3.2,0c0,0,0,0,0,0l6,0c0.4,0.6,0.7,1.3,1,2l-5.1,0l4.7,7.9 C20.6,17.2,20.2,17.8,19.7,18.4z"></path></g></svg>