<svg id="nc_icon" version="1.1" xmlns="http://www.w3.org/2000/svg" xmlns:xlink="http://www.w3.org/1999/xlink" x="0px" y="0px" viewBox="0 0 24 24" xml:space="preserve" ><g class="nc-icon-wrapper" fill="currentColor"><path fill="currentColor" d="M23,0H1C0.4,0,0,0.4,0,1v9h24V1C24,0.4,23.6,0,23,0z M12,7H8V5h4V7z M16,7h-2V3h2V7z M20,7h-2V3h2V7z"></path> <path data-color="color-2" fill="currentColor" d="M0,21c0,0.6,0.4,1,1,1h1v1c0,0.6,0.4,1,1,1c0.6,0,1-0.4,1-1v-1h16v1c0,0.6,0.4,1,1,1 c0.6,0,1-0.4,1-1v-1h1c0.6,0,1-0.4,1-1v-9H0V21z M16,17h4v2h-4V17z M12,15h2v4h-2V15z M8,15h2v4H8V15z M4,15h2v4H4V15z"></path></g></svg>