<svg id="nc_icon" version="1.1" xmlns="http://www.w3.org/2000/svg" xmlns:xlink="http://www.w3.org/1999/xlink" x="0px" y="0px" viewBox="0 0 24 24" xml:space="preserve" ><g class="nc-icon-wrapper" fill="currentColor"><path fill="currentColor" d="M21,14h-2v-3c0-0.6-0.4-1-1-1h-7c-0.6,0-1,0.4-1,1v3H8V2c0-0.6-0.4-1-1-1H5C3.3,1,2,2.3,2,4v8 c0,1.7,1.3,3,3,3h1v6c0,1.7,1.3,3,3,3h10c1.7,0,3-1.3,3-3v-6C22,14.4,21.6,14,21,14z"></path> <path data-color="color-2" fill="currentColor" d="M16,9c1.7,0,3-1.3,3-3c0-1.3-1.5-3.6-2.2-4.6L16,0.2l-0.8,1.2C14.5,2.4,13,4.7,13,6 C13,7.7,14.3,9,16,9z"></path></g></svg>