<svg id="nc_icon" version="1.1" xmlns="http://www.w3.org/2000/svg" xmlns:xlink="http://www.w3.org/1999/xlink" x="0px" y="0px" viewBox="0 0 24 24" xml:space="preserve" ><g class="nc-icon-wrapper" fill="currentColor"><path fill="currentColor" d="M20,8H8V6c0-2.206,1.794-4,4-4s4,1.794,4,4h2c0-3.309-2.691-6-6-6S6,2.691,6,6v2H4C3.448,8,3,8.448,3,9v14 c0,0.552,0.448,1,1,1h16c0.552,0,1-0.448,1-1V9C21,8.448,20.552,8,20,8z M13,17.816V20h-2v-2.184C9.839,17.402,9,16.302,9,15 c0-1.654,1.346-3,3-3s3,1.346,3,3C15,16.302,14.161,17.402,13,17.816z"></path></g></svg>