<svg id="nc_icon" version="1.1" xmlns="http://www.w3.org/2000/svg" xmlns:xlink="http://www.w3.org/1999/xlink" x="0px" y="0px" viewBox="0 0 24 24" xml:space="preserve" ><g class="nc-icon-wrapper" fill="currentColor"><path fill="currentColor" d="M20,8h-2V6c0-3.309-2.691-6-6-6S6,2.691,6,6v2H4C3.448,8,3,8.448,3,9v14c0,0.552,0.448,1,1,1h16 c0.552,0,1-0.448,1-1V9C21,8.448,20.552,8,20,8z M13,17.816L13,20h-2l0-2.184C9.839,17.402,9,16.302,9,15c0-1.654,1.346-3,3-3 s3,1.346,3,3C15,16.302,14.162,17.402,13,17.816z M16,8H8V6c0-2.206,1.794-4,4-4s4,1.794,4,4V8z"></path></g></svg>