<svg id="nc_icon" version="1.1" xmlns="http://www.w3.org/2000/svg" xmlns:xlink="http://www.w3.org/1999/xlink" x="0px" y="0px" viewBox="0 0 24 24" xml:space="preserve" ><g class="nc-icon-wrapper" fill="currentColor"><path data-color="color-2" fill="currentColor" d="M22,17h-1v-2c0-1.654-1.346-3-3-3s-3,1.346-3,3v2h-1c-0.552,0-1,0.448-1,1v5 c0,0.552,0.448,1,1,1h8c0.552,0,1-0.448,1-1v-5C23,17.448,22.552,17,22,17z M17,15c0-0.551,0.449-1,1-1s1,0.449,1,1v2h-2V15z"></path> <path fill="currentColor" d="M11,21H4c-0.552,0-1-0.448-1-1V4c0-0.552,0.448-1,1-1h12c0.552,0,1,0.448,1,1v6h2V3c0-1.654-1.346-3-3-3H4 C2.346,0,1,1.346,1,3v18c0,1.654,1.346,3,3,3h7V21z"></path></g></svg>