<svg id="nc_icon" version="1.1" xmlns="http://www.w3.org/2000/svg" xmlns:xlink="http://www.w3.org/1999/xlink" x="0px" y="0px" viewBox="0 0 24 24" xml:space="preserve" ><g class="nc-icon-wrapper" fill="currentColor"><path fill="currentColor" d="M10.082,20.298c-3.973,0.392-7.403-1.404-7.661-4.012c-0.258-2.608,2.755-5.041,6.727-5.433 c3.973-0.393,7.403,1.403,7.661,4.01C17.067,17.472,14.055,19.906,10.082,20.298 M18.029,11.639c-0.338-0.101-0.57-0.17-0.393-0.614 c0.383-0.964,0.423-1.796,0.007-2.39c-0.779-1.113-2.911-1.053-5.354-0.03c0-0.001-0.767,0.336-0.571-0.273 c0.376-1.208,0.319-2.22-0.266-2.805C10.127,4.201,6.602,5.578,3.578,8.6C1.315,10.864,0,13.264,0,15.339 c0,3.969,5.09,6.382,10.069,6.382c6.527,0,10.869-3.792,10.869-6.803C20.938,13.098,19.406,12.066,18.029,11.639"></path> <path data-color="color-2" fill="currentColor" d="M22.363,4.376c-1.576-1.747-3.901-2.413-6.047-1.957h-0.001 c-0.496,0.106-0.813,0.595-0.706,1.09c0.105,0.496,0.594,0.813,1.09,0.707c1.527-0.324,3.179,0.151,4.3,1.391 c1.119,1.241,1.423,2.934,0.944,4.419l0,0.001c-0.156,0.484,0.108,1.001,0.592,1.157c0.482,0.156,1-0.108,1.157-0.59 c0-0.001,0-0.002,0-0.003C24.365,8.501,23.94,6.122,22.363,4.376"></path> <path data-color="color-2" fill="currentColor" d="M19.942,6.56c-0.767-0.851-1.9-1.174-2.945-0.952c-0.428,0.091-0.7,0.512-0.608,0.94 c0.092,0.426,0.512,0.7,0.938,0.607v0.001c0.511-0.108,1.065,0.049,1.441,0.464c0.375,0.416,0.476,0.984,0.315,1.481h0.001 c-0.134,0.415,0.093,0.861,0.509,0.996c0.416,0.133,0.862-0.094,0.996-0.51C20.917,8.57,20.711,7.411,19.942,6.56"></path> <path fill="currentColor" d="M10.301,15.574c-0.139,0.238-0.446,0.352-0.687,0.253c-0.237-0.097-0.311-0.363-0.177-0.597 c0.139-0.232,0.434-0.346,0.67-0.252C10.348,15.066,10.434,15.335,10.301,15.574 M9.035,17.199 c-0.384,0.613-1.207,0.882-1.827,0.599c-0.611-0.278-0.791-0.991-0.407-1.588c0.38-0.595,1.175-0.861,1.79-0.603 C9.214,15.872,9.413,16.58,9.035,17.199 M10.479,12.86c-1.891-0.492-4.028,0.45-4.849,2.116c-0.836,1.699-0.028,3.585,1.882,4.202 c1.979,0.638,4.311-0.34,5.122-2.174C13.434,15.211,12.436,13.365,10.479,12.86"></path> </g></svg>