<svg id="nc_icon" version="1.1" xmlns="http://www.w3.org/2000/svg" xmlns:xlink="http://www.w3.org/1999/xlink" x="0px" y="0px" viewBox="0 0 24 24" xml:space="preserve" ><g class="nc-icon-wrapper" fill="currentColor"><path fill="currentColor" d="M4,4.6C4,4.6,4,4.6,4,4.6h2.3c0.1,0,0.2-0.1,0.2-0.2c0,0,0-1.9,0-2.5v0c0-0.4,0.1-0.8,0.3-1.1l0.1-0.1 c0,0,0,0,0,0L2.4,5c0,0,0,0,0,0c0.1,0,0.2-0.1,0.2-0.1C3,4.7,3.4,4.6,4,4.6z M21.5,4.2c-0.2-1-0.7-1.4-1.3-1.6 c-0.6-0.2-1.7-0.4-3.1-0.6c-1.1-0.1-2.5-0.1-3.3-0.1c-0.1-0.7-0.6-1.3-1.1-1.5C11.4-0.2,9.2,0,8.7,0.1C8.2,0.3,7.8,0.5,7.5,0.9 C7.3,1.2,7.2,1.5,7.2,1.9c0,0.3,0,0.9,0,1.4c0,0.5,0,1,0,1c0,0.5-0.4,0.9-0.9,0.9H4.1c-0.5,0-0.8,0.1-1.1,0.2C2.7,5.6,2.5,5.8,2.3,6 C2,6.4,2,6.9,2,7.4c0,0,0,0.4,0.1,1.2c0.1,0.6,0.8,5,1.4,6.3c0.2,0.5,0.4,0.7,0.9,1c1.1,0.5,3.6,1,4.7,1.1c1.2,0.1,1.9,0.5,2.3-0.5 c0,0,0.1-0.2,0.2-0.6c0.4-1.1,0.4-2.2,0.4-2.9c0-0.1,0.1-0.1,0.1,0c0,0.5-0.1,2.4,1.3,2.8c0.5,0.2,1.7,0.4,2.8,0.5 c1,0.1,1.8,0.5,1.8,3.2c0,1.6-0.3,1.9-2.1,1.9c-1.4,0-2,0-2-1.1c0-0.9,0.9-0.8,1.6-0.8c0.3,0,0.1-0.2,0.1-0.8c0-0.6,0.4-0.9,0-0.9 c-2.4-0.1-3.7,0-3.7,2.9c0,2.7,1,3.2,4.4,3.2c2.6,0,3.6-0.1,4.6-3.4c0.2-0.7,0.7-2.7,1-6.1C22.2,12.3,21.8,5.8,21.5,4.2z M16.9,11.4 c-0.3,0-0.6,0-0.9,0.1c0.1-0.7,0.4-1.5,1.3-1.4c1.1,0,1.2,1,1.2,1.7C18.1,11.5,17.5,11.4,16.9,11.4z"></path></g></svg>