<svg id="nc_icon" version="1.1" xmlns="http://www.w3.org/2000/svg" xmlns:xlink="http://www.w3.org/1999/xlink" x="0px" y="0px" viewBox="0 0 24 24" xml:space="preserve" ><g class="nc-icon-wrapper" fill="currentColor"><path fill="currentColor" d="M10.275,13.65C9.675,15,8.325,15.9,6.75,15.9c-2.1,0-3.9-1.725-3.9-3.9c0-2.1,1.725-3.9,3.9-3.9 c1.575,0,2.925,0.975,3.525,2.325h3C12.6,7.425,9.9,5.25,6.75,5.25C3.075,5.25,0,8.25,0,12s3,6.75,6.75,6.75 c3.15,0,5.775-2.175,6.525-5.1H10.275z"></path> <path data-color="color-2" fill="currentColor" d="M24,5.85c-0.825-0.375-1.725-0.6-2.7-0.6c-0.975,0-1.875,0.3-2.7,0.825V5.7h-2.775v5.7 c0,0.9,0,6.825,0,6.825H18.6c0,0,0-3.075,0-6c0-1.125,0-1.875,0.15-2.4V9.75c0.15-0.525,0.45-0.9,1.05-1.275 c0.375-0.225,0.825-0.45,1.5-0.45c0.675,0,1.05,0.15,1.5,0.45L24,5.85z"></path></g></svg>