<svg id="nc_icon" version="1.1" xmlns="http://www.w3.org/2000/svg" xmlns:xlink="http://www.w3.org/1999/xlink" x="0px" y="0px" viewBox="0 0 24 24" xml:space="preserve" ><g class="nc-icon-wrapper" fill="currentColor"><rect x="10.4" y="10.3" transform="matrix(-0.3176 -0.9482 0.9482 -0.3176 4.4325 27.1899)" fill="currentColor" width="3.3" height="3.4"></rect> <rect x="10.4" y="10.3" transform="matrix(-0.3176 -0.9482 0.9482 -0.3176 4.4325 27.1899)" fill="currentColor" width="3.3" height="3.4"></rect> <path fill="currentColor" d="M23,8.7C20.5,0.5,16.9-1.5,8.7,1C0.5,3.5-1.5,7.1,1,15.3c2.5,8.2,6,10.2,14.3,7.7 C23.5,20.5,25.5,16.9,23,8.7z M18.8,14.1l-1.6,0.5l0.5,1.6c0.2,0.7-0.1,1.4-0.8,1.6c-0.1,0-0.3,0.1-0.4,0.1c-0.5,0-1-0.3-1.1-0.8 l-0.5-1.6l-3.2,1.1l0.5,1.6c0.2,0.7-0.1,1.4-0.8,1.6c-0.1,0-0.3,0.1-0.4,0.1c-0.5,0-1-0.3-1.1-0.8l-0.5-1.6l-1.6,0.5 c-0.1,0-0.3,0.1-0.4,0.1c-0.5,0-1-0.3-1.1-0.8C6,16.3,6.3,15.6,7,15.4l1.6-0.5l-1-3.1L6,12.3c-0.1,0-0.3,0.1-0.4,0.1 c-0.5,0-1-0.3-1.1-0.8c-0.2-0.7,0.1-1.4,0.8-1.6l1.6-0.5L6.2,7.8C6,7.2,6.3,6.5,7,6.2C7.6,6,8.3,6.4,8.6,7l0.5,1.6l3.2-1.1L11.8,6 c-0.2-0.7,0.1-1.4,0.8-1.6c0.7-0.2,1.4,0.1,1.6,0.8l0.5,1.6l1.6-0.5C16.9,6,17.6,6.4,17.8,7C18,7.7,17.7,8.4,17,8.6l-1.6,0.5l1,3.1 l1.6-0.5c0.7-0.2,1.4,0.1,1.6,0.8C19.8,13.1,19.5,13.8,18.8,14.1z"></path></g></svg>