<svg id="nc_icon" version="1.1" xmlns="http://www.w3.org/2000/svg" xmlns:xlink="http://www.w3.org/1999/xlink" x="0px" y="0px" viewBox="0 0 24 24" xml:space="preserve" ><g class="nc-icon-wrapper" fill="currentColor"><path fill="currentColor" d="M8.704,2.301C3.774,2.301,0,5.647,0,9.295s3.258,5.761,3.258,5.761l-0.53,2.007 c-0.07,0.265,0.213,0.483,0.451,0.348l2.38-1.349c1.052,0.335,3.286,0.442,3.503,0.452C8.907,15.973,8.83,15.44,8.83,14.942 c0-2.815,2.451-6.78,7.899-6.78c0.124,0,0.248,0.003,0.372,0.008C16.377,4.701,12.774,2.301,8.704,2.301z M5.459,8.112 c-0.597,0-1.082-0.484-1.082-1.082s0.484-1.082,1.082-1.082s1.082,0.484,1.082,1.082S6.057,8.112,5.459,8.112z M11.748,8.112 c-0.597,0-1.082-0.484-1.082-1.082s0.484-1.082,1.082-1.082c0.597,0,1.082,0.484,1.082,1.082S12.346,8.112,11.748,8.112z"></path> <path data-color="color-2" fill="currentColor" d="M24,14.502c0-3.195-3.748-5.535-7.27-5.535c-4.981,0-7.094,3.597-7.094,5.975 c0,2.382,2.113,5.975,7.094,5.975c1.102,0,2.072-0.158,2.915-0.438l1.873,1.189c0.148,0.094,0.335-0.039,0.296-0.209l-0.425-1.845 C23.158,18.381,24,16.438,24,14.502z M14.452,13.895c-0.528,0-0.956-0.428-0.956-0.956s0.428-0.956,0.956-0.956 s0.956,0.428,0.956,0.956S14.98,13.895,14.452,13.895z M19.232,13.895c-0.528,0-0.956-0.428-0.956-0.956s0.428-0.956,0.956-0.956 c0.528,0,0.956,0.428,0.956,0.956S19.76,13.895,19.232,13.895z"></path> </g></svg>