<svg id="nc_icon" version="1.1" xmlns="http://www.w3.org/2000/svg" xmlns:xlink="http://www.w3.org/1999/xlink" x="0px" y="0px" viewBox="0 0 24 24" xml:space="preserve" ><g class="nc-icon-wrapper" fill="currentColor"><path fill="currentColor" d="M12,21c0-0.8,0.312-1.553,0.877-2.119l6.792-6.792c0.7-0.7,1.631-1.086,2.621-1.086 c0.608,0,1.186,0.161,1.71,0.436V2c0-0.308-0.142-0.599-0.385-0.788c-0.243-0.19-0.561-0.26-0.858-0.182L15.04,2.959L9.316,1.052 C9.135,0.991,8.942,0.981,8.757,1.03l-8,2C0.312,3.142,0,3.541,0,4v18c0,0.308,0.142,0.599,0.385,0.788C0.562,22.927,0.779,23,1,23 c0.081,0,0.163-0.01,0.243-0.03l7.717-1.929L12,22.054V21z"></path> <path data-color="color-2" fill="currentColor" d="M21.083,13.503l-6.79,6.79C14.105,20.481,14,20.735,14,21v2h2 c0.265,0,0.519-0.105,0.707-0.293l6.79-6.79c0.667-0.667,0.667-1.747,0-2.414S21.75,12.836,21.083,13.503z"></path></g></svg>