<svg id="nc_icon" version="1.1" xmlns="http://www.w3.org/2000/svg" xmlns:xlink="http://www.w3.org/1999/xlink" x="0px" y="0px" viewBox="0 0 24 24" xml:space="preserve" ><g class="nc-icon-wrapper" fill="currentColor"><path fill="currentColor" d="M15.414,12.828l-3.656,3.657c-1.131,1.131-3.112,1.131-4.243,0c-1.169-1.17-1.169-3.073,0-4.243l3.657-3.656 L6.929,4.343L3.272,8c-1.7,1.7-2.636,3.96-2.636,6.364c0,2.403,0.936,4.663,2.636,6.363s3.96,2.636,6.364,2.636 c2.403,0,4.663-0.936,6.363-2.636l3.657-3.656L15.414,12.828z"></path> <path data-color="color-2" fill="currentColor" d="M12.586,7.172l2-2c0.188-0.188,0.293-0.441,0.293-0.707s-0.105-0.52-0.293-0.707 l-2.829-2.829c-0.375-0.375-1.039-0.375-1.414,0l-2,2L12.586,7.172z"></path> <path data-color="color-2" fill="currentColor" d="M23.071,12.243l-2.829-2.829c-0.375-0.375-1.039-0.375-1.414,0l-2,2l4.243,4.243l2-2 c0.188-0.188,0.293-0.441,0.293-0.707S23.259,12.431,23.071,12.243z"></path></g></svg>