<svg id="nc_icon" version="1.1" xmlns="http://www.w3.org/2000/svg" xmlns:xlink="http://www.w3.org/1999/xlink" x="0px" y="0px" viewBox="0 0 24 24" xml:space="preserve" ><g class="nc-icon-wrapper" fill="currentColor"><path fill="currentColor" d="M23.6,1.2C23.4,1,23,1,22.7,1L17,2.7v20.1l6.3-1.8c0.4-0.1,0.7-0.5,0.7-1V2C24,1.7,23.9,1.4,23.6,1.2z"></path> <polygon data-color="color-2" fill="currentColor" points="15,2.7 9,1.2 9,21.3 15,22.8 "></polygon> <path fill="currentColor" d="M7,1.2L0.7,3C0.3,3.2,0,3.6,0,4v18c0,0.3,0.1,0.6,0.4,0.8C0.6,22.9,0.8,23,1,23c0.1,0,0.2,0,0.3,0L7,21.3 V1.2z"></path></g></svg>