<svg id="nc_icon" version="1.1" xmlns="http://www.w3.org/2000/svg" xmlns:xlink="http://www.w3.org/1999/xlink" x="0px" y="0px" viewBox="0 0 24 24" xml:space="preserve" ><g class="nc-icon-wrapper" fill="currentColor"><path fill="currentColor" d="M0,1v22c0,0.552,0.448,1,1,1h22c0.552,0,1-0.448,1-1V1c0-0.552-0.448-1-1-1H1C0.448,0,0,0.448,0,1z M4,6h2V4 h2v2h2v2H8v2H6V8H4V6z M10.414,19L9,20.414l-2-2l-2,2L3.586,19l2-2l-2-2L5,13.586l2,2l2-2L10.414,15l-2,2L10.414,19z M20,20h-6v-2h6 V20z M20,16h-6v-2h6V16z M20,8h-6V6h6V8z"></path></g></svg>