<svg id="nc_icon" version="1.1" xmlns="http://www.w3.org/2000/svg" xmlns:xlink="http://www.w3.org/1999/xlink" x="0px" y="0px" viewBox="0 0 24 24" xml:space="preserve" ><g class="nc-icon-wrapper" fill="currentColor"><path data-color="color-2" fill="currentColor" d="M23,13H1c-0.552,0-1-0.447-1-1s0.448-1,1-1h22c0.552,0,1,0.447,1,1S23.552,13,23,13z"></path> <path fill="currentColor" d="M23,6H12c-0.552,0-1-0.447-1-1s0.448-1,1-1h11c0.552,0,1,0.447,1,1S23.552,6,23,6z"></path> <path fill="currentColor" d="M12,20H1c-0.552,0-1-0.447-1-1s0.448-1,1-1h11c0.552,0,1,0.447,1,1S12.552,20,12,20z"></path></g></svg>