<svg id="nc_icon" version="1.1" xmlns="http://www.w3.org/2000/svg" xmlns:xlink="http://www.w3.org/1999/xlink" x="0px" y="0px" viewBox="0 0 24 24" xml:space="preserve" ><g class="nc-icon-wrapper" fill="currentColor"><rect x="1" y="22" fill="currentColor" width="22" height="2"></rect> <rect data-color="color-2" x="9" y="18" fill="currentColor" width="14" height="2"></rect> <path fill="currentColor" d="M7,16c0-1.654-1.346-3-3-3H3c0-2.204,1.007-4.219,2.723-5.54l3.852,5.398 c0.314,0.44,0.935,0.559,1.395,0.233l3.256-2.323c0.449-0.321,0.554-0.945,0.233-1.396L8.07,0.419 C7.75-0.029,7.125-0.134,6.676,0.186L3.419,2.509C2.97,2.829,2.865,3.455,3.186,3.904l1.378,1.932C2.321,7.532,1,10.141,1,13v1v6h6 V16z"></path></g></svg>