<svg id="nc_icon" version="1.1" xmlns="http://www.w3.org/2000/svg" xmlns:xlink="http://www.w3.org/1999/xlink" x="0px" y="0px" viewBox="0 0 24 24" xml:space="preserve" ><g class="nc-icon-wrapper" fill="currentColor"><path data-color="color-2" fill="currentColor" d="M23,5h-2v2h-2V5h-2v2h-1v4c0,1.858,1.279,3.411,3,3.858V22H7c-0.553,0-1,0.448-1,1 s0.447,1,1,1h13c0.553,0,1-0.448,1-1v-8.142c1.721-0.447,3-2,3-3.858V7h-1V5z"></path> <path fill="currentColor" d="M14,17V3c0-1.654-1.346-3-3-3H3C1.346,0,0,1.346,0,3v14c0,1.654,1.346,3,3,3h8C12.654,20,14,18.654,14,17z M2,16V4c0-0.552,0.448-1,1-1h8c0.552,0,1,0.448,1,1v12c0,0.552-0.448,1-1,1H3C2.448,17,2,16.552,2,16z"></path></g></svg>