<svg id="nc_icon" version="1.1" xmlns="http://www.w3.org/2000/svg" xmlns:xlink="http://www.w3.org/1999/xlink" x="0px" y="0px" viewBox="0 0 24 24" xml:space="preserve" ><g class="nc-icon-wrapper" fill="currentColor"><path data-color="color-2" fill="currentColor" d="M5.1,8.4L5.8,12h11.5l0.2-1H19c1.7,0,3-1.3,3-3V4c0-0.6-0.4-1-1-1h-3h-4V1c0-0.6-0.4-1-1-1 h-3C9.4,0,9,0.4,9,1v2H3C2.6,3,2.3,3.2,2.1,3.6S2,4.3,2.2,4.6L5.1,8.4z M18.8,5H20v3c0,0.6-0.4,1-1,1h-1.1L18.8,5z"></path> <path fill="currentColor" d="M17.3,14H5.7L3,22.7C3,23,3,23.3,3.2,23.6C3.4,23.9,3.7,24,4,24h15c0.3,0,0.6-0.1,0.8-0.4 C20,23.3,20,23,20,22.7L17.3,14z"></path></g></svg>