<svg id="nc_icon" version="1.1" xmlns="http://www.w3.org/2000/svg" xmlns:xlink="http://www.w3.org/1999/xlink" x="0px" y="0px" viewBox="0 0 24 24" xml:space="preserve" ><g class="nc-icon-wrapper" fill="currentColor"><path fill="currentColor" d="M23,17.1l-3-1.7V8.6l3-1.7c0.5-0.3,0.6-0.9,0.4-1.4S22.5,4.9,22,5.1l-3,1.7l-6-3.4V1c0-0.6-0.4-1-1-1 s-1,0.4-1,1v2.4L5,6.8L2,5.1C1.5,4.9,0.9,5,0.6,5.5C0.4,6,0.5,6.6,1,6.9l3,1.7v6.8l-3,1.7c-0.5,0.3-0.6,0.9-0.4,1.4 C0.8,18.8,1.2,19,1.5,19c0.2,0,0.3,0,0.5-0.1l3-1.7l6,3.4V23c0,0.6,0.4,1,1,1s1-0.4,1-1v-2.4l6-3.4l3,1.7c0.2,0.1,0.3,0.1,0.5,0.1 c0.3,0,0.7-0.2,0.9-0.5C23.6,18,23.5,17.4,23,17.1z"></path></g></svg>