<svg id="nc_icon" version="1.1" xmlns="http://www.w3.org/2000/svg" xmlns:xlink="http://www.w3.org/1999/xlink" x="0px" y="0px" viewBox="0 0 24 24" xml:space="preserve" ><g class="nc-icon-wrapper" fill="currentColor"><path fill="currentColor" d="M21,9c-1.304,0-2.403,0.837-2.816,2h-4.326C13.411,9.28,11.859,8,10,8C9.453,8,8.932,8.111,8.456,8.311 L5.531,4.597C5.824,4.134,6,3.589,6,3c0-1.657-1.343-3-3-3S0,1.343,0,3s1.343,3,3,3c0.337,0,0.655-0.068,0.957-0.17l2.918,3.704 C6.336,10.216,6,11.065,6,12s0.336,1.784,0.875,2.466L3.957,18.17C3.655,18.068,3.337,18,3,18c-1.657,0-3,1.343-3,3s1.343,3,3,3 s3-1.343,3-3c0-0.589-0.176-1.134-0.469-1.597l2.925-3.714C8.932,15.889,9.453,16,10,16c1.859,0,3.411-1.28,3.858-3h4.326 c0.413,1.163,1.512,2,2.816,2c1.657,0,3-1.343,3-3S22.657,9,21,9z"></path></g></svg>