<svg id="nc_icon" version="1.1" xmlns="http://www.w3.org/2000/svg" xmlns:xlink="http://www.w3.org/1999/xlink" x="0px" y="0px" viewBox="0 0 24 24" xml:space="preserve" ><g class="nc-icon-wrapper" fill="currentColor"><path fill="currentColor" d="M22,0H2C1.448,0,1,0.448,1,1v22c0,0.552,0.448,1,1,1h20c0.552,0,1-0.448,1-1V1C23,0.448,22.552,0,22,0z M12.243,11.03C13.739,11.404,16,11.969,16,14.5c0,1.758-1.308,3.204-3,3.449V20h-2v-2.051c-1.692-0.245-3-1.691-3-3.449h2 c0,0.827,0.673,1.5,1.5,1.5h1c0.827,0,1.5-0.673,1.5-1.5c0-0.842-0.505-1.096-2.243-1.53C10.261,12.596,8,12.031,8,9.5 c0-1.758,1.308-3.204,3-3.449V4h2v2.051c1.692,0.245,3,1.691,3,3.449h-2C14,8.673,13.327,8,12.5,8h-1C10.673,8,10,8.673,10,9.5 C10,10.342,10.505,10.596,12.243,11.03z"></path></g></svg>