<svg id="nc_icon" version="1.1" xmlns="http://www.w3.org/2000/svg" xmlns:xlink="http://www.w3.org/1999/xlink" x="0px" y="0px" viewBox="0 0 24 24" xml:space="preserve" ><g class="nc-icon-wrapper" fill="currentColor"><path data-color="color-2" fill="currentColor" d="M17.9,0.5C17.7,0.2,17.3,0,17,0H7C6.7,0,6.3,0.2,6.1,0.5C6,0.8,6,1.1,6.1,1.4l2,4 C8.3,5.8,8.6,6,9,6h2V4h2v2h2c0.4,0,0.7-0.2,0.9-0.6l2-4C18,1.1,18,0.8,17.9,0.5z"></path> <path fill="currentColor" d="M20.4,16.7l-4-8.2C16.2,8.2,15.9,8,15.5,8h-7C8.1,8,7.8,8.2,7.6,8.6l-4,8.2c-0.8,1.9-0.4,4.1,1.1,5.7 c1,1,2.5,1.6,3.9,1.6l6.8,0c1.5,0,2.9-0.5,3.9-1.6C20.8,20.9,21.2,18.7,20.4,16.7z"></path></g></svg>