<svg id="nc_icon" version="1.1" xmlns="http://www.w3.org/2000/svg" xmlns:xlink="http://www.w3.org/1999/xlink" x="0px" y="0px" viewBox="0 0 24 24" xml:space="preserve" ><g class="nc-icon-wrapper" fill="currentColor"><path data-color="color-2" fill="currentColor" d="M23,18H1c-0.553,0-1,0.447-1,1s0.447,1,1,1h22c0.553,0,1-0.447,1-1S23.553,18,23,18z"></path> <path data-color="color-2" fill="currentColor" d="M20,22H4c-0.553,0-1,0.447-1,1s0.447,1,1,1h16c0.553,0,1-0.447,1-1S20.553,22,20,22z"></path> <path fill="currentColor" d="M23.576,16C23.846,15.386,24,14.712,24,14c0-1.21-0.45-2.307-1.168-3.172C23.594,9.679,24,8.358,24,7 c0-0.553-0.447-1-1-1c-2.757,0-5-2.243-5-5c0-0.553-0.447-1-1-1c-3.195,0-6.261,2.118-6.923,6.169 c-1.7,0.383-3.192,1.43-4.113,2.928C5.645,9.032,5.322,9,5,9c-2.757,0-5,2.243-5,5c0,0.712,0.154,1.386,0.424,2H23.576z M16.084,2.084c0.467,2.993,2.838,5.364,5.831,5.832c-0.11,0.579-0.343,1.126-0.662,1.645C20.573,9.214,19.814,9,19,9 c-0.628,0-1.243,0.118-1.82,0.346c-1.029-1.856-2.913-3.093-5.045-3.303C12.519,4,14.097,2.452,16.084,2.084z"></path></g></svg>