<svg id="nc_icon" version="1.1" xmlns="http://www.w3.org/2000/svg" xmlns:xlink="http://www.w3.org/1999/xlink" x="0px" y="0px" viewBox="0 0 24 24" xml:space="preserve" ><g class="nc-icon-wrapper" fill="currentColor"><path fill="currentColor" d="M22,3h-2V1c0-0.553-0.448-1-1-1H5C4.448,0,4,0.447,4,1v2H2V0H0v24h2v-3h2v2c0,0.553,0.448,1,1,1h14 c0.552,0,1-0.447,1-1v-2h2v3h2v-3v-2V5V3V0h-2V3z M4,19H2v-2h2V19z M4,15H2v-2h2V15z M4,11H2V9h2V11z M4,7H2V5h2V7z M18,13H6v-2h12 V13z M22,19h-2v-2h2V19z M22,15h-2v-2h2V15z M22,11h-2V9h2V11z M22,7h-2V5h2V7z"></path></g></svg>