<svg id="nc_icon" version="1.1" xmlns="http://www.w3.org/2000/svg" xmlns:xlink="http://www.w3.org/1999/xlink" x="0px" y="0px" viewBox="0 0 24 24" xml:space="preserve" ><g class="nc-icon-wrapper" fill="currentColor"><path fill="currentColor" d="M19,3c-0.4,0-0.8,0-1.2,0.1C16.5,1.2,14.4,0,12,0S7.5,1.2,6.2,3.1C5.8,3,5.4,3,5,3C2.2,3,0,5.2,0,8 s2.2,5,5,5c0.9,0,1.7-0.2,2.5-0.7C8.7,13.4,10.3,14,12,14s3.3-0.6,4.5-1.7c0.8,0.4,1.6,0.7,2.5,0.7c2.8,0,5-2.2,5-5S21.8,3,19,3z"></path> <path data-color="color-2" fill="currentColor" d="M19,15c-0.8,0-1.5-0.1-2.2-0.4C15.3,15.5,13.7,16,12,16s-3.3-0.5-4.8-1.4 C6.5,14.9,5.8,15,5,15c-0.7,0-1.4-0.1-2.1-0.3L5,23.2C5.1,23.7,5.5,24,6,24h12c0.5,0,0.9-0.3,1-0.8l2.1-8.6C20.4,14.9,19.7,15,19,15 z"></path></g></svg>