<svg id="nc_icon" version="1.1" xmlns="http://www.w3.org/2000/svg" xmlns:xlink="http://www.w3.org/1999/xlink" x="0px" y="0px" viewBox="0 0 24 24" xml:space="preserve" ><g class="nc-icon-wrapper" fill="currentColor"><circle data-color="color-2" fill="currentColor" cx="8.5" cy="8.5" r="2.5"></circle> <path fill="currentColor" d="M24,10c0-3.33496-5.18752-10-12-10C5.18749,0,0,6.66504,0,10c0,2.17053,2.9361,3.73352,6.70221,4.48883 l-0.5061,2.53058C5.57733,20.11334,7.94379,23,11.099,23h1.802c3.15521,0,5.52167-2.88666,4.90289-5.98059l-0.50287-2.51434 C21.04578,13.77393,24,12.24481,24,10z M12,13c-6.10547,0-10-1.96973-10-3c0-2.25488,4.43457-8,10-8 c0.0329,0,0.06451,0.00574,0.09735,0.00616C12.04126,2.33478,12,2.66559,12,3c0,3.30859,2.69141,6,6,6 c1.20081,0,2.34509-0.35388,3.3222-1.01013C21.75439,8.76898,22,9.47937,22,10C22,11.05762,18.20312,13,12,13z"></path></g></svg>