<svg id="nc_icon" version="1.1" xmlns="http://www.w3.org/2000/svg" xmlns:xlink="http://www.w3.org/1999/xlink" x="0px" y="0px" viewBox="0 0 24 24" xml:space="preserve" ><g class="nc-icon-wrapper" fill="currentColor"><path fill="currentColor" d="M14,1C9.076,1,4.957,4.52,4.145,9.298C1.705,10.09,0,12.382,0,15c0,3.309,2.691,6,6,6h8 c5.514,0,10-4.486,10-10S19.514,1,14,1z M18,14c0,1.105-0.895,2-2,2s-2-0.895-2-2s0.895-2,2-2V9h-4v6c0,1.105-0.895,2-2,2 s-2-0.895-2-2s0.895-2,2-2V8c0-0.552,0.447-1,1-1h6c0.553,0,1,0.448,1,1V14z"></path></g></svg>