<svg id="nc_icon" version="1.1" xmlns="http://www.w3.org/2000/svg" xmlns:xlink="http://www.w3.org/1999/xlink" x="0px" y="0px" viewBox="0 0 24 24" xml:space="preserve" ><g class="nc-icon-wrapper" fill="currentColor"><rect data-color="color-2" x="6" y="10" fill="currentColor" width="12" height="2"></rect> <rect data-color="color-2" x="6" y="15" fill="currentColor" width="12" height="2"></rect> <path fill="currentColor" d="M22,24H2c-0.553,0-1-0.448-1-1V3c0-0.552,0.447-1,1-1h3v2H3v18h18V4h-2V2h3c0.553,0,1,0.448,1,1v20 C23,23.552,22.553,24,22,24z"></path> <path fill="currentColor" d="M16,0H8C7.447,0,7,0.448,7,1v4c0,0.552,0.447,1,1,1h2c0-1.105,0.895-2,2-2s2,0.895,2,2h2 c0.553,0,1-0.448,1-1V1C17,0.448,16.553,0,16,0z"></path></g></svg>