<svg id="nc_icon" version="1.1" xmlns="http://www.w3.org/2000/svg" xmlns:xlink="http://www.w3.org/1999/xlink" x="0px" y="0px" viewBox="0 0 24 24" xml:space="preserve" ><g class="nc-icon-wrapper" fill="currentColor"><polygon data-color="color-2" fill="currentColor" points="23,19 20,19 20,16 18,16 18,19 15,19 15,21 18,21 18,24 20,24 20,21 23,21 "></polygon> <path fill="currentColor" d="M4,20V4c0-0.552,0.448-1,1-1h12c0.552,0,1,0.448,1,1v10h2V3c0-1.654-1.346-3-3-3H5C3.346,0,2,1.346,2,3v18 c0,1.654,1.346,3,3,3h8v-3H5C4.448,21,4,20.552,4,20z"></path></g></svg>