<svg id="nc_icon" version="1.1" xmlns="http://www.w3.org/2000/svg" xmlns:xlink="http://www.w3.org/1999/xlink" x="0px" y="0px" viewBox="0 0 24 24" xml:space="preserve" ><g class="nc-icon-wrapper" fill="currentColor"><path data-color="color-2" fill="currentColor" d="M9,9c0.6,0,1-0.4,1-1V4c0-0.6-0.4-1-1-1S8,3.4,8,4v4C8,8.6,8.4,9,9,9z"></path> <path data-color="color-2" fill="currentColor" d="M4,12c0.6,0,1-0.4,1-1V7c0-0.6-0.4-1-1-1S3,6.4,3,7v4C3,11.6,3.4,12,4,12z"></path> <path data-color="color-2" fill="currentColor" d="M14,12c0.6,0,1-0.4,1-1V7c0-0.6-0.4-1-1-1s-1,0.4-1,1v4C13,11.6,13.4,12,14,12z"></path> <path fill="currentColor" d="M23,14h-5H1c-0.6,0-1,0.4-1,1v3c0,1.7,1.3,3,3,3h13c1.7,0,3-1.3,3-3v-1h4c0.6,0,1-0.4,1-1v-1 C24,14.4,23.6,14,23,14z"></path></g></svg>