<svg id="nc_icon" version="1.1" xmlns="http://www.w3.org/2000/svg" xmlns:xlink="http://www.w3.org/1999/xlink" x="0px" y="0px" viewBox="0 0 24 24" xml:space="preserve" ><g class="nc-icon-wrapper" fill="currentColor"><path data-color="color-2" fill="currentColor" d="M22.518,9.025L20.241,7.65l-2.3,9.284l4.916-6.537C23.142,9.925,22.99,9.311,22.518,9.025z"></path> <path data-color="color-2" fill="currentColor" d="M18.241,3.25L16,2.694v13.76l2.971-11.993C19.104,3.925,18.777,3.383,18.241,3.25z"></path> <path fill="currentColor" d="M2,16v7c0,0.553,0.448,1,1,1h10c0.552,0,1-0.447,1-1v-7H2z M8,22c-1.103,0-2-0.897-2-2s0.897-2,2-2 s2,0.897,2,2S9.103,22,8,22z"></path> <path fill="currentColor" d="M14,14V1c0-0.553-0.448-1-1-1H3C2.447,0,2,0.447,2,1v13H14z"></path></g></svg>