<svg id="nc_icon" version="1.1" xmlns="http://www.w3.org/2000/svg" xmlns:xlink="http://www.w3.org/1999/xlink" x="0px" y="0px" viewBox="0 0 24 24" xml:space="preserve" ><g class="nc-icon-wrapper" fill="currentColor"><path fill="currentColor" d="M7,20.5c0,1.193-1.194,1.447-1.54,1.496C4.651,21.974,4,21.313,4,20.5V2h9V0H3C2.448,0,2,0.448,2,1v19.5 C2,22.43,3.57,24,5.5,24h15c1.93,0,3.5-1.57,3.5-3.5V19H7V20.5z"></path> <path data-color="color-2" fill="currentColor" d="M19,12c-1.487,0-2.865-0.47-4-1.264V17l4-3l4,3v-6.264C21.865,11.53,20.487,12,19,12z"></path> <circle data-color="color-2" fill="currentColor" cx="19" cy="5" r="5"></circle></g></svg>