<svg id="nc_icon" version="1.1" xmlns="http://www.w3.org/2000/svg" xmlns:xlink="http://www.w3.org/1999/xlink" x="0px" y="0px" viewBox="0 0 24 24" xml:space="preserve" ><g class="nc-icon-wrapper" fill="currentColor"><path data-color="color-2" fill="currentColor" d="M1.756,12.829l-0.879,0.879c-1.17,1.169-1.17,3.073,0,4.242l5.172,5.172 C6.616,23.688,7.369,24,8.17,24s1.555-0.312,2.121-0.878l0.879-0.879L1.756,12.829z"></path> <path data-color="color-2" fill="currentColor" d="M23.123,6.021L17.951,0.85c-1.133-1.133-3.109-1.133-4.242,0L12.83,1.729l9.414,9.414 l0.879-0.879C24.292,9.094,24.292,7.191,23.123,6.021z"></path> <path fill="currentColor" d="M11.429,3.157l-8.258,8.258l9.414,9.414l8.258-8.258L11.429,3.157z M9,13c-0.552,0-1-0.448-1-1 c0-0.552,0.448-1,1-1s1,0.448,1,1C10,12.552,9.552,13,9,13z M12,16c-0.552,0-1-0.448-1-1c0-0.552,0.448-1,1-1s1,0.448,1,1 C13,15.552,12.552,16,12,16z M12,10c-0.552,0-1-0.448-1-1c0-0.552,0.448-1,1-1s1,0.448,1,1C13,9.552,12.552,10,12,10z M15,13 c-0.552,0-1-0.448-1-1c0-0.552,0.448-1,1-1s1,0.448,1,1C16,12.552,15.552,13,15,13z"></path></g></svg>