<svg id="nc_icon" version="1.1" xmlns="http://www.w3.org/2000/svg" xmlns:xlink="http://www.w3.org/1999/xlink" x="0px" y="0px" viewBox="0 0 24 24" xml:space="preserve" ><g class="nc-icon-wrapper" fill="currentColor"><path fill="currentColor" d="M23,5H6V2c0-0.553-0.448-1-1-1H1C0.448,1,0,1.447,0,2s0.448,1,1,1h3v19c0,0.553,0.448,1,1,1s1-0.447,1-1v-4 h17c0.552,0,1-0.447,1-1V6C24,5.447,23.552,5,23,5z"></path> <path data-color="color-2" fill="currentColor" d="M22,20h-9c-0.552,0-1,0.447-1,1s0.448,1,1,1h9c0.552,0,1-0.447,1-1S22.552,20,22,20z"></path></g></svg>