<svg id="nc_icon" version="1.1" xmlns="http://www.w3.org/2000/svg" xmlns:xlink="http://www.w3.org/1999/xlink" x="0px" y="0px" viewBox="0 0 24 24" xml:space="preserve" ><g class="nc-icon-wrapper" fill="currentColor"><path data-color="color-2" fill="currentColor" d="M20,1H4C1.791,1,0,2.791,0,5v3h7V5h10v3h7V5C24,2.791,22.209,1,20,1z"></path> <path fill="currentColor" d="M22.759,17.35l-6-7C16.569,10.128,16.292,10,16,10H8c-0.292,0-0.569,0.128-0.759,0.35l-6,7 C1.085,17.53,1,17.762,1,18v5c0,0.553,0.447,1,1,1h20c0.553,0,1-0.447,1-1v-5C23,17.762,22.915,17.53,22.759,17.35z M12,20 c-1.657,0-3-1.343-3-3s1.343-3,3-3s3,1.343,3,3S13.657,20,12,20z"></path></g></svg>