<svg id="nc_icon" version="1.1" xmlns="http://www.w3.org/2000/svg" xmlns:xlink="http://www.w3.org/1999/xlink" x="0px" y="0px" viewBox="0 0 24 24" xml:space="preserve" ><g class="nc-icon-wrapper" fill="currentColor"><path fill="currentColor" d="M16.293,14.293L13,17.586L6.414,11l3.293-3.293c0.391-0.391,0.391-1.024,0-1.414l-5-5 c-0.391-0.391-1.024-0.391-1.414,0L0,4.586C0,15.653,8.345,24,19.414,24l3.293-3.293c0.391-0.391,0.391-1.024,0-1.414l-5-5 C17.317,13.903,16.684,13.903,16.293,14.293z"></path> <path data-color="color-2" fill="currentColor" d="M24,10h-2c0-4.411-3.589-8-8-8V0C19.514,0,24,4.486,24,10z"></path> <path data-color="color-2" fill="currentColor" d="M20,10h-2c0-2.206-1.794-4-4-4V4C17.309,4,20,6.691,20,10z"></path></g></svg>