<svg id="nc_icon" version="1.1" xmlns="http://www.w3.org/2000/svg" xmlns:xlink="http://www.w3.org/1999/xlink" x="0px" y="0px" viewBox="0 0 24 24" xml:space="preserve" ><g class="nc-icon-wrapper" fill="currentColor"><path fill="currentColor" d="M23,1h-4c0-0.552-0.447-1-1-1h-4c-0.553,0-1,0.448-1,1h-2c0-0.552-0.447-1-1-1H6C5.447,0,5,0.448,5,1H1 C0.447,1,0,1.448,0,2v21c0,0.552,0.447,1,1,1h7h8h7c0.553,0,1-0.448,1-1V2C24,1.448,23.553,1,23,1z M2,3h3v11c0,0.552,0.447,1,1,1h1 v7H2V3z M9,15h1c0.553,0,1-0.448,1-1V3h2v11c0,0.552,0.447,1,1,1h1v7H9V15z M22,22h-5v-7h1c0.553,0,1-0.448,1-1V3h3V22z"></path></g></svg>