<svg id="nc_icon" version="1.1" xmlns="http://www.w3.org/2000/svg" xmlns:xlink="http://www.w3.org/1999/xlink" x="0px" y="0px" viewBox="0 0 24 24" xml:space="preserve" ><g class="nc-icon-wrapper" fill="currentColor"><path data-color="color-2" fill="currentColor" d="M13,1c0-0.6-0.4-1-1-1H8C7.4,0,7,0.4,7,1v2h6V1z"></path> <path data-color="color-2" fill="currentColor" d="M7,21c0,1.7,1.3,3,3,3c1.7,0,3-1.3,3-3v-7H7V21z"></path> <path fill="currentColor" d="M17,5H2C1.4,5,1,5.4,1,6v5c0,0.6,0.4,1,1,1h20c0.6,0,1-0.4,1-1C23,7.7,20.3,5,17,5z"></path></g></svg>