<svg id="nc_icon" version="1.1" xmlns="http://www.w3.org/2000/svg" xmlns:xlink="http://www.w3.org/1999/xlink" x="0px" y="0px" viewBox="0 0 24 24" xml:space="preserve" ><g class="nc-icon-wrapper" fill="currentColor"><path fill="currentColor" d="M23,0H1C0.448,0,0,0.448,0,1v22c0,0.552,0.448,1,1,1h22c0.552,0,1-0.448,1-1V1C24,0.448,23.552,0,23,0z M11,6c1.105,0,2,0.895,2,2c0,1.105-0.895,2-2,2c-1.105,0-2-0.895-2-2C9,6.895,9.895,6,11,6z M13.707,18.707 C13.513,18.901,13.257,19,13,19c-0.22,0-0.441-0.072-0.624-0.219L8.074,15.34L5,18.414L3.586,17l3.707-3.707 c0.359-0.36,0.934-0.393,1.332-0.074l4.301,3.441L19,10.586L20.414,12L13.707,18.707z"></path></g></svg>