<svg id="nc_icon" version="1.1" xmlns="http://www.w3.org/2000/svg" xmlns:xlink="http://www.w3.org/1999/xlink" x="0px" y="0px" viewBox="0 0 24 24" xml:space="preserve" ><g class="nc-icon-wrapper" fill="currentColor"><path fill="currentColor" d="M20.5,3.5c-1.3-1.3-3.1-2-4.9-2s-3.6,0.7-4.9,2l-7.1,7.1c-2.7,2.7-2.7,7.2,0,9.9c1.3,1.3,3.1,2,4.9,2 s3.6-0.7,4.9-2l7.1-7.1C23.2,10.7,23.2,6.2,20.5,3.5z M12,19.1c-0.9,0.9-2.2,1.5-3.5,1.5S5.9,20,4.9,19.1C3,17.1,3,13.9,4.9,12 l2.8-2.8l7.1,7.1L12,19.1z"></path></g></svg>