<svg id="nc_icon" version="1.1" xmlns="http://www.w3.org/2000/svg" xmlns:xlink="http://www.w3.org/1999/xlink" x="0px" y="0px" viewBox="0 0 24 24" xml:space="preserve" ><g class="nc-icon-wrapper" fill="currentColor"><path fill="currentColor" d="M12,19c0-3.637,2.775-6.625,6.323-6.966C18.74,10.975,19,9.942,19,9c0-5.634-4.576-9-9-9S1,3.366,1,9 c0,5.289,7.952,13.363,8.29,13.705C9.478,22.894,9.733,23,10,23s0.522-0.106,0.71-0.295c0.089-0.09,0.717-0.731,1.583-1.707 C12.105,20.364,12,19.695,12,19z M10,12c-1.657,0-3-1.343-3-3s1.343-3,3-3s3,1.343,3,3S11.657,12,10,12z"></path> <polygon data-color="color-2" fill="currentColor" points="19,13.489 20.545,16.62 24,17.122 21.5,19.559 22.09,23 19,21.375 15.91,23 16.5,19.559 14,17.122 17.455,16.62 "></polygon></g></svg>