<svg id="nc_icon" version="1.1" xmlns="http://www.w3.org/2000/svg" xmlns:xlink="http://www.w3.org/1999/xlink" x="0px" y="0px" viewBox="0 0 24 24" xml:space="preserve" ><g class="nc-icon-wrapper" fill="currentColor"><path fill="currentColor" d="M12,17.155c0-1.384,0.544-2.684,1.532-3.659C14.507,12.532,15.805,12,17.185,12 c0.169,0,0.339,0.008,0.51,0.024c0.201,0.02,0.399,0.056,0.596,0.098C18.729,11.032,19,9.969,19,9c0-5.634-4.576-9-9-9S1,3.366,1,9 c0,5.289,7.952,13.363,8.29,13.705C9.478,22.894,9.733,23,10,23s0.522-0.106,0.71-0.295c0.112-0.113,1.071-1.091,2.293-2.526 C12.361,19.304,12,18.261,12,17.155z M10,12c-1.657,0-3-1.343-3-3s1.343-3,3-3s3,1.343,3,3S11.657,12,10,12z"></path> <path data-color="color-2" fill="currentColor" d="M23.063,14.92c-0.678-0.67-1.611-0.998-2.566-0.904c-0.546,0.055-1.06,0.246-1.498,0.549 c-0.438-0.303-0.951-0.494-1.498-0.549c-0.953-0.092-1.888,0.234-2.566,0.904C14.333,15.516,14,16.31,14,17.155 s0.333,1.639,0.936,2.235L19,23.405l4.064-4.015C23.667,18.794,24,18,24,17.155S23.667,15.516,23.063,14.92z"></path></g></svg>