<svg id="nc_icon" version="1.1" xmlns="http://www.w3.org/2000/svg" xmlns:xlink="http://www.w3.org/1999/xlink" x="0px" y="0px" viewBox="0 0 24 24" xml:space="preserve" ><g class="nc-icon-wrapper" fill="currentColor"><circle data-color="color-2" fill="currentColor" cx="20" cy="15" r="3"></circle> <path fill="currentColor" d="M15,15c0-2.7568359,2.2431641-5,5-5c0.7007446,0,1.3667603,0.147522,1.9727173,0.4089966 c0.7219238-2.4694824,0.1116943-4.9459229-1.6620483-6.7196655c-2.7336426-2.7336426-7.1300049-2.7695312-10.6066284,0.7070923 c-2.8436279,2.843689-3.3349609,6.2045898-1.9975586,8.8340454l-5.6324463,4.6083374 c-0.4579468,0.3746948-0.4922485,1.0627441-0.0739136,1.4810791l2.6799316,2.6799927 c0.418335,0.418335,1.1064453,0.3840332,1.4811401-0.0739136l4.6083374-5.6324463 c1.3844604,0.7041626,2.9716797,0.8925781,4.5791626,0.5065308C15.1309814,16.2398071,15,15.6362305,15,15z"></path></g></svg>