<svg id="nc_icon" version="1.1" xmlns="http://www.w3.org/2000/svg" xmlns:xlink="http://www.w3.org/1999/xlink" x="0px" y="0px" viewBox="0 0 24 24" xml:space="preserve" ><g class="nc-icon-wrapper" fill="currentColor"><path fill="currentColor" d="M5,0C2.542,0,0,1.87,0,5c0,2.838,3.894,6.358,4.338,6.75L5,12.334l0.662-0.584C6.106,11.358,10,7.838,10,5 C10,1.87,7.458,0,5,0z M5,6C4.448,6,4,5.552,4,5c0-0.552,0.448-1,1-1s1,0.448,1,1C6,5.552,5.552,6,5,6z"></path> <path fill="currentColor" d="M19,0c-2.458,0-5,1.87-5,5c0,2.838,3.894,6.358,4.338,6.75L19,12.334l0.662-0.584 C20.106,11.358,24,7.838,24,5C24,1.87,21.458,0,19,0z M19,6c-0.552,0-1-0.448-1-1c0-0.552,0.448-1,1-1s1,0.448,1,1 C20,5.552,19.552,6,19,6z"></path> <path data-color="color-2" fill="currentColor" d="M12,11c-2.458,0-5,1.87-5,5c0,2.838,3.894,6.358,4.338,6.75L12,23.334l0.662-0.584 C13.106,22.358,17,18.838,17,16C17,12.87,14.458,11,12,11z M12,17c-0.552,0-1-0.448-1-1c0-0.552,0.448-1,1-1s1,0.448,1,1 C13,16.552,12.552,17,12,17z"></path></g></svg>