<svg id="nc_icon" version="1.1" xmlns="http://www.w3.org/2000/svg" xmlns:xlink="http://www.w3.org/1999/xlink" x="0px" y="0px" viewBox="0 0 24 24" xml:space="preserve" ><g class="nc-icon-wrapper" fill="currentColor"><path fill="currentColor" d="M6.3,11.3C6.1,10.9,6,10.5,6,10V9c0-1.7,1.3-3,3-3h2c0.5,0,0.9,0.1,1.3,0.3l5-5C15.7,0.5,13.9,0,12,0 C5.4,0,0,5.4,0,12c0,1.6,0.3,3.2,0.9,4.6L6.3,11.3z"></path> <path fill="currentColor" d="M19.1,2.3l-5.4,5.4C13.9,8.1,14,8.5,14,9v1c0,1.7-1.3,3-3,3H9c-0.5,0-0.9-0.1-1.3-0.3l-5.8,5.8 C4.1,21.8,7.8,24,12,24c6.6,0,12-5.4,12-12C24,8,22.1,4.5,19.1,2.3z M17.8,16.6C15.6,20,12.1,20,12,20h-1v-2h1 c0.1,0,2.5-0.1,4.2-2.6l0.6-0.8l1.7,1.1L17.8,16.6z"></path></g></svg>