<svg id="nc_icon" version="1.1" xmlns="http://www.w3.org/2000/svg" xmlns:xlink="http://www.w3.org/1999/xlink" x="0px" y="0px" viewBox="0 0 24 24" xml:space="preserve" ><g class="nc-icon-wrapper" fill="currentColor"><path fill="currentColor" d="M22.1,20.5l-9.2-18c-0.3-0.7-1.4-0.7-1.8,0l-9.2,18c-0.1,0.2-0.1,0.5-0.1,0.8c0.1,0.3,0.3,0.5,0.5,0.6 c3,1.4,6.2,2.1,9.6,2.1s6.6-0.7,9.6-2.1c0.2-0.1,0.4-0.3,0.5-0.6C22.2,21.1,22.2,20.8,22.1,20.5z M15,14c0.6,0,1,0.4,1,1v1 c0,0.6-0.4,1-1,1s-1-0.4-1-1v-1C14,14.4,14.4,14,15,14z M11.3,8.3c0.4-0.4,1-0.4,1.4,0l1,1c0.4,0.4,0.4,1,0,1.4 C13.5,10.9,13.3,11,13,11s-0.5-0.1-0.7-0.3l-1-1C10.9,9.3,10.9,8.7,11.3,8.3z M8.3,14.3l1-1c0.4-0.4,1-0.4,1.4,0s0.4,1,0,1.4l-1,1 C9.5,15.9,9.3,16,9,16s-0.5-0.1-0.7-0.3C7.9,15.3,7.9,14.7,8.3,14.3z M4.2,20.5l0.9-1.8C7.3,19.6,9.6,20,12,20s4.7-0.4,6.9-1.2 l0.9,1.8C14.8,22.5,9.2,22.5,4.2,20.5z"></path></g></svg>