<svg id="nc_icon" version="1.1" xmlns="http://www.w3.org/2000/svg" xmlns:xlink="http://www.w3.org/1999/xlink" x="0px" y="0px" viewBox="0 0 24 24" xml:space="preserve" ><g class="nc-icon-wrapper" fill="currentColor"><path fill="currentColor" d="M12,0C5.4,0,0,5.4,0,12s5.4,12,12,12c0.6,0,1-0.4,1-1V13h10c0.6,0,1-0.4,1-1C24,5.4,18.6,0,12,0z M11,22 c-4.7-0.5-8.5-4.2-8.9-9h2c0.5,3.6,3.3,6.5,6.9,6.9V22z M8,9c0-0.6,0.4-1,1-1s1,0.4,1,1c0,0.6-0.4,1-1,1S8,9.6,8,9z M10,15 c-0.6,0-1-0.4-1-1c0-0.6,0.4-1,1-1s1,0.4,1,1C11,14.6,10.6,15,10,15z M11,4.1C7.4,4.5,4.5,7.4,4.1,11h-2C2.5,6.3,6.3,2.5,11,2.1V4.1 z M15,9c-0.6,0-1-0.4-1-1c0-0.6,0.4-1,1-1s1,0.4,1,1C16,8.6,15.6,9,15,9z M19.9,11c-0.5-3.6-3.3-6.5-6.9-6.9v-2 c4.7,0.5,8.5,4.2,9,8.9H19.9z"></path></g></svg>