<svg id="nc_icon" version="1.1" xmlns="http://www.w3.org/2000/svg" xmlns:xlink="http://www.w3.org/1999/xlink" x="0px" y="0px" viewBox="0 0 24 24" xml:space="preserve" ><g class="nc-icon-wrapper" fill="currentColor"><path fill="currentColor" d="M22.9,3.565c-0.122-0.253-0.344-0.442-0.613-0.523l-10-3c-0.188-0.057-0.387-0.057-0.574,0l-10,3 C1.443,3.123,1.222,3.312,1.1,3.565S0.967,4.11,1.071,4.371L3,9.193V15c0,4.963,4.037,9,9,9s9-4.037,9-9V9.193l1.929-4.822 C23.033,4.11,23.022,3.818,22.9,3.565z M12,5c1.105,0,2,0.895,2,2c0,1.105-0.895,2-2,2s-2-0.895-2-2C10,5.895,10.895,5,12,5z M19,15 c0,3.859-3.141,7-7,7s-7-3.141-7-7v-2h14V15z"></path></g></svg>