<svg id="nc_icon" version="1.1" xmlns="http://www.w3.org/2000/svg" xmlns:xlink="http://www.w3.org/1999/xlink" x="0px" y="0px" viewBox="0 0 24 24" xml:space="preserve" ><g class="nc-icon-wrapper" fill="currentColor"><path data-color="color-2" fill="currentColor" d="M18.352,16.539c-0.462,0.635-0.929,1.237-1.387,1.795c2.968,0.429,4.746,1.175,5.021,1.665 c-0.404,0.722-4.061,2-9.986,2c-6.043,0-9.727-1.33-10.006-1.958c0.191-0.489,1.984-1.267,5.039-1.708 c-0.457-0.558-0.924-1.16-1.386-1.795C2.601,17.095,0,18.147,0,20c0,3.158,7.543,4,12,4s12-0.842,12-4 C24,18.147,21.399,17.095,18.352,16.539z"></path> <path fill="currentColor" d="M12,0C8.067,0,4,2.992,4,8c0,4.6,6.544,11.327,7.29,12.08c0.188,0.189,0.443,0.295,0.71,0.295 s0.522-0.106,0.71-0.295C13.456,19.327,20,12.6,20,8C20,2.992,15.933,0,12,0z M12,10c-1.105,0-2-0.895-2-2s0.895-2,2-2s2,0.895,2,2 S13.105,10,12,10z"></path></g></svg>