<svg id="nc_icon" version="1.1" xmlns="http://www.w3.org/2000/svg" xmlns:xlink="http://www.w3.org/1999/xlink" x="0px" y="0px" viewBox="0 0 24 24" xml:space="preserve" ><g class="nc-icon-wrapper" fill="currentColor"><path fill="currentColor" d="M15.814,10.413C14.447,10.139,13.164,10,12,10s-2.447,0.139-3.813,0.413C6.34,10.781,5,12.429,5,14.33V19h14 v-4.67C19,12.429,17.66,10.781,15.814,10.413z"></path> <circle fill="currentColor" cx="12" cy="4" r="4"></circle> <path data-color="color-2" fill="currentColor" d="M21,16.214v2.14c0.691,0.303,0.968,0.55,1.006,0.603C21.727,19.67,18.043,21,12,21 s-9.727-1.33-10.006-1.958C2.032,18.945,2.309,18.677,3,18.364v-2.15C1.337,16.799,0,17.678,0,19c0,3.158,7.543,4,12,4 s12-0.842,12-4C24,17.678,22.663,16.799,21,16.214z"></path></g></svg>