<svg id="nc_icon" version="1.1" xmlns="http://www.w3.org/2000/svg" xmlns:xlink="http://www.w3.org/1999/xlink" x="0px" y="0px" viewBox="0 0 24 24" xml:space="preserve" ><g class="nc-icon-wrapper" fill="currentColor"><path fill="currentColor" d="M23,3H13v2h10c0.552,0,1-0.448,1-1S23.552,3,23,3z"></path> <path fill="currentColor" d="M1,5h2.142c0.447,1.72,2,3,3.858,3c2.206,0,4-1.794,4-4S9.206,0,7,0C5.142,0,3.589,1.28,3.142,3H1 C0.448,3,0,3.448,0,4S0.448,5,1,5z"></path> <path data-color="color-2" fill="currentColor" d="M23,11h-2v2h2c0.552,0,1-0.448,1-1S23.552,11,23,11z"></path> <path data-color="color-2" fill="currentColor" d="M1,13h10.142c0.447,1.72,2,3,3.858,3c2.206,0,4-1.794,4-4s-1.794-4-4-4 c-1.858,0-3.411,1.28-3.858,3H1c-0.552,0-1,0.448-1,1S0.448,13,1,13z"></path> <path fill="currentColor" d="M23,19H13v2h10c0.552,0,1-0.448,1-1S23.552,19,23,19z"></path> <path fill="currentColor" d="M7,16c-1.858,0-3.411,1.28-3.858,3H1c-0.552,0-1,0.448-1,1s0.448,1,1,1h2.142c0.447,1.72,2,3,3.858,3 c2.206,0,4-1.794,4-4S9.206,16,7,16z"></path></g></svg>