<svg id="nc_icon" version="1.1" xmlns="http://www.w3.org/2000/svg" xmlns:xlink="http://www.w3.org/1999/xlink" x="0px" y="0px" viewBox="0 0 24 24" xml:space="preserve" ><g class="nc-icon-wrapper" fill="currentColor"><path fill="currentColor" d="M23,0H1C0.447,0,0,0.448,0,1v22c0,0.552,0.447,1,1,1h22c0.553,0,1-0.448,1-1V1C24,0.448,23.553,0,23,0z M3,7 h2V6c0-0.552,0.448-1,1-1h3c0.552,0,1,0.448,1,1v4c0,0.552-0.448,1-1,1H6c-0.552,0-1-0.448-1-1V9H3V7z M12,17H3v-2h9V17z M21,17h-2 v1c0,0.552-0.448,1-1,1h-3c-0.552,0-1-0.448-1-1v-4c0-0.552,0.448-1,1-1h3c0.552,0,1,0.448,1,1v1h2V17z M21,9h-9V7h9V9z"></path></g></svg>