<svg id="nc_icon" version="1.1" xmlns="http://www.w3.org/2000/svg" xmlns:xlink="http://www.w3.org/1999/xlink" x="0px" y="0px" viewBox="0 0 24 24" xml:space="preserve" ><g class="nc-icon-wrapper" fill="currentColor"><path fill="currentColor" d="M23,0H1C0.447,0,0,0.448,0,1v22c0,0.552,0.447,1,1,1h22c0.553,0,1-0.448,1-1V1C24,0.448,23.553,0,23,0z M7,3 h2v9H7V3z M11,18c0,0.552-0.448,1-1,1H9v2H7v-2H6c-0.552,0-1-0.448-1-1v-3c0-0.552,0.448-1,1-1h4c0.552,0,1,0.448,1,1V18z M17,21h-2 v-9h2V21z M19,9c0,0.552-0.448,1-1,1h-4c-0.552,0-1-0.448-1-1V6c0-0.552,0.448-1,1-1h1V3h2v2h1c0.552,0,1,0.448,1,1V9z"></path></g></svg>