<svg id="nc_icon" version="1.1" xmlns="http://www.w3.org/2000/svg" xmlns:xlink="http://www.w3.org/1999/xlink" x="0px" y="0px" viewBox="0 0 24 24" xml:space="preserve" ><g class="nc-icon-wrapper" fill="currentColor"><path fill="currentColor" d="M23,0H1C0.447,0,0,0.448,0,1v22c0,0.552,0.447,1,1,1h22c0.553,0,1-0.448,1-1V1C24,0.448,23.553,0,23,0z M7,3 h2v8H7V3z M9,18.816V21H7v-2.184C5.837,18.403,5,17.304,5,16c0-1.657,1.343-3,3-3s3,1.343,3,3C11,17.304,10.163,18.403,9,18.816z M17,21h-2v-8h2V21z M16,11c-1.657,0-3-1.343-3-3c0-1.304,0.837-2.403,2-2.816V3h2v2.184C18.163,5.597,19,6.696,19,8 C19,9.657,17.657,11,16,11z"></path></g></svg>