<svg id="nc_icon" version="1.1" xmlns="http://www.w3.org/2000/svg" xmlns:xlink="http://www.w3.org/1999/xlink" x="0px" y="0px" viewBox="0 0 24 24" xml:space="preserve" ><g class="nc-icon-wrapper" fill="currentColor"><path fill="currentColor" d="M23,0H1C0.4,0,0,0.4,0,1v22c0,0.6,0.4,1,1,1h22c0.6,0,1-0.4,1-1V1C24,0.4,23.6,0,23,0z M19.7,9.7l-4,4 c-0.4,0.4-0.9,0.4-1.3,0.1l-4.2-3.4l-4.4,5.2C5.6,15.9,5.3,16,5,16c-0.2,0-0.5-0.1-0.6-0.2c-0.4-0.4-0.5-1-0.1-1.4l5-6 c0.3-0.4,1-0.5,1.4-0.1l4.3,3.4l3.4-3.4c0.4-0.4,1-0.4,1.4,0S20.1,9.3,19.7,9.7z"></path></g></svg>