<svg id="nc_icon" version="1.1" xmlns="http://www.w3.org/2000/svg" xmlns:xlink="http://www.w3.org/1999/xlink" x="0px" y="0px" viewBox="0 0 24 24" xml:space="preserve" ><g class="nc-icon-wrapper" fill="currentColor"><path fill="currentColor" d="M23.433,3.099c-0.346-0.167-0.758-0.12-1.058,0.12L13,10.719V4c0-0.385-0.22-0.734-0.567-0.901 c-0.346-0.167-0.757-0.12-1.058,0.12l-10,8C1.138,11.409,1,11.696,1,12s0.138,0.591,0.375,0.781l10,8C11.556,20.926,11.777,21,12,21 c0.147,0,0.295-0.032,0.433-0.099C12.78,20.734,13,20.385,13,20v-6.719l9.375,7.5C22.556,20.926,22.777,21,23,21 c0.147,0,0.295-0.032,0.433-0.099C23.78,20.734,24,20.385,24,20V4C24,3.615,23.78,3.266,23.433,3.099z"></path></g></svg>