<svg id="nc_icon" version="1.1" xmlns="http://www.w3.org/2000/svg" xmlns:xlink="http://www.w3.org/1999/xlink" x="0px" y="0px" viewBox="0 0 24 24" xml:space="preserve" ><g class="nc-icon-wrapper" fill="currentColor"><path fill="currentColor" d="M20,8V3c0-0.6-0.4-1-1-1h-3c-0.6,0-1,0.4-1,1c0,1.7-1.3,3-3,3S9,4.7,9,3c0-0.6-0.4-1-1-1H5C4.4,2,4,2.4,4,3 v5c-2.2,0-4,1.8-4,4s1.8,4,4,4v5c0,0.6,0.4,1,1,1h3c0.6,0,1-0.4,1-1c0-1.7,1.3-3,3-3s3,1.3,3,3c0,0.6,0.4,1,1,1h3c0.6,0,1-0.4,1-1 v-5c2.2,0,4-1.8,4-4S22.2,8,20,8z"></path></g></svg>