<svg id="nc_icon" version="1.1" xmlns="http://www.w3.org/2000/svg" xmlns:xlink="http://www.w3.org/1999/xlink" x="0px" y="0px" viewBox="0 0 24 24" xml:space="preserve" ><g class="nc-icon-wrapper" fill="currentColor"><path data-color="color-2" fill="currentColor" d="M20.5,17c-1.9,0-3.5,1.6-3.5,3.5s1.6,3.5,3.5,3.5c1.9,0,3.5-1.6,3.5-3.5S22.4,17,20.5,17z"></path> <path fill="currentColor" d="M16,8c0-4.4-3.6-8-8-8C3.6,0,0,3.6,0,8v3h16V8z"></path> <path fill="currentColor" d="M16,13H0v3c0,0.6,0.4,1,1,1h4v6c0,0.6,0.4,1,1,1h4c0.6,0,1-0.4,1-1v-6h4c0.6,0,1-0.4,1-1V13z"></path></g></svg>