<svg id="nc_icon" version="1.1" xmlns="http://www.w3.org/2000/svg" xmlns:xlink="http://www.w3.org/1999/xlink" x="0px" y="0px" viewBox="0 0 24 24" xml:space="preserve" ><g class="nc-icon-wrapper" fill="currentColor"><path fill="currentColor" d="M17.536,16.95l-1.414-1.414l0.707-0.707c1.56-1.56,1.56-4.098,0-5.657l-0.707-0.707l1.414-1.414l0.707,0.707 c2.339,2.339,2.339,6.146,0,8.485L17.536,16.95z"></path> <path fill="currentColor" d="M20.364,19.778l-1.414-1.414l0.707-0.707c3.119-3.119,3.119-8.194,0-11.313L18.95,5.636l1.414-1.414 l0.707,0.707c3.899,3.899,3.899,10.243,0,14.142L20.364,19.778z"></path> <path fill="currentColor" d="M6.464,16.95l-0.707-0.707c-2.339-2.339-2.339-6.146,0-8.485L6.464,7.05l1.414,1.414L7.171,9.171 c-1.56,1.56-1.56,4.098,0,5.657l0.707,0.707L6.464,16.95z"></path> <path fill="currentColor" d="M3.636,19.778l-0.707-0.707c-3.899-3.899-3.899-10.243,0-14.142l0.707-0.707L5.05,5.636L4.343,6.343 c-3.119,3.119-3.119,8.194,0,11.313l0.707,0.707L3.636,19.778z"></path> <path data-color="color-2" fill="currentColor" d="M12,15c-1.654,0-3-1.346-3-3s1.346-3,3-3s3,1.346,3,3S13.654,15,12,15z"></path></g></svg>