<svg id="nc_icon" version="1.1" xmlns="http://www.w3.org/2000/svg" xmlns:xlink="http://www.w3.org/1999/xlink" x="0px" y="0px" viewBox="0 0 24 24" xml:space="preserve" ><g class="nc-icon-wrapper" fill="currentColor"><circle data-color="color-2" fill="currentColor" cx="12" cy="12" r="3"></circle> <path fill="currentColor" d="M21.52631,6.5c-1.07062-1.85431-2.65375-3.34601-4.54236-4.30609l-3.02228,5.20911 C15.74585,8.16748,17,9.93945,17,12c0,0.20514-0.03644,0.40027-0.06055,0.599l6.04498-0.01483 C23.09674,10.46954,22.5965,8.35364,21.52631,6.5z"></path> <path fill="currentColor" d="M7,12c0-2.06055,1.25415-3.83252,3.03833-4.59698L7.01605,2.19391 C5.12744,3.15399,3.54431,4.64569,2.47369,6.5c-1.07019,1.85364-1.57043,3.96954-1.45813,6.08417L7.06055,12.599 C7.03644,12.40027,7,12.20514,7,12z"></path> <path fill="currentColor" d="M12,17c-1.12561,0-2.15411-0.38776-2.99078-1.01794l-3.00739,5.23859C7.77704,22.37524,9.85956,23,12,23 c2.14117,0,4.22455-0.62518,6.00031-1.78076l-3.00903-5.23761C14.15454,16.61206,13.12585,17,12,17z"></path></g></svg>