<svg id="nc_icon" version="1.1" xmlns="http://www.w3.org/2000/svg" xmlns:xlink="http://www.w3.org/1999/xlink" x="0px" y="0px" viewBox="0 0 24 24" xml:space="preserve" ><g class="nc-icon-wrapper" fill="currentColor"><path fill="currentColor" d="M24,6V5c0-2.757-2.243-5-5-5H5C2.243,0,0,2.243,0,5v1c1.105,0,2,0.895,2,2c0,1.105-0.895,2-2,2v5 c1.105,0,2,0.895,2,2c0,1.105-0.895,2-2,2c0,2.757,2.243,5,5,5h14c2.757,0,5-2.243,5-5c-1.105,0-2-0.895-2-2c0-1.105,0.895-2,2-2v-5 c-1.105,0-2-0.895-2-2C22,6.895,22.895,6,24,6z M11,17c0,0.552-0.447,1-1,1H7c-0.553,0-1-0.448-1-1v-3c0-0.552,0.447-1,1-1h3 c0.553,0,1,0.448,1,1V17z M11,10c0,0.552-0.447,1-1,1H7c-0.553,0-1-0.448-1-1V7c0-0.552,0.447-1,1-1h3c0.553,0,1,0.448,1,1V10z M18,17c0,0.552-0.447,1-1,1h-3c-0.553,0-1-0.448-1-1v-3c0-0.552,0.447-1,1-1h3c0.553,0,1,0.448,1,1V17z M18,10c0,0.552-0.447,1-1,1 h-3c-0.553,0-1-0.448-1-1V7c0-0.552,0.447-1,1-1h3c0.553,0,1,0.448,1,1V10z"></path></g></svg>