<svg id="nc_icon" version="1.1" xmlns="http://www.w3.org/2000/svg" xmlns:xlink="http://www.w3.org/1999/xlink" x="0px" y="0px" viewBox="0 0 24 24" xml:space="preserve" ><g class="nc-icon-wrapper" fill="currentColor"><path fill="currentColor" d="M12.551,14.523v1.945c0.708-0.12,1.062-0.427,1.062-0.922C13.613,15.019,13.033,14.744,12.551,14.523z"></path> <path fill="currentColor" d="M10.473,10.805c0,0.552,0.499,0.799,1.008,1.023V9.992C10.809,10.091,10.473,10.362,10.473,10.805z"></path> <path fill="currentColor" d="M18,3l-3-3l-3,3L9,0L6,3L2,0v23c0,0.553,0.448,1,1,1h18c0.552,0,1-0.447,1-1V0L18,3z M12.551,18.328v1.602 h-1.07v-1.57c-1.271-0.026-2.386-0.25-3.344-0.672v-2.062c0.9,0.445,2.328,0.835,3.344,0.898v-2.422 c-1.789-0.694-3.359-1.367-3.359-3.297c0-1.753,1.608-2.577,3.359-2.75V6.859h1.07v1.164c1.192,0.052,2.271,0.292,3.234,0.719 l-0.734,1.828c-0.812-0.333-1.646-0.536-2.5-0.609v2.305c1.898,0.73,3.414,1.395,3.414,3.164 C15.965,17.295,14.416,18.157,12.551,18.328z"></path></g></svg>