<svg id="nc_icon" version="1.1" xmlns="http://www.w3.org/2000/svg" xmlns:xlink="http://www.w3.org/1999/xlink" x="0px" y="0px" viewBox="0 0 24 24" xml:space="preserve" ><g class="nc-icon-wrapper" fill="currentColor"><path data-color="color-2" fill="currentColor" d="M23,8h-2V7c0-2.206-1.794-4-4-4h-1V1h1c3.309,0,6,2.691,6,6V8z"></path> <path data-color="color-2" fill="currentColor" d="M8,23H7c-3.309,0-6-2.691-6-6v-1h2v1c0,2.206,1.794,4,4,4h1V23z"></path> <path fill="currentColor" d="M8,10c0-1.105,0.895-2,2-2h4V3c0-0.552-0.448-1-1-1H7.414L5.707,0.293C5.519,0.105,5.265,0,5,0H1 C0.448,0,0,0.448,0,1v12c0,0.552,0.448,1,1,1h7V10z"></path> <path fill="currentColor" d="M23,12h-5.586l-1.707-1.707C15.52,10.105,15.266,10,15,10h-4c-0.553,0-1,0.448-1,1v12c0,0.552,0.447,1,1,1 h12c0.553,0,1-0.448,1-1V13C24,12.448,23.553,12,23,12z"></path></g></svg>