<svg id="nc_icon" version="1.1" xmlns="http://www.w3.org/2000/svg" xmlns:xlink="http://www.w3.org/1999/xlink" x="0px" y="0px" viewBox="0 0 24 24" xml:space="preserve" ><g class="nc-icon-wrapper" fill="currentColor"><path fill="currentColor" d="M22,5H5C4.7,5,4.5,5.1,4.3,5.3l-3,3c-0.4,0.4-0.4,1,0,1.4l3,3C4.5,12.9,4.7,13,5,13h17c0.6,0,1-0.4,1-1V6 C23,5.4,22.6,5,22,5z"></path> <path data-color="color-2" fill="currentColor" d="M16,3V1c0-0.6-0.4-1-1-1h-4c-0.6,0-1,0.4-1,1v2H16z"></path> <path data-color="color-2" fill="currentColor" d="M10,15v8c0,0.6,0.4,1,1,1h4c0.6,0,1-0.4,1-1v-8H10z"></path></g></svg>