<svg id="nc_icon" version="1.1" xmlns="http://www.w3.org/2000/svg" xmlns:xlink="http://www.w3.org/1999/xlink" x="0px" y="0px" viewBox="0 0 24 24" xml:space="preserve" ><g class="nc-icon-wrapper" fill="currentColor"><path fill="currentColor" d="M2,5h17c0.3,0,0.5,0.1,0.7,0.3l3,3c0.4,0.4,0.4,1,0,1.4l-3,3C19.5,12.9,19.3,13,19,13H2c-0.6,0-1-0.4-1-1V6 C1,5.4,1.4,5,2,5z"></path> <path data-color="color-2" fill="currentColor" d="M8,3V1c0-0.6,0.4-1,1-1h4c0.6,0,1,0.4,1,1v2H8z"></path> <path data-color="color-2" fill="currentColor" d="M14,15v8c0,0.6-0.4,1-1,1H9c-0.6,0-1-0.4-1-1v-8H14z"></path></g></svg>