<svg id="nc_icon" version="1.1" xmlns="http://www.w3.org/2000/svg" xmlns:xlink="http://www.w3.org/1999/xlink" x="0px" y="0px" viewBox="0 0 24 24" xml:space="preserve" ><g class="nc-icon-wrapper" fill="currentColor"><path fill="currentColor" d="M23,12h-1V5h1c0.5522461,0,1-0.4477539,1-1s-0.4477539-1-1-1h-6c-0.5522461,0-1,0.4477539-1,1 s0.4477539,1,1,1h1v7h-1c-0.5522461,0-1,0.4477539-1,1s0.4477539,1,1,1h2v5c0,1.6542969-1.3457031,3-3,3s-3-1.3457031-3-3V5 c0-2.7568359-2.2431641-5-5-5S3,2.2431641,3,5v5H1c-0.5522461,0-1,0.4477539-1,1s0.4477539,1,1,1h1v7H1 c-0.5522461,0-1,0.4477539-1,1s0.4477539,1,1,1h6c0.5522461,0,1-0.4477539,1-1s-0.4477539-1-1-1H6v-7h1c0.5522461,0,1-0.4477539,1-1 s-0.4477539-1-1-1H5V5c0-1.6542969,1.3457031-3,3-3s3,1.3457031,3,3v14c0,2.7568359,2.2431641,5,5,5s5-2.2431641,5-5v-5h2 c0.5522461,0,1-0.4477539,1-1S23.5522461,12,23,12z"></path></g></svg>