<svg id="nc_icon" version="1.1" xmlns="http://www.w3.org/2000/svg" xmlns:xlink="http://www.w3.org/1999/xlink" x="0px" y="0px" viewBox="0 0 24 24" xml:space="preserve" ><g class="nc-icon-wrapper" fill="currentColor"><path data-color="color-2" fill="currentColor" d="M24,8h-2V7c0-2.757-2.243-5-5-5h-1V0h1c3.859,0,7,3.14,7,7V8z"></path> <path data-color="color-2" fill="currentColor" d="M8,24H7c-3.859,0-7-3.14-7-7v-1h2v1c0,2.757,2.243,5,5,5h1V24z"></path> <path fill="currentColor" d="M16.243,22.728l6.485-6.485c1.17-1.17,1.17-3.073,0-4.243L12,1.272c-1.17-1.17-3.073-1.17-4.243,0 L1.272,7.757c-1.17,1.17-1.17,3.073,0,4.243L12,22.728C13.17,23.898,15.073,23.898,16.243,22.728z M3.393,11.293 c-0.391-0.391-0.391-1.024,0-1.414l6.485-6.485c0.391-0.391,1.024-0.391,1.414,0l9.314,9.314c0.391,0.391,0.391,1.024,0,1.414 l-6.485,6.485c-0.391,0.391-1.024,0.391-1.414,0L3.393,11.293z"></path></g></svg>