<svg id="nc_icon" version="1.1" xmlns="http://www.w3.org/2000/svg" xmlns:xlink="http://www.w3.org/1999/xlink" x="0px" y="0px" viewBox="0 0 24 24" xml:space="preserve" ><g class="nc-icon-wrapper" fill="currentColor"><path fill="currentColor" d="M12,0C5.383,0,0,5.383,0,12s5.383,12,12,12s12-5.383,12-12S18.617,0,12,0z M14,11v2h-3v3h5v2h-5H9H7v-2h2v-3 H7v-2h2V8.5C9,6.57,10.57,5,12.5,5c1.658,0,3.101,1.178,3.431,2.801l0.198,0.98l-1.96,0.397l-0.199-0.98 C13.829,7.504,13.211,7,12.5,7C11.673,7,11,7.673,11,8.5V11H14z"></path></g></svg>