<svg id="nc_icon" version="1.1" xmlns="http://www.w3.org/2000/svg" xmlns:xlink="http://www.w3.org/1999/xlink" x="0px" y="0px" viewBox="0 0 24 24" xml:space="preserve" ><g class="nc-icon-wrapper" fill="currentColor"><path data-color="color-2" fill="currentColor" d="M22,23c-0.3,0-0.5-0.1-0.7-0.3l-1-1c-0.4-0.4-0.4-1,0-1.4s1-0.4,1.4,0l1,1 c0.4,0.4,0.4,1,0,1.4C22.5,22.9,22.3,23,22,23z"></path> <path data-color="color-2" fill="currentColor" d="M21,18c-0.3,0-0.5-0.1-0.7-0.3l-1-1c-0.4-0.4-0.4-1,0-1.4s1-0.4,1.4,0l1,1 c0.4,0.4,0.4,1,0,1.4C21.5,17.9,21.3,18,21,18z"></path> <path data-color="color-2" fill="currentColor" d="M17,22c-0.3,0-0.5-0.1-0.7-0.3l-1-1c-0.4-0.4-0.4-1,0-1.4s1-0.4,1.4,0l1,1 c0.4,0.4,0.4,1,0,1.4C17.5,21.9,17.3,22,17,22z"></path> <path fill="currentColor" d="M14.6,6.4l-2-3.3c-0.8-1.3-2.1-2.2-3.7-2.4C7.3,0.5,5.8,1,4.7,2.1L2.1,4.7C1,5.8,0.5,7.3,0.7,8.9 c0.2,1.5,1.1,2.9,2.4,3.7l3.3,2L14.6,6.4z"></path> <path data-color="color-2" fill="currentColor" d="M19,10.5l-2.1-2.1c-0.4-0.4-1-0.4-1.4,0l-7.1,7.1c-0.4,0.4-0.4,1,0,1.4l2.1,2.1 c0.2,0.2,0.5,0.3,0.7,0.3s0.5-0.1,0.7-0.3l7.1-7.1c0.2-0.2,0.3-0.4,0.3-0.7S19.1,10.7,19,10.5z"></path></g></svg>