<svg id="nc_icon" version="1.1" xmlns="http://www.w3.org/2000/svg" xmlns:xlink="http://www.w3.org/1999/xlink" x="0px" y="0px" viewBox="0 0 24 24" xml:space="preserve" ><g class="nc-icon-wrapper" fill="currentColor"><circle fill="currentColor" cx="10.5" cy="10.5" r="2.5"></circle> <path fill="currentColor" d="M22,0H2C1.448,0,1,0.447,1,1v22c0,0.553,0.448,1,1,1h20c0.552,0,1-0.447,1-1V1C23,0.447,22.552,0,22,0z M16.293,17.707L12.886,14.3C12.193,14.737,11.379,15,10.5,15C8.019,15,6,12.981,6,10.5S8.019,6,10.5,6S15,8.019,15,10.5 c0,0.879-0.263,1.693-0.7,2.386l3.407,3.407L16.293,17.707z"></path></g></svg>