<svg id="nc_icon" version="1.1" xmlns="http://www.w3.org/2000/svg" xmlns:xlink="http://www.w3.org/1999/xlink" x="0px" y="0px" viewBox="0 0 24 24" xml:space="preserve" ><g class="nc-icon-wrapper" fill="currentColor"><path fill="currentColor" d="M22,4c-3.157,0-6.865-1.111-9.445-2.832c-0.336-0.225-0.773-0.225-1.109,0C8.865,2.889,5.157,4,2,4 C1.448,4,1,4.447,1,5c0,8.374,3.965,15.073,10.606,17.919C11.732,22.973,11.866,23,12,23s0.268-0.027,0.394-0.081 C19.035,20.073,23,13.374,23,5C23,4.447,22.552,4,22,4z M12,20.905V12H4.141C3.491,10.16,3.107,8.133,3.02,5.967 C6.074,5.772,9.442,4.732,12,3.185V12h7.859C18.429,16.045,15.709,19.186,12,20.905z"></path></g></svg>