<svg id="nc_icon" version="1.1" xmlns="http://www.w3.org/2000/svg" xmlns:xlink="http://www.w3.org/1999/xlink" x="0px" y="0px" viewBox="0 0 24 24" xml:space="preserve" ><g class="nc-icon-wrapper" fill="currentColor"><path fill="currentColor" d="M21.667,6.05C21.879,5.86,22,5.589,22,5.305V2c0-0.552-0.448-1-1-1H3C2.448,1,2,1.448,2,2v3.305 C2,5.589,2.121,5.86,2.333,6.05C4.028,7.57,5,9.739,5,12s-0.972,4.43-2.667,5.95C2.121,18.14,2,18.411,2,18.695V22 c0,0.552,0.448,1,1,1h6v-9c0-1.657,1.343-3,3-3s3,1.343,3,3v9h6c0.552,0,1-0.448,1-1v-3.305c0-0.284-0.121-0.555-0.333-0.745 C19.972,16.43,19,14.261,19,12S19.972,7.57,21.667,6.05z"></path></g></svg>