<svg id="nc_icon" version="1.1" xmlns="http://www.w3.org/2000/svg" xmlns:xlink="http://www.w3.org/1999/xlink" x="0px" y="0px" viewBox="0 0 24 24" xml:space="preserve" ><g class="nc-icon-wrapper" fill="currentColor"><path data-color="color-2" fill="currentColor" d="M19,23c-1.3,0-2.6-0.5-3.5-1.5C14.6,22.5,13.3,23,12,23c-1.3,0-2.6-0.5-3.5-1.5 C7.6,22.5,6.3,23,5,23c-2.8,0-5-2.2-5-5c0-0.6,0.4-1,1-1c0.6,0,1,0.4,1,1c0,1.7,1.3,3,3,3c1.1,0,2.1-0.6,2.6-1.6 c0.3-0.6,1.4-0.6,1.8,0c0.5,1,1.5,1.6,2.6,1.6c1.1,0,2.1-0.6,2.6-1.6c0.3-0.6,1.4-0.6,1.8,0c0.5,1,1.5,1.6,2.6,1.6c1.7,0,3-1.3,3-3 c0-0.6,0.4-1,1-1c0.6,0,1,0.4,1,1C24,20.8,21.8,23,19,23z"></path> <path fill="currentColor" d="M20,16C19.9,7.8,13.2,1,5,1C4.4,1,4,1.4,4,2v14C4,16,19.5,16,20,16z"></path></g></svg>