<svg id="nc_icon" version="1.1" xmlns="http://www.w3.org/2000/svg" xmlns:xlink="http://www.w3.org/1999/xlink" x="0px" y="0px" viewBox="0 0 24 24" xml:space="preserve" ><g class="nc-icon-wrapper" fill="currentColor"><path fill="currentColor" d="M19,4c-0.69733,0-1.38708,0.13336-2.03723,0.36792C16.97424,4.24487,17,4.12598,17,4 c0-2.20557-1.79443-4-4-4c-0.98633,0-1.92383,0.36621-2.65283,1.02197C8.55615,0.79639,7,2.23145,7,4 c0,0.12634,0.02484,0.24609,0.04022,0.36853C6.38922,4.13336,5.69836,4,5,4H0v1c0,2.55475,1.64355,4.80005,4,5.63959V16 c0,4.07178,3.06006,7.43591,7,7.93054v-4.26385l-1.40002-1.8667C9.35278,17.47034,9.58795,17,10,17h4 c0.41205,0,0.64722,0.47034,0.40002,0.79999L13,19.66669v4.26385c3.93994-0.49463,7-3.85876,7-7.93054v-5.36041 C22.35645,9.80005,24,7.55475,24,5V4H19z M8.5,14C7.67157,14,7,13.32843,7,12.5S7.67157,11,8.5,11s1.5,0.67157,1.5,1.5 S9.32843,14,8.5,14z M13,6c-0.59619,0-1.16016-0.27441-1.54688-0.75342l-0.44678-0.55322l-0.66943,0.24072 C10.21338,4.97852,10.10303,5,10,5C9.44873,5,9,4.55127,9,4s0.44873-1,1-1c0.10303,0,0.21338,0.02148,0.33691,0.06592 l0.66943,0.24072l0.44678-0.55322C11.83984,2.27441,12.40381,2,13,2c1.10303,0,2,0.89697,2,2S14.10303,6,13,6z M15.5,14 c-0.82843,0-1.5-0.67157-1.5-1.5s0.67157-1.5,1.5-1.5s1.5,0.67157,1.5,1.5S16.32843,14,15.5,14z"></path></g></svg>