<svg id="nc_icon" version="1.1" xmlns="http://www.w3.org/2000/svg" xmlns:xlink="http://www.w3.org/1999/xlink" x="0px" y="0px" viewBox="0 0 24 24" xml:space="preserve" ><g class="nc-icon-wrapper" fill="currentColor"><path data-color="color-2" fill="currentColor" d="M20,12H4c-1.1,0-2,0.9-2,2s0.9,2,2,2h16c1.1,0,2-0.9,2-2S21.1,12,20,12z"></path> <path data-color="color-2" fill="currentColor" d="M12.1,24h-0.1c-0.5,0-0.9-0.4-0.9-0.9v-1.1c0-0.5,0.4-0.9,0.9-0.9h0.1c0.5,0,0.9,0.4,0.9,0.9 v1.1C13,23.6,12.6,24,12.1,24z"></path> <path data-color="color-2" fill="currentColor" d="M8.1,21H7.9C7.4,21,7,20.6,7,20.1v-1.1C7,18.4,7.4,18,7.9,18h0.1C8.6,18,9,18.4,9,18.9v1.1 C9,20.6,8.6,21,8.1,21z"></path> <path data-color="color-2" fill="currentColor" d="M16.1,21h-0.1c-0.5,0-0.9-0.4-0.9-0.9v-1.1c0-0.5,0.4-0.9,0.9-0.9h0.1c0.5,0,0.9,0.4,0.9,0.9 v1.1C17,20.6,16.6,21,16.1,21z"></path> <path fill="currentColor" d="M13,3.1V1c0-0.6-0.4-1-1-1c-0.6,0-1,0.4-1,1v2.1C7.4,3.5,4.5,6.4,4.1,10h15.9C19.5,6.4,16.6,3.5,13,3.1z"></path></g></svg>