<svg id="nc_icon" version="1.1" xmlns="http://www.w3.org/2000/svg" xmlns:xlink="http://www.w3.org/1999/xlink" x="0px" y="0px" viewBox="0 0 24 24" xml:space="preserve" ><g class="nc-icon-wrapper" fill="currentColor"><path fill="currentColor" d="M20,0h-8c-0.6,0-1,0.4-1,1s0.4,1,1,1h8c1.1,0,2,0.9,2,2H10C4.5,4,0,8.5,0,14s4.5,10,10,10h3h8 c0.6,0,1-0.4,1-1v-5c0-0.4-0.2-0.7-0.5-0.9c-0.3-0.2-0.7-0.2-1,0c0,0-4.9,3.8-7.5,3.8c-1.6,0-3-1.7-3-3.5c0-2.5,2-4.5,4.5-4.5H16 c2.1,0,8-1.5,8-8V4C24,1.8,22.2,0,20,0z M17,9h-1c-0.6,0-1-0.4-1-1s0.4-1,1-1h1c0.6,0,1,0.4,1,1S17.6,9,17,9z"></path></g></svg>