<svg id="nc_icon" version="1.1" xmlns="http://www.w3.org/2000/svg" xmlns:xlink="http://www.w3.org/1999/xlink" x="0px" y="0px" viewBox="0 0 24 24" xml:space="preserve" ><g class="nc-icon-wrapper" fill="currentColor"><path fill="currentColor" d="M21.707,5.293l-5-5C16.52,0.105,16.265,0,16,0H3C2.448,0,2,0.448,2,1v22c0,0.552,0.448,1,1,1h18 c0.552,0,1-0.448,1-1V6C22,5.735,21.895,5.48,21.707,5.293z M18,19c0,0.552-0.448,1-1,1H7c-0.552,0-1-0.448-1-1v-8 c0-0.552,0.448-1,1-1h10c0.552,0,1,0.448,1,1V19z"></path></g></svg>