<svg id="nc_icon" version="1.1" xmlns="http://www.w3.org/2000/svg" xmlns:xlink="http://www.w3.org/1999/xlink" x="0px" y="0px" viewBox="0 0 24 24" xml:space="preserve" ><g class="nc-icon-wrapper" fill="currentColor"><path data-color="color-2" fill="currentColor" d="M23,22h-2V2H4V0h18c0.552,0,1,0.448,1,1V22z"></path> <path fill="currentColor" d="M18,4H2C1.448,4,1,4.448,1,5v18c0,0.552,0.448,1,1,1h16c0.552,0,1-0.448,1-1V5C19,4.448,18.552,4,18,4z M11,19H5v-2h6V19z M15,15H5v-2h10V15z M15,11H5V9h10V11z"></path></g></svg>