<svg id="nc_icon" version="1.1" xmlns="http://www.w3.org/2000/svg" xmlns:xlink="http://www.w3.org/1999/xlink" x="0px" y="0px" viewBox="0 0 24 24" xml:space="preserve" ><g class="nc-icon-wrapper" fill="currentColor"><path data-color="color-2" fill="currentColor" d="M21.543,17.56L17.274,15c-1.41,1.241-3.253,2-5.274,2s-3.864-0.759-5.274-2l-4.269,2.56 C1.558,18.099,1,19.084,1,20.132V24h22v-3.868C23,19.084,22.442,18.099,21.543,17.56z"></path> <path fill="currentColor" d="M12,15L12,15c-3.314,0-6-2.686-6-6V6c0-3.314,2.686-6,6-6h0c3.314,0,6,2.686,6,6v3 C18,12.314,15.314,15,12,15z"></path></g></svg>