<svg id="nc_icon" version="1.1" xmlns="http://www.w3.org/2000/svg" xmlns:xlink="http://www.w3.org/1999/xlink" x="0px" y="0px" viewBox="0 0 24 24" xml:space="preserve" ><g class="nc-icon-wrapper" fill="currentColor"><path fill="currentColor" d="M12,6L12,6c-1.657,0-3-1.343-3-3v0c0-1.657,1.343-3,3-3h0c1.657,0,3,1.343,3,3v0C15,4.657,13.657,6,12,6z"></path> <path fill="currentColor" d="M14,21h-4c-0.552,0-1-0.448-1-1v-5H7V9c0-1.105,0.895-2,2-2h6c1.105,0,2,0.895,2,2v6h-2v5 C15,20.552,14.552,21,14,21z"></path> <path data-color="color-2" fill="currentColor" d="M17,17.271v2.019c2.738,0.327,4.284,0.862,4.837,1.217C20.935,21.099,17.573,22,12,22 s-8.935-0.901-9.837-1.493C2.716,20.152,4.262,19.617,7,19.29v-2.019c-3.343,0.362-7,1.218-7,3.234C0,23.832,9.996,24,12,24 s12-0.168,12-3.495C24,18.489,20.343,17.633,17,17.271z"></path></g></svg>