<svg id="nc_icon" version="1.1" xmlns="http://www.w3.org/2000/svg" xmlns:xlink="http://www.w3.org/1999/xlink" x="0px" y="0px" viewBox="0 0 24 24" xml:space="preserve" ><g class="nc-icon-wrapper" fill="currentColor"><path fill="currentColor" d="M23,4H2V2h10c0.6,0,1-0.4,1-1s-0.4-1-1-1H1C0.4,0,0,0.4,0,1v4v18c0,0.6,0.4,1,1,1h6c0.6,0,1-0.4,1-1V12h15 c0.6,0,1-0.4,1-1V5C24,4.4,23.6,4,23,4z"></path> <path data-color="color-2" fill="currentColor" d="M16,20c0-1.9,3-5,3-5s3,3.1,3,5s-1.5,3-3,3S16,21.9,16,20z"></path></g></svg>