<svg id="nc_icon" version="1.1" xmlns="http://www.w3.org/2000/svg" xmlns:xlink="http://www.w3.org/1999/xlink" x="0px" y="0px" viewBox="0 0 24 24" xml:space="preserve" ><g class="nc-icon-wrapper" fill="currentColor"><path data-color="color-2" fill="currentColor" d="M11,3V0H1C0.4,0,0,0.4,0,1v2H11z"></path> <path data-color="color-2" fill="currentColor" d="M13,3h11V1c0-0.6-0.4-1-1-1H13V3z"></path> <path fill="currentColor" d="M20,9V8h2v1c0,1.3,0.8,2.4,2,2.8V5H13v4c0,0.6-0.4,1-1,1s-1-0.4-1-1V5H0v6.8c1.2-0.4,2-1.5,2-2.8V8h2v1 c0,2.4-1.7,4.4-4,4.9V23c0,0.6,0.4,1,1,1h9c0.6,0,1-0.4,1-1v-8c0-0.6,0.4-1,1-1s1,0.4,1,1v8c0,0.6,0.4,1,1,1h9c0.6,0,1-0.4,1-1v-9.1 C21.7,13.4,20,11.4,20,9z"></path></g></svg>