<svg id="nc_icon" version="1.1" xmlns="http://www.w3.org/2000/svg" xmlns:xlink="http://www.w3.org/1999/xlink" x="0px" y="0px" viewBox="0 0 24 24" xml:space="preserve" ><g class="nc-icon-wrapper" fill="currentColor"><path fill="currentColor" d="M16.7,7.3c-0.4-0.4-1-0.4-1.4,0L12,10.6L8.7,7.3c-0.4-0.4-1-0.4-1.4,0s-0.4,1,0,1.4l3.3,3.3l-3.3,3.3 c-0.4,0.4-0.4,1,0,1.4C7.5,16.9,7.7,17,8,17s0.5-0.1,0.7-0.3l3.3-3.3l3.3,3.3c0.2,0.2,0.5,0.3,0.7,0.3s0.5-0.1,0.7-0.3 c0.4-0.4,0.4-1,0-1.4L13.4,12l3.3-3.3C17.1,8.3,17.1,7.7,16.7,7.3z"></path></g></svg>