<svg id="nc_icon" version="1.1" xmlns="http://www.w3.org/2000/svg" xmlns:xlink="http://www.w3.org/1999/xlink" x="0px" y="0px" viewBox="0 0 24 24" xml:space="preserve" ><g class="nc-icon-wrapper" fill="currentColor"><path data-color="color-2" fill="currentColor" d="M24,21H0v2c0,0.5522842,0.4477153,1,1,1h22c0.5522842,0,1-0.4477158,1-1V21z"></path> <path fill="currentColor" d="M10.8428955,0.0545654C4.6254883,0.6400757,0,6.1067505,0,12.3516235V19h24v-7 C24,5.0014038,17.977417-0.6172485,10.8428955,0.0545654z M8,11c0,0.5522461-0.4477539,1-1,1s-1-0.4477539-1-1v-1 c0-0.5522461,0.4477539-1,1-1s1,0.4477539,1,1V11z M11,7c-0.5522461,0-1-0.4477539-1-1V5c0-0.5522461,0.4477539-1,1-1 s1,0.4477539,1,1v1C12,6.5522461,11.5522461,7,11,7z M14,14c0,0.5522461-0.4477539,1-1,1s-1-0.4477539-1-1v-1 c0-0.5522461,0.4477539-1,1-1s1,0.4477539,1,1V14z M18,9c0,0.5522461-0.4477539,1-1,1s-1-0.4477539-1-1V8 c0-0.5522461,0.4477539-1,1-1s1,0.4477539,1,1V9z"></path></g></svg>