<svg id="nc_icon" version="1.1" xmlns="http://www.w3.org/2000/svg" xmlns:xlink="http://www.w3.org/1999/xlink" x="0px" y="0px" viewBox="0 0 24 24" xml:space="preserve" ><g class="nc-icon-wrapper" fill="currentColor"><path fill="currentColor" d="M11,1C4.9345703,1,0,5.9345703,0,12s4.9345703,11,11,11s11-4.9345703,11-11S17.0654297,1,11,1z M14.5,7 C15.3284302,7,16,7.6715698,16,8.5S15.3284302,10,14.5,10S13,9.3284302,13,8.5S13.6715698,7,14.5,7z M8.5,10 C7.6715698,10,7,9.3284302,7,8.5S7.6715698,7,8.5,7S10,7.6715698,10,8.5S9.3284302,10,8.5,10z M11.0864258,14.7793579 c-0.9824829-0.5048218-1.369751-1.7105103-0.8649292-2.6929321c0.5047607-0.9824829,1.7104492-1.369751,2.6929321-0.8649292 c0.9824829,0.5047607,7.0869751,4.2352905,6.3937988,5.6244507C18.6767578,18.1113281,12.0689087,15.2841187,11.0864258,14.7793579z "></path></g></svg>