<svg id="nc_icon" version="1.1" xmlns="http://www.w3.org/2000/svg" xmlns:xlink="http://www.w3.org/1999/xlink" x="0px" y="0px" viewBox="0 0 24 24" xml:space="preserve" ><g class="nc-icon-wrapper" fill="currentColor"><path data-color="color-2" fill="currentColor" d="M23,11h-2c-0.6,0-1,0.4-1,1v3H4v-3c0-0.6-0.4-1-1-1H1c-0.6,0-1,0.4-1,1v7c0,0.6,0.4,1,1,1h1 v1c0,0.6,0.4,1,1,1c0.6,0,1-0.4,1-1v-1h16v1c0,0.6,0.4,1,1,1c0.6,0,1-0.4,1-1v-1h1c0.6,0,1-0.4,1-1v-7C24,11.4,23.6,11,23,11z"></path> <path fill="currentColor" d="M11,13V2H3C2.4,2,2,2.4,2,3v6h3c0.6,0,1,0.4,1,1v3H11z"></path> <path fill="currentColor" d="M22,3c0-0.6-0.4-1-1-1h-8v11h5v-3c0-0.6,0.4-1,1-1h3V3z"></path></g></svg>