<svg id="nc_icon" version="1.1" xmlns="http://www.w3.org/2000/svg" xmlns:xlink="http://www.w3.org/1999/xlink" x="0px" y="0px" viewBox="0 0 24 24" xml:space="preserve" ><g class="nc-icon-wrapper" fill="currentColor"><path fill="currentColor" d="M20,0H4C3.448,0,3,0.448,3,1v22c0,0.552,0.448,1,1,1h16c0.552,0,1-0.448,1-1V1C21,0.448,20.552,0,20,0z M12,4c1.105,0,2,0.895,2,2s-0.895,2-2,2s-2-0.895-2-2S10.895,4,12,4z M12,20c-2.209,0-4-1.791-4-4s1.791-4,4-4s4,1.791,4,4 S14.209,20,12,20z"></path> <circle data-color="color-2" fill="currentColor" cx="12" cy="16" r="1"></circle></g></svg>