<svg id="nc_icon" version="1.1" xmlns="http://www.w3.org/2000/svg" xmlns:xlink="http://www.w3.org/1999/xlink" x="0px" y="0px" viewBox="0 0 24 24" xml:space="preserve" ><g class="nc-icon-wrapper" fill="currentColor"><path fill="currentColor" d="M21,0H8C7.447,0,7,0.448,7,1v4c0,0.552,0.447,1,1,1h13c0.553,0,1-0.448,1-1V1C22,0.448,21.553,0,21,0z"></path> <rect data-color="color-2" y="2" fill="currentColor" width="4" height="2"></rect> <rect data-color="color-2" x="1.757" y="6.243" transform="matrix(0.7075 -0.7067 0.7067 0.7075 -4.0196 4.7741)" fill="currentColor" width="4.001" height="1.999"></rect> <path fill="currentColor" d="M12.675,8c-1.147,5.338-5.039,8.039-5.23,8.168C7.167,16.354,7,16.666,7,17v6c0,0.552,0.447,1,1,1h11 c0.553,0,1-0.448,1-1V8H12.675z"></path></g></svg>