<svg id="nc_icon" version="1.1" xmlns="http://www.w3.org/2000/svg" xmlns:xlink="http://www.w3.org/1999/xlink" x="0px" y="0px" viewBox="0 0 24 24" xml:space="preserve" ><g class="nc-icon-wrapper" fill="currentColor"><circle data-color="color-2" fill="currentColor" cx="12" cy="3" r="3"></circle> <path fill="currentColor" d="M16,7H8c-1.654,0-3,1.346-3,3v5c0,0.553,0.447,1,1,1s1-0.447,1-1v-5c0-0.552,0.448-1,1-1v14 c0,0.553,0.447,1,1,1s1-0.447,1-1v-5h4v5c0,0.553,0.447,1,1,1s1-0.447,1-1V9c0.552,0,1,0.448,1,1v5c0,0.553,0.447,1,1,1s1-0.447,1-1 v-5C19,8.346,17.654,7,16,7z"></path></g></svg>