<svg id="nc_icon" version="1.1" xmlns="http://www.w3.org/2000/svg" xmlns:xlink="http://www.w3.org/1999/xlink" x="0px" y="0px" viewBox="0 0 24 24" xml:space="preserve" ><g class="nc-icon-wrapper" fill="currentColor"><path fill="currentColor" d="M6,14h12c0.008,0,0.015,0.001,0.02,0c0.553,0,1-0.448,1-1c0-0.074-0.008-0.146-0.022-0.215 C18.883,9.024,15.788,6,12,6c-3.859,0-7,3.14-7,7C5,13.552,5.447,14,6,14z"></path> <path data-color="color-2" fill="currentColor" d="M23,16H1c-0.553,0-1,0.448-1,1s0.447,1,1,1h22c0.553,0,1-0.448,1-1S23.553,16,23,16z"></path> <path data-color="color-2" fill="currentColor" d="M20,20H4c-0.553,0-1,0.448-1,1s0.447,1,1,1h16c0.553,0,1-0.448,1-1S20.553,20,20,20z"></path> <rect x="11" y="1" fill="currentColor" width="2" height="3"></rect> <rect x="18.425" y="4.075" transform="matrix(0.7071 0.7071 -0.7071 0.7071 9.6317 -12.1023)" fill="currentColor" width="2" height="3"></rect> <rect x="21.5" y="11.5" transform="matrix(4.456506e-11 1 -1 4.456506e-11 35.5 -9.5)" fill="currentColor" width="2" height="3"></rect> <rect x="3.575" y="4.075" transform="matrix(-0.7071 0.7071 -0.7071 -0.7071 11.753 6.2825)" fill="currentColor" width="2" height="3"></rect> <rect x="0.5" y="11.5" transform="matrix(-1.836970e-16 1 -1 -1.836970e-16 14.5 11.5)" fill="currentColor" width="2" height="3"></rect></g></svg>