<svg id="nc_icon" version="1.1" xmlns="http://www.w3.org/2000/svg" xmlns:xlink="http://www.w3.org/1999/xlink" x="0px" y="0px" viewBox="0 0 24 24" xml:space="preserve" ><g class="nc-icon-wrapper" fill="currentColor"><path fill="currentColor" d="M17,0c-3.181,0-5.895,2.117-6.711,5.127c-1.788,0.341-3.365,1.41-4.325,2.97C5.645,8.032,5.323,8,5,8 c-2.757,0-5,2.243-5,5s2.243,5,5,5h14c2.757,0,5-2.243,5-5c0-1.018-0.309-1.963-0.833-2.754C23.704,9.242,24,8.136,24,7 C24,3.141,20.86,0,17,0z M17.18,8.346c-0.982-1.771-2.74-2.986-4.751-3.276C13.18,3.244,14.948,2,17,2c2.757,0,5,2.243,5,5 c0,0.621-0.126,1.213-0.349,1.778C20.881,8.292,19.976,8,19,8C18.372,8,17.757,8.118,17.18,8.346z"></path> <circle data-color="color-2" fill="currentColor" cx="12" cy="23" r="1"></circle> <circle data-color="color-2" fill="currentColor" cx="8" cy="21" r="1"></circle> <circle data-color="color-2" fill="currentColor" cx="16" cy="21" r="1"></circle></g></svg>