<svg id="nc_icon" version="1.1" xmlns="http://www.w3.org/2000/svg" xmlns:xlink="http://www.w3.org/1999/xlink" x="0px" y="0px" viewBox="0 0 24 24" xml:space="preserve" ><g class="nc-icon-wrapper" fill="currentColor"><path fill="currentColor" d="M24,7c0-3.859-3.14-7-7-7c-3.181,0-5.895,2.117-6.711,5.127c-1.788,0.341-3.365,1.41-4.325,2.97 C5.645,8.032,5.323,8,5,8c-2.757,0-5,2.243-5,5s2.243,5,5,5h0.004c0.001-0.689,0.235-1.373,0.69-1.92l5.001-6.001 C11.271,9.392,12.111,9,13.001,9c0.54,0,1.07,0.146,1.533,0.422c1.276,0.762,1.802,2.313,1.251,3.691L15.431,14H16 c1.159,0,2.226,0.679,2.717,1.729c0.338,0.722,0.359,1.54,0.102,2.271H19c2.757,0,5-2.243,5-5c0-1.018-0.309-1.963-0.833-2.754 C23.704,9.242,24,8.136,24,7z M21.651,8.778C20.881,8.292,19.976,8,19,8c-0.628,0-1.243,0.118-1.82,0.346 c-0.982-1.771-2.74-2.986-4.751-3.276C13.18,3.244,14.948,2,17,2c2.757,0,5,2.243,5,5C22,7.621,21.874,8.213,21.651,8.778z"></path> <path data-color="color-2" fill="currentColor" d="M16.906,16.576C16.741,16.225,16.388,16,16,16h-3.523l1.452-3.628 c0.183-0.457,0.006-0.979-0.417-1.23c-0.422-0.251-0.964-0.159-1.28,0.219l-5,6c-0.249,0.298-0.302,0.713-0.138,1.064 C7.259,18.775,7.612,19,8,19h3.523l-1.452,3.628c-0.183,0.457-0.006,0.979,0.417,1.23C10.647,23.954,10.824,24,11,24 c0.289,0,0.573-0.125,0.769-0.36l5-6C17.017,17.342,17.07,16.927,16.906,16.576z"></path></g></svg>