<svg id="nc_icon" version="1.1" xmlns="http://www.w3.org/2000/svg" xmlns:xlink="http://www.w3.org/1999/xlink" x="0px" y="0px" viewBox="0 0 24 24" xml:space="preserve" ><g class="nc-icon-wrapper" fill="currentColor"><path fill="currentColor" d="M23.9,12.6C23.9,12.6,23.9,12.6,23.9,12.6l-5-11C18.7,1.2,18.4,1,18,1h-3c-0.6,0-1,0.4-1,1s0.4,1,1,1h2.4 l4.1,9H2.6l4.1-9H9c0.6,0,1-0.4,1-1S9.6,1,9,1H6C5.6,1,5.3,1.2,5.1,1.6l-5,11c0,0,0,0,0,0C0,12.7,0,12.9,0,13v4.5 c0,3,2.5,5.5,5.5,5.5c2.9,0,5.2-2.2,5.5-5h0v-1h2v1h0c0.3,2.8,2.6,5,5.5,5c3,0,5.5-2.5,5.5-5.5V13C24,12.9,24,12.7,23.9,12.6z"></path></g></svg>