<svg id="nc_icon" version="1.1" xmlns="http://www.w3.org/2000/svg" xmlns:xlink="http://www.w3.org/1999/xlink" x="0px" y="0px" viewBox="0 0 24 24" xml:space="preserve" ><g class="nc-icon-wrapper" fill="currentColor"><path data-color="color-2" fill="currentColor" d="M19.3099,6V5.0557l1.36056-1.32972c1.02524-0.99495,1.46187-1.40075,1.46187-1.97944 c0-0.37607-0.1828-0.64972-0.72075-0.64972c-0.55887,0-0.79233,0.1828-0.79233,0.90355l-1.38038-0.12224 C19.24879,0.26429,20.4772,0,21.54318,0c1.57364,0,2.13196,0.67009,2.13196,1.6243c0,0.95476-0.65963,1.58411-1.40075,2.29439 l-1.14747,1.09682h1.4927c0.10131,0,0.14206-0.02037,0.16243-0.12224l0.14206-0.80169H24V6H19.3099z"></path> <path fill="currentColor" d="M4,23v-1.60417l2.62927-0.15497C6.93922,21.2183,7,21.13002,7,20.7985V6H2.18826 C1.94501,6,1.87831,6.02207,1.83418,6.24325L1.48107,8H0V4h16v4h-1.48107l-0.3531-1.75675C14.12169,6.02207,14.05499,6,13.81174,6H9 v14.7985c0,0.30995,0.03822,0.39822,0.36975,0.4198L12,21.39583V23H4z"></path></g></svg>