<svg id="nc_icon" version="1.1" xmlns="http://www.w3.org/2000/svg" xmlns:xlink="http://www.w3.org/1999/xlink" x="0px" y="0px" viewBox="0 0 24 24" xml:space="preserve" ><g class="nc-icon-wrapper" fill="currentColor"><path data-color="color-2" fill="currentColor" d="M23,18c-0.6,0-1,0.4-1,1c0,1.7-1.3,3-3,3c-1.1,0-2.1-0.6-2.6-1.6c-0.3-0.6-1.4-0.6-1.8,0 c-0.5,1-1.5,1.6-2.6,1.6c-1.1,0-2.1-0.6-2.6-1.6c-0.3-0.6-1.4-0.6-1.8,0C7.1,21.4,6.1,22,5,22c-1.7,0-3-1.3-3-3c0-0.6-0.4-1-1-1 c-0.6,0-1,0.4-1,1c0,2.8,2.2,5,5,5c1.3,0,2.6-0.5,3.5-1.5C9.4,23.5,10.7,24,12,24c1.3,0,2.6-0.5,3.5-1.5c0.9,0.9,2.2,1.5,3.5,1.5 c2.8,0,5-2.2,5-5C24,18.4,23.6,18,23,18z"></path> <path fill="currentColor" d="M6,14h5v3c0,0.6,0.4,1,1,1c0.6,0,1-0.4,1-1v-4v-2h2c0.6,0,1-0.4,1-1s-0.4-1-1-1h-2V1c0-0.6-0.4-1-1-1 C8.1,0,5,3.1,5,7v6C5,13.6,5.4,14,6,14z"></path></g></svg>