<svg id="nc_icon" version="1.1" xmlns="http://www.w3.org/2000/svg" xmlns:xlink="http://www.w3.org/1999/xlink" x="0px" y="0px" viewBox="0 0 24 24" xml:space="preserve" ><g class="nc-icon-wrapper" fill="currentColor"><path data-color="color-2" fill="currentColor" d="M24,3V1c0-0.6-0.4-1-1-1H1C0.4,0,0,0.4,0,1v2H24z"></path> <path fill="currentColor" d="M19,6c0,1.7,1.3,3,3,3h2V5h-5V6z"></path> <path fill="currentColor" d="M5,6V5H0v4h2C3.7,9,5,7.7,5,6z"></path> <path fill="currentColor" d="M22,11c-2.8,0-5-2.2-5-5V5h-4v4h-2V5H7v1c0,2.8-2.2,5-5,5H0v12c0,0.6,0.4,1,1,1h6c0.4,0,0.8-0.3,0.9-0.7 l2.8-8.3h2.6l2.8,8.3c0.1,0.4,0.5,0.7,0.9,0.7h6c0.6,0,1-0.4,1-1V11H22z"></path></g></svg>