<svg id="nc_icon" version="1.1" xmlns="http://www.w3.org/2000/svg" xmlns:xlink="http://www.w3.org/1999/xlink" x="0px" y="0px" viewBox="0 0 24 24" xml:space="preserve" ><g class="nc-icon-wrapper" fill="currentColor"><path data-color="color-2" fill="currentColor" d="M18,6v1h2V6c0-3.309-2.691-6-6-6h-1v2h1C16.206,2,18,3.794,18,6z"></path> <path data-color="color-2" fill="currentColor" d="M6,18v-1H4v1c0,3.309,2.691,6,6,6h1v-2h-1C7.794,22,6,20.206,6,18z"></path> <path fill="currentColor" d="M9,0H2C0.895,0,0,0.895,0,2v11c0,1.105,0.895,2,2,2h7c1.105,0,2-0.895,2-2V2C11,0.895,10.105,0,9,0z M9,12H2 V3h7V12z"></path> <path fill="currentColor" d="M22,9h-7c-1.105,0-2,0.895-2,2v11c0,1.105,0.895,2,2,2h7c1.105,0,2-0.895,2-2V11C24,9.895,23.105,9,22,9z M22,21h-7v-9h7V21z"></path></g></svg>