<svg id="nc_icon" version="1.1" xmlns="http://www.w3.org/2000/svg" xmlns:xlink="http://www.w3.org/1999/xlink" x="0px" y="0px" viewBox="0 0 24 24" xml:space="preserve" ><g class="nc-icon-wrapper" fill="currentColor"><path fill="currentColor" d="M19,8.4l2.1-2.1l0.4,0.4c0.4,0.4,1,0.4,1.4,0v0c0.4-0.4,0.4-1,0-1.4L18.7,1c-0.4-0.4-1-0.4-1.4,0v0 c-0.4,0.4-0.4,1,0,1.4l0.4,0.4L15.6,5l-3.2-3.2c-0.4-0.4-1-0.4-1.4,0l0,0c-0.4,0.4-0.4,1,0,1.4l2.1,2.1L12.4,6L14,7.6L12.6,9L11,7.4 L9.4,9l1.6,1.6L9.6,12L8,10.4L6.4,12L8,13.6L6.6,15L5,13.4l-1.8,1.8l2.1,2.1L1,21.5c-0.4,0.4-0.4,1,0,1.4h0c0.4,0.4,1,0.4,1.4,0 l4.2-4.2l2.1,2.1l9.9-9.9l2.1,2.1c0.4,0.4,1,0.4,1.4,0v0c0.4-0.4,0.4-1,0-1.4L19,8.4z"></path></g></svg>