<svg id="nc_icon" version="1.1" xmlns="http://www.w3.org/2000/svg" xmlns:xlink="http://www.w3.org/1999/xlink" x="0px" y="0px" viewBox="0 0 24 24" xml:space="preserve" ><g class="nc-icon-wrapper" fill="currentColor"><path fill="currentColor" d="M13,6H1C0.448,6,0,5.552,0,5V3c0-0.552,0.448-1,1-1h12c0.552,0,1,0.448,1,1v2C14,5.552,13.552,6,13,6z"></path> <path fill="currentColor" d="M13,14H1c-0.552,0-1-0.448-1-1v-2c0-0.552,0.448-1,1-1h12c0.552,0,1,0.448,1,1v2C14,13.552,13.552,14,13,14z "></path> <path fill="currentColor" d="M13,22H1c-0.552,0-1-0.448-1-1v-2c0-0.552,0.448-1,1-1h12c0.552,0,1,0.448,1,1v2C14,21.552,13.552,22,13,22z "></path> <path data-color="color-2" fill="currentColor" d="M17,18l7-6l-7-6V18z"></path></g></svg>