<svg id="nc_icon" version="1.1" xmlns="http://www.w3.org/2000/svg" xmlns:xlink="http://www.w3.org/1999/xlink" x="0px" y="0px" viewBox="0 0 24 24" xml:space="preserve" ><g class="nc-icon-wrapper" fill="currentColor"><path fill="currentColor" d="M21,10.242V19c0,0.552-0.448,1-1,1H9c-0.552,0-1-0.448-1-1V9c0-0.552,0.448-1,1-1h8l2-3H1 C0.448,5,0,5.448,0,6v16c0,0.552,0.448,1,1,1h22c0.552,0,1-0.448,1-1V7.242L21,10.242z M3,8h2v2H3V8z M5,20H3v-2h2V20z M4,16 c-1.103,0-2-0.897-2-2s0.897-2,2-2s2,0.897,2,2S5.103,16,4,16z"></path> <path data-color="color-2" fill="currentColor" d="M11,14l0.586-3.414l9-9c0.78-0.781,2.048-0.781,2.828,0c0.781,0.781,0.781,2.047,0,2.828l-9,9 L11,14z"></path></g></svg>