<svg id="nc_icon" version="1.1" xmlns="http://www.w3.org/2000/svg" xmlns:xlink="http://www.w3.org/1999/xlink" x="0px" y="0px" viewBox="0 0 24 24" xml:space="preserve" ><g class="nc-icon-wrapper" fill="currentColor"><path fill="currentColor" d="M23,6H11c-0.552,0-1-0.448-1-1V3c0-0.552,0.448-1,1-1h12c0.552,0,1,0.448,1,1v2C24,5.552,23.552,6,23,6z"></path> <path fill="currentColor" d="M23,14H11c-0.552,0-1-0.448-1-1v-2c0-0.552,0.448-1,1-1h12c0.552,0,1,0.448,1,1v2C24,13.552,23.552,14,23,14 z"></path> <path fill="currentColor" d="M23,22H11c-0.552,0-1-0.448-1-1v-2c0-0.552,0.448-1,1-1h12c0.552,0,1,0.448,1,1v2C24,21.552,23.552,22,23,22 z"></path> <path data-color="color-2" fill="currentColor" d="M7,18l-7-6l7-6V18z"></path></g></svg>