<svg id="nc_icon" version="1.1" xmlns="http://www.w3.org/2000/svg" xmlns:xlink="http://www.w3.org/1999/xlink" x="0px" y="0px" viewBox="0 0 24 24" xml:space="preserve" ><g class="nc-icon-wrapper" fill="currentColor"><path fill="currentColor" d="M12,6C5.4,6,0,11.4,0,18v3c0,0.6,0.4,1,1,1h22c0.6,0,1-0.4,1-1v-3C24,11.4,18.6,6,12,6z M8.7,13.7l-1,1 C7.5,14.9,7.3,15,7,15s-0.5-0.1-0.7-0.3c-0.4-0.4-0.4-1,0-1.4l1-1c0.4-0.4,1-0.4,1.4,0S9.1,13.3,8.7,13.7z M13.7,17.7 C13.5,17.9,13.3,18,13,18s-0.5-0.1-0.7-0.3l-1-1c-0.4-0.4-0.4-1,0-1.4s1-0.4,1.4,0l1,1C14.1,16.7,14.1,17.3,13.7,17.7z M17,14 c0,0.6-0.4,1-1,1s-1-0.4-1-1v-1c0-0.6,0.4-1,1-1s1,0.4,1,1V14z"></path> <path data-color="color-2" fill="currentColor" d="M12,4c4.4,0,8.3,2,10.8,5.2C22.9,8.8,23,8.4,23,8c0-2.8-2.2-5-5-5c-0.3,0-0.5,0-0.8,0.1 c-1-1.9-3-3.1-5.2-3.1S7.8,1.2,6.8,3.1C6.5,3,6.3,3,6,3C3.2,3,1,5.2,1,8c0,0.4,0.1,0.8,0.2,1.2C3.7,6,7.6,4,12,4z"></path></g></svg>