<svg id="nc_icon" version="1.1" xmlns="http://www.w3.org/2000/svg" xmlns:xlink="http://www.w3.org/1999/xlink" x="0px" y="0px" viewBox="0 0 24 24" xml:space="preserve" ><g class="nc-icon-wrapper" fill="currentColor"><path fill="currentColor" d="M23,2H1C0.448,2,0,2.448,0,3v18c0,0.552,0.448,1,1,1h2.434l2.709-4.515C6.323,17.184,6.649,17,7,17h10 c0.351,0,0.677,0.184,0.857,0.485L20.566,22H23c0.552,0,1-0.448,1-1V3C24,2.448,23.552,2,23,2z M7,12c-1.105,0-2-0.895-2-2 s0.895-2,2-2s2,0.895,2,2S8.105,12,7,12z M17,12c-1.105,0-2-0.895-2-2s0.895-2,2-2s2,0.895,2,2S18.105,12,17,12z"></path></g></svg>