<svg id="nc_icon" version="1.1" xmlns="http://www.w3.org/2000/svg" xmlns:xlink="http://www.w3.org/1999/xlink" x="0px" y="0px" viewBox="0 0 24 24" xml:space="preserve" ><g class="nc-icon-wrapper" fill="currentColor"><circle data-color="color-2" fill="currentColor" cx="19" cy="14" r="3"></circle> <path fill="currentColor" d="M14,14c0-2.7568359,2.2431641-5,5-5c1.4674683,0,2.7762451,0.6472168,3.6917725,1.6575317 c1.8395386-3.1890259,1.7559204-6.8070068-0.3929443-8.9558716c-1.3603516-1.3598633-3.3212891-1.9316406-5.5146484-1.6181641 c-2.0849609,0.300293-4.1445312,1.3774414-5.7988281,3.0322266c-3.1992798,3.1992798-3.9998169,7.6952515-2.0494385,10.5339355 L6.7421265,15.843689c-0.375-0.375-1.0390015-0.374939-1.4140015,0.000061l-4.2421875,4.2426758 c-0.390625,0.390625-0.390625,1.0234375,0,1.4140625L2.5,22.9145508c0.1874905,0.1875,0.4414062,0.2929688,0.7070312,0.2929688 s0.5195312-0.1054688,0.7070312-0.2929688L8.15625,18.671875c0.390625-0.390625,0.390625-1.0234375,0-1.4140625l-0.000061-0.000061 l2.1973877-2.1976318c1.0134888,0.6954956,2.2502441,1.0682983,3.5985718,1.0682983 c0.1699219,0,0.3468018-0.0285645,0.5197144-0.0400391C14.1763916,15.4508057,14,14.7476807,14,14z"></path></g></svg>