<svg id="nc_icon" version="1.1" xmlns="http://www.w3.org/2000/svg" xmlns:xlink="http://www.w3.org/1999/xlink" x="0px" y="0px" viewBox="0 0 24 24" xml:space="preserve" ><g class="nc-icon-wrapper" fill="currentColor"><path fill="currentColor" d="M23,0H1C0.448,0,0,0.448,0,1v6h2c0.334,0,0.647-0.167,0.832-0.445L4.535,4H10v15.382l-3.447,1.724 C6.214,21.275,6,21.621,6,22v2h12v-2c0-0.379-0.214-0.725-0.553-0.895L14,19.382V4h5.465l1.703,2.555C21.353,6.833,21.666,7,22,7h2 V1C24,0.448,23.552,0,23,0z"></path></g></svg>