<svg id="nc_icon" version="1.1" xmlns="http://www.w3.org/2000/svg" xmlns:xlink="http://www.w3.org/1999/xlink" x="0px" y="0px" viewBox="0 0 24 24" xml:space="preserve" ><g class="nc-icon-wrapper" fill="currentColor"><path data-color="color-2" fill="currentColor" d="M9.168,4.555C9.354,4.833,9.666,5,10,5h4c0.334,0,0.646-0.167,0.832-0.445l2-3 c0.205-0.307,0.224-0.701,0.05-1.026C16.708,0.203,16.369,0,16,0H8C7.631,0,7.292,0.203,7.118,0.528 c-0.174,0.325-0.155,0.72,0.05,1.026L9.168,4.555z"></path> <path fill="currentColor" d="M14.958,7.713C14.831,7.29,14.441,7,14,7h-4C9.559,7,9.169,7.29,9.042,7.713l-3,10 c-0.105,0.352-0.009,0.734,0.251,0.994l5,5C11.488,23.902,11.744,24,12,24s0.512-0.098,0.707-0.293l5-5 c0.26-0.26,0.356-0.642,0.251-0.994L14.958,7.713z"></path></g></svg>