<svg id="nc_icon" version="1.1" xmlns="http://www.w3.org/2000/svg" xmlns:xlink="http://www.w3.org/1999/xlink" x="0px" y="0px" viewBox="0 0 24 24" xml:space="preserve" ><g class="nc-icon-wrapper" fill="currentColor"><path fill="currentColor" d="M19,0H5C2.1,0,0,3.9,0,9s2.1,9,5,9h14c2.9,0,5-3.9,5-9S21.9,0,19,0z M5,16c-1.4,0-3-3-3-7s1.6-7,3-7s3,3,3,7 S6.4,16,5,16z"></path> <path data-color="color-2" fill="currentColor" d="M0,16.9V23c0,0.6,0.4,1,1,1h15c0.6,0,1-0.4,1-1v-3H5C3,20,1.2,18.9,0,16.9z"></path> <path data-color="color-2" fill="currentColor" d="M5,11L5,11c0.6,0,1-0.4,1-1V8c0-0.6-0.4-1-1-1l0,0C4.4,7,4,7.4,4,8v2C4,10.6,4.4,11,5,11z"></path></g></svg>