<svg id="nc_icon" version="1.1" xmlns="http://www.w3.org/2000/svg" xmlns:xlink="http://www.w3.org/1999/xlink" x="0px" y="0px" viewBox="0 0 24 24" xml:space="preserve" ><g class="nc-icon-wrapper" fill="currentColor"><path fill="currentColor" d="M23,5c0-2.2-1.8-4-4-4c-0.3,0-1.2,0-4.4,1.1c-1.7,0.5-3.5,0.5-5.1,0C6.2,1,5.3,1,5,1C2.8,1,1,2.8,1,5 c0,1.5,0.8,4.3,1,5.1l-1,10C1,21.7,2.3,23,3.9,23c0.8,0,1.7-0.4,2.4-1.3l3.9-4.6c0.4-0.5,1.1-1.1,1.8-1.1c0.4,0,1,0.1,1.8,1.1 l3.8,4.5c0.7,0.9,1.5,1.3,2.4,1.3c1.6,0,2.9-1.3,2.9-3l-1-9.9C22.2,9.3,23,6.5,23,5z M15.2,8.1c-1.1,0.2-2.1,0.4-3.2,0.4 c-1.1,0-2.2-0.1-3.2-0.4C8.2,8,7.9,7.4,8,6.9C8.2,6.3,8.7,6,9.2,6.1c1.8,0.4,3.7,0.4,5.5,0C15.3,6,15.8,6.3,16,6.9 C16.1,7.4,15.8,8,15.2,8.1z"></path></g></svg>