<svg id="nc_icon" version="1.1" xmlns="http://www.w3.org/2000/svg" xmlns:xlink="http://www.w3.org/1999/xlink" x="0px" y="0px" viewBox="0 0 24 24" xml:space="preserve" ><g class="nc-icon-wrapper" fill="currentColor"><path data-color="color-2" fill="currentColor" d="M4,5H2V1c0-0.553,0.448-1,1-1h4v2H4V5z"></path> <path data-color="color-2" fill="currentColor" d="M20,5h-2V2h-3V0h4c0.552,0,1,0.447,1,1V5z"></path> <path fill="currentColor" d="M21,24l0-11c0-1.105-0.895-2-2-2h-6l0-5.999C13,3.896,12.104,3,11,3h0C9.895,3,9,3.895,9,5v11l-4.228-3.382 c-0.482-0.385-1.126-0.5-1.711-0.305l0,0c-1.074,0.358-1.563,1.601-1.021,2.595L7,24H21z"></path></g></svg>