<svg id="nc_icon" version="1.1" xmlns="http://www.w3.org/2000/svg" xmlns:xlink="http://www.w3.org/1999/xlink" x="0px" y="0px" viewBox="0 0 24 24" xml:space="preserve" ><g class="nc-icon-wrapper" fill="currentColor"><path fill="currentColor" d="M20,4H7V0H3C1.346,0,0,1.346,0,3v1v12c0,2.206,1.794,4,4,4h13v4h4c1.654,0,3-1.346,3-3v-1V8 C24,5.794,22.206,4,20,4z M3,4C2.448,4,2,3.551,2,3s0.448-1,1-1h2v2H3z M7,13H4v-2h3V13z M12,13H9v-2h3V13z M15,15.414L13.586,14 l2-2l-2-2L15,8.586l2,2l2-2L20.414,10l-2,2l2,2L19,15.414l-2-2L15,15.414z M21,22h-2v-2h2c0.552,0,1,0.449,1,1S21.552,22,21,22z"></path></g></svg>