<svg id="nc_icon" version="1.1" xmlns="http://www.w3.org/2000/svg" xmlns:xlink="http://www.w3.org/1999/xlink" x="0px" y="0px" viewBox="0 0 24 24" xml:space="preserve" ><g class="nc-icon-wrapper" fill="currentColor"><path fill="currentColor" d="M4.6,2.2C4.297,1.972,3.891,1.937,3.553,2.105C3.214,2.275,3,2.621,3,3v18c0,0.379,0.214,0.725,0.553,0.895 C3.694,21.965,3.848,22,4,22c0.212,0,0.424-0.067,0.6-0.2l12-9c0.252-0.188,0.4-0.485,0.4-0.8s-0.148-0.611-0.4-0.8L4.6,2.2z"></path> <path data-color="color-2" fill="currentColor" d="M20,2c-0.553,0-1,0.447-1,1v18c0,0.553,0.447,1,1,1s1-0.447,1-1V3C21,2.447,20.553,2,20,2z"></path></g></svg>