<svg id="nc_icon" version="1.1" xmlns="http://www.w3.org/2000/svg" xmlns:xlink="http://www.w3.org/1999/xlink" x="0px" y="0px" viewBox="0 0 24 24" xml:space="preserve" ><g class="nc-icon-wrapper" fill="currentColor"><path fill="currentColor" d="M12.8,3.4c-0.377-0.504-1.223-0.504-1.6,0l-9,12c-0.228,0.303-0.264,0.708-0.095,1.047S2.621,17,3,17h18 c0.007-0.001,0.013,0,0.02,0c0.552,0,1-0.447,1-1c0-0.289-0.123-0.551-0.32-0.733L12.8,3.4z"></path> <path data-color="color-2" fill="currentColor" d="M21,19H3c-0.552,0-1,0.447-1,1s0.448,1,1,1h18c0.552,0,1-0.447,1-1S21.552,19,21,19z"></path></g></svg>