<svg id="nc_icon" version="1.1" xmlns="http://www.w3.org/2000/svg" xmlns:xlink="http://www.w3.org/1999/xlink" x="0px" y="0px" viewBox="0 0 24 24" xml:space="preserve" ><g class="nc-icon-wrapper" fill="currentColor"><path fill="currentColor" d="M8.6,2.2C8.296,1.972,7.891,1.937,7.553,2.105C7.214,2.275,7,2.621,7,3v18c0,0.379,0.214,0.725,0.553,0.895 C7.694,21.965,7.848,22,8,22c0.212,0,0.423-0.067,0.6-0.2l12-9c0.252-0.188,0.4-0.485,0.4-0.8s-0.148-0.611-0.4-0.8L8.6,2.2z"></path> <path data-color="color-2" fill="currentColor" d="M4,2C3.448,2,3,2.447,3,3v18c0,0.553,0.448,1,1,1s1-0.447,1-1V3C5,2.447,4.552,2,4,2z"></path></g></svg>