<svg id="nc_icon" version="1.1" xmlns="http://www.w3.org/2000/svg" xmlns:xlink="http://www.w3.org/1999/xlink" x="0px" y="0px" viewBox="0 0 24 24" xml:space="preserve" ><g class="nc-icon-wrapper" fill="currentColor"><path data-color="color-2" fill="currentColor" d="M22,7h-3v11c0,0.552-0.448,1-1,1H7v3c0,0.552,0.448,1,1,1h14c0.552,0,1-0.448,1-1V8 C23,7.448,22.552,7,22,7z"></path> <path fill="currentColor" d="M16,17H2c-0.553,0-1-0.447-1-1V2c0-0.552,0.447-1,1-1h14c0.553,0,1,0.448,1,1v14C17,16.553,16.553,17,16,17z "></path></g></svg>