<svg id="nc_icon" version="1.1" xmlns="http://www.w3.org/2000/svg" xmlns:xlink="http://www.w3.org/1999/xlink" x="0px" y="0px" viewBox="0 0 24 24" xml:space="preserve" ><g class="nc-icon-wrapper" fill="currentColor"><circle fill="currentColor" cx="19" cy="3" r="3"></circle> <path fill="currentColor" d="M22.2929688,7.2929688l-1.734375,1.734375C20.1967773,9.3876953,19.625,9.418457,19.2265625,9.1010742 l-7.2041016-5.7636719c-1.1948242-0.956543-2.9121094-0.8613281-3.9951172,0.2211914l-1.734375,1.734375 c-0.390625,0.390625-0.390625,1.0234375,0,1.4140625s1.0234375,0.390625,1.4140625,0l1.734375-1.734375 c0.3603516-0.3618164,0.9321289-0.3920898,1.3320312-0.0737305l2.7296753,2.1838989l-3.210144,3.210144 c-0.6381836,0.6381836-0.953125,1.519043-0.8642578,2.4169922S9.9995117,14.409668,10.75,14.9101562l3.046875,2.0625 l-2.59375,3.4233398c-0.3334961,0.4404297-0.2470703,1.0673828,0.1928711,1.4008789 C11.5766602,21.934082,11.7890625,22,11.9990234,22c0.3027344,0,0.6015625-0.1367188,0.7978516-0.3959961l2.578125-3.402832 c0.3491211-0.4365234,0.5-1.0039062,0.4140625-1.5566406c-0.0859375-0.5522461-0.4023438-1.046875-0.8671875-1.3564453 l-3.0625-2.0419922c-0.25-0.1669922-0.4106445-0.434082-0.4404297-0.7333984 c-0.0292969-0.2993164,0.0756836-0.5927734,0.2880859-0.8056641l3.3672485-3.3672485l2.9032593,2.3228149 c0.5512695,0.4414062,1.2133789,0.6586914,1.8735352,0.6586914c0.7709961,0,1.5385742-0.296875,2.121582-0.8798828 l1.734375-1.734375c0.390625-0.390625,0.390625-1.0234375,0-1.4140625S22.6835938,6.9023438,22.2929688,7.2929688z"></path> <path fill="currentColor" d="M6.2929688,14.2929688l-6,6c-0.390625,0.390625-0.390625,1.0234375,0,1.4140625 C0.4882812,21.9023438,0.7441406,22,1,22s0.5117188-0.0976562,0.7070312-0.2929688l6-6 c0.390625-0.390625,0.390625-1.0234375,0-1.4140625S6.6835938,13.9023438,6.2929688,14.2929688z"></path></g></svg>