<svg id="nc_icon" version="1.1" xmlns="http://www.w3.org/2000/svg" xmlns:xlink="http://www.w3.org/1999/xlink" x="0px" y="0px" viewBox="0 0 24 24" xml:space="preserve" ><g class="nc-icon-wrapper" fill="currentColor"><path data-color="color-2" fill="currentColor" d="M9.345,7.369C5.117,8.536,2,12.406,2,17h2c0-4.411,3.589-8,8-8 C10.839,9,9.844,8.334,9.345,7.369z"></path> <path data-color="color-2" fill="currentColor" d="M14.655,7.369C14.156,8.334,13.161,9,12,9c4.411,0,8,3.589,8,8h2 C22,12.406,18.883,8.536,14.655,7.369z"></path> <path data-color="color-2" fill="currentColor" d="M3,7h6.184C9.072,6.686,9,6.353,9,6s0.072-0.686,0.184-1H3C2.448,5,2,5.448,2,6S2.448,7,3,7z "></path> <path data-color="color-2" fill="currentColor" d="M21,7c0.552,0,1-0.448,1-1s-0.448-1-1-1h-6.184C14.928,5.314,15,5.647,15,6 s-0.072,0.686-0.184,1H21z"></path> <circle fill="currentColor" cx="2" cy="6" r="2"></circle> <rect y="4" fill="currentColor" width="4" height="4"></rect> <rect x="20" y="4" fill="currentColor" width="4" height="4"></rect> <path fill="currentColor" d="M12,10c-2.206,0-4-1.794-4-4s1.794-4,4-4s4,1.794,4,4S14.206,10,12,10z M12,4c-1.103,0-2,0.897-2,2 s0.897,2,2,2s2-0.897,2-2S13.103,4,12,4z"></path> <path fill="currentColor" d="M5,22H1c-0.552,0-1-0.448-1-1v-4c0-0.552,0.448-1,1-1h4c0.552,0,1,0.448,1,1v4C6,21.552,5.552,22,5,22z"></path> <path fill="currentColor" d="M23,22h-4c-0.552,0-1-0.448-1-1v-4c0-0.552,0.448-1,1-1h4c0.552,0,1,0.448,1,1v4C24,21.552,23.552,22,23,22z "></path></g></svg>