<svg id="nc_icon" version="1.1" xmlns="http://www.w3.org/2000/svg" xmlns:xlink="http://www.w3.org/1999/xlink" x="0px" y="0px" viewBox="0 0 24 24" xml:space="preserve" ><g class="nc-icon-wrapper" fill="currentColor"><path fill="currentColor" d="M15.8,5.3c0-0.1,0.1-0.2,0.1-0.3H18c0.6,0,1-0.4,1-1s-0.4-1-1-1h-2.1c-0.4-1.7-2-3-3.9-3S8.6,1.3,8.1,3H6 C5.4,3,5,3.4,5,4s0.4,1,1,1h2.1c0,0.1,0.1,0.2,0.1,0.3C6.3,6.1,5,7.9,5,10v10c0,0.6,0.4,1,1,1h3c0,1.7,1.3,3,3,3s3-1.3,3-3h3 c0.6,0,1-0.4,1-1V10C19,7.9,17.7,6,15.8,5.3z M12,2c1.1,0,2,0.9,2,2s-0.9,2-2,2s-2-0.9-2-2S10.9,2,12,2z M13,21c0,0.6-0.4,1-1,1 s-1-0.4-1-1v-5c0-0.6,0.4-1,1-1s1,0.4,1,1V21z"></path></g></svg>