<svg id="nc_icon" version="1.1" xmlns="http://www.w3.org/2000/svg" xmlns:xlink="http://www.w3.org/1999/xlink" x="0px" y="0px" viewBox="0 0 24 24" xml:space="preserve" ><g class="nc-icon-wrapper" fill="currentColor"><path fill="currentColor" d="M23,3h-3.5l-1.4-2.1l-3.3,6.5C14.7,7.8,14.4,8,14,8H8v16h15c0.6,0,1-0.4,1-1V4C24,3.4,23.6,3,23,3z M12,20 h-1c-0.6,0-1-0.4-1-1s0.4-1,1-1h1c0.6,0,1,0.4,1,1S12.6,20,12,20z M12,16h-1c-0.6,0-1-0.4-1-1s0.4-1,1-1h1c0.6,0,1,0.4,1,1 S12.6,16,12,16z M12,12h-1c-0.6,0-1-0.4-1-1s0.4-1,1-1h1c0.6,0,1,0.4,1,1S12.6,12,12,12z"></path> <polygon data-color="color-2" fill="currentColor" points="16.4,0 7.6,0 10.6,6 13.4,6 "></polygon> <path fill="currentColor" d="M6,7c0-0.6,0.4-1,1-1h1.4L5.8,0.9L4.5,3H1C0.4,3,0,3.4,0,4v19c0,0.6,0.4,1,1,1h5V7z"></path></g></svg>