<svg id="nc_icon" version="1.1" xmlns="http://www.w3.org/2000/svg" xmlns:xlink="http://www.w3.org/1999/xlink" x="0px" y="0px" viewBox="0 0 24 24" xml:space="preserve" ><g class="nc-icon-wrapper" fill="currentColor"><path fill="currentColor" d="M7,0C3.1,0,0,3.1,0,7c0,2.3,1.1,4.4,3,5.7V23c0,0.6,0.4,1,1,1h6c0.6,0,1-0.4,1-1V12.7c1.9-1.3,3-3.5,3-5.7 C14,3.1,10.9,0,7,0z M7,11c-2.2,0-4-1.8-4-4s1.8-4,4-4s4,1.8,4,4S9.2,11,7,11z"></path> <path data-color="color-2" fill="currentColor" d="M23,1h-9.3C15.1,2.6,16,4.7,16,7c0,2.6-1.1,5-3,6.7V15h10c0.6,0,1-0.4,1-1V2 C24,1.4,23.6,1,23,1z"></path></g></svg>