<svg id="nc_icon" version="1.1" xmlns="http://www.w3.org/2000/svg" xmlns:xlink="http://www.w3.org/1999/xlink" x="0px" y="0px" viewBox="0 0 24 24" xml:space="preserve" ><g class="nc-icon-wrapper" fill="currentColor"><path data-color="color-2" fill="currentColor" d="M17,5h-2V3H7V1h9c0.552,0,1,0.447,1,1V5z"></path> <path fill="currentColor" d="M23.55,8.165c-0.28-0.186-0.635-0.217-0.944-0.084L17,10.484V7c0-0.553-0.448-1-1-1H1C0.448,6,0,6.447,0,7 v14c0,0.553,0.448,1,1,1h15c0.552,0,1-0.447,1-1v-3.484l5.606,2.403C22.732,19.974,22.866,20,23,20c0.193,0,0.385-0.056,0.55-0.165 C23.831,19.649,24,19.336,24,19V9C24,8.664,23.831,8.351,23.55,8.165z M5,12c-0.552,0-1-0.448-1-1c0-0.552,0.448-1,1-1 c0.552,0,1,0.448,1,1C6,11.552,5.552,12,5,12z"></path></g></svg>