<svg id="nc_icon" version="1.1" xmlns="http://www.w3.org/2000/svg" xmlns:xlink="http://www.w3.org/1999/xlink" x="0px" y="0px" viewBox="0 0 24 24" xml:space="preserve" ><g class="nc-icon-wrapper" fill="currentColor"><path fill="currentColor" d="M14.447,1.105C14.109,0.938,13.703,0.973,13.4,1.2L5.667,7H1C0.447,7,0,7.447,0,8v8c0,0.553,0.447,1,1,1 h4.667l7.733,5.8c0.176,0.133,0.388,0.2,0.6,0.2c0.152,0,0.306-0.035,0.447-0.105C14.786,22.725,15,22.379,15,22V2 C15,1.621,14.786,1.275,14.447,1.105z"></path> <rect data-color="color-2" x="18" y="11" fill="currentColor" width="6" height="2"></rect> <rect data-color="color-2" x="16.392" y="5" transform="matrix(0.8661 -0.4999 0.4999 0.8661 -0.4024 10.4981)" fill="currentColor" width="6" height="2"></rect> <rect data-color="color-2" x="18.392" y="15" transform="matrix(0.5 -0.866 0.866 0.5 -5.8923 25.7943)" fill="currentColor" width="2" height="6"></rect></g></svg>