<svg id="nc_icon" version="1.1" xmlns="http://www.w3.org/2000/svg" xmlns:xlink="http://www.w3.org/1999/xlink" x="0px" y="0px" viewBox="0 0 24 24" xml:space="preserve" ><g class="nc-icon-wrapper" fill="currentColor"><path fill="currentColor" d="M23,3c-0.6,0-1,0.4-1,1v6.4c-0.2,0.3-0.3,0.6-1,0.6V2c0-0.6-0.4-1-1-1H8C7.4,1,7,1.4,7,2v3.4L4.3,8.1 C3.5,8.9,3.4,10.1,3.8,11c-0.6,0-1.2-0.2-1.8-0.5V4c0-0.6-0.4-1-1-1S0,3.4,0,4v18c0,0.6,0.4,1,1,1h22c0.6,0,1-0.4,1-1V4 C24,3.4,23.6,3,23,3z M5.7,9.6l3-3C8.9,6.4,9,6.1,9,5.8V3h10l0,15c0,0.6-0.4,1-1,1h0c-0.6,0-1-0.4-1-1v-5c0-0.6-0.4-1-1-1 s-1,0.4-1,1v5c0,0.6-0.4,1-1,1h0c-0.6,0-1-0.4-1-1v-5c0-0.6-0.4-1-1-1s-1,0.4-1,1v5c0,0.6-0.4,1-1,1h0c-0.6,0-1-0.4-1-1v-7.9 c0-0.4-0.2-0.8-0.6-0.9C8.3,9.1,8.1,9.1,8,9.1c-0.3,0-0.5,0.1-0.7,0.3l-0.9,0.9c-0.1,0.1-0.3,0.1-0.4,0.1c-0.1,0-0.2,0-0.4-0.1 C5.5,10.1,5.5,9.8,5.7,9.6z"></path></g></svg>