<svg id="nc_icon" version="1.1" xmlns="http://www.w3.org/2000/svg" xmlns:xlink="http://www.w3.org/1999/xlink" x="0px" y="0px" viewBox="0 0 24 24" xml:space="preserve" ><g class="nc-icon-wrapper" fill="currentColor"><path data-color="color-2" fill="currentColor" d="M12,0C2,0,2,2.25781,2,3s0,3,10,3s10-2.25781,10-3S22,0,12,0z"></path> <path fill="currentColor" d="M12,8C8.15778,8,4.27045,7.74377,2,6.37189V21c0,0.74219,0,3,10,3s10-2.25781,10-3V6.37189 C19.72955,7.74377,15.84222,8,12,8z M15.70703,17.58594L14.29297,19L12,16.70703L9.70703,19l-1.41406-1.41406l2.29297-2.29297 L8.29297,13l1.41406-1.41406L12,13.87891l2.29297-2.29297L15.70703,13l-2.29297,2.29297L15.70703,17.58594z"></path></g></svg>