<svg id="nc_icon" version="1.1" xmlns="http://www.w3.org/2000/svg" xmlns:xlink="http://www.w3.org/1999/xlink" x="0px" y="0px" viewBox="0 0 24 24" xml:space="preserve" ><g class="nc-icon-wrapper" fill="currentColor"><path fill="currentColor" d="M23,4h-7V1c0-0.55273-0.44775-1-1-1H9C8.44775,0,8,0.44727,8,1v3H1C0.44775,4,0,4.44727,0,5s0.44775,1,1,1h2 v17c0,0.55273,0.44775,1,1,1h16c0.55225,0,1-0.44727,1-1V6h2c0.55225,0,1-0.44727,1-1S23.55225,4,23,4z M10,2h4v2h-4V2z M16.24268,19.24219C15.10938,20.37598,13.60254,21,12,21s-3.10938-0.62402-4.24268-1.75781C6.62402,18.10938,6,16.60254,6,15 s0.62402-3.10938,1.75732-4.24219C8.89062,9.62402,10.39746,9,12,9c1.26355,0,2.46442,0.39325,3.47278,1.11316l1.63269-1.63269 L17.375,13.375l-4.87366-0.29041l1.51129-1.51129c-1.52258-0.85931-3.57318-0.66949-4.84125,0.59857 C8.41602,12.92773,8,13.93164,8,15s0.41602,2.07227,1.17139,2.82812c1.51172,1.51172,4.14551,1.51172,5.65723,0 c0.35693-0.35742,0.63916-0.77051,0.83887-1.22754l1.83301,0.79883C17.20068,18.08789,16.77734,18.70801,16.24268,19.24219z"></path></g></svg>