<svg id="nc_icon" version="1.1" xmlns="http://www.w3.org/2000/svg" xmlns:xlink="http://www.w3.org/1999/xlink" x="0px" y="0px" viewBox="0 0 24 24" xml:space="preserve" ><g class="nc-icon-wrapper" fill="currentColor"><circle fill="currentColor" cx="5" cy="4" r="3"></circle> <path fill="currentColor" d="M7,8H3c-1.657,0-3,1.343-3,3v7h2v4c0,0.552,0.448,1,1,1h4c0.552,0,1-0.448,1-1v-4h2v-7C10,9.343,8.657,8,7,8 z"></path> <circle data-color="color-2" fill="currentColor" cx="17" cy="4" r="3"></circle> <path data-color="color-2" fill="currentColor" d="M19,8h-4c-0.43,0-0.813,0.275-0.949,0.684L10.613,19H14v3c0,0.552,0.448,1,1,1h4 c0.552,0,1-0.448,1-1v-3h3.387L19.949,8.684C19.813,8.275,19.43,8,19,8z"></path></g></svg>