<svg id="nc_icon" version="1.1" xmlns="http://www.w3.org/2000/svg" xmlns:xlink="http://www.w3.org/1999/xlink" x="0px" y="0px" viewBox="0 0 24 24" xml:space="preserve" ><g class="nc-icon-wrapper" fill="currentColor"><path fill="currentColor" d="M21,16.1V13c0-1.7-1.3-3-3-3H8V7h9c0.6,0,1-0.4,1-1s-0.4-1-1-1H8V1c0-0.6-0.4-1-1-1H4C3.4,0,3,0.4,3,1 s0.4,1,1,1h2v8.1c-3.4,0.5-6,3.4-6,6.9c0,3.9,3.1,7,7,7s7-3.1,7-7c0-1.1-0.3-2.1-0.7-3H19v2.1c-1.7,0.4-3,2-3,3.9c0,2.2,1.8,4,4,4 s4-1.8,4-4C24,18.1,22.7,16.6,21,16.1z"></path></g></svg>