<svg id="nc_icon" version="1.1" xmlns="http://www.w3.org/2000/svg" xmlns:xlink="http://www.w3.org/1999/xlink" x="0px" y="0px" viewBox="0 0 24 24" xml:space="preserve" ><g class="nc-icon-wrapper" fill="currentColor"><path fill="currentColor" d="M22,3.8L20.2,2c-0.7-0.7-1.6-1-2.6-1c-1,0.1-1.9,0.6-2.4,1.4l-5,6.8c-0.8,1.1-0.8,2.4-0.3,3.5L6,16.6 c-0.2,0-0.3,0-0.5,0c0,0,0,0,0,0c-1.1,0-2.8,0.5-3.7,1.4C1,18.8,0.9,19.6,1,20.2c0.1,0.6,0.4,1.2,1,1.8c0.7,0.7,1.5,1,2.2,1 c0.7,0,1.3-0.3,1.8-0.8c0.8-0.8,1.2-2.1,1.3-2.6c0.1-0.5,0.2-1.1,0.1-1.7l3.9-3.9c0.5,0.3,1,0.4,1.5,0.4c0.7,0,1.4-0.2,2-0.7l6.8-5 c0.8-0.6,1.3-1.5,1.4-2.4S22.7,4.5,22,3.8z M11.8,10.3l5-6.8C17,3.2,17.4,3,17.8,3c0.4,0,0.8,0.1,1,0.4L19,3.6L11.6,11 C11.6,10.8,11.7,10.6,11.8,10.3z M4.6,20.8c-0.1,0.1-0.5,0.5-1.2-0.2C3.2,20.3,3,20,3,19.8c0-0.1,0-0.2,0.2-0.5 c0.5-0.5,1.7-0.8,2.3-0.8C5.5,19.1,5.2,20.3,4.6,20.8z M20.5,7.2l-6.8,5c-0.2,0.2-0.4,0.2-0.7,0.2L20.4,5l0.2,0.2 c0.3,0.3,0.4,0.6,0.4,1S20.8,7,20.5,7.2z"></path></g></svg>