<svg id="nc_icon" version="1.1" xmlns="http://www.w3.org/2000/svg" xmlns:xlink="http://www.w3.org/1999/xlink" x="0px" y="0px" viewBox="0 0 24 24" xml:space="preserve" ><g class="nc-icon-wrapper" fill="currentColor"><path fill="currentColor" d="M23,5H8.616l6.798-3.09l-0.827-1.82L3.784,5H1C0.448,5,0,5.448,0,6v17c0,0.552,0.448,1,1,1h22 c0.552,0,1-0.448,1-1V6C24,5.448,23.552,5,23,5z M12,20.415l-2.121-2.122l0.707-0.707c0.755-0.755,2.073-0.755,2.828,0l0.707,0.707 L12,20.415z M15.536,16.878l-0.707-0.707c-1.511-1.511-4.146-1.511-5.657,0l-0.707,0.707L7.05,15.464l0.707-0.707 C8.891,13.624,10.397,13,12,13s3.109,0.624,4.243,1.757l0.707,0.707L15.536,16.878z M18.364,14.05l-0.707-0.707 C16.146,11.832,14.137,11,12,11s-4.146,0.832-5.657,2.343L5.636,14.05l-1.414-1.414l0.707-0.707C6.818,10.04,9.329,9,12,9 s5.182,1.04,7.071,2.929l0.707,0.707L18.364,14.05z"></path></g></svg>