<svg id="nc_icon" version="1.1" xmlns="http://www.w3.org/2000/svg" xmlns:xlink="http://www.w3.org/1999/xlink" x="0px" y="0px" viewBox="0 0 24 24" xml:space="preserve" ><g class="nc-icon-wrapper" fill="currentColor"><path data-color="color-2" fill="currentColor" d="M24,4V2c0-0.553-0.448-1-1-1H6v3H24z"></path> <path data-color="color-2" fill="currentColor" d="M4,4V1H1C0.448,1,0,1.447,0,2v2H4z"></path> <path fill="currentColor" d="M0,6v16c0,0.553,0.448,1,1,1h22c0.552,0,1-0.447,1-1V6H0z M7.414,16L6,17.414l-2.707-2.707 c-0.391-0.391-0.391-1.023,0-1.414L6,10.586L7.414,12l-2,2L7.414,16z M14,21h-4V8h4V21z M20.707,14.707L18,17.414L16.586,16l2-2 l-2-2L18,10.586l2.707,2.707C21.098,13.684,21.098,14.316,20.707,14.707z"></path></g></svg>