<svg id="nc_icon" version="1.1" xmlns="http://www.w3.org/2000/svg" xmlns:xlink="http://www.w3.org/1999/xlink" x="0px" y="0px" viewBox="0 0 24 24" xml:space="preserve" ><g class="nc-icon-wrapper" fill="currentColor"><path fill="currentColor" d="M21.9980469,1.9335938c-0.0253906-0.371582-0.2539062-0.6987305-0.5947266-0.8486328 C21.0615234,0.934082,20.6660156,0.9858398,20.375,1.2192383l-4.5126953,3.6108398C15.0791016,4.4960938,13.6396484,4,12,4 S8.9208984,4.4960938,8.1376953,4.8300781L3.625,1.2192383C3.3339844,0.9863281,2.9384766,0.9355469,2.5966797,1.0849609 C2.2558594,1.2348633,2.0273438,1.5620117,2.0019531,1.9335938l-1,15c-0.015625,0.2338867,0.0517578,0.4658203,0.1904297,0.6557617 C1.3721924,17.8364258,5.4429932,23.3250122,11,23.9382324v-4.5241699l-1.7070312-1.7070312 c-0.2861328-0.2861328-0.3720703-0.7158203-0.2167969-1.0898438C9.2304688,16.2436523,9.5957031,16,10,16h4 c0.4042969,0,0.7695312,0.2436523,0.9238281,0.6171875c0.1552734,0.3740234,0.0693359,0.8037109-0.2167969,1.0898438L13,19.4140625 v4.5241699c5.5570068-0.6132202,9.6278076-6.1018066,9.8076172-6.348877 c0.1386719-0.1899414,0.2060547-0.421875,0.1904297-0.6557617L21.9980469,1.9335938z M7.5,13C6.6715698,13,6,12.3284302,6,11.5 S6.6715698,10,7.5,10S9,10.6715698,9,11.5S8.3284302,13,7.5,13z M16.5,13c-0.8284302,0-1.5-0.6715698-1.5-1.5s0.6715698-1.5,1.5-1.5 s1.5,0.6715698,1.5,1.5S17.3284302,13,16.5,13z"></path></g></svg>