<svg id="nc_icon" version="1.1" xmlns="http://www.w3.org/2000/svg" xmlns:xlink="http://www.w3.org/1999/xlink" x="0px" y="0px" viewBox="0 0 24 24" xml:space="preserve" ><g class="nc-icon-wrapper" fill="currentColor"><path fill="currentColor" d="M23.566,13.469c0.002-0.006,0.003-0.012,0.005-0.018l0,0C23.846,12.513,24,11.525,24,10.5 C24,4.71,19.29,0,13.5,0S3,4.71,3,10.5c0,4.967,3.471,9.13,8.112,10.216l0,0c0.006,0.001,0.011,0.003,0.017,0.004c0,0,0,0,0,0 C11.893,20.897,12.684,21,13.5,21C18.258,21,22.281,17.816,23.566,13.469L23.566,13.469z M21.216,14.044 c-3.652-0.319-6.977,1.739-8.434,4.92c-0.696-0.059-1.367-0.202-2.006-0.419c1.755-4.301,6.268-7.072,11.069-6.45 C21.715,12.777,21.5,13.429,21.216,14.044z M20.5,10c-5.051,0-9.584,3.061-11.517,7.688c-0.588-0.371-1.127-0.808-1.606-1.307 c1.012-2.165,2.522-4.011,4.367-5.414c-0.566-0.783-1.05-1.617-1.447-2.492c-1.5,1.285-3.312,2.116-5.279,2.401 C5.013,10.75,5,10.627,5,10.5c0-0.577,0.059-1.14,0.169-1.685c1.668-0.332,3.183-1.148,4.385-2.378 c-0.29-1.024-0.465-2.08-0.526-3.152c0.613-0.382,1.274-0.694,1.978-0.91C11.005,2.417,11,2.458,11,2.5 c0,2.656,0.859,5.239,2.419,7.366c0.595-0.334,1.212-0.629,1.85-0.877C13.82,7.151,13,4.863,13,2.5c0-0.155,0.012-0.316,0.02-0.476 C13.18,2.015,13.338,2,13.5,2c0.518,0,1.023,0.054,1.516,0.143C15.01,2.263,15,2.385,15,2.5c0,2.214,0.839,4.27,2.358,5.853 C18.376,8.126,19.427,8,20.5,8c0.375,0,0.754,0.021,1.138,0.054c0.197,0.654,0.31,1.343,0.343,2.053 C21.474,10.043,20.979,10,20.5,10z"></path> <path data-color="color-2" fill="currentColor" d="M6,24H3c-1.654,0-3-1.346-3-3s1.346-3,3-3h1c0.553,0,1,0.448,1,1s-0.447,1-1,1H3 c-0.552,0-1,0.449-1,1s0.448,1,1,1h3c0.553,0,1,0.448,1,1S6.553,24,6,24z"></path></g></svg>