<svg id="nc_icon" version="1.1" xmlns="http://www.w3.org/2000/svg" xmlns:xlink="http://www.w3.org/1999/xlink" x="0px" y="0px" viewBox="0 0 24 24" xml:space="preserve" ><g class="nc-icon-wrapper" fill="currentColor"><path data-color="color-2" fill="currentColor" d="M16,9.9V12c0,0.6,0.4,1,1,1s1-0.4,1-1V9.9c2.3-0.5,4-2.5,4-4.9c0-2.8-2.2-5-5-5s-5,2.2-5,5 C12,7.4,13.7,9.4,16,9.9z"></path> <path fill="currentColor" d="M22.4,9.4c-0.5,0.6-1,1.1-1.7,1.5c0.2,0.7,0.3,1.4,0.3,2.1c0,1.4-0.3,2.8-0.9,4c-2,1.1-2.9,0.5-3.8-0.2 c-0.6-0.5-1.5-1.1-2.6-0.7c-1.1,0.4-1.9,1.3-2.4,2.4c-0.4,1-0.5,2.3-0.3,3.5c-2-0.2-3.8-1.1-5.1-2.4c0.7-1.5,0.7-3-0.2-4.3 c-0.2-0.4-0.5-0.7-0.8-1c-0.5-0.5-0.3-1.4,0.3-1.7c0.8-0.4,1.7-0.8,2.3-1.6C8.7,9.2,7.3,6.6,7,6.1C6.9,6,6.8,5.9,6.7,5.7 C7.7,5,8.8,4.5,10,4.2c0.1-0.8,0.3-1.5,0.6-2.1C5.2,2.8,1,7.4,1,13c0,6.1,4.9,11,11,11s11-4.9,11-11C23,11.8,22.8,10.6,22.4,9.4z"></path></g></svg>