<svg id="nc_icon" xmlns="http://www.w3.org/2000/svg" xml:space="preserve" viewBox="0 0 24 24"><g fill="currentColor" class="nc-icon-wrapper"><path d="M9 12c-2.761 0-5-3.239-5-6V5a5 5 0 0 1 10 0v1c0 2.761-2.239 6-5 6zM12 15.817c0-.549.061-1.068.171-1.559A20.297 20.297 0 0 0 9 14c-2.824 0-5.329.638-6.974 1.193A2.99 2.99 0 0 0 0 18.032V22h14.916C13.512 20.295 12 17.961 12 15.817z"/><path d="M19 11c-2.458 0-5 1.802-5 4.817 0 2.716 3.869 6.486 4.31 6.907l.69.658.69-.659c.441-.421 4.31-4.191 4.31-6.907C24 12.802 21.458 11 19 11zm0 7a2 2 0 1 1 0-4 2 2 0 0 1 0 4z" data-color="color-2"/></g></svg>
