<svg id="nc_icon" xmlns="http://www.w3.org/2000/svg" xml:space="preserve" viewBox="0 0 24 24"><g fill="currentColor" class="nc-icon-wrapper"><path d="M9.605 16.22c0-1.13-.071-2.418.586-3.618.391-.713 1.074-1.45 2.051-2.212 1.933-1.527 2.754-2.321 2.754-3.955 0-1.816-1.356-2.549-3.179-2.549-1.2 0-2.534.183-4.893 1.348l-1.23-2.578A12.888 12.888 0 0 1 12.066 1c1.914 0 3.433.469 4.556 1.406s1.685 2.231 1.685 3.882c0 1.376-.37 2.483-1.296 3.589-.436.518-1.185 1.191-2.249 2.021-.908.713-1.517 1.304-1.823 1.772-.505.768-.462 1.645-.462 2.549H9.605z"/><circle cx="11" cy="21" r="2" data-color="color-2"/></g></svg>
