<svg id="nc_icon" xmlns="http://www.w3.org/2000/svg" xml:space="preserve" viewBox="0 0 24 24"><g fill="currentColor" class="nc-icon-wrapper"><path d="m16 .586-5 5-2-2L7.586 5 11 8.414 17.414 2z" data-color="color-2"/><path d="M9.884 19.499C9.023 18.815 7.563 18 5.5 18s-3.523.815-4.383 1.498A2.96 2.96 0 0 0 0 21.836V24h11v-2.164c0-.924-.407-1.775-1.116-2.337z"/><circle cx="5.5" cy="13.5" r="3.5"/><path d="M22.884 19.499C22.023 18.815 20.563 18 18.5 18s-3.523.815-4.383 1.498A2.96 2.96 0 0 0 13 21.836V24h11v-2.164c0-.924-.407-1.775-1.116-2.337z"/><circle cx="18.5" cy="13.5" r="3.5"/></g></svg>
