<svg id="nc_icon" xmlns="http://www.w3.org/2000/svg" xml:space="preserve" viewBox="0 0 24 24"><g fill="currentColor" class="nc-icon-wrapper"><path d="M17 15h-3v1c0 .6-.4 1-1 1h-2c-.6 0-1-.4-1-1v-1H7c-1.1 0-2.2-.4-3-1v8c0 .6.4 1 1 1h14c.6 0 1-.4 1-1v-8c-.8.6-1.9 1-3 1z" data-color="color-2"/><path d="M7 13h3v-1c0-.6.4-1 1-1h2c.6 0 1 .4 1 1v1h3c1.7 0 3-1.3 3-3V6c0-2.8-2.2-5-5-5H9C6.2 1 4 3.2 4 6v4c0 1.7 1.3 3 3 3zM22 23h1c.6 0 1-.4 1-1V12c0-1.3-.8-2.4-2-2.8V23zM2 9.2c-1.2.4-2 1.5-2 2.8v10c0 .6.4 1 1 1h1V9.2z"/></g></svg>
