<svg id="nc_icon" xmlns="http://www.w3.org/2000/svg" xml:space="preserve" viewBox="0 0 24 24"><path fill="currentColor" d="M21.9 2.1c-2.3-2.3-6.1-2.3-8.5 0L2.1 13.4c-2.3 2.3-2.3 6.1 0 8.5 1.2 1.2 2.7 1.8 4.2 1.8s3.1-.6 4.2-1.8l11.3-11.3c2.4-2.4 2.4-6.2.1-8.5zM8.8 19.3c-.1 0-.2.1-.3.1-.4 0-.8-.3-.9-.7l-1.4-4.2c-.2-.5.1-1.1.6-1.3.5-.2 1 .1 1.2.6L9.4 18c.2.6-.1 1.1-.6 1.3zm4.2-4.2c-.1 0-.2.1-.3.1-.4 0-.8-.3-.9-.7l-1.4-4.2c-.2-.5.1-1.1.6-1.3.5-.2 1.1.1 1.3.6l1.4 4.2c.1.5-.2 1.1-.7 1.3zm4.3-4.3c-.1 0-.2.1-.3.1-.4 0-.8-.3-.9-.7L14.6 6c-.2-.5.1-1.1.6-1.3.5-.2 1.1.1 1.3.6l1.4 4.2c.2.6-.1 1.2-.6 1.3z" class="nc-icon-wrapper"/></svg>
