<svg id="nc_icon" xmlns="http://www.w3.org/2000/svg" xml:space="preserve" viewBox="0 0 24 24"><g fill="currentColor" class="nc-icon-wrapper"><path d="M12 0C5.383 0 0 5.383 0 12s5.383 12 12 12 12-5.383 12-12S18.617 0 12 0zM9.997 21.798 8.694 17.57c-.131-.425-.548-.728-.971-.705l-4.412.067a9.917 9.917 0 0 1-1.245-3.812l3.613-2.542a1 1 0 0 0 .371-1.142L4.627 5.268a10.034 10.034 0 0 1 3.244-2.365L11.4 5.55a.995.995 0 0 0 1.2 0l3.529-2.647a10.024 10.024 0 0 1 3.244 2.365l-1.425 4.168a1 1 0 0 0 .371 1.142l3.613 2.542a9.912 9.912 0 0 1-1.245 3.812l-4.412-.067a.983.983 0 0 0-.971.705l-1.303 4.228a9.986 9.986 0 0 1-4.004 0z"/><path d="m14.895 15.447 2-4a1 1 0 0 0-.294-1.247l-4-3a.996.996 0 0 0-1.2 0l-4 3a1 1 0 0 0-.294 1.247l2 4A.996.996 0 0 0 10 16h4c.379 0 .725-.214.895-.553z" data-color="color-2"/></g></svg>
