<svg id="nc_icon" xmlns="http://www.w3.org/2000/svg" xml:space="preserve" viewBox="0 0 24 24"><g fill="currentColor" class="nc-icon-wrapper"><path d="M12 5c.6 0 1-.4 1-1V1c0-.6-.4-1-1-1s-1 .4-1 1v3c0 .6.4 1 1 1zM8 7c.6 0 1-.4 1-1V3c0-.6-.4-1-1-1s-1 .4-1 1v3c0 .6.4 1 1 1zM16 7c.6 0 1-.4 1-1V3c0-.6-.4-1-1-1s-1 .4-1 1v3c0 .6.4 1 1 1zM22 9H2c-.6 0-1 .4-1 1v1h22v-1c0-.6-.4-1-1-1z" data-color="color-2"/><path d="m6.6 19.6-1.5 3 1.8.9 1.5-3.1c1.1.4 2.3.6 3.6.6 1.3 0 2.5-.2 3.6-.6l1.5 3.1 1.8-.9-1.5-3c2.5-1.4 4.4-3.8 5.2-6.6H1.4c.8 2.8 2.7 5.2 5.2 6.6z"/></g></svg>
