<svg id="nc_icon" xmlns="http://www.w3.org/2000/svg" xml:space="preserve" viewBox="0 0 24 24"><g fill="currentColor" class="nc-icon-wrapper"><path d="M23 7h-3.42L15.868.504a.999.999 0 1 0-1.736.992L17.277 7H6.723l3.145-5.504A1 1 0 0 0 8.132.504L4.42 7H1a1 1 0 0 0-1 1v2a1 1 0 0 0 1 1h22a1 1 0 0 0 1-1V8a1 1 0 0 0-1-1z" data-color="color-2"/><path d="M16 21c0-3.151 2.887-5.531 6-4.899V13H2v10a1 1 0 0 0 1 1h14.023A4.956 4.956 0 0 1 16 21z"/><path d="M24 20h-2v-2h-2v2h-2v2h2v2h2v-2h2z" data-color="color-2"/></g></svg>
