<svg id="nc_icon" xmlns="http://www.w3.org/2000/svg" xml:space="preserve" viewBox="0 0 24 24"><g fill="currentColor" class="nc-icon-wrapper"><path d="M23 6h-3.991L15.868.504a1 1 0 1 0-1.736.992L16.705 6H7.294l2.574-4.504A1 1 0 0 0 8.132.504L4.991 6H1a1 1 0 0 0-1 1v3a1 1 0 0 0 1 1h1v11a1 1 0 0 0 1 1h10v-2H4V11h19a1 1 0 0 0 1-1V7a1 1 0 0 0-1-1z"/><path d="M19 16.24a2.7 2.7 0 0 0-4.201-.428 2.803 2.803 0 0 0 0 3.919L19 24l4.202-4.269a2.803 2.803 0 0 0 0-3.919A2.702 2.702 0 0 0 19 16.24z" data-color="color-2"/></g></svg>
