<svg id="nc_icon" xmlns="http://www.w3.org/2000/svg" xml:space="preserve" viewBox="0 0 24 24"><g fill="currentColor" class="nc-icon-wrapper"><path d="M23 6h-3.991L15.868.504a1 1 0 0 0-1.736.992L16.705 6H7.294l2.574-4.504A1 1 0 0 0 8.132.504L4.991 6H1a1 1 0 0 0-1 1v3a1 1 0 0 0 1 1h1v11a1 1 0 0 0 1 1h9v-2H4V11h19a1 1 0 0 0 1-1V7a1 1 0 0 0-1-1z"/><path d="M22 18c0-2.206-1.794-4-4-4s-4 1.794-4 4 1.794 4 4 4c.74 0 1.424-.215 2.019-.567l2.274 2.274 1.414-1.414-2.274-2.274A3.947 3.947 0 0 0 22 18zm-4 2c-1.103 0-2-.897-2-2s.897-2 2-2 2 .897 2 2-.897 2-2 2z" data-color="color-2"/></g></svg>
