<svg id="nc_icon" xmlns="http://www.w3.org/2000/svg" xml:space="preserve" viewBox="0 0 24 24"><path fill="currentColor" d="M19.6 2.201 18.006 1l-.006 1.997A4.004 4.004 0 0 1 15 6.847V3l-2 2h-2L9 3v3.847a4.004 4.004 0 0 1-2.999-3.85L5.995 1 4.4 2.201C1.604 4.305 0 7.507 0 10.987c0 2.001.554 3.971 1.603 5.698l.566.933.88-.646A4.953 4.953 0 0 1 6 16c1.795 0 4.215 3.67 5.105 5.448L12 23.23l.895-1.783C13.785 19.67 16.205 16 18 16c1.065 0 2.086.336 2.951.972l.88.646.566-.933A10.973 10.973 0 0 0 24 10.987c0-3.48-1.604-6.682-4.4-8.786z" class="nc-icon-wrapper"/></svg>
