<svg id="nc_icon" xmlns="http://www.w3.org/2000/svg" xml:space="preserve" viewBox="0 0 24 24"><g fill="currentColor" class="nc-icon-wrapper"><path d="M5 2H1a1 1 0 0 0-1 1v18a1 1 0 0 0 1 1h4a1 1 0 0 0 1-1V3a1 1 0 0 0-1-1z"/><path d="M13 2H9a1 1 0 0 0-1 1v18a1 1 0 0 0 1 1h4a1 1 0 0 0 1-1V3a1 1 0 0 0-1-1z" data-color="color-2"/><path d="M23.972 19.823 19.736 2.329a.998.998 0 0 0-1.207-.736l-3.888.94a.998.998 0 0 0-.737 1.207l4.235 17.495a.998.998 0 0 0 1.208.737l3.888-.941c.537-.131.867-.671.737-1.208z"/></g></svg>
