<svg id="nc_icon" xmlns="http://www.w3.org/2000/svg" xml:space="preserve" viewBox="0 0 24 24"><g fill="currentColor" class="nc-icon-wrapper"><path d="M11 2.691 1.263.035a1.013 1.013 0 0 0-.87.17C.146.395 0 .688 0 1v15a1 1 0 0 0 .737.965L11 19.764V2.691zM23.607.205a1.012 1.012 0 0 0-.87-.17L13 2.691v17.073l10.263-2.799A1 1 0 0 0 24 16V1c0-.312-.146-.605-.393-.795z"/><path d="m23.788 18.895-10.999 3a3.042 3.042 0 0 1-1.578 0l-11-3c-.073-.02-.14-.052-.211-.077V23a1 1 0 0 0 1 1h22a1 1 0 0 0 1-1v-4.183c-.071.026-.138.058-.212.078z" data-color="color-2"/></g></svg>
