<svg id="nc_icon" xmlns="http://www.w3.org/2000/svg" xml:space="preserve" viewBox="0 0 24 24"><g fill="currentColor" class="nc-icon-wrapper"><path d="M16 17.5c-1.5 1-3.2 1.5-5 1.5-1.1 0-2.1-.2-3-.5C9 21.1 9 23 9 23c0 .3.1.5.3.7.2.2.4.3.7.3h4c.3 0 .6-.1.8-.3.2-.2.3-.5.2-.8 0-.1-.4-2.8 1-5.4z" data-color="color-2"/><path d="M19.8 5.1C19.2 2.7 17 1 14.5 1c-1.1 0-2.2.3-3.1 1C10.3.7 8.7 0 7 0 3.7 0 1 2.7 1 6c0 .4 0 .8.1 1.2C.4 8 0 9 0 10c0 2.2 1.8 4 4 4 .4 0 .8-.1 1.1-.2 1.3 2 3.5 3.2 5.9 3.2 2.2 0 4.2-1 5.5-2.7.8.4 1.6.7 2.5.7 2.8 0 5-2.2 5-5 0-2.5-1.8-4.6-4.2-4.9z"/></g></svg>
