<svg id="nc_icon" xmlns="http://www.w3.org/2000/svg" xml:space="preserve" viewBox="0 0 24 24"><g fill="currentColor" class="nc-icon-wrapper"><circle cx="12" cy="12" r="4" data-color="color-2"/><path d="M6.302 10.131C7.09 7.735 9.344 6 12 6h10.252c-2.079-3.581-5.946-6-10.377-6C8.27 0 5.039 1.605 2.838 4.13l3.464 6.001zM13.228 17.873a5.998 5.998 0 0 1-6.418-2.876L6.804 15l-5.25-9.092A11.916 11.916 0 0 0-.125 12c0 5.909 4.296 10.821 9.926 11.808l3.427-5.935zM16.46 8a5.955 5.955 0 0 1 .73 6.997l.006.003-5.192 8.993c6.557-.07 11.871-5.42 11.871-11.993 0-1.404-.255-2.747-.7-4H16.46z"/></g></svg>
