<svg id="nc_icon" xmlns="http://www.w3.org/2000/svg" xml:space="preserve" viewBox="0 0 24 24"><path fill="currentColor" d="m21.548 16.562-4.708-2.837c1.221-1.437 1.993-3.474 2.136-5.899.226-3.831-2.569-7.492-6.394-7.802C8.461-.311 5 2.948 5 7c0 2.789.803 5.128 2.16 6.726L2.456 16.56A3.007 3.007 0 0 0 1 19.137V23a1 1 0 0 0 1 1h7l2-7h2l2 7h7a1 1 0 0 0 1-1v-3.867a3.002 3.002 0 0 0-1.452-2.571zM12 14c-2.69 0-4.634-2.408-4.95-5.968.315.041.628.073.935.073a7.924 7.924 0 0 0 5-1.757 7.917 7.917 0 0 0 3.964 1.682C16.634 11.591 14.691 14 12 14z" class="nc-icon-wrapper"/></svg>
