<svg id="nc_icon" xmlns="http://www.w3.org/2000/svg" xml:space="preserve" viewBox="0 0 24 24"><path fill="currentColor" d="M23 3h-4V1c0-.6-.4-1-1-1H6c-.6 0-1 .4-1 1v2H1c-.6 0-1 .4-1 1v19c0 .6.4 1 1 1h5.4l3.7-8.4c.2-.4.5-.6.9-.6h2c.4 0 .8.2.9.6l3.7 8.4H23c.6 0 1-.4 1-1V4c0-.6-.4-1-1-1zM7 7.2V3.1l3.3 2.8-2.5 1.7c-.4.2-.8 0-.8-.4zm8.5 3-1.7 2.4c-.2.2-.5.4-.8.4h-2c-.3 0-.6-.2-.8-.4l-1.7-2.4c-.2-.2-.2-.6.1-.7l3.1-2.1c.2-.1.4-.1.6 0l3.1 2.1c.3.1.3.5.1.7zm1.5-3c0 .4-.4.6-.8.4l-2.6-1.7L17 3.1v4.1z" class="nc-icon-wrapper"/></svg>
