<svg id="nc_icon" xmlns="http://www.w3.org/2000/svg" xml:space="preserve" viewBox="0 0 24 24"><path fill="currentColor" d="M23 9h-4.323l-1.748-4.372A1.002 1.002 0 0 0 16 4H6c-.409 0-.776.249-.929.628L3.323 9H1a1 1 0 0 0-1 1v6a1 1 0 0 0 1 1h1.051c.245 1.692 1.691 3 3.449 3s3.204-1.308 3.449-3h6.101c.245 1.692 1.691 3 3.449 3s3.204-1.308 3.449-3H23a1 1 0 0 0 1-1v-6a1 1 0 0 0-1-1zM12 6h3.323l1.2 3H12V6zM6.677 6H10v3H5.477l1.2-3zM5.5 18c-.827 0-1.5-.673-1.5-1.5S4.673 15 5.5 15s1.5.673 1.5 1.5S6.327 18 5.5 18zm13 0c-.827 0-1.5-.673-1.5-1.5s.673-1.5 1.5-1.5 1.5.673 1.5 1.5-.673 1.5-1.5 1.5z" class="nc-icon-wrapper"/></svg>
