<svg id="nc_icon" xmlns="http://www.w3.org/2000/svg" xml:space="preserve" viewBox="0 0 24 24"><g fill="currentColor" class="nc-icon-wrapper"><path d="M10 3.125C10 1.938 12 0 12 0s2 1.938 2 3.125A1.906 1.906 0 0 1 12 5a1.906 1.906 0 0 1-2-1.875ZM2 3.125C2 1.938 4 0 4 0s2 1.938 2 3.125A1.906 1.906 0 0 1 4 5a1.906 1.906 0 0 1-2-1.875ZM18 3.125C18 1.938 20 0 20 0s2 1.938 2 3.125a2 2 0 0 1-4 0Z" data-color="color-2"/><circle cx="6" cy="18" r="1"/><circle cx="18" cy="18" r="1"/><path d="m22.414 16-1.54-1.54-1.7-5.093A2 2 0 0 0 17.279 8H6.721a2 2 0 0 0-1.9 1.367l-1.7 5.093L1.586 16A2.012 2.012 0 0 0 1 17.414V23a1 1 0 0 0 1 1h3a1 1 0 0 0 1-1v-1h12v1a1 1 0 0 0 1 1h3a1 1 0 0 0 1-1v-5.586A2.012 2.012 0 0 0 22.414 16ZM6.721 10h10.558l1.333 4H5.388ZM21 20H3v-2.586L4.414 16h15.172L21 17.414Z"/></g></svg>
