<svg id="nc_icon" xmlns="http://www.w3.org/2000/svg" xml:space="preserve" viewBox="0 0 24 24"><g fill="currentColor" class="nc-icon-wrapper"><path d="M9 0h6v3H9zM2 21v2a1 1 0 0 0 1 1h4a1 1 0 0 0 1-1v-2H2z" data-color="color-2"/><path d="M1 20h22a1 1 0 0 0 1-1v-6a.997.997 0 0 0-.293-.707l-1.833-1.833-1.925-5.776A1 1 0 0 0 19 4H5a.998.998 0 0 0-.948.684L2.127 10.46.294 12.293A.994.994 0 0 0 0 13v6a1 1 0 0 0 1 1zm20-4.5a1.5 1.5 0 1 1-3.001-.001A1.5 1.5 0 0 1 21 15.5zM5.721 6H18.28l1.334 4H4.387l1.334-4zM4.5 14a1.5 1.5 0 1 1-.001 3.001A1.5 1.5 0 0 1 4.5 14z"/><path d="M16 21v2a1 1 0 0 0 1 1h4a1 1 0 0 0 1-1v-2h-6z" data-color="color-2"/></g></svg>
