<svg id="nc_icon" xmlns="http://www.w3.org/2000/svg" xml:space="preserve" viewBox="0 0 24 24"><g fill="currentColor" class="nc-icon-wrapper"><path d="M21 0H3C1.346 0 0 1.346 0 3v13c0 1.654 1.346 3 3 3h7v-2H3c-.552 0-1-.449-1-1v-5h22V3c0-1.654-1.346-3-3-3zM2 5V3c0-.551.448-1 1-1h18c.552 0 1 .449 1 1v2H2z"/><path d="M18 13a5 5 0 0 0-4.843 3.75l1.938.499a2.997 2.997 0 0 1 5.036-1.356l-1.608 1.168 4.269.939.428-4.351-1.466 1.065A5.01 5.01 0 0 0 18 13zM18 22a3.009 3.009 0 0 1-2.131-.893l1.608-1.168L13.208 19l-.428 4.351 1.466-1.065A5.01 5.01 0 0 0 18 24a5 5 0 0 0 4.843-3.75l-1.938-.499A2.997 2.997 0 0 1 18 22z" data-color="color-2"/></g></svg>
