<svg id="nc_icon" xmlns="http://www.w3.org/2000/svg" xml:space="preserve" viewBox="0 0 24 24"><path fill="currentColor" d="M21.302 19.182C22.885 18.15 24 16.54 24 14c0-2.197-.785-3.57-2-5.315V5c0-2.784-7.654-3-10-3S2 2.216 2 5v3.685C.785 10.429 0 11.803 0 14c0 2.54 1.115 4.15 2.698 5.182L1.17 21.44a1 1 0 0 0 1.658 1.12l1.683-2.491C7.094 20.994 10.171 21 12 21s4.906-.006 7.488-.931l1.683 2.491a1 1 0 0 0 1.658-1.12l-1.527-2.258zM12 4c3.938 0 6.556.556 7.607.996-.475.202-1.335.463-2.754.674a1 1 0 0 0-.853.99V12c0 .551-.449 1-1 1s-1-.449-1-1V6.987a1 1 0 0 0-1-1h-.024c-3.058.075-7.294-.346-8.662-.957C5.308 4.586 7.959 4 12 4z" class="nc-icon-wrapper"/></svg>
