<svg id="nc_icon" xmlns="http://www.w3.org/2000/svg" xml:space="preserve" viewBox="0 0 24 24"><g fill="currentColor" class="nc-icon-wrapper"><path d="M10 4c0-2.2-1.8-4-4-4S2 1.8 2 4s1.8 4 4 4 4-1.8 4-4zM6 6c-1.1 0-2-.9-2-2s.9-2 2-2 2 .9 2 2-.9 2-2 2z" data-color="color-2"/><path d="M19.4 21.1c-1 .6-2.2.9-3.4.9-3.9 0-7-3.1-7-7s3.1-7 7-7c1.2 0 2.4.3 3.5.9.5.3 1.1.1 1.4-.3.3-.5.1-1.1-.4-1.4C19.1 6.4 17.6 6 16 6c-5 0-9 4-9 9s4 9 9 9c1.5 0 3-.4 4.4-1.1.5-.3.7-.9.4-1.4-.3-.5-.9-.6-1.4-.4z"/></g></svg>
