<svg id="nc_icon" xmlns="http://www.w3.org/2000/svg" xml:space="preserve" viewBox="0 0 24 24"><g fill="currentColor" class="nc-icon-wrapper"><path d="M19.892 7.08C19.184 2.989 15.712 0 11.5 0 7.277 0 3.634 3.239 3.067 7.353 1.253 8.099 0 9.946 0 12c0 2.757 2.243 5 5 5h2v-3a1 1 0 1 1 2 0v3h6v-3a1 1 0 1 1 2 0v3h2c2.757 0 5-2.243 5-5a5.007 5.007 0 0 0-4.108-4.92z"/><circle cx="12" cy="22" r="1" data-color="color-2"/><circle cx="8" cy="20" r="1" data-color="color-2"/><circle cx="16" cy="20" r="1" data-color="color-2"/></g></svg>
