<svg id="nc_icon" xmlns="http://www.w3.org/2000/svg" xml:space="preserve" viewBox="0 0 24 24"><path fill="currentColor" d="M19 15h-2V9h2c2.2 0 4-1.8 4-4s-1.8-4-4-4-4 1.8-4 4v2H9V5c0-2.2-1.8-4-4-4S1 2.8 1 5s1.8 4 4 4h2v6H5c-2.2 0-4 1.8-4 4s1.8 4 4 4 4-1.8 4-4v-2h6v2c0 2.2 1.8 4 4 4s4-1.8 4-4-1.8-4-4-4zM17 5c0-1.1.9-2 2-2s2 .9 2 2-.9 2-2 2h-2V5zM3 5c0-1.1.9-2 2-2s2 .9 2 2v2H5c-1.1 0-2-.9-2-2zm4 14c0 1.1-.9 2-2 2s-2-.9-2-2 .9-2 2-2h2v2zM9 9h6v6H9V9zm10 12c-1.1 0-2-.9-2-2v-2h2c1.1 0 2 .9 2 2s-.9 2-2 2z" class="nc-icon-wrapper"/></svg>
