<svg id="nc_icon" xmlns="http://www.w3.org/2000/svg" xml:space="preserve" viewBox="0 0 24 24"><g fill="currentColor" class="nc-icon-wrapper"><path d="M9.878 15.121c.567.567 1.321.879 2.122.879s1.555-.312 2.121-.878c.567-.567.879-1.321.879-2.122s-.312-1.555-.879-2.122c-.808-.808-6.307-4.108-7.973-5.101l-3.391-2.02 2.021 3.391c.992 1.666 4.294 7.167 5.1 7.973z" data-color="color-2"/><circle cx="12" cy="3" r="3"/><path d="m17.505 3.475-.522-.303a4.935 4.935 0 0 1-.509 2.016l.029.017A9.036 9.036 0 0 1 21 13c0 4.962-4.038 9-9 9s-9-4.038-9-9v-1H1v1c0 6.065 4.935 11 11 11s11-4.935 11-11c0-3.913-2.105-7.563-5.495-9.525z"/></g></svg>
