<svg id="nc_icon" xmlns="http://www.w3.org/2000/svg" xml:space="preserve" viewBox="0 0 24 24"><g fill="currentColor" class="nc-icon-wrapper"><path d="M24 3c0-1.654-1.346-3-3-3H3C1.346 0 0 1.346 0 3v12c0 1.654 1.346 3 3 3h7v-2H3c-.552 0-1-.449-1-1V8h20v5h2M2 4V3c0-.551.448-1 1-1h18c.552 0 1 .449 1 1v1H2z"/><path d="M21 15h-1v-1c0-1.654-1.346-3-3-3s-3 1.346-3 3v1h-1a1 1 0 0 0-1 1v7a1 1 0 0 0 1 1h8a1 1 0 0 0 1-1v-7a1 1 0 0 0-1-1zm-3 6h-2v-3h2v3zm0-6h-2v-1a1.001 1.001 0 0 1 2 0v1z" data-color="color-2"/><path d="M4 12h5v2H4z"/></g></svg>
