<svg id="nc_icon" xmlns="http://www.w3.org/2000/svg" xml:space="preserve" viewBox="0 0 24 24"><g fill="currentColor" class="nc-icon-wrapper"><circle cx="18" cy="13" r="3" data-color="color-2"/><path d="M13 13c0-2.757 2.243-5 5-5a4.97 4.97 0 0 1 2.798.859l2.116-2.116a2 2 0 0 0 0-2.829l-2.828-2.828a2 2 0 0 0-2.829 0L5.136 13.207c-1.414 1.414-.044 2.873-1.414 4.243l-3.43 3.429a1 1 0 0 0 0 1.414l1.415 1.414a1 1 0 0 0 1.414 0l3.43-3.429c1.37-1.37 2.872-.044 4.242-1.414l3.064-3.068A4.97 4.97 0 0 1 13 13z"/></g></svg>
