<svg id="nc_icon" xmlns="http://www.w3.org/2000/svg" xml:space="preserve" viewBox="0 0 24 24"><g fill="currentColor" class="nc-icon-wrapper"><path d="M24 11h-2.051c-.47-4.717-4.232-8.479-8.949-8.949V0h-2v2.051C6.283 2.521 2.521 6.283 2.051 11H0v2h2.051c.471 4.717 4.232 8.479 8.949 8.949V24h2v-2.051c4.717-.471 8.479-4.232 8.949-8.949H24v-2zm-11 8.931V18h-2v1.931A8.008 8.008 0 0 1 4.069 13H6v-2H4.069A8.008 8.008 0 0 1 11 4.069V6h2V4.069A8.007 8.007 0 0 1 19.931 11H18v2h1.931A8.008 8.008 0 0 1 13 19.931z"/><circle cx="12" cy="12" r="2" data-color="color-2"/></g></svg>
