<svg id="nc_icon" xmlns="http://www.w3.org/2000/svg" xml:space="preserve" viewBox="0 0 24 24"><g fill="currentColor" class="nc-icon-wrapper"><path d="M5 14a5 5 0 1 0 5 5 5.006 5.006 0 0 0-5-5Zm0 8a3 3 0 1 1 3-3 3 3 0 0 1-3 3ZM19 14a5 5 0 1 0 5 5 5.006 5.006 0 0 0-5-5Zm0 8a3 3 0 1 1 3-3 3 3 0 0 1-3 3Z" data-color="color-2"/><circle cx="16.5" cy="3.5" r="2.5"/><path d="M16.293 11.707A1 1 0 0 0 17 12h4v-2h-3.586l-3-3a2 2 0 0 0-2.828 0l-3.478 3.478a2 2 0 0 0 .214 3.014L11 15.5V21h2v-6a1 1 0 0 0-.4-.8l-3.078-2.308L13 8.414Z"/></g></svg>
