<svg id="nc_icon" xmlns="http://www.w3.org/2000/svg" xml:space="preserve" viewBox="0 0 24 24"><path fill="currentColor" d="M12 0C5.383 0 0 5.383 0 12s5.383 12 12 12 12-5.383 12-12S18.617 0 12 0zM5 12a1 1 0 1 1-2 0c0-1.387.325-2.696.887-3.871l1.526 1.526A6.936 6.936 0 0 0 5 12zm7 3c-1.654 0-3-1.346-3-3 0-.462.113-.894.3-1.285L5.086 6.5 6.5 5.086l4.214 4.215A2.973 2.973 0 0 1 12 9c1.654 0 3 1.346 3 3s-1.346 3-3 3zm8-2a1 1 0 0 1-1-1c0-3.86-3.141-7-7-7-.823 0-1.61.15-2.345.413L8.13 3.887A8.92 8.92 0 0 1 12 3c4.963 0 9 4.038 9 9a1 1 0 0 1-1 1z" class="nc-icon-wrapper"/></svg>
