<svg id="nc_icon" xmlns="http://www.w3.org/2000/svg" xml:space="preserve" viewBox="0 0 24 24"><g fill="currentColor" class="nc-icon-wrapper"><path d="M13 12.09V1a1 1 0 0 0-2 0v11.09c-2.833.479-5 2.943-5 5.91 0 3.309 2.691 6 6 6s6-2.691 6-6c0-2.967-2.167-5.431-5-5.91z"/><path d="M8.707 8.293 6 5.586V1a1 1 0 0 0-2 0v4.586L1.293 8.293a1 1 0 0 0 0 1.414l3 3a.997.997 0 0 0 1.414 0l3-3a1 1 0 0 0 0-1.414zM22.707 8.293 20 5.586V1a1 1 0 0 0-2 0v4.586l-2.707 2.707a1 1 0 0 0 0 1.414l3 3a.997.997 0 0 0 1.414 0l3-3a1 1 0 0 0 0-1.414z" data-color="color-2"/></g></svg>
