<svg id="nc_icon" xmlns="http://www.w3.org/2000/svg" xml:space="preserve" viewBox="0 0 24 24"><path fill="currentColor" d="M23 2H1a1 1 0 0 0-1 1v18a1 1 0 0 0 1 1h22a1 1 0 0 0 1-1V3a1 1 0 0 0-1-1zM8.207 15.207l-2.5 2.5a.997.997 0 0 1-1.414 0 .999.999 0 0 1 0-1.414l2.5-2.5 1.414 1.414zm11.5 2.5a.997.997 0 0 1-1.414 0l-2.5-2.5 1.414-1.414 2.5 2.5a.999.999 0 0 1 0 1.414zm0-10-7 7a.997.997 0 0 1-1.414 0l-7-7a.999.999 0 1 1 1.414-1.414L12 12.586l6.293-6.293a.999.999 0 1 1 1.414 1.414z" class="nc-icon-wrapper"/></svg>
