<svg id="nc_icon" xmlns="http://www.w3.org/2000/svg" xml:space="preserve" viewBox="0 0 24 24"><g fill="currentColor" class="nc-icon-wrapper"><path d="M3 0h18v4H3z" data-color="color-2"/><path d="M20.3 6.488c-.24-.18-.44-.338-.62-.488H4.32c-.18.15-.38.308-.62.488C2.56 7.344 1 8.516 1 10.87V21c0 1.654 1.346 3 3 3h16c1.654 0 3-1.346 3-3V10.87c0-2.354-1.56-3.526-2.7-4.382zm-8.593 12.219a.997.997 0 0 1-1.414 0 1 1 0 0 1 0-1.414L11.586 16h-4l4.707-4.707a1 1 0 1 1 1.414 1.414L12.414 14h4l-4.707 4.707z"/></g></svg>
