<svg id="nc_icon" xmlns="http://www.w3.org/2000/svg" xml:space="preserve" viewBox="0 0 24 24"><g fill="currentColor" class="nc-icon-wrapper"><path d="M5 12c0 3.9 3.1 7 7 7s7-3.1 7-7-3.1-7-7-7-7 3.1-7 7zm12 0c0 2.8-2.2 5-5 5s-5-2.2-5-5 2.2-5 5-5 5 2.2 5 5z"/><circle cx="12" cy="12" r="2" data-color="color-2"/><circle cx="20" cy="4" r="3"/><path d="M23.2 7.8c-.5.4-1.1.8-1.8 1 .4 1 .5 2.1.5 3.2 0 5.5-4.5 10-10 10S2 17.5 2 12 6.5 2 12 2c1.1 0 2.2.2 3.2.5.2-.7.5-1.3 1-1.8C14.9.3 13.5 0 12 0 5.4 0 0 5.4 0 12s5.4 12 12 12 12-5.4 12-12c0-1.5-.3-2.9-.8-4.2z" data-color="color-2"/></g></svg>
