<svg id="nc_icon" xmlns="http://www.w3.org/2000/svg" xml:space="preserve" viewBox="0 0 24 24"><g fill="currentColor" class="nc-icon-wrapper"><path d="m20.201 8.041-4.228 4.228a3.981 3.981 0 0 1-3.703 3.703l-3.439 3.439A9.108 9.108 0 0 0 12 20c6.473 0 10.69-7.195 10.866-7.501a.996.996 0 0 0 .002-.995c-.081-.142-1.032-1.764-2.667-3.463zM5.647 17.624c.97-1.015 2.039-2.115 3.153-3.249A3.96 3.96 0 0 1 8 12c0-2.206 1.794-4 4-4a3.96 3.96 0 0 1 2.375.8 336.506 336.506 0 0 1 3.122-3.031C15.941 4.748 14.092 4 12 4 5.461 4 1.304 11.2 1.13 11.507a1 1 0 0 0 .002.989c.108.189 1.748 3.002 4.515 5.128z"/><path d="M3 22a.999.999 0 0 1-.707-1.707l18-18a.999.999 0 1 1 1.414 1.414l-18 18A.997.997 0 0 1 3 22z" data-color="color-2"/></g></svg>
