<svg id="nc_icon" xmlns="http://www.w3.org/2000/svg" xml:space="preserve" viewBox="0 0 24 24"><path fill="currentColor" d="M22.832 11.445C22.656 11.182 18.461 5 12 5 5.506 5 1.34 11.185 1.166 11.448a.998.998 0 0 0 .002 1.106C1.344 12.818 5.539 19 12 19c6.428 0 10.653-6.179 10.83-6.442a1 1 0 0 0 .002-1.113zM12 17c-4.35 0-7.635-3.596-8.753-5.002.658-.832 2.075-2.425 4.024-3.59A4.903 4.903 0 0 0 7 10c0 2.757 2.243 5 5 5s5-2.243 5-5a4.9 4.9 0 0 0-.268-1.582c1.94 1.164 3.357 2.75 4.018 3.581C19.623 13.407 16.324 17 12 17z" class="nc-icon-wrapper"/></svg>
