<svg id="nc_icon" xmlns="http://www.w3.org/2000/svg" xml:space="preserve" viewBox="0 0 24 24"><g fill="currentColor" class="nc-icon-wrapper"><path d="M6.524 17.476 8.01 15.99c-2.324-1.171-4.021-3.061-4.762-3.993.658-.832 2.075-2.425 4.024-3.59A4.888 4.888 0 0 0 7 10c0 1.894 1.071 3.525 2.627 4.373l7.85-7.85C15.924 5.645 14.082 5 12 5 5.506 5 1.34 11.185 1.166 11.448a.998.998 0 0 0 .002 1.106c.119.179 2.089 3.074 5.356 4.922zM19.956 8.286l-1.429 1.429a16.57 16.57 0 0 1 2.223 2.283C19.623 13.407 16.324 17 12 17c-.244 0-.484-.015-.721-.037l-1.731 1.731c.776.191 1.592.306 2.452.306 6.428 0 10.653-6.179 10.83-6.442a.998.998 0 0 0 .002-1.112c-.085-.128-1.114-1.635-2.876-3.16z"/><path d="M3 22a.999.999 0 0 1-.707-1.707l19-19a.999.999 0 1 1 1.414 1.414l-19 19A.997.997 0 0 1 3 22z" data-color="color-2"/></g></svg>
