<svg id="nc_icon" xmlns="http://www.w3.org/2000/svg" xml:space="preserve" viewBox="0 0 24 24"><g fill="currentColor" class="nc-icon-wrapper"><path d="M23.414 6.09 12 .901.586 6.09l.828 1.82L12 3.099 22.586 7.91z" data-color="color-2"/><path d="M9.884 18.499C9.023 17.815 7.563 17 5.5 17s-3.523.815-4.383 1.498A2.96 2.96 0 0 0 0 20.836V23h11v-2.164c0-.924-.407-1.775-1.116-2.337z"/><circle cx="5.5" cy="12.5" r="3.5"/><path d="M22.884 18.499C22.023 17.815 20.563 17 18.5 17s-3.523.815-4.383 1.498A2.96 2.96 0 0 0 13 20.836V23h11v-2.164c0-.924-.407-1.775-1.116-2.337z"/><circle cx="18.5" cy="12.5" r="3.5"/></g></svg>
