<svg id="nc_icon" xmlns="http://www.w3.org/2000/svg" xml:space="preserve" viewBox="0 0 24 24"><g fill="currentColor" class="nc-icon-wrapper"><path d="M7 9c0-3 5-8 5-8s5 5 5 8c0 3.2-2.6 5-5 5s-5-1.8-5-5z"/><path d="m21.7 16.5-.7-1.9c-.2-.5-.8-.8-1.3-.6l-4.8 1.7-2.5.9-.5.2-2.7-1L4.1 14c-.5-.2-1.1.1-1.3.6l-.7 1.9c-.1.5.2 1.1.7 1.3L6.1 19l-3.3 1.2c-.5.2-.8.8-.6 1.3l.7 1.9c.2.5.8.8 1.3.6l16.9-6.2c.5-.2.7-.8.6-1.3zm-.6 3.7-.4-.2-5.8 2.1 4.8 1.8c.5.2 1.1-.1 1.3-.6l.7-1.9c.1-.5-.1-1-.6-1.2z" data-color="color-2"/></g></svg>
