<svg id="nc_icon" xmlns="http://www.w3.org/2000/svg" xml:space="preserve" viewBox="0 0 24 24"><g fill="currentColor" class="nc-icon-wrapper"><path d="M19.882 7.528A1 1 0 0 0 19 7h-4.674l1.636-5.725A1.003 1.003 0 0 0 15 0H8a1 1 0 0 0-.965.737l-3 11c-.082.301-.02.623.17.87S4.688 13 5 13h4.802l-1.785 9.821a1 1 0 0 0 1.815.734l10-15c.204-.307.224-.701.05-1.027z"/><path d="M19.5 15c-2.481 0-4.5 2.019-4.5 4.5s2.019 4.5 4.5 4.5 4.5-2.019 4.5-4.5-2.019-4.5-4.5-4.5zm2.5 4.5c0 .321-.066.626-.177.909l-3.232-3.232c.283-.111.588-.177.909-.177 1.379 0 2.5 1.122 2.5 2.5zm-5 0c0-.321.066-.627.177-.909l3.232 3.232A2.481 2.481 0 0 1 19.5 22a2.503 2.503 0 0 1-2.5-2.5z" data-color="color-2"/></g></svg>
