<svg id="nc_icon" xmlns="http://www.w3.org/2000/svg" xml:space="preserve" viewBox="0 0 24 24"><g fill="currentColor" class="nc-icon-wrapper"><path d="m1 6 6-5v4h10c3.309 0 6 2.691 6 6h-2c0-2.206-1.794-4-4-4H7v4L1 6z" data-color="color-2"/><path d="m8.914 17.219 4.842 6.385a1 1 0 0 0 .797.396H23a.999.999 0 0 0 .809-1.588l-7.711-10.614a4.508 4.508 0 0 0-6.317-.884 4.506 4.506 0 0 0-.867 6.305zm2.074-4.566a2.5 2.5 0 0 1 3.502.482l.906 1.196a5.579 5.579 0 0 1-1.659 2.002 5.577 5.577 0 0 1-2.326 1.018l-.906-1.196a2.5 2.5 0 0 1 .483-3.502z"/></g></svg>
