<svg id="nc_icon" xmlns="http://www.w3.org/2000/svg" xml:space="preserve" viewBox="0 0 24 24"><g fill="currentColor" class="nc-icon-wrapper"><path d="m6 23-5-6h4V7c0-3.308 2.691-6 6-6v2C8.794 3 7 4.794 7 7v10h4l-5 6z" data-color="color-2"/><path d="m17.219 15.086 6.385-4.842A1 1 0 0 0 24 9.447V1a.999.999 0 0 0-1.588-.808l-10.614 7.71a4.508 4.508 0 0 0-.884 6.317 4.506 4.506 0 0 0 6.305.867zm-4.566-2.074a2.5 2.5 0 0 1 .482-3.502l1.196-.906a5.579 5.579 0 0 1 2.002 1.659 5.577 5.577 0 0 1 1.018 2.326l-1.196.906a2.5 2.5 0 0 1-3.502-.483z"/></g></svg>
