<svg id="nc_icon" xmlns="http://www.w3.org/2000/svg" xml:space="preserve" viewBox="0 0 24 24"><g fill="currentColor" class="nc-icon-wrapper"><path d="M16.295 10.044a1.006 1.006 0 0 0-.832.112l-11 7A1.001 1.001 0 0 0 5 19h14a1 1 0 0 0 .919-1.394l-3-7a1 1 0 0 0-.624-.562z" data-color="color-2"/><path d="M23 5h-5.586L12.707.293a.999.999 0 0 0-1.414 0L6.586 5H1a1 1 0 0 0-1 1v16a1 1 0 0 0 1 1h22a1 1 0 0 0 1-1V6a1 1 0 0 0-1-1zM12 2.414 14.586 5H9.414L12 2.414zM22 21H2V7h20v14z"/><circle cx="6.5" cy="10.5" r="1.5" data-color="color-2"/></g></svg>
