<svg id="nc_icon" xmlns="http://www.w3.org/2000/svg" viewBox="0 0 24 24"><g fill="currentColor" class="nc-icon-wrapper"><path d="M23 0h-9v2h6.586l-6.293 6.293 1.414 1.414L22 3.414V10h2V1a1 1 0 0 0-1-1z" data-color="color-2"/><path d="M24 23v-9h-2v6.586l-6.293-6.293-1.414 1.414L20.586 22H14v2h9a1 1 0 0 0 1-1z"/><path d="M1 24h9v-2H3.414l6.293-6.293-1.414-1.414L2 20.586V14H0v9a1 1 0 0 0 1 1z" data-color="color-2"/><path d="M0 1v9h2V3.414l6.293 6.293 1.414-1.414L3.414 2H10V0H1a1 1 0 0 0-1 1z"/></g></svg>
