<svg id="nc_icon" xmlns="http://www.w3.org/2000/svg" xml:space="preserve" viewBox="0 0 24 24"><path fill="currentColor" d="M20 1h-1v2h1c1.103 0 2 .897 2 2v8.261A5.477 5.477 0 0 0 18.5 12a5.493 5.493 0 0 0-4.682 2.63C13.312 14.241 12.686 14 12 14s-1.312.241-1.818.63A5.493 5.493 0 0 0 5.5 12 5.477 5.477 0 0 0 2 13.261V5c0-1.103.897-2 2-2h1V1H4C1.794 1 0 2.794 0 5v12.5C0 20.532 2.468 23 5.5 23a5.507 5.507 0 0 0 5.475-5H11v-1a1 1 0 0 1 2 0v1h.025a5.506 5.506 0 0 0 5.475 5c3.032 0 5.5-2.468 5.5-5.5V5c0-2.206-1.794-4-4-4z" class="nc-icon-wrapper"/></svg>
