<svg id="nc_icon" xmlns="http://www.w3.org/2000/svg" xml:space="preserve" viewBox="0 0 24 24"><g fill="currentColor" class="nc-icon-wrapper"><path d="M6.172 14.561c.186.274.496.439.828.439h10a1.001 1.001 0 0 0 .929-1.371l-2-5A1.002 1.002 0 0 0 15 8H9c-.409 0-.776.249-.929.629l-2 5a1 1 0 0 0 .101.932z"/><path d="M0 11h4v2H0zM2.808 4.222l1.414-1.414L7.05 5.636 5.636 7.05zM11 0h2v4h-2zM16.95 5.635l2.828-2.828 1.414 1.415-2.829 2.828zM20 11h4v2h-4z" data-color="color-2"/><path d="m23.929 21.629-2-5A1.002 1.002 0 0 0 21 16h-6c-.409 0-.776.249-.929.629l-2 5C12.023 21.749 12 22 12 22a.998.998 0 0 0-.071-.371l-2-5A1.002 1.002 0 0 0 9 16H3c-.409 0-.776.249-.929.629l-2 5A1 1 0 0 0 1 23h22a1.001 1.001 0 0 0 .929-1.371z"/></g></svg>
