<svg id="nc_icon" xmlns="http://www.w3.org/2000/svg" xml:space="preserve" viewBox="0 0 24 24"><g fill="currentColor" class="nc-icon-wrapper"><path d="M21.521.813a2.973 2.973 0 0 0-2.978-.036l-5 2.777A3 3 0 0 0 12 6.177V14h2V9h6c1.654 0 3-1.346 3-3V3.399A2.972 2.972 0 0 0 21.521.813zM8 11v3h2V7.66c0-.802-.476-1.523-1.212-1.839l-5-2.143a1.994 1.994 0 0 0-1.89.169A1.995 1.995 0 0 0 1 5.517V9c0 1.103.897 2 2 2h5z"/><path d="M18 15H4a1 1 0 0 0-1 1v2a1 1 0 0 0 1 1h2v5h10v-5h2a1 1 0 0 0 1-1v-2a1 1 0 0 0-1-1z" data-color="color-2"/></g></svg>
