<svg id="nc_icon" xmlns="http://www.w3.org/2000/svg" xml:space="preserve" viewBox="0 0 24 24"><g fill="currentColor" class="nc-icon-wrapper"><path d="M16 4c1.487 0 2.865.47 4 1.264V1a1 1 0 0 0-1-1H1a1 1 0 0 0-1 1v22a1 1 0 0 0 1 1h18a1 1 0 0 0 1-1v-4.758l-.954-.954A6.903 6.903 0 0 1 16 18c-3.859 0-7-3.141-7-7s3.141-7 7-7zM3 6h5v2H3V6zm0 5h4v2H3v-2zm6 7H3v-2h6v2z"/><path d="m23.707 16.293-3.187-3.187c.3-.642.48-1.351.48-2.106a5 5 0 1 0-5 5 4.963 4.963 0 0 0 3.309-1.277l2.984 2.984a.997.997 0 0 0 1.414 0 .999.999 0 0 0 0-1.414zM16 14a3 3 0 1 1 0-6 3 3 0 0 1 0 6z" data-color="color-2"/></g></svg>
