<svg id="nc_icon" xmlns="http://www.w3.org/2000/svg" xml:space="preserve" viewBox="0 0 24 24"><g fill="currentColor" class="nc-icon-wrapper"><path d="M1 1h3v3H1zM7 1h3v3H7zM13 1h3v3h-3z"/><path d="M19 1h3v3h-3z" data-color="color-2"/><path d="M1 7h3v3H1zM7 7h3v3H7z"/><path d="M13 7h3v3h-3z" data-color="color-2"/><path d="M19 7h3v3h-3zM1 13h3v3H1z"/><path d="M7 13h3v3H7z" data-color="color-2"/><path d="M13 13h3v3h-3zM19 13h3v3h-3z"/><path d="M1 19h3v3H1z" data-color="color-2"/><path d="M7 19h3v3H7zM13 19h3v3h-3zM19 19h3v3h-3z"/></g></svg>
