<svg id="nc_icon" xmlns="http://www.w3.org/2000/svg" xml:space="preserve" viewBox="0 0 24 24"><path fill="currentColor" d="M17.002 5.076V3a1 1 0 0 0-1-1h-15a1 1 0 0 0-1 1v4h8.101c.152.743.482 1.416.924 2H.002v7a1 1 0 0 0 1 1h2.279l.179.537a4.013 4.013 0 0 0 3.289 2.703c2.261.284 6.469.76 9.253.76 2.159 0 4.167-.827 5.653-2.327 1.533-1.548 2.366-3.644 2.345-5.901-.039-3.936-3.092-7.19-6.998-7.696zM3 14v-2h5v2H3zm17.234 3.266C19.127 18.384 17.623 19 16.002 19c-2.675 0-6.789-.466-9.003-.744A1.968 1.968 0 0 1 5.405 17h10.597a1 1 0 0 0 1-1H17v-3.185A2.996 2.996 0 0 1 15.002 10a1 1 0 0 0-1-1h-1a3.006 3.006 0 0 1-2.829-2h5.772c3.308 0 6.023 2.598 6.055 5.791.017 1.719-.61 3.309-1.766 4.475z" class="nc-icon-wrapper"/></svg>
