<svg id="nc_icon" xmlns="http://www.w3.org/2000/svg" xml:space="preserve" viewBox="0 0 24 24"><path fill="currentColor" d="M23 14.052V9c0-4.962-4.038-9-9-9h-4C5.038 0 1 4.038 1 9v5.052A6.451 6.451 0 0 0 0 17.5C0 21.084 2.916 24 6.5 24c.59 0 1.186-.084 1.772-.25A1 1 0 0 0 9 22.788V12.212a1 1 0 0 0-.728-.962A6.454 6.454 0 0 0 3 12.032V9c0-3.86 3.14-7 7-7h4c3.86 0 7 3.14 7 7v3.032a6.454 6.454 0 0 0-5.272-.782 1 1 0 0 0-.728.962v10.575a1 1 0 0 0 .728.962A6.466 6.466 0 0 0 17.5 24c3.584 0 6.5-2.916 6.5-6.5 0-1.267-.37-2.447-1-3.448z" class="nc-icon-wrapper"/></svg>
