<svg id="nc_icon" xmlns="http://www.w3.org/2000/svg" xml:space="preserve" viewBox="0 0 24 24"><path fill="currentColor" d="M24 12c0-3.86-3.14-7-7-7V3h6a1 1 0 0 0 0-2H9a1 1 0 0 0 0 2h6v2H4.721l-.772-2.316A1 1 0 0 0 3 2H1a.998.998 0 0 0-.986 1.165l.722 4.329A2.989 2.989 0 0 0 3.694 10H8v2c0 3.333 2.344 6.125 5.469 6.826L12.382 21H9a1 1 0 0 0 0 2h12c1.654 0 3-1.346 3-3a1 1 0 0 0-2 0c0 .551-.449 1-1 1h-.382l-1.217-2.433C22.08 17.584 24 15.015 24 12zm-9.382 9 1-2H17c.126 0 .248-.012.372-.019L18.382 21h-3.764zM21 13h-6a1 1 0 0 1-1-1V8h2v3h5v2z" class="nc-icon-wrapper"/></svg>
