<svg id="nc_icon" xmlns="http://www.w3.org/2000/svg" xml:space="preserve" viewBox="0 0 24 24"><g fill="currentColor" class="nc-icon-wrapper"><path d="M18 12c-3.309 0-6-2.691-6-6s2.691-6 6-6 6 2.691 6 6-2.691 6-6 6zm0-10c-2.206 0-4 1.794-4 4s1.794 4 4 4 4-1.794 4-4-1.794-4-4-4z" data-color="color-2"/><path d="M20 7h-2a1 1 0 0 1-1-1V4a1 1 0 0 1 2 0v1h1a1 1 0 0 1 0 2z" data-color="color-2"/><path d="M5 4C2.243 4 0 6.243 0 9v14a1 1 0 0 0 1 1h8a1 1 0 0 0 1-1V9c0-2.757-2.243-5-5-5zm3 6a8.292 8.292 0 0 1-6 0V9a3 3 0 1 1 6 0v1z"/></g></svg>
