<svg id="nc_icon" xmlns="http://www.w3.org/2000/svg" xml:space="preserve" viewBox="0 0 24 24"><g fill="currentColor" class="nc-icon-wrapper"><path d="M12 18c0-3.309 2.691-6 6-6 1.093 0 2.116.299 3 .812V9a1 1 0 0 0-.335-.747l-9-8a.998.998 0 0 0-1.329 0l-9 8A.997.997 0 0 0 1 9v13a1 1 0 0 0 1 1h12.69A5.998 5.998 0 0 1 12 18z"/><path d="m23.707 22.293-2.274-2.274A3.947 3.947 0 0 0 22 18c0-2.206-1.794-4-4-4s-4 1.794-4 4 1.794 4 4 4c.74 0 1.424-.215 2.019-.567l2.274 2.274 1.414-1.414zM18 20c-1.103 0-2-.897-2-2s.897-2 2-2 2 .897 2 2-.897 2-2 2z" data-color="color-2"/></g></svg>
