<svg id="nc_icon" xmlns="http://www.w3.org/2000/svg" xml:space="preserve" viewBox="0 0 24 24"><g fill="currentColor" class="nc-icon-wrapper"><path d="M23 1H1a1 1 0 0 0 0 2h22a1 1 0 0 0 0-2z"/><path d="M4 7h16a1 1 0 0 0 0-2H4a1 1 0 0 0 0 2z" data-color="color-2"/><path d="M21 9H7a1 1 0 0 0 0 2h14a1 1 0 0 0 0-2z"/><path d="M18 13H9a1 1 0 0 0 0 2h9a1 1 0 0 0 0-2z" data-color="color-2"/><path d="M13 17H7a1 1 0 0 0 0 2h6a1 1 0 0 0 0-2z"/><path d="M8 21H4a1 1 0 0 0 0 2h4a1 1 0 0 0 0-2z" data-color="color-2"/></g></svg>
