<svg id="nc_icon" xmlns="http://www.w3.org/2000/svg" xml:space="preserve" viewBox="0 0 24 24"><g fill="currentColor" class="nc-icon-wrapper"><path d="M13.6 6.2c-.5-.1-1.1-.2-1.6-.2H2V5c0-.6.4-1 1-1h7c.6 0 1-.4 1-1s-.4-1-1-1H3C1.3 2 0 3.3 0 5v14c0 .2.1.4.2.6L13.6 6.2zM21 14.8c-.1-2.1-.8-4-2-5.5L12.2 16h7.1l1 2H10.2l-2 2H22c.3 0 .7-.2.9-.5.2-.3.2-.7 0-1L21 14.8z"/><path d="M2 23c-.3 0-.5-.1-.7-.3-.4-.4-.4-1 0-1.4l20-20c.4-.4 1-.4 1.4 0s.4 1 0 1.4l-20 20c-.2.2-.4.3-.7.3z" data-color="color-2"/></g></svg>
