<svg id="nc_icon" xmlns="http://www.w3.org/2000/svg" xml:space="preserve" viewBox="0 0 24 24"><path fill="currentColor" d="M22 15c-.6 0-1 .4-1 1s-.4 1-1 1-1-.4-1-1v-4h3c.6 0 1-.4 1-1v-.2C22.9 4.8 18 0 12 0 5.9 0 1 4.9 1 11c0 .6.4 1 1 1h3v4c0 .6-.4 1-1 1s-1-.4-1-1-.4-1-1-1-1 .4-1 1c0 1.7 1.3 3 3 3s3-1.3 3-3v-4h2v9c0 .6-.4 1-1 1s-1-.4-1-1-.4-1-1-1-1 .4-1 1c0 1.7 1.3 3 3 3s3-1.3 3-3v-9h2v9c0 1.7 1.3 3 3 3s3-1.3 3-3c0-.6-.4-1-1-1s-1 .4-1 1-.4 1-1 1-1-.4-1-1v-9h2v4c0 1.7 1.3 3 3 3s3-1.3 3-3c0-.6-.4-1-1-1z" class="nc-icon-wrapper"/></svg>
