<svg id="nc_icon" xmlns="http://www.w3.org/2000/svg" xml:space="preserve" viewBox="0 0 24 24"><g fill="currentColor" class="nc-icon-wrapper"><path d="m23.707 22.293-2.274-2.274A3.947 3.947 0 0 0 22 18c0-2.206-1.794-4-4-4s-4 1.794-4 4 1.794 4 4 4c.74 0 1.424-.215 2.019-.567l2.274 2.274 1.414-1.414zM18 20c-1.103 0-2-.897-2-2s.897-2 2-2 2 .897 2 2-.897 2-2 2z" data-color="color-2"/><path d="M4 15H2V4c0-1.103.897-2 2-2h16c1.103 0 2 .897 2 2v9h-2V4H4v11zM12 18c0-.341.035-.674.09-1H0v1c0 2.206 1.794 4 4 4h9.54A5.97 5.97 0 0 1 12 18z"/></g></svg>
