<svg id="nc_icon" xmlns="http://www.w3.org/2000/svg" xml:space="preserve" viewBox="0 0 24 24"><g fill="currentColor" class="nc-icon-wrapper"><path d="M4 4h16v7h2V4c0-1.103-.897-2-2-2H4c-1.103 0-2 .897-2 2v11h2V4zM0 18c0 2.206 1.794 4 4 4h7v-5H0v1z"/><path d="m22.792 18 .428-4.351-1.466 1.065A5.012 5.012 0 0 0 18 13a5 5 0 0 0-4.843 3.751l1.938.498a2.997 2.997 0 0 1 5.036-1.356l-1.609 1.168 4.27.939zM18 22a3.007 3.007 0 0 1-2.131-.893l1.609-1.168-4.27-.939-.428 4.351 1.466-1.065A5.012 5.012 0 0 0 18 24a5 5 0 0 0 4.843-3.751l-1.938-.498A2.997 2.997 0 0 1 18 22z" data-color="color-2"/></g></svg>
