<svg id="nc_icon" xmlns="http://www.w3.org/2000/svg" xml:space="preserve" viewBox="0 0 24 24"><g fill="currentColor" class="nc-icon-wrapper"><path d="M7.73 13.91 2.09 8.27A3.976 3.976 0 0 0 1 11a4 4 0 0 0 4 4 3.976 3.976 0 0 0 2.73-1.09z" data-color="color-2"/><path d="M14.076 3.457c-.017-.022-.033-.046-.051-.068l1.682-1.682A.999.999 0 1 0 14.293.293l-1.682 1.682A8.948 8.948 0 0 0 7 0 8.939 8.939 0 0 0 .673 2.603a.996.996 0 0 0-.004 1.418L11.98 15.332a.997.997 0 0 0 .707.293h.003a.993.993 0 0 0 .708-.297A8.946 8.946 0 0 0 16 9c0-.092-.011-.182-.014-.273l3.681 4.26L11.555 22H6a1 1 0 1 0 0 2h14a1 1 0 1 0 0-2h-5.755l7.498-8.331c.337-.375.343-.941.014-1.323l-7.681-8.889z"/></g></svg>
