<svg id="nc_icon" xmlns="http://www.w3.org/2000/svg" xml:space="preserve" viewBox="0 0 24 24"><g fill="currentColor" class="nc-icon-wrapper"><path d="M16 19a1 1 0 0 0-1-1H3a1 1 0 0 0-1 1v3H0v2h18v-2h-2v-3z"/><path d="M0 14h5v2H0zM2.223 8.636l1.414-1.414 3.535 3.536-1.414 1.414z" data-color="color-2"/><path d="m18.768 8.646 2.939-2.939a.999.999 0 0 0 0-1.414l-3-3a.999.999 0 0 0-1.414 0l-8 8a.999.999 0 0 0 0 1.414l3 3a.997.997 0 0 0 1.414 0l2.939-2.939 4.293 4.293 2.121-2.121-4.292-4.294z"/></g></svg>
