<svg id="nc_icon" xmlns="http://www.w3.org/2000/svg" xml:space="preserve" viewBox="0 0 24 24"><g fill="currentColor" class="nc-icon-wrapper"><path d="M19 24c-1.3 0-2.6-.5-3.5-1.5-.9 1-2.2 1.5-3.5 1.5s-2.6-.5-3.5-1.5C7.6 23.5 6.3 24 5 24c-2.8 0-5-2.2-5-5 0-.6.4-1 1-1s1 .4 1 1c0 1.7 1.3 3 3 3 1.1 0 2.1-.6 2.6-1.6.3-.6 1.4-.6 1.8 0 .5 1 1.5 1.6 2.6 1.6s2.1-.6 2.6-1.6c.3-.6 1.4-.6 1.8 0 .5 1 1.5 1.6 2.6 1.6 1.7 0 3-1.3 3-3 0-.6.4-1 1-1s1 .4 1 1c0 2.8-2.2 5-5 5z" data-color="color-2"/><path d="m16.6 3.2-4-3c-.4-.3-.8-.3-1.2 0l-4 3c-.3.2-.4.5-.4.8v2c0 .6.4 1 1 1h8c.6 0 1-.4 1-1V4c0-.3-.1-.6-.4-.8zM19.8 16.4l-2.9-6.8c-.1-.4-.5-.6-.9-.6H8c-.4 0-.8.2-.9.6l-3 7c-.1.3-.1.7.1.9.2.3.5.5.8.5h14c.6 0 1-.4 1-1 0-.2 0-.4-.2-.6z"/></g></svg>
