<svg id="nc_icon" xmlns="http://www.w3.org/2000/svg" xml:space="preserve" viewBox="0 0 24 24"><g fill="currentColor" class="nc-icon-wrapper"><path d="M13 2.09V1a1 1 0 1 0-2 0v1.09C8.167 2.57 6 5.033 6 8c0 2.968 2.328 10 6 10s6-7.032 6-10c0-2.967-2.167-5.431-5-5.91z"/><path d="M12 20a1 1 0 0 0-1 1v2a1 1 0 1 0 2 0v-2a1 1 0 0 0-1-1zM19.071 17.657a1 1 0 1 0-1.414 1.414l1.414 1.414a1 1 0 1 0 1.414-1.414l-1.414-1.414zM23 11h-2a1 1 0 1 0 0 2h2a1 1 0 1 0 0-2zM4.929 17.657 3.515 19.07a1 1 0 1 0 1.414 1.414l1.414-1.414a1 1 0 1 0-1.414-1.414zM4 12a1 1 0 0 0-1-1H1a1 1 0 1 0 0 2h2a1 1 0 0 0 1-1z" data-color="color-2"/></g></svg>
