<svg id="nc_icon" xmlns="http://www.w3.org/2000/svg" xml:space="preserve" viewBox="0 0 24 24"><path fill="currentColor" d="M4 4.6h2.3c.1 0 .2-.1.2-.2V1.9c0-.4.1-.8.3-1.1l.1-.1L2.4 5c.1 0 .2-.1.2-.1.4-.2.8-.3 1.4-.3zm17.5-.4c-.2-1-.7-1.4-1.3-1.6-.6-.2-1.7-.4-3.1-.6-1.1-.1-2.5-.1-3.3-.1-.1-.7-.6-1.3-1.1-1.5-1.3-.6-3.5-.4-4-.3-.5.2-.9.4-1.2.8-.2.3-.3.6-.3 1v2.4c0 .5-.4.9-.9.9H4.1c-.5 0-.8.1-1.1.2-.3.2-.5.4-.7.6-.3.4-.3.9-.3 1.4 0 0 0 .4.1 1.2.1.6.8 5 1.4 6.3.2.5.4.7.9 1 1.1.5 3.6 1 4.7 1.1 1.2.1 1.9.5 2.3-.5 0 0 .1-.2.2-.6.4-1.1.4-2.2.4-2.9 0-.1.1-.1.1 0 0 .5-.1 2.4 1.3 2.8.5.2 1.7.4 2.8.5 1 .1 1.8.5 1.8 3.2 0 1.6-.3 1.9-2.1 1.9-1.4 0-2 0-2-1.1 0-.9.9-.8 1.6-.8.3 0 .1-.2.1-.8 0-.6.4-.9 0-.9-2.4-.1-3.7 0-3.7 2.9 0 2.7 1 3.2 4.4 3.2 2.6 0 3.6-.1 4.6-3.4.2-.7.7-2.7 1-6.1.3-2.1-.1-8.6-.4-10.2zm-4.6 7.2c-.3 0-.6 0-.9.1.1-.7.4-1.5 1.3-1.4 1.1 0 1.2 1 1.2 1.7-.4-.3-1-.4-1.6-.4z" class="nc-icon-wrapper"/></svg>
