<svg id="nc_icon" xmlns="http://www.w3.org/2000/svg" xml:space="preserve" viewBox="0 0 24 24"><path fill="currentColor" d="M24 9.3c0-.9-.4-6.3-.4-6.3 0-.9-.3-1.4-.7-1.8-.4-.4-1-.7-1.8-.7 0 0-5.5-.4-6.4-.4-1.3 0-2.2 0-3.9 1.6-.8.7-9.7 9.6-10.1 10-.4.4-1.6 1.9.5 4l7 7c2.2 2.2 3.6.9 4 .5l10.1-10.1C24 11.5 24 10.7 24 9.3zm-9.5 3 3.1 1.5-1.1 2-2.8-1.8c-.1 0-.1-.1-.2-.1s-.1 0-.2.1c-.3 0-.3.1-.3.2l.2 3.3H11l.2-3.3c0-.1-.1-.3-.2-.4-.1-.1-.3-.1-.4 0l-2.7 1.9-1.2-2 3.1-1.5c.1-.1.2-.2.2-.3 0-.1-.1-.3-.2-.3l-3.1-1.5 1.1-2 2.8 1.8c.1.1.3.1.4 0 .1-.1.2-.2.2-.4L11 6.2h2.3L13 9.6c0 .1.1.3.2.4.1.1.3.1.4 0l2.7-1.9 1.2 2-3.1 1.5c-.1.1-.2.2-.2.3.1.2.1.3.3.4zm5.2-6.4c-.8 0-1.4-.6-1.4-1.4 0-.8.6-1.4 1.4-1.4.8 0 1.4.6 1.4 1.4 0 .7-.6 1.4-1.4 1.4z" class="nc-icon-wrapper"/></svg>
