<svg id="nc_icon" xmlns="http://www.w3.org/2000/svg" xml:space="preserve" viewBox="0 0 24 24"><g fill="currentColor" class="nc-icon-wrapper"><path d="M10.082 20.298c-3.973.392-7.403-1.404-7.661-4.012-.258-2.608 2.755-5.041 6.727-5.433 3.973-.393 7.403 1.403 7.661 4.01.258 2.609-2.754 5.043-6.727 5.435m7.947-8.659c-.338-.101-.57-.17-.393-.614.383-.964.423-1.796.007-2.39-.779-1.113-2.911-1.053-5.354-.03 0-.001-.767.336-.571-.273.376-1.208.319-2.22-.266-2.805-1.325-1.326-4.85.051-7.874 3.073C1.315 10.864 0 13.264 0 15.339c0 3.969 5.09 6.382 10.069 6.382 6.527 0 10.869-3.792 10.869-6.803 0-1.82-1.532-2.852-2.909-3.279"/><path d="M22.363 4.376a6.353 6.353 0 0 0-6.047-1.957h-.001a.918.918 0 1 0 .384 1.797 4.52 4.52 0 0 1 5.244 5.81v.001a.92.92 0 0 0 1.749.567v-.003a6.35 6.35 0 0 0-1.329-6.215" data-color="color-2"/><path d="M19.942 6.56a3.093 3.093 0 0 0-2.945-.952.79.79 0 1 0 .33 1.547v.001a1.518 1.518 0 0 1 1.441.464c.375.416.476.984.315 1.481h.001a.791.791 0 0 0 1.505.486 3.09 3.09 0 0 0-.647-3.027" data-color="color-2"/><path d="M10.301 15.574c-.139.238-.446.352-.687.253-.237-.097-.311-.363-.177-.597.139-.232.434-.346.67-.252.241.088.327.357.194.596m-1.266 1.625c-.384.613-1.207.882-1.827.599-.611-.278-.791-.991-.407-1.588.38-.595 1.175-.861 1.79-.603.623.265.822.973.444 1.592m1.444-4.339c-1.891-.492-4.028.45-4.849 2.116-.836 1.699-.028 3.585 1.882 4.202 1.979.638 4.311-.34 5.122-2.174.8-1.793-.198-3.639-2.155-4.144"/></g></svg>
