<svg id="nc_icon" xmlns="http://www.w3.org/2000/svg" xml:space="preserve" viewBox="0 0 24 24"><g fill="currentColor" class="nc-icon-wrapper"><path d="M9.686 11.196s2.271-.17 2.271-2.833c0-2.663-1.858-3.963-4.212-3.963H0v14.885h7.745s4.728.149 4.728-4.394c0 0 .207-3.695-2.787-3.695zm-6.273-4.15h4.332s1.053 0 1.053 1.548-.62 1.773-1.321 1.773H3.413V7.046zm4.132 9.593H3.413v-3.978h4.332s1.57-.02 1.57 2.044c0 1.722-1.149 1.917-1.77 1.934zM18.78 8.187c-5.725 0-5.72 5.719-5.72 5.719s-.392 5.69 5.72 5.69c0 0 5.092.29 5.092-3.959h-2.619s.087 1.6-2.386 1.6c0 0-2.62.176-2.62-2.589h7.713s.843-6.46-5.18-6.46zm2.327 4.474h-4.89s.321-2.294 2.62-2.294c2.3 0 2.27 2.294 2.27 2.294z"/><path d="M16 5h6v2h-6z" data-color="color-2"/></g></svg>
