<svg id="nc_icon" xmlns="http://www.w3.org/2000/svg" xml:space="preserve" viewBox="0 0 24 24"><g fill="currentColor" class="nc-icon-wrapper"><path d="M.451 12.304c-.008-.059-.05-.1-.103-.1-.053 0-.096.042-.104.1L0 14.536l.244 2.183c.007.058.05.1.104.1.052 0 .094-.04.103-.1l.278-2.183-.278-2.232zM4.301 10.245c-.1 0-.183.083-.188.187l-.195 4.106.195 2.654a.192.192 0 0 0 .188.185c.1 0 .182-.082.188-.186v.001l.22-2.654-.22-4.106a.193.193 0 0 0-.188-.187zM2.308 11.673c-.077 0-.14.061-.145.143l-.22 2.721.22 2.632a.15.15 0 0 0 .145.143c.077 0 .14-.061.146-.143l.25-2.632-.25-2.721c-.007-.082-.07-.143-.146-.143zM6.326 17.377c.124 0 .225-.1.23-.228l.191-2.61-.19-5.467a.233.233 0 0 0-.23-.228c-.126 0-.228.1-.232.229l-.169 5.466.17 2.61a.232.232 0 0 0 .23.228zM10.471 17.39c.171 0 .312-.141.316-.315v.002-.002l.133-2.534-.133-6.314a.319.319 0 0 0-.316-.314.319.319 0 0 0-.315.314l-.12 6.312.12 2.538a.318.318 0 0 0 .315.312zM8.383 17.38c.149 0 .269-.12.273-.272v.002l.162-2.57-.163-5.507a.274.274 0 0 0-.273-.271c-.15 0-.27.12-.273.271l-.144 5.507.145 2.57c.003.15.123.27.273.27z" data-color="color-2"/><path d="M20.943 11.282c-.418 0-.818.085-1.182.238a5.394 5.394 0 0 0-7.327-4.551c-.23.089-.292.18-.294.36v9.701a.37.37 0 0 0 .33.362l8.473.005a3.057 3.057 0 0 0 0-6.115z"/></g></svg>
