<svg id="nc_icon" xmlns="http://www.w3.org/2000/svg" xml:space="preserve" viewBox="0 0 24 24"><g fill="currentColor" class="nc-icon-wrapper"><path d="M10 .9s-.1 0-.1-.1h-.1l.2.1zM.9 9.9v.1s0 .1.1.1l-.1-.2zM23.1 14.1V14s0-.1-.1-.1l.1.2zM13.9 23s.1 0 .1.1h.1l-.2-.1z"/><path d="M23.2 14v.1-.2c-.1 0-.1.1 0 .1.1-.7.2-1.4.2-2.1 0-1.5-.3-3-.9-4.4-.6-1.3-1.4-2.5-2.5-3.6-1-1-2.3-1.9-3.6-2.4C15 .9 13.5.6 12 .6c-.7 0-1.4.1-2.1.2 0 0 .1 0 .1.1h-.2.1C8.9.3 7.8 0 6.7 0 4.9 0 3.2.7 2 2 .7 3.3 0 5 0 6.7 0 7.9.3 9 .8 10v-.1.2s0-.1-.1-.1c-.1.6-.2 1.3-.2 2 0 1.5.3 3 .9 4.4C2.1 17.7 3 18.9 4 20c1 1 2.3 1.9 3.6 2.4 1.4.6 2.9.9 4.4.9.7 0 1.3-.1 2-.2 0 0-.1 0-.1-.1h.2-.1c1 .6 2.1.9 3.3.9 1.8 0 3.5-.7 4.7-2 1.3-1.3 2-3 2-4.7 0-1.1-.3-2.2-.8-3.2zm-11.1 4.9c-4 0-5.8-2-5.8-3.5 0-.8.6-1.3 1.3-1.3 1.7 0 1.3 2.5 4.5 2.5 1.6 0 2.6-.9 2.6-1.8 0-.5-.3-1.2-1.4-1.4l-3.6-.9c-2.9-.7-3.4-2.3-3.4-3.7 0-3 2.9-4.2 5.6-4.2 2.5 0 5.4 1.4 5.4 3.2 0 .8-.7 1.2-1.5 1.2-1.5 0-1.2-2-4.2-2-1.5 0-2.3.7-2.3 1.6 0 1 1.2 1.3 2.2 1.5l2.7.6c2.9.6 3.6 2.3 3.6 3.9 0 2.4-1.9 4.3-5.7 4.3z"/></g></svg>
