<svg id="nc_icon" xmlns="http://www.w3.org/2000/svg" xml:space="preserve" viewBox="0 0 24 24"><g fill="currentColor" class="nc-icon-wrapper"><path d="m10.896 14.057-1.048-3.129 3.224-1.08 1.048 3.13z"/><path d="m10.896 14.057-1.048-3.129 3.224-1.08 1.048 3.13z"/><path d="M23 8.7C20.5.5 16.9-1.5 8.7 1 .5 3.5-1.5 7.1 1 15.3c2.5 8.2 6 10.2 14.3 7.7 8.2-2.5 10.2-6.1 7.7-14.3zm-4.2 5.4-1.6.5.5 1.6c.2.7-.1 1.4-.8 1.6-.1 0-.3.1-.4.1-.5 0-1-.3-1.1-.8l-.5-1.6-3.2 1.1.5 1.6c.2.7-.1 1.4-.8 1.6-.1 0-.3.1-.4.1-.5 0-1-.3-1.1-.8l-.5-1.6-1.6.5c-.1 0-.3.1-.4.1-.5 0-1-.3-1.1-.8-.3-1 0-1.7.7-1.9l1.6-.5-1-3.1-1.6.5c-.1 0-.3.1-.4.1-.5 0-1-.3-1.1-.8-.2-.7.1-1.4.8-1.6l1.6-.5-.7-1.7c-.2-.6.1-1.3.8-1.6.6-.2 1.3.2 1.6.8l.5 1.6 3.2-1.1-.5-1.5c-.2-.7.1-1.4.8-1.6.7-.2 1.4.1 1.6.8l.5 1.6 1.6-.5c.6-.3 1.3.1 1.5.7.2.7-.1 1.4-.8 1.6l-1.6.5 1 3.1 1.6-.5c.7-.2 1.4.1 1.6.8.2.6-.1 1.3-.8 1.6z"/></g></svg>
