<svg id="nc_icon" xmlns="http://www.w3.org/2000/svg" xml:space="preserve" viewBox="0 0 24 24"><g fill="currentColor" class="nc-icon-wrapper"><path d="m.054 24 1.687-6.163a11.869 11.869 0 0 1-1.588-5.945C.156 5.335 5.493 0 12.05 0c3.182.001 6.17 1.24 8.415 3.488a11.819 11.819 0 0 1 3.481 8.413c-.002 6.557-5.34 11.893-11.896 11.893h-.005c-1.99-.001-3.947-.5-5.685-1.448L.054 24zm6.598-3.807.361.214a9.875 9.875 0 0 0 5.033 1.378h.004c5.45 0 9.886-4.434 9.888-9.884a9.824 9.824 0 0 0-2.894-6.994 9.823 9.823 0 0 0-6.99-2.898c-5.454 0-9.89 4.434-9.892 9.884a9.86 9.86 0 0 0 1.512 5.26l.235.374-.999 3.648 3.742-.982z"/><path fill-rule="evenodd" d="M9.077 6.92c-.242-.579-.487-.5-.67-.51-.172-.008-.37-.01-.569-.01s-.52.074-.792.372c-.273.297-1.04 1.016-1.04 2.479 0 1.462 1.064 2.875 1.213 3.074.149.198 2.096 3.2 5.078 4.487.709.306 1.263.489 1.694.626.712.226 1.36.194 1.873.117.57-.085 1.758-.719 2.006-1.413.248-.694.248-1.289.173-1.413-.074-.124-.272-.198-.57-.347-.297-.149-1.758-.867-2.03-.967-.273-.099-.471-.148-.67.15-.197.297-.767.966-.94 1.164-.174.199-.347.223-.644.075-.298-.15-1.256-.463-2.39-1.475-.885-.788-1.481-1.761-1.655-2.059-.173-.297-.018-.458.13-.606.135-.133.298-.347.447-.52.148-.174.198-.298.297-.497.099-.198.05-.372-.025-.52-.074-.149-.669-1.612-.916-2.207z" clip-rule="evenodd" data-color="color-2"/></g></svg>
