<svg id="nc_icon" xmlns="http://www.w3.org/2000/svg" xml:space="preserve" viewBox="0 0 24 24"><path fill="currentColor" d="M19.9 4.7c0-.1-.1-.2-.2-.2s-1.9-.1-1.9-.1L16.4 3c-.1-.1-.4-.1-.5-.1 0 0-.3.1-.7.2C14.8 1.9 14 .7 12.7.7h-.1c-.5-.5-.9-.7-1.3-.7-3.1 0-4.6 3.9-5 5.8-1.3.4-2.1.7-2.2.7-.7.2-.7.2-.8.9-.1.5-1.9 14-1.9 14L15.1 24l7.4-1.6c.1 0-2.6-17.6-2.6-17.7zm-7.5-.9v.1c-.8.2-1.6.5-2.4.7.5-1.8 1.3-2.6 2.1-3 .2.6.3 1.3.3 2.2zm-1.2-3c.1 0 .3 0 .4.1-1 .5-2.1 1.6-2.5 4-.7.3-1.3.5-1.9.6.5-1.8 1.7-4.7 4-4.7zm.5 10.5s-.8-.4-1.8-.4c-1.4 0-1.5.9-1.5 1.1 0 1.2 3.2 1.7 3.2 4.6 0 2.3-1.5 3.8-3.4 3.8-2.3 0-3.6-1.5-3.6-1.5l.6-2.1s1.2 1.1 2.3 1.1c.7 0 1-.5 1-.9 0-1.6-2.7-1.7-2.7-4.4 0-2.2 1.6-4.4 4.9-4.4 1.3 0 1.9.4 1.9.4l-.9 2.7zm1.5-7.6v-.2c0-.8-.1-1.4-.3-1.9.7.1 1.1.9 1.4 1.8-.3 0-.7.1-1.1.3z" class="nc-icon-wrapper"/></svg>
