<svg id="nc_icon" xmlns="http://www.w3.org/2000/svg" xml:space="preserve" viewBox="0 0 24 24"><g fill="currentColor" class="nc-icon-wrapper"><path d="M12 1c-2.545 0-4.957.862-6.907 2.442L2.333.854l-.646 7.584 7.604-1.062L6.57 4.833A8.932 8.932 0 0 1 12 3c4.963 0 9 4.037 9 9s-4.037 9-9 9a8.957 8.957 0 0 1-2.602-.398 6.022 6.022 0 0 1-1.228 1.703A10.89 10.89 0 0 0 12 23c6.065 0 11-4.935 11-11S18.065 1 12 1z"/><path d="M4 22c-2.206 0-4-1.794-4-4s1.794-4 4-4 4 1.794 4 4-1.794 4-4 4z" data-color="color-2"/></g></svg>
