<svg id="nc_icon" xmlns="http://www.w3.org/2000/svg" xml:space="preserve" viewBox="0 0 24 24"><g fill="currentColor" class="nc-icon-wrapper"><path d="M12 19a7 7 0 0 1 7-7c1.96 0 3.729.808 5 2.106V2a.998.998 0 0 0-.385-.788.987.987 0 0 0-.857-.182L15.04 2.959 9.316 1.052a.985.985 0 0 0-.559-.021l-8 2A.998.998 0 0 0 0 4v18a.998.998 0 0 0 1.242.97l7.718-1.929 3.884 1.294A6.969 6.969 0 0 1 12 19z"/><path d="M23.414 16 22 14.586l-3 3-3-3L14.586 16l3 3-3 3L16 23.414l3-3 3 3L23.414 22l-3-3z" data-color="color-2"/></g></svg>
