<svg id="nc_icon" xmlns="http://www.w3.org/2000/svg" xml:space="preserve" viewBox="0 0 24 24"><g fill="currentColor" class="nc-icon-wrapper"><path d="M12 19a7 7 0 0 1 7-7c1.96 0 3.729.808 5 2.106V2a.998.998 0 0 0-.385-.788.989.989 0 0 0-.858-.182L15.04 2.959 9.316 1.052a.969.969 0 0 0-.559-.022l-8 2A1 1 0 0 0 0 4v18a.998.998 0 0 0 1.243.97l7.717-1.929 3.884 1.294A6.969 6.969 0 0 1 12 19z"/><path d="m19 14 1.545 3.131 3.455.502-2.5 2.437.59 3.441L19 21.886l-3.09 1.625.59-3.441-2.5-2.437 3.455-.502z" data-color="color-2"/></g></svg>
