<svg id="nc_icon" xmlns="http://www.w3.org/2000/svg" xml:space="preserve" viewBox="0 0 24 24"><g fill="currentColor" class="nc-icon-wrapper"><path d="M18 15c.808 0 1.574.331 2.131.893l-1.609 1.168 4.27.939.428-4.351-1.466 1.065A5.012 5.012 0 0 0 18 13a5 5 0 0 0-4.843 3.751l1.938.498A2.997 2.997 0 0 1 18 15zM18 22a3.007 3.007 0 0 1-2.131-.893l1.609-1.168-4.27-.939-.428 4.351 1.466-1.065A5.012 5.012 0 0 0 18 24a5 5 0 0 0 4.843-3.751l-1.938-.498A2.997 2.997 0 0 1 18 22z" data-color="color-2"/><path d="M23.615 1.212a.987.987 0 0 0-.857-.182L15.04 2.959 9.316 1.052a.985.985 0 0 0-.559-.021l-8 2A.998.998 0 0 0 0 4v18a.998.998 0 0 0 1.242.97l7.718-1.929 2.04.68V18a7 7 0 0 1 7-7c2.551 0 4.167.708 6 2V2a.998.998 0 0 0-.385-.788z"/></g></svg>
