<svg id="nc_icon" xmlns="http://www.w3.org/2000/svg" xml:space="preserve" viewBox="0 0 24 24"><path fill="currentColor" d="M17 4h-1V.4L8.8 4H7c-3.9 0-7 3.1-7 7v6c0 3.9 3.1 7 7 7h10c3.9 0 7-3.1 7-7v-6c0-3.9-3.1-7-7-7zM5 13v-1c0-1.7 1.3-3 3-3s3 1.3 3 3v1H9v-1c0-.6-.4-1-1-1s-1 .4-1 1v1H5zm12 4c0 1.7-1.3 3-3 3-.8 0-1.5-.3-2-.8-.5.5-1.2.8-2 .8-1.7 0-3-1.3-3-3v-1h2v1c0 .6.4 1 1 1s1-.4 1-1h2c0 .6.4 1 1 1s1-.4 1-1v-1h2v1zm2-4h-2v-1c0-.6-.4-1-1-1s-1 .4-1 1v1h-2v-1c0-1.7 1.3-3 3-3s3 1.3 3 3v1z" class="nc-icon-wrapper"/></svg>
