<svg id="nc_icon" xmlns="http://www.w3.org/2000/svg" xml:space="preserve" viewBox="0 0 24 24"><g fill="currentColor" class="nc-icon-wrapper"><path d="M23.615 1.212a.995.995 0 0 0-.858-.182L15.04 2.96 9.316 1.051a.995.995 0 0 0-.559-.021l-8 2A1 1 0 0 0 0 4v15a.998.998 0 0 0 1.243.97l5.024-1.256-.526-1.93L2 17.719V4.781l6.96-1.74 5.724 1.908c.18.06.374.067.559.021L22 3.281v12.938l-6.243 1.561a1.001 1.001 0 0 0 .485 1.941l7-1.75c.446-.112.758-.512.758-.971V2a.998.998 0 0 0-.385-.788z" data-color="color-2"/><path d="m18.263 12.035-11-3a1.003 1.003 0 0 0-1.228 1.228l3 11a1 1 0 0 0 1.822.252l2.872-4.786 4.786-2.872a1 1 0 0 0-.252-1.822z"/></g></svg>
