<svg id="nc_icon" xmlns="http://www.w3.org/2000/svg" xml:space="preserve" viewBox="0 0 24 24"><g fill="currentColor" class="nc-icon-wrapper"><path d="M3.5 10.5c.1.3.5.5.8.5h4.9c.4 0 .7-.2.9-.5l2.4-4c.2-.3.2-.7 0-1l-2.4-4c-.2-.3-.6-.5-.9-.5H4.3c-.3 0-.7.2-.8.5l-2.4 4c-.2.3-.2.7 0 1l2.4 4zM10 13.5c-.1-.3-.5-.5-.8-.5H4.3c-.4 0-.7.2-.9.5l-2.4 4c-.2.3-.2.7 0 1l2.4 4c.2.3.6.5.9.5h4.9c.4 0 .7-.2.9-.5l2.4-4c.2-.3.2-.7 0-1l-2.5-4z"/><path d="m22.9 11.5-2.4-4c-.1-.3-.5-.5-.8-.5h-4.9c-.4 0-.7.2-.9.5l-2.4 4c-.2.3-.2.7 0 1l2.4 4c.2.3.5.5.9.5h4.9c.4 0 .7-.2.9-.5l2.4-4c.1-.3.1-.7-.1-1z" data-color="color-2"/></g></svg>
