<svg id="nc_icon" xmlns="http://www.w3.org/2000/svg" xml:space="preserve" viewBox="0 0 24 24"><g fill="currentColor" class="nc-icon-wrapper"><path d="M8 14H1a1 1 0 0 1-1-1V1a1 1 0 0 1 1-1h18a1 1 0 0 1 1 1v5h-2V2H2v10h6v2z" data-color="color-2"/><path d="M17 16c-2.951 0-5.403-.639-7-1.712V16c0 1.657 3.134 3 7 3s7-1.343 7-3v-1.712C22.403 15.361 19.951 16 17 16zM17 21c-2.951 0-5.403-.639-7-1.712V21c0 1.657 3.134 3 7 3s7-1.343 7-3v-1.712C22.403 20.361 19.951 21 17 21z"/><path d="M8.909 8.672c.686-.801 1.734-1.455 3.066-1.916A1.995 1.995 0 0 0 10 5a1.996 1.996 0 0 0-1.091 3.672z" data-color="color-2"/><ellipse cx="17" cy="11" rx="7" ry="3"/></g></svg>
