<svg id="nc_icon" xmlns="http://www.w3.org/2000/svg" xml:space="preserve" viewBox="0 0 24 24"><g fill="currentColor" class="nc-icon-wrapper"><path d="M23 11h-.727c-.985-.811-3.911-5.665-4.251-7.035l.523-.859a1 1 0 1 0-1.709-1.039l-.503.827c-1.19.457-7.475.457-8.665 0l-.504-.828a1 1 0 0 0-1.709 1.039l.523.859c-.34 1.37-3.266 6.225-4.251 7.036H1a1 1 0 1 0 0 2h.727c.985.811 3.911 5.666 4.251 7.035l-.523.859a1 1 0 1 0 1.709 1.039l.503-.827c1.191-.457 7.474-.457 8.665 0l.503.827a1 1 0 1 0 1.709-1.039l-.523-.859c.34-1.37 3.266-6.225 4.251-7.035H23a1 1 0 1 0 0-2zm-3.329 0h-2.336c-.493-.506-1.551-2.117-1.868-2.835l1.271-2.089c.658 1.366 1.933 3.561 2.933 4.924zm-5.931 3.812c-.926-.109-2.554-.109-3.48 0-.376-.761-1.16-2.051-1.806-2.812.646-.761 1.43-2.051 1.806-2.812.926.109 2.554.109 3.48 0 .376.76 1.16 2.051 1.806 2.812-.646.761-1.43 2.051-1.806 2.812zm1.236-9.687L13.731 7.17c-.728.128-2.731.128-3.461 0L9.025 5.125c1.653.143 4.296.143 5.951 0zM8.533 8.164c-.315.717-1.375 2.33-1.868 2.836H4.329c.999-1.362 2.275-3.557 2.934-4.924l1.27 2.088zM4.329 13h2.336c.493.506 1.553 2.119 1.868 2.836l-1.271 2.088C6.604 16.558 5.328 14.362 4.329 13zm4.696 5.875 1.245-2.046c.73-.128 2.729-.128 3.459 0l1.245 2.046c-1.652-.143-4.294-.143-5.949 0zm6.442-3.039c.316-.717 1.375-2.33 1.868-2.836h2.336c-.999 1.362-2.275 3.557-2.934 4.924l-1.27-2.088z"/><circle cx="12" cy="12" r="1" data-color="color-2"/></g></svg>
