<svg id="nc_icon" xmlns="http://www.w3.org/2000/svg" xml:space="preserve" viewBox="0 0 24 24"><g fill="currentColor" class="nc-icon-wrapper"><path d="M0 4h24v2H0zM0 18h24v2H0z"/><path d="M1 8.5v7h1.314c0-3.635-.048-5.295-.048-5.295L5.285 15.5h1.869v-7H5.83c.005 1.182.038 5.243.038 5.243L2.855 8.5H1zM12.963 9.716V8.5H8.968v7h3.995v-1.226h-2.525v-1.805h2.349v-1.216h-2.349V9.716zM17.98 11.832c.08-.317.278-1.285.318-1.647.027.297.254 1.377.322 1.638l.94 3.677h1.675L23 8.5h-1.447l-.882 3.821a20.175 20.175 0 0 0-.342 1.834 21.615 21.615 0 0 0-.318-1.733L19 8.5h-1.39c-.381 1.438-1.193 4.729-1.333 5.655a22.843 22.843 0 0 0-.337-1.834L15.053 8.5h-1.447l1.77 7h1.67l.934-3.668z" data-color="color-2"/></g></svg>
