<svg id="nc_icon" xmlns="http://www.w3.org/2000/svg" xml:space="preserve" viewBox="0 0 24 24"><g fill="currentColor" class="nc-icon-wrapper"><path d="M23.063 14.92a3.188 3.188 0 0 0-2.566-.904 3.193 3.193 0 0 0-1.498.549 3.197 3.197 0 0 0-4.064.355c-.602.596-.935 1.39-.935 2.235s.333 1.639.936 2.235L19 23.405l4.064-4.015c.603-.596.936-1.39.936-2.235s-.333-1.639-.937-2.235z" data-color="color-2"/><path d="M5 21a1 1 0 0 1-1-1V4a1 1 0 0 1 1-1h12a1 1 0 0 1 1 1v8h2V3c0-1.654-1.346-3-3-3H5C3.346 0 2 1.346 2 3v18c0 1.654 1.346 3 3 3h11.756l-3.037-3H5z"/></g></svg>
