<svg id="nc_icon" xmlns="http://www.w3.org/2000/svg" xml:space="preserve" viewBox="0 0 24 24"><g fill="currentColor" class="nc-icon-wrapper"><path d="M24 18h-3V7.95l-2.006 2.007a4.855 4.855 0 0 1-1.432 3.427C16.488 14.456 14.375 15 11.281 15l-.332-.004-1.895-.051-.051-1.895c-.039-1.464.04-5.038 1.614-6.612a4.858 4.858 0 0 1 3.424-1.43L18.795.254A3.487 3.487 0 0 0 17.5 0h-14A3.5 3.5 0 0 0 0 3.5V6h5v15a3 3 0 0 0 3 3h12.5a3.5 3.5 0 0 0 3.5-3.5V18zM5 4H2v-.5C2 2.673 2.673 2 3.5 2S5 2.673 5 3.5V4zm17 16.5c0 .827-.673 1.5-1.5 1.5h-8.825c.203-.419.325-.915.325-1.5V20h10v.5z"/><path d="M23.561.439a1.5 1.5 0 0 0-2.121 0l-6.655 6.655a2.9 2.9 0 0 0-2.753.758c-1.131 1.131-1.03 5.108-1.029 5.145.037.001 4.013.102 5.145-1.029a2.9 2.9 0 0 0 .758-2.753l6.655-6.655a1.501 1.501 0 0 0 0-2.121z" data-color="color-2"/></g></svg>
