<svg id="nc_icon" xmlns="http://www.w3.org/2000/svg" xml:space="preserve" viewBox="0 0 24 24"><g fill="currentColor" class="nc-icon-wrapper"><path d="M6.363 5.638a2.506 2.506 0 0 0 3.11 1.683 2.48 2.48 0 0 0 1.485-1.205 2.482 2.482 0 0 0 .198-1.903l-.57-1.917A2.503 2.503 0 0 0 7.479.612c-.64.19-1.168.618-1.486 1.205a2.482 2.482 0 0 0-.198 1.904l.57 1.917zM14.527 7.321a2.506 2.506 0 0 0 3.11-1.684l.57-1.916c.19-.64.12-1.316-.2-1.904A2.48 2.48 0 0 0 16.523.612a2.504 2.504 0 0 0-3.109 1.684l-.57 1.917c-.19.64-.12 1.316.199 1.903a2.48 2.48 0 0 0 1.485 1.205zM5.046 10.619c.508-.434.815-1.04.868-1.705a2.482 2.482 0 0 0-.593-1.82l-.42-.492a2.502 2.502 0 0 0-3.525-.277A2.49 2.49 0 0 0 .508 8.03 2.479 2.479 0 0 0 1.1 9.85l.42.492a2.483 2.483 0 0 0 1.905.877c.595 0 1.164-.21 1.62-.6zM22.624 6.325a2.504 2.504 0 0 0-3.524.277l-.421.492a2.483 2.483 0 0 0-.593 1.82c.053.666.36 1.271.868 1.705a2.483 2.483 0 0 0 1.82.592 2.483 2.483 0 0 0 1.705-.869l.421-.492a2.479 2.479 0 0 0 .592-1.82 2.488 2.488 0 0 0-.868-1.705z" data-color="color-2"/><path d="M17.718 12.917C16.423 11.09 14.285 10 12 10s-4.423 1.09-5.718 2.917l-2.305 3.8c-1.074 1.772-.918 3.866.404 5.465A4.944 4.944 0 0 0 8.21 24c.6 0 1.21-.107 1.806-.329l.2-.073a5.125 5.125 0 0 1 3.57 0l.194.073c2.05.76 4.261.176 5.638-1.488 1.322-1.6 1.478-3.693.404-5.464l-2.305-3.801z"/></g></svg>
