<svg id="nc_icon" xmlns="http://www.w3.org/2000/svg" viewBox="0 0 24 24"><g fill="currentColor" class="nc-icon-wrapper"><path d="m12 3.257 1.314-.492a4.1 4.1 0 0 1 1.569-1.718.249.249 0 0 0-.029-.435L13.77.1a.982.982 0 0 0-.984.071A3.576 3.576 0 0 0 11.32 3Z" data-color="color-2"/><path d="M21.649 6.312a6.158 6.158 0 0 0-6.979-1.919l-2.67 1-2.67-1a6.161 6.161 0 0 0-8.248 6.761l1.679 8.756A4.858 4.858 0 0 0 7.545 24a4.859 4.859 0 0 0 1.971-.421L12 22.477l2.484 1.1a4.846 4.846 0 0 0 6.749-3.638l1.691-8.82a6.171 6.171 0 0 0-1.275-4.807Z"/></g></svg>
