<svg id="nc_icon" xmlns="http://www.w3.org/2000/svg" xml:space="preserve" viewBox="0 0 24 24"><g fill="currentColor" class="nc-icon-wrapper"><path d="M12 19a7 7 0 0 1 6.323-6.966C18.74 10.975 19 9.942 19 9c0-5.634-4.576-9-9-9S1 3.366 1 9c0 5.289 7.952 13.363 8.29 13.705a1 1 0 0 0 1.42 0c.089-.09.717-.731 1.583-1.707A7.011 7.011 0 0 1 12 19zm-2-7a3 3 0 1 1 0-6 3 3 0 0 1 0 6z"/><path d="m19 13.489 1.545 3.131 3.455.502-2.5 2.437.59 3.441L19 21.375 15.91 23l.59-3.441-2.5-2.437 3.455-.502z" data-color="color-2"/></g></svg>
