<svg id="nc_icon" xmlns="http://www.w3.org/2000/svg" xml:space="preserve" viewBox="0 0 24 24"><g fill="currentColor" class="nc-icon-wrapper"><path d="M12 19a7 7 0 0 1 7-7c.111 0 .219.011.329.017C19.742 10.963 20 9.937 20 9c0-5.634-4.576-9-9-9S2 3.366 2 9c0 5.289 7.952 13.363 8.29 13.705a1 1 0 0 0 1.42 0c.062-.063.387-.393.871-.917A6.97 6.97 0 0 1 12 19zm-1-7a3 3 0 1 1 0-6 3 3 0 0 1 0 6z"/><path d="M21 20c-.35 0-.674.098-.961.257l-2.042-1.225c0-.011.003-.021.003-.032s-.003-.021-.003-.032l2.042-1.225c.287.159.611.257.961.257 1.103 0 2-.897 2-2s-.897-2-2-2-2 .897-2 2c0 .011.003.021.003.032l-2.042 1.225A1.973 1.973 0 0 0 16 17c-1.103 0-2 .897-2 2s.897 2 2 2c.35 0 .674-.098.961-.257l2.042 1.225c0 .011-.003.021-.003.032 0 1.103.897 2 2 2s2-.897 2-2-.897-2-2-2z" data-color="color-2"/></g></svg>
