<svg id="nc_icon" xmlns="http://www.w3.org/2000/svg" xml:space="preserve" viewBox="0 0 24 24"><g fill="currentColor" class="nc-icon-wrapper"><path d="M6.3 11.3c-.2-.4-.3-.8-.3-1.3V9c0-1.7 1.3-3 3-3h2c.5 0 .9.1 1.3.3l5-5C15.7.5 13.9 0 12 0 5.4 0 0 5.4 0 12c0 1.6.3 3.2.9 4.6l5.4-5.3zM19.1 2.3l-5.4 5.4c.2.4.3.8.3 1.3v1c0 1.7-1.3 3-3 3H9c-.5 0-.9-.1-1.3-.3l-5.8 5.8C4.1 21.8 7.8 24 12 24c6.6 0 12-5.4 12-12 0-4-1.9-7.5-4.9-9.7zm-1.3 14.3C15.6 20 12.1 20 12 20h-1v-2h1c.1 0 2.5-.1 4.2-2.6l.6-.8 1.7 1.1-.7.9z"/></g></svg>
