<svg id="nc_icon" xmlns="http://www.w3.org/2000/svg" xml:space="preserve" viewBox="0 0 24 24"><g fill="currentColor" class="nc-icon-wrapper"><path d="M23 3H11v2h12a1 1 0 0 0 0-2zM1 5h2v2a1 1 0 0 0 1 1h4a1 1 0 0 0 1-1V1a1 1 0 0 0-1-1H4a1 1 0 0 0-1 1v2H1a1 1 0 0 0 0 2z"/><path d="M23 11h-2v2h2a1 1 0 0 0 0-2zM1 13h12v2a1 1 0 0 0 1 1h4a1 1 0 0 0 1-1V9a1 1 0 0 0-1-1h-4a1 1 0 0 0-1 1v2H1a1 1 0 0 0 0 2z" data-color="color-2"/><path d="M23 19H11v2h12a1 1 0 0 0 0-2zM8 16H4a1 1 0 0 0-1 1v2H1a1 1 0 0 0 0 2h2v2a1 1 0 0 0 1 1h4a1 1 0 0 0 1-1v-6a1 1 0 0 0-1-1z"/></g></svg>
