<svg id="nc_icon" xmlns="http://www.w3.org/2000/svg" xml:space="preserve" viewBox="0 0 24 24"><g fill="currentColor" class="nc-icon-wrapper"><path d="M23 13h-7c-.4 0-.8.2-.9.6L13 18.5 7.9 6.6C7.8 6.2 7.4 6 7 6s-.8.2-.9.6L3.3 13H1c-.6 0-1 .4-1 1s.4 1 1 1h3c.4 0 .8-.2.9-.6L7 9.5l5.1 11.9c.2.4.5.6.9.6s.8-.2.9-.6l2.7-6.4H23c.6 0 1-.4 1-1s-.4-1-1-1z"/><path d="M16.8 10.9c.4.1.8.1 1.2.1 2.3 0 4.3-1.5 4.8-3.8.1-.3 0-.6-.2-.9-.1-.2-.4-.3-.7-.3H21c-1.7 0-3-1.3-3-3v-.9c0-.3-.1-.6-.4-.8-.2-.2-.6-.3-.9-.2-2.7.7-4.2 3.3-3.6 6 .5 1.9 1.9 3.3 3.7 3.8z" data-color="color-2"/></g></svg>
