<svg id="nc_icon" xmlns="http://www.w3.org/2000/svg" xml:space="preserve" viewBox="0 0 24 24"><g fill="currentColor" class="nc-icon-wrapper"><path d="M17 0H7C5.3 0 4 1.3 4 3h16c0-1.7-1.3-3-3-3z"/><path d="M20 5H4v11h16V5zm-4 7h-.6l-1.7 1.7c-.2.2-.4.3-.7.3h-.2c-.3-.1-.6-.3-.7-.5l-1.4-2.8-1 1c-.2.2-.4.3-.7.3H8c-.6 0-1-.4-1-1s.4-1 1-1h.6l1.7-1.7c.2-.2.5-.3.9-.3.3.1.6.3.7.5l1.4 2.8 1-1c.2-.2.4-.3.7-.3h1c.6 0 1 .4 1 1s-.4 1-1 1z" data-color="color-2"/><path d="M4 18v3c0 1.7 1.3 3 3 3h10c1.7 0 3-1.3 3-3v-3H4zm9 4h-2c-.6 0-1-.4-1-1s.4-1 1-1h2c.6 0 1 .4 1 1s-.4 1-1 1z"/></g></svg>
