<svg id="nc_icon" xmlns="http://www.w3.org/2000/svg" xml:space="preserve" viewBox="0 0 24 24"><g fill="currentColor" class="nc-icon-wrapper"><path d="M5 12c0 3.86 3.14 7 7 7 .813 0 1.603-.146 2.347-.41l-1.657-1.657c-.228.031-.456.067-.69.067-2.757 0-5-2.243-5-5s2.243-5 5-5c.234 0 .462.036.69.067l1.657-1.657A7.009 7.009 0 0 0 12 5c-3.86 0-7 3.14-7 7z" data-color="color-2"/><path d="M12 0C5.383 0 0 5.383 0 12s5.383 12 12 12 12-5.383 12-12S18.617 0 12 0zM2 12C2 6.486 6.486 2 12 2c2.398 0 4.6.85 6.324 2.262l-5.813 5.813A1.96 1.96 0 0 0 12 10c-1.103 0-2 .897-2 2s.897 2 2 2c.178 0 .347-.031.511-.075l5.813 5.813A9.95 9.95 0 0 1 12 22C6.486 22 2 17.514 2 12z"/></g></svg>
