<svg id="nc_icon" xmlns="http://www.w3.org/2000/svg" xml:space="preserve" viewBox="0 0 24 24"><g fill="currentColor" class="nc-icon-wrapper"><circle cx="12" cy="12" r="3" data-color="color-2"/><path d="M21.526 6.5a11.004 11.004 0 0 0-4.542-4.306l-3.022 5.209A5.006 5.006 0 0 1 17 12c0 .205-.036.4-.06.599l6.044-.015A11.003 11.003 0 0 0 21.526 6.5zM7 12a5.006 5.006 0 0 1 3.038-4.597l-3.022-5.21a11.004 11.004 0 0 0-6 10.391l6.045.015C7.036 12.4 7 12.205 7 12zM12 17a4.952 4.952 0 0 1-2.99-1.018l-3.008 5.239A11.003 11.003 0 0 0 18 21.219l-3.009-5.237A4.952 4.952 0 0 1 12 17z"/></g></svg>
