<svg id="nc_icon" xmlns="http://www.w3.org/2000/svg" xml:space="preserve" viewBox="0 0 24 24"><g fill="currentColor" class="nc-icon-wrapper"><path d="M12 5C5.4 5 0 10.4 0 17c0 .6.4 1 1 1s1-.4 1-1C2 11.5 6.5 7 12 7s10 4.5 10 10c0 .6.4 1 1 1s1-.4 1-1c0-6.6-5.4-12-12-12z"/><path d="M12 9c-4.4 0-8 3.6-8 8 0 .6.4 1 1 1s1-.4 1-1c0-3.3 2.7-6 6-6s6 2.7 6 6c0 .6.4 1 1 1s1-.4 1-1c0-4.4-3.6-8-8-8z" data-color="color-2"/><path d="M12 13c-2.2 0-4 1.8-4 4 0 .6.4 1 1 1s1-.4 1-1c0-1.1.9-2 2-2s2 .9 2 2c0 .6.4 1 1 1s1-.4 1-1c0-2.2-1.8-4-4-4z"/></g></svg>
