<svg id="nc_icon" xmlns="http://www.w3.org/2000/svg" xml:space="preserve" viewBox="0 0 24 24"><g fill="currentColor" class="nc-icon-wrapper"><path d="M2.001 10.98a1 1 0 0 0 1.179-.781C4.027 6.027 7.736 3 12 3c1.821 0 3.562.544 5.039 1.547l-3.12 3.12 9.297 1.549-1.549-9.297-3.198 3.198A10.92 10.92 0 0 0 12 1C6.789 1 2.255 4.701 1.22 9.801a1 1 0 0 0 .781 1.179z"/><path d="M21.999 13.02a1 1 0 0 0-1.179.781C19.973 17.973 16.264 21 12 21a8.938 8.938 0 0 1-5.039-1.547l3.12-3.12-9.297-1.549 1.549 9.297 3.198-3.198A10.92 10.92 0 0 0 12 23c5.211 0 9.745-3.701 10.78-8.801a1 1 0 0 0-.781-1.179z" data-color="color-2"/></g></svg>
