<svg id="nc_icon" xmlns="http://www.w3.org/2000/svg" xml:space="preserve" viewBox="0 0 24 24"><path fill="currentColor" d="M12 0a12 12 0 1 0 12 12A12.013 12.013 0 0 0 12 0Zm0 3a1 1 0 1 1-1 1 1 1 0 0 1 1-1ZM4 13a1 1 0 1 1 1-1 1 1 0 0 1-1 1Zm3.05 5.364a1 1 0 1 1 0-1.414 1 1 0 0 1 0 1.414Zm0-11.314a1 1 0 1 1 0-1.414 1 1 0 0 1 0 1.414ZM12 21a1 1 0 1 1 1-1 1 1 0 0 1-1 1Zm0-5a4 4 0 1 1 4-4 4 4 0 0 1-4 4Zm6.364 2.364a1 1 0 1 1 0-1.414 1 1 0 0 1 0 1.414Zm0-11.314a1 1 0 1 1 0-1.414 1 1 0 0 1 0 1.414ZM20 13a1 1 0 1 1 1-1 1 1 0 0 1-1 1Z" class="nc-icon-wrapper"/></svg>
