<svg id="nc_icon" xmlns="http://www.w3.org/2000/svg" xml:space="preserve" viewBox="0 0 24 24"><path fill="currentColor" d="M23 0c-.6 0-1 .4-1 1v2h-2V1c0-.6-.4-1-1-1s-1 .4-1 1v3c0 .6.4 1 1 1h1v8h-.1c-.3-3.3-2.2-6.1-4.9-7.6V2c0-.6-.4-1-1-1s-1 .4-1 1v2.5c-.6-.2-1.3-.3-2-.4V2c0-.6-.4-1-1-1s-1 .4-1 1v2.1c-.7 0-1.4.2-2 .4V2c0-.6-.4-1-1-1s-1 .4-1 1v3.4c-3 1.7-5 5-5 8.6 0 5.5 4.5 10 10 10 5.2 0 9.4-4 9.9-9H21c.6 0 1-.4 1-1V5h1c.6 0 1-.4 1-1V1c0-.6-.4-1-1-1zM5 9h4v2H5V9zm5 11c-1.7 0-3-1.3-3-3s1.3-3 3-3 3 1.3 3 3-1.3 3-3 3zm5-9h-4V9h4v2z" class="nc-icon-wrapper"/></svg>
