<svg id="nc_icon" xmlns="http://www.w3.org/2000/svg" viewBox="0 0 24 24"><g fill="currentColor" class="nc-icon-wrapper"><path d="m20.485 6.343-2.829-2.829a2.004 2.004 0 0 0-2.828 0L3.514 14.829a2.003 2.003 0 0 0 0 2.828l2.829 2.829c.39.389.901.584 1.414.584.512 0 1.024-.195 1.414-.584L20.486 9.171a2.002 2.002 0 0 0-.001-2.828z"/><path d="m21.899 4.929.515-.515a2 2 0 1 0-2.828-2.828l-.515.515 2.828 2.828zM4.929 21.899l-.515.515a2 2 0 1 1-2.828-2.828l.515-.515 2.828 2.828z" data-color="color-2"/></g></svg>
