<svg id="nc_icon" xmlns="http://www.w3.org/2000/svg" xml:space="preserve" viewBox="0 0 24 24"><g fill="currentColor" class="nc-icon-wrapper"><path d="M8 24H7c-3.859 0-7-3.14-7-7v-1h2v1c0 2.757 2.243 5 5 5h1v2z" data-color="color-2"/><path d="M23 14h-2.313c-.029.039-.045.086-.081.121l-6.485 6.485a.999.999 0 0 1-1.414 0l-9.314-9.314a.999.999 0 0 1 0-1.414l6.485-6.485a.999.999 0 0 1 1.414 0l1.114 1.114a3.007 3.007 0 0 1 1.523-1.305L12 1.272a3.003 3.003 0 0 0-4.243 0L1.272 7.757a3.003 3.003 0 0 0 0 4.243L12 22.728a3.003 3.003 0 0 0 4.243 0l6.485-6.485a2.98 2.98 0 0 0 .86-2.302c-.19.038-.387.059-.588.059z"/><path d="M23 5h-1V3c0-1.654-1.346-3-3-3s-3 1.346-3 3v2h-1a1 1 0 0 0-1 1v5a1 1 0 0 0 1 1h8a1 1 0 0 0 1-1V6a1 1 0 0 0-1-1zm-5-2c0-.551.449-1 1-1s1 .449 1 1v2h-2V3z" data-color="color-2"/></g></svg>
