<svg id="nc_icon" xmlns="http://www.w3.org/2000/svg" xml:space="preserve" viewBox="0 0 24 24"><g fill="currentColor" class="nc-icon-wrapper"><path d="M16 7c0-2.194-2.733-5.129-3.281-5.695L12 .563l-.719.742C10.733 1.87 8 4.805 8 7c0 2.504 2.034 4 4 4s4-1.496 4-4z" data-color="color-2"/><path d="M8.767 12.585a2.776 2.776 0 0 0-1.768-1.575 2.798 2.798 0 0 0-1.607.003L4.58 8.578A3.768 3.768 0 0 0 1 6H0v10.062c0 1.449.394 2.872 1.14 4.115L3.434 24H11v-4.358a8.962 8.962 0 0 0-.728-3.546l-1.505-3.511zM9 22H4.566l-1.711-2.853A6.004 6.004 0 0 1 2 16.062V8.307c.312.213.557.526.684.904l1.055 3.168a2.8 2.8 0 0 0-.128 2.34l1.46 3.652a1 1 0 0 0 1.858-.742l-1.46-3.651a.794.794 0 0 1 .295-.952.789.789 0 0 1 1.165.347l1.506 3.51c.375.877.565 1.805.565 2.759V22zM13.728 16.096A8.962 8.962 0 0 0 13 19.642V24h7.566l2.294-3.823A7.998 7.998 0 0 0 24 16.062V6h-1a3.768 3.768 0 0 0-3.58 2.578l-.812 2.435a2.798 2.798 0 0 0-1.607-.003 2.776 2.776 0 0 0-1.768 1.575l-1.505 3.51zM15 19.642c0-.954.19-1.882.565-2.758l1.506-3.51a.789.789 0 0 1 1.165-.348c.29.193.442.585.295.952l-1.46 3.65a1 1 0 0 0 1.858.743l1.46-3.651a2.8 2.8 0 0 0-.128-2.341l1.055-3.168c.127-.378.372-.691.684-.904v7.755a6.004 6.004 0 0 1-.854 3.085L19.434 22H15v-2.358z"/></g></svg>
