<svg id="nc_icon" xmlns="http://www.w3.org/2000/svg" xml:space="preserve" viewBox="0 0 24 24"><g fill="currentColor" class="nc-icon-wrapper"><path d="M23 19c-.6 0-1 .4-1 1v1c0 .6-.4 1-1 1h-6v-3c0-.6-.4-1-1-1h-4c-.6 0-1 .4-1 1v3H1c-.6 0-1 .4-1 1s.4 1 1 1h20c1.7 0 3-1.3 3-3v-1c0-.6-.4-1-1-1z" data-color="color-2"/><path d="M21 0h-9c-.6 0-1 .4-1 1s.4 1 1 1h9c.6 0 1 .4 1 1v2H1c-.6 0-1 .4-1 1v4.5c0 3 2.5 5.5 5.5 5.5 2.9 0 5.2-2.2 5.5-5h2c.3 2.8 2.6 5 5.5 5 3 0 5.5-2.5 5.5-5.5V3c0-1.7-1.3-3-3-3z"/></g></svg>
