<svg id="nc_icon" xmlns="http://www.w3.org/2000/svg" xml:space="preserve" viewBox="0 0 24 24"><g fill="currentColor" class="nc-icon-wrapper"><path d="M1 10h7a1 1 0 0 0 0-2H1a1 1 0 1 0 0 2zM1 16h7a1 1 0 0 0 0-2H1a1 1 0 1 0 0 2zM16 20H1a1 1 0 1 0 0 2h15a1 1 0 1 0 0-2zM1 4h15a1 1 0 1 0 0-2H1a1 1 0 1 0 0 2z"/><path d="m23.707 18.293-3.54-3.54A4.969 4.969 0 0 0 21 12c0-2.757-2.243-5-5-5s-5 2.243-5 5 2.243 5 5 5a4.969 4.969 0 0 0 2.753-.833l3.54 3.54a.997.997 0 0 0 1.414 0 .999.999 0 0 0 0-1.414zM16 15a3 3 0 1 1 0-6 3 3 0 0 1 0 6z" data-color="color-2"/></g></svg>
