<svg id="nc_icon" xmlns="http://www.w3.org/2000/svg" xml:space="preserve" viewBox="0 0 24 24"><g fill="currentColor" class="nc-icon-wrapper"><circle cx="12" cy="12" r="2"/><path d="M22 0H2a1 1 0 0 0-1 1v22a1 1 0 0 0 1 1h20a1 1 0 0 0 1-1V1a1 1 0 0 0-1-1zm-4 13h-2.142a3.915 3.915 0 0 1-.425 1.019l1.516 1.516-1.414 1.414-1.516-1.516a4 4 0 0 1-1.019.425V18h-2v-2.142a3.915 3.915 0 0 1-1.019-.425l-1.516 1.516-1.414-1.414 1.516-1.516A3.915 3.915 0 0 1 8.142 13H6v-2h2.142c.094-.363.238-.704.425-1.019L7.051 8.465l1.414-1.414 1.516 1.516A3.915 3.915 0 0 1 11 8.142V6h2v2.142c.363.094.704.238 1.019.425l1.516-1.516 1.414 1.414-1.516 1.516A4 4 0 0 1 15.858 11H18v2z"/></g></svg>
