<svg id="nc_icon" xmlns="http://www.w3.org/2000/svg" xml:space="preserve" viewBox="0 0 24 24"><path fill="currentColor" d="m24 10.7-1.2-3.8c-.1-.3-.3-.5-.5-.6s-.5-.1-.8-.1l-2.4.8A9.32 9.32 0 0 0 15 4V1.5c0-.6-.4-1-1-1h-4c-.6 0-1 .4-1 1V4c-1.6.6-3.1 1.6-4.1 3l-2.4-.8c-.3-.1-.6 0-.8.1-.2.1-.4.3-.5.6L0 10.7c-.2.5.1 1.1.6 1.3l2.4.7c0 1.7.6 3.4 1.6 4.9l-1.5 2c-.2.2-.2.5-.2.7s.2.5.4.7l3.2 2.4c.5.3 1.1.2 1.5-.3l1.5-2c1.7.5 3.4.5 5.1 0l1.5 2c.2.3.5.4.8.4.2 0 .4-.1.6-.2l3.2-2.4c.2-.2.4-.4.4-.7s0-.5-.2-.7l-1.5-2c1-1.4 1.5-3.1 1.6-4.9l2.4-.8c.5-.1.8-.6.6-1.1zm-12 5.8c-2.2 0-4-1.8-4-4s1.8-4 4-4 4 1.8 4 4-1.8 4-4 4z" class="nc-icon-wrapper"/></svg>
