<svg id="nc_icon" xmlns="http://www.w3.org/2000/svg" xml:space="preserve" viewBox="0 0 24 24"><g fill="currentColor" class="nc-icon-wrapper"><path d="M10.853 9.439 6.707 5.293 8 4 4 0 0 4l4 4 1.293-1.293 3.896 3.896zM18.94 13.94c-.309.036-.622.06-.94.06-.305 0-.608-.018-.912-.053l-3.641 4.499 4.518 4.518a3.535 3.535 0 1 0 5-5L18.94 13.94z" data-color="color-2"/><path d="m20.271 6.771-3.042-3.042L20.437.521A5.97 5.97 0 0 0 18 0a6 6 0 0 0-5.75 7.708l-10.789 8.73a4.335 4.335 0 0 0-1.459 3.106 4.335 4.335 0 0 0 1.264 3.19 4.325 4.325 0 0 0 6.296-.195l8.73-10.789A6 6 0 0 0 24 6c0-.869-.189-1.692-.521-2.438l-3.208 3.209z"/></g></svg>
