<svg id="nc_icon" xmlns="http://www.w3.org/2000/svg" viewBox="0 0 24 24"><path fill="currentColor" d="M23 9h-1.461A10.045 10.045 0 0 0 15 2.461V1a1 1 0 0 0-1-1h-4a1 1 0 0 0-1 1v1.461A10.045 10.045 0 0 0 2.461 9H1a1 1 0 0 0-1 1v4a1 1 0 0 0 1 1h1.461A10.045 10.045 0 0 0 9 21.539V23a1 1 0 0 0 1 1h4a1 1 0 0 0 1-1v-1.461A10.045 10.045 0 0 0 21.539 15H23a1 1 0 0 0 1-1v-4a1 1 0 0 0-1-1Zm-8 10.411V19a1 1 0 0 0-1-1h-4a1 1 0 0 0-1 1v.411A8.042 8.042 0 0 1 4.589 15H5a1 1 0 0 0 1-1v-4a1 1 0 0 0-1-1h-.411A8.042 8.042 0 0 1 9 4.589V5a1 1 0 0 0 1 1h4a1 1 0 0 0 1-1v-.411A8.042 8.042 0 0 1 19.411 9H19a1 1 0 0 0-1 1v4a1 1 0 0 0 1 1h.411A8.042 8.042 0 0 1 15 19.411Z" class="nc-icon-wrapper"/></svg>
