<svg id="nc_icon" xmlns="http://www.w3.org/2000/svg" xml:space="preserve" viewBox="0 0 24 24"><g fill="currentColor" class="nc-icon-wrapper"><path d="M19 23c-1.3 0-2.6-.5-3.5-1.5-.9 1-2.2 1.5-3.5 1.5-1.3 0-2.6-.5-3.5-1.5-.9 1-2.2 1.5-3.5 1.5-2.8 0-5-2.2-5-5 0-.6.4-1 1-1s1 .4 1 1c0 1.7 1.3 3 3 3 1.1 0 2.1-.6 2.6-1.6.3-.6 1.4-.6 1.8 0 .5 1 1.5 1.6 2.6 1.6s2.1-.6 2.6-1.6c.3-.6 1.4-.6 1.8 0 .5 1 1.5 1.6 2.6 1.6 1.7 0 3-1.3 3-3 0-.6.4-1 1-1s1 .4 1 1c0 2.8-2.2 5-5 5z" data-color="color-2"/><path d="M20 16C19.9 7.8 13.2 1 5 1c-.6 0-1 .4-1 1v14h16z"/></g></svg>
