<svg id="nc_icon" xmlns="http://www.w3.org/2000/svg" xml:space="preserve" viewBox="0 0 24 24"><path fill="currentColor" d="M19 4c-.697 0-1.387.133-2.037.368.011-.123.037-.242.037-.368 0-2.206-1.794-4-4-4-.986 0-1.924.366-2.653 1.022C8.557.796 7 2.232 7 4c0 .126.025.246.04.369A6.019 6.019 0 0 0 5 4H0v1c0 2.555 1.644 4.8 4 5.64V16c0 4.072 3.06 7.436 7 7.93v-4.263L9.6 17.8a.5.5 0 0 1 .4-.8h4a.5.5 0 0 1 .4.8L13 19.667v4.264c3.94-.495 7-3.86 7-7.931v-5.36c2.356-.84 4-3.085 4-5.64V4h-5zM8.5 14a1.5 1.5 0 1 1 0-3 1.5 1.5 0 0 1 0 3zM13 6c-.596 0-1.16-.274-1.547-.753l-.447-.554-.67.241A.994.994 0 0 1 10 5c-.551 0-1-.449-1-1s.449-1 1-1c.103 0 .213.021.337.066l.67.24.446-.553C11.84 2.274 12.403 2 13 2c1.103 0 2 .897 2 2s-.897 2-2 2zm2.5 8a1.5 1.5 0 1 1 0-3 1.5 1.5 0 0 1 0 3z" class="nc-icon-wrapper"/></svg>
