<svg id="nc_icon" xmlns="http://www.w3.org/2000/svg" xml:space="preserve" viewBox="0 0 24 24"><g fill="currentColor" class="nc-icon-wrapper"><path d="M20 12H4c-1.1 0-2 .9-2 2s.9 2 2 2h16c1.1 0 2-.9 2-2s-.9-2-2-2zM12.1 24H12c-.5 0-.9-.4-.9-.9V22c0-.5.4-.9.9-.9h.1c.5 0 .9.4.9.9v1.1c0 .5-.4.9-.9.9zM8.1 21h-.2c-.5 0-.9-.4-.9-.9V19c0-.6.4-1 .9-1H8c.6 0 1 .4 1 .9V20c0 .6-.4 1-.9 1zM16.1 21H16c-.5 0-.9-.4-.9-.9V19c0-.5.4-.9.9-.9h.1c.5 0 .9.4.9.9v1.1c0 .5-.4.9-.9.9z" data-color="color-2"/><path d="M13 3.1V1c0-.6-.4-1-1-1s-1 .4-1 1v2.1c-3.6.4-6.5 3.3-6.9 6.9H20c-.5-3.6-3.4-6.5-7-6.9z"/></g></svg>
