<svg id="nc_icon" xmlns="http://www.w3.org/2000/svg" xml:space="preserve" viewBox="0 0 24 24"><g fill="currentColor" class="nc-icon-wrapper"><path d="M12 14c-1.103 0-2-.897-2-2s.897-2 2-2 2 .897 2 2-.897 2-2 2zm0-2v.002V12z"/><path d="M17.761 22.359a1 1 0 0 1-.527-1.851C20.219 18.667 22 15.486 22 12c0-5.514-4.486-10-10-10S2 6.486 2 12c0 3.486 1.781 6.667 4.766 8.509a1 1 0 1 1-1.051 1.701C2.137 20.002 0 16.185 0 12 0 5.383 5.383 0 12 0s12 5.383 12 12c0 4.185-2.137 8.002-5.715 10.21a.99.99 0 0 1-.524.149z"/><path d="M15.143 18.104a1.001 1.001 0 0 1-.526-1.852A4.965 4.965 0 0 0 17 12c0-2.757-2.243-5-5-5s-5 2.243-5 5c0 1.743.891 3.334 2.383 4.253a1 1 0 0 1-1.049 1.703A6.956 6.956 0 0 1 5 12c0-3.859 3.141-7 7-7s7 3.141 7 7a6.956 6.956 0 0 1-3.334 5.956.991.991 0 0 1-.523.148z" data-color="color-2"/></g></svg>
