<svg id="nc_icon" xmlns="http://www.w3.org/2000/svg" xml:space="preserve" viewBox="0 0 24 24"><path fill="currentColor" d="M12 0C5.9 0 1 4.9 1 11v13h22V11c0-6.1-4.9-11-11-11zM5 9c0-1.7 1.3-3 3-3s3 1.3 3 3v1H9V9c0-.6-.4-1-1-1s-1 .4-1 1v1H5V9zm12 9c0 1.7-1.3 3-3 3-.8 0-1.5-.3-2-.8-.5.5-1.2.8-2 .8-1.7 0-3-1.3-3-3v-1h2v1c0 .6.4 1 1 1s1-.4 1-1v-2.3c-.6-.3-1-1-1-1.7 0-1.1.9-2 2-2s2 .9 2 2c0 .7-.4 1.4-1 1.7V18c0 .6.4 1 1 1s1-.4 1-1v-1h2v1zm2-8h-2V9c0-.6-.4-1-1-1s-1 .4-1 1v1h-2V9c0-1.7 1.3-3 3-3s3 1.3 3 3v1z" class="nc-icon-wrapper"/></svg>
