<svg id="nc_icon" xmlns="http://www.w3.org/2000/svg" viewBox="0 0 24 24"><g fill="currentColor" class="nc-icon-wrapper"><path d="M3.324 12.314a1.23 1.23 0 0 1 1.637 0l.985.85a3.231 3.231 0 0 0 4.252 0l.983-.85a1.231 1.231 0 0 1 1.638 0l.984.85a3.231 3.231 0 0 0 4.252 0l.983-.85a1.231 1.231 0 0 1 1.638 0l1.671 1.443 1.306-1.514-1.67-1.443a3.229 3.229 0 0 0-4.252 0l-.983.849a1.231 1.231 0 0 1-1.638 0l-.984-.849a3.229 3.229 0 0 0-4.252 0l-.983.849a1.231 1.231 0 0 1-1.638 0l-.984-.849a3.229 3.229 0 0 0-4.252 0l-1.67 1.443 1.306 1.514Z" data-color="color-2"/><path d="M23 16H1a1 1 0 0 0-1 1v1a3 3 0 0 0 3 3h18a3 3 0 0 0 3-3v-1a1 1 0 0 0-1-1ZM21 3H3a3 3 0 0 0-3 3v1a1 1 0 0 0 1 1h22a1 1 0 0 0 1-1V6a3 3 0 0 0-3-3Z"/></g></svg>
