<svg id="nc_icon" xmlns="http://www.w3.org/2000/svg" xml:space="preserve" viewBox="0 0 24 24"><path fill="currentColor" d="M23.429 13.776a8.073 8.073 0 0 0-5.529-.489c-.34-.38-.75-.722-1.218-1.02A4.998 4.998 0 0 1 20 11a1 1 0 1 0 0-2 7.002 7.002 0 0 0-5.258 2.391 9.379 9.379 0 0 0-1.742-.33V3a1 1 0 1 0-2 0v8.06c-.61.06-1.196.17-1.742.331A7.002 7.002 0 0 0 4 9a1 1 0 1 0 0 2c1.234 0 2.411.461 3.318 1.267-.468.298-.879.64-1.218 1.02a8.073 8.073 0 0 0-5.529.49 1 1 0 1 0 .858 1.806 6.045 6.045 0 0 1 3.684-.467c-.07.289-.113.585-.113.89 0 .258.034.508.084.753A6.016 6.016 0 0 0 2 22.006a1 1 0 1 0 2 0 4.01 4.01 0 0 1 1.965-3.441c1.205 1.47 3.43 2.441 6.035 2.441s4.83-.97 6.035-2.441A4.01 4.01 0 0 1 20 22.006a1 1 0 1 0 2 0 6.016 6.016 0 0 0-3.084-5.247c.05-.245.084-.495.084-.753 0-.305-.043-.6-.113-.89a6.055 6.055 0 0 1 3.684.467 1 1 0 0 0 .857-1.807z" class="nc-icon-wrapper"/></svg>
