<svg id="nc_icon" xmlns="http://www.w3.org/2000/svg" xml:space="preserve" viewBox="0 0 24 24"><path fill="currentColor" d="M19.471 12.854a4.483 4.483 0 0 0 1.187-1.643L24 12.882V2a1 1 0 0 0-1-1H1a1 1 0 0 0-1 1v12.4l5.989-4.658 4.045 3.034 2.314-1.544a4.5 4.5 0 0 0 1.178 1.62l-3.561 2.373-3.955-2.966L0 16.934V22a1 1 0 0 0 1 1h22a1 1 0 0 0 1-1v-6.882l-4.529-2.264zM17 11.949V21h-1v-9.051c-1.14-.232-2-1.242-2-2.449s.86-2.217 2-2.449V3h1v4.051c1.14.232 2 1.242 2 2.449s-.86 2.217-2 2.449z" class="nc-icon-wrapper"/></svg>
