<svg id="nc_icon" xmlns="http://www.w3.org/2000/svg" xml:space="preserve" viewBox="0 0 24 24"><g fill="currentColor" class="nc-icon-wrapper"><path d="M17.31 22v-.944l1.36-1.33c1.026-.995 1.462-1.4 1.462-1.98 0-.376-.182-.65-.72-.65-.56 0-.793.184-.793.904l-1.38-.122c.01-1.614 1.238-1.878 2.304-1.878 1.574 0 2.132.67 2.132 1.624 0 .955-.66 1.584-1.4 2.295l-1.148 1.097h1.493c.1 0 .142-.02.162-.123l.142-.801H22V22h-4.69z" data-color="color-2"/><path d="M6 21v-1.583l2.63-.155c.31-.023.37-.111.37-.443V4H4.188c-.243 0-.31.022-.354.243L3.481 6H2V2h16v4h-1.481l-.353-1.757c-.044-.22-.111-.243-.354-.243H11v14.82c0 .31.038.398.37.42l2.63.177V21H6z"/></g></svg>
