<svg id="nc_icon" xmlns="http://www.w3.org/2000/svg" xml:space="preserve" viewBox="0 0 24 24"><g fill="currentColor" class="nc-icon-wrapper"><path d="M19 14c-.108 0-.213.023-.321.03.2-.656.321-1.338.321-2.03 0-3.859-3.14-7-7-7s-7 3.141-7 7c0 .691.115 1.375.314 2.032C5.209 14.025 5.105 14 5 14c-2.757 0-5 2.243-5 5s2.243 5 5 5h14c2.757 0 5-2.243 5-5s-2.243-5-5-5zm-7-7a5.006 5.006 0 0 1 4.726 6.642A6.492 6.492 0 0 0 11.5 11a6.49 6.49 0 0 0-4.435 1.758A4.93 4.93 0 0 1 7 12c0-2.757 2.243-5 5-5z"/><path d="M11 0h2v3h-2zM19.779 2.807l1.414 1.415-2.122 2.12-1.414-1.413zM24 11v2h-3v-2zM0 13v-2h3v2zM2.807 4.222l1.414-1.414 2.122 2.121-1.415 1.414z" data-color="color-2"/></g></svg>
