<svg id="nc_icon" xmlns="http://www.w3.org/2000/svg" xml:space="preserve" viewBox="0 0 24 24"><g fill="currentColor" class="nc-icon-wrapper"><path d="M23 16H1c-.6 0-1 .4-1 1s.4 1 1 1h22c.6 0 1-.4 1-1s-.4-1-1-1zM20 20H4c-.6 0-1 .4-1 1s.4 1 1 1h16c.6 0 1-.4 1-1s-.4-1-1-1z" data-color="color-2"/><path d="M23.2 10.3c.5-1.1.8-2.2.8-3.3 0-3.9-3.1-7-7-7-3.2 0-5.9 2.1-6.7 5.1-1.8.4-3.4 1.4-4.3 3C5.6 8 5.3 8 5 8c-2.8 0-5 2.2-5 5 0 .6.4 1 1 1h22c.6 0 1-.4 1-1v-.2c0-1-.4-1.8-.8-2.5zm-1.5-1.5C20.9 8.3 20 8 19 8c-.6 0-1.2.1-1.8.3-1-1.8-2.7-3-4.8-3.3.8-1.8 2.5-3 4.6-3 2.8 0 5 2.2 5 5 0 .6-.1 1.2-.3 1.8z"/></g></svg>
