<svg id="nc_icon" xmlns="http://www.w3.org/2000/svg" xml:space="preserve" viewBox="0 0 24 24"><path fill="currentColor" d="m19 8.4 2.1-2.1.4.4c.4.4 1 .4 1.4 0 .4-.4.4-1 0-1.4L18.7 1c-.4-.4-1-.4-1.4 0-.4.4-.4 1 0 1.4l.4.4L15.6 5l-3.2-3.2c-.4-.4-1-.4-1.4 0-.4.4-.4 1 0 1.4l2.1 2.1-.7.7L14 7.6 12.6 9 11 7.4 9.4 9l1.6 1.6L9.6 12 8 10.4 6.4 12 8 13.6 6.6 15 5 13.4l-1.8 1.8 2.1 2.1L1 21.5c-.4.4-.4 1 0 1.4.4.4 1 .4 1.4 0l4.2-4.2 2.1 2.1 9.9-9.9 2.1 2.1c.4.4 1 .4 1.4 0 .4-.4.4-1 0-1.4L19 8.4z" class="nc-icon-wrapper"/></svg>
