<svg id="nc_icon" xmlns="http://www.w3.org/2000/svg" xml:space="preserve" viewBox="0 0 24 24"><g fill="currentColor" class="nc-icon-wrapper"><path d="M15 12c0-3.408 1.559-6.46 4-8.479C17.097 1.947 14.657 1 12 1s-5.097.947-7 2.521C7.441 5.541 9 8.591 9 12s-1.559 6.46-4 8.479C6.903 22.053 9.343 23 12 23s5.097-.947 7-2.521c-2.441-2.02-4-5.07-4-8.479z"/><path d="M20.429 4.945C18.344 6.595 17 9.141 17 12s1.344 5.405 3.429 7.055C22.03 17.143 23 14.684 23 12s-.969-5.143-2.571-7.055zM3.571 4.945C1.97 6.857 1 9.316 1 12s.969 5.143 2.571 7.055C5.656 17.405 7 14.859 7 12S5.656 6.595 3.571 4.945z" data-color="color-2"/></g></svg>
