<svg id="nc_icon" xmlns="http://www.w3.org/2000/svg" xml:space="preserve" viewBox="0 0 24 24"><g fill="currentColor" class="nc-icon-wrapper"><path d="M22.9 9.1c.2-.1.4-.2.5-.4.4-.9.6-1.8.6-2.7 0-3.3-2.7-6-6-6-1.5 0-2.9.6-4 1.6-.2.2-.3.4-.3.6 4.1.5 7.6 3.2 9.2 6.9zM1.1 9.1c1.7-3.7 5.1-6.3 9.2-6.9 0-.2-.1-.4-.3-.6C8.9.6 7.5 0 6 0 2.7 0 0 2.7 0 6c0 .9.2 1.8.6 2.6.1.2.3.4.5.5z" data-color="color-2"/><path d="m21.7 22.3-2-2c1.4-1.7 2.3-3.9 2.3-6.3 0-5.5-4.5-10-10-10S2 8.5 2 14c0 2.4.8 4.6 2.3 6.3l-2 2c-.4.4-.4 1 0 1.4.2.2.4.3.7.3s.5-.1.7-.3l2-2C7.4 23.2 9.6 24 12 24s4.6-.8 6.3-2.3l2 2c.2.2.5.3.7.3s.5-.1.7-.3c.4-.4.4-1 0-1.4zM17 15h-6V9h2v4h4v2z"/></g></svg>
