<svg id="nc_icon" xmlns="http://www.w3.org/2000/svg" xml:space="preserve" viewBox="0 0 24 24"><g fill="currentColor" class="nc-icon-wrapper"><path d="m20.895 22.553-3-6a1 1 0 1 0-1.789.895L17.382 20H6.618l1.276-2.553a1 1 0 0 0-1.789-.895l-3 6a1 1 0 1 0 1.79.895L5.618 22h12.764l.724 1.447a.998.998 0 0 0 1.341.448c.494-.248.695-.848.448-1.342z" data-color="color-2"/><path d="M0 6h2v5H0zM22 6h2v5h-2zM18 0H6C4.346 0 3 1.346 3 3v14a1 1 0 0 0 1 1h16a1 1 0 0 0 1-1V3c0-1.654-1.346-3-3-3zM7 15a1 1 0 1 1 0-2 1 1 0 0 1 0 2zm10 0a1 1 0 1 1 0-2 1 1 0 0 1 0 2zm2-6a1 1 0 0 1-1 1H6a1 1 0 0 1-1-1V3a1 1 0 0 1 1-1h12a1 1 0 0 1 1 1v6z"/></g></svg>
