<svg id="nc_icon" xmlns="http://www.w3.org/2000/svg" viewBox="0 0 24 24"><g fill="currentColor" class="nc-icon-wrapper"><path d="M23 23H1a1 1 0 0 1 0-2h22a1 1 0 0 1 0 2z" data-color="color-2"/><path d="M16.28 1.98c0-.366-.049-.464-.391-.488l-1.54-.172V0h6.064v1.32l-1.638.196c-.367.05-.391.098-.391.464v9.808c0 4.23-2.348 6.212-6.53 6.212-4.55 0-6.334-2.153-6.334-6.26V1.98c0-.366-.05-.464-.392-.488L3.587 1.32V0h6.212v1.32l-1.639.196c-.366.05-.391.098-.391.464v9.49c0 3.301 1.395 4.622 4.231 4.622 2.886 0 4.28-1.15 4.28-4.549V1.98z"/></g></svg>
