<svg id="nc_icon" xmlns="http://www.w3.org/2000/svg" xml:space="preserve" viewBox="0 0 24 24"><path fill="currentColor" d="M23 7c-.732 0-1.41.212-2 .556V7c0-3.86-3.14-7-7-7h-4C6.14 0 3 3.14 3 7v.556A3.954 3.954 0 0 0 1 7H0v4c0 1.858 1.28 3.41 3 3.858V15c0 4.962 4.037 9 9 9s9-4.038 9-9v-.142c1.72-.447 3-2 3-3.858V7h-1zm-7.5 1a1.5 1.5 0 1 1 0 3 1.5 1.5 0 0 1 0-3zm-7 0a1.5 1.5 0 1 1 0 3 1.5 1.5 0 0 1 0-3zM15 20.236 13.382 17h-2.764L9 20.236 6.382 15H17.618L15 20.236z" class="nc-icon-wrapper"/></svg>
