<svg id="nc_icon" xmlns="http://www.w3.org/2000/svg" viewBox="0 0 24 24"><path fill="currentColor" d="M24 8V4h-4v1h-4.142a3.981 3.981 0 0 0-7.716 0H4V4H0v4h4V7h4.142a3.9 3.9 0 0 0 .247.692A10.007 10.007 0 0 0 2.055 16H1a1 1 0 0 0-1 1v4a1 1 0 0 0 1 1h4a1 1 0 0 0 1-1v-4a1 1 0 0 0-1-1h-.931a8.015 8.015 0 0 1 5.706-6.679 3.985 3.985 0 0 0 4.45 0A8.015 8.015 0 0 1 19.931 16H19a1 1 0 0 0-1 1v4a1 1 0 0 0 1 1h4a1 1 0 0 0 1-1v-4a1 1 0 0 0-1-1h-1.055a10.007 10.007 0 0 0-6.334-8.308A3.9 3.9 0 0 0 15.858 7H20v1ZM12 4a2 2 0 1 1-2 2 2 2 0 0 1 2-2Z" class="nc-icon-wrapper"/></svg>
