<svg id="nc_icon" xmlns="http://www.w3.org/2000/svg" xml:space="preserve" viewBox="0 0 24 24"><g fill="currentColor" class="nc-icon-wrapper"><path d="M11 14h2v1h-2zM11 11h2v1h-2z"/><path d="M1 22v1c0 .6.4 1 1 1h20c.6 0 1-.4 1-1v-1H1z" data-color="color-2"/><path d="M23 20V9c0-.2-.1-.5-.2-.7C21 6.4 20 3.7 20 1c0-.6-.4-1-1-1h-3c-.6 0-1 .4-1 1 0 1.7-1.3 3-3 3S9 2.7 9 1c0-.6-.4-1-1-1H5c-.6 0-1 .4-1 1 0 2.7-1 5.4-2.8 7.3-.1.2-.2.5-.2.7v11h22zM9 10c0-.6.4-1 1-1h4c.6 0 1 .4 1 1v6c0 .6-.4 1-1 1h-4c-.6 0-1-.4-1-1v-6z"/></g></svg>
