<svg id="nc_icon" xmlns="http://www.w3.org/2000/svg" xml:space="preserve" viewBox="0 0 24 24"><g fill="currentColor" class="nc-icon-wrapper"><path d="M13.537 15.992C11.95 15.334 10.087 15 8 15s-3.95.334-5.536.992A3.984 3.984 0 0 0 0 19.688V23h16v-3.312a3.984 3.984 0 0 0-2.463-3.696z"/><circle cx="8" cy="9" r="5"/><path d="m17.088 13.057-1.499-1.323.661-.75a3 3 0 0 0 .001-3.967l-.661-.75 1.499-1.323.662.75A4.989 4.989 0 0 1 19 9a4.994 4.994 0 0 1-1.25 3.307l-.662.75z" data-color="color-2"/><path d="m19.923 17.12-1.334-1.49.745-.667A8.018 8.018 0 0 0 22 9a8.014 8.014 0 0 0-2.666-5.962l-.745-.667 1.334-1.49.745.667C22.785 3.443 24 6.16 24 9s-1.215 5.557-3.332 7.453l-.745.667z" data-color="color-2"/></g></svg>
