<svg id="nc_icon" xmlns="http://www.w3.org/2000/svg" xml:space="preserve" viewBox="0 0 24 24"><g fill="currentColor" class="nc-icon-wrapper"><path d="M9.274 3.729c.175-.875.452-1.725.806-2.55-1.667.293-3.2.96-4.518 1.915-.912 2.678-.993 7.472 1.467 10.89 1.517-.514 2.79-1.34 3.686-2.06-.974-1.861-2.1-4.9-1.44-8.195zM16.547 14.575c-1.522-.836-3.108-1.208-4.25-1.367-1.584 1.343-4.464 3.264-8.042 3.264-.806 0-1.61-.082-2.406-.233a11.01 11.01 0 0 0 2.58 3.727c7.257.1 10.198-1.97 12.118-5.39zM21.79 16.997a10.913 10.913 0 0 0 1.155-3.909c-4.578-5.679-7.99-6.669-11.76-6.028.242 1.693.879 3.167 1.432 4.174 2.061.293 5.377 1.167 7.742 3.812a12.86 12.86 0 0 1 1.432 1.951z" data-color="color-2"/><path d="M18.869 16.38a8.018 8.018 0 0 0-.677-.655c-1.945 3.386-4.854 5.709-10.989 6.162A10.935 10.935 0 0 0 12 23c3.457 0 6.538-1.598 8.554-4.091a10.98 10.98 0 0 0-1.685-2.53zM11.235 4.12c-.062.312-.09.62-.116.926 3.38-.524 7.134.045 11.67 4.82a10.994 10.994 0 0 0-10.413-8.847 11.016 11.016 0 0 0-1.14 3.102zM4.255 14.472c.229 0 .448-.03.67-.048C3.314 11.77 2.782 8.516 3.021 5.66A10.939 10.939 0 0 0 1 12c0 .693.072 1.369.194 2.026 1.008.292 2.034.446 3.06.446z"/></g></svg>
