<svg id="nc_icon" xmlns="http://www.w3.org/2000/svg" xml:space="preserve" viewBox="0 0 24 24"><g fill="currentColor" class="nc-icon-wrapper"><path d="M15 0a3.975 3.975 0 0 0-3 1.382A3.983 3.983 0 0 0 5 4v1h2V4a2 2 0 0 1 4 0v11h2V4a2 2 0 0 1 4 0v1h2V4a4 4 0 0 0-4-4Z" data-color="color-2"/><path d="M23.555 9.168C23.439 9.091 21 7.518 15 7.1v2a20.662 20.662 0 0 1 7 1.5v10.841A28.949 28.949 0 0 0 12 20a28.949 28.949 0 0 0-10 1.441V10.6a20.688 20.688 0 0 1 7-1.5v-2C3 7.518.561 9.091.445 9.168A1 1 0 0 0 0 10v13a1 1 0 0 0 1.547.837C1.576 23.818 4.5 22 12 22c7.466 0 10.4 1.8 10.452 1.837A1 1 0 0 0 24 23V10a1 1 0 0 0-.445-.832Z"/></g></svg>
