<svg id="nc_icon" xmlns="http://www.w3.org/2000/svg" xml:space="preserve" viewBox="0 0 24 24"><path fill="currentColor" d="M16.766 14.974c1.322-2.458 3.49-3.18 6.234-3.416a6.566 6.566 0 0 0-1.978-1.753 6.564 6.564 0 0 0-3.312-.88 6.57 6.57 0 0 0-.273-7.052C17.11 4.599 14.814 6.719 12 6.719s-5.109-2.12-5.437-4.846a6.57 6.57 0 0 0-1.167 3.745c0 1.206.329 2.334.894 3.307a6.564 6.564 0 0 0-3.312.88A6.566 6.566 0 0 0 1 11.558c2.745.236 4.912.958 6.234 3.416 1.407 2.437.718 5.484-1.478 7.132a6.57 6.57 0 0 0 3.827-.862A6.565 6.565 0 0 0 12 18.816a6.565 6.565 0 0 0 2.417 2.428 6.57 6.57 0 0 0 3.827.862c-2.196-1.648-2.885-4.695-1.478-7.132z" class="nc-icon-wrapper"/></svg>
