<svg id="nc_icon" xmlns="http://www.w3.org/2000/svg" xml:space="preserve" viewBox="0 0 24 24"><g fill="currentColor" class="nc-icon-wrapper"><path d="M12.9 1.5c-.4-.6-1.4-.6-1.7 0-.1.1-2.2 3.6-2.2 8s2.1 7.9 2.1 8c.2.3.5.5.9.5s.7-.2.9-.5c.1-.1 2.1-3.6 2.1-8s-2.1-7.9-2.1-8z"/><path d="M14.3 18.7c.2.2.4.3.7.3h.2c.1 0 2.9-.6 5.1-2.7 2.1-2.1 2.7-4.9 2.7-5.1.1-.3 0-.7-.3-.9-.2-.2-.6-.3-.9-.3-.1 0-2.9.6-5.1 2.7-2.1 2.1-2.7 4.9-2.7 5.1 0 .3.1.7.3.9z" data-color="color-2"/><path d="M22.9 20.8c-.1-.1-2-1.8-4.5-1.8s-4.4 1.7-4.5 1.8c-.2.2-.3.5-.3.8s.1.6.3.8c.1.1 2 1.8 4.5 1.8s4.4-1.7 4.5-1.8c.2-.2.3-.5.3-.8s0-.7-.3-.8z"/><path d="M3.8 16.3c2.1 2.1 4.9 2.7 5 2.7H9c.3 0 .5-.1.7-.3.2-.2.3-.6.3-.9 0-.1-.6-2.9-2.7-5.1C5.2 10.6 2.4 10 2.2 10c-.3-.1-.7 0-.9.3-.2.2-.3.6-.3.9.1.2.6 3 2.8 5.1z" data-color="color-2"/><path d="M5.5 19c-2.4 0-4.4 1.7-4.5 1.8-.2.2-.3.5-.3.8s.1.6.3.8c.1.1 2 1.8 4.5 1.8s4.4-1.7 4.5-1.8c.2-.2.3-.5.3-.8s-.1-.6-.3-.8c-.1-.1-2-1.8-4.5-1.8z"/></g></svg>
