<svg id="nc_icon" xmlns="http://www.w3.org/2000/svg" xml:space="preserve" viewBox="0 0 24 24"><g fill="currentColor" class="nc-icon-wrapper"><path d="m13.044 15.198-3.846 3.846A2.996 2.996 0 0 0 12 21c1.654 0 3-1.346 3-3a2.996 2.996 0 0 0-1.956-2.802zM7.05 13.05A6.956 6.956 0 0 1 12 11c.315 0 .624.028.931.069l1.684-1.684A8.994 8.994 0 0 0 12 9a8.943 8.943 0 0 0-6.364 2.636l-.707.707 1.414 1.414.707-.707zM17.418 10.824l-1.428 1.428c.339.236.662.5.96.798l.707.707 1.414-1.414-.707-.707a9.18 9.18 0 0 0-.946-.812zM2.808 8.808A12.91 12.91 0 0 1 12 5c2.004 0 3.933.464 5.683 1.317l1.491-1.491A14.913 14.913 0 0 0 12 3 14.9 14.9 0 0 0 1.394 7.394l-.707.707 1.414 1.414.707-.707zM21.685 6.557l-1.414 1.414c.318.263.626.541.922.836l.707.707L23.314 8.1l-.707-.707a15.765 15.765 0 0 0-.922-.836z"/><path d="M2.586 20 22 .586 23.414 2 4 21.414z" data-color="color-2"/></g></svg>
