<svg id="nc_icon" xmlns="http://www.w3.org/2000/svg" xml:space="preserve" viewBox="0 0 24 24"><g fill="currentColor" class="nc-icon-wrapper"><path d="M16 9.9V12c0 .6.4 1 1 1s1-.4 1-1V9.9c2.3-.5 4-2.5 4-4.9 0-2.8-2.2-5-5-5s-5 2.2-5 5c0 2.4 1.7 4.4 4 4.9z" data-color="color-2"/><path d="M22.4 9.4c-.5.6-1 1.1-1.7 1.5.2.7.3 1.4.3 2.1 0 1.4-.3 2.8-.9 4-2 1.1-2.9.5-3.8-.2-.6-.5-1.5-1.1-2.6-.7-1.1.4-1.9 1.3-2.4 2.4-.4 1-.5 2.3-.3 3.5-2-.2-3.8-1.1-5.1-2.4.7-1.5.7-3-.2-4.3-.2-.4-.5-.7-.8-1-.5-.5-.3-1.4.3-1.7.8-.4 1.7-.8 2.3-1.6 1.2-1.8-.2-4.4-.5-4.9-.1-.1-.2-.2-.3-.4 1-.7 2.1-1.2 3.3-1.5.1-.8.3-1.5.6-2.1C5.2 2.8 1 7.4 1 13c0 6.1 4.9 11 11 11s11-4.9 11-11c0-1.2-.2-2.4-.6-3.6z"/></g></svg>
