<svg id="nc_icon" version="1.1" xmlns="http://www.w3.org/2000/svg" xmlns:xlink="http://www.w3.org/1999/xlink" x="0px" y="0px" viewBox="0 0 24 24" xml:space="preserve" ><g transform="translate(0, 0)" class="nc-icon-wrapper" fill="none"><path data-cap="butt" data-color="color-2" fill="none" stroke="currentColor" vector-effect="non-scaling-stroke" stroke-miterlimit="10" d="M22.4185,12.99995 C22.7935,12.07353,23,11.06088,23,10c0-4.41827-3.58173-8-8-8c-2.04407,0-3.90314,0.77307-5.31726,2.03448 C9.45721,4.01538,9.23047,4,9,4c-4.41827,0-8,3.58173-8,8c0,1.06142,0.20671,2.07456,0.58207,3.00137" stroke-linejoin="miter" stroke-linecap="butt"></path> <path fill="none" stroke="currentColor" vector-effect="non-scaling-stroke" stroke-linecap="square" stroke-miterlimit="10" d="M12,23V10.5 C12,8.567,13.567,7,15.5,7H15.5C17.433,7,19,8.567,19,10.5V23" stroke-linejoin="miter"></path> <path fill="none" stroke="currentColor" vector-effect="non-scaling-stroke" stroke-linecap="square" stroke-miterlimit="10" d="M5,23V12.5 C5,10.567,6.567,9,8.5,9H8.5C10.433,9,12,10.567,12,12.5v0.50025" stroke-linejoin="miter"></path></g></svg>