<svg id="nc_icon" version="1.1" xmlns="http://www.w3.org/2000/svg" xmlns:xlink="http://www.w3.org/1999/xlink" x="0px" y="0px" viewBox="0 0 24 24" xml:space="preserve" ><g transform="translate(0, 0)" class="nc-icon-wrapper" fill="none"><path fill="none" stroke="currentColor" vector-effect="non-scaling-stroke" stroke-linecap="square" stroke-miterlimit="10" d="M10,23V12.5 c0-1.38071,1.11929-2.5,2.5-2.5H12.5c1.38071,0,2.5,1.11929,2.5,2.5V23" stroke-linejoin="miter"></path> <path fill="none" stroke="currentColor" vector-effect="non-scaling-stroke" stroke-linecap="square" stroke-miterlimit="10" d="M15,15.00025V14.5 c0-1.38071,1.11929-2.5,2.5-2.5h0c1.38071,0,2.5,1.11929,2.5,2.5V23" stroke-linejoin="miter"></path> <path fill="none" stroke="currentColor" vector-effect="non-scaling-stroke" stroke-linecap="square" stroke-miterlimit="10" d="M5,23v-8.5 C5,13.11929,6.11929,12,7.5,12h0c1.38071,0,2.5,1.11929,2.5,2.5v0.50025" stroke-linejoin="miter"></path> <line data-cap="butt" data-color="color-2" fill="none" stroke="currentColor" vector-effect="non-scaling-stroke" stroke-miterlimit="10" x1="2" y1="5" x2="22" y2="5" stroke-linejoin="miter" stroke-linecap="butt"></line> <polyline data-color="color-2" fill="none" stroke="currentColor" vector-effect="non-scaling-stroke" stroke-linecap="square" stroke-miterlimit="10" points=" 5,8 2,5 5,2 " stroke-linejoin="miter"></polyline></g></svg>