<svg id="nc_icon" version="1.1" xmlns="http://www.w3.org/2000/svg" xmlns:xlink="http://www.w3.org/1999/xlink" x="0px" y="0px" viewBox="0 0 24 24" xml:space="preserve" ><g transform="translate(0, 0)" class="nc-icon-wrapper" fill="none"><path data-cap="butt" data-color="color-2" fill="none" stroke="currentColor" vector-effect="non-scaling-stroke" stroke-miterlimit="10" d="M22,10 c0-2.69183-2.13177-4.87054-4.79681-4.97949C16.16827,3.21741,14.22815,2,12,2C9.74823,2,7.78888,3.24207,6.76257,5.07684 C6.51221,5.03821,6.26123,5,6,5c-2.76141,0-5,2.23859-5,5" stroke-linejoin="miter" stroke-linecap="butt"></path> <path fill="none" stroke="currentColor" vector-effect="non-scaling-stroke" stroke-linecap="square" stroke-miterlimit="10" d="M9,22V9.5 C9,8.11929,10.11929,7,11.5,7H11.5C12.88071,7,14,8.11929,14,9.5V22" stroke-linejoin="miter"></path> <path fill="none" stroke="currentColor" vector-effect="non-scaling-stroke" stroke-linecap="square" stroke-miterlimit="10" d="M14,12.00025V11.5 c0-1.38071,1.11929-2.5,2.5-2.5h0c1.38071,0,2.5,1.11929,2.5,2.5V22" stroke-linejoin="miter"></path> <path fill="none" stroke="currentColor" vector-effect="non-scaling-stroke" stroke-linecap="square" stroke-miterlimit="10" d="M4,22V11.5 C4,10.11929,5.11929,9,6.5,9h0C7.88071,9,9,10.11929,9,11.5v0.50025" stroke-linejoin="miter"></path></g></svg>