<svg id="nc_icon" version="1.1" xmlns="http://www.w3.org/2000/svg" xmlns:xlink="http://www.w3.org/1999/xlink" x="0px" y="0px" viewBox="0 0 24 24" xml:space="preserve" ><g transform="translate(0, 0)" class="nc-icon-wrapper" fill="none"><line data-cap="butt" data-color="color-2" fill="none" stroke="currentColor" vector-effect="non-scaling-stroke" stroke-miterlimit="10" x1="22" y1="5" x2="2" y2="5" stroke-linejoin="miter" stroke-linecap="butt"></line> <polyline data-color="color-2" fill="none" stroke="currentColor" vector-effect="non-scaling-stroke" stroke-linecap="square" stroke-miterlimit="10" points=" 19,2 22,5 19,8 " stroke-linejoin="miter"></polyline> <path fill="none" stroke="currentColor" vector-effect="non-scaling-stroke" stroke-linecap="square" stroke-miterlimit="10" d="M7,23v-9.5 C7,12.11929,8.11929,11,9.5,11H9.5c1.38071,0,2.5,1.11929,2.5,2.5V23" stroke-linejoin="miter"></path> <path fill="none" stroke="currentColor" vector-effect="non-scaling-stroke" stroke-linecap="square" stroke-miterlimit="10" d="M12,16.00025V15.5 c0-1.38071,1.11929-2.5,2.5-2.5H14.5c1.38071,0,2.5,1.11929,2.5,2.5V23" stroke-linejoin="miter"></path> <path fill="none" stroke="currentColor" vector-effect="non-scaling-stroke" stroke-linecap="square" stroke-miterlimit="10" d="M17,18.00025V17.5 c0-1.38071,1.11929-2.5,2.5-2.5h0c1.38071,0,2.5,1.11929,2.5,2.5V23" stroke-linejoin="miter"></path> <path fill="none" stroke="currentColor" vector-effect="non-scaling-stroke" stroke-linecap="square" stroke-miterlimit="10" d="M2,23v-7.5 C2,14.11929,3.11929,13,4.5,13h0C5.88071,13,7,14.11929,7,15.5v0.50025" stroke-linejoin="miter"></path></g></svg>