<svg id="nc_icon" version="1.1" xmlns="http://www.w3.org/2000/svg" xmlns:xlink="http://www.w3.org/1999/xlink" x="0px" y="0px" viewBox="0 0 24 24" xml:space="preserve" ><g transform="translate(0, 0)" class="nc-icon-wrapper" fill="none"><path data-cap="butt" fill="none" stroke="currentColor" vector-effect="non-scaling-stroke" stroke-miterlimit="10" d="M10,13 c-2.824,0-5.329,0.638-6.975,1.193C1.81,14.604,1,15.749,1,17.032V21c0,0,7.958,0,8,0" stroke-linejoin="miter" stroke-linecap="butt"></path> <path fill="none" stroke="currentColor" vector-effect="non-scaling-stroke" stroke-linecap="square" stroke-miterlimit="10" d="M10,13L10,13 c-2.761,0-5-3.239-5-6V6c0-2.761,2.239-5,5-5h0c2.761,0,5,2.239,5,5v1C15,9.761,12.761,13,10,13z" stroke-linejoin="miter"></path> <path data-color="color-2" fill="none" stroke="currentColor" vector-effect="non-scaling-stroke" stroke-linecap="square" stroke-miterlimit="10" d="M23,15.817 C23,18.183,19,22,19,22s-4-3.817-4-6.183C15,13.374,17.08,12,19,12S23,13.374,23,15.817z" stroke-linejoin="miter"></path> <circle data-color="color-2" data-stroke="none" fill="none" cx="19" cy="16" r="1" stroke-linejoin="miter" stroke-linecap="square"></circle></g></svg>