<svg id="nc_icon" version="1.1" xmlns="http://www.w3.org/2000/svg" xmlns:xlink="http://www.w3.org/1999/xlink" x="0px" y="0px" viewBox="0 0 24 24" xml:space="preserve" ><g transform="translate(0, 0)" class="nc-icon-wrapper" fill="none"><path data-color="color-2" fill="none" stroke="currentColor" vector-effect="non-scaling-stroke" stroke-linecap="square" stroke-miterlimit="10" d="M15,10h-3.5 C10.119,10,9,8.881,9,7.5v0C9,6.119,10.119,5,11.5,5H15V10z" stroke-linejoin="miter"></path> <path data-color="color-2" fill="none" stroke="currentColor" vector-effect="non-scaling-stroke" stroke-linecap="square" stroke-miterlimit="10" d="M11,2h2 c1.105,0,2,0.895,2,2v6" stroke-linejoin="miter"></path> <line fill="none" stroke="currentColor" vector-effect="non-scaling-stroke" stroke-linecap="square" stroke-miterlimit="10" x1="3" y1="11" x2="3" y2="22" stroke-linejoin="miter"></line> <path fill="none" stroke="currentColor" vector-effect="non-scaling-stroke" stroke-linecap="square" stroke-miterlimit="10" d="M6,22H3v-6h3 c1.657,0,3,1.343,3,3v0C9,20.657,7.657,22,6,22z" stroke-linejoin="miter"></path> <path fill="none" stroke="currentColor" vector-effect="non-scaling-stroke" stroke-linecap="square" stroke-miterlimit="10" d="M21.732,15.999 C21.386,15.402,20.74,15,20,15h-2c-1.105,0-2,0.895-2,2v3c0,1.105,0.895,2,2,2h2c0.74,0,1.387-0.402,1.732-1" stroke-linejoin="miter"></path></g></svg>