<svg id="nc_icon" version="1.1" xmlns="http://www.w3.org/2000/svg" xmlns:xlink="http://www.w3.org/1999/xlink" x="0px" y="0px" viewBox="0 0 24 24" xml:space="preserve" ><g transform="translate(0, 0)" class="nc-icon-wrapper" fill="none"><path fill="none" stroke="currentColor" vector-effect="non-scaling-stroke" stroke-linecap="square" stroke-miterlimit="10" d="M15,11L15,11 c-2.209,0-4-1.791-4-4V5c0-2.209,1.791-4,4-4h0c2.209,0,4,1.791,4,4v2C19,9.209,17.209,11,15,11z" stroke-linejoin="miter"></path> <line data-color="color-2" fill="none" stroke="currentColor" vector-effect="non-scaling-stroke" stroke-linecap="square" stroke-miterlimit="10" x1="4" y1="7" x2="4" y2="13" stroke-linejoin="miter"></line> <line data-color="color-2" fill="none" stroke="currentColor" vector-effect="non-scaling-stroke" stroke-linecap="square" stroke-miterlimit="10" x1="1" y1="10" x2="7" y2="10" stroke-linejoin="miter"></line> <path fill="none" stroke="currentColor" vector-effect="non-scaling-stroke" stroke-linecap="square" stroke-miterlimit="10" d="M23,23H7v-4.114 c0-1.247,0.765-2.363,1.931-2.805C10.318,15.555,12.399,15,15,15s4.682,0.555,6.069,1.081C22.235,16.522,23,17.639,23,18.886V23z" stroke-linejoin="miter"></path></g></svg>