<svg id="nc_icon" version="1.1" xmlns="http://www.w3.org/2000/svg" xmlns:xlink="http://www.w3.org/1999/xlink" x="0px" y="0px" viewBox="0 0 24 24" xml:space="preserve" ><g transform="translate(0, 0)" class="nc-icon-wrapper" fill="none"><path fill="none" stroke="currentColor" vector-effect="non-scaling-stroke" stroke-linecap="square" stroke-miterlimit="10" d="M1,10c0-5,4.9-9,11-9 c5.9,0,11,4,11,9s-6.9,13-11,13C7.8,23,1,15,1,10z" stroke-linejoin="miter"></path> <path data-color="color-2" fill="none" stroke="currentColor" vector-effect="non-scaling-stroke" stroke-linecap="square" stroke-miterlimit="10" d="M5,9 c0,0,2.7-0.1,4.4,1.6C10.7,11.9,10,15,10,15s-2.1-0.3-3.4-1.6C5,11.9,5,9,5,9z" stroke-linejoin="miter"></path> <path data-color="color-2" fill="none" stroke="currentColor" vector-effect="non-scaling-stroke" stroke-linecap="square" stroke-miterlimit="10" d="M19,9 c0,0-2.7-0.1-4.4,1.6C13.3,11.9,14,15,14,15s2.1-0.3,3.4-1.6C19,11.9,19,9,19,9z" stroke-linejoin="miter"></path></g></svg>