<svg id="nc_icon" version="1.1" xmlns="http://www.w3.org/2000/svg" xmlns:xlink="http://www.w3.org/1999/xlink" x="0px" y="0px" viewBox="0 0 24 24" xml:space="preserve" ><g transform="translate(0, 0)" class="nc-icon-wrapper" fill="none"><path fill="none" stroke="currentColor" vector-effect="non-scaling-stroke" stroke-linecap="square" stroke-miterlimit="10" d="M21,17.423	c-0.492,1.09-0.727,1.576-1.361,2.54c-0.883,1.345-2.129,3.02-3.673,3.034c-1.372,0.013-1.724-0.892-3.586-0.882	c-1.861,0.01-2.25,0.898-3.622,0.885c-1.544-0.014-2.723-1.526-3.608-2.872C2.68,16.366,2.422,11.952,3.946,9.606	c1.083-1.668,2.792-2.643,4.399-2.643c1.636,0,2.664,0.897,4.017,0.897c1.312,0,2.112-0.898,4.003-0.898	c1.43,0,2.944,0.778,4.024,2.123C16.853,11.023,17.427,16.072,21,17.423L21,17.423z" stroke-linejoin="miter"></path><path data-color="color-2" data-stroke="none" fill="none" d="M15.1,3.45c0.65-0.834,1.143-2.011,0.964-3.214	c-1.062,0.073-2.302,0.748-3.027,1.628c-0.658,0.799-1.201,1.983-0.99,3.135C13.205,5.035,14.404,4.343,15.1,3.45L15.1,3.45z" stroke-linejoin="miter" stroke-linecap="square"></path></g></svg>