<svg id="nc_icon" version="1.1" xmlns="http://www.w3.org/2000/svg" xmlns:xlink="http://www.w3.org/1999/xlink" x="0px" y="0px" viewBox="0 0 24 24" xml:space="preserve" ><g transform="translate(0, 0)" class="nc-icon-wrapper" fill="none"><line fill="none" stroke="currentColor" vector-effect="non-scaling-stroke" stroke-linecap="square" stroke-miterlimit="10" x1="12" y1="4" x2="12" y2="1" stroke-linejoin="miter"></line> <path fill="none" stroke="currentColor" vector-effect="non-scaling-stroke" stroke-linecap="square" stroke-miterlimit="10" d="M2,16C2,7.083,7.029,4,12,4 s10,3.083,10,12c0,4.971-5.029,7-10,7S2,20.971,2,16z" stroke-linejoin="miter"></path> <path data-color="color-2" fill="none" stroke="currentColor" vector-effect="non-scaling-stroke" stroke-linecap="square" stroke-miterlimit="10" d="M12,8 c-3.804,0-5.811,2.463-5.983,7.312c0.061,0.595,0.332,1.114,1.179,1.623C8.322,17.612,10.073,18,12,18s3.678-0.388,4.804-1.065 c0.847-0.509,1.117-1.028,1.179-1.623C17.811,10.463,15.804,8,12,8z" stroke-linejoin="miter"></path></g></svg>