<svg id="nc_icon" version="1.1" xmlns="http://www.w3.org/2000/svg" xmlns:xlink="http://www.w3.org/1999/xlink" x="0px" y="0px" viewBox="0 0 24 24" xml:space="preserve" ><g transform="translate(0, 0)" class="nc-icon-wrapper" fill="none"><path data-cap="butt" fill="none" stroke="currentColor" vector-effect="non-scaling-stroke" stroke-miterlimit="10" d="M8.665,5.91 C9.382,2.944,10.608,1,12,1c2.209,0,4,4.925,4,11s-1.791,11-4,11c-1.943,0-3.562-3.803-3.924-8.853" stroke-linecap="butt" stroke-linejoin="miter"></path> <path data-cap="butt" fill="none" stroke="currentColor" vector-effect="non-scaling-stroke" stroke-miterlimit="10" d="M8.661,18.092 c-2.876,0.99-5.176,1.009-5.925-0.161c-1.191-1.861,1.991-6.024,7.107-9.3s10.23-4.423,11.421-2.562 c1.048,1.637-1.288,5.055-5.348,8.084" stroke-linecap="butt" stroke-linejoin="miter"></path> <path data-cap="butt" fill="none" stroke="currentColor" vector-effect="non-scaling-stroke" stroke-miterlimit="10" d="M11.991,7.368 C7.669,5.091,3.758,4.472,2.736,6.069c-1.191,1.861,1.991,6.024,7.107,9.3s10.23,4.423,11.421,2.562 c0.805-1.258-0.396-3.532-2.835-5.909" stroke-linecap="butt" stroke-linejoin="miter"></path> <circle data-color="color-2" data-stroke="none" fill="none" cx="12" cy="12" r="1"></circle></g></svg>