<svg id="nc_icon" version="1.1" xmlns="http://www.w3.org/2000/svg" xmlns:xlink="http://www.w3.org/1999/xlink" x="0px" y="0px" viewBox="0 0 24 24" xml:space="preserve" ><g transform="translate(0, 0)" class="nc-icon-wrapper" fill="none"><path data-cap="butt" data-color="color-2" fill="none" stroke="currentColor" vector-effect="non-scaling-stroke" stroke-miterlimit="10" d="M4.611,10.439L2.586,8.414 c-0.781-0.781-0.781-2.047,0-2.828l0,0c0.781-0.781,2.047-0.781,2.828,0L6.788,6.96" stroke-linejoin="miter" stroke-linecap="butt"></path> <path data-cap="butt" data-color="color-2" fill="none" stroke="currentColor" vector-effect="non-scaling-stroke" stroke-miterlimit="10" d="M13.04,13.211l6.374,6.374 c0.781,0.781,0.781,2.047,0,2.828l0,0c-0.781,0.781-2.047,0.781-2.828,0L9.562,15.39" stroke-linejoin="miter" stroke-linecap="butt"></path> <path fill="none" stroke="currentColor" vector-effect="non-scaling-stroke" stroke-linecap="square" stroke-miterlimit="10" d="M18.992,9.494L7.678,16.565 l-4.243-4.243l7.071-11.314c0,0,2.519-0.309,5.657,2.828S18.992,9.494,18.992,9.494z" stroke-linejoin="miter"></path></g></svg>