<svg id="nc_icon" version="1.1" xmlns="http://www.w3.org/2000/svg" xmlns:xlink="http://www.w3.org/1999/xlink" x="0px" y="0px" viewBox="0 0 24 24" xml:space="preserve" ><g transform="translate(0, 0)" class="nc-icon-wrapper" fill="none"><path fill="none" stroke="currentColor" vector-effect="non-scaling-stroke" stroke-linecap="square" stroke-miterlimit="10" d="M10,20.836 c0-0.604-0.265-1.179-0.738-1.554C8.539,18.708,7.285,18,5.5,18s-3.039,0.708-3.762,1.282C1.265,19.657,1,20.232,1,20.836V22h9 V20.836z" stroke-linejoin="miter"></path> <circle fill="none" stroke="currentColor" vector-effect="non-scaling-stroke" stroke-linecap="square" stroke-miterlimit="10" cx="5.5" cy="12.5" r="2.5" stroke-linejoin="miter"></circle> <path fill="none" stroke="currentColor" vector-effect="non-scaling-stroke" stroke-linecap="square" stroke-miterlimit="10" d="M23,20.836 c0-0.604-0.265-1.179-0.738-1.554C21.539,18.708,20.285,18,18.5,18s-3.039,0.708-3.762,1.282C14.265,19.657,14,20.232,14,20.836V22 h9V20.836z" stroke-linejoin="miter"></path> <circle fill="none" stroke="currentColor" vector-effect="non-scaling-stroke" stroke-linecap="square" stroke-miterlimit="10" cx="18.5" cy="12.5" r="2.5" stroke-linejoin="miter"></circle> <line data-color="color-2" fill="none" stroke="currentColor" vector-effect="non-scaling-stroke" stroke-linecap="square" stroke-miterlimit="10" x1="12" y1="2" x2="12" y2="8" stroke-linejoin="miter"></line> <line data-color="color-2" fill="none" stroke="currentColor" vector-effect="non-scaling-stroke" stroke-linecap="square" stroke-miterlimit="10" x1="9" y1="5" x2="15" y2="5" stroke-linejoin="miter"></line></g></svg>