<svg id="nc_icon" version="1.1" xmlns="http://www.w3.org/2000/svg" xmlns:xlink="http://www.w3.org/1999/xlink" x="0px" y="0px" viewBox="0 0 24 24" xml:space="preserve" ><g transform="translate(0, 0)" class="nc-icon-wrapper" fill="none"><path fill="none" stroke="currentColor" vector-effect="non-scaling-stroke" stroke-linecap="square" stroke-miterlimit="10" d="M10,21.836 c0-0.604-0.265-1.179-0.738-1.554C8.539,19.708,7.285,19,5.5,19s-3.039,0.708-3.762,1.282C1.265,20.657,1,21.232,1,21.836V23h9 V21.836z" stroke-linejoin="miter"></path> <circle fill="none" stroke="currentColor" vector-effect="non-scaling-stroke" stroke-linecap="square" stroke-miterlimit="10" cx="5.5" cy="13.5" r="2.5" stroke-linejoin="miter"></circle> <path fill="none" stroke="currentColor" vector-effect="non-scaling-stroke" stroke-linecap="square" stroke-miterlimit="10" d="M23,21.836 c0-0.604-0.265-1.179-0.738-1.554C21.539,19.708,20.285,19,18.5,19s-3.039,0.708-3.762,1.282C14.265,20.657,14,21.232,14,21.836V23 h9V21.836z" stroke-linejoin="miter"></path> <circle fill="none" stroke="currentColor" vector-effect="non-scaling-stroke" stroke-linecap="square" stroke-miterlimit="10" cx="18.5" cy="13.5" r="2.5" stroke-linejoin="miter"></circle> <path data-color="color-2" fill="none" stroke="currentColor" vector-effect="non-scaling-stroke" stroke-linecap="square" stroke-miterlimit="10" d="M16,4.817 C16,7.183,12,11,12,11S8,7.183,8,4.817C8,2.374,10.08,1,12,1S16,2.374,16,4.817z" stroke-linejoin="miter"></path> <circle data-color="color-2" data-stroke="none" fill="none" cx="12" cy="5" r="1" stroke-linejoin="miter" stroke-linecap="square"></circle></g></svg>