<svg id="nc_icon" version="1.1" xmlns="http://www.w3.org/2000/svg" xmlns:xlink="http://www.w3.org/1999/xlink" x="0px" y="0px" viewBox="0 0 24 24" xml:space="preserve" ><g transform="translate(0, 0)" class="nc-icon-wrapper" fill="none"><path fill="none" stroke="currentColor" vector-effect="non-scaling-stroke" stroke-linecap="square" stroke-miterlimit="10" d="M10,21.836 c0-0.604-0.265-1.179-0.738-1.554C8.539,19.708,7.285,19,5.5,19s-3.039,0.708-3.762,1.282C1.265,20.657,1,21.232,1,21.836V23h9 V21.836z" stroke-linejoin="miter"></path> <path fill="none" stroke="currentColor" vector-effect="non-scaling-stroke" stroke-linecap="square" stroke-miterlimit="10" d="M7.5,15 c-0.456,0.607-1.182,1-2,1C4.119,16,3,14.881,3,13.5c0-1.209,0.859-2.218,2-2.45" stroke-linejoin="miter"></path> <path fill="none" stroke="currentColor" vector-effect="non-scaling-stroke" stroke-linecap="square" stroke-miterlimit="10" d="M16.5,15 c0.456,0.607,1.182,1,2,1c1.381,0,2.5-1.119,2.5-2.5c0-1.209-0.859-2.218-2-2.45" stroke-linejoin="miter"></path> <path fill="none" stroke="currentColor" vector-effect="non-scaling-stroke" stroke-linecap="square" stroke-miterlimit="10" d="M23,21.836 c0-0.604-0.265-1.179-0.738-1.554C21.539,19.708,20.285,19,18.5,19s-3.039,0.708-3.762,1.282C14.265,20.657,14,21.232,14,21.836V23 h9V21.836z" stroke-linejoin="miter"></path> <rect data-color="color-2" x="8" y="6" fill="none" stroke="currentColor" vector-effect="non-scaling-stroke" stroke-linecap="square" stroke-miterlimit="10" width="8" height="5" stroke-linejoin="miter"></rect> <path data-color="color-2" fill="none" stroke="currentColor" vector-effect="non-scaling-stroke" stroke-linecap="square" stroke-miterlimit="10" d="M10,6V3 c0-1.1,0.9-2,2-2l0,0c1.1,0,2,0.9,2,2v3" stroke-linejoin="miter"></path></g></svg>