<svg id="nc_icon" version="1.1" xmlns="http://www.w3.org/2000/svg" xmlns:xlink="http://www.w3.org/1999/xlink" x="0px" y="0px" viewBox="0 0 24 24" xml:space="preserve" ><g transform="translate(0, 0)" class="nc-icon-wrapper" fill="none"><path fill="none" stroke="currentColor" vector-effect="non-scaling-stroke" stroke-linecap="square" stroke-miterlimit="10" d="M17.985,11.672 L7.536,22.121c-1.172,1.172-3.071,1.172-4.243,0l-1.414-1.414c-1.172-1.172-1.172-3.071,0-4.243L12.328,6.015" stroke-linejoin="miter"></path> <line data-color="color-2" fill="none" stroke="currentColor" vector-effect="non-scaling-stroke" stroke-linecap="square" stroke-miterlimit="10" x1="13" y1="2" x2="22" y2="11" stroke-linejoin="miter"></line> <path data-cap="butt" data-color="color-2" fill="none" stroke="currentColor" vector-effect="non-scaling-stroke" stroke-miterlimit="10" d="M18.914,7.914l3.5-3.5 c0.781-0.781,0.781-2.047,0-2.828l0,0c-0.781-0.781-2.047-0.781-2.828,0l-3.5,3.5" stroke-linejoin="miter" stroke-linecap="butt"></path> <line fill="none" stroke="currentColor" vector-effect="non-scaling-stroke" stroke-linecap="square" stroke-miterlimit="10" x1="6.172" y1="12.172" x2="8" y2="14" stroke-linejoin="miter"></line> <line fill="none" stroke="currentColor" vector-effect="non-scaling-stroke" stroke-linecap="square" stroke-miterlimit="10" x1="3.172" y1="15.172" x2="5" y2="17" stroke-linejoin="miter"></line> <line fill="none" stroke="currentColor" vector-effect="non-scaling-stroke" stroke-linecap="square" stroke-miterlimit="10" x1="9.172" y1="9.172" x2="11" y2="11" stroke-linejoin="miter"></line></g></svg>