<svg id="nc_icon" version="1.1" xmlns="http://www.w3.org/2000/svg" xmlns:xlink="http://www.w3.org/1999/xlink" x="0px" y="0px" viewBox="0 0 24 24" xml:space="preserve" ><g transform="translate(0, 0)" class="nc-icon-wrapper" fill="none"><path fill="none" stroke="currentColor" vector-effect="non-scaling-stroke" stroke-linecap="square" stroke-miterlimit="10" d="M16.3890839,4.7824888 c-0.7810364-0.7810373-2.0473471-0.7810802-2.8284273,0c0.7810802-0.7810802,0.7810373-2.0473902,0-2.8284273 c-0.7810364-0.7810371-2.0473461-0.7810802-2.8284264,0c-0.2228699,0.2228698-0.3747444,0.4870423-0.4703836,0.7663633 L3.6611621,16.0961971l2.1213205,2.1213207L16.3890839,7.6109157C17.1701641,6.8298354,17.1701221,5.5635257,16.3890839,4.7824888z" stroke-linejoin="miter"></path> <path fill="none" stroke="currentColor" vector-effect="non-scaling-stroke" stroke-linecap="square" stroke-miterlimit="10" d="M19.2175121,7.6109157 c0.7810364,0.7810369,0.7810802,2.0473475,0,2.8284278c0.7810802-0.7810802,2.04739-0.7810373,2.8284264,0 c0.7810364,0.7810364,0.7810802,2.0473461,0,2.8284264c-0.2228699,0.2228699-0.4870415,0.3747444-0.7663631,0.4703836 L7.9038029,20.3388386l-2.1213202-2.1213207L16.3890839,7.6109157C17.1701641,6.8298354,18.4364738,6.8298788,19.2175121,7.6109157z " stroke-linejoin="miter"></path> <line fill="none" stroke="currentColor" vector-effect="non-scaling-stroke" stroke-linecap="square" stroke-miterlimit="10" x1="13.5606565" y1="4.7824888" x2="4.7218223" y2="17.1568565" stroke-linejoin="miter"></line> <line fill="none" stroke="currentColor" vector-effect="non-scaling-stroke" stroke-linecap="square" stroke-miterlimit="10" x1="19.2175121" y1="10.4393435" x2="6.8431425" y2="19.2781773" stroke-linejoin="miter"></line> <path data-color="color-2" fill="none" stroke="currentColor" vector-effect="non-scaling-stroke" stroke-linecap="square" stroke-miterlimit="10" d=" M2.2469506,21.7530537l-0.0000043-0.0000038c-1.1715716-1.1715717-1.1715716-3.0710659,0-4.2426376l1.4142158-1.4142151 l4.2426405,4.2426414l-1.4142156,1.4142151C5.3180156,22.9246254,3.4185224,22.9246254,2.2469506,21.7530537z" stroke-linejoin="miter"></path></g></svg>