<svg id="nc_icon" version="1.1" xmlns="http://www.w3.org/2000/svg" xmlns:xlink="http://www.w3.org/1999/xlink" x="0px" y="0px" viewBox="0 0 24 24" xml:space="preserve" ><g transform="translate(0, 0)" class="nc-icon-wrapper" fill="none"><path data-cap="butt" data-color="color-2" fill="none" stroke="currentColor" vector-effect="non-scaling-stroke" stroke-miterlimit="10" d="M4.8,8.2 c1.2,0.9,2.9,1.5,5.2,1.9c6.5,1.2,9.7-0.7,10.7-1.2c1-0.5,2.2,1.3,1.6,3.1c-0.5,1.4-2.6,2.9-5.7,3.9" stroke-linejoin="miter" stroke-linecap="butt"></path> <path fill="none" stroke="currentColor" vector-effect="non-scaling-stroke" stroke-linecap="square" stroke-miterlimit="10" d="M4,2.3 c0.4,6.1,0.9,9.3,7,12s9.6,1.7,10.7,1.4s1.9,1.8,0.8,3.4s-4.8,2.7-9.4,2.6S2.5,19.1,1.4,14.2c-0.9-3.9,0.2-8,0.2-8L1.5,2.6L4,2.3z" stroke-linejoin="miter"></path></g></svg>