<svg id="nc_icon" xmlns="http://www.w3.org/2000/svg" xmlns:xlink="http://www.w3.org/1999/xlink" x="0px" y="0px" viewBox="0 0 24 24" ><g transform="translate(0, 0)" class="nc-icon-wrapper" fill="none"><line data-cap="butt" data-color="color-2" fill="none" stroke="currentColor" vector-effect="non-scaling-stroke" stroke-miterlimit="10" x1="6" y1="23" x2="7.9" y2="19.1" stroke-linecap="butt" stroke-linejoin="miter"></line> <line data-cap="butt" data-color="color-2" fill="none" stroke="currentColor" vector-effect="non-scaling-stroke" stroke-miterlimit="10" x1="18" y1="23" x2="16.1" y2="19.1" stroke-linecap="butt" stroke-linejoin="miter"></line> <line data-color="color-2" fill="none" stroke="currentColor" vector-effect="non-scaling-stroke" stroke-linecap="square" stroke-miterlimit="10" x1="10" y1="14" x2="14" y2="14" stroke-linejoin="miter"></line> <path data-cap="butt" data-color="color-2" fill="none" stroke="currentColor" vector-effect="non-scaling-stroke" stroke-miterlimit="10" d="M10,4.152V3c0-1.105,0.895-2,2-2 h0c1.105,0,2,0.895,2,2v1.154" stroke-linecap="butt" stroke-linejoin="miter"></path> <path data-cap="butt" fill="none" stroke="currentColor" vector-effect="non-scaling-stroke" stroke-miterlimit="10" d="M2,10c0,5.5,4.5,10,10,10 s10-4.5,10-10" stroke-linecap="butt" stroke-linejoin="miter"></path> <path data-cap="butt" fill="none" stroke="currentColor" vector-effect="non-scaling-stroke" stroke-miterlimit="10" d="M22,10c-0.469-2.5-4.5-6-10-6 S2.5,7.5,2,10" stroke-linecap="butt" stroke-linejoin="miter"></path> <line fill="none" stroke="currentColor" vector-effect="non-scaling-stroke" stroke-linecap="square" stroke-miterlimit="10" x1="1" y1="10" x2="23" y2="10" stroke-linejoin="miter"></line></g></svg>