<svg id="nc_icon" version="1.1" xmlns="http://www.w3.org/2000/svg" xmlns:xlink="http://www.w3.org/1999/xlink" x="0px" y="0px" viewBox="0 0 24 24" xml:space="preserve" ><g transform="translate(0, 0)" class="nc-icon-wrapper" fill="none"><path data-cap="butt" data-color="color-2" fill="none" stroke="currentColor" vector-effect="non-scaling-stroke" stroke-miterlimit="10" d="M9,7.8859377 C6.7218451,7.4236503,5.007483,5.4134111,5.0012817,3C2.5757446,4.824646,1,7.7182617,1,10.9873047 c0,1.8981934,0.5385742,3.6663818,1.4570312,5.1782227C3.4506226,15.4360962,4.6729126,15,6,15c3,0,6,6,6,6s3-6,6-6 c1.3270874,0,2.5493774,0.4360962,3.5429688,1.1655273C22.4614258,14.6536865,23,12.885498,23,10.9873047 C23,7.7182617,21.4242554,4.824646,18.9987183,3C18.9925175,5.4134111,17.2781544,7.4236503,15,7.8859377" stroke-linejoin="miter" stroke-linecap="butt"></path> <path fill="none" stroke="currentColor" vector-effect="non-scaling-stroke" stroke-linecap="square" stroke-miterlimit="10" d="M13,5h-2L9,3 c0,0,0,4.1116943,0,5c0,1.6568604,1.3431396,3,3,3s3-1.3431396,3-3c0-0.8883057,0-5,0-5L13,5z" stroke-linejoin="miter"></path></g></svg>