<svg id="nc_icon" version="1.1" xmlns="http://www.w3.org/2000/svg" xmlns:xlink="http://www.w3.org/1999/xlink" x="0px" y="0px" viewBox="0 0 24 24" xml:space="preserve" ><g transform="translate(0, 0)" class="nc-icon-wrapper" fill="none"><path data-cap="butt" data-color="color-2" fill="none" stroke="currentColor" vector-effect="non-scaling-stroke" stroke-miterlimit="10" d="M9,16v0.5 c0,0.82843,0.67157,1.5,1.5,1.5h0c0.82843,0,1.5-0.67157,1.5-1.5v-1.83692" stroke-linejoin="miter" stroke-linecap="butt"></path> <line data-color="color-2" fill="none" stroke="currentColor" vector-effect="non-scaling-stroke" stroke-linecap="square" stroke-miterlimit="10" x1="8" y1="8" x2="9" y2="8" stroke-linejoin="miter"></line> <line data-color="color-2" fill="none" stroke="currentColor" vector-effect="non-scaling-stroke" stroke-linecap="square" stroke-miterlimit="10" x1="15" y1="8" x2="16" y2="8" stroke-linejoin="miter"></line> <path data-color="color-2" fill="none" stroke="currentColor" vector-effect="non-scaling-stroke" stroke-linecap="square" stroke-miterlimit="10" d="M10,11h4 c0.41202,0,0.64721,0.47038,0.4,0.8l-2,2.66667c-0.2,0.26667-0.6,0.26667-0.8,0L9.6,11.8C9.35279,11.47038,9.58798,11,10,11z" stroke-linejoin="miter"></path> <path data-cap="butt" data-color="color-2" fill="none" stroke="currentColor" vector-effect="non-scaling-stroke" stroke-miterlimit="10" d="M15,16v0.5 c0,0.82843-0.67157,1.5-1.5,1.5h0c-0.82843,0-1.5-0.67157-1.5-1.5" stroke-linejoin="miter" stroke-linecap="butt"></path> <path data-cap="butt" fill="none" stroke="currentColor" vector-effect="non-scaling-stroke" stroke-miterlimit="10" d="M3.66241,6.98205 C2.17291,6.80642,1,5.53672,1,4c0-1.65685,1.34315-3,3-3c1.44692,0,2.65527,1.02127,2.93809,2.38433" stroke-linejoin="miter" stroke-linecap="butt"></path> <path data-cap="butt" fill="none" stroke="currentColor" vector-effect="non-scaling-stroke" stroke-miterlimit="10" d="M20.33759,6.98205 C21.82709,6.80642,23,5.53672,23,4c0-1.65685-1.34315-3-3-3c-1.44692,0-2.65527,1.02127-2.93809,2.38433" stroke-linejoin="miter" stroke-linecap="butt"></path> <path fill="none" stroke="currentColor" vector-effect="non-scaling-stroke" stroke-linecap="square" stroke-miterlimit="10" d="M3,10 c0-4.41828,4.02944-8,9-8s9,3.58172,9,8c0,5-4.02944,13-9,13S3,15.04167,3,10z" stroke-linejoin="miter"></path></g></svg>