<svg id="nc_icon" version="1.1" xmlns="http://www.w3.org/2000/svg" xmlns:xlink="http://www.w3.org/1999/xlink" x="0px" y="0px" viewBox="0 0 24 24" xml:space="preserve" ><g transform="translate(0, 0)" class="nc-icon-wrapper" fill="none"><circle fill="none" stroke="currentColor" vector-effect="non-scaling-stroke" stroke-linecap="square" stroke-miterlimit="10" cx="12" cy="13" r="10" stroke-linejoin="miter"></circle> <path data-cap="butt" fill="none" stroke="currentColor" vector-effect="non-scaling-stroke" stroke-miterlimit="10" d="M8.722,3.561C8.143,2.065,6.7,1,5,1 C2.791,1,1,2.791,1,5c0,1.511,0.847,2.81,2.083,3.49" stroke-linejoin="miter" stroke-linecap="butt"></path> <path data-cap="butt" fill="none" stroke="currentColor" vector-effect="non-scaling-stroke" stroke-miterlimit="10" d="M15.278,3.561 C15.857,2.065,17.3,1,19,1c2.209,0,4,1.791,4,4c0,1.511-0.847,2.81-2.083,3.49" stroke-linejoin="miter" stroke-linecap="butt"></path> <polygon data-color="color-2" fill="none" stroke="currentColor" vector-effect="non-scaling-stroke" stroke-linecap="square" stroke-miterlimit="10" points=" 12,16 13,14 11,14 " stroke-linejoin="miter"></polygon> <line data-color="color-2" fill="none" stroke="currentColor" vector-effect="non-scaling-stroke" stroke-linecap="square" stroke-miterlimit="10" x1="12" y1="16" x2="12" y2="18" stroke-linejoin="miter"></line> <line data-color="color-2" fill="none" stroke="currentColor" vector-effect="non-scaling-stroke" stroke-linecap="square" stroke-miterlimit="10" x1="10" y1="18" x2="14" y2="18" stroke-linejoin="miter"></line> <circle data-color="color-2" data-stroke="none" fill="none" cx="9" cy="10" r="1" stroke-linejoin="miter" stroke-linecap="square"></circle> <circle data-color="color-2" data-stroke="none" fill="none" cx="15" cy="10" r="1" stroke-linejoin="miter" stroke-linecap="square"></circle></g></svg>