<svg id="nc_icon" version="1.1" xmlns="http://www.w3.org/2000/svg" xmlns:xlink="http://www.w3.org/1999/xlink" x="0px" y="0px" viewBox="0 0 24 24" xml:space="preserve" ><g transform="translate(0, 0)" class="nc-icon-wrapper" fill="none"><path data-cap="butt" data-color="color-2" fill="none" stroke="currentColor" vector-effect="non-scaling-stroke" stroke-miterlimit="10" d="M16.47451,15.70801 C15.6537,19.13744,13.95764,23,12,23c-1.9605,0-3.65378-3.85882-4.47323-7.29199" stroke-linejoin="miter" stroke-linecap="butt"></path> <line data-cap="butt" data-color="color-2" fill="none" stroke="currentColor" vector-effect="non-scaling-stroke" stroke-miterlimit="10" x1="8.19145" y1="18" x2="15.80134" y2="18" stroke-linejoin="miter" stroke-linecap="butt"></line> <line data-cap="butt" data-color="color-2" fill="none" stroke="currentColor" vector-effect="non-scaling-stroke" stroke-miterlimit="10" x1="9.90396" y1="13" x2="14.09605" y2="13" stroke-linejoin="miter" stroke-linecap="butt"></line> <path fill="none" stroke="currentColor" vector-effect="non-scaling-stroke" stroke-linecap="square" stroke-miterlimit="10" d="M9,4 c0-1.95833,1.89543-3,3-3s3,1.04167,3,3c0,1.10457-1.89543,2-3,2S9,5.10457,9,4z" stroke-linejoin="miter"></path> <path fill="none" stroke="currentColor" vector-effect="non-scaling-stroke" stroke-linecap="square" stroke-miterlimit="10" d="M6.02388,16 C6.02388,16,3,16,1,16C1,11,5.95833,6,12,6c-0.95833,3.54167-2.14482,7.14939-2.14482,7.14939 C9.3476,14.84133,7.79031,16,6.02388,16z" stroke-linejoin="miter"></path> <path fill="none" stroke="currentColor" vector-effect="non-scaling-stroke" stroke-linecap="square" stroke-miterlimit="10" d="M17.97612,16 c0,0,3.02388,0,5.02388,0c0-5-4.95833-10-11-10c0.95833,3.54167,2.14482,7.14939,2.14482,7.14939 C14.6524,14.84133,16.20969,16,17.97612,16z" stroke-linejoin="miter"></path></g></svg>