<svg id="nc_icon" version="1.1" xmlns="http://www.w3.org/2000/svg" xmlns:xlink="http://www.w3.org/1999/xlink" x="0px" y="0px" viewBox="0 0 24 24" xml:space="preserve" ><g transform="translate(0, 0)" class="nc-icon-wrapper" fill="none"><path data-color="color-2" fill="none" stroke="currentColor" vector-effect="non-scaling-stroke" stroke-linecap="square" stroke-miterlimit="10" d="M5,9 c0,0,0,0,0,2c0,4,2,8,2,12c0.4,0,9.6,0,10,0c0-4,2-8,2-12c0-2,0-2,0-2" stroke-linejoin="miter"></path> <path fill="none" stroke="currentColor" vector-effect="non-scaling-stroke" stroke-linecap="square" stroke-miterlimit="10" d="M19,7 c0-1.3-0.9-2.5-2.1-2.8C16.5,2.4,14.9,1,13,1c-1.9,0-3.6,1.4-3.9,3.2C8.5,4,7.8,3.9,7.1,4.1C5.8,4.5,5,5.8,5,7.2L5,9h4v4 c0,1.1,0.9,2,2,2h0c1.1,0,2-0.9,2-2V9h6C19,8.7,19,7.4,19,7z" stroke-linejoin="miter"></path></g></svg>