<svg id="nc_icon" version="1.1" xmlns="http://www.w3.org/2000/svg" xmlns:xlink="http://www.w3.org/1999/xlink" x="0px" y="0px" viewBox="0 0 24 24" xml:space="preserve" ><g transform="translate(0, 0)" class="nc-icon-wrapper" fill="none"><path data-cap="butt" data-color="color-2" fill="none" stroke="currentColor" vector-effect="non-scaling-stroke" stroke-miterlimit="10" d="M17,12h4v4c0,1.1-0.9,2-2,2h-2" stroke-linejoin="miter" stroke-linecap="butt"></path> <polyline data-cap="butt" data-color="color-2" fill="none" stroke="currentColor" vector-effect="non-scaling-stroke" stroke-miterlimit="10" points="17,10.5 17,23 3,23 3,10.5 " stroke-linejoin="miter" stroke-linecap="butt"></polyline> <path fill="none" stroke="currentColor" vector-effect="non-scaling-stroke" stroke-linecap="square" stroke-miterlimit="10" d="M15.5,6 C15.5,6,15.5,6,15.5,6c-0.3-2.8-2.6-5-5.5-5S4.8,3.2,4.5,6c0,0,0,0,0,0C3,6,1.9,7.3,2,8.8C2.1,10.1,3.3,11,4.6,11L7,11v4 c0,1.1,0.9,2,2,2h0c1.1,0,2-0.9,2-2v-4l4.4,0c1.3,0,2.5-0.9,2.6-2.2C18.1,7.3,17,6,15.5,6z" stroke-linejoin="miter"></path></g></svg>