<svg id="nc_icon" version="1.1" xmlns="http://www.w3.org/2000/svg" xmlns:xlink="http://www.w3.org/1999/xlink" x="0px" y="0px" viewBox="0 0 24 24" xml:space="preserve" ><g transform="translate(0, 0)" class="nc-icon-wrapper" fill="none"><path data-cap="butt" data-color="color-2" fill="none" stroke="currentColor" vector-effect="non-scaling-stroke" stroke-miterlimit="10" d="M9,19.9c0,0,0,0.1,0,0.1 c0,1.7,1.3,3,3,3s3-1.3,3-3c0,0,0-0.1,0-0.1" stroke-linejoin="miter" stroke-linecap="butt"></path> <path fill="none" stroke="currentColor" vector-effect="non-scaling-stroke" stroke-linecap="square" stroke-miterlimit="10" d="M19,11c0-1.6,0-3,0-3 c0-3.9-3.1-7-7-7S5,4.1,5,8c0,0,0,1.4,0,3c0,3.3-3,4.1-3,6c0,1.7,3.9,3,10,3s10-1.3,10-3C22,15.1,19,14.3,19,11z" stroke-linejoin="miter"></path></g></svg>