<svg id="nc_icon" version="1.1" xmlns="http://www.w3.org/2000/svg" xmlns:xlink="http://www.w3.org/1999/xlink" x="0px" y="0px" viewBox="0 0 24 24" xml:space="preserve" ><g transform="translate(0, 0)" class="nc-icon-wrapper" fill="none"><line data-cap="butt" data-color="color-2" fill="none" stroke="currentColor" vector-effect="non-scaling-stroke" stroke-miterlimit="10" x1="2.8788314" y1="9.1720257" x2="5.9960012" y2="5.2616391" stroke-linejoin="miter" stroke-linecap="butt"></line> <line data-cap="butt" data-color="color-2" fill="none" stroke="currentColor" vector-effect="non-scaling-stroke" stroke-miterlimit="10" x1="21.1211681" y1="9.1720257" x2="18.0039978" y2="5.2616391" stroke-linejoin="miter" stroke-linecap="butt"></line> <line data-cap="butt" data-color="color-2" fill="none" stroke="currentColor" vector-effect="non-scaling-stroke" stroke-miterlimit="10" x1="2.8786314" y1="17.8280659" x2="5.9882379" y2="21.7442341" stroke-linejoin="miter" stroke-linecap="butt"></line> <line data-cap="butt" data-color="color-2" fill="none" stroke="currentColor" vector-effect="non-scaling-stroke" stroke-miterlimit="10" x1="18.0117626" y1="21.7442341" x2="21.1289082" y2="17.8338318" stroke-linejoin="miter" stroke-linecap="butt"></line> <line data-color="color-2" fill="none" stroke="currentColor" vector-effect="non-scaling-stroke" stroke-linecap="square" stroke-miterlimit="10" x1="12" y1="14" x2="12" y2="15" stroke-linejoin="miter"></line> <path data-cap="butt" fill="none" stroke="currentColor" vector-effect="non-scaling-stroke" stroke-miterlimit="10" d="M7.0000858,6.0294743 L4.999939,4.499939c-1.1054688-0.8286133-2.671875-0.6035156-3.5,0.5c-0.828125,1.1044922-0.6044922,2.6713867,0.5,3.5L6,11.5587769 v3.8823853L1.999939,18.5c-1.1044922,0.8286133-1.328125,2.3955078-0.5,3.5c0.828125,1.1035156,2.3945312,1.3286133,3.5,0.5 l3.3553371-2.5658722c2.1513424-1.6451607,5.1381054-1.6451607,7.2894478,0L19.000061,22.5 c1.1054688,0.8286133,2.671875,0.6035156,3.5-0.5c0.828125-1.1044922,0.6044922-2.6713867-0.5-3.5L18,15.4411621v-3.8823853 l4.000061-3.0588379c1.1044922-0.8286133,1.328125-2.3955078,0.5-3.5c-0.828125-1.1035156-2.3945312-1.3286133-3.5-0.5 l-2.0001469,1.5295358" stroke-linejoin="miter" stroke-linecap="butt"></path> <circle fill="none" stroke="currentColor" vector-effect="non-scaling-stroke" stroke-linecap="square" stroke-miterlimit="10" cx="12" cy="6" r="5" stroke-linejoin="miter"></circle></g></svg>