<svg id="nc_icon" version="1.1" xmlns="http://www.w3.org/2000/svg" xmlns:xlink="http://www.w3.org/1999/xlink" x="0px" y="0px" viewBox="0 0 24 24" xml:space="preserve" ><g transform="translate(0, 0)" class="nc-icon-wrapper" fill="none"><line data-cap="butt" fill="none" stroke="currentColor" vector-effect="non-scaling-stroke" stroke-miterlimit="10" x1="12" y1="5" x2="12" y2="11" stroke-linejoin="miter" stroke-linecap="butt"></line> <polyline data-color="color-2" fill="none" stroke="currentColor" vector-effect="non-scaling-stroke" stroke-linecap="square" stroke-miterlimit="10" points=" 20,5 23,5 23,21 1,21 1,5 4,5 " stroke-linejoin="miter"></polyline> <path fill="none" stroke="currentColor" vector-effect="non-scaling-stroke" stroke-linecap="square" stroke-miterlimit="10" d="M14,3L14,3 c-1.105,0-2,0.895-2,2c0-1.105-0.895-2-2-2h0H4v14h6l0,0h0c1.105,0,2,0.895,2,2c0-1.105,0.895-2,2-2h0l0,0h6V3H14z" stroke-linejoin="miter"></path></g></svg>