<svg id="nc_icon" version="1.1" xmlns="http://www.w3.org/2000/svg" xmlns:xlink="http://www.w3.org/1999/xlink" x="0px" y="0px" viewBox="0 0 24 24" xml:space="preserve" ><g transform="translate(0, 0)" class="nc-icon-wrapper" fill="none"><path fill="none" stroke="currentColor" vector-effect="non-scaling-stroke" stroke-linecap="square" stroke-miterlimit="10" d="M12,4c0-1.7-1.3-3-3-3 C7.7,1,6.6,1.8,6.2,3C6.1,3,6.1,3,6,3C3.2,3,1,5.2,1,8c0,1.3,0.5,2.6,1.4,3.5C1.6,12,1,12.9,1,14c0,1,0.5,1.9,1.3,2.4 C2.1,16.9,2,17.5,2,18c0,2.8,2.2,5,5,5s5-2.2,5-5v-8" stroke-linejoin="miter"></path> <path fill="none" stroke="currentColor" vector-effect="non-scaling-stroke" stroke-linecap="square" stroke-miterlimit="10" d="M12,4c0-1.7,1.3-3,3-3 c1.3,0,2.4,0.8,2.8,2c0.1,0,0.1,0,0.2,0c2.8,0,5,2.2,5,5c0,1.3-0.5,2.6-1.4,3.5C22.4,12,23,12.9,23,14c0,1-0.5,1.9-1.3,2.4 c0.2,0.5,0.3,1,0.3,1.6c0,2.8-2.2,5-5,5s-5-2.2-5-5" stroke-linejoin="miter"></path> <path fill="none" stroke="currentColor" vector-effect="non-scaling-stroke" stroke-linecap="square" stroke-miterlimit="10" d="M6,13 c-1.4,0-2.7-0.6-3.6-1.5" stroke-linejoin="miter"></path> <path fill="none" stroke="currentColor" vector-effect="non-scaling-stroke" stroke-linecap="square" stroke-miterlimit="10" d="M18,13 c1.4,0,2.7-0.6,3.6-1.5" stroke-linejoin="miter"></path> <path fill="none" stroke="currentColor" vector-effect="non-scaling-stroke" stroke-linecap="square" stroke-miterlimit="10" d="M12,4c0,1.7-1.3,3-3,3" stroke-linejoin="miter"></path> <path fill="none" stroke="currentColor" vector-effect="non-scaling-stroke" stroke-linecap="square" stroke-miterlimit="10" d="M12,4c0,1.7,1.3,3,3,3" stroke-linejoin="miter"></path> <path fill="none" stroke="currentColor" vector-effect="non-scaling-stroke" stroke-linecap="square" stroke-miterlimit="10" d="M8,15.8 c-1.2-0.4-2-1.5-2-2.8c0-0.9,0.4-1.7,1-2.2" stroke-linejoin="miter"></path> <path fill="none" stroke="currentColor" vector-effect="non-scaling-stroke" stroke-linecap="square" stroke-miterlimit="10" d="M16,15.8 c1.2-0.4,2-1.5,2-2.8c0-0.9-0.4-1.7-1-2.2" stroke-linejoin="miter"></path></g></svg>