<svg id="nc_icon" version="1.1" xmlns="http://www.w3.org/2000/svg" xmlns:xlink="http://www.w3.org/1999/xlink" x="0px" y="0px" viewBox="0 0 24 24" xml:space="preserve" ><g transform="translate(0, 0)" class="nc-icon-wrapper" fill="none"><path data-cap="butt" data-color="color-2" fill="none" stroke="currentColor" vector-effect="non-scaling-stroke" stroke-miterlimit="10" d="M7,14.5c3.1,4.7,3,8.5,3,8.5h4 c0,0-0.8-5.8,3.9-9.2" stroke-linejoin="miter" stroke-linecap="butt"></path> <path fill="none" stroke="currentColor" vector-effect="non-scaling-stroke" stroke-linecap="square" stroke-miterlimit="10" d="M19,6c-0.2-2.2-2.1-4-4.5-4 c-1.3,0-2.4,0.5-3.2,1.4C10.4,2,8.8,1,7,1C4.2,1,2,3.2,2,6c0,0.5,0.1,1.1,0.3,1.6C1.5,8.1,1,9,1,10c0,1.7,1.3,3,3,3 c0.6,0,1.1-0.2,1.6-0.5c1,2,3,3.5,5.4,3.5c2.3,0,4.2-1.3,5.3-3.1C17,13.6,17.9,14,19,14c2.2,0,4-1.8,4-4C23,7.8,21.6,6,19,6z" stroke-linejoin="miter"></path></g></svg>