<svg id="nc_icon" version="1.1" xmlns="http://www.w3.org/2000/svg" xmlns:xlink="http://www.w3.org/1999/xlink" x="0px" y="0px" viewBox="0 0 24 24" xml:space="preserve" ><g transform="translate(0, 0)" class="nc-icon-wrapper" fill="none"><path data-color="color-2" fill="none" stroke="currentColor" vector-effect="non-scaling-stroke" stroke-miterlimit="10" d="M1,12C1,5.925,5.925,1,12,1 s11,4.925,11,11" stroke-linejoin="miter" stroke-linecap="square"></path> <path data-stroke="none" fill="none" d="M19.631,2.737c2.983,9.468-3.991,18.431-11.08,13.253c0.01,0.002,2.714,0.032,3.678-0.486 c0.608-0.327,1.385-0.973,1.76-0.912c0.608,0.09,0.751-0.399,0.445-0.75c-0.351-0.403-1.281-1.167-2.36-0.655 c-2.964,1.404-4.941-0.671-4.598-1.888c0.064-0.229,0.309-0.531,0.412-0.551c0.501-0.487,3.403-2.396,3.766-3.282 c0.086-0.21,0.183-0.703-0.098-0.806C11.089,6.549,9.98,6.545,9.57,6.548C8.789,6.555,8.265,6.068,8.3,5.583 c0.044-0.605,0.466-1.359,1.664-2.347c-2.057-0.3-3.244,1.341-3.245,1.343C5.611,4.304,3.882,4.621,3.881,4.62 C2.742,3.954,2.499,2.277,2.499,2.277s-1.7,1.268-1.244,4.347c0,0-2.984,5.251,0.286,11.265C1.541,17.888,4.562,24,12,24 c7.5,0,12-6.217,12-12C24,7.765,21.871,4.541,19.631,2.737z" stroke-linejoin="miter" stroke-linecap="square"></path></g></svg>