<svg id="nc_icon" version="1.1" xmlns="http://www.w3.org/2000/svg" xmlns:xlink="http://www.w3.org/1999/xlink" x="0px" y="0px" viewBox="0 0 24 24" xml:space="preserve" ><g transform="translate(0, 0)" class="nc-icon-wrapper" fill="none"><path data-cap="butt" fill="none" stroke="currentColor" vector-effect="non-scaling-stroke" stroke-miterlimit="10" d="M8.379,18.199 c-1.216-1.436-2.004-3.558-2.057-5.94c0-0.006,0-0.512,0-0.518c0.053-2.382,0.841-4.504,2.057-5.94 c1.578-2.049,3.924-3.349,6.543-3.349c1.611,0,3.119,0.492,4.409,1.348c-1.936-1.732-4.49-2.789-7.29-2.8C12.028,1,12.014,1,12,1 C5.925,1,1,5.925,1,12c0,5.899,4.644,10.714,10.476,10.987C11.65,22.995,11.824,23,12,23c2.816,0,5.385-1.059,7.331-2.799 c-1.289,0.855-2.797,1.347-4.408,1.347C12.303,21.548,9.957,20.248,8.379,18.199z" stroke-linejoin="miter" stroke-linecap="butt"></path> <path data-cap="butt" fill="none" stroke="currentColor" vector-effect="non-scaling-stroke" stroke-miterlimit="10" d="M8.379,5.801 c1.009-1.191,2.313-1.91,3.737-1.91c3.202,0,5.798,3.631,5.798,8.109s-2.596,8.109-5.798,8.109c-1.424,0-2.728-0.719-3.737-1.91 c1.578,2.049,3.924,3.349,6.543,3.349c1.611,0,3.119-0.492,4.408-1.347C21.582,18.186,23,15.259,23,12 c0-3.259-1.417-6.186-3.669-8.2c-1.289-0.855-2.797-1.348-4.409-1.348C12.303,2.453,9.957,3.752,8.379,5.801z" stroke-linejoin="miter" stroke-linecap="butt"></path></g></svg>