<svg id="nc_icon" version="1.1" xmlns="http://www.w3.org/2000/svg" xmlns:xlink="http://www.w3.org/1999/xlink" x="0px" y="0px" viewBox="0 0 24 24" xml:space="preserve" ><g transform="translate(0, 0)" class="nc-icon-wrapper" fill="none"><path data-cap="butt" fill="none" stroke="currentColor" vector-effect="non-scaling-stroke" stroke-miterlimit="10" d=" M11.631,5.205C8.344,5.754,8,8.583,8,10h8C16,10,16.502,5.205,11.631,5.205c-1.835,0-4.089,0.637-5.672,1.622 c-2.617,1.629-4.113,3.944-4.113,3.944C2.277,5.376,6.504,1,12.191,1C16.763,1,21.815,3.553,22,11v3H8c0,0,0.458,4.41,6.354,4.41 c2.18,0,3.73-0.285,5.646-1.41v4c-2.427,1.495-6.694,2.492-9.623,1.542C4.281,20.564,2.708,13.271,6,9 c1.396-1.875,3.742-3.602,3.742-3.602" stroke-linejoin="miter" stroke-linecap="butt"></path></g></svg>