<svg id="nc_icon" version="1.1" xmlns="http://www.w3.org/2000/svg" xmlns:xlink="http://www.w3.org/1999/xlink" x="0px" y="0px" viewBox="0 0 24 24" xml:space="preserve" ><g transform="translate(0, 0)" class="nc-icon-wrapper" fill="none"><line data-cap="butt" fill="none" stroke="currentColor" vector-effect="non-scaling-stroke" stroke-miterlimit="10" x1="12" y1="7" x2="12" y2="23" stroke-linejoin="miter" stroke-linecap="butt"></line> <line data-cap="butt" data-color="color-2" fill="none" stroke="currentColor" vector-effect="non-scaling-stroke" stroke-miterlimit="10" x1="1" y1="13" x2="4" y2="13" stroke-linejoin="miter" stroke-linecap="butt"></line> <line data-cap="butt" data-color="color-2" fill="none" stroke="currentColor" vector-effect="non-scaling-stroke" stroke-miterlimit="10" x1="4" y1="5" x2="6.1" y2="7.1" stroke-linejoin="miter" stroke-linecap="butt"></line> <line data-cap="butt" data-color="color-2" fill="none" stroke="currentColor" vector-effect="non-scaling-stroke" stroke-miterlimit="10" x1="20" y1="5" x2="17.9" y2="7.1" stroke-linejoin="miter" stroke-linecap="butt"></line> <line data-cap="butt" data-color="color-2" fill="none" stroke="currentColor" vector-effect="non-scaling-stroke" stroke-miterlimit="10" x1="4" y1="22" x2="6.1" y2="19.9" stroke-linejoin="miter" stroke-linecap="butt"></line> <line data-cap="butt" data-color="color-2" fill="none" stroke="currentColor" vector-effect="non-scaling-stroke" stroke-miterlimit="10" x1="20" y1="22" x2="17.9" y2="19.9" stroke-linejoin="miter" stroke-linecap="butt"></line> <line data-cap="butt" data-color="color-2" fill="none" stroke="currentColor" vector-effect="non-scaling-stroke" stroke-miterlimit="10" x1="20" y1="13" x2="23" y2="13" stroke-linejoin="miter" stroke-linecap="butt"></line> <line data-cap="butt" data-color="color-2" fill="none" stroke="currentColor" vector-effect="non-scaling-stroke" stroke-miterlimit="10" x1="9" y1="3" x2="7" y2="1" stroke-linejoin="miter" stroke-linecap="butt"></line> <line data-cap="butt" data-color="color-2" fill="none" stroke="currentColor" vector-effect="non-scaling-stroke" stroke-miterlimit="10" x1="15" y1="3" x2="17" y2="1" stroke-linejoin="miter" stroke-linecap="butt"></line> <path data-cap="butt" fill="none" stroke="currentColor" vector-effect="non-scaling-stroke" stroke-miterlimit="10" d="M15.9,5.2c2.5,1.6,4.1,4.7,4.1,8.3 c0,5.2-3.6,9.5-8,9.5s-8-4.3-8-9.5c0-3.6,1.7-6.7,4.1-8.3" stroke-linejoin="miter" stroke-linecap="butt"></path> <path fill="none" stroke="currentColor" vector-effect="non-scaling-stroke" stroke-linecap="square" stroke-miterlimit="10" d="M12,2c-2,0-3.7,1.5-4,3.5 c0,0,2,1.5,4,1.5s4-1.5,4-1.5C15.7,3.5,14,2,12,2z" stroke-linejoin="miter"></path></g></svg>