<svg id="nc_icon" version="1.1" xmlns="http://www.w3.org/2000/svg" xmlns:xlink="http://www.w3.org/1999/xlink" x="0px" y="0px" viewBox="0 0 24 24" xml:space="preserve" ><g transform="translate(0, 0)" class="nc-icon-wrapper" fill="none"><line fill="none" stroke="currentColor" vector-effect="non-scaling-stroke" stroke-linecap="square" stroke-miterlimit="10" x1="20" y1="12" x2="4" y2="12" stroke-linejoin="miter"></line> <line fill="none" stroke="currentColor" vector-effect="non-scaling-stroke" stroke-linecap="square" stroke-miterlimit="10" x1="4" y1="5" x2="20" y2="5" stroke-linejoin="miter"></line> <polyline data-color="color-2" fill="none" stroke="currentColor" vector-effect="non-scaling-stroke" stroke-linecap="square" stroke-miterlimit="10" points=" 9,20 9,23 5,23 5,20 " stroke-linejoin="miter"></polyline> <polyline data-color="color-2" fill="none" stroke="currentColor" vector-effect="non-scaling-stroke" stroke-linecap="square" stroke-miterlimit="10" points=" 19,20 19,23 15,23 15,20 " stroke-linejoin="miter"></polyline> <path fill="none" stroke="currentColor" vector-effect="non-scaling-stroke" stroke-linecap="square" stroke-miterlimit="10" d="M20,20H4V3 c0-1.105,0.895-2,2-2h12c1.105,0,2,0.895,2,2V20z" stroke-linejoin="miter"></path> <line fill="none" stroke="currentColor" vector-effect="non-scaling-stroke" stroke-linecap="square" stroke-miterlimit="10" x1="1" y1="9" x2="1" y2="12" stroke-linejoin="miter"></line> <line fill="none" stroke="currentColor" vector-effect="non-scaling-stroke" stroke-linecap="square" stroke-miterlimit="10" x1="23" y1="9" x2="23" y2="12" stroke-linejoin="miter"></line> <circle data-color="color-2" data-stroke="none" fill="none" cx="8" cy="16" r="1"></circle> <circle data-color="color-2" data-stroke="none" fill="none" cx="16" cy="16" r="1"></circle></g></svg>