<svg id="nc_icon" version="1.1" xmlns="http://www.w3.org/2000/svg" xmlns:xlink="http://www.w3.org/1999/xlink" x="0px" y="0px" viewBox="0 0 24 24" xml:space="preserve" ><g transform="translate(0, 0)" class="nc-icon-wrapper" fill="none"><polyline data-cap="butt" data-color="color-2" fill="none" stroke="currentColor" vector-effect="non-scaling-stroke" stroke-miterlimit="10" points="9,23 11,18 13,18 15,23 " stroke-linejoin="miter" stroke-linecap="butt"></polyline> <path data-cap="butt" fill="none" stroke="currentColor" vector-effect="non-scaling-stroke" stroke-miterlimit="10" d="M6.003,6.796 c0.63,0.186,1.292,0.31,1.982,0.31c1.96,0,3.729-0.808,5-2.106c1.271,1.298,3.054,2.106,5.014,2.106" stroke-linejoin="miter" stroke-linecap="butt"></path> <path fill="none" stroke="currentColor" vector-effect="non-scaling-stroke" stroke-linecap="square" stroke-miterlimit="10" d="M6,7c0-3.314,2.686-6,6-6 s6,2.686,6,6c0,5-2.686,8-6,8S6,12,6,7z" stroke-linejoin="miter"></path> <path data-cap="butt" fill="none" stroke="currentColor" vector-effect="non-scaling-stroke" stroke-miterlimit="10" d="M8.796,13.907l-5.825,3.51 C2.369,17.779,2,18.43,2,19.132V23h20v-3.868c0-0.703-0.369-1.354-0.971-1.715l-5.825-3.51" stroke-linejoin="miter" stroke-linecap="butt"></path></g></svg>