<svg id="nc_icon" xmlns="http://www.w3.org/2000/svg" xmlns:xlink="http://www.w3.org/1999/xlink" x="0px" y="0px" viewBox="0 0 24 24" ><g transform="translate(0, 0)" class="nc-icon-wrapper" fill="none"><path data-color="color-2" fill="none" stroke="currentColor" vector-effect="non-scaling-stroke" stroke-linecap="square" stroke-miterlimit="10" d="M12,8 c1.104,0,2-0.896,2-2s-2-4-2-4s-2,2.896-2,4S10.896,8,12,8z" stroke-linejoin="miter"></path> <rect x="1" y="15" fill="none" stroke="currentColor" vector-effect="non-scaling-stroke" stroke-linecap="square" stroke-miterlimit="10" width="22" height="8" stroke-linejoin="miter"></rect> <path fill="none" stroke="currentColor" vector-effect="non-scaling-stroke" stroke-linecap="square" stroke-miterlimit="10" d="M23,15c0,2.209-1.791,4-4,4 c-1.518,0-2.822-0.855-3.5-2.101C14.822,18.145,13.518,19,12,19s-2.822-0.855-3.5-2.101C7.822,18.145,6.518,19,5,19 c-2.209,0-4-1.791-4-4" stroke-linejoin="miter"></path> <polyline fill="none" stroke="currentColor" vector-effect="non-scaling-stroke" stroke-linecap="square" stroke-miterlimit="10" points="20,15 20,11 4,11 4,15 " stroke-linejoin="miter"></polyline></g></svg>