<svg id="nc_icon" xmlns="http://www.w3.org/2000/svg" xmlns:xlink="http://www.w3.org/1999/xlink" x="0px" y="0px" viewBox="0 0 24 24" ><g transform="translate(0, 0)" class="nc-icon-wrapper" fill="none"><line fill="none" stroke="currentColor" vector-effect="non-scaling-stroke" stroke-linecap="square" stroke-miterlimit="10" x1="15" y1="3" x2="23" y2="3" stroke-linejoin="miter"></line> <line fill="none" stroke="currentColor" vector-effect="non-scaling-stroke" stroke-linecap="square" stroke-miterlimit="10" x1="15" y1="9" x2="23" y2="9" stroke-linejoin="miter"></line> <line fill="none" stroke="currentColor" vector-effect="non-scaling-stroke" stroke-linecap="square" stroke-miterlimit="10" x1="1" y1="15" x2="23" y2="15" stroke-linejoin="miter"></line> <line fill="none" stroke="currentColor" vector-effect="non-scaling-stroke" stroke-linecap="square" stroke-miterlimit="10" x1="1" y1="21" x2="23" y2="21" stroke-linejoin="miter"></line> <path data-color="color-2" data-stroke="none" fill="none" d="M7.036,11V9.923l1.133-0.124L7.671,8.362H4.246L3.763,9.798l1.091,0.124V11H1V9.923 l0.608-0.152c0.166-0.041,0.29-0.097,0.345-0.262L4.978,1h2.445l3.011,8.536c0.055,0.166,0.166,0.193,0.331,0.235l0.635,0.152V11 H7.036z M6.028,3.113H5.945L4.674,6.87h2.583L6.028,3.113z"></path></g></svg>