<svg id="nc_icon" version="1.1" xmlns="http://www.w3.org/2000/svg" xmlns:xlink="http://www.w3.org/1999/xlink" x="0px" y="0px" viewBox="0 0 24 24" xml:space="preserve" ><g transform="translate(0, 0)" class="nc-icon-wrapper" fill="none"><path d="M20,15,18.2,9.7a.961.961,0,0,0-.9-.7H6.7a.961.961,0,0,0-.9.7L4,15" fill="none" stroke="currentColor" stroke-miterlimit="10" vector-effect="non-scaling-stroke" data-cap="butt" stroke-linecap="butt" stroke-linejoin="miter"></path>  <path d="M22,21H2V17.4a.908.908,0,0,1,.3-.7L4,15H20l1.7,1.7a.908.908,0,0,1,.3.7Z" fill="none" stroke="currentColor" stroke-linecap="square" stroke-miterlimit="10" vector-effect="non-scaling-stroke" stroke-linejoin="miter"></path>  <circle cx="6" cy="18" r="1" fill="none" data-cap="butt" data-stroke="none" stroke-linecap="butt" stroke-linejoin="miter"></circle>  <circle cx="18" cy="18" r="1" fill="none" data-cap="butt" data-stroke="none" stroke-linecap="butt" stroke-linejoin="miter"></circle>  <rect x="2" y="21" width="4" height="2" fill="none" stroke="currentColor" stroke-linecap="square" stroke-miterlimit="10" vector-effect="non-scaling-stroke" stroke-linejoin="miter"></rect>  <rect x="18" y="21" width="4" height="2" fill="none" stroke="currentColor" stroke-linecap="square" stroke-miterlimit="10" vector-effect="non-scaling-stroke" stroke-linejoin="miter"></rect>  <path d="M9.764,6a3,3,0,0,1,4.469,0" fill="none" stroke="currentColor" stroke-miterlimit="10" vector-effect="non-scaling-stroke" data-cap="butt" data-color="color-2" stroke-linecap="butt" stroke-linejoin="miter"></path>  <path d="M6.255,4a7,7,0,0,1,11.49,0" fill="none" stroke="currentColor" stroke-miterlimit="10" vector-effect="non-scaling-stroke" data-cap="butt" data-color="color-2" stroke-linecap="butt" stroke-linejoin="miter"></path></g></svg>