<svg id="nc_icon" version="1.1" xmlns="http://www.w3.org/2000/svg" xmlns:xlink="http://www.w3.org/1999/xlink" x="0px" y="0px" viewBox="0 0 24 24" xml:space="preserve" ><g transform="translate(0, 0)" class="nc-icon-wrapper" fill="none"><rect x="1" y="21" width="4" height="2" fill="none" data-cap="butt" data-stroke="none" stroke-linecap="butt" stroke-linejoin="miter"></rect>  <path d="M7,9H5.721a1,1,0,0,0-.949.684L3,15" fill="none" stroke="currentColor" stroke-miterlimit="10" vector-effect="non-scaling-stroke" data-cap="butt" stroke-linecap="butt" stroke-linejoin="miter"></path>  <path d="M21,15,19.228,9.684A1,1,0,0,0,18.279,9H17" fill="none" stroke="currentColor" stroke-miterlimit="10" vector-effect="non-scaling-stroke" data-cap="butt" stroke-linecap="butt" stroke-linejoin="miter"></path>  <path d="M23,21H1V17.414a1,1,0,0,1,.293-.707L3,15H21l1.707,1.707a1,1,0,0,1,.293.707Z" fill="none" stroke="currentColor" stroke-linecap="square" stroke-miterlimit="10" vector-effect="non-scaling-stroke" stroke-linejoin="miter"></path>  <circle cx="5" cy="18" r="1" fill="none" data-cap="butt" data-stroke="none" stroke-linecap="butt" stroke-linejoin="miter"></circle>  <circle cx="19" cy="18" r="1" fill="none" data-cap="butt" data-stroke="none" stroke-linecap="butt" stroke-linejoin="miter"></circle>  <path d="M9,7c0-1.9,3-5,3-5s3,3.1,3,5A3,3,0,0,1,9,7Z" fill="none" stroke="currentColor" stroke-linecap="square" stroke-miterlimit="10" vector-effect="non-scaling-stroke" data-color="color-2" stroke-linejoin="miter"></path>  <polyline points="5 21 5 23 1 23 1 21" fill="none" stroke="currentColor" stroke-linecap="square" stroke-miterlimit="10" vector-effect="non-scaling-stroke" stroke-linejoin="miter"></polyline>  <rect x="19" y="21" width="4" height="2" fill="none" data-cap="butt" data-stroke="none" stroke-linecap="butt" stroke-linejoin="miter"></rect>  <polyline points="23 21 23 23 19 23 19 21" fill="none" stroke="currentColor" stroke-linecap="square" stroke-miterlimit="10" vector-effect="non-scaling-stroke" stroke-linejoin="miter"></polyline></g></svg>