<svg id="nc_icon" version="1.1" xmlns="http://www.w3.org/2000/svg" xmlns:xlink="http://www.w3.org/1999/xlink" x="0px" y="0px" viewBox="0 0 24 24" xml:space="preserve" ><g transform="translate(0, 0)" class="nc-icon-wrapper" fill="none"><rect x="2" y="21" width="4" height="2" fill="none" data-cap="butt" data-stroke="none" stroke-linecap="butt" stroke-linejoin="miter"></rect>  <path d="M20,15,18.228,9.684A1,1,0,0,0,17.279,9H6.721a1,1,0,0,0-.949.684L4,15" fill="none" stroke="currentColor" stroke-miterlimit="10" vector-effect="non-scaling-stroke" data-cap="butt" stroke-linecap="butt" stroke-linejoin="miter"></path>  <path d="M22,21H2V17.414a1,1,0,0,1,.293-.707L4,15H20l1.707,1.707a1,1,0,0,1,.293.707Z" fill="none" stroke="currentColor" stroke-linecap="square" stroke-miterlimit="10" vector-effect="non-scaling-stroke" stroke-linejoin="miter"></path>  <circle cx="6" cy="18" r="1" fill="none" data-cap="butt" data-stroke="none" stroke-linecap="butt" stroke-linejoin="miter"></circle>  <circle cx="18" cy="18" r="1" fill="none" data-cap="butt" data-stroke="none" stroke-linecap="butt" stroke-linejoin="miter"></circle>  <path d="M10,3.125C10,1.938,12,0,12,0s2,1.938,2,3.125A1.906,1.906,0,0,1,12,5,1.906,1.906,0,0,1,10,3.125Z" fill="none" data-cap="butt" data-color="color-2" data-stroke="none" stroke-linecap="butt" stroke-linejoin="miter"></path>  <path d="M2,3.125C2,1.938,4,0,4,0S6,1.938,6,3.125A1.906,1.906,0,0,1,4,5,1.906,1.906,0,0,1,2,3.125Z" fill="none" data-cap="butt" data-color="color-2" data-stroke="none" stroke-linecap="butt" stroke-linejoin="miter"></path>  <path d="M18,3.125C18,1.938,20,0,20,0s2,1.938,2,3.125a2,2,0,0,1-4,0Z" fill="none" data-cap="butt" data-color="color-2" data-stroke="none" stroke-linecap="butt" stroke-linejoin="miter"></path>  <polyline points="6 21 6 23 2 23 2 21" fill="none" stroke="currentColor" stroke-linecap="square" stroke-miterlimit="10" vector-effect="non-scaling-stroke" stroke-linejoin="miter"></polyline>  <rect x="18" y="21" width="4" height="2" fill="none" data-cap="butt" data-stroke="none" stroke-linecap="butt" stroke-linejoin="miter"></rect>  <polyline points="22 21 22 23 18 23 18 21" fill="none" stroke="currentColor" stroke-linecap="square" stroke-miterlimit="10" vector-effect="non-scaling-stroke" stroke-linejoin="miter"></polyline></g></svg>