<svg id="nc_icon" version="1.1" xmlns="http://www.w3.org/2000/svg" xmlns:xlink="http://www.w3.org/1999/xlink" x="0px" y="0px" viewBox="0 0 24 24" xml:space="preserve" ><g transform="translate(0, 0)" class="nc-icon-wrapper" fill="none"><line fill="none" stroke="currentColor" vector-effect="non-scaling-stroke" stroke-linecap="square" stroke-miterlimit="10" x1="1" y1="5" x2="23" y2="5" stroke-linejoin="miter"></line> <line fill="none" stroke="currentColor" vector-effect="non-scaling-stroke" stroke-linecap="square" stroke-miterlimit="10" x1="1" y1="10" x2="23" y2="10" stroke-linejoin="miter"></line> <path fill="none" stroke="currentColor" vector-effect="non-scaling-stroke" stroke-linecap="square" stroke-miterlimit="10" d="M23,10V3c0-1.1-0.9-2-2-2 h-5H3C1.9,1,1,1.9,1,3v13c0,1.1,0.9,2,2,2h6" stroke-linejoin="miter"></path> <path data-cap="butt" data-color="color-2" fill="none" stroke="currentColor" vector-effect="non-scaling-stroke" stroke-miterlimit="10" d="M14.126,17 c0.444-1.725,2.01-3,3.874-3c1.48,0,2.772,0.804,3.464,1.999" stroke-linejoin="miter" stroke-linecap="butt"></path> <polygon data-color="color-2" data-stroke="none" fill="none" points="23.22,13.649 22.792,18 18.522,17.061 " stroke-linejoin="miter" stroke-linecap="square"></polygon> <path data-cap="butt" data-color="color-2" fill="none" stroke="currentColor" vector-effect="non-scaling-stroke" stroke-miterlimit="10" d="M21.874,20 c-0.444,1.725-2.01,3-3.874,3c-1.48,0-2.772-0.804-3.464-1.999" stroke-linejoin="miter" stroke-linecap="butt"></path> <polygon data-color="color-2" data-stroke="none" fill="none" points="12.78,23.351 13.208,19 17.478,19.939 " stroke-linejoin="miter" stroke-linecap="square"></polygon></g></svg>