<svg id="nc_icon" version="1.1" xmlns="http://www.w3.org/2000/svg" xmlns:xlink="http://www.w3.org/1999/xlink" x="0px" y="0px" viewBox="0 0 24 24" xml:space="preserve" ><g transform="translate(0, 0)" class="nc-icon-wrapper" fill="none"><path data-cap="butt" data-color="color-2" fill="none" stroke="currentColor" vector-effect="non-scaling-stroke" stroke-miterlimit="10" d="M11.9638472,16.8735523 C11.7841949,18.077837,10.7543039,19,9.5,19c-0.560914,0-1.0786829-0.1847267-1.4957895-0.4966621" stroke-linejoin="miter" stroke-linecap="butt"></path> <path data-cap="butt" data-color="color-2" fill="none" stroke="currentColor" vector-effect="non-scaling-stroke" stroke-miterlimit="10" d="M12.0361528,16.8735523 C12.2158051,18.077837,13.2456961,19,14.5,19c0.560914,0,1.0786829-0.1847267,1.4957895-0.4966621" stroke-linejoin="miter" stroke-linecap="butt"></path> <circle data-color="color-2" fill="none" stroke="currentColor" vector-effect="non-scaling-stroke" stroke-linecap="square" stroke-miterlimit="10" cx="8" cy="12" r="1" stroke-linejoin="miter"></circle> <circle data-color="color-2" fill="none" stroke="currentColor" vector-effect="non-scaling-stroke" stroke-linecap="square" stroke-miterlimit="10" cx="16" cy="12" r="1" stroke-linejoin="miter"></circle> <path data-color="color-2" fill="none" stroke="currentColor" vector-effect="non-scaling-stroke" stroke-linecap="square" stroke-miterlimit="10" d=" M10.7242641,15h2.5514717c0.267272,0,0.4011211,0.323143,0.2121325,0.5121317l-1.2757359,1.2757368 c-0.1171579,0.117157-0.307107,0.117157-0.4242649,0l-1.2757359-1.2757368C10.323143,15.323143,10.4569921,15,10.7242641,15z" stroke-linejoin="miter"></path> <path fill="none" stroke="currentColor" vector-effect="non-scaling-stroke" stroke-linecap="square" stroke-miterlimit="10" d="M12.0000086,23h-0.0000172 C7.0294333,23,3,18.9705677,3,14.0000086V2l5,4c0,0,1.8124933-1,4-1c2.1874924,0,4,1,4,1l5-4v12.0000086 C21,18.9705677,16.9705677,23,12.0000086,23z" stroke-linejoin="miter"></path></g></svg>