<svg id="nc_icon" version="1.1" xmlns="http://www.w3.org/2000/svg" xmlns:xlink="http://www.w3.org/1999/xlink" x="0px" y="0px" viewBox="0 0 24 24" xml:space="preserve" ><g transform="translate(0, 0)" class="nc-icon-wrapper" fill="none"><line data-cap="butt" fill="none" stroke="currentColor" vector-effect="non-scaling-stroke" stroke-miterlimit="10" x1="4.1252952" y1="18.8556175" x2="2" y2="22" stroke-linejoin="miter" stroke-linecap="butt"></line> <line data-cap="butt" fill="none" stroke="currentColor" vector-effect="non-scaling-stroke" stroke-miterlimit="10" x1="19.8747044" y1="18.8556175" x2="22" y2="22" stroke-linejoin="miter" stroke-linecap="butt"></line> <path data-cap="butt" fill="none" stroke="currentColor" vector-effect="non-scaling-stroke" stroke-miterlimit="10" d="M3,5v4c-1.2572632,1.7849731-2,3-2,5 c0,5.0625,4.9248657,6,11,6s11-0.9375,11-6c0-2-0.7427368-3.2150269-2-5V5" stroke-linejoin="miter" stroke-linecap="butt"></path> <path data-color="color-2" fill="none" stroke="currentColor" vector-effect="non-scaling-stroke" stroke-linecap="square" stroke-miterlimit="10" d="M21,5 c0-1.1046143-4.0294189-2-9-2S3,3.8953857,3,5c0,1.7294617,7.5806913,2.0463028,10,1.9869995V12c0,0.8284302,0.6715698,1.5,1.5,1.5 S16,12.8284302,16,12V6.7896729C18.9607544,6.4621582,21,5.7848511,21,5z" stroke-linejoin="miter"></path></g></svg>