<svg id="nc_icon" xmlns="http://www.w3.org/2000/svg" xmlns:xlink="http://www.w3.org/1999/xlink" x="0px" y="0px" viewBox="0 0 24 24" ><g transform="translate(0, 0)" class="nc-icon-wrapper" fill="none"><path data-cap="butt" fill="none" stroke="currentColor" vector-effect="non-scaling-stroke" stroke-miterlimit="10" d="M3,18v1c0,1.657,1.343,3,3,3h12 c1.657,0,3-1.343,3-3v-1" stroke-linecap="butt"></path> <path data-cap="butt" fill="none" stroke="currentColor" vector-effect="non-scaling-stroke" stroke-miterlimit="10" d="M3,9L3,9c0-3.866,3.134-7,7-7h4 c3.866,0,7,3.134,7,7v0" stroke-linecap="butt"></path> <path data-color="color-2" fill="none" stroke="currentColor" vector-effect="non-scaling-stroke" stroke-linecap="square" stroke-miterlimit="10" d="M13,13H3 c-1.1,0-2-0.9-2-2l0,0c0-1.1,0.9-2,2-2h18c1.1,0,2,0.9,2,2l0,0c0,1.1-0.9,2-2,2h-2l-3,3L13,13z" stroke-linejoin="miter"></path> <path data-color="color-2" fill="none" stroke="currentColor" vector-effect="non-scaling-stroke" stroke-linecap="square" stroke-miterlimit="10" d="M3.5,13 C2.1,13,1,14.1,1,15.5l0,0C1,16.9,2.1,18,3.5,18h17c1.4,0,2.5-1.1,2.5-2.5l0,0c0-1.4-1.1-2.5-2.5-2.5" stroke-linejoin="miter"></path></g></svg>