<svg id="nc_icon" version="1.1" xmlns="http://www.w3.org/2000/svg" xmlns:xlink="http://www.w3.org/1999/xlink" x="0px" y="0px" viewBox="0 0 24 24" xml:space="preserve" ><g transform="translate(0, 0)" class="nc-icon-wrapper" fill="none"><line data-color="color-2" fill="none" stroke="currentColor" vector-effect="non-scaling-stroke" stroke-linecap="square" stroke-miterlimit="10" x1="6" y1="19" x2="18" y2="19" stroke-linejoin="miter"></line> <line data-color="color-2" fill="none" stroke="currentColor" vector-effect="non-scaling-stroke" stroke-linecap="square" stroke-miterlimit="10" x1="12" y1="19" x2="12" y2="15" stroke-linejoin="miter"></line> <path data-cap="butt" fill="none" stroke="currentColor" vector-effect="non-scaling-stroke" stroke-miterlimit="10" d="M7.1,5.1C6.7,5,6.4,5,6,5 c-2.8,0-5,2.2-5,5s2.2,5,5,5v8h12v-8c2.8,0,5-2.2,5-5s-2.2-5-5-5c-0.4,0-0.7,0-1.1,0.1" stroke-linejoin="miter" stroke-linecap="butt"></path> <path fill="none" stroke="currentColor" vector-effect="non-scaling-stroke" stroke-linecap="square" stroke-miterlimit="10" d="M7.4,8C7.1,7.4,7,6.7,7,6 c0-2.8,2.2-5,5-5s5,2.2,5,5c0,0.7-0.1,1.4-0.4,2" stroke-linejoin="miter"></path></g></svg>