<svg id="nc_icon" xmlns="http://www.w3.org/2000/svg" xmlns:xlink="http://www.w3.org/1999/xlink" x="0px" y="0px" viewBox="0 0 24 24" ><g transform="translate(0, 0)" class="nc-icon-wrapper" fill="none"><path d="M10,16h4a7,7,0,0,1,7,7v0a0,0,0,0,1,0,0H3a0,0,0,0,1,0,0v0A7,7,0,0,1,10,16Z" fill="none" stroke="currentColor" stroke-linecap="square" stroke-miterlimit="10" vector-effect="non-scaling-stroke" stroke-linejoin="miter"></path> <circle cx="12" cy="19" r="1" fill="none" data-cap="butt" data-color="color-2" data-stroke="none" stroke-linecap="butt" stroke-linejoin="miter"></circle> <path d="M16,9v3a4,4,0,0,1-4,4h0a4,4,0,0,1-4-4V9" fill="none" stroke="currentColor" stroke-linecap="square" stroke-miterlimit="10" vector-effect="non-scaling-stroke" stroke-linejoin="miter"></path> <path d="M16,1H8A2,2,0,0,0,8,5V9h8V5a2,2,0,0,0,0-4Z" fill="none" stroke="currentColor" stroke-linecap="square" stroke-miterlimit="10" vector-effect="non-scaling-stroke" data-color="color-2" stroke-linejoin="miter"></path></g></svg>