<svg id="nc_icon" xmlns="http://www.w3.org/2000/svg" xmlns:xlink="http://www.w3.org/1999/xlink" x="0px" y="0px" viewBox="0 0 24 24" ><g transform="translate(0, 0)" class="nc-icon-wrapper" fill="none"><path data-cap="butt" data-color="color-2" fill="none" stroke="currentColor" vector-effect="non-scaling-stroke" stroke-miterlimit="10" d="M14.4,12.4l4.7-4.7 c1,0.6,2.3,0.5,3.1-0.3c1-1,1-2.6,0-3.5c-0.4-0.4-0.9-0.6-1.4-0.7c-0.1-0.5-0.3-1-0.7-1.4c-1-1-2.6-1-3.5,0c-0.9,0.9-1,2.2-0.3,3.1 l-4.7,4.7" stroke-linejoin="miter" stroke-linecap="butt"></path> <path fill="none" stroke="currentColor" vector-effect="non-scaling-stroke" stroke-linecap="square" stroke-miterlimit="10" d="M2.8,12.7 c-2.3,2.3-2.3,6.1,0,8.5s6.1,2.3,8.5,0c1.6-1.6,2.1-3.8,1.5-5.8l2.3-2.3l-4.2-4.2l-2.3,2.3C6.6,10.6,4.4,11.1,2.8,12.7z" stroke-linejoin="miter"></path></g></svg>