<svg id="nc_icon" version="1.1" xmlns="http://www.w3.org/2000/svg" xmlns:xlink="http://www.w3.org/1999/xlink" x="0px" y="0px" viewBox="0 0 24 24" xml:space="preserve" ><g transform="translate(0, 0)" class="nc-icon-wrapper" fill="none"><polyline data-cap="butt" data-color="color-2" fill="none" stroke="currentColor" vector-effect="non-scaling-stroke" stroke-miterlimit="10" points="6,13.99999 2,17 6,20 " stroke-linejoin="miter" stroke-linecap="butt"></polyline> <path data-cap="butt" data-color="color-2" fill="none" stroke="currentColor" vector-effect="non-scaling-stroke" stroke-miterlimit="10" d="M21.29219,10.70573 C22.30323,10.2233,23,9.19491,23,8c0-1.65686-1.34314-3-3-3c0-2.20917-1.79083-4-4-4s-4,1.79083-4,4 c0,0.41421,0.06595,0.83153,0.18282,1.20728" stroke-linejoin="miter" stroke-linecap="butt"></path> <circle data-color="color-2" fill="none" stroke="currentColor" vector-effect="non-scaling-stroke" stroke-linecap="square" stroke-miterlimit="10" cx="12" cy="14" r="2" stroke-linejoin="miter"></circle> <path fill="none" stroke="currentColor" vector-effect="non-scaling-stroke" stroke-linecap="square" stroke-miterlimit="10" d="M22,23H6v-2.99987v-6.00013 C6,9.58172,9.58172,6,13.99999,6h0.00002C18.41828,6,22,9.58172,22,13.99999V23z" stroke-linejoin="miter"></path></g></svg>