<svg id="nc_icon" xmlns="http://www.w3.org/2000/svg" xmlns:xlink="http://www.w3.org/1999/xlink" x="0px" y="0px" viewBox="0 0 24 24" ><g transform="translate(0, 0)" class="nc-icon-wrapper" fill="none"><path d="M3.467,12H9v4a2,2,0,0,0,2,2h0a2,2,0,0,0,2-2V12h7.533" fill="none" stroke="currentColor" stroke-miterlimit="10" vector-effect="non-scaling-stroke" data-cap="butt" data-color="color-2" stroke-linecap="butt" stroke-linejoin="miter"></path> <path d="M5.751,8h12.5a2,2,0,0,1,1.982,1.736L22,23H2L3.769,9.736A2,2,0,0,1,5.751,8Z" fill="none" stroke="currentColor" stroke-miterlimit="10" vector-effect="non-scaling-stroke" data-cap="butt" stroke-linecap="butt" stroke-linejoin="miter"></path> <circle cx="10" cy="4" r="2" fill="none" data-cap="butt" data-color="color-2" data-stroke="none" stroke-linecap="butt" stroke-linejoin="miter"></circle> <path d="M18,0h0a0,0,0,0,1,0,0V2a4,4,0,0,1-4,4h0a0,0,0,0,1,0,0V4A4,4,0,0,1,18,0Z" fill="none" data-cap="butt" data-color="color-2" data-stroke="none" stroke-linecap="butt" stroke-linejoin="miter"></path></g></svg>