<svg id="nc_icon" xmlns="http://www.w3.org/2000/svg" xmlns:xlink="http://www.w3.org/1999/xlink" x="0px" y="0px" viewBox="0 0 24 24" ><g transform="translate(0, 0)" class="nc-icon-wrapper" fill="none"><path d="M17.392,10C19.145,12.267,20,14.238,20,16c0,4.252-3.14,7-8,7s-8-2.748-8-7C4,10.271,13.849,2.818,15.824,1.382l2.353,3.235C14.073,7.605,8,13.29,8,16c0,2.479,2.175,3,4,3s4-.521,4-3a5.723,5.723,0,0,0-1.362-3" fill="none" stroke="currentColor" stroke-linecap="square" stroke-miterlimit="10" vector-effect="non-scaling-stroke" stroke-linejoin="miter"></path> <path d="M9.057,7.2C7.939,6.233,6.823,5.345,5.823,4.617L8.176,1.382C8.819,1.85,10.3,2.957,12,4.434" fill="none" stroke="currentColor" stroke-miterlimit="10" vector-effect="non-scaling-stroke" data-cap="butt" stroke-linecap="butt" stroke-linejoin="miter"></path></g></svg>