<svg id="nc_icon" version="1.1" xmlns="http://www.w3.org/2000/svg" xmlns:xlink="http://www.w3.org/1999/xlink" x="0px" y="0px" viewBox="0 0 24 24" xml:space="preserve" ><g transform="translate(0, 0)" class="nc-icon-wrapper" fill="none"><path data-cap="butt" data-color="color-2" fill="none" stroke="currentColor" vector-effect="non-scaling-stroke" stroke-miterlimit="10" d="M18.989,20.495 c-0.135-2.388-1.497-3.146-3.489-3.81c-1.522-0.507-1.941-2.105-2.056-2.953" stroke-linejoin="miter" stroke-linecap="butt"></path> <path data-cap="butt" data-color="color-2" fill="none" stroke="currentColor" vector-effect="non-scaling-stroke" stroke-miterlimit="10" d="M10.555,13.731 c-0.113,0.844-0.524,2.444-2.055,2.954c-1.992,0.664-3.356,1.42-3.491,3.808" stroke-linejoin="miter" stroke-linecap="butt"></path> <path data-color="color-2" fill="none" stroke="currentColor" vector-effect="non-scaling-stroke" stroke-linecap="square" stroke-miterlimit="10" d="M12,14L12,14 c-2.209,0-4-1.791-4-4V9c0-2.209,1.791-4,4-4h0c2.209,0,4,1.791,4,4v1C16,12.209,14.209,14,12,14z" stroke-linejoin="miter"></path> <circle fill="none" stroke="currentColor" vector-effect="non-scaling-stroke" stroke-linecap="square" stroke-miterlimit="10" cx="12" cy="12" r="11" stroke-linejoin="miter"></circle></g></svg>