<svg id="nc_icon" version="1.1" xmlns="http://www.w3.org/2000/svg" xmlns:xlink="http://www.w3.org/1999/xlink" x="0px" y="0px" viewBox="0 0 24 24" xml:space="preserve" ><g transform="translate(0, 0)" class="nc-icon-wrapper" fill="none"><path data-cap="butt" data-color="color-2" fill="none" stroke="currentColor" vector-effect="non-scaling-stroke" stroke-miterlimit="10" d="M19.8,12.3c1.9-1,3.2-3,3.2-5.3 c-3.3,0-6-2.7-6-6c-2.4,0-4.4,1.4-5.4,3.4c-0.3,0.6-0.4,1.2-0.5,1.9" stroke-linejoin="miter" stroke-linecap="butt"></path> <path fill="none" stroke="currentColor" vector-effect="non-scaling-stroke" stroke-linecap="square" stroke-miterlimit="10" d="M9,6c3.8,0,7,2.6,7.8,6.2 c0.4-0.1,0.8-0.2,1.2-0.2c2.8,0,5,2.2,5,5s-2.2,5-5,5H9c-4.4,0-8-3.6-8-8S4.6,6,9,6z" stroke-linejoin="miter"></path></g></svg>