<svg id="nc_icon" version="1.1" xmlns="http://www.w3.org/2000/svg" xmlns:xlink="http://www.w3.org/1999/xlink" x="0px" y="0px" viewBox="0 0 24 24" xml:space="preserve" ><g transform="translate(0, 0)" class="nc-icon-wrapper" fill="none"><rect x="8" y="8" fill="none" stroke="currentColor" vector-effect="non-scaling-stroke" stroke-linecap="square" stroke-miterlimit="10" width="8" height="8" stroke-linejoin="miter"></rect> <path fill="none" stroke="currentColor" vector-effect="non-scaling-stroke" stroke-linecap="square" stroke-miterlimit="10" d="M2,5c0-1.7,1.3-3,3-3 s3,1.3,3,3c0,0.8,0,3,0,3S5.9,8,5,8C3.3,8,2,6.7,2,5z" stroke-linejoin="miter"></path> <path fill="none" stroke="currentColor" vector-effect="non-scaling-stroke" stroke-linecap="square" stroke-miterlimit="10" d="M22,5c0-1.7-1.3-3-3-3 s-3,1.3-3,3c0,0.8,0,3,0,3s2.1,0,3,0C20.7,8,22,6.7,22,5z" stroke-linejoin="miter"></path> <path fill="none" stroke="currentColor" vector-effect="non-scaling-stroke" stroke-linecap="square" stroke-miterlimit="10" d="M22,19c0,1.7-1.3,3-3,3 s-3-1.3-3-3c0-0.8,0-3,0-3s2.1,0,3,0C20.7,16,22,17.3,22,19z" stroke-linejoin="miter"></path> <path fill="none" stroke="currentColor" vector-effect="non-scaling-stroke" stroke-linecap="square" stroke-miterlimit="10" d="M2,19c0,1.7,1.3,3,3,3 s3-1.3,3-3c0-0.8,0-3,0-3s-2.1,0-3,0C3.3,16,2,17.3,2,19z" stroke-linejoin="miter"></path></g></svg>