<svg id="nc_icon" version="1.1" xmlns="http://www.w3.org/2000/svg" xmlns:xlink="http://www.w3.org/1999/xlink" x="0px" y="0px" viewBox="0 0 24 24" xml:space="preserve" ><g transform="translate(0, 0)" class="nc-icon-wrapper" fill="none"><line data-color="color-2" fill="none" stroke="currentColor" vector-effect="non-scaling-stroke" stroke-linecap="square" stroke-miterlimit="10" x1="12" y1="6" x2="12" y2="3" stroke-linejoin="miter"></line> <line fill="none" stroke="currentColor" vector-effect="non-scaling-stroke" stroke-linecap="square" stroke-miterlimit="10" x1="14" y1="17" x2="10" y2="17" stroke-linejoin="miter"></line> <path data-cap="butt" fill="none" stroke="currentColor" vector-effect="non-scaling-stroke" stroke-miterlimit="10" d="M6.8,18.6l-3.7,2.8 c-0.7,0.6-1.8-0.1-1.6-1l2-9.8C3.8,9.1,5.1,8,6.7,8h0c0.9,0,1.7,0.3,2.3,0.9L10,10h4l1.1-1.1C15.7,8.3,16.5,8,17.3,8h0 c1.5,0,2.9,1.1,3.2,2.6l2,9.8c0.2,0.9-0.8,1.5-1.6,1l-3.7-2.8" stroke-linejoin="miter" stroke-linecap="butt"></path> <circle data-color="color-2" fill="none" stroke="currentColor" vector-effect="non-scaling-stroke" stroke-linecap="square" stroke-miterlimit="10" cx="8" cy="17" r="2" stroke-linejoin="miter"></circle> <circle data-color="color-2" fill="none" stroke="currentColor" vector-effect="non-scaling-stroke" stroke-linecap="square" stroke-miterlimit="10" cx="16" cy="17" r="2" stroke-linejoin="miter"></circle></g></svg>