<svg id="nc_icon" version="1.1" xmlns="http://www.w3.org/2000/svg" xmlns:xlink="http://www.w3.org/1999/xlink" x="0px" y="0px" viewBox="0 0 24 24" xml:space="preserve" ><g transform="translate(0, 0)" class="nc-icon-wrapper" fill="none"><path fill="none" stroke="currentColor" vector-effect="non-scaling-stroke" stroke-linecap="square" stroke-miterlimit="10" d="M9,11L9,11 c-2.209,0-4-1.791-4-4V5c0-2.209,1.791-4,4-4h0c2.209,0,4,1.791,4,4v2C13,9.209,11.209,11,9,11z" stroke-linejoin="miter"></path> <path fill="none" stroke="currentColor" vector-effect="non-scaling-stroke" stroke-linecap="square" stroke-miterlimit="10" d="M17,23H1v-4.114 c0-1.247,0.765-2.363,1.931-2.805C4.318,15.555,6.399,15,9,15s4.682,0.555,6.069,1.081C16.235,16.522,17,17.639,17,18.886V23z" stroke-linejoin="miter"></path> <line data-color="color-2" fill="none" stroke="currentColor" vector-effect="non-scaling-stroke" stroke-linecap="square" stroke-miterlimit="10" x1="17" y1="4" x2="23" y2="4" stroke-linejoin="miter"></line> <line data-color="color-2" fill="none" stroke="currentColor" vector-effect="non-scaling-stroke" stroke-linecap="square" stroke-miterlimit="10" x1="17" y1="9" x2="23" y2="9" stroke-linejoin="miter"></line> <line data-color="color-2" fill="none" stroke="currentColor" vector-effect="non-scaling-stroke" stroke-linecap="square" stroke-miterlimit="10" x1="20" y1="14" x2="23" y2="14" stroke-linejoin="miter"></line></g></svg>