<svg id="nc_icon" xmlns="http://www.w3.org/2000/svg" xmlns:xlink="http://www.w3.org/1999/xlink" x="0px" y="0px" viewBox="0 0 24 24" ><g transform="translate(0, 0)" class="nc-icon-wrapper" fill="none"><path d="M4,13H6a6,6,0,0,1,6,6v4a0,0,0,0,1,0,0H10a6,6,0,0,1-6-6V13A0,0,0,0,1,4,13Z" fill="none" stroke="currentColor" stroke-linecap="square" stroke-miterlimit="10" vector-effect="non-scaling-stroke" stroke-linejoin="miter"></path> <path d="M18,13h2a0,0,0,0,1,0,0v4a6,6,0,0,1-6,6H12a0,0,0,0,1,0,0V19A6,6,0,0,1,18,13Z" transform="translate(32 36) rotate(-180)" fill="none" stroke="currentColor" stroke-linecap="square" stroke-miterlimit="10" vector-effect="non-scaling-stroke" stroke-linejoin="miter"></path> <path d="M16,10c0-6-2-9-4-9S8,4,8,10" fill="none" stroke="currentColor" stroke-linecap="square" stroke-miterlimit="10" vector-effect="non-scaling-stroke" data-color="color-2" stroke-linejoin="miter"></path></g></svg>