<svg id="nc_icon" version="1.1" xmlns="http://www.w3.org/2000/svg" xmlns:xlink="http://www.w3.org/1999/xlink" x="0px" y="0px" viewBox="0 0 24 24" xml:space="preserve" ><g transform="translate(0, 0)" class="nc-icon-wrapper"><line fill="none" stroke="currentColor" vector-effect="non-scaling-stroke" stroke-linecap="square" stroke-miterlimit="10" x1="1" y1="5" x2="23" y2="5"></line> <line fill="none" stroke="currentColor" vector-effect="non-scaling-stroke" stroke-linecap="square" stroke-miterlimit="10" x1="1" y1="9" x2="23" y2="9"></line> <path fill="none" stroke="currentColor" vector-effect="non-scaling-stroke" stroke-linecap="square" stroke-miterlimit="10" d="M9,17H3 c-1.105,0-2-0.895-2-2V3c0-1.105,0.895-2,2-2h13h5c1.105,0,2,0.895,2,2v10"></path> <line fill="none" stroke="currentColor" vector-effect="non-scaling-stroke" stroke-linecap="square" stroke-miterlimit="10" x1="5" y1="13" x2="10" y2="13"></line> <rect data-color="color-2" x="13" y="16" fill="none" stroke="currentColor" vector-effect="non-scaling-stroke" stroke-linecap="square" stroke-miterlimit="10" width="8" height="7"></rect> <path data-color="color-2" fill="none" stroke="currentColor" vector-effect="non-scaling-stroke" stroke-linecap="square" stroke-miterlimit="10" d="M15,16v-2 c0-1.1,0.9-2,2-2l0,0c1.1,0,2,0.9,2,2v2"></path> <line data-color="color-2" fill="none" stroke="currentColor" vector-effect="non-scaling-stroke" stroke-linecap="square" stroke-miterlimit="10" x1="17" y1="19" x2="17" y2="20"></line></g></svg>