<svg id="nc_icon" xmlns="http://www.w3.org/2000/svg" xmlns:xlink="http://www.w3.org/1999/xlink" x="0px" y="0px" viewBox="0 0 24 24" ><g transform="translate(0, 0)" class="nc-icon-wrapper" fill="none"><path d="M18.957,6.37A1.094,1.094,0,0,0,19,6a3.979,3.979,0,0,0-6.575-3.037A3.989,3.989,0,0,0,5,5a3.909,3.909,0,0,0,.235,1.293" fill="none" stroke="currentColor" stroke-miterlimit="10" vector-effect="non-scaling-stroke" data-cap="butt" data-color="color-2" stroke-linecap="butt" stroke-linejoin="miter"></path> <circle cx="15" cy="10" r="1" fill="none" data-cap="butt" data-stroke="none" stroke-linecap="butt" stroke-linejoin="miter"></circle> <circle cx="9" cy="10" r="1" fill="none" data-cap="butt" data-stroke="none" stroke-linecap="butt" stroke-linejoin="miter"></circle> <circle cx="12" cy="15" r="1" fill="none" data-cap="butt" data-stroke="none" stroke-linecap="butt" stroke-linejoin="miter"></circle> <path d="M12,5A18.069,18.069,0,0,0,2,8l8.276,14.014a2,2,0,0,0,3.448,0L22,8A18.069,18.069,0,0,0,12,5Z" fill="none" stroke="currentColor" stroke-linecap="square" stroke-miterlimit="10" vector-effect="non-scaling-stroke" stroke-linejoin="miter"></path></g></svg>