<svg id="nc_icon" version="1.1" xmlns="http://www.w3.org/2000/svg" xmlns:xlink="http://www.w3.org/1999/xlink" x="0px" y="0px" viewBox="0 0 24 24" xml:space="preserve" ><g transform="translate(0, 0)" class="nc-icon-wrapper"><line data-cap="butt" fill="none" stroke="currentColor" vector-effect="non-scaling-stroke" stroke-miterlimit="10" x1="5.1360388" y1="13.2071066" x2="10.7928934" y2="18.8639603" stroke-linejoin="miter" stroke-linecap="butt"></line> <path data-cap="butt" fill="none" stroke="currentColor" vector-effect="non-scaling-stroke" stroke-miterlimit="10" d="M19.3407555,10.3155489 c1.5925884-1.5925894,2.7658463-2.7652965,2.7658463-2.7652965c0.7810478-0.7810483,0.7810478-2.0473785,0-2.8284268 l-2.8284264-2.8284273c-0.7810497-0.7810485-2.0473785-0.7810485-2.8284283,0c0,0-9.8994942,9.8994951-11.3137083,11.3137083 s-0.0441942,2.8726206-1.4142134,4.2426405s-2.1213202,2.1213207-2.1213202,2.1213207 c-0.3905244,0.3905239-0.3905244,1.0236893,0,1.4142132l1.4142134,1.4142132c0.3905244,0.3905258,1.0236893,0.3905258,1.4142137,0 c0,0,0.7513008-0.7513008,2.1213202-2.1213188c1.3700194-1.3700199,2.8726211-0.0441952,4.242641-1.4142151 c0.5439682-0.5439663,2.4335251-2.4370117,4.5216713-4.5251579" stroke-linejoin="miter" stroke-linecap="butt"></path> <circle data-color="color-2" fill="none" stroke="currentColor" vector-effect="non-scaling-stroke" stroke-linecap="square" stroke-miterlimit="10" cx="18" cy="13" r="3" stroke-linejoin="miter"></circle></g></svg>