<svg id="nc_icon" version="1.1" xmlns="http://www.w3.org/2000/svg" xmlns:xlink="http://www.w3.org/1999/xlink" x="0px" y="0px" viewBox="0 0 24 24" xml:space="preserve" ><g transform="translate(0, 0)" class="nc-icon-wrapper"><path data-cap="butt" data-color="color-2" fill="none" stroke="currentColor" vector-effect="non-scaling-stroke" stroke-miterlimit="10" d="M2,15c0,1.8,0.5,3.5,1.3,4.9 c0.3,0.6,1.1,0.7,1.6,0.2L10,15" stroke-linejoin="miter" stroke-linecap="butt"></path> <path data-cap="butt" data-color="color-2" fill="none" stroke="currentColor" vector-effect="non-scaling-stroke" stroke-miterlimit="10" d="M22,15c0,1.8-0.5,3.5-1.3,4.9 c-0.3,0.6-1.1,0.7-1.6,0.2L14,15" stroke-linejoin="miter" stroke-linecap="butt"></path> <path data-cap="butt" fill="none" stroke="currentColor" vector-effect="non-scaling-stroke" stroke-miterlimit="10" d="M4.2,7.2C2.5,9,1.3,11.3,1.1,13.9 C1,14.5,1.5,15,2.1,15h19.9c0.6,0,1.1-0.5,1-1.1c-0.3-2.6-1.4-4.9-3.2-6.7" stroke-linejoin="miter" stroke-linecap="butt"></path> <path data-cap="butt" fill="none" stroke="currentColor" vector-effect="non-scaling-stroke" stroke-miterlimit="10" d="M12,15l7.9-7.9 c0.4-0.4,0.4-1.2-0.1-1.5C17.6,4,14.9,3,12,3S6.4,4,4.2,5.6C3.7,6,3.7,6.7,4.1,7.1L12,15" stroke-linejoin="miter" stroke-linecap="butt"></path></g></svg>