<svg id="nc_icon" xmlns="http://www.w3.org/2000/svg" xmlns:xlink="http://www.w3.org/1999/xlink" x="0px" y="0px" viewBox="0 0 24 24" ><g transform="translate(0, 0)" class="nc-icon-wrapper" fill="none"><polyline points="5 16 6 23 18 23 19 16" fill="none" stroke="currentColor" stroke-miterlimit="10" vector-effect="non-scaling-stroke" data-cap="butt" data-color="color-2" stroke-linecap="butt" stroke-linejoin="miter"></polyline> <path d="M6.5,10A2.5,2.5,0,0,1,4,7.5H4A2.5,2.5,0,0,1,6.5,5H14a3.108,3.108,0,0,0,3-3,5.371,5.371,0,0,1,3,5h0a3,3,0,0,1-3,3" fill="none" stroke="currentColor" stroke-linecap="square" stroke-miterlimit="10" vector-effect="non-scaling-stroke" stroke-linejoin="miter"></path> <path d="M17,10h2a3,3,0,0,1,3,3h0a3,3,0,0,1-3,3H5a3,3,0,0,1-3-3H2a3,3,0,0,1,3-3H9" fill="none" stroke="currentColor" stroke-linecap="square" stroke-miterlimit="10" vector-effect="non-scaling-stroke" stroke-linejoin="miter"></path></g></svg>