<svg id="nc_icon" version="1.1" xmlns="http://www.w3.org/2000/svg" xmlns:xlink="http://www.w3.org/1999/xlink" x="0px" y="0px" viewBox="0 0 24 24" xml:space="preserve" ><g transform="translate(0, 0)" class="nc-icon-wrapper" fill="none"><path fill="none" stroke="currentColor" vector-effect="non-scaling-stroke" stroke-linecap="square" stroke-miterlimit="10" d="M10,17H4c-1.7,0-3,1.3-3,3 v3h12v-3C13,18.3,11.7,17,10,17z" stroke-linejoin="miter"></path> <path fill="none" stroke="currentColor" vector-effect="non-scaling-stroke" stroke-linecap="square" stroke-miterlimit="10" d="M7,14L7,14 c-1.7,0-3-1.3-3-3v-1c0-1.7,1.3-3,3-3l0,0c1.7,0,3,1.3,3,3v1C10,12.7,8.7,14,7,14z" stroke-linejoin="miter"></path> <polygon data-color="color-2" fill="none" stroke="currentColor" vector-effect="non-scaling-stroke" stroke-linecap="square" stroke-miterlimit="10" points=" 13,1 13,11 17,8 23,8 23,1 " stroke-linejoin="miter"></polygon></g></svg>