<svg id="nc_icon" version="1.1" xmlns="http://www.w3.org/2000/svg" xmlns:xlink="http://www.w3.org/1999/xlink" x="0px" y="0px" viewBox="0 0 24 24" xml:space="preserve" ><g transform="translate(0, 0)" class="nc-icon-wrapper" fill="none"><path data-cap="butt" data-color="color-2" fill="none" stroke="currentColor" vector-effect="non-scaling-stroke" stroke-miterlimit="10" d="M7.3401513,7H3 C1.8954304,7,1,6.1045694,1,5V1" stroke-linejoin="miter" stroke-linecap="butt"></path> <line data-cap="butt" data-color="color-2" fill="none" stroke="currentColor" vector-effect="non-scaling-stroke" stroke-miterlimit="10" x1="5" y1="7" x2="5" y2="3" stroke-linejoin="miter" stroke-linecap="butt"></line> <path data-cap="butt" data-color="color-2" fill="none" stroke="currentColor" vector-effect="non-scaling-stroke" stroke-miterlimit="10" d="M16.659811,7H21 c1.1045704,0,2-0.8954306,2-2V1" stroke-linejoin="miter" stroke-linecap="butt"></path> <line data-cap="butt" data-color="color-2" fill="none" stroke="currentColor" vector-effect="non-scaling-stroke" stroke-miterlimit="10" x1="19" y1="7" x2="19" y2="3" stroke-linejoin="miter" stroke-linecap="butt"></line> <line data-cap="butt" fill="none" stroke="currentColor" vector-effect="non-scaling-stroke" stroke-miterlimit="10" x1="12" y1="19" x2="12" y2="23" stroke-linejoin="miter" stroke-linecap="butt"></line> <path data-cap="butt" fill="none" stroke="currentColor" vector-effect="non-scaling-stroke" stroke-miterlimit="10" d="M5.0411081,13H3.9999969 C2.3431444,13,1,11.6568556,1,10.0000029V10h4.2169361" stroke-linejoin="miter" stroke-linecap="butt"></path> <path data-cap="butt" fill="none" stroke="currentColor" vector-effect="non-scaling-stroke" stroke-miterlimit="10" d="M18.9588909,13h1.0411129 C21.6568565,13,23,11.6568556,23,10.0000029V10h-4.2169361" stroke-linejoin="miter" stroke-linecap="butt"></path> <path fill="none" stroke="currentColor" vector-effect="non-scaling-stroke" stroke-linecap="square" stroke-miterlimit="10" d="M5,12 c0-4.4182782,2.5817218-6,7-6s7,1.5817218,7,6s-2.5817223,11-7,11S5,16.4182777,5,12z" stroke-linejoin="miter"></path> <circle fill="none" stroke="currentColor" vector-effect="non-scaling-stroke" stroke-linecap="square" stroke-miterlimit="10" cx="12" cy="17" r="2" stroke-linejoin="miter"></circle> <line fill="none" stroke="currentColor" vector-effect="non-scaling-stroke" stroke-linecap="square" stroke-miterlimit="10" x1="9" y1="12" x2="10" y2="12" stroke-linejoin="miter"></line> <line fill="none" stroke="currentColor" vector-effect="non-scaling-stroke" stroke-linecap="square" stroke-miterlimit="10" x1="14" y1="12" x2="15" y2="12" stroke-linejoin="miter"></line></g></svg>