<svg id="nc_icon" xmlns="http://www.w3.org/2000/svg" xmlns:xlink="http://www.w3.org/1999/xlink" x="0px" y="0px" viewBox="0 0 24 24" ><g transform="translate(0, 0)" class="nc-icon-wrapper" fill="none"><polyline points="11 23 2 23 2 4 4 4" fill="none" stroke="currentColor" stroke-linecap="square" stroke-miterlimit="10" vector-effect="non-scaling-stroke" stroke-linejoin="miter"></polyline> <polyline points="20 4 22 4 22 6" fill="none" stroke="currentColor" stroke-linecap="square" stroke-miterlimit="10" vector-effect="non-scaling-stroke" stroke-linejoin="miter"></polyline> <path d="M14,3a2,2,0,0,0-4,0H7V7H17V3Z" fill="none" stroke="currentColor" stroke-linecap="square" stroke-miterlimit="10" vector-effect="non-scaling-stroke" stroke-linejoin="miter"></path> <line x1="7" y1="11" x2="12" y2="11" fill="none" stroke="currentColor" stroke-linecap="square" stroke-miterlimit="10" vector-effect="non-scaling-stroke" stroke-linejoin="miter"></line> <line x1="7" y1="15" x2="9" y2="15" fill="none" stroke="currentColor" stroke-linecap="square" stroke-miterlimit="10" vector-effect="non-scaling-stroke" stroke-linejoin="miter"></line> <line x1="7" y1="19" x2="9" y2="19" fill="none" stroke="currentColor" stroke-linecap="square" stroke-miterlimit="10" vector-effect="non-scaling-stroke" stroke-linejoin="miter"></line> <path d="M18,22.567l1.084.338a2,2,0,0,0,2.487-1.163l1.247-3.5c.875-2.456-1.549-4.824-4.209-4.113L18,14.291l-.609-.163c-2.66-.711-5.084,1.657-4.209,4.113l1.247,3.5a2,2,0,0,0,2.487,1.163Z" fill="none" stroke="currentColor" stroke-linecap="square" stroke-miterlimit="10" vector-effect="non-scaling-stroke" data-color="color-2" stroke-linejoin="miter"></path> <path d="M21,8h0a0,0,0,0,1,0,0V9a3,3,0,0,1-3,3h0a0,0,0,0,1,0,0V11A3,3,0,0,1,21,8Z" fill="none" data-cap="butt" data-color="color-2" data-stroke="none" stroke-linecap="butt" stroke-linejoin="miter"></path></g></svg>