<svg id="nc_icon" xmlns="http://www.w3.org/2000/svg" xmlns:xlink="http://www.w3.org/1999/xlink" x="0px" y="0px" viewBox="0 0 24 24" ><g transform="translate(0, 0)" class="nc-icon-wrapper" fill="none"><polyline points="9 22 1 22 1 3 23 3 23 11" fill="none" stroke="currentColor" stroke-linecap="square" stroke-miterlimit="10" vector-effect="non-scaling-stroke" stroke-linejoin="miter"></polyline> <line x1="7" y1="1" x2="7" y2="5" fill="none" stroke="currentColor" stroke-linecap="square" stroke-miterlimit="10" vector-effect="non-scaling-stroke" stroke-linejoin="miter"></line> <line x1="17" y1="1" x2="17" y2="5" fill="none" stroke="currentColor" stroke-linecap="square" stroke-miterlimit="10" vector-effect="non-scaling-stroke" stroke-linejoin="miter"></line> <path d="M17,22.567l1.084.338a2,2,0,0,0,2.487-1.163l1.247-3.5c.875-2.456-1.549-4.824-4.209-4.113L17,14.291l-.609-.163c-2.66-.711-5.084,1.657-4.209,4.113l1.247,3.5A2,2,0,0,0,15.916,22.9Z" fill="none" stroke="currentColor" stroke-linecap="square" stroke-miterlimit="10" vector-effect="non-scaling-stroke" data-color="color-2" stroke-linejoin="miter"></path> <path d="M20,8h0V9a3,3,0,0,1-3,3h0V11A3,3,0,0,1,20,8Z" fill="none" data-cap="butt" data-color="color-2" data-stroke="none" stroke-linecap="butt" stroke-linejoin="miter"></path></g></svg>