<svg id="nc_icon" version="1.1" xmlns="http://www.w3.org/2000/svg" xmlns:xlink="http://www.w3.org/1999/xlink" x="0px" y="0px" viewBox="0 0 24 24" xml:space="preserve" ><g transform="translate(0, 0)" class="nc-icon-wrapper" fill="none"><circle data-color="color-2" fill="none" stroke="currentColor" vector-effect="non-scaling-stroke" stroke-linecap="square" stroke-miterlimit="10" cx="8" cy="11" r="1" stroke-linejoin="miter"></circle> <circle data-color="color-2" fill="none" stroke="currentColor" vector-effect="non-scaling-stroke" stroke-linecap="square" stroke-miterlimit="10" cx="16" cy="11" r="1" stroke-linejoin="miter"></circle> <path data-cap="butt" fill="none" stroke="currentColor" vector-effect="non-scaling-stroke" stroke-miterlimit="10" d="M2.9964,10.99766 C1.784,10.08529,1,8.6342,1,7V1h0.00001c2.96098,0,5.54624,1.60863,6.92953,3.99963" stroke-linejoin="miter" stroke-linecap="butt"></path> <path data-cap="butt" fill="none" stroke="currentColor" vector-effect="non-scaling-stroke" stroke-miterlimit="10" d="M21.0036,10.99766 C22.216,10.08529,23,8.6342,23,7V1h-0.00001c-2.96098,0-5.54624,1.60863-6.92953,3.99963" stroke-linejoin="miter" stroke-linecap="butt"></path> <path data-cap="butt" fill="none" stroke="currentColor" vector-effect="non-scaling-stroke" stroke-miterlimit="10" d="M5.99435,21.87252 C4.27199,21.42652,3,19.8618,3,18v-8c0-2.76142,2.23858-5,5-5h8c2.76142,0,5,2.23858,5,5v8 c0,1.86369-1.27457,3.42969-2.99959,3.87388" stroke-linejoin="miter" stroke-linecap="butt"></path> <path data-cap="butt" data-color="color-2" fill="none" stroke="currentColor" vector-effect="non-scaling-stroke" stroke-miterlimit="10" d="M12,18.52818V19 c0,2.20914-1.79086,4-4,4H6v-5c0-1.65685,1.34315-3,3-3h0.76465" stroke-linejoin="miter" stroke-linecap="butt"></path> <path data-cap="butt" data-color="color-2" fill="none" stroke="currentColor" vector-effect="non-scaling-stroke" stroke-miterlimit="10" d="M12,18.05586V19 c0,2.20914,1.79086,4,4,4h2v-5c0-1.65685-1.34315-3-3-3h-0.76474" stroke-linejoin="miter" stroke-linecap="butt"></path> <path data-color="color-2" fill="none" stroke="currentColor" vector-effect="non-scaling-stroke" stroke-linecap="square" stroke-miterlimit="10" d="M10.76619,14 h2.46762c0.77729,0,1.25741,0.84797,0.85749,1.5145l-1.23381,2.05635c-0.3884,0.64734-1.32658,0.64734-1.71499,0L9.9087,15.5145 C9.50878,14.84797,9.9889,14,10.76619,14z" stroke-linejoin="miter"></path></g></svg>