<svg id="nc_icon" version="1.1" xmlns="http://www.w3.org/2000/svg" xmlns:xlink="http://www.w3.org/1999/xlink" x="0px" y="0px" viewBox="0 0 24 24" xml:space="preserve" ><g transform="translate(0, 0)" class="nc-icon-wrapper" fill="none"><path fill="none" stroke="currentColor" vector-effect="non-scaling-stroke" stroke-linecap="square" stroke-miterlimit="10" d="M7,17c0-3,5-8,5-8s5,5,5,8 c0,3.2-2.6,5-5,5S7,20.2,7,17z" stroke-linejoin="miter"></path> <path data-color="color-2" fill="none" stroke="currentColor" vector-effect="non-scaling-stroke" stroke-linecap="square" stroke-miterlimit="10" d="M17,7 c0-1.9,3-5,3-5s3,3.1,3,5c0,1.9-1.5,3-3,3S17,8.9,17,7z" stroke-linejoin="miter"></path> <path data-color="color-2" fill="none" stroke="currentColor" vector-effect="non-scaling-stroke" stroke-linecap="square" stroke-miterlimit="10" d="M1,7 c0-1.9,3-5,3-5s3,3.1,3,5c0,1.9-1.5,3-3,3S1,8.9,1,7z" stroke-linejoin="miter"></path></g></svg>