<svg id="nc_icon" version="1.1" xmlns="http://www.w3.org/2000/svg" xmlns:xlink="http://www.w3.org/1999/xlink" x="0px" y="0px" viewBox="0 0 24 24" xml:space="preserve" ><g transform="translate(0, 0)" class="nc-icon-wrapper" fill="none"><path data-cap="butt" fill="none" stroke="currentColor" vector-effect="non-scaling-stroke" stroke-miterlimit="10" d="M19.992,18.737L22.2,20.4 c0.504,0.378,0.8,0.97,0.8,1.6v1h-8v-1c0-0.63,0.296-1.222,0.8-1.6l2.208-1.663" stroke-linejoin="miter" stroke-linecap="butt"></path> <path fill="none" stroke="currentColor" vector-effect="non-scaling-stroke" stroke-linecap="square" stroke-miterlimit="10" d="M19,19L19,19 c-1.105,0-2-0.895-2-2v-1c0-1.105,0.895-2,2-2h0c1.105,0,2,0.895,2,2v1C21,18.105,20.105,19,19,19z" stroke-linejoin="miter"></path> <path data-cap="butt" fill="none" stroke="currentColor" vector-effect="non-scaling-stroke" stroke-miterlimit="10" d="M5.992,5.737L8.2,7.4 C8.704,7.778,9,8.37,9,9v1H1V9c0-0.63,0.296-1.222,0.8-1.6l2.208-1.663" stroke-linejoin="miter" stroke-linecap="butt"></path> <path fill="none" stroke="currentColor" vector-effect="non-scaling-stroke" stroke-linecap="square" stroke-miterlimit="10" d="M5,6L5,6 C3.895,6,3,5.105,3,4V3c0-1.105,0.895-2,2-2h0c1.105,0,2,0.895,2,2v1C7,5.105,6.105,6,5,6z" stroke-linejoin="miter"></path> <polyline data-cap="butt" data-color="color-2" fill="none" stroke="currentColor" vector-effect="non-scaling-stroke" stroke-miterlimit="10" points="13,5 21,5 21,10 " stroke-linejoin="miter" stroke-linecap="butt"></polyline> <polyline data-color="color-2" fill="none" stroke="currentColor" vector-effect="non-scaling-stroke" stroke-linecap="square" stroke-miterlimit="10" points=" 16,2 13,5 16,8 " stroke-linejoin="miter"></polyline> <polyline data-cap="butt" data-color="color-2" fill="none" stroke="currentColor" vector-effect="non-scaling-stroke" stroke-miterlimit="10" points="11,19 3,19 3,14 " stroke-linejoin="miter" stroke-linecap="butt"></polyline> <polyline data-color="color-2" fill="none" stroke="currentColor" vector-effect="non-scaling-stroke" stroke-linecap="square" stroke-miterlimit="10" points=" 8,22 11,19 8,16 " stroke-linejoin="miter"></polyline></g></svg>