<svg id="nc_icon" version="1.1" xmlns="http://www.w3.org/2000/svg" xmlns:xlink="http://www.w3.org/1999/xlink" x="0px" y="0px" viewBox="0 0 24 24" xml:space="preserve" ><g transform="translate(0, 0)" class="nc-icon-wrapper" fill="none"><circle data-color="color-2" fill="none" stroke="currentColor" vector-effect="non-scaling-stroke" stroke-linecap="square" stroke-miterlimit="10" cx="12" cy="12" r="2" stroke-linejoin="miter"></circle> <path fill="none" stroke="currentColor" vector-effect="non-scaling-stroke" stroke-linecap="square" stroke-miterlimit="10" d="M23,12 c0-1.28644-2.10992-2.38049-4.22357-2.80688c1.19305-1.79602,1.91144-4.06165,1.00177-4.97131s-3.17523-0.19128-4.97131,1.00177 C14.38049,3.10992,13.28644,1,12,1S9.61951,3.10992,9.19312,5.22357C7.39703,4.03052,5.13147,3.31213,4.2218,4.2218 S4.03052,7.39709,5.22357,9.19312C3.10992,9.61951,1,10.71356,1,12s2.10992,2.38049,4.22351,2.80688 c-1.19305,1.79608-1.91132,4.06165-1.00171,4.97125c0.90967,0.90967,3.17523,0.19135,4.97131-1.00171 C9.61951,20.89008,10.71356,23,12,23s2.38049-2.10992,2.80688-4.22357c1.79608,1.19305,4.06165,1.91138,4.97131,1.00171 c0.90961-0.90961,0.19135-3.17517-1.00171-4.97125C20.89008,14.38049,23,13.28644,23,12z" stroke-linejoin="miter"></path></g></svg>