<svg id="nc_icon" version="1.1" xmlns="http://www.w3.org/2000/svg" xmlns:xlink="http://www.w3.org/1999/xlink" x="0px" y="0px" viewBox="0 0 24 24" xml:space="preserve" ><g transform="translate(0, 0)" class="nc-icon-wrapper" fill="none"><polygon fill="none" stroke="currentColor" vector-effect="non-scaling-stroke" stroke-linecap="square" stroke-miterlimit="10" points="23,23 1,23 1,1 9,1 12,5 23,5 " stroke-linejoin="miter"></polygon> <path data-cap="butt" data-color="color-2" fill="none" stroke="currentColor" vector-effect="non-scaling-stroke" stroke-miterlimit="10" d="M12.992,14.737L15.2,16.4 c0.504,0.378,0.8,0.97,0.8,1.6v1H8v-1c0-0.63,0.296-1.222,0.8-1.6l2.208-1.663" stroke-linejoin="miter" stroke-linecap="butt"></path> <path data-color="color-2" fill="none" stroke="currentColor" vector-effect="non-scaling-stroke" stroke-linecap="square" stroke-miterlimit="10" d="M12,15 L12,15c-1.105,0-2-0.895-2-2v-1c0-1.105,0.895-2,2-2h0c1.105,0,2,0.895,2,2v1C14,14.105,13.105,15,12,15z" stroke-linejoin="miter"></path></g></svg>