<svg id="nc_icon" version="1.1" xmlns="http://www.w3.org/2000/svg" xmlns:xlink="http://www.w3.org/1999/xlink" x="0px" y="0px" viewBox="0 0 24 24" xml:space="preserve" ><g transform="translate(0, 0)" class="nc-icon-wrapper" fill="none"><path data-color="color-2" fill="none" stroke="currentColor" vector-effect="non-scaling-stroke" stroke-linecap="square" stroke-miterlimit="10" d="M16,15v1.5 c0,1.38071,1.11929,2.5,2.5,2.5h0c1.38071,0,2.5-1.11929,2.5-2.5V11" stroke-linejoin="miter"></path> <rect data-color="color-2" x="5" y="6" fill="none" stroke="currentColor" vector-effect="non-scaling-stroke" stroke-linecap="square" stroke-miterlimit="10" width="7" height="5" stroke-linejoin="miter"></rect> <path data-color="color-2" fill="none" stroke="currentColor" vector-effect="non-scaling-stroke" stroke-linecap="square" stroke-miterlimit="10" d="M19,7h4v2 c0,1.10457-0.89543,2-2,2h0c-1.10457,0-2-0.89543-2-2V7z" stroke-linejoin="miter"></path> <line data-color="color-2" fill="none" stroke="currentColor" vector-effect="non-scaling-stroke" stroke-linecap="square" stroke-miterlimit="10" x1="19" y1="5" x2="19" y2="7" stroke-linejoin="miter"></line> <line data-color="color-2" fill="none" stroke="currentColor" vector-effect="non-scaling-stroke" stroke-linecap="square" stroke-miterlimit="10" x1="23" y1="5" x2="23" y2="7" stroke-linejoin="miter"></line> <path fill="none" stroke="currentColor" vector-effect="non-scaling-stroke" stroke-linecap="square" stroke-miterlimit="10" d="M1,22V4 c0-1.10457,0.89543-2,2-2h11c1.10457,0,2,0.89543,2,2v18H1z" stroke-linejoin="miter"></path></g></svg>