<svg id="nc_icon" xmlns="http://www.w3.org/2000/svg" xmlns:xlink="http://www.w3.org/1999/xlink" x="0px" y="0px" viewBox="0 0 24 24" ><g transform="translate(0, 0)" class="nc-icon-wrapper" fill="none"><path d="M14.991,21.969c4.027-.113,6.091-.616,7.27-2.732a7.053,7.053,0,0,0-.647-7.262c-1.176-1.618-3.567-3.39-5.242-5.125A9.359,9.359,0,0,1,14,1H10A9.359,9.359,0,0,1,7.628,6.85c-1.675,1.735-4.066,3.507-5.242,5.125a7.053,7.053,0,0,0-.647,7.262c1.179,2.116,3.243,2.619,7.27,2.732" fill="none" stroke="currentColor" stroke-miterlimit="10" vector-effect="non-scaling-stroke" data-cap="butt" stroke-linecap="butt" stroke-linejoin="miter"></path> <path d="M16,12c.535,1.617,1.319,4.649.664,7.237a4.772,4.772,0,0,1-9.328,0C6.681,16.649,7.465,13.617,8,12" fill="none" stroke="currentColor" stroke-linecap="square" stroke-miterlimit="10" vector-effect="non-scaling-stroke" data-color="color-2" stroke-linejoin="miter"></path></g></svg>