<svg id="nc_icon" version="1.1" xmlns="http://www.w3.org/2000/svg" xmlns:xlink="http://www.w3.org/1999/xlink" x="0px" y="0px" viewBox="0 0 24 24" xml:space="preserve" ><g transform="translate(0, 0)" class="nc-icon-wrapper" fill="none"><polyline data-cap="butt" fill="none" stroke="currentColor" vector-effect="non-scaling-stroke" stroke-miterlimit="10" points="21,9 21,17 18,17 " stroke-linejoin="miter" stroke-linecap="butt"></polyline> <line data-cap="butt" fill="none" stroke="currentColor" vector-effect="non-scaling-stroke" stroke-miterlimit="10" x1="5" y1="14" x2="5" y2="9" stroke-linejoin="miter" stroke-linecap="butt"></line> <path data-color="color-2" fill="none" stroke="currentColor" vector-effect="non-scaling-stroke" stroke-linecap="square" stroke-miterlimit="10" d="M7,3 c0-1.1,0.9000001-2,2-2c3,0,4,4,4,4s-2.8999996,0-4,0S7,4.0999999,7,3z" stroke-linejoin="miter"></path> <path data-color="color-2" fill="none" stroke="currentColor" vector-effect="non-scaling-stroke" stroke-linecap="square" stroke-miterlimit="10" d="M19,3 c0-1.1-0.8999996-2-2-2c-3,0-4,4-4,4s2.8999996,0,4,0S19,4.0999999,19,3z" stroke-linejoin="miter"></path> <rect x="3" y="5" fill="none" stroke="currentColor" vector-effect="non-scaling-stroke" stroke-linecap="square" stroke-miterlimit="10" width="20" height="4" stroke-linejoin="miter"></rect> <path data-cap="butt" fill="none" stroke="currentColor" vector-effect="non-scaling-stroke" stroke-miterlimit="10" d="M14.1000004,17H19c2.3999996,0,3,2,3,2 l-10.6000004,3.7999992C10.5999994,23,9.6999998,23,8.8999996,22.6999989L1,19.40625V14h4c1.5999999,0,3.1000004,0.6999998,4,2h3 c1.5,0,3,1.5,3,3H8" stroke-linejoin="miter" stroke-linecap="butt"></path></g></svg>