<svg id="nc_icon" version="1.1" xmlns="http://www.w3.org/2000/svg" xmlns:xlink="http://www.w3.org/1999/xlink" x="0px" y="0px" viewBox="0 0 24 24" xml:space="preserve" ><g transform="translate(0, 0)" class="nc-icon-wrapper" fill="none"><path fill="none" stroke="currentColor" vector-effect="non-scaling-stroke" stroke-linecap="square" stroke-miterlimit="10" d="M18.945,13 C18.981,13.328,19,13.662,19,14c0,4.971-4.029,9-9,9s-9-4.029-9-9s4.029-9,9-9c0.338,0,0.672,0.019,1,0.055" stroke-linejoin="miter"></path> <circle fill="none" stroke="currentColor" vector-effect="non-scaling-stroke" stroke-linecap="square" stroke-miterlimit="10" cx="10" cy="14" r="5" stroke-linejoin="miter"></circle> <line data-cap="butt" data-color="color-2" fill="none" stroke="currentColor" vector-effect="non-scaling-stroke" stroke-miterlimit="10" x1="19" y1="5" x2="22" y2="2" stroke-linejoin="miter" stroke-linecap="butt"></line> <line data-cap="butt" data-color="color-2" fill="none" stroke="currentColor" vector-effect="non-scaling-stroke" stroke-miterlimit="10" x1="10" y1="14" x2="16" y2="8" stroke-linejoin="miter" stroke-linecap="butt"></line> <polygon fill="none" stroke="currentColor" vector-effect="non-scaling-stroke" stroke-linecap="square" stroke-miterlimit="10" points="19,5 18,2 15,5 16,8 19,9 22,6 " stroke-linejoin="miter"></polygon> <polygon data-color="color-2" fill="none" stroke="currentColor" vector-effect="non-scaling-stroke" stroke-linecap="square" stroke-miterlimit="10" points="19,5 18,2 15,5 16,8 19,9 22,6 " stroke-linejoin="miter"></polygon></g></svg>