<svg id="nc_icon" version="1.1" xmlns="http://www.w3.org/2000/svg" xmlns:xlink="http://www.w3.org/1999/xlink" x="0px" y="0px" viewBox="0 0 24 24" xml:space="preserve" ><g transform="translate(0, 0)" class="nc-icon-wrapper" fill="none"><path fill="none" stroke="currentColor" vector-effect="non-scaling-stroke" stroke-linecap="square" stroke-miterlimit="10" d="M11.95,17.707 c0.781-0.781,2.047-0.781,2.828,0L15.485,17c2.343-2.343,2.343-6.142,0-8.485S9.343,6.172,7,8.515L6.293,9.222 c0.781,0.781,0.781,2.047,0,2.828c-0.781,0.781-2.047,0.781-2.828,0l-0.707,0.707c-2.343,2.343-2.343,6.142,0,8.485 s6.142,2.343,8.485,0l0.707-0.707C11.169,19.754,11.169,18.488,11.95,17.707z" stroke-linejoin="miter"></path> <rect data-color="color-2" x="17.728" y="2.272" transform="matrix(0.7071 0.7071 -0.7071 0.7071 8.799 -12.6985)" fill="none" stroke="currentColor" vector-effect="non-scaling-stroke" stroke-linecap="square" stroke-miterlimit="10" width="4" height="4" stroke-linejoin="miter"></rect> <line data-cap="butt" data-color="color-2" fill="none" stroke="currentColor" vector-effect="non-scaling-stroke" stroke-miterlimit="10" x1="18.314" y1="5.686" x2="12.657" y2="11.343" stroke-linejoin="miter" stroke-linecap="butt"></line> <ellipse data-color="color-2" transform="matrix(0.7071 -0.7071 0.7071 0.7071 -5.0208 11.9792)" fill="none" stroke="currentColor" vector-effect="non-scaling-stroke" stroke-linecap="square" stroke-miterlimit="10" cx="11.95" cy="12.05" rx="1" ry="1" stroke-linejoin="miter"></ellipse> <ellipse data-color="color-2" data-stroke="none" transform="matrix(0.7071 -0.7071 0.7071 0.7071 -5.0208 11.9792)" fill="none" cx="11.95" cy="12.05" rx="1" ry="1" stroke-linejoin="miter" stroke-linecap="square"></ellipse> <line data-color="color-2" fill="none" stroke="currentColor" vector-effect="non-scaling-stroke" stroke-linecap="square" stroke-miterlimit="10" x1="5.586" y1="17" x2="7" y2="18.414" stroke-linejoin="miter"></line></g></svg>