<svg id="nc_icon" version="1.1" xmlns="http://www.w3.org/2000/svg" xmlns:xlink="http://www.w3.org/1999/xlink" x="0px" y="0px" viewBox="0 0 24 24" xml:space="preserve" ><g transform="translate(0, 0)" class="nc-icon-wrapper" fill="none"><path data-cap="butt" fill="none" stroke="currentColor" vector-effect="non-scaling-stroke" stroke-miterlimit="10" d="M2.546,12.94l-0.259-0.35 C0.315,9.704,0.609,5.733,3.171,3.171C5.333,1.01,8.735,0.236,12,1.923" stroke-linejoin="miter" stroke-linecap="butt"></path> <path data-cap="butt" fill="none" stroke="currentColor" vector-effect="non-scaling-stroke" stroke-miterlimit="10" d="M18,7c-2,2-6,0-6,0l-1,1 C9.343,9.657,6.657,9.657,5,8l0,0l5.345-4.829c2.949-2.949,7.763-2.894,10.642,0.164c2.783,2.955,2.492,7.67-0.379,10.54 l-0.271,0.272" stroke-linejoin="miter" stroke-linecap="butt"></path> <path fill="none" stroke="currentColor" vector-effect="non-scaling-stroke" stroke-linecap="square" stroke-miterlimit="10" d="M7.682,21.218l-4.95-4.95 c-0.976-0.976-0.976-2.559,0-3.536l0,0c0.976-0.976,2.559-0.976,3.536,0l4.95,4.95c0.976,0.976,0.976,2.559,0,3.536l0,0 C10.241,22.194,8.658,22.194,7.682,21.218z" stroke-linejoin="miter"></path> <path data-cap="butt" fill="none" stroke="currentColor" vector-effect="non-scaling-stroke" stroke-miterlimit="10" d="M14.234,7.749l5.473,5.473 c1.172,1.172,1.172,3.071,0,4.243l-4.243,4.243c-1.172,1.172-3.071,1.172-4.243,0l-0.269-0.259" stroke-linejoin="miter" stroke-linecap="butt"></path></g></svg>