<svg id="nc_icon" version="1.1" xmlns="http://www.w3.org/2000/svg" xmlns:xlink="http://www.w3.org/1999/xlink" x="0px" y="0px" viewBox="0 0 24 24" xml:space="preserve" ><g transform="translate(0, 0)" class="nc-icon-wrapper" fill="none"><path data-cap="butt" data-color="color-2" fill="none" stroke="currentColor" vector-effect="non-scaling-stroke" stroke-miterlimit="10" d="M2,14.3V9c0-4.4,3.6-8,8-8h4 c4.4,0,8,3.6,8,8v5.3" stroke-linejoin="miter" stroke-linecap="butt"></path> <line data-cap="butt" fill="none" stroke="currentColor" vector-effect="non-scaling-stroke" stroke-miterlimit="10" x1="5" y1="12.2" x2="5" y2="22.8" stroke-linejoin="miter" stroke-linecap="butt"></line> <line data-cap="butt" fill="none" stroke="currentColor" vector-effect="non-scaling-stroke" stroke-miterlimit="10" x1="19" y1="12.2" x2="19" y2="22.8" stroke-linejoin="miter" stroke-linecap="butt"></line> <path fill="none" stroke="currentColor" vector-effect="non-scaling-stroke" stroke-linecap="square" stroke-miterlimit="10" d="M8,12.2 C7.5,12.1,7,12,6.5,12c-3,0-5.5,2.5-5.5,5.5c0,3,2.5,5.5,5.5,5.5c0.5,0,1-0.1,1.5-0.2V12.2z" stroke-linejoin="miter"></path> <path fill="none" stroke="currentColor" vector-effect="non-scaling-stroke" stroke-linecap="square" stroke-miterlimit="10" d="M16,22.8 c0.5,0.1,1,0.2,1.5,0.2c3,0,5.5-2.5,5.5-5.5c0-3-2.5-5.5-5.5-5.5c-0.5,0-1,0.1-1.5,0.2V22.8z" stroke-linejoin="miter"></path></g></svg>