<svg id="nc_icon" version="1.1" xmlns="http://www.w3.org/2000/svg" xmlns:xlink="http://www.w3.org/1999/xlink" x="0px" y="0px" viewBox="0 0 24 24" xml:space="preserve" ><g transform="translate(0, 0)" class="nc-icon-wrapper" fill="none"><path fill="none" stroke="currentColor" vector-effect="non-scaling-stroke" stroke-linecap="square" stroke-miterlimit="10" d="M20.4737759,16.6889591 l-7.1384516,1.6650448L4.6841245,2.9738297C4.156816,2.036377,2.9693511,1.7039534,2.0319607,2.2313731L2.0319574,2.231375 C1.0932847,2.7595162,0.7615991,3.9493217,1.2916666,4.8869081l9.3878269,16.6052399 C10.8569126,21.8059654,11.1895075,22,11.5500059,22H22c0.5522842,0,1-0.4477158,1-1v-2.3815308 C23,17.2997284,21.746048,16.3419704,20.4737759,16.6889591z" stroke-linejoin="miter"></path> <path data-cap="butt" data-color="color-2" fill="none" stroke="currentColor" vector-effect="non-scaling-stroke" stroke-miterlimit="10" d="M14,8.5v1.8125 c0,0.8284302,1.5670166,1.5,3.5,1.5s3.5-0.6715698,3.5-1.5V8.5" stroke-linejoin="miter" stroke-linecap="butt"></path> <ellipse data-color="color-2" fill="none" stroke="currentColor" vector-effect="non-scaling-stroke" stroke-linecap="square" stroke-miterlimit="10" cx="17.5" cy="8.5" rx="3.5" ry="1.5" stroke-linejoin="miter"></ellipse></g></svg>