<svg id="nc_icon" xmlns="http://www.w3.org/2000/svg" xmlns:xlink="http://www.w3.org/1999/xlink" x="0px" y="0px" viewBox="0 0 24 24" ><g transform="translate(0, 0)" class="nc-icon-wrapper" fill="none"><rect x="11.757" y="1.243" width="4" height="12" rx="2" ry="2" transform="translate(-1.092 11.849) rotate(-45)" fill="none" stroke="currentColor" stroke-linecap="square" stroke-miterlimit="10" vector-effect="non-scaling-stroke" stroke-linejoin="miter"></rect> <line x1="9.515" y1="11.485" x2="1" y2="20" fill="none" stroke="currentColor" stroke-miterlimit="10" vector-effect="non-scaling-stroke" data-cap="butt" stroke-linecap="butt" stroke-linejoin="miter"></line> <path d="M17,20c0-2,3-6,3-6s3,4,3,6a3,3,0,0,1-6,0Z" fill="none" stroke="currentColor" stroke-linecap="square" stroke-miterlimit="10" vector-effect="non-scaling-stroke" data-color="color-2" stroke-linejoin="miter"></path> <path d="M13.757,10.071a2,2,0,0,1,0,2.828h0a2,2,0,0,1-2.828,0L8.1,10.071a2,2,0,0,1,0-2.828h0a2,2,0,0,1,2.828,0" fill="none" stroke="currentColor" stroke-linecap="square" stroke-miterlimit="10" vector-effect="non-scaling-stroke" stroke-linejoin="miter"></path> <path d="M13.757,4.414a2,2,0,0,1,0-2.828h0a2,2,0,0,1,2.829,0l2.828,2.828a2,2,0,0,1,0,2.829h0a2,2,0,0,1-2.828,0" fill="none" stroke="currentColor" stroke-linecap="square" stroke-miterlimit="10" vector-effect="non-scaling-stroke" stroke-linejoin="miter"></path></g></svg>