<svg id="nc_icon" version="1.1" xmlns="http://www.w3.org/2000/svg" xmlns:xlink="http://www.w3.org/1999/xlink" x="0px" y="0px" viewBox="0 0 24 24" xml:space="preserve" ><g transform="translate(0, 0)" class="nc-icon-wrapper" fill="none"><path data-cap="butt" data-color="color-2" fill="none" stroke="currentColor" vector-effect="non-scaling-stroke" stroke-miterlimit="10" d="M16.9,2.8L16.9,2.8 c-1.6-1.6-4.1-1.6-5.7,0l-8.5,8.5c-1.6,1.6-1.6,4.1,0,5.7" stroke-linejoin="miter" stroke-linecap="butt"></path> <path data-cap="butt" data-color="color-2" fill="none" stroke="currentColor" vector-effect="non-scaling-stroke" stroke-miterlimit="10" d="M21.2,7.1L21.2,7.1 c1.6,1.6,1.6,4.1,0,5.7l-8.5,8.5c-1.6,1.6-4.1,1.6-5.7,0l0,0" stroke-linejoin="miter" stroke-linecap="butt"></path> <path fill="none" stroke="currentColor" vector-effect="non-scaling-stroke" stroke-linecap="square" stroke-miterlimit="10" d="M21.2,7.1L7.1,21.2 c-1.2,1.2-3.1,1.2-4.2,0l0,0c-1.2-1.2-1.2-3.1,0-4.2L16.9,2.8c1.2-1.2,3.1-1.2,4.2,0l0,0C22.4,4,22.4,5.9,21.2,7.1z" stroke-linejoin="miter"></path></g></svg>