<svg id="nc_icon" version="1.1" xmlns="http://www.w3.org/2000/svg" xmlns:xlink="http://www.w3.org/1999/xlink" x="0px" y="0px" viewBox="0 0 24 24" xml:space="preserve" ><g transform="translate(0, 0)" class="nc-icon-wrapper" fill="none"><path data-cap="butt" data-color="color-2" fill="none" stroke="currentColor" vector-effect="non-scaling-stroke" stroke-miterlimit="10" d="M17,11l-4.1,11.3 c-0.3,0.9-1.6,0.9-1.9,0L7,11" stroke-linejoin="miter" stroke-linecap="butt"></path> <path fill="none" stroke="currentColor" vector-effect="non-scaling-stroke" stroke-linecap="square" stroke-miterlimit="10" d="M17.5,6 C17.5,6,17.5,6,17.5,6c-0.3-2.8-2.6-5-5.5-5S6.8,3.2,6.5,6c0,0,0,0,0,0C5.1,6,4,7.1,4,8.5C4,9.9,5.1,11,6.5,11c0.6,0,4,0,5.5,0 s4.9,0,5.5,0c1.4,0,2.5-1.1,2.5-2.5C20,7.1,18.9,6,17.5,6z" stroke-linejoin="miter"></path></g></svg>