<svg id="nc_icon" version="1.1" xmlns="http://www.w3.org/2000/svg" xmlns:xlink="http://www.w3.org/1999/xlink" x="0px" y="0px" viewBox="0 0 24 24" xml:space="preserve" ><g transform="translate(0, 0)" class="nc-icon-wrapper" fill="none"><path fill="none" stroke="currentColor" vector-effect="non-scaling-stroke" stroke-linecap="square" stroke-miterlimit="10" d="M7,9H6C3.8,9,2,7.2,2,5v0 c0-2.2,1.8-4,4-4h10c1.1,0,2,0.9,2,2v0c0,1.1-0.9,2-2,2" stroke-linejoin="miter"></path> <path fill="none" stroke="currentColor" vector-effect="non-scaling-stroke" stroke-linecap="square" stroke-miterlimit="10" d="M7,5h12c2.2,0,4,1.8,4,4v0 c0,2.2-1.8,4-4,4H7" stroke-linejoin="miter"></path> <path fill="none" stroke="currentColor" vector-effect="non-scaling-stroke" stroke-linecap="square" stroke-miterlimit="10" d="M17,9H5c-2.2,0-4,1.8-4,4v0 c0,2.2,1.8,4,4,4h5v6" stroke-linejoin="miter"></path> <path fill="none" stroke="currentColor" vector-effect="non-scaling-stroke" stroke-linecap="square" stroke-miterlimit="10" d="M9,13h2c1.7,0,3,1.3,3,3v7" stroke-linejoin="miter"></path></g></svg>