<svg id="nc_icon" version="1.1" xmlns="http://www.w3.org/2000/svg" xmlns:xlink="http://www.w3.org/1999/xlink" x="0px" y="0px" viewBox="0 0 24 24" xml:space="preserve" ><g transform="translate(0, 0)" class="nc-icon-wrapper" fill="none"><path data-color="color-2" fill="none" stroke="currentColor" vector-effect="non-scaling-stroke" stroke-linecap="square" stroke-miterlimit="10" d="M10,11v10 c0,1.1-0.9,2-2,2l0,0c-1.1,0-2-0.9-2-2l0,0" stroke-linejoin="miter"></path> <path data-color="color-2" fill="none" stroke="currentColor" vector-effect="non-scaling-stroke" stroke-linecap="square" stroke-miterlimit="10" d="M6,11v5 c0,1.1-0.9,2-2,2l0,0c-1.1,0-2-0.9-2-2l0,0" stroke-linejoin="miter"></path> <path data-color="color-2" fill="none" stroke="currentColor" vector-effect="non-scaling-stroke" stroke-linecap="square" stroke-miterlimit="10" d="M18,11v5 c0,1.1,0.9,2,2,2l0,0c1.1,0,2-0.9,2-2l0,0" stroke-linejoin="miter"></path> <path data-color="color-2" fill="none" stroke="currentColor" vector-effect="non-scaling-stroke" stroke-linecap="square" stroke-miterlimit="10" d="M14,11v10 c0,1.1,0.9,2,2,2l0,0c1.1,0,2-0.9,2-2l0,0" stroke-linejoin="miter"></path> <path fill="none" stroke="currentColor" vector-effect="non-scaling-stroke" stroke-linecap="square" stroke-miterlimit="10" d="M2,11C2,5.5,6.5,1,12,1 c5.5,0,10,4.5,10,10H2z" stroke-linejoin="miter"></path></g></svg>