<svg id="nc_icon" xmlns="http://www.w3.org/2000/svg" xmlns:xlink="http://www.w3.org/1999/xlink" x="0px" y="0px" viewBox="0 0 24 24" ><g transform="translate(0, 0)" class="nc-icon-wrapper" fill="none"><path d="M14.326,9h2.206a4,4,0,0,1,3.96,3.435L22,23H2L3.51,12.434A4,4,0,0,1,7.47,9h2.2" fill="none" stroke="currentColor" stroke-miterlimit="10" vector-effect="non-scaling-stroke" data-cap="butt" stroke-linecap="butt" stroke-linejoin="miter"></path> <path d="M16,0h0V2a4,4,0,0,1-4,4h0V4A4,4,0,0,1,16,0Z" fill="none" data-cap="butt" data-color="color-2" data-stroke="none" stroke-linecap="butt" stroke-linejoin="miter"></path> <path d="M8,23l.8-12.007A3.208,3.208,0,0,1,12,8h0a3.208,3.208,0,0,1,3.2,2.993L16,23" fill="none" stroke="currentColor" stroke-miterlimit="10" vector-effect="non-scaling-stroke" data-cap="butt" stroke-linecap="butt" stroke-linejoin="miter"></path></g></svg>