<svg id="nc_icon" xmlns="http://www.w3.org/2000/svg" xmlns:xlink="http://www.w3.org/1999/xlink" x="0px" y="0px" viewBox="0 0 24 24" ><g transform="translate(0, 0)" class="nc-icon-wrapper" fill="none"><path fill="none" stroke="currentColor" vector-effect="non-scaling-stroke" stroke-linecap="square" stroke-miterlimit="10" d="M8,7V5c0-2.2,1.8-4,4-4h0 c2.2,0,4,1.8,4,4v2" stroke-linejoin="miter"></path> <path fill="none" stroke="currentColor" vector-effect="non-scaling-stroke" stroke-linecap="square" stroke-miterlimit="10" d="M16,7L16,7L8,7v0 c0,2.2-1.8,4-4,4H2v12h20V11h-2C17.8,11,16,9.2,16,7z" stroke-linejoin="miter"></path> <path data-color="color-2" fill="none" stroke="currentColor" vector-effect="non-scaling-stroke" stroke-linecap="square" stroke-miterlimit="10" d="M12,19L12,19 c-1.7,0-3-1.3-3-3v-2h6v2C15,17.7,13.7,19,12,19z" stroke-linejoin="miter"></path></g></svg>