<svg id="nc_icon" version="1.1" xmlns="http://www.w3.org/2000/svg" xmlns:xlink="http://www.w3.org/1999/xlink" x="0px" y="0px" viewBox="0 0 24 24" xml:space="preserve" ><g transform="translate(0, 0)" class="nc-icon-wrapper" fill="none"><path data-color="color-2" fill="none" stroke="currentColor" vector-effect="non-scaling-stroke" stroke-linecap="square" stroke-miterlimit="10" d="M2.34,9 C2.122,9.454,2,9.962,2,10.5C2,12.433,3.567,14,5.5,14c0.538,0,1.046-0.122,1.5-0.34" stroke-linejoin="miter"></path> <polyline data-cap="butt" fill="none" stroke="currentColor" vector-effect="non-scaling-stroke" stroke-miterlimit="10" points="12,23 21,13 12.657,3.344 " stroke-linejoin="miter" stroke-linecap="butt"></polyline> <line fill="none" stroke="currentColor" vector-effect="non-scaling-stroke" stroke-linecap="square" stroke-miterlimit="10" x1="6" y1="23" x2="20" y2="23" stroke-linejoin="miter"></line> <line data-cap="butt" fill="none" stroke="currentColor" vector-effect="non-scaling-stroke" stroke-miterlimit="10" x1="12.657" y1="3.344" x2="15" y2="1" stroke-linejoin="miter" stroke-linecap="butt"></line> <path fill="none" stroke="currentColor" vector-effect="non-scaling-stroke" stroke-linecap="square" stroke-miterlimit="10" d="M7,1 C4.807,1,2.821,1.884,1.376,3.313l11.311,11.311C14.116,13.179,15,11.193,15,9C15,4.582,11.418,1,7,1z" stroke-linejoin="miter"></path></g></svg>