<svg id="nc_icon" version="1.1" xmlns="http://www.w3.org/2000/svg" xmlns:xlink="http://www.w3.org/1999/xlink" x="0px" y="0px" viewBox="0 0 24 24" xml:space="preserve" ><g transform="translate(0, 0)" class="nc-icon-wrapper" fill="none"><path data-color="color-2" fill="none" stroke="currentColor" vector-effect="non-scaling-stroke" stroke-linecap="square" stroke-miterlimit="10" d=" M16.564,19.627c0,0-1.793,2.771-4.717,3.283C9.6,23.303,7,20.42,7,20.42s1.752-1.958,3.999-2.351 C13.637,17.607,16.564,19.627,16.564,19.627z" stroke-linejoin="miter"></path> <path data-color="color-2" fill="none" stroke="currentColor" vector-effect="non-scaling-stroke" stroke-linecap="square" stroke-miterlimit="10" d=" M1.669,13.845c0,0,2.036-1.694,4.398-1.388c1.815,0.235,3.118,3.065,3.118,3.065s-1.81,1.081-3.625,0.846 C3.428,16.092,1.669,13.845,1.669,13.845z" stroke-linejoin="miter"></path> <path data-color="color-2" fill="none" stroke="currentColor" vector-effect="non-scaling-stroke" stroke-linecap="square" stroke-miterlimit="10" d=" M11.754,10.228c0,0-1.943-2.114-1.738-4.688C10.173,3.562,13.167,2,13.167,2s1.268,1.902,1.11,3.88 C14.093,8.203,11.754,10.228,11.754,10.228z" stroke-linejoin="miter"></path> <path data-color="color-2" fill="none" stroke="currentColor" vector-effect="non-scaling-stroke" stroke-linecap="square" stroke-miterlimit="10" d="M16.643,11 c0,0-1.33,3.001-0.165,5.713c0.895,2.084,4.71,2.678,4.71,2.678s0.676-2.524-0.219-4.608C19.917,12.336,16.643,11,16.643,11z" stroke-linejoin="miter"></path> <path fill="none" stroke="currentColor" vector-effect="non-scaling-stroke" stroke-linecap="square" stroke-miterlimit="10" d="M23,20 C13.611,20,6,12.389,6,3" stroke-linejoin="miter"></path></g></svg>