<svg id="nc_icon" version="1.1" xmlns="http://www.w3.org/2000/svg" xmlns:xlink="http://www.w3.org/1999/xlink" x="0px" y="0px" viewBox="0 0 24 24" xml:space="preserve" ><g transform="translate(0, 0)" class="nc-icon-wrapper" fill="none"><path data-color="color-2" fill="none" stroke="currentColor" vector-effect="non-scaling-stroke" stroke-linecap="square" stroke-miterlimit="10" d=" M21.645,9.999C22.476,10.732,23,11.805,23,13v4c0,2.209-1.791,4-4,4h-9c-2.209,0-4-1.791-4-4v-4c0-2.209,1.791-4,4-4h4" stroke-linejoin="miter"></path> <path fill="none" stroke="currentColor" vector-effect="non-scaling-stroke" stroke-linecap="square" stroke-miterlimit="10" d="M2.355,14.001 C1.524,13.268,1,12.195,1,11V7c0-2.209,1.791-4,4-4h9c2.209,0,4,1.791,4,4v4c0,2.209-1.791,4-4,4h-4" stroke-linejoin="miter"></path></g></svg>