<svg id="nc_icon" version="1.1" xmlns="http://www.w3.org/2000/svg" xmlns:xlink="http://www.w3.org/1999/xlink" x="0px" y="0px" viewBox="0 0 24 24" xml:space="preserve" ><g transform="translate(0, 0)" class="nc-icon-wrapper" fill="none"><path data-color="color-2" fill="none" stroke="currentColor" vector-effect="non-scaling-stroke" stroke-linecap="square" stroke-miterlimit="10" d="M13.4,10.6 L13.4,10.6c2,2,2,5.1,0,7.1l-2.8,2.8c-2,2-5.1,2-7.1,0l0,0c-2-2-2-5.1,0-7.1L6,11" stroke-linejoin="miter"></path> <path fill="none" stroke="currentColor" vector-effect="non-scaling-stroke" stroke-linecap="square" stroke-miterlimit="10" d="M10.6,13.4L10.6,13.4 c-2-2-2-5.1,0-7.1l2.8-2.8c2-2,5.1-2,7.1,0l0,0c2,2,2,5.1,0,7.1L18,13" stroke-linejoin="miter"></path></g></svg>