<svg id="nc_icon" version="1.1" xmlns="http://www.w3.org/2000/svg" xmlns:xlink="http://www.w3.org/1999/xlink" x="0px" y="0px" viewBox="0 0 24 24" xml:space="preserve" ><g transform="translate(0, 0)" class="nc-icon-wrapper" fill="none"><line data-cap="butt" data-color="color-2" fill="none" stroke="currentColor" vector-effect="non-scaling-stroke" stroke-miterlimit="10" x1="19" y1="18" x2="19" y2="6" stroke-linejoin="miter" stroke-linecap="butt"></line> <path fill="none" stroke="currentColor" vector-effect="non-scaling-stroke" stroke-linecap="square" stroke-miterlimit="10" d="M7,7L7,7 C5.343,7,4,5.657,4,4v0c0-1.657,1.343-3,3-3h0c1.657,0,3,1.343,3,3v0C10,5.657,8.657,7,7,7z" stroke-linejoin="miter"></path> <path fill="none" stroke="currentColor" vector-effect="non-scaling-stroke" stroke-linecap="square" stroke-miterlimit="10" d="M10,23H4v-5H2v-6 c0-1.105,0.895-2,2-2h6c1.105,0,2,0.895,2,2v6h-2V23z" stroke-linejoin="miter"></path> <polyline data-color="color-2" fill="none" stroke="currentColor" vector-effect="non-scaling-stroke" stroke-linecap="square" stroke-miterlimit="10" points=" 16,9 19,6 22,9 " stroke-linejoin="miter"></polyline></g></svg>