<svg id="nc_icon" xmlns="http://www.w3.org/2000/svg" xmlns:xlink="http://www.w3.org/1999/xlink" x="0px" y="0px" viewBox="0 0 24 24" ><g transform="translate(0, 0)" class="nc-icon-wrapper" fill="none"><polyline data-cap="butt" fill="none" stroke="currentColor" vector-effect="non-scaling-stroke" stroke-miterlimit="10" points="5,7.1000004 1,10 1,22 23,22 23,10 19,7.1000004 " stroke-linejoin="miter" stroke-linecap="butt"></polyline> <line data-cap="butt" fill="none" stroke="currentColor" vector-effect="non-scaling-stroke" stroke-miterlimit="10" x1="1" y1="10" x2="23" y2="22" stroke-linejoin="miter" stroke-linecap="butt"></line> <line data-cap="butt" fill="none" stroke="currentColor" vector-effect="non-scaling-stroke" stroke-miterlimit="10" x1="23" y1="10" x2="12" y2="16" stroke-linejoin="miter" stroke-linecap="butt"></line> <path data-color="color-2" fill="none" stroke="currentColor" vector-effect="non-scaling-stroke" stroke-linecap="square" stroke-miterlimit="10" d=" M13.8461533,2C13.0769224,2,12.3846149,2.3846154,12,3c-0.3846159-0.6153846-1.0769234-1-1.8461542-1C8.9230766,2,8,3,8,4.2307687 c0,2.1538463,4,5.4615388,4,5.4615388s4-3.3076925,4-5.4615388C16,3,15.0769224,2,13.8461533,2z" stroke-linejoin="miter"></path></g></svg>