<svg id="nc_icon" version="1.1" xmlns="http://www.w3.org/2000/svg" xmlns:xlink="http://www.w3.org/1999/xlink" x="0px" y="0px" viewBox="0 0 24 24" xml:space="preserve" ><g transform="translate(0, 0)" class="nc-icon-wrapper" fill="none"><path data-cap="butt" data-color="color-2" fill="none" stroke="currentColor" vector-effect="non-scaling-stroke" stroke-miterlimit="10" d="M12.992,9.737L15.2,11.4 c0.504,0.378,0.8,0.97,0.8,1.6v1H8v-1c0-0.63,0.296-1.222,0.8-1.6l2.208-1.663" stroke-linejoin="miter" stroke-linecap="butt"></path> <circle data-color="color-2" data-stroke="none" fill="none" cx="12" cy="19" r="1" stroke-linejoin="miter" stroke-linecap="square"></circle> <path data-color="color-2" fill="none" stroke="currentColor" vector-effect="non-scaling-stroke" stroke-linecap="square" stroke-miterlimit="10" d="M12,10 L12,10c-1.105,0-2-0.895-2-2V7c0-1.105,0.895-2,2-2h0c1.105,0,2,0.895,2,2v1C14,9.105,13.105,10,12,10z" stroke-linejoin="miter"></path> <path fill="none" stroke="currentColor" vector-effect="non-scaling-stroke" stroke-linecap="square" stroke-miterlimit="10" d="M18,23H6 c-1.105,0-2-0.895-2-2V3c0-1.105,0.895-2,2-2h12c1.105,0,2,0.895,2,2v18C20,22.105,19.105,23,18,23z" stroke-linejoin="miter"></path></g></svg>