<svg id="nc_icon" version="1.1" xmlns="http://www.w3.org/2000/svg" xmlns:xlink="http://www.w3.org/1999/xlink" x="0px" y="0px" viewBox="0 0 24 24" xml:space="preserve" ><g transform="translate(0, 0)" class="nc-icon-wrapper" fill="none"><path data-cap="butt" data-color="color-2" fill="none" stroke="currentColor" vector-effect="non-scaling-stroke" stroke-miterlimit="10" d="M22,10.3c0.6-1,1-2.1,1-3.3 c-3.3,0-6-2.7-6-6c-3,0-5.4,2.2-5.9,5" stroke-linejoin="miter" stroke-linecap="butt"></path> <polyline data-color="color-2" fill="none" stroke="currentColor" vector-effect="non-scaling-stroke" stroke-linecap="square" stroke-miterlimit="10" points=" 13,12 10,17 14,17 11,22 " stroke-linejoin="miter"></polyline> <path fill="none" stroke="currentColor" vector-effect="non-scaling-stroke" stroke-linecap="square" stroke-miterlimit="10" d="M6,17H5c-2.2,0-4-1.8-4-4 c0-2.2,1.8-4,4-4c0.5,0,1,0.1,1.5,0.3C7.3,7.4,9.3,6,11.5,6c2.4,0,4.5,1.6,5.2,3.7C17.4,9.3,18.1,9,19,9c2.2,0,4,1.8,4,4 c0,2.2-1.8,4-4,4h-1" stroke-linejoin="miter"></path></g></svg>