<svg id="nc_icon" version="1.1" xmlns="http://www.w3.org/2000/svg" xmlns:xlink="http://www.w3.org/1999/xlink" x="0px" y="0px" viewBox="0 0 24 24" xml:space="preserve" ><g transform="translate(0, 0)" class="nc-icon-wrapper" fill="none"><polyline display="none" fill="none" stroke="currentColor" vector-effect="non-scaling-stroke" stroke-miterlimit="10" points="19,7 18,3 15,3 " stroke-linejoin="miter" stroke-linecap="square"></polyline> <line data-cap="butt" fill="none" stroke="currentColor" vector-effect="non-scaling-stroke" stroke-miterlimit="10" x1="15" y1="16" x2="9" y2="16" stroke-linejoin="miter" stroke-linecap="butt"></line> <path data-cap="butt" fill="none" stroke="currentColor" vector-effect="non-scaling-stroke" stroke-miterlimit="10" d="M20.6,12.3c1-1,2.4-2.9,2.4-5.3 c0-3.7-4-5-4-5l-1,1c0.9,0.5,2,1.7,2,2.5c0,0.7-0.5,1.3-1.1,1.5l-1.8-0.6c-2.5-0.8-5.1,0-6.7,2.1L10,9H7L5,7L1,6v2l4.2,4" stroke-linejoin="miter" stroke-linecap="butt"></path> <line data-cap="butt" fill="none" stroke="currentColor" vector-effect="non-scaling-stroke" stroke-miterlimit="10" x1="18.9" y1="7" x2="17" y2="9" stroke-linejoin="miter" stroke-linecap="butt"></line> <circle data-color="color-2" fill="none" stroke="currentColor" vector-effect="non-scaling-stroke" stroke-linecap="square" stroke-miterlimit="10" cx="19" cy="16" r="4" stroke-linejoin="miter"></circle> <circle data-color="color-2" fill="none" stroke="currentColor" vector-effect="non-scaling-stroke" stroke-linecap="square" stroke-miterlimit="10" cx="5" cy="16" r="4" stroke-linejoin="miter"></circle></g></svg>