<svg id="nc_icon" version="1.1" xmlns="http://www.w3.org/2000/svg" xmlns:xlink="http://www.w3.org/1999/xlink" x="0px" y="0px" viewBox="0 0 24 24" xml:space="preserve" ><g transform="translate(0, 0)" class="nc-icon-wrapper" fill="none"><polyline data-cap="butt" data-color="color-2" fill="none" stroke="currentColor" vector-effect="non-scaling-stroke" stroke-miterlimit="10" points="3.1,11.5 6,23 18,23 20.9,11.5 " stroke-linejoin="miter" stroke-linecap="butt"></polyline> <line data-cap="butt" data-color="color-2" fill="none" stroke="currentColor" vector-effect="non-scaling-stroke" stroke-miterlimit="10" x1="10" y1="23" x2="9" y2="17" stroke-linejoin="miter" stroke-linecap="butt"></line> <line data-cap="butt" data-color="color-2" fill="none" stroke="currentColor" vector-effect="non-scaling-stroke" stroke-miterlimit="10" x1="14" y1="23" x2="15" y2="17" stroke-linejoin="miter" stroke-linecap="butt"></line> <path fill="none" stroke="currentColor" vector-effect="non-scaling-stroke" stroke-linecap="square" stroke-miterlimit="10" d="M19,4 c-0.6,0-1.1,0.1-1.6,0.4c-1-2-3-3.4-5.4-3.4S7.6,2.4,6.6,4.4C6.1,4.1,5.6,4,5,4C2.8,4,1,5.8,1,8c0,2.2,1.8,4,4,4c1,0,1.9-0.4,2.6-1 c1.1,1.2,2.7,2,4.4,2s3.3-0.8,4.4-2c0.7,0.6,1.6,1,2.6,1c2.2,0,4-1.8,4-4C23,5.8,21.2,4,19,4z" stroke-linejoin="miter"></path></g></svg>