<svg id="nc_icon" version="1.1" xmlns="http://www.w3.org/2000/svg" xmlns:xlink="http://www.w3.org/1999/xlink" x="0px" y="0px" viewBox="0 0 24 24" xml:space="preserve" ><g transform="translate(0, 0)" class="nc-icon-wrapper" fill="none"><path fill="none" stroke="currentColor" vector-effect="non-scaling-stroke" stroke-linecap="square" stroke-miterlimit="10" d="M15,23H1v-4.313 c0-1.213,0.725-2.307,1.846-2.772C3.981,15.445,5.67,15,8,15s4.019,0.445,5.154,0.916C14.275,16.38,15,17.474,15,18.687V23z" stroke-linejoin="miter"></path> <circle fill="none" stroke="currentColor" vector-effect="non-scaling-stroke" stroke-linecap="square" stroke-miterlimit="10" cx="8" cy="8" r="4" stroke-linejoin="miter"></circle> <path data-color="color-2" fill="none" stroke="currentColor" vector-effect="non-scaling-stroke" stroke-linecap="square" stroke-miterlimit="10" d="M23,11.836 c0-0.604-0.265-1.179-0.738-1.554C21.539,9.708,20.285,9,18.5,9s-3.039,0.708-3.762,1.282C14.265,10.657,14,11.232,14,11.836V13h9 V11.836z" stroke-linejoin="miter"></path> <circle data-color="color-2" fill="none" stroke="currentColor" vector-effect="non-scaling-stroke" stroke-linecap="square" stroke-miterlimit="10" cx="18.5" cy="3.5" r="2.5" stroke-linejoin="miter"></circle></g></svg>