<svg id="nc_icon" version="1.1" xmlns="http://www.w3.org/2000/svg" xmlns:xlink="http://www.w3.org/1999/xlink" x="0px" y="0px" viewBox="0 0 24 24" xml:space="preserve" ><g transform="translate(0, 0)" class="nc-icon-wrapper" fill="none"><path data-cap="butt" fill="none" stroke="currentColor" vector-effect="non-scaling-stroke" stroke-miterlimit="10" d="M16.609,4H20c1.657,0,3,1.343,3,3v13 c0,1.657-1.343,3-3,3H4c-1.657,0-3-1.343-3-3V7c0-1.657,1.343-3,3-3h3.391" stroke-linejoin="miter" stroke-linecap="butt"></path> <polyline data-cap="butt" fill="none" stroke="currentColor" vector-effect="non-scaling-stroke" stroke-miterlimit="10" points="19,10 19,19 5,19 5,10 " stroke-linejoin="miter" stroke-linecap="butt"></polyline> <path data-color="color-2" fill="none" stroke="currentColor" vector-effect="non-scaling-stroke" stroke-linecap="square" stroke-miterlimit="10" d="M17,6 c0,3.086-5,8.125-5,8.125S7,9.086,7,6c0-3.164,2.584-5,5-5S17,2.836,17,6z" stroke-linejoin="miter"></path> <circle data-color="color-2" data-stroke="none" fill="none" cx="12" cy="6" r="1" stroke-linejoin="miter" stroke-linecap="square"></circle></g></svg>