<svg id="nc_icon" version="1.1" xmlns="http://www.w3.org/2000/svg" xmlns:xlink="http://www.w3.org/1999/xlink" x="0px" y="0px" viewBox="0 0 24 24" xml:space="preserve" ><g transform="translate(0, 0)" class="nc-icon-wrapper" fill="none"><path fill="none" stroke="currentColor" vector-effect="non-scaling-stroke" stroke-linecap="square" stroke-miterlimit="10" d="M6.98,20.366 C7.458,19.569,2.917,12,1.961,12c0.956,0,5.498-7.569,5.02-8.366c0.478,0.797,9.561,0.797,10.039,0 C16.542,4.431,21.083,12,22.039,12c-0.956,0-5.498,7.569-5.02,8.366C16.542,19.569,7.458,19.569,6.98,20.366z" stroke-linejoin="miter"></path> <path fill="none" stroke="currentColor" vector-effect="non-scaling-stroke" stroke-linecap="square" stroke-miterlimit="10" d="M9.594,16.017 C9.823,15.635,7.457,12,6.978,12c0.478,0,2.845-3.635,2.615-4.017c0.229,0.383,4.583,0.383,4.812,0 C14.177,8.365,16.543,12,17.022,12c-0.478,0-2.845,3.635-2.615,4.017C14.177,15.635,9.823,15.635,9.594,16.017z" stroke-linejoin="miter"></path> <line fill="none" stroke="currentColor" vector-effect="non-scaling-stroke" stroke-linecap="square" stroke-miterlimit="10" x1="16.988" y1="12" x2="23" y2="12" stroke-linejoin="miter"></line> <line fill="none" stroke="currentColor" vector-effect="non-scaling-stroke" stroke-linecap="square" stroke-miterlimit="10" x1="1" y1="12" x2="7.012" y2="12" stroke-linejoin="miter"></line> <line fill="none" stroke="currentColor" vector-effect="non-scaling-stroke" stroke-linecap="square" stroke-miterlimit="10" x1="14.406" y1="16.017" x2="17.69" y2="21.414" stroke-linejoin="miter"></line> <line fill="none" stroke="currentColor" vector-effect="non-scaling-stroke" stroke-linecap="square" stroke-miterlimit="10" x1="6.31" y1="2.586" x2="9.594" y2="7.983" stroke-linejoin="miter"></line> <line fill="none" stroke="currentColor" vector-effect="non-scaling-stroke" stroke-linecap="square" stroke-miterlimit="10" x1="9.594" y1="16.017" x2="6.31" y2="21.414" stroke-linejoin="miter"></line> <line fill="none" stroke="currentColor" vector-effect="non-scaling-stroke" stroke-linecap="square" stroke-miterlimit="10" x1="17.69" y1="2.586" x2="14.402" y2="7.991" stroke-linejoin="miter"></line> <circle data-color="color-2" data-stroke="none" fill="none" cx="12" cy="12" r="1" stroke-linejoin="miter" stroke-linecap="square"></circle></g></svg>