<svg id="nc_icon" version="1.1" xmlns="http://www.w3.org/2000/svg" xmlns:xlink="http://www.w3.org/1999/xlink" x="0px" y="0px" viewBox="0 0 24 24" xml:space="preserve" ><g transform="translate(0, 0)" class="nc-icon-wrapper" fill="none"><path data-cap="butt" fill="none" stroke="currentColor" vector-effect="non-scaling-stroke" stroke-miterlimit="10" d="M9.455,18.086l-3.243,1.394 C5.477,19.796,5,20.519,5,21.319V23h14v-1.681c0-0.8-0.477-1.523-1.212-1.838l-3.251-1.388" stroke-linejoin="miter" stroke-linecap="butt"></path> <circle data-color="color-2" fill="none" stroke="currentColor" vector-effect="non-scaling-stroke" stroke-linecap="square" stroke-miterlimit="10" cx="12" cy="3" r="2" stroke-linejoin="miter"></circle> <circle data-color="color-2" fill="none" stroke="currentColor" vector-effect="non-scaling-stroke" stroke-linecap="square" stroke-miterlimit="10" cx="21" cy="8" r="2" stroke-linejoin="miter"></circle> <circle data-color="color-2" fill="none" stroke="currentColor" vector-effect="non-scaling-stroke" stroke-linecap="square" stroke-miterlimit="10" cx="3" cy="8" r="2" stroke-linejoin="miter"></circle> <path fill="none" stroke="currentColor" vector-effect="non-scaling-stroke" stroke-linecap="square" stroke-miterlimit="10" d="M12,19L12,19 c-2.209,0-4-1.791-4-4v-1c0-2.209,1.791-4,4-4h0c2.209,0,4,1.791,4,4v1C16,17.209,14.209,19,12,19z" stroke-linejoin="miter"></path></g></svg>