<svg id="nc_icon" version="1.1" xmlns="http://www.w3.org/2000/svg" xmlns:xlink="http://www.w3.org/1999/xlink" x="0px" y="0px" viewBox="0 0 24 24" xml:space="preserve" ><g transform="translate(0, 0)" class="nc-icon-wrapper" fill="none"><path fill="none" stroke="currentColor" vector-effect="non-scaling-stroke" stroke-linecap="square" stroke-miterlimit="10" d="M11.2,14.8 C7.6,11.1,7,5.5,9.6,1.3c-2,0.4-3.9,1.4-5.4,3c-4.3,4.3-4.3,11.3,0,15.6c4.3,4.3,11.3,4.3,15.6,0c0.6-0.6,1.2-1.3,1.6-2 C17.8,18.5,14,17.5,11.2,14.8z" stroke-linejoin="miter"></path> <path data-color="color-2" fill="none" stroke="currentColor" vector-effect="non-scaling-stroke" stroke-linecap="square" stroke-miterlimit="10" d="M22,10 c-1.4-1.4-4.6-1.4-6,0c1.4-1.4,1.4-4.6,0-6c1.4,1.4,4.6,1.4,6,0C20.6,5.4,20.6,8.6,22,10z" stroke-linejoin="miter"></path></g></svg>