<svg id="nc_icon" version="1.1" xmlns="http://www.w3.org/2000/svg" xmlns:xlink="http://www.w3.org/1999/xlink" x="0px" y="0px" viewBox="0 0 24 24" xml:space="preserve" ><g transform="translate(0, 0)" class="nc-icon-wrapper" fill="none"><path data-cap="butt" data-color="color-2" fill="none" stroke="currentColor" vector-effect="non-scaling-stroke" stroke-miterlimit="10" d="M9.35,13.001l3.665,6.25 c0.559,0.953,0.239,2.178-0.714,2.737l0,0c-0.953,0.559-2.178,0.239-2.737-0.714L4.71,12.997" stroke-linejoin="miter" stroke-linecap="butt"></path> <path data-cap="butt" fill="none" stroke="currentColor" vector-effect="non-scaling-stroke" stroke-miterlimit="10" d="M19,1c-2.959,0-5.537,1.611-6.921,4H4 C2.895,5,1,6.791,1,9c0,2.209,1.895,4,3,4h8.079c1.384,2.389,3.962,4,6.921,4" stroke-linejoin="miter" stroke-linecap="butt"></path> <path data-cap="butt" fill="none" stroke="currentColor" vector-effect="non-scaling-stroke" stroke-miterlimit="10" d="M15.528,5.025 C17.502,5.27,19,6.96,19,9c0,2.039-1.502,3.719-3.475,3.966" stroke-linejoin="miter" stroke-linecap="butt"></path> <ellipse fill="none" stroke="currentColor" vector-effect="non-scaling-stroke" stroke-linecap="square" stroke-miterlimit="10" cx="19" cy="9" rx="4" ry="8" stroke-linejoin="miter"></ellipse></g></svg>