<svg id="nc_icon" xmlns="http://www.w3.org/2000/svg" xmlns:xlink="http://www.w3.org/1999/xlink" x="0px" y="0px" viewBox="0 0 24 24" ><g transform="translate(0, 0)" class="nc-icon-wrapper" fill="none"><path d="M9,18.8A6.455,6.455,0,0,1,7,14,6.455,6.455,0,0,1,9,9.2" fill="none" stroke="currentColor" stroke-linecap="square" stroke-miterlimit="10" vector-effect="non-scaling-stroke" data-color="color-2" stroke-linejoin="miter"></path> <path d="M15,18.8A6.455,6.455,0,0,0,17,14a6.455,6.455,0,0,0-2-4.8" fill="none" stroke="currentColor" stroke-linecap="square" stroke-miterlimit="10" vector-effect="non-scaling-stroke" data-color="color-2" stroke-linejoin="miter"></path> <path d="M14,2.256V1H10V2.256A3.949,3.949,0,0,1,7.658,5.891,8.979,8.979,0,0,0,2,14c0,4.971,4.477,9,10,9s10-4.029,10-9a8.978,8.978,0,0,0-5.658-8.109A3.95,3.95,0,0,1,14,2.256Z" fill="none" stroke="currentColor" stroke-linecap="square" stroke-miterlimit="10" vector-effect="non-scaling-stroke" stroke-linejoin="miter"></path></g></svg>