<svg id="nc_icon" xmlns="http://www.w3.org/2000/svg" xmlns:xlink="http://www.w3.org/1999/xlink" x="0px" y="0px" viewBox="0 0 24 24" ><g transform="translate(0, 0)" class="nc-icon-wrapper" fill="none"><path d="M18.255,5a21.414,21.414,0,0,1,2.36-1.59S24.049,9.591,22.676,14.4c-.852,2.981-2.667,4.438-4.676,4.589" fill="none" stroke="currentColor" stroke-linecap="square" stroke-miterlimit="10" vector-effect="non-scaling-stroke" data-color="color-2" stroke-linejoin="miter"></path> <path d="M5.745,5a21.414,21.414,0,0,0-2.36-1.59S-.049,9.591,1.324,14.4C2.176,17.379,3.991,18.836,6,18.987" fill="none" stroke="currentColor" stroke-linecap="square" stroke-miterlimit="10" vector-effect="non-scaling-stroke" data-color="color-2" stroke-linejoin="miter"></path> <line x1="12" y1="23" x2="12" y2="13" fill="none" stroke="currentColor" stroke-linecap="square" stroke-miterlimit="10" vector-effect="non-scaling-stroke" stroke-linejoin="miter"></line> <path d="M7,12C7,7,12,2,12,2s5,5,5,10c0,4-2.239,6-5,6S7,16,7,12Z" fill="none" stroke="currentColor" stroke-linecap="square" stroke-miterlimit="10" vector-effect="non-scaling-stroke" stroke-linejoin="miter"></path></g></svg>