<svg id="nc_icon" xmlns="http://www.w3.org/2000/svg" xmlns:xlink="http://www.w3.org/1999/xlink" x="0px" y="0px" viewBox="0 0 24 24" ><g transform="translate(0, 0)" class="nc-icon-wrapper" fill="none"> <path d="M11,12.988c.329.008.663.012,1,.012,6.075,0,11-1.343,11-3V6" fill="none" stroke="currentColor" stroke-miterlimit="10" vector-effect="non-scaling-stroke" data-cap="butt" stroke-linecap="butt" stroke-linejoin="miter"></path> <path d="M1,6v4c0,1.166,2.438,2.176,6,2.673" fill="none" stroke="currentColor" stroke-miterlimit="10" vector-effect="non-scaling-stroke" data-cap="butt" stroke-linecap="butt" stroke-linejoin="miter"></path> <path d="M10.743,16.981c.412.012.832.019,1.257.019,6.075,0,11-1.343,11-3V10" fill="none" stroke="currentColor" stroke-miterlimit="10" vector-effect="non-scaling-stroke" data-cap="butt" stroke-linecap="butt" stroke-linejoin="miter"></path> <path d="M1,10v4c0,1.179,2.494,2.2,6.123,2.69" fill="none" stroke="currentColor" stroke-miterlimit="10" vector-effect="non-scaling-stroke" data-cap="butt" stroke-linecap="butt" stroke-linejoin="miter"></path> <path d="M1,14v4c0,1.657,4.925,3,11,3s11-1.343,11-3V14" fill="none" stroke="currentColor" stroke-miterlimit="10" vector-effect="non-scaling-stroke" data-cap="butt" stroke-linecap="butt" stroke-linejoin="miter"></path> <path d="M12,3C5.925,3,1,4.343,1,6,1,7.165,3.441,8.173,7,8.67V16a2,2,0,0,0,4,0V8.986c.33.008.662.014,1,.014,6.075,0,11-1.343,11-3S18.075,3,12,3Z" fill="none" stroke="currentColor" stroke-miterlimit="10" vector-effect="non-scaling-stroke" data-cap="butt" data-color="color-2" stroke-linecap="butt" stroke-linejoin="miter"></path> </g></svg>