<svg id="nc_icon" xmlns="http://www.w3.org/2000/svg" xmlns:xlink="http://www.w3.org/1999/xlink" x="0px" y="0px" viewBox="0 0 24 24" ><g transform="translate(0, 0)" class="nc-icon-wrapper" fill="none"><path d="M15.707,10.007l2.744-6.85a1.838,1.838,0,0,1,2.393-1.019,1.419,1.419,0,0,1,.138.062h0A1.839,1.839,0,0,1,21.8,4.669c-.022.045-.046.088-.072.131l-3.425,5.65" fill="none" stroke="currentColor" stroke-miterlimit="10" vector-effect="non-scaling-stroke" data-cap="butt" stroke-linecap="butt" stroke-linejoin="miter"></path> <line x1="1" y1="17" x2="23" y2="17" fill="none" stroke="currentColor" stroke-linecap="square" stroke-miterlimit="10" vector-effect="non-scaling-stroke" stroke-linejoin="miter"></line> <path d="M22,17l-.491,1.228A6,6,0,0,1,15.938,22H8.062a6,6,0,0,1-5.571-3.772L2,17" fill="none" stroke="currentColor" stroke-miterlimit="10" vector-effect="non-scaling-stroke" data-cap="butt" stroke-linecap="butt" stroke-linejoin="miter"></path> <path d="M12,6V8h0A3,3,0,0,1,9,5V3H9A3,3,0,0,1,12,6Z" fill="none" data-cap="butt" data-stroke="none" stroke-linecap="butt" stroke-linejoin="miter"></path> <path d="M3,14c0-2.209,2.239-4,5-4a5.487,5.487,0,0,1,4,1.6" fill="none" stroke="currentColor" stroke-miterlimit="10" vector-effect="non-scaling-stroke" data-cap="butt" data-color="color-2" stroke-linecap="butt" stroke-linejoin="miter"></path> <path d="M11,14c0-2.209,2.239-4,5-4s5,1.791,5,4" fill="none" stroke="currentColor" stroke-miterlimit="10" vector-effect="non-scaling-stroke" data-cap="butt" data-color="color-2" stroke-linecap="butt" stroke-linejoin="miter"></path></g></svg>