<svg id="nc_icon" version="1.1" xmlns="http://www.w3.org/2000/svg" xmlns:xlink="http://www.w3.org/1999/xlink" x="0px" y="0px" viewBox="0 0 24 24" xml:space="preserve" ><g transform="translate(0, 0)" class="nc-icon-wrapper" fill="none"><path data-color="color-2" fill="none" stroke="currentColor" vector-effect="non-scaling-stroke" stroke-linecap="square" stroke-miterlimit="10" d=" M9.33001,6.84241L9.33001,6.84241c1.05877-0.31477,1.6619-1.42825,1.34713-2.48702L10.1072,2.43832 c-0.31477-1.05877-1.42825-1.6619-2.48701-1.34712l0,0c-1.05877,0.31477-1.6619,1.42825-1.34712,2.48701L6.843,5.49529 C7.15777,6.55405,8.27125,7.15718,9.33001,6.84241z" stroke-linejoin="miter"></path> <path data-color="color-2" fill="none" stroke="currentColor" vector-effect="non-scaling-stroke" stroke-linecap="square" stroke-miterlimit="10" d=" M14.66999,6.84241L14.66999,6.84241c-1.05877-0.31477-1.6619-1.42825-1.34713-2.48702l0.56995-1.91707 c0.31477-1.05877,1.42825-1.6619,2.48701-1.34712l0,0c1.05877,0.31477,1.6619,1.42825,1.34712,2.48701L17.157,5.49529 C16.84223,6.55405,15.72875,7.15718,14.66999,6.84241z" stroke-linejoin="miter"></path> <path data-color="color-2" fill="none" stroke="currentColor" vector-effect="non-scaling-stroke" stroke-linecap="square" stroke-miterlimit="10" d=" M4.72031,10.23897L4.72031,10.23897C5.5601,9.52144,5.65922,8.259,4.9417,7.41922L4.5206,6.92637 c-0.71752-0.83978-1.97996-0.9389-2.81975-0.22138l0,0c-0.83978,0.71752-0.9389,1.97996-0.22138,2.81975l0.4211,0.49285 C2.61809,10.85737,3.88053,10.95649,4.72031,10.23897z" stroke-linejoin="miter"></path> <path data-color="color-2" fill="none" stroke="currentColor" vector-effect="non-scaling-stroke" stroke-linecap="square" stroke-miterlimit="10" d=" M19.27969,10.23897L19.27969,10.23897C18.4399,9.52144,18.34078,8.259,19.0583,7.41922l0.42109-0.49285 c0.71752-0.83978,1.97996-0.9389,2.81975-0.22138l0,0c0.83978,0.71752,0.9389,1.97996,0.22138,2.81975l-0.42109,0.49285 C21.38191,10.85737,20.11947,10.95649,19.27969,10.23897z" stroke-linejoin="miter"></path> <path fill="none" stroke="currentColor" vector-effect="non-scaling-stroke" stroke-linecap="square" stroke-miterlimit="10" d="M7.09797,13.49555 L4.83168,17.236c-1.88979,3.11905,1.34559,6.79342,4.83967,5.49635l0.19643-0.07292c1.37247-0.50948,2.89195-0.50948,4.26442,0 l0.19643,0.07292c3.49409,1.29707,6.72946-2.37731,4.83968-5.49635l-2.26629-3.74045 C14.54322,10.16815,9.45678,10.16815,7.09797,13.49555z" stroke-linejoin="miter"></path></g></svg>