<svg id="nc_icon" xmlns="http://www.w3.org/2000/svg" xmlns:xlink="http://www.w3.org/1999/xlink" x="0px" y="0px" viewBox="0 0 24 24" ><g transform="translate(0, 0)" class="nc-icon-wrapper" fill="none"><path d="M12.082,10.587a11.862,11.862,0,0,1,.794-1.339C15.7,5.121,19.87,4.339,21.52,5.469s2.433,5.3-.391,9.425c-2.592,3.789-6.32,4.759-8.19,4.018" fill="none" stroke="currentColor" stroke-miterlimit="10" vector-effect="non-scaling-stroke" data-cap="butt" data-color="color-2" stroke-linecap="butt" stroke-linejoin="miter"></path> <line x1="21.52" y1="5.469" x2="12.999" y2="17.922" fill="none" stroke="currentColor" stroke-miterlimit="10" vector-effect="non-scaling-stroke" data-cap="butt" data-color="color-2" stroke-linecap="butt" stroke-linejoin="miter"></line> <circle cx="8" cy="15" r="1" fill="none" data-cap="butt" data-stroke="none" stroke-linecap="butt" stroke-linejoin="miter"></circle> <circle cx="6" cy="18" r="1" fill="none" data-cap="butt" data-stroke="none" stroke-linecap="butt" stroke-linejoin="miter"></circle> <circle cx="10" cy="18" r="1" fill="none" data-cap="butt" data-stroke="none" stroke-linecap="butt" stroke-linejoin="miter"></circle> <path d="M13,6A4.681,4.681,0,0,0,8,1,4.681,4.681,0,0,0,3,6c0,2,1,3,1,6s-1,4-1,6a4.681,4.681,0,0,0,5,5,4.681,4.681,0,0,0,5-5c0-2-1-3-1-6S13,8,13,6Z" fill="none" stroke="currentColor" stroke-miterlimit="10" vector-effect="non-scaling-stroke" data-cap="butt" stroke-linecap="butt" stroke-linejoin="miter"></path></g></svg>