<svg id="nc_icon" xmlns="http://www.w3.org/2000/svg" xmlns:xlink="http://www.w3.org/1999/xlink" x="0px" y="0px" viewBox="0 0 24 24" ><g transform="translate(0, 0)" class="nc-icon-wrapper" fill="none"><path d="M12,5.461c0-2,.646-3.773,2.479-4.461" fill="none" stroke="currentColor" stroke-miterlimit="10" vector-effect="non-scaling-stroke" data-cap="butt" data-color="color-2" stroke-linecap="butt" stroke-linejoin="miter"></path> <path d="M20.868,5.937a5.168,5.168,0,0,0-5.847-1.608L12,5.461,8.979,4.329A5.164,5.164,0,0,0,2.063,9.966l1.686,8.788A3.847,3.847,0,0,0,9.11,21.666L12,20.383l2.89,1.283a3.847,3.847,0,0,0,5.361-2.912l1.686-8.788A5.161,5.161,0,0,0,20.868,5.937Z" fill="none" stroke="currentColor" stroke-linecap="square" stroke-miterlimit="10" vector-effect="non-scaling-stroke" stroke-linejoin="miter"></path></g></svg>