<svg id="nc_icon" xmlns="http://www.w3.org/2000/svg" xmlns:xlink="http://www.w3.org/1999/xlink" x="0px" y="0px" viewBox="0 0 24 24" ><g transform="translate(0, 0)" class="nc-icon-wrapper" fill="none"><path d="M20.08,3.67A7.76,7.76,0,0,0,22,1" fill="none" stroke="currentColor" stroke-miterlimit="10" vector-effect="non-scaling-stroke" data-cap="butt" stroke-linecap="butt" stroke-linejoin="miter"></path> <path d="M19.278,3.268a4.192,4.192,0,0,0-5.4,2.454,17.6,17.6,0,0,1-1.133,2.425,1.991,1.991,0,0,0-2.286,3.116,13.54,13.54,0,0,1-5.593,3.565A4.193,4.193,0,1,0,7.52,22.783,22.223,22.223,0,0,0,11.33,21.1a2,2,0,1,0,3.294-2.258A24,24,0,0,0,21.732,8.666,4.193,4.193,0,0,0,19.278,3.268Z" fill="none" stroke="currentColor" stroke-linecap="square" stroke-miterlimit="10" vector-effect="non-scaling-stroke" stroke-linejoin="miter"></path> <circle cx="7" cy="18" r="1" fill="none" data-cap="butt" data-color="color-2" data-stroke="none" stroke-linecap="butt" stroke-linejoin="miter"></circle> <circle cx="13" cy="15" r="1" fill="none" data-cap="butt" data-color="color-2" data-stroke="none" stroke-linecap="butt" stroke-linejoin="miter"></circle> <circle cx="17" cy="9" r="1" fill="none" data-cap="butt" data-color="color-2" data-stroke="none" stroke-linecap="butt" stroke-linejoin="miter"></circle></g></svg>