<svg id="nc_icon" version="1.1" xmlns="http://www.w3.org/2000/svg" xmlns:xlink="http://www.w3.org/1999/xlink" x="0px" y="0px" viewBox="0 0 24 24" xml:space="preserve" ><g transform="translate(0, 0)" class="nc-icon-wrapper" fill="none"><path fill="none" stroke="currentColor" vector-effect="non-scaling-stroke" stroke-linecap="square" stroke-miterlimit="10" d="M10,22c0,0-8-8.062-8-13 c0-5.062,4.134-8,8-8s8,2.938,8,8c0,0.321-0.034,0.656-0.097,1" stroke-linejoin="miter"></path> <path data-cap="butt" data-color="color-2" fill="none" stroke="currentColor" vector-effect="non-scaling-stroke" stroke-miterlimit="10" d="M14.126,17 c0.444-1.725,2.01-3,3.874-3c1.48,0,2.772,0.804,3.464,1.999" stroke-linejoin="miter" stroke-linecap="butt"></path> <polygon data-color="color-2" data-stroke="none" fill="none" points="23.22,13.649 22.792,18 18.522,17.061 " stroke-linejoin="miter" stroke-linecap="square"></polygon> <path data-cap="butt" data-color="color-2" fill="none" stroke="currentColor" vector-effect="non-scaling-stroke" stroke-miterlimit="10" d="M21.874,20 c-0.444,1.725-2.01,3-3.874,3c-1.48,0-2.772-0.804-3.464-1.999" stroke-linejoin="miter" stroke-linecap="butt"></path> <polygon data-color="color-2" data-stroke="none" fill="none" points="12.78,23.351 13.208,19 17.478,19.939 " stroke-linejoin="miter" stroke-linecap="square"></polygon> <circle fill="none" stroke="currentColor" vector-effect="non-scaling-stroke" stroke-linecap="square" stroke-miterlimit="10" cx="10" cy="9" r="3" stroke-linejoin="miter"></circle></g></svg>