<svg id="nc_icon" xmlns="http://www.w3.org/2000/svg" xmlns:xlink="http://www.w3.org/1999/xlink" x="0px" y="0px" viewBox="0 0 24 24" ><g transform="translate(0, 0)" class="nc-icon-wrapper" fill="none"><path d="M8.414,8.414A2.559,2.559,0,0,0,9.34,9h5.32a2.559,2.559,0,0,0,.926-.586,26.147,26.147,0,0,0,3.242-5.242A30.227,30.227,0,0,0,14,6.049C14,6.033,14,6.017,14,6c0-2-2-6-2-6s-2,4-2,6c0,.017.005.033.005.049A30.227,30.227,0,0,0,5.172,3.172,26.147,26.147,0,0,0,8.414,8.414Z" fill="none" data-cap="butt" data-color="color-2" data-stroke="none" stroke-linecap="butt" stroke-linejoin="miter"></path> <rect x="6" y="9" width="12" height="14" rx="4" ry="4" fill="none" stroke="currentColor" stroke-linecap="square" stroke-miterlimit="10" vector-effect="non-scaling-stroke" stroke-linejoin="miter"></rect></g></svg>