<svg id="nc_icon" version="1.1" xmlns="http://www.w3.org/2000/svg" xmlns:xlink="http://www.w3.org/1999/xlink" x="0px" y="0px" viewBox="0 0 24 24" xml:space="preserve" ><g transform="translate(0, 0)" class="nc-icon-wrapper" fill="none"><path fill="none" stroke="currentColor" vector-effect="non-scaling-stroke" stroke-linecap="square" stroke-miterlimit="10" d="M9,5c0,2.469-4,6-4,6 S1,7.469,1,5c0-2.531,2.067-4,4-4S9,2.469,9,5z" stroke-linejoin="miter"></path> <path fill="none" stroke="currentColor" vector-effect="non-scaling-stroke" stroke-linecap="square" stroke-miterlimit="10" d="M23,5c0,2.469-4,6-4,6 s-4-3.531-4-6c0-2.531,2.067-4,4-4S23,2.469,23,5z" stroke-linejoin="miter"></path> <circle data-stroke="none" fill="none" cx="5" cy="5" r="1" stroke-linejoin="miter" stroke-linecap="square"></circle> <circle data-stroke="none" fill="none" cx="19" cy="5" r="1" stroke-linejoin="miter" stroke-linecap="square"></circle> <path data-color="color-2" fill="none" stroke="currentColor" vector-effect="non-scaling-stroke" stroke-linecap="square" stroke-miterlimit="10" d="M16,16 c0,2.469-4,6-4,6s-4-3.531-4-6c0-2.531,2.067-4,4-4S16,13.469,16,16z" stroke-linejoin="miter"></path> <circle data-color="color-2" data-stroke="none" fill="none" cx="12" cy="16" r="1" stroke-linejoin="miter" stroke-linecap="square"></circle></g></svg>