<svg id="nc_icon" version="1.1" xmlns="http://www.w3.org/2000/svg" xmlns:xlink="http://www.w3.org/1999/xlink" x="0px" y="0px" viewBox="0 0 24 24" xml:space="preserve" ><g transform="translate(0, 0)" class="nc-icon-wrapper" fill="none"><path fill="none" stroke="currentColor" vector-effect="non-scaling-stroke" stroke-linecap="square" stroke-miterlimit="10" d="M19.945,8.831 c0.105,4.936-7.722,13.167-7.722,13.167S4.054,14.107,3.949,9.17c-0.107-5.061,3.963-8.086,7.828-8.168S19.838,3.769,19.945,8.831z" stroke-linejoin="miter"></path> <path data-color="color-2" data-stroke="none" fill="none" d="M9.078,4.434h2.666c1.215,0,2.097,0.173,2.646,0.519s0.823,0.896,0.823,1.649 c0,0.512-0.12,0.932-0.36,1.26s-0.56,0.525-0.958,0.592v0.059c0.543,0.121,0.935,0.348,1.175,0.68s0.36,0.773,0.36,1.324 c0,0.781-0.282,1.391-0.847,1.828S13.252,13,12.283,13H9.078V4.434z M10.895,7.826h1.055c0.492,0,0.849-0.076,1.069-0.229 s0.331-0.404,0.331-0.756c0-0.328-0.12-0.563-0.36-0.706s-0.62-0.214-1.14-0.214h-0.955V7.826z M10.895,9.268V11.5h1.184 c0.5,0,0.869-0.096,1.107-0.287s0.357-0.484,0.357-0.879c0-0.711-0.508-1.066-1.523-1.066H10.895z" stroke-linejoin="miter" stroke-linecap="square"></path></g></svg>