<svg id="nc_icon" version="1.1" xmlns="http://www.w3.org/2000/svg" xmlns:xlink="http://www.w3.org/1999/xlink" x="0px" y="0px" viewBox="0 0 24 24" xml:space="preserve" ><g transform="translate(0, 0)" class="nc-icon-wrapper" fill="none"><path fill="none" stroke="currentColor" vector-effect="non-scaling-stroke" stroke-linecap="square" stroke-miterlimit="10" d="M23,19c0-1.1-0.9-2-2-2H3 c-1.1,0-2,0.9-2,2v2c0,1.1,0.9,2,2,2h18c1.1,0,2-0.9,2-2V19z" stroke-linejoin="miter"></path> <path fill="none" stroke="currentColor" vector-effect="non-scaling-stroke" stroke-linecap="square" stroke-miterlimit="10" d="M21,17v-4c0-1.1-0.9-2-2-2 H5c-1.1,0-2,0.9-2,2v4" stroke-linejoin="miter"></path> <path fill="none" stroke="currentColor" vector-effect="non-scaling-stroke" stroke-linecap="square" stroke-miterlimit="10" d="M19,11V3l-3.5,3 c-0.5,0-0.8,0-1.2,0H7C5.9,6,5,6.9,5,8v3" stroke-linejoin="miter"></path></g></svg>