<svg id="nc_icon" xmlns="http://www.w3.org/2000/svg" xmlns:xlink="http://www.w3.org/1999/xlink" x="0px" y="0px" viewBox="0 0 24 24" ><g transform="translate(0, 0)" class="nc-icon-wrapper" fill="none"><path data-cap="butt" data-color="color-2" fill="none" stroke="currentColor" vector-effect="non-scaling-stroke" stroke-miterlimit="10" d="M7.516,13.656l-2.637,2.637 c-0.971-0.643-2.291-0.537-3.146,0.318c-0.976,0.976-0.976,2.559,0,3.536c0.4,0.4,0.902,0.627,1.422,0.699 c0.072,0.52,0.299,1.022,0.699,1.422c0.976,0.976,2.559,0.976,3.536,0c0.855-0.855,0.961-2.176,0.318-3.146l2.637-2.637" stroke-linecap="butt" stroke-linejoin="miter"></path> <path data-cap="butt" fill="none" stroke="currentColor" vector-effect="non-scaling-stroke" stroke-miterlimit="10" d="M22.668,9.009l-4.243,4.243 c-2.121,2.121-5.686,1.443-7.778,3.535c-0.707-0.707-3.536-3.536-3.536-3.536s0.884,0.884,0,0c2.092-2.092,1.414-5.657,3.535-7.778 l4.243-4.243" stroke-linecap="butt" stroke-linejoin="miter"></path> <path fill="none" stroke="currentColor" vector-effect="non-scaling-stroke" stroke-linecap="square" stroke-miterlimit="10" d="M17.722,6.891 c2.345,2.345,4.165,2.898,4.946,2.117c0.781-0.781,0.228-2.6-2.117-4.946s-4.88-3.614-5.661-2.832 C14.109,2.012,15.377,4.546,17.722,6.891z" stroke-linejoin="miter"></path></g></svg>