<svg id="nc_icon" version="1.1" xmlns="http://www.w3.org/2000/svg" xmlns:xlink="http://www.w3.org/1999/xlink" x="0px" y="0px" viewBox="0 0 24 24" xml:space="preserve" ><g transform="translate(0, 0)" class="nc-icon-wrapper" fill="none"><polygon data-color="color-2" fill="none" stroke="currentColor" vector-effect="non-scaling-stroke" stroke-linecap="square" stroke-miterlimit="10" points=" 6,17 7,15 9,17 " stroke-linejoin="miter"></polygon> <polygon data-color="color-2" fill="none" stroke="currentColor" vector-effect="non-scaling-stroke" stroke-linecap="square" stroke-miterlimit="10" points=" 18,17 17,15 15,17 " stroke-linejoin="miter"></polygon> <path data-cap="butt" fill="none" stroke="currentColor" vector-effect="non-scaling-stroke" stroke-miterlimit="10" d="M7,11c0-2.7614241,2.2385759-5,5-5 s5,2.2385759,5,5" stroke-linejoin="miter" stroke-linecap="butt"></path> <path data-cap="butt" fill="none" stroke="currentColor" vector-effect="non-scaling-stroke" stroke-miterlimit="10" d="M15.5640163,7.4934835 C20.375,7.0625,23,12.1885424,23,17c0,5.125-4.9248676,6-11,6S1,22.0625,1,17c0-4.8262892,2.1875-9.375,7.3724651-9.4409657" stroke-linejoin="miter" stroke-linecap="butt"></path> <path data-cap="butt" fill="none" stroke="currentColor" vector-effect="non-scaling-stroke" stroke-miterlimit="10" d="M11,6.1000619 C11,4.2250619,12.583333,2.3333333,14,2l2,2c0,0-1.5684214,1.0583777-1.9298124,2.4473629" stroke-linejoin="miter" stroke-linecap="butt"></path></g></svg>