<svg id="nc_icon" version="1.1" xmlns="http://www.w3.org/2000/svg" xmlns:xlink="http://www.w3.org/1999/xlink" x="0px" y="0px" viewBox="0 0 24 24" xml:space="preserve" ><g transform="translate(0, 0)" class="nc-icon-wrapper" fill="none"><path fill="none" stroke="currentColor" vector-effect="non-scaling-stroke" stroke-linecap="square" stroke-miterlimit="10" d="M20,11 c-0.353,0-0.686,0.072-1,0.184V5h-6.184C12.928,4.686,13,4.353,13,4c0-1.657-1.343-3-3-3S7,2.343,7,4c0,0.353,0.072,0.686,0.184,1H1 v6c1.657,0,3,1.343,3,3s-1.343,3-3,3v6h6c0-1.657,1.343-3,3-3s3,1.343,3,3h6v-6.184C19.314,16.928,19.647,17,20,17 c1.657,0,3-1.343,3-3S21.657,11,20,11z" transform="translate(0, 0)" stroke-linejoin="miter"></path></g></svg>