<svg id="nc_icon" version="1.1" xmlns="http://www.w3.org/2000/svg" xmlns:xlink="http://www.w3.org/1999/xlink" x="0px" y="0px" viewBox="0 0 24 24" xml:space="preserve" ><g transform="translate(0, 0)" class="nc-icon-wrapper" fill="none"><path fill="none" stroke="currentColor" vector-effect="non-scaling-stroke" stroke-linecap="square" stroke-miterlimit="10" d="M20,9c-0.4,0-0.7,0.1-1,0.2 V3h-4c0,1.7-1.3,3-3,3S9,4.7,9,3H5v6.2C4.7,9.1,4.4,9,4,9c-1.7,0-3,1.3-3,3s1.3,3,3,3c0.4,0,0.7-0.1,1-0.2V21h4c0-1.7,1.3-3,3-3 s3,1.3,3,3h4v-6.2c0.3,0.1,0.6,0.2,1,0.2c1.7,0,3-1.3,3-3S21.7,9,20,9z" transform="translate(0, 0)" stroke-linejoin="miter"></path></g></svg>