<svg id="nc_icon" version="1.1" xmlns="http://www.w3.org/2000/svg" xmlns:xlink="http://www.w3.org/1999/xlink" x="0px" y="0px" viewBox="0 0 24 24" xml:space="preserve" ><g transform="translate(0, 0)" class="nc-icon-wrapper" fill="none"><circle data-color="color-2" fill="none" stroke="currentColor" vector-effect="non-scaling-stroke" stroke-linecap="square" stroke-miterlimit="10" cx="9" cy="15" r="1" stroke-linejoin="miter"></circle> <path data-cap="butt" data-color="color-2" fill="none" stroke="currentColor" vector-effect="non-scaling-stroke" stroke-miterlimit="10" d="M12.6441259,8.8737965 C12.0037813,5.3765502,9.4360695,0.699892,7.8178382,1.0153806c-1.6517363,0.3220205-1.6335626,6.057044-0.6575809,9.2068672" stroke-linejoin="miter" stroke-linecap="butt"></path> <path fill="none" stroke="currentColor" vector-effect="non-scaling-stroke" stroke-linecap="square" stroke-miterlimit="10" d="M21.1182861,1.2096558 C19.3566895,0.2193604,15.548645,3.4790039,14,6c-0.531311,0.8649292-1.0593262,2.0014648-1.4622803,3.1748657 c-1.0784035-0.2420664-2.2415409-0.2588491-3.4667511,0.1158428c-3.0766444,0.9408951-5.0709662,3.9299889-5.0709672,7.1472893 L4.000001,18C4.0000005,20.7614231,6.2385759,23,9,23.0000019h1.7821426c3.4399385,0,6.5221252-2.393198,7.111805-5.782217 c0.2615623-1.5032597,0.0245838-2.9258366-0.5489769-4.1602898C18.3884277,12.1275635,19.350708,11.0075073,20,10 C21.4975586,7.6762695,22.96875,2.25,21.1182861,1.2096558z" stroke-linejoin="miter"></path></g></svg>