<svg id="nc_icon" version="1.1" xmlns="http://www.w3.org/2000/svg" xmlns:xlink="http://www.w3.org/1999/xlink" x="0px" y="0px" viewBox="0 0 24 24" xml:space="preserve" ><g transform="translate(0, 0)" class="nc-icon-wrapper" fill="none"><path data-cap="butt" data-color="color-2" fill="none" stroke="currentColor" vector-effect="non-scaling-stroke" stroke-miterlimit="10" d="M13.99236,14.24288 l4.00795,6.9764C16.22457,22.37482,14.14118,23,12,23c-2.14042,0-4.22296-0.62473-5.99814-1.77931l4.00582-6.97781" stroke-linejoin="miter" stroke-linecap="butt"></path> <path data-cap="butt" data-color="color-2" fill="none" stroke="currentColor" vector-effect="non-scaling-stroke" stroke-miterlimit="10" d="M12.94621,9.15312 l4.03776-6.95919C18.87257,3.154,20.45569,4.64568,21.52628,6.5c1.07021,1.85366,1.57044,3.96956,1.45814,6.0842l-8.04587,0.01977" stroke-linejoin="miter" stroke-linecap="butt"></path> <path data-cap="butt" data-color="color-2" fill="none" stroke="currentColor" vector-effect="non-scaling-stroke" stroke-miterlimit="10" d="M11.05379,9.15312L7.01603,2.19394 C5.12743,3.154,3.54431,4.64568,2.47372,6.5c-1.07021,1.85366-1.57044,3.96956-1.45814,6.0842l8.04587,0.01977" stroke-linejoin="miter" stroke-linecap="butt"></path> <circle fill="none" stroke="currentColor" vector-effect="non-scaling-stroke" stroke-linecap="square" stroke-miterlimit="10" cx="12" cy="12" r="3" stroke-linejoin="miter"></circle></g></svg>