<svg id="nc_icon" version="1.1" xmlns="http://www.w3.org/2000/svg" xmlns:xlink="http://www.w3.org/1999/xlink" x="0px" y="0px" viewBox="0 0 24 24" xml:space="preserve" ><g transform="translate(0, 0)" class="nc-icon-wrapper" fill="none"><path fill="none" stroke="currentColor" vector-effect="non-scaling-stroke" stroke-linecap="square" stroke-miterlimit="10" d="M21,17c0-1.1,0.9-2,2-2v-5 c-1.1,0-2-0.9-2-2c0-1.1,0.9-2,2-2V5c0-2.2-1.8-4-4-4H5C2.8,1,1,2.8,1,5v1c1.1,0,2,0.9,2,2c0,1.1-0.9,2-2,2v5c1.1,0,2,0.9,2,2 c0,1.1-0.9,2-2,2c0,2.2,1.8,4,4,4h14c2.2,0,4-1.8,4-4C21.9,19,21,18.1,21,17z" stroke-linejoin="miter"></path> <rect data-color="color-2" x="6" y="6" fill="none" stroke="currentColor" vector-effect="non-scaling-stroke" stroke-linecap="square" stroke-miterlimit="10" width="4" height="4" stroke-linejoin="miter"></rect> <rect data-color="color-2" x="14" y="6" fill="none" stroke="currentColor" vector-effect="non-scaling-stroke" stroke-linecap="square" stroke-miterlimit="10" width="4" height="4" stroke-linejoin="miter"></rect> <rect data-color="color-2" x="6" y="14" fill="none" stroke="currentColor" vector-effect="non-scaling-stroke" stroke-linecap="square" stroke-miterlimit="10" width="4" height="4" stroke-linejoin="miter"></rect> <rect data-color="color-2" x="14" y="14" fill="none" stroke="currentColor" vector-effect="non-scaling-stroke" stroke-linecap="square" stroke-miterlimit="10" width="4" height="4" stroke-linejoin="miter"></rect></g></svg>