<svg id="nc_icon" xmlns="http://www.w3.org/2000/svg" xmlns:xlink="http://www.w3.org/1999/xlink" x="0px" y="0px" viewBox="0 0 24 24" ><g transform="translate(0, 0)" class="nc-icon-wrapper" fill="none"><path d="M7.437,22h9.126A10.993,10.993,0,0,0,23,12H1A10.993,10.993,0,0,0,7.437,22Z" fill="none" stroke="currentColor" stroke-linecap="square" stroke-miterlimit="10" vector-effect="non-scaling-stroke" stroke-linejoin="miter"></path> <line x1="19" y1="7" x2="23" y2="1" fill="none" stroke="currentColor" stroke-miterlimit="10" vector-effect="non-scaling-stroke" data-cap="butt" data-color="color-2" stroke-linecap="butt" stroke-linejoin="miter"></line> <line x1="15.215" y1="7" x2="17" y2="2" fill="none" stroke="currentColor" stroke-miterlimit="10" vector-effect="non-scaling-stroke" data-cap="butt" data-color="color-2" stroke-linecap="butt" stroke-linejoin="miter"></line> <path d="M20.829,9a2.99,2.99,0,0,0-5.023-1.033A2.962,2.962,0,0,0,11.53,6.4a2.984,2.984,0,0,0-5.352.618C6.118,7.014,6.061,7,6,7A3,3,0,0,0,3.171,9" fill="none" stroke="currentColor" stroke-linecap="square" stroke-miterlimit="10" vector-effect="non-scaling-stroke" data-color="color-2" stroke-linejoin="miter"></path> <circle cx="4" cy="3" r="1" fill="none" data-cap="butt" data-stroke="none" stroke-linecap="butt" stroke-linejoin="miter"></circle> <circle cx="12" cy="2" r="1" fill="none" data-cap="butt" data-stroke="none" stroke-linecap="butt" stroke-linejoin="miter"></circle></g></svg>