<svg id="nc_icon" version="1.1" xmlns="http://www.w3.org/2000/svg" xmlns:xlink="http://www.w3.org/1999/xlink" x="0px" y="0px" viewBox="0 0 24 24" xml:space="preserve" ><g transform="translate(0, 0)" class="nc-icon-wrapper" fill="none"><path data-cap="butt" data-color="color-2" fill="none" stroke="currentColor" vector-effect="non-scaling-stroke" stroke-miterlimit="10" d="M4.04156,13.11682 C4.47942,8.5547,8.32311,5,13,5c1.0145,0,1.99158,0.16817,2.90141,0.47762" stroke-linejoin="miter" stroke-linecap="butt"></path> <path fill="none" stroke="currentColor" vector-effect="non-scaling-stroke" stroke-linecap="square" stroke-miterlimit="10" d="M19,4L19,4 C21.2,4,23,5.8,23,8V8c0,2.2-1.8,4-4,4H19c-2.2,0-4-1.8-4-4V8C15,5.8,16.8,4,19,4z" stroke-linejoin="miter"></path> <path fill="none" stroke="currentColor" vector-effect="non-scaling-stroke" stroke-linecap="square" stroke-miterlimit="10" d="M5,13L5,13 C7.2,13,9,14.8,9,17V17c0,2.2-1.8,4-4,4H5c-2.2,0-4-1.8-4-4V17C1,14.8,2.8,13,5,13z" stroke-linejoin="miter"></path></g></svg>