<svg id="nc_icon" xmlns="http://www.w3.org/2000/svg" xmlns:xlink="http://www.w3.org/1999/xlink" x="0px" y="0px" viewBox="0 0 24 24" ><g transform="translate(0, 0)" class="nc-icon-wrapper" fill="none"><path d="M7.663,22h8.674A9.99,9.99,0,0,0,22,13H2A9.99,9.99,0,0,0,7.663,22Z" fill="none" stroke="currentColor" stroke-linecap="square" stroke-miterlimit="10" vector-effect="non-scaling-stroke" stroke-linejoin="miter"></path> <path d="M3,2H3A5,5,0,0,1,8,7V9A0,0,0,0,1,8,9H8A5,5,0,0,1,3,4V2A0,0,0,0,1,3,2Z" transform="translate(11 11) rotate(180)" fill="none" stroke="currentColor" stroke-linecap="square" stroke-miterlimit="10" vector-effect="non-scaling-stroke" data-color="color-2" stroke-linejoin="miter"></path> <path d="M20,9a3,3,0,0,0-3-3,4,4,0,0,0-6.646-3" fill="none" stroke="currentColor" stroke-linecap="square" stroke-miterlimit="10" vector-effect="non-scaling-stroke" data-color="color-2" stroke-linejoin="miter"></path></g></svg>