<svg id="nc_icon" version="1.1" xmlns="http://www.w3.org/2000/svg" xmlns:xlink="http://www.w3.org/1999/xlink" x="0px" y="0px" viewBox="0 0 24 24" xml:space="preserve" ><g transform="translate(0, 0)" class="nc-icon-wrapper" fill="none"><path d="M9,1h6a1,1,0,0,1,1,1V5a0,0,0,0,1,0,0H8A0,0,0,0,1,8,5V2A1,1,0,0,1,9,1Z" fill="none" stroke="currentColor" stroke-linecap="square" stroke-miterlimit="10" vector-effect="non-scaling-stroke" data-color="color-2" stroke-linejoin="miter"></path>  <line x1="12" y1="5" x2="12" y2="9" fill="none" stroke="currentColor" stroke-miterlimit="10" vector-effect="non-scaling-stroke" data-cap="butt" data-color="color-2" stroke-linecap="butt" stroke-linejoin="miter"></line>  <path d="M22,23H2V21a2,2,0,0,1,2-2H20a2,2,0,0,1,2,2Z" fill="none" stroke="currentColor" stroke-linecap="square" stroke-miterlimit="10" vector-effect="non-scaling-stroke" stroke-linejoin="miter"></path>  <path d="M5,19l.82-8.2A2,2,0,0,1,7.81,9h8.38a2,2,0,0,1,1.99,1.8L19,19" fill="none" stroke="currentColor" stroke-miterlimit="10" vector-effect="non-scaling-stroke" data-cap="butt" stroke-linecap="butt" stroke-linejoin="miter"></path></g></svg>