<svg id="nc_icon" version="1.1" xmlns="http://www.w3.org/2000/svg" xmlns:xlink="http://www.w3.org/1999/xlink" x="0px" y="0px" viewBox="0 0 24 24" xml:space="preserve" ><g transform="translate(0, 0)" class="nc-icon-wrapper" fill="none"><polyline data-color="color-2" fill="none" stroke="currentColor" vector-effect="non-scaling-stroke" stroke-linecap="square" stroke-miterlimit="10" points=" 5,1 2,1 2,4 " stroke-linejoin="miter"></polyline> <polyline data-color="color-2" fill="none" stroke="currentColor" vector-effect="non-scaling-stroke" stroke-linecap="square" stroke-miterlimit="10" points=" 2,11 2,14 5,14 " stroke-linejoin="miter"></polyline> <polyline data-color="color-2" fill="none" stroke="currentColor" vector-effect="non-scaling-stroke" stroke-linecap="square" stroke-miterlimit="10" points=" 19,14 22,14 22,11 " stroke-linejoin="miter"></polyline> <polyline data-color="color-2" fill="none" stroke="currentColor" vector-effect="non-scaling-stroke" stroke-linecap="square" stroke-miterlimit="10" points=" 22,4 22,1 19,1 " stroke-linejoin="miter"></polyline> <path fill="none" stroke="currentColor" vector-effect="non-scaling-stroke" stroke-linecap="square" stroke-miterlimit="10" d="M12,13L12,13 c-2.761,0-5-2.239-5-5V7c0-2.761,2.239-5,5-5h0c2.761,0,5,2.239,5,5v1C17,10.761,14.761,13,12,13z" stroke-linejoin="miter"></path> <path fill="none" stroke="currentColor" vector-effect="non-scaling-stroke" stroke-linecap="square" stroke-miterlimit="10" d="M22,21.805 c0-1.805-1.205-3.379-2.945-3.86C17.316,17.464,14.89,17,12,17s-5.316,0.464-7.055,0.945C3.205,18.427,2,20,2,21.805V23h20V21.805z" stroke-linejoin="miter"></path></g></svg>