<svg id="nc_icon" version="1.1" xmlns="http://www.w3.org/2000/svg" xmlns:xlink="http://www.w3.org/1999/xlink" x="0px" y="0px" viewBox="0 0 24 24" xml:space="preserve" ><g transform="translate(0, 0)" class="nc-icon-wrapper" fill="none"><path fill="none" stroke="currentColor" vector-effect="non-scaling-stroke" stroke-linecap="square" stroke-miterlimit="10" d="M23,14v-4h-3.262 c-0.189-0.732-0.477-1.422-0.852-2.058l2.306-2.306l-2.828-2.828l-2.306,2.306C15.422,4.739,14.732,4.451,14,4.262V1h-4v3.262 C9.268,4.451,8.578,4.739,7.942,5.114L5.636,2.808L2.808,5.636l2.306,2.306C4.739,8.578,4.451,9.268,4.262,10H1v4h3.262 c0.189,0.732,0.477,1.422,0.852,2.058l-2.306,2.306l2.828,2.828l2.306-2.306c0.635,0.375,1.326,0.663,2.058,0.852V23h4v-3.262 c0.732-0.189,1.422-0.477,2.058-0.852l2.306,2.306l2.828-2.828l-2.306-2.306c0.375-0.635,0.663-1.326,0.852-2.058H23z" stroke-linejoin="miter"></path> <circle data-color="color-2" fill="none" stroke="currentColor" vector-effect="non-scaling-stroke" stroke-linecap="square" stroke-miterlimit="10" cx="12" cy="12" r="3" stroke-linejoin="miter"></circle></g></svg>