<svg id="nc_icon" version="1.1" xmlns="http://www.w3.org/2000/svg" xmlns:xlink="http://www.w3.org/1999/xlink" x="0px" y="0px" viewBox="0 0 24 24" xml:space="preserve" ><g transform="translate(0, 0)" class="nc-icon-wrapper" fill="none"><path data-cap="butt" data-color="color-2" fill="none" stroke="currentColor" vector-effect="non-scaling-stroke" stroke-miterlimit="10" d="M11.3,16.5l5.4,5.4 c1.4,1.4,3.6,1.4,5,0l0,0c1.4-1.4,1.4-3.6,0-5l-5-5" stroke-linejoin="miter" stroke-linecap="butt"></path> <line data-cap="butt" data-color="color-2" fill="none" stroke="currentColor" vector-effect="non-scaling-stroke" stroke-miterlimit="10" x1="9.8" y1="10.1" x2="6.5" y2="6.8" stroke-linejoin="miter" stroke-linecap="butt"></line> <polygon data-color="color-2" fill="none" stroke="currentColor" vector-effect="non-scaling-stroke" stroke-linecap="square" stroke-miterlimit="10" points=" 4.4,7.5 6.5,6.8 7.2,4.7 4.4,1.9 1.6,4.7 " stroke-linejoin="miter"></polygon> <path fill="none" stroke="currentColor" vector-effect="non-scaling-stroke" stroke-linecap="square" stroke-miterlimit="10" d="M22.4,4.8l-3,3l-3.5-3.5 l3-3C18.2,1,17.5,0.9,16.7,1c-2.8,0.2-5.1,2.7-5,5.6c0,0.6,0.1,1.1,0.3,1.6l-9.6,8.5c-1.4,1.3-1.5,3.5-0.2,4.8l0,0 c1.4,1.4,3.6,1.3,4.8-0.2l8.5-9.6c0.9,0.3,1.8,0.3,2.8,0.2c2-0.4,3.6-1.9,4.2-3.9C22.8,6.9,22.8,5.8,22.4,4.8z" stroke-linejoin="miter"></path></g></svg>