<svg id="nc_icon" version="1.1" xmlns="http://www.w3.org/2000/svg" xmlns:xlink="http://www.w3.org/1999/xlink" x="0px" y="0px" viewBox="0 0 24 24" xml:space="preserve" ><g transform="translate(0, 0)" class="nc-icon-wrapper" fill="none"><path data-color="color-2" fill="none" stroke="currentColor" vector-effect="non-scaling-stroke" stroke-linecap="square" stroke-miterlimit="10" d="M1,19 c0,2.2,1.8,4,4,4c1.5,0,2.8-0.9,3.5-2.1c0.7,1.2,2,2.1,3.5,2.1c1.5,0,2.8-0.9,3.5-2.1c0.7,1.2,2,2.1,3.5,2.1c2.2,0,4-1.8,4-4" stroke-linejoin="miter"></path> <polyline fill="none" stroke="currentColor" vector-effect="non-scaling-stroke" stroke-linecap="square" stroke-miterlimit="10" points="5,15 5,1 1,1 1,15 " stroke-linejoin="miter"></polyline> <polyline fill="none" stroke="currentColor" vector-effect="non-scaling-stroke" stroke-linecap="square" stroke-miterlimit="10" points="23,15 23,1 19,1 19,15 " stroke-linejoin="miter"></polyline> <path fill="none" stroke="currentColor" vector-effect="non-scaling-stroke" stroke-linecap="square" stroke-miterlimit="10" d="M5,2c0,3.9,3.1,7,7,7 c3.9,0,7-3.1,7-7" stroke-linejoin="miter"></path> <line fill="none" stroke="currentColor" vector-effect="non-scaling-stroke" stroke-linecap="square" stroke-miterlimit="10" x1="5" y1="13" x2="19" y2="13" stroke-linejoin="miter"></line></g></svg>