<svg id="nc_icon" version="1.1" xmlns="http://www.w3.org/2000/svg" xmlns:xlink="http://www.w3.org/1999/xlink" x="0px" y="0px" viewBox="0 0 24 24" xml:space="preserve" ><g transform="translate(0, 0)" class="nc-icon-wrapper" fill="none"><line data-cap="butt" data-color="color-2" fill="none" stroke="currentColor" vector-effect="non-scaling-stroke" stroke-miterlimit="10" x1="12" y1="18.66667" x2="12" y2="23" stroke-linejoin="miter" stroke-linecap="butt"></line> <path data-color="color-2" fill="none" stroke="currentColor" vector-effect="non-scaling-stroke" stroke-linecap="square" stroke-miterlimit="10" d="M10,15h4 c0.41202,0,0.64721,0.47038,0.4,0.8l-2,2.66667c-0.2,0.26667-0.6,0.26667-0.8,0L9.6,15.8C9.35279,15.47038,9.58798,15,10,15z" stroke-linejoin="miter"></path> <line data-color="color-2" fill="none" stroke="currentColor" vector-effect="non-scaling-stroke" stroke-linecap="square" stroke-miterlimit="10" x1="9" y1="11" x2="10" y2="11" stroke-linejoin="miter"></line> <line data-color="color-2" fill="none" stroke="currentColor" vector-effect="non-scaling-stroke" stroke-linecap="square" stroke-miterlimit="10" x1="14" y1="11" x2="15" y2="11" stroke-linejoin="miter"></line> <path data-cap="butt" fill="none" stroke="currentColor" vector-effect="non-scaling-stroke" stroke-miterlimit="10" d="M7.24722,5.52903 C6.57278,5.19002,5.80632,5,5,5H1v0c0,2.41624,1.72159,4.43218,4,4.89841" stroke-linejoin="miter" stroke-linecap="butt"></path> <path data-cap="butt" fill="none" stroke="currentColor" vector-effect="non-scaling-stroke" stroke-miterlimit="10" d="M16.75278,5.52903 C17.42723,5.19002,18.19368,5,18.99999,5H23v0c0,2.41624-1.72159,4.43218-4,4.89841" stroke-linejoin="miter" stroke-linecap="butt"></path> <path data-cap="butt" fill="none" stroke="currentColor" vector-effect="non-scaling-stroke" stroke-miterlimit="10" d="M15.77602,5.13948 C17.63136,5.62465,19,7.31308,19,9.32049v6.67951C19,19.866,15.866,23,12.00001,23h-0.00001C8.134,23,5,19.866,5,16.00001V9.32049 c0-2.04768,1.42508-3.7635,3.33717-4.20882" stroke-linejoin="miter" stroke-linecap="butt"></path> <path fill="none" stroke="currentColor" vector-effect="non-scaling-stroke" stroke-linecap="square" stroke-miterlimit="10" d="M13,1 c-0.94342,0-1.77472,0.44421-2.32471,1.12512C10.46344,2.04871,10.23816,2,10,2C8.89545,2,8,2.89539,8,4c0,1.10455,0.89545,2,2,2 c0.23816,0,0.46344-0.04871,0.67529-0.12512C11.22528,6.55579,12.05658,7,13,7c1.65686,0,3-1.34314,3-3S14.65686,1,13,1z" stroke-linejoin="miter"></path></g></svg>