<svg id="nc_icon" version="1.1" xmlns="http://www.w3.org/2000/svg" xmlns:xlink="http://www.w3.org/1999/xlink" x="0px" y="0px" viewBox="0 0 24 24" xml:space="preserve" ><g transform="translate(0, 0)" class="nc-icon-wrapper" fill="none"><polyline fill="none" stroke="currentColor" vector-effect="non-scaling-stroke" stroke-linecap="square" stroke-miterlimit="10" points="4,12 4,23 10,23 10,18 14,18 14,23 20,23 20,12 " stroke-linejoin="miter"></polyline> <path data-color="color-2" fill="none" stroke="currentColor" vector-effect="non-scaling-stroke" stroke-linecap="square" stroke-miterlimit="10" d="M22,9 c0,2-1.1,3-2.5,3S17,10.9,17,9.5c0,1.4-1.1,2.5-2.5,2.5S12,10.9,12,9.5c0,1.4-1.1,2.5-2.5,2.5S7,10.9,7,9.5C7,10.9,5.9,12,4.5,12 S2,11,2,9l4-8h12L22,9z" stroke-linejoin="miter"></path></g></svg>