<svg id="nc_icon" version="1.1" xmlns="http://www.w3.org/2000/svg" xmlns:xlink="http://www.w3.org/1999/xlink" x="0px" y="0px" viewBox="0 0 24 24" xml:space="preserve" ><g transform="translate(0, 0)" class="nc-icon-wrapper" fill="none"><path data-cap="butt" fill="none" stroke="currentColor" vector-effect="non-scaling-stroke" stroke-miterlimit="10" d="M13.374,11.997 C12.052,11.931,11,10.839,11,9.5c0,1.381-1.119,2.5-2.5,2.5S6,10.881,6,9.5C6,10.881,4.881,12,3.5,12S1,10.958,1,9l4-8h12l4,8" stroke-linecap="butt" stroke-linejoin="miter"></path> <polyline data-cap="butt" fill="none" stroke="currentColor" vector-effect="non-scaling-stroke" stroke-miterlimit="10" points="4,12 4,21 12,21 " stroke-linecap="butt" stroke-linejoin="miter"></polyline> <path data-color="color-2" fill="none" stroke="currentColor" vector-effect="non-scaling-stroke" stroke-linecap="square" stroke-miterlimit="10" d="M23,14 c0,3.1-5,8.1-5,8.1s-5-5-5-8.1c0-3.2,2.6-5,5-5S23,10.8,23,14z" stroke-linejoin="miter"></path> <circle data-color="color-2" data-stroke="none" fill="none" cx="18" cy="14" r="1"></circle></g></svg>