<svg id="nc_icon" version="1.1" xmlns="http://www.w3.org/2000/svg" xmlns:xlink="http://www.w3.org/1999/xlink" x="0px" y="0px" viewBox="0 0 24 24" xml:space="preserve" ><g transform="translate(0, 0)" class="nc-icon-wrapper" fill="none"><line data-cap="butt" data-color="color-2" fill="none" stroke="currentColor" vector-effect="non-scaling-stroke" stroke-miterlimit="10" x1="13" y1="5" x2="13" y2="12.2" stroke-linejoin="miter" stroke-linecap="butt"></line> <line data-cap="butt" data-color="color-2" fill="none" stroke="currentColor" vector-effect="non-scaling-stroke" stroke-miterlimit="10" x1="10.2" y1="14.1" x2="3.6" y2="7.6" stroke-linejoin="miter" stroke-linecap="butt"></line> <line data-cap="butt" data-color="color-2" fill="none" stroke="currentColor" vector-effect="non-scaling-stroke" stroke-miterlimit="10" x1="9" y1="17" x2="1.5" y2="17" stroke-linejoin="miter" stroke-linecap="butt"></line> <line data-color="color-2" fill="none" stroke="currentColor" vector-effect="non-scaling-stroke" stroke-linecap="square" stroke-miterlimit="10" x1="16" y1="8" x2="17" y2="8" stroke-linejoin="miter"></line> <path data-cap="butt" fill="none" stroke="currentColor" vector-effect="non-scaling-stroke" stroke-miterlimit="10" d="M9,1h11c1.7,0,3,1.3,3,3v1" stroke-linejoin="miter" stroke-linecap="butt"></path> <path fill="none" stroke="currentColor" vector-effect="non-scaling-stroke" stroke-linecap="square" stroke-miterlimit="10" d="M10,5c-5,0-9,4-9,9 c0,5,4,9,9,9c1,0,1.8,0,3,0c-2.2-0.7-4-3-4-5.5c0-3,2.5-5.5,5.5-5.5c0.6,0,1.5,0,1.5,0c1.9,0,7-1.4,7-7C20.2,5,11.4,5,10,5z" stroke-linejoin="miter"></path> <polygon fill="none" stroke="currentColor" vector-effect="non-scaling-stroke" stroke-linecap="square" stroke-miterlimit="10" points="13,23 21,23 21,18 " stroke-linejoin="miter"></polygon></g></svg>