<svg id="nc_icon" version="1.1" xmlns="http://www.w3.org/2000/svg" xmlns:xlink="http://www.w3.org/1999/xlink" x="0px" y="0px" viewBox="0 0 24 24" xml:space="preserve" ><g transform="translate(0, 0)" class="nc-icon-wrapper" fill="none"><path fill="none" stroke="currentColor" vector-effect="non-scaling-stroke" stroke-linecap="square" stroke-miterlimit="10" d="M12,12L12,12 c-2.761,0-5-2.239-5-5V6c0-2.761,2.239-5,5-5h0c2.761,0,5,2.239,5,5v1C17,9.761,14.761,12,12,12z" stroke-linejoin="miter"></path> <path data-color="color-2" fill="none" stroke="currentColor" vector-effect="non-scaling-stroke" stroke-linecap="square" stroke-miterlimit="10" d="M22,20.908 c0-1.8-1.197-3.383-2.934-3.856C17.172,16.535,14.586,16,12,16s-5.172,0.535-7.066,1.052C3.197,17.525,2,19.108,2,20.908V23h20 V20.908z" stroke-linejoin="miter"></path></g></svg>