<svg id="nc_icon" version="1.1" xmlns="http://www.w3.org/2000/svg" xmlns:xlink="http://www.w3.org/1999/xlink" x="0px" y="0px" viewBox="0 0 24 24" xml:space="preserve" ><g transform="translate(0, 0)" class="nc-icon-wrapper" fill="none"><path data-color="color-2" fill="none" stroke="currentColor" vector-effect="non-scaling-stroke" stroke-linecap="square" stroke-miterlimit="10" d="M16,17 c0,1.1-0.9,2-2,2c-1.1,0-2-0.9-2-2c0,1.1-0.9,2-2,2c-1.1,0-2-0.9-2-2" stroke-linejoin="miter"></path> <circle data-color="color-2" fill="none" stroke="currentColor" vector-effect="non-scaling-stroke" stroke-linecap="square" stroke-miterlimit="10" cx="12" cy="13" r="1" stroke-linejoin="miter"></circle> <path data-color="color-2" fill="none" stroke="currentColor" vector-effect="non-scaling-stroke" stroke-linecap="square" stroke-miterlimit="10" d="M18,9 c0-1.1-0.9-2-2-2c-1.1,0-2,0.9-2,2" stroke-linejoin="miter"></path> <line data-color="color-2" fill="none" stroke="currentColor" vector-effect="non-scaling-stroke" stroke-linecap="square" stroke-miterlimit="10" x1="12" y1="17" x2="12" y2="14" stroke-linejoin="miter"></line> <path data-color="color-2" fill="none" stroke="currentColor" vector-effect="non-scaling-stroke" stroke-linecap="square" stroke-miterlimit="10" d="M18,9 c0-1.1-0.9-2-2-2c-1.1,0-2,0.9-2,2" stroke-linejoin="miter"></path> <path data-color="color-2" fill="none" stroke="currentColor" vector-effect="non-scaling-stroke" stroke-linecap="square" stroke-miterlimit="10" d="M10,9 c0-1.1-0.9-2-2-2C6.9,7,6,7.9,6,9" stroke-linejoin="miter"></path> <path fill="none" stroke="currentColor" vector-effect="non-scaling-stroke" stroke-linecap="square" stroke-miterlimit="10" d="M22,11c0-5.5-4.5-10-10-10 C6.5,1,2,5.5,2,11v12h20V11z" stroke-linejoin="miter"></path></g></svg>