<svg id="nc_icon" xmlns="http://www.w3.org/2000/svg" xmlns:xlink="http://www.w3.org/1999/xlink" x="0px" y="0px" viewBox="0 0 24 24" ><g transform="translate(0, 0)" class="nc-icon-wrapper" fill="none"><path d="M1,13l1.67-1.442a2.222,2.222,0,0,1,2.945,0l.984.849a2.224,2.224,0,0,0,2.945,0l.984-.849a2.222,2.222,0,0,1,2.945,0l.983.849a2.224,2.224,0,0,0,2.945,0l.984-.849a2.222,2.222,0,0,1,2.945,0L23,13" fill="none" stroke="currentColor" stroke-miterlimit="10" vector-effect="non-scaling-stroke" data-cap="butt" data-color="color-2" stroke-linecap="butt" stroke-linejoin="miter"></path> <path d="M1,17H23a0,0,0,0,1,0,0v2a2,2,0,0,1-2,2H3a2,2,0,0,1-2-2V17A0,0,0,0,1,1,17Z" fill="none" stroke="currentColor" stroke-linecap="square" stroke-miterlimit="10" vector-effect="non-scaling-stroke" stroke-linejoin="miter"></path> <path d="M3,3H21a2,2,0,0,1,2,2V7a0,0,0,0,1,0,0H1A0,0,0,0,1,1,7V5A2,2,0,0,1,3,3Z" fill="none" stroke="currentColor" stroke-linecap="square" stroke-miterlimit="10" vector-effect="non-scaling-stroke" stroke-linejoin="miter"></path></g></svg>