<svg id="nc_icon" version="1.1" xmlns="http://www.w3.org/2000/svg" xmlns:xlink="http://www.w3.org/1999/xlink" x="0px" y="0px" viewBox="0 0 24 24" xml:space="preserve" ><g transform="translate(0, 0)" class="nc-icon-wrapper" fill="none"><line data-cap="butt" fill="none" stroke="currentColor" vector-effect="non-scaling-stroke" stroke-miterlimit="10" x1="18.5302753" y1="13.4648161" x2="23" y2="9" stroke-linejoin="miter" stroke-linecap="butt"></line> <line data-cap="butt" fill="none" stroke="currentColor" vector-effect="non-scaling-stroke" stroke-miterlimit="10" x1="5.4694753" y1="13.4740791" x2="1" y2="9" stroke-linejoin="miter" stroke-linecap="butt"></line> <path data-cap="butt" fill="none" stroke="currentColor" vector-effect="non-scaling-stroke" stroke-miterlimit="10" d="M14.6470594,5.0010905 C15.4767647,5.7340083,16,6.8059001,16,8c0,2.2091389-1.7908611,4-4,4s-4-1.7908611-4-4 c0-1.1946392,0.5237083-2.2669601,1.3540649-2.9999022" stroke-linejoin="miter" stroke-linecap="butt"></path> <line data-color="color-2" fill="none" stroke="currentColor" vector-effect="non-scaling-stroke" stroke-linecap="square" stroke-miterlimit="10" x1="6" y1="5" x2="18" y2="5" stroke-linejoin="miter"></line> <polyline data-color="color-2" fill="none" stroke="currentColor" vector-effect="non-scaling-stroke" stroke-linecap="square" stroke-miterlimit="10" points=" 9,5 9,1 15,1 15,5 " stroke-linejoin="miter"></polyline> <path data-cap="butt" fill="none" stroke="currentColor" vector-effect="non-scaling-stroke" stroke-miterlimit="10" d="M15.5006313,9.9368448 C17.601593,11.144928,19,13.4025354,19,16c0,3.8659935-3.1340065,7-7,7s-7-3.1340065-7-7 c0-2.5908575,1.4070926-4.8530226,3.4992218-6.0634012" stroke-linejoin="miter" stroke-linecap="butt"></path></g></svg>