<svg id="nc_icon" version="1.1" xmlns="http://www.w3.org/2000/svg" xmlns:xlink="http://www.w3.org/1999/xlink" x="0px" y="0px" viewBox="0 0 24 24" xml:space="preserve" ><g transform="translate(0, 0)" class="nc-icon-wrapper" fill="none"><path data-cap="butt" fill="none" stroke="currentColor" vector-effect="non-scaling-stroke" stroke-miterlimit="10" d="M16.4718742,16.0003777 C15.3732433,17.2276573,13.7768173,18,12,18c-2.0872478,0-3.9255667-1.0657921-5.0004282-2.6828489" stroke-linejoin="miter" stroke-linecap="butt"></path> <path data-cap="butt" fill="none" stroke="currentColor" vector-effect="non-scaling-stroke" stroke-miterlimit="10" d="M20.1126175,16.1242313 C18.54706,19.6024761,15.0617762,22,11,22C5.4771523,22,1,17.5228481,1,12S5.4771523,2,11,2s10,4.4771523,10,10 c0,0.6478825-0.0649204,1.2925396-0.1826057,1.9061022" stroke-linejoin="miter" stroke-linecap="butt"></path> <circle fill="none" stroke="currentColor" vector-effect="non-scaling-stroke" stroke-linecap="square" stroke-miterlimit="10" cx="8" cy="9" r="1" stroke-linejoin="miter"></circle> <circle fill="none" stroke="currentColor" vector-effect="non-scaling-stroke" stroke-linecap="square" stroke-miterlimit="10" cx="15" cy="9" r="1" stroke-linejoin="miter"></circle> <path data-color="color-2" fill="none" stroke="currentColor" vector-effect="non-scaling-stroke" stroke-linecap="square" stroke-miterlimit="10" d=" M11.5226221,14.9455833c-1.0742636-0.2569656-1.7368145-1.3361406-1.4798489-2.4104042s1.3361397-1.7368145,2.4104033-1.4798489 s10.8813648,3.0631008,10.5380192,4.5771341C22.6784286,17.0116577,12.5968857,15.202549,11.5226221,14.9455833z" stroke-linejoin="miter"></path></g></svg>