<svg id="nc_icon" version="1.1" xmlns="http://www.w3.org/2000/svg" xmlns:xlink="http://www.w3.org/1999/xlink" x="0px" y="0px" viewBox="0 0 24 24" xml:space="preserve" ><g transform="translate(0, 0)" class="nc-icon-wrapper" fill="none"><path data-cap="butt" data-color="color-2" fill="none" stroke="currentColor" vector-effect="non-scaling-stroke" stroke-miterlimit="10" d="M8.9,20.3 c-2.5,0.8-5.5,0.2-7.1-2.7C-0.1,14.4,2.2,6,2.2,6S5,6.8,7.7,8" stroke-linejoin="miter" stroke-linecap="butt"></path> <path data-cap="butt" data-color="color-2" fill="none" stroke="currentColor" vector-effect="non-scaling-stroke" stroke-miterlimit="10" d="M16.3,8c2.7-1.3,5.6-2,5.6-2 s2.3,8.4,0.4,11.6c-1.6,2.8-4.7,3.5-7.1,2.7" stroke-linejoin="miter" stroke-linecap="butt"></path> <path fill="none" stroke="currentColor" vector-effect="non-scaling-stroke" stroke-linecap="square" stroke-miterlimit="10" d="M5,14.1C5,9.9,12,3,12,3 s7,6.9,7,11.1c0,4.4-3.6,6.9-7,6.9C8.6,21,5,18.5,5,14.1z" stroke-linejoin="miter"></path></g></svg>