<svg id="nc_icon" version="1.1" xmlns="http://www.w3.org/2000/svg" xmlns:xlink="http://www.w3.org/1999/xlink" x="0px" y="0px" viewBox="0 0 24 24" xml:space="preserve" ><g transform="translate(0, 0)" class="nc-icon-wrapper" fill="none"><line data-cap="butt" fill="none" stroke="currentColor" vector-effect="non-scaling-stroke" stroke-miterlimit="10" x1="14.935" y1="3.093" x2="20.882" y2="9.04" stroke-linejoin="miter" stroke-linecap="butt"></line> <path data-cap="butt" fill="none" stroke="currentColor" vector-effect="non-scaling-stroke" stroke-miterlimit="10" d="M12.603,4.387 C9.682,3.129,6.164,3.693,3.779,6.079c-0.489,0.489-0.893,1.03-1.229,1.6l3.428,3.428" stroke-linejoin="miter" stroke-linecap="butt"></path> <path data-cap="butt" fill="none" stroke="currentColor" vector-effect="non-scaling-stroke" stroke-miterlimit="10" d="M19.597,11.345 c1.29,2.932,0.725,6.475-1.676,8.876c-0.489,0.489-1.03,0.893-1.6,1.229l-3.442-3.442" stroke-linejoin="miter" stroke-linecap="butt"></path> <path fill="none" stroke="currentColor" vector-effect="non-scaling-stroke" stroke-linecap="square" stroke-miterlimit="10" d="M10.143,19.514 l-5.657-5.657c0,0,4.832-12.021,18.385-12.728C22.104,14.623,10.143,19.514,10.143,19.514z" stroke-linejoin="miter"></path> <ellipse data-color="color-2" data-stroke="none" transform="matrix(0.7071 -0.7071 0.7071 0.7071 -2.9706 12.8284)" fill="none" cx="14" cy="10" rx="2" ry="2" stroke-linejoin="miter" stroke-linecap="square"></ellipse> <path data-color="color-2" data-stroke="none" fill="none" d="M1.113,18.844c1.111-1.111,2.911-1.111,4.022,0c1.111,1.111,1.111,2.911,0,4.022 S0,24,0,24S0.002,19.954,1.113,18.844z" stroke-linejoin="miter" stroke-linecap="square"></path></g></svg>