<svg id="nc_icon" version="1.1" xmlns="http://www.w3.org/2000/svg" xmlns:xlink="http://www.w3.org/1999/xlink" x="0px" y="0px" viewBox="0 0 24 24" xml:space="preserve" ><g transform="translate(0, 0)" class="nc-icon-wrapper" fill="none"><path fill="none" stroke="currentColor" vector-effect="non-scaling-stroke" stroke-linecap="square" stroke-miterlimit="10" d="M21,13h-6c0-3.8-1-4.6-1-7 c0-3,1.8-5,4-5h0c2.2,0,4,2,4,5S21,13,21,13z" stroke-linejoin="miter"></path> <path data-color="color-2" fill="none" stroke="currentColor" vector-effect="non-scaling-stroke" stroke-linecap="square" stroke-miterlimit="10" d="M18,21L18,21 c-2.1,0-3.6-1.9-3.2-3.9L15,16h6l0.2,1.1C21.6,19.1,20.1,21,18,21z" stroke-linejoin="miter"></path> <path fill="none" stroke="currentColor" vector-effect="non-scaling-stroke" stroke-linecap="square" stroke-miterlimit="10" d="M3,15h6c0-3.8,1-4.6,1-7 c0-3-1.8-5-4-5h0C3.8,3,2,5,2,8S3,15,3,15z" stroke-linejoin="miter"></path> <path data-color="color-2" fill="none" stroke="currentColor" vector-effect="non-scaling-stroke" stroke-linecap="square" stroke-miterlimit="10" d="M6,23L6,23 c2.1,0,3.6-1.9,3.2-3.9L9,18H3l-0.2,1.1C2.4,21.1,3.9,23,6,23z" stroke-linejoin="miter"></path></g></svg>