<svg id="nc_icon" xmlns="http://www.w3.org/2000/svg" xmlns:xlink="http://www.w3.org/1999/xlink" x="0px" y="0px" viewBox="0 0 24 24" ><g transform="translate(0, 0)" class="nc-icon-wrapper" fill="none"><polyline fill="none" stroke="currentColor" vector-effect="non-scaling-stroke" stroke-linecap="square" stroke-miterlimit="10" points="2,4 2,2 18,2 18,4 " stroke-linejoin="miter"></polyline> <line fill="none" stroke="currentColor" vector-effect="non-scaling-stroke" stroke-linecap="square" stroke-miterlimit="10" x1="10" y1="2" x2="10" y2="19" stroke-linejoin="miter"></line> <line fill="none" stroke="currentColor" vector-effect="non-scaling-stroke" stroke-linecap="square" stroke-miterlimit="10" x1="6" y1="19" x2="14" y2="19" stroke-linejoin="miter"></line> <path data-color="color-2" data-stroke="none" fill="none" d="M17.31,22v-0.944l1.361-1.33c1.025-0.995,1.462-1.401,1.462-1.979 c0-0.376-0.183-0.65-0.721-0.65c-0.559,0-0.792,0.183-0.792,0.904l-1.38-0.122C17.249,16.264,18.477,16,19.543,16 c1.574,0,2.132,0.67,2.132,1.624c0,0.955-0.66,1.584-1.401,2.294l-1.147,1.097h1.493c0.101,0,0.142-0.02,0.162-0.122l0.142-0.802H22 V22H17.31z"></path></g></svg>