<svg id="nc_icon" version="1.1" xmlns="http://www.w3.org/2000/svg" xmlns:xlink="http://www.w3.org/1999/xlink" x="0px" y="0px" viewBox="0 0 24 24" xml:space="preserve" ><g transform="translate(0, 0)" class="nc-icon-wrapper" fill="none"><line data-color="color-2" fill="none" stroke="currentColor" vector-effect="non-scaling-stroke" stroke-linecap="square" stroke-miterlimit="10" x1="1" y1="17" x2="23" y2="17" stroke-linejoin="miter"></line> <line data-color="color-2" fill="none" stroke="currentColor" vector-effect="non-scaling-stroke" stroke-linecap="square" stroke-miterlimit="10" x1="4" y1="21" x2="20" y2="21" stroke-linejoin="miter"></line> <path data-cap="butt" data-color="color-2" fill="none" stroke="currentColor" vector-effect="non-scaling-stroke" stroke-miterlimit="10" d="M11.1,6C11.6,3.2,14,1,17,1 c3.3,0,6,2.7,6,6c0,1.2-0.4,2.4-1,3.3" stroke-linejoin="miter" stroke-linecap="butt"></path> <path fill="none" stroke="currentColor" vector-effect="non-scaling-stroke" stroke-linecap="square" stroke-miterlimit="10" d="M1,13c0-2.2,1.8-4,4-4 c0.5,0,1,0.1,1.5,0.3C7.3,7.4,9.3,6,11.5,6c2.4,0,4.5,1.6,5.2,3.7C17.4,9.3,18.1,9,19,9c2.2,0,4,1.8,4,4" stroke-linejoin="miter"></path></g></svg>