<svg id="nc_icon" version="1.1" xmlns="http://www.w3.org/2000/svg" xmlns:xlink="http://www.w3.org/1999/xlink" x="0px" y="0px" viewBox="0 0 24 24" xml:space="preserve" ><g transform="translate(0, 0)" class="nc-icon-wrapper" fill="none"><path data-cap="butt" data-color="color-2" fill="none" stroke="currentColor" vector-effect="non-scaling-stroke" stroke-miterlimit="10" d="M16,17V8c0-3.9,3.1-7,7-7l0,0v19 " stroke-linejoin="miter" stroke-linecap="butt"></path> <path data-cap="butt" data-color="color-2" fill="none" stroke="currentColor" vector-effect="non-scaling-stroke" stroke-miterlimit="10" d="M1,20V5h6v4c-1.1,0-2,0.9-2,2 s0.9,2,2,2v4" stroke-linejoin="miter" stroke-linecap="butt"></path> <path fill="none" stroke="currentColor" vector-effect="non-scaling-stroke" stroke-linecap="square" stroke-miterlimit="10" d="M1,20L1,20c0-1.7,1.3-3,3-3 h16c1.7,0,3,1.3,3,3l0,0c0,1.7-1.3,3-3,3H4C2.3,23,1,21.7,1,20z" stroke-linejoin="miter"></path></g></svg>