<svg id="nc_icon" version="1.1" xmlns="http://www.w3.org/2000/svg" xmlns:xlink="http://www.w3.org/1999/xlink" x="0px" y="0px" viewBox="0 0 24 24" xml:space="preserve" ><g transform="translate(0, 0)" class="nc-icon-wrapper" fill="none"><path data-color="color-2" fill="none" stroke="currentColor" vector-effect="non-scaling-stroke" stroke-linecap="square" stroke-miterlimit="10" d="M14,1L14,1 c2.8,0,5,2.2,5,5v0" stroke-linejoin="miter"></path> <path data-color="color-2" fill="none" stroke="currentColor" vector-effect="non-scaling-stroke" stroke-linecap="square" stroke-miterlimit="10" d="M5,18L5,18 c0,2.8,2.2,5,5,5h0" stroke-linejoin="miter"></path> <path fill="none" stroke="currentColor" vector-effect="non-scaling-stroke" stroke-linecap="square" stroke-miterlimit="10" d="M8,14H3c-1.1,0-2-0.9-2-2V3 c0-1.1,0.9-2,2-2h5c1.1,0,2,0.9,2,2v9C10,13.1,9.1,14,8,14z" stroke-linejoin="miter"></path> <line fill="none" stroke="currentColor" vector-effect="non-scaling-stroke" stroke-linecap="square" stroke-miterlimit="10" x1="1" y1="10" x2="10" y2="10" stroke-linejoin="miter"></line> <line fill="none" stroke="currentColor" vector-effect="non-scaling-stroke" stroke-linecap="square" stroke-miterlimit="10" x1="1" y1="4" x2="10" y2="4" stroke-linejoin="miter"></line> <path fill="none" stroke="currentColor" vector-effect="non-scaling-stroke" stroke-linecap="square" stroke-miterlimit="10" d="M21,23h-5c-1.1,0-2-0.9-2-2 v-9c0-1.1,0.9-2,2-2h5c1.1,0,2,0.9,2,2v9C23,22.1,22.1,23,21,23z" stroke-linejoin="miter"></path> <line fill="none" stroke="currentColor" vector-effect="non-scaling-stroke" stroke-linecap="square" stroke-miterlimit="10" x1="14" y1="19" x2="23" y2="19" stroke-linejoin="miter"></line> <line fill="none" stroke="currentColor" vector-effect="non-scaling-stroke" stroke-linecap="square" stroke-miterlimit="10" x1="14" y1="13" x2="23" y2="13" stroke-linejoin="miter"></line></g></svg>