<svg id="nc_icon" version="1.1" xmlns="http://www.w3.org/2000/svg" xmlns:xlink="http://www.w3.org/1999/xlink" x="0px" y="0px" viewBox="0 0 24 24" xml:space="preserve" ><g transform="translate(0, 0)" class="nc-icon-wrapper" fill="none"><path fill="none" stroke="currentColor" vector-effect="non-scaling-stroke" stroke-linecap="square" stroke-miterlimit="10" d="M14,17H2 c-0.552,0-1-0.448-1-1V2c0-0.552,0.448-1,1-1h18c0.552,0,1,0.448,1,1v7" stroke-linejoin="miter"></path> <polyline fill="none" stroke="currentColor" vector-effect="non-scaling-stroke" stroke-linecap="square" stroke-miterlimit="10" points="15,13 7,13 7,5 17,5 17,9 " stroke-linejoin="miter"></polyline> <circle data-stroke="none" fill="none" cx="4" cy="9" r="1" stroke-linejoin="miter" stroke-linecap="square"></circle> <path data-color="color-2" fill="none" stroke="currentColor" vector-effect="non-scaling-stroke" stroke-linecap="square" stroke-miterlimit="10" d="M22,23h-6 c-0.552,0-1-0.448-1-1V10c0-0.552,0.448-1,1-1h6c0.552,0,1,0.448,1,1v12C23,22.552,22.552,23,22,23z" stroke-linejoin="miter"></path> <line data-color="color-2" fill="none" stroke="currentColor" vector-effect="non-scaling-stroke" stroke-linecap="square" stroke-miterlimit="10" x1="15" y1="19" x2="23" y2="19" stroke-linejoin="miter"></line></g></svg>