<svg id="nc_icon" version="1.1" xmlns="http://www.w3.org/2000/svg" xmlns:xlink="http://www.w3.org/1999/xlink" x="0px" y="0px" viewBox="0 0 24 24" xml:space="preserve" ><g transform="translate(0, 0)" class="nc-icon-wrapper" fill="none"><line data-color="color-2" fill="none" stroke="currentColor" vector-effect="non-scaling-stroke" stroke-linecap="square" stroke-miterlimit="10" x1="14" y1="12" x2="17" y2="12" stroke-linejoin="miter"></line> <line data-color="color-2" fill="none" stroke="currentColor" vector-effect="non-scaling-stroke" stroke-linecap="square" stroke-miterlimit="10" x1="10" y1="12" x2="7" y2="12" stroke-linejoin="miter"></line> <path data-cap="butt" fill="none" stroke="currentColor" vector-effect="non-scaling-stroke" stroke-miterlimit="10" d="M13.8,9.1L20,5.7c1.3-0.7,3,0.2,3,1.7 v9.2c0,1.5-1.6,2.5-3,1.7l-6.2-3.5" stroke-linejoin="miter" stroke-linecap="butt"></path> <path data-cap="butt" fill="none" stroke="currentColor" vector-effect="non-scaling-stroke" stroke-miterlimit="10" d="M10.2,9.1L4,5.7C2.6,4.9,1,5.9,1,7.4 v9.2c0,1.5,1.6,2.5,3,1.7l6.2-3.5" stroke-linejoin="miter" stroke-linecap="butt"></path> <path fill="none" stroke="currentColor" vector-effect="non-scaling-stroke" stroke-linecap="square" stroke-miterlimit="10" d="M12,16L12,16 c-1.1,0-2-0.9-2-2v-4c0-1.1,0.9-2,2-2h0c1.1,0,2,0.9,2,2v4C14,15.1,13.1,16,12,16z" stroke-linejoin="miter"></path></g></svg>