<svg id="nc_icon" version="1.1" xmlns="http://www.w3.org/2000/svg" xmlns:xlink="http://www.w3.org/1999/xlink" x="0px" y="0px" viewBox="0 0 24 24" xml:space="preserve" ><g transform="translate(0, 0)" class="nc-icon-wrapper" fill="none"><polyline data-color="color-2" fill="none" stroke="currentColor" vector-effect="non-scaling-stroke" stroke-linecap="square" stroke-miterlimit="10" points=" 12,10 12,14 16,14 " stroke-linejoin="miter"></polyline> <line data-cap="butt" fill="none" stroke="currentColor" vector-effect="non-scaling-stroke" stroke-miterlimit="10" x1="3" y1="23" x2="6.3" y2="19.7" stroke-linejoin="miter" stroke-linecap="butt"></line> <line data-cap="butt" fill="none" stroke="currentColor" vector-effect="non-scaling-stroke" stroke-miterlimit="10" x1="21" y1="23" x2="17.7" y2="19.7" stroke-linejoin="miter" stroke-linecap="butt"></line> <circle fill="none" stroke="currentColor" vector-effect="non-scaling-stroke" stroke-linecap="square" stroke-miterlimit="10" cx="12" cy="14" r="8" stroke-linejoin="miter"></circle> <path fill="none" stroke="currentColor" vector-effect="non-scaling-stroke" stroke-linecap="square" stroke-miterlimit="10" d="M9.3,2.3C8.5,1.5,7.3,1,6,1 C3.2,1,1,3.2,1,6c0,0.8,0.2,1.5,0.5,2.2C3.2,5.2,6,3.1,9.3,2.3z" stroke-linejoin="miter"></path> <path fill="none" stroke="currentColor" vector-effect="non-scaling-stroke" stroke-linecap="square" stroke-miterlimit="10" d="M14.7,2.3 C15.5,1.5,16.7,1,18,1c2.8,0,5,2.2,5,5c0,0.8-0.2,1.5-0.5,2.2C20.8,5.2,18,3.1,14.7,2.3z" stroke-linejoin="miter"></path></g></svg>