<svg id="nc_icon" xmlns="http://www.w3.org/2000/svg" xmlns:xlink="http://www.w3.org/1999/xlink" x="0px" y="0px" viewBox="0 0 24 24" ><g transform="translate(0, 0)" class="nc-icon-wrapper" fill="none"><circle cx="12" cy="12" r="11" fill="none" stroke="currentColor" stroke-linecap="square" stroke-miterlimit="10" vector-effect="non-scaling-stroke" stroke-linejoin="miter"></circle> <path d="M11,5a1,1,0,0,1,2,0c0,.552-.448,3-1,3S11,5.552,11,5Z" fill="none" data-cap="butt" data-color="color-2" data-stroke="none" stroke-linecap="butt" stroke-linejoin="miter"></path> <path d="M16.243,6.343a1,1,0,1,1,1.414,1.414c-.391.391-2.438,1.8-2.829,1.415S15.852,6.734,16.243,6.343Z" fill="none" data-cap="butt" data-color="color-2" data-stroke="none" stroke-linecap="butt" stroke-linejoin="miter"></path> <path d="M19,11a1,1,0,0,1,0,2c-.552,0-3-.448-3-1S18.448,11,19,11Z" fill="none" data-cap="butt" data-color="color-2" data-stroke="none" stroke-linecap="butt" stroke-linejoin="miter"></path> <path d="M17.657,16.243a1,1,0,0,1-1.414,1.414c-.391-.391-1.8-2.438-1.415-2.829S17.266,15.852,17.657,16.243Z" fill="none" data-cap="butt" data-color="color-2" data-stroke="none" stroke-linecap="butt" stroke-linejoin="miter"></path> <path d="M13,19a1,1,0,0,1-2,0c0-.552.448-3,1-3S13,18.448,13,19Z" fill="none" data-cap="butt" data-color="color-2" data-stroke="none" stroke-linecap="butt" stroke-linejoin="miter"></path> <path d="M7.757,17.657a1,1,0,0,1-1.414-1.414c.391-.391,2.438-1.8,2.829-1.415S8.148,17.266,7.757,17.657Z" fill="none" data-cap="butt" data-color="color-2" data-stroke="none" stroke-linecap="butt" stroke-linejoin="miter"></path> <path d="M5,13a1,1,0,0,1,0-2c.552,0,3,.448,3,1S5.552,13,5,13Z" fill="none" data-cap="butt" data-color="color-2" data-stroke="none" stroke-linecap="butt" stroke-linejoin="miter"></path> <path d="M6.343,7.757A1,1,0,0,1,7.757,6.343c.391.391,1.8,2.438,1.415,2.829S6.734,8.148,6.343,7.757Z" fill="none" data-cap="butt" data-color="color-2" data-stroke="none" stroke-linecap="butt" stroke-linejoin="miter"></path></g></svg>