<svg id="nc_icon" version="1.1" xmlns="http://www.w3.org/2000/svg" xmlns:xlink="http://www.w3.org/1999/xlink" x="0px" y="0px" viewBox="0 0 24 24" xml:space="preserve" ><g transform="translate(0, 0)" class="nc-icon-wrapper" fill="none"><path d="M12,5V4a2,2,0,0,0-2-2h0A2,2,0,0,0,8,4v9.523a1,1,0,0,1-1.371.928L4.086,13.434a1.773,1.773,0,0,0-1.913.393h0a1.773,1.773,0,0,0-.081,2.422l3.218,3.678A9,9,0,0,0,12.084,23H14a9,9,0,0,0,9-9V5.5A1.5,1.5,0,0,0,21.5,4h0A1.5,1.5,0,0,0,20,5.5V6" fill="none" stroke="currentColor" stroke-linecap="square" stroke-miterlimit="10" vector-effect="non-scaling-stroke" stroke-linejoin="miter"></path> <path d="M12,11V3a2,2,0,0,1,2-2h0a2,2,0,0,1,2,2v8" fill="none" stroke="currentColor" stroke-linecap="square" stroke-miterlimit="10" vector-effect="non-scaling-stroke" stroke-linejoin="miter"></path> <path d="M16,5V4a2,2,0,0,1,2-2h0a2,2,0,0,1,2,2v7" fill="none" stroke="currentColor" stroke-linecap="square" stroke-miterlimit="10" vector-effect="non-scaling-stroke" stroke-linejoin="miter"></path></g></svg>