<svg id="nc_icon" version="1.1" xmlns="http://www.w3.org/2000/svg" xmlns:xlink="http://www.w3.org/1999/xlink" x="0px" y="0px" viewBox="0 0 24 24" xml:space="preserve" ><g transform="translate(0, 0)" class="nc-icon-wrapper" fill="none"><path fill="none" stroke="currentColor" vector-effect="non-scaling-stroke" stroke-linecap="square" stroke-miterlimit="10" d="M22,5c0-1.6-1.3-3-3-3 c-0.8,0-2.6,0.5-4.1,1C13.9,3.3,13,3.5,12,3.5c-1,0-1.9-0.2-2.9-0.5C7.6,2.5,5.8,2,5,2C3.3,2,2,3.4,2,5c0,1.6,1,5,1,5L2,20.1 C2,21.1,2.9,22,3.9,22c0.7,0,1.2-0.5,1.6-0.9l3.9-4.6C10.1,15.6,11,15,12,15s1.8,0.6,2.6,1.5l3.9,4.6c0.4,0.5,1,0.9,1.6,0.9 c1.1,0,1.9-0.9,1.9-1.9L21,10C21,10,22,6.6,22,5z" stroke-linejoin="miter"></path> <path data-color="color-2" fill="none" stroke="currentColor" vector-effect="non-scaling-stroke" stroke-linecap="square" stroke-miterlimit="10" d="M9,7.1 c1,0.2,2,0.3,3,0.3c1,0,2-0.1,3-0.3" stroke-linejoin="miter"></path></g></svg>