<svg id="nc_icon" version="1.1" xmlns="http://www.w3.org/2000/svg" xmlns:xlink="http://www.w3.org/1999/xlink" x="0px" y="0px" viewBox="0 0 24 24" xml:space="preserve" ><g transform="translate(0, 0)" class="nc-icon-wrapper" fill="none"><polyline data-color="color-2" fill="none" stroke="currentColor" vector-effect="non-scaling-stroke" stroke-linecap="square" stroke-miterlimit="10" points=" 6,1 3,1 3,4 " stroke-linejoin="miter"></polyline> <polyline data-color="color-2" fill="none" stroke="currentColor" vector-effect="non-scaling-stroke" stroke-linecap="square" stroke-miterlimit="10" points=" 19,4 19,1 16,1 " stroke-linejoin="miter"></polyline> <path fill="none" stroke="currentColor" vector-effect="non-scaling-stroke" stroke-linecap="square" stroke-miterlimit="10" d="M21,22l0-9c0-1.1-0.9-2-2-2 h-6l0-6c0-1.1-0.9-2-2-2h0C9.9,3,9,3.9,9,5v11l-2.7-2.1c-0.8-0.6-1.8-0.8-2.7-0.4l0,0c-0.8,0.3-1.1,1.2-0.7,1.8L7,22" stroke-linejoin="miter"></path></g></svg>