<svg id="nc_icon" xmlns="http://www.w3.org/2000/svg" xmlns:xlink="http://www.w3.org/1999/xlink" x="0px" y="0px" viewBox="0 0 24 24" ><g transform="translate(0, 0)" class="nc-icon-wrapper" fill="none"><polyline data-cap="butt" fill="none" stroke="currentColor" vector-effect="non-scaling-stroke" stroke-miterlimit="10" points="13,13 17,1 18,1 22,13 " stroke-linecap="butt" stroke-linejoin="miter"></polyline> <line data-cap="butt" fill="none" stroke="currentColor" vector-effect="non-scaling-stroke" stroke-miterlimit="10" x1="14.667" y1="8" x2="20.333" y2="8" stroke-linecap="butt" stroke-linejoin="miter"></line> <line fill="none" stroke="currentColor" vector-effect="non-scaling-stroke" stroke-linecap="square" stroke-miterlimit="10" x1="12" y1="13" x2="14" y2="13" stroke-linejoin="miter"></line> <line fill="none" stroke="currentColor" vector-effect="non-scaling-stroke" stroke-linecap="square" stroke-miterlimit="10" x1="21" y1="13" x2="23" y2="13" stroke-linejoin="miter"></line> <polyline data-cap="butt" fill="none" stroke="currentColor" vector-effect="non-scaling-stroke" stroke-miterlimit="10" points="11,1 7,13 6,13 2,1 " stroke-linecap="butt" stroke-linejoin="miter"></polyline> <line fill="none" stroke="currentColor" vector-effect="non-scaling-stroke" stroke-linecap="square" stroke-miterlimit="10" x1="12" y1="1" x2="10" y2="1" stroke-linejoin="miter"></line> <line fill="none" stroke="currentColor" vector-effect="non-scaling-stroke" stroke-linecap="square" stroke-miterlimit="10" x1="3" y1="1" x2="1" y2="1" stroke-linejoin="miter"></line> <line data-cap="butt" data-color="color-2" fill="none" stroke="currentColor" vector-effect="non-scaling-stroke" stroke-miterlimit="10" x1="20" y1="19" x2="4" y2="19" stroke-linecap="butt" stroke-linejoin="miter"></line> <polygon data-color="color-2" fill="none" stroke="currentColor" vector-effect="non-scaling-stroke" stroke-linecap="square" stroke-miterlimit="10" points=" 4,17 2,19 4,21 " stroke-linejoin="miter"></polygon> <polygon data-color="color-2" fill="none" stroke="currentColor" vector-effect="non-scaling-stroke" stroke-linecap="square" stroke-miterlimit="10" points=" 20,21 22,19 20,17 " stroke-linejoin="miter"></polygon> <polygon data-color="color-2" data-stroke="none" fill="none" points="4,17 2,19 4,21 "></polygon> <polygon data-color="color-2" data-stroke="none" fill="none" points="20,21 22,19 20,17 "></polygon></g></svg>