<svg id="nc_icon" version="1.1" xmlns="http://www.w3.org/2000/svg" xmlns:xlink="http://www.w3.org/1999/xlink" x="0px" y="0px" viewBox="0 0 24 24" xml:space="preserve" ><g transform="translate(0, 0)" class="nc-icon-wrapper" fill="none"><line data-cap="butt" data-color="color-2" fill="none" stroke="currentColor" vector-effect="non-scaling-stroke" stroke-miterlimit="10" x1="12" y1="18" x2="12" y2="23" stroke-linejoin="miter" stroke-linecap="butt"></line> <line data-cap="butt" data-color="color-2" fill="none" stroke="currentColor" vector-effect="non-scaling-stroke" stroke-miterlimit="10" x1="7" y1="23" x2="17" y2="23" stroke-linejoin="miter" stroke-linecap="butt"></line> <path fill="none" stroke="currentColor" vector-effect="non-scaling-stroke" stroke-linecap="square" stroke-miterlimit="10" d="M18,10h-0.55481 C17.78882,9.40961,18,8.7323,18,8c0-2.20917-1.79083-4-4-4c-0.01709,0-0.03284,0.00482-0.04987,0.005 C13.70782,2.30859,12.26343,1,10.5,1C8.56702,1,7,2.56702,7,4.5c0,0.33942,0.06354,0.66101,0.15369,0.97137 C5.87909,6.14014,5,7.46069,5,9c0,0.38013,0.06995,0.74054,0.16901,1.08893C3.35913,10.4718,2,12.07611,2,14 c0,2.20911,1.79083,4,4,4h12c2.20917,0,4-1.79089,4-4C22,11.79083,20.20917,10,18,10z" stroke-linejoin="miter"></path></g></svg>