<svg id="nc_icon" version="1.1" xmlns="http://www.w3.org/2000/svg" xmlns:xlink="http://www.w3.org/1999/xlink" x="0px" y="0px" viewBox="0 0 24 24" xml:space="preserve" ><g transform="translate(0, 0)" class="nc-icon-wrapper" fill="none"><path fill="none" stroke="currentColor" vector-effect="non-scaling-stroke" stroke-linecap="square" stroke-miterlimit="10" d="M18,20c0,1.657-1.343,3-3,3 h0c-1.657,0-3-1.343-3-3v-8" stroke-linejoin="miter"></path> <line fill="none" stroke="currentColor" vector-effect="non-scaling-stroke" stroke-linecap="square" stroke-miterlimit="10" x1="12" y1="3" x2="12" y2="1" stroke-linejoin="miter"></line> <path data-cap="butt" data-color="color-2" fill="none" stroke="currentColor" vector-effect="non-scaling-stroke" stroke-miterlimit="10" d="M12,3c-2.961,1.474-5,4.468-5,8 c0,0.34,0,1,0,1" stroke-linejoin="miter" stroke-linecap="butt"></path> <path data-cap="butt" data-color="color-2" fill="none" stroke="currentColor" vector-effect="non-scaling-stroke" stroke-miterlimit="10" d="M12,3c2.961,1.474,5,4.468,5,8 c0,0.34,0,1,0,1" stroke-linejoin="miter" stroke-linecap="butt"></path> <line data-cap="butt" data-color="color-2" fill="none" stroke="currentColor" vector-effect="non-scaling-stroke" stroke-miterlimit="10" x1="12" y1="12" x2="12" y2="3" stroke-linejoin="miter" stroke-linecap="butt"></line> <path data-color="color-2" fill="none" stroke="currentColor" vector-effect="non-scaling-stroke" stroke-linecap="square" stroke-miterlimit="10" d="M22,12 c-0.502-5.053-4.815-9-10-9S2.502,6.947,2,12H22z" stroke-linejoin="miter"></path></g></svg>