<svg id="nc_icon" version="1.1" xmlns="http://www.w3.org/2000/svg" xmlns:xlink="http://www.w3.org/1999/xlink" x="0px" y="0px" viewBox="0 0 24 24" xml:space="preserve" ><g transform="translate(0, 0)" class="nc-icon-wrapper" fill="none"><path data-color="color-2" data-cap="butt" fill="none" stroke="currentColor" vector-effect="non-scaling-stroke" stroke-miterlimit="10" d="M9.7,15.3l-4,3.1	C5.3,18.8,5,19.4,5,20v3" stroke-linejoin="miter" stroke-linecap="butt"></path><path data-color="color-2" data-cap="butt" fill="none" stroke="currentColor" vector-effect="non-scaling-stroke" stroke-miterlimit="10" d="M14.3,15.3l4,3.1	c0.5,0.4,0.8,1,0.8,1.6v3" stroke-linejoin="miter" stroke-linecap="butt"></path><path data-color="color-2" fill="none" stroke="currentColor" vector-effect="non-scaling-stroke" stroke-linecap="square" stroke-miterlimit="10" d="M12,16L12,16	c-2.2,0-4-1.8-4-4v-2c0-2.2,1.8-4,4-4h0c2.2,0,4,1.8,4,4v2C16,14.2,14.2,16,12,16z" stroke-linejoin="miter"></path><rect x="1" y="1" fill="none" stroke="currentColor" vector-effect="non-scaling-stroke" stroke-linecap="square" stroke-miterlimit="10" width="22" height="22" stroke-linejoin="miter"></rect></g></svg>