<svg id="nc_icon" version="1.1" xmlns="http://www.w3.org/2000/svg" xmlns:xlink="http://www.w3.org/1999/xlink" x="0px" y="0px" viewBox="0 0 24 24" xml:space="preserve" ><g transform="translate(0, 0)" class="nc-icon-wrapper" fill="none"><path data-cap="butt" data-color="color-2" fill="none" stroke="currentColor" vector-effect="non-scaling-stroke" stroke-miterlimit="10" d="M13.455,14.732	c0.115,0.848,0.534,2.446,2.056,2.953c1.991,0.664,3.353,1.406,3.489,3.794V23" stroke-linejoin="miter" stroke-linecap="butt"></path><path data-cap="butt" data-color="color-2" fill="none" stroke="currentColor" vector-effect="non-scaling-stroke" stroke-miterlimit="10" d="M10.566,14.731	c-0.113,0.844-0.524,2.444-2.055,2.954c-1.992,0.664-3.354,1.406-3.489,3.795L5,23" stroke-linejoin="miter" stroke-linecap="butt"></path><path data-color="color-2" fill="none" stroke="currentColor" vector-effect="non-scaling-stroke" stroke-linecap="square" stroke-miterlimit="10" d="M12.011,15	L12.011,15c-2.209,0-4-1.791-4-4v-1c0-2.209,1.791-4,4-4h0c2.209,0,4,1.791,4,4v1C16.011,13.209,14.22,15,12.011,15z" stroke-linejoin="miter"></path><rect x="1" y="1" fill="none" stroke="currentColor" vector-effect="non-scaling-stroke" stroke-linecap="square" stroke-miterlimit="10" width="22" height="22" stroke-linejoin="miter"></rect></g></svg>