<svg id="nc_icon" version="1.1" xmlns="http://www.w3.org/2000/svg" xmlns:xlink="http://www.w3.org/1999/xlink" x="0px" y="0px" viewBox="0 0 24 24" xml:space="preserve" ><g transform="translate(0, 0)" class="nc-icon-wrapper" fill="none"><rect x="2" y="1" fill="none" stroke="currentColor" vector-effect="non-scaling-stroke" stroke-linecap="square" stroke-miterlimit="10" width="20" height="22" stroke-linejoin="miter"></rect> <path data-cap="butt" data-color="color-2" fill="none" stroke="currentColor" vector-effect="non-scaling-stroke" stroke-miterlimit="10" d="M12.992,12.737L15.2,14.4 c0.504,0.378,0.8,0.97,0.8,1.6v1H8v-1c0-0.63,0.296-1.222,0.8-1.6l2.208-1.663" stroke-linejoin="miter" stroke-linecap="butt"></path> <path data-color="color-2" fill="none" stroke="currentColor" vector-effect="non-scaling-stroke" stroke-linecap="square" stroke-miterlimit="10" d="M12,13 L12,13c-1.105,0-2-0.895-2-2v-1c0-1.105,0.895-2,2-2h0c1.105,0,2,0.895,2,2v1C14,12.105,13.105,13,12,13z" stroke-linejoin="miter"></path></g></svg>