<svg id="nc_icon" version="1.1" xmlns="http://www.w3.org/2000/svg" xmlns:xlink="http://www.w3.org/1999/xlink" x="0px" y="0px" viewBox="0 0 24 24" xml:space="preserve" ><g transform="translate(0, 0)" class="nc-icon-wrapper" fill="none"><path fill="none" stroke="currentColor" vector-effect="non-scaling-stroke" stroke-linecap="square" stroke-miterlimit="10" d="M12.0000076,23h-0.0000153 C7.5817184,23,4,19.4182816,4,15.0000076V7c0-3.3137085,2.6862917-6,6-6h4c3.3137093,0,6,2.6862915,6,6v8.0000076 C20,19.4182816,16.4182816,23,12.0000076,23z" stroke-linejoin="miter"></path> <path fill="none" stroke="currentColor" vector-effect="non-scaling-stroke" stroke-linecap="square" stroke-miterlimit="10" d="M4,14H3.9999969 C2.3431444,14,1,12.6568556,1,11.0000029V8h0.000003C2.6568556,8,4,9.3431444,4,10.9999971V14z" stroke-linejoin="miter"></path> <path fill="none" stroke="currentColor" vector-effect="non-scaling-stroke" stroke-linecap="square" stroke-miterlimit="10" d="M20,14h0.0000038 C21.6568565,14,23,12.6568556,23,11.0000029V8h-0.0000038C21.3431435,8,20,9.3431444,20,10.9999971V14z" stroke-linejoin="miter"></path> <polyline data-cap="butt" data-color="color-2" fill="none" stroke="currentColor" vector-effect="non-scaling-stroke" stroke-miterlimit="10" points="10,16 9,18 8,16 16,16 15,18 14,16 " stroke-linejoin="miter" stroke-linecap="butt"></polyline> <circle data-color="color-2" fill="none" stroke="currentColor" vector-effect="non-scaling-stroke" stroke-linecap="square" stroke-miterlimit="10" cx="9" cy="10" r="1" stroke-linejoin="miter"></circle> <circle data-color="color-2" fill="none" stroke="currentColor" vector-effect="non-scaling-stroke" stroke-linecap="square" stroke-miterlimit="10" cx="15" cy="10" r="1" stroke-linejoin="miter"></circle> <path fill="none" stroke="currentColor" vector-effect="non-scaling-stroke" stroke-linecap="square" stroke-miterlimit="10" d="M20,9 c0-2.7614136-2.2385864-5-5-5c-1.1309204,0-2.1623535,0.3895874-3,1.022644C11.1623535,4.3895874,10.1309204,4,9,4 C6.2385864,4,4,6.2385864,4,9" stroke-linejoin="miter"></path></g></svg>