<svg id="nc_icon" version="1.1" xmlns="http://www.w3.org/2000/svg" xmlns:xlink="http://www.w3.org/1999/xlink" x="0px" y="0px" viewBox="0 0 24 24" xml:space="preserve" ><g transform="translate(0, 0)" class="nc-icon-wrapper" fill="none"><path data-cap="butt" fill="none" stroke="currentColor" vector-effect="non-scaling-stroke" stroke-miterlimit="10" d="M1,10v7c0,1.105,0.895,2,2,2" stroke-linecap="butt" stroke-linejoin="miter"></path> <path fill="none" stroke="currentColor" vector-effect="non-scaling-stroke" stroke-linecap="square" stroke-miterlimit="10" d="M10,10v3 c0,1.105,0.895,2,2,2h2c1.105,0,2-0.895,2-2V2h-3" stroke-linejoin="miter"></path> <line data-cap="butt" fill="none" stroke="currentColor" vector-effect="non-scaling-stroke" stroke-miterlimit="10" x1="21.9" y1="16.667" x2="19" y2="8" stroke-linecap="butt" stroke-linejoin="miter"></line> <polyline data-cap="butt" fill="none" stroke="currentColor" vector-effect="non-scaling-stroke" stroke-miterlimit="10" points="9,19 10,19 16,19 16,19 17,19 " stroke-linecap="butt" stroke-linejoin="miter"></polyline> <circle data-color="color-2" fill="none" stroke="currentColor" vector-effect="non-scaling-stroke" stroke-linecap="square" stroke-miterlimit="10" cx="6" cy="19" r="3" stroke-linejoin="miter"></circle> <path fill="none" stroke="currentColor" vector-effect="non-scaling-stroke" stroke-linecap="square" stroke-miterlimit="10" d="M10,10H1V8 c0-1.105,0.895-2,2-2h5c1.105,0,2,0.895,2,2V10z" stroke-linejoin="miter"></path> <circle data-color="color-2" fill="none" stroke="currentColor" vector-effect="non-scaling-stroke" stroke-linecap="square" stroke-miterlimit="10" cx="20" cy="19" r="3" stroke-linejoin="miter"></circle> <path fill="none" stroke="currentColor" vector-effect="non-scaling-stroke" stroke-linecap="square" stroke-miterlimit="10" d="M21,8l-3,0 c-1.105,0-2-0.895-2-2v0c0-1.105,0.895-2,2-2l3,0V8z" stroke-linejoin="miter"></path></g></svg>