<svg id="nc_icon" version="1.1" xmlns="http://www.w3.org/2000/svg" xmlns:xlink="http://www.w3.org/1999/xlink" x="0px" y="0px" viewBox="0 0 24 24" xml:space="preserve" ><g transform="translate(0, 0)" class="nc-icon-wrapper" fill="none"><path data-cap="butt" data-color="color-2" fill="none" stroke="currentColor" vector-effect="non-scaling-stroke" stroke-miterlimit="10" d="M15,5.7V4c0-1.7-1.3-3-3-3 c-1.7,0-3,1.3-3,3v1.7" stroke-linejoin="miter" stroke-linecap="butt"></path> <path data-color="color-2" fill="none" stroke="currentColor" vector-effect="non-scaling-stroke" stroke-linecap="square" stroke-miterlimit="10" d="M5,12H4 c-1.7,0-3-1.3-3-3V8" stroke-linejoin="miter"></path> <path data-color="color-2" fill="none" stroke="currentColor" vector-effect="non-scaling-stroke" stroke-linecap="square" stroke-miterlimit="10" d="M5,16H4 c-1.7,0-3,1.3-3,3v1" stroke-linejoin="miter"></path> <path data-color="color-2" fill="none" stroke="currentColor" vector-effect="non-scaling-stroke" stroke-linecap="square" stroke-miterlimit="10" d="M19,12h1 c1.7,0,3-1.3,3-3V8" stroke-linejoin="miter"></path> <polyline data-color="color-2" fill="none" stroke="currentColor" vector-effect="non-scaling-stroke" stroke-linecap="square" stroke-miterlimit="10" points=" 19,16 23,16 23,20 " stroke-linejoin="miter"></polyline> <path fill="none" stroke="currentColor" vector-effect="non-scaling-stroke" stroke-linecap="square" stroke-miterlimit="10" d="M19,16c0,3.9-3.1,7-7,7 c-3.9,0-7-3.1-7-7v-4c0-3.9,3.1-7,7-7c3.9,0,7,3.1,7,7V16z" stroke-linejoin="miter"></path></g></svg>