<svg id="nc_icon" version="1.1" xmlns="http://www.w3.org/2000/svg" xmlns:xlink="http://www.w3.org/1999/xlink" x="0px" y="0px" viewBox="0 0 24 24" xml:space="preserve" ><g transform="translate(0, 0)" class="nc-icon-wrapper" fill="none"><path fill="none" stroke="currentColor" vector-effect="non-scaling-stroke" stroke-linecap="square" stroke-miterlimit="10" d="M15,22H1v-2.313 c0-1.213,0.725-2.307,1.846-2.772C3.981,16.445,5.67,16,8,16s4.019,0.445,5.154,0.916C14.275,17.38,15,18.474,15,19.687V22z" stroke-linejoin="miter"></path> <circle fill="none" stroke="currentColor" vector-effect="non-scaling-stroke" stroke-linecap="square" stroke-miterlimit="10" cx="8" cy="9" r="4" stroke-linejoin="miter"></circle> <path data-color="color-2" fill="none" stroke="currentColor" vector-effect="non-scaling-stroke" stroke-linecap="square" stroke-miterlimit="10" d=" M17.001,6.355C17.623,7.06,18,7.986,18,9c0,1.014-0.378,1.94-1,2.646" stroke-linejoin="miter"></path> <path data-color="color-2" fill="none" stroke="currentColor" vector-effect="non-scaling-stroke" stroke-linecap="square" stroke-miterlimit="10" d=" M20.001,2.293C21.842,3.941,23,6.335,23,9c0,2.665-1.158,5.06-2.999,6.708" stroke-linejoin="miter"></path></g></svg>