<svg id="nc_icon" version="1.1" xmlns="http://www.w3.org/2000/svg" xmlns:xlink="http://www.w3.org/1999/xlink" x="0px" y="0px" viewBox="0 0 24 24" xml:space="preserve" ><g transform="translate(0, 0)" class="nc-icon-wrapper" fill="none"><path data-cap="butt" data-color="color-2" fill="none" stroke="currentColor" vector-effect="non-scaling-stroke" stroke-miterlimit="10" d="M1.2529297,14.3312378 C2.4240723,14.7562256,3.6820679,15,5,15c2.6593018,0,5.145813-1.333374,7-3" stroke-linejoin="miter" stroke-linecap="butt"></path> <path data-cap="butt" data-color="color-2" fill="none" stroke="currentColor" vector-effect="non-scaling-stroke" stroke-miterlimit="10" d="M20.9023151,18.456234 c-0.463995-1.1562424-1.1209583-2.2564125-1.9995804-3.2387419C17.1298676,13.2353659,14.4783545,12.2709455,12,12" stroke-linejoin="miter" stroke-linecap="butt"></path> <path data-cap="butt" data-color="color-2" fill="none" stroke="currentColor" vector-effect="non-scaling-stroke" stroke-miterlimit="10" d="M11.8217068,1.0044372 C11.175292,2.06949,10.689539,3.2552481,10.4310713,4.5475869C9.9095392,7.1552467,10.7293749,9.8549681,12,12" stroke-linejoin="miter" stroke-linecap="butt"></path> <path data-cap="butt" data-color="color-2" fill="none" stroke="currentColor" vector-effect="non-scaling-stroke" stroke-miterlimit="10" d="M17.3281593,13.8517818 C15.4375,17.6875,12.5722227,20.2368031,4.4111114,19.9621506" stroke-linejoin="miter" stroke-linecap="butt"></path> <path data-cap="butt" data-color="color-2" fill="none" stroke="currentColor" vector-effect="non-scaling-stroke" stroke-miterlimit="10" d="M7.1778693,14.7093182 C4.25,11.208333,4.3508387,5.9546485,5.4462528,3.1648242" stroke-linejoin="miter" stroke-linecap="butt"></path> <path data-cap="butt" data-color="color-2" fill="none" stroke="currentColor" vector-effect="non-scaling-stroke" stroke-miterlimit="10" d="M10.2840385,6.6590414 c4.0490828-0.9206119,7.7757912-0.2417917,12.6933746,6.0515757" stroke-linejoin="miter" stroke-linecap="butt"></path> <circle fill="none" stroke="currentColor" vector-effect="non-scaling-stroke" stroke-linecap="square" stroke-miterlimit="10" cx="12" cy="12" r="11" stroke-linejoin="miter"></circle></g></svg>