<svg id="nc_icon" version="1.1" xmlns="http://www.w3.org/2000/svg" xmlns:xlink="http://www.w3.org/1999/xlink" x="0px" y="0px" viewBox="0 0 24 24" xml:space="preserve" ><g transform="translate(0, 0)" class="nc-icon-wrapper" fill="none"><path data-cap="butt" data-color="color-2" fill="none" stroke="currentColor" vector-effect="non-scaling-stroke" stroke-miterlimit="10" d="M1,6c0.8,0.6,1.9,1,3,1 c1.6,0,3.1-0.8,4-2c0.9,1.2,2.4,2,4,2s3.1-0.8,4-2c0.9,1.2,2.4,2,4,2c1.1,0,2.2-0.4,3-1" stroke-linejoin="miter" stroke-linecap="butt"></path> <polyline fill="none" stroke="currentColor" vector-effect="non-scaling-stroke" stroke-linecap="square" stroke-miterlimit="10" points="1,3 1,21 23,21 23,3 " stroke-linejoin="miter"></polyline> <polyline fill="none" stroke="currentColor" vector-effect="non-scaling-stroke" stroke-linecap="square" stroke-miterlimit="10" points="6,14 10,14 10,17 6,17 6,11 10,11 " stroke-linejoin="miter"></polyline> <rect x="14" y="11" fill="none" stroke="currentColor" vector-effect="non-scaling-stroke" stroke-linecap="square" stroke-miterlimit="10" width="4" height="6" stroke-linejoin="miter"></rect></g></svg>