<svg id="nc_icon" version="1.1" xmlns="http://www.w3.org/2000/svg" xmlns:xlink="http://www.w3.org/1999/xlink" x="0px" y="0px" viewBox="0 0 24 24" xml:space="preserve" ><g transform="translate(0, 0)" class="nc-icon-wrapper" fill="none"><path data-color="color-2" fill="none" stroke="currentColor" vector-effect="non-scaling-stroke" stroke-linecap="square" stroke-miterlimit="10" d="M11,7 c0-1.9,3-5,3-5s3,3.1,3,5s-1.5,3-3,3S11,8.9,11,7z" stroke-linejoin="miter"></path> <path data-cap="butt" fill="none" stroke="currentColor" vector-effect="non-scaling-stroke" stroke-miterlimit="10" d="M13.47633,15H19c2.81667,0,3,2,3,2 l-11.76496,4.52499c-0.78679,0.30261-1.66459,0.26023-2.41858-0.11676L1,18v-7h1c1.10457,0,3.90625,0.4375,5,2v0h3 c2.20914,0,4,1.79086,4,4v0H7" stroke-linejoin="miter" stroke-linecap="butt"></path></g></svg>