<svg id="nc_icon" version="1.1" xmlns="http://www.w3.org/2000/svg" xmlns:xlink="http://www.w3.org/1999/xlink" x="0px" y="0px" viewBox="0 0 24 24" xml:space="preserve" ><g transform="translate(0, 0)" class="nc-icon-wrapper" fill="none"><path data-cap="butt" data-color="color-2" fill="none" stroke="currentColor" vector-effect="non-scaling-stroke" stroke-miterlimit="10" d="M19.7,15.7 C18.2,17.1,16.2,18,14,18c-4.4,0-8-3.6-8-8c0-2.2,0.9-4.2,2.3-5.7" stroke-linejoin="miter" stroke-linecap="butt"></path> <path fill="none" stroke="currentColor" vector-effect="non-scaling-stroke" stroke-linecap="square" stroke-miterlimit="10" d="M17.6,13.6 c-0.5,0.3-1,0.4-1.6,0.4c-1.7,0-3-1.3-3-3c-1.7,0-3-1.3-3-3c0-0.6,0.2-1.1,0.4-1.6l-5-5c-4.7,4.7-4.7,12.4,0,17.1s12.4,4.7,17.1,0 L17.6,13.6z" stroke-linejoin="miter"></path></g></svg>