<svg id="nc_icon" version="1.1" xmlns="http://www.w3.org/2000/svg" xmlns:xlink="http://www.w3.org/1999/xlink" x="0px" y="0px" viewBox="0 0 24 24" xml:space="preserve" ><g transform="translate(0, 0)" class="nc-icon-wrapper" fill="none"><line data-cap="butt" fill="none" stroke="currentColor" vector-effect="non-scaling-stroke" stroke-miterlimit="10" x1="20" y1="7" x2="23" y2="7" stroke-linejoin="miter" stroke-linecap="butt"></line> <line data-cap="butt" fill="none" stroke="currentColor" vector-effect="non-scaling-stroke" stroke-miterlimit="10" x1="1" y1="7" x2="12.4" y2="7" stroke-linejoin="miter" stroke-linecap="butt"></line> <polyline data-cap="butt" fill="none" stroke="currentColor" vector-effect="non-scaling-stroke" stroke-miterlimit="10" points="20.3,3 23,3 23,23 1,23 1,3 16.4,3 " stroke-linejoin="miter" stroke-linecap="butt"></polyline> <line fill="none" stroke="currentColor" vector-effect="non-scaling-stroke" stroke-linecap="square" stroke-miterlimit="10" x1="6" y1="3" x2="6" y2="7" stroke-linejoin="miter"></line> <path data-color="color-2" fill="none" stroke="currentColor" vector-effect="non-scaling-stroke" stroke-linecap="square" stroke-miterlimit="10" d="M12.6,10.8 l-2-2L18,1.4c0.6-0.6,1.4-0.6,2,0l0,0c0.6,0.6,0.6,1.4,0,2L12.6,10.8z" stroke-linejoin="miter"></path> <path data-color="color-2" fill="none" stroke="currentColor" vector-effect="non-scaling-stroke" stroke-linecap="square" stroke-miterlimit="10" d="M6.8,11.8 c0.8-0.8,2-0.8,2.8,0c0.8,0.8,0.8,2,0,2.8c-0.8,0.8-3.5,0.7-3.5,0.7S6,12.5,6.8,11.8z" stroke-linejoin="miter"></path></g></svg>