<svg id="nc_icon" xmlns="http://www.w3.org/2000/svg" xmlns:xlink="http://www.w3.org/1999/xlink" x="0px" y="0px" viewBox="0 0 24 24" ><g transform="translate(0, 0)" class="nc-icon-wrapper" fill="none"><path data-cap="butt" data-color="color-2" d="M11,16,4.621,22.379a2.122,2.122,0,0,1-3,0h0a2.122,2.122,0,0,1,0-3L8,13" fill="none" stroke="currentColor" stroke-miterlimit="10" vector-effect="non-scaling-stroke" stroke-linecap="butt" stroke-linejoin="miter"></path> <path d="M8,13s3.8-8.578,5.611-10.389a5.5,5.5,0,0,1,7.778,7.778C19.241,12.537,11,16,11,16Z" fill="none" stroke="currentColor" stroke-miterlimit="10" vector-effect="non-scaling-stroke"></path> <path data-cap="butt" d="M8.921,13.921S14.189,6.811,16,5c2.148-2.148,4.561-3.218,5.389-2.389S21.148,5.852,19,8s-8.921,7.079-8.921,7.079" fill="none" stroke="currentColor" stroke-miterlimit="10" vector-effect="non-scaling-stroke" stroke-linecap="butt" stroke-linejoin="miter"></path></g></svg>