<svg id="nc_icon" version="1.1" xmlns="http://www.w3.org/2000/svg" xmlns:xlink="http://www.w3.org/1999/xlink" x="0px" y="0px" viewBox="0 0 24 24" xml:space="preserve" ><g transform="translate(0, 0)" class="nc-icon-wrapper" fill="none"><path fill="none" stroke="currentColor" vector-effect="non-scaling-stroke" stroke-linecap="square" stroke-miterlimit="10" d="M12,17 c-1.105,0-2-0.895-2-2s0.895-2,2-2c0.364,0,0.706,0.097,1,0.267" stroke-linejoin="miter"></path> <path fill="none" stroke="currentColor" vector-effect="non-scaling-stroke" stroke-linecap="square" stroke-miterlimit="10" d="M17.657,9.343 C16.209,7.895,14.209,7,12,7C9.791,7,7.791,7.895,6.343,9.343" stroke-linejoin="miter"></path> <path fill="none" stroke="currentColor" vector-effect="non-scaling-stroke" stroke-linecap="square" stroke-miterlimit="10" d="M21.899,5.101 C19.366,2.567,15.866,1,12,1C8.134,1,4.634,2.567,2.101,5.101" stroke-linejoin="miter"></path> <rect data-color="color-2" x="15" y="18" fill="none" stroke="currentColor" vector-effect="non-scaling-stroke" stroke-linecap="square" stroke-miterlimit="10" width="8" height="5" stroke-linejoin="miter"></rect> <path data-color="color-2" fill="none" stroke="currentColor" vector-effect="non-scaling-stroke" stroke-linecap="square" stroke-miterlimit="10" d="M17,18v-3 c0-1.1,0.9-2,2-2l0,0c1.1,0,2,0.9,2,2v3" stroke-linejoin="miter"></path></g></svg>