<svg id="nc_icon" version="1.1" xmlns="http://www.w3.org/2000/svg" xmlns:xlink="http://www.w3.org/1999/xlink" x="0px" y="0px" viewBox="0 0 24 24" xml:space="preserve" ><g transform="translate(0, 0)" class="nc-icon-wrapper" fill="none"><path data-cap="butt" data-color="color-2" fill="none" stroke="currentColor" vector-effect="non-scaling-stroke" stroke-miterlimit="10" d="M6.8794026,13.9312782 c1.8124995,1.28125,8.0037251,1.5410089,10.3787251,0.1347589" stroke-linejoin="miter" stroke-linecap="butt"></path> <path data-cap="butt" fill="none" stroke="currentColor" vector-effect="non-scaling-stroke" stroke-miterlimit="10" d="M6.5173078,15.5354223 C3.2301705,16.2271137,1,17.5196457,1,19c0,2.2091389,4.9248676,4,11,4s11-1.7908611,11-4 c0-1.4803543-2.1762314-2.7654381-5.4633694-3.4571285" stroke-linejoin="miter" stroke-linecap="butt"></path> <path data-cap="butt" fill="none" stroke="currentColor" vector-effect="non-scaling-stroke" stroke-miterlimit="10" d="M13,7c0,0,8.125,1.8125,9,0 c0.5-1.3125-7.3125-6-10-6S6,18,6,18s1.5833335,1,6,1s6-1,6-1L16.0270157,7.5377517" stroke-linejoin="miter" stroke-linecap="butt"></path></g></svg>