<svg id="nc_icon" version="1.1" xmlns="http://www.w3.org/2000/svg" xmlns:xlink="http://www.w3.org/1999/xlink" x="0px" y="0px" viewBox="0 0 24 24" xml:space="preserve" ><g transform="translate(0, 0)" class="nc-icon-wrapper" fill="none"><path data-cap="butt" fill="none" stroke="currentColor" vector-effect="non-scaling-stroke" stroke-miterlimit="10" d="M22.595,13.239 C21.92,13.087,21.221,13,20.5,13c-4.294,0-7.919,2.85-9.095,6.761" stroke-linejoin="miter" stroke-linecap="butt"></path> <path data-cap="butt" fill="none" stroke="currentColor" vector-effect="non-scaling-stroke" stroke-miterlimit="10" d="M14.125,1.032 C14.05,1.511,14,1.999,14,2.5c0,2.74,1.161,5.206,3.018,6.937" stroke-linejoin="miter" stroke-linecap="butt"></path> <path data-cap="butt" fill="none" stroke="currentColor" vector-effect="non-scaling-stroke" stroke-miterlimit="10" d="M4.027,9.973 c2.657-0.146,5.02-1.381,6.652-3.267" stroke-linejoin="miter" stroke-linecap="butt"></path> <path data-cap="butt" fill="none" stroke="currentColor" vector-effect="non-scaling-stroke" stroke-miterlimit="10" d="M10.042,1.659 C10.025,1.938,10,2.216,10,2.5c0,3.3,1.185,6.319,3.152,8.66" stroke-linejoin="miter" stroke-linecap="butt"></path> <path data-cap="butt" fill="none" stroke="currentColor" vector-effect="non-scaling-stroke" stroke-miterlimit="10" d="M22.905,9.226 C22.123,9.085,21.322,9,20.5,9c-5.898,0-10.899,3.788-12.737,9.059" stroke-linejoin="miter" stroke-linecap="butt"></path> <path data-cap="butt" data-color="color-2" fill="none" stroke="currentColor" vector-effect="non-scaling-stroke" stroke-linecap="butt" stroke-miterlimit="10" d="M6,23 H3c-1.105,0-2-0.895-2-2v0c0-1.105,0.895-2,2-2h1" stroke-linejoin="miter"></path> <circle fill="none" stroke="currentColor" vector-effect="non-scaling-stroke" stroke-linecap="square" stroke-miterlimit="10" cx="13.5" cy="10.5" r="9.5" stroke-linejoin="miter"></circle></g></svg>