<svg id="nc_icon" version="1.1" xmlns="http://www.w3.org/2000/svg" xmlns:xlink="http://www.w3.org/1999/xlink" x="0px" y="0px" viewBox="0 0 24 24" xml:space="preserve" ><g transform="translate(0, 0)" class="nc-icon-wrapper" fill="none"><path data-cap="butt" fill="none" stroke="currentColor" vector-effect="non-scaling-stroke" stroke-miterlimit="10" d="M12,23c-1.958-1.583-2.083-6.792,1-8 c1.636-0.641,2.166,2.937,5.375,2.042c0.621-0.173,2.083,0.708,1.551,2.052" stroke-linejoin="miter" stroke-linecap="butt"></path> <path data-cap="butt" fill="none" stroke="currentColor" vector-effect="non-scaling-stroke" stroke-miterlimit="10" d="M6.245,4.821 c0.631,0.466,1.174,1.036,1.638,1.814c0.405,0.679,1.306,2.57,0.481,3.638C7.43,11.48,4.727,11.887,4.727,13 c0,0.837,1.185,1.793,1.818,2.727c0.952,1.405,0.519,2.767,0,3.636c-0.269,0.451-0.721,0.816-1.198,1.103" stroke-linejoin="miter" stroke-linecap="butt"></path> <path data-cap="butt" fill="none" stroke="currentColor" vector-effect="non-scaling-stroke" stroke-miterlimit="10" d="M21.8,11c0.131,0.646,0.2,1.315,0.2,2 c0,5.523-4.477,10-10,10S2,18.523,2,13S6.477,3,12,3c0.494,0,0.98,0.036,1.455,0.105" stroke-linejoin="miter" stroke-linecap="butt"></path> <line data-color="color-2" fill="none" stroke="currentColor" vector-effect="non-scaling-stroke" stroke-linecap="square" stroke-miterlimit="10" x1="17" y1="9" x2="17" y2="12" stroke-linejoin="miter"></line> <circle data-color="color-2" fill="none" stroke="currentColor" vector-effect="non-scaling-stroke" stroke-linecap="square" stroke-miterlimit="10" cx="17" cy="5" r="4" stroke-linejoin="miter"></circle></g></svg>