<svg xmlns="http://www.w3.org/2000/svg" style="display: none;"><symbol id="nc-play" viewBox="0 0 16 16"><g><g class="nc-icon-wrapper" fill="currentColor"><path fill="currentColor" d="M13.6 7.2l-10-7A1 1 0 0 0 2 1v14c0 .8.9 1.3 1.6.8l10-7c.5-.4.5-1.2 0-1.6z"/></g></g></symbol><symbol id="nc-bold" viewBox="0 0 16 16"><g><g class="nc-icon-wrapper" fill="currentColor"><path fill="currentColor" d="M11.56 7.316a3.483 3.483 0 0 0 1.418-3.207C12.782 2.305 11.143 1 9.33 1H2v1l1.447.724A1 1 0 0 1 4 3.618v8.764a1 1 0 0 1-.553.894L2 14v1h7.823c2.104 0 3.98-1.547 4.162-3.643a4.001 4.001 0 0 0-2.424-4.04zM7 3h1a2 2 0 1 1 0 4H7V3zm2 10H7V9h2a2 2 0 1 1 0 4z"/></g></g></symbol><symbol id="nc-h1" viewBox="0 0 16 16"><g><g class="nc-icon-wrapper" fill="currentColor"><path d="M.5 2.05h2.686v4.964h5.389V2.05h2.686v11.9H8.575V9.258H3.186v4.692H.5V2.05zm12.18 4.91h2.83v6.99h-1.5V8.29h-1.33V6.96z" fill="currentColor" stroke="none" stroke-width="1" fill-rule="evenodd"/></g></g></symbol><symbol id="nc-h2" viewBox="0 0 16 16"><g><g class="nc-icon-wrapper" fill="currentColor"><path d="M.05 2.3h2.577v4.762h5.17V2.3h2.576v11.416H7.796V9.215h-5.17v4.5H.05V2.3zm13.992 7.324c.17-.24.254-.471.254-.695a.77.77 0 0 0-.22-.561.758.758 0 0 0-.567-.226c-.422 0-.822.3-1.199.902l-1.2-.71c.314-.486.658-.854 1.032-1.103.374-.25.85-.374 1.43-.374.578 0 1.087.184 1.525.551.438.368.657.869.657 1.502 0 .345-.088.676-.264.993-.176.316-.5.72-.973 1.213l-1.21 1.257h2.649v1.343h-4.73v-1.113l1.967-2.014c.396-.403.68-.725.849-.965z" fill="currentColor" stroke="none" stroke-width="1" fill-rule="evenodd"/></g></g></symbol><symbol id="nc-h3" viewBox="0 0 16 16"><g><g class="nc-icon-wrapper" fill="currentColor"><path d="M.1 2.27h2.589v4.784h5.194V2.27h2.589v11.47h-2.59V9.216H2.69v4.522H.1V2.27zm11.392 6.014V7.002h4.125v1.041L14.24 9.614c.54.09.958.317 1.253.68.296.363.443.782.443 1.258 0 .706-.239 1.26-.718 1.662-.478.402-1.09.603-1.836.603-.745 0-1.5-.264-2.265-.79l.617-1.196c.636.45 1.205.675 1.706.675.302 0 .551-.074.747-.222.196-.148.294-.361.294-.64a.78.78 0 0 0-.337-.666c-.225-.164-.537-.246-.935-.246-.212 0-.51.061-.896.183V9.807l1.291-1.523h-2.11z" fill="currentColor" stroke="none" stroke-width="1" fill-rule="evenodd"/></g></g></symbol><symbol id="nc-h4" viewBox="0 0 16 16"><g><g class="nc-icon-wrapper" fill="currentColor"><path d="M.09 2.3h2.57v4.75h5.158V2.3h2.571v11.39H7.82V9.198H2.66v4.49H.09V2.3zm13.629 8.499V9.63h1.435V10.8h.757v1.292h-.757v1.598H13.72v-1.598h-2.69v-1.139l2.384-3.953h1.627l-2.269 3.8h.948z" fill="currentColor" stroke="none" stroke-width="1" fill-rule="evenodd"/></g></g></symbol><symbol id="nc-italic" viewBox="0 0 16 16"><g><g class="nc-icon-wrapper" fill="currentColor"><path fill="currentColor" d="M12 2V0H6v2h1.27a.5.5 0 0 1 .496.57l-1.51 10.571a1 1 0 0 1-.99.859H4v2h6v-2H8.73a.5.5 0 0 1-.496-.57l1.51-10.571a1 1 0 0 1 .99-.859H12z"/></g></g></symbol><symbol id="nc-list-bullet" viewBox="0 0 16 16"><g><g class="nc-icon-wrapper" fill="currentColor"><circle data-color="color-2" cx="2" cy="2" r="2"/><circle data-color="color-2" cx="2" cy="8" r="2"/><circle data-color="color-2" cx="2" cy="14" r="2"/><path fill="currentColor" d="M6 1h10v2H6z"/><path fill="currentColor" d="M6 7h10v2H6z"/><path fill="currentColor" d="M6 13h10v2H6z"/></g></g></symbol><symbol id="nc-list-default" viewBox="0 0 16 16"><g><g class="nc-icon-wrapper" fill="currentColor"><path data-color="color-2" d="M1 9h7c.6 0 1-.4 1-1s-.4-1-1-1H1c-.6 0-1 .4-1 1s.4 1 1 1z"/><path fill="currentColor" d="M15 1H1c-.6 0-1 .4-1 1s.4 1 1 1h14c.6 0 1-.4 1-1s-.4-1-1-1z"/><path fill="currentColor" d="M15 13H1c-.6 0-1 .4-1 1s.4 1 1 1h14c.6 0 1-.4 1-1s-.4-1-1-1z"/></g></g></symbol><symbol id="nc-list-numbers" viewBox="0 0 16 16"><g><g class="nc-icon-wrapper" fill="currentColor"><path fill="currentColor" d="M5 1h11v2H5z"/><path fill="currentColor" d="M5 7h11v2H5z"/><path fill="currentColor" d="M5 13h11v2H5z"/><path data-color="color-2" d="M.368 4v-.549l.598-.048c.097-.007.11-.035.11-.139V.84c0-.083-.02-.125-.09-.145L.382.569.46 0h1.666v3.264c0 .111.007.132.111.139l.57.048V4H.368z"/><path data-color="color-2" d="M.047 10v-.63l.907-.886c.684-.663.975-.934.975-1.32 0-.25-.122-.433-.48-.433-.373 0-.529.122-.529.603L0 7.252C.007 6.176.826 6 1.536 6c1.05 0 1.422.447 1.422 1.083 0 .636-.44 1.056-.934 1.53l-.765.73h.995c.067 0 .095-.013.108-.08l.095-.535h.717V10H.047z"/><path data-color="color-2" d="M2.344 13.682c.567.087.88.427.88 1.026 0 .88-.66 1.292-1.612 1.292C.939 16 .34 15.76 0 15.387l.533-.586c.253.247.533.44.999.44.373 0 .693-.133.693-.6 0-.406-.253-.573-.666-.573a2.73 2.73 0 0 0-.493.047v-.666l.326-.04c.48-.06.74-.293.74-.72 0-.252-.114-.459-.487-.459-.36 0-.532.12-.532.593l-.913-.08c0-1.052.793-1.232 1.492-1.232 1.026 0 1.419.393 1.419 1.106 0 .56-.347.912-.767 1.039v.026z"/></g></g></symbol><symbol id="nc-p" viewBox="0 0 16 16"><g><g class="nc-icon-wrapper" fill="currentColor"><text fill="currentColor" stroke="none" stroke-width="1" fill-rule="evenodd" font-size="20" font-family="Montserrat-SemiBold, Montserrat" font-weight="500"><tspan x=".7" y="15">P</tspan></text></g></g></symbol><symbol id="nc-text-align-justify" viewBox="0 0 16 16"><g><g class="nc-icon-wrapper" fill="currentColor"><path fill="currentColor" d="M0 1h16v2H0z"/><path data-color="color-2" d="M0 5h16v2H0z"/><path fill="currentColor" d="M0 9h16v2H0z"/><path data-color="color-2" d="M0 13h16v2H0z"/></g></g></symbol><symbol id="nc-add" viewBox="0 0 16 16"><g><g class="nc-icon-wrapper" fill="currentColor"><path fill="currentColor" d="M8 0C3.6 0 0 3.6 0 8s3.6 8 8 8 8-3.6 8-8-3.6-8-8-8zm4 9H9v3H7V9H4V7h3V4h2v3h3v2z"/></g></g></symbol><symbol id="nc-align-bottom" viewBox="0 0 16 16"><g><g class="nc-icon-wrapper" fill="currentColor"><g fill-rule="nonzero" fill="currentColor" stroke="none" stroke-width="1"><path d="M15 16H1c-.552 0-1-.51-1-1.143V1.143C0 .512.448 0 1 0h14c.552 0 1 .512 1 1.143v13.714C16 15.49 15.552 16 15 16zM3 14h10a1 1 0 0 0 1-1V3a1 1 0 0 0-1-1H3a1 1 0 0 0-1 1v10a1 1 0 0 0 1 1z"/><rect transform="rotate(90 8 11)" x="7" y="6" width="2" height="10" rx="1"/></g></g></g></symbol><symbol id="nc-align-middle" viewBox="0 0 16 16"><g><g class="nc-icon-wrapper" fill="currentColor"><g fill-rule="nonzero" fill="currentColor" stroke="none" stroke-width="1"><path d="M15 16H1c-.552 0-1-.51-1-1.143V1.143C0 .512.448 0 1 0h14c.552 0 1 .512 1 1.143v13.714C16 15.49 15.552 16 15 16zM3 14h10a1 1 0 0 0 1-1V3a1 1 0 0 0-1-1H3a1 1 0 0 0-1 1v10a1 1 0 0 0 1 1z"/><rect transform="rotate(90 8 8)" x="7" y="3" width="2" height="10" rx="1"/></g></g></g></symbol><symbol id="nc-align-top" viewBox="0 0 16 16"><g><g class="nc-icon-wrapper" fill="currentColor"><g fill-rule="nonzero" fill="currentColor" stroke="none" stroke-width="1"><path d="M15 16H1c-.552 0-1-.51-1-1.143V1.143C0 .512.448 0 1 0h14c.552 0 1 .512 1 1.143v13.714C16 15.49 15.552 16 15 16zM3 14h10a1 1 0 0 0 1-1V3a1 1 0 0 0-1-1H3a1 1 0 0 0-1 1v10a1 1 0 0 0 1 1z"/><rect transform="rotate(90 8 5)" x="7" y="0" width="2" height="10" rx="1"/></g></g></g></symbol><symbol id="nc-duplicate" viewBox="0 0 14 16"><g><g class="nc-icon-wrapper" fill="currentColor"><g transform="matrix(-1 0 0 1 14 0)" fill-rule="nonzero" fill="currentColor" stroke="none" stroke-width="1"><path d="M9 4H1c-.6 0-1 .4-1 1v10c0 .6.4 1 1 1h8c.6 0 1-.4 1-1V5c0-.6-.4-1-1-1z"/><path d="M13 0H3v2h9v11h2V1c0-.6-.4-1-1-1z"/></g></g></g></symbol><symbol id="nc-pin" viewBox="0 0 16 16"><g><g class="nc-icon-wrapper" fill="currentColor"><path fill="currentColor" d="M8 0C4.1 0 1 3.1 1 7c0 1.9.7 3.7 2.1 5 .1.1 4.1 3.7 4.2 3.8.4.3 1 .3 1.3 0 .1-.1 4.2-3.7 4.2-3.8 1.4-1.3 2.1-3.1 2.1-5 .1-3.9-3-7-6.9-7zm0 9c-1.1 0-2-.9-2-2s.9-2 2-2 2 .9 2 2-.9 2-2 2z"/></g></g></symbol><symbol id="nc-dashed" viewBox="0 0 16 16"><g><g class="nc-icon-wrapper" fill="currentColor"><g fill="currentColor" stroke="none" stroke-width="1" fill-rule="evenodd"><path d="M0 7h6v2H0z"/><path d="M10 7h6v2h-6z"/></g></g></g></symbol><symbol id="nc-dotted" viewBox="0 0 16 16"><g><g class="nc-icon-wrapper" fill="currentColor"><g fill="currentColor" stroke="none" stroke-width="1" fill-rule="evenodd"><path d="M1 7h2v2H1z"/><path d="M5 7h2v2H5z"/><path d="M9 7h2v2H9z"/><path d="M13 7h2v2h-2z"/></g></g></g></symbol><symbol id="nc-solid" viewBox="0 0 16 16"><g><g class="nc-icon-wrapper" fill="currentColor"><path d="M0 7h16v2H0z" fill="currentColor" stroke="none" stroke-width="1" fill-rule="evenodd"/></g></g></symbol><symbol id="nc-iframe" viewBox="0 0 16 16"><g><g class="nc-icon-wrapper" fill="currentColor"><path data-color="color-2" d="M16 12h-2v-2h-2v2h-2v2h2v2h2v-2h2z"/><path fill="currentColor" d="M8 13H2V5h12v3h2V2a1 1 0 0 0-1-1H1a1 1 0 0 0-1 1v12a1 1 0 0 0 1 1h7v-2z"/></g></g></symbol><symbol id="nc-align-left" viewBox="0 0 16 17"><g><g class="nc-icon-wrapper" fill="currentColor"><g transform="translate(0 1)" fill-rule="nonzero" fill="currentColor" stroke="none" stroke-width="1"><path d="M15 16H1c-.552 0-1-.51-1-1.143V1.143C0 .512.448 0 1 0h14c.552 0 1 .512 1 1.143v13.714C16 15.49 15.552 16 15 16zM3 14h10a1 1 0 0 0 1-1V3a1 1 0 0 0-1-1H3a1 1 0 0 0-1 1v10a1 1 0 0 0 1 1z" transform="rotate(90 8 8)"/><rect x="4" y="3" width="2" height="10" rx="1"/></g></g></g></symbol><symbol id="nc-align-right" viewBox="0 0 16 16"><g><g class="nc-icon-wrapper" fill="currentColor"><g fill-rule="nonzero" fill="currentColor" stroke="none" stroke-width="1"><path d="M15 16H1c-.552 0-1-.51-1-1.143V1.143C0 .512.448 0 1 0h14c.552 0 1 .512 1 1.143v13.714C16 15.49 15.552 16 15 16zM3 14h10a1 1 0 0 0 1-1V3a1 1 0 0 0-1-1H3a1 1 0 0 0-1 1v10a1 1 0 0 0 1 1z"/><rect transform="rotate(180 11 8)" x="10" y="3" width="2" height="10" rx="1"/></g></g></g></symbol><symbol id="nc-arrow-right" viewBox="0 0 16 16"><g><g class="nc-icon-wrapper" fill="currentColor"><path fill="currentColor" d="M9.3 1.3L7.9 2.7 12.2 7H0v2h12.2l-4.3 4.3 1.4 1.4L16 8z"/></g></g></symbol><symbol id="nc-brush" viewBox="0 0 16 16"><g><g class="nc-icon-wrapper" fill="currentColor"><g transform="translate(1)" fill-rule="nonzero" fill="currentColor" stroke="none" stroke-width="1"><path d="M0 9c0 1.7 1.3 3 3 3h2v2c0 1.1.9 2 2 2s2-.9 2-2v-2h2c1.7 0 3-1.3 3-3H0z"/><path d="M0 0h7l2 3 2-3h3v7H0z"/></g></g></g></symbol><symbol id="nc-circle" viewBox="0 0 16 16"><g><g class="nc-icon-wrapper" fill="currentColor"><circle cx="8" cy="8" r="5" fill="currentColor" stroke="none" stroke-width="1" fill-rule="evenodd"/></g></g></symbol><symbol id="nc-corners-round" viewBox="0 0 16 16"><g><g class="nc-icon-wrapper" fill="currentColor"><path d="M3 3c3.333 0 5.833 1 7.5 3 1.667 2 2.5 4.333 2.5 7h-3c-.011-2.144-.644-3.844-1.9-5.1C6.844 6.644 5.144 6.011 3 6V3z" fill="currentColor" stroke="none" stroke-width="1" fill-rule="evenodd"/></g></g></symbol><symbol id="nc-corners-square" viewBox="0 0 16 16"><g><g class="nc-icon-wrapper" fill="currentColor"><path d="M3 3h10v10h-3V6H3z" fill="currentColor" stroke="none" stroke-width="1" fill-rule="evenodd"/></g></g></symbol><symbol id="nc-cube" viewBox="0 0 16 16"><g><g class="nc-icon-wrapper" fill="currentColor"><path fill="currentColor" d="M15.4 3.1l-7-3c-.3-.1-.5-.1-.8 0l-7 3c-.4.1-.6.5-.6.9v8c0 .4.2.8.6.9l7 3c.1.1.3.1.4.1s.3 0 .4-.1l7-3c.4-.2.6-.5.6-.9V4c0-.4-.2-.8-.6-.9zM8 2.1L12.5 4 8 5.9 3.5 4 8 2.1zM2 5.5l5 2.1v5.8l-5-2.1V5.5zm7 8V7.7l5-2.1v5.8l-5 2.1z"/></g></g></symbol><symbol id="nc-font" viewBox="0 0 16 16"><g><g class="nc-icon-wrapper" fill="currentColor"><path fill="currentColor" d="M8 0H1v4h1l.724-1.447A1 1 0 0 1 3.618 2H7v11.28a1 1 0 0 1-.684.948L4 15v1h8v-1l-2.316-.772A1 1 0 0 1 9 13.279V2h3.382a1 1 0 0 1 .894.553L14 4h1V0H8z"/></g></g></symbol><symbol id="nc-link" viewBox="0 0 16 16"><g><g class="nc-icon-wrapper" fill="currentColor"><path data-color="color-2" d="M4.5 16c-1.2 0-2.3-.5-3.2-1.3-1.8-1.8-1.8-4.6 0-6.4l.7-.7L3.4 9l-.7.7c-1 1-1 2.6 0 3.6s2.6 1 3.6 0l3-3c1-1 1-2.6 0-3.6L8.6 6 10 4.6l.7.7c1.8 1.8 1.8 4.6 0 6.4l-3 3c-.8.8-2 1.3-3.2 1.3z"/><path fill="currentColor" d="M6 11.4l-.7-.7c-1.8-1.8-1.8-4.6 0-6.4l3-3c.9-.9 2-1.3 3.2-1.3s2.3.5 3.2 1.3c1.8 1.8 1.8 4.6 0 6.4l-.7.7L12.6 7l.7-.7c1-1 1-2.6 0-3.6s-2.6-1-3.6 0l-3 3c-1 1-1 2.6 0 3.6l.7.7L6 11.4z"/></g></g></symbol><symbol id="nc-more" viewBox="0 0 16 16"><g><g class="nc-icon-wrapper" fill="currentColor"><circle data-color="color-2" cx="8" cy="8" r="2"/><circle fill="currentColor" cx="2" cy="8" r="2"/><circle fill="currentColor" cx="14" cy="8" r="2"/></g></g></symbol><symbol id="nc-outline" viewBox="0 0 16 16"><g><g class="nc-icon-wrapper" fill="currentColor"><circle cx="8" cy="8" r="4" stroke-width="2" stroke="currentColor" fill="none" fill-rule="evenodd"/></g></g></symbol><symbol id="nc-pen" viewBox="0 0 16 16"><g><g class="nc-icon-wrapper" fill="currentColor"><path fill="currentColor" d="M8.1 3.5L.3 11.3c-.2.2-.3.4-.3.7v3c0 .6.4 1 1 1h3c.3 0 .5-.1.7-.3l7.8-7.8-4.4-4.4z"/><path data-color="color-2" d="M15.7 3.3l-3-3c-.4-.4-1-.4-1.4 0L9.5 2.1l4.4 4.4 1.8-1.8c.4-.4.4-1 0-1.4z"/></g></g></symbol><symbol id="nc-plus" viewBox="0 0 16 16"><g><g class="nc-icon-wrapper" fill="currentColor"><path fill="currentColor" d="M15 7H9V1c0-.6-.4-1-1-1S7 .4 7 1v6H1c-.6 0-1 .4-1 1s.4 1 1 1h6v6c0 .6.4 1 1 1s1-.4 1-1V9h6c.6 0 1-.4 1-1s-.4-1-1-1z"/></g></g></symbol><symbol id="nc-search" viewBox="0 0 16 16"><g><g class="nc-icon-wrapper" fill="currentColor"><path fill="currentColor" d="M7 14c-3.86 0-7-3.14-7-7s3.14-7 7-7 7 3.14 7 7-3.14 7-7 7zM7 2C4.243 2 2 4.243 2 7s2.243 5 5 5 5-2.243 5-5-2.243-5-5-5z"/><path data-color="color-2" d="M15.707 14.293L13.314 11.9a8.019 8.019 0 0 1-1.414 1.414l2.393 2.393a.997.997 0 0 0 1.414 0 .999.999 0 0 0 0-1.414z"/></g></g></symbol><symbol id="nc-star" viewBox="0 0 16 16"><g><g class="nc-icon-wrapper" fill="currentColor"><path fill="currentColor" d="M15.144 5.438l-4.316-.627L8.897.9C8.559.217 7.441.217 7.103.9l-1.93 3.911-4.317.627a1.002 1.002 0 0 0-.554 1.707l3.124 3.044-.737 4.299a1 1 0 0 0 1.451 1.054L8 13.513l3.861 2.03c.728.381 1.591-.234 1.451-1.054l-.737-4.299 3.124-3.044a1.003 1.003 0 0 0-.555-1.708z"/></g></g></symbol><symbol id="nc-text-align-center" viewBox="0 0 16 16"><g><g class="nc-icon-wrapper" fill="currentColor"><path fill="currentColor" d="M0 1h16v2H0z"/><path data-color="color-2" d="M3 5h10v2H3z"/><path fill="currentColor" d="M0 9h16v2H0z"/><path data-color="color-2" d="M3 13h10v2H3z"/></g></g></symbol><symbol id="nc-text-align-left" viewBox="0 0 16 16"><g><g class="nc-icon-wrapper" fill="currentColor"><path fill="currentColor" d="M0 1h16v2H0z"/><path data-color="color-2" d="M0 5h10v2H0z"/><path fill="currentColor" d="M0 9h16v2H0z"/><path data-color="color-2" d="M0 13h10v2H0z"/></g></g></symbol><symbol id="nc-text-align-right" viewBox="0 0 16 16"><g><g class="nc-icon-wrapper" fill="currentColor"><path fill="currentColor" d="M0 1h16v2H0z"/><path data-color="color-2" d="M6 5h10v2H6z"/><path fill="currentColor" d="M0 9h16v2H0z"/><path data-color="color-2" d="M6 13h10v2H6z"/></g></g></symbol><symbol id="nc-upload" viewBox="0 0 16 16"><g><g class="nc-icon-wrapper" fill="currentColor"><path fill="currentColor" d="M13 7.1V7c0-2.8-2.2-5-5-5-2.5 0-4.6 1.8-4.9 4.3C1.3 6.9 0 8.5 0 10.5 0 13 2 15 4.5 15H12c2.2 0 4-1.8 4-4 0-1.9-1.3-3.4-3-3.9zM9 10v3H7v-3H4l4-4 4 4H9z"/></g></g></symbol><symbol id="nc-check" viewBox="0 0 16 16"><g><g class="nc-icon-wrapper" fill="currentColor"><g id="check" stroke="none" stroke-width="1" fill="none" fill-rule="evenodd"><path d="M6.7 6.3c-.4-.4-1-.4-1.4 0-.4.4-.4 1 0 1.4l2 2c.2.2.4.3.7.3.3 0 .5-.1.7-.3l7-7c.4-.4.4-1 0-1.4-.4-.4-1-.4-1.4 0L8 7.6 6.7 6.3z" id="Shape" fill="currentColor" fill-rule="nonzero"/><path d="M8 15c3.9 0 7-3.1 7-7 0-.6-.4-1-1-1s-1 .4-1 1c0 2.8-2.2 5-5 5s-5-2.2-5-5 2.2-5 5-5c.6 0 1.1.1 1.7.3.5.2 1.1-.1 1.3-.6.2-.5-.1-1.1-.6-1.3C9.6 1.1 8.8 1 8 1 4.1 1 1 4.1 1 8s3.1 7 7 7z" id="Shape" fill="currentColor" fill-rule="nonzero"/></g></g></g></symbol><symbol id="nc-cog" viewBox="0 0 16 16"><g><g class="nc-icon-wrapper" fill="currentColor"><path fill="currentColor" d="M13.3 5.2l1.1-2.1L13 1.7l-2.1 1.1c-.3-.2-.7-.3-1.1-.4L9 0H7l-.8 2.3c-.3.1-.7.2-1 .4L3.1 1.6 1.6 3.1l1.1 2.1c-.2.3-.3.7-.4 1L0 7v2l2.3.8c.1.4.3.7.4 1.1L1.6 13 3 14.4l2.1-1.1c.3.2.7.3 1.1.4L7 16h2l.8-2.3c.4-.1.7-.3 1.1-.4l2.1 1.1 1.4-1.4-1.1-2.1c.2-.3.3-.7.4-1.1L16 9V7l-2.3-.8c-.1-.3-.2-.7-.4-1zM8 11c-1.7 0-3-1.3-3-3s1.3-3 3-3 3 1.3 3 3-1.3 3-3 3z"/></g></g></symbol><symbol id="nc-hover" viewBox="0 0 16 16"><g><g class="nc-icon-wrapper" fill="currentColor"><path data-color="color-2" d="M3 8.238V4.5C3 3.122 4.121 2 5.5 2S8 3.122 8 4.5v2.605l1.059.118A4.456 4.456 0 0 0 10 4.5C10 2.019 7.981 0 5.5 0S1 2.019 1 4.5c0 1.557.795 2.93 2 3.738z"/><path fill="currentColor" d="M13.9 16l1.066-3.554a3 3 0 0 0-2.542-3.843L7 8V4.5a1.5 1.5 0 1 0-3 0V12H3v-2h-.5A1.5 1.5 0 0 0 1 11.5v1.833c0 .95.285 1.87.79 2.667H13.9z"/></g></g></symbol><symbol id="nc-image" viewBox="0 0 16 16"><g><g class="nc-icon-wrapper" fill="currentColor"><path fill="currentColor" d="M15 16H1c-.6 0-1-.4-1-1V1c0-.6.4-1 1-1h14c.6 0 1 .4 1 1v14c0 .6-.4 1-1 1zM2 14h12V2H2v12z"/><path data-color="color-2" d="M6 4c.6 0 1 .4 1 1s-.4 1-1 1-1-.4-1-1 .4-1 1-1z"/><path data-color="color-2" d="M3 12l2-4 2 2 3-4 3 6z"/></g></g></symbol><symbol id="nc-remove" viewBox="0 0 16 16"><g><g class="nc-icon-wrapper" fill="currentColor"><g stroke="none" stroke-width="1" fill="none" fill-rule="evenodd"><path d="M8 0C3.6 0 0 3.6 0 8s3.6 8 8 8 8-3.6 8-8-3.6-8-8-8z" fill="none" fill-rule="nonzero"/><path fill="currentColor" d="M11.5 10.1l-1.4 1.4L8 9.4l-2.1 2.1-1.4-1.4L6.6 8 4.5 5.9l1.4-1.4L8 6.6l2.1-2.1 1.4 1.4L9.4 8z"/></g></g></g></symbol><symbol id="nc-settings" viewBox="0 0 16 16"><g><g class="nc-icon-wrapper" fill="currentColor"><path fill="currentColor" d="M5 5V1c0-.6-.4-1-1-1S3 .4 3 1v4c0 .6.4 1 1 1s1-.4 1-1z"/><path fill="currentColor" d="M1 11c0 1.3.9 2.4 2 2.8V15c0 .6.4 1 1 1s1-.4 1-1v-1-.2c1.2-.4 2-1.5 2-2.8 0-1.7-1.3-3-3-3s-3 1.3-3 3z"/><path data-color="color-2" d="M11 11v4c0 .6.4 1 1 1s1-.4 1-1v-4c0-.6-.4-1-1-1s-1 .4-1 1z"/><path data-color="color-2" d="M9 5c0 1.7 1.3 3 3 3s3-1.3 3-3c0-1.3-.9-2.4-2-2.8V1c0-.6-.4-1-1-1s-1 .4-1 1v1.2C9.9 2.6 9 3.7 9 5z"/></g></g></symbol><symbol id="nc-trash" viewBox="0 0 16 16"><g><g class="nc-icon-wrapper" fill="currentColor"><path fill="currentColor" d="M2 6v8c0 1.1.9 2 2 2h8c1.1 0 2-.9 2-2V6H2z"/><path data-color="color-2" d="M12 3V1c0-.6-.4-1-1-1H5c-.6 0-1 .4-1 1v2H0v2h16V3h-4zm-2 0H6V2h4v1z"/></g></g></symbol><symbol id="nc-uncheck" viewBox="0 0 16 16"><g><g class="nc-icon-wrapper" fill="currentColor"><g id="uncheck" stroke="none" stroke-width="1" fill="none" fill-rule="evenodd"><circle id="Oval" stroke="currentColor" stroke-width="2" cx="8" cy="8" r="6"/></g></g></g></symbol><symbol id="nc-button-2" viewBox="0 0 16 16"><g><g class="nc-icon-wrapper" fill="currentColor"><path data-color="color-2" d="M12.586 15l-3.793-3.793L7 14 5 6l8 2-2.793 1.793L14 13.586 12.586 15z"/><path fill="currentColor" d="M4 10H1a1 1 0 0 1-1-1V1a1 1 0 0 1 1-1h14a1 1 0 0 1 1 1v7h-2V2H2v6h2v2z"/></g></g></symbol><symbol id="nc-button" viewBox="0 0 16 16"><g><g class="nc-icon-wrapper" fill="currentColor"><path d="M12.424 5.603L7 5V1.5a1.5 1.5 0 1 0-3 0V9H3V7h-.5A1.5 1.5 0 0 0 1 8.5v1.833a5 5 0 0 0 1 3L4 16h9l1.966-6.554a3 3 0 0 0-2.542-3.843z" fill-rule="nonzero" fill="currentColor" stroke="none" stroke-width="1"/></g></g></symbol><symbol id="nc-desktop" viewBox="0 0 16 16"><g><g class="nc-icon-wrapper" fill="currentColor"><path fill="currentColor" d="M15 0H1C.4 0 0 .4 0 1v11c0 .6.4 1 1 1h5v1H3v2h10v-2h-3v-1h5c.6 0 1-.4 1-1V1c0-.6-.4-1-1-1zm-1 11H2V2h12v9z"/></g></g></symbol><symbol id="nc-divider" viewBox="0 0 16 16"><g><g class="nc-icon-wrapper" fill="currentColor"><path fill="currentColor" d="M1 1v3a1 1 0 0 0 1 1h12a1 1 0 0 0 1-1V1a1 1 0 0 0-1-1H2a1 1 0 0 0-1 1z"/><path fill="currentColor" d="M1 12v3a1 1 0 0 0 1 1h12a1 1 0 0 0 1-1v-3a1 1 0 0 0-1-1H2a1 1 0 0 0-1 1z"/><path data-color="color-2" d="M15 9H1a1 1 0 0 1 0-2h14a1 1 0 0 1 0 2z"/></g></g></symbol><symbol id="nc-lock" viewBox="0 0 16 16"><g><g class="nc-icon-wrapper" fill="currentColor"><path d="M13.417 6.4h-1.084V4.267C12.333 1.914 10.39 0 8 0S3.667 1.914 3.667 4.267V6.4H2.583c-.599 0-1.083.478-1.083 1.067v7.466c0 .59.484 1.067 1.083 1.067h10.834c.599 0 1.083-.478 1.083-1.067V7.467c0-.59-.484-1.067-1.083-1.067zM5.833 4.267c0-1.177.972-2.134 2.167-2.134 1.195 0 2.167.957 2.167 2.134V6.4H5.833V4.267z" fill-rule="nonzero" fill="currentColor" stroke="none" stroke-width="1"/></g></g></symbol><symbol id="nc-menu" viewBox="0 0 16 16"><g><g class="nc-icon-wrapper" fill="currentColor"><path data-color="color-2" d="M15 7H1c-.6 0-1 .4-1 1s.4 1 1 1h14c.6 0 1-.4 1-1s-.4-1-1-1z"/><path fill="currentColor" d="M15 1H1c-.6 0-1 .4-1 1s.4 1 1 1h14c.6 0 1-.4 1-1s-.4-1-1-1z"/><path fill="currentColor" d="M15 13H1c-.6 0-1 .4-1 1s.4 1 1 1h14c.6 0 1-.4 1-1s-.4-1-1-1z"/></g></g></symbol><symbol id="nc-phone" viewBox="0 0 16 16"><g><g class="nc-icon-wrapper" fill="currentColor"><g transform="translate(2)" fill-rule="nonzero" fill="currentColor" stroke="none" stroke-width="1"><path d="M10 16H2c-1.103 0-2-.897-2-2V2C0 .897.897 0 2 0h8c1.103 0 2 .897 2 2v12c0 1.103-.897 2-2 2zM2 2v12h8.001L10 2H2z"/><path d="M7 12v-2H5v2z"/></g></g></g></symbol><symbol id="nc-reorder" viewBox="0 0 16 16"><g><g class="nc-icon-wrapper" fill="currentColor"><g fill="currentColor" stroke="none" stroke-width="1" fill-rule="evenodd"><path d="M3 1h10v1H3z"/><path d="M1 4h14v11H1z"/></g></g></g></symbol><symbol id="nc-spacer" viewBox="0 0 16 16"><g><g class="nc-icon-wrapper" fill="currentColor"><path fill="currentColor" d="M2 6H0V1c0-.6.4-1 1-1h5v2H2v4z"/><path fill="currentColor" d="M16 6h-2V2h-4V0h5c.6 0 1 .4 1 1v5z"/><path fill="currentColor" d="M15 16h-5v-2h4v-4h2v5c0 .6-.4 1-1 1z"/><path fill="currentColor" d="M6 16H1c-.6 0-1-.4-1-1v-5h2v4h4v2z"/></g></g></symbol><symbol id="nc-tablet" viewBox="0 0 16 16"><g><g class="nc-icon-wrapper" fill="currentColor"><path d="M13 0H3a2 2 0 0 0-2 2v12a2 2 0 0 0 2 2h10a2 2 0 0 0 2-2V2a2 2 0 0 0-2-2zM7 15v-1h2v1H7zm6-3H3V2h10v10z" fill-rule="nonzero" fill="currentColor" stroke="none" stroke-width="1"/></g></g></symbol><symbol id="nc-unlock" viewBox="0 0 16 16"><g><g class="nc-icon-wrapper" fill="currentColor"><path d="M13.417 6.4h-1.084V4.267C12.333 1.914 10.39 0 8 0S3.667 1.914 3.667 4.267V6.4H2.583c-.599 0-1.083.478-1.083 1.067v7.466c0 .59.484 1.067 1.083 1.067h10.834c.599 0 1.083-.478 1.083-1.067V7.467c0-.59-.484-1.067-1.083-1.067zM5.833 4.267c0-1.177.972-2.134 2.167-2.134 1.195 0 2.167.957 2.167 2.134h2.166V6.4h-6.5V4.267z" fill-rule="nonzero" fill="currentColor" stroke="none" stroke-width="1"/></g></g></symbol><symbol id="nc-upgrade" viewBox="0 0 32 32"><g><g class="nc-icon-wrapper" fill="currentColor"><circle fill="currentColor" cx="16" cy="6" r="1"/><path fill="currentColor" d="M18 24v-1c0-.77.297-1.468.775-2H0v1c0 2.757 2.243 5 5 5h13v-3z"/><path fill="currentColor" d="M27 4v10.09a5.964 5.964 0 0 1 2 .721V4c0-1.654-1.346-3-3-3H6C4.346 1 3 2.346 3 4v15h2V4c0-.551.448-1 1-1h20c.552 0 1 .449 1 1z"/><path data-color="color-2" d="M31 22h-1v-2c0-2.206-1.794-4-4-4s-4 1.794-4 4v2h-1a1 1 0 0 0-1 1v7a1 1 0 0 0 1 1h10a1 1 0 0 0 1-1v-7a1 1 0 0 0-1-1zm-7-2c0-1.103.897-2 2-2s2 .897 2 2v2h-4v-2z"/></g></g></symbol><symbol id="nc-close" viewBox="0 0 16 16"><g><g class="nc-icon-wrapper" fill="currentColor"><path d="M12.786 3.214a.69.69 0 0 0-1 0L8 7 4.214 3.214a.69.69 0 0 0-1 0 .69.69 0 0 0 0 1L7 8l-3.786 3.786a.69.69 0 0 0 0 1 .648.648 0 0 0 .5.214.648.648 0 0 0 .5-.214L8 9l3.786 3.786a.772.772 0 0 0 .5.214.772.772 0 0 0 .5-.214.69.69 0 0 0 0-1L9 8l3.786-3.786a.69.69 0 0 0 0-1z" fill-rule="nonzero" fill="currentColor" stroke="none" stroke-width="1"/></g></g></symbol><symbol id="nc-corners-all" viewBox="0 0 16 16"><g><g class="nc-icon-wrapper" fill="currentColor"><rect x="1" y="2" width="14" height="12" rx="3" stroke="currentColor" stroke-width="2" fill="none" fill-rule="evenodd"/></g></g></symbol><symbol id="nc-corners-bottom-right" viewBox="0 0 16 16"><g><g class="nc-icon-wrapper" fill="currentColor"><g stroke="none" stroke-width="1" fill="none" fill-rule="evenodd"><path d="M0 6V4c0-2 1.5-3 3-3h2v2H3.5C2.5 3 2 3.5 2 4.5V6H0z" fill="currentColor"/><path d="M11 6V4c0-2 1.5-3 3-3h2v2h-1.5c-1 0-1.5.5-1.5 1.5V6h-2z" fill="currentColor" transform="matrix(-1 0 0 1 27 0)"/><path d="M0 15v-2c0-2 1.5-3 3-3h2v2H3.5c-1 0-1.5.5-1.5 1.5V15H0z" fill="currentColor" transform="matrix(1 0 0 -1 0 25)"/><path d="M11 15v-2c0-2 1.5-3 3-3h2v2h-1.5c-1 0-1.5.5-1.5 1.5V15h-2z" fill="#22AFDA" transform="rotate(180 13.5 12.5)"/></g></g></g></symbol><symbol id="nc-corners-bottom-left" viewBox="0 0 16 16"><g><g class="nc-icon-wrapper" fill="currentColor"><g stroke="none" stroke-width="1" fill="none" fill-rule="evenodd"><path d="M0 6V4c0-2 1.5-3 3-3h2v2H3.5C2.5 3 2 3.5 2 4.5V6H0z" fill="currentColor"/><path d="M11 6V4c0-2 1.5-3 3-3h2v2h-1.5c-1 0-1.5.5-1.5 1.5V6h-2z" fill="currentColor" transform="matrix(-1 0 0 1 27 0)"/><path d="M0 15v-2c0-2 1.5-3 3-3h2v2H3.5c-1 0-1.5.5-1.5 1.5V15H0z" fill="#22AFDA" transform="matrix(1 0 0 -1 0 25)"/><path d="M11 15v-2c0-2 1.5-3 3-3h2v2h-1.5c-1 0-1.5.5-1.5 1.5V15h-2z" fill="currentColor" transform="rotate(180 13.5 12.5)"/></g></g></g></symbol><symbol id="nc-corners-individual" viewBox="0 0 16 16"><g><g class="nc-icon-wrapper" fill="currentColor"><g fill="currentColor" stroke="none" stroke-width="1" fill-rule="evenodd"><path d="M0 6V4c0-2 1.5-3 3-3h2v2H3.5C2.5 3 2 3.5 2 4.5V6H0z"/><path d="M11 6V4c0-2 1.5-3 3-3h2v2h-1.5c-1 0-1.5.5-1.5 1.5V6h-2z" transform="matrix(-1 0 0 1 27 0)"/><path d="M0 15v-2c0-2 1.5-3 3-3h2v2H3.5c-1 0-1.5.5-1.5 1.5V15H0z" transform="matrix(1 0 0 -1 0 25)"/><path d="M11 15v-2c0-2 1.5-3 3-3h2v2h-1.5c-1 0-1.5.5-1.5 1.5V15h-2z" transform="rotate(180 13.5 12.5)"/></g></g></g></symbol><symbol id="nc-corners-top-left" viewBox="0 0 16 16"><g><g class="nc-icon-wrapper" fill="currentColor"><g stroke="none" stroke-width="1" fill="none" fill-rule="evenodd"><path d="M0 6V4c0-2 1.5-3 3-3h2v2H3.5C2.5 3 2 3.5 2 4.5V6H0z" fill="#22AFDA"/><path d="M11 6V4c0-2 1.5-3 3-3h2v2h-1.5c-1 0-1.5.5-1.5 1.5V6h-2z" fill="currentColor" transform="matrix(-1 0 0 1 27 0)"/><path d="M0 15v-2c0-2 1.5-3 3-3h2v2H3.5c-1 0-1.5.5-1.5 1.5V15H0z" fill="currentColor" transform="matrix(1 0 0 -1 0 25)"/><path d="M11 15v-2c0-2 1.5-3 3-3h2v2h-1.5c-1 0-1.5.5-1.5 1.5V15h-2z" fill="currentColor" transform="rotate(180 13.5 12.5)"/></g></g></g></symbol><symbol id="nc-corners-top-right" viewBox="0 0 16 16"><g><g class="nc-icon-wrapper" fill="currentColor"><g stroke="none" stroke-width="1" fill="none" fill-rule="evenodd"><path d="M0 6V4c0-2 1.5-3 3-3h2v2H3.5C2.5 3 2 3.5 2 4.5V6H0z" fill="currentColor"/><path d="M11 6V4c0-2 1.5-3 3-3h2v2h-1.5c-1 0-1.5.5-1.5 1.5V6h-2z" fill="#22AFDA" transform="matrix(-1 0 0 1 27 0)"/><path d="M0 15v-2c0-2 1.5-3 3-3h2v2H3.5c-1 0-1.5.5-1.5 1.5V15H0z" fill="currentColor" transform="matrix(1 0 0 -1 0 25)"/><path d="M11 15v-2c0-2 1.5-3 3-3h2v2h-1.5c-1 0-1.5.5-1.5 1.5V15h-2z" fill="currentColor" transform="rotate(180 13.5 12.5)"/></g></g></g></symbol><symbol id="nc-horizontal" viewBox="0 0 16 16"><g><g class="nc-icon-wrapper" fill="currentColor"><g fill-rule="nonzero" fill="currentColor" stroke="none" stroke-width="1"><path transform="rotate(90 11.833 8)" d="M11.833 10.167h4.5l-4.5-4.334-4.5 4.334h2.834z"/><path transform="matrix(0 1 1 0 -3.833 3.833)" d="M4.167 10.167h4.5l-4.5-4.334-4.5 4.334H2.5z"/></g></g></g></symbol><symbol id="nc-redo" viewBox="0 0 16 16"><g><g class="nc-icon-wrapper" fill="currentColor"><path fill="currentColor" d="M10 4.6L8.6 6l3 3H6C4.3 9 3 7.7 3 6s1.3-3 3-3h8V1H6C3.2 1 1 3.2 1 6s2.2 5 5 5h5.6l-3 3 1.4 1.4 5.4-5.4L10 4.6z"/></g></g></symbol><symbol id="nc-size" viewBox="0 0 16 16"><g><g class="nc-icon-wrapper" fill="currentColor"><g fill-rule="nonzero" fill="currentColor" stroke="none" stroke-width="1"><path d="M15 8l-3-3v2h-2v2h2v2z"/><path d="M7 6h2V4h2L8 1 5 4h2z"/><path d="M9 10H7v2H5l3 3 3-3H9z"/><path d="M6 9V7H4V5L1 8l3 3V9z"/></g></g></g></symbol><symbol id="nc-styling-all" viewBox="0 0 16 16"><g><g class="nc-icon-wrapper" fill="currentColor"><g fill="currentColor" stroke="none" stroke-width="1" fill-rule="evenodd"><path d="M0 1h16v2H0z"/><path d="M0 13h16v2H0z"/><path transform="rotate(-90 1 8)" d="M-4 7H6v2H-4z"/><path transform="rotate(-90 15 8)" d="M10 7h10v2H10z"/></g></g></g></symbol><symbol id="nc-styling-bottom" viewBox="0 0 16 16"><g><g class="nc-icon-wrapper" fill="currentColor"><g stroke="none" stroke-width="1" fill="none" fill-rule="evenodd"><path fill="currentColor" d="M3 1h10v2H3z"/><path fill="#22AFDA" d="M3 13h10v2H3z"/><path fill="currentColor" transform="rotate(-90 1 8)" d="M-3 7h8v2h-8z"/><path fill="currentColor" transform="rotate(-90 15 8)" d="M11 7h8v2h-8z"/></g></g></g></symbol><symbol id="nc-styling-individual" viewBox="0 0 16 16"><g><g class="nc-icon-wrapper" fill="currentColor"><g fill="currentColor" stroke="none" stroke-width="1" fill-rule="evenodd"><path d="M3 1h10v2H3z"/><path d="M3 13h10v2H3z"/><path transform="rotate(-90 1 8)" d="M-3 7h8v2h-8z"/><path transform="rotate(-90 15 8)" d="M11 7h8v2h-8z"/></g></g></g></symbol><symbol id="nc-styling-left" viewBox="0 0 16 16"><g><g class="nc-icon-wrapper" fill="currentColor"><g stroke="none" stroke-width="1" fill="none" fill-rule="evenodd"><path fill="currentColor" d="M3 1h10v2H3z"/><path fill="currentColor" d="M3 13h10v2H3z"/><path fill="#22AFDA" transform="rotate(-90 1 8)" d="M-3 7h8v2h-8z"/><path fill="currentColor" transform="rotate(-90 15 8)" d="M11 7h8v2h-8z"/></g></g></g></symbol><symbol id="nc-styling-right" viewBox="0 0 16 16"><g><g class="nc-icon-wrapper" fill="currentColor"><g stroke="none" stroke-width="1" fill="none" fill-rule="evenodd"><path fill="currentColor" d="M3 1h10v2H3z"/><path fill="currentColor" d="M3 13h10v2H3z"/><path fill="currentColor" transform="rotate(-90 1 8)" d="M-3 7h8v2h-8z"/><path fill="#22AFDA" transform="rotate(-90 15 8)" d="M11 7h8v2h-8z"/></g></g></g></symbol><symbol id="nc-styling-top" viewBox="0 0 16 16"><g><g class="nc-icon-wrapper" fill="currentColor"><g stroke="none" stroke-width="1" fill="none" fill-rule="evenodd"><path fill="#22AFDA" d="M3 1h10v2H3z"/><path fill="currentColor" d="M3 13h10v2H3z"/><path fill="currentColor" transform="rotate(-90 1 8)" d="M-3 7h8v2h-8z"/><path fill="currentColor" transform="rotate(-90 15 8)" d="M11 7h8v2h-8z"/></g></g></g></symbol><symbol id="nc-styling" viewBox="0 0 16 16"><g><g class="nc-icon-wrapper" fill="currentColor"><path data-color="color-2" d="M2.2 5.6l3.4-3.4L3.7.3c-.4-.4-1-.4-1.4 0l-2 2c-.4.4-.4 1 0 1.4l1.9 1.9z"/><path data-color="color-2" d="M13.8 10.4l-3.4 3.4 1.9 1.9c.2.2.4.3.7.3h3v-3c0-.3-.1-.5-.3-.7l-1.9-1.9z"/><path fill="currentColor" d="M15.7 4.3l-4-4c-.4-.4-1-.4-1.4 0L9 1.6l1.7 1.7-1.4 1.4L7.6 3 6 4.6l1.7 1.7-1.4 1.4L4.6 6 3 7.6l1.7 1.7-1.4 1.4L1.6 9 .3 10.3c-.4.4-.4 1 0 1.4l4 4c.4.4 1 .4 1.4 0l10-10c.4-.4.4-1 0-1.4z"/></g></g></symbol><symbol id="nc-time" viewBox="0 0 16 16"><g><g class="nc-icon-wrapper" fill="currentColor"><path fill="currentColor" d="M12.7.3c-.4-.4-1-.4-1.4 0s-.4 1 0 1.4l.8.8-.9.9C10 2.5 8.6 2 7 2 3.1 2 0 5.1 0 9s3.1 7 7 7 7-3.1 7-7c0-1.6-.5-3-1.4-4.2l.9-.9.8.8c.2.2.4.3.7.3s.5-.1.7-.3c.4-.4.4-1 0-1.4l-3-3zM7 14c-2.8 0-5-2.2-5-5s2.2-5 5-5 5 2.2 5 5-2.2 5-5 5z"/><path data-color="color-2" d="M8 6H6v4h4V8H8z"/></g></g></symbol><symbol id="nc-undo" viewBox="0 0 16 16"><g><g class="nc-icon-wrapper" fill="currentColor"><path data-color="color-2" d="M2.502 12.333a6.996 6.996 0 0 1-1.405-3.168l1.973-.331a4.982 4.982 0 0 0 1.003 2.26l-1.571 1.239z"/><path data-color="color-2" d="M6.834 14.903a7.015 7.015 0 0 1-2.976-1.259l1.186-1.611c.624.459 1.358.77 2.122.898l-.332 1.972z"/><path data-color="color-2" d="M9.165 14.903l-.33-1.973a4.99 4.99 0 0 0 2.209-.964l1.219 1.586a6.997 6.997 0 0 1-3.098 1.351z"/><path fill="currentColor" d="M8 1c-1.873 0-3.65.759-4.948 2.052L.9.9.2 7.3l6.4-.7-2.135-2.135A5.023 5.023 0 0 1 8 3c2.757 0 5 2.243 5 5 0 1.06-.327 2.072-.947 2.928l1.621 1.173A6.96 6.96 0 0 0 15 8c0-3.86-3.141-7-7-7z"/></g></g></symbol><symbol id="nc-vertical" viewBox="0 0 16 16"><g><g class="nc-icon-wrapper" fill="currentColor"><g fill-rule="nonzero" fill="currentColor" stroke="none" stroke-width="1"><path d="M8 6.333h4.5L8 2 3.5 6.333h2.833z"/><path transform="matrix(1 0 0 -1 0 23.667)" d="M8 14h4.5L8 9.667 3.5 14h2.833z"/></g></g></g></symbol><symbol id="nc-check-small" viewBox="0 0 16 16"><g><g class="nc-icon-wrapper"><polygon fill="currentColor" points="12.4,6 11,4.6 7,8.6 5,6.6 3.6,8 7,11.4 "/></g></g></symbol><symbol id="nc-circle-remove" viewBox="0 0 16 16"><g><g class="nc-icon-wrapper"><path fill="currentColor" d="M8,0C3.6,0,0,3.6,0,8s3.6,8,8,8s8-3.6,8-8S12.4,0,8,0z M11.5,10.1l-1.4,1.4L8,9.4l-2.1,2.1l-1.4-1.4L6.6,8 L4.5,5.9l1.4-1.4L8,6.6l2.1-2.1l1.4,1.4L9.4,8L11.5,10.1z"/></g></g></symbol><symbol id="nc-stre-down" viewBox="0 0 16 16"><g><g class="nc-icon-wrapper"><path fill="currentColor" d="M8,12c-0.232,0-0.463-0.08-0.651-0.241l-7.759-6.65L0.892,3.59L8,9.683l7.108-6.093l1.302,1.519l-7.759,6.65 C8.463,11.92,8.232,12,8,12z"/></g></g></symbol><symbol id="nc-stre-up" viewBox="0 0 16 16"><g><g class="nc-icon-wrapper"><path fill="currentColor" d="M15.108,12.41L8,6.317L0.892,12.41l-1.302-1.519l7.759-6.65c0.375-0.322,0.927-0.322,1.302,0l7.759,6.65 L15.108,12.41z"/></g></g></symbol><symbol id="nc-alert-circle-que" viewBox="0 0 16 16"><g><g class="nc-icon-wrapper"><path fill="currentColor" d="M8,0C3.6,0,0,3.6,0,8s3.6,8,8,8s8-3.6,8-8S12.4,0,8,0z M8,13c-0.6,0-1-0.4-1-1c0-0.6,0.4-1,1-1s1,0.4,1,1 C9,12.6,8.6,13,8,13z M9.5,8.4C9,8.7,9,8.8,9,9v1H7V9c0-1.3,0.8-1.9,1.4-2.3C8.9,6.4,9,6.3,9,6c0-0.6-0.4-1-1-1 C7.6,5,7.3,5.2,7.1,5.5L6.6,6.4l-1.7-1l0.5-0.9C5.9,3.6,6.9,3,8,3c1.7,0,3,1.3,3,3C11,7.4,10.1,8,9.5,8.4z"/></g></g></symbol><symbol id="nc-grid-45" viewBox="0 0 16 16"><g><g class="nc-icon-wrapper"><path fill="currentColor" d="M6,0H1C0.4,0,0,0.4,0,1v5c0,0.6,0.4,1,1,1h5c0.6,0,1-0.4,1-1V1C7,0.4,6.6,0,6,0z"/> <path fill="currentColor" d="M15,0h-5C9.4,0,9,0.4,9,1v5c0,0.6,0.4,1,1,1h5c0.6,0,1-0.4,1-1V1C16,0.4,15.6,0,15,0z"/> <path fill="currentColor" d="M6,9H1c-0.6,0-1,0.4-1,1v5c0,0.6,0.4,1,1,1h5c0.6,0,1-0.4,1-1v-5C7,9.4,6.6,9,6,9z"/> <path fill="currentColor" d="M15,9h-5c-0.6,0-1,0.4-1,1v5c0,0.6,0.4,1,1,1h5c0.6,0,1-0.4,1-1v-5C16,9.4,15.6,9,15,9z"/></g></g></symbol><symbol id="nc-bars" viewBox="0 0 16 16"><g><g class="nc-icon-wrapper"><rect x="7" fill="currentColor" width="2" height="4"/> <rect x="10.243" y="2.757" transform="matrix(0.7071 -0.7071 0.7071 0.7071 0.929 9.7574)" opacity="0.9" fill="currentColor" width="4" height="2"/> <rect x="12" y="7" opacity="0.8" fill="currentColor" width="4" height="2"/> <rect x="11.243" y="10.243" transform="matrix(0.7071 -0.7071 0.7071 0.7071 -5.0711 12.2427)" opacity="0.7" fill="currentColor" width="2" height="4"/> <rect x="7" y="12" opacity="0.6" fill="currentColor" width="2" height="4"/> <rect x="1.758" y="11.243" transform="matrix(0.7071 -0.7071 0.7071 0.7071 -7.5564 6.2426)" opacity="0.5" fill="currentColor" width="4" height="2"/> <rect y="7" opacity="0.4" fill="currentColor" width="4" height="2"/> <rect x="2.757" y="1.758" transform="matrix(0.7071 -0.7071 0.7071 0.7071 -1.5563 3.7573)" opacity="0.3" fill="currentColor" width="2" height="4"/> </g></g></symbol><symbol id="nc-square-remove-09" viewBox="0 0 16 16"><g><g class="nc-icon-wrapper"><path fill="currentColor" d="M15,0H1C0.4,0,0,0.4,0,1v14c0,0.6,0.4,1,1,1h14c0.6,0,1-0.4,1-1V1C16,0.4,15.6,0,15,0z M11.5,10.1l-1.4,1.4 L8,9.4l-2.1,2.1l-1.4-1.4L6.6,8L4.5,5.9l1.4-1.4L8,6.6l2.1-2.1l1.4,1.4L9.4,8L11.5,10.1z"/></g></g></symbol><symbol id="nc-paragraph" viewBox="0 0 16 16"><g><g class="nc-icon-wrapper"><path fill="currentColor" d="M6,0H1C0.4,0,0,0.4,0,1v5c0,0.6,0.4,1,1,1h5c0.6,0,1-0.4,1-1V1C7,0.4,6.6,0,6,0z"/> <path fill="currentColor" d="M6,9H1c-0.6,0-1,0.4-1,1v5c0,0.6,0.4,1,1,1h5c0.6,0,1-0.4,1-1v-5C7,9.4,6.6,9,6,9z"/> <rect data-color="color-2" x="9" y="1" width="7" height="2"/> <rect data-color="color-2" x="9" y="4" width="7" height="2"/> <rect data-color="color-2" x="9" y="10" width="7" height="2"/> <rect data-color="color-2" x="9" y="13" width="7" height="2"/></g></g></symbol><symbol id="nc-zoom-e" viewBox="0 0 16 16"><g><g class="nc-icon-wrapper"><path fill="currentColor" d="M2,6H0V1c0-0.6,0.4-1,1-1h5v2H2V6z"/> <path fill="currentColor" d="M16,6h-2V2h-4V0h5c0.6,0,1,0.4,1,1V6z"/> <path fill="currentColor" d="M15,16h-5v-2h4v-4h2v5C16,15.6,15.6,16,15,16z"/> <path fill="currentColor" d="M6,16H1c-0.6,0-1-0.4-1-1v-5h2v4h4V16z"/></g></g></symbol><symbol id="nc-hourglass" viewBox="0 0 16 16"><g><g class="nc-icon-wrapper"><path fill="currentColor" d="M15,2c0.6,0,1-0.4,1-1s-0.4-1-1-1H1C0.4,0,0,0.4,0,1s0.4,1,1,1h1c0.1,2.4,0.8,4.5,2,6c-1.2,1.4-2,3.6-2,6H1 c-0.6,0-1,0.4-1,1s0.4,1,1,1h14c0.6,0,1-0.4,1-1s-0.4-1-1-1h-1c-0.1-2.5-0.8-4.6-2-6c1.3-1.5,2-3.6,2-6H15z M9.9,7.3L9,8.1l1,0.7 c1.2,0.9,2,2.9,2.1,5.2H4c0.1-2.3,0.9-4.3,2.1-5.2l1-0.7L6.1,7.3C4.8,6.1,4.1,4.2,4,2h8C11.9,4.2,11.2,6.1,9.9,7.3z"/></g></g></symbol><symbol id="nc-share-2" viewBox="0 0 16 16"><g><g class="nc-icon-wrapper"><path fill="currentColor" d="M12,6c1.654,0,3-1.346,3-3s-1.346-3-3-3S9,1.346,9,3c0,0.223,0.029,0.439,0.075,0.649l-3.22,2.012 C5.343,5.254,4.704,5,4,5C2.346,5,1,6.346,1,8s1.346,3,3,3c0.704,0,1.343-0.254,1.855-0.661l3.22,2.012C9.029,12.561,9,12.777,9,13 c0,1.654,1.346,3,3,3s3-1.346,3-3s-1.346-3-3-3c-0.704,0-1.343,0.254-1.855,0.661l-3.22-2.012C6.971,8.439,7,8.223,7,8 S6.971,7.561,6.925,7.351l3.22-2.012C10.657,5.746,11.296,6,12,6z"/></g></g></symbol><symbol id="nc-form" viewBox="0 0 16 16"><g><g class="nc-icon-wrapper"><path data-color="color-2" d="M15,16H9c-0.552,0-1-0.448-1-1v-1c0-0.552,0.448-1,1-1h6c0.552,0,1,0.448,1,1v1 C16,15.552,15.552,16,15,16z"/> <path fill="currentColor" d="M15,0H1C0.448,0,0,0.448,0,1v9c0,0.552,0.448,1,1,1h14c0.552,0,1-0.448,1-1V1C16,0.448,15.552,0,15,0z M14,9 H2V4h12V9z"/></g></g></symbol><symbol id="nc-circle-remove-2" viewBox="0 0 16 16"><g><g class="nc-icon-wrapper"><circle fill="none" stroke="currentColor" stroke-linecap="round" stroke-linejoin="round" stroke-miterlimit="10" cx="8.5" cy="8.5" r="7"/><line data-color="color-2" fill="none" stroke="currentColor" stroke-linecap="round" stroke-linejoin="round" stroke-miterlimit="10" x1="11.5" y1="5.5" x2="5.5" y2="11.5"/><line data-color="color-2" fill="none" stroke="currentColor" stroke-linecap="round" stroke-linejoin="round" stroke-miterlimit="10" x1="5.5" y1="5.5" x2="11.5" y2="11.5"/></g></g></symbol><symbol id="nc-eye-ban-18" viewBox="0 0 16 16"><g><g class="nc-icon-wrapper"><path fill="currentColor" d="M14.6,5.6l-8.2,8.2C6.9,13.9,7.5,14,8,14c3.6,0,6.4-3.1,7.6-4.9c0.5-0.7,0.5-1.6,0-2.3 C15.4,6.5,15,6.1,14.6,5.6z"/> <path fill="currentColor" d="M14.3,0.3L11.6,3C10.5,2.4,9.3,2,8,2C4.4,2,1.6,5.1,0.4,6.9c-0.5,0.7-0.5,1.6,0,2.2c0.5,0.8,1.4,1.8,2.4,2.7 l-2.5,2.5c-0.4,0.4-0.4,1,0,1.4C0.5,15.9,0.7,16,1,16s0.5-0.1,0.7-0.3l14-14c0.4-0.4,0.4-1,0-1.4S14.7-0.1,14.3,0.3z M5.3,9.3 C5.1,8.9,5,8.5,5,8c0-1.7,1.3-3,3-3c0.5,0,0.9,0.1,1.3,0.3L5.3,9.3z"/></g></g></symbol><symbol id="nc-eye-17" viewBox="0 0 16 16"><g><g class="nc-icon-wrapper"><path fill="currentColor" d="M8,14c3.6,0,6.4-3.1,7.6-4.9c0.5-0.7,0.5-1.6,0-2.3C14.4,5.1,11.6,2,8,2C4.4,2,1.6,5.1,0.4,6.9 c-0.5,0.7-0.5,1.6,0,2.2C1.6,10.9,4.4,14,8,14z M8,5c1.7,0,3,1.3,3,3s-1.3,3-3,3S5,9.7,5,8S6.3,5,8,5z"/></g></g></symbol><symbol id="nc-drag" viewBox="0 0 16 16"><g><g class="nc-icon-wrapper" fill="currentColor"><path fill="currentColor" d="M16 8l-3-3v2H9V3h2L8 0 5 3h2v4H3V5L0 8l3 3V9h4v4H5l3 3 3-3H9V9h4v2z"/></g></g></symbol><symbol id="nc-small" viewBox="0 0 16 16"><g><g class="nc-icon-wrapper" fill="currentColor"><path d="M8.01 13.004c2.598 0 3.876-1.336 3.876-3.107 0-3.616-5.561-2.585-5.561-4.11 0-.58.494-.958 1.365-.958.987 0 2.032.334 2.816 1.06l1.147-1.539C10.695 3.465 9.418 3 7.88 3c-2.28 0-3.674 1.336-3.674 2.947 0 3.645 5.576 2.469 5.576 4.153 0 .566-.538 1.074-1.685 1.074a4.255 4.255 0 0 1-3.078-1.321l-1.132 1.612c.915.914 2.25 1.539 4.123 1.539z" fill-rule="nonzero" fill="currentColor" stroke="none" stroke-width="1"/></g></g></symbol><symbol id="nc-medium" viewBox="0 0 16 16"><g><g class="nc-icon-wrapper" fill="currentColor"><path fill-rule="nonzero" fill="currentColor" stroke="none" stroke-width="1" d="M13.544 13V3h-3.067L7.992 9.288 5.508 3H2.456v10h2.178V5.731L7.517 13h.95l2.884-7.269V13z"/></g></g></symbol><symbol id="nc-large" viewBox="0 0 16 16"><g><g class="nc-icon-wrapper" fill="currentColor"><path fill-rule="nonzero" fill="currentColor" stroke="none" stroke-width="1" d="M11.392 13v-2.06H6.94V3H4.683v10z"/></g></g></symbol><symbol id="nc-16" viewBox="0 0 16 16"><g><g class="nc-icon-wrapper" fill="currentColor"><g fill="currentColor" stroke="none" stroke-width="1" fill-rule="evenodd"><path d="M1.014 3.1h3.934v9.8H3.072V4.752H1.014z"/><path d="M13.111 4.703a4.159 4.159 0 0 0-1.141-.161c-.877 0-1.538.294-1.981.882-.443.588-.651 1.39-.623 2.408a2.46 2.46 0 0 1 1.029-.973c.434-.22.95-.329 1.547-.329.97 0 1.74.285 2.31.854.57.57.854 1.33.854 2.282 0 .672-.145 1.258-.434 1.757-.29.5-.698.884-1.225 1.155-.527.27-1.141.406-1.841.406-.83 0-1.55-.191-2.156-.574-.607-.383-1.071-.933-1.393-1.652-.322-.719-.483-1.577-.483-2.576 0-1.036.175-1.944.525-2.723.35-.78.847-1.381 1.491-1.806.644-.425 1.4-.637 2.268-.637.504 0 1.024.068 1.561.203a5.43 5.43 0 0 1 1.407.553l-.714 1.4a3.245 3.245 0 0 0-1.001-.469zM10.15 8.476a1.603 1.603 0 0 0-.518 1.246c-.01.28.056.548.196.805s.352.467.637.63c.285.163.637.245 1.057.245.56 0 1.008-.154 1.344-.462.336-.308.504-.737.504-1.288 0-.513-.161-.922-.483-1.225-.322-.303-.758-.455-1.309-.455-.597 0-1.073.168-1.428.504z"/></g></g></g></symbol><symbol id="nc-24" viewBox="0 0 16 16"><g><g class="nc-icon-wrapper" fill="currentColor"><g fill="currentColor" stroke="none" stroke-width="1" fill-rule="evenodd"><path d="M7.784 11.262V12.9H.532v-1.358l3.696-3.808c.355-.355.64-.705.854-1.05.215-.345.322-.644.322-.896a.968.968 0 0 0-.42-.833c-.28-.2-.667-.301-1.162-.301-.43 0-.887.107-1.372.322a5.256 5.256 0 0 0-1.372.896L.336 4.43a7.256 7.256 0 0 1 1.827-1.043 5.3 5.3 0 0 1 1.925-.371c.644 0 1.213.103 1.708.308.495.205.88.497 1.155.875s.413.814.413 1.309c0 .476-.163.98-.49 1.512-.327.532-.784 1.106-1.372 1.722l-2.492 2.52h4.774z"/><path d="M15.71 8.98v1.61h-1.414v2.31H12.56v-2.31H7.87V9.204L11.062 3.1h1.806L9.872 8.98h2.688V6.712h1.736V8.98z"/></g></g></g></symbol><symbol id="nc-32" viewBox="0 0 16 16"><g><g class="nc-icon-wrapper" fill="currentColor"><g fill="currentColor" stroke="none" stroke-width="1" fill-rule="evenodd"><path d="M6.867 8.014c.537.467.805 1.078.805 1.834 0 .616-.159 1.16-.476 1.631-.317.471-.77.84-1.358 1.106-.588.266-1.274.399-2.058.399-.663 0-1.318-.1-1.967-.301-.649-.2-1.202-.469-1.659-.805l.742-1.456a4.321 4.321 0 0 0 2.758 1.008c.681 0 1.216-.14 1.603-.42.387-.28.581-.658.581-1.134 0-.485-.191-.856-.574-1.113-.383-.257-.929-.385-1.638-.385H2.142V7.244l2.632-2.548H.644L.63 3.1h6.552v1.162l-2.996 2.87.518.056c.905.084 1.626.36 2.163.826z"/><path d="M15.556 11.262V12.9H8.304v-1.358L12 7.734c.355-.355.64-.705.854-1.05.215-.345.322-.644.322-.896a.968.968 0 0 0-.42-.833c-.28-.2-.667-.301-1.162-.301-.43 0-.887.107-1.372.322a5.256 5.256 0 0 0-1.372.896L8.108 4.43a7.256 7.256 0 0 1 1.827-1.043 5.3 5.3 0 0 1 1.925-.371c.644 0 1.213.103 1.708.308.495.205.88.497 1.155.875s.413.814.413 1.309c0 .476-.163.98-.49 1.512-.327.532-.784 1.106-1.372 1.722l-2.492 2.52h4.774z"/></g></g></g></symbol><symbol id="nc-48" viewBox="0 0 16 16"><g><g class="nc-icon-wrapper" fill="currentColor"><g transform="translate(0 3)" fill="currentColor" stroke="none" stroke-width="1" fill-rule="evenodd"><path d="M7.952 5.98v1.61H6.538V9.9H4.802V7.59H.112V6.204L3.304.1H5.11L2.114 5.98h2.688V3.712h1.736V5.98z"/><path d="M14.597.709c.593.462.889 1.09.889 1.883 0 .448-.121.854-.364 1.218a2.451 2.451 0 0 1-1.008.854c.579.215 1.034.541 1.365.98.331.439.497.943.497 1.512 0 .57-.154 1.069-.462 1.498-.308.43-.749.758-1.323.987-.574.229-1.244.343-2.009.343-.765 0-1.435-.114-2.009-.343-.574-.229-1.015-.553-1.323-.973-.308-.42-.462-.915-.462-1.484 0-.579.173-1.09.518-1.533.345-.443.821-.772 1.428-.987a2.715 2.715 0 0 1-1.071-.896 2.15 2.15 0 0 1-.385-1.246c0-.765.296-1.374.889-1.827.593-.453 1.393-.679 2.401-.679 1.027 0 1.836.231 2.429.693zM10.915 1.71c-.303.233-.455.56-.455.98 0 .42.152.747.455.98.303.233.726.35 1.267.35.541 0 .961-.117 1.26-.35.299-.233.448-.56.448-.98 0-.42-.15-.747-.448-.98-.299-.233-.719-.35-1.26-.35s-.964.117-1.267.35zm-.231 4.158c-.355.261-.532.63-.532 1.106 0 .485.177.863.532 1.134.355.27.854.406 1.498.406.635 0 1.132-.133 1.491-.399.36-.266.539-.642.539-1.127 0-.476-.18-.847-.539-1.113-.36-.266-.861-.399-1.505-.399-.635 0-1.13.13-1.484.392z"/></g></g></g></symbol><symbol id="nc-64" viewBox="0 0 16 16"><g><g class="nc-icon-wrapper" fill="currentColor"><g transform="translate(.2 3)" fill="currentColor" stroke="none" stroke-width="1" fill-rule="evenodd"><path d="M5.537 1.703a4.159 4.159 0 0 0-1.141-.161c-.877 0-1.538.294-1.981.882-.443.588-.651 1.39-.623 2.408a2.46 2.46 0 0 1 1.029-.973c.434-.22.95-.329 1.547-.329.97 0 1.74.285 2.31.854.57.57.854 1.33.854 2.282 0 .672-.145 1.258-.434 1.757-.29.5-.698.884-1.225 1.155-.527.27-1.141.406-1.841.406-.83 0-1.55-.191-2.156-.574C1.269 9.027.805 8.477.483 7.758.161 7.039 0 6.181 0 5.182c0-1.036.175-1.944.525-2.723.35-.78.847-1.381 1.491-1.806.644-.425 1.4-.637 2.268-.637.504 0 1.024.068 1.561.203a5.43 5.43 0 0 1 1.407.553l-.714 1.4a3.245 3.245 0 0 0-1.001-.469zM2.576 5.476a1.603 1.603 0 0 0-.518 1.246c-.01.28.056.548.196.805s.352.467.637.63c.285.163.637.245 1.057.245.56 0 1.008-.154 1.344-.462.336-.308.504-.737.504-1.288 0-.513-.161-.922-.483-1.225-.322-.303-.758-.455-1.309-.455-.597 0-1.073.168-1.428.504z"/><path d="M15.724 5.98v1.61H14.31V9.9h-1.736V7.59h-4.69V6.204L11.076.1h1.806L9.886 5.98h2.688V3.712h1.736V5.98z"/></g></g></g></symbol><symbol id="nc-row" viewBox="0 0 16 17"><g><g class="nc-icon-wrapper" fill="currentColor"><path d="M14.77 0C15.507 0 16 .486 16 1.214v14.572c0 .728-.492 1.214-1.23 1.214H1.23C.493 17 0 16.514 0 15.786V1.214C0 .486.492 0 1.23 0h13.54zm-2 4H3.23C2.493 4 2 4.514 2 5.286v6.428C2 12.486 2.492 13 3.23 13h9.54c.738 0 1.23-.514 1.23-1.286V5.286C14 4.514 13.508 4 12.77 4z" fill="currentColor" stroke="none" stroke-width="1" fill-rule="evenodd"/></g></g></symbol><symbol id="nc-column" viewBox="0 0 16 17"><g><g class="nc-icon-wrapper" fill="currentColor"><path d="M14.77 0C15.507 0 16 .486 16 1.214v14.572c0 .728-.492 1.214-1.23 1.214H1.23C.493 17 0 16.514 0 15.786V1.214C0 .486.492 0 1.23 0h13.54zM12 13.77V3.23C12 2.493 11.486 2 10.714 2H5.286C4.514 2 4 2.492 4 3.23v10.54c0 .738.514 1.23 1.286 1.23h5.428c.772 0 1.286-.492 1.286-1.23z" fill="currentColor" stroke="none" stroke-width="1" fill-rule="evenodd"/></g></g></symbol><symbol id="nc-sound-cloud" viewBox="0 0 16 16"><g><g class="nc-icon-wrapper" fill="currentColor"><g fill-rule="nonzero" fill="currentColor" stroke="none" stroke-width="1"><path d="M2.777 5.974c-.279 0-.557.171-.557.343l-.279 4.628.279 3.086c0 .171.278.171.278.171.279 0 .279-.171.279-.171l.278-3.086V6.317c0-.172-.278-.343-.278-.343z"/><path d="M.945 8.209c-.25.008-.494.142-.49.267l-.132 3.382.328 2.24c.005.125.254.116.254.116.25-.009.245-.134.245-.134l.17-2.257-.117-3.373c-.004-.125-.258-.241-.258-.241z"/><path d="M6.57 14.202c.217 0 .434-.171.434-.343l.217-2.914-.217-7.2c0-.171-.217-.342-.433-.342-.217 0-.434.171-.434.342l-.216 7.2.216 2.914c0 .172.217.343.434.343z"/><path d="M4.53 14.202c.2 0 .4-.171.4-.343l.2-2.914-.2-6.342c0-.172-.2-.343-.4-.343s-.4.171-.4.343l-.2 6.342.2 2.914c0 .172.2.343.4.343z"/><path d="M13.084 7.517C13.87 4.35 12.37 1.86 9.502 1.86c-.497 0-.895.171-1.293.343-.2.171-.2.343-.2.514v11.142c0 .172.1.343.2.343h5.571c1.09 0 2.09-1.352 2.09-3.352 0-2-1-3-2.786-3.333z"/></g></g></g></symbol><symbol id="nc-progress" viewBox="0 0 16 16"><g><g class="nc-icon-wrapper" fill="currentColor"><g fill-rule="nonzero" stroke="none" stroke-width="1" fill="none"><path d="M9 1H2c-.6 0-1 .4-1 1v12c0 .6.4 1 1 1h7V1z" fill="currentColor"/><path d="M4 1.61v12.749L14 14V2H4v-.39z" stroke="currentColor" stroke-width="2"/></g></g></g></symbol><symbol id="nc-counter" viewBox="0 0 16 16"><g><g class="nc-icon-wrapper" fill="currentColor"><path d="M8 0C3.6 0 0 3.6 0 8s3.6 8 8 8 8-3.6 8-8-3.6-8-8-8zm4 9H7V4h2v3h3v2z" fill-rule="nonzero" fill="currentColor" stroke="none" stroke-width="1"/></g></g></symbol><symbol id="nc-shortcode" viewBox="0 0 16 16"><g><g class="nc-icon-wrapper" fill="currentColor"><g fill-rule="nonzero" fill="currentColor" stroke="none" stroke-width="1"><path d="M5 3c.5 0 1-.5 1-1s-.448-1-1-1H1a1 1 0 0 0-1 1v12a1 1 0 0 0 1 1h4a1 1 0 0 0 1-1c0-.552-.5-1-1-1h-.875C3.45 13 3 12.508 3 11.77V4.23C3 3.493 3.45 3 4.125 3H5z"/><path d="M11 3c-.5 0-1-.5-1-1s.448-1 1-1h4a1 1 0 0 1 1 1v12a1 1 0 0 1-1 1h-4a1 1 0 0 1-1-1c0-.552.5-1 1-1h.875C12.55 13 13 12.508 13 11.77V4.23C13 3.493 12.55 3 11.875 3H11z"/></g></g></g></symbol><symbol id="nc-sidebar" viewBox="0 0 16 16"><g><g class="nc-icon-wrapper" fill="currentColor"><path d="M15 1a1 1 0 0 1 1 1v12a1 1 0 0 1-1 1H1a1 1 0 0 1-1-1V2a1 1 0 0 1 1-1h14zm-5 10.77V4.23C10 3.493 9.486 3 8.714 3H3.286C2.514 3 2 3.492 2 4.23v7.54c0 .738.514 1.23 1.286 1.23h5.428C9.486 13 10 12.508 10 11.77z" fill-rule="nonzero" fill="currentColor" stroke="none" stroke-width="1"/></g></g></symbol><symbol id="nc-dark" viewBox="0 0 16 16"><g><g class="nc-icon-wrapper" fill="currentColor"><path d="M14.2 9.047a6.381 6.381 0 0 1-1.554.194 5.799 5.799 0 0 1-5.823-5.823c0-.517.065-1.035.194-1.553.065-.194 0-.453-.194-.647s-.388-.258-.647-.194C3.136 1.93 1 4.777 1 7.947a7.097 7.097 0 0 0 7.117 7.118c3.17 0 6.018-2.135 6.859-5.241.064-.194 0-.453-.194-.647a.62.62 0 0 0-.583-.13z" fill-rule="nonzero" fill="currentColor" stroke="none" stroke-width="1"/></g></g></symbol><symbol id="nc-light" viewBox="0 0 16 16"><g><g class="nc-icon-wrapper" fill="currentColor"><g fill-rule="nonzero" fill="currentColor" stroke="none" stroke-width="1"><path d="M1.87 2.813l.943-.943 1.415 1.415-.943.943z"/><path d="M11.772 3.285l1.414-1.415.943.943-1.414 1.415z"/><path d="M11.772 12.715l.943-.943 1.415 1.415-.943.943z"/><path d="M1.87 13.187l1.415-1.415.943.943-1.415 1.415z"/><circle cx="8" cy="8" r="4.668"/><path d="M-.002 7.333h2v1.334h-2z"/><path d="M7.333-.002h1.334v2H7.333z"/><path d="M14.001 7.333h2v1.334h-2z"/><path d="M7.333 14.001h1.334v2H7.333z"/></g></g></g></symbol><symbol id="nc-wp-shortcode" viewBox="0 0 16 16"><g><g class="nc-icon-wrapper" fill="currentColor"><g fill="currentColor" fill-rule="nonzero" stroke="none" stroke-width="1"><path d="M0 8c0 3.2 1.8 5.9 4.5 7.2L.7 4.7C.2 5.7 0 6.8 0 8z"/><path d="M13.4 7.6c0-1-.4-1.7-.7-2.2-.4-.7-.7-1.2-.7-1.9s.6-1.4 1.3-1.4h.1C12 .8 10.1 0 8 0 5.2 0 2.7 1.4 1.3 3.6c.2 0 2.7-.1 2.7-.1.4 0 .5.6.1.7 0 0-.4.1-.9.1L6 12.9l1.8-5.3-1.3-3.4c-.4 0-.8-.1-.8-.1-.4 0-.4-.7.1-.7 0 0 1.3.1 2.1.1s2.1-.1 2.1-.1c.4 0 .5.6.1.7 0 0-.4.1-.9.1l2.9 8.6.8-2.7c.2-1 .5-1.8.5-2.5z"/><path d="M8.1 8.7l-2.4 7c.8.2 1.5.3 2.3.3.9 0 1.8-.2 2.7-.5 0 0 0-.1-.1-.1L8.1 8.7z"/><path d="M15 4.2c0 .3.1.5.1.8 0 .8-.2 1.7-.6 2.9l-2.5 7c2.4-1.4 4-4 4-6.9 0-1.4-.4-2.7-1-3.8z"/></g></g></g></symbol><symbol id="nc-sndcloud-style-1" viewBox="0 0 16 16"><g><g class="nc-icon-wrapper" fill="currentColor"><g fill="currentColor" stroke="none" stroke-width="1" fill-rule="evenodd"><rect x="0" y="4" width="8" height="8" rx="1"/><rect x="10" y="7" width="1" height="5" rx=".5"/><rect x="9" y="9" width="1" height="3" rx=".5"/><rect x="13" y="8" width="1" height="4" rx=".5"/><rect x="11" y="8" width="1" height="4" rx=".5"/><rect x="12" y="6" width="1" height="6" rx=".5"/><rect x="14" y="7" width="1" height="5" rx=".5"/><rect x="15" y="9" width="1" height="3" rx=".5"/></g></g></g></symbol><symbol id="nc-sndcloud-style-2" viewBox="0 0 16 16"><g><g class="nc-icon-wrapper" fill="currentColor"><path d="M3 2h10a1 1 0 0 1 1 1v10a1 1 0 0 1-1 1H3a1 1 0 0 1-1-1V3a1 1 0 0 1 1-1zm1.5 6a.5.5 0 0 0-.5.5v4a.5.5 0 1 0 1 0v-4a.5.5 0 0 0-.5-.5zm-1 2a.5.5 0 0 0-.5.5v2a.5.5 0 1 0 1 0v-2a.5.5 0 0 0-.5-.5zm5 0a.5.5 0 0 0-.5.5v2a.5.5 0 1 0 1 0v-2a.5.5 0 0 0-.5-.5zm-3-1a.5.5 0 0 0-.5.5v3a.5.5 0 1 0 1 0v-3a.5.5 0 0 0-.5-.5zm1 1a.5.5 0 0 0-.5.5v2a.5.5 0 1 0 1 0v-2a.5.5 0 0 0-.5-.5zm5 0a.5.5 0 0 0-.5.5v2a.5.5 0 1 0 1 0v-2a.5.5 0 0 0-.5-.5zm1-1a.5.5 0 0 0-.5.5v3a.5.5 0 1 0 1 0v-3a.5.5 0 0 0-.5-.5zm-2 4a.5.5 0 0 0 .5-.5v-1a.5.5 0 1 0-1 0v1a.5.5 0 0 0 .5.5zm-1 0a.5.5 0 0 0 .5-.5v-4a.5.5 0 0 0-1 0v4a.5.5 0 0 0 .5.5zm-2-4a.5.5 0 0 0-.5.5v3a.5.5 0 1 0 1 0v-3a.5.5 0 0 0-.5-.5z" fill="currentColor" stroke="none" stroke-width="1" fill-rule="evenodd"/></g></g></symbol><symbol id="nc-circle-outline" viewBox="0 0 16 16"><g><g class="nc-icon-wrapper" fill="currentColor"><path d="M8 1C4.15 1 1 4.15 1 8s3.15 7 7 7 7-3.15 7-7-3.15-7-7-7zm0 12.25c-2.888 0-5.25-2.363-5.25-5.25 0-2.888 2.362-5.25 5.25-5.25 2.887 0 5.25 2.362 5.25 5.25 0 2.887-2.363 5.25-5.25 5.25z" fill="currentColor" fill-rule="nonzero" stroke="none" stroke-width="1"/></g></g></symbol><symbol id="nc-diamond-outline" viewBox="0 0 16 16"><g><g class="nc-icon-wrapper" fill="currentColor"><path d="M7.449 15.337L.497 8.386C.2 8.088.2 7.69.497 7.392L7.45.441c.298-.298.695-.298.993 0l6.951 6.951c.298.298.298.696 0 .994l-6.951 6.951c-.298.298-.695.298-.993 0zM2.8 7.889l5.144 5.144L13.09 7.89 7.945 2.745 2.801 7.889z" fill="currentColor" fill-rule="nonzero" stroke="none" stroke-width="1"/></g></g></symbol><symbol id="nc-dot" viewBox="0 0 16 16"><g><g class="nc-icon-wrapper" fill="currentColor"><path d="M8 4C5.8 4 4 5.8 4 8s1.8 4 4 4 4-1.8 4-4-1.8-4-4-4z" fill="currentColor" fill-rule="nonzero" stroke="none" stroke-width="1"/></g></g></symbol><symbol id="nc-fade" viewBox="0 0 16 16"><g><g class="nc-icon-wrapper"><g transform="translate(0 1)" fill-rule="nonzero" stroke="none" stroke-width="1" fill="none"><path fill="#FFF" d="M0 0h6v14H0z"/><path fill="#C6C8CC" opacity=".7" d="M9 0h3v14H9z"/><path d="M15.5 0a.5.5 0 0 1 .5.5v13a.5.5 0 1 1-1 0V.5a.5.5 0 0 1 .5-.5z" fill="#979AA1" opacity=".4"/></g></g></g></symbol><symbol id="nc-line" viewBox="0 0 16 16"><g><g class="nc-icon-wrapper" fill="currentColor"><path fill="currentColor" stroke="none" stroke-width="1" fill-rule="evenodd" d="M3 7h10v2H3z"/></g></g></symbol><symbol id="nc-none" viewBox="0 0 16 16"><g><g class="nc-icon-wrapper" fill="currentColor"><path d="M8 0C3.6 0 0 3.6 0 8s3.6 8 8 8 8-3.6 8-8-3.6-8-8-8zm0 2c1.3 0 2.5.4 3.5 1.1l-8.4 8.4C2.4 10.5 2 9.3 2 8c0-3.3 2.7-6 6-6zm0 12c-1.3 0-2.5-.4-3.5-1.1l8.4-8.4c.7 1 1.1 2.2 1.1 3.5 0 3.3-2.7 6-6 6z" fill="currentColor" fill-rule="nonzero" stroke="none" stroke-width="1"/></g></g></symbol><symbol id="nc-right-arrow-filled" viewBox="0 0 16 16"><g><g class="nc-icon-wrapper" fill="currentColor"><path d="M8 0C3.6 0 0 3.6 0 8s3.6 8 8 8 8-3.6 8-8-3.6-8-8-8zM7 11.4L5.6 10l2-2-2-2L7 4.6 10.4 8 7 11.4z" fill="currentColor" fill-rule="nonzero" stroke="none" stroke-width="1"/></g></g></symbol><symbol id="nc-right-arrow-heavy" viewBox="0 0 16 16"><g><g class="nc-icon-wrapper" fill="currentColor"><path d="M5.204 16L3 13.91 9.236 8 3 2.09 5.204 0l7.339 6.955c.61.578.61 1.512 0 2.09L5.204 16z" fill="currentColor" fill-rule="nonzero" stroke="none" stroke-width="1"/></g></g></symbol><symbol id="nc-right-arrow-outline" viewBox="0 0 16 16"><g><g class="nc-icon-wrapper" fill="currentColor"><g fill="currentColor" fill-rule="nonzero" stroke="none" stroke-width="1"><path d="M7 11.4L5.6 10l2-2-2-2L7 4.6 10.4 8z"/><path d="M8 0C3.6 0 0 3.6 0 8s3.6 8 8 8 8-3.6 8-8-3.6-8-8-8zm0 14c-3.3 0-6-2.7-6-6s2.7-6 6-6 6 2.7 6 6-2.7 6-6 6z"/></g></g></g></symbol><symbol id="nc-right-arrow-tail" viewBox="0 0 16 16"><g><g class="nc-icon-wrapper" fill="currentColor"><path d="M15.787 7.496L10.182 2 9.153 3.008l4.364 4.279H.727A.72.72 0 0 0 0 8a.72.72 0 0 0 .727.713h12.79l-4.364 4.279L10.182 14l5.605-5.496a.703.703 0 0 0 0-1.008z" fill="currentColor" fill-rule="nonzero" stroke="none" stroke-width="1"/></g></g></symbol><symbol id="nc-right-arrow-thin" viewBox="0 0 16 16"><g><g class="nc-icon-wrapper" fill="currentColor"><path d="M5.025 16L4 15.009 11.25 8 4 .991 5.025 0l7.762 7.504a.684.684 0 0 1 0 .992L5.025 16z" fill="currentColor" fill-rule="nonzero" stroke="none" stroke-width="1"/></g></g></symbol><symbol id="nc-slider-horizontal" viewBox="0 0 16 16"><g><g class="nc-icon-wrapper" fill="currentColor"><g fill="currentColor" stroke="none" stroke-width="1" fill-rule="evenodd"><path d="M1 1h14a1 1 0 0 1 1 1v1a1 1 0 0 1-2 0H2a1 1 0 1 1-2 0V2a1 1 0 0 1 1-1z"/><path d="M1 15h14a1 1 0 0 0 1-1v-1a1 1 0 0 0-2 0H2a1 1 0 0 0-2 0v1a1 1 0 0 0 1 1z"/><path d="M3.929 7h2.285C6.648 7 7 7.448 7 8s-.352 1-.786 1H3.93v3L0 8l3.929-4v3z" fill-rule="nonzero"/><path d="M12.071 7H9.786C9.352 7 9 7.448 9 8s.352 1 .786 1h2.285v3L16 8l-3.929-4v3z" fill-rule="nonzero"/></g></g></g></symbol><symbol id="nc-slider-vertical" viewBox="0 0 16 16"><g><g class="nc-icon-wrapper" fill="currentColor"><g transform="rotate(90 8 8)" fill="currentColor" stroke="none" stroke-width="1" fill-rule="evenodd"><path d="M3 0h10a1 1 0 0 1 1 1v1a1 1 0 0 1-2 0H4a1 1 0 1 1-2 0V1a1 1 0 0 1 1-1z"/><path d="M3 16h10a1 1 0 0 0 1-1v-1a1 1 0 0 0-2 0H4a1 1 0 0 0-2 0v1a1 1 0 0 0 1 1z"/><path d="M3.929 7h2.285C6.648 7 7 7.448 7 8s-.352 1-.786 1H3.93v3L0 8l3.929-4v3z" fill-rule="nonzero"/><path d="M12.071 7H9.786C9.352 7 9 7.448 9 8s.352 1 .786 1h2.285v3L16 8l-3.929-4v3z" fill-rule="nonzero"/></g></g></g></symbol><symbol id="nc-slider" viewBox="0 0 16 16"><g><g class="nc-icon-wrapper" fill="currentColor"><g fill="currentColor" stroke="none" stroke-width="1" fill-rule="evenodd"><rect x="1" y="6" width="14" height="9" rx="1"/><rect x="3" y="3" width="10" height="2" rx="1"/><rect x="5" y="1" width="6" height="1" rx=".5"/></g></g></g></symbol><symbol id="nc-square-outline" viewBox="0 0 16 16"><g><g class="nc-icon-wrapper" fill="currentColor"><path d="M14.125 15H1.875C1.35 15 1 14.65 1 14.125V1.875C1 1.35 1.35 1 1.875 1h12.25c.525 0 .875.35.875.875v12.25c0 .525-.35.875-.875.875zM2.75 13.25h10.5V2.75H2.75v10.5z" fill="currentColor" fill-rule="nonzero" stroke="none" stroke-width="1"/></g></g></symbol><symbol id="nc-align-horizontal" viewBox="0 0 16 16"><g><g class="nc-icon-wrapper" fill="currentColor"><g fill="currentColor" stroke="none" stroke-width="1" fill-rule="evenodd"><rect x="0" y="14" width="16" height="2" rx="1"/><rect x="3" y="6" width="10" height="4" rx="1"/><rect x="0" y="0" width="16" height="2" rx="1"/></g></g></g></symbol><symbol id="nc-align-vertical" viewBox="0 0 16 16"><g><g class="nc-icon-wrapper" fill="currentColor"><g transform="rotate(90 8 8)" fill="currentColor" stroke="none" stroke-width="1" fill-rule="evenodd"><rect x="0" y="14" width="16" height="2" rx="1"/><rect x="3" y="6" width="10" height="4" rx="1"/><rect x="0" y="0" width="16" height="2" rx="1"/></g></g></g></symbol><symbol id="nc-label-inside" viewBox="0 0 16 16"><g><g class="nc-icon-wrapper" fill="currentColor"><g stroke="none" stroke-width="1" fill="none" fill-rule="evenodd"><rect fill="currentColor" x="3" y="7" width="7" height="2" rx="1"/><rect stroke="currentColor" stroke-width="2" x="1" y="4" width="14" height="8" rx="1"/></g></g></g></symbol><symbol id="nc-label-outside" viewBox="0 0 16 16"><g><g class="nc-icon-wrapper" fill="currentColor"><g stroke="none" stroke-width="1" fill="none" fill-rule="evenodd"><rect fill="currentColor" x="1" y="2" width="7" height="2" rx="1"/><rect stroke="currentColor" stroke-width="2" x="1" y="6" width="14" height="7" rx="1"/></g></g></g></symbol><symbol id="nc-info" viewBox="0 0 16 16"><g><g class="nc-icon-wrapper" fill="currentColor"><path d="M8 0C3.584 0 0 3.584 0 8s3.584 8 8 8 8-3.584 8-8-3.584-8-8-8zm.8 12H7.2V7.2h1.6V12zm0-6.4H7.2V4h1.6v1.6z" fill="currentColor" fill-rule="nonzero" stroke="none" stroke-width="1"/></g></g></symbol><symbol id="nc-back" viewBox="0 0 16 16"><g><g class="nc-icon-wrapper" fill="currentColor"><g transform="rotate(-90 8 8)" fill="currentColor" fill-rule="nonzero" stroke="none" stroke-width="1"><path d="M7 4v4h2V4h3L8 0 4 4z"/><path d="M15 0h-3v2h2v9H2V2h2V0H1C.4 0 0 .4 0 1v14c0 .6.4 1 1 1h14c.6 0 1-.4 1-1V1c0-.6-.4-1-1-1z"/></g></g></g></symbol><symbol id="nc-countdown" viewBox="0 0 16 16"><g><g class="nc-icon-wrapper" fill="currentColor"><path d="M15 2c.6 0 1-.4 1-1s-.4-1-1-1H1C.4 0 0 .4 0 1s.4 1 1 1h1c.1 2.4.8 4.5 2 6-1.2 1.4-2 3.6-2 6H1c-.6 0-1 .4-1 1s.4 1 1 1h14c.6 0 1-.4 1-1s-.4-1-1-1h-1c-.1-2.5-.8-4.6-2-6 1.3-1.5 2-3.6 2-6h1zM9.9 7.3l-.9.8 1 .7c1.2.9 2 2.9 2.1 5.2H4c.1-2.3.9-4.3 2.1-5.2l1-.7-1-.8C4.8 6.1 4.1 4.2 4 2h8c-.1 2.2-.8 4.1-2.1 5.3z" fill="currentColor" fill-rule="nonzero" stroke="none" stroke-width="1"/></g></g></symbol><symbol id="nc-counter-outline" viewBox="0 0 16 16"><g><g class="nc-icon-wrapper" fill="currentColor"><g fill="currentColor" fill-rule="nonzero" stroke="none" stroke-width="1"><path d="M6.6 6.6c-.8.8-.8 2 0 2.8.8.8 2 .8 2.8 0 .8-.8 5-7.8 5-7.8s-7 4.2-7.8 5z"/><path d="M8 16c4.4 0 8-3.6 8-8 0-.6-.4-1-1-1s-1 .4-1 1c0 3.3-2.7 6-6 6s-6-2.7-6-6 2.7-6 6-6c.6 0 1-.4 1-1s-.4-1-1-1C3.6 0 0 3.6 0 8s3.6 8 8 8z"/></g></g></g></symbol><symbol id="nc-form-left" viewBox="0 0 16 16"><g><g class="nc-icon-wrapper" fill="currentColor"><g fill="currentColor" stroke="none" stroke-width="1" fill-rule="evenodd"><path d="M2 9V4h12v5l2 1V1a1 1 0 0 0-1-1H1a1 1 0 0 0-1 1v9a1 1 0 0 0 1 1h14a1 1 0 0 0 1-1V9H2z" fill-rule="nonzero"/><rect x="0" y="13" width="8" height="3" rx="1.5"/></g></g></g></symbol><symbol id="nc-full-cube" viewBox="0 0 16 16"><g><g class="nc-icon-wrapper" fill="currentColor"><g transform="translate(.5)" fill="currentColor" fill-rule="nonzero" stroke="none" stroke-width="1"><path d="M7.5 6l7-3L7.792.057c-.219-.076-.438-.076-.584 0L.5 3l7 3z"/><path d="M8 7v9l6.533-2.775c.311-.15.467-.375.467-.675V4L8 7z"/><path d="M7 7L0 4v8.55c0 .3.156.6.467.675L7 16V7z"/></g></g></g></symbol><symbol id="nc-save-section" viewBox="0 0 16 16"><g><g class="nc-icon-wrapper" fill="currentColor"><path d="M14.682 2.318a4.5 4.5 0 0 0-6.364 0c-.121.121-.214.259-.318.389-.104-.13-.197-.268-.318-.389a4.5 4.5 0 0 0-6.364 6.364L8 15l6.682-6.318a4.5 4.5 0 0 0 0-6.364z" fill="currentColor" fill-rule="nonzero" stroke="none" stroke-width="1"/></g></g></symbol><symbol id="nc-extensions" viewBox="0 0 16 16"><g><g class="nc-icon-wrapper" fill="currentColor"><path d="M15 0c.6 0 1 .4 1 1v11c0 .6-.4 1-1 1h-3.6l-2.7 2.7c-.2.2-.4.3-.7.3-.3 0-.5-.1-.7-.3L4.6 13H1c-.6 0-1-.4-1-1V1c0-.6.4-1 1-1h14zM4 4a1 1 0 1 0 0 2h8a1 1 0 0 0 0-2H4zm2 4a1 1 0 1 0 0 2h4a1 1 0 0 0 0-2H6z" fill="currentColor" fill-rule="nonzero" stroke="none" stroke-width="1"/></g></g></symbol><symbol id="nc-failure" viewBox="0 0 16 16"><g><g class="nc-icon-wrapper" fill="currentColor"><path d="M14.7 1.3c-.4-.4-1-.4-1.4 0L8 6.6 2.7 1.3c-.4-.4-1-.4-1.4 0-.4.4-.4 1 0 1.4L6.6 8l-5.3 5.3c-.4.4-.4 1 0 1.4.2.2.4.3.7.3.3 0 .5-.1.7-.3L8 9.4l5.3 5.3c.2.2.5.3.7.3.2 0 .5-.1.7-.3.4-.4.4-1 0-1.4L9.4 8l5.3-5.3c.4-.4.4-1 0-1.4z" fill="currentColor" fill-rule="nonzero" stroke="none" stroke-width="1"/></g></g></symbol><symbol id="nc-check-color" viewBox="0 0 16 16"><g><g class="nc-icon-wrapper"><g stroke="none" stroke-width="1" fill="none" fill-rule="evenodd"><path d="M8 0C3.6 0 0 3.6 0 8s3.6 8 8 8 8-3.6 8-8-3.6-8-8-8z" fill="#22AFDA" fill-rule="nonzero"/><path fill="#2B3039" d="M7 11.4L3.6 8 5 6.6l2 2 4-4L12.4 6z"/></g></g></g></symbol><symbol id="nc-success" viewBox="0 0 16 16"><g><g class="nc-icon-wrapper" fill="currentColor"><path d="M14.3 2.3L5 11.6 1.7 8.3c-.4-.4-1-.4-1.4 0-.4.4-.4 1 0 1.4l4 4c.2.2.4.3.7.3.3 0 .5-.1.7-.3l10-10c.4-.4.4-1 0-1.4-.4-.4-1-.4-1.4 0z" fill="currentColor" fill-rule="nonzero" stroke="none" stroke-width="1"/></g></g></symbol><symbol id="nc-brizy-logo-outline" viewBox="0 0 16 16"><g><g class="nc-icon-wrapper" fill="currentColor"><g stroke="none" stroke-width="1" fill="none" fill-rule="evenodd"><path d="M1.767 5.424L8.14 9.76l6.093-4.305L7.86 1.21 1.767 5.424z" stroke="currentColor" stroke-width="2"/><path fill="currentColor" d="M0 10.457L2.113 8.84 8.151 13l5.836-4.045L16 10.457l-7.85 5.431z"/></g></g></g></symbol><symbol id="nc-brizy-logo" viewBox="0 0 16 16"><g><g class="nc-icon-wrapper" fill="currentColor"><g fill="currentColor" stroke="none" stroke-width="1" fill-rule="evenodd"><path d="M0 5.43L7.85 0 16 5.43l-7.85 5.547z"/><path d="M0 10.457L2.113 8.84 8.151 13l5.836-4.045L16 10.457l-7.85 5.431z"/></g></g></g></symbol><symbol id="nc-circle-02" viewBox="0 0 16 16"><g><g class="nc-loop_circle-02-16" transform="rotate(359.71071426823204 8 8)"><path opacity="0.4" fill="currentColor" d="M8,16c-4.4111328,0-8-3.5888672-8-8s3.5888672-8,8-8s8,3.5888672,8,8S12.4111328,16,8,16z M8,2C4.6914062,2,2,4.6914062,2,8s2.6914062,6,6,6s6-2.6914062,6-6S11.3085938,2,8,2z"/><path data-color="color-2" d="M16,8h-2c0-3.3085938-2.6914062-6-6-6V0C12.4111328,0,16,3.5888672,16,8z"/></g><script>!function(){function t(t){this.element=t,this.animationId,this.start=null,this.init()}if(!window.requestAnimationFrame){var i=null;window.requestAnimationFrame=function(t,n){var e=(new Date).getTime();i||(i=e);var a=Math.max(0,16-(e-i)),o=window.setTimeout(function(){t(e+a)},a);return i=e+a,o}}t.prototype.init=function(){var t=this;this.animationId=window.requestAnimationFrame(t.triggerAnimation.bind(t))},t.prototype.reset=function(){var t=this;window.cancelAnimationFrame(t.animationId)},t.prototype.triggerAnimation=function(t){var i=this;this.start||(this.start=t);var n=t-this.start;504>n||(this.start=this.start+504),this.element.setAttribute("transform","rotate("+Math.min(n/1.4,360)+" 8 8)");if(document.documentElement.contains(this.element))window.requestAnimationFrame(i.triggerAnimation.bind(i))};var n=document.getElementsByClassName("nc-loop_circle-02-16"),e=[];if(n)for(var a=0;n.length>a;a++)!function(i){e.push(new t(n[i]))}(a);document.addEventListener("visibilitychange",function(){"hidden"==document.visibilityState?e.forEach(function(t){t.reset()}):e.forEach(function(t){t.init()})})}();</script></g></symbol><symbol id="nc-tabs" viewBox="0 0 16 16"><g><g class="nc-icon-wrapper" fill="currentColor"><g id="Page-1" stroke="none" stroke-width="1" fill="none" fill-rule="evenodd"><g id="tabs" fill="currentColor"><rect id="Rectangle" x="9" y="2" width="6" height="2" rx="1"/><path d="M2 1h5a1 1 0 0 1 1 1v3h6a1 1 0 0 1 1 1v8a1 1 0 0 1-1 1H2a1 1 0 0 1-1-1V2a1 1 0 0 1 1-1z" id="Rectangle-6"/></g></g></g></g></symbol><symbol id="nc-update" viewBox="0 0 16 16"><g><g class="nc-icon-wrapper" fill="currentColor"><g id="Page-1" stroke="none" stroke-width="1" fill="none" fill-rule="evenodd"><g id="Update" fill="currentColor" fill-rule="nonzero"><g id="file-upload-86" transform="translate(0 1)"><path id="Shape" transform="matrix(1 0 0 -1 0 9)" d="M7 4v5h2V4h3L8 0 4 4z"/><path d="M15 0h-3v2h2v10H2V2h2V0H1C.4 0 0 .4 0 1v12c0 .6.4 1 1 1h14c.6 0 1-.4 1-1V1c0-.6-.4-1-1-1z" id="Shape"/></g></g></g></g></g></symbol><symbol id="nc-background" viewBox="0 0 16 16"><g><g class="nc-icon-wrapper" fill="currentColor"><g id="Page-1" stroke="none" stroke-width="1" fill="none" fill-rule="evenodd"><g id="background-v4" fill="currentColor" fill-rule="nonzero"><path d="M15 0c.6 0 1 .4 1 1v14c0 .6-.4 1-1 1H1c-.6 0-1-.4-1-1V1c0-.6.4-1 1-1h14zM2 2.013v11.188c0 .48.32.799.8.799h11.187C11 11 4 4 2 2.013z" id="Combined-Shape" transform="rotate(180 8 8)"/></g></g></g></g></symbol><symbol id="nc-woo" viewBox="0 0 16 16"><g><g class="nc-icon-wrapper" fill="currentColor"><path d="M2 2h11.997C15 2 16 3 16 4v8c0 1-1 1.954-2.003 1.954H9.838l.641 1.57-2.82-1.57H2C1 13.954 0 13 0 12V4c0-1 1-2 2-2zm11.848 3.626a1.708 1.708 0 0 0-.352-.039c-.624 0-1.131.325-1.528.976a3.446 3.446 0 0 0-.507 1.834c0 .5.104.93.312 1.288.234.41.579.656 1.04.754.124.026.241.04.352.04.63 0 1.138-.326 1.528-.977.338-.559.508-1.17.508-1.84.006-.508-.104-.93-.313-1.282a1.498 1.498 0 0 0-1.04-.754zm-.274 3.519c-.188.169-.364.24-.526.208-.156-.033-.287-.17-.384-.423a1.65 1.65 0 0 1-.117-.592c0-.162.013-.325.045-.475.059-.266.17-.526.345-.774.215-.318.442-.448.677-.403.156.033.286.17.383.423.078.202.117.403.117.592 0 .169-.013.332-.045.481-.091.43-.254.748-.495.963zM9.777 5.626a1.708 1.708 0 0 0-.351-.039c-.624 0-1.132.325-1.529.976a3.446 3.446 0 0 0-.507 1.834c0 .5.104.93.312 1.288.235.41.58.656 1.041.754.124.026.24.04.351.04.631 0 1.138-.326 1.529-.977.338-.559.507-1.17.507-1.84 0-.508-.104-.93-.312-1.282a1.512 1.512 0 0 0-1.04-.754zm-.28 3.519c-.188.169-.364.24-.526.208-.156-.033-.287-.17-.384-.423a1.652 1.652 0 0 1-.117-.592c0-.162.013-.325.045-.475.059-.266.17-.526.345-.774.215-.318.442-.448.677-.403.156.033.286.17.383.423.078.202.117.403.117.592.007.169-.013.332-.045.481-.091.43-.254.748-.495.963zM1.321 5.158c-.182.013-.319.078-.41.201a.554.554 0 0 0-.104.436c.384 2.44.742 4.085 1.073 4.937.13.312.28.462.456.449.273-.02.598-.397.982-1.132.201-.416.513-1.04.936-1.873.351 1.229.833 2.152 1.438 2.77.169.176.344.254.513.241a.42.42 0 0 0 .345-.234.772.772 0 0 0 .078-.43c-.039-.591.02-1.417.182-2.477.17-1.093.378-1.88.631-2.348a.565.565 0 0 0 .065-.313.51.51 0 0 0-.201-.37.565.565 0 0 0-.41-.13.5.5 0 0 0-.43.286c-.403.735-.689 1.925-.858 3.577a12.155 12.155 0 0 1-.618-2.224c-.071-.384-.247-.566-.533-.547-.195.013-.358.143-.488.39L2.544 9.08a37.294 37.294 0 0 1-.657-3.454c-.046-.338-.234-.494-.566-.468z" fill="currentColor" fill-rule="nonzero" stroke="none" stroke-width="1"/></g></g></symbol><symbol id="nc-toggle" viewBox="0 0 16 16"><g><g class="nc-icon-wrapper" fill="currentColor"><g id="Page-1" stroke="none" stroke-width="1" fill="none" fill-rule="evenodd"><g id="toggle" fill="currentColor"><path d="M2 14V9h12v5l2 1V6a1 1 0 0 0-1-1H1a1 1 0 0 0-1 1v9a1 1 0 0 0 1 1h14a1 1 0 0 0 1-1v-1H2z" id="Shape" fill-rule="nonzero"/><rect id="Rectangle" x="0" y="0" width="16" height="3" rx="1"/></g></g></g></g></symbol><symbol id="nc-sticky-menu" viewBox="0 0 16 16"><g><g class="nc-icon-wrapper" fill="currentColor"><g id="Page-1" stroke="none" stroke-width="1" fill="none" fill-rule="evenodd"><g id="menu" fill="currentColor"><path d="M16 6H0V1.282C0 .836.046.675.134.512A.909.909 0 0 1 .512.134C.675.046.836 0 1.282 0h13.436c.446 0 .607.046.77.134.163.087.291.215.378.378.088.163.134.324.134.77V6zm0 2v6.718c0 .446-.046.607-.134.77a.909.909 0 0 1-.378.378c-.163.088-.324.134-.77.134H1.282c-.446 0-.607-.046-.77-.134a.909.909 0 0 1-.378-.378c-.088-.163-.134-.324-.134-.77V8h2v4.718c0 .446.046.607.134.77.087.163.215.291.378.378.163.088.324.134.77.134h9.436c.446 0 .607-.046.77-.134a.909.909 0 0 0 .378-.378c.088-.163.134-.324.134-.77V8h2z" id="Combined-Shape"/></g></g></g></g></symbol><symbol id="nc-img" viewBox="0 0 16 16"><g><g class="nc-icon-wrapper" fill="currentColor"><g id="background-v3" stroke="none" stroke-width="1" fill="none" fill-rule="evenodd"><path d="M15 0H1C.4 0 0 .4 0 1v14c0 .6.4 1 1 1h14c.6 0 1-.4 1-1V1c0-.6-.4-1-1-1zM6 4c.6 0 1 .4 1 1s-.4 1-1 1-1-.4-1-1 .4-1 1-1zm-3 8l2-4 2 2 3-4 3 6H3z" id="Shape" fill="currentColor" fill-rule="nonzero"/></g></g></g></symbol><symbol id="nc-banner" viewBox="0 0 16 16"><g><g class="nc-icon-wrapper" fill="currentColor"><g id="banner" stroke="none" stroke-width="1" fill="none" fill-rule="evenodd"><path d="M13 6l2-5H3c0-.6-.4-1-1-1S1 .4 1 1v14c0 .6.4 1 1 1s1-.4 1-1v-4h12l-2-5z" id="Shape" fill="currentColor" fill-rule="nonzero"/></g></g></g></symbol><symbol id="nc-down" viewBox="0 0 16 16"><g><g class="nc-icon-wrapper" fill="currentColor"><g id="down" stroke="none" stroke-width="1" fill="none" fill-rule="evenodd"><path id="Shape-Copy" fill="currentColor" fill-rule="nonzero" d="M13.05 8.975L12 7.925 8.775 11.15V2h-1.5v9.15L4.05 7.925 3 8.975 8.025 14z"/></g></g></g></symbol><symbol id="nc-up" viewBox="0 0 16 16"><g><g class="nc-icon-wrapper" fill="currentColor"><g id="up" stroke="none" stroke-width="1" fill="none" fill-rule="evenodd"><path id="Shape" fill="currentColor" fill-rule="nonzero" transform="matrix(1 0 0 -1 0 16)" d="M13.05 8.975L12 7.925 8.775 11.15V2h-1.5v9.15L4.05 7.925 3 8.975 8.025 14z"/></g></g></g></symbol><symbol id="nc-woo-2" viewBox="0 0 16 16"><g><g class="nc-icon-wrapper" fill="currentColor"><g id="woo-element" stroke="none" stroke-width="1" fill="none" fill-rule="evenodd"><path d="M2 0h11.997C15 0 16 1 16 2v10c0 1-1 1.954-2.003 1.954H9.838l.641 1.57-2.82-1.57H2C1 13.954 0 13 0 12V2c0-1 1-2 2-2zm11.848 4.626a1.708 1.708 0 0 0-.352-.039c-.624 0-1.131.325-1.528.976a3.446 3.446 0 0 0-.507 1.834c0 .5.104.93.312 1.288.234.41.579.656 1.04.754.124.026.241.04.352.04.63 0 1.138-.326 1.528-.977.338-.559.508-1.17.508-1.84.006-.508-.104-.93-.313-1.282a1.498 1.498 0 0 0-1.04-.754zm-.274 3.519c-.188.169-.364.24-.526.208-.156-.033-.287-.17-.384-.423a1.65 1.65 0 0 1-.117-.592c0-.162.013-.325.045-.475.059-.266.17-.526.345-.774.215-.318.442-.448.677-.403.156.033.286.17.383.423.078.202.117.403.117.592 0 .169-.013.332-.045.481-.091.43-.254.748-.495.963zM9.777 4.626a1.708 1.708 0 0 0-.351-.039c-.624 0-1.132.325-1.529.976a3.446 3.446 0 0 0-.507 1.834c0 .5.104.93.312 1.288.235.41.58.656 1.041.754.124.026.24.04.351.04.631 0 1.138-.326 1.529-.977.338-.559.507-1.17.507-1.84 0-.508-.104-.93-.312-1.282a1.512 1.512 0 0 0-1.04-.754zm-.28 3.519c-.188.169-.364.24-.526.208-.156-.033-.287-.17-.384-.423a1.652 1.652 0 0 1-.117-.592c0-.162.013-.325.045-.475.059-.266.17-.526.345-.774.215-.318.442-.448.677-.403.156.033.286.17.383.423.078.202.117.403.117.592.007.169-.013.332-.045.481-.091.43-.254.748-.495.963zM1.321 4.158c-.182.013-.319.078-.41.201a.554.554 0 0 0-.104.436c.384 2.44.742 4.085 1.073 4.937.13.312.28.462.456.449.273-.02.598-.397.982-1.132.201-.416.513-1.04.936-1.873.351 1.229.833 2.152 1.438 2.77.169.176.344.254.513.241a.42.42 0 0 0 .345-.234.772.772 0 0 0 .078-.43c-.039-.591.02-1.417.182-2.478.17-1.092.378-1.88.631-2.347a.565.565 0 0 0 .065-.313.51.51 0 0 0-.201-.37.565.565 0 0 0-.41-.13.5.5 0 0 0-.43.286c-.403.735-.689 1.925-.858 3.577a12.155 12.155 0 0 1-.618-2.224c-.071-.384-.247-.566-.533-.547-.195.013-.358.143-.488.39L2.544 8.08a37.294 37.294 0 0 1-.657-3.454c-.046-.338-.234-.494-.566-.468z" id="Combined-Shape" fill="currentColor" fill-rule="nonzero"/></g></g></g></symbol><symbol id="nc-block-switch" viewBox="0 0 16 16"><g><g class="nc-icon-wrapper" fill="currentColor"><g id="block-switch" stroke="none" stroke-width="1" fill="none" fill-rule="evenodd"><path d="M15.716 7.503l-3.428-6A.996.996 0 0 0 11.42 1H4.58a.999.999 0 0 0-.869.504l-3.429 6a.998.998 0 0 0 0 .992l3.43 6a.999.999 0 0 0 .867.503h6.84c.358 0 .69-.192.867-.504l3.43-6a.998.998 0 0 0 0-.991zM8.002 11a3 3 0 1 1 0-6 3 3 0 0 1 0 6z" id="Shape" fill="currentColor" fill-rule="nonzero" transform="rotate(90 8 8)"/></g></g></g></symbol><symbol id="nc-extensions-2" viewBox="0 0 16 16"><g><g class="nc-icon-wrapper" fill="currentColor"><g id="apps" stroke="none" stroke-width="1" fill="none" fill-rule="evenodd"><path d="M10.8 0a1.4 1.4 0 0 0-1.4 1.4v3.69H6.6V1.4a1.4 1.4 0 1 0-2.8 0v3.69H2a1 1 0 0 0-1 1v3.092C1 12.947 4.134 16 8 16s7-3.053 7-6.818V6.09a1 1 0 0 0-1-1h-1.8V1.4A1.4 1.4 0 0 0 10.8 0z" id="Shape" fill="currentColor" fill-rule="nonzero"/></g></g></g></symbol><symbol id="nc-global" viewBox="0 0 16 16"><g><g class="nc-icon-wrapper" fill="currentColor"><g id="global" stroke="none" stroke-width="1" fill="none" fill-rule="evenodd"><path d="M8 0C3.6 0 0 3.6 0 8s3.6 8 8 8 8-3.6 8-8-3.6-8-8-8zm5.9 7H12c-.1-1.5-.4-2.9-.8-4.1 1.4.9 2.4 2.4 2.7 4.1zM8 14c-.6 0-1.8-1.9-2-5h4c-.2 3.1-1.4 5-2 5zM6 7c.2-3.1 1.3-5 2-5s1.8 1.9 2 5H6zM4.9 2.9C4.4 4.1 4.1 5.5 4 7H2.1c.3-1.7 1.3-3.2 2.8-4.1zM2.1 9H4c.1 1.5.4 2.9.8 4.1-1.4-.9-2.4-2.4-2.7-4.1zm9 4.1c.5-1.2.7-2.6.8-4.1h1.9c-.2 1.7-1.2 3.2-2.7 4.1z" id="Shape" fill="currentColor" fill-rule="nonzero"/></g></g></g></symbol><symbol id="nc-arrow-left" viewBox="0 0 16 16"><g><g class="nc-icon-wrapper" fill="currentColor"><g id="arrow-left" stroke="none" stroke-width="1" fill="none" fill-rule="evenodd"><path id="Shape" fill="currentColor" fill-rule="nonzero" transform="matrix(-1 0 0 1 16 0)" d="M9.3 1.31l-1.4 1.4 4.3 4.3H0v2h12.2l-4.3 4.3 1.4 1.4 6.7-6.7z"/></g></g></g></symbol><symbol id="nc-blur" viewBox="0 0 16 16"><g><g class="nc-icon-wrapper" fill="currentColor"><g id="blur" stroke="none" stroke-width="1" fill="none" fill-rule="evenodd"><path d="M2.947 8.842a.845.845 0 0 0-.842.842c0 .463.38.842.842.842a.845.845 0 0 0 .842-.842.845.845 0 0 0-.842-.842zm0 3.369a.845.845 0 0 0-.842.842c0 .463.38.842.842.842a.845.845 0 0 0 .842-.842.845.845 0 0 0-.842-.842zm0-6.737a.845.845 0 0 0-.842.842c0 .463.38.842.842.842a.845.845 0 0 0 .842-.842.845.845 0 0 0-.842-.842zm-2.526.42A.422.422 0 0 0 0 6.317c0 .231.19.42.421.42.232 0 .421-.189.421-.42a.422.422 0 0 0-.42-.421zm2.526-3.789a.845.845 0 0 0-.842.842c0 .464.38.842.842.842a.845.845 0 0 0 .842-.842.845.845 0 0 0-.842-.842zM15.58 6.737c.232 0 .421-.19.421-.421a.422.422 0 0 0-.421-.421.422.422 0 0 0-.421.42c0 .232.19.422.42.422zM9.684 3.789a.845.845 0 0 0 .842-.842.845.845 0 0 0-.842-.842.845.845 0 0 0-.842.842c0 .464.38.842.842.842zm0-2.947c.232 0 .421-.19.421-.42A.422.422 0 0 0 9.685 0a.422.422 0 0 0-.422.421c0 .232.19.421.421.421zM.421 9.263A.422.422 0 0 0 0 9.684c0 .232.19.421.421.421.232 0 .421-.19.421-.42a.422.422 0 0 0-.42-.422zm5.895 5.895a.422.422 0 0 0-.421.42c0 .233.19.422.42.422.232 0 .422-.19.422-.421a.422.422 0 0 0-.421-.421zm0-14.316c.231 0 .42-.19.42-.42A.422.422 0 0 0 6.317 0a.422.422 0 0 0-.421.421c0 .232.19.421.42.421zm0 2.947a.845.845 0 0 0 .842-.842.845.845 0 0 0-.842-.842.845.845 0 0 0-.842.842c0 .464.379.842.842.842zm0 4.632c-.7 0-1.263.564-1.263 1.263 0 .7.564 1.263 1.263 1.263s1.263-.564 1.263-1.263-.564-1.263-1.263-1.263zm6.737.421a.845.845 0 0 0-.842.842c0 .463.378.842.842.842a.845.845 0 0 0 .842-.842.845.845 0 0 0-.842-.842zm0 3.369a.845.845 0 0 0-.842.842c0 .463.378.842.842.842a.845.845 0 0 0 .842-.842.845.845 0 0 0-.842-.842zm0-6.737a.845.845 0 0 0-.842.842c0 .463.378.842.842.842a.845.845 0 0 0 .842-.842.845.845 0 0 0-.842-.842zm0-3.369a.845.845 0 0 0-.842.842c0 .464.378.842.842.842a.845.845 0 0 0 .842-.842.845.845 0 0 0-.842-.842zm2.526 7.158a.422.422 0 0 0-.421.421c0 .232.19.421.42.421.233 0 .422-.19.422-.42a.422.422 0 0 0-.421-.422zm-5.895 2.948a.845.845 0 0 0-.842.842c0 .463.38.842.842.842a.845.845 0 0 0 .842-.842.845.845 0 0 0-.842-.842zm0 2.947a.422.422 0 0 0-.42.42c0 .233.189.422.42.422.232 0 .421-.19.421-.421a.422.422 0 0 0-.42-.421zM6.316 5.053c-.7 0-1.263.564-1.263 1.263s.564 1.263 1.263 1.263 1.263-.564 1.263-1.263c0-.7-.564-1.263-1.263-1.263zm0 7.158a.845.845 0 0 0-.842.842c0 .463.379.842.842.842a.845.845 0 0 0 .842-.842.845.845 0 0 0-.842-.842zm3.368-3.79c-.699 0-1.263.564-1.263 1.263 0 .7.564 1.263 1.263 1.263.7 0 1.263-.564 1.263-1.263s-.564-1.263-1.263-1.263zm0-3.368c-.699 0-1.263.564-1.263 1.263s.564 1.263 1.263 1.263c.7 0 1.263-.564 1.263-1.263 0-.7-.564-1.263-1.263-1.263z" id="Shape" fill="currentColor" fill-rule="nonzero"/></g></g></g></symbol><symbol id="nc-dynamic" viewBox="0 0 16 16"><g><g class="nc-icon-wrapper" fill="currentColor"><g id="dynamic" stroke="none" stroke-width="1" fill="none" fill-rule="evenodd"><path d="M8 1c-3.35 0-7 .64-7 2 0 1.36 3.65 2 7 2s7-.64 7-2c0-1.36-3.65-2-7-2z" id="Shape" fill="currentColor" fill-rule="nonzero"/><path d="M8 6.574C5.3 6.574 2.45 6.13 1 5v2.541C1 9.213 4.65 10 8 10s7-.787 7-2.459V5c-1.45 1.131-4.3 1.574-7 1.574z" id="Shape" fill="currentColor" fill-rule="nonzero"/><path d="M8 11.574c-2.7 0-5.55-.443-7-1.574v2.541C1 14.213 4.65 15 8 15s7-.787 7-2.459V10c-1.45 1.131-4.3 1.574-7 1.574z" id="Shape" fill="currentColor" fill-rule="nonzero"/></g></g></g></symbol><symbol id="nc-bug" viewBox="0 0 16 16"><g><g class="nc-icon-wrapper" fill="currentColor"><g id="bug" stroke="none" stroke-width="1" fill="none" fill-rule="evenodd"><path d="M16 4V3h-2v1c0 .6-.4 1-1 1h-1c-.3-.4-.6-.7-1-1V3c0-1.7-1.3-3-3-3S5 1.3 5 3v1c-.4.3-.7.6-1 1H3c-.6 0-1-.4-1-1V3H0v1c0 1.7 1.3 3 3 3h.1c-.1.3-.1.7-.1 1H0v2h3v1c-1.7 0-3 1.3-3 3v1h2v-1c0-.6.4-1 1-1h.4c.8 1.8 2.6 3 4.6 3 2 0 3.8-1.2 4.6-3h.4c.6 0 1 .4 1 1v1h2v-1c0-1.7-1.3-3-3-3v-1h3V8h-3c0-.3 0-.7-.1-1h.1c1.7 0 3-1.3 3-3z" id="Shape" fill="currentColor" fill-rule="nonzero"/></g></g></g></symbol><symbol id="nc-page" viewBox="0 0 16 16"><g><g class="nc-icon-wrapper" fill="currentColor"><g id="page" stroke="none" stroke-width="1" fill="none" fill-rule="evenodd"><path id="Shape" fill="currentColor" fill-rule="nonzero" d="M11 16v-4h4z"/><path d="M9 10h6V1c0-.6-.4-1-1-1H2c-.6 0-1 .4-1 1v14c0 .6.4 1 1 1h7v-6z" id="Shape" fill="currentColor" fill-rule="nonzero"/></g></g></g></symbol><symbol id="nc-blocks" viewBox="0 0 16 16"><g><g class="nc-icon-wrapper" fill="currentColor"><g id="slider" stroke="none" stroke-width="1" fill="none" fill-rule="evenodd"><rect id="Rectangle-3" fill="currentColor" x="1" y="6" width="14" height="9" rx="1"/><rect id="Rectangle-3" fill="currentColor" x="3" y="3" width="10" height="2" rx="1"/><rect id="Rectangle-3" fill="currentColor" x="5" y="1" width="6" height="1" rx=".5"/></g></g></g></symbol><symbol id="nc-pages" viewBox="0 0 16 16"><g><g class="nc-icon-wrapper" fill="currentColor"><g id="pages" stroke="none" stroke-width="1" fill="none" fill-rule="evenodd"><path d="M10 4H2c-.6 0-1 .4-1 1v10c0 .6.4 1 1 1h8c.6 0 1-.4 1-1V5c0-.6-.4-1-1-1z" id="Shape" fill="currentColor" fill-rule="nonzero"/><path d="M14 0H4v2h9v11h2V1c0-.6-.4-1-1-1z" id="Shape" fill="currentColor" fill-rule="nonzero"/></g></g></g></symbol><symbol id="nc-popup" viewBox="0 0 16 16"><g><g class="nc-icon-wrapper" fill="currentColor"><g id="popup" stroke="none" stroke-width="1" fill="none" fill-rule="evenodd"><path d="M8 13H2V5h12v3h2V2a1 1 0 0 0-1-1H1a1 1 0 0 0-1 1v12a1 1 0 0 0 1 1h7v-2z" id="Shape" fill="currentColor" fill-rule="nonzero"/><rect id="Rectangle" fill="currentColor" fill-rule="nonzero" x="12" y="11" width="4" height="4" rx="1"/></g></g></g></symbol><symbol id="nc-gallery" viewBox="0 0 16 16"><g><g class="nc-icon-wrapper" fill="currentColor"><g id="gallery" stroke="none" stroke-width="1" fill="none" fill-rule="evenodd"><path d="M6 9H1a1 1 0 0 1-1-1V1a1 1 0 0 1 1-1h5a1 1 0 0 1 1 1v7a1 1 0 0 1-1 1z" id="Shape" fill="currentColor" fill-rule="nonzero"/><path d="M6 16H1a1 1 0 0 1-1-1v-3a1 1 0 0 1 1-1h5a1 1 0 0 1 1 1v3a1 1 0 0 1-1 1z" id="Shape" fill="currentColor" fill-rule="nonzero"/><path d="M15 6h-5a1 1 0 0 1-1-1V1a1 1 0 0 1 1-1h5a1 1 0 0 1 1 1v4a1 1 0 0 1-1 1z" id="Shape" fill="currentColor" fill-rule="nonzero"/><path d="M15 16h-5a1 1 0 0 1-1-1V9a1 1 0 0 1 1-1h5a1 1 0 0 1 1 1v6a1 1 0 0 1-1 1z" id="Shape" fill="currentColor" fill-rule="nonzero"/></g></g></g></symbol></svg>
