<svg id="brz_icon" xmlns="http://www.w3.org/2000/svg" viewBox="0 0 16 16"><path fill="currentColor" fill-rule="nonzero" d="M6.938.09c3.988-.59 7.816 1.771 9.005 5.553.07.226.16.608-.305.945a3.999 3.999 0 0 1-1.631.688v-.013c-.051-.278-.13-.55-.237-.812.487-.073.95-.26 1.349-.544l-.082-.246C13.894 2.425 10.555.429 7.08.943 3.523 1.47.892 4.47.892 8c0 3.53 2.63 6.53 6.188 7.057 3.558.527 6.973-1.578 8.035-4.951.001-.004.004-.009.004-.013a3.139 3.139 0 0 0-1.35-.545c.107-.262.187-.533.238-.81v-.015a4 4 0 0 1 1.631.689c.465.337.375.719.305.945-1.189 3.782-5.017 6.143-9.005 5.553C2.949 15.32 0 11.958 0 8S2.95.68 6.938.09Zm2.061 2.34c1.517 0 2.919.793 3.677 2.082l.827 1.405c.099.168.186.344.26.524l.004.01c-.186.03-.375.045-.563.045-1.237 0-1.7-.406-2.238-.871-.518-.45-1.163-1.011-2.336-1.011h-.701c-.849 0-1.62.302-2.172.85A2.88 2.88 0 0 0 4.92 7.53v.942c0 .796.297 1.529.837 2.065.552.548 1.323.85 2.172.85h.7c1.173 0 1.82-.56 2.337-1.011.537-.467 1.001-.87 2.238-.87.188 0 .377.016.563.046l-.004.01c-.074.18-.161.356-.26.524l-.827 1.403A4.262 4.262 0 0 1 9 13.571H7.346a4.262 4.262 0 0 1-3.677-2.083l-.827-1.405a4.1 4.1 0 0 1 0-4.166l.827-1.405a4.262 4.262 0 0 1 3.677-2.083Zm-.37 3.037c1.882 0 1.733 1.882 4.575 1.882.269 0 .537-.025.802-.073.086.479.086.969 0 1.448a4.42 4.42 0 0 0-.802-.073c-2.841 0-2.693 1.882-4.574 1.882h-.701c-1.291 0-2.14-.904-2.14-2.062v-.942c0-1.158.849-2.062 2.14-2.062Z"/></svg>
