  <svg id="brz_icon" xmlns="http://www.w3.org/2000/svg" viewBox="0 0 16 16"><path style="fill:none;stroke-width:3;stroke-linecap:square;stroke-linejoin:miter;stroke-opacity:1;stroke-miterlimit:4;" d="M 36.015625 22.023438 L 40.105469 26.101562 C 43.960938 29.96875 43.960938 36.238281 40.105469 40.105469 C 36.238281 43.960938 29.96875 43.960938 26.101562 40.105469 L 19.808594 33.800781 C 15.941406 29.933594 15.941406 23.664062 19.808594 19.808594 C 21.074219 18.53125 22.597656 17.675781 24.214844 17.242188 " transform="matrix(0.333333,0,0,0.333333,0.166667,0.166667)" stroke="currentColor" /><path style="fill:none;stroke-width:3;stroke-linecap:square;stroke-linejoin:miter;stroke-opacity:1;stroke-miterlimit:4;" d="M 11.980469 25.984375 L 7.902344 21.90625 C 4.035156 18.039062 4.035156 11.769531 7.902344 7.902344 C 11.769531 4.035156 18.039062 4.035156 21.90625 7.902344 L 28.199219 14.207031 C 32.066406 18.074219 32.066406 24.332031 28.199219 28.199219 C 26.933594 29.476562 25.398438 30.332031 23.769531 30.765625 " transform="matrix(0.333333,0,0,0.333333,0.166667,0.166667)" stroke="currentColor" /><path style="fill:none;stroke-width:3;stroke-linecap:square;stroke-linejoin:miter;stroke-opacity:1;stroke-miterlimit:4;" d="M 34.503906 4.808594 L 33.003906 7.410156 " transform="matrix(0.333333,0,0,0.333333,0.166667,0.166667)" stroke="currentColor" /><path style="fill:none;stroke-width:3;stroke-linecap:square;stroke-linejoin:miter;stroke-opacity:1;stroke-miterlimit:4;" d="M 15.003906 40.585938 L 13.503906 43.1875 " transform="matrix(0.333333,0,0,0.333333,0.166667,0.166667)" stroke="currentColor" /><path style="fill:none;stroke-width:3;stroke-linecap:square;stroke-linejoin:miter;stroke-opacity:1;stroke-miterlimit:4;" d="M 43.1875 13.503906 L 40.585938 15.003906 " transform="matrix(0.333333,0,0,0.333333,0.166667,0.166667)" stroke="currentColor" /><path style="fill:none;stroke-width:3;stroke-linecap:square;stroke-linejoin:miter;stroke-opacity:1;stroke-miterlimit:4;" d="M 7.410156 33.003906 L 4.808594 34.503906 " transform="matrix(0.333333,0,0,0.333333,0.166667,0.166667)" stroke="currentColor"/></svg>
