<svg id="brz_icon" xmlns="http://www.w3.org/2000/svg" width="16" height="16"><path fill="currentColor" fill-rule="nonzero" d="M8.11.002c1.981.116 3.52 1.812 3.49 3.847v1.69c-.002 1.444-.823 2.754-2.104 3.354l.161.83c.087.454.414.819.847.946l3.626 1.769c.515.151.87.634.87 1.183v1.764c0 .34-.269.615-.6.615H1.6a.608.608 0 0 1-.6-.615V13.62c0-.55.355-1.033.87-1.184l3.626-1.77a1.22 1.22 0 0 0 .847-.943l.16-.83c-1.28-.6-2.102-1.91-2.103-3.354V3.694c0-1 .394-1.956 1.093-2.652A3.551 3.551 0 0 1 8.11.002ZM13 13H9v2h4v-2Z"/></svg>
