<svg id="brz_icon" xmlns="http://www.w3.org/2000/svg" viewBox="0 0 16 16"><path fill="currentColor" fill-rule="nonzero" d="M2 0h11.997C15 0 16 1 16 2v10c0 1-1 1.954-2.003 1.954H9.838l.641 1.57-2.82-1.57H2C1 13.954 0 13 0 12V2c0-1 1-2 2-2Zm11.848 4.626a1.708 1.708 0 0 0-.352-.039c-.624 0-1.131.325-1.528.976a3.446 3.446 0 0 0-.507 1.834c0 .5.104.93.312 1.288.234.41.579.656 1.04.754.124.026.241.04.352.04.63 0 1.138-.326 1.528-.977.338-.559.508-1.17.508-1.84.006-.508-.104-.93-.313-1.282a1.498 1.498 0 0 0-1.04-.754Zm-.274 3.519c-.188.169-.364.24-.526.208-.156-.033-.287-.17-.384-.423a1.65 1.65 0 0 1-.117-.592c0-.162.013-.325.045-.475.059-.266.17-.526.345-.774.215-.318.442-.448.677-.403.156.033.286.17.383.423.078.202.117.403.117.592 0 .169-.013.332-.045.481-.091.43-.254.748-.495.963ZM9.777 4.626a1.708 1.708 0 0 0-.351-.039c-.624 0-1.132.325-1.529.976a3.446 3.446 0 0 0-.507 1.834c0 .5.104.93.312 1.288.235.41.58.656 1.041.754.124.026.24.04.351.04.631 0 1.138-.326 1.529-.977.338-.559.507-1.17.507-1.84 0-.508-.104-.93-.312-1.282a1.512 1.512 0 0 0-1.04-.754Zm-.28 3.519c-.188.169-.364.24-.526.208-.156-.033-.287-.17-.384-.423a1.652 1.652 0 0 1-.117-.592c0-.162.013-.325.045-.475.059-.266.17-.526.345-.774.215-.318.442-.448.677-.403.156.033.286.17.383.423.078.202.117.403.117.592.007.169-.013.332-.045.481-.091.43-.254.748-.495.963ZM1.321 4.158c-.182.013-.319.078-.41.201a.554.554 0 0 0-.104.436c.384 2.44.742 4.085 1.073 4.937.13.312.28.462.456.449.273-.02.598-.397.982-1.132.201-.416.513-1.04.936-1.873.351 1.229.833 2.152 1.438 2.77.169.176.344.254.513.241a.42.42 0 0 0 .345-.234.772.772 0 0 0 .078-.43c-.039-.591.02-1.417.182-2.478.17-1.092.378-1.88.631-2.347a.565.565 0 0 0 .065-.313.51.51 0 0 0-.201-.37.565.565 0 0 0-.41-.13.5.5 0 0 0-.43.286c-.403.735-.689 1.925-.858 3.577a12.155 12.155 0 0 1-.618-2.224c-.071-.384-.247-.566-.533-.547-.195.013-.358.143-.488.39L2.544 8.08a37.294 37.294 0 0 1-.657-3.454c-.046-.338-.234-.494-.566-.468Z"/></svg>
