<svg id="brz_icon" viewBox="0 0 16 16"><path fill="currentColor" fill-rule="nonzero" d="M2 14h2a1 1 0 0 1 0 2H2a1 1 0 0 1 0-2Zm5 0h2a1 1 0 0 1 0 2H7a1 1 0 0 1 0-2Zm5 0h2a1 1 0 0 1 0 2h-2a1 1 0 0 1 0-2Zm2.923-14C15.518 0 16 .538 16 1.2v9.6c0 .662-.482 1.2-1.077 1.2H1.077C.482 12 0 11.462 0 10.8V1.2C0 .538.482 0 1.077 0h13.846Zm-5.48 4.923a.286.286 0 0 0-.227.115l-1.335 1.77a.287.287 0 0 1-.23.12.287.287 0 0 1-.231-.12l-.584-.836A.292.292 0 0 0 6.6 5.85a.292.292 0 0 0-.236.123L4.98 7.921a.325.325 0 0 0-.058.184v.203c0 .082.03.16.086.217.054.058.128.09.206.09h6.416a.284.284 0 0 0 .207-.09.316.316 0 0 0 .085-.217l-.006-.203a.33.33 0 0 0-.064-.196l-2.182-2.87a.286.286 0 0 0-.227-.116Zm-2.29-2.461a1 1 0 1 0 0 2 1 1 0 0 0 0-2Z"/></svg>
