<svg id="nc_icon" version="1.1" xmlns="http://www.w3.org/2000/svg" xmlns:xlink="http://www.w3.org/1999/xlink" x="0px" y="0px" viewBox="0 0 24 24" xml:space="preserve" ><g class="nc-icon-wrapper" fill="currentColor"><path data-color="color-2" fill="currentColor" d="M1.58203,16.00195c-0.39551,0-0.76954-0.23633-0.92676-0.62549 C0.2207,14.30225,0,13.1665,0,12c0-4.9624,4.03711-9,9-9c0.11621,0,0.23145,0.00342,0.3457,0.00879 C10.94727,1.71045,12.93945,1,15,1c4.96289,0,9,4.0376,9,9c0,1.16748-0.21973,2.30322-0.6543,3.37549 c-0.20703,0.51172-0.79004,0.75732-1.30176,0.55127c-0.51172-0.20703-0.75879-0.79004-0.55176-1.30225 C21.8291,11.79199,22,10.90918,22,10c0-3.85986-3.14062-7-7-7c-1.71289,0-3.36426,0.63232-4.65137,1.78076 c-0.20605,0.18262-0.47754,0.27441-0.75,0.25049C9.40039,5.01465,9.20215,5,9,5c-3.85938,0-7,3.14014-7,7 c0,0.9082,0.1709,1.7915,0.50879,2.62646c0.20703,0.51172-0.04004,1.09473-0.55176,1.30176 C1.83398,15.97803,1.70703,16.00195,1.58203,16.00195z"></path> <path fill="currentColor" d="M13,23V10.5C13,8.567,14.567,7,16.5,7H16.5C18.433,7,20,8.567,20,10.5V23H13z"></path> <path fill="currentColor" d="M4,23V12.5C4,10.567,5.567,9,7.5,9H7.5c1.933,0,3.5,1.567,3.5,3.5V23H4z"></path></g></svg>