<svg id="nc_icon" version="1.1" xmlns="http://www.w3.org/2000/svg" xmlns:xlink="http://www.w3.org/1999/xlink" x="0px" y="0px" viewBox="0 0 24 24" xml:space="preserve" ><g class="nc-icon-wrapper" fill="currentColor"><path data-color="color-2" fill="currentColor" d="M12,8c-0.553,0-1-0.448-1-1V2c0-0.552,0.447-1,1-1s1,0.448,1,1v5C13,7.552,12.553,8,12,8z"></path> <path data-color="color-2" fill="currentColor" d="M2.001,21c-0.367,0-0.72-0.202-0.896-0.553c-0.247-0.494-0.047-1.095,0.447-1.342l4-2 c0.493-0.245,1.094-0.047,1.342,0.447c0.247,0.494,0.047,1.095-0.447,1.342l-4,2C2.304,20.966,2.151,21,2.001,21z"></path> <path data-color="color-2" fill="currentColor" d="M21.999,21c-0.15,0-0.303-0.034-0.446-0.105l-4-2c-0.494-0.247-0.694-0.848-0.447-1.342 c0.248-0.494,0.849-0.692,1.342-0.447l4,2c0.494,0.247,0.694,0.848,0.447,1.342C22.719,20.798,22.366,21,21.999,21z"></path> <path fill="currentColor" d="M18.447,9.105l-6-3c-0.281-0.141-0.613-0.141-0.895,0l-6,3C5.214,9.275,5,9.621,5,10v8 c0,0.379,0.214,0.725,0.553,0.895l6,3C11.693,21.965,11.847,22,12,22s0.307-0.035,0.447-0.105l6-3C18.786,18.725,19,18.379,19,18v-8 C19,9.621,18.786,9.275,18.447,9.105z M12,8.118L15.764,10L12,11.882L8.236,10L12,8.118z M7,11.618l4,2v5.764l-4-2V11.618z M13,19.382v-5.764l4-2v5.764L13,19.382z"></path></g></svg>