<svg id="nc_icon" version="1.1" xmlns="http://www.w3.org/2000/svg" xmlns:xlink="http://www.w3.org/1999/xlink" x="0px" y="0px" viewBox="0 0 24 24" xml:space="preserve" ><g class="nc-icon-wrapper" fill="currentColor"><path fill="currentColor" d="M23.785,14.38l-11.057-14C12.537,0.14,12.213,0.025,11.94,0c-0.307,0.001-0.596,0.143-0.785,0.384	l-10.943,14c-0.167,0.214-0.24,0.486-0.202,0.755c0.037,0.269,0.183,0.511,0.402,0.67l11,8C11.587,23.937,11.794,24,12,24	s0.413-0.063,0.588-0.191l11-8c0.221-0.16,0.365-0.402,0.402-0.672S23.953,14.594,23.785,14.38z M11,3.831v17.206L2.426,14.8	L11,3.831z M13,21.036V3.952l8.57,10.852L13,21.036z"></path></g></svg>