<svg id="nc_icon" version="1.1" xmlns="http://www.w3.org/2000/svg" xmlns:xlink="http://www.w3.org/1999/xlink" x="0px" y="0px" viewBox="0 0 24 24" xml:space="preserve" ><g class="nc-icon-wrapper" fill="currentColor"><path data-color="color-2" fill="currentColor" d="M24,11h-2V4c0-0.552-0.448-1-1-1h-3V1h3c1.654,0,3,1.346,3,3V11z"></path> <path fill="currentColor" d="M23,12H1c-0.553,0-1,0.447-1,1v9c0,0.553,0.447,1,1,1h8c0.553,0,1-0.447,1-1v-2c0-1.103,0.897-2,2-2 s2,0.897,2,2v2c0,0.553,0.447,1,1,1h8c0.553,0,1-0.447,1-1v-9C24,12.447,23.553,12,23,12z"></path> <path data-color="color-2" fill="currentColor" d="M2,11H0V4c0-1.654,1.346-3,3-3h3v2H3C2.448,3,2,3.448,2,4V11z"></path></g></svg>