<svg id="nc_icon" version="1.1" xmlns="http://www.w3.org/2000/svg" xmlns:xlink="http://www.w3.org/1999/xlink" x="0px" y="0px" viewBox="0 0 24 24" xml:space="preserve" ><g class="nc-icon-wrapper" fill="currentColor"><path fill="currentColor" d="M8.975,12L8.975,12c-2.761,0-5-3.239-5-6V5c0-2.761,2.239-5,5-5h0c2.761,0,5,2.239,5,5v1 C13.975,8.761,11.736,12,8.975,12z"></path> <path fill="currentColor" d="M11.974,19c0-1.698,0.605-3.254,1.611-4.466C12.239,14.231,10.666,14,8.974,14 C6.151,14,3.646,14.638,2,15.193c-1.216,0.41-2.026,1.555-2.026,2.838V22h12.683C12.224,21.09,11.974,20.075,11.974,19z"></path> <polygon data-color="color-2" fill="currentColor" points="23.414,16 22,14.586 19,17.586 16,14.586 14.586,16 17.586,19 14.586,22 16,23.414 19,20.414 22,23.414 23.414,22 20.414,19 "></polygon></g></svg>