<svg id="nc_icon" version="1.1" xmlns="http://www.w3.org/2000/svg" xmlns:xlink="http://www.w3.org/1999/xlink" x="0px" y="0px" viewBox="0 0 24 24" xml:space="preserve" ><g class="nc-icon-wrapper" fill="currentColor"><path fill="currentColor" d="M10,12L10,12c-2.761,0-5-3.239-5-6V5c0-2.761,2.239-5,5-5h0c2.761,0,5,2.239,5,5v1C15,8.761,12.761,12,10,12 z"></path> <path fill="currentColor" d="M13,21.997c0-0.8,0.312-1.552,0.877-2.12l4.098-4.097c-0.288-0.253-0.621-0.459-1.001-0.587 C15.329,14.638,12.824,14,10,14s-5.329,0.638-6.974,1.193C1.81,15.604,1,16.749,1,18.032V22h12V21.997z"></path> <path data-color="color-2" fill="currentColor" d="M21.083,15.5l-5.79,5.79C15.105,21.478,15,21.732,15,21.997v2h2 c0.265,0,0.519-0.105,0.707-0.293l5.79-5.79c0.667-0.667,0.667-1.747,0-2.414S21.75,14.833,21.083,15.5z"></path></g></svg>