<svg id="nc_icon" version="1.1" xmlns="http://www.w3.org/2000/svg" xmlns:xlink="http://www.w3.org/1999/xlink" x="0px" y="0px" viewBox="0 0 24 24" xml:space="preserve" ><g class="nc-icon-wrapper" fill="currentColor"><path fill="currentColor" d="M9,12L9,12c-2.761,0-5-3.239-5-6V5c0-2.761,2.239-5,5-5h0c2.761,0,5,2.239,5,5v1C14,8.761,11.761,12,9,12z"></path> <path fill="currentColor" d="M12,15.817c0-0.549,0.061-1.068,0.171-1.559C11.185,14.102,10.12,14,9,14c-2.824,0-5.329,0.638-6.974,1.193 C0.81,15.604,0,16.749,0,18.032V22h14.916C13.512,20.295,12,17.961,12,15.817z"></path> <path data-color="color-2" fill="currentColor" d="M19,11c-2.458,0-5,1.802-5,4.817c0,2.716,3.869,6.486,4.31,6.907L19,23.382l0.69-0.659 c0.441-0.421,4.31-4.191,4.31-6.907C24,12.802,21.458,11,19,11z M19,18c-1.105,0-2-0.896-2-2c0-1.105,0.895-2,2-2s2,0.895,2,2 C21,17.104,20.105,18,19,18z"></path></g></svg>