<svg id="nc_icon" version="1.1" xmlns="http://www.w3.org/2000/svg" xmlns:xlink="http://www.w3.org/1999/xlink" x="0px" y="0px" viewBox="0 0 24 24" xml:space="preserve" ><g class="nc-icon-wrapper" fill="currentColor"><path fill="currentColor" d="M9,12c2.761,0,5-3.239,5-6V5c0-2.761-2.239-5-5-5S4,2.239,4,5v1C4,8.761,6.239,12,9,12z"></path> <path fill="currentColor" d="M16.257,15.315c-0.093-0.043-0.184-0.088-0.283-0.121C14.329,14.638,11.824,14,9,14 s-5.329,0.638-6.974,1.193C0.81,15.604,0,16.749,0,18.032V22h14.349C14.127,21.374,14,20.702,14,20 C14,18.103,14.883,16.414,16.257,15.315z"></path> <rect data-color="color-2" x="16" y="19" fill="currentColor" width="8" height="2"></rect></g></svg>