<svg id="nc_icon" version="1.1" xmlns="http://www.w3.org/2000/svg" xmlns:xlink="http://www.w3.org/1999/xlink" x="0px" y="0px" viewBox="0 0 24 24" xml:space="preserve" ><g class="nc-icon-wrapper" fill="currentColor"><path fill="currentColor" d="M9,12L9,12c-2.761,0-5-3.239-5-6V5c0-2.761,2.239-5,5-5h0c2.761,0,5,2.239,5,5v1C14,8.761,11.761,12,9,12z"></path> <path fill="currentColor" d="M12,18c0-2.359,2-3,2-3s-2.016-1-5-1c-2.824,0-5.329,0.638-6.974,1.193C0.81,15.604,0,16.749,0,18.032V22h12 V18z"></path> <path data-color="color-2" fill="currentColor" d="M23,17h-1v-2c0-1.654-1.346-3-3-3s-3,1.346-3,3v2h-1c-0.552,0-1,0.448-1,1v5 c0,0.552,0.448,1,1,1h8c0.552,0,1-0.448,1-1v-5C24,17.448,23.552,17,23,17z M18,15c0-0.551,0.449-1,1-1s1,0.449,1,1v2h-2V15z"></path></g></svg>