<svg id="nc_icon" version="1.1" xmlns="http://www.w3.org/2000/svg" xmlns:xlink="http://www.w3.org/1999/xlink" x="0px" y="0px" viewBox="0 0 24 24" xml:space="preserve" ><g class="nc-icon-wrapper" fill="currentColor"><path fill="currentColor" d="M10,12L10,12c-2.761,0-5-3.239-5-6V5c0-2.761,2.239-5,5-5h0c2.761,0,5,2.239,5,5v1C15,8.761,12.761,12,10,12 z"></path> <path fill="currentColor" d="M12,19c0-2.206,1.794-4,4-4c0.177,0,0.352,0.026,0.528,0.05C14.893,14.534,12.584,14,10,14 c-2.824,0-5.329,0.638-6.974,1.193C1.81,15.604,1,16.749,1,18.032V22h12.382C12.542,21.266,12,20.2,12,19z"></path> <path data-color="color-2" fill="currentColor" d="M21,20c-0.35,0-0.674,0.098-0.961,0.257l-2.042-1.225C17.997,19.021,18,19.011,18,19 s-0.003-0.021-0.003-0.032l2.042-1.225C20.326,17.902,20.65,18,21,18c1.103,0,2-0.897,2-2s-0.897-2-2-2s-2,0.897-2,2 c0,0.011,0.003,0.021,0.003,0.032l-2.042,1.225C16.674,17.098,16.35,17,16,17c-1.103,0-2,0.897-2,2s0.897,2,2,2 c0.35,0,0.674-0.098,0.961-0.257l2.042,1.225C19.003,21.979,19,21.989,19,22c0,1.103,0.897,2,2,2s2-0.897,2-2S22.103,20,21,20z"></path></g></svg>