<svg id="nc_icon" version="1.1" xmlns="http://www.w3.org/2000/svg" xmlns:xlink="http://www.w3.org/1999/xlink" x="0px" y="0px" viewBox="0 0 24 24" xml:space="preserve" ><g class="nc-icon-wrapper" fill="currentColor"><path fill="currentColor" d="M9,12L9,12c-2.761,0-5-3.239-5-6V5c0-2.761,2.239-5,5-5h0c2.761,0,5,2.239,5,5v1C14,8.761,11.761,12,9,12z"></path> <path fill="currentColor" d="M12,18c0-1.317,0.37-2.544,1.002-3.596C11.799,14.167,10.442,14,9,14c-2.824,0-5.329,0.638-6.974,1.193 C0.81,15.604,0,16.749,0,18.032V22h13.26C12.468,20.866,12,19.488,12,18z"></path> <polygon data-color="color-2" fill="currentColor" points="19,13 20.545,16.131 24,16.633 21.5,19.07 22.09,22.511 19,20.886 15.91,22.511 16.5,19.07 14,16.633 17.455,16.131 "></polygon></g></svg>