<svg id="nc_icon" version="1.1" xmlns="http://www.w3.org/2000/svg" xmlns:xlink="http://www.w3.org/1999/xlink" x="0px" y="0px" viewBox="0 0 24 24" xml:space="preserve" ><g class="nc-icon-wrapper" fill="currentColor"><path fill="currentColor" d="M9,12L9,12c-2.761,0-5-3.239-5-6V5c0-2.761,2.239-5,5-5h0c2.761,0,5,2.239,5,5v1C14,8.761,11.761,12,9,12z"></path> <path data-color="color-2" fill="currentColor" d="M18,24c3.314,0,6-2.686,6-6s-2.686-6-6-6s-6,2.686-6,6S14.686,24,18,24z M17,14h2v3h3v2h-5 V14z"></path> <path fill="currentColor" d="M10,18c0-1.415,0.371-2.741,1.015-3.894C10.368,14.039,9.694,14,9,14c-2.824,0-5.329,0.638-6.974,1.193 C0.81,15.604,0,16.749,0,18.032V22h11.079C10.397,20.822,10,19.459,10,18z"></path></g></svg>