<svg id="nc_icon" version="1.1" xmlns="http://www.w3.org/2000/svg" xmlns:xlink="http://www.w3.org/1999/xlink" x="0px" y="0px" viewBox="0 0 24 24" xml:space="preserve" ><g class="nc-icon-wrapper" fill="currentColor"><path data-color="color-2" fill="currentColor" d="M16,10V5V4c0-1.654-1.346-3-3-3h-3v2h3c0.551,0,1,0.448,1,1h-2.5C9.57,4,8,5.57,8,7.5 S9.57,11,11.5,11H15C15.552,11,16,10.553,16,10z M10,7.5C10,6.673,10.673,6,11.5,6H14v3h-2.5C10.673,9,10,8.327,10,7.5z"></path> <path fill="currentColor" d="M6,15H4v-5H2v12c0,0.553,0.448,1,1,1h3c2.206,0,4-1.794,4-4S8.206,15,6,15z M6,21H4v-4h2 c1.103,0,2,0.897,2,2S7.103,21,6,21z"></path> <path fill="currentColor" d="M20.867,20.499C20.688,20.809,20.356,21,20,21h-2c-0.551,0-1-0.448-1-1v-3c0-0.552,0.449-1,1-1h2 c0.356,0,0.688,0.191,0.867,0.5l1.73-1.002C22.062,14.574,21.067,14,20,14h-2c-1.654,0-3,1.346-3,3v3c0,1.654,1.346,3,3,3h2 c1.067,0,2.063-0.574,2.598-1.499L20.867,20.499z"></path></g></svg>