<svg id="nc_icon" version="1.1" xmlns="http://www.w3.org/2000/svg" xmlns:xlink="http://www.w3.org/1999/xlink" x="0px" y="0px" viewBox="0 0 24 24" xml:space="preserve" ><g class="nc-icon-wrapper" fill="currentColor"><path fill="currentColor" d="M15,12c2.757,0,5-2.243,5-5V5c0-2.757-2.243-5-5-5s-5,2.243-5,5v2C10,9.757,12.243,12,15,12z"></path> <polygon data-color="color-2" fill="currentColor" points="8,11 8,9 5,9 5,6 3,6 3,9 0,9 0,11 3,11 3,14 5,14 5,11 "></polygon> <path fill="currentColor" d="M21.424,15.146C20.044,14.623,17.811,14,15,14s-5.044,0.623-6.424,1.146C7.035,15.729,6,17.232,6,18.886V24 h18v-5.114C24,17.232,22.965,15.729,21.424,15.146z"></path></g></svg>