<svg id="nc_icon" version="1.1" xmlns="http://www.w3.org/2000/svg" xmlns:xlink="http://www.w3.org/1999/xlink" x="0px" y="0px" viewBox="0 0 24 24" xml:space="preserve" ><g class="nc-icon-wrapper" fill="currentColor"><path data-color="color-2" fill="currentColor" d="M14,20h-4c-0.553,0-1,0.448-1,1v2c0,0.552,0.447,1,1,1h4c0.553,0,1-0.448,1-1v-2 C15,20.448,14.553,20,14,20z"></path> <path fill="currentColor" d="M12.069,0.004c-0.007,0-0.014-0.001-0.021-0.001C12.032,0.002,12.016,0,12,0 c-0.015,0-0.03,0.002-0.046,0.002c-0.009,0-0.016,0.001-0.025,0.001C7.551,0.042,4,3.613,4,8c0,2.999,3.733,8.881,4.159,9.542 C8.344,17.827,8.66,18,9,18h0.997c0.001,0,0.002,0,0.003,0c0.001,0,0.002,0,0.003,0H15c0.34,0,0.656-0.173,0.841-0.458 C16.267,16.881,20,10.999,20,8C20,3.612,16.448,0.041,12.069,0.004z"></path></g></svg>