<svg id="nc_icon" version="1.1" xmlns="http://www.w3.org/2000/svg" xmlns:xlink="http://www.w3.org/1999/xlink" x="0px" y="0px" viewBox="0 0 24 24" xml:space="preserve" ><g class="nc-icon-wrapper" fill="currentColor"> <path d="M8.556,22a3.965,3.965,0,0,0,6.887,0Z" fill="currentColor"></path> <polygon points="23 4 20 4 20 1 18 1 18 4 15 4 15 6 18 6 18 9 20 9 20 6 23 6 23 4" fill="currentColor" data-color="color-2"></polygon> <path d="M20,12V10.91A5.991,5.991,0,0,1,14.959.574,7.986,7.986,0,0,0,4,8v4a12.96,12.96,0,0,1-1.832,6.445A1,1,0,0,0,3,20H21a1,1,0,0,0,.832-1.555A12.828,12.828,0,0,1,20,12Z" fill="currentColor"></path> </g></svg>