<svg id="nc_icon" version="1.1" xmlns="http://www.w3.org/2000/svg" xmlns:xlink="http://www.w3.org/1999/xlink" x="0px" y="0px" viewBox="0 0 24 24" xml:space="preserve" ><g class="nc-icon-wrapper" fill="currentColor">  <path id="color" d="M8.556,22a3.965,3.965,0,0,0,6.887,0Z" fill="currentColor"></path>  <path d="M20.969,16.727A12.6,12.6,0,0,1,20,12V8A7.99,7.99,0,0,0,6.473,2.231Z" fill="currentColor"></path>  <path d="M4.714,4.714A7.941,7.941,0,0,0,4,8v4a12.96,12.96,0,0,1-1.832,6.445A1,1,0,0,0,3,20H20Z" fill="currentColor"></path>  <path d="M22,23a1,1,0,0,1-.707-.293l-20-20A1,1,0,0,1,2.707,1.293l20,20A1,1,0,0,1,22,23Z" fill="currentColor" data-color="color-2"></path></g></svg>