<svg id="nc_icon" version="1.1" xmlns="http://www.w3.org/2000/svg" xmlns:xlink="http://www.w3.org/1999/xlink" x="0px" y="0px" viewBox="0 0 24 24" xml:space="preserve" ><g class="nc-icon-wrapper" fill="currentColor"><path fill="currentColor" d="M23,2h-5V0h-2v2h-3V0h-2v2H8V0H6v2H1C0.448,2,0,2.447,0,3v20c0,0.553,0.448,1,1,1h22c0.552,0,1-0.447,1-1V3	C24,2.447,23.552,2,23,2z M22,22H2V4h4v2h2V4h3v2h2V4h3v2h2V4h4V22z"></path><path data-color="color-2" fill="currentColor" d="M14.848,10.47c-0.156-0.25-0.415-0.418-0.706-0.46c-0.291-0.043-0.586,0.047-0.807,0.242	l-9,8c-0.31,0.276-0.417,0.715-0.27,1.103S4.585,20,5,20h14c0.364,0,0.698-0.197,0.875-0.515s0.166-0.707-0.026-1.015L14.848,10.47z	"></path><circle data-color="color-2" fill="currentColor" cx="6.5" cy="10.5" r="1.5"></circle></g></svg>