<svg id="nc_icon" xmlns="http://www.w3.org/2000/svg" xmlns:xlink="http://www.w3.org/1999/xlink" x="0px" y="0px" viewBox="0 0 24 24" ><g class="nc-icon-wrapper" fill="currentColor"><path data-color="color-2" fill="currentColor" d="M15,2V1c0-0.553-0.447-1-1-1h-4C9.447,0,9,0.447,9,1v1H15z"></path> <path fill="currentColor" d="M17.373,11.417L15,9.52V4H9v5.52l-2.373,1.897C4.958,12.753,4,14.745,4,16.884V23c0,0.553,0.447,1,1,1h14 c0.553,0,1-0.447,1-1v-6.116C20,14.745,19.042,12.753,17.373,11.417z M15.414,19L14,20.414l-2-2l-2,2L8.586,19l2-2l-2-2L10,13.586 l2,2l2-2L15.414,15l-2,2L15.414,19z"></path></g></svg>