<svg id="nc_icon" version="1.1" xmlns="http://www.w3.org/2000/svg" xmlns:xlink="http://www.w3.org/1999/xlink" x="0px" y="0px" viewBox="0 0 24 24" xml:space="preserve" ><g class="nc-icon-wrapper" fill="currentColor"><path fill="currentColor" d="M23,0H1C0.448,0,0,0.448,0,1v22c0,0.552,0.448,1,1,1h22c0.552,0,1-0.448,1-1V1C24,0.448,23.552,0,23,0z M11.5,19c-0.828,0-1.5-0.672-1.5-1.5s0.672-1.5,1.5-1.5s1.5,0.672,1.5,1.5S12.328,19,11.5,19z M15.811,10.127 c-0.629,1.006-2.53,2.15-2.888,2.67c-0.255,0.369-0.237,0.763-0.237,1.203h-2.457c0-0.733-0.016-1.296,0.38-1.981 c0.717-1.242,1.976-1.552,2.675-2.531c0.412-0.579,0.468-1.465-0.134-1.891c-1.064-0.753-3.193-0.03-4.413,0.593l-1.011-2.03 C9.104,5.386,10.566,5,12.111,5c2.278,0,4.163,1.114,4.163,3.366C16.274,9.045,16.12,9.633,15.811,10.127z"></path></g></svg>