<svg id="nc_icon" version="1.1" xmlns="http://www.w3.org/2000/svg" xmlns:xlink="http://www.w3.org/1999/xlink" x="0px" y="0px" viewBox="0 0 24 24" xml:space="preserve" ><g class="nc-icon-wrapper" fill="currentColor"><path fill="currentColor" d="M23,0H1C0.448,0,0,0.448,0,1v22c0,0.552,0.448,1,1,1h22c0.552,0,1-0.448,1-1V1C24,0.448,23.552,0,23,0z M14.707,18.284c-0.661,0.26-2.952,1.354-4.272,0.191c-0.394-0.346-0.59-0.785-0.59-1.318c0-0.998,0.328-1.868,0.919-3.957 c0.104-0.395,0.231-0.907,0.231-1.313c0-0.701-0.266-0.887-0.987-0.887c-0.352,0-0.742,0.125-1.095,0.257l0.195-0.799 c0.787-0.32,1.775-0.71,2.621-0.71c1.269,0,2.202,0.633,2.202,1.837c0,0.347-0.06,0.955-0.186,1.375l-0.73,2.582 c-0.15,0.522-0.424,1.673-0.001,2.014c0.416,0.337,1.401,0.158,1.887-0.071L14.707,18.284z M13.5,8C12.672,8,12,7.328,12,6.5 S12.672,5,13.5,5S15,5.672,15,6.5S14.328,8,13.5,8z"></path></g></svg>