<svg id="nc_icon" version="1.1" xmlns="http://www.w3.org/2000/svg" xmlns:xlink="http://www.w3.org/1999/xlink" x="0px" y="0px" viewBox="0 0 24 24" xml:space="preserve" ><g class="nc-icon-wrapper" fill="currentColor"><path fill="currentColor" d="M9.605,16.22c0-1.13-0.071-2.418,0.586-3.618c0.391-0.713,1.074-1.45,2.051-2.212 c1.933-1.527,2.754-2.321,2.754-3.955c0-1.816-1.356-2.549-3.179-2.549c-1.2,0-2.534,0.183-4.893,1.348l-1.23-2.578 C7.676,1.552,9.8,1,12.066,1c1.914,0,3.433,0.469,4.556,1.406s1.685,2.231,1.685,3.882c0,1.376-0.37,2.483-1.296,3.589 c-0.436,0.518-1.185,1.191-2.249,2.021c-0.908,0.713-1.517,1.304-1.823,1.772c-0.505,0.768-0.462,1.645-0.462,2.549H9.605z"></path> <circle data-color="color-2" fill="currentColor" cx="11" cy="21" r="2"></circle></g></svg>