<svg id="nc_icon" version="1.1" xmlns="http://www.w3.org/2000/svg" xmlns:xlink="http://www.w3.org/1999/xlink" x="0px" y="0px" viewBox="0 0 24 24" xml:space="preserve" ><g class="nc-icon-wrapper" fill="currentColor"><path fill="currentColor" d="M12,0C5.4,0,0,4.5,0,10c0,5.5,7.3,14,12,14s12-8.5,12-14C24,4.6,18.5,0,12,0z M10,15c0,0-2.1-0.3-3.4-1.6 C5,11.9,5,9,5,9s2.7-0.1,4.4,1.6C10.7,11.9,10,15,10,15z M17.4,13.4C16.1,14.7,14,15,14,15s-0.7-3.1,0.6-4.4C16.3,8.9,19,9,19,9 S19,11.9,17.4,13.4z"></path></g></svg>