<svg id="nc_icon" version="1.1" xmlns="http://www.w3.org/2000/svg" xmlns:xlink="http://www.w3.org/1999/xlink" x="0px" y="0px" viewBox="0 0 24 24" xml:space="preserve" ><g class="nc-icon-wrapper" fill="currentColor"><rect data-color="color-2" x="11" fill="currentColor" width="2" height="24"></rect> <path fill="currentColor" d="M19,13H5c-0.552,0-1,0.447-1,1v5c0,0.553,0.448,1,1,1h14c0.552,0,1-0.447,1-1v-5C20,13.447,19.552,13,19,13z "></path> <path fill="currentColor" d="M8,11h8c0.552,0,1-0.447,1-1V5c0-0.553-0.448-1-1-1H8C7.448,4,7,4.447,7,5v5C7,10.553,7.448,11,8,11z"></path></g></svg>