<svg id="nc_icon" version="1.1" xmlns="http://www.w3.org/2000/svg" xmlns:xlink="http://www.w3.org/1999/xlink" x="0px" y="0px" viewBox="0 0 24 24" xml:space="preserve" ><g class="nc-icon-wrapper" fill="currentColor"><path fill="currentColor" d="M19,6h-5c-0.553,0-1,0.447-1,1v14c0,0.553,0.447,1,1,1h5c0.553,0,1-0.447,1-1V7C20,6.447,19.553,6,19,6z"></path> <path fill="currentColor" d="M10,6H5C4.447,6,4,6.447,4,7v8c0,0.553,0.447,1,1,1h5c0.553,0,1-0.447,1-1V7C11,6.447,10.553,6,10,6z"></path> <rect data-color="color-2" x="11" y="-9" transform="matrix(4.547455e-11 1 -1 4.547455e-11 15 -9)" fill="currentColor" width="2" height="24"></rect></g></svg>