<svg id="nc_icon" version="1.1" xmlns="http://www.w3.org/2000/svg" xmlns:xlink="http://www.w3.org/1999/xlink" x="0px" y="0px" viewBox="0 0 24 24" xml:space="preserve" ><g class="nc-icon-wrapper" fill="currentColor"><path fill="currentColor" d="M21,4H7C6.448,4,6,4.447,6,5v5c0,0.553,0.448,1,1,1h14c0.552,0,1-0.447,1-1V5C22,4.447,21.552,4,21,4z"></path><path fill="currentColor" d="M15,13H7c-0.552,0-1,0.447-1,1v5c0,0.553,0.448,1,1,1h8c0.552,0,1-0.447,1-1v-5C16,13.447,15.552,13,15,13z"></path><rect data-color="color-2" x="2" fill="currentColor" width="2" height="24"></rect></g></svg>