<svg id="nc_icon" version="1.1" xmlns="http://www.w3.org/2000/svg" xmlns:xlink="http://www.w3.org/1999/xlink" x="0px" y="0px" viewBox="0 0 24 24" xml:space="preserve" ><g class="nc-icon-wrapper" fill="currentColor"><path fill="currentColor" d="M23,4H1C0.44775,4,0,3.55225,0,3s0.44775-1,1-1h22c0.55225,0,1,0.44775,1,1S23.55225,4,23,4z"></path><path data-color="color-2" fill="currentColor" d="M13,10H1c-0.55225,0-1-0.44775-1-1s0.44775-1,1-1h12c0.55225,0,1,0.44775,1,1	S13.55225,10,13,10z"></path><path fill="currentColor" d="M23,16H1c-0.55225,0-1-0.44775-1-1s0.44775-1,1-1h22c0.55225,0,1,0.44775,1,1S23.55225,16,23,16z"></path><path data-color="color-2" fill="currentColor" d="M13,22H1c-0.55225,0-1-0.44775-1-1s0.44775-1,1-1h12c0.55225,0,1,0.44775,1,1	S13.55225,22,13,22z"></path></g></svg>