<svg id="nc_icon" version="1.1" xmlns="http://www.w3.org/2000/svg" xmlns:xlink="http://www.w3.org/1999/xlink" x="0px" y="0px" viewBox="0 0 24 24" xml:space="preserve" ><g class="nc-icon-wrapper" fill="currentColor"><path fill="currentColor" d="M8.1,5.6c0.3-0.7,1.4-0.7,1.8,0L15,15.8l2.1-4.2c0.2-0.3,0.5-0.6,0.9-0.6h6V1c0-0.6-0.4-1-1-1H1 C0.4,0,0,0.4,0,1v10h5.4L8.1,5.6z"></path> <path data-color="color-2" fill="currentColor" d="M15.9,18.4C15.7,18.8,15.4,19,15,19s-0.7-0.2-0.9-0.6L9,8.2l-2.1,4.2C6.7,12.8,6.4,13,6,13H0v10 c0,0.6,0.4,1,1,1h22c0.6,0,1-0.4,1-1V13h-5.4L15.9,18.4z"></path></g></svg>