<svg id="nc_icon" version="1.1" xmlns="http://www.w3.org/2000/svg" xmlns:xlink="http://www.w3.org/1999/xlink" x="0px" y="0px" viewBox="0 0 24 24" xml:space="preserve" ><g class="nc-icon-wrapper" fill="currentColor"><path data-color="color-2" fill="currentColor" d="M15.281,2.98l1.135-1.703c0.153-0.229,0.091-0.54-0.139-0.693	c-0.231-0.153-0.541-0.092-0.693,0.139l-1.186,1.779C13.663,2.181,12.853,2,12,2s-1.663,0.181-2.398,0.502L8.416,0.723	c-0.153-0.23-0.463-0.292-0.693-0.139S7.431,1.048,7.584,1.277L8.719,2.98C7.083,4.052,6,5.898,6,8h12	C18,5.898,16.917,4.052,15.281,2.98z"></path><path fill="currentColor" d="M6,19c0,0.552,0.448,1,1,1h1v3c0,0.552,0.448,1,1,1s1-0.448,1-1v-3h4v3c0,0.552,0.448,1,1,1s1-0.448,1-1v-3	h1c0.552,0,1-0.448,1-1V9H6V19z"></path><path fill="currentColor" d="M4,9c-0.552,0-1,0.448-1,1v5c0,0.552,0.448,1,1,1s1-0.448,1-1v-5C5,9.448,4.552,9,4,9z"></path><path fill="currentColor" d="M20,9c-0.552,0-1,0.448-1,1v5c0,0.552,0.448,1,1,1s1-0.448,1-1v-5C21,9.448,20.552,9,20,9z"></path></g></svg>