<svg id="nc_icon" version="1.1" xmlns="http://www.w3.org/2000/svg" xmlns:xlink="http://www.w3.org/1999/xlink" x="0px" y="0px" viewBox="0 0 24 24" xml:space="preserve" ><g class="nc-icon-wrapper" fill="currentColor"><path fill="currentColor" d="M20,5.8c-1.9-1.5-4.1-2-6.5-1.6c0.4-1,1-1.7,2-2.3c0.5-0.3,0.6-0.9,0.3-1.4c-0.3-0.5-0.9-0.6-1.4-0.3	c-1.7,1.1-2.6,2.3-3.1,4.2C8.6,3.6,6.2,4.1,4,5.8c-1.3,1-2.9,3.4-3,6.6C0.9,14.9,1.9,18.9,6.7,23c0.8,0.6,1.7,1,2.7,1	c1.1,0,2-0.3,2.6-0.6c0.6,0.3,1.5,0.6,2.6,0.6h0c1,0,2-0.3,2.7-1c4.8-4.1,5.8-8.1,5.7-10.7C22.9,9.1,21.3,6.8,20,5.8z M15.6,8.8	c-1,0.8-2.3,1.2-3.6,1.2c-1.3,0-2.6-0.4-3.6-1.2C8,8.5,7.9,7.8,8.2,7.4c0.3-0.4,1-0.5,1.4-0.2c1.4,1,3.4,1,4.8,0	c0.4-0.3,1.1-0.2,1.4,0.2C16.1,7.8,16,8.5,15.6,8.8z"></path></g></svg>