<svg id="nc_icon" version="1.1" xmlns="http://www.w3.org/2000/svg" xmlns:xlink="http://www.w3.org/1999/xlink" x="0px" y="0px" viewBox="0 0 24 24" xml:space="preserve" ><g class="nc-icon-wrapper" fill="currentColor"><path fill="currentColor" d="M22,6v11l-7,0v2H9v-2H2V6H0v17c0,0.552,0.448,1,1,1h22c0.552,0,1-0.448,1-1V6H22z"></path> <path data-color="color-2" fill="currentColor" d="M19,0H5C4.448,0,4,0.448,4,1v14h16V1C20,0.448,19.552,0,19,0z M11.707,9.707 C11.512,9.902,11.256,10,11,10s-0.512-0.098-0.707-0.293L7.586,7L9,5.586l2,2l4-4L16.414,5L11.707,9.707z"></path></g></svg>