<svg id="nc_icon" version="1.1" xmlns="http://www.w3.org/2000/svg" xmlns:xlink="http://www.w3.org/1999/xlink" x="0px" y="0px" viewBox="0 0 24 24" xml:space="preserve" ><g class="nc-icon-wrapper" fill="currentColor"><path fill="currentColor" d="M21,8H3C2.448,8,2,8.447,2,9v14c0,0.553,0.448,1,1,1h18c0.552,0,1-0.447,1-1V9C22,8.447,21.552,8,21,8z M17,15c0,0.553-0.448,1-1,1H8c-0.552,0-1-0.447-1-1v-3h2v2h6v-2h2V15z"></path> <rect data-color="color-2" x="4" y="4" fill="currentColor" width="16" height="2"></rect> <rect data-color="color-2" x="7" fill="currentColor" width="10" height="2"></rect></g></svg>