<svg id="nc_icon" version="1.1" xmlns="http://www.w3.org/2000/svg" xmlns:xlink="http://www.w3.org/1999/xlink" x="0px" y="0px" viewBox="0 0 24 24" xml:space="preserve" ><g class="nc-icon-wrapper" fill="currentColor"> <path d="M24,10.7a10.687,10.687,0,0,1-.676,3.868c-.84,2.176-2.461,3.75-4.777,3.75a3.314,3.314,0,0,1-3.131-1.894,6.1,6.1,0,0,1-4.276,1.894,5.412,5.412,0,0,1-4.1-1.563c-2.009-2.1-2.177-6.724.47-9.269,2.152-2.069,4.968-2.124,7.929-1.652a15.284,15.284,0,0,1,2.506.58l-.338,7.178q0,2.04,1.117,2.04.94,0,1.5-1.373a9.663,9.663,0,0,0,.559-3.588A8.616,8.616,0,0,0,19.8,6.5a7.4,7.4,0,0,0-6.849-3.721A10.437,10.437,0,0,0,7.789,3.993C4.631,5.751,3.263,9.139,3.263,12.815a8.4,8.4,0,0,0,2.168,6.215c3.156,3.155,9.2,2.348,13.381.815v2.819A17.693,17.693,0,0,1,11.831,24q-5.585,0-8.708-2.936T0,12.9A12.493,12.493,0,0,1,6.136,1.681,13.453,13.453,0,0,1,12.919,0c4,0,7.726,1.6,9.7,5.079A11.208,11.208,0,0,1,24,10.7ZM8.951,12.536q0,3.1,2.528,3.1c2.146,0,2.7-1.818,2.851-3.964l.191-3.243a8.009,8.009,0,0,0-1.69-.163C10.262,8.264,8.951,10.018,8.951,12.536Z" fill="currentColor"></path> </g></svg>