<svg id="nc_icon" version="1.1" xmlns="http://www.w3.org/2000/svg" xmlns:xlink="http://www.w3.org/1999/xlink" x="0px" y="0px" viewBox="0 0 24 24" xml:space="preserve" ><g class="nc-icon-wrapper" fill="currentColor"><path fill="currentColor" d="M23,22h-1V3c0-1.654-1.346-3-3-3H5C3.346,0,2,1.346,2,3v19H1c-0.552,0-1,0.447-1,1s0.448,1,1,1h22 c0.552,0,1-0.447,1-1S23.552,22,23,22z M18,16H6v-2h12V16z M18,10c0,0.553-0.448,1-1,1H7c-0.552,0-1-0.447-1-1V5 c0-0.553,0.448-1,1-1h10c0.552,0,1,0.447,1,1V10z"></path></g></svg>