<svg id="nc_icon" version="1.1" xmlns="http://www.w3.org/2000/svg" xmlns:xlink="http://www.w3.org/1999/xlink" x="0px" y="0px" viewBox="0 0 24 24" xml:space="preserve" ><g class="nc-icon-wrapper" fill="currentColor"><path fill="currentColor" d="M22.106,5.53c-0.58-0.905-1.97-1.827-5.3-1.082c-0.254,0.057-0.515,0.125-0.779,0.199 C15.199,1.912,13.847,0,12,0c-1.706,0-3.113,1.652-4.022,4.656C5.357,3.918,2.929,3.912,1.895,5.53 c-0.58,0.906-0.837,2.555,1.235,5.266C3.435,11.195,3.783,11.597,4.157,12c-0.374,0.403-0.722,0.805-1.027,1.205 c-2.072,2.711-1.815,4.36-1.235,5.266c0.578,0.903,1.641,1.358,3.103,1.358c0.859,0,1.859-0.161,2.977-0.476 C8.763,21.97,10.067,24,12,24c1.847,0,3.199-1.912,4.028-4.648c0.264,0.074,0.524,0.142,0.779,0.199 c1.888,0.423,4.261,0.544,5.299-1.082c0.993-1.55,0.167-3.821-2.286-6.442C21.925,9.781,23.249,7.315,22.106,5.53z M20.422,6.608 c0.441,0.689-0.593,2.86-3.422,5.374c-0.001-1.852-0.168-3.71-0.496-5.391C17.433,6.326,19.903,5.799,20.422,6.608z M7.018,12 c2.147-1.902,4.925-3.652,7.57-4.737c0.533,2.894,0.565,6.403,0,9.474C11.945,15.653,9.167,13.903,7.018,12z M12,2 c0.656,0,1.496,1.21,2.12,3.293C13.427,5.567,12.716,5.891,12,6.252c-0.687-0.345-1.404-0.668-2.13-0.953 C10.586,2.907,11.508,2,12,2z M3.579,6.608c0.43-0.674,2.827-0.657,6.276,0.843c-1.571,0.961-2.964,1.981-4.269,3.15 C4.844,9.795,3,7.51,3.579,6.608z M3.578,17.392c-0.577-0.902,1.264-3.185,2.008-3.993c0.48,0.43,0.992,0.854,1.531,1.269 c0.08,0.907,0.205,1.832,0.382,2.735C5.099,18.09,3.843,17.803,3.578,17.392z M12,22c-0.818,0-2.091-2.042-2.682-5.781 c1.604,1.026,3.245,1.873,4.802,2.488C13.496,20.79,12.656,22,12,22z M20.421,17.392c-0.516,0.812-2.991,0.281-3.917,0.018 c0.17-0.873,0.292-1.795,0.375-2.737c0.512-0.395,1.02-0.814,1.51-1.253C20.354,15.532,20.713,16.937,20.421,17.392z"></path> <circle data-color="color-2" fill="currentColor" cx="12" cy="12" r="1"></circle></g></svg>