<svg id="nc_icon" version="1.1" xmlns="http://www.w3.org/2000/svg" xmlns:xlink="http://www.w3.org/1999/xlink" x="0px" y="0px" viewBox="0 0 24 24" xml:space="preserve" ><g class="nc-icon-wrapper" fill="currentColor"><path fill="currentColor" d="M11.5,24C7.4,24,4,20.6,4,16.5v-11C4,2.5,6.5,0,9.5,0S15,2.5,15,5.5v10c0,1.9-1.6,3.5-3.5,3.5S8,17.4,8,15.5 V7c0-0.6,0.4-1,1-1s1,0.4,1,1v8.5c0,0.8,0.7,1.5,1.5,1.5s1.5-0.7,1.5-1.5v-10C13,3.6,11.4,2,9.5,2S6,3.6,6,5.5v11 c0,3,2.5,5.5,5.5,5.5s5.5-2.5,5.5-5.5V4c0-0.6,0.4-1,1-1s1,0.4,1,1v12.5C19,20.6,15.6,24,11.5,24z"></path></g></svg>