<svg id="nc_icon" xmlns="http://www.w3.org/2000/svg" xmlns:xlink="http://www.w3.org/1999/xlink" x="0px" y="0px" viewBox="0 0 24 24" ><g class="nc-icon-wrapper" fill="currentColor"><path d="M15.332,9.073a11.558,11.558,0,0,1-4.321-2.029,16.123,16.123,0,0,1-6.621,4.6A5.988,5.988,0,0,0,6,23.4c4.939,0,9.522-4.9,12.273-8.954A11.323,11.323,0,0,1,15.332,9.073Z" fill="currentColor"></path> <path d="M23,1.4a4.605,4.605,0,0,0-2.974,1.284,6.977,6.977,0,0,0-8.693.5,1,1,0,0,0-.087,1.4A9.384,9.384,0,0,0,17.06,7.345a9.377,9.377,0,0,0,2.755,5.813,1,1,0,0,0,1.4-.087,6.981,6.981,0,0,0,.266-9A2.551,2.551,0,0,1,23,3.4a1,1,0,0,0,0-2Z" fill="currentColor" data-color="color-2"></path></g></svg>