<svg id="nc_icon" version="1.1" xmlns="http://www.w3.org/2000/svg" xmlns:xlink="http://www.w3.org/1999/xlink" x="0px" y="0px" viewBox="0 0 24 24" xml:space="preserve" ><g class="nc-icon-wrapper" fill="currentColor"><path data-color="color-2" fill="currentColor" d="M22,10c0-0.553-0.448-1-1-1s-1,0.447-1,1c0,4.411-3.589,8-8,8s-8-3.589-8-8 c0-0.553-0.448-1-1-1s-1,0.447-1,1c0,5.176,3.954,9.446,9,9.949V22H7c-0.552,0-1,0.447-1,1s0.448,1,1,1h10c0.552,0,1-0.447,1-1 s-0.448-1-1-1h-4v-2.051C18.046,19.446,22,15.176,22,10z"></path> <path fill="currentColor" d="M15,9V7h3V6c0-3.309-2.691-6-6-6S6,2.691,6,6v1h3v2H6v1c0,3.309,2.691,6,6,6s6-2.691,6-6V9H15z"></path></g></svg>