<svg id="nc_icon" version="1.1" xmlns="http://www.w3.org/2000/svg" xmlns:xlink="http://www.w3.org/1999/xlink" x="0px" y="0px" viewBox="0 0 24 24" xml:space="preserve" ><g class="nc-icon-wrapper" fill="currentColor"><path fill="currentColor" d="M23.781,5.375l-4-5C19.591,0.138,19.304,0,19,0H5C4.696,0,4.409,0.138,4.219,0.375l-4,5 C-0.066,5.731-0.074,6.235,0.2,6.6l5.238,6.985C5.16,14.339,5,15.15,5,16c0,3.859,3.14,7,7,7s7-3.141,7-7 c0-0.85-0.16-1.662-0.439-2.416L23.8,6.6C24.074,6.235,24.066,5.731,23.781,5.375z M14.853,5L12,8.925L9.155,5H14.853z M2.265,6.02 l2.698-3.372l4.872,6.699c-1.329,0.434-2.481,1.255-3.328,2.329L2.265,6.02z M17.493,11.675c-0.847-1.074-2-1.895-3.328-2.329 l4.872-6.699l2.698,3.372L17.493,11.675z"></path></g></svg>