<svg id="nc_icon" version="1.1" xmlns="http://www.w3.org/2000/svg" xmlns:xlink="http://www.w3.org/1999/xlink" x="0px" y="0px" viewBox="0 0 24 24" xml:space="preserve" ><g class="nc-icon-wrapper" fill="currentColor"><path fill="currentColor" d="M2,6h18v1h2V5c0-0.553-0.448-1-1-1h-2.735l-6.769-3.868c-0.308-0.176-0.685-0.176-0.992,0L3.735,4H1 C0.448,4,0,4.447,0,5v14c0,0.553,0.448,1,1,1h13v-2H2V6z M11,2.151L14.235,4h-6.47L11,2.151z"></path> <rect x="4" y="9" fill="currentColor" width="9" height="2"></rect> <rect x="4" y="13" fill="currentColor" width="6" height="2"></rect> <path data-color="color-2" fill="currentColor" d="M16,19.315V24l3-2l3,2v-4.685C21.089,19.749,20.074,20,19,20S16.911,19.749,16,19.315z"></path> <circle data-color="color-2" fill="currentColor" cx="19" cy="13" r="5"></circle></g></svg>