<svg id="nc_icon" version="1.1" xmlns="http://www.w3.org/2000/svg" xmlns:xlink="http://www.w3.org/1999/xlink" x="0px" y="0px" viewBox="0 0 24 24" xml:space="preserve" ><g class="nc-icon-wrapper" fill="currentColor"><path fill="currentColor" d="M0,1v19c0,0.552,0.448,1,1,1h13v-4.126c-1.282-1.302-2-3.029-2-4.874c0-3.86,3.141-7,7-7V1 c0-0.552-0.448-1-1-1H1C0.448,0,0,0.448,0,1z M8,16H4v-2h4V16z M8,11H4V9h4V11z M11,6H4V4h7V6z"></path> <path data-color="color-2" fill="currentColor" d="M19,19c-1.074,0-2.089-0.251-3-0.685V24l3-2l3,2v-5.685C21.089,18.749,20.074,19,19,19z"></path> <circle data-color="color-2" fill="currentColor" cx="19" cy="12" r="5"></circle></g></svg>