<svg id="nc_icon" version="1.1" xmlns="http://www.w3.org/2000/svg" xmlns:xlink="http://www.w3.org/1999/xlink" x="0px" y="0px" viewBox="0 0 24 24" xml:space="preserve" ><g class="nc-icon-wrapper" fill="currentColor"><path fill="currentColor" d="M20.414,20.586l-6.647-6.647l6.159-3.849l0.058-0.473c0.016-0.123,0.33-3.043-3.113-6.486 c-3.442-3.442-6.357-3.127-6.486-3.114L9.91,0.074L6.061,6.233L4.414,4.586c-0.781-0.781-2.047-0.781-2.828,0 c-0.781,0.781-0.781,2.047,0,2.828l2.3,2.3l-1.72,2.752l5.367,5.368l2.753-1.72l7.3,7.3c0.781,0.781,2.047,0.781,2.828,0 C21.195,22.633,21.195,21.367,20.414,20.586z M4.705,12.178l6.348-10.157c0.756,0.089,2.404,0.525,4.403,2.523 c1.998,1.999,2.435,3.647,2.523,4.403L7.822,15.295L4.705,12.178z"></path></g></svg>