<svg id="nc_icon" version="1.1" xmlns="http://www.w3.org/2000/svg" xmlns:xlink="http://www.w3.org/1999/xlink" x="0px" y="0px" viewBox="0 0 24 24" xml:space="preserve" ><g class="nc-icon-wrapper" fill="currentColor"><path fill="currentColor" d="M9.884,19.499C9.023,18.815,7.563,18,5.5,18s-3.523,0.815-4.383,1.498C0.407,20.061,0,20.913,0,21.836V24h11 v-2.164C11,20.913,10.593,20.061,9.884,19.499z"></path> <circle fill="currentColor" cx="5.5" cy="13.5" r="3.5"></circle> <path fill="currentColor" d="M22.884,19.499C22.023,18.815,20.563,18,18.5,18s-3.523,0.815-4.383,1.498 C13.407,20.061,13,20.913,13,21.836V24h11v-2.164C24,20.913,23.593,20.061,22.884,19.499z"></path> <circle fill="currentColor" cx="18.5" cy="13.5" r="3.5"></circle> <path data-color="color-2" fill="currentColor" d="M17,3.155c0-0.846-0.333-1.64-0.937-2.235V0.919c-0.678-0.669-1.612-1.004-2.565-0.902 C12.951,0.071,12.438,0.262,12,0.564c-0.438-0.303-0.951-0.493-1.498-0.548C9.547-0.084,8.614,0.251,7.937,0.92 C7.333,1.516,7,2.31,7,3.155s0.333,1.64,0.937,2.235L12,9.405l4.064-4.015C16.667,4.795,17,4.001,17,3.155z"></path></g></svg>