<svg id="nc_icon" version="1.1" xmlns="http://www.w3.org/2000/svg" xmlns:xlink="http://www.w3.org/1999/xlink" x="0px" y="0px" viewBox="0 0 24 24" xml:space="preserve" ><g class="nc-icon-wrapper" fill="currentColor"><path data-color="color-2" fill="currentColor" d="M12,0C9.542,0,7,1.802,7,4.817c0,2.716,3.869,6.486,4.31,6.907L12,12.382l0.69-0.659 C13.131,11.303,17,7.533,17,4.817C17,1.802,14.458,0,12,0z M12,7c-1.105,0-2-0.896-2-2c0-1.105,0.895-2,2-2s2,0.895,2,2 C14,6.104,13.105,7,12,7z"></path> <path fill="currentColor" d="M9.884,19.499C9.023,18.815,7.563,18,5.5,18s-3.523,0.815-4.383,1.498C0.407,20.061,0,20.913,0,21.836V24h11 v-2.164C11,20.913,10.593,20.061,9.884,19.499z"></path> <circle fill="currentColor" cx="5.5" cy="13.5" r="3.5"></circle> <path fill="currentColor" d="M22.884,19.499C22.023,18.815,20.563,18,18.5,18s-3.523,0.815-4.383,1.498 C13.407,20.061,13,20.913,13,21.836V24h11v-2.164C24,20.913,23.593,20.061,22.884,19.499z"></path> <circle fill="currentColor" cx="18.5" cy="13.5" r="3.5"></circle></g></svg>