<svg id="nc_icon" version="1.1" xmlns="http://www.w3.org/2000/svg" xmlns:xlink="http://www.w3.org/1999/xlink" x="0px" y="0px" viewBox="0 0 24 24" xml:space="preserve" ><g class="nc-icon-wrapper" fill="currentColor"><path fill="currentColor" d="M9.884,18.499C9.023,17.815,7.563,17,5.5,17s-3.523,0.815-4.383,1.498C0.407,19.061,0,19.913,0,20.836V23h11 v-2.164C11,19.913,10.593,19.061,9.884,18.499z"></path> <path fill="currentColor" d="M8,14c-1.654,0-3-1.346-3-3V9.051C3.308,9.296,2,10.742,2,12.5C2,14.43,3.57,16,5.5,16 c1.389,0,2.573-0.823,3.134-2H8z"></path> <path fill="currentColor" d="M14.116,18.499C14.977,17.815,16.437,17,18.5,17s3.523,0.815,4.383,1.498C23.593,19.061,24,19.913,24,20.836 V23H13v-2.164C13,19.913,13.407,19.061,14.116,18.499z"></path> <path fill="currentColor" d="M16,14c1.654,0,3-1.346,3-3V9.051c1.692,0.245,3,1.691,3,3.449c0,1.93-1.57,3.5-3.5,3.5 c-1.389,0-2.573-0.823-3.134-2H16z"></path> <path data-color="color-2" fill="currentColor" d="M16,5h-1V3c0-1.654-1.346-3-3-3S9,1.346,9,3v2H8C7.448,5,7,5.447,7,6v5c0,0.553,0.448,1,1,1 h8c0.552,0,1-0.447,1-1V6C17,5.447,16.552,5,16,5z M11,3c0-0.552,0.449-1,1-1s1,0.448,1,1v2h-2V3z"></path></g></svg>