<svg id="nc_icon" version="1.1" xmlns="http://www.w3.org/2000/svg" xmlns:xlink="http://www.w3.org/1999/xlink" x="0px" y="0px" viewBox="0 0 24 24" xml:space="preserve" ><g class="nc-icon-wrapper" fill="currentColor"><path fill="currentColor" d="M20,10H4c-0.552,0-1,0.448-1,1s0.448,1,1,1h3.11C5.81,13.272,5,15.042,5,17c0,3.86,3.14,7,7,7s7-3.14,7-7 c0-1.958-0.81-3.728-2.11-5H20c0.552,0,1-0.448,1-1S20.552,10,20,10z M17,17c0,2.757-2.243,5-5,5s-5-2.243-5-5s2.243-5,5-5 S17,14.243,17,17z"></path> <path data-color="color-2" fill="currentColor" d="M10,8h4V5.221C14.61,4.672,15,3.885,15,3c0-1.657-1.343-3-3-3S9,1.343,9,3 c0,0.885,0.39,1.672,1,2.221V8z"></path></g></svg>