<svg id="nc_icon" xmlns="http://www.w3.org/2000/svg" xmlns:xlink="http://www.w3.org/1999/xlink" x="0px" y="0px" viewBox="0 0 24 24" ><g class="nc-icon-wrapper" fill="currentColor"><path data-color="color-2" fill="currentColor" d="M19,6h-3.934l-1.577-4.992C13.244,0.396,12.66,0,12,0s-1.244,0.396-1.516,1.082L8.951,6H5 C4.447,6,4,6.448,4,7s0.447,1,1,1h14c0.553,0,1-0.448,1-1S19.553,6,19,6z"></path> <path fill="currentColor" d="M6,10v12c0,1.105,0.895,2,2,2h8c1.105,0,2-0.895,2-2V10H6z M16,20h-4v-2h4V20z M16,16h-4v-2h4V16z"></path></g></svg>