<svg id="nc_icon" version="1.1" xmlns="http://www.w3.org/2000/svg" xmlns:xlink="http://www.w3.org/1999/xlink" x="0px" y="0px" viewBox="0 0 24 24" xml:space="preserve" ><g class="nc-icon-wrapper" fill="currentColor"><path fill="currentColor" d="M23.4,3.1l-4-2C19.3,1,19.2,1,19,1h-3c-0.6,0-1,0.4-1,1c0,1.7-1.3,3-3,3S9,3.7,9,2c0-0.6-0.4-1-1-1H5 C4.8,1,4.7,1,4.6,1.1l-4,2C0.2,3.3,0,3.6,0,4v6c0,0.6,0.4,1,1,1h3v7c0,0.6,0.4,1,1,1c1.7,0,3,1.3,3,3c0,0.6,0.4,1,1,1h6 c0.6,0,1-0.4,1-1c0-1.7,1.3-3,3-3c0.6,0,1-0.4,1-1v-7h3c0.6,0,1-0.4,1-1V4C24,3.6,23.8,3.3,23.4,3.1z"></path></g></svg>