<svg id="nc_icon" version="1.1" xmlns="http://www.w3.org/2000/svg" xmlns:xlink="http://www.w3.org/1999/xlink" x="0px" y="0px" viewBox="0 0 24 24" xml:space="preserve" ><g class="nc-icon-wrapper" fill="currentColor"><path fill="currentColor" d="M11.843,5.085L9.171,7.757L11.414,10L10,11.414L7.757,9.172l-1.586,1.586L8.414,13L7,14.414l-2.242-2.242 l-1.586,1.586L5.414,16L4,17.414l-2.242-2.242l-0.586,0.586C0.416,16.513,0,17.518,0,18.586s0.416,2.073,1.172,2.828l1.414,1.414 C3.341,23.584,4.346,24,5.414,24s2.073-0.416,2.829-1.172l10.672-10.671L11.843,5.085z"></path> <path data-color="color-2" fill="currentColor" d="M24,3c0-0.801-0.312-1.555-0.878-2.121c-1.134-1.134-3.11-1.134-4.243,0l-2.793,2.793 l-2.379-2.379c-0.391-0.391-1.023-0.391-1.414,0s-0.391,1.023,0,1.414l9,9C21.488,11.902,21.744,12,22,12s0.512-0.098,0.707-0.293 c0.391-0.391,0.391-1.023,0-1.414l-2.379-2.379l2.793-2.793C23.688,4.555,24,3.801,24,3z"></path></g></svg>