<svg id="nc_icon" version="1.1" xmlns="http://www.w3.org/2000/svg" xmlns:xlink="http://www.w3.org/1999/xlink" x="0px" y="0px" viewBox="0 0 24 24" xml:space="preserve" ><g class="nc-icon-wrapper" fill="currentColor"><path data-color="color-2" fill="currentColor" d="M1,2h22c0.553,0,1-0.448,1-1s-0.447-1-1-1H1C0.447,0,0,0.448,0,1S0.447,2,1,2z"></path> <path data-color="color-2" fill="currentColor" d="M23,8h-8v2h8c0.553,0,1-0.448,1-1S23.553,8,23,8z"></path> <path data-color="color-2" fill="currentColor" d="M9,8H1C0.447,8,0,8.448,0,9s0.447,1,1,1h8V8z"></path> <polygon fill="currentColor" points="13,4 11,4 11,17 6,17 12,24 18,17 13,17 "></polygon></g></svg>