<svg id="nc_icon" version="1.1" xmlns="http://www.w3.org/2000/svg" xmlns:xlink="http://www.w3.org/1999/xlink" x="0px" y="0px" viewBox="0 0 24 24" xml:space="preserve" ><g class="nc-icon-wrapper" fill="currentColor"><polygon fill="currentColor" points="9.27197,13.50299 14.44189,13.50299 11.87946,5.72388 "></polygon> <path fill="currentColor" d="M23,0H1C0.44727,0,0,0.44775,0,1v22c0,0.55225,0.44727,1,1,1h22c0.55273,0,1-0.44775,1-1V1 C24,0.44775,23.55273,0,23,0z M19.70172,20h-5.39117v-1.19305l1.81201-0.19885L14.82031,15h-6l-1.229,3.60809l1.79047,0.19885V20 h-5.0835v-1.17145l0.95013-0.24298c0.35449-0.08813,0.46423-0.15472,0.55243-0.42017L10.66296,4h2.56427l4.95038,14.18793 c0.08813,0.26544,0.26447,0.30951,0.53082,0.37518l0.99329,0.24384V20z"></path></g></svg>