<svg id="nc_icon" version="1.1" xmlns="http://www.w3.org/2000/svg" xmlns:xlink="http://www.w3.org/1999/xlink" x="0px" y="0px" viewBox="0 0 24 24" xml:space="preserve" ><g class="nc-icon-wrapper" fill="currentColor"><path fill="currentColor" d="M19,5h-3l0-0.823c0-2.088-1.523-3.956-3.601-4.158C10.014-0.212,8,1.662,8,4v1H5C3.343,5,2,6.343,2,8v6 c0,0.552,0.448,1,1,1h18c0.552,0,1-0.448,1-1V8C22,6.343,20.657,5,19,5z M10,4c0-1.103,0.897-2,2-2s2,0.897,2,2v1h-4V4z"></path> <path fill="currentColor" d="M2,24H1c-0.552,0-1-0.448-1-1v-4c0-0.552,0.448-1,1-1h1V24z"></path> <path fill="currentColor" d="M22,24h1c0.552,0,1-0.448,1-1v-4c0-0.552-0.448-1-1-1h-1V24z"></path> <path data-color="color-2" fill="currentColor" d="M4,23c0,0.553,0.447,1,1,1h14c0.553,0,1-0.447,1-1v-6H4V23z"></path></g></svg>