<svg id="nc_icon" version="1.1" xmlns="http://www.w3.org/2000/svg" xmlns:xlink="http://www.w3.org/1999/xlink" x="0px" y="0px" viewBox="0 0 24 24" xml:space="preserve" ><g class="nc-icon-wrapper" fill="currentColor"><path data-color="color-2" fill="currentColor" d="M17,15h-3v1c0,0.6-0.4,1-1,1h-2c-0.6,0-1-0.4-1-1v-1H7c-1.1,0-2.2-0.4-3-1v8c0,0.6,0.4,1,1,1 h14c0.6,0,1-0.4,1-1v-8C19.2,14.6,18.1,15,17,15z"></path> <path fill="currentColor" d="M7,13h3v-1c0-0.6,0.4-1,1-1h2c0.6,0,1,0.4,1,1v1h3c1.7,0,3-1.3,3-3V6c0-2.8-2.2-5-5-5H9C6.2,1,4,3.2,4,6v4 C4,11.7,5.3,13,7,13z"></path> <path fill="currentColor" d="M22,23h1c0.6,0,1-0.4,1-1V12c0-1.3-0.8-2.4-2-2.8V23z"></path> <path fill="currentColor" d="M2,9.2C0.8,9.6,0,10.7,0,12v10c0,0.6,0.4,1,1,1h1V9.2z"></path></g></svg>