<svg id="nc_icon" version="1.1" xmlns="http://www.w3.org/2000/svg" xmlns:xlink="http://www.w3.org/1999/xlink" x="0px" y="0px" viewBox="0 0 24 24" xml:space="preserve" ><g class="nc-icon-wrapper" fill="currentColor"><path fill="currentColor" d="M23.2,5L19,0.8c-0.4-0.4-1-0.4-1.4,0l-2,2c-2.5,2.5-2.7,5.1-2.8,6.9c-0.1,1.4-0.2,1.7-0.7,2.3 c-0.6,0.6-0.8,0.6-2.2,0.7c-1.8,0.1-4.5,0.3-7,2.9l-2.1,2.1c-0.4,0.4-0.4,1,0,1.4L5,23.2c0.2,0.2,0.4,0.3,0.7,0.3s0.5-0.1,0.7-0.3 l2.1-2.1c0.4-0.4,0.5-0.4,1.9-0.5c1.7-0.1,4.6-0.3,7.3-3c2.7-2.7,2.9-5.6,3.1-7.4c0.1-1.4,0.2-1.5,0.5-1.8l2-2 C23.6,6.1,23.6,5.4,23.2,5z"></path></g></svg>