<svg id="nc_icon" version="1.1" xmlns="http://www.w3.org/2000/svg" xmlns:xlink="http://www.w3.org/1999/xlink" x="0px" y="0px" viewBox="0 0 24 24" xml:space="preserve" ><g class="nc-icon-wrapper" fill="currentColor"><path data-color="color-2" fill="currentColor" d="M2.2469506,21.7530537l-0.0000043-0.0000038 c-1.1715716-1.1715717-1.1715716-3.0710659,0-4.2426376l1.4142158-1.4142151l4.2426405,4.2426414l-1.4142156,1.4142151 C5.3180156,22.9246254,3.4185224,22.9246254,2.2469506,21.7530537z"></path> <path fill="currentColor" d="M22.0459595,10.4393311c-0.7810669-0.7810669-2.0473633-0.7810669-2.8284302,0 c0.7810669-0.7810669,0.7810059-2.0473633,0-2.8284302c-0.7810669-0.7810669-2.0473633-0.7810669-2.8284302,0 c0.7810669-0.7810669,0.7810059-2.0473633,0-2.8284302c-0.7810669-0.7810059-2.0473633-0.7810669-2.8284302,0 c0.7810669-0.7810669,0.7810059-2.0473633,0-2.8284302c-0.7810669-0.7810059-2.0473633-0.7810669-2.8284302,0 c-0.2229004,0.2229004-0.3747559,0.4870605-0.4703979,0.7663574L4.5957642,14.2022095l5.2019653,5.2019653l11.4818726-5.6660156 c0.2792969-0.0956421,0.543457-0.2475586,0.7663574-0.4703979C22.8270264,12.4866943,22.8269653,11.2203369,22.0459595,10.4393311z"></path></g></svg>