<svg id="nc_icon" version="1.1" xmlns="http://www.w3.org/2000/svg" xmlns:xlink="http://www.w3.org/1999/xlink" x="0px" y="0px" viewBox="0 0 24 24" xml:space="preserve" ><g class="nc-icon-wrapper" fill="currentColor"><path data-color="color-2" fill="currentColor" d="M18,12c-3.314,0-6,2.686-6,6s2.686,6,6,6s6-2.686,6-6S21.314,12,18,12z M22,19h-5v-5h2v3h3 V19z"></path> <path fill="currentColor" d="M10,18c0-4.418,3.582-8,8-8c1.246,0,2.421,0.293,3.473,0.802l-0.491-3.926C20.92,6.376,20.494,6,19.99,6h-3 V5c0-2.757-2.243-5-5-5s-5,2.243-5,5v1h-3C3.486,6,3.06,6.376,2.998,6.876l-2,16c-0.036,0.284,0.053,0.57,0.243,0.786 C1.43,23.877,1.703,24,1.99,24h10.731C11.056,22.534,10,20.393,10,18z M8.99,5c0-1.654,1.346-3,3-3s3,1.346,3,3v1h-6V5z"></path></g></svg>