<svg id="nc_icon" version="1.1" xmlns="http://www.w3.org/2000/svg" xmlns:xlink="http://www.w3.org/1999/xlink" x="0px" y="0px" viewBox="0 0 24 24" xml:space="preserve" ><g class="nc-icon-wrapper" fill="currentColor"><path fill="currentColor" d="M1,6v17c0,0.6,0.4,1,1,1h20c0.6,0,1-0.4,1-1V6H1z M12,16c-3.3,0-6-2.7-6-6c0-0.6,0.4-1,1-1s1,0.4,1,1 c0,2.2,1.8,4,4,4s4-1.8,4-4c0-0.6,0.4-1,1-1s1,0.4,1,1C18,13.3,15.3,16,12,16z"></path> <path data-color="color-2" fill="currentColor" d="M22.4,4l-3.7-3.7C18.5,0.1,18.3,0,18,0H6C5.7,0,5.5,0.1,5.3,0.3L1.6,4H22.4z"></path></g></svg>