<svg id="nc_icon" version="1.1" xmlns="http://www.w3.org/2000/svg" xmlns:xlink="http://www.w3.org/1999/xlink" x="0px" y="0px" viewBox="0 0 24 24" xml:space="preserve" ><g class="nc-icon-wrapper" fill="currentColor"><path fill="currentColor" d="M19.121,20.121C18.558,20.684,17.795,21,16.999,21H14c-0.552,0-1-0.448-1-1v-2.999 c0-0.796,0.316-1.559,0.879-2.121L20,8.758V6c0-0.552-0.448-1-1-1h-4c0-2.757-2.243-5-5-5S5,2.243,5,5H1C0.448,5,0,5.448,0,6v17 c0,0.552,0.448,1,1,1h18c0.552,0,1-0.448,1-1v-3.758L19.121,20.121z M10,2c1.654,0,3,1.346,3,3H7C7,3.346,8.346,2,10,2z"></path> <path data-color="color-2" fill="currentColor" d="M23.497,10.503L23.497,10.503c-0.667-0.667-1.747-0.667-2.414,0l-5.79,5.79 C15.105,16.481,15,16.735,15,17v2h2c0.265,0,0.519-0.105,0.707-0.293l5.79-5.79C24.164,12.25,24.164,11.17,23.497,10.503z"></path></g></svg>