<svg id="nc_icon" version="1.1" xmlns="http://www.w3.org/2000/svg" xmlns:xlink="http://www.w3.org/1999/xlink" x="0px" y="0px" viewBox="0 0 24 24" xml:space="preserve" ><g class="nc-icon-wrapper" fill="currentColor"><path data-color="color-2" fill="currentColor" d="M22,21H2c-0.6,0-1,0.4-1,1v1c0,0.6,0.4,1,1,1h20c0.6,0,1-0.4,1-1v-1C23,21.4,22.6,21,22,21z"></path> <path fill="currentColor" d="M23,5h-6V2c0-0.6-0.4-1-1-1H8C7.4,1,7,1.4,7,2v3H1C0.4,5,0,5.4,0,6v12c0,0.6,0.4,1,1,1h22c0.6,0,1-0.4,1-1V6 C24,5.4,23.6,5,23,5z M15,13h-2v2h-2v-2H9v-2h2V9h2v2h2V13z M15,5H9V3h6V5z"></path></g></svg>