<svg id="nc_icon" version="1.1" xmlns="http://www.w3.org/2000/svg" xmlns:xlink="http://www.w3.org/1999/xlink" x="0px" y="0px" viewBox="0 0 24 24" xml:space="preserve" ><g class="nc-icon-wrapper" fill="currentColor"><path fill="currentColor" d="M17,2c0-0.6-0.4-1-1-1H8C7.4,1,7,1.4,7,2v4H5v17h14V6h-2V2z M9,3h6v3H9V3z"></path> <path data-color="color-2" fill="currentColor" d="M23,6h-2v17h2c0.6,0,1-0.4,1-1V7C24,6.4,23.6,6,23,6z"></path> <path data-color="color-2" fill="currentColor" d="M0,7v15c0,0.6,0.4,1,1,1h2V6H1C0.4,6,0,6.4,0,7z"></path></g></svg>