<svg id="nc_icon" version="1.1" xmlns="http://www.w3.org/2000/svg" xmlns:xlink="http://www.w3.org/1999/xlink" x="0px" y="0px" viewBox="0 0 24 24" xml:space="preserve" ><g class="nc-icon-wrapper" fill="currentColor"><path fill="currentColor" d="M12,0C5.383,0,0,5.383,0,12s5.383,12,12,12s12-5.383,12-12S18.617,0,12,0z M9.997,21.798L8.694,17.57 c-0.131-0.425-0.548-0.728-0.971-0.705l-4.412,0.067c-0.655-1.149-1.091-2.438-1.245-3.812l3.613-2.542 c0.364-0.256,0.515-0.722,0.371-1.142L4.627,5.268c0.907-0.992,2.006-1.801,3.244-2.365L11.4,5.55c0.178,0.134,0.389,0.2,0.6,0.2 s0.422-0.066,0.6-0.2l3.529-2.647c1.238,0.564,2.338,1.373,3.244,2.365l-1.425,4.168c-0.144,0.42,0.007,0.886,0.371,1.142 l3.613,2.542c-0.154,1.375-0.59,2.663-1.245,3.812l-4.412-0.067c-0.453-0.016-0.84,0.281-0.971,0.705l-1.303,4.228 C13.355,21.93,12.686,22,12,22S10.645,21.93,9.997,21.798z"></path> <path data-color="color-2" fill="currentColor" d="M14.895,15.447l2-4c0.216-0.433,0.092-0.957-0.294-1.247l-4-3 c-0.355-0.268-0.845-0.268-1.2,0l-4,3c-0.387,0.29-0.51,0.814-0.294,1.247l2,4C9.275,15.786,9.621,16,10,16h4 C14.379,16,14.725,15.786,14.895,15.447z"></path></g></svg>