<svg id="nc_icon" version="1.1" xmlns="http://www.w3.org/2000/svg" xmlns:xlink="http://www.w3.org/1999/xlink" x="0px" y="0px" viewBox="0 0 24 24" xml:space="preserve" ><g class="nc-icon-wrapper" fill="currentColor"><path fill="currentColor" d="M20.5,3.5C20.5,3.5,20.5,3.5,20.5,3.5C18.3,1.3,15.3,0,12,0C5.4,0,0,5.4,0,12c0,3.3,1.3,6.3,3.5,8.5 c0,0,0,0,0,0s0,0,0,0C5.7,22.7,8.7,24,12,24c6.6,0,12-5.4,12-12C24,8.7,22.7,5.7,20.5,3.5C20.5,3.5,20.5,3.5,20.5,3.5z M12,2 c2.4,0,4.6,0.8,6.3,2.3L4.3,18.3C2.8,16.6,2,14.4,2,12C2,6.5,6.5,2,12,2z M12,22c-2.4,0-4.6-0.8-6.3-2.3L19.7,5.7 C21.2,7.4,22,9.6,22,12C22,17.5,17.5,22,12,22z"></path></g></svg>