<svg id="nc_icon" version="1.1" xmlns="http://www.w3.org/2000/svg" xmlns:xlink="http://www.w3.org/1999/xlink" x="0px" y="0px" viewBox="0 0 24 24" xml:space="preserve" ><g class="nc-icon-wrapper" fill="currentColor"><path data-color="color-2" fill="currentColor" d="M23,21h-1v-8h-2v8h-4v-8h-2v8h-4v-8H8v8H4v-8H2v8H1c-0.552,0-1,0.447-1,1s0.448,1,1,1h22 c0.552,0,1-0.447,1-1S23.552,21,23,21z"></path> <path fill="currentColor" d="M23.479,6.122l-11-6c-0.299-0.162-0.659-0.162-0.958,0l-11,6C0.2,6.297,0,6.634,0,7v3c0,0.553,0.448,1,1,1 h22c0.552,0,1-0.447,1-1V7C24,6.634,23.8,6.297,23.479,6.122z M12,8c-1.105,0-2-0.895-2-2c0-1.105,0.895-2,2-2c1.105,0,2,0.895,2,2 C14,7.105,13.105,8,12,8z"></path></g></svg>