<svg id="nc_icon" xmlns="http://www.w3.org/2000/svg" xmlns:xlink="http://www.w3.org/1999/xlink" x="0px" y="0px" viewBox="0 0 24 24" ><g class="nc-icon-wrapper"><path fill="currentColor" d="M1,10c0,4.089,2.247,7.657,5.567,9.553l-1.466,3.009l1.798,0.876l1.49-3.059C9.522,20.774,10.734,21,12,21 s2.478-0.226,3.611-0.621l1.49,3.059l1.798-0.876l-1.466-3.009C20.753,17.657,23,14.089,23,10H1z M15,15H9v-2h6V15z"></path> <path data-color="color-2" fill="currentColor" d="M22.74,8c-0.934-2.408-3.943-4.832-7.825-5.68C14.605,0.993,13.419,0,12,0 c-1.421,0-2.608,0.995-2.916,2.324C5.229,3.176,2.22,5.598,1.267,8H22.74z"></path></g></svg>