<svg id="nc_icon" version="1.1" xmlns="http://www.w3.org/2000/svg" xmlns:xlink="http://www.w3.org/1999/xlink" x="0px" y="0px" viewBox="0 0 24 24" xml:space="preserve" ><g class="nc-icon-wrapper"><path fill="currentColor" d="M9,0C8.4,0,8,0.4,8,1v5c0,1.1-0.9,2-2,2S4,7.1,4,6V1c0-0.6-0.4-1-1-1S2,0.4,2,1v5c0,1.9,1.3,3.4,3,3.9V14H4 c-0.6,0-1,0.4-1,1v6c0,1.7,1.3,3,3,3s3-1.3,3-3v-6c0-0.6-0.4-1-1-1H7V9.9c1.7-0.4,3-2,3-3.9V1C10,0.4,9.6,0,9,0z"></path> <path data-color="color-2" fill="currentColor" d="M22,0h-8c-0.6,0-1,0.4-1,1v8c0,0.6,0.4,1,1,1h3v4h-1c-0.6,0-1,0.4-1,1v6c0,1.7,1.3,3,3,3 s3-1.3,3-3v-6c0-0.6-0.4-1-1-1h-1v-4h3c0.6,0,1-0.4,1-1V1C23,0.4,22.6,0,22,0z M15,8V2h2v6H15z M21,8h-2V2h2V8z"></path></g></svg>