<svg id="nc_icon" version="1.1" xmlns="http://www.w3.org/2000/svg" xmlns:xlink="http://www.w3.org/1999/xlink" x="0px" y="0px" viewBox="0 0 24 24" xml:space="preserve" ><g class="nc-icon-wrapper"><path data-color="color-2" fill="currentColor" d="M12,5c0.6,0,1-0.4,1-1V1c0-0.6-0.4-1-1-1c-0.6,0-1,0.4-1,1v3C11,4.6,11.4,5,12,5z"></path> <path data-color="color-2" fill="currentColor" d="M8,7c0.6,0,1-0.4,1-1V3c0-0.6-0.4-1-1-1C7.4,2,7,2.4,7,3v3C7,6.6,7.4,7,8,7z"></path> <path data-color="color-2" fill="currentColor" d="M16,7c0.6,0,1-0.4,1-1V3c0-0.6-0.4-1-1-1c-0.6,0-1,0.4-1,1v3C15,6.6,15.4,7,16,7z"></path> <path data-color="color-2" fill="currentColor" d="M22,9H2c-0.6,0-1,0.4-1,1c0,0.3,0,1,0,1h22c0,0,0-0.7,0-1C23,9.4,22.6,9,22,9z"></path> <path fill="currentColor" d="M6.6,19.6l-1.5,3l1.8,0.9l1.5-3.1C9.5,20.8,10.7,21,12,21c1.3,0,2.5-0.2,3.6-0.6l1.5,3.1l1.8-0.9l-1.5-3 c2.5-1.4,4.4-3.8,5.2-6.6H1.4C2.2,15.8,4.1,18.2,6.6,19.6z"></path></g></svg>