<svg id="nc_icon" version="1.1" xmlns="http://www.w3.org/2000/svg" xmlns:xlink="http://www.w3.org/1999/xlink" x="0px" y="0px" viewBox="0 0 24 24" xml:space="preserve" ><g class="nc-icon-wrapper"><path fill="currentColor" d="M11,11H0V0h11V11z M2,9h7V2H2V9z"></path> <path fill="currentColor" d="M24,11H13V0h11V11z M15,9h7V2h-7V9z"></path> <path fill="currentColor" d="M11,24H0V13h11V24z M2,22h7v-7H2V22z"></path> <polygon fill="currentColor" points="24,20 22,20 22,15 20,15 20,18 14,18 14,13 16,13 16,16 18,16 18,13 24,13 "></polygon> <polygon fill="currentColor" points="24,24 14,24 14,20 16,20 16,22 24,22 "></polygon> <rect data-color="color-2" x="4" y="4" fill="currentColor" width="3" height="3"></rect> <rect data-color="color-2" x="17" y="4" fill="currentColor" width="3" height="3"></rect> <rect data-color="color-2" x="4" y="17" fill="currentColor" width="3" height="3"></rect></g></svg>