<svg id="nc_icon" version="1.1" xmlns="http://www.w3.org/2000/svg" xmlns:xlink="http://www.w3.org/1999/xlink" x="0px" y="0px" viewBox="0 0 24 24" xml:space="preserve" ><g class="nc-icon-wrapper"><circle data-color="color-2" fill="currentColor" cx="17" cy="13" r="3"></circle> <path fill="currentColor" d="M22.4174805,1.5830078c-1.3222656-1.3222656-3.628418-1.3222656-4.949707,0L7.2143555,11.8359375 C6.184082,12.8662109,5.7871094,14.3710938,5.46875,15.5805664c-0.1191406,0.4521484-0.2827148,1.0717773-0.3754883,1.2050781 l-2.8286133,2.8286133c-0.390625-0.390625-1.0234375-0.390625-1.4140625,0s-0.390625,1.0234375,0,1.4140625l2.1210938,2.1210938 c0.390625,0.390625,1.0234375,0.390625,1.4140625,0s0.390625-1.0234375,0-1.4140625l-0.0004272-0.0004272L7.1791992,18.9375 c0.1513672-0.1025391,0.7441406-0.2602539,1.1767578-0.375c1.2329102-0.3276367,2.7666016-0.7353516,3.8081055-1.7763672 l0.8273926-0.8274536C12.3763428,15.1278687,12,14.1107178,12,13c0-2.7568359,2.2431641-5,5-5 c1.1105957,0,2.1276855,0.3762817,2.9584961,0.991333l2.4584961-2.4586182 c0.6611328-0.6611328,1.0253906-1.5400391,1.0253906-2.4750977S23.078125,2.2436523,22.4174805,1.5830078z"></path></g></svg>