<svg id="nc_icon" version="1.1" xmlns="http://www.w3.org/2000/svg" xmlns:xlink="http://www.w3.org/1999/xlink" x="0px" y="0px" viewBox="0 0 24 24" xml:space="preserve" ><g class="nc-icon-wrapper"><path data-color="color-2" fill="currentColor" d="M20.428894,4.9453125c-0.7695923,0.6090698-1.4369507,1.3392334-1.9735718,2.1641846 l0.8864746,0.4432373l-0.8945312,1.7890625L17.5621338,8.899231C17.3157349,9.5673218,17.1403198,10.2688599,17.059021,11H18v2 h-0.940979c0.0812988,0.7311401,0.2567139,1.4326782,0.5031128,2.100769l0.8851318-0.4425659l0.8945312,1.7890625 l-0.8864746,0.4432373c0.5366211,0.8249512,1.2039795,1.5551147,1.9735718,2.1641846C22.0313721,17.1433105,23,14.6835327,23,12 S22.0313721,6.8566895,20.428894,4.9453125z"></path> <path fill="currentColor" d="M16.6627808,17.7868042l-1.1100464,0.5549927l-0.8945312-1.7890625l1.1057129-0.5528564 C15.3933716,15.0551147,15.145874,14.0501709,15.0506592,13H14v-2h1.0506592 c0.0952148-1.0501709,0.3427124-2.0551147,0.7132568-2.9998779l-1.1057129-0.5528564l0.8945312-1.7890625l1.1100464,0.5549927 C17.2957764,5.1956787,18.0802612,4.2821045,19,3.5214233C17.0967407,1.9473267,14.6570435,1,12,1S6.9032593,1.9473267,5,3.5214233 c0.9197388,0.7606812,1.7042236,1.6742554,2.3372192,2.6917725l1.1100464-0.5549927l0.8945312,1.7890625L8.236084,8.0001221 C8.6066284,8.9448853,8.854126,9.9498291,8.9493408,11H10v2H8.9493408 c-0.0952148,1.0501709-0.3427124,2.0551147-0.7132568,2.9998779l1.1057129,0.5528564l-0.8945312,1.7890625l-1.1100464-0.5549927 C6.7042236,18.8043213,5.9197388,19.7178955,5,20.4785767C6.9032593,22.0526733,9.3429565,23,12,23s5.0967407-0.9473267,7-2.5214233 C18.0802612,19.7178955,17.2957764,18.8043213,16.6627808,17.7868042z"></path> <path data-color="color-2" fill="currentColor" d="M3.571106,4.9453125C1.9686279,6.8566895,1,9.3164673,1,12 s0.9686279,5.1433105,2.571106,7.0546875c0.7695923-0.6090698,1.4369507-1.3392334,1.9735718-2.1641846l-0.8864746-0.4432373 l0.8945312-1.7890625l0.8851318,0.4425659C6.6842651,14.4326782,6.8596802,13.7311401,6.940979,13H6v-2h0.940979 c-0.0812988-0.7311401-0.2567139-1.4326782-0.5031128-2.100769L5.5527344,9.3417969L4.6582031,7.5527344l0.8864746-0.4432373 C5.0080566,6.2845459,4.3406982,5.5543823,3.571106,4.9453125z"></path></g></svg>