<svg id="nc_icon" version="1.1" xmlns="http://www.w3.org/2000/svg" xmlns:xlink="http://www.w3.org/1999/xlink" x="0px" y="0px" viewBox="0 0 24 24" xml:space="preserve" ><g class="nc-icon-wrapper"><path fill="currentColor" d="M11.1568604,8.1550293C10.4275513,9.2595825,10,10.5802002,10,12s0.4275513,2.7404175,1.1568604,3.8449707 C12.2724609,14.9271851,13,13.553894,13,12S12.2724609,9.0728149,11.1568604,8.1550293z"></path> <path fill="currentColor" d="M22.8431396,8.1550293C21.7275391,9.0728149,21,10.446106,21,12s0.7275391,2.9271851,1.8431396,3.8449707 C23.5724487,14.7404175,24,13.4197998,24,12S23.5724487,9.2595825,22.8431396,8.1550293z"></path> <path fill="currentColor" d="M19,12c0-2.1469727,0.9735107-4.0690918,2.5-5.354187C20.2821045,5.6206055,18.7128906,5,17,5 s-3.2821045,0.6206055-4.5,1.645813C14.0264893,7.9309082,15,9.8530273,15,12s-0.9735107,4.0690918-2.5,5.354187 C13.7178955,18.3793945,15.2871094,19,17,19s3.2821045-0.6206055,4.5-1.645813C19.9735107,16.0690918,19,14.1469727,19,12z"></path> <path data-color="color-2" fill="currentColor" d="M8,8H3C2.4477539,8,2,7.5522461,2,7s0.4477539-1,1-1h5c0.5522461,0,1,0.4477539,1,1 S8.5522461,8,8,8z"></path> <path data-color="color-2" fill="currentColor" d="M8,18H3c-0.5522461,0-1-0.4477539-1-1s0.4477539-1,1-1h5c0.5522461,0,1,0.4477539,1,1 S8.5522461,18,8,18z"></path> <path data-color="color-2" fill="currentColor" d="M6,13H1c-0.5522461,0-1-0.4477539-1-1s0.4477539-1,1-1h5c0.5522461,0,1,0.4477539,1,1 S6.5522461,13,6,13z"></path></g></svg>