<svg id="nc_icon" version="1.1" xmlns="http://www.w3.org/2000/svg" xmlns:xlink="http://www.w3.org/1999/xlink" x="0px" y="0px" viewBox="0 0 24 24" xml:space="preserve" ><g class="nc-icon-wrapper"><path data-color="color-2" fill="currentColor" d="M23,7h-3.42l-3.712-6.496c-0.273-0.479-0.884-0.647-1.364-0.372 c-0.479,0.274-0.646,0.885-0.372,1.364L17.277,7H6.723l3.145-5.504c0.274-0.479,0.107-1.09-0.372-1.364 c-0.479-0.275-1.09-0.107-1.364,0.372L4.42,7H1C0.448,7,0,7.447,0,8v2c0,0.553,0.448,1,1,1h22c0.552,0,1-0.447,1-1V8 C24,7.447,23.552,7,23,7z"></path> <path fill="currentColor" d="M16,21c0-3.151,2.887-5.531,6-4.899V13H2v10c0,0.552,0.448,1,1,1h14.023C16.39,23.162,16,22.131,16,21z"></path> <polygon data-color="color-2" fill="currentColor" points="24,20 22,20 22,18 20,18 20,20 18,20 18,22 20,22 20,24 22,24 22,22 24,22 "></polygon></g></svg>