<svg id="nc_icon" version="1.1" xmlns="http://www.w3.org/2000/svg" xmlns:xlink="http://www.w3.org/1999/xlink" x="0px" y="0px" viewBox="0 0 24 24" xml:space="preserve" ><g class="nc-icon-wrapper"><path fill="currentColor" d="M23,6h-3.991l-3.141-5.496c-0.273-0.479-0.884-0.646-1.364-0.372c-0.479,0.273-0.646,0.885-0.372,1.364 L16.705,6H7.294l2.574-4.504c0.274-0.479,0.107-1.09-0.372-1.364c-0.479-0.274-1.09-0.107-1.364,0.372L4.991,6H1 C0.448,6,0,6.447,0,7v3c0,0.553,0.448,1,1,1h1v11c0,0.553,0.448,1,1,1h10v-2H4V11h19c0.552,0,1-0.447,1-1V7C24,6.447,23.552,6,23,6z "></path> <path data-color="color-2" fill="currentColor" d="M19,16.24c-0.956-1.464-2.986-1.663-4.201-0.428c-1.065,1.082-1.065,2.837,0,3.919L19,24 l4.202-4.269c1.065-1.082,1.065-2.837,0-3.919C21.985,14.576,19.955,14.778,19,16.24z"></path></g></svg>