<svg id="nc_icon" version="1.1" xmlns="http://www.w3.org/2000/svg" xmlns:xlink="http://www.w3.org/1999/xlink" x="0px" y="0px" viewBox="0 0 24 24" xml:space="preserve" ><g class="nc-icon-wrapper"><path fill="currentColor" d="M23,6h-3.991l-3.141-5.496c-0.273-0.479-0.885-0.646-1.364-0.372c-0.479,0.273-0.646,0.885-0.372,1.364 L16.705,6H7.294l2.574-4.504c0.274-0.479,0.107-1.09-0.372-1.364c-0.479-0.274-1.09-0.107-1.364,0.372L4.991,6H1 C0.448,6,0,6.447,0,7v3c0,0.553,0.448,1,1,1h1v11c0,0.553,0.448,1,1,1h9v-2H4V11h19c0.552,0,1-0.447,1-1V7C24,6.447,23.552,6,23,6z"></path> <path data-color="color-2" fill="currentColor" d="M22,18c0-2.206-1.794-4-4-4s-4,1.794-4,4s1.794,4,4,4c0.74,0,1.424-0.215,2.019-0.567 l2.274,2.274l1.414-1.414l-2.274-2.274C21.785,19.424,22,18.74,22,18z M18,20c-1.103,0-2-0.897-2-2s0.897-2,2-2s2,0.897,2,2 S19.103,20,18,20z"></path></g></svg>