<svg id="nc_icon" version="1.1" xmlns="http://www.w3.org/2000/svg" xmlns:xlink="http://www.w3.org/1999/xlink" x="0px" y="0px" viewBox="0 0 24 24" xml:space="preserve" ><g class="nc-icon-wrapper"><path fill="currentColor" d="M23,6h-3.991l-3.141-5.496c-0.274-0.479-0.886-0.649-1.364-0.372c-0.479,0.273-0.646,0.885-0.372,1.364 L16.705,6H7.294l2.574-4.504c0.274-0.479,0.107-1.09-0.372-1.364C9.015-0.146,8.405,0.024,8.132,0.504L4.991,6H1 C0.447,6,0,6.447,0,7v3c0,0.553,0.447,1,1,1h1v11c0,0.553,0.447,1,1,1h9v-2H4V11h19c0.553,0,1-0.447,1-1V7C24,6.447,23.553,6,23,6z"></path> <path data-color="color-2" fill="currentColor" d="M21,18c1.103,0,2-0.897,2-2s-0.897-2-2-2s-2,0.897-2,2c0,0.011,0.003,0.021,0.003,0.032 l-2.042,1.225C16.674,17.098,16.35,17,16,17c-1.103,0-2,0.897-2,2s0.897,2,2,2c0.35,0,0.674-0.098,0.961-0.257l2.042,1.225 C19.003,21.979,19,21.989,19,22c0,1.103,0.897,2,2,2s2-0.897,2-2s-0.897-2-2-2c-0.35,0-0.674,0.098-0.961,0.257l-2.042-1.225 C17.997,19.021,18,19.011,18,19s-0.003-0.021-0.003-0.032l2.042-1.225C20.326,17.902,20.65,18,21,18z"></path></g></svg>