<svg id="nc_icon" version="1.1" xmlns="http://www.w3.org/2000/svg" xmlns:xlink="http://www.w3.org/1999/xlink" x="0px" y="0px" viewBox="0 0 24 24" xml:space="preserve" ><g class="nc-icon-wrapper" fill="currentColor"><path fill="currentColor" d="M22.5,2h-21C0.6715698,2,0,2.6715698,0,3.5S0.6715698,5,1.5,5H2v18.2270508l5.2427368-4.6601562 L12,22.2670898l4.7572632-3.7001953L22,23.2270508V5h0.5C23.3284302,5,24,4.3284302,24,3.5S23.3284302,2,22.5,2z M4.5055542,5 h5.9888916L7.5,7.6617432L4.5055542,5z M5.9944458,9L4,10.7728271V7.2271729L5.9944458,9z M4,13.4494019l3.5-3.111145L10.4945068,13 l-3.3372192,2.9664307L4,13.5108643V13.4494019z M9.0055542,9L12,6.3382568L14.9944458,9L12,11.6618042L9.0055542,9z M13.5055542,5 h5.9888916L16.5,7.6617432L13.5055542,5z M16.5,10.3382568l3.5,3.111145v0.0614624l-3.1572876,2.4555664L13.5054932,13 L16.5,10.3382568z M18.0055542,9L20,7.2271729v3.5456543L18.0055542,9z M4,18.7729492v-2.7282104l1.6369019,1.2731934L4,18.7729492z M12,19.7329102l-3.2368774-2.5175171L12,14.3381958l3.2368774,2.8771973L12,19.7329102z M18.3630981,17.3179321L20,16.0447388 v2.7282104L18.3630981,17.3179321z"></path></g></svg>