<svg id="nc_icon" version="1.1" xmlns="http://www.w3.org/2000/svg" xmlns:xlink="http://www.w3.org/1999/xlink" x="0px" y="0px" viewBox="0 0 24 24" xml:space="preserve" ><g class="nc-icon-wrapper" fill="currentColor"><path data-color="color-2" fill="currentColor" d="M23,7h-3.42l-3.712-6.496c-0.273-0.479-0.884-0.647-1.364-0.372 c-0.479,0.274-0.646,0.885-0.372,1.364L17.277,7H6.723l3.145-5.504c0.274-0.479,0.107-1.09-0.372-1.364 c-0.479-0.275-1.09-0.107-1.364,0.372L4.42,7H1C0.448,7,0,7.447,0,8v2c0,0.553,0.448,1,1,1h22c0.552,0,1-0.447,1-1V8 C24,7.447,23.552,7,23,7z"></path> <path fill="currentColor" d="M22,13H2v10c0,0.552,0.448,1,1,1h18c0.552,0,1-0.448,1-1V13z M9,21H7l0-5h2L9,21z M13,21h-2l0-5h2L13,21z M17,21h-2l0-5h2L17,21z"></path></g></svg>