<svg id="nc_icon" version="1.1" xmlns="http://www.w3.org/2000/svg" xmlns:xlink="http://www.w3.org/1999/xlink" x="0px" y="0px" viewBox="0 0 24 24" xml:space="preserve" ><g class="nc-icon-wrapper"><path data-color="color-2" fill="currentColor" d="M23,7h-3.42l-3.712-6.496c-0.273-0.479-0.884-0.647-1.364-0.372 c-0.479,0.274-0.646,0.885-0.372,1.364L17.277,7H6.723l3.145-5.504c0.274-0.479,0.107-1.09-0.372-1.364 c-0.479-0.275-1.09-0.107-1.364,0.372L4.42,7H1C0.448,7,0,7.447,0,8v2c0,0.553,0.448,1,1,1h22c0.552,0,1-0.447,1-1V8 C24,7.447,23.552,7,23,7z"></path> <path fill="currentColor" d="M21.12,21.122C20.558,21.684,19.795,22,19,22h-3c-0.552,0-1-0.448-1-1v-3c0-0.796,0.316-1.559,0.879-2.121 L18.758,13H2v10c0,0.552,0.448,1,1,1h18c0.552,0,1-0.448,1-1v-2.758L21.12,21.122z"></path> <path data-color="color-2" fill="currentColor" d="M23.5,13.5L23.5,13.5c-0.667-0.667-1.747-0.667-2.414,0l-3.793,3.793 C17.105,17.481,17,17.735,17,18v2h2c0.265,0,0.519-0.105,0.707-0.293l3.793-3.793C24.167,15.247,24.167,14.167,23.5,13.5z"></path></g></svg>