<svg id="nc_icon" version="1.1" xmlns="http://www.w3.org/2000/svg" xmlns:xlink="http://www.w3.org/1999/xlink" x="0px" y="0px" viewBox="0 0 24 24" xml:space="preserve" ><g class="nc-icon-wrapper"><path data-color="color-2" fill="currentColor" d="M23,8h-3.071l-4.081-6.53c-0.293-0.468-0.91-0.61-1.378-0.318 c-0.469,0.293-0.611,0.91-0.318,1.378L17.571,8H6.429l3.419-5.47c0.292-0.468,0.15-1.085-0.318-1.378 C9.062,0.86,8.445,1.001,8.152,1.47L4.071,8H1C0.448,8,0,8.448,0,9v2c0,0.552,0.448,1,1,1h22c0.552,0,1-0.448,1-1V9 C24,8.448,23.552,8,23,8z"></path> <path fill="currentColor" d="M15,22c0-2.761,2.239-5,5-5c0.239,0,0.467,0.038,0.697,0.07L21.721,14H1.969l2.061,8.243 C4.141,22.688,4.541,23,5,23h10.101C15.035,22.677,15,22.343,15,22z"></path> <polygon data-color="color-2" fill="currentColor" points="23,21 21,21 19,21 17,21 17,23 23,23 "></polygon></g></svg>