<svg id="nc_icon" version="1.1" xmlns="http://www.w3.org/2000/svg" xmlns:xlink="http://www.w3.org/1999/xlink" x="0px" y="0px" viewBox="0 0 24 24" xml:space="preserve" ><g class="nc-icon-wrapper" fill="currentColor"><path fill="currentColor" d="M20,1c-1.9,0-3.5,1.3-3.9,3.1C14.3,4.5,13,6.1,13,8v1h8V8c0-1.8-1.2-3.3-2.8-3.8C18.5,3.5,19.2,3,20,3 c1.1,0,2,0.9,2,2v7H0v3c0,3,2.2,5.4,5,5.9V22c0,0.6,0.4,1,1,1c0.6,0,1-0.4,1-1v-1h10v1c0,0.6,0.4,1,1,1c0.6,0,1-0.4,1-1v-1.1 c2.8-0.5,5-2.9,5-5.9v-2v-1V5C24,2.8,22.2,1,20,1z"></path></g></svg>