<svg id="nc_icon" version="1.1" xmlns="http://www.w3.org/2000/svg" xmlns:xlink="http://www.w3.org/1999/xlink" x="0px" y="0px" viewBox="0 0 24 24" xml:space="preserve" ><g class="nc-icon-wrapper" fill="currentColor"><path fill="currentColor" d="M24,5c0-2.757-2.243-5-5-5c-1.759,0-3.332,0.908-4.231,2.367C13.883,2.136,12.958,2,12,2 s-1.883,0.136-2.769,0.367C8.332,0.908,6.759,0,5,0C2.243,0,0,2.243,0,5c0,1.494,0.687,2.888,1.827,3.828 C1.297,10.116,1,11.523,1,13c0,6.065,4.935,11,11,11s11-4.935,11-11c0-1.477-0.297-2.884-0.827-4.172C23.313,7.888,24,6.494,24,5z M2.799,6.989C2.302,6.447,2,5.748,2,5c0-1.654,1.346-3,3-3c0.907,0,1.731,0.405,2.288,1.075C5.457,3.948,3.903,5.305,2.799,6.989z M8,10c0-0.552,0.448-1,1-1c0.552,0,1,0.448,1,1c0,0.552-0.448,1-1,1C8.448,11,8,10.552,8,10z M15,19H9v-2h2v-0.764l-0.895-1.789 c-0.155-0.31-0.138-0.678,0.044-0.973C10.332,13.18,10.653,13,11,13h2c0.347,0,0.668,0.18,0.851,0.474 c0.182,0.295,0.199,0.663,0.044,0.973L13,16.236V17h2V19z M15,11c-0.552,0-1-0.448-1-1c0-0.552,0.448-1,1-1c0.552,0,1,0.448,1,1 C16,10.552,15.552,11,15,11z M21.201,6.989c-1.104-1.684-2.659-3.041-4.49-3.914C17.269,2.405,18.093,2,19,2c1.654,0,3,1.346,3,3 C22,5.748,21.698,6.447,21.201,6.989z"></path></g></svg>