<svg id="nc_icon" version="1.1" xmlns="http://www.w3.org/2000/svg" xmlns:xlink="http://www.w3.org/1999/xlink" x="0px" y="0px" viewBox="0 0 24 24" xml:space="preserve" ><g class="nc-icon-wrapper" fill="currentColor"><path fill="currentColor" d="M22,3c0-0.6-0.4-1-1-1s-1,0.4-1,1v1h-7v5h9V3z"></path> <path data-color="color-2" fill="currentColor" d="M0,11v9c0,0.6,0.4,1,1,1s1-0.4,1-1v-3h20v3c0,0.6,0.4,1,1,1s1-0.4,1-1v-9H0z"></path> <path fill="currentColor" d="M11,4H4V3c0-0.6-0.4-1-1-1S2,2.4,2,3v6h9V4z"></path></g></svg>