<svg id="nc_icon" version="1.1" xmlns="http://www.w3.org/2000/svg" xmlns:xlink="http://www.w3.org/1999/xlink" x="0px" y="0px" viewBox="0 0 24 24" xml:space="preserve" ><g class="nc-icon-wrapper" fill="currentColor"><path fill="currentColor" d="M21,6V2c0-0.6-0.4-1-1-1H4C3.4,1,3,1.4,3,2v4H21z"></path> <polygon data-color="color-2" fill="currentColor" points="23.7,14 21.1,8 2.9,8 0.3,14 "></polygon> <path fill="currentColor" d="M0,22c0,0.6,0.4,1,1,1c0.6,0,1-0.4,1-1v-2h20v2c0,0.6,0.4,1,1,1c0.6,0,1-0.4,1-1v-6H0V22z"></path></g></svg>