<svg id="nc_icon" version="1.1" xmlns="http://www.w3.org/2000/svg" xmlns:xlink="http://www.w3.org/1999/xlink" x="0px" y="0px" viewBox="0 0 24 24" xml:space="preserve" ><g class="nc-icon-wrapper" fill="currentColor"><path fill="currentColor" d="M15.36005,5.50482C15.74158,5.07373,16,4.57202,16,4c0-2.5752-2.36523-4-4-4S8,1.4248,8,4 c0,0.57202,0.25842,1.07373,0.63995,1.50482C3.8183,6.94275,0,11.29718,0,16v1h6.02393c0.26868,0,0.53235-0.02295,0.79053-0.06335 C7.5094,19.41016,9.17896,24,12,24c2.81769,0,4.48975-4.58984,5.18628-7.06335C17.44421,16.97699,17.70764,17,17.97607,17H24v-1 C24,11.29718,20.1817,6.94275,15.36005,5.50482z M10.95441,13h2.09113c0.08649,0.26874,0.14069,0.43433,0.14148,0.43652 C13.3609,14.01648,13.63666,14.53839,13.98096,15h-3.95691c0.33936-0.45544,0.61029-0.96936,0.78064-1.53809 C10.80719,13.45447,10.86432,13.27985,10.95441,13z M6.02393,15H2.07666c0.54688-3.61816,3.97168-7.30176,8.5835-7.91211 c-0.85156,2.99609-1.74609,5.7207-1.76318,5.77441C8.51367,14.14062,7.35938,15,6.02393,15z M13.87317,20h-3.74725 c-0.29926-0.56177-0.59576-1.23254-0.87451-2h5.49701C14.4693,18.76746,14.17249,19.43829,13.87317,20z M17.97607,15 c-1.33545,0-2.48975-0.85938-2.88135-2.16309c-0.01025-0.03125-0.90332-2.75195-1.75488-5.74902 c4.61182,0.61035,8.03662,4.29395,8.5835,7.91211H17.97607z"></path></g></svg>