<svg id="nc_icon" version="1.1" xmlns="http://www.w3.org/2000/svg" xmlns:xlink="http://www.w3.org/1999/xlink" x="0px" y="0px" viewBox="0 0 24 24" xml:space="preserve" ><g class="nc-icon-wrapper" fill="currentColor"><path fill="currentColor" d="M21,11h-3v-0.1c0.5-0.5,0.9-1.2,1-2c0.1-1-0.2-2-0.9-2.7c-0.5-0.5-1.1-0.9-1.7-1C15.7,2.1,13.1,0,10,0 S4.3,2.1,3.7,5.1C3,5.3,2.4,5.6,1.9,6.2C1.2,6.9,0.9,7.9,1,8.9c0.1,0.8,0.4,1.5,1,2V23c0,0.6,0.4,1,1,1h14c0.6,0,1-0.4,1-1v-4h1 c1.7,0,3-1.3,3-3v-4C22,11.4,21.6,11,21,11z M3.4,7.5C3.7,7.2,4.1,7,4.4,7c0.3,0,0.5,0,0.7-0.2c0.2-0.2,0.3-0.4,0.4-0.7 C5.7,3.8,7.7,2,10,2s4.3,1.8,4.5,4.1c0,0.3,0.2,0.5,0.4,0.7C15.1,6.9,15.3,7,15.5,7c0.4,0,0.8,0.2,1.1,0.5C16.9,7.8,17,8.2,17,8.7 c-0.1,0.8-0.8,1.3-1.6,1.3H10c-0.6,0-1,0.4-1,1v4c0,0.6-0.4,1-1,1s-1-0.4-1-1v-4c0-0.6-0.4-1-1-1H4.6C3.8,10,3.1,9.4,3,8.7 C3,8.2,3.1,7.8,3.4,7.5z M20,16c0,0.6-0.4,1-1,1h-1v-4h2V16z"></path></g></svg>