<svg id="nc_icon" version="1.1" xmlns="http://www.w3.org/2000/svg" xmlns:xlink="http://www.w3.org/1999/xlink" x="0px" y="0px" viewBox="0 0 24 24" xml:space="preserve" ><g class="nc-icon-wrapper" fill="currentColor"><path data-color="color-2" fill="currentColor" d="M21,7V4c0-0.6-0.4-1-1-1h-7V1c0-0.6-0.4-1-1-1c-0.6,0-1,0.4-1,1v2H4C3.4,3,3,3.4,3,4v3H21z"></path> <path fill="currentColor" d="M23,11V9H1v2H0v2h1v9H0v2h24v-2h-1v-9h1v-2H23z M6,22H3v-9h3V22z M11,22H8v-9h3V22z M16,22h-3v-9h3V22z M21,22h-3v-9h3V22z"></path></g></svg>