<svg id="nc_icon" version="1.1" xmlns="http://www.w3.org/2000/svg" xmlns:xlink="http://www.w3.org/1999/xlink" x="0px" y="0px" viewBox="0 0 24 24" xml:space="preserve" ><g class="nc-icon-wrapper" fill="currentColor"><path data-color="color-2" fill="currentColor" d="M21,6h-4.6l1.3-4H21c0.6,0,1-0.4,1-1s-0.4-1-1-1h-4c-0.4,0-0.8,0.3-0.9,0.7L14.3,6H3 C2.4,6,2,6.4,2,7v2c0,0.6,0.4,1,1,1h18c0.6,0,1-0.4,1-1V7C22,6.4,21.6,6,21,6z"></path> <path fill="currentColor" d="M4.3,12L6,23.2C6.1,23.6,6.5,24,7,24h10c0.5,0,0.9-0.4,1-0.8L19.7,12H4.3z"></path></g></svg>