<svg id="nc_icon" version="1.1" xmlns="http://www.w3.org/2000/svg" xmlns:xlink="http://www.w3.org/1999/xlink" x="0px" y="0px" viewBox="0 0 24 24" xml:space="preserve" ><g class="nc-icon-wrapper" fill="currentColor"><path fill="currentColor" d="M19,15v6.7c2.2-1.6,3.9-4,4.6-6.7H19z"></path> <path fill="currentColor" d="M23.9,13c0-0.3,0.1-0.7,0.1-1c0-6.6-5.4-12-12-12C5.4,0,0,5.4,0,12c0,0.3,0,0.7,0.1,1H23.9z M17.4,5.7 l0.9,1.8l-3.8,1.9l-0.9-1.8L17.4,5.7z M6.6,5.7l3.8,1.9L9.4,9.3L5.7,7.4L6.6,5.7z"></path> <path fill="currentColor" d="M13,23.9c1.4-0.1,2.8-0.5,4-1.1V15h-4V23.9z"></path> <path fill="currentColor" d="M7,22.9c1.2,0.6,2.6,0.9,4,1.1V15H7V22.9z"></path> <path fill="currentColor" d="M5,15H0.4c0.7,2.7,2.4,5.1,4.6,6.7V15z"></path></g></svg>