<svg id="nc_icon" version="1.1" xmlns="http://www.w3.org/2000/svg" xmlns:xlink="http://www.w3.org/1999/xlink" x="0px" y="0px" viewBox="0 0 24 24" xml:space="preserve" ><g class="nc-icon-wrapper" fill="currentColor"><path fill="currentColor" d="M22.5,9.6C21.6,9.1,21,8.1,21,7c0-1.1,0.6-2.1,1.5-2.6C23,4.1,23.1,3.5,22.9,3c-0.3-0.5-0.9-0.6-1.4-0.4 c-1.2,0.7-2.1,1.9-2.4,3.3H4.9C4.6,4.6,3.7,3.4,2.5,2.7C2,2.4,1.4,2.6,1.1,3C0.9,3.5,1,4.1,1.5,4.4C2.4,4.9,3,5.9,3,7 c0,1.1-0.6,2.1-1.5,2.6C1,9.9,0.9,10.5,1.1,11c0.2,0.3,0.7,0.7,1.4,0.4C3.8,10.6,4.6,9.4,4.9,8h14.2c0.3,1.4,1.1,2.6,2.4,3.3 c0.7,0.4,1.2,0,1.4-0.4C23.1,10.5,23,9.9,22.5,9.6z"></path> <path data-color="color-2" fill="currentColor" d="M13,10v3h-2v-3H6v5c0,3.3,2.7,6,6,6c3.3,0,6-2.7,6-6v-5H13z"></path></g></svg>