<svg id="nc_icon" version="1.1" xmlns="http://www.w3.org/2000/svg" xmlns:xlink="http://www.w3.org/1999/xlink" x="0px" y="0px" viewBox="0 0 24 24" xml:space="preserve" ><g class="nc-icon-wrapper" fill="currentColor"><path d="M8.723,11.387,6.465,8H3V6H7a1,1,0,0,1,.832.445l2.555,3.832Z" fill="currentColor" data-color="color-2"></path>  <path d="M19,12c-.129,0-.251.029-.378.038L16.168,3.451A2.008,2.008,0,0,0,14.246,2H10V4h4.246L15.6,8.733l-7.08,4.72a5.045,5.045,0,1,0,1.108,1.665l6.549-4.366.524,1.835A4.96,4.96,0,1,0,19,12ZM8,17a3,3,0,1,1-3-3,2.971,2.971,0,0,1,1.789.606L4.445,16.168a1,1,0,1,0,1.109,1.664L7.9,16.269A2.966,2.966,0,0,1,8,17Zm11,3a2.994,2.994,0,0,1-1.736-5.437l.775,2.712A1,1,0,0,0,19,18a1.034,1.034,0,0,0,.275-.038,1,1,0,0,0,.687-1.236l-.773-2.707A2.993,2.993,0,0,1,19,20Z" fill="currentColor"></path></g></svg>