<svg id="nc_icon" version="1.1" xmlns="http://www.w3.org/2000/svg" xmlns:xlink="http://www.w3.org/1999/xlink" x="0px" y="0px" viewBox="0 0 24 24" xml:space="preserve" ><g class="nc-icon-wrapper" fill="currentColor"><path fill="currentColor" d="M18.929,10.022l-0.946-5.2C17.897,4.346,17.483,4,17,4h-4v2h3.165l0.364,2H7 C6.554,8,6.161,8.296,6.038,8.725l-0.367,1.284C5.614,10.007,5.558,10,5.5,10C2.468,10,0,12.467,0,15.5S2.468,21,5.5,21 s5.5-2.467,5.5-5.5c0-2.277-1.392-4.236-3.369-5.07L7.754,10h9.139l0.042,0.23C14.663,10.906,13,13.011,13,15.5 c0,3.033,2.468,5.5,5.5,5.5s5.5-2.467,5.5-5.5C24,12.612,21.761,10.242,18.929,10.022z M9,15.5C9,17.43,7.43,19,5.5,19 S2,17.43,2,15.5c0-1.789,1.355-3.253,3.091-3.459l-1.052,3.684c-0.151,0.531,0.156,1.084,0.688,1.236 C4.817,16.988,4.909,17,5.001,17c0.435,0,0.835-0.287,0.961-0.726l1.109-3.885C8.21,12.968,9,14.138,9,15.5z M18.5,19 c-1.93,0-3.5-1.57-3.5-3.5c0-1.506,0.961-2.781,2.298-3.274l0.719,3.953C18.104,16.662,18.524,17,18.999,17 c0.06,0,0.119-0.005,0.18-0.016c0.544-0.099,0.904-0.62,0.805-1.163l-0.676-3.718C20.847,12.47,22,13.849,22,15.5 C22,17.43,20.43,19,18.5,19z"></path> <rect data-color="color-2" x="4" y="4" fill="currentColor" width="6" height="2"></rect></g></svg>