<svg id="nc_icon" version="1.1" xmlns="http://www.w3.org/2000/svg" xmlns:xlink="http://www.w3.org/1999/xlink" x="0px" y="0px" viewBox="0 0 24 24" xml:space="preserve" ><g class="nc-icon-wrapper" fill="currentColor"><path fill="currentColor" d="M10,5H5C4.559,5,4.169,5.29,4.042,5.713l-3,10C1.015,15.806,1,15.903,1,16v5H0v2h11v-1v-1V6 C11,5.448,10.553,5,10,5z"></path> <rect data-color="color-2" x="6" y="1" fill="currentColor" width="5" height="2"></rect> <rect data-color="color-2" x="13" y="1" fill="currentColor" width="5" height="2"></rect> <path fill="currentColor" d="M23,21v-5c0-0.097-0.015-0.194-0.042-0.287l-3-10C19.831,5.29,19.441,5,19,5h-5c-0.553,0-1,0.448-1,1v15v1v1 h11v-2H23z"></path></g></svg>