<svg id="nc_icon" version="1.1" xmlns="http://www.w3.org/2000/svg" xmlns:xlink="http://www.w3.org/1999/xlink" x="0px" y="0px" viewBox="0 0 24 24" xml:space="preserve" ><g class="nc-icon-wrapper" fill="currentColor"><path fill="currentColor" d="M16.055,10.227C16.639,9.468,17,8.53,17,7.5c0-2.31-1.756-4.197-4-4.449V0h-2v3H9V0H7v3H6 C5.448,3,5,3.447,5,4v16c0,0.553,0.448,1,1,1h1v3h2v-3h2v3h2v-3h1.5c3.033,0,5.5-2.468,5.5-5.5C20,13.008,18.332,10.9,16.055,10.227 z M12.5,5C13.878,5,15,6.121,15,7.5S13.878,10,12.5,10H7V5H12.5z M14.5,19H7v-7h7.5c1.93,0,3.5,1.57,3.5,3.5S16.43,19,14.5,19z"></path></g></svg>