<svg id="nc_icon" version="1.1" xmlns="http://www.w3.org/2000/svg" xmlns:xlink="http://www.w3.org/1999/xlink" x="0px" y="0px" viewBox="0 0 24 24" xml:space="preserve" ><g class="nc-icon-wrapper" fill="currentColor"><path fill="currentColor" d="M16.6,15.2L11.6,11l5.1-4.2C16.9,6.6,17,6.3,17,5.9c0-0.3-0.2-0.6-0.4-0.8l-6-4c-0.3-0.2-0.7-0.2-1,0 C9.2,1.3,9,1.6,9,2v6.9L4.6,5.2C4.2,4.9,3.6,4.9,3.2,5.4C2.9,5.8,2.9,6.4,3.4,6.8L8.4,11l-5.1,4.2c-0.4,0.4-0.5,1-0.1,1.4 c0.4,0.4,1,0.5,1.4,0.1L9,13.1V21c0,0.4,0.2,0.7,0.6,0.9C9.7,22,9.9,22,10,22c0.2,0,0.5-0.1,0.6-0.2l6-5c0.2-0.2,0.4-0.5,0.4-0.8 S16.9,15.4,16.6,15.2z M11,3.9l3.3,2.2L11,8.9V3.9z M11,18.9v-5.7l3.4,2.9L11,18.9z"></path></g></svg>