<svg id="nc_icon" xmlns="http://www.w3.org/2000/svg" xmlns:xlink="http://www.w3.org/1999/xlink" x="0px" y="0px" viewBox="0 0 24 24" ><g class="nc-icon-wrapper" fill="currentColor"><path d="M12,0A6.964,6.964,0,0,0,5.111,8.2,8.952,8.952,0,0,1,12,9.522,8.952,8.952,0,0,1,18.889,8.2,6.964,6.964,0,0,0,12,0Zm0,5a1,1,0,1,1,1-1A1,1,0,0,1,12,5Z" fill="currentColor" data-color="color-2"></path> <path d="M7,10a7,7,0,1,0,7,7A7.008,7.008,0,0,0,7,10ZM5,16a1,1,0,1,1,1-1A1,1,0,0,1,5,16Z" fill="currentColor"></path> <path d="M17,10a6.95,6.95,0,0,0-3.409.892,8.948,8.948,0,0,1,0,12.216A7,7,0,1,0,17,10Zm3,8a1,1,0,1,1,1-1A1,1,0,0,1,20,18Z" fill="currentColor"></path></g></svg>