<svg id="nc_icon" version="1.1" xmlns="http://www.w3.org/2000/svg" xmlns:xlink="http://www.w3.org/1999/xlink" x="0px" y="0px" viewBox="0 0 24 24" xml:space="preserve" ><g class="nc-icon-wrapper" fill="currentColor"><path fill="currentColor" d="M23.97,21.758l-5-20C18.859,1.312,18.459,1,18,1H5C4.692,1,4.401,1.142,4.212,1.385 C4.022,1.627,3.955,1.943,4.03,2.242l5,20c0.134,0.537,0.679,0.863,1.213,0.728c0.536-0.134,0.861-0.677,0.728-1.212L10.031,18 h10.938l1.061,4.242C22.144,22.697,22.551,23,22.999,23c0.081,0,0.162-0.01,0.244-0.03C23.778,22.836,24.104,22.293,23.97,21.758z"></path> <path data-color="color-2" fill="currentColor" d="M2.971,6.255L0.026,18.771c-0.126,0.538,0.207,1.076,0.745,1.203 C0.848,19.991,0.925,20,1.001,20c0.453,0,0.864-0.311,0.973-0.771L2.733,16h2.674L2.971,6.255z"></path></g></svg>