<svg id="nc_icon" version="1.1" xmlns="http://www.w3.org/2000/svg" xmlns:xlink="http://www.w3.org/1999/xlink" x="0px" y="0px" viewBox="0 0 24 24" xml:space="preserve" ><g class="nc-icon-wrapper" fill="currentColor"><rect data-color="color-2" x="6" y="8" fill="currentColor" width="6" height="2"></rect> <rect data-color="color-2" x="6" y="13" fill="currentColor" width="12" height="2"></rect> <path fill="currentColor" d="M23,18h-1V7h-2v11H4V4h17V2h-8V0h-2v2H3C2.448,2,2,2.447,2,3v15H1c-0.552,0-1,0.447-1,1s0.448,1,1,1h6.586 l-2.293,2.293l1.414,1.414L10.414,20H11v3h2v-3h0.586l3.707,3.707l1.414-1.414L16.414,20H23c0.552,0,1-0.447,1-1S23.552,18,23,18z"></path> <path data-color="color-2" fill="currentColor" d="M15,10c-0.256,0-0.512-0.098-0.707-0.293c-0.391-0.391-0.391-1.023,0-1.414l8-8 c0.391-0.391,1.023-0.391,1.414,0s0.391,1.023,0,1.414l-8,8C15.512,9.902,15.256,10,15,10z"></path></g></svg>