<svg id="nc_icon" version="1.1" xmlns="http://www.w3.org/2000/svg" xmlns:xlink="http://www.w3.org/1999/xlink" x="0px" y="0px" viewBox="0 0 24 24" xml:space="preserve" ><g class="nc-icon-wrapper" fill="currentColor"><path fill="currentColor" d="M10,2c0-0.552-0.448-1-1-1H6C5.448,1,5,1.448,5,2v2h5V2z"></path> <path data-color="color-2" fill="currentColor" d="M23,17c-0.552,0-1,0.448-1,1c0,1.654-1.346,3-3,3c-1.087,0-2.092-0.605-2.622-1.579 c-0.351-0.644-1.406-0.644-1.757,0C14.092,20.395,13.087,21,12,21s-2.092-0.605-2.622-1.579c-0.351-0.644-1.406-0.644-1.757,0 C7.092,20.395,6.087,21,5,21c-1.654,0-3-1.346-3-3c0-0.552-0.448-1-1-1s-1,0.448-1,1c0,2.757,2.243,5,5,5 c1.327,0,2.578-0.534,3.5-1.451C9.422,22.466,10.673,23,12,23s2.578-0.534,3.5-1.451C16.422,22.466,17.673,23,19,23 c2.757,0,5-2.243,5-5C24,17.448,23.552,17,23,17z"></path> <path fill="currentColor" d="M3.051,17.316C3.191,17.735,3.581,18,4,18c0.104,0,0.211-0.017,0.316-0.052 c0.524-0.175,0.807-0.741,0.632-1.265L3.387,12H4h14c0.006,0,0.013-0.001,0.02,0h2.362l-2.276,4.553 c-0.247,0.494-0.047,1.095,0.447,1.342c0.496,0.248,1.095,0.047,1.342-0.447l3-6c0.155-0.31,0.138-0.678-0.044-0.973 C22.668,10.18,22.347,10,22,10h-3.382l-1.723-3.447C16.725,6.214,16.379,6,16,6H4C3.448,6,3,6.448,3,7v3H2 c-0.321,0-0.623,0.154-0.811,0.416c-0.188,0.261-0.239,0.596-0.138,0.901L3.051,17.316z"></path></g></svg>