<svg id="nc_icon" version="1.1" xmlns="http://www.w3.org/2000/svg" xmlns:xlink="http://www.w3.org/1999/xlink" x="0px" y="0px" viewBox="0 0 24 24" xml:space="preserve" ><g class="nc-icon-wrapper" fill="currentColor"><path fill="currentColor" d="M14,1c0-0.552-0.448-1-1-1h-2c-0.552,0-1,0.448-1,1v2h4V1z"></path> <path data-color="color-2" fill="currentColor" d="M23,18.101c-0.552,0-1,0.448-1,1c0,1.654-1.346,3-3,3c-1.087,0-2.092-0.605-2.622-1.579 c-0.351-0.644-1.406-0.644-1.757,0c-0.53,0.974-1.535,1.579-2.622,1.579s-2.092-0.605-2.622-1.579c-0.351-0.644-1.406-0.644-1.757,0 C7.092,21.496,6.087,22.101,5,22.101c-1.654,0-3-1.346-3-3c0-0.552-0.448-1-1-1s-1,0.448-1,1c0,2.757,2.243,5,5,5 c1.327,0,2.578-0.534,3.5-1.451c0.922,0.917,2.173,1.451,3.5,1.451s2.578-0.534,3.5-1.451c0.922,0.917,2.173,1.451,3.5,1.451 c2.757,0,5-2.243,5-5C24,18.549,23.552,18.101,23,18.101z"></path> <path fill="currentColor" d="M4.105,19.447c0.247,0.494,0.846,0.694,1.342,0.447c0.494-0.247,0.694-0.848,0.447-1.342l-1.572-3.144 L12,11.144l7.677,4.265l-1.572,3.144c-0.247,0.494-0.047,1.095,0.447,1.342C18.696,19.966,18.849,20,18.999,20 c0.367,0,0.72-0.202,0.896-0.553l2-4c0.239-0.479,0.059-1.062-0.409-1.321L20,13.301V6c0-0.552-0.448-1-1-1H5C4.448,5,4,5.448,4,6 v7.301l-1.486,0.825c-0.468,0.26-0.648,0.842-0.409,1.321L4.105,19.447z"></path></g></svg>