<svg id="nc_icon" version="1.1" xmlns="http://www.w3.org/2000/svg" xmlns:xlink="http://www.w3.org/1999/xlink" x="0px" y="0px" viewBox="0 0 24 24" xml:space="preserve" ><g class="nc-icon-wrapper" fill="currentColor"><path data-color="color-2" fill="currentColor" d="M23,18H1c-0.369,0-0.708,0.203-0.882,0.528c-0.174,0.325-0.155,0.72,0.05,1.026l2,3 C2.354,22.833,2.666,23,3,23h17c0.265,0,0.52-0.105,0.707-0.293l3-3c0.286-0.286,0.372-0.716,0.217-1.09 C23.769,18.244,23.404,18,23,18z"></path> <path fill="currentColor" d="M3,16h10c0.552,0,1-0.448,1-1V1c0-0.435-0.281-0.82-0.695-0.952c-0.414-0.132-0.866,0.018-1.119,0.371 l-10,14c-0.217,0.305-0.247,0.706-0.075,1.039S2.625,16,3,16z"></path></g></svg>