<svg id="nc_icon" version="1.1" xmlns="http://www.w3.org/2000/svg" xmlns:xlink="http://www.w3.org/1999/xlink" x="0px" y="0px" viewBox="0 0 24 24" xml:space="preserve" ><g class="nc-icon-wrapper" fill="currentColor"><path fill="currentColor" d="M3,23v-2.37035l1.30029-0.40936C4.71675,20.08917,5,19.70304,5,19.26644V4.75517 c0-0.44689-0.29651-0.83954-0.72635-0.96183L3,3.43097V1h10.10971c5.19597,0,6.65456,2.37035,6.65456,5.37783 c0,2.88748-1.85323,4.49823-3.70646,5.10566v0.09031C19.52179,11.96969,21,13.96159,21,17c0,4.49699-3.3933,6-8.1637,6H3z M11.16493,10.2377c2.18726,0,4.13204-0.51712,4.13204-3.10026c0-2.49159-1.57982-2.82562-3.67677-2.82562H10v5.92588H11.16493z M12.04577,19.71788c2.55221,0,4.22358-0.60743,4.22358-3.25119c0-2.52252-1.70106-3.19058-3.76708-3.19058H10v6.44177H12.04577z"></path></g></svg>