<svg id="nc_icon" version="1.1" xmlns="http://www.w3.org/2000/svg" xmlns:xlink="http://www.w3.org/1999/xlink" x="0px" y="0px" viewBox="0 0 24 24" xml:space="preserve" ><g class="nc-icon-wrapper" fill="currentColor"><path fill="currentColor" d="M22.874,11.514l-5-9C17.698,2.197,17.363,2,17,2H7C6.637,2,6.302,2.197,6.126,2.514l-5,9 c-0.168,0.302-0.168,0.669,0,0.972l5,9C6.302,21.803,6.637,22,7,22h10c0.363,0,0.698-0.197,0.874-0.515l5-9 C23.042,12.184,23.042,11.816,22.874,11.514z M12,16c-2.206,0-4-1.794-4-4c0-2.206,1.794-4,4-4c2.206,0,4,1.794,4,4 C16,14.206,14.206,16,12,16z"></path></g></svg>