<svg id="nc_icon" version="1.1" xmlns="http://www.w3.org/2000/svg" xmlns:xlink="http://www.w3.org/1999/xlink" x="0px" y="0px" viewBox="0 0 24 24" xml:space="preserve" ><g class="nc-icon-wrapper" fill="currentColor"><path fill="currentColor" d="M22,5V2h-8c-0.768,0-1.469,0.29-2,0.766C11.469,2.29,10.768,2,10,2H2v3H1C0.448,5,0,5.448,0,6v15 c0,0.552,0.448,1,1,1h22c0.552,0,1-0.448,1-1V6c0-0.552-0.448-1-1-1H22z M20,18h-6c-0.768,0-1.469,0.524-2,1 c-0.531-0.476-1.232-1-2-1H4V4h6c0.551,0,1,0.448,1,1v9h2V5c0-0.552,0.449-1,1-1h6V18z"></path></g></svg>