<svg id="nc_icon" version="1.1" xmlns="http://www.w3.org/2000/svg" xmlns:xlink="http://www.w3.org/1999/xlink" x="0px" y="0px" viewBox="0 0 24 24" xml:space="preserve" ><g class="nc-icon-wrapper" fill="currentColor"><path fill="currentColor" d="M11,2.691L1.263,0.035c-0.297-0.08-0.622-0.018-0.87,0.17C0.146,0.395,0,0.688,0,1v15 c0,0.451,0.302,0.846,0.737,0.965L11,19.764V2.691z"></path> <path fill="currentColor" d="M23.607,0.205c-0.248-0.188-0.572-0.25-0.87-0.17L13,2.691v17.073l10.263-2.799 C23.698,16.846,24,16.451,24,16V1C24,0.688,23.854,0.395,23.607,0.205z"></path> <path data-color="color-2" fill="currentColor" d="M23.788,18.895l-10.999,3C12.532,21.964,12.267,22,12,22s-0.532-0.036-0.789-0.105l-11-3 c-0.073-0.02-0.14-0.052-0.211-0.077V23c0,0.552,0.447,1,1,1h22c0.553,0,1-0.448,1-1v-4.183 C23.929,18.843,23.862,18.875,23.788,18.895z"></path></g></svg>