<svg id="nc_icon" version="1.1" xmlns="http://www.w3.org/2000/svg" xmlns:xlink="http://www.w3.org/1999/xlink" x="0px" y="0px" viewBox="0 0 24 24" xml:space="preserve" ><g class="nc-icon-wrapper" fill="currentColor"><path fill="currentColor" d="M15,13c0-2.761,2.239-5,5-5V1c0-0.552-0.448-1-1-1H3C2.448,0,2,0.448,2,1v23l9-5.821L20,24v-6 C17.239,18,15,15.761,15,13z"></path> <polygon data-color="color-2" fill="currentColor" points="23,12 21,12 21,10 19,10 19,12 17,12 17,14 19,14 19,16 21,16 21,14 23,14 "></polygon></g></svg>