<svg id="nc_icon" version="1.1" xmlns="http://www.w3.org/2000/svg" xmlns:xlink="http://www.w3.org/1999/xlink" x="0px" y="0px" viewBox="0 0 24 24" xml:space="preserve" ><g class="nc-icon-wrapper"><path fill="currentColor" d="M23,20c-0.5527344,0-1,0.4477539-1,1c0,0.5512695-0.4482422,1-1,1h-5v-2h3c0.5527344,0,1-0.4477539,1-1v-3 c0-2.2055664-1.7939453-4-4-4h-2V9h-4V7h4V5h-4V3h4V1c0-0.5522461-0.4472656-1-1-1H3C2.4472656,0,2,0.4477539,2,1v18 c0,0.5522461,0.4472656,1,1,1h3v2H1c-0.5527344,0-1,0.4477539-1,1s0.4472656,1,1,1h20c1.6542969,0,3-1.3457031,3-3 C24,20.4477539,23.5527344,20,23,20z M14,22H8v-2h6V22z"></path></g></svg>