<svg id="nc_icon" version="1.1" xmlns="http://www.w3.org/2000/svg" xmlns:xlink="http://www.w3.org/1999/xlink" x="0px" y="0px" viewBox="0 0 24 24" xml:space="preserve" ><g class="nc-icon-wrapper"><path fill="currentColor" d="M12,0C5.4,0,0,5.4,0,12s5.4,12,12,12c6.6,0,12-5.4,12-12S18.6,0,12,0z M5,7h2c0,0.6,0.4,1,1,1 c0.6,0,1-0.4,1-1h2c0,1.7-1.3,3-3,3C6.3,10,5,8.7,5,7z M12,19c-1.7,0-3-1.3-3-3s1.3-3,3-3c1.7,0,3,1.3,3,3S13.7,19,12,19z M19,7 c0,1.7-1.3,3-3,3c-1.7,0-3-1.3-3-3h2c0,0.6,0.4,1,1,1c0.6,0,1-0.4,1-1H19z"></path></g></svg>