<svg id="nc_icon" version="1.1" xmlns="http://www.w3.org/2000/svg" xmlns:xlink="http://www.w3.org/1999/xlink" x="0px" y="0px" viewBox="0 0 24 24" xml:space="preserve" ><g class="nc-icon-wrapper"><path fill="currentColor" d="M24,12l-6-5v4h-2.055c-0.271-4.059-2.155-7.837-5.302-10.482c-0.423-0.354-1.054-0.3-1.409,0.122 C8.879,1.062,8.934,1.693,9.356,2.049c0.414,0.348,0.797,0.724,1.16,1.115L3.551,11H0v2h3.551l6.966,7.837 c-0.363,0.391-0.746,0.766-1.16,1.115c-0.423,0.355-0.478,0.986-0.122,1.409c0.198,0.235,0.481,0.356,0.767,0.356 c0.227,0,0.455-0.077,0.643-0.234c3.146-2.645,5.031-6.424,5.302-10.482H18v4L24,12z M11.772,4.761 c1.245,1.848,1.999,3.988,2.173,6.239H6.227L11.772,4.761z M11.772,19.239L6.227,13h7.718 C13.772,15.251,13.017,17.391,11.772,19.239z"></path></g></svg>