<svg id="nc_icon" version="1.1" xmlns="http://www.w3.org/2000/svg" xmlns:xlink="http://www.w3.org/1999/xlink" x="0px" y="0px" viewBox="0 0 24 24" xml:space="preserve" ><g class="nc-icon-wrapper"><path data-color="color-2" fill="currentColor" d="M21,21H6c-0.5527344,0-1,0.4477539-1,1v1c0,0.5522461,0.4472656,1,1,1h15 c0.5527344,0,1-0.4477539,1-1v-1C22,21.4477539,21.5527344,21,21,21z"></path> <path fill="currentColor" d="M8.5,5C10.4296875,5,12,6.5703125,12,8.5c0,0.1712036-0.0266724,0.3352661-0.0505371,0.5h7.1003418 C20.5353394,9,22,8.0625,22,6.4927979V4c0-2.2055664-1.7939453-4-4-4H9C6.7939453,0,5,1.7944336,5,4v1H8.5z"></path> <path fill="currentColor" d="M19.0498047,11H11c-0.0166016,0-0.0304565-0.008667-0.046875-0.0094604 C10.3209229,11.6133423,9.4553223,12,8.5,12H8c-0.5527344,0-1-0.4477539-1-1s0.4472656-1,1-1h0.5C9.3271484,10,10,9.3271484,10,8.5 S9.3271484,7,8.5,7c0,0-2.5625072,0-3.5,0c-0.9375072,0-3,1.03125-3,4v3c0,4.0625,3.46875,5,4,5h15c0.5527344,0,1-0.4477539,1-1 v-7.984436C21.1707153,10.626709,20.1565552,11,19.0498047,11z"></path></g></svg>