<svg id="nc_icon" version="1.1" xmlns="http://www.w3.org/2000/svg" xmlns:xlink="http://www.w3.org/1999/xlink" x="0px" y="0px" viewBox="0 0 24 24" xml:space="preserve" ><g class="nc-icon-wrapper"><path data-color="color-2" fill="currentColor" d="M8,1C6.7,1,5.6,1.8,5.2,3C5.1,3,5.1,3,5,3C2.2,3,0,5.2,0,8c0,1.3,0.5,2.6,1.4,3.5 C0.6,12,0,12.9,0,14c0,1,0.5,1.9,1.3,2.4C1.1,16.9,1,17.5,1,18c0,2.8,2.2,5,5,5s5-2.2,5-5V4C11,2.3,9.7,1,8,1z"></path> <path fill="currentColor" d="M22.6,11.5C23.5,10.6,24,9.3,24,8c0-2.8-2.2-5-5-5c-0.1,0-0.1,0-0.2,0c-0.4-1.2-1.5-2-2.8-2 c-1.7,0-3,1.3-3,3v14c0,2.8,2.2,5,5,5s5-2.2,5-5c0-0.5-0.1-1.1-0.3-1.6C23.5,15.9,24,15,24,14C24,12.9,23.4,12,22.6,11.5z"></path></g></svg>