<svg id="nc_icon" version="1.1" xmlns="http://www.w3.org/2000/svg" xmlns:xlink="http://www.w3.org/1999/xlink" x="0px" y="0px" viewBox="0 0 24 24" xml:space="preserve" ><g class="nc-icon-wrapper" fill="currentColor"><path d="M10,0A1,1,0,0,0,9,1V9a1,1,0,0,0,1,1,4,4,0,0,1,4,4,1,1,0,0,0,1,1h8a1,1,0,0,0,1-1A14.016,14.016,0,0,0,10,0Zm5.917,13A6.016,6.016,0,0,0,11,8.083V2.041A12.021,12.021,0,0,1,21.958,13Z" fill="currentColor" data-color="color-2"></path>  <circle cx="14" cy="6" r="1" fill="currentColor" data-color="color-2"></circle>  <circle cx="18" cy="10" r="1" fill="currentColor" data-color="color-2"></circle>  <path d="M10.5,20A6.494,6.494,0,0,1,7,8.032V3.613A10.493,10.493,0,1,0,20.387,17H15.968A6.5,6.5,0,0,1,10.5,20Z" fill="currentColor"></path></g></svg>