<svg id="nc_icon" version="1.1" xmlns="http://www.w3.org/2000/svg" xmlns:xlink="http://www.w3.org/1999/xlink" x="0px" y="0px" viewBox="0 0 24 24" xml:space="preserve" ><g class="nc-icon-wrapper"><path fill="currentColor" d="M18,1H6C2.7,1,0,3.7,0,7c0,2.6,1.6,4.8,4,5.7V22c0,0.6,0.4,1,1,1h14c0.6,0,1-0.4,1-1v-9.3 c2.4-0.8,4-3.1,4-5.7C24,3.7,21.3,1,18,1z M7,8C6.7,8,6.5,7.9,6.3,7.7c-0.4-0.4-0.4-1,0-1.4l1-1c0.4-0.4,1-0.4,1.4,0s0.4,1,0,1.4 l-1,1C7.5,7.9,7.3,8,7,8z M10,16c0,0.6-0.4,1-1,1s-1-0.4-1-1v-1c0-0.6,0.4-1,1-1s1,0.4,1,1V16z M11.3,10.7c-0.4-0.4-0.4-1,0-1.4 s1-0.4,1.4,0l1,1c0.4,0.4,0.4,1,0,1.4C13.5,11.9,13.3,12,13,12s-0.5-0.1-0.7-0.3L11.3,10.7z M15.7,16.7l-1,1 C14.5,17.9,14.3,18,14,18s-0.5-0.1-0.7-0.3c-0.4-0.4-0.4-1,0-1.4l1-1c0.4-0.4,1-0.4,1.4,0S16.1,16.3,15.7,16.7z M17,7 c0,0.6-0.4,1-1,1s-1-0.4-1-1V6c0-0.6,0.4-1,1-1s1,0.4,1,1V7z"></path></g></svg>