<svg id="nc_icon" version="1.1" xmlns="http://www.w3.org/2000/svg" xmlns:xlink="http://www.w3.org/1999/xlink" x="0px" y="0px" viewBox="0 0 24 24" xml:space="preserve" ><g class="nc-icon-wrapper"><path data-color="color-2" fill="currentColor" d="M15,18v2H9v-2H1v5c0,0.552,0.448,1,1,1h20c0.552,0,1-0.448,1-1v-5H15z"></path> <path fill="currentColor" d="M23,4h-6V1c0-0.552-0.448-1-1-1H8C7.448,0,7,0.448,7,1v3H1C0.448,4,0,4.448,0,5v10c0,0.552,0.448,1,1,1h8v-3 h6v3h8c0.552,0,1-0.448,1-1V5C24,4.448,23.552,4,23,4z M15,4H9V2h6V4z"></path></g></svg>