<svg id="nc_icon" version="1.1" xmlns="http://www.w3.org/2000/svg" xmlns:xlink="http://www.w3.org/1999/xlink" x="0px" y="0px" viewBox="0 0 24 24" xml:space="preserve" ><g class="nc-icon-wrapper" fill="currentColor"><rect data-color="color-2" y="11" fill="currentColor" width="3" height="2"></rect> <rect data-color="color-2" x="3.575" y="3.075" transform="matrix(0.7071 -0.7071 0.7071 0.7071 -1.8951 4.5752)" fill="currentColor" width="2" height="3"></rect> <rect data-color="color-2" x="11" fill="currentColor" width="2" height="3"></rect> <rect data-color="color-2" x="17.925" y="3.575" transform="matrix(0.7071 -0.7071 0.7071 0.7071 2.4542 15.0755)" fill="currentColor" width="3" height="2"></rect> <rect data-color="color-2" x="21" y="11" fill="currentColor" width="3" height="2"></rect> <rect data-color="color-2" x="18.425" y="17.925" transform="matrix(0.7071 -0.7071 0.7071 0.7071 -8.046 19.4248)" fill="currentColor" width="2" height="3"></rect> <rect data-color="color-2" x="11" y="21" fill="currentColor" width="2" height="3"></rect> <rect data-color="color-2" x="3.075" y="18.425" transform="matrix(0.7071 -0.7071 0.7071 0.7071 -12.3954 8.9245)" fill="currentColor" width="3" height="2"></rect> <path fill="currentColor" d="M12,5c-3.859,0-7,3.14-7,7s3.141,7,7,7s7-3.14,7-7S15.859,5,12,5z M7,12c0-2.757,2.243-5,5-5v10 C9.243,17,7,14.757,7,12z"></path></g></svg>