<svg id="nc_icon" version="1.1" xmlns="http://www.w3.org/2000/svg" xmlns:xlink="http://www.w3.org/1999/xlink" x="0px" y="0px" viewBox="0 0 24 24" xml:space="preserve" ><g class="nc-icon-wrapper" fill="currentColor"><path data-color="color-2" fill="currentColor" d="M16,17.5c-1.5,1-3.2,1.5-5,1.5c-1.1,0-2.1-0.2-3-0.5C9,21.1,9,23,9,23c0,0.3,0.1,0.5,0.3,0.7 C9.5,23.9,9.7,24,10,24h4c0.3,0,0.6-0.1,0.8-0.3c0.2-0.2,0.3-0.5,0.2-0.8C15,22.8,14.6,20.1,16,17.5z"></path> <path fill="currentColor" d="M19.8,5.1C19.2,2.7,17,1,14.5,1c-1.1,0-2.2,0.3-3.1,1C10.3,0.7,8.7,0,7,0C3.7,0,1,2.7,1,6 c0,0.4,0,0.8,0.1,1.2C0.4,8,0,9,0,10c0,2.2,1.8,4,4,4c0.4,0,0.8-0.1,1.1-0.2c1.3,2,3.5,3.2,5.9,3.2c2.2,0,4.2-1,5.5-2.7 c0.8,0.4,1.6,0.7,2.5,0.7c2.8,0,5-2.2,5-5C24,7.5,22.2,5.4,19.8,5.1z"></path></g></svg>