<svg id="nc_icon" version="1.1" xmlns="http://www.w3.org/2000/svg" xmlns:xlink="http://www.w3.org/1999/xlink" x="0px" y="0px" viewBox="0 0 24 24" xml:space="preserve" ><g class="nc-icon-wrapper" fill="currentColor"><path data-color="color-2" fill="currentColor" d="M21.116,4.218c-2.361-1.623-4.884-1.533-7.114-0.668c2.578,1.118,4.45,4.478,4.45,8.451 c0,3.972-1.872,7.333-4.45,8.45c2.23,0.864,4.752,0.954,7.114-0.669C22.908,17.686,24,14.974,24,12S22.908,6.314,21.116,4.218z"></path> <path fill="currentColor" d="M8.05,18.763c-1.327-1.566-2.186-3.882-2.244-6.48c0-0.007,0-0.559,0-0.565 c0.058-2.598,0.918-4.914,2.244-6.48c1.722-2.236,4.281-3.653,7.138-3.653c1.758,0,3.403,0.537,4.809,1.47 c-2.112-1.89-4.898-3.043-7.953-3.054C12.03,0.001,12.015,0,12,0C5.373,0,0,5.373,0,12c0,6.436,5.066,11.688,11.428,11.986 C11.618,23.995,11.808,24,12,24c3.072,0,5.874-1.155,7.997-3.054c-1.406,0.933-3.051,1.47-4.809,1.47 C12.331,22.416,9.772,20.998,8.05,18.763z"></path></g></svg>