<svg id="nc_icon" version="1.1" xmlns="http://www.w3.org/2000/svg" xmlns:xlink="http://www.w3.org/1999/xlink" x="0px" y="0px" viewBox="0 0 24 24" xml:space="preserve" ><g class="nc-icon-wrapper" fill="currentColor"><path fill="currentColor" d="M5.407,6.357C2.552,8.134,0.92,10.659,0.92,10.659C1.39,4.774,6.002,0,12.206,0 c5.136,0,9.341,3.445,10.431,7.904c0.525,2.151,0.438,4.231,0.438,6.025H8.001c0,0-0.368,5.064,6.564,5.064 c2.378,0,4.638-0.536,6.488-1.8l0.002,5.06c-2.647,1.631-7.633,2.285-10.828,1.248c-3.725-1.209-6.516-4.418-6.516-9.048 c0-2.188,0.748-4.277,2.045-5.787c1.68-1.956,3.804-2.817,3.804-2.817C8.65,6.908,8.054,8.336,7.9,9.673h8.511 c0,0,0.498-5.086-4.816-5.086C9.593,4.587,7.134,5.282,5.407,6.357z"></path></g></svg>