<svg id="nc_icon" version="1.1" xmlns="http://www.w3.org/2000/svg" xmlns:xlink="http://www.w3.org/1999/xlink" x="0px" y="0px" viewBox="0 0 24 24" xml:space="preserve" ><g class="nc-icon-wrapper" fill="currentColor"><path fill="currentColor" d="M22.718,5.365c2.221-5.762-2.093-5.359-2.093-5.359c-2.767,0-6.226,2.52-6.226,2.52S10.273,1.414,6.147,3.91 c-4.497,2.866-4.349,7.956-4.349,7.956c3.858-5.147,8.747-7.017,8.747-7.017c-7.511,5.136-9.29,12.65-9.735,14.182 C0.365,20.563,0.662,24,3.824,24c3.163,0,6.375-2.548,6.375-2.548s0.692,0.148,2.57,0.148c7.906,0,9.784-6.968,9.784-6.968h-7.017 c0,0-0.494,2.273-3.014,2.273c-3.459,0-3.261-3.607-3.261-3.607h13.392c0.516-7.466-4.611-9.79-6.646-10.416 c1.113-0.833,3.439-2.577,5.776-1.805c1.891,0.625,0.713,4.063,0.713,4.063C22.496,5.143,22.717,5.363,22.718,5.365z M9.807,21.35 c0,0-4.826,2.929-6.993,0.899c-1.161-2.03,0.725-4.904,0.725-4.904S5.135,20.305,9.807,21.35z M15.612,10.137H9.243 c0,0-0.081-3.104,3.265-3.104C15.739,7.034,15.612,10.137,15.612,10.137z"></path></g></svg>