<svg id="nc_icon" version="1.1" xmlns="http://www.w3.org/2000/svg" xmlns:xlink="http://www.w3.org/1999/xlink" x="0px" y="0px" viewBox="0 0 24 24" xml:space="preserve" ><g class="nc-icon-wrapper" fill="currentColor"><path fill="currentColor" d="M12,0C8.496,0,5.348,1.519,3.153,3.921C2.634,3.178,2.499,2.277,2.499,2.277s-1.7,1.268-1.244,4.346 c0,0-0.005,0.04-0.015,0.098C0.454,8.317,0,10.104,0,12c0,6.617,5.383,12,12,12s12-5.383,12-12S18.617,0,12,0z M20.306,6.439 c0.45,7.89-5.604,14.043-11.755,9.551c0.01,0.002,2.714,0.032,3.678-0.486c0.608-0.327,1.385-0.973,1.76-0.912 c0.608,0.09,0.751-0.399,0.445-0.75c-0.351-0.404-1.281-1.167-2.361-0.655c-2.964,1.404-4.941-0.672-4.598-1.888 c0.064-0.229,0.309-0.531,0.412-0.551c0.502-0.487,3.403-2.396,3.766-3.282c0.086-0.21,0.183-0.703-0.098-0.806 C11.089,6.549,9.98,6.545,9.57,6.548C8.789,6.555,8.265,6.068,8.3,5.583c0.044-0.605,0.466-1.359,1.664-2.347 c-2.057-0.3-3.244,1.341-3.245,1.343C6.334,4.483,5.876,4.461,5.44,4.471C7.198,2.937,9.489,2,12,2 C15.457,2,18.509,3.765,20.306,6.439z"></path></g></svg>