<svg id="nc_icon" version="1.1" xmlns="http://www.w3.org/2000/svg" xmlns:xlink="http://www.w3.org/1999/xlink" x="0px" y="0px" viewBox="0 0 24 24" xml:space="preserve" ><g class="nc-icon-wrapper" fill="currentColor"><path data-color="color-2" fill="currentColor" d="M8.364,15.636c-0.755-0.755-1.76-1.171-2.828-1.171s-2.073,0.416-2.829,1.171 c-1.373,1.373-1.662,5.498-1.706,6.31c-0.015,0.284,0.091,0.561,0.292,0.761C1.481,22.895,1.735,23,2,23 c0.018,0,0.036,0,0.054-0.001c0.812-0.044,4.937-0.333,6.31-1.706c0.756-0.755,1.172-1.76,1.172-2.828S9.12,16.391,8.364,15.636z"></path> <path fill="currentColor" d="M21.604,1.502c-1.252-0.844-2.951-0.583-4.018,0.484C15.29,4.282,9.228,10.343,6.937,12.635 c1.066,0.254,2.047,0.792,2.841,1.587c0.789,0.789,1.325,1.761,1.582,2.819L22.087,6.313C23.448,4.952,23.287,2.637,21.604,1.502z"></path></g></svg>