<svg id="nc_icon" version="1.1" xmlns="http://www.w3.org/2000/svg" xmlns:xlink="http://www.w3.org/1999/xlink" x="0px" y="0px" viewBox="0 0 24 24" xml:space="preserve" ><g class="nc-icon-wrapper" fill="currentColor"><path fill="currentColor" d="M12,24.007c-1.846,0-7.796-0.209-7.995-2.862L0.146,4.737C0.051,4.509,0,4.266,0,4.007c0-3.158,7.543-4,12-4 s12,0.842,12,4c0,0.259-0.051,0.502-0.146,0.73l-3.858,16.407C19.796,23.798,13.846,24.007,12,24.007z M2.062,4.15 C2.653,4.809,6.263,6.007,12,6.007c5.824,0,9.456-1.235,9.962-1.962l0.027-0.113C21.6,3.292,17.94,2.007,12,2.007 c-5.877,0-9.521,1.257-9.976,1.982L2.062,4.15z"></path></g></svg>