<svg id="nc_icon" version="1.1" xmlns="http://www.w3.org/2000/svg" xmlns:xlink="http://www.w3.org/1999/xlink" x="0px" y="0px" viewBox="0 0 24 24" xml:space="preserve" ><g class="nc-icon-wrapper" fill="currentColor"><path fill="currentColor" d="M24,14v-2h-3.098c-0.217-1.748-0.81-3.389-1.702-4.784l2.214-2.217l-1.415-1.413l-2.054,2.057 c-0.36-0.372-0.745-0.711-1.158-1.014c-0.142-0.494-0.361-0.948-0.636-1.365l1.557-1.557l-1.414-1.414l-1.551,1.551 C13.948,1.317,13.008,1,12,1s-1.948,0.317-2.742,0.844L7.707,0.293L6.293,1.707L7.85,3.264C7.575,3.68,7.356,4.134,7.214,4.627 C6.801,4.93,6.416,5.271,6.055,5.643L4.001,3.586L2.586,4.999L4.8,7.215C3.908,8.61,3.315,10.252,3.098,12H0v2h3.022 c0.088,2.164,0.736,4.154,1.784,5.782l-2.22,2.217l1.413,1.415l2.055-2.052c1.352,1.393,3.061,2.32,4.946,2.566V9h2v14.928 c1.885-0.247,3.594-1.173,4.946-2.566l2.055,2.052l1.413-1.415l-2.22-2.217c1.048-1.629,1.696-3.619,1.784-5.782H24z"></path></g></svg>