<svg id="nc_icon" version="1.1" xmlns="http://www.w3.org/2000/svg" xmlns:xlink="http://www.w3.org/1999/xlink" x="0px" y="0px" viewBox="0 0 24 24" xml:space="preserve" ><g class="nc-icon-wrapper" fill="currentColor"><path fill="currentColor" d="M8,17.06V20h8v-2.94c3.059-1.514,5-4.607,5-8.06c0-4.963-4.038-9-9-9S3,4.037,3,9 C3,12.452,4.941,15.546,8,17.06z M8,7.586l2,2l2-2l2,2l2-2L17.414,9L14,12.414l-2-2l-2,2L6.586,9L8,7.586z"></path> <path data-color="color-2" fill="currentColor" d="M8,22v1c0,0.553,0.448,1,1,1h6c0.552,0,1-0.447,1-1v-1H8z"></path></g></svg>