<svg id="nc_icon" version="1.1" xmlns="http://www.w3.org/2000/svg" xmlns:xlink="http://www.w3.org/1999/xlink" x="0px" y="0px" viewBox="0 0 24 24" xml:space="preserve" ><g class="nc-icon-wrapper" fill="currentColor"><path data-color="color-2" fill="currentColor" d="M22,2H10C9.4,2,9,2.4,9,3v2c0,0.6,0.4,1,1,1h12c0.6,0,1-0.4,1-1V3C23,2.4,22.6,2,22,2z"></path> <path data-color="color-2" fill="currentColor" d="M22,10H10c-0.6,0-1,0.4-1,1v2c0,0.6,0.4,1,1,1h12c0.6,0,1-0.4,1-1v-2C23,10.4,22.6,10,22,10z "></path> <path data-color="color-2" fill="currentColor" d="M22,18H10c-0.6,0-1,0.4-1,1v2c0,0.6,0.4,1,1,1h12c0.6,0,1-0.4,1-1v-2C23,18.4,22.6,18,22,18z "></path> <path fill="currentColor" d="M6,1H2C1.4,1,1,1.4,1,2v4c0,0.6,0.4,1,1,1h4c0.6,0,1-0.4,1-1V2C7,1.4,6.6,1,6,1z"></path> <path fill="currentColor" d="M6,9H2c-0.6,0-1,0.4-1,1v4c0,0.6,0.4,1,1,1h4c0.6,0,1-0.4,1-1v-4C7,9.4,6.6,9,6,9z"></path> <path fill="currentColor" d="M6,17H2c-0.6,0-1,0.4-1,1v4c0,0.6,0.4,1,1,1h4c0.6,0,1-0.4,1-1v-4C7,17.4,6.6,17,6,17z"></path></g></svg>