<svg id="nc_icon" version="1.1" xmlns="http://www.w3.org/2000/svg" xmlns:xlink="http://www.w3.org/1999/xlink" x="0px" y="0px" viewBox="0 0 24 24" xml:space="preserve" ><g class="nc-icon-wrapper" fill="currentColor"><path fill="currentColor" d="M3,7C1.346,7,0,5.654,0,4s1.346-3,3-3s3,1.346,3,3S4.654,7,3,7z"></path> <path fill="currentColor" d="M3,19c-1.654,0-3-1.346-3-3s1.346-3,3-3s3,1.346,3,3S4.654,19,3,19z"></path> <path data-color="color-2" fill="currentColor" d="M23,5H9C8.448,5,8,4.552,8,4s0.448-1,1-1h14c0.552,0,1,0.448,1,1S23.552,5,23,5z"></path> <path data-color="color-2" fill="currentColor" d="M23,11H9c-0.552,0-1-0.448-1-1s0.448-1,1-1h14c0.552,0,1,0.448,1,1S23.552,11,23,11z"></path> <path data-color="color-2" fill="currentColor" d="M23,17H9c-0.552,0-1-0.448-1-1s0.448-1,1-1h14c0.552,0,1,0.448,1,1S23.552,17,23,17z"></path> <path data-color="color-2" fill="currentColor" d="M23,23H9c-0.552,0-1-0.448-1-1s0.448-1,1-1h14c0.552,0,1,0.448,1,1S23.552,23,23,23z"></path></g></svg>