<svg id="nc_icon" version="1.1" xmlns="http://www.w3.org/2000/svg" xmlns:xlink="http://www.w3.org/1999/xlink" x="0px" y="0px" viewBox="0 0 24 24" xml:space="preserve" ><g class="nc-icon-wrapper" fill="currentColor"><path data-color="color-2" fill="currentColor" d="M4,22v1c0,0.552,0.447,1,1,1h3c0.553,0,1-0.448,1-1v-1H4z"></path> <path data-color="color-2" fill="currentColor" d="M15,22v1c0,0.552,0.447,1,1,1h3c0.553,0,1-0.448,1-1v-1H15z"></path> <rect y="8" fill="currentColor" width="2" height="5"></rect> <rect x="22" y="8" fill="currentColor" width="2" height="5"></rect> <path fill="currentColor" d="M18,0H6C4.346,0,3,1.346,3,3v17c0,0.552,0.448,1,1,1h16c0.552,0,1-0.448,1-1V3C21,1.346,19.654,0,18,0z M7,18c-0.552,0-1-0.448-1-1c0-0.552,0.448-1,1-1s1,0.448,1,1C8,17.552,7.552,18,7,18z M17,18c-0.552,0-1-0.448-1-1 c0-0.552,0.448-1,1-1s1,0.448,1,1C18,17.552,17.552,18,17,18z M19,13H5V4h14V13z"></path></g></svg>