<svg id="nc_icon" version="1.1" xmlns="http://www.w3.org/2000/svg" xmlns:xlink="http://www.w3.org/1999/xlink" x="0px" y="0px" viewBox="0 0 24 24" xml:space="preserve" ><g class="nc-icon-wrapper" fill="currentColor"><path fill="currentColor" d="M19,0H5C3.346,0,2,1.346,2,3v17c0,0.552,0.447,1,1,1h18c0.553,0,1-0.448,1-1V3C22,1.346,20.654,0,19,0z M6,18c-0.552,0-1-0.448-1-1s0.448-1,1-1s1,0.448,1,1S6.552,18,6,18z M18,18c-0.552,0-1-0.448-1-1s0.448-1,1-1s1,0.448,1,1 S18.552,18,18,18z M20,13H4V4h16V13z"></path> <path data-color="color-2" fill="currentColor" d="M3,22v1c0,0.552,0.447,1,1,1h3c0.553,0,1-0.448,1-1v-1H3z"></path> <path data-color="color-2" fill="currentColor" d="M16,22v1c0,0.552,0.447,1,1,1h3c0.553,0,1-0.448,1-1v-1H16z"></path></g></svg>