<svg id="nc_icon" version="1.1" xmlns="http://www.w3.org/2000/svg" xmlns:xlink="http://www.w3.org/1999/xlink" x="0px" y="0px" viewBox="0 0 24 24" xml:space="preserve" ><g class="nc-icon-wrapper" fill="currentColor"><path fill="currentColor" d="M21,3H3C1.346,3,0,4.346,0,6v11c0,0.552,0.448,1,1,1h1.051c0.245,1.692,1.691,3,3.449,3s3.204-1.308,3.449-3 h6.101c0.245,1.692,1.691,3,3.449,3s3.204-1.308,3.449-3H23c0.552,0,1-0.448,1-1V6C24,4.346,22.654,3,21,3z M22,6v4h-4V5h3 C21.551,5,22,5.449,22,6z M3,5h13v5H2V6C2,5.449,2.449,5,3,5z M5.5,19C4.673,19,4,18.327,4,17.5S4.673,16,5.5,16S7,16.673,7,17.5 S6.327,19,5.5,19z M18.5,19c-0.827,0-1.5-0.673-1.5-1.5s0.673-1.5,1.5-1.5s1.5,0.673,1.5,1.5S19.327,19,18.5,19z"></path></g></svg>