<svg id="nc_icon" version="1.1" xmlns="http://www.w3.org/2000/svg" xmlns:xlink="http://www.w3.org/1999/xlink" x="0px" y="0px" viewBox="0 0 24 24" xml:space="preserve" ><g class="nc-icon-wrapper" fill="currentColor"><path fill="currentColor" d="M23,3h-4V1c0-0.6-0.4-1-1-1H6C5.4,0,5,0.4,5,1v2H1C0.4,3,0,3.4,0,4v19c0,0.6,0.4,1,1,1h5.4l3.7-8.4 c0.2-0.4,0.5-0.6,0.9-0.6h2c0.4,0,0.8,0.2,0.9,0.6l3.7,8.4H23c0.6,0,1-0.4,1-1V4C24,3.4,23.6,3,23,3z M7,7.2V3.1l3.3,2.8L7.8,7.6 C7.4,7.8,7,7.6,7,7.2z M15.5,10.2l-1.7,2.4C13.6,12.8,13.3,13,13,13h-2c-0.3,0-0.6-0.2-0.8-0.4l-1.7-2.4C8.3,10,8.3,9.6,8.6,9.5 l3.1-2.1c0.2-0.1,0.4-0.1,0.6,0l3.1,2.1C15.7,9.6,15.7,10,15.5,10.2z M17,7.2c0,0.4-0.4,0.6-0.8,0.4l-2.6-1.7L17,3.1V7.2z"></path></g></svg>