<svg id="nc_icon" version="1.1" xmlns="http://www.w3.org/2000/svg" xmlns:xlink="http://www.w3.org/1999/xlink" x="0px" y="0px" viewBox="0 0 24 24" xml:space="preserve" ><g class="nc-icon-wrapper" fill="currentColor"><path fill="currentColor" d="M21.458,1.11c-0.333-0.172-0.734-0.142-1.039,0.076l-14,10C6.156,11.374,6,11.677,6,12 s0.156,0.626,0.419,0.813l14,10C20.592,22.938,20.795,23,21,23c0.156,0,0.313-0.037,0.458-0.11C21.791,22.718,22,22.375,22,22V2 C22,1.625,21.791,1.282,21.458,1.11z"></path> <path data-color="color-2" fill="currentColor" d="M3,0C2.448,0,2,0.447,2,1v22c0,0.553,0.448,1,1,1s1-0.447,1-1V1C4,0.447,3.552,0,3,0z"></path></g></svg>