<svg id="nc_icon" version="1.1" xmlns="http://www.w3.org/2000/svg" xmlns:xlink="http://www.w3.org/1999/xlink" x="0px" y="0px" viewBox="0 0 24 24" xml:space="preserve" ><g class="nc-icon-wrapper" fill="currentColor"><path data-color="color-2" fill="currentColor" d="M23,15h-3v-2h2V2H2v11h3v2H1c-0.553,0-1-0.448-1-1V1c0-0.552,0.447-1,1-1h22 c0.553,0,1,0.448,1,1v13C24,14.552,23.553,15,23,15z"></path> <path fill="currentColor" d="M20.561,19.439l-6.211-6.211L20,10L5,6l4,15l3.229-5.65l6.211,6.211c0.586,0.586,1.535,0.586,2.121,0 C21.146,20.975,21.146,20.025,20.561,19.439z"></path></g></svg>