<svg id="nc_icon" version="1.1" xmlns="http://www.w3.org/2000/svg" xmlns:xlink="http://www.w3.org/1999/xlink" x="0px" y="0px" viewBox="0 0 24 24" xml:space="preserve" ><g class="nc-icon-wrapper" fill="currentColor"><path fill="currentColor" d="M12,0C5.4,0,0,5.4,0,12s5.4,12,12,12s12-5.4,12-12S18.6,0,12,0z M8,18c-1.1,0-2-0.9-2-2c0-1.1,0.9-2,2-2	s2,0.9,2,2C10,17.1,9.1,18,8,18z M8,10c-1.1,0-2-0.9-2-2c0-1.1,0.9-2,2-2s2,0.9,2,2C10,9.1,9.1,10,8,10z M16,18c-1.1,0-2-0.9-2-2	c0-1.1,0.9-2,2-2s2,0.9,2,2C18,17.1,17.1,18,16,18z M16,10c-1.1,0-2-0.9-2-2c0-1.1,0.9-2,2-2s2,0.9,2,2C18,9.1,17.1,10,16,10z"></path></g></svg>