<svg id="nc_icon" version="1.1" xmlns="http://www.w3.org/2000/svg" xmlns:xlink="http://www.w3.org/1999/xlink" x="0px" y="0px" viewBox="0 0 24 24" xml:space="preserve" ><g class="nc-icon-wrapper" fill="currentColor"><path fill="currentColor" d="M23,3c-3.60516,0-6.76117,1.92419-8.52094,4.79291c-0.04187-0.49988-0.22748-0.9549-0.52075-1.32812 c0.00623-0.02991,0.02301-0.05493,0.02655-0.08588c0.25879-2.25098,0.84473-3.85742,1.69482-4.64551 c0.40527-0.375,0.4292-1.00781,0.05371-1.41309c-0.37598-0.40625-1.00928-0.42969-1.41309-0.05371 c-1.14154,1.0575-1.87134,2.7829-2.23291,5.24225C12.05774,5.50781,12.02991,5.5,12,5.5s-0.05774,0.00781-0.0874,0.00885 C11.55103,3.0495,10.82123,1.3241,9.67969,0.2666C9.2749-0.10938,8.6416-0.08594,8.2666,0.32031 C7.89111,0.72559,7.91504,1.3584,8.32031,1.7334c0.8501,0.78809,1.43604,2.39453,1.69482,4.64551 c0.00354,0.03094,0.02032,0.05597,0.02655,0.08588C9.74841,6.83801,9.56281,7.29303,9.52094,7.79291C7.76117,4.92419,4.60516,3,1,3 H0v6c0,3.30859,2.69141,6,6,6h0.5C4.01855,15,2,17.01855,2,19.5S4.01855,24,6.5,24c1.43579,0,2.7019-0.68823,3.52637-1.73846 C10.1557,23.24115,10.98505,24,12,24s1.8443-0.75885,1.97363-1.73846C14.7981,23.31177,16.06421,24,17.5,24 c2.48145,0,4.5-2.01855,4.5-4.5S19.98145,15,17.5,15H18c3.30859,0,6-2.69141,6-6V3H23z"></path></g></svg>