<svg id="nc_icon" version="1.1" xmlns="http://www.w3.org/2000/svg" xmlns:xlink="http://www.w3.org/1999/xlink" x="0px" y="0px" viewBox="0 0 24 24" xml:space="preserve" ><g class="nc-icon-wrapper" fill="currentColor"><path fill="currentColor" d="M23.429,1.097c-0.35-0.168-0.764-0.114-1.062,0.129L16,6.43V2c0-0.381-0.217-0.729-0.559-0.897 c-0.34-0.166-0.749-0.126-1.051,0.104l-13,10C1.145,11.396,1,11.689,1,12s0.145,0.604,0.391,0.793l13,10 c0.301,0.231,0.71,0.271,1.051,0.104C15.783,22.729,16,22.381,16,22v-4.43l6.367,5.204C22.549,22.923,22.773,23,23,23 c0.146,0,0.292-0.031,0.429-0.097C23.777,22.738,24,22.387,24,22V2C24,1.613,23.777,1.262,23.429,1.097z"></path></g></svg>