<svg id="nc_icon" version="1.1" xmlns="http://www.w3.org/2000/svg" xmlns:xlink="http://www.w3.org/1999/xlink" x="0px" y="0px" viewBox="0 0 24 24" xml:space="preserve" ><g class="nc-icon-wrapper" fill="currentColor"><path fill="currentColor" d="M2,18h20c0.375,0,0.718-0.209,0.889-0.542c0.171-0.334,0.142-0.734-0.075-1.039l-10-14 c-0.376-0.525-1.252-0.525-1.628,0l-10,14c-0.217,0.305-0.247,0.705-0.075,1.039C1.282,17.791,1.625,18,2,18z"></path> <path data-color="color-2" fill="currentColor" d="M23,20H1c-0.552,0-1,0.447-1,1s0.448,1,1,1h22c0.552,0,1-0.447,1-1S23.552,20,23,20z"></path></g></svg>