<svg id="nc_icon" version="1.1" xmlns="http://www.w3.org/2000/svg" xmlns:xlink="http://www.w3.org/1999/xlink" x="0px" y="0px" viewBox="0 0 24 24" xml:space="preserve" ><g class="nc-icon-wrapper" fill="currentColor"><path fill="currentColor" d="M22,0H2C1.4,0,1,0.4,1,1v9h22V1C23,0.4,22.6,0,22,0z M15,6H9V4h6V6z"></path> <path data-color="color-2" fill="currentColor" d="M1,21c0,0.6,0.4,1,1,1h1v1c0,0.6,0.4,1,1,1s1-0.4,1-1v-1h14v1c0,0.6,0.4,1,1,1s1-0.4,1-1v-1 h1c0.6,0,1-0.4,1-1v-9H1V21z M9,16h6v2H9V16z"></path></g></svg>