<svg id="nc_icon" version="1.1" xmlns="http://www.w3.org/2000/svg" xmlns:xlink="http://www.w3.org/1999/xlink" x="0px" y="0px" viewBox="0 0 24 24" xml:space="preserve" ><g class="nc-icon-wrapper" fill="currentColor"><path data-color="color-2" fill="currentColor" d="M19,22H5v-6H3v7c0,0.552,0.447,1,1,1h16c0.553,0,1-0.448,1-1v-7h-2V22z"></path> <path fill="currentColor" d="M8,13V4c0-0.552-0.447-1-1-1H1C0.447,3,0,3.448,0,4v9c0,0.552,0.447,1,1,1h6C7.553,14,8,13.552,8,13z"></path> <path fill="currentColor" d="M23,3h-6c-0.553,0-1,0.448-1,1v9c0,0.552,0.447,1,1,1h6c0.553,0,1-0.448,1-1V4C24,3.448,23.553,3,23,3z"></path> <rect x="17" fill="currentColor" width="6" height="2"></rect> <rect x="1" fill="currentColor" width="6" height="2"></rect></g></svg>