<svg id="nc_icon" version="1.1" xmlns="http://www.w3.org/2000/svg" xmlns:xlink="http://www.w3.org/1999/xlink" x="0px" y="0px" viewBox="0 0 24 24" xml:space="preserve" ><g class="nc-icon-wrapper" fill="currentColor"><path fill="currentColor" d="M22,12c0-1.1-0.9-2-2-2h-7V8.8c1.2-0.4,2-1.5,2-2.8c0-1.3-1.5-3.6-2.2-4.6L12,0.2l-0.8,1.2 C10.5,2.4,9,4.7,9,6c0,1.3,0.8,2.4,2,2.8V10H4c-1.1,0-2,0.9-2,2v4h20V12z"></path> <path data-color="color-2" fill="currentColor" d="M0,19v4c0,0.6,0.4,1,1,1h22c0.6,0,1-0.4,1-1v-4c0-0.6-0.4-1-1-1H1C0.4,18,0,18.4,0,19z"></path></g></svg>