<svg id="nc_icon" xmlns="http://www.w3.org/2000/svg" xmlns:xlink="http://www.w3.org/1999/xlink" x="0px" y="0px" viewBox="0 0 24 24" ><g class="nc-icon-wrapper" fill="currentColor"><path fill="currentColor" d="M23,18H1c-0.553,0-1,0.447-1,1v4c0,0.553,0.447,1,1,1h22c0.553,0,1-0.447,1-1v-4C24,18.447,23.553,18,23,18z "></path> <path data-color="color-2" fill="currentColor" d="M12.823,1.432L12,0.24l-0.823,1.191C10.522,2.38,9,4.722,9,6c0,1.654,1.346,3,3,3 s3-1.346,3-3C15,4.722,13.478,2.38,12.823,1.432z"></path> <path fill="currentColor" d="M20,11H4c-0.553,0-1,0.447-1,1v4h18v-4C21,11.447,20.553,11,20,11z"></path></g></svg>