<svg id="nc_icon" xmlns="http://www.w3.org/2000/svg" xmlns:xlink="http://www.w3.org/1999/xlink" x="0px" y="0px" viewBox="0 0 24 24" ><g class="nc-icon-wrapper" fill="currentColor"><path fill="currentColor" d="M23.394,9.081l-14-6C9.27,3.027,9.135,3,9,3c-6.184,0-9,3.628-9,7v10c0,0.552,0.448,1,1,1h22 c0.552,0,1-0.448,1-1V10C24,9.6,23.762,9.238,23.394,9.081z M8.798,5.001L18.128,9H11v5.5c0,0.828-0.672,1.5-1.5,1.5h0 C8.672,16,8,15.328,8,14.5V9H2.135C2.591,7.221,4.328,5.065,8.798,5.001z"></path></g></svg>