<svg id="nc_icon" version="1.1" xmlns="http://www.w3.org/2000/svg" xmlns:xlink="http://www.w3.org/1999/xlink" x="0px" y="0px" viewBox="0 0 24 24" xml:space="preserve" ><g class="nc-icon-wrapper" fill="currentColor"><path fill="currentColor" d="M21,0H4C3.4,0,3,0.4,3,1v22c0,0.6,0.4,1,1,1h17c0.6,0,1-0.4,1-1V1C22,0.4,21.6,0,21,0z M9,20 c0,0.6-0.4,1-1,1H7c-0.6,0-1-0.4-1-1v-1c0-0.6,0.4-1,1-1h1c0.6,0,1,0.4,1,1V20z M9,15c0,0.6-0.4,1-1,1H7c-0.6,0-1-0.4-1-1v-1 c0-0.6,0.4-1,1-1h1c0.6,0,1,0.4,1,1V15z M9,10c0,0.6-0.4,1-1,1H7c-0.6,0-1-0.4-1-1V9c0-0.6,0.4-1,1-1h1c0.6,0,1,0.4,1,1V10z M14,20 c0,0.6-0.4,1-1,1h-1c-0.6,0-1-0.4-1-1v-1c0-0.6,0.4-1,1-1h1c0.6,0,1,0.4,1,1V20z M14,15c0,0.6-0.4,1-1,1h-1c-0.6,0-1-0.4-1-1v-1 c0-0.6,0.4-1,1-1h1c0.6,0,1,0.4,1,1V15z M14,10c0,0.6-0.4,1-1,1h-1c-0.6,0-1-0.4-1-1V9c0-0.6,0.4-1,1-1h1c0.6,0,1,0.4,1,1V10z M19,20c0,0.6-0.4,1-1,1h-1c-0.6,0-1-0.4-1-1v-6c0-0.6,0.4-1,1-1h1c0.6,0,1,0.4,1,1V20z M19,10c0,0.6-0.4,1-1,1h-1c-0.6,0-1-0.4-1-1 V9c0-0.6,0.4-1,1-1h1c0.6,0,1,0.4,1,1V10z M19,5c0,0.6-0.4,1-1,1H7C6.4,6,6,5.6,6,5V4c0-0.6,0.4-1,1-1h11c0.6,0,1,0.4,1,1V5z"></path></g></svg>