<svg id="nc_icon" xmlns="http://www.w3.org/2000/svg" xmlns:xlink="http://www.w3.org/1999/xlink" x="0px" y="0px" viewBox="0 0 24 24" ><g class="nc-icon-wrapper" fill="currentColor"><path fill="currentColor" d="M23,2h-4V0h-2v2h-4V0h-2v2H7V0H5v2H1C0.448,2,0,2.448,0,3v20c0,0.552,0.448,1,1,1h22c0.552,0,1-0.448,1-1V3 C24,2.448,23.552,2,23,2z M22,22H2V8h20V22z"></path> <rect data-color="color-2" x="4" y="11" fill="currentColor" width="4" height="3"></rect> <rect data-color="color-2" x="10" y="11" fill="currentColor" width="4" height="3"></rect> <rect data-color="color-2" x="4" y="16" fill="currentColor" width="4" height="3"></rect> <rect data-color="color-2" x="10" y="16" fill="currentColor" width="4" height="3"></rect> <rect data-color="color-2" x="16" y="11" fill="currentColor" width="4" height="3"></rect></g></svg>