<svg id="nc_icon" version="1.1" xmlns="http://www.w3.org/2000/svg" xmlns:xlink="http://www.w3.org/1999/xlink" x="0px" y="0px" viewBox="0 0 24 24" xml:space="preserve" ><g class="nc-icon-wrapper" fill="currentColor"><path data-color="color-2" fill="currentColor" d="M24,3c0-0.552-0.448-1-1-1h-3V1c0-0.552-0.448-1-1-1h-4c-0.552,0-1,0.448-1,1v1h-4V1 c0-0.552-0.448-1-1-1H5C4.448,0,4,0.448,4,1v1H1C0.448,2,0,2.448,0,3v4h24V3z M8,5H6V2h2V5z M18,5h-2V2h2V5z"></path> <path fill="currentColor" d="M0,9v14c0,0.552,0.448,1,1,1h22c0.552,0,1-0.448,1-1V9H0z M10.707,20.707C10.512,20.902,10.256,21,10,21 s-0.512-0.098-0.707-0.293l-3-3l1.414-1.414L10,18.586l6.293-6.293l1.414,1.414L10.707,20.707z"></path></g></svg>