<svg id="nc_icon" version="1.1" xmlns="http://www.w3.org/2000/svg" xmlns:xlink="http://www.w3.org/1999/xlink" x="0px" y="0px" viewBox="0 0 24 24" xml:space="preserve" ><g class="nc-icon-wrapper" fill="currentColor"><path fill="currentColor" d="M0,8v15c0,0.553,0.447,1,1,1h22c0.553,0,1-0.447,1-1V8H0z M16,17h-3v3h-2v-3H8v-2h3v-3h2v3h3V17z"></path> <path data-color="color-2" fill="currentColor" d="M23,2h-4V0h-1.99v2H13V0h-1.99v2H7V0H5.01v2H1C0.447,2,0,2.447,0,3v3h24V3 C24,2.447,23.553,2,23,2z"></path></g></svg>