<svg id="nc_icon" version="1.1" xmlns="http://www.w3.org/2000/svg" xmlns:xlink="http://www.w3.org/1999/xlink" x="0px" y="0px" viewBox="0 0 24 24" xml:space="preserve" ><g class="nc-icon-wrapper" fill="currentColor"><path fill="currentColor" d="M23,2h-4V0h-2v2h-4V0h-2v2H7V0H5v2H1C0.448,2,0,2.448,0,3v20c0,0.552,0.448,1,1,1h22c0.552,0,1-0.448,1-1V3 C24,2.448,23.552,2,23,2z M22,22H2V8h20V22z"></path> <path data-color="color-2" fill="currentColor" d="M11,19c-0.256,0-0.512-0.098-0.707-0.293L6.586,15L8,13.586l3,3l6-6L18.414,12l-6.707,6.707 C11.512,18.902,11.256,19,11,19z"></path></g></svg>