<svg id="nc_icon" version="1.1" xmlns="http://www.w3.org/2000/svg" xmlns:xlink="http://www.w3.org/1999/xlink" x="0px" y="0px" viewBox="0 0 24 24" xml:space="preserve" ><g class="nc-icon-wrapper" fill="currentColor"><path fill="currentColor" d="M0,23c0,0.552,0.448,1,1,1h22c0.552,0,1-0.448,1-1V9H0V23z"></path> <path data-color="color-2" fill="currentColor" d="M24,3c0-0.552-0.448-1-1-1h-3V1c0-0.552-0.448-1-1-1h-4c-0.552,0-1,0.448-1,1v1h-4V1 c0-0.552-0.448-1-1-1H5C4.448,0,4,0.448,4,1v1H1C0.448,2,0,2.448,0,3v4h24V3z M8,5H6V2h2V5z M18,5h-2V2h2V5z"></path></g></svg>