<svg id="nc_icon" version="1.1" xmlns="http://www.w3.org/2000/svg" xmlns:xlink="http://www.w3.org/1999/xlink" x="0px" y="0px" viewBox="0 0 24 24" xml:space="preserve" ><g class="nc-icon-wrapper" fill="currentColor"><polygon fill="currentColor" points="2,2 5,2 5,0 0,0 0,5 2,5 "></polygon> <polygon fill="currentColor" points="19,0 19,2 22,2 22,5 24,5 24,0 "></polygon> <polygon fill="currentColor" points="22,22 19,22 19,24 24,24 24,19 22,19 "></polygon> <polygon fill="currentColor" points="2,19 0,19 0,24 5,24 5,22 2,22 "></polygon> <path data-color="color-2" fill="currentColor" d="M16.89923,13H20v-2h-3.10077C16.50146,9.04102,14.95898,7.49854,13,7.10077V4h-2v3.10077 C9.04102,7.49854,7.49854,9.04102,7.10077,11H4v2h3.10077C7.49854,14.95898,9.04102,16.50146,11,16.89923V20h2v-3.10077 C14.95898,16.50146,16.50146,14.95898,16.89923,13z"></path></g></svg>