<svg id="nc_icon" version="1.1" xmlns="http://www.w3.org/2000/svg" xmlns:xlink="http://www.w3.org/1999/xlink" x="0px" y="0px" viewBox="0 0 24 24" xml:space="preserve" ><g class="nc-icon-wrapper" fill="currentColor"><path fill="currentColor" d="M19,0H5C2.243,0,0,2.243,0,5v14c0,2.757,2.243,5,5,5h14c2.757,0,5-2.243,5-5V5C24,2.243,21.757,0,19,0z M5,6 C4.448,6,4,5.552,4,5c0-0.552,0.448-1,1-1s1,0.448,1,1C6,5.552,5.552,6,5,6z M12,18c-3.314,0-6-2.686-6-6s2.686-6,6-6s6,2.686,6,6 S15.314,18,12,18z"></path></g></svg>