<svg id="nc_icon" version="1.1" xmlns="http://www.w3.org/2000/svg" xmlns:xlink="http://www.w3.org/1999/xlink" x="0px" y="0px" viewBox="0 0 24 24" xml:space="preserve" ><g class="nc-icon-wrapper" fill="currentColor"><path fill="currentColor" d="M16.931,11.312C16.962,11.539,17,11.764,17,12c0,2.761-2.239,5-5,5c-0.236,0-0.461-0.038-0.688-0.069 L8.242,20H22c0.553,0,1-0.448,1-1V6c0-0.213-0.082-0.4-0.195-0.562L16.931,11.312z"></path> <path fill="currentColor" d="M2,20h2l4.464-4.464C7.56,14.631,7,13.381,7,12c0-2.761,2.239-5,5-5c1.381,0,2.631,0.56,3.536,1.464L19,5 h-1.465l-1.703-2.555C15.646,2.167,15.334,2,15,2H9C8.666,2,8.354,2.167,8.168,2.445L6.465,5H2C1.447,5,1,5.448,1,6v13 C1,19.552,1.447,20,2,20z"></path> <path data-color="color-2" fill="currentColor" d="M1,24c-0.256,0-0.512-0.098-0.707-0.293c-0.391-0.391-0.391-1.023,0-1.414l22-22 c0.391-0.391,1.023-0.391,1.414,0s0.391,1.023,0,1.414l-22,22C1.512,23.902,1.256,24,1,24z"></path></g></svg>