<svg id="nc_icon" version="1.1" xmlns="http://www.w3.org/2000/svg" xmlns:xlink="http://www.w3.org/1999/xlink" x="0px" y="0px" viewBox="0 0 24 24" xml:space="preserve" ><g class="nc-icon-wrapper" fill="currentColor"><path fill="currentColor" d="M23,4h-5.465l-1.703-2.555C15.646,1.167,15.334,1,15,1H9C8.666,1,8.354,1.167,8.168,1.445L6.465,4H1 C0.447,4,0,4.448,0,5v17c0,0.552,0.447,1,1,1h22c0.553,0,1-0.448,1-1V5C24,4.448,23.553,4,23,4z M5,10c-0.552,0-1-0.448-1-1 c0-0.552,0.448-1,1-1s1,0.448,1,1C6,9.552,5.552,10,5,10z M18,15h-7V8h2v5h5V15z"></path></g></svg>