<svg id="nc_icon" version="1.1" xmlns="http://www.w3.org/2000/svg" xmlns:xlink="http://www.w3.org/1999/xlink" x="0px" y="0px" viewBox="0 0 24 24" xml:space="preserve" ><g class="nc-icon-wrapper" fill="currentColor"><path fill="currentColor" d="M16.019,9.567C15.424,9.215,14.74,9,14,9c-2.206,0-4,1.794-4,4c0,0.74,0.216,1.424,0.567,2.019L16.019,9.567 z"></path> <path fill="currentColor" d="M11.981,16.433C12.576,16.785,13.26,17,14,17c2.206,0,4-1.794,4-4c0-0.74-0.216-1.424-0.567-2.019 L11.981,16.433z"></path> <path fill="currentColor" d="M23,4h-3.465l-1.703-2.555C17.646,1.167,17.334,1,17,1h-6c-0.334,0-0.646,0.167-0.832,0.445L8.465,4H1 C0.447,4,0,4.448,0,5v17c0,0.552,0.447,1,1,1h22c0.553,0,1-0.448,1-1V5C24,4.448,23.553,4,23,4z M5,10c-0.552,0-1-0.448-1-1 c0-0.552,0.448-1,1-1s1,0.448,1,1C6,9.552,5.552,10,5,10z M14,19c-3.309,0-6-2.691-6-6s2.691-6,6-6s6,2.691,6,6S17.309,19,14,19z"></path></g></svg>