<svg id="nc_icon" version="1.1" xmlns="http://www.w3.org/2000/svg" xmlns:xlink="http://www.w3.org/1999/xlink" x="0px" y="0px" viewBox="0 0 24 24" xml:space="preserve" ><g class="nc-icon-wrapper" fill="currentColor"><path fill="currentColor" d="M0.2,16.3C0.1,16.5,0,16.8,0,17v6c0,0.6,0.4,1,1,1h13v-6.6L6.6,9.1L0.2,16.3z"></path> <path fill="currentColor" d="M16.8,8.3C16.6,8.1,16.3,8,16,8H8.3l7.4,8.3c0.2,0.2,0.3,0.4,0.3,0.7v7h7c0.6,0,1-0.4,1-1v-6 c0-0.2-0.1-0.5-0.2-0.7L16.8,8.3z"></path> <path data-color="color-2" fill="currentColor" d="M20,8c2.2,0,4-1.8,4-4s-1.8-4-4-4c-2.2,0-4,1.8-4,4S17.8,8,20,8z"></path></g></svg>