<svg id="nc_icon" version="1.1" xmlns="http://www.w3.org/2000/svg" xmlns:xlink="http://www.w3.org/1999/xlink" x="0px" y="0px" viewBox="0 0 24 24" xml:space="preserve" ><g class="nc-icon-wrapper" fill="currentColor"><circle data-color="color-2" fill="currentColor" cx="16" cy="19" r="3"></circle> <path fill="currentColor" d="M19,2H2C1.4,2,1,2.4,1,3v15c-0.6,0-1,0-1,0v2h4v-8h4v8h3v-0.8c0-2.6,1.9-4.9,4.5-5.2c3-0.3,5.5,2.1,5.5,5 c0,0.3,0,1,0,1h2c0.6,0,1-0.4,1-1V7C24,4.2,21.8,2,19,2z M18,9h-3V7h3V9z"></path></g></svg>