<svg id="nc_icon" version="1.1" xmlns="http://www.w3.org/2000/svg" xmlns:xlink="http://www.w3.org/1999/xlink" x="0px" y="0px" viewBox="0 0 24 24" xml:space="preserve" ><g class="nc-icon-wrapper" fill="currentColor"><path fill="currentColor" d="M23.5,8.1c-0.3-0.2-0.7-0.2-1,0l-4,2.4C17.6,8.9,15.5,6,12,6c-3.6,0-5.6,2.9-6.4,4.6l-4-2.4 C1.2,8,0.8,8,0.5,8.1C0.2,8.3,0,8.6,0,9v6c0,0.4,0.2,0.7,0.5,0.9C0.7,16,0.8,16,1,16c0.2,0,0.4,0,0.5-0.1l4-2.4 C6.4,15.1,8.4,18,12,18s5.6-2.9,6.5-4.6l4,2.4C22.6,16,22.8,16,23,16c0.2,0,0.3,0,0.5-0.1c0.3-0.2,0.5-0.5,0.5-0.9V9 C24,8.6,23.8,8.3,23.5,8.1z"></path></g></svg>