<svg id="nc_icon" xmlns="http://www.w3.org/2000/svg" xmlns:xlink="http://www.w3.org/1999/xlink" x="0px" y="0px" viewBox="0 0 24 24" ><g class="nc-icon-wrapper" fill="currentColor"><path data-color="color-2" fill="currentColor" d="M12,9c1.654,0,3-1.346,3-3c0-1.278-1.522-3.62-2.177-4.568L12,0.24l-0.823,1.191 C10.522,2.38,9,4.722,9,6C9,7.654,10.346,9,12,9z"></path> <path fill="currentColor" d="M19,22h-3V12c0-0.553-0.447-1-1-1H9c-0.553,0-1,0.447-1,1v10H5c-0.553,0-1,0.447-1,1s0.447,1,1,1h14 c0.553,0,1-0.447,1-1S19.553,22,19,22z"></path></g></svg>