<svg id="nc_icon" version="1.1" xmlns="http://www.w3.org/2000/svg" xmlns:xlink="http://www.w3.org/1999/xlink" x="0px" y="0px" viewBox="0 0 24 24" xml:space="preserve" ><g class="nc-icon-wrapper" fill="currentColor"><path data-color="color-2" fill="currentColor" d="M18.961,22.725l-2-7c-0.152-0.53-0.705-0.838-1.236-0.687 c-0.531,0.152-0.838,0.705-0.687,1.236L15.817,19H8.183l0.779-2.725c0.152-0.531-0.156-1.084-0.687-1.236 c-0.531-0.151-1.085,0.156-1.236,0.687l-2,7c-0.152,0.531,0.156,1.084,0.687,1.236c0.531,0.153,1.084-0.155,1.236-0.687L7.611,21 h8.777l0.65,2.275c0.152,0.531,0.705,0.839,1.236,0.687C18.806,23.81,19.113,23.256,18.961,22.725z"></path> <path fill="currentColor" d="M20,2h-6V1c0-0.552-0.448-1-1-1h-2c-0.552,0-1,0.448-1,1v1H4C3.448,2,3,2.448,3,3v13c0,0.552,0.448,1,1,1h16 c0.552,0,1-0.448,1-1V3C21,2.448,20.552,2,20,2z"></path></g></svg>