<svg id="nc_icon" version="1.1" xmlns="http://www.w3.org/2000/svg" xmlns:xlink="http://www.w3.org/1999/xlink" x="0px" y="0px" viewBox="0 0 24 24" xml:space="preserve" ><g class="nc-icon-wrapper" fill="currentColor"><path fill="currentColor" d="M14,1c-0.7,0-1.5,0.1-2.2,0.2c0,0,0,0-0.1,0C7.3,2.3,4,6.2,4,11v2.3c-1.5,0.6-4,1.9-4,3.7c0,2.8,7.3,5,11,5 c4.2,0,10.2-4.8,10.6-5.2c1.3-0.5,1.9-1,2-1c0.3-0.2,0.4-0.5,0.4-0.8v-4C24,5.5,19.5,1,14,1z M6,11c0-3.7,2.6-6.9,6-7.7 c3.5,0.9,6,4.1,6,7.7v4.7c-1.1,0.2-2.4,0.3-4,0.3c-4.5,0-7.1-1.1-8-1.6V11z"></path></g></svg>