<svg id="nc_icon" version="1.1" xmlns="http://www.w3.org/2000/svg" xmlns:xlink="http://www.w3.org/1999/xlink" x="0px" y="0px" viewBox="0 0 24 24" xml:space="preserve" ><g class="nc-icon-wrapper"><path fill="currentColor" d="M4,22v-1.60417l2.62927-0.15497C6.93922,20.2183,7,20.13002,7,19.7985V4H2.18826 C1.94501,4,1.87831,4.02207,1.83418,4.24325L1.48107,6H0V2h16v4h-1.48107l-0.3531-1.75675C14.12169,4.02207,14.05499,4,13.81174,4H9 v15.7985c0,0.30995,0.03822,0.39822,0.36975,0.4198L12,20.39583V22H4z"></path> <path data-color="color-2" fill="currentColor" d="M15,22v-1.60417l1.62927-0.15497C16.93922,20.2183,17,20.13002,17,19.7985V11h-2.81174 c-0.24325,0-0.30995,0.02207-0.35408,0.24325L13.48107,13H12V9h12v4h-1.48107l-0.3531-1.75675 C22.12169,11.02207,22.05499,11,21.81174,11H19v8.7985c0,0.30995,0.03822,0.39822,0.36975,0.4198L21,20.39583V22H15z"></path></g></svg>