<svg id="nc_icon" version="1.1" xmlns="http://www.w3.org/2000/svg" xmlns:xlink="http://www.w3.org/1999/xlink" x="0px" y="0px" viewBox="0 0 24 24" xml:space="preserve" ><g class="nc-icon-wrapper"><path data-color="color-2" fill="currentColor" d="M3,18v-1.60417l2.62927-0.15497C5.93922,16.2183,6,16.13002,6,15.7985V2H2.18826 C1.94501,2,1.87831,2.02207,1.83418,2.24325L1.48107,4H0V0h14v4h-1.48107l-0.3531-1.75675C12.12169,2.02207,12.05499,2,11.81174,2H8 v13.7985c0,0.30995,0.03822,0.39822,0.36975,0.4198L11,16.39583V18H3z"></path> <path fill="currentColor" d="M13,24v-1.60417l2.62927-0.15497C15.93922,22.2183,16,22.13002,16,21.7985V8h-3.81174 c-0.24325,0-0.30995,0.02207-0.35408,0.24325L11.48107,10H10V6h14v4h-1.48107l-0.3531-1.75675 C22.12169,8.02207,22.05499,8,21.81174,8H18v13.7985c0,0.30995,0.03822,0.39822,0.36975,0.4198L21,22.39583V24H13z"></path></g></svg>