<svg id="nc_icon" version="1.1" xmlns="http://www.w3.org/2000/svg" xmlns:xlink="http://www.w3.org/1999/xlink" x="0px" y="0px" viewBox="0 0 24 24" xml:space="preserve" ><g class="nc-icon-wrapper" fill="currentColor"><path d="M9,23a1,1,0,0,1-.707-1.707,2.848,2.848,0,0,0,.883-3.1,4.282,4.282,0,0,0-.883-1.484,5.054,5.054,0,0,1,0-7.414,1,1,0,0,1,1.414,1.414,2.848,2.848,0,0,0-.883,3.1,4.282,4.282,0,0,0,.883,1.484,5.054,5.054,0,0,1,0,7.414A1,1,0,0,1,9,23Z" fill="currentColor" data-color="color-2"></path>  <path d="M23.555,4.168C23.422,4.079,20.208,2,12,2S.578,4.079.445,4.168A1,1,0,0,0,0,5V18a1,1,0,0,0,1.547.837,13.856,13.856,0,0,1,4.735-1.418,7.934,7.934,0,0,1-1.054-1.84A20.3,20.3,0,0,0,2,16.441V5.6C3.075,5.109,6.14,4,12,4s8.932,1.111,10,1.6V16.441a20.669,20.669,0,0,0-3.679-.951,7.776,7.776,0,0,1,.852,2.21,11.624,11.624,0,0,1,3.28,1.136A1,1,0,0,0,24,18V5A1,1,0,0,0,23.555,4.168Z" fill="currentColor"></path>  <path d="M15,23a1,1,0,0,1-.707-1.707,2.848,2.848,0,0,0,.883-3.1,4.282,4.282,0,0,0-.883-1.484,5.054,5.054,0,0,1,0-7.414,1,1,0,0,1,1.414,1.414,2.848,2.848,0,0,0-.883,3.1,4.282,4.282,0,0,0,.883,1.484,5.054,5.054,0,0,1,0,7.414A1,1,0,0,1,15,23Z" fill="currentColor" data-color="color-2"></path></g></svg>