<svg id="nc_icon" version="1.1" xmlns="http://www.w3.org/2000/svg" xmlns:xlink="http://www.w3.org/1999/xlink" x="0px" y="0px" viewBox="0 0 24 24" xml:space="preserve" ><g class="nc-icon-wrapper" fill="currentColor"><path d="M20.874,14.46l-1.7-5.093A2,2,0,0,0,17.279,8H6.721a2,2,0,0,0-1.9,1.367l-1.7,5.093L1.586,16A2.012,2.012,0,0,0,1,17.414V23a1,1,0,0,0,1,1H5a1,1,0,0,0,1-1V22H18v1a1,1,0,0,0,1,1h3a1,1,0,0,0,1-1V17.414A2.012,2.012,0,0,0,22.414,16ZM17.279,10l1.333,4H5.388l1.333-4ZM3,17.414,4.414,16H19.586L21,17.414V20H3Z" fill="currentColor"></path>  <circle cx="6" cy="18" r="1" fill="currentColor"></circle>  <circle cx="18" cy="18" r="1" fill="currentColor"></circle>  <path d="M10.51,6.667,9.019,5.333a4,4,0,0,1,5.958,0L13.489,6.664A2.067,2.067,0,0,0,10.51,6.667Z" fill="currentColor" data-color="color-2"></path>  <path d="M7.075,4.572,5.435,3.428a8,8,0,0,1,13.13,0l-1.64,1.145a6,6,0,0,0-9.85,0Z" fill="currentColor" data-color="color-2"></path></g></svg>