<svg id="nc_icon" version="1.1" xmlns="http://www.w3.org/2000/svg" xmlns:xlink="http://www.w3.org/1999/xlink" x="0px" y="0px" viewBox="0 0 24 24" xml:space="preserve" ><g class="nc-icon-wrapper"><path fill="currentColor" d="M23,9h-8.323l-1.748-4.372C12.776,4.249,12.409,4,12,4H5C4.523,4,4.113,4.336,4.02,4.804L3.181,9H1 c-0.553,0-1,0.448-1,1v4c0,1.305,0.843,2.406,2.032,2.818C2.196,18.597,3.679,20,5.5,20c1.758,0,3.204-1.308,3.449-3h5.101 c0.245,1.692,1.691,3,3.449,3s3.204-1.308,3.449-3H22c0.489,0,0.906-0.354,0.986-0.835l1-6c0.049-0.29-0.033-0.586-0.224-0.811 C23.573,9.129,23.294,9,23,9z M11.323,6l1.2,3H5.22l0.6-3H11.323z M5.5,18C4.673,18,4,17.327,4,16.5S4.673,15,5.5,15 S7,15.673,7,16.5S6.327,18,5.5,18z M17.5,18c-0.827,0-1.5-0.673-1.5-1.5s0.673-1.5,1.5-1.5s1.5,0.673,1.5,1.5S18.327,18,17.5,18z"></path></g></svg>