<svg id="nc_icon" version="1.1" xmlns="http://www.w3.org/2000/svg" xmlns:xlink="http://www.w3.org/1999/xlink" x="0px" y="0px" viewBox="0 0 24 24" xml:space="preserve" ><g class="nc-icon-wrapper"><path fill="currentColor" d="M23,9h-4h-0.323l-1.748-4.372C16.776,4.249,16.409,4,16,4h-4h-2H6C5.591,4,5.224,4.249,5.071,4.628L3.323,9 H3H1c-0.553,0-1,0.448-1,1v6c0,0.552,0.447,1,1,1h1.051c0.245,1.692,1.691,3,3.449,3s3.204-1.308,3.449-3h6.101 c0.245,1.692,1.691,3,3.449,3s3.204-1.308,3.449-3H23c0.553,0,1-0.448,1-1v-6C24,9.448,23.553,9,23,9z M12,6h3.323l1.2,3H12V6z M6.677,6H10v3H5.477L6.677,6z M5.5,18C4.673,18,4,17.327,4,16.5S4.673,15,5.5,15S7,15.673,7,16.5S6.327,18,5.5,18z M18.5,18 c-0.827,0-1.5-0.673-1.5-1.5s0.673-1.5,1.5-1.5s1.5,0.673,1.5,1.5S19.327,18,18.5,18z"></path></g></svg>