<svg id="nc_icon" version="1.1" xmlns="http://www.w3.org/2000/svg" xmlns:xlink="http://www.w3.org/1999/xlink" x="0px" y="0px" viewBox="0 0 24 24" xml:space="preserve" ><g class="nc-icon-wrapper"><path data-color="color-2" fill="currentColor" d="M16,20v2c0,0.552,0.448,1,1,1h4c0.552,0,1-0.448,1-1v-2H16z"></path> <path fill="currentColor" d="M1,19h22c0.552,0,1-0.448,1-1v-6c0-0.265-0.105-0.52-0.293-0.707l-1.804-1.804L19.97,1.757 C19.859,1.312,19.459,1,19,1H5C4.541,1,4.141,1.312,4.03,1.757L2.097,9.489l-1.804,1.804C0.105,11.48,0,11.735,0,12v6 C0,18.552,0.448,19,1,19z M20,14.5c0,0.828-0.672,1.5-1.5,1.5S17,15.328,17,14.5s0.672-1.5,1.5-1.5S20,13.672,20,14.5z M5.781,3 h12.438l1.5,6H4.281L5.781,3z M5.5,13C6.328,13,7,13.672,7,14.5S6.328,16,5.5,16S4,15.328,4,14.5S4.672,13,5.5,13z"></path> <path data-color="color-2" fill="currentColor" d="M2,20v2c0,0.552,0.448,1,1,1h4c0.552,0,1-0.448,1-1v-2H2z"></path></g></svg>