<svg id="nc_icon" version="1.1" xmlns="http://www.w3.org/2000/svg" xmlns:xlink="http://www.w3.org/1999/xlink" x="0px" y="0px" viewBox="0 0 24 24" xml:space="preserve" ><g class="nc-icon-wrapper"><rect data-color="color-2" x="9" fill="currentColor" width="6" height="3"></rect> <path data-color="color-2" fill="currentColor" d="M2,21v2c0,0.552,0.447,1,1,1h4c0.553,0,1-0.448,1-1v-2H2z"></path> <path fill="currentColor" d="M1,20h22c0.553,0,1-0.448,1-1v-6c0-0.265-0.105-0.52-0.293-0.707l-1.833-1.833l-1.925-5.776 C19.812,4.275,19.431,4,19,4H5C4.569,4,4.188,4.275,4.052,4.684l-1.925,5.776l-1.833,1.833C0.105,12.48,0,12.735,0,13v6 C0,19.552,0.447,20,1,20z M21,15.5c0,0.828-0.672,1.5-1.5,1.5S18,16.328,18,15.5s0.672-1.5,1.5-1.5S21,14.672,21,15.5z M5.721,6 h12.559l1.334,4H4.387L5.721,6z M4.5,14C5.328,14,6,14.672,6,15.5S5.328,17,4.5,17S3,16.328,3,15.5S3.672,14,4.5,14z"></path> <path data-color="color-2" fill="currentColor" d="M16,21v2c0,0.552,0.447,1,1,1h4c0.553,0,1-0.448,1-1v-2H16z"></path></g></svg>