<svg id="nc_icon" version="1.1" xmlns="http://www.w3.org/2000/svg" xmlns:xlink="http://www.w3.org/1999/xlink" x="0px" y="0px" viewBox="0 0 24 24" xml:space="preserve" ><g class="nc-icon-wrapper" fill="currentColor"><path d="M10,3.125C10,1.938,12,0,12,0s2,1.938,2,3.125A1.906,1.906,0,0,1,12,5,1.906,1.906,0,0,1,10,3.125Z" fill="currentColor" data-color="color-2"></path>  <path d="M2,3.125C2,1.938,4,0,4,0S6,1.938,6,3.125A1.906,1.906,0,0,1,4,5,1.906,1.906,0,0,1,2,3.125Z" fill="currentColor" data-color="color-2"></path>  <path d="M18,3.125C18,1.938,20,0,20,0s2,1.938,2,3.125a2,2,0,0,1-4,0Z" fill="currentColor" data-color="color-2"></path>  <circle cx="6" cy="18" r="1" fill="currentColor"></circle>  <circle cx="18" cy="18" r="1" fill="currentColor"></circle>  <path d="M22.414,16l-1.54-1.54-1.7-5.093A2,2,0,0,0,17.279,8H6.721a2,2,0,0,0-1.9,1.367l-1.7,5.093L1.586,16A2.012,2.012,0,0,0,1,17.414V23a1,1,0,0,0,1,1H5a1,1,0,0,0,1-1V22H18v1a1,1,0,0,0,1,1h3a1,1,0,0,0,1-1V17.414A2.012,2.012,0,0,0,22.414,16ZM6.721,10H17.279l1.333,4H5.388ZM21,20H3V17.414L4.414,16H19.586L21,17.414Z" fill="currentColor"></path></g></svg>