<svg id="nc_icon" version="1.1" xmlns="http://www.w3.org/2000/svg" xmlns:xlink="http://www.w3.org/1999/xlink" x="0px" y="0px" viewBox="0 0 24 24" xml:space="preserve" ><g class="nc-icon-wrapper" fill="currentColor"><circle cx="6" cy="17" r="1" fill="currentColor"></circle>  <circle cx="18" cy="17" r="1" fill="currentColor"></circle>  <path d="M22.414,15l-1.54-1.54-1.7-5.093A2,2,0,0,0,17.279,7H16.6a4.8,4.8,0,0,1-1.583,2h2.258l1.333,4H5.388L6.721,9H8.979A4.8,4.8,0,0,1,7.4,7H6.721a2,2,0,0,0-1.9,1.367l-1.7,5.093L1.586,15A2.012,2.012,0,0,0,1,16.414V22a1,1,0,0,0,1,1H5a1,1,0,0,0,1-1V21H18v1a1,1,0,0,0,1,1h3a1,1,0,0,0,1-1V16.414A2.012,2.012,0,0,0,22.414,15ZM21,19H3V16.414L4.414,15H19.586L21,16.414Z" fill="currentColor"></path>  <path d="M9,5c0-1.9,3-5,3-5s3,3.1,3,5A3,3,0,0,1,9,5Z" fill="currentColor" data-color="color-2"></path></g></svg>