<svg id="nc_icon" version="1.1" xmlns="http://www.w3.org/2000/svg" xmlns:xlink="http://www.w3.org/1999/xlink" x="0px" y="0px" viewBox="0 0 24 24" xml:space="preserve" ><g class="nc-icon-wrapper"><path fill="currentColor" d="M23.55469,12.16797l-2.612-1.74133l-0.94855-8.53699C19.93749,1.3833,19.50977,1,19,1H5 C4.49023,1,4.06249,1.3833,4.00586,1.88965l-0.94855,8.53699l-2.612,1.74133C0.16699,12.35352,0,12.66553,0,13v6 c0,0.55225,0.44727,1,1,1h1v2c0,0.55225,0.44727,1,1,1h3c0.55273,0,1-0.44775,1-1v-2h10v2c0,0.55225,0.44727,1,1,1h3 c0.55273,0,1-0.44775,1-1v-2h1c0.55273,0,1-0.44775,1-1v-6C24,12.66553,23.83301,12.35352,23.55469,12.16797z M5.89551,3h12.20898 l0.77795,7H5.11755L5.89551,3z M8,16H3v-2h5V16z M21,16h-2v2h-2v-2h-2v-2h2v-2h2v2h2V16z"></path></g></svg>