<svg id="nc_icon" version="1.1" xmlns="http://www.w3.org/2000/svg" xmlns:xlink="http://www.w3.org/1999/xlink" x="0px" y="0px" viewBox="0 0 24 24" xml:space="preserve" ><g class="nc-icon-wrapper"><path fill="currentColor" d="M21,1H3C1.346,1,0,2.346,0,4v13c0,1.654,1.346,3,3,3h7v-2H3c-0.552,0-1-0.449-1-1v-5h22V4 C24,2.346,22.654,1,21,1z M2,6V4c0-0.551,0.448-1,1-1h18c0.552,0,1,0.449,1,1v2H2z"></path> <path data-color="color-2" fill="currentColor" d="M20.083,14.503l-5.79,5.79C14.105,20.481,14,20.735,14,21v2h2 c0.265,0,0.519-0.105,0.707-0.293l5.79-5.79c0.667-0.667,0.667-1.747,0-2.414S20.75,13.836,20.083,14.503z"></path></g></svg>