<svg id="nc_icon" version="1.1" xmlns="http://www.w3.org/2000/svg" xmlns:xlink="http://www.w3.org/1999/xlink" x="0px" y="0px" viewBox="0 0 24 24" xml:space="preserve" ><g class="nc-icon-wrapper" fill="currentColor"><path fill="currentColor" d="M21,0H3C1.346,0,0,1.346,0,3v13c0,1.654,1.346,3,3,3h7v-2H3c-0.552,0-1-0.449-1-1v-5h22V3 C24,1.346,22.654,0,21,0z M2,5V3c0-0.551,0.448-1,1-1h18c0.552,0,1,0.449,1,1v2H2z"></path> <path data-color="color-2" fill="currentColor" d="M18,13c-2.282,0-4.273,1.542-4.843,3.75l1.938,0.499C15.436,15.925,16.63,15,18,15 c0.808,0,1.573,0.331,2.131,0.893l-1.608,1.168L22.792,18l0.428-4.351l-1.466,1.065C20.814,13.644,19.451,13,18,13z"></path> <path data-color="color-2" fill="currentColor" d="M18,22c-0.808,0-1.573-0.331-2.131-0.893l1.608-1.168L13.208,19l-0.428,4.351l1.466-1.065 C15.186,23.356,16.549,24,18,24c2.282,0,4.273-1.542,4.843-3.75l-1.938-0.499C20.564,21.075,19.37,22,18,22z"></path></g></svg>