<svg id="nc_icon" version="1.1" xmlns="http://www.w3.org/2000/svg" xmlns:xlink="http://www.w3.org/1999/xlink" x="0px" y="0px" viewBox="0 0 24 24" xml:space="preserve" ><g class="nc-icon-wrapper" fill="currentColor"><path fill="currentColor" d="M21,1H3C1.346,1,0,2.346,0,4v13c0,1.654,1.346,3,3,3h7v-2H3c-0.552,0-1-0.449-1-1v-5h22V4 C24,2.346,22.654,1,21,1z M2,6V4c0-0.551,0.448-1,1-1h18c0.552,0,1,0.449,1,1v2H2z"></path> <path data-color="color-2" fill="currentColor" d="M18,15.24c-0.956-1.464-2.986-1.663-4.201-0.428c-1.065,1.082-1.065,2.837,0,3.919L18,23 l4.202-4.269c1.065-1.082,1.065-2.837,0-3.919C20.985,13.576,18.955,13.778,18,15.24z"></path></g></svg>