<svg id="nc_icon" version="1.1" xmlns="http://www.w3.org/2000/svg" xmlns:xlink="http://www.w3.org/1999/xlink" x="0px" y="0px" viewBox="0 0 24 24" xml:space="preserve" ><g class="nc-icon-wrapper"><polygon data-color="color-2" fill="currentColor" points="21,15 19,15 19,18 16,18 16,20 19,20 19,23 21,23 21,20 24,20 24,18 21,18 "></polygon> <path fill="currentColor" d="M21,1H3C1.346,1,0,2.346,0,4v13c0,1.654,1.346,3,3,3h9v-2H3c-0.552,0-1-0.449-1-1v-5h22V4 C24,2.346,22.654,1,21,1z M2,6V4c0-0.551,0.448-1,1-1h18c0.552,0,1,0.449,1,1v2H2z"></path></g></svg>