<svg id="nc_icon" version="1.1" xmlns="http://www.w3.org/2000/svg" xmlns:xlink="http://www.w3.org/1999/xlink" x="0px" y="0px" viewBox="0 0 24 24" xml:space="preserve" ><g class="nc-icon-wrapper" fill="currentColor"><path fill="currentColor" d="M21.2890625,15.2265625c-0.0146484-0.0048828-0.0297852-0.0097656-0.0444336-0.0141602l-2.1968384-0.6383057 l3.7837524-9.4598389c0.3701172-0.9257812,0.2573242-1.9707031-0.3012695-2.7963867C21.9711914,1.4926758,21.0424805,1,20.0458984,1 H16c-0.5522461,0-1,0.4477539-1,1s0.4477539,1,1,1h4.0458984c0.3374023,0,0.6391602,0.1601562,0.828125,0.4394531 s0.2255859,0.6186523,0.1000977,0.9316406l-3.8566895,9.6421509l-9.0969238-2.6431274 c-0.1685791-0.06073-0.6411743-0.2158203-1.2232666-0.3046265L5.7808838,7H7c0.5522461,0,1-0.4477539,1-1S7.5522461,5,7,5H2 C1.4477539,5,1,5.4477539,1,6s0.4477539,1,1,1h1.7191162l1.0330811,4.1324463C2.0408325,11.7084351,0,14.1193848,0,17 c0,3.3085938,2.6914062,6,6,6h14c2.2055664,0,4-1.7944336,4-4C24,17.2978516,22.9106445,15.7817383,21.2890625,15.2265625z M6,19 c-1.1045532,0-2-0.8954468-2-2c0-1.1046143,0.8954468-2,2-2s2,0.8953857,2,2C8,18.1045532,7.1045532,19,6,19z"></path></g></svg>