<svg id="nc_icon" xmlns="http://www.w3.org/2000/svg" xmlns:xlink="http://www.w3.org/1999/xlink" x="0px" y="0px" viewBox="0 0 24 24" ><g class="nc-icon-wrapper" fill="currentColor"><path fill="currentColor" d="M23,1c-1.854,0-3.301,0.694-4.26,1.999c-0.871-0.459-1.859-0.682-2.863-0.627 c-1.551,0.093-2.991,0.847-3.95,2.067l-1.193,1.519l2.654,2.654l-1.414,1.414L9.49,7.542L0.696,18.734 c-1.017,1.295-0.907,3.148,0.257,4.312C1.584,23.678,2.418,24,3.256,24c0.707,0,1.417-0.229,2.009-0.695l6.442-5.061l-1.975-1.975 l1.414-1.414l2.145,2.145l6.269-4.926c1.222-0.96,1.975-2.399,2.068-3.95c0.085-1.421-0.398-2.812-1.325-3.881 C20.888,3.402,21.758,3,23,3c0.552,0,1-0.447,1-1S23.552,1,23,1z"></path></g></svg>