<svg id="nc_icon" version="1.1" xmlns="http://www.w3.org/2000/svg" xmlns:xlink="http://www.w3.org/1999/xlink" x="0px" y="0px" viewBox="0 0 24 24" xml:space="preserve" ><g class="nc-icon-wrapper" fill="currentColor"><circle data-color="color-2" fill="currentColor" cx="4" cy="22" r="2"></circle> <circle data-color="color-2" fill="currentColor" cx="20" cy="22" r="2"></circle> <path fill="currentColor" d="M23,16H3l1.5-2H19c0.431,0,0.812-0.275,0.948-0.684l1.797-5.392C21.5,7.962,21.255,8,21,8 c-2.761,0-5-2.239-5-5H4.414L1.707,0.293c-0.391-0.391-1.023-0.391-1.414,0s-0.391,1.023,0,1.414L3,4.414v8.252L0.2,16.4 c-0.228,0.303-0.264,0.708-0.095,1.047C0.275,17.786,0.621,18,1,18h22c0.553,0,1-0.448,1-1S23.553,16,23,16z"></path> <rect data-color="color-2" x="18" y="2" fill="currentColor" width="6" height="2"></rect></g></svg>