<svg id="nc_icon" version="1.1" xmlns="http://www.w3.org/2000/svg" xmlns:xlink="http://www.w3.org/1999/xlink" x="0px" y="0px" viewBox="0 0 24 24" xml:space="preserve" ><g class="nc-icon-wrapper" fill="currentColor"><path fill="currentColor" d="M19.18,15H6.875L4.991,0.868C4.925,0.371,4.501,0,4,0H0v2h3.125l1.884,14.132C5.075,16.629,5.499,17,6,17h14 c0.477,0,0.887-0.336,0.98-0.804l2.196-10.981l-1.961-0.392L19.18,15z"></path> <circle data-color="color-2" fill="currentColor" cx="6.5" cy="21.5" r="2.5"></circle> <circle data-color="color-2" fill="currentColor" cx="19.5" cy="21.5" r="2.5"></circle> <path data-color="color-2" fill="currentColor" d="M13,6h3v5h2V5c0-0.552-0.448-1-1-1h-4V1L8,5l5,4V6z"></path></g></svg>