<svg id="nc_icon" version="1.1" xmlns="http://www.w3.org/2000/svg" xmlns:xlink="http://www.w3.org/1999/xlink" x="0px" y="0px" viewBox="0 0 24 24" xml:space="preserve" ><g class="nc-icon-wrapper" fill="currentColor"><path data-color="color-2" fill="currentColor" d="M18,0c-3.309,0-6,2.691-6,6s2.691,6,6,6s6-2.691,6-6S21.309,0,18,0z M21,7h-6V5h6V7z"></path> <path fill="currentColor" d="M24,15H5V6h5V4H5V1c0-0.552-0.447-1-1-1L0,0v2h3v14c0,0.552,0.447,1,1,1h20V15z"></path> <circle data-color="color-2" fill="currentColor" cx="5.5" cy="21.5" r="2.5"></circle> <circle data-color="color-2" fill="currentColor" cx="20.5" cy="21.5" r="2.5"></circle></g></svg>