<svg id="nc_icon" version="1.1" xmlns="http://www.w3.org/2000/svg" xmlns:xlink="http://www.w3.org/1999/xlink" x="0px" y="0px" viewBox="0 0 24 24" xml:space="preserve" ><g class="nc-icon-wrapper" fill="currentColor"><path fill="currentColor" d="M22,5h-1.586l-3.707-3.707c-0.391-0.391-1.023-0.391-1.414,0L13.5,3.086l-1.793-1.793 c-0.391-0.391-1.023-0.391-1.414,0L6.586,5H5.542L4.991,0.868C4.925,0.371,4.501,0,4,0H1v2h2.125l1.884,14.132 C5.075,16.629,5.499,17,6,17h14c0.477,0,0.887-0.336,0.98-0.804l2-10c0.059-0.294-0.017-0.599-0.207-0.83C22.583,5.134,22.3,5,22,5z M16,3.414L17.586,5h-2.172l-0.5-0.5L16,3.414z M11,3.414L12.586,5H9.414L11,3.414z"></path> <circle data-color="color-2" fill="currentColor" cx="6.5" cy="21.5" r="2.5"></circle> <circle data-color="color-2" fill="currentColor" cx="19.5" cy="21.5" r="2.5"></circle></g></svg>