<svg id="nc_icon" version="1.1" xmlns="http://www.w3.org/2000/svg" xmlns:xlink="http://www.w3.org/1999/xlink" x="0px" y="0px" viewBox="0 0 24 24" xml:space="preserve" ><g class="nc-icon-wrapper" fill="currentColor"><circle data-color="color-2" fill="currentColor" cx="6.5" cy="21.5" r="2.5"></circle> <circle data-color="color-2" fill="currentColor" cx="19.5" cy="21.5" r="2.5"></circle> <path fill="currentColor" d="M23.802,5.403C23.614,5.149,23.316,5,23,5h-9v5h3l-4,4l-4-4h3V5H5.542L4.991,0.868C4.925,0.371,4.501,0,4,0 H0v2h3.125l1.884,14.132C5.075,16.629,5.499,17,6,17h14c0.441,0,0.831-0.29,0.958-0.713l3-10 C24.049,5.984,23.991,5.657,23.802,5.403z"></path></g></svg>