<svg id="nc_icon" version="1.1" xmlns="http://www.w3.org/2000/svg" xmlns:xlink="http://www.w3.org/1999/xlink" x="0px" y="0px" viewBox="0 0 24 24" xml:space="preserve" ><g class="nc-icon-wrapper" fill="currentColor"><circle data-color="color-2" fill="currentColor" cx="6.5" cy="21.5" r="2.5"></circle> <circle data-color="color-2" fill="currentColor" cx="19.5" cy="21.5" r="2.5"></circle> <path fill="currentColor" d="M21,10c-2.761,0-5-2.239-5-5c0,0,0,0,0,0H5.542L4.991,0.867C4.925,0.371,4.501,0,4,0H0v2h3.125l1.884,14.132 C5.075,16.629,5.499,17,6,17h14c0.441,0,0.831-0.29,0.958-0.713l2.007-6.69C22.361,9.855,21.698,10,21,10z"></path> <polygon data-color="color-2" fill="currentColor" points="24,4 22,4 22,2 20,2 20,4 18,4 18,6 20,6 20,8 22,8 22,6 24,6 "></polygon></g></svg>