<svg id="nc_icon" version="1.1" xmlns="http://www.w3.org/2000/svg" xmlns:xlink="http://www.w3.org/1999/xlink" x="0px" y="0px" viewBox="0 0 24 24" xml:space="preserve" ><g class="nc-icon-wrapper" fill="currentColor"><path data-color="color-2" fill="currentColor" d="M23,19H1c-0.552,0-1,0.447-1,1v3c0,0.553,0.448,1,1,1h22c0.552,0,1-0.447,1-1v-3 C24,19.447,23.552,19,23,19z"></path> <path fill="currentColor" d="M21.8,13.401L19,9.667V7c0-0.552-0.448-1-1-1h-2V4h3V0h-8v4h3v2H6C5.448,6,5,6.448,5,7v2.667l-2.8,3.734 C2.07,13.574,2,13.784,2,14v3h20v-3C22,13.784,21.93,13.574,21.8,13.401z"></path></g></svg>