<svg id="nc_icon" version="1.1" xmlns="http://www.w3.org/2000/svg" xmlns:xlink="http://www.w3.org/1999/xlink" x="0px" y="0px" viewBox="0 0 24 24" xml:space="preserve" ><g class="nc-icon-wrapper" fill="currentColor"><path fill="currentColor" d="M21.4335938,1.0986328C21.0849609,0.9326172,20.6757812,0.9790039,20.375,1.2192383l-4.5126953,3.6108398 C15.0791016,4.4960938,13.6396484,4,12,4S8.9208984,4.4960938,8.1376953,4.8300781L3.625,1.2192383 C3.3242188,0.9790039,2.9111328,0.9321289,2.5664062,1.0986328C2.2207031,1.2651367,2,1.6157227,2,2v12 c0,5.5141602,4.4863281,10,10,10s10-4.4858398,10-10V2C22,1.6157227,21.7792969,1.2651367,21.4335938,1.0986328z M6,11.5 C6,10.6715698,6.6715698,10,7.5,10S9,10.6715698,9,11.5S8.3284302,13,7.5,13S6,12.3284302,6,11.5z M16.5947266,19.3041992 C15.9863281,19.7592773,15.2626953,20,14.5,20c-0.9829712,0-1.8640747-0.407959-2.5-1.0650024 C11.3640747,19.592041,10.4829712,20,9.5,20c-0.7626953,0-1.4863281-0.2407227-2.0947266-0.6958008 c-0.4423828-0.3310547-0.5332031-0.9575195-0.2021484-1.3999023c0.3300781-0.4423828,0.9570312-0.5332031,1.3994141-0.2016602 C8.8632812,17.8969727,9.1728516,18,9.5,18c0.5634766,0,1.0535278-0.3084717,1.307312-0.7781372l-1.0026245-1.0026245 c-0.3730469-0.3740234-0.4833984-0.9301758-0.28125-1.4174805C9.7255859,14.3149414,10.1972656,14,10.7246094,14h2.5507812 c0.5273438,0,0.9990234,0.3149414,1.2011719,0.8017578c0.2021484,0.4873047,0.0917969,1.043457-0.2802734,1.4165039 l-1.0036621,1.0032959C13.4463501,17.6914062,13.9364014,18,14.5,18c0.3271484,0,0.6367188-0.1030273,0.8974609-0.2973633 c0.4423828-0.331543,1.0693359-0.2407227,1.3994141,0.2016602C17.1279297,18.3466797,17.0371094,18.9731445,16.5947266,19.3041992z M16.5,13c-0.8284302,0-1.5-0.6715698-1.5-1.5s0.6715698-1.5,1.5-1.5s1.5,0.6715698,1.5,1.5S17.3284302,13,16.5,13z"></path></g></svg>