<svg id="nc_icon" version="1.1" xmlns="http://www.w3.org/2000/svg" xmlns:xlink="http://www.w3.org/1999/xlink" x="0px" y="0px" viewBox="0 0 24 24" xml:space="preserve" ><g class="nc-icon-wrapper" fill="currentColor"><path fill="currentColor" d="M21.3023071,19.1818848C22.885376,18.1508179,24,16.5405884,24,14 c0-2.1967773-0.7851562-3.5708008-2-5.3154297V5c0-2.7836914-7.6542969-3-10-3S2,2.2163086,2,5v3.6845703 C0.7851562,10.4291992,0,11.8032227,0,14c0,2.5405884,1.114624,4.1508179,2.6976929,5.1818848l-1.5263062,2.2580566 c-0.309082,0.4575195-0.1889648,1.0791016,0.2685547,1.3886719C1.6118164,22.9443359,1.8061523,23,1.9990234,23 c0.3208008,0,0.6362305-0.1542969,0.8295898-0.4399414l1.6838379-2.4911499C7.0939331,20.9944458,10.1706543,21,12,21 s4.9060669-0.0055542,7.4875488-0.9310913l1.6838379,2.4911499C21.3647461,22.8457031,21.6801758,23,22.0009766,23 c0.1923828,0,0.387207-0.0556641,0.559082-0.1713867c0.4575195-0.3095703,0.5776367-0.9311523,0.2685547-1.3886719 L21.3023071,19.1818848z M12,4c3.9379883,0,6.5561523,0.5561523,7.6069336,0.9960938 c-0.4750977,0.2016602-1.3344727,0.4628906-2.7539062,0.6738281C16.362793,5.7431641,16,6.1635742,16,6.6591797V12 c0,0.5512695-0.4487305,1-1,1s-1-0.4487305-1-1V6.9868164c0-0.54846-0.444766-1-1-1c-0.0083008,0-0.0166016,0-0.0244141,0.0004883 C9.9179688,6.0620117,5.6816406,5.640625,4.3139648,5.0302734C5.3081055,4.5859375,7.9594727,4,12,4z"></path></g></svg>