<svg id="nc_icon" version="1.1" xmlns="http://www.w3.org/2000/svg" xmlns:xlink="http://www.w3.org/1999/xlink" x="0px" y="0px" viewBox="0 0 24 24" xml:space="preserve" ><g class="nc-icon-wrapper" fill="currentColor"><path fill="currentColor" d="M23,14H1c-0.553,0-1,0.448-1,1v8c0,0.552,0.447,1,1,1h22c0.553,0,1-0.448,1-1v-8C24,14.448,23.553,14,23,14z M19,20H5v-2h14V20z"></path> <path data-color="color-2" fill="currentColor" d="M12,0C6.486,0,2,4.486,2,10c0,0.679,0.092,1.345,0.226,2h7.552C9.3,11.468,9,10.772,9,10 c0-1.657,1.343-3,3-3s3,1.343,3,3c0,0.772-0.3,1.468-0.779,2h7.552C21.908,11.345,22,10.679,22,10C22,4.486,17.514,0,12,0z"></path></g></svg>