<svg id="nc_icon" version="1.1" xmlns="http://www.w3.org/2000/svg" xmlns:xlink="http://www.w3.org/1999/xlink" x="0px" y="0px" viewBox="0 0 24 24" xml:space="preserve" ><g class="nc-icon-wrapper" fill="currentColor"><path data-color="color-2" fill="currentColor" d="M10,4c0-2.2-1.8-4-4-4S2,1.8,2,4s1.8,4,4,4S10,6.2,10,4z M6,6C4.9,6,4,5.1,4,4s0.9-2,2-2s2,0.9,2,2 S7.1,6,6,6z"></path> <path fill="currentColor" d="M19.4,21.1c-1,0.6-2.2,0.9-3.4,0.9c-3.9,0-7-3.1-7-7s3.1-7,7-7c1.2,0,2.4,0.3,3.5,0.9 C20,9.2,20.6,9,20.9,8.6c0.3-0.5,0.1-1.1-0.4-1.4C19.1,6.4,17.6,6,16,6c-5,0-9,4-9,9s4,9,9,9c1.5,0,3-0.4,4.4-1.1 c0.5-0.3,0.7-0.9,0.4-1.4C20.5,21,19.9,20.9,19.4,21.1z"></path></g></svg>