<svg id="nc_icon" version="1.1" xmlns="http://www.w3.org/2000/svg" xmlns:xlink="http://www.w3.org/1999/xlink" x="0px" y="0px" viewBox="0 0 24 24" xml:space="preserve" ><g class="nc-icon-wrapper" fill="currentColor"><path data-color="color-2" fill="currentColor" d="M23,14H1c-0.6,0-1,0.4-1,1v3v5c0,0.6,0.4,1,1,1c0.6,0,1-0.4,1-1v-4h2v2c0,0.6,0.4,1,1,1 c0.6,0,1-0.4,1-1v-2h12v2c0,0.6,0.4,1,1,1c0.6,0,1-0.4,1-1v-2h2v4c0,0.6,0.4,1,1,1c0.6,0,1-0.4,1-1v-5v-3C24,14.4,23.6,14,23,14z"></path> <path fill="currentColor" d="M21,1c0-0.6-0.4-1-1-1H4C3.4,0,3,0.4,3,1v11h18V1z"></path></g></svg>