<svg id="nc_icon" version="1.1" xmlns="http://www.w3.org/2000/svg" xmlns:xlink="http://www.w3.org/1999/xlink" x="0px" y="0px" viewBox="0 0 24 24" xml:space="preserve" ><g class="nc-icon-wrapper" fill="currentColor"><path data-color="color-2" fill="currentColor" d="M14,2h-4C9.448,2,9,2.448,9,3v18c0,0.552,0.448,1,1,1h4c0.552,0,1-0.448,1-1V3 C15,2.448,14.552,2,14,2z"></path> <path fill="currentColor" d="M5,13H1c-0.552,0-1,0.448-1,1v7c0,0.552,0.448,1,1,1h4c0.552,0,1-0.448,1-1v-7C6,13.448,5.552,13,5,13z"></path> <path fill="currentColor" d="M23,8h-4c-0.552,0-1,0.448-1,1v12c0,0.552,0.448,1,1,1h4c0.552,0,1-0.448,1-1V9C24,8.448,23.552,8,23,8z"></path></g></svg>