<svg id="nc_icon" version="1.1" xmlns="http://www.w3.org/2000/svg" xmlns:xlink="http://www.w3.org/1999/xlink" x="0px" y="0px" viewBox="0 0 24 24" xml:space="preserve" ><g class="nc-icon-wrapper" fill="currentColor"><path data-color="color-2" fill="currentColor" d="M13,6.09c2.507,0.423,4.486,2.403,4.91,4.91h6.04C23.466,5.181,18.819,0.534,13,0.051V6.09z"></path> <path fill="currentColor" d="M17.91,13c-0.478,2.833-2.942,5-5.91,5c-1.407,0-2.699-0.49-3.723-1.304l-4.483,4.035 C5.942,22.752,8.825,24,12,24c6.28,0,11.438-4.851,11.949-11H17.91z"></path> <path fill="currentColor" d="M6.939,15.21C6.348,14.28,6,13.181,6,12c0-2.967,2.167-5.431,5-5.91v-6.04C4.85,0.562,0,5.721,0,12 c0,2.723,0.922,5.228,2.456,7.244L6.939,15.21z"></path></g></svg>