<svg id="nc_icon" version="1.1" xmlns="http://www.w3.org/2000/svg" xmlns:xlink="http://www.w3.org/1999/xlink" x="0px" y="0px" viewBox="0 0 24 24" xml:space="preserve" ><g class="nc-icon-wrapper" fill="currentColor"><path data-color="color-2" fill="currentColor" d="M8.3,16.5C7.5,15.9,7,15,7,14V5.5C3.5,6.8,1,10.1,1,14c0,5,4,9,9,9c1.9,0,3.8-0.6,5.3-1.7	L8.3,16.5z"></path><path fill="currentColor" d="M10,1C9.4,1,9,1.4,9,2v12c0,0.3,0.2,0.6,0.4,0.8l9.9,6.8c0.2,0.1,0.4,0.2,0.6,0.2c0.3,0,0.6-0.2,0.8-0.4	c1.5-2.2,2.3-4.7,2.3-7.4C23,6.8,17.2,1,10,1z"></path></g></svg>