<svg id="nc_icon" version="1.1" xmlns="http://www.w3.org/2000/svg" xmlns:xlink="http://www.w3.org/1999/xlink" x="0px" y="0px" viewBox="0 0 24 24" xml:space="preserve" ><g class="nc-icon-wrapper" fill="currentColor"><path fill="currentColor" d="M14,13h-4c-0.552,0-1,0.448-1,1v9c0,0.552,0.448,1,1,1h4c0.552,0,1-0.448,1-1v-9C15,13.448,14.552,13,14,13z "></path> <path fill="currentColor" d="M5,17H1c-0.552,0-1,0.448-1,1v5c0,0.552,0.448,1,1,1h4c0.552,0,1-0.448,1-1v-5C6,17.448,5.552,17,5,17z"></path> <path fill="currentColor" d="M23,9h-4c-0.552,0-1,0.448-1,1v13c0,0.552,0.448,1,1,1h4c0.552,0,1-0.448,1-1V10C24,9.448,23.552,9,23,9z"></path> <path data-color="color-2" fill="currentColor" d="M12.707,9.707L19,3.414V7h2V1c0-0.552-0.448-1-1-1h-6v2h3.586L12,7.586L8.707,4.293 c-0.391-0.391-1.023-0.391-1.414,0l-5,5l1.414,1.414L8,6.414l3.293,3.293C11.684,10.098,12.316,10.098,12.707,9.707z"></path></g></svg>