<svg id="nc_icon" version="1.1" xmlns="http://www.w3.org/2000/svg" xmlns:xlink="http://www.w3.org/1999/xlink" x="0px" y="0px" viewBox="0 0 24 24" xml:space="preserve" ><g class="nc-icon-wrapper" fill="currentColor"><path fill="currentColor" d="M5,13H1c-0.6,0-1,0.4-1,1v6c0,0.6,0.4,1,1,1h4c0.6,0,1-0.4,1-1v-6C6,13.4,5.6,13,5,13z"></path> <path data-color="color-2" fill="currentColor" d="M14,8h-4C9.4,8,9,8.4,9,9v11c0,0.6,0.4,1,1,1h4c0.6,0,1-0.4,1-1V9C15,8.4,14.6,8,14,8z"></path> <path fill="currentColor" d="M23,3h-4c-0.6,0-1,0.4-1,1v16c0,0.6,0.4,1,1,1h4c0.6,0,1-0.4,1-1V4C24,3.4,23.6,3,23,3z"></path></g></svg>