<svg id="nc_icon" version="1.1" xmlns="http://www.w3.org/2000/svg" xmlns:xlink="http://www.w3.org/1999/xlink" x="0px" y="0px" viewBox="0 0 24 24" xml:space="preserve" ><g class="nc-icon-wrapper" fill="currentColor"><path data-color="color-2" fill="currentColor" d="M3,17c-0.6,0-1,0.4-1,1v3c0,0.6,0.4,1,1,1s1-0.4,1-1v-3C4,17.4,3.6,17,3,17z"></path> <path fill="currentColor" d="M9,12c-0.6,0-1,0.4-1,1v8c0,0.6,0.4,1,1,1s1-0.4,1-1v-8C10,12.4,9.6,12,9,12z"></path> <path data-color="color-2" fill="currentColor" d="M15,7c-0.6,0-1,0.4-1,1v13c0,0.6,0.4,1,1,1s1-0.4,1-1V8C16,7.4,15.6,7,15,7z"></path> <path fill="currentColor" d="M21,2c-0.6,0-1,0.4-1,1v18c0,0.6,0.4,1,1,1s1-0.4,1-1V3C22,2.4,21.6,2,21,2z"></path></g></svg>