<svg id="nc_icon" version="1.1" xmlns="http://www.w3.org/2000/svg" xmlns:xlink="http://www.w3.org/1999/xlink" x="0px" y="0px" viewBox="0 0 24 24" xml:space="preserve" ><g class="nc-icon-wrapper" fill="currentColor"><path data-color="color-2" fill="currentColor" d="M21.965,9.575C21.604,14.821,16.384,19,10,19c-0.465,0-0.931-0.026-1.394-0.072 c2.013,1.586,4.939,2.376,7.946,1.967L22,23.618v-5.215c1.293-1.243,2-2.791,2-4.403C24,12.373,23.277,10.822,21.965,9.575z"></path> <path fill="currentColor" d="M10,1C4.477,1,0,4.582,0,9c0,1.797,0.75,3.45,2,4.785V19l4.833-2.416C7.829,16.85,8.892,17,10,17 c5.523,0,10-3.582,10-8S15.523,1,10,1z"></path></g></svg>