<svg id="nc_icon" version="1.1" xmlns="http://www.w3.org/2000/svg" xmlns:xlink="http://www.w3.org/1999/xlink" x="0px" y="0px" viewBox="0 0 24 24" xml:space="preserve" ><g class="nc-icon-wrapper" fill="currentColor"><path data-color="color-2" fill="currentColor" d="M20,6v8c0,0.552-0.448,1-1,1h-7.359L7,19h7l6,4v-4h3c0.552,0,1-0.448,1-1V7 c0-0.552-0.448-1-1-1H20z"></path> <path fill="currentColor" d="M17,0H1C0.448,0,0,0.448,0,1v11c0,0.552,0.448,1,1,1h3v5.469L11,13h6c0.552,0,1-0.448,1-1V1 C18,0.448,17.552,0,17,0z"></path></g></svg>