<svg id="nc_icon" version="1.1" xmlns="http://www.w3.org/2000/svg" xmlns:xlink="http://www.w3.org/1999/xlink" x="0px" y="0px" viewBox="0 0 24 24" xml:space="preserve" ><g class="nc-icon-wrapper" fill="currentColor"><polygon data-color="color-2" fill="currentColor" points="0,13 5,9 5,12 14,12 14,14 5,14 5,17 "></polygon> <path fill="currentColor" d="M6,22h16V4h-3v2h-2V4h-6v2H9V4H6v3H4V3c0-0.552,0.447-1,1-1h4V0l2,0v2h6V0l2,0v2h4c0.553,0,1,0.448,1,1v20 c0,0.552-0.447,1-1,1H5c-0.553,0-1-0.448-1-1v-4h2V22z"></path></g></svg>