<svg id="nc_icon" version="1.1" xmlns="http://www.w3.org/2000/svg" xmlns:xlink="http://www.w3.org/1999/xlink" x="0px" y="0px" viewBox="0 0 24 24" xml:space="preserve" ><g class="nc-icon-wrapper" fill="currentColor"><path fill="currentColor" d="M23,8c0.6,0,1-0.4,1-1V1c0-0.6-0.4-1-1-1h-6c-0.6,0-1,0.4-1,1c0,2.2-1.8,4-4,4S8,3.2,8,1c0-0.6-0.4-1-1-1H1 C0.4,0,0,0.4,0,1v22c0,0.6,0.4,1,1,1h22c0.6,0,1-0.4,1-1v-6c0-0.6-0.4-1-1-1c-2.2,0-4-1.8-4-4S20.8,8,23,8z M8,19c-2.2,0-4-1.8-4-4 s1.8-4,4-4s4,1.8,4,4S10.2,19,8,19z"></path></g></svg>