<svg id="nc_icon" xmlns="http://www.w3.org/2000/svg" xmlns:xlink="http://www.w3.org/1999/xlink" x="0px" y="0px" viewBox="0 0 24 24" ><g class="nc-icon-wrapper" fill="currentColor"><path fill="currentColor" d="M2,18v0.012c0,2.757,2.231,4.993,4.988,5l10,0.025c2.766,0.007,5.012-2.234,5.012-5V18H2z"></path> <path fill="currentColor" d="M14,1h-4C5.589,1,2,4.589,2,9h20C22,4.589,18.411,1,14,1z"></path> <path data-color="color-2" fill="currentColor" d="M21.273,11H19l-3,3l-3-3H2.727C1.221,11,0,12.119,0,13.5C0,14.881,1.221,16,2.727,16h18.545 C22.779,16,24,14.881,24,13.5C24,12.119,22.779,11,21.273,11z"></path></g></svg>