<svg id="nc_icon" version="1.1" xmlns="http://www.w3.org/2000/svg" xmlns:xlink="http://www.w3.org/1999/xlink" x="0px" y="0px" viewBox="0 0 24 24" xml:space="preserve" ><g class="nc-icon-wrapper" fill="currentColor"><path fill="currentColor" d="M23,10h-8v2h7v9H2v-9h2v-2H1c-0.552,0-1,0.447-1,1v11c0,0.553,0.448,1,1,1h22c0.552,0,1-0.447,1-1V11 C24,10.447,23.552,10,23,10z"></path> <path data-color="color-2" fill="currentColor" d="M9.316,13.948c0.147-0.049,0.281-0.132,0.391-0.241l9-9c0.391-0.391,0.391-1.023,0-1.414 l-2-2c-0.391-0.391-1.023-0.391-1.414,0l-9,9c-0.11,0.109-0.192,0.243-0.242,0.391L5,15L9.316,13.948z"></path> <rect x="5" y="17" fill="currentColor" width="14" height="2"></rect></g></svg>