<svg id="nc_icon" version="1.1" xmlns="http://www.w3.org/2000/svg" xmlns:xlink="http://www.w3.org/1999/xlink" x="0px" y="0px" viewBox="0 0 24 24" xml:space="preserve" ><g class="nc-icon-wrapper" fill="currentColor"><path fill="currentColor" d="M23,0H7C6.447,0,6,0.447,6,1v16H3c-1.654,0-3,1.346-3,3v4h14v-3.583C14,19.609,14.645,19,15.5,19 c0.723,0,1.5,0.47,1.5,1.5c0,1.93,1.57,3.5,3.5,3.5s3.5-1.57,3.5-3.5V1C24,0.447,23.553,0,23,0z M12,20.417V22H2v-2 c0-0.552,0.448-1,1-1h9.304C12.108,19.43,12,19.909,12,20.417z M20,13H10v-2h10V13z M20,7H10V5h10V7z"></path></g></svg>