<svg id="nc_icon" xmlns="http://www.w3.org/2000/svg" xmlns:xlink="http://www.w3.org/1999/xlink" x="0px" y="0px" viewBox="0 0 24 24" ><g class="nc-icon-wrapper" fill="currentColor"><path d="M18.635,13.007c-1.222-2.706-1.884-6.343,1.072-9.3A1,1,0,0,0,19,2a14.4,14.4,0,0,0-4.763.86C13.215,1.966,10.666,0,8,0,4.692,0,1.437,3.151,1.3,3.286l-.721.707.714.714a12.378,12.378,0,0,0,5.782,3.21,10.184,10.184,0,0,0-2.021,5.106,5.494,5.494,0,1,0,2,.2,8.9,8.9,0,0,1,2.9-5.544,12.765,12.765,0,0,0,4.581-2.812A13.493,13.493,0,0,1,16.8,4.215c-1.52,2.59-1.581,5.736-.182,9.125a5.5,5.5,0,1,0,2.022-.333Z" fill="currentColor"></path></g></svg>