<svg id="nc_icon" xmlns="http://www.w3.org/2000/svg" xmlns:xlink="http://www.w3.org/1999/xlink" x="0px" y="0px" viewBox="0 0 24 24" ><g class="nc-icon-wrapper" fill="currentColor"><path data-color="color-2" fill="currentColor" d="M23.268,2.854c-0.4-0.4-0.902-0.627-1.422-0.699c-0.072-0.52-0.299-1.022-0.699-1.422 c-0.976-0.976-2.559-0.976-3.536,0c-0.855,0.855-0.961,2.176-0.318,3.146l-3.607,3.607l2.828,2.828l3.607-3.607 c0.971,0.643,2.291,0.537,3.146-0.318C24.244,5.413,24.244,3.83,23.268,2.854z"></path> <path fill="currentColor" d="M15.808,12.435l-4.243-4.243c-0.391-0.391-1.023-0.391-1.414,0l-1.877,1.876 c-2.239-0.395-4.561,0.318-6.179,1.937c-2.729,2.729-2.729,7.17,0,9.899c1.365,1.365,3.157,2.047,4.95,2.047s3.585-0.683,4.95-2.047 c1.618-1.618,2.333-3.94,1.937-6.179l1.876-1.877C16.198,13.458,16.198,12.826,15.808,12.435z"></path></g></svg>