<svg id="nc_icon" version="1.1" xmlns="http://www.w3.org/2000/svg" xmlns:xlink="http://www.w3.org/1999/xlink" x="0px" y="0px" viewBox="0 0 24 24" xml:space="preserve" ><g class="nc-icon-wrapper" fill="currentColor"><path fill="currentColor" d="M24,8c0-1.88867-1.31641-3.47656-3.08008-3.89355C20.49805,1.77441,18.45215,0,16,0 c-2.75684,0-5,2.24316-5,5c0,0.16919,0.02148,0.34015,0.03888,0.5108c-3.35321,1.17346-5.79993,4.27301-6.01257,7.96954L0.3335,17 L5,20.49988V23c0,0.55273,0.44775,1,1,1h16c0.55225,0,1-0.44727,1-1v-9c0-1.01605-0.17719-1.98956-0.48889-2.90125 C23.4325,10.34882,24,9.21423,24,8z M21,22H7v-8c0-3.85938,3.14014-7,7-7s7,3.14062,7,7V22z"></path> <circle data-color="color-2" fill="currentColor" cx="12" cy="14" r="2"></circle></g></svg>