<svg id="nc_icon" version="1.1" xmlns="http://www.w3.org/2000/svg" xmlns:xlink="http://www.w3.org/1999/xlink" x="0px" y="0px" viewBox="0 0 24 24" xml:space="preserve" ><g class="nc-icon-wrapper" fill="currentColor"><circle data-color="color-2" fill="currentColor" cx="8.5" cy="14.5" r="1.5"></circle> <circle data-color="color-2" fill="currentColor" cx="15.5" cy="14.5" r="1.5"></circle> <path fill="currentColor" d="M21.245,9.206c-1.265-3.083-3.972-5.3-7.165-5.982c0.697-0.726,1.693-1.145,2.982-1.226l-0.125-1.996 c-1.881,0.117-3.43,0.812-4.479,2.01c-0.266,0.304-0.495,0.638-0.691,0.997c-3.971,0.092-7.51,2.534-9.013,6.197 C1.128,9.734,0,11.246,0,13s1.128,3.266,2.755,3.794C4.287,20.528,7.935,23,12,23s7.713-2.472,9.245-6.206 C22.872,16.266,24,14.754,24,13S22.872,9.734,21.245,9.206z M20.33,14.964l-0.585,0.098l-0.194,0.561C18.433,18.839,15.398,21,12,21 s-6.433-2.161-7.551-5.378l-0.194-0.561L3.67,14.964C2.702,14.802,2,13.977,2,13s0.702-1.802,1.67-1.964l0.585-0.098l0.194-0.561 c1.016-2.924,3.62-4.956,6.637-5.306c-0.101,0.625-0.134,1.292-0.084,1.997l1.996-0.139c-0.047-0.674,0.006-1.285,0.13-1.841 c2.926,0.419,5.43,2.434,6.422,5.289l0.194,0.561l0.585,0.098C21.298,11.198,22,12.023,22,13S21.298,14.802,20.33,14.964z"></path></g></svg>