<svg id="nc_icon" xmlns="http://www.w3.org/2000/svg" xmlns:xlink="http://www.w3.org/1999/xlink" x="0px" y="0px" viewBox="0 0 24 24" ><g class="nc-icon-wrapper" fill="currentColor"><path fill="currentColor" d="M22.975,16.07c-0.333-0.579-0.971-0.878-1.627-0.76c-0.934,0.167-1.783,0.336-2.562,0.49 c-4.505,0.893-6.02,1.191-7.989-1.405c-0.679-0.895-0.682-2.213-0.684-3.488c-0.001-0.747-0.002-1.452-0.133-2.104 C9.6,6.897,8.122,5.528,6.165,5.13c0.25-0.765,0.73-1.088,1.054-1.146c0.544-0.099,0.904-0.62,0.805-1.163 c-0.098-0.543-0.62-0.902-1.162-0.805c-0.886,0.161-2.32,1.007-2.739,3.045C1.429,5.354,0,7.036,0,10 c0,4.459,1.747,7.995,3.243,9.667c2.116,2.367,5.11,3.664,8.447,3.664c0.054,0,0.108,0,0.163-0.001 c4.053-0.051,8.049-2.047,10.962-5.475C23.244,17.349,23.308,16.648,22.975,16.07z"></path> <rect data-color="color-2" x="15.379" y="5.5" transform="matrix(0.7071 -0.7071 0.7071 0.7071 0.5294 14.2782)" fill="currentColor" width="4.243" height="2"></rect> <rect data-color="color-2" x="17.539" y="9.649" transform="matrix(0.9848 -0.1737 0.1737 0.9848 -1.5508 3.5766)" fill="currentColor" width="4.242" height="2"></rect> <rect data-color="color-2" x="11.229" y="3.341" transform="matrix(0.1734 -0.9848 0.9848 0.1734 6.761 16.7357)" fill="currentColor" width="4.243" height="1.999"></rect></g></svg>