<svg id="nc_icon" xmlns="http://www.w3.org/2000/svg" xmlns:xlink="http://www.w3.org/1999/xlink" x="0px" y="0px" viewBox="0 0 24 24" ><g class="nc-icon-wrapper" fill="currentColor"><path d="M23.578,13.36A1,1,0,0,0,22.81,13H1.19a1,1,0,0,0-.983,1.181,11.991,11.991,0,0,0,23.586,0A1,1,0,0,0,23.578,13.36Z" fill="currentColor"></path> <path data-color="color-2" d="M18,11h3.312A6.871,6.871,0,0,0,22,8,7,7,0,0,0,10.1,3.005,8.006,8.006,0,0,1,18,11Z" fill="currentColor"></path> <path data-color="color-2" d="M16,11A5.988,5.988,0,0,0,7.827,5.413L2.707.293A1,1,0,0,0,1.293,1.707L6.066,6.48c-.121.106-.239.214-.351.328L1.372,5.071A1,1,0,0,0,.628,6.929L4.553,8.5A5.963,5.963,0,0,0,4,11Z" fill="currentColor"></path></g></svg>