<svg id="nc_icon" version="1.1" xmlns="http://www.w3.org/2000/svg" xmlns:xlink="http://www.w3.org/1999/xlink" x="0px" y="0px" viewBox="0 0 24 24" xml:space="preserve" ><g class="nc-icon-wrapper" fill="currentColor"><path fill="currentColor" d="M22.8,8.4C22.6,8.1,22.3,8,22,8h-1V2c0-0.6-0.4-1-1-1h-4c-0.6,0-1,0.4-1,1v2h-2V1c0-0.6-0.4-1-1-1H8 C7.4,0,7,0.4,7,1v1H4C3.4,2,3,2.4,3,3v5H2C1.7,8,1.4,8.1,1.2,8.4C1,8.6,1,8.9,1,9.2l3,14C4.1,23.7,4.5,24,5,24h14 c0.5,0,0.9-0.3,1-0.8l3-14C23,8.9,23,8.6,22.8,8.4z M7,8H5V4h2V8z M9,2h2v6H9V2z M12,19c-1.7,0-3-1.3-3-3s1.3-3,3-3s3,1.3,3,3 S13.7,19,12,19z M15,8h-2V6h2V8z M19,8h-2V3h2V8z"></path></g></svg>