<svg id="nc_icon" xmlns="http://www.w3.org/2000/svg" xmlns:xlink="http://www.w3.org/1999/xlink" x="0px" y="0px" viewBox="0 0 24 24" ><g class="nc-icon-wrapper" fill="currentColor"><circle cx="10" cy="4" r="2" fill="currentColor" data-color="color-2"></circle> <path d="M18,2V0a4,4,0,0,0-4,4V6A4,4,0,0,0,18,2Z" fill="currentColor" data-color="color-2"></path> <path d="M18.249,7H5.751A3.009,3.009,0,0,0,2.777,9.6L1.009,22.868A1,1,0,0,0,2,24H22a1,1,0,0,0,.991-1.132L21.223,9.6A3.009,3.009,0,0,0,18.249,7ZM12,11v5a1,1,0,0,1-2,0V11H4.609L4.76,9.867A1,1,0,0,1,5.751,9h12.5a1,1,0,0,1,.991.867L19.391,11Z" fill="currentColor"></path></g></svg>