<svg id="nc_icon" version="1.1" xmlns="http://www.w3.org/2000/svg" xmlns:xlink="http://www.w3.org/1999/xlink" x="0px" y="0px" viewBox="0 0 24 24" xml:space="preserve" ><g class="nc-icon-wrapper" fill="currentColor"><path fill="currentColor" d="M20,10V7c0-0.5-0.4-0.9-0.9-1c-1.3-0.1-2.5-1.1-2.9-2.3c-0.1-0.4-0.6-0.7-1-0.7c-1.7,0.1-2.7-0.6-3.1-2.2 c-0.1-0.4-0.5-0.7-1-0.7H4C3.4,0,3,0.4,3,1v9H20z"></path> <path data-color="color-2" fill="currentColor" d="M22,12H1c-0.6,0-1,0.4-1,1v7l3-2v5c0,0.6,0.4,1,1,1h15c0.6,0,1-0.4,1-1v-5l3,2v-7 C23,12.4,22.6,12,22,12z"></path></g></svg>