<svg id="nc_icon" xmlns="http://www.w3.org/2000/svg" xmlns:xlink="http://www.w3.org/1999/xlink" x="0px" y="0px" viewBox="0 0 24 24" ><g class="nc-icon-wrapper" fill="currentColor"><path d="M16.3,8.679l-3,2.642C15.736,14.1,16,15.518,16,16c0,2.479-2.175,3-4,3s-4-.521-4-3c0-2.71,6.073-8.395,10.177-11.383L15.824,1.383c-.646.469-2.134,1.584-3.844,3.069-2.048-1.783-3.719-3.008-3.8-3.069L5.823,4.617c.018.013,1.445,1.059,3.228,2.589C6.39,9.939,4,13.178,4,16c0,4.252,3.14,7,8,7s8-2.748,8-7C20,13.905,18.789,11.511,16.3,8.679Z" fill="currentColor"></path></g></svg>