<svg id="nc_icon" version="1.1" xmlns="http://www.w3.org/2000/svg" xmlns:xlink="http://www.w3.org/1999/xlink" x="0px" y="0px" viewBox="0 0 24 24" xml:space="preserve" ><g class="nc-icon-wrapper" fill="currentColor"><path data-color="color-2" fill="currentColor" d="M23,18H1c-0.6,0-1,0.4-1,1v4c0,0.6,0.4,1,1,1h10v-3c0-0.6,0.4-1,1-1c0.6,0,1,0.4,1,1v3h10 c0.6,0,1-0.4,1-1v-4C24,18.4,23.6,18,23,18z"></path> <path fill="currentColor" d="M21.7,13.3l-7-7C14.5,6.1,14.3,6,14,6h-1V4h2V2h-2V0h-2v2H9v2h2v2h-1C9.7,6,9.5,6.1,9.3,6.3l-7,7 C2.1,13.5,2,13.7,2,14v2h20v-2C22,13.7,21.9,13.5,21.7,13.3z"></path></g></svg>