<svg id="nc_icon" version="1.1" xmlns="http://www.w3.org/2000/svg" xmlns:xlink="http://www.w3.org/1999/xlink" x="0px" y="0px" viewBox="0 0 24 24" xml:space="preserve" ><g class="nc-icon-wrapper" fill="currentColor"><g class="nc-loop_circle-04-24"> <path fill="currentColor" d="M12,24c-2.7734375,0-5.4785156-0.9682617-7.6166992-2.7265625 c-0.4262695-0.3510742-0.487793-0.980957-0.137207-1.4077148c0.3510742-0.4257812,0.9819336-0.4873047,1.4077148-0.137207 C7.4350586,21.1933594,9.6889648,22,12,22c5.5141602,0,10-4.4858398,10-10S17.5141602,2,12,2S2,6.4858398,2,12 c0,1.4248047,0.293457,2.8012695,0.8720703,4.0908203c0.2260742,0.5039062,0.0004883,1.0957031-0.503418,1.3217773 c-0.5053711,0.2246094-1.0957031,0-1.3217773-0.503418C0.3520508,15.3608398,0,13.7089844,0,12C0,5.3833008,5.3833008,0,12,0 s12,5.3833008,12,12S18.6166992,24,12,24z" transform="rotate(55.99500000360422 12 12)"></path> </g> <script>!function(){function t(t){this.element=t,this.circle=this.element.getElementsByTagName("path")[0],this.animationId,this.start=null,this.init()}if(!window.requestAnimationFrame){var i=null;window.requestAnimationFrame=function(t,n){var e=(new Date).getTime();i||(i=e);var a=Math.max(0,16-(e-i)),o=window.setTimeout(function(){t(e+a)},a);return i=e+a,o}}t.prototype.init=function(){var t=this;this.animationId=window.requestAnimationFrame(t.triggerAnimation.bind(t))},t.prototype.reset=function(){var t=this;window.cancelAnimationFrame(t.animationId)},t.prototype.triggerAnimation=function(t){var i=this;this.start||(this.start=t);var n=t-this.start;720>n||(this.start=this.start+720),this.circle.setAttribute("transform","rotate("+Math.min(n/2,360)+" 12 12)");if(document.documentElement.contains(this.element))window.requestAnimationFrame(i.triggerAnimation.bind(i))};var n=document.getElementsByClassName("nc-loop_circle-04-24"),e=[];if(n)for(var a=0;n.length>a;a++)!function(i){e.push(new t(n[i]))}(a);document.addEventListener("visibilitychange",function(){"hidden"==document.visibilityState?e.forEach(function(t){t.reset()}):e.forEach(function(t){t.init()})})}();</script></g></svg>