<svg id="nc_icon" version="1.1" xmlns="http://www.w3.org/2000/svg" xmlns:xlink="http://www.w3.org/1999/xlink" x="0px" y="0px" viewBox="0 0 24 24" xml:space="preserve" ><g class="nc-icon-wrapper" fill="currentColor"><g class="nc-loop_circle-03-24" transform="rotate(334.4042693366425 12 12)"> <path opacity="0.4" fill="currentColor" d="M12,24C5.3833008,24,0,18.6166992,0,12S5.3833008,0,12,0s12,5.3833008,12,12 S18.6166992,24,12,24z M12,2C6.4858398,2,2,6.4858398,2,12s4.4858398,10,10,10s10-4.4858398,10-10S17.5141602,2,12,2z"></path> <path data-color="color-2" fill="currentColor" d="M24,12h-2c0-5.5141602-4.4858398-10-10-10V0C18.6166992,0,24,5.3833008,24,12z"></path> </g> <script>!function(){function t(t){return.5>t?4*t*t*t:(t-1)*(2*t-2)*(2*t-2)+1}function i(t){this.element=t,this.animationId,this.start=null,this.init()}if(!window.requestAnimationFrame){var n=null;window.requestAnimationFrame=function(t,i){var e=(new Date).getTime();n||(n=e);var a=Math.max(0,16-(e-n)),o=window.setTimeout(function(){t(e+a)},a);return n=e+a,o}}i.prototype.init=function(){var t=this;this.animationId=window.requestAnimationFrame(t.triggerAnimation.bind(t))},i.prototype.reset=function(){var t=this;window.cancelAnimationFrame(t.animationId)},i.prototype.triggerAnimation=function(i){var n=this;this.start||(this.start=i);var e=i-this.start;900>e||(this.start=this.start+900),this.element.setAttribute("transform","rotate("+Math.min(900*t(e/900)/2.5,360)+" 12 12)");if(document.documentElement.contains(this.element))window.requestAnimationFrame(n.triggerAnimation.bind(n))};var e=document.getElementsByClassName("nc-loop_circle-03-24"),a=[];if(e)for(var o=0;e.length>o;o++)!function(t){a.push(new i(e[t]))}(o);document.addEventListener("visibilitychange",function(){"hidden"==document.visibilityState?a.forEach(function(t){t.reset()}):a.forEach(function(t){t.init()})})}();</script></g></svg>