<svg id="nc_icon" version="1.1" xmlns="http://www.w3.org/2000/svg" xmlns:xlink="http://www.w3.org/1999/xlink" x="0px" y="0px" viewBox="0 0 24 24" xml:space="preserve" ><g class="nc-icon-wrapper" fill="currentColor"><path fill="currentColor" d="M12,0C5.383,0,0,5.383,0,12s5.383,12,12,12s12-5.383,12-12S18.617,0,12,0z M8,10c0-2.209,1.844-4,4-4 s4,1.791,4,4v1c0,2.209-1.844,4-4,4s-4-1.791-4-4V10z M12,22c-2.433,0-4.665-0.876-6.401-2.326C6.438,18.091,8.083,17,10,17h4 c1.917,0,3.562,1.091,4.401,2.674C16.665,21.124,14.433,22,12,22z"></path></g></svg>