<svg id="nc_icon" version="1.1" xmlns="http://www.w3.org/2000/svg" xmlns:xlink="http://www.w3.org/1999/xlink" x="0px" y="0px" viewBox="0 0 24 24" xml:space="preserve" ><g class="nc-icon-wrapper"><path fill="currentColor" d="M12,0C5.4,0,0,5.4,0,12s5.4,12,12,12s12-5.4,12-12S18.6,0,12,0z M16.7,15.3c0.4,0.4,0.4,1,0,1.4 C16.5,16.9,16.3,17,16,17s-0.5-0.1-0.7-0.3L12,13.4l-3.3,3.3C8.5,16.9,8.3,17,8,17s-0.5-0.1-0.7-0.3c-0.4-0.4-0.4-1,0-1.4l3.3-3.3 L7.3,8.7c-0.4-0.4-0.4-1,0-1.4s1-0.4,1.4,0l3.3,3.3l3.3-3.3c0.4-0.4,1-0.4,1.4,0s0.4,1,0,1.4L13.4,12L16.7,15.3z"></path></g></svg>