<svg id="nc_icon" version="1.1" xmlns="http://www.w3.org/2000/svg" xmlns:xlink="http://www.w3.org/1999/xlink" x="0px" y="0px" viewBox="0 0 24 24" xml:space="preserve" ><g class="nc-icon-wrapper"><path fill="currentColor" d="M12,0C5.383,0,0,5.383,0,12s5.383,12,12,12s12-5.383,12-12S18.617,0,12,0z M12,22 c-2.693,0-5.136-1.075-6.936-2.813C5.362,17.278,6.74,16.54,8.5,15.954c1.183-0.394,1.694-1.437,1.919-2.281 C8.997,13.059,8,11.647,8,10V9c0-2.209,1.791-4,4-4s4,1.791,4,4v1c0,1.647-0.997,3.059-2.419,3.673 c0.227,0.846,0.741,1.889,1.919,2.281c1.762,0.587,3.141,1.302,3.437,3.233C17.137,20.925,14.693,22,12,22z"></path></g></svg>