<svg id="nc_icon" version="1.1" xmlns="http://www.w3.org/2000/svg" xmlns:xlink="http://www.w3.org/1999/xlink" x="0px" y="0px" viewBox="0 0 24 24" xml:space="preserve" ><g class="nc-icon-wrapper" fill="currentColor"><path fill="currentColor" d="M19.561,12.213C19.839,11.514,20,10.772,20,10c0-3.309-2.691-6-6-6c-2.583,0-4.828,1.65-5.655,4.025 C8.229,8.02,8.117,8,8,8c-4.411,0-8,3.589-8,8s3.589,8,8,8h10c3.309,0,6-2.691,6-6C24,15.232,22.114,12.903,19.561,12.213z M14,6 c2.206,0,4,1.794,4,4c0,0.728-0.202,1.42-0.568,2.035c-0.752,0.074-1.486,0.288-2.161,0.64c-0.951-2.082-2.751-3.642-4.907-4.312 C10.996,6.956,12.398,6,14,6z"></path> <rect data-color="color-2" x="13" fill="currentColor" width="2" height="3"></rect> <rect data-color="color-2" x="6.99" y="2.49" transform="matrix(0.7071 -0.7071 0.7071 0.7071 -0.481 6.818)" fill="currentColor" width="2" height="3"></rect> <rect data-color="color-2" x="19.01" y="2.49" transform="matrix(0.7071 0.7071 -0.7071 0.7071 8.682 -12.981)" fill="currentColor" width="2" height="3"></rect> <rect data-color="color-2" x="21.5" y="8.5" transform="matrix(4.547455e-11 1 -1 4.547455e-11 32.5 -12.5)" fill="currentColor" width="2" height="3"></rect></g></svg>