<svg id="nc_icon" version="1.1" xmlns="http://www.w3.org/2000/svg" xmlns:xlink="http://www.w3.org/1999/xlink" x="0px" y="0px" viewBox="0 0 24 24" xml:space="preserve" ><g class="nc-icon-wrapper" fill="currentColor"><path fill="currentColor" d="M24,9c0-3.9-3.1-7-7-7c-2.4,0-4.6,1.3-5.9,3.2C10.4,5.1,9.7,5,9,5c-5,0-9,4-9,9s4,9,9,9h9c3.4,0,6-2.6,6-6 c0-1.5-0.5-2.8-1.4-3.9C23.5,12,24,10.5,24,9z M17,4c2.8,0,5,2.2,5,5c0,1-0.3,2-0.9,2.8c-0.9-0.5-2-0.8-3.1-0.8c-0.2,0-0.3,0-0.5,0 c-0.8-2.3-2.4-4.1-4.5-5.1C14,4.7,15.4,4,17,4z"></path></g></svg>