<svg id="nc_icon" version="1.1" xmlns="http://www.w3.org/2000/svg" xmlns:xlink="http://www.w3.org/1999/xlink" x="0px" y="0px" viewBox="0 0 24 24" xml:space="preserve" ><g class="nc-icon-wrapper" fill="currentColor"><path fill="currentColor" d="M22,0H2C1.447,0,1,0.447,1,1v22c0,0.553,0.447,1,1,1h20c0.553,0,1-0.447,1-1V1C23,0.447,22.553,0,22,0z M14,17H8.5C6.57,17,5,15.43,5,13.5S6.57,10,8.5,10c0.303,0,0.6,0.039,0.887,0.116C10.133,8.272,11.931,7,14,7c2.757,0,5,2.243,5,5 S16.757,17,14,17z"></path></g></svg>