<svg id="nc_icon" version="1.1" xmlns="http://www.w3.org/2000/svg" xmlns:xlink="http://www.w3.org/1999/xlink" x="0px" y="0px" viewBox="0 0 24 24" xml:space="preserve" ><g class="nc-icon-wrapper" fill="currentColor"><path fill="currentColor" d="M18,7c-0.2,0-0.3,0-0.5,0C16.3,3.4,12.9,1,9,1c-5,0-9,4-9,9c0,1.8,0.6,3.6,1.5,5H9c1.7,0,3,1.3,3,3 c0,0.4-0.1,0.7-0.2,1H18c3.4,0,6-2.6,6-6S21.4,7,18,7z"></path> <path data-color="color-2" fill="currentColor" d="M9,19H1c-0.6,0-1-0.4-1-1s0.4-1,1-1h8c0.6,0,1,0.4,1,1S9.6,19,9,19z"></path> <path data-color="color-2" fill="currentColor" d="M13,23H5c-0.6,0-1-0.4-1-1s0.4-1,1-1h8c0.6,0,1,0.4,1,1S13.6,23,13,23z"></path></g></svg>