<svg id="nc_icon" version="1.1" xmlns="http://www.w3.org/2000/svg" xmlns:xlink="http://www.w3.org/1999/xlink" x="0px" y="0px" viewBox="0 0 24 24" xml:space="preserve" ><g class="nc-icon-wrapper" fill="currentColor"><path fill="currentColor" d="M19.9,7.1C19.2,3,15.7,0,11.5,0C7.3,0,3.6,3.2,3.1,7.4C1.3,8.1,0,9.9,0,12c0,2.8,2.2,5,5,5h0.7 c-0.3-0.8-0.2-1.7,0.2-2.5C6.5,13.6,7.5,13,8.5,13c0.2,0,0.4,0,0.6,0.1C9.5,11.9,10.7,11,12,11s2.5,0.9,2.9,2.1 c0.2,0,0.4-0.1,0.6-0.1c1.1,0,2.1,0.6,2.6,1.5c0.5,0.8,0.5,1.7,0.2,2.5H19c2.8,0,5-2.2,5-5C24,9.5,22.2,7.5,19.9,7.1z"></path> <path data-color="color-2" fill="currentColor" d="M16,19.1L14,18l2-1.1c0.5-0.3,0.6-0.9,0.4-1.4c-0.3-0.5-0.9-0.6-1.4-0.4l-2,1.1V14c0-0.6-0.4-1-1-1 s-1,0.4-1,1v2.3l-2-1.1c-0.5-0.3-1.1-0.1-1.4,0.4C7.4,16,7.6,16.6,8,16.9l2,1.1l-2,1.1c-0.5,0.3-0.6,0.9-0.4,1.4 C7.9,20.8,8.2,21,8.5,21c0.2,0,0.3,0,0.5-0.1l2-1.1V22c0,0.6,0.4,1,1,1s1-0.4,1-1v-2.3l2,1.1c0.2,0.1,0.3,0.1,0.5,0.1 c0.3,0,0.7-0.2,0.9-0.5C16.6,20,16.4,19.4,16,19.1z"></path></g></svg>