<svg id="nc_icon" version="1.1" xmlns="http://www.w3.org/2000/svg" xmlns:xlink="http://www.w3.org/1999/xlink" x="0px" y="0px" viewBox="0 0 24 24" xml:space="preserve" ><g class="nc-icon-wrapper" fill="currentColor"><path fill="currentColor" d="M19.892,7.08C19.184,2.989,15.712,0,11.5,0C7.277,0,3.634,3.239,3.067,7.353C1.253,8.099,0,9.946,0,12 c0,2.757,2.243,5,5,5h0.181c0.116-0.33,0.284-0.644,0.515-0.921l4.999-5.999C11.27,9.393,12.109,9,13.001,9 c0.54,0,1.071,0.146,1.535,0.423c1.275,0.76,1.8,2.312,1.25,3.69L15.431,14H16c1.159,0,2.225,0.678,2.717,1.727 c0.19,0.405,0.28,0.84,0.279,1.273H19c2.757,0,5-2.243,5-5C24,9.547,22.225,7.501,19.892,7.08z"></path> <path data-color="color-2" fill="currentColor" d="M16.906,16.576C16.741,16.225,16.388,16,16,16h-3.523l1.452-3.628 c0.183-0.457,0.006-0.979-0.417-1.23c-0.422-0.251-0.964-0.159-1.28,0.219l-5,6c-0.249,0.298-0.302,0.713-0.138,1.064 C7.259,18.775,7.612,19,8,19h3.523l-1.452,3.628c-0.183,0.457-0.006,0.979,0.417,1.23C10.647,23.954,10.824,24,11,24 c0.289,0,0.573-0.125,0.769-0.36l5-6C17.017,17.342,17.07,16.927,16.906,16.576z"></path></g></svg>