<svg id="nc_icon" version="1.1" xmlns="http://www.w3.org/2000/svg" xmlns:xlink="http://www.w3.org/1999/xlink" x="0px" y="0px" viewBox="0 0 24 24" xml:space="preserve" ><g class="nc-icon-wrapper" fill="currentColor"><path fill="currentColor" d="M1,14h22c0.6,0,1-0.4,1-1c0-2.5-1.8-4.5-4.1-4.9C19.2,4,15.7,1,11.5,1C7.3,1,3.6,4.2,3.1,8.4 C1.3,9.1,0,10.9,0,13C0,13.6,0.4,14,1,14z"></path> <path data-color="color-2" fill="currentColor" d="M23,16H1c-0.6,0-1,0.4-1,1s0.4,1,1,1h22c0.6,0,1-0.4,1-1S23.6,16,23,16z"></path> <path data-color="color-2" fill="currentColor" d="M20,20H4c-0.6,0-1,0.4-1,1s0.4,1,1,1h16c0.6,0,1-0.4,1-1S20.6,20,20,20z"></path></g></svg>