<svg id="nc_icon" version="1.1" xmlns="http://www.w3.org/2000/svg" xmlns:xlink="http://www.w3.org/1999/xlink" x="0px" y="0px" viewBox="0 0 24 24" xml:space="preserve" ><g class="nc-icon-wrapper" fill="currentColor"><path fill="currentColor" d="M19.892,7.08C19.184,2.989,15.712,0,11.5,0C7.277,0,3.634,3.239,3.067,7.353C1.253,8.099,0,9.946,0,12 c0,2.757,2.243,5,5,5h2v-3c0-0.552,0.447-1,1-1s1,0.448,1,1v3h6v-3c0-0.552,0.447-1,1-1s1,0.448,1,1v3h2c2.757,0,5-2.243,5-5 C24,9.547,22.225,7.501,19.892,7.08z"></path> <circle data-color="color-2" fill="currentColor" cx="12" cy="22" r="1"></circle> <circle data-color="color-2" fill="currentColor" cx="8" cy="20" r="1"></circle> <circle data-color="color-2" fill="currentColor" cx="16" cy="20" r="1"></circle></g></svg>