<svg id="nc_icon" version="1.1" xmlns="http://www.w3.org/2000/svg" xmlns:xlink="http://www.w3.org/1999/xlink" x="0px" y="0px" viewBox="0 0 24 24" xml:space="preserve" ><g class="nc-icon-wrapper" fill="currentColor"><path fill="currentColor" d="M21.7,12.2C23.1,10.9,24,9,24,7c0-0.6-0.4-1-1-1c-2.8,0-5-2.2-5-5c0-0.6-0.4-1-1-1c-2.7,0-5.2,1.6-6.3,4 c-0.2,0.3-0.3,0.7-0.4,1.1C9.9,5,9.4,5,9,5c-5,0-9,4-9,9s4,9,9,9h9c3.4,0,6-2.6,6-6C24,15,23.1,13.3,21.7,12.2z M12.5,4.8 c0.7-1.4,2-2.5,3.6-2.8c0.5,3,2.8,5.4,5.8,5.8c-0.3,1.4-1.1,2.6-2.3,3.3C19.1,11.1,18.6,11,18,11c-0.2,0-0.3,0-0.5,0 c-0.9-2.6-2.8-4.5-5.3-5.4C12.3,5.3,12.4,5.1,12.5,4.8z"></path></g></svg>