<svg id="nc_icon" version="1.1" xmlns="http://www.w3.org/2000/svg" xmlns:xlink="http://www.w3.org/1999/xlink" x="0px" y="0px" viewBox="0 0 24 24" xml:space="preserve" ><g class="nc-icon-wrapper" fill="currentColor"><path data-color="color-2" fill="currentColor" d="M11.52,8.807L9.625,8.168C11.27,3.283,15.841,0,21,0v2C16.701,2,12.891,4.735,11.52,8.807z"></path> <path data-color="color-2" fill="currentColor" d="M15.018,11.531l-1.994-0.153C13.343,7.241,16.846,4,21,4v2 C17.885,6,15.257,8.43,15.018,11.531z"></path> <path data-color="color-2" fill="currentColor" d="M19,12h-2c0-2.206,1.794-4,4-4v2C19.897,10,19,10.897,19,12z"></path> <path fill="currentColor" d="M18,11c-0.949,0-1.885,0.235-2.729,0.675C13.988,8.867,11.165,7,8,7c-4.411,0-8,3.589-8,8s3.589,8,8,8h10 c3.309,0,6-2.691,6-6S21.309,11,18,11z"></path></g></svg>