<svg id="nc_icon" version="1.1" xmlns="http://www.w3.org/2000/svg" xmlns:xlink="http://www.w3.org/1999/xlink" x="0px" y="0px" viewBox="0 0 24 24" xml:space="preserve" ><g class="nc-icon-wrapper" fill="currentColor"><path data-color="color-2" fill="currentColor" d="M9,20c0-1.3,1.4-3.1,2.2-4.1c0.4-0.5,1.1-0.5,1.5,0c0.9,1,2.2,2.9,2.2,4.1c0,1.9-1.5,3-3,3S9,21.9,9,20z"></path> <path fill="currentColor" d="M19.9,7.1C19.2,3,15.7,0,11.5,0C7.3,0,3.6,3.2,3.1,7.4C1.3,8.1,0,9.9,0,12c0,2.8,2.2,5,5,5h3 c0.4-0.7,1-1.5,1.8-2.4c0.6-0.7,1.4-1.1,2.3-1.1s1.7,0.4,2.3,1.1c0.8,0.9,1.4,1.8,1.8,2.4h3c2.8,0,5-2.2,5-5 C24,9.5,22.2,7.5,19.9,7.1z"></path></g></svg>