<svg id="nc_icon" version="1.1" xmlns="http://www.w3.org/2000/svg" xmlns:xlink="http://www.w3.org/1999/xlink" x="0px" y="0px" viewBox="0 0 24 24" xml:space="preserve" ><g class="nc-icon-wrapper" fill="currentColor"><path fill="currentColor" d="M23,9c0-1.65625-1.6875-2.78125-3.53662-2.35699L16.3847,7.6153l0.97229-3.07867 C17.78125,2.6875,16.65625,1,15,1c-1.78125,0-3,1-3,1s-1.21875-1-3-1C7.34375,1,6.21875,2.6875,6.64301,4.53662L7.6153,7.6153 L4.53662,6.64301C2.6875,6.21875,1,7.34375,1,9c0,1.78125,1,3,1,3s-1,1.21875-1,3c0,1.65625,1.6875,2.78125,3.53662,2.35699 L7.6153,16.3847l-0.97229,3.07867C6.21875,21.3125,7.34375,23,9,23c1.78125,0,3-1,3-1s1.21875,1,3,1 c1.65625,0,2.78125-1.6875,2.35699-3.53662L16.3847,16.3847l3.07867,0.97229C21.3125,17.78125,23,16.65625,23,15c0-1.78125-1-3-1-3 S23,10.78125,23,9z"></path></g></svg>