<svg id="nc_icon" version="1.1" xmlns="http://www.w3.org/2000/svg" xmlns:xlink="http://www.w3.org/1999/xlink" x="0px" y="0px" viewBox="0 0 24 24" xml:space="preserve" ><g class="nc-icon-wrapper" fill="currentColor"><path fill="currentColor" d="M23,3h-4.1l-1-2.4C17.8,0.2,17.4,0,17,0H7C6.6,0,6.2,0.2,6.1,0.6L5.1,3H1C0.4,3,0,3.4,0,4v19 c0,0.6,0.4,1,1,1h22c0.6,0,1-0.4,1-1V4C24,3.4,23.6,3,23,3z M10.1,11.9L4,9l3-6l3.7,7.7L10.1,11.9z M13,20c0,0.6-0.4,1-1,1 s-1-0.4-1-1v-1c0-0.6,0.4-1,1-1s1,0.4,1,1V20z M9,17l8-14l2,6L9,17z"></path></g></svg>