<svg id="nc_icon" version="1.1" xmlns="http://www.w3.org/2000/svg" xmlns:xlink="http://www.w3.org/1999/xlink" x="0px" y="0px" viewBox="0 0 24 24" xml:space="preserve" ><g class="nc-icon-wrapper" fill="currentColor"><path fill="currentColor" d="M22.625,0.5839844C21.7636719,0.0283203,20.6933594-0.0498047,19.7587891,0.375l-5.1889648,2.3585205 C13.8162231,2.277771,12.9430542,2,12,2c-0.9429932,0-1.8161621,0.277771-2.5697632,0.7334595L4.2412109,0.3745117 C3.3066406-0.0498047,2.2363281,0.0283203,1.375,0.5839844C0.5146484,1.1386719,0,2.081543,0,3.105957v7.7880859 c0,1.0244141,0.5146484,1.9672852,1.375,2.5219727c0.4941406,0.3183594,1.0566406,0.4794922,1.6230469,0.4794922 c0.4208984,0,0.8447266-0.0893555,1.2431641-0.2705078l5.1889648-2.3585205C10.1837769,11.722229,11.0569458,12,12,12 c0.9429932,0,1.8161621-0.277771,2.5697632-0.7334595l5.1890259,2.3589478 c0.3984375,0.1806641,0.8222656,0.2700195,1.2431641,0.2700195c0.5664062,0,1.1289062-0.1611328,1.6230469-0.4794922 C23.4853516,12.8613281,24,11.918457,24,10.894043V3.105957C24,2.081543,23.4853516,1.1386719,22.625,0.5839844z"></path> <path data-color="color-2" fill="currentColor" d="M14.6074219,13.4804688C13.7734375,13.8222656,12.8886719,14,12,14 c-0.8876953,0-1.7734375-0.1777344-2.6074219-0.5195312L7,14.5678711v9.050293l5-2.5l5,2.5v-9.0499878L14.6074219,13.4804688z"></path></g></svg>