<svg id="nc_icon" xmlns="http://www.w3.org/2000/svg" xmlns:xlink="http://www.w3.org/1999/xlink" x="0px" y="0px" viewBox="0 0 24 24" ><g class="nc-icon-wrapper" fill="currentColor"><path data-color="color-2" fill="currentColor" d="M19,1c-2.419,0-4.436,1.718-4.899,4H17c1.654,0,3,1.346,3,3v2.899 c2.282-0.463,4-2.48,4-4.899C24,3.239,21.761,1,19,1z"></path> <path fill="currentColor" d="M17,7H3C2.448,7,2,7.448,2,8v12c0,2.206,1.794,4,4,4h8c2.206,0,4-1.794,4-4V8C18,7.448,17.552,7,17,7z M16,9 v6h-5.865L8.802,9H16z M6.753,9l1.333,6H4V9H6.753z"></path> <path fill="currentColor" d="M5.198,2l0.667,3h2.049L6.976,0.783C6.875,0.326,6.469,0,6,0H2C1.448,0,1,0.448,1,1s0.448,1,1,1H5.198z"></path></g></svg>