<svg id="nc_icon" version="1.1" xmlns="http://www.w3.org/2000/svg" xmlns:xlink="http://www.w3.org/1999/xlink" x="0px" y="0px" viewBox="0 0 24 24" xml:space="preserve" ><g class="nc-icon-wrapper" fill="currentColor"><path data-color="color-2" fill="currentColor" d="M5,1H1C0.448,1,0,1.448,0,2v20c0,0.552,0.448,1,1,1h4V1z"></path> <path fill="currentColor" d="M7,1v22h16c0.552,0,1-0.448,1-1V2c0-0.552-0.448-1-1-1H7z M11,5h3v2h-3V5z M14,19h-3v-2h3V19z M17,15h-4v-2 h4V15z M20,11h-6V9h6V11z"></path></g></svg>