<svg id="nc_icon" xmlns="http://www.w3.org/2000/svg" xmlns:xlink="http://www.w3.org/1999/xlink" x="0px" y="0px" viewBox="0 0 24 24" ><g class="nc-icon-wrapper" fill="currentColor"><path d="M12,0C7.038,0,3,5.383,3,12s4.038,12,9,12,9-5.383,9-12S16.962,0,12,0Zm.807,21.592A1,1,0,0,1,12,22a.991.991,0,0,1-.59-.193,1,1,0,0,1-.216-1.4c2.6-3.55,1.434-5.464-.047-7.887C9.654,10.079,7.8,7.04,11.193,2.408a1,1,0,0,1,1.614,1.184c-2.6,3.55-1.434,5.464.047,7.887C14.346,13.921,16.2,16.96,12.807,21.592Z" fill="currentColor"></path></g></svg>