<svg id="nc_icon" version="1.1" xmlns="http://www.w3.org/2000/svg" xmlns:xlink="http://www.w3.org/1999/xlink" x="0px" y="0px" viewBox="0 0 24 24" xml:space="preserve" ><g class="nc-icon-wrapper" fill="currentColor"><path fill="currentColor" d="M20.9365234,8.6489258l-3-8C17.7900391,0.2587891,17.4169922,0,17,0H7 C6.5830078,0,6.2099609,0.2587891,6.0634766,0.6489258l-3,8C2.9960938,8.828125,2.9824219,9.0224609,3.0224609,9.2094727l3,14 C6.1210938,23.6704102,6.5283203,24,7,24h10c0.4716797,0,0.8789062-0.3295898,0.9775391-0.7905273l3-14 C21.0175781,9.0224609,21.0039062,8.828125,20.9365234,8.6489258z M15,10h-2v4h-2v-4H9V8h2V6h2v2h2V10z"></path></g></svg>