<svg id="nc_icon" xmlns="http://www.w3.org/2000/svg" xmlns:xlink="http://www.w3.org/1999/xlink" x="0px" y="0px" viewBox="0 0 24 24" ><g class="nc-icon-wrapper" fill="currentColor"><path fill="currentColor" d="M23,7H1C0.447,7,0,7.447,0,8v3c0,5.514,4.486,10,10,10c4.091,0,7.612-2.473,9.159-6H21c1.654,0,3-1.346,3-3 V8C24,7.447,23.553,7,23,7z M22,12c0,0.552-0.448,1-1,1h-1.202C19.93,12.354,20,11.685,20,11V9h2V12z"></path> <path fill="currentColor" d="M19,22H1c-0.553,0-1,0.447-1,1s0.447,1,1,1h18c0.553,0,1-0.447,1-1S19.553,22,19,22z"></path> <rect data-color="color-2" x="4" y="1" fill="currentColor" width="2" height="4"></rect> <rect data-color="color-2" x="9" fill="currentColor" width="2" height="4"></rect> <rect data-color="color-2" x="14" y="1" fill="currentColor" width="2" height="4"></rect></g></svg>