<svg id="nc_icon" version="1.1" xmlns="http://www.w3.org/2000/svg" xmlns:xlink="http://www.w3.org/1999/xlink" x="0px" y="0px" viewBox="0 0 24 24" xml:space="preserve" ><g class="nc-icon-wrapper" fill="currentColor"><path fill="currentColor" d="M23,4h-5v7h5c0.55273,0,1-0.44775,1-1V5C24,4.44775,23.55273,4,23,4z"></path> <path fill="currentColor" d="M1,11h15V4H1C0.44727,4,0,4.44775,0,5v5C0,10.55225,0.44727,11,1,11z"></path> <path data-color="color-2" fill="currentColor" d="M14.79504,14.8537C15.53674,14.1272,16,13.1178,16,12V4c0-2.20557-1.79395-4-4-4S8,1.79443,8,4h2 c0-1.10303,0.89746-2,2-2s2,0.89697,2,2v8c0,1.10303-0.89746,2-2,2s-2-0.89697-2-2v-1H8v1c0,1.1178,0.46326,2.1272,1.20496,2.8537 C7.87469,15.7522,7,17.27393,7,19c0,2.76141,2.23859,5,5,5s5-2.23859,5-5C17,17.27393,16.12531,15.7522,14.79504,14.8537z"></path></g></svg>