<svg id="nc_icon" version="1.1" xmlns="http://www.w3.org/2000/svg" xmlns:xlink="http://www.w3.org/1999/xlink" x="0px" y="0px" viewBox="0 0 24 24" xml:space="preserve" ><g class="nc-icon-wrapper" fill="currentColor"><path fill="currentColor" d="M19,15h-2V9h2c2.2,0,4-1.8,4-4s-1.8-4-4-4s-4,1.8-4,4v2H9V5c0-2.2-1.8-4-4-4S1,2.8,1,5s1.8,4,4,4h2v6H5 c-2.2,0-4,1.8-4,4s1.8,4,4,4s4-1.8,4-4v-2h6v2c0,2.2,1.8,4,4,4s4-1.8,4-4S21.2,15,19,15z M17,5c0-1.1,0.9-2,2-2s2,0.9,2,2 s-0.9,2-2,2h-2V5z M3,5c0-1.1,0.9-2,2-2s2,0.9,2,2v2H5C3.9,7,3,6.1,3,5z M7,19c0,1.1-0.9,2-2,2s-2-0.9-2-2s0.9-2,2-2h2V19z M9,9h6v6 H9V9z M19,21c-1.1,0-2-0.9-2-2v-2h2c1.1,0,2,0.9,2,2S20.1,21,19,21z"></path></g></svg>