<svg id="nc_icon" version="1.1" xmlns="http://www.w3.org/2000/svg" xmlns:xlink="http://www.w3.org/1999/xlink" x="0px" y="0px" viewBox="0 0 24 24" xml:space="preserve" ><g class="nc-icon-wrapper" fill="currentColor"><path fill="currentColor" d="M12,0C5.383,0,0,5.383,0,12s5.383,12,12,12s12-5.383,12-12S18.617,0,12,0z M13,21.949V20h-2v1.949 C6.283,21.479,2.521,17.717,2.051,13H4v-2H2.051C2.521,6.283,6.283,2.521,11,2.051V4h2V2.051c4.717,0.471,8.479,4.232,8.949,8.949 H20v2h1.949C21.479,17.717,17.717,21.479,13,21.949z"></path> <path data-color="color-2" fill="currentColor" d="M9.238,9.238l-4.142,9.666l9.666-4.142l4.142-9.666L9.238,9.238z M8.904,15.096l1.858-4.334 l2.477,2.477L8.904,15.096z"></path></g></svg>