<svg id="nc_icon" version="1.1" xmlns="http://www.w3.org/2000/svg" xmlns:xlink="http://www.w3.org/1999/xlink" x="0px" y="0px" viewBox="0 0 24 24" xml:space="preserve" ><g class="nc-icon-wrapper" fill="currentColor"><path data-color="color-2" fill="currentColor" d="M17,21h-2v-2H9v2H7c-0.552,0-1,0.447-1,1s0.448,1,1,1h10c0.552,0,1-0.447,1-1S17.552,21,17,21z"></path> <path fill="currentColor" d="M23,1H1C0.448,1,0,1.447,0,2v14c0,0.553,0.448,1,1,1h22c0.552,0,1-0.447,1-1V2C24,1.447,23.552,1,23,1z M13,9v5h-2V9H8l4-5l4,5H13z"></path></g></svg>