<svg id="nc_icon" version="1.1" xmlns="http://www.w3.org/2000/svg" xmlns:xlink="http://www.w3.org/1999/xlink" x="0px" y="0px" viewBox="0 0 24 24" xml:space="preserve" ><g class="nc-icon-wrapper" fill="currentColor"><path data-color="color-2" fill="currentColor" d="M21,14H3c-0.553,0-1-0.448-1-1V1c0-0.552,0.447-1,1-1h18c0.553,0,1,0.448,1,1v12 C22,13.552,21.553,14,21,14z M4,12h16V2H4V12z"></path> <path fill="currentColor" d="M20,16H4c-2.206,0-4,1.794-4,4v3c0,0.552,0.447,1,1,1h22c0.553,0,1-0.448,1-1v-3C24,17.794,22.206,16,20,16z M7,21H4v-2h3V21z M20,21h-7v-2h7V21z"></path></g></svg>