<svg id="nc_icon" version="1.1" xmlns="http://www.w3.org/2000/svg" xmlns:xlink="http://www.w3.org/1999/xlink" x="0px" y="0px" viewBox="0 0 24 24" xml:space="preserve" ><g class="nc-icon-wrapper" fill="currentColor"><path fill="currentColor" d="M20,14c-0.457,0-0.888,0.093-1.297,0.234l-3.714-5.602C15.61,7.927,16,7.012,16,6c0-2.206-1.794-4-4-4 S8,3.794,8,6c0,1.012,0.39,1.927,1.012,2.632l-3.714,5.602C4.888,14.093,4.457,14,4,14c-2.206,0-4,1.794-4,4s1.794,4,4,4 c1.859,0,3.411-1.279,3.858-3h8.284c0.447,1.721,1.999,3,3.858,3c2.206,0,4-1.794,4-4S22.206,14,20,14z M6.964,15.339l3.702-5.584 C11.086,9.904,11.53,10,12,10s0.914-0.096,1.333-0.246l3.702,5.584c-0.421,0.469-0.731,1.033-0.894,1.661H7.858 C7.695,16.372,7.385,15.807,6.964,15.339z"></path></g></svg>