<svg id="nc_icon" version="1.1" xmlns="http://www.w3.org/2000/svg" xmlns:xlink="http://www.w3.org/1999/xlink" x="0px" y="0px" viewBox="0 0 24 24" xml:space="preserve" ><g class="nc-icon-wrapper" fill="currentColor"><path fill="currentColor" d="M9,12c2.757,0,5-2.243,5-5V5c0-2.757-2.243-5-5-5S4,2.243,4,5v2C4,9.757,6.243,12,9,12z"></path> <path fill="currentColor" d="M15.423,15.145C14.042,14.622,11.806,14,9,14s-5.042,0.622-6.424,1.146C1.035,15.729,0,17.233,0,18.886V24 h18v-5.114C18,17.233,16.965,15.729,15.423,15.145z"></path> <rect data-color="color-2" x="16" y="3" fill="currentColor" width="8" height="2"></rect> <rect data-color="color-2" x="16" y="8" fill="currentColor" width="8" height="2"></rect> <rect data-color="color-2" x="19" y="13" fill="currentColor" width="5" height="2"></rect></g></svg>