<svg id="nc_icon" version="1.1" xmlns="http://www.w3.org/2000/svg" xmlns:xlink="http://www.w3.org/1999/xlink" x="0px" y="0px" viewBox="0 0 24 24" xml:space="preserve" ><g class="nc-icon-wrapper" fill="currentColor"><path data-color="color-2" fill="currentColor" d="M13,3c0-0.552-0.448-1-1-1s-1,0.448-1,1v4h2V3z"></path> <path fill="currentColor" d="M23.467,20.236l-1.966-9.827C21.107,8.434,19.358,7,17.343,7c-1.133,0-2.198,0.441-2.999,1.242L13.586,9 h-3.172L9.656,8.242C8.855,7.44,7.79,7,6.657,7c-2.015,0-3.764,1.434-4.159,3.409l-1.966,9.828c-0.164,0.82,0.188,1.639,0.895,2.084 c0.714,0.449,1.603,0.405,2.266-0.093l2.35-1.762C6.625,20.796,7.286,21,8,21c1.627,0,3.024-0.98,3.649-2.377l0.703,0 C12.976,20.02,14.373,21,16,21c0.715,0,1.378-0.204,1.96-0.534l2.346,1.763c0.669,0.502,1.558,0.538,2.266,0.093 C23.28,21.875,23.631,21.057,23.467,20.236z M8,19c-1.105,0-2-0.895-2-2c0-1.105,0.895-2,2-2s2,0.895,2,2C10,18.105,9.105,19,8,19z M16,19c-1.105,0-2-0.895-2-2c0-1.105,0.895-2,2-2s2,0.895,2,2C18,18.105,17.105,19,16,19z"></path></g></svg>