<svg id="nc_icon" version="1.1" xmlns="http://www.w3.org/2000/svg" xmlns:xlink="http://www.w3.org/1999/xlink" x="0px" y="0px" viewBox="0 0 24 24" xml:space="preserve" ><g class="nc-icon-wrapper" fill="currentColor"><path fill="currentColor" d="M15,12c2.757,0,5-2.243,5-5V5c0-2.757-2.243-5-5-5s-5,2.243-5,5v2C10,9.757,12.243,12,15,12z"></path> <path fill="currentColor" d="M21.423,15.145C20.042,14.622,17.806,14,15,14s-5.042,0.622-6.424,1.146C7.035,15.729,6,17.233,6,18.886V24 h18v-5.114C24,17.233,22.965,15.729,21.423,15.145z"></path> <rect data-color="color-2" y="3" fill="currentColor" width="8" height="2"></rect> <rect data-color="color-2" y="8" fill="currentColor" width="8" height="2"></rect> <rect data-color="color-2" y="13" fill="currentColor" width="5" height="2"></rect></g></svg>