<svg id="nc_icon" version="1.1" xmlns="http://www.w3.org/2000/svg" xmlns:xlink="http://www.w3.org/1999/xlink" x="0px" y="0px" viewBox="0 0 24 24" xml:space="preserve" ><g class="nc-icon-wrapper" fill="currentColor"><path fill="currentColor" d="M10,4C4.5,4,0,8.5,0,14s4.5,10,10,10s10-4.5,10-10S15.5,4,10,4z M8.7,16.7l-1,1C7.5,17.9,7.3,18,7,18 s-0.5-0.1-0.7-0.3c-0.4-0.4-0.4-1,0-1.4l1-1c0.4-0.4,1-0.4,1.4,0S9.1,16.3,8.7,16.7z M9.7,11.7C9.5,11.9,9.3,12,9,12 s-0.5-0.1-0.7-0.3l-1-1c-0.4-0.4-0.4-1,0-1.4s1-0.4,1.4,0l1,1C10.1,10.7,10.1,11.3,9.7,11.7z M14.7,14.7l-1,1 C13.5,15.9,13.3,16,13,16s-0.5-0.1-0.7-0.3c-0.4-0.4-0.4-1,0-1.4l1-1c0.4-0.4,1-0.4,1.4,0S15.1,14.3,14.7,14.7z"></path> <path data-color="color-2" fill="currentColor" d="M21.8,12.1C23.2,10.8,24,9,24,7c0-3.9-3.1-7-7-7c-2,0-3.8,0.8-5.1,2.2C17,3,21,7,21.8,12.1z"></path></g></svg>