<svg id="nc_icon" version="1.1" xmlns="http://www.w3.org/2000/svg" xmlns:xlink="http://www.w3.org/1999/xlink" x="0px" y="0px" viewBox="0 0 24 24" xml:space="preserve" ><g class="nc-icon-wrapper" fill="currentColor"><path fill="currentColor" d="M12,0h-1v5h2V2.05c5.046,0.503,9,4.774,9,9.95c0,5.514-4.486,10-10,10S2,17.514,2,12v-1H0v1 c0,6.617,5.383,12,12,12s12-5.383,12-12S18.617,0,12,0z"></path> <path data-color="color-2" fill="currentColor" d="M9.878,14.121C10.445,14.688,11.199,15,12,15s1.555-0.312,2.121-0.878 C14.688,13.555,15,12.801,15,12s-0.312-1.555-0.879-2.122C13.313,9.071,7.814,5.77,6.148,4.777L2.757,2.757l2.021,3.391 C5.77,7.814,9.072,13.315,9.878,14.121z"></path></g></svg>