<svg id="nc_icon" version="1.1" xmlns="http://www.w3.org/2000/svg" xmlns:xlink="http://www.w3.org/1999/xlink" x="0px" y="0px" viewBox="0 0 24 24" xml:space="preserve" ><g class="nc-icon-wrapper" fill="currentColor"><path fill="currentColor" d="M23,10c0.552,0,1-0.448,1-1V4c0-0.552-0.448-1-1-1H1C0.448,3,0,3.448,0,4v5c0,0.552,0.448,1,1,1 c1.14,0,2,0.86,2,2s-0.86,2-2,2c-0.552,0-1,0.448-1,1v5c0,0.552,0.448,1,1,1h22c0.552,0,1-0.448,1-1v-5c0-0.552-0.448-1-1-1 c-1.14,0-2-0.86-2-2S21.86,10,23,10z M8.5,7C9.328,7,10,7.672,10,8.5S9.328,10,8.5,10S7,9.328,7,8.5S7.672,7,8.5,7z M15.5,17 c-0.828,0-1.5-0.672-1.5-1.5s0.672-1.5,1.5-1.5s1.5,0.672,1.5,1.5S16.328,17,15.5,17z M8,17.414L6.586,16L16,6.586L17.414,8 L8,17.414z"></path></g></svg>