<svg id="nc_icon" version="1.1" xmlns="http://www.w3.org/2000/svg" xmlns:xlink="http://www.w3.org/1999/xlink" x="0px" y="0px" viewBox="0 0 24 24" xml:space="preserve" ><g class="nc-icon-wrapper" fill="currentColor"><path data-color="color-2" fill="currentColor" d="M14,10c0-3.86-3.141-7-7-7s-7,3.14-7,7c0,3.519,2.614,6.432,6,6.92V19H4v2h2v2h2v-2h2v-2H8 v-2.08C11.386,16.432,14,13.519,14,10z M2,10c0-2.757,2.243-5,5-5s5,2.243,5,5s-2.243,5-5,5S2,12.757,2,10z"></path> <path fill="currentColor" d="M23.707,1.707l-1.414-1.414L20.5,2.086l-1.5-1.5L17.586,2l1.5,1.5l-0.902,0.902C17.015,3.526,15.57,3,14,3 c-3.859,0-7,3.14-7,7c0,3.859,3.141,7,7,7s7-3.141,7-7c0-1.57-0.526-3.016-1.402-4.185L20.5,4.914l1.5,1.5L23.414,5l-1.5-1.5 L23.707,1.707z M14,15c-2.757,0-5-2.243-5-5s2.243-5,5-5s5,2.243,5,5S16.757,15,14,15z"></path></g></svg>