<svg id="nc_icon" version="1.1" xmlns="http://www.w3.org/2000/svg" xmlns:xlink="http://www.w3.org/1999/xlink" x="0px" y="0px" viewBox="0 0 24 24" xml:space="preserve" ><g class="nc-icon-wrapper" fill="currentColor"><circle data-color="color-2" fill="currentColor" cx="9" cy="18" r="2"></circle> <circle data-color="color-2" fill="currentColor" cx="15" cy="18" r="2"></circle> <path fill="currentColor" d="M18,3V1c0-0.55273-0.44727-1-1-1s-1,0.44727-1,1v2H8V1c0-0.55273-0.44727-1-1-1S6,0.44727,6,1v2H0v1 c0,2.20605,1.79395,4,4,4h0.57361l-0.49677,4.71686C3.42407,13.26758,3,14.08105,3,15v3c0,3.30859,2.69141,6,6,6h6 c3.30859,0,6-2.69141,6-6v-3c0-0.91895-0.42407-1.73242-1.07684-2.28314L19.42639,8H20c2.20605,0,4-1.79395,4-4V3H18z M15.5,8 C16.32843,8,17,8.67157,17,9.5S16.32843,11,15.5,11S14,10.32843,14,9.5S14.67157,8,15.5,8z M8.5,8C9.32843,8,10,8.67157,10,9.5 S9.32843,11,8.5,11S7,10.32843,7,9.5S7.67157,8,8.5,8z M19,18c0,2.20605-1.79395,4-4,4H9c-2.20605,0-4-1.79395-4-4v-3 c0-0.55176,0.44824-1,1-1h12c0.55176,0,1,0.44824,1,1V18z"></path></g></svg>