<svg id="nc_icon" version="1.1" xmlns="http://www.w3.org/2000/svg" xmlns:xlink="http://www.w3.org/1999/xlink" x="0px" y="0px" viewBox="0 0 24 24" xml:space="preserve" ><g class="nc-icon-wrapper" fill="currentColor"><path fill="currentColor" d="M22,1c-0.6,0-1,0.4-1,1v2H3V2c0-0.6-0.4-1-1-1S1,1.4,1,2v18c0,0.6,0.4,1,1,1h1v1c0,0.6,0.4,1,1,1s1-0.4,1-1 v-1h14v1c0,0.6,0.4,1,1,1s1-0.4,1-1v-1h1c0.6,0,1-0.4,1-1V2C23,1.4,22.6,1,22,1z M21,16h-3V6h3V16z M8,6h3v10H8V6z M13,16V6h3v10H13 z M6,6v10H3V6H6z"></path></g></svg>