<svg id="nc_icon" version="1.1" xmlns="http://www.w3.org/2000/svg" xmlns:xlink="http://www.w3.org/1999/xlink" x="0px" y="0px" viewBox="0 0 24 24" xml:space="preserve" ><g class="nc-icon-wrapper" fill="currentColor"><path fill="currentColor" d="M24,3c0-1.654-1.346-3-3-3H3C1.346,0,0,1.346,0,3v12c0,1.654,1.346,3,3,3h7v-2H3c-0.552,0-1-0.449-1-1V8h20 v5h2 M2,4V3c0-0.551,0.448-1,1-1h18c0.552,0,1,0.449,1,1v1H2z"></path> <path data-color="color-2" fill="currentColor" d="M21,15h-1v-1c0-1.654-1.346-3-3-3s-3,1.346-3,3v1h-1c-0.553,0-1,0.448-1,1v7 c0,0.552,0.447,1,1,1h8c0.553,0,1-0.448,1-1v-7C22,15.448,21.553,15,21,15z M18,21h-2v-3h2V21z M18,15h-2v-1c0-0.551,0.448-1,1-1 s1,0.449,1,1V15z"></path> <rect x="4" y="12" fill="currentColor" width="5" height="2"></rect></g></svg>