<svg id="nc_icon" xmlns="http://www.w3.org/2000/svg" xmlns:xlink="http://www.w3.org/1999/xlink" x="0px" y="0px" viewBox="0 0 24 24" ><g class="nc-icon-wrapper" fill="currentColor"><path d="M12,6A18.069,18.069,0,0,0,2,9l8.276,14.014a2,2,0,0,0,3.448,0L22,9A18.069,18.069,0,0,0,12,6ZM9,12a1,1,0,1,1,1-1A1,1,0,0,1,9,12Zm3,5a1,1,0,1,1,1-1A1,1,0,0,1,12,17Zm3-5a1,1,0,1,1,1-1A1,1,0,0,1,15,12Z" fill="currentColor"></path> <path d="M12,4a20.564,20.564,0,0,1,7.963,1.636A4.99,4.99,0,0,0,15,1a4.938,4.938,0,0,0-2.348.6A4.93,4.93,0,0,0,9,0,5.006,5.006,0,0,0,4,5a4.468,4.468,0,0,0,.057.627A20.578,20.578,0,0,1,12,4Z" fill="currentColor" data-color="color-2"></path></g></svg>