<svg id="nc_icon" version="1.1" xmlns="http://www.w3.org/2000/svg" xmlns:xlink="http://www.w3.org/1999/xlink" x="0px" y="0px" viewBox="0 0 24 24" xml:space="preserve" ><g class="nc-icon-wrapper" fill="currentColor"><circle data-color="color-2" fill="currentColor" cx="18" cy="13" r="3"></circle> <path fill="currentColor" d="M13,13c0-2.7568359,2.2431641-5,5-5c1.0357666,0,1.9987183,0.3170776,2.7977905,0.8586426 c1.1343384-1.1341553,2.116394-2.1160278,2.116394-2.1160278c0.7810669-0.7810669,0.7810669-2.0473633,0-2.8284302 l-2.8283691-2.8284302c-0.7810669-0.7810059-2.0474243-0.7810059-2.8284302,0c0,0-10.7071533,10.7071533-12.1213379,12.1213379 c-1.4142456,1.4141846-0.0441895,2.8726196-1.4142456,4.2426147c-1.3699951,1.3700562-3.428894,3.4289551-3.428894,3.4289551 c-0.390564,0.3905029-0.390564,1.0236816,0,1.4142456l1.4141846,1.4141846c0.390564,0.3905029,1.0236816,0.3905029,1.4142456,0 c0,0,2.0588989-2.0588989,3.428894-3.4289551c1.3700562-1.3699951,2.8726196-0.0441895,4.2426758-1.4141846 c0.4129028-0.4129028,1.6026001-1.6046143,3.0645752-3.0675659C13.3165283,14.9976196,13,14.0351562,13,13z"></path></g></svg>