<svg id="nc_icon" xmlns="http://www.w3.org/2000/svg" xmlns:xlink="http://www.w3.org/1999/xlink" x="0px" y="0px" viewBox="0 0 24 24" ><g class="nc-icon-wrapper" fill="currentColor"><path fill="currentColor" d="M20.367,4.792C17.929,2.965,15.036,2,12,2S6.071,2.965,3.633,4.792c-0.47,0.352-0.764,0.89-0.805,1.474 c-0.042,0.579,0.17,1.146,0.58,1.556l7.885,7.885C11.488,15.902,11.744,16,12,16s0.512-0.098,0.707-0.293l7.885-7.885 c0.41-0.41,0.622-0.977,0.58-1.556C21.131,5.682,20.837,5.144,20.367,4.792z"></path> <path data-color="color-2" fill="currentColor" d="M22.307,8.863c-0.099,0.126-0.186,0.259-0.3,0.373L15.242,16h6.702 c0.565,0,1.107-0.241,1.487-0.661c0.379-0.419,0.565-0.98,0.509-1.541C23.766,12.048,23.2,10.363,22.307,8.863z"></path> <path fill="currentColor" d="M21.944,18h-6.361l2.831,2.835c0.382,0.382,0.887,0.59,1.418,0.59c0.091,0,0.183-0.006,0.275-0.019 c0.621-0.083,1.153-0.441,1.461-0.982c0.447-0.785,0.786-1.625,1.026-2.493C22.38,17.967,22.164,18,21.944,18z"></path> <path fill="currentColor" d="M2.056,18c-0.22,0-0.436-0.033-0.65-0.069c0.24,0.868,0.579,1.708,1.026,2.493 c0.308,0.541,0.84,0.898,1.461,0.982c0.092,0.013,0.184,0.019,0.275,0.019c0.531,0,1.037-0.208,1.418-0.59L8.417,18H2.056z"></path> <path data-color="color-2" fill="currentColor" d="M1.994,9.236c-0.114-0.114-0.202-0.247-0.3-0.373c-0.893,1.5-1.46,3.185-1.634,4.935 c-0.056,0.561,0.13,1.122,0.509,1.541C0.949,15.759,1.491,16,2.056,16h6.702L1.994,9.236z"></path></g></svg>