<svg id="nc_icon" version="1.1" xmlns="http://www.w3.org/2000/svg" xmlns:xlink="http://www.w3.org/1999/xlink" x="0px" y="0px" viewBox="0 0 24 24" xml:space="preserve" ><g class="nc-icon-wrapper" fill="currentColor"><path fill="currentColor" d="M24,11h-2.051C21.479,6.283,17.717,2.521,13,2.051V0h-2v2.051C6.283,2.521,2.521,6.283,2.051,11H0v2h2.051 c0.471,4.717,4.232,8.479,8.949,8.949V24h2v-2.051c4.717-0.471,8.479-4.232,8.949-8.949H24V11z M13,19.931V18h-2v1.931 C7.388,19.477,4.523,16.612,4.069,13H6v-2H4.069C4.523,7.388,7.388,4.523,11,4.069V6h2V4.069c3.612,0.453,6.477,3.319,6.931,6.931 H18v2h1.931C19.477,16.612,16.612,19.477,13,19.931z"></path> <circle data-color="color-2" fill="currentColor" cx="12" cy="12" r="2"></circle></g></svg>