<svg id="nc_icon" version="1.1" xmlns="http://www.w3.org/2000/svg" xmlns:xlink="http://www.w3.org/1999/xlink" x="0px" y="0px" viewBox="0 0 24 24" xml:space="preserve" ><g class="nc-icon-wrapper" fill="currentColor"><polygon data-color="color-2" fill="currentColor" points="24,12 18,7 18,11 12,11 12,13 18,13 18,17 "></polygon> <path fill="currentColor" d="M9,6c-2.967,0-5.431,2.167-5.91,5H8c0.552,0,1,0.448,1,1c0,0.552-0.448,1-1,1H3.09 c0.478,2.833,2.942,5,5.91,5c3.309,0,6-2.691,6-6S12.309,6,9,6z"></path> <path data-color="color-2" fill="currentColor" d="M3.09,11H0v2h3.09C3.035,12.674,3,12.341,3,12S3.035,11.326,3.09,11z"></path></g></svg>