<svg id="nc_icon" xmlns="http://www.w3.org/2000/svg" xmlns:xlink="http://www.w3.org/1999/xlink" x="0px" y="0px" viewBox="0 0 24 24" ><g class="nc-icon-wrapper" fill="currentColor"><path d="M12,0A12,12,0,1,0,24,12,12.013,12.013,0,0,0,12,0ZM5,13a1,1,0,1,1,1-1A1,1,0,0,1,5,13Zm4,5a1,1,0,1,1,1-1A1,1,0,0,1,9,18ZM9,8a1,1,0,1,1,1-1A1,1,0,0,1,9,8Zm3,5a1,1,0,1,1,1-1A1,1,0,0,1,12,13Zm3,6a1,1,0,1,1,1-1A1,1,0,0,1,15,19ZM15,8a1,1,0,1,1,1-1A1,1,0,0,1,15,8Zm3,6a1,1,0,1,1,1-1A1,1,0,0,1,18,14Z" fill="currentColor"></path></g></svg>