<svg id="nc_icon" version="1.1" xmlns="http://www.w3.org/2000/svg" xmlns:xlink="http://www.w3.org/1999/xlink" x="0px" y="0px" viewBox="0 0 24 24" xml:space="preserve" ><g class="nc-icon-wrapper" fill="currentColor"><path fill="currentColor" d="M12,0C5.4,0,0,5.4,0,12s5.4,12,12,12c6.6,0,12-5.4,12-12S18.6,0,12,0z M6,8c0-1.1,0.9-2,2-2s2,0.9,2,2 s-0.9,2-2,2S6,9.1,6,8z M15,18c0-1.7-1.3-3-3-3c-1.7,0-3,1.3-3,3H7c0-2.8,2.2-5,5-5c2.8,0,5,2.2,5,5H15z M17,9.7V12h-2V9.7 c-0.6-0.3-1-1-1-1.7c0-1.1,0.9-2,2-2s2,0.9,2,2C18,8.7,17.6,9.4,17,9.7z"></path></g></svg>