<svg id="nc_icon" xmlns="http://www.w3.org/2000/svg" xmlns:xlink="http://www.w3.org/1999/xlink" x="0px" y="0px" viewBox="0 0 24 24" ><g class="nc-icon-wrapper" fill="currentColor"><path d="M19.2,7.021A2.98,2.98,0,0,0,20,5a5.371,5.371,0,0,0-3-5,3.108,3.108,0,0,1-3,3H6.5A2.5,2.5,0,0,0,4,5.5a2.47,2.47,0,0,0,.549,1.545A2.994,2.994,0,0,0,5,13H19a2.993,2.993,0,0,0,.2-5.979Z" fill="currentColor"></path> <path d="M18,24H6a1,1,0,0,1-.99-.859L3.847,15H20.153L18.99,23.141A1,1,0,0,1,18,24Z" fill="currentColor" data-color="color-2"></path></g></svg>