<svg id="nc_icon" version="1.1" xmlns="http://www.w3.org/2000/svg" xmlns:xlink="http://www.w3.org/1999/xlink" x="0px" y="0px" viewBox="0 0 24 24" xml:space="preserve" ><g class="nc-icon-wrapper" fill="currentColor"><path fill="currentColor" d="M13.354,1.876c1.768,0,3.477,0.374,5.127,1.121l-1.039,2.488c-1.477-0.647-2.771-0.971-3.883-0.971 c-1.869,0-2.803,0.998-2.803,2.994v3.336h5.428v2.352h-5.428v2.488c0,1.806-0.655,2.855-1.996,3.609h10.336v2.83H4.904v-2.666 c0.893-0.273,1.554-0.711,1.982-1.312c0.779-1.094,0.643-2.304,0.643-4.949h-2.57v-2.352h2.57v-3.5c0-1.713,0.517-3.053,1.552-4.02 C10.115,2.359,11.54,1.876,13.354,1.876z"></path></g></svg>