<svg id="nc_icon" version="1.1" xmlns="http://www.w3.org/2000/svg" xmlns:xlink="http://www.w3.org/1999/xlink" x="0px" y="0px" viewBox="0 0 24 24" xml:space="preserve" ><g class="nc-icon-wrapper" fill="currentColor"><path fill="currentColor" d="M17.5,0c-3.067,0-5.638,2.138-6.318,5H8l4,5l4-5h-2.724c0.621-1.742,2.271-3,4.224-3 C19.981,2,22,4.019,22,6.5S19.981,11,17.5,11h-11C2.916,11,0,13.916,0,17.5S2.916,24,6.5,24c3.067,0,5.638-2.138,6.318-5H16l-4-5 l-4,5h2.724c-0.621,1.742-2.271,3-4.224,3C4.019,22,2,19.981,2,17.5S4.019,13,6.5,13h11c3.584,0,6.5-2.916,6.5-6.5S21.084,0,17.5,0z "></path></g></svg>