<svg id="nc_icon" version="1.1" xmlns="http://www.w3.org/2000/svg" xmlns:xlink="http://www.w3.org/1999/xlink" x="0px" y="0px" viewBox="0 0 24 24" xml:space="preserve" ><g class="nc-icon-wrapper" fill="currentColor"><path fill="currentColor" d="M12,0C5.4,0,0,5.4,0,12v7c0,2.8,2.2,5,5,5v-6c0-1.1,0.9-2,2-2s2,0.9,2,2v6h6v-6c0-1.1,0.9-2,2-2s2,0.9,2,2v6 c2.8,0,5-2.2,5-5v-7C24,5.4,18.6,0,12,0z M8,11c-1.1,0-2-0.9-2-2s0.9-2,2-2s2,0.9,2,2S9.1,11,8,11z M16,11c-1.1,0-2-0.9-2-2 s0.9-2,2-2s2,0.9,2,2S17.1,11,16,11z"></path></g></svg>