<svg id="nc_icon" xmlns="http://www.w3.org/2000/svg" xmlns:xlink="http://www.w3.org/1999/xlink" x="0px" y="0px" viewBox="0 0 24 24" ><g class="nc-icon-wrapper" fill="currentColor"><path d="M14.952,17.366,20,22.414,21.414,21,16.8,16.39A12.836,12.836,0,0,1,14.952,17.366Z" fill="currentColor" data-color="color-2"></path> <path d="M22.98,2.8a1,1,0,0,0-1.687-.511L12,11.586,10.414,10l1.293-1.293a1,1,0,0,0,0-1.414L6,1.586,4.586,3l5,5L9,8.586l-5-5L2.586,5l5,5L7,10.586l-5-5L.586,7l5.707,5.707a1,1,0,0,0,1.414,0L9,11.414,10.586,13,2.293,21.293l1.414,1.414,6.555-6.555c1.738.16,4.483.1,8.738-4.152C23.329,7.672,23.026,3.029,22.98,2.8Z" fill="currentColor"></path></g></svg>