<svg id="nc_icon" xmlns="http://www.w3.org/2000/svg" xmlns:xlink="http://www.w3.org/1999/xlink" x="0px" y="0px" viewBox="0 0 24 24" ><g class="nc-icon-wrapper" fill="currentColor"><path d="M10,0A1,1,0,0,0,9,1V9a1,1,0,0,1-1,1H4A1,1,0,0,1,3,9V1A1,1,0,0,0,1,1V9a3,3,0,0,0,3,3h.923l-.77,10.008a1.852,1.852,0,1,0,3.694,0L7.077,12H8a3,3,0,0,0,3-3V1A1,1,0,0,0,10,0Z" fill="currentColor"></path> <path d="M7,1A1,1,0,0,0,5,1V8H7Z" fill="currentColor"></path> <path data-color="color-2" d="M21,0H20a5,5,0,0,0-5,5V16a1,1,0,0,0,1,1h3v5.5a1.5,1.5,0,0,0,3,0V1A1,1,0,0,0,21,0Z" fill="currentColor"></path></g></svg>