<svg id="nc_icon" xmlns="http://www.w3.org/2000/svg" xmlns:xlink="http://www.w3.org/1999/xlink" x="0px" y="0px" viewBox="0 0 24 24" ><g class="nc-icon-wrapper" fill="currentColor"><path d="M6,0A5.006,5.006,0,0,0,1,5V7a5,5,0,0,0,3.932,4.879L4.153,22.008a1.852,1.852,0,1,0,3.694,0L7.068,11.879A5,5,0,0,0,11,7V5A5.006,5.006,0,0,0,6,0Z" fill="currentColor"></path> <path data-color="color-2" d="M21,0H20a5,5,0,0,0-5,5V16a1,1,0,0,0,1,1h3v5.5a1.5,1.5,0,0,0,3,0V1A1,1,0,0,0,21,0Z" fill="currentColor"></path></g></svg>