<svg id="nc_icon" version="1.1" xmlns="http://www.w3.org/2000/svg" xmlns:xlink="http://www.w3.org/1999/xlink" x="0px" y="0px" viewBox="0 0 24 24" xml:space="preserve" ><g class="nc-icon-wrapper" fill="currentColor"><path d="M5,14a5,5,0,1,0,5,5A5.006,5.006,0,0,0,5,14Zm0,8a3,3,0,1,1,3-3A3,3,0,0,1,5,22Z" fill="currentColor" data-color="color-2"></path>  <path d="M19,14a5,5,0,1,0,5,5A5.006,5.006,0,0,0,19,14Zm0,8a3,3,0,1,1,3-3A3,3,0,0,1,19,22Z" fill="currentColor" data-color="color-2"></path>  <circle cx="16.5" cy="3.5" r="2.5" fill="currentColor"></circle>  <path d="M16.293,11.707A1,1,0,0,0,17,12h4V10H17.414l-3-3a2,2,0,0,0-2.828,0L8.108,10.478a2,2,0,0,0,.214,3.014L11,15.5V21h2V15a1,1,0,0,0-.4-.8L9.522,11.892,13,8.414Z" fill="currentColor"></path></g></svg>