<svg id="nc_icon" version="1.1" xmlns="http://www.w3.org/2000/svg" xmlns:xlink="http://www.w3.org/1999/xlink" x="0px" y="0px" viewBox="0 0 24 24" xml:space="preserve" ><g class="nc-icon-wrapper" fill="currentColor"><path fill="currentColor" d="M23.7070312,1.7070312l-1.4140625-1.4140625l-5.2689209,5.2694092 c-1.1148682-0.5289307-2.4857178-0.3433838-3.4058838,0.5767822c-0.7531128,0.75354-3.1564941,5.0283813-4.1781616,6.8740234 l-6.8042603,1.1728516c-1.2402344,0.2138672-2.1933594,1.1069336-2.4873047,2.3305664 c-0.2949219,1.2231445,0.1484375,2.4516602,1.1552734,3.2060547v0.0004883l1.7011719,1.2724609l1.2724609,1.699707 c0.5996094,0.8017578,1.5,1.2460938,2.4589844,1.2460938c0.2470703,0,0.4970703-0.0292969,0.7470703-0.0893555 c1.2236328-0.2944336,2.1171875-1.2475586,2.3300781-2.487793l1.1732178-6.803894 c1.8452759-1.0214233,6.1205444-3.4249268,6.8746338-4.1790161c0.9199219-0.9202881,1.1044922-2.2907104,0.5765381-3.4046631 L23.7070312,1.7070312z"></path></g></svg>