<svg id="nc_icon" version="1.1" xmlns="http://www.w3.org/2000/svg" xmlns:xlink="http://www.w3.org/1999/xlink" x="0px" y="0px" viewBox="0 0 24 24" xml:space="preserve" ><g class="nc-icon-wrapper" fill="currentColor"><path fill="currentColor" d="M12,0C5.383,0,0,5.383,0,12s5.383,12,12,12s12-5.383,12-12S18.617,0,12,0z M11,3h2v3h-2V3z M6,13H3v-2h3V13z M12,15c-1.654,0-3-1.346-3-3c0-0.462,0.113-0.894,0.3-1.285L4.909,6.323l1.414-1.414l4.391,4.392C11.106,9.114,11.538,9,12,9 c1.654,0,3,1.346,3,3S13.654,15,12,15z M15.536,7.05l2.121-2.121l1.414,1.414L16.95,8.464L15.536,7.05z M18,13v-2h3v2H18z"></path></g></svg>