<svg id="nc_icon" version="1.1" xmlns="http://www.w3.org/2000/svg" xmlns:xlink="http://www.w3.org/1999/xlink" x="0px" y="0px" viewBox="0 0 24 24" xml:space="preserve" ><g class="nc-icon-wrapper" fill="currentColor"><path fill="currentColor" d="M21,15v-2h2.949c-0.213-2.558-1.226-4.888-2.795-6.741l-2.084,2.084l-1.414-1.414l2.084-2.084		C17.888,3.277,15.558,2.263,13,2.051V5h-2V2.051C5.181,2.534,0.534,7.181,0.051,13H3v2H0.044c0.204,2.427,1.144,4.752,2.7,6.637		C2.934,21.867,3.216,22,3.515,22h16.971c0.298,0,0.581-0.133,0.771-0.363c1.556-1.884,2.496-4.21,2.7-6.637H21z M12,17		c-1.654,0-3-1.346-3-3c0-0.462,0.113-0.894,0.301-1.285L5.293,8.707l1.414-1.414l4.008,4.008C11.106,11.113,11.538,11,12,11		c1.654,0,3,1.346,3,3S13.654,17,12,17z"></path></g></svg>