<svg id="nc_icon" version="1.1" xmlns="http://www.w3.org/2000/svg" xmlns:xlink="http://www.w3.org/1999/xlink" x="0px" y="0px" viewBox="0 0 24 24" xml:space="preserve" ><g class="nc-icon-wrapper" fill="currentColor"><path data-color="color-2" fill="currentColor" d="M12,10C8.2,10,4.3,9.3,2,7.6V12c0,2.7,5.2,4,10,4s10-1.3,10-4V7.6C19.7,9.3,15.8,10,12,10z"></path> <path fill="currentColor" d="M12,18c-3.8,0-7.7-0.7-10-2.4V20c0,2.7,5.2,4,10,4s10-1.3,10-4v-4.4C19.7,17.3,15.8,18,12,18z"></path> <path fill="currentColor" d="M12,0C7.2,0,2,1.3,2,4s5.2,4,10,4s10-1.3,10-4S16.8,0,12,0z"></path></g></svg>