<svg id="nc_icon" version="1.1" xmlns="http://www.w3.org/2000/svg" xmlns:xlink="http://www.w3.org/1999/xlink" x="0px" y="0px" viewBox="0 0 24 24" xml:space="preserve" ><g class="nc-icon-wrapper" fill="currentColor"><path data-color="color-2" fill="currentColor" d="M23,23H1c-0.5522461,0-1-0.4477539-1-1s0.4477539-1,1-1h22c0.5522461,0,1,0.4477539,1,1 S23.5522461,23,23,23z"></path> <path fill="currentColor" d="M17.5,2C16.6715698,2,16,2.6715698,16,3.5v-1C16,1.6715698,15.3284302,1,14.5,1S13,1.6715698,13,2.5v-1 C13,0.6715698,12.3284302,0,11.5,0S10,0.6715698,10,1.5v1C10,1.6715698,9.3284302,1,8.5,1S7,1.6715698,7,2.5v7.3999634L6.0999756,9 C5.4858398,8.3858032,4.557312,8.4003296,3.9580078,9.0435181C3.3790283,9.664856,3.4580688,10.65802,4.0585938,11.258606 L7,14.2000122V19h12V3.5C19,2.6715698,18.3284302,2,17.5,2z"></path></g></svg>