<svg id="nc_icon" version="1.1" xmlns="http://www.w3.org/2000/svg" xmlns:xlink="http://www.w3.org/1999/xlink" x="0px" y="0px" viewBox="0 0 24 24" xml:space="preserve" ><g class="nc-icon-wrapper" fill="currentColor"><path fill="currentColor" d="M13,12.090332V1c0-0.5522461-0.4477539-1-1-1s-1,0.4477539-1,1v11.090332 C8.1668701,12.5686646,6,15.0327759,6,18c0,3.3085938,2.6914062,6,6,6s6-2.6914062,6-6 C18,15.0327759,15.8331299,12.5686646,13,12.090332z"></path> <path data-color="color-2" fill="currentColor" d="M8.7070312,8.2929688L6,5.5859375V1c0-0.5522461-0.4477539-1-1-1S4,0.4477539,4,1v4.5859375 L1.2929688,8.2929688c-0.390625,0.390625-0.390625,1.0234375,0,1.4140625l3,3C4.4882812,12.9023438,4.7441406,13,5,13 s0.5117188-0.0976562,0.7070312-0.2929688l3-3C9.0976562,9.3164062,9.0976562,8.6835938,8.7070312,8.2929688z"></path> <path data-color="color-2" fill="currentColor" d="M22.7070312,8.2929688L20,5.5859375V1c0-0.5522461-0.4477539-1-1-1s-1,0.4477539-1,1 v4.5859375l-2.7070312,2.7070312c-0.390625,0.390625-0.390625,1.0234375,0,1.4140625l3,3C18.4882812,12.9023438,18.7441406,13,19,13 s0.5117188-0.0976562,0.7070312-0.2929688l3-3C23.0976562,9.3164062,23.0976562,8.6835938,22.7070312,8.2929688z"></path></g></svg>