<svg id="nc_icon" version="1.1" xmlns="http://www.w3.org/2000/svg" xmlns:xlink="http://www.w3.org/1999/xlink" x="0px" y="0px" viewBox="0 0 24 24" xml:space="preserve" ><g class="nc-icon-wrapper" fill="currentColor"><path fill="currentColor" d="M5,1c0-0.553-0.447-1-1-1H0v2h3v14c0,0.553,0.447,1,1,1h20v-2H5V1z"></path> <circle data-color="color-2" fill="currentColor" cx="5.5" cy="21.5" r="2.5"></circle> <circle data-color="color-2" fill="currentColor" cx="21.5" cy="21.5" r="2.5"></circle> <path data-color="color-2" fill="currentColor" d="M8,13h14c0.553,0,1-0.447,1-1V1c0-0.553-0.447-1-1-1H8C7.447,0,7,0.447,7,1v11 C7,12.553,7.447,13,8,13z"></path></g></svg>