<svg id="nc_icon" version="1.1" xmlns="http://www.w3.org/2000/svg" xmlns:xlink="http://www.w3.org/1999/xlink" x="0px" y="0px" viewBox="0 0 24 24" xml:space="preserve" ><g class="nc-icon-wrapper" fill="currentColor"><path fill="currentColor" d="M23.447,12.105l-3.589-1.794L18.97,6.758C18.858,6.312,18.459,6,18,6h-2.35c-0.826,2.327-3.043,4-5.65,4 c-0.521,0-1.04-0.071-1.547-0.211l-1.332,1.332c-1.173,1.173-3.07,1.172-4.242,0c-1.173-1.173-1.172-3.07,0-4.242l1.332-1.332 C3.889,4.379,3.936,3.167,4.35,2H1C0.447,2,0,2.447,0,3v16c0,0.553,0.447,1,1,1h10h0.051c0.252,2.244,2.139,4,4.449,4 s4.197-1.756,4.449-4H23c0.553,0,1-0.447,1-1v-6C24,12.621,23.786,12.275,23.447,12.105z M15.5,22c-1.379,0-2.5-1.121-2.5-2.5 s1.121-2.5,2.5-2.5s2.5,1.121,2.5,2.5S16.879,22,15.5,22z"></path> <path data-color="color-2" fill="currentColor" d="M4.293,8.293c-0.391,0.391-0.391,1.023,0,1.414C4.488,9.902,4.744,10,5,10 s0.512-0.098,0.707-0.293l2.274-2.274C8.576,7.785,9.26,8,10,8c2.206,0,4-1.794,4-4s-1.794-4-4-4S6,1.794,6,4 c0,0.74,0.215,1.424,0.567,2.019L4.293,8.293z M10,2c1.103,0,2,0.897,2,2s-0.897,2-2,2S8,5.103,8,4S8.897,2,10,2z"></path></g></svg>