<svg id="nc_icon" version="1.1" xmlns="http://www.w3.org/2000/svg" xmlns:xlink="http://www.w3.org/1999/xlink" x="0px" y="0px" viewBox="0 0 24 24" xml:space="preserve" ><g class="nc-icon-wrapper" fill="currentColor"><circle data-color="color-2" fill="currentColor" cx="6.5" cy="21.5" r="2.5"></circle> <path fill="currentColor" d="M24,15H6.876L4.991,0.868C4.925,0.371,4.501,0,4,0H0v2h3.124l1.885,14.132C5.075,16.629,5.499,17,6,17 h11.245l1.793,6.274C19.164,23.714,19.564,24,19.999,24c0.092,0,0.184-0.013,0.275-0.038c0.531-0.152,0.839-0.706,0.688-1.236 L19.326,17H24V15z"></path> <path data-color="color-2" fill="currentColor" d="M22,0H9C8.447,0,8,0.447,8,1v11c0,0.553,0.447,1,1,1h13c0.553,0,1-0.447,1-1V1 C23,0.447,22.553,0,22,0z M18,5h-5V3h5V5z"></path></g></svg>