<svg id="nc_icon" version="1.1" xmlns="http://www.w3.org/2000/svg" xmlns:xlink="http://www.w3.org/1999/xlink" x="0px" y="0px" viewBox="0 0 24 24" xml:space="preserve" ><g class="nc-icon-wrapper" fill="currentColor"><path fill="currentColor" d="M22.707,6.293l-5-5c-0.391-0.391-1.023-0.391-1.414,0l-2.291,2.291l2.706,2.71l-1.415,1.413l-2.705-2.709 l-1.586,1.586l1.709,1.709l-1.414,1.414L9.588,7.998L8.002,9.584l2.709,2.709l-1.414,1.414l-2.709-2.709l-1.586,1.586l1.709,1.709 l-1.414,1.414l-1.709-1.709l-2.295,2.295c-0.391,0.391-0.391,1.023,0,1.414l5,5C6.488,22.902,6.744,23,7,23s0.512-0.098,0.707-0.293 l15-15C23.098,7.316,23.098,6.684,22.707,6.293z"></path> <path data-color="color-2" fill="currentColor" d="M4.672,10.086l5.414-5.414L6.707,1.293c-0.391-0.391-1.023-0.391-1.414,0l-4,4 c-0.391,0.391-0.391,1.023,0,1.414L4.672,10.086z"></path> <path data-color="color-2" fill="currentColor" d="M21.98,16.804c-0.039-0.193-0.134-0.371-0.273-0.511l-2.379-2.379l-5.414,5.414l2.379,2.379 c0.14,0.14,0.317,0.235,0.511,0.273l5,1C21.869,22.994,21.935,23,22,23c0.263,0,0.518-0.104,0.707-0.293 c0.236-0.236,0.339-0.575,0.273-0.903L21.98,16.804z"></path></g></svg>