<svg id="nc_icon" version="1.1" xmlns="http://www.w3.org/2000/svg" xmlns:xlink="http://www.w3.org/1999/xlink" x="0px" y="0px" viewBox="0 0 24 24" xml:space="preserve" ><g class="nc-icon-wrapper" fill="currentColor"><path fill="currentColor" d="M0,7v14c0,0.6,0.4,1,1,1c0.6,0,1-0.4,1-1V7H0z"></path> <path fill="currentColor" d="M11,5h11h2V3c0-0.6-0.4-1-1-1H1C0.4,2,0,2.4,0,3v2h2H11z"></path> <path data-color="color-2" fill="currentColor" d="M10,12v9c0,0.6,0.4,1,1,1c0.6,0,1-0.4,1-1v-8h10v8c0,0.6,0.4,1,1,1c0.6,0,1-0.4,1-1V7H10V12z M14,9h6v2h-6V9z"></path></g></svg>