<svg id="nc_icon" version="1.1" xmlns="http://www.w3.org/2000/svg" xmlns:xlink="http://www.w3.org/1999/xlink" x="0px" y="0px" viewBox="0 0 24 24" xml:space="preserve" ><g class="nc-icon-wrapper" fill="currentColor"><circle data-color="color-2" fill="currentColor" cx="12" cy="5" r="1"></circle> <path fill="currentColor" d="M21,0H3C1.346,0,0,1.346,0,3v14c0,1.654,1.346,3,3,3h7v2H6c-0.552,0-1,0.448-1,1s0.448,1,1,1h12 c0.552,0,1-0.448,1-1s-0.448-1-1-1h-4v-2h7c1.654,0,3-1.346,3-3V3C24,1.346,22.654,0,21,0z M22,15H2V3c0-0.552,0.448-1,1-1h18 c0.552,0,1,0.448,1,1V15z"></path></g></svg>