<svg id="nc_icon" version="1.1" xmlns="http://www.w3.org/2000/svg" xmlns:xlink="http://www.w3.org/1999/xlink" x="0px" y="0px" viewBox="0 0 24 24" xml:space="preserve" ><g class="nc-icon-wrapper" fill="currentColor"><path data-color="color-2" fill="currentColor" d="M23,2H1C0.4,2,0,2.4,0,3v1h24V3C24,2.4,23.6,2,23,2z"></path> <path fill="currentColor" d="M0,6v15c0,0.6,0.4,1,1,1c0.6,0,1-0.4,1-1v-9v0h9V6H0z M8,10H3V8h5V10z"></path> <path fill="currentColor" d="M13,6v6h9v0v9c0,0.6,0.4,1,1,1c0.6,0,1-0.4,1-1V6H13z M21,10h-5V8h5V10z"></path></g></svg>