<svg id="nc_icon" version="1.1" xmlns="http://www.w3.org/2000/svg" xmlns:xlink="http://www.w3.org/1999/xlink" x="0px" y="0px" viewBox="0 0 24 24" xml:space="preserve" ><g class="nc-icon-wrapper" fill="currentColor"><path fill="currentColor" d="M21.1,6.8l1.3-6.6L16.6,3c-1.4-0.7-3-1-4.6-1c-1.7,0-3.2,0.4-4.6,1L1.6,0.2l1.3,6.6C1.7,8.6,1,10.7,1,13 c0,6.1,4.9,11,11,11c6.1,0,11-4.9,11-11C23,10.7,22.3,8.6,21.1,6.8z M7.6,7.7l3.8,1.9l-0.9,1.8L6.7,9.4L7.6,7.7z M17,15 c0,2.8-2.2,5-5,5c-2.8,0-5-2.2-5-5H17z M13.6,11.3l-0.9-1.8l3.8-1.9l0.9,1.8L13.6,11.3z"></path></g></svg>