<svg id="nc_icon" version="1.1" xmlns="http://www.w3.org/2000/svg" xmlns:xlink="http://www.w3.org/1999/xlink" x="0px" y="0px" viewBox="0 0 24 24" xml:space="preserve" ><g class="nc-icon-wrapper" fill="currentColor"><path data-color="color-2" fill="currentColor" d="M7,22H5v-1c0-2.206-1.794-4-4-4H0v-2h1c3.309,0,6,2.691,6,6V22z"></path> <path data-color="color-2" fill="currentColor" d="M11,22H9v-1c0-4.411-3.589-8-8-8H0v-2h1c5.514,0,10,4.486,10,10V22z"></path> <circle data-color="color-2" fill="currentColor" cx="1" cy="21" r="1"></circle> <path fill="currentColor" d="M23,2H2C1.448,2,1,2.447,1,3v6c5.944,0,10.866,4.327,11.82,10H23c0.552,0,1-0.447,1-1V3 C24,2.447,23.552,2,23,2z"></path></g></svg>