<svg id="nc_icon" version="1.1" xmlns="http://www.w3.org/2000/svg" xmlns:xlink="http://www.w3.org/1999/xlink" x="0px" y="0px" viewBox="0 0 24 24" xml:space="preserve" ><g class="nc-icon-wrapper" fill="currentColor"><path fill="currentColor" d="M16,8H0v15c0,0.6,0.4,1,1,1h15V8z M11,11c1.1,0,2,0.9,2,2c0,1.1-0.9,2-2,2s-2-0.9-2-2C9,11.9,9.9,11,11,11z M5,21c-1.1,0-2-0.9-2-2c0-1.1,0.9-2,2-2s2,0.9,2,2C7,20.1,6.1,21,5,21z M5,15c-1.1,0-2-0.9-2-2c0-1.1,0.9-2,2-2s2,0.9,2,2 C7,14.1,6.1,15,5,15z M11,21c-1.1,0-2-0.9-2-2c0-1.1,0.9-2,2-2s2,0.9,2,2C13,20.1,12.1,21,11,21z"></path> <path data-color="color-2" fill="currentColor" d="M16.6,6l6-6H7C6.7,0,6.5,0.1,6.3,0.3L0.6,6H16.6z"></path> <path data-color="color-2" fill="currentColor" d="M18,7.4v16l5.7-5.7c0.2-0.2,0.3-0.4,0.3-0.7V1.4L18,7.4z"></path></g></svg>