<svg id="nc_icon" xmlns="http://www.w3.org/2000/svg" xmlns:xlink="http://www.w3.org/1999/xlink" x="0px" y="0px" viewBox="0 0 24 24" ><g class="nc-icon-wrapper" fill="currentColor"><path d="M3,5H5V3H2A1,1,0,0,0,1,4V23a1,1,0,0,0,1,1H12V22H3Z" fill="currentColor"></path> <path d="M22,3H19V5h2V8h2V4A1,1,0,0,0,22,3Z" fill="currentColor"></path> <path d="M18,2H14.829A3,3,0,0,0,9.171,2H6V6H18Z" fill="currentColor"></path> <rect x="6" y="9" width="8" height="2" fill="currentColor"></rect> <rect x="6" y="13" width="4" height="2" fill="currentColor"></rect> <rect x="6" y="17" width="4" height="2" fill="currentColor"></rect> <path d="M18.609,15.128,18,15.291l-.609-.163c-2.66-.711-5.084,1.657-4.209,4.113l1.248,3.5a2,2,0,0,0,2.486,1.163L18,23.567l1.084.338a2,2,0,0,0,2.487-1.163l1.247-3.5C23.693,16.785,21.269,14.417,18.609,15.128Z" fill="currentColor" data-color="color-2"></path> <path d="M18,14a3,3,0,0,0,3-3V10a3,3,0,0,0-3,3Z" fill="currentColor" data-color="color-2"></path></g></svg>