<svg id="nc_icon" xmlns="http://www.w3.org/2000/svg" xmlns:xlink="http://www.w3.org/1999/xlink" x="0px" y="0px" viewBox="0 0 24 24" ><g class="nc-icon-wrapper" fill="currentColor"><path d="M11,22H2V8H22v3h2V3a1,1,0,0,0-1-1H19V0H17V2H13V0H11V2H7V0H5V2H1A1,1,0,0,0,0,3V23a1,1,0,0,0,1,1H11Z" fill="currentColor"></path> <path d="M17.609,15.128,17,15.291l-.609-.163c-2.66-.711-5.084,1.657-4.209,4.113l1.248,3.5A2,2,0,0,0,15.916,23.9L17,23.567l1.084.338a2,2,0,0,0,2.487-1.163l1.247-3.5C22.693,16.785,20.269,14.417,17.609,15.128Z" fill="currentColor" data-color="color-2"></path> <path d="M17,14a3,3,0,0,0,3-3V10a3,3,0,0,0-3,3Z" fill="currentColor" data-color="color-2"></path></g></svg>