<svg id="nc_icon" version="1.1" xmlns="http://www.w3.org/2000/svg" xmlns:xlink="http://www.w3.org/1999/xlink" x="0px" y="0px" viewBox="0 0 24 24" xml:space="preserve" ><g class="nc-icon-wrapper" fill="currentColor"><path fill="currentColor" d="M22.707,6.293L17,0.586L15.586,2l4,4H2C1.448,6,1,6.447,1,7s0.448,1,1,1h17.586l-4,4L17,13.414l5.707-5.707 C23.098,7.316,23.098,6.684,22.707,6.293z"></path> <path data-color="color-2" fill="currentColor" d="M1.293,16.293L7,10.586L8.414,12l-4,4H22c0.552,0,1,0.447,1,1s-0.448,1-1,1H4.414l4,4 L7,23.414l-5.707-5.707C0.902,17.316,0.902,16.684,1.293,16.293z"></path></g></svg>