<svg id="nc_icon" version="1.1" xmlns="http://www.w3.org/2000/svg" xmlns:xlink="http://www.w3.org/1999/xlink" x="0px" y="0px" viewBox="0 0 24 24" xml:space="preserve" ><g class="nc-icon-wrapper" fill="currentColor"><path fill="currentColor" d="M21.895,21.553l-3-6C18.725,15.214,18.379,15,18,15h-6v-3h4c0.553,0,1-0.447,1-1s-0.447-1-1-1h-4V7.858 C13.721,7.411,15,5.859,15,4c0-2.206-1.794-4-4-4S7,1.794,7,4c0,1.859,1.279,3.411,3,3.858V16c0,0.553,0.447,1,1,1h6.382 l2.724,5.447C20.281,22.798,20.634,23,21.001,23c0.15,0,0.303-0.034,0.446-0.105C21.941,22.647,22.142,22.047,21.895,21.553z"></path> <path data-color="color-2" fill="currentColor" d="M8,22c-2.206,0-4-1.794-4-4s1.794-4,4-4v-2c-3.309,0-6,2.691-6,6s2.691,6,6,6 c2.842,0,5.315-2.019,5.88-4.801l-1.959-0.398C11.544,20.654,9.895,22,8,22z"></path></g></svg>