<svg id="nc_icon" version="1.1" xmlns="http://www.w3.org/2000/svg" xmlns:xlink="http://www.w3.org/1999/xlink" x="0px" y="0px" viewBox="0 0 24 24" xml:space="preserve" ><g class="nc-icon-wrapper" fill="currentColor"><path fill="currentColor" d="M7.5,9C5.019,9,3,6.981,3,4.5S5.019,0,7.5,0S12,2.019,12,4.5S9.981,9,7.5,9z M7.5,2C6.121,2,5,3.122,5,4.5 S6.121,7,7.5,7S10,5.878,10,4.5S8.879,2,7.5,2z"></path> <path fill="currentColor" d="M16.5,24c-2.481,0-4.5-2.019-4.5-4.5s2.019-4.5,4.5-4.5s4.5,2.019,4.5,4.5S18.981,24,16.5,24z M16.5,17 c-1.379,0-2.5,1.122-2.5,2.5s1.121,2.5,2.5,2.5s2.5-1.122,2.5-2.5S17.879,17,16.5,17z"></path> <path data-color="color-2" fill="currentColor" d="M3,23c-0.238,0-0.478-0.084-0.669-0.257c-0.41-0.369-0.443-1.001-0.074-1.412l18-20 c0.37-0.41,1.002-0.443,1.412-0.074s0.443,1.001,0.074,1.412l-18,20C3.546,22.888,3.273,23,3,23z"></path></g></svg>