<svg id="nc_icon" xmlns="http://www.w3.org/2000/svg" xmlns:xlink="http://www.w3.org/1999/xlink" x="0px" y="0px" viewBox="0 0 24 24" ><g class="nc-icon-wrapper" fill="currentColor"><path d="M5.329,10a22.915,22.915,0,0,1,4.222.393l5.289.991A3.424,3.424,0,0,1,17.542,14H23a1,1,0,0,0,0-2H21.949A10.015,10.015,0,0,0,13,3.051V1a1,1,0,0,0-2,0V3.051A10.018,10.018,0,0,0,2.468,10Z" fill="currentColor" data-color="color-2"></path> <path d="M22.438,17.363l-9.159.8a4.183,4.183,0,0,1-2.437-.535L8.318,16.182h5.89a1.428,1.428,0,0,0,1.428-1.428h0a1.428,1.428,0,0,0-1.165-1.4l-5.288-.992A20.938,20.938,0,0,0,5.329,12H1v7.569l8.6,3.584a5.015,5.015,0,0,0,2.974.107L24,18.8h0A1.437,1.437,0,0,0,22.438,17.363Z" fill="currentColor"></path></g></svg>