<svg id="nc_icon" version="1.1" xmlns="http://www.w3.org/2000/svg" xmlns:xlink="http://www.w3.org/1999/xlink" x="0px" y="0px" viewBox="0 0 24 24" xml:space="preserve" ><g class="nc-icon-wrapper" fill="currentColor"><path fill="currentColor" d="M23.813,7.419l-5-7C18.626,0.156,18.323,0,18,0h-3v7c0,0.553-0.447,1-1,1H6C5.447,8,5,7.553,5,7V0H1 C0.447,0,0,0.447,0,1v22c0,0.553,0.447,1,1,1h22c0.553,0,1-0.447,1-1V8C24,7.792,23.935,7.588,23.813,7.419z M19,20 c0,0.553-0.447,1-1,1H6c-0.553,0-1-0.447-1-1v-5c0-0.553,0.447-1,1-1h12c0.553,0,1,0.447,1,1V20z"></path> <rect data-color="color-2" x="10" fill="currentColor" width="3" height="6"></rect></g></svg>