<svg id="nc_icon" version="1.1" xmlns="http://www.w3.org/2000/svg" xmlns:xlink="http://www.w3.org/1999/xlink" x="0px" y="0px" viewBox="0 0 24 24" xml:space="preserve" ><g class="nc-icon-wrapper" fill="currentColor"><polygon fill="currentColor" points="24,0 17,0 19.793,2.793 16.293,6.293 17.707,7.707 21.207,4.207 24,7 "></polygon> <polygon fill="currentColor" points="7,0 0,0 0,7 2.793,4.207 6.293,7.707 7.707,6.293 4.207,2.793 "></polygon> <polygon fill="currentColor" points="21.207,19.793 17.707,16.293 16.293,17.707 19.793,21.207 17,24 24,24 24,17 "></polygon> <polygon fill="currentColor" points="6.293,16.293 2.793,19.793 0,17 0,24 7,24 4.207,21.207 7.707,17.707 "></polygon> <path data-color="color-2" fill="currentColor" d="M12,16c-2.206,0-4-1.794-4-4s1.794-4,4-4s4,1.794,4,4S14.206,16,12,16z"></path></g></svg>