<svg id="nc_icon" version="1.1" xmlns="http://www.w3.org/2000/svg" xmlns:xlink="http://www.w3.org/1999/xlink" x="0px" y="0px" viewBox="0 0 24 24" xml:space="preserve" ><g class="nc-icon-wrapper" fill="currentColor"><path fill="currentColor" d="M20,9H4C3.448,9,3,8.552,3,8V1c0-0.552,0.448-1,1-1h16c0.552,0,1,0.448,1,1v7C21,8.552,20.552,9,20,9z"></path> <path fill="currentColor" d="M20,24H4c-0.552,0-1-0.448-1-1v-7c0-0.552,0.448-1,1-1h16c0.552,0,1,0.448,1,1v7C21,23.552,20.552,24,20,24z "></path> <path data-color="color-2" fill="currentColor" d="M23,13H1c-0.553,0-1-0.448-1-1s0.447-1,1-1h22c0.553,0,1,0.448,1,1S23.553,13,23,13z"></path></g></svg>