<svg id="nc_icon" version="1.1" xmlns="http://www.w3.org/2000/svg" xmlns:xlink="http://www.w3.org/1999/xlink" x="0px" y="0px" viewBox="0 0 24 24" xml:space="preserve" ><g class="nc-icon-wrapper" fill="currentColor"><path fill="currentColor" d="M18,0c-0.6,0-1,0.4-1,1v1H7V1c0-0.6-0.4-1-1-1S5,0.4,5,1v3c0,3.6,2.6,5.9,5.3,8C7.6,14.1,5,16.4,5,20v3 c0,0.6,0.4,1,1,1s1-0.4,1-1v-1h10v1c0,0.6,0.4,1,1,1s1-0.4,1-1v-3c0-3.6-2.6-5.9-5.3-8C16.4,9.9,19,7.6,19,4V1C19,0.4,18.6,0,18,0z M17,4c0,0.7-0.2,1.4-0.4,2H7.4C7.2,5.4,7,4.7,7,4H17z M7,20c0-0.7,0.2-1.4,0.4-2h9.1c0.3,0.6,0.4,1.3,0.4,2H7z M15.2,16H8.8 c0.9-1,2-1.9,3.2-2.7C13.2,14.1,14.3,15,15.2,16z M12,10.7C10.8,9.9,9.7,9,8.8,8h6.4C14.3,9,13.2,9.9,12,10.7z"></path></g></svg>