<svg id="nc_icon" version="1.1" xmlns="http://www.w3.org/2000/svg" xmlns:xlink="http://www.w3.org/1999/xlink" x="0px" y="0px" viewBox="0 0 24 24" xml:space="preserve" ><g class="nc-icon-wrapper" fill="currentColor"><path data-color="color-2" fill="currentColor" d="M5,3h2.5l1.3,1.6C9,4.9,9.3,5,9.6,5c0.2,0,0.4-0.1,0.6-0.2c0.4-0.3,0.5-1,0.2-1.4l-1.6-2 C8.6,1.1,8.3,1,8,1H5C4.4,1,4,1.4,4,2S4.4,3,5,3z"></path> <path fill="currentColor" d="M19,21h-2.5l-1.3-1.6c-0.3-0.4-1-0.5-1.4-0.2c-0.4,0.3-0.5,1-0.2,1.4l1.6,2c0.2,0.2,0.5,0.4,0.8,0.4h3 c0.6,0,1-0.4,1-1S19.6,21,19,21z"></path> <path data-color="color-2" fill="currentColor" d="M19,11h-2.5l-1.3-1.6c-0.3-0.4-1-0.5-1.4-0.2c-0.4,0.3-0.5,1-0.2,1.4l1.1,1.4l-7.2,9H5 c-0.6,0-1,0.4-1,1s0.4,1,1,1h3c0.3,0,0.6-0.1,0.8-0.4l7.7-9.6H19c0.6,0,1-0.4,1-1S19.6,11,19,11z"></path> <path fill="currentColor" d="M5,13h2.5l1.3,1.6C9,14.9,9.3,15,9.6,15c0.2,0,0.4-0.1,0.6-0.2c0.4-0.3,0.5-1,0.2-1.4L9.3,12l7.2-9H19 c0.6,0,1-0.4,1-1s-0.4-1-1-1h-3c-0.3,0-0.6,0.1-0.8,0.4L7.5,11H5c-0.6,0-1,0.4-1,1S4.4,13,5,13z"></path></g></svg>