<svg id="nc_icon" version="1.1" xmlns="http://www.w3.org/2000/svg" xmlns:xlink="http://www.w3.org/1999/xlink" x="0px" y="0px" viewBox="0 0 24 24" xml:space="preserve" ><g class="nc-icon-wrapper"><path fill="currentColor" d="M17,20H7c-1.654,0-3-1.346-3-3V3c0-1.654,1.346-3,3-3h10c1.654,0,3,1.346,3,3v14C20,18.654,18.654,20,17,20z M7,3C6.449,3,6,3.449,6,4v11c0,0.551,0.449,1,1,1h10c0.551,0,1-0.449,1-1V4c0-0.551-0.449-1-1-1H7z"></path> <path data-color="color-2" fill="currentColor" d="M23,24H1c-0.552,0-1-0.448-1-1s0.448-1,1-1h22c0.552,0,1,0.448,1,1S23.552,24,23,24z"></path></g></svg>