<svg id="nc_icon" version="1.1" xmlns="http://www.w3.org/2000/svg" xmlns:xlink="http://www.w3.org/1999/xlink" x="0px" y="0px" viewBox="0 0 24 24" xml:space="preserve" ><g class="nc-icon-wrapper"><path fill="currentColor" d="M24,14c0-2.2-1.8-4-4-4s-4,1.8-4,4c0,1.9,1.3,3.4,3,3.9V22H9v-5h2.3c1.5,0,2.8-1.1,3-2.6l1.6-11.1 c0.1-0.6-0.1-1.2-0.5-1.6C15,1.3,14.4,1,13.8,1H12c0-0.6-0.4-1-1-1s-1,0.4-1,1v2c0,0.6,0.4,1,1,1s1-0.4,1-1h1.8l-1.6,11.1 c-0.1,0.5-0.5,0.9-1,0.9H4.7c-0.5,0-0.9-0.4-1-0.9L2.2,3H4c0,0.6,0.4,1,1,1s1-0.4,1-1V1c0-0.6-0.4-1-1-1S4,0.4,4,1H2.2 C1.6,1,1,1.3,0.6,1.7c-0.4,0.4-0.6,1-0.5,1.6l1.6,11.1C2,15.9,3.3,17,4.7,17H7v6c0,0.6,0.4,1,1,1h12c0.6,0,1-0.4,1-1v-5.1 C22.7,17.4,24,15.9,24,14z"></path></g></svg>