<svg id="nc_icon" version="1.1" xmlns="http://www.w3.org/2000/svg" xmlns:xlink="http://www.w3.org/1999/xlink" x="0px" y="0px" viewBox="0 0 24 24" xml:space="preserve" ><g class="nc-icon-wrapper"><path data-color="color-2" fill="currentColor" d="M22.99902,12c-0.22266,0-0.44629-0.07422-0.63184-0.22607L12,3.29199L1.63281,11.77393 c-0.42773,0.34912-1.05664,0.28662-1.40723-0.14062c-0.34961-0.42773-0.28613-1.05762,0.1416-1.40723l11-9 c0.36719-0.30176,0.89844-0.30176,1.26562,0l11,9c0.42773,0.34961,0.49121,0.97949,0.1416,1.40723 C23.57617,11.875,23.28906,12,22.99902,12z"></path> <path fill="currentColor" d="M23,22h-2v-8.7605l-9-7.36353L3,13.2395V22H1c-0.55273,0-1,0.44775-1,1s0.44727,1,1,1h22 c0.55273,0,1-0.44775,1-1S23.55273,22,23,22z M15,22H9v-6c0-1.65686,1.34314-3,3-3s3,1.34314,3,3V22z"></path></g></svg>