<svg id="nc_icon" version="1.1" xmlns="http://www.w3.org/2000/svg" xmlns:xlink="http://www.w3.org/1999/xlink" x="0px" y="0px" viewBox="0 0 24 24" xml:space="preserve" ><g class="nc-icon-wrapper"><path fill="currentColor" d="M23,0c-3.00134,0-5.79742,1.52612-7.46051,4H8.46051C6.79742,1.52612,4.00134,0,1,0C0.44775,0,0,0.44727,0,1 v6c0,1.72833,0.72681,3.32404,2,4.46228V18c0,2.01318,1.20209,3.79663,3,4.57947V24h3c1.6413,0,3.08777-0.80573,4-2.03094 C12.91223,23.19427,14.3587,24,16,24h3v-1.41943c1.79834-0.78412,3-2.56744,3-4.58057v-6.53772C23.27319,10.32404,24,8.72833,24,7V1 C24,0.44727,23.55225,0,23,0z M8,22H7v-4c0-1.10254,0.89697-2,2-2h0.03851c0.00543,0.0094,0.00714,0.0199,0.01276,0.0293 l1.23389,2.05664c0.17932,0.29865,0.42664,0.53656,0.71484,0.703V19C11,20.6543,9.6543,22,8,22z M17,22h-1c-1.6543,0-3-1.3457-3-3 v-0.21106c0.28821-0.16644,0.53552-0.40436,0.71484-0.703l1.23389-2.05664c0.00562-0.0094,0.00732-0.0199,0.01276-0.0293H15 c1.10303,0,2,0.89746,2,2V22z M20,18c0,0.87286-0.38361,1.66382-1,2.216V18c0-2.20605-1.79443-4-4-4h-0.03693 c-0.36169-0.62592-1.00549-1-1.72919-1h-2.46777c-0.72369,0-1.36749,0.37408-1.72919,1H9c-2.20557,0-4,1.79395-4,4v2.21619 C4.38367,19.66388,4,18.87262,4,18v-8c0-2.20605,1.79443-4,4-4h8c2.20557,0,4,1.79395,4,4V18z"></path> <circle data-color="color-2" fill="currentColor" cx="7.5" cy="10.5" r="1.5"></circle> <circle data-color="color-2" fill="currentColor" cx="16.5" cy="10.5" r="1.5"></circle></g></svg>