<svg id="nc_icon" xmlns="http://www.w3.org/2000/svg" xmlns:xlink="http://www.w3.org/1999/xlink" x="0px" y="0px" viewBox="0 0 24 24" ><g class="nc-icon-wrapper"><path fill="currentColor" d="M12,0C5.383,0,0,5.383,0,12s5.383,12,12,12s12-5.383,12-12S18.617,0,12,0z M20,10c0.552,0,1,0.448,1,1 c0,0.552-0.448,1-1,1s-1-0.448-1-1C19,10.448,19.448,10,20,10z M18,4c0.552,0,1,0.448,1,1c0,0.552-0.448,1-1,1s-1-0.448-1-1 C17,4.448,17.448,4,18,4z M12,5c0.552,0,1,0.448,1,1c0,0.552-0.448,1-1,1s-1-0.448-1-1C11,5.448,11.448,5,12,5z M12,9 c1.654,0,3,1.346,3,3s-1.346,3-3,3s-3-1.346-3-3S10.346,9,12,9z M7,4c0.552,0,1,0.448,1,1c0,0.552-0.448,1-1,1S6,5.552,6,5 C6,4.448,6.448,4,7,4z M4,8c0.552,0,1,0.448,1,1c0,0.552-0.448,1-1,1S3,9.552,3,9C3,8.448,3.448,8,4,8z M12,22 c-4.84,0-8.886-3.457-9.803-8.031c0.711,0.29,1.471,0.437,2.237,0.437c0.982,0,1.965-0.262,2.874-0.738C7.998,15.603,9.831,17,12,17 c1.936,0,3.6-1.118,4.43-2.732c0.963,1.059,2.31,2.017,4.362,2.493C19.097,19.879,15.792,22,12,22z"></path></g></svg>