<svg id="nc_icon" version="1.1" xmlns="http://www.w3.org/2000/svg" xmlns:xlink="http://www.w3.org/1999/xlink" x="0px" y="0px" viewBox="0 0 24 24" xml:space="preserve" ><g class="nc-icon-wrapper"><polygon fill="currentColor" points="6,12 12,5 18,12 13,12 13,19 11,19 11,12 "></polygon> <rect data-color="color-2" x="9" fill="currentColor" width="6" height="2"></rect> <rect data-color="color-2" x="9" y="22" fill="currentColor" width="6" height="2"></rect> <rect data-color="color-2" y="9" fill="currentColor" width="2" height="6"></rect> <rect data-color="color-2" x="22" y="9" fill="currentColor" width="2" height="6"></rect> <path data-color="color-2" fill="currentColor" d="M2,6H0V1c0-0.552,0.447-1,1-1h5v2H2V6z"></path> <path data-color="color-2" fill="currentColor" d="M24,6h-2V2h-4V0h5c0.553,0,1,0.448,1,1V6z"></path> <path data-color="color-2" fill="currentColor" d="M23,24h-5v-2h4v-4h2v5C24,23.552,23.553,24,23,24z"></path> <path data-color="color-2" fill="currentColor" d="M6,24H1c-0.553,0-1-0.448-1-1v-5h2v4h4V24z"></path></g></svg>