<svg id="nc_icon" version="1.1" xmlns="http://www.w3.org/2000/svg" xmlns:xlink="http://www.w3.org/1999/xlink" x="0px" y="0px" viewBox="0 0 24 24" xml:space="preserve" ><g class="nc-icon-wrapper"><polygon fill="currentColor" points="6,12 12,19 18,12 13,12 13,5 11,5 11,12 "></polygon> <rect data-color="color-2" x="9" y="22" fill="currentColor" width="6" height="2"></rect> <rect data-color="color-2" x="9" fill="currentColor" width="6" height="2"></rect> <rect data-color="color-2" y="9" fill="currentColor" width="2" height="6"></rect> <rect data-color="color-2" x="22" y="9" fill="currentColor" width="2" height="6"></rect> <path data-color="color-2" fill="currentColor" d="M2,18H0v5c0,0.552,0.447,1,1,1h5v-2H2V18z"></path> <path data-color="color-2" fill="currentColor" d="M24,18h-2v4h-4v2h5c0.553,0,1-0.448,1-1V18z"></path> <path data-color="color-2" fill="currentColor" d="M23,0h-5v2h4v4h2V1C24,0.448,23.553,0,23,0z"></path> <path data-color="color-2" fill="currentColor" d="M6,0H1C0.447,0,0,0.448,0,1v5h2V2h4V0z"></path></g></svg>