<svg id="nc_icon" version="1.1" xmlns="http://www.w3.org/2000/svg" xmlns:xlink="http://www.w3.org/1999/xlink" x="0px" y="0px" viewBox="0 0 24 24" xml:space="preserve" ><g class="nc-icon-wrapper" fill="currentColor"><path data-color="color-2" fill="currentColor" d="M12,7c-2.75684,0-5,2.24316-5,5s2.24316,5,5,5s5-2.24316,5-5S14.75684,7,12,7z"></path> <path fill="currentColor" d="M12,1C5.93457,1,1,5.93457,1,12s4.93457,11,11,11s11-4.93457,11-11S18.06543,1,12,1z M12,19 c-3.85986,0-7-3.14014-7-7s3.14014-7,7-7s7,3.14014,7,7S15.85986,19,12,19z"></path></g></svg>