<svg id="nc_icon" version="1.1" xmlns="http://www.w3.org/2000/svg" xmlns:xlink="http://www.w3.org/1999/xlink" x="0px" y="0px" viewBox="0 0 24 24" xml:space="preserve" ><g class="nc-icon-wrapper" fill="currentColor"><path fill="currentColor" d="M23,2H12v18h8v2c0,0.6,0.4,1,1,1c0.6,0,1-0.4,1-1v-2h1c0.6,0,1-0.4,1-1V3C24,2.4,23.6,2,23,2z M15,10h6v2h-6 V10z"></path> <path data-color="color-2" fill="currentColor" d="M0,3v16c0,0.6,0.4,1,1,1h1v2c0,0.6,0.4,1,1,1c0.6,0,1-0.4,1-1v-2h6V2H1C0.4,2,0,2.4,0,3z M3,10h4v2H3V10z"></path></g></svg>