<svg id="nc_icon" version="1.1" xmlns="http://www.w3.org/2000/svg" xmlns:xlink="http://www.w3.org/1999/xlink" x="0px" y="0px" viewBox="0 0 24 24" xml:space="preserve" ><g class="nc-icon-wrapper" fill="currentColor"><path fill="currentColor" d="M18,0H6c-0.5,0-0.8,0.3-1,0.7L4.5,3H1C0.4,3,0,3.4,0,4v19c0,0.6,0.4,1,1,1h22c0.6,0,1-0.4,1-1V4 c0-0.6-0.4-1-1-1h-3.5l-0.6-2.3C18.8,0.3,18.4,0,18,0z M19,20h-3c-0.6,0-1-0.4-1-1s0.4-1,1-1h3c0.6,0,1,0.4,1,1S19.6,20,19,20z M16,10l2,2l-6,5l-6-5l2-2L4,8l2.3-4.3L12,14l5.7-10.3L20,8L16,10z"></path></g></svg>