<svg id="nc_icon" xmlns="http://www.w3.org/2000/svg" xmlns:xlink="http://www.w3.org/1999/xlink" x="0px" y="0px" viewBox="0 0 24 24" ><g class="nc-icon-wrapper" fill="currentColor"><path data-color="color-2" fill="currentColor" d="M19,0c-2.045,0-3.802,1.237-4.576,3H18c1.18,0,2.254,0.695,2.737,1.772 c0.483,1.072,0.29,2.338-0.495,3.22l-1.744,1.962C18.666,9.971,18.831,10,19,10c2.757,0,5-2.243,5-5S21.757,0,19,0z"></path> <path fill="currentColor" d="M18.748,6.664c0.261-0.294,0.326-0.715,0.165-1.073C18.751,5.231,18.394,5,18,5H2 C1.606,5,1.249,5.231,1.088,5.591C0.926,5.949,0.991,6.37,1.252,6.664L9,15.38V21H5c-0.552,0-1,0.447-1,1s0.448,1,1,1h10 c0.552,0,1-0.447,1-1s-0.448-1-1-1h-4v-5.62L18.748,6.664z M15.773,7l-2.666,3H6.893L4.227,7H15.773z"></path></g></svg>