<svg id="nc_icon" version="1.1" xmlns="http://www.w3.org/2000/svg" xmlns:xlink="http://www.w3.org/1999/xlink" x="0px" y="0px" viewBox="0 0 24 24" xml:space="preserve" ><g class="nc-icon-wrapper" fill="currentColor"><path fill="currentColor" d="M22,5c0-2.8-2.2-5-5-5c-2.4,0-4.4,1.7-4.9,4H7.9L7,0.7C6.8,0.3,6.5,0,6,0H3C2.4,0,2,0.4,2,1s0.4,1,1,1h2.2 l0.5,2H3C2.4,4,2,4.4,2,5v6c0,4.1,3.1,7.4,7,7.9V22H6c-0.6,0-1,0.4-1,1s0.4,1,1,1h8c0.6,0,1-0.4,1-1s-0.4-1-1-1h-3v-3.1 c3.9-0.5,7-3.9,7-7.9V9.9C20.3,9.4,22,7.4,22,5z M18,7.8V5c0-0.6-0.4-1-1-1h-2.8c0.4-1.2,1.5-2,2.8-2c1.7,0,3,1.3,3,3 C20,6.3,19.2,7.4,18,7.8z"></path></g></svg>