<svg id="nc_icon" version="1.1" xmlns="http://www.w3.org/2000/svg" xmlns:xlink="http://www.w3.org/1999/xlink" x="0px" y="0px" viewBox="0 0 24 24" xml:space="preserve" ><g class="nc-icon-wrapper" fill="currentColor"><path fill="currentColor" d="M22.7,1.3c-0.4-0.4-1-0.4-1.4,0l-11,11c-0.4,0.4-0.4,1,0,1.4c0.2,0.2,0.5,0.3,0.7,0.3s0.5-0.1,0.7-0.3l11-11 C23.1,2.3,23.1,1.7,22.7,1.3z"></path> <path data-color="color-2" fill="currentColor" d="M20.2,9c-0.5,0.2-0.8,0.7-0.7,1.3c0.3,0.9,0.4,1.8,0.4,2.7c0,5-4,9-9,9s-9-4-9-9s4-9,9-9 c0.9,0,1.8,0.1,2.7,0.4c0.5,0.2,1.1-0.1,1.3-0.7c0.2-0.5-0.1-1.1-0.7-1.3C13.2,2.2,12.1,2,11,2C4.9,2,0,6.9,0,13s4.9,11,11,11 s11-4.9,11-11c0-1.1-0.2-2.2-0.5-3.3C21.3,9.2,20.8,8.9,20.2,9z"></path></g></svg>