<svg id="nc_icon" version="1.1" xmlns="http://www.w3.org/2000/svg" xmlns:xlink="http://www.w3.org/1999/xlink" x="0px" y="0px" viewBox="0 0 24 24" xml:space="preserve" ><g class="nc-icon-wrapper" fill="currentColor"><path data-color="color-2" fill="currentColor" d="M21,10c-0.6,0-1,0.4-1,1v11H2V4h11c0.6,0,1-0.4,1-1s-0.4-1-1-1H1C0.4,2,0,2.4,0,3v20 c0,0.6,0.4,1,1,1h20c0.6,0,1-0.4,1-1V11C22,10.4,21.6,10,21,10z"></path> <path fill="currentColor" d="M21.3,1.3l-11,11c-0.4,0.4-0.4,1,0,1.4c0.2,0.2,0.5,0.3,0.7,0.3s0.5-0.1,0.7-0.3l11-11c0.4-0.4,0.4-1,0-1.4 S21.7,0.9,21.3,1.3z"></path></g></svg>