<svg id="nc_icon" version="1.1" xmlns="http://www.w3.org/2000/svg" xmlns:xlink="http://www.w3.org/1999/xlink" x="0px" y="0px" viewBox="0 0 24 24" xml:space="preserve" ><g class="nc-icon-wrapper" fill="currentColor"><path fill="currentColor" d="M8.6,19H5c-0.6,0-1-0.4-1-1v-3.6c0-0.3,0.1-0.5,0.3-0.7l11-11c0.4-0.4,1-0.4,1.4,0l3.6,3.6 c0.4,0.4,0.4,1,0,1.4l-11,11C9.1,18.9,8.9,19,8.6,19z"></path> <path data-color="color-2" fill="currentColor" d="M20,24H4c-0.6,0-1-0.4-1-1s0.4-1,1-1h16c0.6,0,1,0.4,1,1S20.6,24,20,24z"></path></g></svg>