<svg id="nc_icon" xmlns="http://www.w3.org/2000/svg" xmlns:xlink="http://www.w3.org/1999/xlink" x="0px" y="0px" viewBox="0 0 24 24" ><g class="nc-icon-wrapper" fill="currentColor"><path fill="currentColor" d="M21,0H1C0.447,0,0,0.447,0,1v22c0,0.553,0.447,1,1,1h20c0.553,0,1-0.447,1-1V1C22,0.447,21.553,0,21,0z M9,18H6v-3c0-0.164,0.052-0.317,0.127-0.459l3.332,3.332C9.317,17.948,9.164,18,9,18z M17.707,9.707L10.914,16.5L7.5,13.086 l6.793-6.793c0.391-0.391,1.023-0.391,1.414,0l2,2C18.098,8.684,18.098,9.316,17.707,9.707z"></path></g></svg>