<svg id="nc_icon" version="1.1" xmlns="http://www.w3.org/2000/svg" xmlns:xlink="http://www.w3.org/1999/xlink" x="0px" y="0px" viewBox="0 0 24 24" xml:space="preserve" ><g class="nc-icon-wrapper" fill="currentColor"><polygon data-color="color-2" fill="currentColor" points="4,9 6,9 6,11 8,11 8,9 10,9 10,7 8,7 8,5 6,5 6,7 4,7 "></polygon> <path fill="currentColor" d="M23.971,1.857c-0.011-0.073-0.016-0.145-0.044-0.215c-0.027-0.07-0.071-0.128-0.113-0.189 c-0.027-0.041-0.041-0.088-0.075-0.125c-0.005-0.006-0.013-0.008-0.019-0.014c-0.053-0.056-0.12-0.094-0.185-0.136 c-0.045-0.029-0.084-0.067-0.131-0.089c-0.05-0.022-0.107-0.026-0.162-0.04c-0.073-0.018-0.144-0.042-0.219-0.044 C23.015,1.005,23.008,1,23,1H1C0.448,1,0,1.448,0,2v20c0,0.051,0.022,0.094,0.029,0.143c0.011,0.073,0.016,0.145,0.044,0.215 c0.027,0.07,0.071,0.128,0.113,0.189c0.027,0.041,0.041,0.088,0.075,0.125c0.005,0.006,0.013,0.008,0.018,0.013 c0.078,0.082,0.173,0.145,0.275,0.197c0.019,0.01,0.033,0.027,0.053,0.036C0.728,22.97,0.86,23,1,23h22c0.552,0,1-0.448,1-1V2 C24,1.949,23.978,1.906,23.971,1.857z M2,3h18.413L2,19.74V3z M20,17h-6v-2h6V17z"></path></g></svg>