<svg id="nc_icon" version="1.1" xmlns="http://www.w3.org/2000/svg" xmlns:xlink="http://www.w3.org/1999/xlink" x="0px" y="0px" viewBox="0 0 24 24" xml:space="preserve" ><g class="nc-icon-wrapper" fill="currentColor"><path data-color="color-2" fill="currentColor" d="M20,24H4c-0.6,0-1-0.4-1-1s0.4-1,1-1h16c0.6,0,1,0.4,1,1S20.6,24,20,24z"></path> <path data-color="color-2" fill="currentColor" d="M18.7,9.3l1.6-1.6c0.4-0.4,0.4-1,0-1.4l-3.6-3.6c-0.4-0.4-1-0.4-1.4,0l-1.6,1.6L18.7,9.3z"></path> <path fill="currentColor" d="M12.3,5.7l-8,8C4.1,13.9,4,14.1,4,14.4V18c0,0.6,0.4,1,1,1h3.6c0.3,0,0.5-0.1,0.7-0.3l8-8L12.3,5.7z"></path></g></svg>