<svg id="nc_icon" version="1.1" xmlns="http://www.w3.org/2000/svg" xmlns:xlink="http://www.w3.org/1999/xlink" x="0px" y="0px" viewBox="0 0 24 24" xml:space="preserve" ><g class="nc-icon-wrapper" fill="currentColor"><path data-color="color-2" fill="currentColor" d="M12,15c5.3310547,0,8.6884766-0.9506836,8.7216797-0.9604492l0.2457275-0.0708618 c-0.0460205-1.0352173-0.1569214-2.032959-0.3325806-2.982605C20.0099487,11.1855469,17.1416016,12,12,12 c-5.1376953,0-8.0095825-0.8132324-8.6382446-1.0131226c-0.1741333,0.9494019-0.2839966,1.9468384-0.3295288,2.9816895 l0.2460938,0.0709839C3.3115234,14.0493164,6.6689453,15,12,15z"></path> <path fill="currentColor" d="M12,17c-4.6968994,0-7.8967285-0.6900024-8.9226685-0.9459839C3.6712646,20.416687,7.9025879,23,12,23 s8.3287354-2.583313,8.9226685-6.9459839C19.8967285,16.3099976,16.6968994,17,12,17z"></path> <path fill="currentColor" d="M3.8945312,9.0571289C3.9453125,9.074707,6.6816406,10,12,10 c5.3427734,0,8.0742188-0.9335938,8.1005859-0.9428711l0.0658569-0.0230103C18.7381592,4.2009888,15.6170654,1,12,1 C8.3527832,1,5.2457886,4.2005615,3.8271484,9.0331421L3.8945312,9.0571289z"></path></g></svg>