<svg id="nc_icon" version="1.1" xmlns="http://www.w3.org/2000/svg" xmlns:xlink="http://www.w3.org/1999/xlink" x="0px" y="0px" viewBox="0 0 24 24" xml:space="preserve" ><g class="nc-icon-wrapper" fill="currentColor"><path data-color="color-2" fill="currentColor" d="M23,2H1C0.4,2,0,2.4,0,3v3c0,0.4,0.2,0.7,0.5,0.9l11,6C11.7,13,11.8,13,12,13s0.3,0,0.5-0.1 l11-6C23.8,6.7,24,6.4,24,6V3C24,2.4,23.6,2,23,2z"></path> <path fill="currentColor" d="M13.4,14.6C13,14.9,12.5,15,12,15s-1-0.1-1.4-0.4L0,8.9V21c0,0.6,0.4,1,1,1h22c0.6,0,1-0.4,1-1V8.9 L13.4,14.6z"></path></g></svg>