<svg id="nc_icon" version="1.1" xmlns="http://www.w3.org/2000/svg" xmlns:xlink="http://www.w3.org/1999/xlink" x="0px" y="0px" viewBox="0 0 24 24" xml:space="preserve" ><g class="nc-icon-wrapper" fill="currentColor"><path fill="currentColor" d="M23,2H1C0.4,2,0,2.4,0,3v18c0,0.6,0.4,1,1,1h22c0.6,0,1-0.4,1-1V3C24,2.4,23.6,2,23,2z M20.7,6.8l-8,7 C12.5,13.9,12.2,14,12,14s-0.5-0.1-0.7-0.2l-8-7c-0.4-0.4-0.5-1-0.1-1.4c0.4-0.4,1-0.5,1.4-0.1l7.3,6.4l7.3-6.4 c0.4-0.4,1-0.3,1.4,0.1C21.1,5.8,21.1,6.4,20.7,6.8z"></path></g></svg>