<svg id="nc_icon" version="1.1" xmlns="http://www.w3.org/2000/svg" xmlns:xlink="http://www.w3.org/1999/xlink" x="0px" y="0px" viewBox="0 0 24 24" xml:space="preserve" ><g class="nc-icon-wrapper" fill="currentColor"><rect data-color="color-2" x="3" fill="currentColor" width="18" height="4"></rect> <path fill="currentColor" d="M20.2998047,6.487793C20.0609131,6.3084106,19.8600464,6.1503906,19.6807251,6H4.3192749 c-0.1793213,0.1503906-0.380188,0.3084106-0.6190796,0.487793C2.5605469,7.34375,1,8.5161133,1,10.8706055V21 c0,1.6542969,1.3457031,3,3,3h16c1.6542969,0,3-1.3457031,3-3V10.8706055C23,8.5161133,21.4394531,7.34375,20.2998047,6.487793z M11.7070312,18.7070312C11.5117188,18.9023438,11.2558594,19,11,19s-0.5117188-0.0976562-0.7070312-0.2929688 c-0.390625-0.390625-0.390625-1.0234375,0-1.4140625L11.5859375,16h-4l4.7070312-4.7070312 c0.390625-0.390625,1.0234375-0.390625,1.4140625,0s0.390625,1.0234375,0,1.4140625L12.4140625,14h4L11.7070312,18.7070312z"></path></g></svg>