<svg id="nc_icon" version="1.1" xmlns="http://www.w3.org/2000/svg" xmlns:xlink="http://www.w3.org/1999/xlink" x="0px" y="0px" viewBox="0 0 24 24" xml:space="preserve" ><g class="nc-icon-wrapper" fill="currentColor"><path fill="currentColor" d="M14,4V2h2V0H8v2h2v2H1v2h2.1047363l1.901123,17.1103516C5.0624876,23.6166992,5.4902344,24,6,24h12 c0.5097656,0,0.9374866-0.3833008,0.9941406-0.8896484L20.8952637,6H23V4H14z M11.7070312,17.7070312 C11.5117188,17.9023438,11.2558594,18,11,18s-0.5117188-0.0976562-0.7070312-0.2929688 c-0.390625-0.390625-0.390625-1.0234375,0-1.4140625L11.5859375,15h-4l4.7070312-4.7070312 c0.390625-0.390625,1.0234375-0.390625,1.4140625,0s0.390625,1.0234375,0,1.4140625L12.4140625,13h4L11.7070312,17.7070312z"></path></g></svg>