<svg id="nc_icon" xmlns="http://www.w3.org/2000/svg" xmlns:xlink="http://www.w3.org/1999/xlink" x="0px" y="0px" viewBox="0 0 24 24" ><g class="nc-icon-wrapper" fill="currentColor"><path fill="currentColor" d="M20.594,6.195c-1.531-1.208-2.259-2.6-2.519-3.195H18.5C19.328,3,20,2.328,20,1.5v0 C20,0.672,19.328,0,18.5,0h-13C4.672,0,4,0.672,4,1.5v0C4,2.328,4.672,3,5.5,3h0.425c-0.262,0.599-0.99,1.989-2.52,3.196 C3.157,6.391,3,6.683,3,6.999L3,21c0,1.657,1.343,3,3,3h12c1.657,0,3-1.343,3-3l0-14C21,6.683,20.843,6.391,20.594,6.195z M16.769,13.64l-5,6C11.573,19.875,11.289,20,11,20c-0.176,0-0.353-0.046-0.512-0.142c-0.423-0.251-0.6-0.773-0.417-1.23L11.523,15 H8c-0.388,0-0.741-0.225-0.906-0.575c-0.164-0.351-0.111-0.766,0.138-1.064l5-6c0.316-0.378,0.858-0.47,1.28-0.219 c0.423,0.251,0.6,0.773,0.417,1.23L12.477,12H16c0.388,0,0.741,0.225,0.906,0.576C17.07,12.927,17.017,13.342,16.769,13.64z"></path></g></svg>