<svg id="nc_icon" version="1.1" xmlns="http://www.w3.org/2000/svg" xmlns:xlink="http://www.w3.org/1999/xlink" x="0px" y="0px" viewBox="0 0 24 24" xml:space="preserve" ><g class="nc-icon-wrapper" fill="currentColor"><path d="M23,13a1,1,0,0,0-1,1v2H20V12a1,1,0,0,0-1-1H16.5L13.8,7.4A1,1,0,0,0,13,7H1A1,1,0,0,0,0,8V22a1,1,0,0,0,1,1H19a1,1,0,0,0,1-1V18h2v2a1,1,0,0,0,2,0V14A1,1,0,0,0,23,13Z" fill="currentColor"></path>  <path d="M3,3H6V5H8V3h3a1,1,0,0,0,0-2H3A1,1,0,0,0,3,3Z" fill="currentColor" data-color="color-2"></path></g></svg>