<svg id="nc_icon" version="1.1" xmlns="http://www.w3.org/2000/svg" xmlns:xlink="http://www.w3.org/1999/xlink" x="0px" y="0px" viewBox="0 0 24 24" xml:space="preserve" ><g class="nc-icon-wrapper" fill="currentColor"><path data-color="color-2" fill="currentColor" d="M4,3h16V1c0-0.552-0.448-1-1-1H5C4.448,0,4,0.448,4,1V3z"></path> <path data-color="color-2" fill="currentColor" d="M20,21H4v2c0,0.552,0.448,1,1,1h14c0.552,0,1-0.448,1-1V21z"></path> <path fill="currentColor" d="M20,5H4C3.448,5,3,5.448,3,6v12c0,0.552,0.448,1,1,1h16c0.552,0,1-0.448,1-1V6C21,5.448,20.552,5,20,5z M9,16H7v-5h2V16z"></path></g></svg>