<svg id="nc_icon" version="1.1" xmlns="http://www.w3.org/2000/svg" xmlns:xlink="http://www.w3.org/1999/xlink" x="0px" y="0px" viewBox="0 0 24 24" xml:space="preserve" ><g class="nc-icon-wrapper" fill="currentColor"><path data-color="color-2" fill="currentColor" d="M21,4h-5V1l-5,4l5,4V6h4v4h2V5C22,4.448,21.552,4,21,4z"></path> <path data-color="color-2" fill="currentColor" d="M8,18H4v-4H2v5c0,0.552,0.448,1,1,1h5v3l5-4l-5-4V18z"></path> <circle fill="currentColor" cx="5" cy="3" r="3"></circle> <path fill="currentColor" d="M10,11H0V9.916c0-0.654,0.315-1.265,0.851-1.639C1.67,7.705,3.071,7,5,7s3.33,0.705,4.149,1.277 C9.685,8.652,10,9.263,10,9.916V11z"></path> <circle fill="currentColor" cx="19" cy="16" r="3"></circle> <path fill="currentColor" d="M24,24H14v-1.084c0-0.654,0.315-1.265,0.851-1.639C15.67,20.705,17.071,20,19,20s3.33,0.705,4.149,1.277 C23.685,21.652,24,22.263,24,22.916V24z"></path></g></svg>