<svg id="nc_icon" version="1.1" xmlns="http://www.w3.org/2000/svg" xmlns:xlink="http://www.w3.org/1999/xlink" x="0px" y="0px" viewBox="0 0 24 24" xml:space="preserve" ><g class="nc-icon-wrapper" fill="currentColor"><circle fill="currentColor" cx="20" cy="4" r="3"></circle> <path data-color="color-2" fill="currentColor" d="M23.231,7.784c-0.514,0.439-1.113,0.771-1.774,0.974C21.812,9.792,22,10.883,22,12 c0,5.514-4.486,10-10,10S2,17.514,2,12S6.486,2,12,2c1.117,0,2.207,0.189,3.242,0.543c0.203-0.662,0.535-1.261,0.975-1.775 C14.88,0.266,13.458,0,12,0C5.383,0,0,5.383,0,12s5.383,12,12,12s12-5.383,12-12C24,10.542,23.734,9.12,23.231,7.784z"></path> <circle fill="currentColor" cx="12" cy="8" r="3"></circle> <path fill="currentColor" d="M18,17H6v0c0-2.761,2.239-5,5-5h2C15.761,12,18,14.239,18,17L18,17z"></path></g></svg>