<svg id="nc_icon" version="1.1" xmlns="http://www.w3.org/2000/svg" xmlns:xlink="http://www.w3.org/1999/xlink" x="0px" y="0px" viewBox="0 0 24 24" xml:space="preserve" ><g class="nc-icon-wrapper" fill="currentColor"><path fill="currentColor" d="M20.201,8.041l-4.228,4.228c-0.135,1.987-1.716,3.568-3.703,3.703l-3.439,3.439 C9.813,19.773,10.869,20,12,20c6.473,0,10.69-7.195,10.866-7.501c0.178-0.308,0.179-0.687,0.002-0.995 C22.787,11.362,21.836,9.74,20.201,8.041z"></path> <path fill="currentColor" d="M5.647,17.624c0.97-1.015,2.039-2.115,3.153-3.249C8.304,13.709,8,12.893,8,12c0-2.206,1.794-4,4-4 c0.893,0,1.709,0.304,2.375,0.8c1.087-1.068,2.142-2.093,3.122-3.031C15.941,4.748,14.092,4,12,4C5.461,4,1.304,11.2,1.13,11.507 c-0.174,0.307-0.173,0.683,0.002,0.989C1.24,12.685,2.88,15.498,5.647,17.624z"></path> <path data-color="color-2" fill="currentColor" d="M3,22c-0.256,0-0.512-0.098-0.707-0.293c-0.391-0.391-0.391-1.023,0-1.414l18-18 c0.391-0.391,1.023-0.391,1.414,0s0.391,1.023,0,1.414l-18,18C3.512,21.902,3.256,22,3,22z"></path></g></svg>