<svg id="nc_icon" version="1.1" xmlns="http://www.w3.org/2000/svg" xmlns:xlink="http://www.w3.org/1999/xlink" x="0px" y="0px" viewBox="0 0 24 24" xml:space="preserve" ><g class="nc-icon-wrapper" fill="currentColor"><path data-color="color-2" fill="currentColor" d="M6,0C3.8,0,2,1.8,2,4s1.8,4,4,4s4-1.8,4-4S8.2,0,6,0z M6,6C4.9,6,4,5.1,4,4s0.9-2,2-2s2,0.9,2,2S7.1,6,6,6z"></path> <path fill="currentColor" d="M21,8c0.6,0,1-0.4,1-1s-0.4-1-1-1h-9c-0.6,0-1,0.4-1,1v16c0,0.6,0.4,1,1,1s1-0.4,1-1v-8h8c0.6,0,1-0.4,1-1 s-0.4-1-1-1h-8V8H21z"></path></g></svg>