<svg id="nc_icon" version="1.1" xmlns="http://www.w3.org/2000/svg" xmlns:xlink="http://www.w3.org/1999/xlink" x="0px" y="0px" viewBox="0 0 24 24" xml:space="preserve" ><g class="nc-icon-wrapper" fill="currentColor"><polygon data-color="color-2" fill="currentColor" points="23.414,6.09 12,0.901 0.586,6.09 1.414,7.91 12,3.099 22.586,7.91 "></polygon> <path fill="currentColor" d="M9.884,18.499C9.023,17.815,7.563,17,5.5,17s-3.523,0.815-4.383,1.498C0.407,19.061,0,19.912,0,20.836V23h11 v-2.164C11,19.912,10.593,19.061,9.884,18.499z"></path> <circle fill="currentColor" cx="5.5" cy="12.5" r="3.5"></circle> <path fill="currentColor" d="M22.884,18.499C22.023,17.815,20.563,17,18.5,17s-3.523,0.815-4.383,1.498 C13.407,19.061,13,19.912,13,20.836V23h11v-2.164C24,19.912,23.593,19.061,22.884,18.499z"></path> <circle fill="currentColor" cx="18.5" cy="12.5" r="3.5"></circle></g></svg>