<svg id="nc_icon" version="1.1" xmlns="http://www.w3.org/2000/svg" xmlns:xlink="http://www.w3.org/1999/xlink" x="0px" y="0px" viewBox="0 0 24 24" xml:space="preserve" ><g class="nc-icon-wrapper" fill="currentColor"> <path d="M2.576,2.576a7,7,0,0,0-.525,10.374L12,22.9l5.45-5.45Z" fill="currentColor"></path> <path d="M19.57,15.328l2.379-2.379a7,7,0,0,0-9.9-9.9L12,3.1l-.05-.05A7,7,0,0,0,5.43,1.188Z" fill="currentColor"></path> <path d="M22,23a1,1,0,0,1-.707-.293l-21-21A1,1,0,0,1,1.707.293l21,21A1,1,0,0,1,22,23Z" fill="currentColor" data-color="color-2"></path> </g></svg>