<svg id="nc_icon" version="1.1" xmlns="http://www.w3.org/2000/svg" xmlns:xlink="http://www.w3.org/1999/xlink" x="0px" y="0px" viewBox="0 0 24 24" xml:space="preserve" ><g class="nc-icon-wrapper" fill="currentColor"><path fill="currentColor" d="M22.319,8.922l-6.638-0.965l-2.969-6.015c-0.291-0.59-1.133-0.59-1.424,0L8.319,7.957L1.681,8.922 c-0.651,0.095-0.911,0.895-0.44,1.354l4.804,4.682L4.91,21.57c-0.111,0.649,0.57,1.143,1.152,0.837L12,19.286l0.03,0.016 C12.024,19.2,12,19.103,12,19c0-2.761,2.239-5,5-5c0.576,0,1.12,0.117,1.635,0.296l4.124-4.02 C23.231,9.817,22.971,9.017,22.319,8.922z"></path> <polygon data-color="color-2" fill="currentColor" points="20,18 18,18 18,16 16,16 16,18 14,18 14,20 16,20 16,22 18,22 18,20 20,20 "></polygon></g></svg>