<svg id="nc_icon" version="1.1" xmlns="http://www.w3.org/2000/svg" xmlns:xlink="http://www.w3.org/1999/xlink" x="0px" y="0px" viewBox="0 0 24 24" xml:space="preserve" ><g class="nc-icon-wrapper" fill="currentColor"><path fill="currentColor" d="M13,16c0-2.761,2.239-5,5-5c1.554,0,2.925,0.724,3.842,1.836C23.116,10.853,24,8.821,24,7 c0-3.86-3.141-7-7-7c-1.903,0-3.695,0.768-5,2.103C10.695,0.768,8.903,0,7,0C3.141,0,0,3.14,0,7c0,6.4,10.902,15.394,11.367,15.774 C11.551,22.925,11.775,23,12,23s0.449-0.075,0.633-0.226c0.144-0.118,1.291-1.063,2.804-2.502C13.983,19.398,13,17.82,13,16z"></path> <rect data-color="color-2" x="15" y="15" fill="currentColor" width="6" height="2"></rect></g></svg>