<svg id="nc_icon" version="1.1" xmlns="http://www.w3.org/2000/svg" xmlns:xlink="http://www.w3.org/1999/xlink" x="0px" y="0px" viewBox="0 0 24 24" xml:space="preserve" ><g class="nc-icon-wrapper" fill="currentColor"><path fill="currentColor" d="M20.4303589,18.9841919l2.8128052-2.8128052l-0.7075195-0.7070312 c-1.7067261-1.7067261-4.3521729-1.9188232-6.2927246-0.635498L13.4140625,12l9.2929688-9.2929688 c0.390625-0.390625,0.390625-1.0234375,0-1.4140625s-1.0234375-0.390625-1.4140625,0L12,10.5859375L2.7070312,1.2929688 c-0.390625-0.390625-1.0234375-0.390625-1.4140625,0s-0.390625,1.0234375,0,1.4140625L10.5859375,12l-2.8288574,2.8288574 c-1.9402466-1.28302-4.5856323-1.0715942-6.2927246,0.635498l-0.7075195,0.7070312l2.8128052,2.8128052l-2.2815552,2.3136597 c-0.3876953,0.3930664-0.3833008,1.0263672,0.0097656,1.4140625C1.4926758,22.9042969,1.746582,23,2,23 c0.2583008,0,0.5166016-0.0996094,0.7119141-0.2978516l2.2718506-2.303833l2.8448486,2.8448486l0.7070312-0.7075195 c1.7071533-1.7075806,1.9185791-4.3522949,0.635498-6.2927246L12,13.4140625l2.8288574,2.8288574 c-1.2830811,1.9404297-1.0716553,4.585144,0.635498,6.2927246l0.7070312,0.7075195l2.8448486-2.8448486l2.2718506,2.303833 C21.4838867,22.9003906,21.7416992,23,22,23c0.253418,0,0.5073242-0.0957031,0.7021484-0.2880859 c0.3930664-0.3876953,0.3974609-1.0209961,0.0097656-1.4140625L20.4303589,18.9841919z"></path></g></svg>