<svg id="nc_icon" version="1.1" xmlns="http://www.w3.org/2000/svg" xmlns:xlink="http://www.w3.org/1999/xlink" x="0px" y="0px" viewBox="0 0 24 24" xml:space="preserve" ><g class="nc-icon-wrapper" fill="currentColor"><path fill="currentColor" d="M20.948,5.684C20.812,5.275,20.43,5,20,5h-3v2h2.279l2.333,7H16v4H8v-4H2.387l2.333-7H7V5H4 C3.57,5,3.188,5.275,3.052,5.683l-3.001,9.003C0.017,14.787,0,14.893,0,15v8c0,0.552,0.448,1,1,1h22c0.552,0,1-0.448,1-1v-8 c0-0.107-0.017-0.213-0.051-0.314L20.948,5.684z"></path> <polygon data-color="color-2" fill="currentColor" points="13,0 13,9 16,9 12,14 8,9 11,9 11,0 "></polygon></g></svg>