<svg id="nc_icon" version="1.1" xmlns="http://www.w3.org/2000/svg" xmlns:xlink="http://www.w3.org/1999/xlink" x="0px" y="0px" viewBox="0 0 24 24" xml:space="preserve" ><g class="nc-icon-wrapper" fill="currentColor"><path fill="currentColor" d="M23.949,14.684l-3-9C20.812,5.275,20.431,5,20,5h-2v2h1.279l2.333,7H2.387l2.333-7H6V5H4 C3.569,5,3.188,5.275,3.051,5.684l-3,9C0.017,14.786,0,14.893,0,15v8c0,0.553,0.448,1,1,1h22c0.552,0,1-0.447,1-1v-8 C24,14.893,23.983,14.786,23.949,14.684z M20,20h-6v-2h6V20z"></path> <polygon data-color="color-2" fill="currentColor" points="13,0 13,6 16,6 12,11 8,6 11,6 11,0 "></polygon></g></svg>