<svg id="nc_icon" version="1.1" xmlns="http://www.w3.org/2000/svg" xmlns:xlink="http://www.w3.org/1999/xlink" x="0px" y="0px" viewBox="0 0 24 24" xml:space="preserve" ><g class="nc-icon-wrapper" fill="currentColor"><path fill="currentColor" d="M23,8H1C0.447,8,0,8.447,0,9s0.447,1,1,1h22c0.553,0,1-0.447,1-1S23.553,8,23,8z"></path> <path fill="currentColor" d="M23,2H1C0.447,2,0,2.447,0,3s0.447,1,1,1h22c0.553,0,1-0.447,1-1S23.553,2,23,2z"></path> <path fill="currentColor" d="M11,14H1c-0.553,0-1,0.447-1,1s0.447,1,1,1h10c0.553,0,1-0.447,1-1S11.553,14,11,14z"></path> <path fill="currentColor" d="M11,20H1c-0.553,0-1,0.447-1,1s0.447,1,1,1h10c0.553,0,1-0.447,1-1S11.553,20,11,20z"></path> <path data-color="color-2" fill="currentColor" d="M20.414,18l2.293-2.293c0.391-0.391,0.391-1.023,0-1.414s-1.023-0.391-1.414,0L19,16.586 l-2.293-2.293c-0.391-0.391-1.023-0.391-1.414,0s-0.391,1.023,0,1.414L17.586,18l-2.293,2.293c-0.391,0.391-0.391,1.023,0,1.414 C15.488,21.902,15.744,22,16,22s0.512-0.098,0.707-0.293L19,19.414l2.293,2.293C21.488,21.902,21.744,22,22,22 s0.512-0.098,0.707-0.293c0.391-0.391,0.391-1.023,0-1.414L20.414,18z"></path></g></svg>