<svg id="nc_icon" version="1.1" xmlns="http://www.w3.org/2000/svg" xmlns:xlink="http://www.w3.org/1999/xlink" x="0px" y="0px" viewBox="0 0 24 24" xml:space="preserve" ><g class="nc-icon-wrapper" fill="currentColor"><path fill="currentColor" d="M24,17V7l-5.3,4h-1.7c-0.1-1.3-0.4-2.6-0.9-3.8c-0.2-0.5-0.8-0.7-1.3-0.5C14.2,6.9,14,7.5,14.2,8 c0.4,1,0.7,1.9,0.8,3h-2c-0.2-2-0.8-3.9-1.9-5.5C10.8,5,10.1,4.9,9.7,5.2C9.2,5.5,9.1,6.1,9.4,6.6c0.9,1.3,1.4,2.9,1.5,4.4h-2 C8.8,9.4,8.4,7.8,7.6,6.4C7.5,6.2,7.3,6,7,5.9C6.8,5.9,6.5,5.9,6.3,6C3,7.8,1.2,11.4,1.1,11.6c-0.1,0.3-0.1,0.6,0,0.9 C1.2,12.6,3,16.2,6.2,18c0.1,0.1,0.3,0.1,0.5,0.1c0.1,0,0.2,0,0.3,0c0.3-0.1,0.5-0.3,0.6-0.5c0.7-1.4,1.2-3,1.3-4.6h2 c-0.2,1.6-0.7,3.1-1.5,4.4c-0.3,0.5-0.2,1.1,0.3,1.4C9.8,18.9,10,19,10.2,19c0.3,0,0.6-0.2,0.8-0.5c1.1-1.7,1.7-3.6,1.9-5.5h2 c-0.1,1-0.4,2-0.8,3c-0.2,0.5,0,1.1,0.5,1.3c0.1,0.1,0.3,0.1,0.4,0.1c0.4,0,0.8-0.2,0.9-0.6c0.5-1.2,0.8-2.5,0.9-3.8h1.7L24,17z"></path></g></svg>