<svg id="nc_icon" version="1.1" xmlns="http://www.w3.org/2000/svg" xmlns:xlink="http://www.w3.org/1999/xlink" x="0px" y="0px" viewBox="0 0 24 24" xml:space="preserve" ><g class="nc-icon-wrapper" fill="currentColor"><path data-color="color-2" fill="currentColor" d="M2,1c0-0.552,0.448-1,1-1l18,0c0.552,0,1,0.448,1,1s-0.448,1-1,1H3C2.448,2,2,1.552,2,1z"></path> <path data-color="color-2" fill="currentColor" d="M2,23c0-0.552,0.448-1,1-1h18c0.552,0,1,0.448,1,1s-0.448,1-1,1H3C2.448,24,2,23.552,2,23z"></path> <polygon fill="currentColor" points="12,20 17,15 13,15 13,9 17,9 12,4 7,9 11,9 11,15 7,15 "></polygon></g></svg>