<svg id="nc_icon" version="1.1" xmlns="http://www.w3.org/2000/svg" xmlns:xlink="http://www.w3.org/1999/xlink" x="0px" y="0px" viewBox="0 0 24 24" xml:space="preserve" ><g class="nc-icon-wrapper" fill="currentColor"><path data-color="color-2" fill="currentColor" d="M1,22c-0.552,0-1-0.448-1-1V3c0-0.552,0.448-1,1-1s1,0.448,1,1v18C2,21.552,1.552,22,1,22z"></path> <path data-color="color-2" fill="currentColor" d="M23,22c-0.552,0-1-0.448-1-1V3c0-0.552,0.448-1,1-1s1,0.448,1,1v18 C24,21.552,23.552,22,23,22z"></path> <polygon fill="currentColor" points="20,12 15,7 15,11 9,11 9,7 4,12 9,17 9,13 15,13 15,17 "></polygon></g></svg>