<svg id="nc_icon" version="1.1" xmlns="http://www.w3.org/2000/svg" xmlns:xlink="http://www.w3.org/1999/xlink" x="0px" y="0px" viewBox="0 0 24 24" xml:space="preserve" ><g class="nc-icon-wrapper" fill="currentColor"><path data-color="color-2" fill="currentColor" d="M3,1c0-0.552-0.447-1-1-1S1,0.448,1,1v22c0,0.552,0.447,1,1,1s1-0.448,1-1V1z"></path> <path fill="currentColor" d="M20,12l3-7h-7V2c0-0.552-0.448-1-1-1H6C5.448,1,5,1.448,5,2v12c0,0.552,0.448,1,1,1h7l-4.941,3.294 C8.186,18.7,8.552,19,9,19h14L20,12z"></path></g></svg>