<svg id="nc_icon" version="1.1" xmlns="http://www.w3.org/2000/svg" xmlns:xlink="http://www.w3.org/1999/xlink" x="0px" y="0px" viewBox="0 0 24 24" xml:space="preserve" ><g class="nc-icon-wrapper" fill="currentColor"><path data-color="color-2" fill="currentColor" d="M3.1,5.3C2.8,4.8,2.2,4.6,1.8,4.9C1.3,5.2,1.1,5.8,1.4,6.3l9.5,16.5c0.2,0.3,0.5,0.5,0.9,0.5 c0.2,0,0.3,0,0.5-0.1c0.5-0.3,0.6-0.9,0.4-1.4L3.1,5.3z"></path> <path fill="currentColor" d="M21.7,4.3c-0.3-0.3-0.7-0.4-1-0.3c-1.2,0.3-3-0.1-5-0.5c-1.6-0.4-3.3-0.8-5-0.8c-2.3,0-4.1,0.8-5.5,2.4 l5.5,9.6c0.2-0.1,0.3-0.2,0.4-0.4c1.1-2,2.6-2.6,4.4-3.2c2.2-0.8,4.7-1.8,6.3-5.7C22.1,5,22,4.6,21.7,4.3z"></path></g></svg>