<svg id="nc_icon" version="1.1" xmlns="http://www.w3.org/2000/svg" xmlns:xlink="http://www.w3.org/1999/xlink" x="0px" y="0px" viewBox="0 0 24 24" xml:space="preserve" ><g class="nc-icon-wrapper" fill="currentColor"><path fill="currentColor" d="M19.897,9.558C19.729,9.216,19.381,9,19,9h-7.883l0.876-7.89c0.05-0.446-0.204-0.87-0.62-1.038 c-0.417-0.17-0.894-0.038-1.167,0.317l-10,13c-0.232,0.302-0.273,0.71-0.104,1.052C0.271,14.784,0.619,15,1,15h7.883l-0.876,7.89 c-0.05,0.446,0.204,0.87,0.62,1.038C8.748,23.977,8.875,24,9,24c0.304,0,0.6-0.139,0.793-0.39l10-13 C20.025,10.308,20.065,9.9,19.897,9.558z"></path> <path data-color="color-2" fill="currentColor" d="M21.469,24l-0.422-1.605h-2.783L17.83,24h-2.543l2.795-8.602h3.088L24,24H21.469z M20.566,20.496l-0.369-1.406c-0.086-0.312-0.19-0.717-0.313-1.213s-0.204-0.852-0.243-1.066c-0.035,0.199-0.104,0.527-0.208,0.984 s-0.333,1.357-0.688,2.701H20.566z"></path></g></svg>