<svg id="nc_icon" version="1.1" xmlns="http://www.w3.org/2000/svg" xmlns:xlink="http://www.w3.org/1999/xlink" x="0px" y="0px" viewBox="0 0 24 24" xml:space="preserve" ><g class="nc-icon-wrapper" fill="currentColor"><path fill="currentColor" d="M21.897,9.558C21.729,9.216,21.381,9,21,9h-7.883l0.876-7.89c0.05-0.446-0.204-0.87-0.62-1.038 c-0.417-0.17-0.894-0.038-1.167,0.317l-10,13c-0.232,0.302-0.273,0.71-0.104,1.052C2.271,14.784,2.619,15,3,15h7.883l-0.876,7.89 c-0.05,0.446,0.204,0.87,0.62,1.038C10.748,23.977,10.875,24,11,24c0.304,0,0.6-0.139,0.793-0.39l10-13 C22.025,10.308,22.065,9.9,21.897,9.558z"></path></g></svg>