<svg id="nc_icon" version="1.1" xmlns="http://www.w3.org/2000/svg" xmlns:xlink="http://www.w3.org/1999/xlink" x="0px" y="0px" viewBox="0 0 24 24" xml:space="preserve" ><g class="nc-icon-wrapper" fill="currentColor"><path fill="currentColor" d="M19.882,7.528C19.708,7.203,19.369,7,19,7h-4.674l1.636-5.725c0.086-0.302,0.025-0.626-0.163-0.877 C15.609,0.147,15.313,0,15,0H8C7.549,0,7.154,0.302,7.035,0.737l-3,11c-0.082,0.301-0.02,0.623,0.17,0.87S4.688,13,5,13h4.802 l-1.785,9.821c-0.085,0.466,0.169,0.928,0.608,1.106C8.747,23.977,8.874,24,9,24c0.326,0,0.642-0.16,0.832-0.445l10-15 C20.036,8.248,20.056,7.854,19.882,7.528z"></path> <path data-color="color-2" fill="currentColor" d="M19.5,15c-2.481,0-4.5,2.019-4.5,4.5s2.019,4.5,4.5,4.5s4.5-2.019,4.5-4.5S21.981,15,19.5,15 z M22,19.5c0,0.321-0.066,0.626-0.177,0.909l-3.232-3.232C18.874,17.066,19.179,17,19.5,17C20.879,17,22,18.122,22,19.5z M17,19.5 c0-0.321,0.066-0.627,0.177-0.909l3.232,3.232C20.126,21.934,19.821,22,19.5,22C18.121,22,17,20.878,17,19.5z"></path></g></svg>