<svg id="nc_icon" version="1.1" xmlns="http://www.w3.org/2000/svg" xmlns:xlink="http://www.w3.org/1999/xlink" x="0px" y="0px" viewBox="0 0 24 24" xml:space="preserve" ><g class="nc-icon-wrapper" fill="currentColor"><path fill="currentColor" d="M19,7h-4.674l1.636-5.725c0.086-0.302,0.026-0.626-0.163-0.877S15.314,0,15,0H8 C7.549,0,7.154,0.302,7.035,0.737l-3,11c-0.082,0.301-0.019,0.623,0.17,0.87C4.395,12.854,4.688,13,5,13h4.802l-1.786,9.821 c-0.085,0.466,0.169,0.928,0.609,1.106C8.748,23.977,8.875,24,9,24c0.327,0,0.643-0.16,0.833-0.445l10-15 c0.205-0.307,0.224-0.701,0.05-1.026C19.708,7.203,19.369,7,19,7z"></path> <path data-color="color-2" fill="currentColor" d="M21.469,24l-0.422-1.605h-2.783L17.83,24h-2.543l2.795-8.602h3.088L24,24H21.469z M20.566,20.496l-0.369-1.406c-0.086-0.312-0.19-0.717-0.313-1.213s-0.204-0.852-0.243-1.066c-0.035,0.199-0.104,0.527-0.208,0.984 s-0.333,1.357-0.688,2.701H20.566z"></path></g></svg>