<svg id="nc_icon" version="1.1" xmlns="http://www.w3.org/2000/svg" xmlns:xlink="http://www.w3.org/1999/xlink" x="0px" y="0px" viewBox="0 0 24 24" xml:space="preserve" ><g class="nc-icon-wrapper" fill="currentColor"><path data-color="color-2" fill="currentColor" d="M5.99976,1.00024l-5,6h4v10c0,3.30859,2.69141,6,6,6v-2c-2.20557,0-4-1.79395-4-4v-10h4 L5.99976,1.00024z"></path> <path fill="currentColor" d="M10.91382,9.78149c-1.49951,1.98047-1.10938,4.80664,0.88379,6.31641l10.61426,7.71094 c0.3042,0.22168,0.70703,0.25293,1.04199,0.08203c0.33496-0.16992,0.5459-0.51465,0.5459-0.89062l0.00049-8.44727 c0-0.3125-0.14648-0.60742-0.396-0.79688l-6.38574-4.8418C15.24146,7.41528,12.41333,7.80493,10.91382,9.78149z M16.15485,10.50531 l1.19556,0.90588c-0.08911,0.48364-0.32428,1.40033-1.0177,2.32629c-0.71429,0.95374-1.55829,1.44116-2.00195,1.65887 c-0.39856-0.30194-0.79706-0.60394-1.19556-0.90588c-1.10046-0.83386-1.31659-2.40198-0.48273-3.50244 C13.48627,9.88757,15.05438,9.67145,16.15485,10.50531z"></path></g></svg>