<svg id="nc_icon" version="1.1" xmlns="http://www.w3.org/2000/svg" xmlns:xlink="http://www.w3.org/1999/xlink" x="0px" y="0px" viewBox="0 0 24 24" xml:space="preserve" ><g class="nc-icon-wrapper" fill="currentColor"><path data-color="color-2" fill="currentColor" d="M6,23.00024l-5-6h4v-10c0-3.30859,2.69141-6,6-6v2c-2.20557,0-4,1.79395-4,4v10h4L6,23.00024z "></path> <path fill="currentColor" d="M17.21875,15.08618l6.38574-4.8418c0.24951-0.18945,0.396-0.48438,0.396-0.79688L24,1.00024 c0-0.37598-0.21094-0.7207-0.5459-0.89062c-0.33496-0.1709-0.73779-0.13965-1.04199,0.08203L11.79785,7.90259 c-1.99316,1.50977-2.3833,4.33594-0.88379,6.31641C12.41357,16.19556,15.2417,16.58521,17.21875,15.08618z M12.65271,13.01245 c-0.83386-1.10046-0.61774-2.66858,0.48273-3.50244c0.3985-0.30194,0.797-0.60394,1.19556-0.90588 c0.44366,0.21771,1.28766,0.70514,2.00195,1.65887c0.69342,0.92596,0.92859,1.84265,1.0177,2.32629l-1.19556,0.90588 C15.05463,14.32904,13.48651,14.11292,12.65271,13.01245z"></path></g></svg>