<svg id="nc_icon" version="1.1" xmlns="http://www.w3.org/2000/svg" xmlns:xlink="http://www.w3.org/1999/xlink" x="0px" y="0px" viewBox="0 0 24 24" xml:space="preserve" ><g class="nc-icon-wrapper" fill="currentColor"><path data-color="color-2" fill="currentColor" d="M1.00011,6l6-5v4h10c3.30859,0,6,2.69141,6,6h-2c0-2.20557-1.79395-4-4-4h-10v4L1.00011,6z"></path> <path fill="currentColor" d="M8.91418,17.21875l4.8418,6.38574c0.18945,0.24951,0.48438,0.396,0.79688,0.396L23.00011,24 c0.37598,0,0.7207-0.21094,0.89062-0.5459c0.1709-0.33496,0.13965-0.73779-0.08203-1.04199l-7.71094-10.61426 c-1.50977-1.99316-4.33594-2.3833-6.31641-0.88379C7.8048,12.41357,7.41515,15.2417,8.91418,17.21875z M10.98791,12.65271 c1.10046-0.83386,2.66858-0.61774,3.50244,0.48273c0.30194,0.3985,0.60394,0.797,0.90588,1.19556 c-0.21771,0.44366-0.70514,1.28766-1.65887,2.00195c-0.92596,0.69342-1.84265,0.92859-2.32629,1.0177l-0.90588-1.19556 C9.67132,15.05463,9.88744,13.48651,10.98791,12.65271z"></path></g></svg>