<svg id="nc_icon" version="1.1" xmlns="http://www.w3.org/2000/svg" xmlns:xlink="http://www.w3.org/1999/xlink" x="0px" y="0px" viewBox="0 0 24 24" xml:space="preserve" ><g class="nc-icon-wrapper" fill="currentColor"><path fill="currentColor" d="M5.9,10.4C7.3,8.8,9.2,7.5,11,7.1V5c0-0.6,0.4-1,1-1s1,0.4,1,1v2.1c1.7,0.4,3.7,1.7,5.1,3.3L18.5,7 c0.3-3.2-2.2-6-5.5-6h-2C7.8,1,5.3,3.8,5.5,7L5.9,10.4z"></path> <path fill="currentColor" d="M12,9c-1.8,0-5,2.4-5.8,4.7L6.5,18c0.3,2.8,2.6,5,5.5,5s5.2-2.2,5.5-5l0.4-4.4C17,11.4,13.8,9,12,9z"></path></g></svg>