<svg id="nc_icon" version="1.1" xmlns="http://www.w3.org/2000/svg" xmlns:xlink="http://www.w3.org/1999/xlink" x="0px" y="0px" viewBox="0 0 24 24" xml:space="preserve" ><g class="nc-icon-wrapper" fill="currentColor"><path fill="currentColor" d="M23,12c0-1.59692-0.94232-2.96429-2.29541-3.60559c0.50323-1.41028,0.20276-3.04346-0.92639-4.17261 s-2.76233-1.42963-4.17261-0.92639C14.96429,1.94232,13.59692,1,12,1S9.03571,1.94232,8.39441,3.29541 C6.98413,2.79218,5.35095,3.09265,4.2218,4.2218S2.79218,6.98413,3.29541,8.39441C1.94232,9.03571,1,10.40308,1,12 c0,1.59686,0.94232,2.96423,2.29541,3.60553c-0.50323,1.41028-0.20276,3.04346,0.92639,4.17261 c1.12921,1.12921,2.76239,1.42975,4.17267,0.92645C9.03583,22.05768,10.40314,23,12,23s2.96417-0.94232,3.60553-2.29541 c1.41028,0.5033,3.04346,0.20276,4.17267-0.92645c1.12915-1.12915,1.42963-2.76233,0.92639-4.17261 C22.05768,14.96423,23,13.59686,23,12z M12,15c-1.65686,0-3-1.34314-3-3s1.34314-3,3-3s3,1.34314,3,3S13.65686,15,12,15z"></path></g></svg>