<svg id="nc_icon" version="1.1" xmlns="http://www.w3.org/2000/svg" xmlns:xlink="http://www.w3.org/1999/xlink" x="0px" y="0px" viewBox="0 0 24 24" xml:space="preserve" ><g class="nc-icon-wrapper" fill="currentColor"><path fill="currentColor" d="M1.5,7.9l2.8-1.7c1-0.6,2.2-0.6,3.2,0.1l1.7,1.1C10.1,7.9,11,8.2,12,8.2s1.9-0.3,2.8-0.8l1.7-1.1 c1-0.6,2.2-0.7,3.2-0.1l2.8,1.7C23,8.1,23.6,8,23.9,7.5C24.1,7,24,6.4,23.5,6.1l-2.8-1.7c-1.6-1-3.7-0.9-5.3,0.1l-1.7,1.1 c-1,0.7-2.3,0.7-3.3,0L8.7,4.6C7.1,3.5,5,3.5,3.3,4.4L0.5,6.1C0,6.4-0.1,7,0.1,7.5C0.4,8,1,8.1,1.5,7.9z"></path> <path fill="currentColor" d="M23.5,18.2l-2.8-1.7c-1.6-1-3.7-0.9-5.3,0.1l-1.7,1.1c-1,0.7-2.3,0.7-3.3,0l-1.7-1.1 c-1.6-1.1-3.7-1.1-5.3-0.1l-2.8,1.7c-0.5,0.3-0.6,0.9-0.3,1.4c0.3,0.5,0.9,0.6,1.4,0.3l2.8-1.7c1-0.6,2.2-0.6,3.2,0.1l1.7,1.1 c0.8,0.6,1.8,0.8,2.8,0.8c1,0,1.9-0.3,2.8-0.8l1.7-1.1c1-0.6,2.2-0.7,3.2-0.1l2.8,1.7c0.5,0.3,1.1,0.1,1.4-0.3 C24.1,19.1,24,18.5,23.5,18.2z"></path> <path data-color="color-2" fill="currentColor" d="M23.5,12.2l-2.8-1.7c-1.7-1-3.7-0.9-5.3,0.1l-1.7,1.1c-1,0.7-2.3,0.7-3.3,0l-1.7-1.1C7.1,9.5,5,9.5,3.3,10.5 l-2.8,1.7c-0.5,0.3-0.6,0.9-0.3,1.4s0.9,0.6,1.4,0.3l2.8-1.7c1-0.6,2.2-0.6,3.2,0.1l1.7,1.1c0.8,0.6,1.8,0.8,2.8,0.8 c1,0,1.9-0.3,2.8-0.8l1.7-1.1c1-0.6,2.2-0.7,3.2-0.1l2.8,1.7c0.5,0.3,1.1,0.1,1.4-0.3C24.1,13.1,24,12.5,23.5,12.2z"></path></g></svg>