<svg id="nc_icon" version="1.1" xmlns="http://www.w3.org/2000/svg" xmlns:xlink="http://www.w3.org/1999/xlink" x="0px" y="0px" viewBox="0 0 24 24" xml:space="preserve" ><g class="nc-icon-wrapper" fill="currentColor"><path fill="currentColor" d="M23,4H12.5L9.8,0.4C9.611,0.148,9.314,0,9,0H1C0.447,0,0,0.447,0,1v22c0,0.553,0.447,1,1,1h22 c0.553,0,1-0.447,1-1V5C24,4.447,23.553,4,23,4z M14,19H8.5C6.57,19,5,17.43,5,15.5S6.57,12,8.5,12c0.303,0,0.6,0.039,0.887,0.116 C10.133,10.272,11.931,9,14,9c2.757,0,5,2.243,5,5S16.757,19,14,19z"></path></g></svg>