<svg id="nc_icon" version="1.1" xmlns="http://www.w3.org/2000/svg" xmlns:xlink="http://www.w3.org/1999/xlink" x="0px" y="0px" viewBox="0 0 24 24" xml:space="preserve" ><g class="nc-icon-wrapper" fill="currentColor"><path fill="currentColor" d="M23.805,8.406C23.616,8.15,23.317,8,23,8h-2V5c0-0.552-0.447-1-1-1h-9.465L8.832,1.445 C8.646,1.167,8.334,1,8,1H1C0.447,1,0,1.448,0,2v19.978c-0.002,0.074,0.005,0.148,0.02,0.22c0.029,0.145,0.09,0.279,0.174,0.395 c0.087,0.118,0.199,0.217,0.333,0.289c0.099,0.053,0.208,0.091,0.323,0.108C0.9,22.997,0.95,23,1,23c0.008,0,0.016,0,0.023,0H19 c0.439,0,0.827-0.286,0.956-0.706l4-13C24.049,8.991,23.993,8.661,23.805,8.406z M2,3h5.465l1.703,2.555C9.354,5.833,9.666,6,10,6h9 v2H5C4.561,8,4.173,8.286,4.044,8.706L2,15.35V3z"></path></g></svg>