<svg id="nc_icon" version="1.1" xmlns="http://www.w3.org/2000/svg" xmlns:xlink="http://www.w3.org/1999/xlink" x="0px" y="0px" viewBox="0 0 24 24" xml:space="preserve" ><g class="nc-icon-wrapper" fill="currentColor"><path fill="currentColor" d="M23,4H12.5L9.8,0.4C9.611,0.148,9.315,0,9,0H1C0.448,0,0,0.447,0,1v22c0,0.553,0.448,1,1,1h22 c0.552,0,1-0.447,1-1V5C24,4.447,23.552,4,23,4z M12,8c1.657,0,3,1.343,3,3s-1.343,3-3,3s-3-1.343-3-3S10.343,8,12,8z M17,20H7 v-1.558c0-0.894,0.588-1.686,1.45-1.924C9.378,16.262,10.656,16,12,16s2.622,0.262,3.55,0.518c0.862,0.238,1.45,1.03,1.45,1.924V20z "></path></g></svg>