<svg id="nc_icon" version="1.1" xmlns="http://www.w3.org/2000/svg" xmlns:xlink="http://www.w3.org/1999/xlink" x="0px" y="0px" viewBox="0 0 24 24" xml:space="preserve" ><g class="nc-icon-wrapper" fill="currentColor"><path fill="currentColor" d="M23,4H12.5L9.8,0.4C9.611,0.148,9.315,0,9,0H1C0.448,0,0,0.447,0,1v22c0,0.553,0.448,1,1,1h22 c0.552,0,1-0.447,1-1V5C24,4.447,23.552,4,23,4z M10.707,17.707C10.512,17.902,10.256,18,10,18s-0.512-0.098-0.707-0.293L6.586,15 L8,13.586l2,2l6-6L17.414,11L10.707,17.707z"></path></g></svg>