<svg id="nc_icon" version="1.1" xmlns="http://www.w3.org/2000/svg" xmlns:xlink="http://www.w3.org/1999/xlink" x="0px" y="0px" viewBox="0 0 24 24" xml:space="preserve" ><g class="nc-icon-wrapper" fill="currentColor"><path fill="currentColor" d="M23,4H12.5L9.8,0.4C9.611,0.148,9.314,0,9,0H1C0.447,0,0,0.447,0,1v22c0,0.553,0.447,1,1,1h22 c0.553,0,1-0.447,1-1V5C24,4.447,23.553,4,23,4z M12.242,13.03C13.739,13.404,16,13.969,16,16.5c0,1.758-1.308,3.204-3,3.449V22h-2 v-2.051c-1.692-0.245-3-1.691-3-3.449h2c0,0.827,0.673,1.5,1.5,1.5h1c0.827,0,1.5-0.673,1.5-1.5c0-0.842-0.505-1.096-2.242-1.53 C10.261,14.596,8,14.031,8,11.5c0-1.758,1.308-3.204,3-3.449V6h2v2.051c1.692,0.245,3,1.691,3,3.449h-2c0-0.827-0.673-1.5-1.5-1.5 h-1c-0.827,0-1.5,0.673-1.5,1.5C10,12.342,10.505,12.596,12.242,13.03z"></path></g></svg>