<svg id="nc_icon" version="1.1" xmlns="http://www.w3.org/2000/svg" xmlns:xlink="http://www.w3.org/1999/xlink" x="0px" y="0px" viewBox="0 0 24 24" xml:space="preserve" ><g class="nc-icon-wrapper" fill="currentColor"><path fill="currentColor" d="M23,4H12.5L9.8,0.4C9.611,0.148,9.315,0,9,0H1C0.448,0,0,0.447,0,1v22c0,0.553,0.448,1,1,1h22 c0.552,0,1-0.447,1-1V5C24,4.447,23.552,4,23,4z M12,20c-0.552,0-1-0.448-1-1c0-0.552,0.448-1,1-1c0.552,0,1,0.448,1,1 C13,19.552,12.552,20,12,20z M13,16h-2V8h2V16z"></path></g></svg>