<svg id="nc_icon" version="1.1" xmlns="http://www.w3.org/2000/svg" xmlns:xlink="http://www.w3.org/1999/xlink" x="0px" y="0px" viewBox="0 0 24 24" xml:space="preserve" ><g class="nc-icon-wrapper" fill="currentColor"><path fill="currentColor" d="M8.187,14.138L10.618,19h2.764l2.432-4.862L12,9.562L8.187,14.138z M13,14c0,0.552-0.448,1-1,1s-1-0.448-1-1 c0-0.552,0.448-1,1-1S13,13.448,13,14z"></path> <path fill="currentColor" d="M23,4H12.5L9.8,0.4C9.611,0.148,9.314,0,9,0H1C0.447,0,0,0.447,0,1v22c0,0.553,0.447,1,1,1h22 c0.553,0,1-0.447,1-1V5C24,4.447,23.553,4,23,4z M17.895,14.447L15.618,19H17v2H7v-2h1.382l-2.276-4.553 c-0.178-0.355-0.128-0.782,0.126-1.088l5-6c0.381-0.455,1.156-0.455,1.537,0l5,6C18.022,13.665,18.072,14.092,17.895,14.447z"></path></g></svg>