<svg id="nc_icon" version="1.1" xmlns="http://www.w3.org/2000/svg" xmlns:xlink="http://www.w3.org/1999/xlink" x="0px" y="0px" viewBox="0 0 24 24" xml:space="preserve" ><g class="nc-icon-wrapper" fill="currentColor"><path fill="currentColor" d="M23,4H12.5L9.8,0.4C9.611,0.148,9.314,0,9,0H1C0.447,0,0,0.447,0,1v22c0,0.553,0.447,1,1,1h22 c0.553,0,1-0.447,1-1V5C24,4.447,23.553,4,23,4z M12,20c-0.552,0-1-0.448-1-1c0-0.552,0.448-1,1-1s1,0.448,1,1 C13,19.552,12.552,20,12,20z M13,14.868V17h-2v-3c0-0.553,0.447-1,1-1c1.065,0,2-0.935,2-2s-0.935-2-2-2 c-0.812,0-1.592,0.672-1.876,1.321l-0.4,0.916l-1.832-0.801l0.4-0.916C8.93,8.061,10.489,7,12,7c2.168,0,4,1.832,4,4 C16,12.824,14.703,14.41,13,14.868z"></path></g></svg>