<svg id="nc_icon" version="1.1" xmlns="http://www.w3.org/2000/svg" xmlns:xlink="http://www.w3.org/1999/xlink" x="0px" y="0px" viewBox="0 0 24 24" xml:space="preserve" ><g class="nc-icon-wrapper" fill="currentColor"><path fill="currentColor" d="M23,4H12.5L9.8,0.4C9.611,0.148,9.315,0,9,0H1C0.448,0,0,0.447,0,1v22c0,0.553,0.448,1,1,1h22 c0.552,0,1-0.447,1-1V5C24,4.447,23.552,4,23,4z M10,20H7v-3c0-0.164,0.052-0.317,0.127-0.459l3.332,3.332 C10.317,19.948,10.164,20,10,20z M18.707,11.707L11.914,18.5L8.5,15.086l6.793-6.793c0.391-0.391,1.023-0.391,1.414,0l2,2 C19.098,10.684,19.098,11.316,18.707,11.707z"></path></g></svg>