<svg id="nc_icon" version="1.1" xmlns="http://www.w3.org/2000/svg" xmlns:xlink="http://www.w3.org/1999/xlink" x="0px" y="0px" viewBox="0 0 24 24" xml:space="preserve" ><g class="nc-icon-wrapper" fill="currentColor"><path fill="currentColor" d="M23,4H12.5L9.8,0.4C9.611,0.148,9.314,0,9,0H1C0.447,0,0,0.447,0,1v22c0,0.553,0.447,1,1,1h22 c0.553,0,1-0.447,1-1V5C24,4.447,23.553,4,23,4z M9.5,8c1.381,0,2.5,1.119,2.5,2.5c0,1.381-1.119,2.5-2.5,2.5S7,11.881,7,10.5 C7,9.119,8.119,8,9.5,8z M14,19H5v-1.164c0-0.604,0.265-1.179,0.738-1.554C6.461,15.708,7.715,15,9.5,15s3.039,0.708,3.762,1.282 C13.735,16.657,14,17.232,14,17.836V19z M13.386,12.727C13.766,12.068,14,11.314,14,10.5s-0.234-1.568-0.614-2.227 C13.723,8.104,14.098,8,14.5,8c1.381,0,2.5,1.119,2.5,2.5c0,1.381-1.119,2.5-2.5,2.5C14.098,13,13.723,12.896,13.386,12.727z M19,19 h-3v-1.164c0-1.085-0.444-2.082-1.195-2.821c1.62,0.076,2.777,0.727,3.457,1.267C18.735,16.657,19,17.232,19,17.836V19z"></path></g></svg>