<svg id="nc_icon" version="1.1" xmlns="http://www.w3.org/2000/svg" xmlns:xlink="http://www.w3.org/1999/xlink" x="0px" y="0px" viewBox="0 0 24 24" xml:space="preserve" ><g class="nc-icon-wrapper" fill="currentColor"><path fill="currentColor" d="M23,4H12.5L9.8,0.4C9.611,0.148,9.314,0,9,0H1C0.447,0,0,0.447,0,1v22c0,0.553,0.447,1,1,1h22 c0.553,0,1-0.447,1-1V5C24,4.447,23.553,4,23,4z M17,19c0,0.553-0.447,1-1,1H8c-0.553,0-1-0.447-1-1v-4c0-0.553,0.447-1,1-1h1v-3 c0-1.654,1.346-3,3-3s3,1.346,3,3v3h1c0.553,0,1,0.447,1,1V19z"></path> <path fill="currentColor" d="M13,11c0-0.552-0.448-1-1-1s-1,0.448-1,1v3h2V11z"></path></g></svg>