<svg id="nc_icon" version="1.1" xmlns="http://www.w3.org/2000/svg" xmlns:xlink="http://www.w3.org/1999/xlink" x="0px" y="0px" viewBox="0 0 24 24" xml:space="preserve" ><g class="nc-icon-wrapper" fill="currentColor"><path fill="currentColor" d="M22.95801,22.71289l-3-10C19.83105,12.28955,19.44141,12,19,12H5 c-0.44141,0-0.83105,0.28955-0.95801,0.71289l-3,10c-0.09082,0.30273-0.0332,0.63037,0.15527,0.88428 C1.38672,23.85059,1.68359,24,2,24h20c0.31641,0,0.61328-0.14941,0.80273-0.40283 C22.99121,23.34326,23.04883,23.01562,22.95801,22.71289z"></path> <path data-color="color-2" fill="currentColor" d="M14.66998,5.60419L12.15302,10h4.88885l1.30988-2.28766 c0.66626,0.38153,1.47815,0.50879,2.27759,0.2915c1.59882-0.43457,2.54266-2.08295,2.10809-3.68182 s-2.08295-2.54266-3.68182-2.10815c-0.43457-1.59882-2.08295-2.54266-3.68182-2.10809 c-1.59882,0.43457-2.54266,2.08295-2.10809,3.68182C13.48297,4.58704,14.00366,5.22278,14.66998,5.60419z"></path></g></svg>