<svg id="nc_icon" version="1.1" xmlns="http://www.w3.org/2000/svg" xmlns:xlink="http://www.w3.org/1999/xlink" x="0px" y="0px" viewBox="0 0 24 24" xml:space="preserve" ><g class="nc-icon-wrapper" fill="currentColor"><path fill="currentColor" d="M23.9960938,10.9101562C23.4438477,4.7924805,18.1748047,0,12,0 C5.7514648,0,0.6162109,4.6904297,0.0541992,10.9101562c-0.0249023,0.2797852,0.0683594,0.5571289,0.2578125,0.7641602 C0.5014648,11.8818359,0.7695312,12,1.050293,12h4.946106c-0.0117188,1.1497192-0.0669556,2.5960083-0.3289185,4H0v7h1 c2.1035156,0,4.887207-0.8520508,6.203125-4.9116211C7.2124023,18.059082,7.222168,18.0292969,7.2314453,18H11v1 c0,2.7568359,2.2431641,5,5,5s5-2.2431641,5-5v-1c0-0.6079102,0.6074219-1.2275391,1.2504883-1.8837891 C23.0708008,15.2792969,24,14.3305664,24,13L23.9960938,10.9101562z M2,20.9082031V18h3.1118164 C4.4506836,19.6791992,3.4423828,20.6245117,2,20.9082031z M7.6982422,16c0.2376709-1.4467773,0.2873535-2.8634644,0.2979736-4H10 c0.5512695,0,1,0.4487305,1,1v3H7.6982422z"></path></g></svg>