<svg id="nc_icon" version="1.1" xmlns="http://www.w3.org/2000/svg" xmlns:xlink="http://www.w3.org/1999/xlink" x="0px" y="0px" viewBox="0 0 24 24" xml:space="preserve" ><g class="nc-icon-wrapper" fill="currentColor"><path data-color="color-2" fill="currentColor" d="M2,24c-0.6,0-1-0.4-1-1V1c0-0.6,0.4-1,1-1s1,0.4,1,1v22C3,23.6,2.6,24,2,24z"></path> <polygon data-color="color-2" fill="currentColor" points="12,15 17,14.1 17,3.9 12,3 "></polygon> <path fill="currentColor" d="M23.2,5L19,4.3v9.4l4.2-0.7c0.5-0.1,0.8-0.5,0.8-1V6C24,5.5,23.7,5.1,23.2,5z"></path> <path fill="currentColor" d="M10,2.7L6.2,2C5.9,2,5.6,2,5.4,2.2C5.1,2.4,5,2.7,5,3v12c0,0.3,0.1,0.6,0.4,0.8C5.5,15.9,5.8,16,6,16 c0.1,0,0.1,0,0.2,0l3.8-0.7V2.7z"></path></g></svg>