<svg id="nc_icon" version="1.1" xmlns="http://www.w3.org/2000/svg" xmlns:xlink="http://www.w3.org/1999/xlink" x="0px" y="0px" viewBox="0 0 24 24" xml:space="preserve" ><g class="nc-icon-wrapper" fill="currentColor"><path fill="currentColor" d="M22,10l-4-5l-4,5h3v2.91c0,1.525-0.847,2.896-2.211,3.578L13,17.382V5h3l-4-5L8,5h3v14v0.382l-1.789-0.895 C7.847,17.806,7,16.435,7,14.91V13h3L6,8l-4,5h3v1.91c0,2.288,1.271,4.344,3.316,5.367L11,21.618V24h2v-3v-1.382l2.684-1.342 C17.729,17.253,19,15.197,19,12.91V10H22z"></path></g></svg>