<svg id="nc_icon" version="1.1" xmlns="http://www.w3.org/2000/svg" xmlns:xlink="http://www.w3.org/1999/xlink" x="0px" y="0px" viewBox="0 0 24 24" xml:space="preserve" ><g class="nc-icon-wrapper" fill="currentColor"><path data-color="color-2" fill="currentColor" d="M21,24h-9c-0.552,0-1-0.448-1-1v-2c0-0.552,0.448-1,1-1h9c0.552,0,1,0.448,1,1v2 C22,23.552,21.552,24,21,24z"></path> <path fill="currentColor" d="M21,0H3C2.448,0,2,0.448,2,1v2c0,0.552,0.448,1,1,1h18c0.552,0,1-0.448,1-1V1C22,0.448,21.552,0,21,0z"></path> <path fill="currentColor" d="M21,6H3C2.448,6,2,6.448,2,7v10c0,0.552,0.448,1,1,1h18c0.552,0,1-0.448,1-1V7C22,6.448,21.552,6,21,6z"></path></g></svg>