<svg id="nc_icon" version="1.1" xmlns="http://www.w3.org/2000/svg" xmlns:xlink="http://www.w3.org/1999/xlink" x="0px" y="0px" viewBox="0 0 24 24" xml:space="preserve" ><g class="nc-icon-wrapper" fill="currentColor"><path data-color="color-2" fill="currentColor" d="M23,22H1c-0.553,0-1,0.448-1,1s0.447,1,1,1h22c0.553,0,1-0.448,1-1S23.553,22,23,22z"></path> <path data-color="color-2" fill="currentColor" d="M1,16h8v-2H1c-0.553,0-1,0.448-1,1S0.447,16,1,16z"></path> <path data-color="color-2" fill="currentColor" d="M23,14h-8v2h8c0.553,0,1-0.448,1-1S23.553,14,23,14z"></path> <polygon fill="currentColor" points="11,20 13,20 13,7 18,7 12,0 6,7 11,7 "></polygon></g></svg>