<svg id="nc_icon" version="1.1" xmlns="http://www.w3.org/2000/svg" xmlns:xlink="http://www.w3.org/1999/xlink" x="0px" y="0px" viewBox="0 0 24 24" xml:space="preserve" ><g class="nc-icon-wrapper" fill="currentColor"><path data-color="color-2" fill="currentColor" d="M16.295,10.044c-0.278-0.086-0.583-0.045-0.832,0.112l-11,7 c-0.375,0.239-0.547,0.696-0.423,1.124C4.164,18.707,4.555,19,5,19h14c0.336,0,0.65-0.169,0.835-0.45 c0.185-0.28,0.217-0.635,0.084-0.944l-3-7C16.804,10.336,16.575,10.131,16.295,10.044z"></path> <path fill="currentColor" d="M23,5h-5.586l-4.707-4.707c-0.391-0.391-1.023-0.391-1.414,0L6.586,5H1C0.448,5,0,5.448,0,6v16 c0,0.552,0.448,1,1,1h22c0.552,0,1-0.448,1-1V6C24,5.448,23.552,5,23,5z M12,2.414L14.586,5H9.414L12,2.414z M22,21H2V7h20V21z"></path> <circle data-color="color-2" fill="currentColor" cx="6.5" cy="10.5" r="1.5"></circle></g></svg>