<svg id="nc_icon" version="1.1" xmlns="http://www.w3.org/2000/svg" xmlns:xlink="http://www.w3.org/1999/xlink" x="0px" y="0px" viewBox="0 0 24 24" xml:space="preserve" ><g class="nc-icon-wrapper" fill="currentColor"><path data-color="color-2" fill="currentColor" d="M20,5V3c0-1.1046143-0.8954468-2-2-2H6C4.8954468,1,4,1.8953857,4,3v2H20z"></path> <path fill="currentColor" d="M23,7c-0.5527344,0-1,0.4477539-1,1v1h-2V7H4v2H2V8c0-0.5522461-0.4472656-1-1-1S0,7.4477539,0,8v4 c0,0.5522461,0.4472656,1,1,1s1-0.4477539,1-1v-1h2v4c0,4.4182739,3.5817261,8,8,8s8-3.5817261,8-8v-4h2v1 c0,0.5522461,0.4472656,1,1,1s1-0.4477539,1-1V8C24,7.4477539,23.5527344,7,23,7z M7,12.5C7,11.6715698,7.6715698,11,8.5,11 s1.5,0.6715698,1.5,1.5S9.3284302,14,8.5,14S7,13.3284302,7,12.5z M15,19H9v-2h6V19z M15.5,14c-0.8284302,0-1.5-0.6715698-1.5-1.5 s0.6715698-1.5,1.5-1.5s1.5,0.6715698,1.5,1.5S16.3284302,14,15.5,14z"></path></g></svg>