<svg id="nc_icon" version="1.1" xmlns="http://www.w3.org/2000/svg" xmlns:xlink="http://www.w3.org/1999/xlink" x="0px" y="0px" viewBox="0 0 24 24" xml:space="preserve" ><g class="nc-icon-wrapper" fill="currentColor"><path fill="currentColor" d="M20,5v2h2v8.5c0,0.82715-0.67285,1.5-1.5,1.5S19,16.32715,19,15.5V13V4c0-1.6543-1.3457-3-3-3H5 C3.3457,1,2,2.3457,2,4v17H1c-0.55225,0-1,0.44775-1,1s0.44775,1,1,1h19c0.55225,0,1-0.44775,1-1s-0.44775-1-1-1h-1v-2.35107 C19.45642,18.86743,19.96118,19,20.5,19c1.92969,0,3.5-1.57031,3.5-3.5V5H20z M15,11H6V5h9V11z"></path></g></svg>