<svg id="nc_icon" version="1.1" xmlns="http://www.w3.org/2000/svg" xmlns:xlink="http://www.w3.org/1999/xlink" x="0px" y="0px" viewBox="0 0 24 24" xml:space="preserve" ><g class="nc-icon-wrapper" fill="currentColor"><path d="M21,3H11a1,1,0,0,0-.707.293l-6,6A1,1,0,0,0,4,10V22a1,1,0,0,0,1,1H23a1,1,0,0,0,1-1V6A3,3,0,0,0,21,3ZM20,8H14a1,1,0,0,1,0-2h6a1,1,0,0,1,0,2Z" fill="currentColor"></path>  <path d="M4.909,5.115l.337.4L6.664,4.093l-.229-.271C5,2.128,3.527,1,1,1H0V3H1C2.78,3,3.747,3.743,4.909,5.115Z" fill="currentColor" data-color="color-2"></path></g></svg>