<svg id="nc_icon" xmlns="http://www.w3.org/2000/svg" xmlns:xlink="http://www.w3.org/1999/xlink" x="0px" y="0px" viewBox="0 0 24 24" ><g class="nc-icon-wrapper" fill="currentColor"><path data-color="color-2" fill="currentColor" d="M23,0h-9v2h6.586l-6.293,6.293l1.414,1.414L22,3.414V10h2V1C24,0.447,23.552,0,23,0z"></path> <path fill="currentColor" d="M24,23v-9h-2v6.586l-6.293-6.293l-1.414,1.414L20.586,22H14v2h9C23.553,24,24,23.552,24,23z"></path> <path data-color="color-2" fill="currentColor" d="M1,24h9v-2H3.414l6.293-6.293l-1.414-1.414L2,20.586V14H0v9C0,23.553,0.448,24,1,24z"></path> <path fill="currentColor" d="M0,1v9h2V3.414l6.293,6.293l1.414-1.414L3.414,2H10V0H1C0.447,0,0,0.448,0,1z"></path></g></svg>