<svg id="nc_icon" version="1.1" xmlns="http://www.w3.org/2000/svg" xmlns:xlink="http://www.w3.org/1999/xlink" x="0px" y="0px" viewBox="0 0 24 24" xml:space="preserve" ><g class="nc-icon-wrapper" fill="currentColor"><path fill="currentColor" d="M24,4c0-3.158-7.543-4-12-4S0,0.842,0,4c0,0.485,0.195,0.91,0.513,1.291L9,16.333V23c0,0.552,0.448,1,1,1h4 c0.552,0,1-0.448,1-1v-6.667l8.466-11.017C23.797,4.929,24,4.496,24,4z M12,2c5.925,0,9.582,1.278,9.986,2 C21.582,4.722,17.925,6,12,6C5.957,6,2.273,4.67,1.994,4.042C2.273,3.33,5.957,2,12,2z"></path></g></svg>