<svg id="nc_icon" version="1.1" xmlns="http://www.w3.org/2000/svg" xmlns:xlink="http://www.w3.org/1999/xlink" x="0px" y="0px" viewBox="0 0 24 24" xml:space="preserve" ><g class="nc-icon-wrapper" fill="currentColor"><rect x="7" y="7" fill="currentColor" width="2" height="2"></rect> <rect x="15" y="15" fill="currentColor" width="2" height="2"></rect> <rect x="7" y="15" fill="currentColor" width="2" height="2"></rect> <path fill="currentColor" d="M22,0H2C1.447,0,1,0.447,1,1v22c0,0.553,0.447,1,1,1h20c0.553,0,1-0.447,1-1V1C23,0.447,22.553,0,22,0z M11,19H5v-6h6V19z M11,11H5V5h6V11z M19,19h-6v-6h6V19z M19,11h-6V5h6V11z"></path> <rect x="15" y="7" fill="currentColor" width="2" height="2"></rect></g></svg>