<svg id="nc_icon" version="1.1" xmlns="http://www.w3.org/2000/svg" xmlns:xlink="http://www.w3.org/1999/xlink" x="0px" y="0px" viewBox="0 0 24 24" xml:space="preserve" ><g class="nc-icon-wrapper" fill="currentColor"><path fill="currentColor" d="M23,5c-0.6,0-1,0.4-1,1v5h-2V8c0-4.4-3.6-8-8-8C7.6,0,4,3.6,4,8v3H2V6c0-0.6-0.4-1-1-1C0.4,5,0,5.4,0,6v6 c0,0.6,0.4,1,1,1h3v10c0,0.6,0.4,1,1,1h14c0.6,0,1-0.4,1-1V13h3c0.6,0,1-0.4,1-1V6C24,5.4,23.6,5,23,5z M8,7h3v2H8V7z M16,14h-3v2 h-2v-2H8v-2h3h2h3V14z M16,9h-3V7h3V9z"></path></g></svg>