<svg id="nc_icon" version="1.1" xmlns="http://www.w3.org/2000/svg" xmlns:xlink="http://www.w3.org/1999/xlink" x="0px" y="0px" viewBox="0 0 24 24" xml:space="preserve" ><g class="nc-icon-wrapper" fill="currentColor"><path fill="currentColor" d="M12,0C6.4858398,0,2,4.4858398,2,10v12c0,0.3466797,0.1796875,0.668457,0.4741211,0.8505859 c0.2954102,0.1821289,0.6630859,0.1982422,0.9731445,0.0439453l3.5981445-1.7993164l4.5830078,1.8334961 c0.2392578,0.0947266,0.5039062,0.0947266,0.7431641,0l4.5830078-1.8334961l3.5981445,1.7993164 C20.6938477,22.9648438,20.847168,23,21,23c0.1826172,0,0.3652344-0.050293,0.5258789-0.1494141 C21.8203125,22.668457,22,22.3466797,22,22V10C22,4.4858398,17.5141602,0,12,0z M8,13c-1.1045532,0-2-0.8954468-2-2 c0-1.1046143,0.8954468-2,2-2s2,0.8953857,2,2C10,12.1045532,9.1045532,13,8,13z M16,13c-1.1045532,0-2-0.8954468-2-2 c0-1.1046143,0.8954468-2,2-2s2,0.8953857,2,2C18,12.1045532,17.1045532,13,16,13z"></path></g></svg>