<svg id="nc_icon" version="1.1" xmlns="http://www.w3.org/2000/svg" xmlns:xlink="http://www.w3.org/1999/xlink" x="0px" y="0px" viewBox="0 0 24 24" xml:space="preserve" ><g class="nc-icon-wrapper" fill="currentColor"><path fill="currentColor" d="M23,4h-4.1842651C18.9277954,3.6856689,19,3.352356,19,3c0-1.6542969-1.3457031-3-3-3 c-1.9838867,0-3.243042,1.2846069-4,2.5198975C11.243042,1.2846069,9.9838867,0,8,0C6.3457031,0,5,1.3457031,5,3 c0,0.352356,0.0722656,0.6856689,0.1843262,1H1C0.4472656,4,0,4.4477539,0,5v3c0,0.5522461,0.4472656,1,1,1h22 c0.5527344,0,1-0.4477539,1-1V5C24,4.4477539,23.5527344,4,23,4z M16,2c0.5517578,0,1,0.4487305,1,1s-0.4482422,1-1,1h-2.5429688 C13.9199219,3.0849609,14.7353516,2,16,2z M7,3c0-0.5512695,0.4482422-1,1-1c1.2646484,0,2.0800781,1.0849609,2.5429688,2H8 C7.4482422,4,7,3.5512695,7,3z"></path> <polygon fill="currentColor" points="22,11 18.4140625,11 5.4140625,24 10.5859375,24 22,12.5859375 "></polygon> <path data-color="color-2" fill="currentColor" d="M10.4140625,11L2,19.4140625V23c0,0.4301147,0.2744141,0.7892456,0.6555176,0.9304199 L15.5859375,11H10.4140625z"></path> <polygon fill="currentColor" points="7.5859375,11 2,11 2,16.5859375 "></polygon> <path data-color="color-2" fill="currentColor" d="M13.4140625,24H21c0.5527344,0,1-0.4477539,1-1v-7.5859375L13.4140625,24z"></path></g></svg>