<svg id="nc_icon" version="1.1" xmlns="http://www.w3.org/2000/svg" xmlns:xlink="http://www.w3.org/1999/xlink" x="0px" y="0px" viewBox="0 0 24 24" xml:space="preserve" ><g class="nc-icon-wrapper" fill="currentColor"><path data-color="color-2" fill="currentColor" d="M23,4h-3.1842651C19.9277954,3.6856689,20,3.352356,20,3c0-1.6542969-1.3457031-3-3-3 c-1.9838867,0-3.243042,1.2846069-4,2.5198975C12.243042,1.2846069,10.9838867,0,9,0C7.3457031,0,6,1.3457031,6,3 c0,0.352356,0.0722656,0.6856689,0.1843262,1H3C2.4472656,4,2,4.4477539,2,5v2c0,0.5522461,0.4472656,1,1,1h20 c0.5527344,0,1-0.4477539,1-1V5C24,4.4477539,23.5527344,4,23,4z M17,2c0.5517578,0,1,0.4487305,1,1s-0.4482422,1-1,1h-2.5429688 C14.9199219,3.0849609,15.7353516,2,17,2z M8,3c0-0.5512695,0.4482422-1,1-1c1.2646484,0,2.0800781,1.0849609,2.5429688,2H9 C8.4482422,4,8,3.5512695,8,3z"></path> <path fill="currentColor" d="M22.9580078,18.7128906c-0.1275635-0.4257202-0.4538574-1.0199585-0.9916382-1.5460815 C21.9761963,17.1104736,22,17.0591431,22,17v-6c0-0.5522461-0.4472656-1-1-1H5c-0.5527344,0-1,0.4477539-1,1v1H0v8.0727539 l8.5498047,3.5639648c0.5224609,0.1958008,1.0957031,0.2973633,1.7021484,0.2973633 c0.4785156-0.0004883,0.9765625-0.0634766,1.4863281-0.1928711l11.4921875-4.1201172L22.9580078,18.7128906z M11.1582031,21.8295898 c-0.6708984,0.1674805-1.3466797,0.1445312-1.8730469-0.0522461L2,18.7397461V14h3 c1.3291016,0,2.4873047,0.5722656,3.1777344,1.5693359L8.4765625,16H11c1.3037109,0,2.4160156,0.8359375,2.8291016,2H8v2h8v-1 c0-0.3422852-0.0341797-0.6767578-0.1005859-1H18h1c0.6884766,0,1.1582031,0.2241211,1.4716797,0.4863281L11.1582031,21.8295898z"></path></g></svg>