<svg id="nc_icon" version="1.1" xmlns="http://www.w3.org/2000/svg" xmlns:xlink="http://www.w3.org/1999/xlink" x="0px" y="0px" viewBox="0 0 24 24" xml:space="preserve" ><g class="nc-icon-wrapper" fill="currentColor"><path data-color="color-2" fill="currentColor" d="M23,4h-4.184C18.928,3.686,19,3.352,19,3c0-1.654-1.346-3-3-3c-1.974,0-3.238,1.303-4,2.545 C11.239,1.303,9.974,0,8,0C6.346,0,5,1.346,5,3c0,0.352,0.072,0.686,0.184,1H1C0.448,4,0,4.447,0,5v2c0,0.553,0.448,1,1,1h22 c0.552,0,1-0.447,1-1V5C24,4.447,23.552,4,23,4z M16,2c0.551,0,1,0.448,1,1s-0.449,1-1,1h-2.531C13.939,3.083,14.757,2,16,2z M7,3 c0-0.552,0.449-1,1-1c1.243,0,2.061,1.083,2.531,2H8C7.449,4,7,3.552,7,3z"></path> <path fill="currentColor" d="M11,10H2v13c0,0.552,0.448,1,1,1h8V10z"></path> <path fill="currentColor" d="M22,10h-9v14h8c0.552,0,1-0.448,1-1V10z"></path></g></svg>