<svg id="nc_icon" version="1.1" xmlns="http://www.w3.org/2000/svg" xmlns:xlink="http://www.w3.org/1999/xlink" x="0px" y="0px" viewBox="0 0 24 24" xml:space="preserve" ><g class="nc-icon-wrapper" fill="currentColor"><path fill="currentColor" d="M20,1h-1v2h1c1.103,0,2,0.897,2,2v8.261C21.048,12.474,19.828,12,18.5,12c-1.98,0-3.714,1.055-4.682,2.63 C13.312,14.241,12.686,14,12,14s-1.312,0.241-1.818,0.63C9.214,13.055,7.48,12,5.5,12c-1.328,0-2.548,0.474-3.5,1.261V5 c0-1.103,0.897-2,2-2h1V1H4C1.794,1,0,2.794,0,5v12.5C0,20.532,2.468,23,5.5,23c2.863,0,5.221-2.201,5.475-5H11v-1 c0-0.552,0.448-1,1-1s1,0.448,1,1v1h0.025c0.254,2.799,2.611,5,5.475,5c3.032,0,5.5-2.468,5.5-5.5V5C24,2.794,22.206,1,20,1z"></path></g></svg>