<svg id="nc_icon" version="1.1" xmlns="http://www.w3.org/2000/svg" xmlns:xlink="http://www.w3.org/1999/xlink" x="0px" y="0px" viewBox="0 0 24 24" xml:space="preserve" ><g class="nc-icon-wrapper" fill="currentColor"><circle data-color="color-2" fill="currentColor" cx="11" cy="9" r="7"></circle> <path fill="currentColor" d="M17.602,0.21c-0.442-0.331-1.068-0.243-1.4,0.199c-0.332,0.442-0.242,1.068,0.199,1.4 C18.688,3.527,20,6.148,20,9c0,4.962-4.038,9-9,9c-2.852,0-5.473-1.312-7.19-3.6c-0.332-0.441-0.958-0.53-1.4-0.199 c-0.441,0.332-0.531,0.958-0.199,1.4c1.897,2.525,4.697,4.065,7.79,4.341V22H6c-0.552,0-1,0.448-1,1s0.448,1,1,1h10 c0.552,0,1-0.448,1-1s-0.448-1-1-1h-4v-2.051C17.598,19.442,22,14.728,22,9C22,5.513,20.397,2.309,17.602,0.21z"></path></g></svg>