<svg id="nc_icon" version="1.1" xmlns="http://www.w3.org/2000/svg" xmlns:xlink="http://www.w3.org/1999/xlink" x="0px" y="0px" viewBox="0 0 24 24" xml:space="preserve" ><g class="nc-icon-wrapper" fill="currentColor"><path fill="currentColor" d="M2,10c0-4.411,3.589-8,8-8c3.387,0,6.419,2.145,7.546,5.336l0.333,0.942l1.886-0.665L19.432,6.67 C18.023,2.681,14.233,0,10,0C4.486,0,0,4.486,0,10c0,4.229,2.678,8.019,6.663,9.43l0.943,0.334l0.667-1.885l-0.942-0.334 C4.142,16.416,2,13.384,2,10z"></path> <path fill="currentColor" d="M6,10c0-2.206,1.794-4,4-4c1.27,0,2.437,0.583,3.2,1.601l0.601,0.8L15.4,7.199l-0.6-0.8 C13.655,4.875,11.905,4,10,4c-3.309,0-6,2.691-6,6c0,1.879,0.898,3.674,2.403,4.803l0.8,0.601l1.2-1.601l-0.8-0.6 C6.584,12.438,6,11.271,6,10z"></path> <path data-color="color-2" fill="currentColor" d="M22.707,17.293L19.414,14l2.293-2.293c0.274-0.274,0.365-0.683,0.233-1.048 c-0.132-0.364-0.463-0.62-0.85-0.655l-11-1C9.799,8.978,9.503,9.083,9.293,9.293c-0.21,0.21-0.316,0.502-0.289,0.798l1,11 c0.035,0.386,0.291,0.718,0.656,0.85c0.364,0.132,0.773,0.042,1.047-0.233L14,19.414l3.293,3.293C17.488,22.902,17.744,23,18,23 s0.512-0.098,0.707-0.293l4-4C23.098,18.316,23.098,17.684,22.707,17.293z"></path></g></svg>