<svg id="nc_icon" version="1.1" xmlns="http://www.w3.org/2000/svg" xmlns:xlink="http://www.w3.org/1999/xlink" x="0px" y="0px" viewBox="0 0 24 24" xml:space="preserve" ><g class="nc-icon-wrapper" fill="currentColor"><path fill="currentColor" d="M6.172,14.561C6.358,14.835,6.668,15,7,15h10c0.332,0,0.642-0.165,0.828-0.439s0.224-0.624,0.101-0.932l-2-5 C15.776,8.249,15.409,8,15,8H9C8.591,8,8.224,8.249,8.071,8.629l-2,5C5.948,13.937,5.986,14.286,6.172,14.561z"></path> <rect data-color="color-2" y="11" fill="currentColor" width="4" height="2"></rect> <rect data-color="color-2" x="3.929" y="2.929" transform="matrix(0.707 -0.7072 0.7072 0.707 -2.0415 4.93)" fill="currentColor" width="2" height="4"></rect> <rect data-color="color-2" x="11" fill="currentColor" width="2" height="4"></rect> <rect data-color="color-2" x="17.071" y="3.929" transform="matrix(0.7072 -0.707 0.707 0.7072 2.099 14.926)" fill="currentColor" width="4" height="2"></rect> <rect data-color="color-2" x="20" y="11" fill="currentColor" width="4" height="2"></rect> <path fill="currentColor" d="M23.929,21.629l-2-5C21.776,16.249,21.409,16,21,16h-6c-0.409,0-0.776,0.249-0.929,0.629l-2,5 C12.023,21.749,12,22,12,22c0-0.125-0.023-0.251-0.071-0.371l-2-5C9.776,16.249,9.409,16,9,16H3c-0.409,0-0.776,0.249-0.929,0.629 l-2,5c-0.123,0.308-0.085,0.657,0.101,0.932S0.668,23,1,23h22c0.332,0,0.642-0.165,0.828-0.439S24.052,21.937,23.929,21.629z"></path></g></svg>