<svg id="nc_icon" version="1.1" xmlns="http://www.w3.org/2000/svg" xmlns:xlink="http://www.w3.org/1999/xlink" x="0px" y="0px" viewBox="0 0 24 24" xml:space="preserve" ><g class="nc-icon-wrapper" fill="currentColor"><path fill="currentColor" d="M16,4c1.487,0,2.865,0.47,4,1.264V1c0-0.553-0.447-1-1-1H1C0.447,0,0,0.447,0,1v22c0,0.553,0.447,1,1,1h18 c0.553,0,1-0.447,1-1v-4.758l-0.954-0.954C18.1,17.753,17.06,18,16,18c-3.859,0-7-3.141-7-7S12.141,4,16,4z M3,6h5v2H3V6z M3,11h4v2 H3V11z M9,18H3v-2h6V18z"></path> <path data-color="color-2" fill="currentColor" d="M23.707,16.293l-3.187-3.187C20.82,12.464,21,11.755,21,11c0-2.761-2.239-5-5-5s-5,2.239-5,5 s2.239,5,5,5c1.275,0,2.426-0.492,3.309-1.277l2.984,2.984C22.488,17.902,22.744,18,23,18s0.512-0.098,0.707-0.293 C24.098,17.316,24.098,16.684,23.707,16.293z M16,14c-1.657,0-3-1.343-3-3s1.343-3,3-3s3,1.343,3,3S17.657,14,16,14z"></path></g></svg>