<svg id="nc_icon" version="1.1" xmlns="http://www.w3.org/2000/svg" xmlns:xlink="http://www.w3.org/1999/xlink" x="0px" y="0px" viewBox="0 0 24 24" xml:space="preserve" ><g class="nc-icon-wrapper" fill="currentColor"><path fill="currentColor" d="M22,8c0-2.2-1.8-4-4-4c-1.2,0-2.3,0.5-3,1.4c-0.5-0.6-1.2-1-2-1.2C13,3,13.5,2.3,14.4,1.9 c0.5-0.2,0.8-0.8,0.6-1.3c-0.2-0.5-0.8-0.8-1.3-0.6C12,0.7,11,2.2,11,4.1c-0.8,0.2-1.5,0.6-2,1.2C8.3,4.5,7.2,4,6,4C3.8,4,2,5.8,2,8 c0,2.1,1.6,3.7,3.6,4C5.2,12.6,5,13.3,5,14c0,2.1,1.6,3.7,3.6,4C8.2,18.6,8,19.3,8,20c0,2.2,1.8,4,4,4s4-1.8,4-4 c0-0.7-0.2-1.4-0.6-2c2-0.2,3.6-1.9,3.6-4c0-0.7-0.2-1.4-0.6-2C20.4,11.7,22,10.1,22,8z"></path></g></svg>