<svg id="nc_icon" version="1.1" xmlns="http://www.w3.org/2000/svg" xmlns:xlink="http://www.w3.org/1999/xlink" x="0px" y="0px" viewBox="0 0 24 24" xml:space="preserve" ><g class="nc-icon-wrapper" fill="currentColor"><path fill="currentColor" d="M9,0H1C0.448,0,0,0.447,0,1v8c0,0.553,0.448,1,1,1h8c0.552,0,1-0.447,1-1V1C10,0.447,9.552,0,9,0z"></path> <path data-color="color-2" fill="currentColor" d="M23,0h-8c-0.552,0-1,0.447-1,1v8c0,0.553,0.448,1,1,1h8c0.552,0,1-0.447,1-1V1 C24,0.447,23.552,0,23,0z"></path> <path data-color="color-2" fill="currentColor" d="M9,14H1c-0.552,0-1,0.447-1,1v8c0,0.553,0.448,1,1,1h8c0.552,0,1-0.447,1-1v-8 C10,14.447,9.552,14,9,14z"></path> <path fill="currentColor" d="M23,14h-8c-0.552,0-1,0.447-1,1v8c0,0.553,0.448,1,1,1h8c0.552,0,1-0.447,1-1v-8C24,14.447,23.552,14,23,14z "></path></g></svg>