<svg id="nc_icon" version="1.1" xmlns="http://www.w3.org/2000/svg" xmlns:xlink="http://www.w3.org/1999/xlink" x="0px" y="0px" viewBox="0 0 24 24" xml:space="preserve" ><g class="nc-icon-wrapper" fill="currentColor"><rect x="1" y="1" fill="currentColor" width="3" height="3"></rect> <rect x="7" y="1" fill="currentColor" width="3" height="3"></rect> <rect x="13" y="1" fill="currentColor" width="3" height="3"></rect> <rect data-color="color-2" x="19" y="1" fill="currentColor" width="3" height="3"></rect> <rect x="1" y="7" fill="currentColor" width="3" height="3"></rect> <rect x="7" y="7" fill="currentColor" width="3" height="3"></rect> <rect data-color="color-2" x="13" y="7" fill="currentColor" width="3" height="3"></rect> <rect x="19" y="7" fill="currentColor" width="3" height="3"></rect> <rect x="1" y="13" fill="currentColor" width="3" height="3"></rect> <rect data-color="color-2" x="7" y="13" fill="currentColor" width="3" height="3"></rect> <rect x="13" y="13" fill="currentColor" width="3" height="3"></rect> <rect x="19" y="13" fill="currentColor" width="3" height="3"></rect> <rect data-color="color-2" x="1" y="19" fill="currentColor" width="3" height="3"></rect> <rect x="7" y="19" fill="currentColor" width="3" height="3"></rect> <rect x="13" y="19" fill="currentColor" width="3" height="3"></rect> <rect x="19" y="19" fill="currentColor" width="3" height="3"></rect></g></svg>