<svg id="nc_icon" version="1.1" xmlns="http://www.w3.org/2000/svg" xmlns:xlink="http://www.w3.org/1999/xlink" x="0px" y="0px" viewBox="0 0 24 24" xml:space="preserve" ><g class="nc-icon-wrapper" fill="currentColor"><rect data-color="color-2" x="9" y="17" fill="currentColor" width="6" height="6"></rect> <rect data-color="color-2" x="1" y="9" fill="currentColor" width="6" height="6"></rect> <rect data-color="color-2" x="17" y="9" fill="currentColor" width="6" height="6"></rect> <rect x="9" y="9" fill="currentColor" width="6" height="6"></rect> <path fill="currentColor" d="M7,1H2C1.448,1,1,1.448,1,2v5h6V1z"></path> <path fill="currentColor" d="M17,17v6h5c0.552,0,1-0.448,1-1v-5H17z"></path> <path fill="currentColor" d="M23,7V2c0-0.552-0.448-1-1-1h-5v6H23z"></path> <path fill="currentColor" d="M7,17H1v5c0,0.552,0.448,1,1,1h5V17z"></path> <rect data-color="color-2" x="9" y="1" fill="currentColor" width="6" height="6"></rect></g></svg>