<svg id="nc_icon" version="1.1" xmlns="http://www.w3.org/2000/svg" xmlns:xlink="http://www.w3.org/1999/xlink" x="0px" y="0px" viewBox="0 0 24 24" xml:space="preserve" ><g class="nc-icon-wrapper" fill="currentColor"><circle data-color="color-2" fill="currentColor" cx="17.5" cy="9.5" r="3.5"></circle> <circle data-color="color-2" fill="currentColor" cx="9.5" cy="3.5" r="3.5"></circle> <path fill="currentColor" d="M22.996,17.908C22.903,16.902,21.949,15,19,15h-5.002c-0.913-1.214-2.365-2-3.998-2H7.472 C5.94,11.372,3.06,11,2,11H0v8.618l7.369,3.685c0.561,0.28,1.174,0.421,1.79,0.421c0.485,0,0.973-0.088,1.436-0.265l12.471-4.797 L22.996,17.908z M9.877,21.592c-0.525,0.202-1.112,0.172-1.613-0.078L2,18.382V13c1.074,0,3.402,0.462,4.181,1.573L6.479,15H10 c1.304,0,2.416,0.836,2.829,2H7v2h8v-1c0-0.343-0.034-0.677-0.101-1H19c0.848,0,1.338,0.217,1.622,0.459L9.877,21.592z"></path></g></svg>