<svg id="nc_icon" version="1.1" xmlns="http://www.w3.org/2000/svg" xmlns:xlink="http://www.w3.org/1999/xlink" x="0px" y="0px" viewBox="0 0 24 24" xml:space="preserve" ><g class="nc-icon-wrapper" fill="currentColor"><path fill="currentColor" d="M17.002,5.076V3c0-0.552-0.447-1-1-1h-15c-0.553,0-1,0.448-1,1v4h8.101c0.152,0.743,0.482,1.416,0.924,2 H0.002v7c0,0.552,0.447,1,1,1h2.279l0.179,0.537c0.483,1.452,1.775,2.513,3.289,2.703C9.01,20.524,13.218,21,16.002,21 c2.159,0,4.167-0.827,5.653-2.327c1.533-1.548,2.366-3.644,2.345-5.901C23.961,8.836,20.908,5.582,17.002,5.076z M3,14v-2h5v2H3z M20.234,17.266C19.127,18.384,17.623,19,16.002,19c-2.675,0-6.789-0.466-9.003-0.744C6.267,18.164,5.672,17.682,5.405,17h10.597 c0.553,0,1-0.448,1-1H17v-3.185C15.84,12.4,15.002,11.301,15.002,10c0-0.552-0.447-1-1-1h-1c-1.304,0-2.416-0.836-2.829-2h5.772 c3.308,0,6.023,2.598,6.055,5.791C22.017,14.51,21.39,16.1,20.234,17.266z"></path></g></svg>