<svg id="nc_icon" version="1.1" xmlns="http://www.w3.org/2000/svg" xmlns:xlink="http://www.w3.org/1999/xlink" x="0px" y="0px" viewBox="0 0 24 24" xml:space="preserve" ><g class="nc-icon-wrapper" fill="currentColor"><path fill="currentColor" d="M23.5,17.1l-7.6-4.2c-0.5-0.3-1.1-0.1-1.4,0.4c-0.3,0.5-0.1,1.1,0.4,1.4l7.1,3.9V19H2v-0.4l9.5-5.7 c0.3-0.2,0.5-0.5,0.5-0.9l0-2.2c0-0.4-0.3-0.8-0.7-0.9C10.5,8.6,10,7.8,10,7c0-1.1,0.9-2,2-2c1.1,0,2,0.9,2,2c0,0.6,0.4,1,1,1 c0.6,0,1-0.4,1-1c0-2.2-1.8-4-4-4C9.8,3,8,4.8,8,7c0,1.4,0.8,2.8,2,3.5l0,1l-9.5,5.7C0.2,17.3,0,17.6,0,18v2c0,0.6,0.4,1,1,1h22 c0.6,0,1-0.4,1-1v-2C24,17.6,23.8,17.3,23.5,17.1z"></path></g></svg>