<svg id="nc_icon" version="1.1" xmlns="http://www.w3.org/2000/svg" xmlns:xlink="http://www.w3.org/1999/xlink" x="0px" y="0px" viewBox="0 0 24 24" xml:space="preserve" ><g class="nc-icon-wrapper" fill="currentColor"><path fill="currentColor" d="M7.2,14c0.4-1.2,1.5-2,2.8-2h4c1.3,0,2.4,0.8,2.8,2h7c0.1-0.7,0.2-1.3,0.2-2c0-6.6-5.4-12-12-12 C5.4,0,0,5.4,0,12c0,0.7,0.1,1.3,0.2,2H7.2z M14,7h4v2h-4V7z M6,7h4v2H6V7z"></path> <path fill="currentColor" d="M16.8,16c-0.4,1.2-1.5,2-2.8,2h-4c-1.3,0-2.4-0.8-2.8-2H0.7c1.7,4.7,6.1,8,11.3,8c5.2,0,9.6-3.3,11.3-8H16.8 z"></path></g></svg>