<svg id="nc_icon" version="1.1" xmlns="http://www.w3.org/2000/svg" xmlns:xlink="http://www.w3.org/1999/xlink" x="0px" y="0px" viewBox="0 0 24 24" xml:space="preserve" ><g class="nc-icon-wrapper" fill="currentColor"><path fill="currentColor" d="M20,13V2c0-0.6-0.4-1-1-1H5C4.4,1,4,1.4,4,2v11H20z"></path> <rect data-color="color-2" x="4" y="15" fill="currentColor" width="16" height="4"></rect> <path fill="currentColor" d="M23,19c-0.6,0-1,0.4-1,1c0,0.6-0.4,1-1,1H3c-0.6,0-1-0.4-1-1c0-0.6-0.4-1-1-1s-1,0.4-1,1c0,1.7,1.3,3,3,3h18 c1.7,0,3-1.3,3-3C24,19.4,23.6,19,23,19z"></path></g></svg>