<svg id="nc_icon" version="1.1" xmlns="http://www.w3.org/2000/svg" xmlns:xlink="http://www.w3.org/1999/xlink" x="0px" y="0px" viewBox="0 0 24 24" xml:space="preserve" ><g class="nc-icon-wrapper" fill="currentColor"><path fill="currentColor" d="M21,7h-2V1c0-0.552-0.447-1-1-1H6C5.447,0,5,0.448,5,1v6H3C2.447,7,2,7.448,2,8v7 c0,0.227,0.077,0.447,0.219,0.625L6,20.351V23c0,0.552,0.447,1,1,1h10c0.553,0,1-0.448,1-1v-2.649l3.781-4.726 C21.923,15.447,22,15.227,22,15V8C22,7.448,21.553,7,21,7z M7,2h10v5h-2V4h-2v3h-2V4H9v3H7V2z"></path></g></svg>