<svg id="nc_icon" version="1.1" xmlns="http://www.w3.org/2000/svg" xmlns:xlink="http://www.w3.org/1999/xlink" x="0px" y="0px" viewBox="0 0 24 24" xml:space="preserve" ><g class="nc-icon-wrapper" fill="currentColor"><path fill="currentColor" d="M12,0C5.935,0,1,4.935,1,11v6c0,1.654,1.346,3,3,3h3c0.552,0,1-0.448,1-1v-7c0-0.552-0.448-1-1-1H3 c0-4.962,4.038-9,9-9s9,4.038,9,9h-4c-0.552,0-1,0.448-1,1v7c0,0.552,0.448,1,1,1h3c0.352,0,0.686-0.072,1-0.184 C21,21.261,20.004,22,19,22h-5c-0.552,0-1,0.448-1,1s0.448,1,1,1h5c2.206,0,4-1.794,4-4v-9C23,4.935,18.065,0,12,0z"></path></g></svg>