<svg id="nc_icon" version="1.1" xmlns="http://www.w3.org/2000/svg" xmlns:xlink="http://www.w3.org/1999/xlink" x="0px" y="0px" viewBox="0 0 24 24" xml:space="preserve" ><g class="nc-icon-wrapper" fill="currentColor"><path fill="currentColor" d="M20.99,7.806C20.886,3.485,17.346,0,13,0h-2C6.654,0,3.114,3.485,3.01,7.806C1.214,8.844,0,10.781,0,13 c0,2.215,1.21,4.149,3,5.188V19c0,2.757,2.243,5,5,5h4c0.552,0,1-0.448,1-1s-0.448-1-1-1H8c-1.654,0-3-1.346-3-3v-0.09 C5.326,18.965,5.659,19,6,19c0.4,0,0.804-0.041,1.198-0.121C7.665,18.785,8,18.375,8,17.899V8.101c0-0.476-0.335-0.886-0.802-0.98 C6.804,7.041,6.4,7,6,7C5.686,7,5.38,7.032,5.078,7.078C5.524,4.207,8.006,2,11,2h2c2.994,0,5.476,2.207,5.922,5.078 C18.62,7.032,18.314,7,18,7c-0.4,0-0.804,0.041-1.198,0.121C16.335,7.215,16,7.625,16,8.101v9.799c0,0.476,0.335,0.886,0.802,0.98 C17.196,18.959,17.6,19,18,19c3.309,0,6-2.691,6-6C24,10.781,22.786,8.844,20.99,7.806z"></path></g></svg>