<svg id="nc_icon" version="1.1" xmlns="http://www.w3.org/2000/svg" xmlns:xlink="http://www.w3.org/1999/xlink" x="0px" y="0px" viewBox="0 0 24 24" xml:space="preserve" ><g class="nc-icon-wrapper" fill="currentColor"><path data-color="color-2" fill="currentColor" d="M15.5,12l-1.7,2.6C13.6,14.8,13.3,15,13,15s-0.6-0.2-0.8-0.4L9,9.8l-1.2,1.8 C7.6,11.8,7.3,12,7,12H1.6c3.1,5.3,9.4,10.5,9.7,10.8c0.2,0.2,0.4,0.2,0.6,0.2s0.4-0.1,0.6-0.2c0.4-0.3,6.7-5.5,9.7-10.8H15.5z"></path> <path fill="currentColor" d="M6.5,10l1.7-2.6c0.4-0.6,1.3-0.6,1.7,0l3.2,4.8l1.2-1.8c0.2-0.3,0.5-0.4,0.8-0.4h8.3C23.8,9,24,8,24,7 c0-3.9-3.1-7-7-7c-1.9,0-3.7,0.8-5,2.1C10.7,0.8,8.9,0,7,0C3.1,0,0,3.1,0,7c0,1,0.2,2,0.7,3H6.5z"></path></g></svg>