<svg id="nc_icon" version="1.1" xmlns="http://www.w3.org/2000/svg" xmlns:xlink="http://www.w3.org/1999/xlink" x="0px" y="0px" viewBox="0 0 24 24" xml:space="preserve" ><g class="nc-icon-wrapper" fill="currentColor"><path fill="currentColor" d="M22,0H2C1.447,0,1,0.447,1,1v22c0,0.553,0.447,1,1,1h20c0.553,0,1-0.447,1-1V1C23,0.447,22.553,0,22,0z M16.915,13.433L12,18.426l-4.914-4.993c-1.443-1.468-1.443-3.854,0-5.322c0.793-0.805,1.89-1.206,3.007-1.092 c0.705,0.07,1.362,0.338,1.907,0.763c0.546-0.425,1.202-0.692,1.908-0.763c1.11-0.108,2.213,0.286,3.006,1.092 C18.357,9.577,18.357,11.965,16.915,13.433z"></path></g></svg>