<svg id="nc_icon" version="1.1" xmlns="http://www.w3.org/2000/svg" xmlns:xlink="http://www.w3.org/1999/xlink" x="0px" y="0px" viewBox="0 0 24 24" xml:space="preserve" ><g class="nc-icon-wrapper" fill="currentColor"><path data-color="color-2" fill="currentColor" d="M11,6c0.6,0,1-0.4,1-1V1c0-0.6-0.4-1-1-1c-0.6,0-1,0.4-1,1v4C10,5.6,10.4,6,11,6z"></path> <path data-color="color-2" fill="currentColor" d="M5,7c0.6,0,1-0.4,1-1V4c0-0.6-0.4-1-1-1C4.4,3,4,3.4,4,4v2C4,6.6,4.4,7,5,7z"></path> <path data-color="color-2" fill="currentColor" d="M17,7c0.6,0,1-0.4,1-1V4c0-0.6-0.4-1-1-1c-0.6,0-1,0.4-1,1v2C16,6.6,16.4,7,17,7z"></path> <path fill="currentColor" d="M23,11h-1c0-1.7-1.3-3-3-3c-1.7,0-3,1.3-3,3h-2c0-1.7-1.3-3-3-3c-1.7,0-3,1.3-3,3H6c0-1.7-1.3-3-3-3 c-1.7,0-3,1.3-3,3v10c0,1.7,1.3,3,3,3c1.7,0,3-1.3,3-3h2c0,1.7,1.3,3,3,3c1.7,0,3-1.3,3-3h2c0,1.7,1.3,3,3,3c1.7,0,3-1.3,3-3v-8h1 c0.6,0,1-0.4,1-1S23.6,11,23,11z M6,19v-6h2v6H6z M14,19v-6h2v6H14z"></path></g></svg>