<svg id="nc_icon" version="1.1" xmlns="http://www.w3.org/2000/svg" xmlns:xlink="http://www.w3.org/1999/xlink" x="0px" y="0px" viewBox="0 0 24 24" xml:space="preserve" ><g class="nc-icon-wrapper" fill="currentColor"><path fill="currentColor" d="M6,8c2.2,0,4-1.8,4-4S8.2,0,6,0S2,1.8,2,4S3.8,8,6,8z"></path> <path fill="currentColor" d="M10,9H2c-0.6,0-1,0.4-1,1v6c0,0.2,0.1,0.4,0.2,0.6L3,19.3V23c0,0.6,0.4,1,1,1h4c0.6,0,1-0.4,1-1v-3.7 l1.8-2.7c0.1-0.2,0.2-0.4,0.2-0.6v-6C11,9.4,10.6,9,10,9z"></path> <path data-color="color-2" fill="currentColor" d="M14,1v4h4v2h-4v2h3v2h-3v2h4v2h-4v2h3v2h-3v4c0,0.6,0.4,1,1,1h7c0.6,0,1-0.4,1-1V1 c0-0.6-0.4-1-1-1h-7C14.4,0,14,0.4,14,1z"></path></g></svg>