<svg id="nc_icon" version="1.1" xmlns="http://www.w3.org/2000/svg" xmlns:xlink="http://www.w3.org/1999/xlink" x="0px" y="0px" viewBox="0 0 24 24" xml:space="preserve" ><g class="nc-icon-wrapper" fill="currentColor"><path data-color="color-2" fill="currentColor" d="M11.5585938,17c0.4306641,0,0.8125-0.2749023,0.9492188-0.684082l1.6660156-4.9995117 c0.1025391-0.309082,0.0527344-0.637207-0.1367188-0.9008789C13.8466797,10.1513672,13.5507812,10,13.2255859,10H0.1748657 C0.0681763,10.651062,0,11.3161011,0,12v5H11.5585938z"></path> <path fill="currentColor" d="M20.4072266,3.4370117c-2.3164062-2.2749023-5.3583984-3.4882812-8.6318359-3.4350586 C6.5803833,0.097229,2.2828369,3.3862915,0.6813354,8h12.5442505c0.9765625,0,1.8632812,0.4545898,2.4335938,1.246582 s0.7207031,1.7773438,0.4111328,2.7026367l-1.6660156,4.9990234C13.9951172,18.1757812,12.8515625,19,11.5585938,19H0.090332 C0.5686646,21.8331299,3.0327759,24,6,24h9c4.9628906,0,9-4.0375977,9-9v-3C24,8.7529297,22.7236328,5.7119141,20.4072266,3.4370117 z"></path></g></svg>