<svg id="nc_icon" version="1.1" xmlns="http://www.w3.org/2000/svg" xmlns:xlink="http://www.w3.org/1999/xlink" x="0px" y="0px" viewBox="0 0 24 24" xml:space="preserve" ><g class="nc-icon-wrapper" fill="currentColor"><path fill="currentColor" d="M12.225,1.002L12,1C5.383,1,0,6.383,0,13v8c0,0.306,0.14,0.594,0.379,0.784C0.558,21.925,0.777,22,1,22 c0.076,0,0.153-0.009,0.229-0.027l10.43-2.458C12.945,21.033,14.861,22,17,22c3.859,0,7-3.14,7-7v-1.635 C24,6.667,18.718,1.121,12.225,1.002z M2,19.737V14h7c0.552,0,1,0.449,1,1c0,0.965,0.196,1.885,0.551,2.722L2,19.737z M17,19 c-1.103,0-2-0.897-2-2s0.897-2,2-2s2,0.897,2,2S18.103,19,17,19z"></path></g></svg>