<svg id="nc_icon" version="1.1" xmlns="http://www.w3.org/2000/svg" xmlns:xlink="http://www.w3.org/1999/xlink" x="0px" y="0px" viewBox="0 0 24 24" xml:space="preserve" ><g class="nc-icon-wrapper" fill="currentColor"><path data-color="color-2" fill="currentColor" d="M4,13h7v3h2v-3h7v3h2v-4c0-0.553-0.447-1-1-1h-8V8h-2v3H3c-0.553,0-1,0.447-1,1v4h2V13z"></path> <circle fill="currentColor" cx="3" cy="21" r="3"></circle> <circle fill="currentColor" cx="12" cy="21" r="3"></circle> <circle fill="currentColor" cx="21" cy="21" r="3"></circle> <path fill="currentColor" d="M10,6h4c0.553,0,1-0.447,1-1V1c0-0.553-0.447-1-1-1h-4C9.447,0,9,0.447,9,1v4C9,5.553,9.447,6,10,6z"></path></g></svg>