<svg id="nc_icon" version="1.1" xmlns="http://www.w3.org/2000/svg" xmlns:xlink="http://www.w3.org/1999/xlink" x="0px" y="0px" viewBox="0 0 24 24" xml:space="preserve" ><g class="nc-icon-wrapper" fill="currentColor"><path fill="currentColor" d="M14,18h-4c-0.552,0-1,0.447-1,1v4c0,0.553,0.448,1,1,1h4c0.552,0,1-0.447,1-1v-4C15,18.447,14.552,18,14,18z "></path> <path fill="currentColor" d="M23,18h-4c-0.552,0-1,0.447-1,1v4c0,0.553,0.448,1,1,1h4c0.552,0,1-0.447,1-1v-4C24,18.447,23.552,18,23,18z "></path> <path fill="currentColor" d="M5,18H1c-0.552,0-1,0.447-1,1v4c0,0.553,0.448,1,1,1h4c0.552,0,1-0.447,1-1v-4C6,18.447,5.552,18,5,18z"></path> <path data-color="color-2" fill="currentColor" d="M4,13h7v3h2v-3h7v3h2v-4c0-0.553-0.448-1-1-1h-8V8h-2v3H3c-0.552,0-1,0.447-1,1v4h2V13z"></path> <circle fill="currentColor" cx="12" cy="3" r="3"></circle></g></svg>