<svg id="nc_icon" xmlns="http://www.w3.org/2000/svg" xmlns:xlink="http://www.w3.org/1999/xlink" x="0px" y="0px" viewBox="0 0 24 24" ><g class="nc-icon-wrapper" fill="currentColor"><path fill="currentColor" d="M23,0H1C0.447,0,0,0.448,0,1v22c0,0.552,0.447,1,1,1h22c0.553,0,1-0.448,1-1V1C24,0.448,23.553,0,23,0z M8,21c-2.209,0-4-1.791-4-4c0-2.209,1.791-4,4-4s4,1.791,4,4C12,19.209,10.209,21,8,21z M8,11c-2.209,0-4-1.791-4-4 c0-2.209,1.791-4,4-4s4,1.791,4,4C12,9.209,10.209,11,8,11z M20,20h-5v-2h5V20z M20,16h-5v-2h5V16z M20,10h-5V8h5V10z M20,6h-5V4h5 V6z"></path></g></svg>