<svg id="nc_icon" version="1.1" xmlns="http://www.w3.org/2000/svg" xmlns:xlink="http://www.w3.org/1999/xlink" x="0px" y="0px" viewBox="0 0 24 24" xml:space="preserve" ><g class="nc-icon-wrapper" fill="currentColor"><path data-color="color-2" fill="currentColor" d="M18,12c-3.30859,0-6-2.69141-6-6s2.69141-6,6-6s6,2.69141,6,6S21.30859,12,18,12z M18,2 c-2.20557,0-4,1.79443-4,4s1.79443,4,4,4s4-1.79443,4-4S20.20557,2,18,2z"></path> <path data-color="color-2" fill="currentColor" d="M20,7h-2c-0.55225,0-1-0.44775-1-1V4c0-0.55225,0.44775-1,1-1s1,0.44775,1,1v1h1 c0.55225,0,1,0.44775,1,1S20.55225,7,20,7z"></path> <path fill="currentColor" d="M5,4C2.24316,4,0,6.24316,0,9v14c0,0.55225,0.44775,1,1,1h8c0.55225,0,1-0.44775,1-1V9 C10,6.24316,7.75684,4,5,4z M8,10c-0.6283,0.24414-1.66187,0.55756-2.96875,0.5625C3.69189,10.56757,2.63428,10.24646,2,10 c0-0.33337,0-0.66669,0-1c0-1.65686,1.34314-3,3-3s3,1.34314,3,3V10z"></path></g></svg>