<svg id="nc_icon" version="1.1" xmlns="http://www.w3.org/2000/svg" xmlns:xlink="http://www.w3.org/1999/xlink" x="0px" y="0px" viewBox="0 0 24 24" xml:space="preserve" ><g class="nc-icon-wrapper" fill="currentColor"><path fill="currentColor" d="M12,18c0-3.309,2.691-6,6-6c1.093,0,2.116,0.299,3,0.812V9c0-0.285-0.122-0.558-0.335-0.747l-9-8 c-0.379-0.338-0.95-0.338-1.329,0l-9,8C1.122,8.442,1,8.715,1,9v13c0,0.553,0.448,1,1,1h12.69C13.071,21.924,12,20.086,12,18z"></path> <path data-color="color-2" fill="currentColor" d="M23.707,22.293l-2.274-2.274C21.785,19.424,22,18.74,22,18c0-2.206-1.794-4-4-4s-4,1.794-4,4 s1.794,4,4,4c0.74,0,1.424-0.215,2.019-0.567l2.274,2.274L23.707,22.293z M18,20c-1.103,0-2-0.897-2-2s0.897-2,2-2s2,0.897,2,2 S19.103,20,18,20z"></path></g></svg>