<svg id="nc_icon" version="1.1" xmlns="http://www.w3.org/2000/svg" xmlns:xlink="http://www.w3.org/1999/xlink" x="0px" y="0px" viewBox="0 0 24 24" xml:space="preserve" ><g class="nc-icon-wrapper" fill="currentColor"><path fill="currentColor" d="M21.66406,9.25244l-9-8c-0.37891-0.33691-0.94922-0.33691-1.32812,0l-9,8C2.12207,9.44238,2,9.71436,2,10v13	c0,0.55225,0.44727,1,1,1h18c0.55273,0,1-0.44775,1-1V10C22,9.71436,21.87793,9.44238,21.66406,9.25244z M14.07422,17.65857	c-2.29315,2.29315-5.73566,1.45691-6.29541,1.30115l3.63635-4.04547l-4.01434,1.18201	c0.09497-1.15186,0.48572-2.46143,1.56769-3.5434C11.11285,10.40845,16.62708,10,16.62708,10S16.42285,15.30994,14.07422,17.65857z"></path></g></svg>