<svg id="nc_icon" xmlns="http://www.w3.org/2000/svg" xmlns:xlink="http://www.w3.org/1999/xlink" x="0px" y="0px" viewBox="0 0 24 24" ><g class="nc-icon-wrapper" fill="currentColor"><path d="M9,7A1.414,1.414,0,0,0,7,9l1.793,1.793-8.5,8.5a1,1,0,1,0,1.414,1.414l8.5-8.5L12,14a1.414,1.414,0,0,0,2-2Z" fill="currentColor"></path> <path d="M18,8a1.414,1.414,0,0,0,2-2L15,1a1.414,1.414,0,0,0-2,2Z" fill="currentColor"></path> <path d="M17,13a1.414,1.414,0,0,0,2-2L10,2A1.414,1.414,0,0,0,8,4Z" fill="currentColor"></path> <path d="M20,14.1s-3,4-3,6a3,3,0,0,0,6,0C23,18.1,20,14.1,20,14.1Z" fill="currentColor" data-color="color-2"></path></g></svg>