<svg id="nc_icon" version="1.1" xmlns="http://www.w3.org/2000/svg" xmlns:xlink="http://www.w3.org/1999/xlink" x="0px" y="0px" viewBox="0 0 24 24" xml:space="preserve" ><g class="nc-icon-wrapper" fill="currentColor"><path fill="currentColor" d="M23,0H1C0.4,0,0,0.4,0,1v22c0,0.6,0.4,1,1,1h22c0.6,0,1-0.4,1-1V1C24,0.4,23.6,0,23,0z M18,13 c0,0.6-0.4,1-1,1h-3v3c0,0.6-0.4,1-1,1h-2c-0.6,0-1-0.4-1-1v-3H7c-0.6,0-1-0.4-1-1v-2c0-0.6,0.4-1,1-1h3V7c0-0.6,0.4-1,1-1h2 c0.6,0,1,0.4,1,1v3h3c0.6,0,1,0.4,1,1V13z"></path></g></svg>