<svg id="nc_icon" version="1.1" xmlns="http://www.w3.org/2000/svg" xmlns:xlink="http://www.w3.org/1999/xlink" x="0px" y="0px" viewBox="0 0 24 24" xml:space="preserve" ><g class="nc-icon-wrapper" fill="currentColor"><path data-color="color-2" fill="currentColor" d="M22,24h1c0.6,0,1-0.4,1-1v-9c0-0.6-0.4-1-1-1h-1v10V24z"></path> <path data-color="color-2" fill="currentColor" d="M2,23V13H1c-0.6,0-1,0.4-1,1v9c0,0.6,0.4,1,1,1h1V23z"></path> <path fill="currentColor" d="M19,0H5C4.4,0,4,0.4,4,1v22c0,0.6,0.4,1,1,1h6v-4h2v4h6c0.6,0,1-0.4,1-1V1C20,0.4,19.6,0,19,0z M10,17H7v-2 h3V17z M10,13H7v-2h3V13z M10,9H7V7h3V9z M10,5H7V3h3V5z M17,17h-3v-2h3V17z M17,13h-3v-2h3V13z M17,9h-3V7h3V9z M17,5h-3V3h3V5z"></path></g></svg>