<svg id="nc_icon" version="1.1" xmlns="http://www.w3.org/2000/svg" xmlns:xlink="http://www.w3.org/1999/xlink" x="0px" y="0px" viewBox="0 0 24 24" xml:space="preserve" ><g class="nc-icon-wrapper" fill="currentColor"><path data-color="color-2" fill="currentColor" d="M21,2H3C2.4,2,2,1.6,2,1s0.4-1,1-1h18c0.6,0,1,0.4,1,1S21.6,2,21,2z"></path> <path data-color="color-2" fill="currentColor" d="M21,24H3c-0.6,0-1-0.4-1-1s0.4-1,1-1h18c0.6,0,1,0.4,1,1S21.6,24,21,24z"></path> <path fill="currentColor" d="M9.1,12c-2,1.5-3.5,4.4-4,8h13.7c-0.4-3.6-1.9-6.5-4-8c2-1.5,3.5-4.4,4-8H5.1C5.5,7.6,7.1,10.5,9.1,12z"></path></g></svg>