<svg id="nc_icon" version="1.1" xmlns="http://www.w3.org/2000/svg" xmlns:xlink="http://www.w3.org/1999/xlink" x="0px" y="0px" viewBox="0 0 24 24" xml:space="preserve" ><g class="nc-icon-wrapper" fill="currentColor"><path fill="currentColor" d="M21.745,1.333C21.556,1.121,21.285,1,21,1H3C2.715,1,2.444,1.121,2.255,1.333 c-0.19,0.212-0.28,0.495-0.249,0.777l2,18c0.044,0.403,0.329,0.739,0.719,0.852l7,2C11.815,22.987,11.908,23,12,23 s0.185-0.013,0.275-0.038l7-2c0.39-0.112,0.674-0.448,0.719-0.852l2-18C22.025,1.828,21.935,1.545,21.745,1.333z M18,7H8.087 l0.333,4h9.185l-0.68,6.8L12,19.031l-5-1.25V15h2v1.219l3,0.75l3.075-0.769l0.32-3.2H6.58L5.913,5H18V7z"></path></g></svg>