<svg id="nc_icon" version="1.1" xmlns="http://www.w3.org/2000/svg" xmlns:xlink="http://www.w3.org/1999/xlink" x="0px" y="0px" viewBox="0 0 24 24" xml:space="preserve" ><g class="nc-icon-wrapper" fill="currentColor"><path data-color="color-2" fill="currentColor" d="M15.2,20.2c-1.8,1.1-4.9,1.1-6.6-0.2c-0.5-0.3-1.1-0.2-1.4,0.2c-0.3,0.4-0.2,1.1,0.2,1.4 C8.7,22.5,10.3,23,12,23c1.6,0,3.1-0.4,4.3-1.2c0.5-0.3,0.6-0.9,0.3-1.4C16.3,20,15.7,19.9,15.2,20.2z"></path> <path data-color="color-2" fill="currentColor" d="M17.4,15.3C16.3,16.3,14.3,17,12,17c-2.2,0-4.2-0.6-5.3-1.6c-0.4-0.4-1-0.3-1.4,0.1c-0.4,0.4-0.3,1,0.1,1.4 c1.5,1.4,4,2.2,6.7,2.2c2.8,0,5.3-0.9,6.8-2.3c0.4-0.4,0.4-1,0-1.4C18.4,14.9,17.8,14.9,17.4,15.3z"></path> <path data-color="color-2" fill="currentColor" d="M19,11.2c-1.4,1.1-4.1,1.8-7,1.8c-2.9,0-5.6-0.7-7-1.8c-0.4-0.3-1.1-0.3-1.4,0.2c-0.3,0.4-0.3,1.1,0.2,1.4 C5.5,14.2,8.6,15,12,15c3.4,0,6.5-0.8,8.2-2.2c0.4-0.3,0.5-1,0.2-1.4C20.1,10.9,19.4,10.9,19,11.2z"></path> <path fill="currentColor" d="M12,1C6,1,0,2.7,0,6s6,5,12,5s12-1.7,12-5S18,1,12,1z"></path></g></svg>