<svg id="nc_icon" version="1.1" xmlns="http://www.w3.org/2000/svg" xmlns:xlink="http://www.w3.org/1999/xlink" x="0px" y="0px" viewBox="0 0 24 24" xml:space="preserve" ><g class="nc-icon-wrapper" fill="currentColor"><path data-color="color-2" fill="currentColor" d="M10.838,6.077L8.52,10h6.959l-2.318-3.923l2.699-4.568c0.281-0.476,0.124-1.089-0.352-1.37 s-1.088-0.124-1.37,0.352L12,4.111l-2.139-3.62C9.58,0.016,8.966-0.143,8.491,0.139C8.016,0.42,7.858,1.033,8.139,1.509 L10.838,6.077z"></path> <path fill="currentColor" d="M22.861,22.491L16.661,12H7.339L1.139,22.491c-0.183,0.309-0.186,0.692-0.008,1.004 C1.31,23.808,1.641,24,2,24h6l4-7l4,7h6c0.359,0,0.69-0.192,0.869-0.504C23.046,23.184,23.043,22.8,22.861,22.491z"></path></g></svg>