<svg id="nc_icon" version="1.1" xmlns="http://www.w3.org/2000/svg" xmlns:xlink="http://www.w3.org/1999/xlink" x="0px" y="0px" viewBox="0 0 24 24" xml:space="preserve" ><g class="nc-icon-wrapper" fill="currentColor"><path d="M16,10H14v3H10V10H8v3H6v5a6,6,0,0,0,12,0V13H16Z" fill="currentColor"></path>  <path d="M12,0A12,12,0,0,0,1.94,18.544a1,1,0,1,0,1.676-1.092,10,10,0,1,1,16.768,0,1,1,0,0,0,1.676,1.092A12,12,0,0,0,12,0Z" fill="currentColor" data-color="color-2"></path>  <path d="M7,8.1a1,1,0,0,0,.714-.3A6,6,0,0,1,16.2,7.714a1,1,0,0,0,1.4-1.43A8,8,0,0,0,6.285,6.4,1,1,0,0,0,7,8.1Z" fill="currentColor" data-color="color-2"></path></g></svg>