<svg id="nc_icon" xmlns="http://www.w3.org/2000/svg" xmlns:xlink="http://www.w3.org/1999/xlink" x="0px" y="0px" viewBox="0 0 24 24" ><g class="nc-icon-wrapper" fill="currentColor"><path d="M11,17.936V22H7a1,1,0,0,0,0,2H17a1,1,0,0,0,0-2H13V17.936A10.1,10.1,0,0,0,21,13H3A10.1,10.1,0,0,0,11,17.936Z" fill="currentColor"></path> <path d="M8.08,11A7.145,7.145,0,0,1,8,10a7.007,7.007,0,0,1,4.4-6.495A5.989,5.989,0,0,0,4.349,11Z" fill="currentColor" data-color="color-2"></path> <path d="M22.6,4.8,21.4,3.2,17.827,5.88a4.952,4.952,0,0,0-2.105-.807l2.135-3.558L16.143.485,13.231,5.338A4.982,4.982,0,0,0,10.1,11h9.8a4.945,4.945,0,0,0-.681-3.663Z" fill="currentColor" data-color="color-2"></path></g></svg>