<svg id="nc_icon" version="1.1" xmlns="http://www.w3.org/2000/svg" xmlns:xlink="http://www.w3.org/1999/xlink" x="0px" y="0px" viewBox="0 0 24 24" xml:space="preserve" ><g class="nc-icon-wrapper" fill="currentColor"><path fill="currentColor" d="M22,0H2C1.448,0,1,0.448,1,1v22c0,0.552,0.448,1,1,1h20c0.552,0,1-0.448,1-1V1C23,0.448,22.552,0,22,0z M21,16H3V2h18V16z"></path> <path data-color="color-2" fill="currentColor" d="M7,14h11c0.384,0,0.735-0.22,0.901-0.567c0.167-0.346,0.12-0.758-0.121-1.058l-4-5 c-0.333-0.416-0.931-0.499-1.362-0.189l-7,5c-0.354,0.253-0.504,0.705-0.371,1.119C6.18,13.719,6.565,14,7,14z"></path> <circle data-color="color-2" fill="currentColor" cx="7.5" cy="5.5" r="1.5"></circle></g></svg>