<svg id="nc_icon" version="1.1" xmlns="http://www.w3.org/2000/svg" xmlns:xlink="http://www.w3.org/1999/xlink" x="0px" y="0px" viewBox="0 0 24 24" xml:space="preserve" ><g class="nc-icon-wrapper" fill="currentColor"><path fill="currentColor" d="M22.908,20.581l-6-13c-0.148-0.32-0.453-0.538-0.803-0.575C15.751,6.969,15.412,7.118,15.2,7.4L9.8,14.6 L6.6,12.2c-0.238-0.178-0.542-0.242-0.83-0.174c-0.289,0.068-0.532,0.261-0.665,0.526l-4,8c-0.155,0.31-0.138,0.678,0.044,0.973 S1.653,22,2,22h20c0.341,0,0.659-0.174,0.842-0.461C23.026,21.252,23.051,20.891,22.908,20.581z"></path> <circle data-color="color-2" fill="currentColor" cx="8" cy="5" r="3"></circle></g></svg>