<svg id="nc_icon" version="1.1" xmlns="http://www.w3.org/2000/svg" xmlns:xlink="http://www.w3.org/1999/xlink" x="0px" y="0px" viewBox="0 0 24 24" xml:space="preserve" ><g class="nc-icon-wrapper" fill="currentColor"><path fill="currentColor" d="M22,0H2C1.447,0,1,0.448,1,1v22c0,0.552,0.447,1,1,1h20c0.553,0,1-0.448,1-1V1C23,0.448,22.553,0,22,0z M9,5	c1.105,0,2,0.895,2,2c0,1.105-0.895,2-2,2S7,8.105,7,7C7,5.895,7.895,5,9,5z M20.875,18.485C20.698,18.803,20.363,19,20,19H4	c-0.379,0-0.725-0.214-0.895-0.553C2.937,18.108,2.973,17.703,3.2,17.4l3-4c0.174-0.232,0.439-0.377,0.729-0.397	c0.298-0.017,0.573,0.085,0.778,0.291l2.165,2.165l4.314-6.039C14.38,9.147,14.681,8.995,15.031,9c0.333,0.01,0.64,0.187,0.816,0.47	l5,8C21.041,17.778,21.051,18.167,20.875,18.485z"></path></g></svg>