<svg id="nc_icon" version="1.1" xmlns="http://www.w3.org/2000/svg" xmlns:xlink="http://www.w3.org/1999/xlink" x="0px" y="0px" viewBox="0 0 24 24" xml:space="preserve" ><g class="nc-icon-wrapper" fill="currentColor"><path fill="currentColor" d="M9.759,8.349C9.548,8.102,9.234,7.972,8.905,8.004c-0.323,0.031-0.612,0.217-0.773,0.5l-4,7 c-0.177,0.31-0.176,0.69,0.003,0.998C4.314,16.81,4.644,17,5,17h10c0.391,0,0.745-0.228,0.908-0.582 c0.163-0.355,0.105-0.772-0.149-1.069L9.759,8.349z"></path> <circle fill="currentColor" cx="16" cy="7" r="2"></circle> <path fill="currentColor" d="M2,2h19v14h2V1c0-0.552-0.447-1-1-1H1C0.447,0,0,0.448,0,1v21c0,0.552,0.447,1,1,1h13v-2H2V2z"></path> <rect data-color="color-2" x="16" y="19" fill="currentColor" width="8" height="2"></rect></g></svg>