<svg id="nc_icon" version="1.1" xmlns="http://www.w3.org/2000/svg" xmlns:xlink="http://www.w3.org/1999/xlink" x="0px" y="0px" viewBox="0 0 24 24" xml:space="preserve" ><g class="nc-icon-wrapper" fill="currentColor"><path fill="currentColor" d="M23,4h-4v2h3v16H2V6h3V4H1C0.448,4,0,4.448,0,5v18c0,0.552,0.448,1,1,1h22c0.552,0,1-0.448,1-1V5 C24,4.448,23.552,4,23,4z"></path> <path fill="currentColor" d="M15.586,13.09l-11,5c-0.429,0.194-0.664,0.662-0.564,1.122C4.122,19.672,4.529,20,5,20h14 c0.36,0,0.693-0.194,0.87-0.507c0.178-0.313,0.173-0.698-0.013-1.007l-3-5C16.597,13.05,16.05,12.879,15.586,13.09z"></path> <circle fill="currentColor" cx="6.5" cy="12.5" r="1.5"></circle> <path data-color="color-2" fill="currentColor" d="M12,0C9.542,0,7,1.87,7,5c0,2.838,3.894,6.358,4.338,6.75C11.527,11.917,11.764,12,12,12 s0.473-0.083,0.662-0.25C13.106,11.358,17,7.838,17,5C17,1.87,14.458,0,12,0z M12,7c-1.105,0-2-0.895-2-2c0-1.105,0.895-2,2-2 s2,0.895,2,2C14,6.105,13.105,7,12,7z"></path></g></svg>