<svg id="nc_icon" version="1.1" xmlns="http://www.w3.org/2000/svg" xmlns:xlink="http://www.w3.org/1999/xlink" x="0px" y="0px" viewBox="0 0 24 24" xml:space="preserve" ><g class="nc-icon-wrapper" fill="currentColor"><polygon data-color="color-2" fill="currentColor" points="16,12 9,6 9,11 0,11 0,13 9,13 9,18 "></polygon> <path fill="currentColor" d="M23,24H1c-0.552,0-1-0.448-1-1v-5h2v4h20l0-20H2v4H0V1c0-0.552,0.448-1,1-1h22 c0.265,0,0.52,0.105,0.707,0.293S24,0.735,24,1l0,22C24,23.552,23.552,24,23,24z"></path></g></svg>