<svg id="nc_icon" version="1.1" xmlns="http://www.w3.org/2000/svg" xmlns:xlink="http://www.w3.org/1999/xlink" x="0px" y="0px" viewBox="0 0 24 24" xml:space="preserve" ><g class="nc-icon-wrapper" fill="currentColor"><path fill="currentColor" d="M18.8,5L16,5c1.2,0,2.2-1.1,2-2.3c-0.2-1-1.1-1.7-2.1-1.7L6.2,1C4.1,1,2.2,2.5,2,4.6C1.8,7,3.7,9,6,9L5.2,9 c-2.1,0-4,1.5-4.2,3.6C0.8,15,2.7,17,5,17h5v5c0,0.6,0.4,1,1,1h2c0.6,0,1-0.4,1-1v-6c0-1.7-1.3-3-3-3h8c2.3,0,4.2-2,4-4.4 C22.8,6.5,20.9,5,18.8,5z"></path></g></svg>