<svg id="nc_icon" version="1.1" xmlns="http://www.w3.org/2000/svg" xmlns:xlink="http://www.w3.org/1999/xlink" x="0px" y="0px" viewBox="0 0 24 24" xml:space="preserve" ><g class="nc-icon-wrapper" fill="currentColor"><path fill="currentColor" d="M22,15c-0.6,0-1,0.4-1,1c0,0.6-0.4,1-1,1c-0.6,0-1-0.4-1-1v-4h3c0,0,0,0,0,0c0.6,0,1-0.4,1-1 c0-0.1,0-0.1,0-0.2C22.9,4.8,18,0,12,0C5.9,0,1,4.9,1,11c0,0.6,0.4,1,1,1h3v4c0,0.6-0.4,1-1,1c-0.6,0-1-0.4-1-1c0-0.6-0.4-1-1-1 c-0.6,0-1,0.4-1,1c0,1.7,1.3,3,3,3c1.7,0,3-1.3,3-3v-4h2v9c0,0.6-0.4,1-1,1c-0.6,0-1-0.4-1-1c0-0.6-0.4-1-1-1c-0.6,0-1,0.4-1,1 c0,1.7,1.3,3,3,3c1.7,0,3-1.3,3-3v-9h2v9c0,1.7,1.3,3,3,3c1.7,0,3-1.3,3-3c0-0.6-0.4-1-1-1c-0.6,0-1,0.4-1,1c0,0.6-0.4,1-1,1 c-0.6,0-1-0.4-1-1v-9h2v4c0,1.7,1.3,3,3,3c1.7,0,3-1.3,3-3C23,15.4,22.6,15,22,15z"></path></g></svg>