<svg id="nc_icon" xmlns="http://www.w3.org/2000/svg" xmlns:xlink="http://www.w3.org/1999/xlink" x="0px" y="0px" viewBox="0 0 24 24" ><g class="nc-icon-wrapper" fill="currentColor"><path d="M16,0h0V2a4,4,0,0,1-4,4h0V4A4,4,0,0,1,16,0Z" fill="currentColor" data-color="color-2"></path> <path d="M22.208,12.121A3.3,3.3,0,0,0,19.757,9.09a3.17,3.17,0,0,0-2.784.648,5.092,5.092,0,0,1,.21,1.131L18,24h3.927a1,1,0,0,0,1-1.067Z" fill="currentColor"></path> <path d="M6.817,10.869a5.092,5.092,0,0,1,.21-1.131A3.17,3.17,0,0,0,4.243,9.09a3.3,3.3,0,0,0-2.451,3.031L1.071,22.933a1,1,0,0,0,1,1.067H6Z" fill="currentColor"></path> <path d="M8,24l.813-13.006A3.193,3.193,0,0,1,12,8h0a3.193,3.193,0,0,1,3.187,2.994L16,24Z" fill="currentColor"></path></g></svg>