<svg id="nc_icon" version="1.1" xmlns="http://www.w3.org/2000/svg" xmlns:xlink="http://www.w3.org/1999/xlink" x="0px" y="0px" viewBox="0 0 24 24" xml:space="preserve" ><g class="nc-icon-wrapper" fill="currentColor"><path fill="currentColor" d="M7,16H1c-0.553,0-1,0.448-1,1v6c0,0.552,0.447,1,1,1h6c0.553,0,1-0.448,1-1v-6C8,16.448,7.553,16,7,16z"></path> <circle fill="currentColor" cx="4" cy="4" r="4"></circle> <path data-color="color-2" fill="currentColor" d="M19,3h-9v2h9c1.654,0,3,1.346,3,3v8c0,1.654-1.346,3-3,3h-9v2h9c2.757,0,5-2.243,5-5V8 C24,5.243,21.757,3,19,3z"></path></g></svg>