<svg id="nc_icon" xmlns="http://www.w3.org/2000/svg" xmlns:xlink="http://www.w3.org/1999/xlink" x="0px" y="0px" viewBox="0 0 24 24" ><g class="nc-icon-wrapper" fill="currentColor"><path d="M5.993.883A1,1,0,0,0,5,0H0V2H4.111l.47,4H1V21a3,3,0,0,0,3,3h6a3,3,0,0,0,3-3V6H6.6ZM11,8V21a1,1,0,0,1-1,1H4a1,1,0,0,1-1-1V8H4.817L6.124,19.11l1.986-.234L6.83,8Z" fill="currentColor"></path> <path d="M16,8H15V22h1A7,7,0,0,0,16,8Z" fill="currentColor" data-color="color-2"></path> <path d="M19,2V1a4,4,0,0,0-4,4V6A4,4,0,0,0,19,2Z" fill="currentColor" data-color="color-2"></path></g></svg>