<svg id="nc_icon" version="1.1" xmlns="http://www.w3.org/2000/svg" xmlns:xlink="http://www.w3.org/1999/xlink" x="0px" y="0px" viewBox="0 0 24 24" xml:space="preserve" ><g class="nc-icon-wrapper" fill="currentColor"><path fill="currentColor" d="M23,0h-5c-0.266,0-0.52,0.105-0.707,0.293L9.448,8.138C4.442,7.198,0,11.113,0,16c0,4.411,3.589,8,8,8 s8-3.589,8-8c0-0.764-0.11-1.52-0.329-2.256l2.036-2.037C17.895,11.52,18,11.265,18,11V8h3c0.266,0,0.52-0.105,0.707-0.293l2-2 C23.895,5.52,24,5.265,24,5V1C24,0.448,23.553,0,23,0z M7,19c-1.105,0-2-0.895-2-2c0-1.105,0.895-2,2-2s2,0.895,2,2 C9,18.105,8.105,19,7,19z"></path></g></svg>