<svg id="nc_icon" version="1.1" xmlns="http://www.w3.org/2000/svg" xmlns:xlink="http://www.w3.org/1999/xlink" x="0px" y="0px" viewBox="0 0 24 24" xml:space="preserve" ><g class="nc-icon-wrapper" fill="currentColor"><path fill="currentColor" d="M23,10H1c-0.552,0-1,0.448-1,1v12c0,0.552,0.448,1,1,1h22c0.552,0,1-0.448,1-1V11C24,10.448,23.552,10,23,10 z M8,14h3v2H8V14z M6,20H3v-2h3V20z M6,16H3v-2h3V16z M16,20H8v-2h8V20z M16,16h-3v-2h3V16z M21,20h-3v-2h3V20z M21,16h-3v-2h3V16z"></path> <path data-color="color-2" fill="currentColor" d="M15.536,7.878l-0.707-0.707c-1.56-1.56-4.098-1.56-5.657,0L8.464,7.878L7.05,6.464 l0.707-0.707c2.339-2.34,6.146-2.34,8.485,0l0.707,0.707L15.536,7.878z"></path> <path data-color="color-2" fill="currentColor" d="M18.364,5.05l-0.707-0.707C16.146,2.832,14.137,2,12,2S7.854,2.832,6.343,4.343L5.636,5.05 L4.222,3.636l0.707-0.707C6.818,1.04,9.329,0,12,0s5.182,1.04,7.071,2.929l0.707,0.707L18.364,5.05z"></path></g></svg>