<svg id="nc_icon" version="1.1" xmlns="http://www.w3.org/2000/svg" xmlns:xlink="http://www.w3.org/1999/xlink" x="0px" y="0px" viewBox="0 0 24 24" xml:space="preserve" ><g class="nc-icon-wrapper" fill="currentColor"><path fill="currentColor" d="M23,1H1C0.448,1,0,1.448,0,2v12c0,0.552,0.448,1,1,1h22c0.552,0,1-0.448,1-1V2C24,1.448,23.552,1,23,1z M8,5 h3v2H8V5z M6,11H3V9h3V11z M6,7H3V5h3V7z M16,11H8V9h8V11z M16,7h-3V5h3V7z M21,11h-3V9h3V11z M21,7h-3V5h3V7z"></path> <path data-color="color-2" fill="currentColor" d="M12,23c-0.211,0-0.422-0.067-0.6-0.2l-4.8-3.6l1.2-1.6l4.2,3.15l4.2-3.15l1.2,1.6l-4.8,3.6 C12.422,22.933,12.211,23,12,23z"></path></g></svg>