<svg id="nc_icon" version="1.1" xmlns="http://www.w3.org/2000/svg" xmlns:xlink="http://www.w3.org/1999/xlink" x="0px" y="0px" viewBox="0 0 24 24" xml:space="preserve" ><g class="nc-icon-wrapper" fill="currentColor"><path data-color="color-2" fill="currentColor" d="M10,24C4.486,24,0,19.514,0,14v-1h2v1c0,4.411,3.589,8,8,8s8-3.589,8-8v-1h2v1 C20,19.514,15.514,24,10,24z"></path> <path data-color="color-2" fill="currentColor" d="M10,20L10,20c-1.657,0-3-1.343-3-3v0h6v0C13,18.657,11.657,20,10,20z"></path> <path fill="currentColor" d="M20,10c0-5.514-4.486-10-10-10S0,4.486,0,10v1h6.141c0.446,1.722,1.997,3,3.859,3h10c2.209,0,4-1.791,4-4H20 z"></path></g></svg>