<svg id="nc_icon" xmlns="http://www.w3.org/2000/svg" xmlns:xlink="http://www.w3.org/1999/xlink" x="0px" y="0px" viewBox="0 0 24 24" ><g class="nc-icon-wrapper" fill="currentColor"><path fill="currentColor" d="M1,9h1.4h21.1c-0.1-0.5-0.3-0.9-0.5-1.4c0,0,0,0,0-0.1C21.4,3.7,17.5,1,13,1C8.7,1,5,3.4,3.2,7H1 C0.4,7,0,7.4,0,8S0.4,9,1,9z"></path> <path fill="currentColor" d="M2.1,11C2,11.3,2,11.7,2,12c0,6.1,4.9,11,11,11c6.1,0,11-4.9,11-11c0-0.3,0-0.7-0.1-1H2.1z M18.8,15.6 C16.6,19,13.1,19,13,19h-1v-2h1c0.1,0,2.5-0.1,4.2-2.6l0.6-0.8l1.7,1.1L18.8,15.6z"></path></g></svg>