<svg id="nc_icon" xmlns="http://www.w3.org/2000/svg" xmlns:xlink="http://www.w3.org/1999/xlink" x="0px" y="0px" viewBox="0 0 24 24" ><g class="nc-icon-wrapper" fill="currentColor"><path d="M12,2C5.383,2,0,6.037,0,11a12,12,0,0,0,24,0C24,6.037,18.617,2,12,2Zm0,16C6.486,18,2,14.859,2,11S6.486,4,12,4s10,3.141,10,7S17.514,18,12,18Z" fill="currentColor"></path> <circle cx="12" cy="15" r="1" fill="currentColor" data-color="color-2"></circle> <circle cx="12" cy="7" r="1" fill="currentColor" data-color="color-2"></circle> <circle cx="8" cy="8" r="1" fill="currentColor" data-color="color-2"></circle> <circle cx="16" cy="8" r="1" fill="currentColor" data-color="color-2"></circle> <circle cx="8" cy="14" r="1" fill="currentColor" data-color="color-2"></circle> <circle cx="16" cy="14" r="1" fill="currentColor" data-color="color-2"></circle> <circle cx="18" cy="11" r="1" fill="currentColor" data-color="color-2"></circle> <circle cx="6" cy="11" r="1" fill="currentColor" data-color="color-2"></circle></g></svg>