<svg id="nc_icon" xmlns="http://www.w3.org/2000/svg" xmlns:xlink="http://www.w3.org/1999/xlink" x="0px" y="0px" viewBox="0 0 24 24" ><g class="nc-icon-wrapper" fill="currentColor"><path data-color="color-2" fill="currentColor" d="M5.724,17.966l-2.619,2.619c-0.781,0.781-0.781,2.047,0,2.828 c0.781,0.781,2.047,0.781,2.828,0l2.619-2.619L5.724,17.966z"></path> <path fill="currentColor" d="M22.606,5.368l-3.535-3.535c-1.134-1.134-2.641-1.758-4.243-1.758s-3.109,0.624-4.243,1.759l-8.364,8.389 c-0.39,0.391-0.39,1.023,0.001,1.413l7.071,7.071C9.48,18.895,9.734,19,10,19c0,0,0,0,0.001,0c0.265,0,0.52-0.105,0.707-0.294 L22.607,6.781C22.997,6.391,22.997,5.759,22.606,5.368z M9.172,14.561l-1.414-1.414l6.363-6.364l1.414,1.414L9.172,14.561z"></path></g></svg>