<svg id="nc_icon" version="1.1" xmlns="http://www.w3.org/2000/svg" xmlns:xlink="http://www.w3.org/1999/xlink" x="0px" y="0px" viewBox="0 0 24 24" xml:space="preserve" ><g class="nc-icon-wrapper" fill="currentColor"><rect data-color="color-2" y="13" fill="currentColor" width="3" height="2"></rect> <rect data-color="color-2" x="3.575" y="5.075" transform="matrix(0.7071 -0.7071 0.7071 0.7071 -3.3093 5.161)" fill="currentColor" width="2" height="3"></rect> <rect data-color="color-2" x="11" y="2" fill="currentColor" width="2" height="3"></rect> <rect data-color="color-2" x="17.925" y="5.575" transform="matrix(0.7071 -0.7071 0.7071 0.7071 1.04 15.6612)" fill="currentColor" width="3" height="2"></rect> <rect data-color="color-2" x="21" y="13" fill="currentColor" width="3" height="2"></rect> <path fill="currentColor" d="M13,7.08V14h-2V7.08C7.614,7.568,5,10.481,5,14c0,3.86,3.141,7,7,7s7-3.14,7-7 C19,10.481,16.386,7.568,13,7.08z"></path></g></svg>