<svg id="nc_icon" version="1.1" xmlns="http://www.w3.org/2000/svg" xmlns:xlink="http://www.w3.org/1999/xlink" x="0px" y="0px" viewBox="0 0 24 24" xml:space="preserve" ><g class="nc-icon-wrapper" fill="currentColor"><path data-color="color-2" fill="currentColor" d="M23.707,22.293l-2.274-2.274C21.785,19.424,22,18.74,22,18c0-2.206-1.794-4-4-4s-4,1.794-4,4 s1.794,4,4,4c0.74,0,1.424-0.215,2.019-0.567l2.274,2.274L23.707,22.293z M18,20c-1.103,0-2-0.897-2-2s0.897-2,2-2s2,0.897,2,2 S19.103,20,18,20z"></path> <path fill="currentColor" d="M4,15H2V4c0-1.103,0.897-2,2-2h16c1.103,0,2,0.897,2,2v9h-2V4H4V15z"></path> <path fill="currentColor" d="M12,18c0-0.341,0.035-0.674,0.09-1H0v1c0,2.206,1.794,4,4,4h9.54C12.586,20.937,12,19.538,12,18z"></path></g></svg>