<svg id="nc_icon" version="1.1" xmlns="http://www.w3.org/2000/svg" xmlns:xlink="http://www.w3.org/1999/xlink" x="0px" y="0px" viewBox="0 0 24 24" xml:space="preserve" ><g class="nc-icon-wrapper" fill="currentColor"><path fill="currentColor" d="M22,3h-6V1c0-0.6-0.4-1-1-1H9C8.4,0,8,0.4,8,1v2H2C1.4,3,1,3.4,1,4s0.4,1,1,1h1v10c0,2.6,1.7,4.8,4,5.6V23 c0,0.6,0.4,1,1,1h8c0.6,0,1-0.4,1-1v-2.4c2.3-0.8,4-3,4-5.6V5h1c0.6,0,1-0.4,1-1S22.6,3,22,3z M10,2h4v1h-4V2z M12,17 c-1.2,0-3-1-3-3.1c0-1.6,1.8-4,2.2-4.5l0.8-1l0.8,1c0.4,0.5,2.2,2.9,2.2,4.5C15,16,13.2,17,12,17z"></path></g></svg>