<svg id="nc_icon" version="1.1" xmlns="http://www.w3.org/2000/svg" xmlns:xlink="http://www.w3.org/1999/xlink" x="0px" y="0px" viewBox="0 0 24 24" xml:space="preserve" ><g class="nc-icon-wrapper" fill="currentColor"><path data-color="color-2" fill="currentColor" d="M7.73,13.91L2.09,8.27C1.419,8.985,1,9.941,1,11c0,2.209,1.791,4,4,4 C6.059,15,7.015,14.581,7.73,13.91z"></path> <path fill="currentColor" d="M14.076,3.457c-0.017-0.022-0.033-0.046-0.051-0.068l1.682-1.682c0.391-0.391,0.391-1.023,0-1.414 s-1.023-0.391-1.414,0l-1.682,1.682C11.071,0.742,9.122,0,7,0C4.616,0,2.369,0.924,0.673,2.603C0.483,2.79,0.377,3.044,0.376,3.311 C0.375,3.577,0.48,3.833,0.669,4.021l11.311,11.311c0.188,0.188,0.441,0.293,0.707,0.293c0.001,0,0.002,0,0.003,0 c0.266,0,0.521-0.107,0.708-0.297C15.076,13.631,16,11.384,16,9c0-0.092-0.011-0.182-0.014-0.273l3.681,4.26L11.555,22H6 c-0.553,0-1,0.448-1,1s0.447,1,1,1h14c0.553,0,1-0.448,1-1s-0.447-1-1-1h-5.755l7.498-8.331c0.337-0.375,0.343-0.941,0.014-1.323 L14.076,3.457z"></path></g></svg>