<svg id="nc_icon" version="1.1" xmlns="http://www.w3.org/2000/svg" xmlns:xlink="http://www.w3.org/1999/xlink" x="0px" y="0px" viewBox="0 0 24 24" xml:space="preserve" ><g class="nc-icon-wrapper" fill="currentColor"><path data-color="color-2" fill="currentColor" d="M2,22H0v-2h2c0.552,0,1-0.448,1-1v-0.394l-1.688-0.879c-0.677-0.353-1.089-1.045-1.076-1.808 c0.014-0.763,0.448-1.44,1.137-1.771L3,13.37V12c0-0.459,0.312-0.859,0.758-0.97l2.286-0.571L3.293,7.707C3.105,7.52,3,7.266,3,7V1 h2v5.586l2.458,2.458c0.517,0.517,0.708,1.245,0.514,1.949c-0.195,0.703-0.734,1.229-1.443,1.406L5,12.781V14 c0,0.385-0.221,0.735-0.568,0.901l-2.195,1.052l2.226,1.16C4.793,17.285,5,17.627,5,18v1C5,20.654,3.654,22,2,22z"></path> <path fill="currentColor" d="M21,3h-8c-1.654,0-3,1.346-3,3v5.667L6,17h15c1.654,0,3-1.346,3-3V6C24,4.346,22.654,3,21,3z M20,13h-6v-2h6 V13z M20,9h-6V7h6V9z"></path></g></svg>