<svg id="nc_icon" version="1.1" xmlns="http://www.w3.org/2000/svg" xmlns:xlink="http://www.w3.org/1999/xlink" x="0px" y="0px" viewBox="0 0 24 24" xml:space="preserve" ><g class="nc-icon-wrapper" fill="currentColor"><rect data-color="color-2" x="7" y="10" fill="currentColor" width="2" height="4"></rect> <rect data-color="color-2" x="11" y="6" fill="currentColor" width="2" height="8"></rect> <rect data-color="color-2" x="15" y="8" fill="currentColor" width="2" height="6"></rect> <path fill="currentColor" d="M4,5c0-0.551,0.448-1,1-1h14c0.552,0,1,0.449,1,1v9h2V5c0-1.654-1.346-3-3-3H5C3.346,2,2,3.346,2,5v9h2V5z"></path> <path fill="currentColor" d="M0,16v1c0,1.654,1.346,3,3,3h18c1.654,0,3-1.346,3-3v-1H0z"></path></g></svg>