<svg id="nc_icon" version="1.1" xmlns="http://www.w3.org/2000/svg" xmlns:xlink="http://www.w3.org/1999/xlink" x="0px" y="0px" viewBox="0 0 24 24" xml:space="preserve" ><g class="nc-icon-wrapper" fill="currentColor"><path fill="currentColor" d="M13,2C6.9,2,2,6.9,2,13c0,3.7,1.9,7,4.7,9H1c-0.6,0-1,0.4-1,1s0.4,1,1,1h13c5.6-0.5,10-5.3,10-11 C24,6.9,19.1,2,13,2z M10,18H9c-1.1,0-2-0.9-2-2s0.9-2,2-2h1V18z M10,12H9c-1.1,0-2-0.9-2-2s0.9-2,2-2h1V12z M15,18h-1V8h1 c2.8,0,5,2.2,5,5S17.8,18,15,18z"></path></g></svg>