<svg id="nc_icon" version="1.1" xmlns="http://www.w3.org/2000/svg" xmlns:xlink="http://www.w3.org/1999/xlink" x="0px" y="0px" viewBox="0 0 24 24" xml:space="preserve" ><g class="nc-icon-wrapper" fill="currentColor"><path fill="currentColor" d="M16,19c0-0.553-0.448-1-1-1H3c-0.552,0-1,0.447-1,1v3H0v2h18v-2h-2V19z"></path> <rect data-color="color-2" y="14" fill="currentColor" width="5" height="2"></rect> <rect data-color="color-2" x="3.697" y="7.197" transform="matrix(0.7073 -0.707 0.707 0.7073 -5.4803 6.1591)" fill="currentColor" width="2" height="5"></rect> <path fill="currentColor" d="M18.768,8.646l2.939-2.939c0.391-0.391,0.391-1.023,0-1.414l-3-3c-0.391-0.391-1.023-0.391-1.414,0l-8,8 c-0.391,0.391-0.391,1.023,0,1.414l3,3C12.488,13.902,12.744,14,13,14s0.512-0.098,0.707-0.293l2.939-2.939l4.293,4.293l2.121-2.121 L18.768,8.646z"></path></g></svg>