<svg id="nc_icon" version="1.1" xmlns="http://www.w3.org/2000/svg" xmlns:xlink="http://www.w3.org/1999/xlink" x="0px" y="0px" viewBox="0 0 24 24" xml:space="preserve" ><g class="nc-icon-wrapper" fill="currentColor"><path data-color="color-2" fill="currentColor" d="M11,8V6H5V1c0-0.552-0.448-1-1-1S3,0.448,3,1v18c0,0.552,0.448,1,1,1h7v-2H5V8H11z"></path> <path fill="currentColor" d="M20,12h-6c-0.552,0-1-0.448-1-1V3c0-0.552,0.448-1,1-1h4c0.265,0,0.52,0.105,0.707,0.293l2,2 C20.895,4.48,21,4.735,21,5v6C21,11.552,20.552,12,20,12z"></path> <path fill="currentColor" d="M20,24h-6c-0.552,0-1-0.447-1-1v-8c0-0.553,0.448-1,1-1h4c0.265,0,0.52,0.105,0.707,0.293l2,2 C20.895,16.48,21,16.734,21,17v6C21,23.553,20.552,24,20,24z"></path></g></svg>