<svg id="nc_icon" version="1.1" xmlns="http://www.w3.org/2000/svg" xmlns:xlink="http://www.w3.org/1999/xlink" x="0px" y="0px" viewBox="0 0 24 24" xml:space="preserve" ><g class="nc-icon-wrapper" fill="currentColor"><path fill="currentColor" d="M17,6H1C0.448,6,0,6.448,0,7v16c0,0.552,0.448,1,1,1h16c0.552,0,1-0.448,1-1V7C18,6.448,17.552,6,17,6z"></path> <path data-color="color-2" fill="currentColor" d="M20,3H3v2h16v16h2V4C21,3.448,20.552,3,20,3z"></path> <path data-color="color-2" fill="currentColor" d="M23,0H6v2h16v16h2V1C24,0.448,23.552,0,23,0z"></path></g></svg>