<svg id="nc_icon" version="1.1" xmlns="http://www.w3.org/2000/svg" xmlns:xlink="http://www.w3.org/1999/xlink" x="0px" y="0px" viewBox="0 0 24 24" xml:space="preserve" ><g class="nc-icon-wrapper" fill="currentColor"><path fill="currentColor" d="M10,14H2c-0.552,0-1-0.448-1-1V1c0-0.552,0.448-1,1-1h8c0.552,0,1,0.448,1,1v12C11,13.552,10.552,14,10,14z"></path> <path data-color="color-2" fill="currentColor" d="M10,24H2c-0.552,0-1-0.448-1-1v-6c0-0.552,0.448-1,1-1h8c0.552,0,1,0.448,1,1v6 C11,23.552,10.552,24,10,24z"></path> <path data-color="color-2" fill="currentColor" d="M22,8h-8c-0.552,0-1-0.448-1-1V1c0-0.552,0.448-1,1-1h8c0.552,0,1,0.448,1,1v6 C23,7.552,22.552,8,22,8z"></path> <path fill="currentColor" d="M22,24h-8c-0.552,0-1-0.448-1-1V11c0-0.552,0.448-1,1-1h8c0.552,0,1,0.448,1,1v12C23,23.552,22.552,24,22,24 z"></path></g></svg>