<svg id="nc_icon" xmlns="http://www.w3.org/2000/svg" xmlns:xlink="http://www.w3.org/1999/xlink" x="0px" y="0px" viewBox="0 0 24 24" ><g class="nc-icon-wrapper" fill="currentColor"><path d="M21.354,5.764a2.2,2.2,0,1,0-3.118-3.118l-.255.255C14.426,1.08,9.4,2.133,5.764,5.764S1.08,14.426,2.9,17.981l-.255.255a2.2,2.2,0,1,0,3.118,3.118l.255-.255c3.555,1.821,8.586.768,12.217-2.863S22.92,9.574,21.1,6.019ZM11,18a1,1,0,1,1,1-1A1,1,0,0,1,11,18Zm4-2a1,1,0,1,1,1-1A1,1,0,0,1,15,16Z" fill="currentColor"></path></g></svg>