<svg id="nc_icon" xmlns="http://www.w3.org/2000/svg" xmlns:xlink="http://www.w3.org/1999/xlink" x="0px" y="0px" viewBox="0 0 24 24" ><g class="nc-icon-wrapper" fill="currentColor"><path fill="currentColor" d="M23.217,15.803L8.197,0.783c-0.32-0.32-0.817-0.386-1.209-0.158C3.295,2.771,1,6.746,1,11 c0,6.617,5.383,12,12,12c4.254,0,8.229-2.295,10.375-5.988C23.603,16.62,23.537,16.123,23.217,15.803z M8.076,3.49l4.693,4.693 l-8.51,0.709C4.795,6.691,6.149,4.755,8.076,3.49z M4,11c0-0.027,0.005-0.054,0.005-0.081l8.358-0.697l-6.388,6.388 C4.742,15.071,4,13.122,4,11z M7.389,18.025l6.388-6.388l-0.697,8.358C13.054,19.995,13.027,20,13,20 C10.878,20,8.929,19.258,7.389,18.025z M15.108,19.741l0.709-8.51l4.693,4.693C19.245,17.851,17.309,19.205,15.108,19.741z"></path></g></svg>