<svg id="nc_icon" xmlns="http://www.w3.org/2000/svg" xmlns:xlink="http://www.w3.org/1999/xlink" x="0px" y="0px" viewBox="0 0 24 24" ><g class="nc-icon-wrapper"><path data-color="color-2" fill="currentColor" d="M15,9c1.654,0,3-1.346,3-3c0-1.278-1.522-3.621-2.177-4.568L15,0.24l-0.823,1.191 C13.522,2.379,12,4.722,12,6C12,7.654,13.346,9,15,9z"></path> <path fill="currentColor" d="M21,14H8V2c0-0.552-0.447-1-1-1H5C3.346,1,2,2.346,2,4v8c0,1.654,1.346,3,3,3h1v6c0,1.654,1.346,3,3,3h10 c1.654,0,3-1.346,3-3v-6C22,14.448,21.553,14,21,14z"></path> <path fill="currentColor" d="M20,13v-1c0-0.552-0.447-1-1-1h-8c-0.553,0-1,0.448-1,1v1H20z"></path></g></svg>