<svg id="nc_icon" version="1.1" xmlns="http://www.w3.org/2000/svg" xmlns:xlink="http://www.w3.org/1999/xlink" x="0px" y="0px" viewBox="0 0 24 24" xml:space="preserve" ><g class="nc-icon-wrapper"><polygon data-color="color-2" fill="currentColor" points="4,7 2,7 0,2 4,2 "></polygon> <polygon data-color="color-2" fill="currentColor" points="4,14 2,14 0,9 4,9 "></polygon> <polygon data-color="color-2" fill="currentColor" points="4,21 2,21 0,16 4,16 "></polygon> <polygon data-color="color-2" fill="currentColor" points="20,7 22,7 24,2 20,2 "></polygon> <polygon data-color="color-2" fill="currentColor" points="20,14 22,14 24,9 20,9 "></polygon> <polygon data-color="color-2" fill="currentColor" points="20,21 22,21 24,16 20,16 "></polygon> <path fill="currentColor" d="M17,0H7C6.447,0,6,0.448,6,1v22c0,0.552,0.447,1,1,1h10c0.553,0,1-0.448,1-1V1C18,0.448,17.553,0,17,0z M12,21c-1.105,0-2-0.895-2-2c0-1.105,0.895-2,2-2s2,0.895,2,2C14,20.105,13.105,21,12,21z M12,14c-1.105,0-2-0.895-2-2 c0-1.105,0.895-2,2-2s2,0.895,2,2C14,13.105,13.105,14,12,14z M12,7c-1.105,0-2-0.895-2-2c0-1.105,0.895-2,2-2s2,0.895,2,2 C14,6.105,13.105,7,12,7z"></path></g></svg>