<svg id="nc_icon" version="1.1" xmlns="http://www.w3.org/2000/svg" xmlns:xlink="http://www.w3.org/1999/xlink" x="0px" y="0px" viewBox="0 0 24 24" xml:space="preserve" ><g class="nc-icon-wrapper"><rect data-color="color-2" x="18.793" y="2.5" transform="matrix(0.7071 -0.7071 0.7071 0.7071 3.5294 15.5208)" fill="currentColor" width="3.414" height="2"></rect> <rect data-color="color-2" x="15" fill="currentColor" width="2" height="3"></rect> <rect data-color="color-2" x="21" y="7" fill="currentColor" width="3" height="2"></rect> <path fill="currentColor" d="M8.637,15.364c-0.766-0.766-1.368-1.651-1.808-2.606l-6.535,6.535c-0.391,0.391-0.391,1.023,0,1.414l3,3 C3.488,23.902,3.744,24,4,24s0.512-0.098,0.707-0.293l6.535-6.535C10.287,16.732,9.403,16.13,8.637,15.364z"></path> <path fill="currentColor" d="M21.364,11.122l-8.485-8.485c-0.391-0.391-1.023-0.391-1.414,0L10.051,4.05C8.729,5.373,8,7.13,8,9 s0.729,3.627,2.051,4.95S13.131,16,15,16c1.87,0,3.627-0.728,4.949-2.05l1.415-1.414c0.188-0.188,0.293-0.442,0.293-0.708 C21.657,11.563,21.552,11.309,21.364,11.122z"></path></g></svg>