<svg id="nc_icon" version="1.1" xmlns="http://www.w3.org/2000/svg" xmlns:xlink="http://www.w3.org/1999/xlink" x="0px" y="0px" viewBox="0 0 24 24" xml:space="preserve" ><g class="nc-icon-wrapper"><path data-color="color-2" fill="currentColor" d="M19,24c-1.3,0-2.6-0.5-3.5-1.5C14.6,23.5,13.3,24,12,24s-2.6-0.5-3.5-1.5 C7.6,23.5,6.3,24,5,24c-2.8,0-5-2.2-5-5c0-0.6,0.4-1,1-1s1,0.4,1,1c0,1.7,1.3,3,3,3c1.1,0,2.1-0.6,2.6-1.6c0.3-0.6,1.4-0.6,1.8,0 c0.5,1,1.5,1.6,2.6,1.6s2.1-0.6,2.6-1.6c0.3-0.6,1.4-0.6,1.8,0c0.5,1,1.5,1.6,2.6,1.6c1.7,0,3-1.3,3-3c0-0.6,0.4-1,1-1s1,0.4,1,1 C24,21.8,21.8,24,19,24z"></path> <path fill="currentColor" d="M16.6,3.2l-4-3c-0.4-0.3-0.8-0.3-1.2,0l-4,3C7.1,3.4,7,3.7,7,4v2c0,0.6,0.4,1,1,1h8c0.6,0,1-0.4,1-1V4 C17,3.7,16.9,3.4,16.6,3.2z"></path> <path fill="currentColor" d="M19.8,16.4l-2.9-6.8C16.8,9.2,16.4,9,16,9H8C7.6,9,7.2,9.2,7.1,9.6l-3,7c-0.1,0.3-0.1,0.7,0.1,0.9 C4.4,17.8,4.7,18,5,18h14c0,0,0,0,0,0c0.6,0,1-0.4,1-1C20,16.8,20,16.6,19.8,16.4z"></path></g></svg>