<svg id="nc_icon" version="1.1" xmlns="http://www.w3.org/2000/svg" xmlns:xlink="http://www.w3.org/1999/xlink" x="0px" y="0px" viewBox="0 0 24 24" xml:space="preserve" ><g class="nc-icon-wrapper"><path fill="currentColor" d="M13,2.090332V1c0-0.5522461-0.4472656-1-1-1s-1,0.4477539-1,1v1.090332C8.1668701,2.5686646,6,5.0327759,6,8 c0,2.9682617,2.328125,10,6,10s6-7.0317383,6-10C18,5.0327759,15.8331299,2.5686646,13,2.090332z"></path> <path data-color="color-2" fill="currentColor" d="M12,20c-0.5527344,0-1,0.4477539-1,1v2c0,0.5522461,0.4472656,1,1,1s1-0.4477539,1-1v-2 C13,20.4477539,12.5527344,20,12,20z"></path> <path data-color="color-2" fill="currentColor" d="M19.0712891,17.6567383c-0.390625-0.390625-1.0234375-0.390625-1.4140625,0 c-0.390625,0.3901367-0.390625,1.0234375,0,1.4140625l1.4140625,1.4145508c0.3906364,0.3906364,1.0234261,0.3906364,1.4140625,0 c0.390625-0.3901367,0.390625-1.0234375,0-1.4140625L19.0712891,17.6567383z"></path> <path data-color="color-2" fill="currentColor" d="M23,11h-2c-0.5527344,0-1,0.4477539-1,1s0.4472656,1,1,1h2c0.5527344,0,1-0.4477539,1-1 S23.5527344,11,23,11z"></path> <path data-color="color-2" fill="currentColor" d="M4.9287109,17.6567383l-1.4140625,1.4145508 c-0.390625,0.390625-0.390625,1.0239258,0,1.4140625c0.3906362,0.3906364,1.0234265,0.3906364,1.4140625,0l1.4140625-1.4145508 c0.390625-0.390625,0.390625-1.0239258,0-1.4140625C5.9521484,17.2661133,5.3193359,17.2661133,4.9287109,17.6567383z"></path> <path data-color="color-2" fill="currentColor" d="M4,12c0-0.5522461-0.4472656-1-1-1H1c-0.5527344,0-1,0.4477539-1,1s0.4472656,1,1,1h2 C3.5527344,13,4,12.5522461,4,12z"></path></g></svg>