<svg id="nc_icon" version="1.1" xmlns="http://www.w3.org/2000/svg" xmlns:xlink="http://www.w3.org/1999/xlink" x="0px" y="0px" viewBox="0 0 24 24" xml:space="preserve" ><g class="nc-icon-wrapper"><path data-color="color-2" fill="currentColor" d="M4,11H1c-0.6,0-1,0.4-1,1v11c0,0.6,0.4,1,1,1h3V11z"></path> <path fill="currentColor" d="M22.5,10.4c-0.8-0.9-1.9-1.4-3-1.4H13V4c0-2.2-0.8-4-3-4C9.5,0,9.2,0.3,9,0.7c0,0-3,10.3-3,10.3v13h12.4 c2,0,3.7-1.4,4-3.4l1.1-7C23.6,12.5,23.3,11.3,22.5,10.4z"></path></g></svg>