<svg id="nc_icon" version="1.1" xmlns="http://www.w3.org/2000/svg" xmlns:xlink="http://www.w3.org/1999/xlink" x="0px" y="0px" viewBox="0 0 24 24" xml:space="preserve" ><g class="nc-icon-wrapper"><path data-color="color-2" fill="currentColor" d="M4,13H1c-0.6,0-1-0.4-1-1V1c0-0.6,0.4-1,1-1h3V13z"></path> <path fill="currentColor" d="M22.5,13.6c-0.8,0.9-1.9,1.4-3,1.4H13v5c0,2.2-0.8,4-3,4c-0.5,0-0.8-0.3-1-0.7c0,0-3-10.3-3-10.3V0h12.4 c2,0,3.7,1.4,4,3.4l1.1,7C23.6,11.5,23.3,12.7,22.5,13.6z"></path></g></svg>