<svg id="nc_icon" version="1.1" xmlns="http://www.w3.org/2000/svg" xmlns:xlink="http://www.w3.org/1999/xlink" x="0px" y="0px" viewBox="0 0 24 24" xml:space="preserve" ><g class="nc-icon-wrapper"><path data-color="color-2" fill="currentColor" d="M5,22H3c-0.6,0-1-0.4-1-1v-9c0-0.6,0.4-1,1-1h2c0.6,0,1,0.4,1,1v9C6,21.6,5.6,22,5,22z"></path> <path fill="currentColor" d="M20,10h-5V7c0-1.7-1-4-2.5-4.9C11.8,1.8,11,2.2,11,3v4l-3,3.6V21l0.3,0.1C9.4,21.7,10.7,22,12,22h7 c1.1,0,2-0.9,2-2l1-8C22,10.9,21.1,10,20,10z"></path></g></svg>