<svg id="nc_icon" version="1.1" xmlns="http://www.w3.org/2000/svg" xmlns:xlink="http://www.w3.org/1999/xlink" x="0px" y="0px" viewBox="0 0 24 24" xml:space="preserve" ><g class="nc-icon-wrapper"><rect x="11" y="20" fill="currentColor" width="12" height="2"></rect> <polygon data-color="color-2" fill="currentColor" points="4,24 8,19 5,19 5,5 8,5 4,0 0,5 3,5 3,19 0,19 "></polygon> <path fill="currentColor" d="M13,18v-1.625l2.62927-0.15497C15.93922,16.19747,16,16.10919,16,15.77767V4h-3.81174 c-0.24325,0-0.30995,0.02207-0.35408,0.24325L11.48107,6H10V2h14v4h-1.48107l-0.3531-1.75675 C22.12169,4.02207,22.05499,4,21.81174,4H18v11.77767c0,0.30995,0.03822,0.39822,0.36975,0.4198L21,16.375V18H13z"></path></g></svg>