<svg id="nc_icon" version="1.1" xmlns="http://www.w3.org/2000/svg" xmlns:xlink="http://www.w3.org/1999/xlink" x="0px" y="0px" viewBox="0 0 24 24" xml:space="preserve" ><g class="nc-icon-wrapper"><path fill="currentColor" d="M24,12l-5-4v3H1c-0.553,0-1,0.447-1,1s0.447,1,1,1h18v3L24,12z"></path> <path data-color="color-2" fill="currentColor" d="M12,18H1c-0.553,0-1,0.447-1,1s0.447,1,1,1h11v3l5-4l-5-4V18z"></path> <path data-color="color-2" fill="currentColor" d="M1,6h5v3l5-4L6,1v3H1C0.447,4,0,4.447,0,5S0.447,6,1,6z"></path></g></svg>