<svg id="nc_icon" version="1.1" xmlns="http://www.w3.org/2000/svg" xmlns:xlink="http://www.w3.org/1999/xlink" x="0px" y="0px" viewBox="0 0 24 24" xml:space="preserve" ><g class="nc-icon-wrapper" fill="currentColor"><path fill="currentColor" d="M22,0H2C1.448,0,1,0.447,1,1v22c0,0.553,0.448,1,1,1h20c0.552,0,1-0.447,1-1V1C23,0.447,22.552,0,22,0z M16,16c0,2.206-1.794,4-4,4s-4-1.794-4-4v-3h2v3c0,1.103,0.897,2,2,2s2-0.897,2-2v-3h2V16z M11,15V9h2v6H11z M16,11h-2V8 c0-1.103-0.897-2-2-2s-2,0.897-2,2v3H8V8c0-2.206,1.794-4,4-4s4,1.794,4,4V11z"></path></g></svg>