<svg id="nc_icon" version="1.1" xmlns="http://www.w3.org/2000/svg" xmlns:xlink="http://www.w3.org/1999/xlink" x="0px" y="0px" viewBox="0 0 24 24" xml:space="preserve" ><g class="nc-icon-wrapper" fill="currentColor"><rect data-color="color-2" x="7" y="11" fill="currentColor" width="10" height="2"></rect> <path fill="currentColor" d="M8.618,15C7.915,15.615,7.006,16,6,16c-2.206,0-4-1.794-4-4s1.794-4,4-4c1.006,0,1.915,0.385,2.618,1h2.57 C10.149,7.21,8.215,6,6,6c-3.309,0-6,2.691-6,6s2.691,6,6,6c2.215,0,4.149-1.21,5.188-3H8.618z"></path> <path fill="currentColor" d="M15.382,15c0.703,0.615,1.612,1,2.618,1c2.206,0,4-1.794,4-4s-1.794-4-4-4c-1.006,0-1.915,0.385-2.618,1 h-2.57C13.851,7.21,15.785,6,18,6c3.309,0,6,2.691,6,6s-2.691,6-6,6c-2.215,0-4.149-1.21-5.188-3H15.382z"></path> <rect data-color="color-2" x="11" y="1" fill="currentColor" width="2" height="5"></rect> <rect data-color="color-2" x="11" y="18" fill="currentColor" width="2" height="5"></rect></g></svg>