<svg id="nc_icon" version="1.1" xmlns="http://www.w3.org/2000/svg" xmlns:xlink="http://www.w3.org/1999/xlink" x="0px" y="0px" viewBox="0 0 24 24" xml:space="preserve" ><g class="nc-icon-wrapper"><path fill="currentColor" d="M18 14.414L16.586 13l4-4L15 3.414l-4 4L9.586 6l4.707-4.707a.999.999 0 0 1 1.414 0l7 7a.999.999 0 0 1 0 1.414L18 14.414z"></path><path fill="currentColor" d="M9 23a.997.997 0 0 1-.707-.293l-7-7a.999.999 0 0 1 0-1.414L6 9.586 7.414 11l-4 4L9 20.586l4-4L14.414 18l-4.707 4.707A.997.997 0 0 1 9 23z"></path><path data-color="color-2" fill="currentColor" d="M7.586 15l7.413-7.414L16.414 9 9 16.415z"></path></g></svg>