<svg id="nc_icon" version="1.1" xmlns="http://www.w3.org/2000/svg" xmlns:xlink="http://www.w3.org/1999/xlink" x="0px" y="0px" viewBox="0 0 24 24" xml:space="preserve" ><g class="nc-icon-wrapper"><path fill="currentColor" d="M14,11c-0.551,0-1,0.448-1,1c0,1.654-1.346,3-3,3H5c-1.654,0-3-1.346-3-3s1.346-3,3-3h2.705 c0.36-0.752,0.847-1.425,1.438-2H5c-2.757,0-5,2.243-5,5s2.243,5,5,5h5c2.757,0,5-2.243,5-5c0-0.342-0.035-0.677-0.101-1H14z"></path> <path data-color="color-2" fill="currentColor" d="M10,13c0.551,0,1-0.448,1-1c0-1.654,1.346-3,3-3h5c1.654,0,3,1.346,3,3s-1.346,3-3,3h-2.705 c-0.36,0.752-0.847,1.425-1.438,2H19c2.757,0,5-2.243,5-5s-2.243-5-5-5h-5c-2.757,0-5,2.243-5,5c0,0.342,0.035,0.677,0.101,1H10z"></path></g></svg>