<svg id="nc_icon" version="1.1" xmlns="http://www.w3.org/2000/svg" xmlns:xlink="http://www.w3.org/1999/xlink" x="0px" y="0px" viewBox="0 0 24 24" xml:space="preserve" ><g class="nc-icon-wrapper"><path fill="currentColor" d="M14.242,9.758c-0.49-0.49-1.052-0.878-1.659-1.169C12.208,8.966,12,9.468,12,10 c0,0.213,0.04,0.415,0.102,0.608c0.259,0.161,0.505,0.343,0.726,0.564C13.583,11.928,14,12.932,14,14s-0.416,2.073-1.171,2.829 l-3,2.999c-1.512,1.512-4.146,1.512-5.657,0C3.416,19.072,3,18.068,3,17s0.416-2.072,1.171-2.828l2.104-2.104 C6.098,11.401,6,10.709,6,10c0-0.162,0.013-0.323,0.023-0.483C5.934,9.596,5.843,9.673,5.757,9.758l-3,3C1.624,13.891,1,15.397,1,17 s0.624,3.109,1.757,4.242C3.891,22.376,5.397,23,7,23s3.109-0.624,4.243-1.758l3-2.999C15.375,17.109,16,15.603,16,14 S15.375,10.891,14.242,9.758z"></path> <path data-color="color-2" fill="currentColor" d="M21.243,2.758C20.109,1.624,18.603,1,17,1s-3.109,0.624-4.243,1.758l-3,2.999 C8.625,6.891,8,8.397,8,10s0.624,3.109,1.757,4.242c0.49,0.49,1.052,0.878,1.659,1.169C11.792,15.034,12,14.532,12,14 c0-0.218-0.041-0.425-0.106-0.622c-0.258-0.155-0.503-0.332-0.721-0.55C10.417,12.072,10,11.068,10,10s0.416-2.073,1.171-2.829 l3-2.999C14.927,3.416,15.932,3,17,3s2.073,0.416,2.829,1.172C20.584,4.928,21,5.932,21,7s-0.416,2.072-1.171,2.828l-2.107,2.107 C17.9,12.601,18,13.292,18,14c0,0.162-0.012,0.322-0.021,0.482c0.089-0.079,0.18-0.155,0.265-0.24l3-3C22.376,10.109,23,8.603,23,7 S22.376,3.891,21.243,2.758z"></path></g></svg>