<svg id="nc_icon" version="1.1" xmlns="http://www.w3.org/2000/svg" xmlns:xlink="http://www.w3.org/1999/xlink" x="0px" y="0px" viewBox="0 0 24 24" xml:space="preserve" ><g class="nc-icon-wrapper" fill="currentColor"><path fill="currentColor" d="M23,5H9C8.44775,5,8,4.55225,8,4s0.44775-1,1-1h14c0.55225,0,1,0.44775,1,1S23.55225,5,23,5z"></path> <path fill="currentColor" d="M23,13H9c-0.55225,0-1-0.44775-1-1s0.44775-1,1-1h14c0.55225,0,1,0.44775,1,1S23.55225,13,23,13z"></path> <path fill="currentColor" d="M23,21H9c-0.55225,0-1-0.44727-1-1s0.44775-1,1-1h14c0.55225,0,1,0.44727,1,1S23.55225,21,23,21z"></path> <path data-color="color-2" fill="currentColor" d="M1.55949,6.59277V5.88135L2.3339,5.81836c0.12598-0.00879,0.14404-0.04492,0.14404-0.17969 V2.49658c0-0.10791-0.02686-0.16211-0.11719-0.18896l-0.7832-0.16211l0.09912-0.73828h2.16064v4.23145 c0,0.14404,0.00879,0.1709,0.14404,0.17969l0.73828,0.06299v0.71143H1.55949z"></path> <path data-color="color-2" fill="currentColor" d="M1.09147,14.6604V13.823l1.20654-1.1792c0.90918-0.88232,1.29639-1.24219,1.29639-1.75537 c0-0.3335-0.16211-0.57617-0.63916-0.57617c-0.49561,0-0.70264,0.16211-0.70264,0.80127l-1.22412-0.1084 C1.03727,9.57397,2.12663,9.3396,3.07194,9.3396c1.39551,0,1.89062,0.59424,1.89062,1.44043 c0,0.84668-0.58496,1.40479-1.24219,2.03467L2.7028,13.78735h1.32373c0.08984,0,0.12598-0.01807,0.14404-0.1084l0.12598-0.71094 h0.9541v1.69238H1.09147z"></path> <path data-color="color-2" fill="currentColor" d="M4.1298,19.90112c0.76562,0.11719,1.18848,0.57617,1.18848,1.38623 c0,1.18848-0.89111,1.74658-2.17871,1.74658c-0.90918,0-1.71924-0.32373-2.17871-0.82812l0.72021-0.79199 c0.34229,0.33301,0.72021,0.59375,1.35059,0.59375c0.50439,0,0.93652-0.17969,0.93652-0.81006 c0-0.54932-0.34229-0.77441-0.90039-0.77441c-0.2251,0-0.396,0.01807-0.6665,0.06299v-0.8999l0.44141-0.0542 c0.64795-0.08105,0.99902-0.396,0.99902-0.97217c0-0.34229-0.15283-0.62109-0.65723-0.62109 c-0.48584,0-0.71973,0.16211-0.71973,0.80127l-1.2334-0.1084c0-1.42236,1.07129-1.66553,2.0166-1.66553 c1.38623,0,1.91748,0.53125,1.91748,1.49463c0,0.75635-0.46826,1.2334-1.03564,1.4043V19.90112z"></path></g></svg>