<svg id="nc_icon" version="1.1" xmlns="http://www.w3.org/2000/svg" xmlns:xlink="http://www.w3.org/1999/xlink" x="0px" y="0px" viewBox="0 0 24 24" xml:space="preserve" ><g class="nc-icon-wrapper" fill="currentColor"><circle data-color="color-2" fill="currentColor" cx="2" cy="4" r="2"></circle> <circle data-color="color-2" fill="currentColor" cx="2" cy="12" r="2"></circle> <circle data-color="color-2" fill="currentColor" cx="2" cy="20" r="2"></circle> <path fill="currentColor" d="M23,5H8C7.44775,5,7,4.55225,7,4s0.44775-1,1-1h15c0.55225,0,1,0.44775,1,1S23.55225,5,23,5z"></path> <path fill="currentColor" d="M23,13H8c-0.55225,0-1-0.44775-1-1s0.44775-1,1-1h15c0.55225,0,1,0.44775,1,1S23.55225,13,23,13z"></path> <path fill="currentColor" d="M23,21H8c-0.55225,0-1-0.44727-1-1s0.44775-1,1-1h15c0.55225,0,1,0.44727,1,1S23.55225,21,23,21z"></path></g></svg>