<svg id="nc_icon" version="1.1" xmlns="http://www.w3.org/2000/svg" xmlns:xlink="http://www.w3.org/1999/xlink" x="0px" y="0px" viewBox="0 0 24 24" xml:space="preserve" ><g class="nc-icon-wrapper" fill="currentColor"><path fill="currentColor" d="M24,5c0-1.4-0.5-2.6-1.5-3.6l-1.1-1l-0.6,1.4C20.5,2.5,19.8,3,19,3s-1.5-0.5-1.9-1.2l-0.6-1.4l-1.1,1 c-1,1-1.5,2.2-1.5,3.6c0,2.3,1.6,4.3,3.8,4.8c-0.3,1-0.9,1.9-1.7,2.5c-0.1-0.3-0.2-0.5-0.4-0.7l-1.4-2.3C13.9,8.5,13,8,12,8 s-1.9,0.5-2.4,1.3l-1.4,2.3c-0.1,0.2-0.3,0.5-0.4,0.8c-0.8-0.6-1.5-1.6-1.8-2.5C8.3,9.3,10,7.4,10,5c0-1.4-0.5-2.6-1.5-3.6l-1.1-1 L6.9,1.8C6.5,2.5,5.8,3,5,3S3.5,2.5,3.1,1.8L2.6,0.4l-1.1,1C0.5,2.4,0,3.6,0,5c0,2.4,1.8,4.5,4.1,4.9c0.3,1.9,1.7,3.7,3.5,4.6 c0,0.7,0.2,1.3,0.5,1.9l1.4,2.9C8,19.9,7,21.3,7,23c0,0.6,0.4,1,1,1h8c0.6,0,1-0.4,1-1c0-1.7-1-3.1-2.5-3.7l1.4-2.9 c0.3-0.6,0.5-1.3,0.5-1.9c1.7-0.8,3.1-2.7,3.4-4.6C22.2,9.5,24,7.5,24,5z"></path></g></svg>