<svg id="nc_icon" version="1.1" xmlns="http://www.w3.org/2000/svg" xmlns:xlink="http://www.w3.org/1999/xlink" x="0px" y="0px" viewBox="0 0 24 24" xml:space="preserve" ><g class="nc-icon-wrapper" fill="currentColor"><path data-color="color-2" fill="currentColor" d="M18,16h-1v-2c0-1.654-1.346-3-3-3s-3,1.346-3,3v2h-1c-0.552,0-1,0.448-1,1v5 c0,0.552,0.448,1,1,1h8c0.552,0,1-0.448,1-1v-5C19,16.448,18.552,16,18,16z M13,14c0-0.551,0.449-1,1-1s1,0.449,1,1v2h-2V14z"></path> <path fill="currentColor" d="M21,2H3C1.346,2,0,3.346,0,5v12c0,1.654,1.346,3,3,3h4v-2H4c-0.552,0-1-0.448-1-1V5c0-0.552,0.448-1,1-1h16 c0.552,0,1,0.448,1,1v15c1.654,0,3-1.346,3-3V5C24,3.346,22.654,2,21,2z"></path></g></svg>