<svg id="nc_icon" version="1.1" xmlns="http://www.w3.org/2000/svg" xmlns:xlink="http://www.w3.org/1999/xlink" x="0px" y="0px" viewBox="0 0 24 24" xml:space="preserve" ><g class="nc-icon-wrapper" fill="currentColor"><path fill="currentColor" d="M12,8c-1.458,0-2.822,0.398-4,1.082V6c0-2.206,1.794-4,4-4s4,1.794,4,4h2c0-3.309-2.691-6-6-6S6,2.691,6,6 v4.726C4.759,12.136,4,13.979,4,16c0,4.411,3.589,8,8,8s8-3.589,8-8S16.411,8,12,8z M13,17.816V20h-2v-2.184 C9.839,17.402,9,16.302,9,15c0-1.654,1.346-3,3-3s3,1.346,3,3C15,16.302,14.161,17.402,13,17.816z"></path></g></svg>