<svg id="nc_icon" version="1.1" xmlns="http://www.w3.org/2000/svg" xmlns:xlink="http://www.w3.org/1999/xlink" x="0px" y="0px" viewBox="0 0 24 24" xml:space="preserve" ><g class="nc-icon-wrapper" fill="currentColor"><path fill="currentColor" d="M8,22c-0.205,0-0.408-0.062-0.581-0.187l-7-5C0.156,16.626,0,16.323,0,16V1c0-0.553,0.448-1,1-1 c0.388,0,1.185,0.624,1.316,0.718l6.266,4.484C8.844,5.391,9,5.693,9,6.016V21c0,0.375-0.209,0.718-0.542,0.89 C8.313,21.963,8.156,22,8,22z"></path> <path data-color="color-2" fill="currentColor" d="M24,9l-6-5v4h-4V7V1c0-0.553-0.448-1-1-1H4.751l4.995,3.576C10.532,4.141,11,5.053,11,6.016 V17h2c0.552,0,1-0.447,1-1v-6h4v4L24,9z"></path></g></svg>