<svg id="nc_icon" version="1.1" xmlns="http://www.w3.org/2000/svg" xmlns:xlink="http://www.w3.org/1999/xlink" x="0px" y="0px" viewBox="0 0 24 24" xml:space="preserve" ><g class="nc-icon-wrapper" fill="currentColor"><path data-color="color-2" fill="currentColor" d="M24,11h-2V9h-2v2h-2v2h2v2h2v-2h2V11z"></path> <path fill="currentColor" d="M16.52643,11.00446L9,11v3h4.30109c-0.23212,1.26971-1.5036,3.58588-4.80109,3.58588 c-2.90216,0-5.27002-2.4043-5.27002-5.36713S5.59784,6.85162,8.5,6.85162c1.65143,0,2.75641,0.70428,3.38788,1.3114l2.30713-2.22211 C12.71356,4.55658,10.79498,3.71875,8.5,3.71875c-4.69928,0-8.5,3.80072-8.5,8.5s3.80072,8.5,8.5,8.5 C14.34778,20.71875,17.35991,15.86501,16.52643,11.00446z"></path></g></svg>