<svg id="nc_icon" version="1.1" xmlns="http://www.w3.org/2000/svg" xmlns:xlink="http://www.w3.org/1999/xlink" x="0px" y="0px" viewBox="0 0 24 24" xml:space="preserve" ><g class="nc-icon-wrapper" fill="currentColor"><path d="M23,0H1A1,1,0,0,0,0,1V23a1,1,0,0,0,1,1H23a1,1,0,0,0,1-1V1A1,1,0,0,0,23,0ZM19.938,5.686,18.651,6.92a.376.376,0,0,0-.143.361v9.068a.376.376,0,0,0,.143.361l1.257,1.234v.271H13.586v-.271l1.3-1.264c.128-.128.128-.166.128-.361V8.99l-3.621,9.2h-.489L6.691,8.99v6.163a.85.85,0,0,0,.233.707l1.694,2.054v.271h-4.8v-.271L5.509,15.86a.82.82,0,0,0,.218-.707V8.027a.625.625,0,0,0-.2-.527L4.019,5.686V5.415H8.693l3.613,7.924,3.176-7.924h4.456Z" fill="currentColor"></path></g></svg>