<svg id="nc_icon" version="1.1" xmlns="http://www.w3.org/2000/svg" xmlns:xlink="http://www.w3.org/1999/xlink" x="0px" y="0px" viewBox="0 0 24 24" xml:space="preserve" ><g class="nc-icon-wrapper" fill="currentColor"><path fill="currentColor" d="M19.9,4.7c0-0.1-0.1-0.2-0.2-0.2c-0.1,0-1.9-0.1-1.9-0.1s-1.3-1.3-1.4-1.4c-0.1-0.1-0.4-0.1-0.5-0.1 c0,0-0.3,0.1-0.7,0.2c-0.4-1.2-1.2-2.4-2.5-2.4c0,0-0.1,0-0.1,0C12.1,0.2,11.7,0,11.3,0c-3.1,0-4.6,3.9-5,5.8C5,6.2,4.2,6.5,4.1,6.5 C3.4,6.7,3.4,6.7,3.3,7.4C3.2,7.9,1.4,21.4,1.4,21.4L15.1,24l7.4-1.6C22.6,22.4,19.9,4.8,19.9,4.7z M12.4,3.8c0,0,0,0.1,0,0.1 c-0.8,0.2-1.6,0.5-2.4,0.7c0.5-1.8,1.3-2.6,2.1-3C12.3,2.2,12.4,2.9,12.4,3.8z M11.2,0.8c0.1,0,0.3,0,0.4,0.1c-1,0.5-2.1,1.6-2.5,4 C8.4,5.2,7.8,5.4,7.2,5.5C7.7,3.7,8.9,0.8,11.2,0.8z M11.7,11.3c0,0-0.8-0.4-1.8-0.4c-1.4,0-1.5,0.9-1.5,1.1c0,1.2,3.2,1.7,3.2,4.6 c0,2.3-1.5,3.8-3.4,3.8c-2.3,0-3.6-1.5-3.6-1.5l0.6-2.1c0,0,1.2,1.1,2.3,1.1c0.7,0,1-0.5,1-0.9c0-1.6-2.7-1.7-2.7-4.4 c0-2.2,1.6-4.4,4.9-4.4c1.3,0,1.9,0.4,1.9,0.4L11.7,11.3z M13.2,3.7c0-0.1,0-0.2,0-0.2c0-0.8-0.1-1.4-0.3-1.9 c0.7,0.1,1.1,0.9,1.4,1.8C14,3.4,13.6,3.5,13.2,3.7z"></path></g></svg>