<svg id="nc_icon" version="1.1" xmlns="http://www.w3.org/2000/svg" xmlns:xlink="http://www.w3.org/1999/xlink" x="0px" y="0px" viewBox="0 0 24 24" xml:space="preserve" ><g class="nc-icon-wrapper" fill="currentColor"><path fill-rule="evenodd" clip-rule="evenodd" fill="currentColor" d="M23.3,9.3c-0.5-0.2-2.7,0-3.3-0.5c-0.4-0.4-0.5-1.1-0.6-2.1 c-0.3-1.6-0.4-1.9-0.7-2.6C17.7,1.9,15.2,0,12.9,0H7.6C3.5,0,0,3.4,0,7.6v8.8C0,20.6,3.5,24,7.6,24h8.7c4.2,0,7.6-3.4,7.6-7.6l0-6.1 C24,10.3,24,9.5,23.3,9.3z M7.5,6h4C12.3,6,13,6.7,13,7.5v0C13,8.3,12.3,9,11.5,9h-4C6.7,9,6,8.3,6,7.5v0C6,6.7,6.7,6,7.5,6z M16.5,18h-9C6.7,18,6,17.3,6,16.5v0C6,15.7,6.7,15,7.5,15h9c0.8,0,1.5,0.7,1.5,1.5v0C18,17.3,17.3,18,16.5,18z"></path></g></svg>