<svg id="nc_icon" version="1.1" xmlns="http://www.w3.org/2000/svg" xmlns:xlink="http://www.w3.org/1999/xlink" x="0px" y="0px" viewBox="0 0 24 24" xml:space="preserve" ><g class="nc-icon-wrapper" fill="currentColor"><path fill="currentColor" d="M20.16475,6.06777c-0.00146,0.00989-0.00182,0.01216-0.00446,0.02982 C20.16029,6.09759,20.16244,6.08321,20.16475,6.06777z"></path> <path fill="currentColor" d="M20.16475,6.06777C20.1716,6.02194,20.1688,6.04054,20.16475,6.06777L20.16475,6.06777z"></path> <path fill="currentColor" d="M19.14857,1.80966C18.03726,0.54304,16.0284,0,13.45856,0h-7.4585 C5.47429,0,5.02748,0.38238,4.94519,0.90086L1.83961,20.59705c-0.06171,0.38833,0.23902,0.7402,0.63266,0.7402h4.60458 l1.15645-7.33504l-0.03586,0.2297c0.08233-0.51848,0.52577-0.90086,1.0509-0.90086h2.18811c4.2985,0,7.6643-1.74597,8.64749-6.79667 c0.02917-0.14935,0.07634-0.4368,0.07634-0.4368C20.43915,4.22865,20.15831,2.96016,19.14857,1.80966z"></path> <path data-color="color-2" fill="currentColor" d="M21.32578,7.05404c-1.06914,4.9725-4.4793,7.60449-9.88928,7.60449H9.47408L8.0107,24 h3.18289c0.4594,0,0.85041-0.33457,0.92209-0.78802l0.03784-0.19781l0.73157-4.63643l0.04716-0.25624 c0.07168-0.45345,0.46269-0.78801,0.92209-0.78801h0.58088c3.76013,0,6.70436-1.52757,7.56474-5.94556 C22.34476,9.61549,22.17952,8.12845,21.32578,7.05404z"></path></g></svg>