<svg id="nc_icon" version="1.1" xmlns="http://www.w3.org/2000/svg" xmlns:xlink="http://www.w3.org/1999/xlink" x="0px" y="0px" viewBox="0 0 24 24" xml:space="preserve" ><g class="nc-icon-wrapper" fill="currentColor"><path fill="currentColor" d="M23.117,12.249c0.845-0.857,1.117-2.228,0.67-3.336c-0.356-0.883-0.99-1.473-1.875-1.8 c-0.136-0.05-0.162-0.124-0.166-0.251c-0.011-0.357-0.014-0.715-0.056-1.069c-0.115-0.962-0.484-1.83-1.067-2.599 c-0.936-1.234-2.173-1.977-3.71-2.212c-0.863-0.132-1.713-0.076-2.544,0.188c-0.191,0.061-0.333,0.04-0.501-0.058 c-1.015-0.594-2.114-0.885-3.144-0.892C9.57,0.224,8.612,0.443,7.716,0.899C6.302,1.62,5.279,2.713,4.666,4.18 C4.603,4.332,4.509,4.401,4.353,4.427c-0.946,0.156-1.734,0.6-2.383,1.304c-1.228,1.334-1.473,3.412-0.573,4.99 c0.087,0.153,0.072,0.243-0.049,0.368c-0.799,0.82-1.259,1.798-1.335,2.946c-0.072,1.078,0.183,2.071,0.803,2.961 c0.713,1.023,1.691,1.641,2.909,1.885c0.118,0.024,0.167,0.085,0.175,0.207c0.014,0.208,0.032,0.417,0.072,0.621 c0.229,1.171,0.784,2.156,1.704,2.921c1.245,1.034,2.829,1.345,4.259,1.036c0.684-0.148,1.316-0.418,1.868-0.856 c0.096-0.076,0.165-0.092,0.264-0.011c0.542,0.444,1.156,0.725,1.855,0.818c1.356,0.18,2.475-0.262,3.367-1.286 c0.325-0.373,0.546-0.808,0.688-1.283c0.029-0.096,0.054-0.197,0.192-0.199c0.983-0.015,1.564-0.158,2.064-0.365 c1.886-0.78,3.034-2.175,3.392-4.191c0.219-1.234,0.009-2.408-0.584-3.513C22.86,12.44,22.845,12.525,23.117,12.249z M18.402,17.609 c-0.32,0.099-0.783,0.165-0.998,0.161c-0.674-0.006-1.339-0.096-1.952-0.376c-0.815-0.372-1.308-1.024-1.507-1.902 c-0.153-0.676,0.05-1.285,0.332-1.88c0.525-1.109,1.06-2.214,1.583-3.324c0.196-0.417,0.594-1.187,0.187-1.405 c-0.475-0.254-0.808,0.295-1.061,0.788c-0.624,1.214-1.237,2.433-1.855,3.649c-0.286,0.563-0.563,1.131-0.865,1.685 c-0.279,0.511-0.7,0.834-1.312,0.798c-0.931-0.054-1.192-0.666-0.833-1.565c0.455-1.139,0.912-2.278,1.361-3.42 c0.119-0.303,0.252-0.606,0.191-0.949c-0.052-0.297-0.215-0.489-0.473-0.54c-0.215-0.043-0.547,0.118-0.655,0.35 c-0.177,0.384-0.336,0.776-0.492,1.169c-0.678,1.698-1.346,3.401-2.031,5.096c-0.189,0.468-0.474,0.897-0.972,1.069 c-1.391,0.479-3.052-0.413-2.907-2.089c0.045-0.523,1.217-4.2,1.292-4.436c0.346-1.083,0.678-2.174,1.189-3.195 c0.35-0.7,0.955-1.09,1.685-1.312c0.606-0.184,1.163-0.044,1.704,0.239c0.285,0.149,0.582,0.274,0.869,0.419 c0.213,0.107,0.427,0.105,0.612-0.026c0.262-0.185,0.515-0.386,0.749-0.606c0.519-0.488,1.316-0.57,1.81-0.295 c0.276,0.154,0.502,0.397,0.746,0.605c0.239,0.204,0.343,0.23,0.604,0.059c0.495-0.323,1.044-0.301,1.592-0.269 c1.435,0.085,1.887,1.422,1.667,2.39c-0.221,0.973-0.665,1.859-1.05,2.768c-0.32,0.757-0.645,1.512-0.942,2.278 c-0.175,0.45-0.29,0.921-0.295,1.41c-0.005,0.522,0.234,0.81,0.751,0.906c0.596,0.112,0.93,0.12,1.308,0.274 c0.342,0.139,0.479,0.418,0.473,0.768C18.901,17.246,18.73,17.508,18.402,17.609z"></path></g></svg>