<svg id="nc_icon" version="1.1" xmlns="http://www.w3.org/2000/svg" xmlns:xlink="http://www.w3.org/1999/xlink" x="0px" y="0px" viewBox="0 0 24 24" xml:space="preserve" ><g class="nc-icon-wrapper" fill="currentColor"><path fill="currentColor" d="M3.5,11.6c-0.4,0.6-0.5,2.6-0.4,3.9c0,0.4,0.1,0.8,0.2,1c0.2,0.3,0.4,0.5,0.7,0.5c0.2,0,0.3,0,3.8-1.2 c0,0,1.6-0.5,1.6-0.5c0.4-0.1,0.7-0.5,0.7-0.9c0-0.5-0.2-0.9-0.6-1.1c0,0-1.1-0.5-1.1-0.5c-3.8-1.6-4-1.7-4.1-1.7 C4,11.1,3.7,11.3,3.5,11.6z"></path> <path fill="currentColor" d="M12,23.5c0.1-0.2,0.1-0.3,0.1-4.1c0,0,0-1.7,0-1.7c0-0.4-0.2-0.8-0.7-1c-0.4-0.2-0.9-0.1-1.2,0.3 c0,0-0.8,0.9-0.8,0.9c-2.7,3.2-2.8,3.3-2.8,3.5c0,0.1-0.1,0.2,0,0.3c0,0.2,0.1,0.3,0.2,0.5c0.6,0.7,3.6,1.9,4.5,1.7 C11.6,23.9,11.9,23.7,12,23.5z"></path> <path fill="currentColor" d="M18,22.1c0.9-0.4,2.8-2.9,3-3.9c0-0.3-0.1-0.6-0.3-0.8c-0.1-0.1-0.3-0.2-3.8-1.3c0,0-1.5-0.5-1.6-0.5 c-0.4-0.1-0.8,0-1.1,0.4c-0.3,0.4-0.3,0.9-0.1,1.2l0.6,1c2.1,3.5,2.2,3.7,2.4,3.8C17.4,22.2,17.7,22.3,18,22.1L18,22.1z"></path> <path fill="currentColor" d="M16.1,13.2c4-1,4.2-1,4.3-1.1c0.2-0.2,0.4-0.4,0.3-0.8c0,0,0,0,0,0c-0.1-1-1.8-3.6-2.7-4 c-0.3-0.1-0.6-0.1-0.8,0c-0.2,0.1-0.3,0.3-2.4,3.3c0,0-1,1.3-1,1.4c-0.3,0.3-0.3,0.8,0,1.2c0.3,0.4,0.7,0.6,1.1,0.5c0,0,0,0,0,0 C15.2,13.4,15.5,13.4,16.1,13.2z"></path> <path fill="currentColor" d="M12.1,9.8L12.1,9.8c-0.1-1.6-0.5-8.8-0.6-9.2c-0.1-0.3-0.3-0.5-0.6-0.6C9.9-0.2,6,0.9,5.2,1.7 C5,1.9,4.9,2.2,5,2.5c0.1,0.2,4.9,8,4.9,8c0.7,1.2,1.3,1,1.5,0.9C11.6,11.4,12.2,11.2,12.1,9.8z"></path></g></svg>