<svg id="nc_icon" version="1.1" xmlns="http://www.w3.org/2000/svg" xmlns:xlink="http://www.w3.org/1999/xlink" x="0px" y="0px" viewBox="0 0 24 24" xml:space="preserve" ><g class="nc-icon-wrapper" fill="currentColor"><path fill="currentColor" d="M9.68586,11.19554c0,0,2.27112-0.16872,2.27112-2.83211c0-2.66344-1.85819-3.96321-4.2119-3.96321H3.41265 H3.28537H0v14.88431h3.28537h0.12728h4.33242c0,0,4.72808,0.14903,4.72808-4.39321 C12.47315,14.89132,12.67959,11.19554,9.68586,11.19554z M3.41265,7.04557h3.77494h0.55749c0,0,1.05295,0,1.05295,1.54851 s-0.61941,1.77304-1.32137,1.77304H3.41265V7.04557z M7.54539,16.63918H3.41265v-3.97771h4.33242 c0,0,1.56913-0.02061,1.56913,2.04398C9.3142,16.42691,8.16648,16.62191,7.54539,16.63918z"></path> <path fill="currentColor" d="M18.77907,8.1871c-5.72379,0-5.71862,5.71865-5.71862,5.71865s-0.3928,5.68981,5.71878,5.68981 c0,0,5.09309,0.2909,5.09309-3.95808h-2.61935c0,0,0.08726,1.60046-2.38647,1.60046c0,0-2.61939,0.17519-2.61939-2.58985h7.71248 C23.95959,14.64808,24.80338,8.1871,18.77907,8.1871z M21.10728,12.66146h-4.88934c0,0,0.32016-2.29435,2.61935-2.29435 C21.13652,10.36712,21.10728,12.66146,21.10728,12.66146z"></path> <rect data-color="color-2" x="16" y="5" fill="currentColor" width="6" height="2"></rect></g></svg>