<svg id="nc_icon" version="1.1" xmlns="http://www.w3.org/2000/svg" xmlns:xlink="http://www.w3.org/1999/xlink" x="0px" y="0px" viewBox="0 0 24 24" xml:space="preserve" ><g class="nc-icon-wrapper" fill="currentColor"><path fill="currentColor" d="M21,0H3C1.3,0,0,1.3,0,3v18c0,1.7,1.3,3,3,3h18c1.7,0,3-1.3,3-3V3C24,1.3,22.7,0,21,0z M10,18 c0,1.1-0.9,2-2,2H5c-1.1,0-2-0.9-2-2V5c0-1.1,0.9-2,2-2h3c1.1,0,2,0.9,2,2V18z M21,12c0,1.1-0.9,2-2,2h-3c-1.1,0-2-0.9-2-2V5 c0-1.1,0.9-2,2-2h3c1.1,0,2,0.9,2,2V12z"></path></g></svg>