<svg id="nc_icon" version="1.1" xmlns="http://www.w3.org/2000/svg" xmlns:xlink="http://www.w3.org/1999/xlink" x="0px" y="0px" viewBox="0 0 24 24" xml:space="preserve" ><g class="nc-icon-wrapper" fill="currentColor"><path fill="currentColor" d="M20.179,11.424c-0.318-0.318-0.834-0.318-1.152,0l-7.603,7.603c-1.08,1.08-2.837,1.08-3.917,0.001 c-0.318-0.318-0.834-0.318-1.152,0c-0.318,0.318-0.318,0.834,0,1.152c1.715,1.715,4.506,1.715,6.221-0.001l7.603-7.603 C20.497,12.258,20.497,11.742,20.179,11.424z M22.714,8.889c-1.715-1.715-4.506-1.715-6.221,0.001L8.89,16.493 c-0.318,0.318-0.318,0.834,0,1.152c0.318,0.318,0.834,0.318,1.152,0l7.603-7.603c1.08-1.08,2.837-1.08,3.917-0.001 c1.08,1.08,1.08,2.837,0,3.917l-6.116,6.116c-0.318,0.318-0.318,0.834,0,1.152c0.318,0.318,0.834,0.318,1.152,0l6.116-6.116 C24.429,13.396,24.429,10.604,22.714,8.889z M17.645,3.82c-1.715-1.715-4.506-1.715-6.221,0.001l-7.603,7.603 c-0.318,0.318-0.318,0.834,0,1.152c0.318,0.318,0.834,0.318,1.152,0l7.603-7.603c1.08-1.08,2.837-1.08,3.917-0.001 c0.318,0.318,0.834,0.318,1.152,0S17.963,4.139,17.645,3.82z M15.11,6.355c-0.318-0.318-0.834-0.318-1.152,0l-7.603,7.603 c-1.08,1.08-2.837,1.08-3.917,0.001c-1.08-1.08-1.08-2.837,0-3.917l6.116-6.116c0.318-0.318,0.318-0.834,0-1.152 c-0.318-0.318-0.834-0.318-1.152,0L1.286,8.889c-1.715,1.715-1.715,4.506,0,6.221s4.506,1.715,6.221-0.001l7.603-7.603 C15.429,7.189,15.429,6.674,15.11,6.355z"></path> </g></svg>