<svg id="nc_icon" version="1.1" xmlns="http://www.w3.org/2000/svg" xmlns:xlink="http://www.w3.org/1999/xlink" x="0px" y="0px" viewBox="0 0 24 24" xml:space="preserve" ><g class="nc-icon-wrapper" fill="currentColor"><path fill="currentColor" d="M24,11.8c0-1.6-1.3-2.9-2.9-2.9c-0.7,0-1.3,0.2-1.8,0.6c-1.8-1.1-4-1.8-6.4-1.9l1.2-3.9l3.4,0.8 c0.1,1.2,1.1,2.2,2.4,2.2c1.3,0,2.4-1.1,2.4-2.4c0-1.3-1.1-2.4-2.4-2.4c-0.9,0-1.7,0.5-2.1,1.3l-4-0.9c-0.3-0.1-0.7,0.1-0.8,0.4 l-1.5,4.9C9,7.7,6.5,8.3,4.7,9.5C4.2,9.1,3.6,8.9,2.9,8.9C1.3,8.9,0,10.2,0,11.8c0,1,0.5,1.9,1.2,2.4c0,0.2,0,0.5,0,0.7 c0,2,1.2,3.8,3.3,5.2c2,1.3,4.7,2,7.5,2c2.8,0,5.5-0.7,7.5-2c2.1-1.4,3.3-3.2,3.3-5.2c0-0.2,0-0.4,0-0.6C23.5,13.7,24,12.8,24,11.8z M20,3.2c0.6,0,1.1,0.5,1.1,1.1c0,0.6-0.5,1.1-1.1,1.1s-1.1-0.5-1.1-1.1C18.9,3.7,19.4,3.2,20,3.2z M6.8,13.6c0-0.9,0.8-1.6,1.6-1.6 c0.9,0,1.6,0.8,1.6,1.6s-0.7,1.6-1.6,1.6C7.6,15.2,6.8,14.5,6.8,13.6z M16,18.3c-0.8,0.8-2.1,1.2-3.9,1.2c0,0,0,0,0,0c0,0,0,0,0,0 c-1.8,0-3.1-0.4-3.9-1.2c-0.3-0.3-0.3-0.7,0-0.9c0.3-0.3,0.7-0.3,0.9,0c0.6,0.6,1.6,0.9,3,0.9c0,0,0,0,0,0c0,0,0,0,0,0 c1.4,0,2.4-0.3,3-0.9c0.3-0.3,0.7-0.3,0.9,0C16.2,17.7,16.2,18.1,16,18.3z M15.6,15.2c-0.9,0-1.7-0.7-1.7-1.6s0.8-1.6,1.7-1.6 c0.9,0,1.6,0.8,1.6,1.6S16.5,15.2,15.6,15.2z"></path></g></svg>