<svg id="nc_icon" version="1.1" xmlns="http://www.w3.org/2000/svg" xmlns:xlink="http://www.w3.org/1999/xlink" x="0px" y="0px" viewBox="0 0 24 24" xml:space="preserve" ><g class="nc-icon-wrapper" fill="currentColor"><path fill="currentColor" d="M10,0.9c0,0-0.1,0-0.1-0.1c0,0-0.1,0-0.1,0L10,0.9z"></path> <path fill="currentColor" d="M0.9,9.9c0,0,0,0.1,0,0.1c0,0,0,0.1,0.1,0.1L0.9,9.9z"></path> <path fill="currentColor" d="M23.1,14.1c0,0,0-0.1,0-0.1c0,0,0-0.1-0.1-0.1L23.1,14.1z"></path> <path fill="currentColor" d="M13.9,23c0,0,0.1,0,0.1,0.1c0,0,0.1,0,0.1,0L13.9,23z"></path> <path fill="currentColor" d="M23.2,14c0,0,0,0.1,0,0.1l0-0.2C23.1,13.9,23.1,14,23.2,14c0.1-0.7,0.2-1.4,0.2-2.1c0-1.5-0.3-3-0.9-4.4 C21.9,6.2,21.1,5,20,3.9c-1-1-2.3-1.9-3.6-2.4C15,0.9,13.5,0.6,12,0.6c-0.7,0-1.4,0.1-2.1,0.2c0,0,0,0,0,0c0,0,0.1,0,0.1,0.1l-0.2,0 c0,0,0.1,0,0.1,0C8.9,0.3,7.8,0,6.7,0C4.9,0,3.2,0.7,2,2c-1.3,1.3-2,3-2,4.7C0,7.9,0.3,9,0.8,10c0,0,0-0.1,0-0.1l0,0.2 c0,0,0-0.1-0.1-0.1c-0.1,0.6-0.2,1.3-0.2,2c0,1.5,0.3,3,0.9,4.4C2.1,17.7,3,18.9,4,20c1,1,2.3,1.9,3.6,2.4C9,23,10.5,23.3,12,23.3 c0.7,0,1.3-0.1,2-0.2c0,0-0.1,0-0.1-0.1l0.2,0c0,0-0.1,0-0.1,0c1,0.6,2.1,0.9,3.3,0.9c1.8,0,3.5-0.7,4.7-2c1.3-1.3,2-3,2-4.7 C24,16.1,23.7,15,23.2,14z M12.1,18.9c-4,0-5.8-2-5.8-3.5c0-0.8,0.6-1.3,1.3-1.3c1.7,0,1.3,2.5,4.5,2.5c1.6,0,2.6-0.9,2.6-1.8 c0-0.5-0.3-1.2-1.4-1.4l-3.6-0.9c-2.9-0.7-3.4-2.3-3.4-3.7c0-3,2.9-4.2,5.6-4.2c2.5,0,5.4,1.4,5.4,3.2c0,0.8-0.7,1.2-1.5,1.2 c-1.5,0-1.2-2-4.2-2c-1.5,0-2.3,0.7-2.3,1.6c0,1,1.2,1.3,2.2,1.5l2.7,0.6c2.9,0.6,3.6,2.3,3.6,3.9C17.8,17,15.9,18.9,12.1,18.9z"></path></g></svg>