<svg id="nc_icon" version="1.1" xmlns="http://www.w3.org/2000/svg" xmlns:xlink="http://www.w3.org/1999/xlink" x="0px" y="0px" viewBox="0 0 24 24" xml:space="preserve" ><g class="nc-icon-wrapper" fill="currentColor"><path fill="currentColor" d="M0.05369,24l1.68771-6.16271c-1.04102-1.80344-1.58881-3.84947-1.58796-5.94549 C0.15607,5.33464,5.49277,0,12.04988,0c3.18237,0.00127,6.16932,1.23986,8.41533,3.48773 c2.24607,2.24788,3.48232,5.23587,3.48109,8.41356c-0.00266,6.55716-5.33983,11.8925-11.89626,11.8925h-0.00003h-0.00487 c-1.99106-0.00082-3.9474-0.50012-5.68498-1.44752L0.05369,24z M6.65233,20.19318l0.36107,0.21425 c1.5181,0.90064,3.25833,1.3771,5.03255,1.37779h0.00405c5.44987,0,9.88551-4.43425,9.88772-9.88468 c0.00101-2.64119-1.0265-5.1247-2.89334-6.99306c-1.86684-1.86836-4.34946-2.89789-6.99046-2.8989 c-5.45405,0-9.88973,4.43393-9.89191,9.88399c-0.00076,1.86766,0.52201,3.68667,1.51178,5.26048l0.23513,0.37395l-0.99891,3.64756 L6.65233,20.19318z"></path> <path data-color="color-2" fill-rule="evenodd" clip-rule="evenodd" fill="currentColor" d="M9.07668,6.92043 C8.83542,6.34098,8.59035,6.41938,8.40789,6.4103c-0.17318-0.00862-0.37154-0.01044-0.5697-0.01044S7.31801,6.47422,7.04553,6.77169 C6.77307,7.06918,6.0052,7.7881,6.0052,9.25069c0,1.46259,1.06511,2.8756,1.21374,3.07393 c0.14861,0.19833,2.09602,3.1998,5.07784,4.48696c0.70918,0.30615,1.26289,0.48895,1.69455,0.62597 c0.71212,0.22611,1.36011,0.19422,1.87228,0.11772c0.57108-0.08529,1.75864-0.71889,2.00636-1.41301 c0.24769-0.69412,0.24769-1.28908,0.17337-1.41304c-0.07428-0.12392-0.27246-0.1983-0.56969-0.34706 c-0.29726-0.14872-1.75867-0.86765-2.03116-0.96679c-0.27246-0.09915-0.4706-0.14873-0.66877,0.14875 c-0.19814,0.29745-0.7678,0.9668-0.9412,1.1651c-0.17337,0.19833-0.34677,0.22314-0.644,0.07438 c-0.29726-0.14872-1.25504-0.46253-2.3904-1.47489c-0.88362-0.78789-1.48023-1.76108-1.65362-2.05856 c-0.17339-0.29748-0.01844-0.45833,0.13036-0.60645c0.1337-0.13313,0.29723-0.34706,0.44586-0.52059 c0.14861-0.17353,0.19816-0.29748,0.29723-0.49578c0.09909-0.19833,0.04954-0.37186-0.02477-0.5206 C9.91886,8.978,9.3244,7.51538,9.07668,6.92043z"></path></g></svg>