<svg id="nc_icon" version="1.1" xmlns="http://www.w3.org/2000/svg" xmlns:xlink="http://www.w3.org/1999/xlink" x="0px" y="0px" viewBox="0 0 24 24" xml:space="preserve" ><g class="nc-icon-wrapper" fill="currentColor"><path fill="currentColor" d="M22.6,10.9c-2.7-2.7-5.5-5.5-8.2-8.2c-0.4-0.4-0.8-0.8-1.3-1.1c-0.5-0.2-1.1-0.3-1.7-0.2 c-0.5,0.1-0.9,0.4-1.3,0.7C7,5.3,3.9,8.4,0.8,11.5c-0.4,0.4-0.6,0.8-0.7,1.3c-0.3,0.9,0.1,1.9,0.7,2.5c2.2,2.2,4.4,4.4,6.5,6.5 c0.5,0.5,1.2,0.8,1.9,0.8c1.8,0,3.6,0,5.3,0c0.8,0.1,1.6-0.2,2.2-0.8c2-2,3.9-3.9,5.9-5.9c0.3-0.3,0.7-0.6,0.9-1 c0.5-0.7,0.6-1.6,0.3-2.4C23.6,11.8,23.1,11.4,22.6,10.9z M7.2,14.4c-0.3,0.4-0.9,0.3-1.4,0.2c-0.4-0.3-0.8-0.7-1.1-1.1 C4.6,13.4,4.8,13.1,5,13C7,11,9,8.9,11,6.9c0.3-0.3,0.5-0.6,0.8-0.8c0.3-0.1,0.5,0.2,0.6,0.3c0.4,0.4,0.8,0.7,1.1,1.2 c0.2,0.2,0,0.5-0.2,0.6C11.4,10.3,9.3,12.4,7.2,14.4z M13.6,19.2c-0.3,0.4-0.7,0.7-1,1c-0.3,0.1-0.7,0.1-1.1,0 c-0.3-0.2-0.6-0.5-0.8-0.8c-0.2-0.2-0.5-0.5-0.3-0.8c0.4-0.5,0.9-0.9,1.4-1.4c0.2-0.1,0.4-0.1,0.6,0.1c0.4,0.4,0.8,0.8,1.2,1.2 C13.7,18.8,13.8,19.1,13.6,19.2z M13.5,13.8c-1.2,1.2-2.3,2.3-3.5,3.5c-0.3,0.4-0.9,0.3-1.3,0.2c-0.4-0.3-0.8-0.7-1.1-1 c-0.2-0.2,0-0.5,0.2-0.7c1.2-1.2,2.3-2.3,3.5-3.5c0.2-0.2,0.4-0.4,0.7-0.6c0.3-0.1,0.4,0.1,0.6,0.3c0.4,0.4,0.8,0.8,1.2,1.2 C13.8,13.4,13.6,13.6,13.5,13.8z"></path></g></svg>