<svg id="nc_icon" version="1.1" xmlns="http://www.w3.org/2000/svg" xmlns:xlink="http://www.w3.org/1999/xlink" x="0px" y="0px" viewBox="0 0 24 24" xml:space="preserve" ><g class="nc-icon-wrapper" fill="currentColor"><path fill="currentColor" d="M24,4.656c0,0.087-0.027,0.165-0.08,0.236c-0.055,0.07-0.112,0.106-0.177,0.106 c-0.526,0.051-0.958,0.22-1.292,0.509c-0.336,0.287-0.68,0.838-1.036,1.649l-5.446,12.272c-0.036,0.114-0.135,0.171-0.3,0.171 c-0.129,0-0.228-0.057-0.3-0.171l-3.054-6.387l-3.512,6.387c-0.072,0.114-0.171,0.171-0.3,0.171c-0.156,0-0.26-0.057-0.31-0.171 L2.841,7.156C2.508,6.394,2.155,5.862,1.784,5.56C1.414,5.258,0.897,5.07,0.236,4.998c-0.057,0-0.112-0.03-0.16-0.091 C0.025,4.849,0,4.779,0,4.701c0-0.201,0.057-0.3,0.171-0.3c0.477,0,0.975,0.021,1.497,0.063C2.151,4.509,2.607,4.53,3.033,4.53 c0.435,0,0.948-0.021,1.539-0.065c0.618-0.042,1.167-0.063,1.644-0.063c0.114,0,0.171,0.099,0.171,0.3 c0,0.198-0.036,0.298-0.106,0.298C5.805,5.034,5.429,5.157,5.155,5.361C4.88,5.568,4.743,5.839,4.743,6.174 c0,0.171,0.057,0.384,0.171,0.64L9.336,16.8l2.51-4.741L9.507,7.156c-0.42-0.874-0.766-1.44-1.036-1.693 c-0.27-0.251-0.68-0.407-1.228-0.464c-0.051,0-0.097-0.03-0.144-0.091c-0.046-0.059-0.07-0.129-0.07-0.207 c0-0.201,0.049-0.3,0.15-0.3c0.477,0,0.914,0.021,1.313,0.063C8.876,4.509,9.285,4.53,9.72,4.53c0.426,0,0.878-0.021,1.355-0.065 c0.492-0.042,0.975-0.063,1.452-0.063c0.114,0,0.171,0.099,0.171,0.3c0,0.198-0.034,0.298-0.106,0.298 c-0.954,0.065-1.431,0.336-1.431,0.813c0,0.213,0.11,0.545,0.331,0.992l1.547,3.141l1.539-2.873C14.793,6.666,14.9,6.324,14.9,6.045 c0-0.654-0.477-1.003-1.431-1.047c-0.087,0-0.129-0.099-0.129-0.298c0-0.072,0.021-0.139,0.063-0.203 c0.044-0.065,0.087-0.097,0.129-0.097c0.342,0,0.762,0.021,1.26,0.063c0.477,0.044,0.87,0.065,1.176,0.065 c0.22,0,0.545-0.019,0.971-0.055c0.54-0.049,0.994-0.074,1.357-0.074c0.084,0,0.127,0.084,0.127,0.255 c0,0.228-0.078,0.342-0.234,0.342c-0.555,0.057-1.003,0.211-1.34,0.46s-0.76,0.815-1.264,1.697l-2.052,3.793l2.778,5.659 l4.101-9.537c0.141-0.348,0.213-0.669,0.213-0.96c0-0.699-0.477-1.068-1.431-1.112c-0.087,0-0.129-0.099-0.129-0.298 c0-0.201,0.063-0.3,0.192-0.3c0.348,0,0.762,0.021,1.239,0.063c0.441,0.044,0.813,0.065,1.11,0.065c0.315,0,0.678-0.021,1.089-0.065 c0.428-0.042,0.813-0.063,1.155-0.063C23.949,4.401,24,4.485,24,4.656z"></path> </g></svg>