<svg id="nc_icon" version="1.1" xmlns="http://www.w3.org/2000/svg" xmlns:xlink="http://www.w3.org/1999/xlink" x="0px" y="0px" viewBox="0 0 24 24" xml:space="preserve" ><g class="nc-icon-wrapper" fill="currentColor"><path fill="currentColor" d="M24,6.4c-0.1,2.3-1.7,5.5-4.9,9.6c-3.3,4.2-6,6.4-8.3,6.4c-1.4,0-2.6-1.3-3.6-3.9c-0.6-2.4-1.3-4.7-1.9-7.1 C4.6,8.8,3.8,7.5,3,7.5c-0.2,0-0.8,0.4-1.9,1.1L0,7.2c1.2-1,2.4-2.1,3.5-3.1C5.1,2.7,6.3,2,7.1,1.9c1.9-0.2,3,1.1,3.4,3.8 c0.5,2.9,0.8,4.8,1,5.5c0.5,2.4,1.1,3.7,1.8,3.7c0.5,0,1.3-0.8,2.3-2.4c1-1.6,1.5-2.8,1.6-3.6c0.1-1.4-0.4-2.1-1.6-2.1 c-0.6,0-1.2,0.1-1.8,0.4c1.2-3.9,3.4-5.7,6.8-5.6C23,1.7,24.1,3.3,24,6.4z"></path></g></svg>