<svg id="nc_icon" version="1.1" xmlns="http://www.w3.org/2000/svg" xmlns:xlink="http://www.w3.org/1999/xlink" x="0px" y="0px" viewBox="0 0 24 24" xml:space="preserve" ><g class="nc-icon-wrapper" fill="currentColor"><ellipse fill="currentColor" cx="19.80326" cy="8.47594" rx="3.81797" ry="3.80449"></ellipse> <ellipse data-color="color-2" fill="currentColor" cx="11.20065" cy="9.5608" rx="3.43699" ry="3.42439"></ellipse> <ellipse fill="currentColor" cx="3.39948" cy="10.53797" rx="3.09353" ry="3.0812"></ellipse> <path fill="currentColor" d="M3.3996,14.32278C1.4381,14.32278,0,16.04449,0,17.82316v1.19719l0,0 c0,0.16922,0.1385,0.30821,0.3089,0.30821h0.10968h5.96155h0.10922c0.17098,0,0.3095-0.13898,0.3095-0.30821l0,0v-1.19719 C6.79886,16.04449,5.36107,14.32278,3.3996,14.32278z"></path> <path data-color="color-2" fill="currentColor" d="M11.20053,13.76591c-2.17946,0-3.77765,1.91318-3.77765,3.88968v1.33032l0,0 c0,0.18818,0.15398,0.34265,0.34334,0.34265H7.8881h6.62438h0.12142c0.1903,0,0.34406-0.15446,0.34406-0.34265l0,0v-1.33032 C14.97797,15.67909,13.38,13.76591,11.20053,13.76591z"></path> <path fill="currentColor" d="M19.8028,13.14808c-2.42158,0-4.19719,2.12556-4.19719,4.32187v1.47797l0,0 c0,0.20906,0.1711,0.38064,0.38155,0.38064h0.13548h7.36032h0.13452C23.8289,19.32856,24,19.15698,24,18.94792l0,0v-1.47797 C24,15.27364,22.2246,13.14808,19.8028,13.14808z"></path></g></svg>