<svg id="nc_icon" version="1.1" xmlns="http://www.w3.org/2000/svg" xmlns:xlink="http://www.w3.org/1999/xlink" x="0px" y="0px" viewBox="0 0 24 24" xml:space="preserve" ><g class="nc-icon-wrapper" fill="currentColor"><path fill="currentColor" d="M22.5,11.9c-0.6,0.1-1.2,0.2-1.8,0.2c-3,0-5.4-2.1-5.4-5.8c0-1.8,0.7-2.7,1.7-2.7c0.9,0,1.6,0.8,1.6,2.5 c0,1-0.3,2-0.5,2.7c0,0,0.9,1.6,3.5,1.1c0.5-1.2,0.8-2.8,0.8-4.1c0-3.7-1.9-5.8-5.3-5.8c-3.5,0-5.6,2.7-5.6,6.3c0,3.5,1.7,6.6,4.4,8 c-1.1,2.3-2.6,4.3-4.1,5.9c-2.8-3.3-5.3-7.8-6.3-16.5H1.5c1.9,14.5,7.5,19.1,9,20c0.8,0.5,1.6,0.5,2.3,0c1.2-0.7,4.8-4.3,6.8-8.6 c0.8,0,1.9-0.1,2.9-0.3V11.9z"></path></g></svg>