<svg id="nc_icon" version="1.1" xmlns="http://www.w3.org/2000/svg" xmlns:xlink="http://www.w3.org/1999/xlink" x="0px" y="0px" viewBox="0 0 24 24" xml:space="preserve" ><g class="nc-icon-wrapper" fill="currentColor"><path fill="currentColor" d="M6.084,22.148c-0.846,0.243-1.42,0.638-1.499,1.027c-0.103,0.505,1.866,1.009,5.322,0.758 C8.334,23.673,7.056,23.075,6.084,22.148z"></path> <path fill="currentColor" d="M12,0C7.837,0,4.462,3.375,4.462,7.538v2.007L4.76,9.686c0.023,0.011,2.402,1.095,7.24,1.095h0h0 c4.837,0,7.217-1.084,7.24-1.095l0.298-0.141V7.538C19.538,3.375,16.163,0,12,0z M13.93,2.98c0.701,0,1.269,0.859,1.269,1.92 c0,1.06-0.568,1.92-1.269,1.92c-0.701,0-1.269-0.859-1.269-1.92C12.661,3.84,13.229,2.98,13.93,2.98z M10.07,2.98 c0.701,0,1.269,0.859,1.269,1.92c0,1.06-0.568,1.92-1.269,1.92c-0.701,0-1.269-0.859-1.269-1.92C8.801,3.84,9.369,2.98,10.07,2.98z M12,9.817c-3.12,0-4.593-1.21-4.523-1.543C7.547,7.941,9.844,7.363,12,7.363s4.453,0.579,4.523,0.912 C16.593,8.607,15.12,9.817,12,9.817z"></path> <path fill="currentColor" d="M17.916,22.148c0.846,0.243,1.42,0.638,1.499,1.027c0.103,0.505-1.866,1.009-5.322,0.758 C15.666,23.673,16.944,23.075,17.916,22.148z"></path> <path fill="currentColor" d="M21.703,16.04c-0.155-0.691-0.548-1.777-0.969-2.843c-0.769,0.372-1.816,0.637-2.918,0.826 c0.007,0.075,0.017,0.15,0.029,0.225v2.863c0,3.228-2.617,5.845-5.845,5.845s-5.845-2.617-5.845-5.845v-2.863 c0.012-0.075,0.022-0.15,0.029-0.225c-1.103-0.19-2.149-0.455-2.918-0.826c-0.421,1.066-0.814,2.153-0.969,2.843 c-0.394,1.762-0.412,3.348-0.184,3.453c0.171,0.079,1.166-0.805,2.339-2.298c0.054,1.719,0.802,6.47,7.407,6.47 c0.047,0,0.093-0.001,0.14-0.002c0.047,0,0.093,0.002,0.14,0.002c6.606,0,7.353-4.752,7.407-6.47 c1.173,1.493,2.169,2.377,2.339,2.298C22.115,19.389,22.098,17.802,21.703,16.04z"></path> <path data-color="color-2" fill="currentColor" d="M20.579,12.806l-1.16-2.739c0,0-2.406,1.135-7.419,1.135s-7.419-1.135-7.419-1.135l-1.16,2.739 c0.983,0.483,2.48,0.781,3.951,0.967v3.459h3.138v-3.199c0.895,0.041,1.49,0.043,1.49,0.043S18.026,14.059,20.579,12.806z"></path> </g></svg>