<svg id="nc_icon" version="1.1" xmlns="http://www.w3.org/2000/svg" xmlns:xlink="http://www.w3.org/1999/xlink" x="0px" y="0px" viewBox="0 0 24 24" xml:space="preserve" ><g class="nc-icon-wrapper" fill="currentColor"><path data-color="color-2" fill="currentColor" d="M8.75735,10.56878c0.00298,0.27952,0.25873,0.52454,0.4115,0.67097l0.048,0.04631 c0.262,0.2577,0.51157,0.38836,0.74166,0.38836c0.19057,0,0.30799-0.09013,0.34958-0.12885 c0.11542-0.10717,1.42094-1.43002,1.54547-1.55621l1.45594,1.45125c0.13478,0.15185,0.28131,0.22794,0.45205,0.23264 c0.2325,0,0.48585-0.13824,0.753-0.41092c0.62825-0.64148,0.31389-0.98736,0.16188-1.15459L13.20124,8.6321l1.53842-1.54931 c0.33738-0.36504,0.03952-0.753-0.25764-1.05019c-0.43149-0.43149-0.8478-0.54285-1.11461-0.29697l-1.52971,1.53235l-1.5469-1.54733 c-0.08197-0.07856-0.18536-0.12009-0.299-0.12009c-0.20615,0-0.45005,0.13939-0.72499,0.41434 C8.79103,6.49054,8.68902,6.81939,8.93664,7.08173l1.5473,1.54258l-1.53819,1.54094 C8.81922,10.2916,8.75581,10.42738,8.75735,10.56878z"></path> <path fill="currentColor" d="M11.34778,0.02338C7.0224,0.35242,3.63421,4.15676,3.63421,8.68435v14.31657 C3.63421,23.83023,4.26461,24,5.21111,24c0.94651,0,1.57692-0.16977,1.57692-0.99908V8.6507 c0-2.82088,2.05225-5.24303,4.67183-5.51436c1.50388-0.15325,2.94948,0.31731,4.07387,1.33142 c1.10365,0.99487,1.73675,2.42515,1.73735,3.92454c0,0.42909-0.21004,1.82659-1.16916,3.12377 c-0.72535,0.98015-2.09944,2.14781-4.53601,2.14781c-0.01322,0.0003-0.03094,0-0.04628,0c-0.62498,0-1.15893,0.02944-1.26169,1.5105 c-0.06881,0.99668-0.06311,1.44229,0.79776,1.56218c1.53575,0.21305,3.10153-0.08714,4.6535-0.89362 c2.64962-1.3786,4.42483-3.99064,4.63337-6.81754c0.18119-2.4552-0.70433-4.85031-2.42966-6.57174 C16.18095,0.72621,13.78916-0.15841,11.34778,0.02338z"></path></g></svg>