<svg id="nc_icon" version="1.1" xmlns="http://www.w3.org/2000/svg" xmlns:xlink="http://www.w3.org/1999/xlink" x="0px" y="0px" viewBox="0 0 24 24" xml:space="preserve" ><g class="nc-icon-wrapper" fill="currentColor"><path data-color="color-2" fill="currentColor" d="M0.45116,12.30429c-0.00855-0.05933-0.05105-0.10023-0.10343-0.10023 c-0.05265,0-0.09622,0.04223-0.10343,0.10023C0.24429,12.30482,0,14.53628,0,14.53628l0.24429,2.18255 c0.00695,0.05853,0.05051,0.10076,0.10343,0.10076c0.05212,0,0.09461-0.04116,0.10317-0.10023l0.27796-2.18308L0.45116,12.30429z"></path> <path data-color="color-2" fill="currentColor" d="M4.30095,10.24549c-0.10023,0-0.18308,0.08205-0.18789,0.18629l-0.19457,4.10637 l0.19457,2.65375c0.00508,0.1037,0.08767,0.18549,0.18789,0.18549c0.09969,0,0.18228-0.08205,0.18816-0.18602v0.0008 l0.21996-2.65402l-0.21996-4.10637C4.48323,10.32754,4.40064,10.24549,4.30095,10.24549z"></path> <path data-color="color-2" fill="currentColor" d="M2.30843,11.67272c-0.07697,0-0.13978,0.06147-0.14593,0.14353l-0.21916,2.72083 l0.21916,2.63237c0.00588,0.08152,0.06896,0.14299,0.14593,0.14299c0.07617,0,0.13898-0.06147,0.14566-0.14299l0.2491-2.63237 l-0.2491-2.72137C2.44741,11.7342,2.38461,11.67272,2.30843,11.67272z"></path> <path data-color="color-2" fill="currentColor" d="M6.32581,17.37712c0.12428,0,0.22531-0.10023,0.23039-0.22852l0.19083-2.60911 L6.55646,9.07243C6.55138,8.94414,6.45035,8.84391,6.32607,8.84391c-0.12535,0-0.22665,0.10049-0.23066,0.22879l-0.16918,5.46652 l0.16918,2.61018C6.09943,17.27663,6.20072,17.37712,6.32581,17.37712z"></path> <path data-color="color-2" fill="currentColor" d="M10.4712,17.38942c0.17105,0,0.31217-0.14085,0.31538-0.31404v0.00187v-0.00187 l0.1331-2.53428l-0.1331-6.31404C10.78364,8.05412,10.64226,7.913,10.4712,7.913c-0.17132,0-0.31271,0.14085-0.31538,0.31431 l-0.11894,6.31164c0,0.00401,0.11894,2.53802,0.11894,2.53802C10.15849,17.24856,10.30015,17.38942,10.4712,17.38942z"></path> <path data-color="color-2" fill="currentColor" d="M8.38273,17.37953c0.14887,0,0.26888-0.11947,0.27289-0.27181v0.00187l0.16197-2.56956 L8.65535,9.03341C8.65134,8.88106,8.53134,8.76186,8.38247,8.76186c-0.14994,0-0.26994,0.1192-0.27315,0.27155l-0.14406,5.50688 l0.14433,2.56902C8.11279,17.26006,8.23279,17.37953,8.38273,17.37953z"></path> <path fill="currentColor" d="M20.94347,11.28224c-0.41882,0-0.81839,0.08472-1.18241,0.23734 c-0.24322-2.75504-2.55352-4.91621-5.37164-4.91621c-0.68956,0-1.36175,0.13577-1.95537,0.36536 c-0.23066,0.08927-0.29213,0.18121-0.29427,0.35948v9.70199c0.00241,0.18709,0.14753,0.34291,0.33008,0.36135 c0.00775,0.0008,8.41882,0.00508,8.47334,0.00508c1.68809,0,3.0568-1.3687,3.0568-3.05706S22.63157,11.28224,20.94347,11.28224z"></path></g></svg>