<svg id="nc_icon" version="1.1" xmlns="http://www.w3.org/2000/svg" xmlns:xlink="http://www.w3.org/1999/xlink" x="0px" y="0px" viewBox="0 0 24 24" xml:space="preserve" ><g class="nc-icon-wrapper" fill="currentColor"><path fill="currentColor" d="M11.40617,0.13188L0.58513,5.18747C0.26046,5.33916,0.2618,5.80132,0.58735,5.95112l10.90442,5.01742 c0.32256,0.14842,0.69389,0.14842,1.01645,0l10.90442-5.01742c0.32555-0.14979,0.3269-0.61196,0.00222-0.76365L12.59382,0.13188 C12.21746-0.04396,11.78253-0.04396,11.40617,0.13188z"></path> <path data-color="color-2" fill="currentColor" d="M23.41487,11.67608l-2.23485-1.04412c-0.32393-0.15134-0.69806-0.15243-1.02287-0.00298 l-7.64892,3.51947c-0.32256,0.14842-0.69389,0.14842-1.01645,0l-7.64892-3.51947c-0.32481-0.14945-0.69894-0.14837-1.02288,0.00298 l-2.23485,1.04413c-0.32467,0.15169-0.32333,0.61385,0.00222,0.76365l10.90442,5.01742c0.32256,0.14842,0.69389,0.14842,1.01645,0 l10.90442-5.01742C23.7382,12.28994,23.73954,11.82777,23.41487,11.67608z"></path> <path data-color="color-2" fill="currentColor" d="M23.41487,18.10762l-2.23485-1.04412c-0.32393-0.15134-0.69806-0.15243-1.02287-0.00298 l-7.64892,3.51947c-0.32256,0.14842-0.69389,0.14842-1.01645,0l-7.64892-3.51947c-0.32481-0.14945-0.69894-0.14837-1.02288,0.00298 l-2.23485,1.04413c-0.32467,0.15169-0.32333,0.61385,0.00222,0.76365l10.90442,5.01742c0.32256,0.14842,0.69389,0.14842,1.01645,0 l10.90442-5.01742C23.7382,18.72147,23.73954,18.25931,23.41487,18.10762z"></path></g></svg>