<svg id="nc_icon" version="1.1" xmlns="http://www.w3.org/2000/svg" xmlns:xlink="http://www.w3.org/1999/xlink" x="0px" y="0px" viewBox="0 0 24 24" xml:space="preserve" ><g class="nc-icon-wrapper" fill="currentColor"><path fill="currentColor" d="M0,12c0,4.7,2.8,8.9,6.8,10.8L1,7.1C0.4,8.6,0,10.3,0,12z"></path> <path fill="currentColor" d="M20.1,11.4c0-1.5-0.5-2.5-1-3.3c-0.6-1-1.2-1.8-1.2-2.8c0-1.1,0.8-2.1,2-2.1c0.1,0,0.1,0,0.2,0 C18,1.2,15.1,0,12,0C7.8,0,4.1,2.2,2,5.4c0.3,0,0.5,0,0.8,0c1.3,0,3.2-0.2,3.2-0.2c0.6,0,0.7,0.9,0.1,1c0,0-0.7,0.1-1.4,0.1l4.4,13 l2.6-7.9L9.8,6.4c-0.6,0-1.3-0.1-1.3-0.1c-0.6,0-0.6-1,0.1-1c0,0,2,0.2,3.2,0.2C13,5.4,15,5.3,15,5.3c0.6,0,0.7,0.9,0.1,1 c0,0-0.7,0.1-1.4,0.1L18,19.3l1.2-4C19.7,13.6,20.1,12.4,20.1,11.4z"></path> <path fill="currentColor" d="M12.2,13L8.6,23.5C9.7,23.8,10.8,24,12,24c1.4,0,2.7-0.2,4-0.7c0-0.1-0.1-0.1-0.1-0.2L12.2,13z"></path> <path fill="currentColor" d="M22.5,6.2c0.1,0.4,0.1,0.8,0.1,1.2c0,1.2-0.2,2.6-0.9,4.3L18,22.4c3.6-2.1,6-5.9,6-10.4 C24,9.9,23.5,8,22.5,6.2z"></path></g></svg>