<svg id="nc_icon" version="1.1" xmlns="http://www.w3.org/2000/svg" xmlns:xlink="http://www.w3.org/1999/xlink" x="0px" y="0px" viewBox="0 0 24 24" xml:space="preserve" ><g class="nc-icon-wrapper" fill="currentColor"><path fill="currentColor" d="M10.6,17.2l-0.9-2.4c0,0-1.4,1.6-3.6,1.6c-1.9,0-3.2-1.6-3.2-4.3c0-3.4,1.7-4.6,3.4-4.6 c2.4,0,3.2,1.6,3.8,3.6l0.9,2.7c0.9,2.7,2.5,4.8,7.3,4.8c3.4,0,5.7-1,5.7-3.8c0-2.2-1.3-3.4-3.6-3.9l-1.8-0.4C17.4,10.3,17,9.8,17,9 c0-0.9,0.7-1.5,2-1.5c1.3,0,2,0.5,2.1,1.7l2.7-0.3c-0.2-2.5-1.9-3.5-4.7-3.5c-2.5,0-4.9,0.9-4.9,3.9c0,1.9,0.9,3.1,3.2,3.6l1.9,0.4 c1.4,0.3,1.9,0.9,1.9,1.7c0,1-1,1.4-2.9,1.4c-2.8,0-3.9-1.5-4.6-3.5l-0.9-2.7c-1.2-3.6-3-4.9-6.7-4.9c-4,0-6.2,2.6-6.2,6.9 c0,4.2,2.1,6.4,6,6.4C9.1,18.7,10.6,17.2,10.6,17.2L10.6,17.2z"></path></g></svg>