<svg id="nc_icon" version="1.1" xmlns="http://www.w3.org/2000/svg" xmlns:xlink="http://www.w3.org/1999/xlink" x="0px" y="0px" viewBox="0 0 24 24" xml:space="preserve" ><g class="nc-icon-wrapper" fill="currentColor"><path fill="currentColor" d="M3.57647,17.03529c0-1.91727,0.81447-2.92946,2.4-3.36471C5.72549,13.04314,5.6,12.58039,5.6,12.28235 c0-1.1033,1.39418-2.47059,2.44706-2.47059c0.26667,0,0.58039,0.07059,0.94118,0.21176 C8.23529,7.87451,7.69412,6.24314,7.36471,5.12941c-0.43008-1.45153-1.00579-3.33908,0-4.47059C7.75686,0.21961,8.28235,0,8.94118,0 c1.12941,0,2.48627,2.31373,4.07059,6.94118l0.4,1.15294c0.60016-1.50041,2.44187-7.64706,4.51765-7.64706 c0.62745,0,1.12157,0.21176,1.48235,0.63529c1.01424,1.14102,0.41653,2.83067,0,4.30588 c-0.32941,1.1451-0.84706,2.71373-1.55294,4.70588c0.89412,0.21961,1.53725,0.64314,1.92941,1.27059 c0.42353,0.67451,0.63529,1.71765,0.63529,3.12941c0,2.79216-0.83137,5.07451-2.49412,6.84706 C16.23529,23.11373,14.08627,24,11.48235,24c-3.21581,0-6.0401-1.88887-7.29412-4.44706 C3.78039,18.70588,3.57647,17.86667,3.57647,17.03529z M5.10588,16.91765c0,0.98287,0.65613,2.16923,1.24706,2.96471 c1.38412,1.78923,3.19404,2.56471,5.31765,2.56471c2.02353,0,3.72549-0.76078,5.10588-2.28235 c1.36471-1.50588,2.04706-3.41176,2.04706-5.71765c0-0.78861-0.00212-1.9682-0.58824-2.47059 c-0.42353-0.36078-1.2549-0.67451-2.49412-0.94118c-1.23922-0.28235-2.55686-0.42353-3.95294-0.42353 c-0.53954,0-0.82353,0.08146-0.82353,0.61176c0,0.64314,0.36078,1.09804,1.08235,1.36471 c0.78431,0.32941,2.07843,0.49412,3.88235,0.49412h0.65882c0.36878,0,0.69623,0.19265,0.8,0.98824 c-0.6764,0.6764-1.79058,0.76719-2.54118,1.34118c-0.62745,0.4549-1.12941,0.99608-1.50588,1.62353 C12.98039,17.64706,12.8,18.22745,12.8,18.77647c0,0.32941,0.07843,0.72941,0.23529,1.2 c0.17255,0.51765,0.2588,0.8549,0.2588,1.01176c-0.00414,0.14562-0.04704,0.24706-0.22348,0.31765 c-0.7294,0.16471-1.06277-0.19216-1.3765-0.78824c-0.26667-0.50196-0.41569-1.1451-0.44706-1.92941 c-0.09498,0.03166-0.4389,0.02353-0.54118,0.02353c0.01569,0.07843,0.02353,0.17255,0.02353,0.28235 c0,0.47059-0.18039,0.87059-0.54118,1.2c-0.36078,0.32941-0.78431,0.49412-1.27059,0.49412 c-0.73726,0-1.48235-0.35294-2.23529-1.05882c-0.75294-0.72157-1.12941-1.42745-1.12941-2.11765 c0-0.40953,0.1752-0.62225,0.44706-0.89412c0.39216,0.48627,0.65882,0.82353,0.8,1.01176 c0.65882,0.92549,1.2549,1.38824,1.78823,1.38824c0.29947,0,0.54118-0.22186,0.54118-0.37647 c0-0.12549-0.09412-0.35294-0.28235-0.68235c-0.27523-0.51606-1.36104-1.95546-1.92941-2.42353 C6.68235,15.21569,6.5098,15.10588,6.4,15.10588C5.87054,15.10588,5.10588,15.78546,5.10588,16.91765z M7.22353,12.42353 c0,0.20392,0.12549,0.55686,0.37647,1.05882c0.46263,0.89221,1.5503,2.33179,2.37647,3.05882 c0.37647,0.31373,0.65882,0.47059,0.84706,0.47059c0.24143,0,0.49412-0.28714,0.49412-0.54118 c0-0.18824-0.14118-0.64314-0.42353-1.36471c-0.38865-0.94386-1.21528-2.6714-2-3.31765 C8.64314,11.55294,8.4,11.43529,8.16471,11.43529C7.82901,11.43529,7.22353,12.05036,7.22353,12.42353z M8.28235,2.25882 c0,0.53333,0.18824,1.37255,0.56471,2.51765C9.19216,5.8902,9.7098,7.38039,10.4,9.24706 c0.35529-0.21317,1.21562-0.11195,1.67059-0.07059l-1.62353-4.70588C10.00784,3.21569,9.66274,2.4,9.41177,2.02353 C9.20784,1.69412,9.00392,1.52941,8.8,1.52941C8.45876,1.52941,8.28235,1.91478,8.28235,2.25882z M12.18824,14.25882 c0.14118,0.36078,0.2902,0.75294,0.44706,1.17647c0.31373-0.36078,0.62745-0.65882,0.94118-0.89412 C13.09785,14.44545,12.71262,14.43362,12.18824,14.25882z M14.65882,9.45882l1.57647,0.28235 c0.70588-1.9451,1.24706-3.50588,1.62353-4.68235c0.21691-0.70277,0.84534-2.30474,0.42353-2.84706 C18.13976,1.96224,17.70038,1.88762,17.2,2.68235c-0.29804,0.4549-0.63529,1.24706-1.01176,2.37647L14.65882,9.45882z"></path></g></svg>