<svg id="nc_icon" version="1.1" xmlns="http://www.w3.org/2000/svg" xmlns:xlink="http://www.w3.org/1999/xlink" x="0px" y="0px" viewBox="0 0 24 24" xml:space="preserve" ><g class="nc-icon-wrapper" fill="currentColor"><path fill="currentColor" d="M24,9.3C24,8.4,23.6,3,23.6,3c0-0.9-0.3-1.4-0.7-1.8c-0.4-0.4-1-0.7-1.8-0.7c0,0-5.5-0.4-6.4-0.4 c-1.3,0-2.2,0-3.9,1.6C10,2.4,1.1,11.3,0.7,11.7c-0.4,0.4-1.6,1.9,0.5,4l7,7c2.2,2.2,3.6,0.9,4,0.5c0.4-0.4,9.3-9.3,10.1-10.1 C24,11.5,24,10.7,24,9.3z M14.5,12.3l3.1,1.5l-1.1,2l-2.8-1.8c-0.1,0-0.1-0.1-0.2-0.1c-0.1,0-0.1,0-0.2,0.1C13,14,13,14.1,13,14.2 l0.2,3.3H11c0,0,0,0,0,0c0,0,0.2-3.3,0.2-3.3c0-0.1-0.1-0.3-0.2-0.4c-0.1-0.1-0.3-0.1-0.4,0l-2.7,1.9l-1.2-2l3.1-1.5 c0.1-0.1,0.2-0.2,0.2-0.3c0-0.1-0.1-0.3-0.2-0.3l-3.1-1.5l1.1-2l2.8,1.8c0.1,0.1,0.3,0.1,0.4,0c0.1-0.1,0.2-0.2,0.2-0.4l-0.2-3.3 h2.3L13,9.6c0,0.1,0.1,0.3,0.2,0.4c0.1,0.1,0.3,0.1,0.4,0l2.7-1.9l1.2,2l-3.1,1.5c-0.1,0.1-0.2,0.2-0.2,0.3 C14.3,12.1,14.3,12.2,14.5,12.3z M19.7,5.9c-0.8,0-1.4-0.6-1.4-1.4c0-0.8,0.6-1.4,1.4-1.4c0.8,0,1.4,0.6,1.4,1.4 C21.1,5.2,20.5,5.9,19.7,5.9z"></path></g></svg>