<svg id="nc_icon" version="1.1" xmlns="http://www.w3.org/2000/svg" xmlns:xlink="http://www.w3.org/1999/xlink" x="0px" y="0px" viewBox="0 0 24 24" xml:space="preserve" ><g class="nc-icon-wrapper" fill="currentColor"><path data-color="color-2" fill="currentColor" d="M17,5h-3v2h3c2.757,0,5,2.243,5,5s-2.243,5-5,5v-3l-5,4l5,4v-3c3.86,0,7-3.141,7-7 S20.86,5,17,5z"></path> <path fill="currentColor" d="M2,12c0-2.757,2.243-5,5-5v3l5-4L7,2v3c-3.86,0-7,3.141-7,7s3.14,7,7,7h3v-2H7C4.243,17,2,14.757,2,12z"></path></g></svg>