<svg id="nc_icon" version="1.1" xmlns="http://www.w3.org/2000/svg" xmlns:xlink="http://www.w3.org/1999/xlink" x="0px" y="0px" viewBox="0 0 24 24" xml:space="preserve" ><g class="nc-icon-wrapper" fill="currentColor"><path fill="currentColor" d="M12,1C9.455,1,7.043,1.862,5.093,3.442l-2.76-2.588L1.687,8.438l7.604-1.062L6.57,4.833 C8.127,3.65,10.011,3,12,3c4.963,0,9,4.037,9,9s-4.037,9-9,9c-0.906,0-1.776-0.148-2.602-0.398 c-0.309,0.638-0.724,1.215-1.228,1.703C9.363,22.752,10.652,23,12,23c6.065,0,11-4.935,11-11S18.065,1,12,1z"></path> <path data-color="color-2" fill="currentColor" d="M4,22c-2.206,0-4-1.794-4-4s1.794-4,4-4s4,1.794,4,4S6.206,22,4,22z"></path></g></svg>