<svg id="nc_icon" version="1.1" xmlns="http://www.w3.org/2000/svg" xmlns:xlink="http://www.w3.org/1999/xlink" x="0px" y="0px" viewBox="0 0 24 24" xml:space="preserve" ><g class="nc-icon-wrapper" fill="currentColor"><path data-color="color-2" fill="currentColor" d="M19,4h-3V1c0-0.6-0.4-1-1-1H9C8.4,0,8,0.4,8,1v3H5C3.3,4,2,5.3,2,7v2h20V7 C22,5.3,20.7,4,19,4z M10,2h4v2h-4V2z"></path> <path fill="currentColor" d="M2,22h2v1c0,0.6,0.4,1,1,1c0.6,0,1-0.4,1-1v-1h12v1c0,0.6,0.4,1,1,1c0.6,0,1-0.4,1-1v-1h2V11H2V22z M9,14h6 v2H9V14z"></path></g></svg>