<svg id="nc_icon" version="1.1" xmlns="http://www.w3.org/2000/svg" xmlns:xlink="http://www.w3.org/1999/xlink" x="0px" y="0px" viewBox="0 0 24 24" xml:space="preserve" ><g class="nc-icon-wrapper" fill="currentColor"><path fill="currentColor" d="M23.6,11.9C22.8,6.7,19.6,3,16,3c-0.4,0-0.7,0.1-1,0.1V5c0,1.7,1.3,3,3,3c0.6,0,1,0.4,1,1s-0.4,1-1,1 c-2.8,0-5-2.2-5-5V0h-2v5c0,2.8-2.2,5-5,5c-0.6,0-1-0.4-1-1s0.4-1,1-1c1.7,0,3-1.3,3-3V3.1C8.7,3.1,8.4,3,8,3 c-3.6,0-6.8,3.7-7.6,8.9C0,14.5,0.3,17,1,19c0.8,2.3,2.3,3.7,4.1,3.9c0.2,0,0.4,0,0.7,0c1.2,0,2.3-0.4,3.3-1.3 c1.8-1.6,2.9-4.5,2.9-7.7c0,3.2,1.1,6.1,2.9,7.7c1,0.8,2.1,1.3,3.3,1.3c0.2,0,0.4,0,0.7,0c1.8-0.3,3.3-1.7,4.1-3.9 C23.7,17,24,14.5,23.6,11.9z"></path></g></svg>