<svg id="nc_icon" version="1.1" xmlns="http://www.w3.org/2000/svg" xmlns:xlink="http://www.w3.org/1999/xlink" x="0px" y="0px" viewBox="0 0 24 24" xml:space="preserve" ><g class="nc-icon-wrapper" fill="currentColor"><path fill="currentColor" d="M14,18c0-3.314,2.686-6,6-6c1.539,0,2.938,0.584,4,1.537V2c0-0.308-0.142-0.599-0.385-0.788 c-0.243-0.19-0.56-0.26-0.857-0.182L15.04,2.959L9.316,1.052C9.137,0.991,8.941,0.982,8.758,1.03l-8,2C0.312,3.142,0,3.541,0,4v18 c0,0.308,0.142,0.599,0.385,0.788C0.562,22.927,0.779,23,1,23c0.081,0,0.162-0.01,0.242-0.03l7.718-1.929l5.724,1.907 c0.18,0.06,0.374,0.069,0.559,0.021l1.046-0.261C14.896,21.609,14,19.911,14,18z"></path> <polygon data-color="color-2" fill="currentColor" points="24,17 21,17 21,14 19,14 19,17 16,17 16,19 19,19 19,22 21,22 21,19 24,19 "></polygon></g></svg>