<svg id="nc_icon" version="1.1" xmlns="http://www.w3.org/2000/svg" xmlns:xlink="http://www.w3.org/1999/xlink" x="0px" y="0px" viewBox="0 0 24 24" xml:space="preserve" ><g class="nc-icon-wrapper" fill="currentColor"><path fill="currentColor" d="M12,20c0-3.866,3.134-7,7-7c1.96,0,3.729,0.808,5,2.106V2c0-0.308-0.142-0.599-0.385-0.788 c-0.243-0.19-0.56-0.26-0.858-0.182L15.04,2.959L9.316,1.052C9.135,0.991,8.942,0.981,8.757,1.03l-8,2C0.312,3.142,0,3.541,0,4v18 c0,0.308,0.142,0.599,0.385,0.788C0.562,22.927,0.779,23,1,23c0.081,0,0.163-0.01,0.243-0.03l7.717-1.929l3.387,1.129 C12.124,21.486,12,20.758,12,20z"></path> <polygon data-color="color-2" fill="currentColor" points="17,23.414 13.586,20 15,18.586 17,20.586 22,15.586 23.414,17 "></polygon></g></svg>