<svg id="nc_icon" version="1.1" xmlns="http://www.w3.org/2000/svg" xmlns:xlink="http://www.w3.org/1999/xlink" x="0px" y="0px" viewBox="0 0 24 24" xml:space="preserve" ><g class="nc-icon-wrapper" fill="currentColor"><path fill="currentColor" d="M13.53,20.813C12.543,19.838,12,18.539,12,17.155c0-1.386,0.544-2.686,1.532-3.66 C14.507,12.532,15.806,12,17.186,12c0.169,0,0.339,0.009,0.508,0.024c0.449,0.045,0.889,0.147,1.307,0.303 c0.416-0.155,0.854-0.257,1.299-0.302C20.476,12.008,20.647,12,20.818,12c1.172,0,2.273,0.405,3.182,1.116V2 c0-0.308-0.142-0.599-0.385-0.788c-0.243-0.19-0.56-0.26-0.857-0.182L15.04,2.959L9.316,1.052C9.137,0.991,8.942,0.982,8.758,1.03 l-8,2C0.312,3.142,0,3.541,0,4v18c0,0.308,0.142,0.599,0.385,0.788C0.562,22.927,0.779,23,1,23c0.081,0,0.162-0.01,0.242-0.03 l7.718-1.929l5.724,1.907c0.18,0.06,0.375,0.069,0.559,0.021l0.376-0.094L13.53,20.813z"></path> <path data-color="color-2" fill="currentColor" d="M23.063,14.92c-0.678-0.67-1.611-0.998-2.566-0.904c-0.546,0.055-1.06,0.246-1.498,0.549 c-0.438-0.303-0.951-0.494-1.498-0.549c-0.953-0.092-1.888,0.234-2.566,0.904C14.333,15.516,14,16.31,14,17.155 s0.333,1.639,0.936,2.235L19,23.405l4.064-4.015C23.667,18.794,24,18,24,17.155S23.667,15.516,23.063,14.92z"></path></g></svg>