<svg id="nc_icon" version="1.1" xmlns="http://www.w3.org/2000/svg" xmlns:xlink="http://www.w3.org/1999/xlink" x="0px" y="0px" viewBox="0 0 24 24" xml:space="preserve" ><g class="nc-icon-wrapper" fill="currentColor"><path fill="currentColor" d="M10,18c0-4.418,3.582-8,8-8c2.393,0,4.534,1.056,6,2.721V2c0-0.308-0.142-0.599-0.385-0.788 c-0.243-0.19-0.56-0.26-0.857-0.182L15.04,2.959L9.316,1.052c-0.18-0.06-0.375-0.069-0.559-0.021l-8,2C0.312,3.142,0,3.541,0,4v18 c0,0.308,0.142,0.599,0.385,0.788C0.562,22.927,0.779,23,1,23c0.081,0,0.162-0.01,0.242-0.03l7.718-1.929l1.946,0.648 C10.33,20.585,10,19.332,10,18z"></path> <path data-color="color-2" fill="currentColor" d="M24,19v-2h-2.141c-0.094-0.364-0.238-0.704-0.424-1.02l1.515-1.515l-1.414-1.414l-1.515,1.515 c-0.316-0.186-0.656-0.33-1.02-0.424V12h-2v2.141c-0.364,0.094-0.704,0.238-1.02,0.424l-1.515-1.515l-1.414,1.414l1.515,1.515 c-0.186,0.316-0.33,0.656-0.424,1.02H12v2h2.141c0.094,0.364,0.238,0.704,0.424,1.02l-1.515,1.515l1.414,1.414l1.515-1.515 c0.316,0.186,0.656,0.33,1.02,0.424V24h2v-2.141c0.364-0.094,0.704-0.238,1.02-0.424l1.515,1.515l1.414-1.414l-1.515-1.515 c0.186-0.316,0.33-0.656,0.424-1.02H24z M18,19c-0.552,0-1-0.448-1-1c0-0.552,0.448-1,1-1s1,0.448,1,1C19,18.552,18.552,19,18,19z"></path></g></svg>