<svg id="nc_icon" version="1.1" xmlns="http://www.w3.org/2000/svg" xmlns:xlink="http://www.w3.org/1999/xlink" x="0px" y="0px" viewBox="0 0 24 24" xml:space="preserve" ><g class="nc-icon-wrapper" fill="currentColor"><path fill="currentColor" d="M12,18c0-3.309,2.691-6,6-6s6,2.691,6,6V2c0-0.308-0.142-0.599-0.385-0.788 c-0.243-0.19-0.561-0.26-0.858-0.182L15.04,2.959L9.316,1.052C9.135,0.991,8.942,0.981,8.757,1.03l-8,2C0.312,3.142,0,3.541,0,4v18 c0,0.308,0.142,0.599,0.385,0.788C0.562,22.927,0.779,23,1,23c0.081,0,0.163-0.01,0.243-0.03l7.717-1.929l5.597,1.865 C13.013,21.819,12,20.027,12,18z"></path> <path data-color="color-2" fill="currentColor" d="M23.707,22.293l-2.274-2.274C21.785,19.424,22,18.74,22,18c0-2.206-1.794-4-4-4s-4,1.794-4,4 s1.794,4,4,4c0.74,0,1.424-0.215,2.019-0.567l2.274,2.274L23.707,22.293z M18,20c-1.103,0-2-0.897-2-2s0.897-2,2-2s2,0.897,2,2 S19.103,20,18,20z"></path></g></svg>