<svg id="nc_icon" version="1.1" xmlns="http://www.w3.org/2000/svg" xmlns:xlink="http://www.w3.org/1999/xlink" x="0px" y="0px" viewBox="0 0 24 24" xml:space="preserve" ><g class="nc-icon-wrapper" fill="currentColor"><path fill="currentColor" d="M12,18c0-1.304,0.836-2.416,2-2.829v-0.066c0-2.346,1.574-4.472,3.865-4.979 c2.464-0.545,4.719,0.742,5.665,2.76c0.111,0.238,0.47,0.15,0.47-0.112V2c0-0.308-0.142-0.599-0.385-0.788 c-0.243-0.19-0.56-0.26-0.857-0.182L15.04,2.959L9.316,1.052C9.137,0.991,8.942,0.982,8.758,1.03l-8.001,2C0.312,3.142,0,3.541,0,4 v18c0,0.308,0.142,0.599,0.385,0.788C0.562,22.927,0.779,23,1,23c0.081,0,0.162-0.01,0.242-0.03l7.718-1.929L12,22.054V18z"></path> <path data-color="color-2" fill="currentColor" d="M23,17h-1v-2c0-1.654-1.346-3-3-3s-3,1.346-3,3v2h-1c-0.552,0-1,0.448-1,1v5 c0,0.552,0.448,1,1,1h8c0.552,0,1-0.448,1-1v-5C24,17.448,23.552,17,23,17z M18,15c0-0.551,0.449-1,1-1s1,0.449,1,1v2h-2V15z"></path></g></svg>