<svg id="nc_icon" version="1.1" xmlns="http://www.w3.org/2000/svg" xmlns:xlink="http://www.w3.org/1999/xlink" x="0px" y="0px" viewBox="0 0 24 24" xml:space="preserve" ><g class="nc-icon-wrapper" fill="currentColor"><path fill="currentColor" d="M13,18c0-3.866,3.134-7,7-7c1.488,0,2.866,0.468,4,1.26V2c0-0.308-0.142-0.599-0.385-0.788 c-0.243-0.19-0.56-0.26-0.858-0.182L15.04,2.959L9.316,1.052C9.136,0.991,8.942,0.981,8.757,1.03l-8,2C0.312,3.142,0,3.541,0,4v18 c0,0.308,0.142,0.599,0.385,0.788C0.562,22.927,0.779,23,1,23c0.081,0,0.163-0.01,0.243-0.03l7.717-1.929l5.724,1.907 c0.131,0.043,0.269,0.05,0.406,0.037C13.801,21.716,13,19.952,13,18z"></path> <path data-color="color-2" fill="currentColor" d="M22,19c-0.35,0-0.675,0.098-0.961,0.257l-2.042-1.225C18.997,18.021,19,18.011,19,18 s-0.003-0.021-0.003-0.032l2.042-1.225C21.325,16.902,21.65,17,22,17c1.103,0,2-0.897,2-2s-0.897-2-2-2s-2,0.897-2,2 c0,0.011,0.003,0.021,0.003,0.032l-2.042,1.225C17.675,16.098,17.35,16,17,16c-1.103,0-2,0.897-2,2s0.897,2,2,2 c0.35,0,0.675-0.098,0.961-0.257l2.042,1.225C20.003,20.979,20,20.989,20,21c0,1.103,0.897,2,2,2s2-0.897,2-2S23.103,19,22,19z"></path></g></svg>