<svg id="nc_icon" version="1.1" xmlns="http://www.w3.org/2000/svg" xmlns:xlink="http://www.w3.org/1999/xlink" x="0px" y="0px" viewBox="0 0 24 24" xml:space="preserve" ><g class="nc-icon-wrapper" fill="currentColor"><path data-color="color-2" fill="currentColor" d="M18,15c0.808,0,1.574,0.331,2.131,0.893l-1.609,1.168L22.792,18l0.428-4.351l-1.466,1.065 C20.814,13.644,19.45,13,18,13c-2.282,0-4.273,1.542-4.843,3.751l1.938,0.498C15.436,15.925,16.63,15,18,15z"></path> <path data-color="color-2" fill="currentColor" d="M18,22c-0.808,0-1.574-0.331-2.131-0.893l1.609-1.168L13.208,19l-0.428,4.351l1.466-1.065 C15.186,23.356,16.55,24,18,24c2.282,0,4.273-1.542,4.843-3.751l-1.938-0.498C20.564,21.075,19.37,22,18,22z"></path> <path fill="currentColor" d="M23.615,1.212c-0.243-0.19-0.56-0.26-0.857-0.182L15.04,2.959L9.316,1.052 c-0.18-0.06-0.375-0.069-0.559-0.021l-8,2C0.312,3.142,0,3.541,0,4v18c0,0.308,0.142,0.599,0.385,0.788C0.562,22.927,0.779,23,1,23 c0.081,0,0.162-0.01,0.242-0.03l7.718-1.929l2.04,0.68V18c0-3.866,3.134-7,7-7c2.551,0,4.167,0.708,6,2V2 C24,1.692,23.858,1.401,23.615,1.212z"></path></g></svg>