<svg id="nc_icon" version="1.1" xmlns="http://www.w3.org/2000/svg" xmlns:xlink="http://www.w3.org/1999/xlink" x="0px" y="0px" viewBox="0 0 24 24" xml:space="preserve" ><g class="nc-icon-wrapper" fill="currentColor"><path data-color="color-2" fill="currentColor" d="M18,24c3.314,0,6-2.686,6-6s-2.686-6-6-6s-6,2.686-6,6S14.686,24,18,24z M17,14h2v3h3v2h-5V14 z"></path> <path fill="currentColor" d="M10,18c0-4.418,3.582-8,8-8c2.393,0,4.534,1.056,6,2.721V2c0-0.308-0.142-0.599-0.385-0.788 c-0.243-0.19-0.56-0.26-0.857-0.182L15.04,2.959L9.316,1.052C9.137,0.991,8.941,0.982,8.758,1.03l-8,2C0.312,3.142,0,3.541,0,4v18 c0,0.308,0.142,0.599,0.385,0.788C0.562,22.927,0.779,23,1,23c0.081,0,0.162-0.01,0.242-0.03l7.718-1.929l1.946,0.648 C10.33,20.585,10,19.332,10,18z"></path></g></svg>