<svg id="nc_icon" version="1.1" xmlns="http://www.w3.org/2000/svg" xmlns:xlink="http://www.w3.org/1999/xlink" x="0px" y="0px" viewBox="0 0 24 24" xml:space="preserve" ><g class="nc-icon-wrapper" fill="currentColor"><path fill="currentColor" d="M12,18c0-3.866,3.134-7,7-7c1.96,0,3.729,0.808,5,2.106V2c0-0.308-0.142-0.599-0.385-0.788 c-0.243-0.19-0.56-0.26-0.857-0.182L15.04,2.959L9.316,1.052c-0.18-0.06-0.375-0.069-0.559-0.021l-8,2C0.312,3.142,0,3.541,0,4v18 c0,0.308,0.142,0.599,0.385,0.788C0.562,22.927,0.779,23,1,23c0.081,0,0.162-0.01,0.242-0.03l7.718-1.929l4.813,1.604 C12.674,21.408,12,19.785,12,18z"></path> <polygon data-color="color-2" fill="currentColor" points="22,17.586 20,19.586 20,13 18,13 18,19.586 16,17.586 14.586,19 19,23.414 23.414,19 "></polygon></g></svg>