<svg id="nc_icon" version="1.1" xmlns="http://www.w3.org/2000/svg" xmlns:xlink="http://www.w3.org/1999/xlink" x="0px" y="0px" viewBox="0 0 24 24" xml:space="preserve" ><g class="nc-icon-wrapper" fill="currentColor"><path fill="currentColor" d="M20.447,14.105c-0.338-0.169-0.744-0.132-1.047,0.095L13,19v-4h-2v4l-6.4-4.8 c-0.303-0.228-0.709-0.265-1.047-0.095C3.214,14.275,3,14.621,3,15v4c0,2.757,2.243,5,5,5h8c2.757,0,5-2.243,5-5v-4 C21,14.621,20.786,14.275,20.447,14.105z"></path> <path data-color="color-2" fill="currentColor" d="M12,13c3.859,0,7-3.14,7-7V0.131l-4,2.667l-3-2l-3,2L5,0.131V6C5,9.86,8.141,13,12,13z"></path></g></svg>