<svg id="nc_icon" version="1.1" xmlns="http://www.w3.org/2000/svg" xmlns:xlink="http://www.w3.org/1999/xlink" x="0px" y="0px" viewBox="0 0 24 24" xml:space="preserve" ><g class="nc-icon-wrapper" fill="currentColor"><path fill="currentColor" d="M12,0C5.4,0,0,5.4,0,12s5.4,12,12,12c6.6,0,12-5.4,12-12S18.6,0,12,0z M6.6,6.7l3.8,1.9l-0.9,1.8L5.7,8.4 L6.6,6.7z M17,14c0,2.8-2.2,5-5,5c-2.8,0-5-2.2-5-5h2c0,1.7,1.3,3,3,3c1.7,0,3-1.3,3-3H17z M14.6,10.3l-0.9-1.8l3.8-1.9l0.9,1.8 L14.6,10.3z"></path></g></svg>