<svg id="nc_icon" version="1.1" xmlns="http://www.w3.org/2000/svg" xmlns:xlink="http://www.w3.org/1999/xlink" x="0px" y="0px" viewBox="0 0 24 24" xml:space="preserve" ><g class="nc-icon-wrapper" fill="currentColor"><path fill-rule="evenodd" clip-rule="evenodd" fill="currentColor" d="M20.728,18.432L15,17v-2.065c1.792-1.334,3-3.715,3-5.935V5.492 c0-1.65-1.344-3-3.001-3h-0.374l-0.787-1.575c-0.19-0.381-0.647-0.551-1.03-0.398L8.089,2.406C6.935,2.868,6,4.25,6,5.493V9 c0,2.22,1.208,4.601,3,5.935V17l-5.728,1.432C1.937,18.766,1,19.966,1,21.342V24h22v-2.658C23,19.966,22.063,18.766,20.728,18.432z"></path></g></svg>