<svg id="nc_icon" version="1.1" xmlns="http://www.w3.org/2000/svg" xmlns:xlink="http://www.w3.org/1999/xlink" x="0px" y="0px" viewBox="0 0 24 24" xml:space="preserve" ><g class="nc-icon-wrapper"><circle data-color="color-2" fill="currentColor" cx="7.5" cy="14.5" r="1.5"></circle> <circle data-color="color-2" fill="currentColor" cx="16.5" cy="14.5" r="1.5"></circle> <path fill="currentColor" d="M12,0C5.383,0,0,5.383,0,12s5.383,12,12,12s12-5.383,12-12S18.617,0,12,0z M12,22C6.486,22,2,17.514,2,12 c0.031-1,2.544-2.049,4.855-2.049c0.021,0,0.041,0,0.062,0c2.525-0.002,5.641,0.004,8.879-2.479C18.375,10.946,22,12,22,12 C22,17.514,17.514,22,12,22z"></path></g></svg>