<svg id="nc_icon" version="1.1" xmlns="http://www.w3.org/2000/svg" xmlns:xlink="http://www.w3.org/1999/xlink" x="0px" y="0px" viewBox="0 0 24 24" xml:space="preserve" ><g class="nc-icon-wrapper"><path fill="currentColor" d="M17,4h-1l0-3.6L8.8,4H7c-3.9,0-7,3.1-7,7v6c0,3.9,3.1,7,7,7h10c3.9,0,7-3.1,7-7v-6C24,7.1,20.9,4,17,4z M5,13v-1c0-1.7,1.3-3,3-3s3,1.3,3,3v1H9v-1c0-0.6-0.4-1-1-1s-1,0.4-1,1v1H5z M17,17c0,1.7-1.3,3-3,3c-0.8,0-1.5-0.3-2-0.8 c-0.5,0.5-1.2,0.8-2,0.8c-1.7,0-3-1.3-3-3v-1h2v1c0,0.6,0.4,1,1,1s1-0.4,1-1h2c0,0.6,0.4,1,1,1s1-0.4,1-1v-1h2V17z M19,13h-2v-1 c0-0.6-0.4-1-1-1s-1,0.4-1,1v1h-2v-1c0-1.7,1.3-3,3-3s3,1.3,3,3V13z"></path></g></svg>