<svg id="nc_icon" version="1.1" xmlns="http://www.w3.org/2000/svg" xmlns:xlink="http://www.w3.org/1999/xlink" x="0px" y="0px" viewBox="0 0 24 24" xml:space="preserve" ><g class="nc-icon-wrapper"><path data-color="color-2" fill="currentColor" d="M1,23.02c-0.221,0-0.438-0.073-0.615-0.212C0.142,22.619,0,22.329,0,22.02v-16h2V20.74 l6.758-1.689c0.184-0.047,0.379-0.039,0.559,0.021l5.724,1.908L22,19.24V4.02h2v16c0,0.459-0.312,0.859-0.758,0.97l-8,2 c-0.184,0.047-0.379,0.039-0.559-0.021L8.96,21.061l-7.718,1.93C1.162,23.011,1.081,23.02,1,23.02z"></path> <path fill="currentColor" d="M12,0C7.589,0,4,3.589,4,8s3.589,8,8,8s8-3.589,8-8S16.411,0,12,0z M13,9l-5,3l3-5l5-3L13,9z"></path></g></svg>