<svg id="nc_icon" version="1.1" xmlns="http://www.w3.org/2000/svg" xmlns:xlink="http://www.w3.org/1999/xlink" x="0px" y="0px" viewBox="0 0 24 24" xml:space="preserve" ><g class="nc-icon-wrapper" fill="currentColor"><path data-color="color-2" fill="currentColor" d="M1,23c-0.221,0-0.438-0.073-0.615-0.212C0.142,22.599,0,22.308,0,22V6h2v14.719l6.758-1.689 c0.184-0.047,0.379-0.039,0.559,0.021l5.724,1.908l6.96-1.74V4h2v16c0,0.459-0.312,0.859-0.758,0.97l-8,2 c-0.184,0.047-0.379,0.039-0.559-0.021L8.96,21.041l-7.718,1.93C1.162,22.99,1.081,23,1,23z"></path> <path fill="currentColor" d="M18,6c0-3.309-2.691-6-6-6S6,2.691,6,6c0,2.967,2.167,5.431,5,5.91V17h2v-5.09C15.833,11.431,18,8.967,18,6z "></path></g></svg>