<svg id="nc_icon" version="1.1" xmlns="http://www.w3.org/2000/svg" xmlns:xlink="http://www.w3.org/1999/xlink" x="0px" y="0px" viewBox="0 0 24 24" xml:space="preserve" ><g class="nc-icon-wrapper" fill="currentColor"><path data-color="color-2" fill="currentColor" d="M23.615,1.212c-0.243-0.19-0.56-0.258-0.858-0.182l-7.717,1.93L9.316,1.051 C9.135,0.991,8.941,0.983,8.757,1.03l-8,2C0.312,3.141,0,3.541,0,4v15c0,0.308,0.142,0.599,0.385,0.788C0.562,19.927,0.779,20,1,20 c0.081,0,0.163-0.01,0.243-0.03l5.024-1.256l-0.526-1.93L2,17.719V4.781l6.96-1.74l5.724,1.908c0.18,0.06,0.374,0.067,0.559,0.021 L22,3.281v12.938l-6.243,1.561c-0.536,0.134-0.861,0.677-0.728,1.213c0.135,0.536,0.678,0.862,1.213,0.728l7-1.75 C23.688,17.859,24,17.459,24,17V2C24,1.692,23.858,1.401,23.615,1.212z"></path> <path fill="currentColor" d="M18.263,12.035l-11-3c-0.346-0.093-0.716,0.004-0.97,0.258s-0.352,0.624-0.258,0.97l3,11 c0.105,0.386,0.431,0.673,0.828,0.728C9.909,21.997,9.955,22,10,22c0.348,0,0.675-0.182,0.857-0.485l2.872-4.786l4.786-2.872 c0.343-0.206,0.531-0.597,0.476-0.994S18.649,12.141,18.263,12.035z"></path></g></svg>