<svg id="nc_icon" version="1.1" xmlns="http://www.w3.org/2000/svg" xmlns:xlink="http://www.w3.org/1999/xlink" x="0px" y="0px" viewBox="0 0 24 24" xml:space="preserve" ><g class="nc-icon-wrapper" fill="currentColor"><path data-color="color-2" fill="currentColor" d="M1,23c-0.221,0-0.438-0.073-0.615-0.212C0.142,22.599,0,22.308,0,22V6h2v14.719l6.758-1.689 c0.184-0.047,0.379-0.039,0.559,0.021l5.724,1.908l6.96-1.74V4h2v16c0,0.459-0.312,0.859-0.758,0.97l-8,2 c-0.184,0.047-0.379,0.039-0.559-0.021L8.96,21.041l-7.718,1.93C1.162,22.99,1.081,23,1,23z"></path> <path fill="currentColor" d="M12,0C8.56,0,5,2.618,5,7c0,3.988,5.634,10.016,6.276,10.69C11.465,17.888,11.727,18,12,18 s0.535-0.112,0.724-0.31C13.366,17.016,19,10.988,19,7C19,2.618,15.44,0,12,0z M12,9c-1.105,0-2-0.895-2-2s0.895-2,2-2s2,0.895,2,2 S13.105,9,12,9z"></path></g></svg>