<svg id="nc_icon" version="1.1" xmlns="http://www.w3.org/2000/svg" xmlns:xlink="http://www.w3.org/1999/xlink" x="0px" y="0px" viewBox="0 0 24 24" xml:space="preserve" ><g class="nc-icon-wrapper" fill="currentColor"><path fill="currentColor" d="M1,4h22c0.55225,0,1-0.44727,1-1s-0.44775-1-1-1H1C0.44775,2,0,2.44727,0,3S0.44775,4,1,4z"></path> <path fill="currentColor" d="M23,8h-8c-0.55225,0-1,0.44727-1,1s0.44775,1,1,1h8c0.55225,0,1-0.44727,1-1S23.55225,8,23,8z"></path> <path fill="currentColor" d="M23,14h-8c-0.55225,0-1,0.44727-1,1s0.44775,1,1,1h8c0.55225,0,1-0.44727,1-1S23.55225,14,23,14z"></path> <path fill="currentColor" d="M23,20H1c-0.55225,0-1,0.44727-1,1s0.44775,1,1,1h22c0.55225,0,1-0.44727,1-1S23.55225,20,23,20z"></path> <path data-color="color-2" fill="currentColor" d="M1,13h6v3l5-4L7,8v3H1c-0.55231,0-1,0.44769-1,1C0,12.55225,0.44769,13,1,13z"></path></g></svg>