<svg id="nc_icon" version="1.1" xmlns="http://www.w3.org/2000/svg" xmlns:xlink="http://www.w3.org/1999/xlink" x="0px" y="0px" viewBox="0 0 24 24" xml:space="preserve" ><g class="nc-icon-wrapper" fill="currentColor"><path fill="currentColor" d="M23,4H1C0.44775,4,0,3.55273,0,3s0.44775-1,1-1h22c0.55225,0,1,0.44727,1,1S23.55225,4,23,4z"></path> <path fill="currentColor" d="M9,10H1c-0.55225,0-1-0.44727-1-1s0.44775-1,1-1h8c0.55225,0,1,0.44727,1,1S9.55225,10,9,10z"></path> <path fill="currentColor" d="M9,16H1c-0.55225,0-1-0.44727-1-1s0.44775-1,1-1h8c0.55225,0,1,0.44727,1,1S9.55225,16,9,16z"></path> <path fill="currentColor" d="M23,22H1c-0.55225,0-1-0.44727-1-1s0.44775-1,1-1h22c0.55225,0,1,0.44727,1,1S23.55225,22,23,22z"></path> <path data-color="color-2" fill="currentColor" d="M12,12l5-4v3h6c0.55228,0,1,0.44771,1,1v0c0,0.55228-0.44771,1-1,1h-6v3L12,12z"></path></g></svg>