<svg id="nc_icon" version="1.1" xmlns="http://www.w3.org/2000/svg" xmlns:xlink="http://www.w3.org/1999/xlink" x="0px" y="0px" viewBox="0 0 24 24" xml:space="preserve" ><g class="nc-icon-wrapper" fill="currentColor"><path fill="currentColor" d="M12,0C5.383,0,0,5.383,0,12s5.383,12,12,12s12-5.383,12-12S18.617,0,12,0z M17.736,16.677 C17.542,16.887,17.274,17,17,17c-0.125,0-0.251-0.023-0.372-0.071L12,15.077l-4.628,1.852c-0.385,0.154-0.826,0.054-1.107-0.251 c-0.281-0.306-0.344-0.753-0.159-1.125l5-10c0.339-0.678,1.45-0.678,1.789,0l5,10C18.08,15.924,18.017,16.372,17.736,16.677z"></path></g></svg>