<svg id="nc_icon" version="1.1" xmlns="http://www.w3.org/2000/svg" xmlns:xlink="http://www.w3.org/1999/xlink" x="0px" y="0px" viewBox="0 0 24 24" xml:space="preserve" ><g class="nc-icon-wrapper" fill="currentColor"><path fill="currentColor" d="M23,4h-6V1c0-0.552-0.448-1-1-1H8C7.448,0,7,0.448,7,1v3H1C0.448,4,0,4.448,0,5v18c0,0.552,0.448,1,1,1h22 c0.552,0,1-0.448,1-1V5C24,4.448,23.552,4,23,4z M9,2h6v2H9V2z M16.555,14.832l-6,4C10.387,18.943,10.194,19,10,19 c-0.162,0-0.324-0.039-0.472-0.118C9.203,18.708,9,18.369,9,18v-8c0-0.369,0.203-0.708,0.528-0.882 c0.324-0.174,0.719-0.156,1.026,0.05l6,4C16.833,13.354,17,13.666,17,14S16.833,14.646,16.555,14.832z"></path></g></svg>