<svg id="nc_icon" version="1.1" xmlns="http://www.w3.org/2000/svg" xmlns:xlink="http://www.w3.org/1999/xlink" x="0px" y="0px" viewBox="0 0 24 24" xml:space="preserve" ><g class="nc-icon-wrapper" fill="currentColor"><path fill="currentColor" d="M22.7,7.3L21.4,6l-6.7,6.7C14.5,12.9,14.3,13,14,13s-0.5-0.1-0.7-0.3l-2-2c-0.4-0.4-0.4-1,0-1.4L18,2.6	l-1.3-1.3c-0.4-0.4-1-0.4-1.4,0l-12,12c-0.4,0.4-0.4,1,0,1.4l6,6C9.5,20.9,9.7,21,10,21s0.5-0.1,0.7-0.3l12-12	C23.1,8.3,23.1,7.7,22.7,7.3z"></path><path data-color="color-2" fill="currentColor" d="M3.2,17.4l-1.9,1.9C1,19.5,0.9,19.9,1,20.2c0.1,0.3,0.3,0.6,0.7,0.7l3,1C4.8,22,4.9,22,5,22	c0.3,0,0.5-0.1,0.7-0.3l0.9-0.9L3.2,17.4z"></path></g></svg>