<svg id="nc_icon" version="1.1" xmlns="http://www.w3.org/2000/svg" xmlns:xlink="http://www.w3.org/1999/xlink" x="0px" y="0px" viewBox="0 0 24 24" xml:space="preserve" ><g class="nc-icon-wrapper" fill="currentColor"><path fill="currentColor" d="M23,4h-6V1c0-0.552-0.448-1-1-1H8C7.448,0,7,0.448,7,1v3H1C0.448,4,0,4.448,0,5v18c0,0.552,0.448,1,1,1h22 c0.552,0,1-0.448,1-1V5C24,4.448,23.552,4,23,4z M9,2h6v2H9V2z M18,18h-0.05c-0.232,1.141-1.24,2-2.45,2c-1.381,0-2.5-1.119-2.5-2.5 c0-1.381,1.119-2.5,2.5-2.5c0.171,0,0.338,0.018,0.5,0.05V11h-5v7h-0.05c-0.232,1.141-1.24,2-2.45,2C7.119,20,6,18.881,6,17.5 C6,16.119,7.119,15,8.5,15c0.171,0,0.338,0.018,0.5,0.05V10c0-0.552,0.448-1,1-1h7c0.552,0,1,0.448,1,1V18z"></path></g></svg>