<svg id="nc_icon" version="1.1" xmlns="http://www.w3.org/2000/svg" xmlns:xlink="http://www.w3.org/1999/xlink" x="0px" y="0px" viewBox="0 0 24 24" xml:space="preserve" ><g class="nc-icon-wrapper" fill="currentColor"><path d="M23,0H10A1,1,0,0,0,9,1V23a1,1,0,0,0,1,1H23a1,1,0,0,0,1-1V1A1,1,0,0,0,23,0ZM22,22H11V18h7a1,1,0,0,0,1-1V7a1,1,0,0,0-1-1H11V2H22Z" fill="currentColor"></path> <path d="M0,7V17a1,1,0,0,0,1,1H7V16H2V8H7V6H1A1,1,0,0,0,0,7Z" fill="currentColor" data-color="color-2"></path></g></svg>