<svg id="nc_icon" version="1.1" xmlns="http://www.w3.org/2000/svg" xmlns:xlink="http://www.w3.org/1999/xlink" x="0px" y="0px" viewBox="0 0 24 24" xml:space="preserve" ><g class="nc-icon-wrapper" fill="currentColor"><path fill="currentColor" d="M22.707,6.293l-5-5c-0.391-0.391-1.023-0.391-1.414,0L14,3.586l2.699,2.708l-1.416,1.412L12.585,5L11,6.586 l1.707,1.706l-1.414,1.415L9.586,8L8,9.586l2.707,2.707l-1.414,1.414L6.586,11L5,12.586l1.706,1.706l-1.414,1.414L3.586,14 l-2.293,2.293c-0.391,0.391-0.391,1.023,0,1.414l5,5C6.488,22.902,6.744,23,7,23s0.512-0.098,0.707-0.293l15-15 C23.098,7.316,23.098,6.684,22.707,6.293z"></path></g></svg>