<svg id="nc_icon" version="1.1" xmlns="http://www.w3.org/2000/svg" xmlns:xlink="http://www.w3.org/1999/xlink" x="0px" y="0px" viewBox="0 0 24 24" xml:space="preserve" ><g class="nc-icon-wrapper" fill="currentColor"><path fill="currentColor" d="M22.707,21.294l-20-20C2.42,1.007,1.99,0.921,1.617,1.077C1.244,1.232,1,1.596,1,2.001V6h2v2H1v2h2v2H1v2h2 v2H1v2h2v2H1v2.001c0,0.552,0.448,1,1,1h20c0.404,0,0.769-0.244,0.924-0.617C23.079,22.009,22.993,21.58,22.707,21.294z M14,19 l-8,0.001V11L14,19z"></path></g></svg>