<svg id="nc_icon" version="1.1" xmlns="http://www.w3.org/2000/svg" xmlns:xlink="http://www.w3.org/1999/xlink" x="0px" y="0px" viewBox="0 0 24 24" xml:space="preserve" ><g class="nc-icon-wrapper" fill="currentColor"><path fill="currentColor" d="M23.4,4.3C23.2,3.5,22.7,2.8,22,2c-0.7-0.7-1.5-1.2-2.3-1.4c-1-0.2-1.9,0-2.6,0.7c-1,1-1.3,2.6-1.4,3.2 c-0.1,0.5-0.1,1.4,0.1,2.2l-1.6,1.6L12.8,7c-0.4-0.4-1-0.4-1.4,0L10,8.4L8.5,7c-0.4-0.4-1-0.4-1.4,0L4.3,9.8C4.1,10,4,10.2,4,10.5 s0.1,0.5,0.3,0.7L6.1,13c-0.7,0.2-1.3,0.5-1.8,1c-1.3,1.3-1.5,3.3-0.6,4.8l-2.9,2.9c-0.4,0.4-0.4,1,0,1.4c0.2,0.2,0.5,0.3,0.7,0.3 s0.5-0.1,0.7-0.3l2.9-2.9c0.6,0.4,1.3,0.6,2,0.6c1,0,2-0.4,2.8-1.2c0.5-0.5,0.8-1.1,1-1.8l1.8,1.8c0.2,0.2,0.5,0.3,0.7,0.3 s0.5-0.1,0.7-0.3l2.8-2.8c0.2-0.2,0.3-0.4,0.3-0.7s-0.1-0.5-0.3-0.7L15.6,14l1.4-1.4c0.2-0.2,0.3-0.4,0.3-0.7s-0.1-0.5-0.3-0.7 l-1.4-1.4l1.6-1.6c0.4,0.1,0.9,0.2,1.4,0.2c0.3,0,0.7,0,0.9-0.1c0.6-0.1,2.2-0.4,3.2-1.4C23.4,6.2,23.7,5.3,23.4,4.3z M21.3,5.5 c-0.8,0.8-3.1,1-3.5,0.7c-0.3-0.5-0.1-2.8,0.7-3.6c0.2-0.2,0.3-0.2,0.5-0.2c0.1,0,0.2,0,0.3,0c0.4,0.1,0.9,0.4,1.4,0.9 c0.5,0.5,0.8,1,0.9,1.4C21.6,5.1,21.5,5.3,21.3,5.5z"></path></g></svg>