<svg id="nc_icon" version="1.1" xmlns="http://www.w3.org/2000/svg" xmlns:xlink="http://www.w3.org/1999/xlink" x="0px" y="0px" viewBox="0 0 24 24" xml:space="preserve" ><g class="nc-icon-wrapper" fill="currentColor"><circle fill="currentColor" cx="19" cy="16" r="3"></circle> <path fill="currentColor" d="M24,24H14v-1.084c0-0.654,0.315-1.265,0.851-1.639C15.67,20.705,17.071,20,19,20s3.33,0.705,4.149,1.277 C23.685,21.652,24,22.263,24,22.916V24z"></path> <circle fill="currentColor" cx="5" cy="16" r="3"></circle> <path fill="currentColor" d="M10,24H0v-1.084c0-0.654,0.315-1.265,0.851-1.639C1.67,20.705,3.071,20,5,20s3.33,0.705,4.149,1.277 C9.685,21.652,10,22.263,10,22.916V24z"></path> <circle data-color="color-2" fill="currentColor" cx="12" cy="3" r="3"></circle> <path data-color="color-2" fill="currentColor" d="M17,11H7V9.916c0-0.654,0.315-1.265,0.851-1.639C8.67,7.705,10.071,7,12,7 s3.33,0.705,4.149,1.277C16.685,8.652,17,9.263,17,9.916V11z"></path></g></svg>