<svg id="nc_icon" version="1.1" xmlns="http://www.w3.org/2000/svg" xmlns:xlink="http://www.w3.org/1999/xlink" x="0px" y="0px" viewBox="0 0 24 24" xml:space="preserve" ><g class="nc-icon-wrapper" fill="currentColor"><path data-color="color-2" fill="currentColor" d="M23,13H1c-0.6,0-1-0.4-1-1s0.4-1,1-1h22c0.6,0,1,0.4,1,1S23.6,13,23,13z"></path> <path fill="currentColor" d="M23,6H1C0.4,6,0,5.6,0,5s0.4-1,1-1h22c0.6,0,1,0.4,1,1S23.6,6,23,6z"></path> <path fill="currentColor" d="M23,20H1c-0.6,0-1-0.4-1-1s0.4-1,1-1h22c0.6,0,1,0.4,1,1S23.6,20,23,20z"></path></g></svg>