<svg id="nc_icon" xmlns="http://www.w3.org/2000/svg" xmlns:xlink="http://www.w3.org/1999/xlink" x="0px" y="0px" viewBox="0 0 24 24" ><g class="nc-icon-wrapper" fill="currentColor"><path fill="currentColor" d="M23.5869141,9.1904297l-4-2.8999023c-0.4492188-0.3251953-1.0732422-0.2246094-1.3964844,0.2226562 c-0.3242188,0.4472656-0.2246094,1.0722656,0.2226562,1.3964844l2.7181396,1.9707031L12,14.861084L2.8687744,9.8803711 L5.5869141,7.909668c0.4472656-0.3242188,0.546875-0.9492188,0.2226562-1.3964844s-0.9482422-0.546875-1.3964844-0.2226562 l-4,2.8999023C0.1533203,9.378418,0,9.6796875,0,10v12c0,0.5522461,0.4472656,1,1,1h22c0.5527344,0,1-0.4477539,1-1V10 C24,9.6796875,23.8466797,9.378418,23.5869141,9.1904297z"></path> <path data-color="color-2" fill="currentColor" d="M11.3623047,10.4628906C11.5478516,10.6157227,11.7734375,10.6923828,12,10.6923828 s0.4521484-0.0766602,0.6376953-0.2294922C13.3662109,9.8608398,17,6.7290039,17,4.230957C17,2.4194336,15.6142578,1,13.8457031,1 C13.1669922,1,12.5263672,1.2050781,12,1.574707C11.4736328,1.2050781,10.8330078,1,10.1542969,1 C8.3857422,1,7,2.4194336,7,4.230957C7,6.7290039,10.6337891,9.8608398,11.3623047,10.4628906z"></path></g></svg>