<svg id="nc_icon" version="1.1" xmlns="http://www.w3.org/2000/svg" xmlns:xlink="http://www.w3.org/1999/xlink" x="0px" y="0px" viewBox="0 0 24 24" xml:space="preserve" ><g class="nc-icon-wrapper" fill="currentColor"><path data-color="color-2" fill="currentColor" d="M10.637 13.364a8.956 8.956 0 0 1-2.242-3.718l-5.623 7.353a.998.998 0 0 0 .087 1.314l2.828 2.829a.996.996 0 0 0 1.314.087l7.354-5.624a8.942 8.942 0 0 1-3.718-2.241z"></path><path fill="currentColor" d="M21.949 2.05A6.952 6.952 0 0 0 17 0c-1.869 0-3.627.728-4.949 2.05S10 5.13 10 7s.729 3.627 2.051 4.95S15.13 14 17 14s3.627-.728 4.949-2.05S24 8.87 24 7s-.729-3.627-2.051-4.95z"></path><path fill="currentColor" d="M.172 21l1.414-1.414 2.828 2.828L3 23.828z"></path></g></svg>