<svg id="nc_icon" xmlns="http://www.w3.org/2000/svg" xmlns:xlink="http://www.w3.org/1999/xlink" x="0px" y="0px" viewBox="0 0 24 24" ><g class="nc-icon-wrapper" fill="currentColor"><path fill="currentColor" d="M23,2H1C0.448,2,0,2.448,0,3v18c0,0.552,0.448,1,1,1h22c0.552,0,1-0.448,1-1V3C24,2.448,23.552,2,23,2z M15,16c0,0.552-0.448,1-1,1H4c-0.552,0-1-0.448-1-1V8c0-0.552,0.448-1,1-1h10c0.552,0,1,0.448,1,1V16z M21,17h-4v-2h4V17z M19,11 c-1.103,0-2-0.897-2-2s0.897-2,2-2s2,0.897,2,2S20.103,11,19,11z"></path></g></svg>