<svg id="nc_icon" version="1.1" xmlns="http://www.w3.org/2000/svg" xmlns:xlink="http://www.w3.org/1999/xlink" x="0px" y="0px" viewBox="0 0 24 24" xml:space="preserve" ><g class="nc-icon-wrapper" fill="currentColor"><path data-color="color-2" fill="currentColor" d="M21,8h-6c-1.103,0-2,0.897-2,2v12c0,1.103,0.897,2,2,2h6c1.103,0,2-0.897,2-2V10 C23,8.897,22.103,8,21,8z M20,20h-4c-0.552,0-1-0.448-1-1v-8c0-0.552,0.448-1,1-1h4c0.552,0,1,0.448,1,1v8 C21,19.552,20.552,20,20,20z"></path> <path fill="currentColor" d="M11,17H4c-0.552,0-1-0.448-1-1V3c0-0.552,0.448-1,1-1h12c0.552,0,1,0.448,1,1v3h2V2c0-1.105-0.895-2-2-2H3 C1.895,0,1,0.895,1,2v18c0,1.105,0.895,2,2,2h8V17z"></path></g></svg>