<svg id="nc_icon" version="1.1" xmlns="http://www.w3.org/2000/svg" xmlns:xlink="http://www.w3.org/1999/xlink" x="0px" y="0px" viewBox="0 0 24 24" xml:space="preserve" ><g class="nc-icon-wrapper" fill="currentColor"><path fill="currentColor" d="M23.2373047,8.2592773l-0.3378906-0.6962891C21.9589844,5.6274414,21.9990234,3.046875,22,3.0209961 l0.0302734-1.6235352l-1.4648438,0.7016602c-0.0253906,0.012207-2.5498047,1.2036133-5.4628906,0.90625l-0.9921875-0.1020508 l-0.1044922,0.9912109c-0.0784912,0.7365112-0.7185669,1.7067871-1.524292,2.5213623 c-1.2561646-1.0911255-2.2136841-2.4663696-2.5118408-3.6585693L9.7099609,1.7163086L8.6894531,2.0493164 C6,2.9282227,3.3457031,2.0610352,3.3222656,2.0532227L1.7216797,1.5112305L2.015625,3.1767578 C2.0205078,3.2021484,2.4433594,5.699707,1.1923828,7.409668L0.6162109,8.1982422L1.3916016,8.793457 c1,0.7675781,2.1904297,3.9907227,1.6455078,5.9370117l-0.2773438,0.9902344l0.9980469,0.2495117 c0.8896484,0.2225342,1.8096313,0.5587769,2.6241455,0.942688C7.2322388,14.6318359,9.4261475,13,12,13 c2.6936646,0,4.977417,1.7841797,5.7336426,4.2327271c1.0327759-0.4937744,2.3012085-0.9603882,3.5085449-1.2625122 l1.0029297-0.2509766l-0.2832031-0.9941406c-0.5849609-2.046875-0.0898438-5.3022461,0.6865234-5.9638672L23.2373047,8.2592773z"></path> <circle data-color="color-2" fill="currentColor" cx="12" cy="19" r="4"></circle></g></svg>