<svg id="nc_icon" version="1.1" xmlns="http://www.w3.org/2000/svg" xmlns:xlink="http://www.w3.org/1999/xlink" x="0px" y="0px" viewBox="0 0 24 24" xml:space="preserve" ><g class="nc-icon-wrapper" fill="currentColor"><path fill="currentColor" d="M18,0H6C4.346,0,3,1.346,3,3v18c0,1.654,1.346,3,3,3h12c1.654,0,3-1.346,3-3V3C21,1.346,19.654,0,18,0z M12,22c-0.552,0-1-0.448-1-1s0.448-1,1-1s1,0.448,1,1S12.552,22,12,22z M19,17c0,0.552-0.448,1-1,1H6c-0.552,0-1-0.448-1-1V4 c0-0.552,0.448-1,1-1h12c0.552,0,1,0.448,1,1V17z"></path></g></svg>