<svg id="nc_icon" version="1.1" xmlns="http://www.w3.org/2000/svg" xmlns:xlink="http://www.w3.org/1999/xlink" x="0px" y="0px" viewBox="0 0 24 24" xml:space="preserve" ><g class="nc-icon-wrapper" fill="currentColor"><path data-color="color-2" fill="currentColor" d="M18,18c0-1.657,1.343-3,3-3s3,1.343,3,3s-3,5-3,5S18,19.657,18,18z"></path> <path data-color="color-2" fill="currentColor" d="M21,13c0.712,0,1.386,0.154,2,0.424V3c0-1.105-0.895-2-2-2c-1.105,0-2,0.896-2,2v10.424 C19.614,13.154,20.288,13,21,13z"></path> <path fill="currentColor" d="M14,0H3C1.895,0,1,0.895,1,2v20c0,1.105,0.895,2,2,2h11c1.105,0,2-0.895,2-2V2C16,0.895,15.105,0,14,0z M8.5,21C7.672,21,7,20.328,7,19.5S7.672,18,8.5,18s1.5,0.672,1.5,1.5S9.328,21,8.5,21z M13,14c0,0.552-0.448,1-1,1H5 c-0.552,0-1-0.448-1-1V4c0-0.552,0.448-1,1-1h7c0.552,0,1,0.448,1,1V14z"></path></g></svg>