<svg id="nc_icon" version="1.1" xmlns="http://www.w3.org/2000/svg" xmlns:xlink="http://www.w3.org/1999/xlink" x="0px" y="0px" viewBox="0 0 24 24" xml:space="preserve" ><g class="nc-icon-wrapper" fill="currentColor"><path data-color="color-2" fill="currentColor" d="M8,13c0-1.657,1.343-3,3-3h2c1.657,0,3,1.343,3,3H8z"></path> <circle data-color="color-2" fill="currentColor" cx="12" cy="7" r="2"></circle> <path fill="currentColor" d="M18,0H6C4.3,0,3,1.3,3,3v18c0,1.7,1.3,3,3,3h12c1.7,0,3-1.3,3-3V3C21,1.3,19.7,0,18,0z M12,22 c-1.1,0-2-0.9-2-2s0.9-2,2-2s2,0.9,2,2S13.1,22,12,22z M18,15c0,0.6-0.4,1-1,1H7c-0.6,0-1-0.4-1-1V4c0-0.6,0.4-1,1-1h10 c0.6,0,1,0.4,1,1V15z"></path></g></svg>