<svg id="nc_icon" version="1.1" xmlns="http://www.w3.org/2000/svg" xmlns:xlink="http://www.w3.org/1999/xlink" x="0px" y="0px" viewBox="0 0 24 24" xml:space="preserve" ><g class="nc-icon-wrapper" fill="currentColor"><path fill="currentColor" d="M8,13c-1.105,0-2-0.895-2-2V2H2C0.895,2,0,2.895,0,4v18c0,1.105,0.895,2,2,2h12c1.105,0,2-0.895,2-2v-9H8z M8,21c-1.105,0-2-0.895-2-2s0.895-2,2-2s2,0.895,2,2S9.105,21,8,21z"></path> <path data-color="color-2" fill="currentColor" d="M23,0H9C8.448,0,8,0.448,8,1v9c0,0.552,0.448,1,1,1h14c0.552,0,1-0.448,1-1V1C24,0.448,23.552,0,23,0z M22,2 v1H10V2H22z M10,9V6h12v3H10z"></path></g></svg>