<svg id="nc_icon" version="1.1" xmlns="http://www.w3.org/2000/svg" xmlns:xlink="http://www.w3.org/1999/xlink" x="0px" y="0px" viewBox="0 0 24 24" xml:space="preserve" ><g class="nc-icon-wrapper" fill="currentColor"><path data-color="color-2" fill="currentColor" d="M21,9.142V1c0-0.552-0.447-1-1-1H7C6.447,0,6,0.448,6,1s0.447,1,1,1h12v7.142 c-1.721,0.447-3,2-3,3.858v4h1v2h2v-2h2v2h2v-2h1v-4C24,11.142,22.721,9.589,21,9.142z"></path> <path fill="currentColor" d="M11,4H3C1.346,4,0,5.346,0,7v14c0,1.654,1.346,3,3,3h8c1.654,0,3-1.346,3-3V7C14,5.346,12.654,4,11,4z M12,20c0,0.552-0.448,1-1,1H3c-0.552,0-1-0.448-1-1V8c0-0.552,0.448-1,1-1h8c0.552,0,1,0.448,1,1V20z"></path></g></svg>