<svg id="nc_icon" xmlns="http://www.w3.org/2000/svg" xmlns:xlink="http://www.w3.org/1999/xlink" x="0px" y="0px" viewBox="0 0 24 24" ><g class="nc-icon-wrapper" fill="currentColor"><rect data-color="color-2" x="9" fill="currentColor" width="5" height="2"></rect> <path fill="currentColor" d="M21,4h-3H3C2.621,4,2.275,4.214,2.105,4.553S1.973,5.297,2.2,5.6l2.864,3.818L6,14h11l0.469-2H19 c1.654,0,3-1.346,3-3V5C22,4.448,21.552,4,21,4z M20,9c0,0.551-0.449,1-1,1h-1.087l0.889-4H20V9z"></path> <path data-color="color-2" fill="currentColor" d="M17.721,16H5.279l-2.228,6.684c-0.102,0.305-0.05,0.64,0.138,0.901 C3.377,23.846,3.679,24,4,24h15c0.321,0,0.623-0.154,0.811-0.416c0.188-0.261,0.239-0.596,0.138-0.901L17.721,16z"></path></g></svg>