<svg id="nc_icon" version="1.1" xmlns="http://www.w3.org/2000/svg" xmlns:xlink="http://www.w3.org/1999/xlink" x="0px" y="0px" viewBox="0 0 24 24" xml:space="preserve" ><g class="nc-icon-wrapper" fill="currentColor"><path fill="currentColor" d="M3.5,10.5C3.6,10.8,4,11,4.3,11h4.9c0.4,0,0.7-0.2,0.9-0.5l2.4-4c0.2-0.3,0.2-0.7,0-1l-2.4-4 C9.9,1.2,9.5,1,9.2,1H4.3C4,1,3.6,1.2,3.5,1.5l-2.4,4c-0.2,0.3-0.2,0.7,0,1L3.5,10.5z"></path> <path fill="currentColor" d="M10,13.5C9.9,13.2,9.5,13,9.2,13H4.3c-0.4,0-0.7,0.2-0.9,0.5l-2.4,4c-0.2,0.3-0.2,0.7,0,1l2.4,4 C3.6,22.8,4,23,4.3,23h4.9c0.4,0,0.7-0.2,0.9-0.5l2.4-4c0.2-0.3,0.2-0.7,0-1L10,13.5z"></path> <path data-color="color-2" fill="currentColor" d="M22.9,11.5l-2.4-4C20.4,7.2,20,7,19.7,7h-4.9c-0.4,0-0.7,0.2-0.9,0.5l-2.4,4 c-0.2,0.3-0.2,0.7,0,1l2.4,4c0.2,0.3,0.5,0.5,0.9,0.5h4.9c0.4,0,0.7-0.2,0.9-0.5l2.4-4C23.1,12.2,23.1,11.8,22.9,11.5z"></path></g></svg>