<svg id="nc_icon" version="1.1" xmlns="http://www.w3.org/2000/svg" xmlns:xlink="http://www.w3.org/1999/xlink" x="0px" y="0px" viewBox="0 0 24 24" xml:space="preserve" ><g class="nc-icon-wrapper" fill="currentColor"><path fill="currentColor" d="M17,16c-2.951,0-5.403-0.639-7-1.712c0,0.746,0,1.238,0,1.712c0,1.657,3.134,3,7,3s7-1.343,7-3 c0-0.474,0-0.966,0-1.712C22.403,15.361,19.951,16,17,16z"></path> <path fill="currentColor" d="M17,21c-2.951,0-5.403-0.639-7-1.712c0,0.746,0,1.238,0,1.712c0,1.657,3.134,3,7,3s7-1.343,7-3 c0-0.474,0-0.966,0-1.712C22.403,20.361,19.951,21,17,21z"></path> <polygon data-color="color-2" fill="currentColor" points="9,9 4,9 4,7 7,7 7,4 9,4 "></polygon> <ellipse fill="currentColor" cx="17" cy="11" rx="7" ry="3"></ellipse> <path data-color="color-2" fill="currentColor" d="M8,14c-3.309,0-6-2.691-6-6s2.691-6,6-6c2.636,0,5.001,1.763,5.752,4.286l0.002,0.007 c0.632-0.12,1.303-0.205,2.011-0.25l-0.097-0.328C14.667,2.351,11.514,0,8,0C3.589,0,0,3.589,0,8s3.589,8,8,8V14z"></path></g></svg>