<svg id="nc_icon" version="1.1" xmlns="http://www.w3.org/2000/svg" xmlns:xlink="http://www.w3.org/1999/xlink" x="0px" y="0px" viewBox="0 0 24 24" xml:space="preserve" ><g class="nc-icon-wrapper" fill="currentColor"><path data-color="color-2" fill="currentColor" d="M8,14H1c-0.552,0-1-0.448-1-1V1c0-0.552,0.448-1,1-1h18c0.552,0,1,0.448,1,1v5h-2V2H2v10h6V14 z"></path> <path fill="currentColor" d="M17,16c-2.951,0-5.403-0.639-7-1.712c0,0.746,0,1.238,0,1.712c0,1.657,3.134,3,7,3s7-1.343,7-3 c0-0.474,0-0.966,0-1.712C22.403,15.361,19.951,16,17,16z"></path> <path fill="currentColor" d="M17,21c-2.951,0-5.403-0.639-7-1.712c0,0.746,0,1.238,0,1.712c0,1.657,3.134,3,7,3s7-1.343,7-3 c0-0.474,0-0.966,0-1.712C22.403,20.361,19.951,21,17,21z"></path> <path data-color="color-2" fill="currentColor" d="M8.909,8.672c0.686-0.801,1.734-1.455,3.066-1.916C11.854,5.77,11.02,5,10,5 C8.897,5,8,5.897,8,7C8,7.7,8.363,8.315,8.909,8.672z"></path> <ellipse fill="currentColor" cx="17" cy="11" rx="7" ry="3"></ellipse></g></svg>