<svg id="nc_icon" version="1.1" xmlns="http://www.w3.org/2000/svg" xmlns:xlink="http://www.w3.org/1999/xlink" x="0px" y="0px" viewBox="0 0 24 24" xml:space="preserve" ><g class="nc-icon-wrapper" fill="currentColor"><path data-color="color-2" fill="currentColor" d="M12,20c-0.553,0-1,0.448-1,1v2c0,0.552,0.447,1,1,1s1-0.448,1-1v-2 C13,20.448,12.553,20,12,20z"></path> <path data-color="color-2" fill="currentColor" d="M7,21c0,0.552,0.447,1,1,1s1-0.448,1-1v-2H7V21z"></path> <path data-color="color-2" fill="currentColor" d="M15,21c0,0.552,0.447,1,1,1s1-0.448,1-1v-2h-2V21z"></path> <path fill="currentColor" d="M24,7c0-0.553-0.447-1-1-1c-2.757,0-5-2.243-5-5c0-0.553-0.447-1-1-1c-3.195,0-6.261,2.118-6.923,6.169 c-1.7,0.383-3.192,1.43-4.113,2.928C5.645,9.032,5.322,9,5,9c-2.757,0-5,2.243-5,5s2.243,5,5,5h2v-3c0-0.552,0.448-1,1-1 s1,0.448,1,1v3h6v-3c0-0.552,0.448-1,1-1s1,0.448,1,1v3h2c2.757,0,5-2.243,5-5c0-1.21-0.45-2.307-1.168-3.172 C23.594,9.679,24,8.358,24,7z M21.253,9.561C20.573,9.214,19.814,9,19,9c-0.628,0-1.243,0.118-1.82,0.346 c-1.029-1.856-2.913-3.093-5.045-3.303c0.385-2.043,1.962-3.591,3.95-3.959c0.467,2.993,2.838,5.364,5.831,5.832 C21.805,8.495,21.572,9.042,21.253,9.561z"></path></g></svg>