<svg id="nc_icon" version="1.1" xmlns="http://www.w3.org/2000/svg" xmlns:xlink="http://www.w3.org/1999/xlink" x="0px" y="0px" viewBox="0 0 24 24" xml:space="preserve" ><g class="nc-icon-wrapper" fill="currentColor"><path fill="currentColor" d="M24,7c0-0.553-0.447-1-1-1c-2.757,0-5-2.243-5-5c0-0.553-0.447-1-1-1c-3.195,0-6.261,2.118-6.923,6.169 c-1.7,0.383-3.192,1.43-4.113,2.928C5.645,9.032,5.322,9,5,9c-2.757,0-5,2.243-5,5s2.243,5,5,5h0.179 c-0.348-0.991-0.161-2.107,0.517-2.921l5-6C11.271,9.393,12.11,9,13.001,9c0.539,0,1.069,0.146,1.533,0.422 c1.276,0.761,1.803,2.312,1.252,3.691L15.431,14H16c1.158,0,2.225,0.678,2.717,1.727c0.491,1.053,0.328,2.305-0.413,3.194L18.238,19 H19c2.757,0,5-2.243,5-5c0-1.21-0.45-2.307-1.168-3.172C23.594,9.679,24,8.358,24,7z M21.253,9.561C20.573,9.214,19.814,9,19,9 c-0.628,0-1.243,0.118-1.82,0.346c-1.029-1.856-2.913-3.093-5.045-3.303c0.385-2.043,1.962-3.591,3.95-3.959 c0.467,2.993,2.838,5.364,5.831,5.832C21.805,8.495,21.572,9.042,21.253,9.561z"></path> <path data-color="color-2" fill="currentColor" d="M16.906,16.576C16.741,16.225,16.388,16,16,16h-3.523l1.452-3.628 c0.183-0.457,0.006-0.979-0.417-1.23c-0.422-0.251-0.964-0.159-1.28,0.219l-5,6c-0.249,0.298-0.302,0.713-0.138,1.064 C7.259,18.775,7.612,19,8,19h3.523l-1.452,3.628c-0.183,0.457-0.006,0.979,0.417,1.23C10.647,23.954,10.824,24,11,24 c0.289,0,0.573-0.125,0.769-0.36l5-6C17.017,17.342,17.07,16.927,16.906,16.576z"></path></g></svg>