<svg id="nc_icon" version="1.1" xmlns="http://www.w3.org/2000/svg" xmlns:xlink="http://www.w3.org/1999/xlink" x="0px" y="0px" viewBox="0 0 24 24" xml:space="preserve" ><g class="nc-icon-wrapper" fill="currentColor"><path fill="currentColor" d="M22.3,12.9c-0.3-0.3-0.6-0.4-1-0.2C20.6,12.9,19.8,13,19,13c-4.4,0-8-3.6-8-8c0-0.8,0.1-1.6,0.3-2.3 c0.1-0.4,0-0.7-0.2-1c-0.3-0.3-0.6-0.4-1-0.2C5.9,2.7,3,6.6,3,11c0,1.8,0.5,3.5,1.4,5H9c1.7,0,3,1.3,3,3c0,0.7-0.3,1.3-0.7,1.9 c0.5,0.1,1.1,0.1,1.7,0.1c4.4,0,8.3-2.9,9.6-7.1C22.7,13.5,22.6,13.2,22.3,12.9z"></path> <path data-color="color-2" fill="currentColor" d="M9,20H1c-0.6,0-1-0.4-1-1s0.4-1,1-1h8c0.6,0,1,0.4,1,1S9.6,20,9,20z"></path> <path data-color="color-2" fill="currentColor" d="M13,24H5c-0.6,0-1-0.4-1-1s0.4-1,1-1h8c0.6,0,1,0.4,1,1S13.6,24,13,24z"></path></g></svg>