<svg id="nc_icon" version="1.1" xmlns="http://www.w3.org/2000/svg" xmlns:xlink="http://www.w3.org/1999/xlink" x="0px" y="0px" viewBox="0 0 24 24" xml:space="preserve" ><g class="nc-icon-wrapper" fill="currentColor"><path fill="currentColor" d="M24,7c0-0.553-0.447-1-1-1c-2.757,0-5-2.243-5-5c0-0.553-0.447-1-1-1c-3.195,0-6.261,2.118-6.923,6.169 c-1.7,0.383-3.192,1.43-4.113,2.928C5.645,9.032,5.322,9,5,9c-2.757,0-5,2.243-5,5s2.243,5,5,5h2.445 c0.367-0.856,1.037-1.989,2.271-3.446c0.568-0.673,1.401-1.059,2.284-1.059s1.716,0.386,2.285,1.06 c1.233,1.457,1.903,2.589,2.27,3.445H19c2.757,0,5-2.243,5-5c0-1.21-0.45-2.307-1.168-3.172C23.594,9.679,24,8.358,24,7z M21.253,9.561C20.573,9.214,19.814,9,19,9c-0.628,0-1.243,0.118-1.82,0.346c-1.029-1.856-2.913-3.093-5.045-3.303 c0.385-2.043,1.962-3.591,3.95-3.959c0.467,2.993,2.838,5.364,5.831,5.832C21.805,8.495,21.572,9.042,21.253,9.561z"></path> <path data-color="color-2" fill="currentColor" d="M11.242,16.846C10.353,17.895,9,19.699,9,20.952C9,22.895,10.537,24,12,24s3-1.105,3-3.048 c0-1.254-1.353-3.057-2.242-4.106C12.362,16.378,11.638,16.378,11.242,16.846z"></path></g></svg>