<svg id="nc_icon" version="1.1" xmlns="http://www.w3.org/2000/svg" xmlns:xlink="http://www.w3.org/1999/xlink" x="0px" y="0px" viewBox="0 0 24 24" xml:space="preserve" ><g class="nc-icon-wrapper" fill="currentColor"><path fill="currentColor" d="M20.4,14.7C19.6,14.9,18.8,15,18,15c-5,0-9-4-9-9c0-0.8,0.1-1.6,0.3-2.4c0.1-0.3,0-0.7-0.3-1 c-0.3-0.3-0.6-0.4-1-0.3C3.3,3.7,0,8.1,0,13c0,6.1,4.9,11,11,11c4.9,0,9.3-3.3,10.6-8.1c0.1-0.3,0-0.7-0.3-1 C21.1,14.7,20.7,14.6,20.4,14.7z"></path> <path data-color="color-2" fill="currentColor" d="M13,4h1v1c0,0.6,0.4,1,1,1s1-0.4,1-1V4h1c0.6,0,1-0.4,1-1s-0.4-1-1-1h-1V1c0-0.6-0.4-1-1-1s-1,0.4-1,1v1h-1 c-0.6,0-1,0.4-1,1S12.4,4,13,4z"></path> <path data-color="color-2" fill="currentColor" d="M23,8h-1V7c0-0.6-0.4-1-1-1s-1,0.4-1,1v1h-1c-0.6,0-1,0.4-1,1s0.4,1,1,1h1v1c0,0.6,0.4,1,1,1s1-0.4,1-1v-1h1 c0.6,0,1-0.4,1-1S23.6,8,23,8z"></path></g></svg>