<svg id="nc_icon" version="1.1" xmlns="http://www.w3.org/2000/svg" xmlns:xlink="http://www.w3.org/1999/xlink" x="0px" y="0px" viewBox="0 0 24 24" xml:space="preserve" ><g class="nc-icon-wrapper" fill="currentColor"><path fill="currentColor" d="M24,7c0-0.553-0.447-1-1-1c-2.757,0-5-2.243-5-5c0-0.553-0.447-1-1-1c-3.195,0-6.261,2.118-6.923,6.169 c-1.7,0.383-3.192,1.43-4.113,2.928C5.645,9.032,5.322,9,5,9c-2.757,0-5,2.243-5,5s2.243,5,5,5h1.3 c-0.839-0.939-1.025-2.35-0.363-3.499c0.534-0.927,1.53-1.502,2.6-1.502c0.207,0,0.412,0.021,0.613,0.063 C9.544,12.866,10.673,12,12,12s2.456,0.866,2.85,2.062c0.201-0.042,0.406-0.063,0.612-0.063c1.068,0,2.064,0.574,2.599,1.499 c0.664,1.151,0.478,2.562-0.361,3.502H19c2.757,0,5-2.243,5-5c0-1.21-0.45-2.307-1.168-3.172C23.594,9.679,24,8.358,24,7z M21.253,9.561C20.573,9.214,19.814,9,19,9c-0.628,0-1.243,0.118-1.82,0.346c-1.029-1.856-2.913-3.093-5.045-3.303 c0.385-2.043,1.962-3.591,3.95-3.959c0.467,2.993,2.838,5.364,5.831,5.832C21.805,8.495,21.572,9.042,21.253,9.561z"></path> <path data-color="color-2" fill="currentColor" d="M15.964,20.134L14,19l1.964-1.134c0.479-0.276,0.642-0.888,0.366-1.366 c-0.277-0.479-0.889-0.644-1.366-0.366L13,17.268V15c0-0.553-0.448-1-1-1s-1,0.447-1,1v2.268l-1.964-1.134 c-0.479-0.277-1.09-0.112-1.366,0.366s-0.112,1.09,0.366,1.366L10,19l-1.964,1.134C7.558,20.41,7.394,21.021,7.67,21.5 C7.855,21.821,8.191,22,8.537,22c0.169,0,0.342-0.043,0.499-0.134L11,20.732V23c0,0.553,0.448,1,1,1s1-0.447,1-1v-2.268l1.964,1.134 C15.121,21.957,15.293,22,15.463,22c0.346,0,0.682-0.179,0.867-0.5C16.606,21.021,16.442,20.41,15.964,20.134z"></path></g></svg>