<svg id="nc_icon" version="1.1" xmlns="http://www.w3.org/2000/svg" xmlns:xlink="http://www.w3.org/1999/xlink" x="0px" y="0px" viewBox="0 0 24 24" xml:space="preserve" ><g class="nc-icon-wrapper" fill="currentColor"><path fill="currentColor" d="M12,0C5.383,0,0,5.383,0,12s5.383,12,12,12s12-5.383,12-12S18.617,0,12,0z M9,17c-0.552,0-1-0.448-1-1 c0-0.552,0.448-1,1-1s1,0.448,1,1C10,16.552,9.552,17,9,17z M14,12c-1.105,0-2-0.895-2-2c0-1.105,0.895-2,2-2s2,0.895,2,2 C16,11.105,15.105,12,14,12z"></path></g></svg>