<svg id="nc_icon" version="1.1" xmlns="http://www.w3.org/2000/svg" xmlns:xlink="http://www.w3.org/1999/xlink" x="0px" y="0px" viewBox="0 0 24 24" xml:space="preserve" ><g class="nc-icon-wrapper" fill="currentColor"><path fill="currentColor" d="M23,7h-4c-0.6,0-1,0.4-1,1v4H6V8c0-0.6-0.4-1-1-1H1C0.4,7,0,7.4,0,8v15c0,0.6,0.4,1,1,1h7c0.6,0,1-0.4,1-1 v-1c0-1.7,1.3-3,3-3c1.7,0,3,1.3,3,3v1c0,0.6,0.4,1,1,1h7c0.6,0,1-0.4,1-1V8C24,7.4,23.6,7,23,7z"></path> <path data-color="color-2" fill="currentColor" d="M8,8v2h8V8l0-0.6C15,6.5,13.5,6,12,6c-1.5,0-2.9,0.6-4,1.5L8,8z"></path> <path data-color="color-2" fill="currentColor" d="M24,5c0-1.4-1.8-3.2-2.3-3.7c-0.4-0.4-1-0.4-1.4,0C19.8,1.8,18,3.6,18,5H24z"></path> <path data-color="color-2" fill="currentColor" d="M6,5c0-1.4-1.8-3.2-2.3-3.7c-0.4-0.4-1-0.4-1.4,0C1.8,1.8,0,3.6,0,5H6z"></path></g></svg>