<svg id="nc_icon" version="1.1" xmlns="http://www.w3.org/2000/svg" xmlns:xlink="http://www.w3.org/1999/xlink" x="0px" y="0px" viewBox="0 0 24 24" xml:space="preserve" ><g class="nc-icon-wrapper" fill="currentColor"><polyline display="none" fill="currentColor" stroke="#111111" stroke-width="2" stroke-miterlimit="10" points="19,7 18,3 15,3 " data-color="color-2"></polyline> <path fill="currentColor" d="M22.1,12.1C23,10.9,24,9.2,24,7c0-4.4-4.5-5.9-4.7-6c-0.4-0.1-0.8,0-1,0.2l-1,1C17.1,2.5,17,2.8,17,3.1 c0,0.3,0.2,0.6,0.5,0.7C18.3,4.3,19,5.2,19,5.5c0,0.2-0.1,0.3-0.2,0.4l-1.4-0.5c-2.9-1-6,0-7.8,2.4L9.5,8H7.4L5.7,6.3 C5.6,6.2,5.4,6.1,5.2,6l-4-1C0.9,5,0.6,5,0.4,5.2C0.1,5.4,0,5.7,0,6v2c0,0.3,0.1,0.5,0.3,0.7l2.8,2.6C1.3,12.1,0,13.9,0,16 c0,2.8,2.2,5,5,5c2.4,0,4.4-1.7,4.9-4h4.2c0.5,2.3,2.5,4,4.9,4c2.8,0,5-2.2,5-5C24,14.4,23.2,13,22.1,12.1z M5,19c-1.7,0-3-1.3-3-3 s1.3-3,3-3s3,1.3,3,3S6.7,19,5,19z M19,19c-1.7,0-3-1.3-3-3s1.3-3,3-3s3,1.3,3,3S20.7,19,19,19z"></path></g></svg>