<svg id="nc_icon" version="1.1" xmlns="http://www.w3.org/2000/svg" xmlns:xlink="http://www.w3.org/1999/xlink" x="0px" y="0px" viewBox="0 0 24 24" xml:space="preserve" ><g class="nc-icon-wrapper" fill="currentColor"><g class="nc-loop_mouse-24"> <path fill="currentColor" d="M14,24h-4c-3.3642578,0-6-2.6357422-6-6V6c0-3.3642578,2.6357422-6,6-6h4c3.3642578,0,6,2.6357422,6,6v12 C20,21.3642578,17.3642578,24,14,24z M10,2C7.7568359,2,6,3.7568359,6,6v12c0,2.2431641,1.7568359,4,4,4h4 c2.2431641,0,4-1.7568359,4-4V6c0-2.2431641-1.7568359-4-4-4H10z"></path> <path data-color="color-2" fill="currentColor" d="M12,12c-1.1591797,0-2-0.8413086-2-2V7c0-1.1586914,0.8408203-2,2-2s2,0.8413086,2,2v3 C14,11.1586914,13.1591797,12,12,12z" transform="translate(0 1.1530588234446064)"></path> </g> <script>!function(){function t(t){this.element=t,this.wheel=this.element.querySelectorAll("*")[1],this.animationId,this.start=null,this.init()}if(!window.requestAnimationFrame){var i=null;window.requestAnimationFrame=function(t,n){var e=(new Date).getTime();i||(i=e);var a=Math.max(0,16-(e-i)),o=window.setTimeout(function(){t(e+a)},a);return i=e+a,o}}t.prototype.init=function(){var t=this;this.animationId=window.requestAnimationFrame(t.triggerAnimation.bind(t))},t.prototype.reset=function(){var t=this;window.cancelAnimationFrame(t.animationId)},t.prototype.triggerAnimation=function(t){var i=this;this.start||(this.start=t);var n=t-this.start,e=Math.min(n/85,10),a=e>5?10-e:e;850>n||(this.start=this.start+850),this.wheel.setAttribute("transform","translate(0 "+a+")");if(document.documentElement.contains(this.element))window.requestAnimationFrame(i.triggerAnimation.bind(i))};var n=document.getElementsByClassName("nc-loop_mouse-24"),e=[];if(n)for(var a=0;n.length>a;a++)!function(i){e.push(new t(n[i]))}(a);document.addEventListener("visibilitychange",function(){"hidden"==document.visibilityState?e.forEach(function(t){t.reset()}):e.forEach(function(t){t.init()})})}();</script></g></svg>