<svg id="nc_icon" version="1.1" xmlns="http://www.w3.org/2000/svg" xmlns:xlink="http://www.w3.org/1999/xlink" x="0px" y="0px" viewBox="0 0 24 24" xml:space="preserve" ><g class="nc-icon-wrapper" fill="currentColor"><path fill="currentColor" d="M9,10H1c-0.552,0-1-0.448-1-1V1c0-0.552,0.448-1,1-1h8c0.552,0,1,0.448,1,1v8C10,9.552,9.552,10,9,10z"></path><path fill="currentColor" d="M4,24H1c-0.552,0-1-0.448-1-1v-3h2v2h2V24z"></path><path fill="currentColor" d="M10,18H8v-2H6v-2h3c0.552,0,1,0.448,1,1V18z"></path><path fill="currentColor" d="M9,24H6v-2h2v-2h2v3C10,23.552,9.552,24,9,24z"></path><path fill="currentColor" d="M2,18H0v-3c0-0.552,0.448-1,1-1h3v2H2V18z"></path><path data-color="color-2" fill="currentColor" d="M18,0l6,7h-5v16c0,0.552-0.448,1-1,1h0c-0.552,0-1-0.448-1-1V7h-5L18,0z"></path></g></svg>