<svg id="nc_icon" version="1.1" xmlns="http://www.w3.org/2000/svg" xmlns:xlink="http://www.w3.org/1999/xlink" x="0px" y="0px" viewBox="0 0 24 24" xml:space="preserve" ><g class="nc-icon-wrapper" fill="currentColor"><rect fill="currentColor" width="2" height="24"></rect> <rect x="22" fill="currentColor" width="2" height="24"></rect> <path fill="currentColor" d="M15,1H9C8.448,1,8,1.448,8,2v7c0,0.552,0.448,1,1,1h6c0.552,0,1-0.448,1-1V2C16,1.448,15.552,1,15,1z"></path> <path fill="currentColor" d="M15,13H9c-0.552,0-1,0.448-1,1v7c0,0.552,0.448,1,1,1h6c0.552,0,1-0.448,1-1v-7C16,13.448,15.552,13,15,13z"></path> <rect data-color="color-2" x="4" y="1" fill="currentColor" width="2" height="3"></rect> <rect data-color="color-2" x="4" y="7" fill="currentColor" width="2" height="3"></rect> <rect data-color="color-2" x="4" y="13" fill="currentColor" width="2" height="3"></rect> <rect data-color="color-2" x="4" y="19" fill="currentColor" width="2" height="3"></rect> <rect data-color="color-2" x="18" y="1" fill="currentColor" width="2" height="3"></rect> <rect data-color="color-2" x="18" y="7" fill="currentColor" width="2" height="3"></rect> <rect data-color="color-2" x="18" y="13" fill="currentColor" width="2" height="3"></rect> <rect data-color="color-2" x="18" y="19" fill="currentColor" width="2" height="3"></rect></g></svg>