<svg id="nc_icon" xmlns="http://www.w3.org/2000/svg" xmlns:xlink="http://www.w3.org/1999/xlink" x="0px" y="0px" viewBox="0 0 24 24" ><g class="nc-icon-wrapper" fill="currentColor"><path fill="currentColor" d="M22,6H2C1.447,6,1,6.448,1,7v12c0,2.757,2.243,5,5,5h8c2.757,0,5-2.243,5-5v-5h1c1.654,0,3-1.346,3-3V7 C23,6.448,22.553,6,22,6z M21,11c0,0.551-0.448,1-1,1h-1V8h2V11z"></path> <rect data-color="color-2" x="4" fill="currentColor" width="2" height="4"></rect> <rect data-color="color-2" x="9" fill="currentColor" width="2" height="4"></rect> <rect data-color="color-2" x="14" fill="currentColor" width="2" height="4"></rect></g></svg>