<svg id="nc_icon" version="1.1" xmlns="http://www.w3.org/2000/svg" xmlns:xlink="http://www.w3.org/1999/xlink" x="0px" y="0px" viewBox="0 0 24 24" xml:space="preserve" ><g class="nc-icon-wrapper" fill="currentColor"><path fill="currentColor" d="M13.537,14.992C11.949,14.334,10.086,14,8,14s-3.949,0.334-5.537,0.992C0.967,15.611,0,17.062,0,18.688V24 h16v-5.312C16,17.062,15.033,15.611,13.537,14.992z"></path> <circle fill="currentColor" cx="8" cy="8" r="5"></circle> <path data-color="color-2" fill="currentColor" d="M23.262,7.282C22.539,6.708,21.285,6,19.5,6s-3.039,0.708-3.762,1.282 C15.265,7.657,15,8.232,15,8.836V10h9V8.836C24,8.232,23.735,7.657,23.262,7.282z"></path> <circle data-color="color-2" fill="currentColor" cx="19.5" cy="2.5" r="2.5"></circle></g></svg>