<svg id="nc_icon" version="1.1" xmlns="http://www.w3.org/2000/svg" xmlns:xlink="http://www.w3.org/1999/xlink" x="0px" y="0px" viewBox="0 0 24 24" xml:space="preserve" ><g class="nc-icon-wrapper" fill="currentColor"><path fill="currentColor" d="M12,6L12,6c-1.657,0-3-1.343-3-3v0c0-1.657,1.343-3,3-3h0c1.657,0,3,1.343,3,3v0C15,4.657,13.657,6,12,6z"></path> <path data-color="color-2" fill="currentColor" d="M4,19v-8c0-1.13,0.391-2.162,1.026-3H2c-1.105,0-2,0.895-2,2v6h2v5c0,0.552,0.448,1,1,1h2 c0.552,0,1-0.448,1-1v-2H4z"></path> <path fill="currentColor" d="M14,24h-4c-0.552,0-1-0.448-1-1v-6H6v-6c0-1.657,1.343-3,3-3h6c1.657,0,3,1.343,3,3v6h-3v6 C15,23.552,14.552,24,14,24z"></path> <path data-color="color-2" fill="currentColor" d="M4,7L4,7C2.895,7,2,6.105,2,5v0c0-1.105,0.895-2,2-2h0c1.105,0,2,0.895,2,2v0 C6,6.105,5.105,7,4,7z"></path> <path data-color="color-2" fill="currentColor" d="M20,19v-8c0-1.13-0.391-2.162-1.026-3H22c1.105,0,2,0.895,2,2v6h-2v5c0,0.552-0.448,1-1,1h-2 c-0.552,0-1-0.448-1-1v-2H20z"></path> <path data-color="color-2" fill="currentColor" d="M20,7L20,7c1.105,0,2-0.895,2-2v0c0-1.105-0.895-2-2-2h0c-1.105,0-2,0.895-2,2v0 C18,6.105,18.895,7,20,7z"></path></g></svg>