<svg id="nc_icon" version="1.1" xmlns="http://www.w3.org/2000/svg" xmlns:xlink="http://www.w3.org/1999/xlink" x="0px" y="0px" viewBox="0 0 24 24" xml:space="preserve" ><g class="nc-icon-wrapper" fill="currentColor"><rect data-color="color-2" y="6" fill="currentColor" width="2" height="12"></rect> <rect data-color="color-2" x="22" y="6" fill="currentColor" width="2" height="12"></rect> <path fill="currentColor" d="M20,3H4C3.448,3,3,3.448,3,4v16c0,0.552,0.448,1,1,1h16c0.552,0,1-0.448,1-1V4C21,3.448,20.552,3,20,3z M17,14c0,1.105-0.895,2-2,2s-2-0.895-2-2c0-1.105,0.895-2,2-2V9h-4v6c0,1.105-0.895,2-2,2s-2-0.895-2-2c0-1.105,0.895-2,2-2V8 c0-0.552,0.448-1,1-1h6c0.552,0,1,0.448,1,1V14z"></path></g></svg>