<svg id="nc_icon" version="1.1" xmlns="http://www.w3.org/2000/svg" xmlns:xlink="http://www.w3.org/1999/xlink" x="0px" y="0px" viewBox="0 0 24 24" xml:space="preserve" ><g class="nc-icon-wrapper" fill="currentColor"><path fill="currentColor" d="M22,0H2C1.447,0,1,0.448,1,1v22c0,0.552,0.447,1,1,1h20c0.553,0,1-0.448,1-1V1C23,0.448,22.553,0,22,0z M18,15.5c0,1.378-1.121,2.5-2.5,2.5S13,16.878,13,15.5s1.121-2.5,2.5-2.5c0.171,0,0.338,0.018,0.5,0.051V8h-5v8.5 c0,1.378-1.121,2.5-2.5,2.5S6,17.878,6,16.5S7.121,14,8.5,14c0.171,0,0.338,0.018,0.5,0.051V7c0-0.552,0.447-1,1-1h7 c0.553,0,1,0.448,1,1V15.5z"></path></g></svg>