<svg id="nc_icon" version="1.1" xmlns="http://www.w3.org/2000/svg" xmlns:xlink="http://www.w3.org/1999/xlink" x="0px" y="0px" viewBox="0 0 24 24" xml:space="preserve" ><g class="nc-icon-wrapper" fill="currentColor"><path fill="currentColor" d="M20,3h-2.769C16.14,1.083,14.047,0,12,0S7.86,1.083,6.769,3H4C1.794,3,0,4.794,0,7v13c0,2.206,1.794,4,4,4 h16c2.206,0,4-1.794,4-4V7C24,4.794,22.206,3,20,3z M17.869,7H20c0.552,0,1,0.448,1,1v10.149l-5.39-6.738 C16.609,10.037,17.544,8.446,17.869,7z M11,17v3H4.081l5.578-6.972c0.791,0.94,1.45,1.619,1.631,1.802L12,15.545l0.71-0.715 c0.182-0.183,0.841-0.862,1.631-1.802L19.919,20H13v-3H11z M12,2c1.966,0,4,1.496,4,4c0,1.706-2.225,4.718-4,6.671 C10.224,10.719,8,7.709,8,6C8,3.496,10.034,2,12,2z M4,7h2.131c0.326,1.446,1.26,3.037,2.259,4.411L3,18.149V8C3,7.448,3.448,7,4,7z "></path> <circle data-color="color-2" fill="currentColor" cx="12" cy="6" r="1"></circle></g></svg>