<svg id="nc_icon" version="1.1" xmlns="http://www.w3.org/2000/svg" xmlns:xlink="http://www.w3.org/1999/xlink" x="0px" y="0px" viewBox="0 0 24 24" xml:space="preserve" ><g class="nc-icon-wrapper" fill="currentColor"><path fill="currentColor" d="M21.4,8.4c0.9-0.8,1.5-1.9,1.6-3.1C23,4,22.6,2.7,21.6,1.8c-0.8-0.8-2-1.3-3.2-1.3c-1.4,0-2.7,0.6-3.5,1.7 L11.1,7L9.4,5.2c-1.6-1.6-4.2-1.6-5.8,0s-1.6,4.2,0,5.8l2.4,2.4L1.5,19c-0.5,0.6-0.6,1.5-0.3,2.2c0.4,0.7,1.1,1.2,1.9,1.2 c0.5,0,0.9-0.2,1.3-0.5l5.5-4.4l5.7,5.7c0.2,0.2,0.5,0.3,0.7,0.3s0.5-0.1,0.7-0.3c0.4-0.4,0.4-1,0-1.4l-5.5-5.5l3.3-2.7l0.8,0.8 c0.8,0.8,1.9,1.2,2.9,1.2c1.1,0,2.1-0.4,2.9-1.2c1.6-1.6,1.6-4.2,0-5.8L21.4,8.4z M16.4,5.7l1.1-1.1c0.4-0.4,1-0.4,1.4,0 s0.4,1,0,1.4l-1.1,1.1c-0.2,0.2-0.5,0.3-0.7,0.3s-0.5-0.1-0.7-0.3C16,6.7,16,6.1,16.4,5.7z M7.2,11.9L5,9.6c-0.8-0.8-0.8-2.2,0-3 c0.8-0.8,2.2-0.8,3,0l1.9,1.9L7.2,11.9z M20.1,13c-0.8,0.8-2.2,0.8-3,0l-0.6-0.6l3.3-2.7l0.3,0.3C21,10.8,21,12.1,20.1,13z"></path></g></svg>