<svg id="nc_icon" version="1.1" xmlns="http://www.w3.org/2000/svg" xmlns:xlink="http://www.w3.org/1999/xlink" x="0px" y="0px" viewBox="0 0 24 24" xml:space="preserve" ><g class="nc-icon-wrapper" fill="currentColor"><path fill="currentColor" d="M5.3,7.7C5.8,6.7,6.8,6,8,6c1.3,0,2.4,0.8,2.8,2h2.4c0.4-1.2,1.5-2,2.8-2c1.2,0,2.2,0.7,2.7,1.7l3.9-1.3 C20.6,2.6,16.6,0,12,0S3.4,2.6,1.4,6.4L5.3,7.7z"></path> <path fill="currentColor" d="M18.9,9.8C18.6,11,17.4,12,16,12c-1.3,0-2.4-0.8-2.8-2h-2.4c-0.4,1.2-1.5,2-2.8,2c-1.4,0-2.6-1-2.9-2.2 L0.6,8.3C0.2,9.4,0,10.7,0,12c0,6.6,5.4,12,12,12s12-5.4,12-12c0-1.3-0.2-2.6-0.6-3.7L18.9,9.8z M17,15c0,2.8-2.2,5-5,5s-5-2.2-5-5 H17z"></path></g></svg>