<svg id="nc_icon" version="1.1" xmlns="http://www.w3.org/2000/svg" xmlns:xlink="http://www.w3.org/1999/xlink" x="0px" y="0px" viewBox="0 0 24 24" xml:space="preserve" ><g class="nc-icon-wrapper" fill="currentColor"><path fill="currentColor" d="M23,11h-0.727c-0.985-0.811-3.911-5.665-4.251-7.035l0.523-0.859c0.287-0.472,0.137-1.087-0.335-1.374 c-0.472-0.286-1.087-0.137-1.374,0.335l-0.503,0.827c-1.19,0.457-7.475,0.457-8.665,0L7.164,2.066 C6.877,1.595,6.263,1.445,5.79,1.731C5.318,2.019,5.168,2.634,5.455,3.105l0.523,0.859C5.638,5.334,2.712,10.189,1.727,11H1 c-0.553,0-1,0.447-1,1s0.447,1,1,1h0.727c0.985,0.811,3.911,5.666,4.251,7.035l-0.523,0.859c-0.287,0.472-0.137,1.087,0.335,1.374 c0.467,0.284,1.084,0.142,1.374-0.335l0.503-0.827c1.191-0.457,7.474-0.457,8.665,0l0.503,0.827c0.29,0.477,0.907,0.619,1.374,0.335 c0.472-0.287,0.622-0.902,0.335-1.374l-0.523-0.859c0.34-1.37,3.266-6.225,4.251-7.035H23c0.553,0,1-0.447,1-1S23.553,11,23,11z M19.671,11h-2.336c-0.493-0.506-1.551-2.117-1.868-2.835l1.271-2.089C17.396,7.442,18.671,9.637,19.671,11z M13.74,14.812 c-0.926-0.109-2.554-0.109-3.48,0C9.884,14.051,9.1,12.761,8.454,12c0.646-0.761,1.43-2.051,1.806-2.812 c0.926,0.109,2.554,0.109,3.48,0c0.376,0.76,1.16,2.051,1.806,2.812C14.9,12.761,14.116,14.051,13.74,14.812z M14.976,5.125 L13.731,7.17c-0.728,0.128-2.731,0.128-3.461,0L9.025,5.125C10.678,5.268,13.321,5.268,14.976,5.125z M8.533,8.164 C8.218,8.881,7.158,10.494,6.665,11H4.329c0.999-1.362,2.275-3.557,2.934-4.924L8.533,8.164z M4.329,13h2.336 c0.493,0.506,1.553,2.119,1.868,2.836l-1.271,2.088C6.604,16.558,5.328,14.362,4.329,13z M9.025,18.875l1.245-2.046 c0.73-0.128,2.729-0.128,3.459,0l1.245,2.046C13.322,18.732,10.68,18.732,9.025,18.875z M15.467,15.836 c0.316-0.717,1.375-2.33,1.868-2.836h2.336c-0.999,1.362-2.275,3.557-2.934,4.924L15.467,15.836z"></path> <circle data-color="color-2" fill="currentColor" cx="12" cy="12" r="1"></circle></g></svg>