<svg id="nc_icon" version="1.1" xmlns="http://www.w3.org/2000/svg" xmlns:xlink="http://www.w3.org/1999/xlink" x="0px" y="0px" viewBox="0 0 24 24" xml:space="preserve" ><g class="nc-icon-wrapper" fill="currentColor"><rect y="4" fill="currentColor" width="24" height="2"></rect> <rect y="18" fill="currentColor" width="24" height="2"></rect> <path data-color="color-2" fill="currentColor" d="M1,8.5v7h1.314c0-3.635-0.048-5.295-0.048-5.295L5.285,15.5h1.869v-7H5.83 c0.005,1.182,0.038,5.243,0.038,5.243L2.855,8.5H1z"></path> <polygon data-color="color-2" fill="currentColor" points="12.963,9.716 12.963,8.5 8.968,8.5 8.968,15.5 12.963,15.5 12.963,14.274 10.438,14.274 10.438,12.469 12.787,12.469 12.787,11.253 10.438,11.253 10.438,9.716 "></polygon> <path data-color="color-2" fill="currentColor" d="M17.98,11.832c0.08-0.317,0.278-1.285,0.318-1.647c0.027,0.297,0.254,1.377,0.322,1.638 l0.94,3.677h1.675L23,8.5h-1.447l-0.882,3.821c-0.109,0.437-0.276,1.314-0.342,1.834c-0.059-0.436-0.216-1.328-0.318-1.733L19,8.5 h-1.39c-0.381,1.438-1.193,4.729-1.333,5.655c-0.069-0.517-0.182-1.128-0.337-1.834L15.053,8.5h-1.447l1.77,7h1.67L17.98,11.832z"></path></g></svg>