<svg id="nc_icon" version="1.1" xmlns="http://www.w3.org/2000/svg" xmlns:xlink="http://www.w3.org/1999/xlink" x="0px" y="0px" viewBox="0 0 24 24" xml:space="preserve" ><g class="nc-icon-wrapper" fill="currentColor"><path fill="currentColor" d="M12.5,17.9C12.3,18,12.2,18,12,18s-0.3,0-0.5-0.1L0,11.7V23c0,0.6,0.4,1,1,1h22c0.6,0,1-0.4,1-1V11.7 L12.5,17.9z"></path> <path fill="currentColor" d="M6,12.6L6,12.6L6,12.6V2h12v6v4.6l5.1-2.8L20,7.5V1c0-0.6-0.4-1-1-1H5C4.4,0,4,0.4,4,1v6.6L0.9,9.9L6,12.6z"></path> <rect data-color="color-2" x="8" y="5" fill="currentColor" width="8" height="2"></rect> <rect data-color="color-2" x="8" y="9" fill="currentColor" width="8" height="2"></rect></g></svg>