<svg id="nc_icon" version="1.1" xmlns="http://www.w3.org/2000/svg" xmlns:xlink="http://www.w3.org/1999/xlink" x="0px" y="0px" viewBox="0 0 24 24" xml:space="preserve" ><g class="nc-icon-wrapper" fill="currentColor"><path fill="currentColor" d="M21.2,16.8C20.5,16.9,19.7,17,19,17c-2.7,0-5.2-1-7.1-2.9c-3.3-3.3-3.9-8.3-1.5-12.3c0.2-0.3,0.2-0.8,0-1.1 c-0.2-0.3-0.6-0.5-1-0.4C7.2,0.8,5.1,1.9,3.5,3.5C1.2,5.8,0,8.8,0,12s1.2,6.2,3.5,8.5S8.8,24,12,24s6.2-1.2,8.5-3.5 c0.6-0.6,1.2-1.4,1.7-2.2c0.2-0.3,0.2-0.8,0-1.1C22,16.8,21.6,16.7,21.2,16.8z"></path> <path data-color="color-2" fill="currentColor" d="M22.6,9.2c-0.4-0.5-0.7-1.3-0.7-2.2c0-0.9,0.3-1.8,0.8-2.3C22.9,4.5,23,4.3,23,4 s-0.1-0.5-0.3-0.7c-0.4-0.4-1-0.4-1.4,0c-0.5,0.5-1.4,0.8-2.3,0.8s-1.8-0.3-2.3-0.8c-0.4-0.4-1-0.4-1.4,0C15.1,3.5,15,3.7,15,4 s0.1,0.5,0.3,0.7c0.5,0.5,0.8,1.4,0.8,2.3s-0.3,1.8-0.8,2.3C15.1,9.5,15,9.7,15,10s0.1,0.5,0.3,0.7c0.4,0.4,1,0.4,1.4,0 c0.5-0.5,1.4-0.8,2.3-0.8s1.8,0.3,2.3,0.8c0.2,0.2,0.5,0.3,0.7,0.3c0,0,0,0,0,0c0.6,0,1-0.4,1-1C23,9.7,22.9,9.4,22.6,9.2z"></path></g></svg>