<svg id="nc_icon" version="1.1" xmlns="http://www.w3.org/2000/svg" xmlns:xlink="http://www.w3.org/1999/xlink" x="0px" y="0px" viewBox="0 0 24 24" xml:space="preserve" ><g class="nc-icon-wrapper" fill="currentColor"><path fill="currentColor" d="M14.019,8.567C13.424,8.215,12.74,8,12,8c-2.206,0-4,1.794-4,4c0,0.74,0.215,1.424,0.567,2.019L14.019,8.567 z"></path> <path fill="currentColor" d="M9.981,15.433C10.576,15.785,11.26,16,12,16c2.206,0,4-1.794,4-4c0-0.74-0.215-1.424-0.567-2.019 L9.981,15.433z"></path> <path fill="currentColor" d="M22,0H2C1.447,0,1,0.448,1,1v22c0,0.552,0.447,1,1,1h20c0.553,0,1-0.448,1-1V1C23,0.448,22.553,0,22,0z M12,18c-3.309,0-6-2.691-6-6s2.691-6,6-6s6,2.691,6,6S15.309,18,12,18z"></path></g></svg>