<svg id="nc_icon" version="1.1" xmlns="http://www.w3.org/2000/svg" xmlns:xlink="http://www.w3.org/1999/xlink" x="0px" y="0px" viewBox="0 0 24 24" xml:space="preserve" ><g class="nc-icon-wrapper" fill="currentColor"><path fill="currentColor" d="M12,0C5.4,0,0,5.4,0,12s5.4,12,12,12c6.6,0,12-5.4,12-12S18.6,0,12,0z M6,9c0-1.1,0.9-2,2-2c1.1,0,2,0.9,2,2 s-0.9,2-2,2C6.9,11,6,10.1,6,9z M17,17h-2v2h-2v-2h-2v2H9v-2H7v-2h2v-2h2v2h2v-2h2v2h2V17z M16,11c-1.1,0-2-0.9-2-2s0.9-2,2-2 c1.1,0,2,0.9,2,2S17.1,11,16,11z"></path></g></svg>