<svg id="nc_icon" version="1.1" xmlns="http://www.w3.org/2000/svg" xmlns:xlink="http://www.w3.org/1999/xlink" x="0px" y="0px" viewBox="0 0 24 24" xml:space="preserve" ><g class="nc-icon-wrapper" fill="currentColor"><path fill="currentColor" d="M20,16c-0.944,0-1.8,0.34-2.484,0.887L13,13.5V7.859C14.722,7.412,16,5.862,16,4c0-2.209-1.791-4-4-4 S8,1.791,8,4c0,1.862,1.278,3.412,3,3.859V13.5l-4.516,3.387C5.8,16.34,4.944,16,4,16c-2.209,0-4,1.791-4,4c0,2.209,1.791,4,4,4 s4-1.791,4-4c0-0.54-0.11-1.053-0.304-1.522L12,15.25l4.304,3.228C16.11,18.947,16,19.46,16,20c0,2.209,1.791,4,4,4s4-1.791,4-4 C24,17.791,22.209,16,20,16z"></path></g></svg>