<svg id="nc_icon" version="1.1" xmlns="http://www.w3.org/2000/svg" xmlns:xlink="http://www.w3.org/1999/xlink" x="0px" y="0px" viewBox="0 0 24 24" xml:space="preserve" ><g class="nc-icon-wrapper" fill="currentColor"><path fill="currentColor" d="M23,0H8C7.448,0,7,0.448,7,1v14.762C6.284,15.282,5.425,15,4.5,15C2.019,15,0,17.019,0,19.5S2.019,24,4.5,24 S9,21.981,9,19.5V8h13v5.762C21.284,13.282,20.425,13,19.5,13c-2.481,0-4.5,2.019-4.5,4.5s2.019,4.5,4.5,4.5s4.5-2.019,4.5-4.5V1 C24,0.448,23.552,0,23,0z"></path></g></svg>