<svg id="nc_icon" version="1.1" xmlns="http://www.w3.org/2000/svg" xmlns:xlink="http://www.w3.org/1999/xlink" x="0px" y="0px" viewBox="0 0 24 24" xml:space="preserve" ><g class="nc-icon-wrapper" fill="currentColor"><rect data-color="color-2" x="8" fill="currentColor" width="8" height="4"></rect> <path fill="currentColor" d="M23,2h-5v3c0,0.552-0.448,1-1,1H7C6.448,6,6,5.552,6,5V2H1C0.448,2,0,2.448,0,3v18 c0,0.313,0.147,0.609,0.397,0.799c0.251,0.188,0.577,0.248,0.877,0.163l6.684-1.91l7.69,2.885C15.762,22.979,15.881,23,16,23 c0.047,0,0.095-0.003,0.142-0.01l7-1C23.634,21.92,24,21.498,24,21V3C24,2.448,23.552,2,23,2z M10.414,15L9,16.414l-2.707-2.707 c-0.391-0.391-0.391-1.023,0-1.414L9,9.586L10.414,11l-2,2L10.414,15z M17.707,13.707L15,16.414L13.586,15l2-2l-2-2L15,9.586 l2.707,2.707C18.098,12.684,18.098,13.316,17.707,13.707z"></path></g></svg>