<svg id="nc_icon" version="1.1" xmlns="http://www.w3.org/2000/svg" xmlns:xlink="http://www.w3.org/1999/xlink" x="0px" y="0px" viewBox="0 0 24 24" xml:space="preserve" ><g class="nc-icon-wrapper" fill="currentColor"><path fill="currentColor" d="M22,0H2C1.4,0,1,0.4,1,1v22c0,0.6,0.4,1,1,1h20c0.6,0,1-0.4,1-1V1C23,0.4,22.6,0,22,0z M20,20 c0,0.6-0.4,1-1,1H5c-0.6,0-1-0.4-1-1V4c0-0.6,0.4-1,1-1h2v3c0,0.6,0.4,1,1,1h2c0.6,0,1-0.4,1-1s0.4-1,1-1s1,0.4,1,1s0.4,1,1,1h2 c0.6,0,1-0.4,1-1V3h2c0.6,0,1,0.4,1,1V20z"></path> <polygon data-color="color-2" fill="currentColor" points="13,11 11,11 11,13 9,13 9,15 11,15 11,17 13,17 13,15 15,15 15,13 13,13 "></polygon></g></svg>