<svg id="nc_icon" version="1.1" xmlns="http://www.w3.org/2000/svg" xmlns:xlink="http://www.w3.org/1999/xlink" x="0px" y="0px" viewBox="0 0 24 24" xml:space="preserve" ><g class="nc-icon-wrapper" fill="currentColor"><path fill="currentColor" d="M22.507,1.138c-0.305-0.18-0.684-0.185-0.992-0.012L12.741,6H6c-2.757,0-5,2.243-5,5 c0,2.699,2.153,4.891,4.83,4.983l3.434,6.009C9.633,22.639,10.308,23,11.002,23c0.336,0,0.678-0.085,0.99-0.264 c0.959-0.548,1.292-1.77,0.744-2.729L10.446,16h2.295l8.773,4.874C22.17,21.24,23,20.77,23,20V2C23,1.646,22.812,1.317,22.507,1.138 z"></path></g></svg>