<svg id="nc_icon" version="1.1" xmlns="http://www.w3.org/2000/svg" xmlns:xlink="http://www.w3.org/1999/xlink" x="0px" y="0px" viewBox="0 0 24 24" xml:space="preserve" ><g class="nc-icon-wrapper" fill="currentColor"><path fill="currentColor" d="M19,0c-3,0-5.8,1.5-7.5,4H8H7H3C1.3,4,0,6.1,0,9s1.3,5,3,5h2.3l4.3,7.3c0.6,1,1.8,1.3,2.7,0.7 c1-0.6,1.3-1.8,0.7-2.7L9.9,14h1.6c1.7,2.5,4.5,4,7.5,4c2.9,0,5-3.9,5-9S21.9,0,19,0z M19,16c-0.9,0-1.9-1.3-2.5-3.3 C18,12.1,19,10.7,19,9s-1-3.1-2.5-3.7C17.1,3.3,18.1,2,19,2c1.4,0,3,3,3,7S20.4,16,19,16z"></path></g></svg>