<svg id="nc_icon" xmlns="http://www.w3.org/2000/svg" xmlns:xlink="http://www.w3.org/1999/xlink" x="0px" y="0px" viewBox="0 0 24 24" ><g class="nc-icon-wrapper" fill="currentColor"><path d="M11,24H2a1,1,0,0,1-1-1V1A1,1,0,0,1,2,0H20a1,1,0,0,1,1,1V8H19V2H3V22h8Z" fill="currentColor"></path> <rect x="6" y="6" width="8" height="2" fill="currentColor"></rect> <rect x="6" y="11" width="8" height="2" fill="currentColor"></rect> <rect x="6" y="16" width="5" height="2" fill="currentColor"></rect> <path d="M18.609,15.128,18,15.291l-.609-.163c-2.66-.711-5.084,1.657-4.209,4.113l1.248,3.5A2,2,0,0,0,16.916,23.9L18,23.567l1.084.338a2,2,0,0,0,2.487-1.163l1.247-3.5C23.693,16.785,21.269,14.417,18.609,15.128Z" fill="currentColor" data-color="color-2"></path> <path d="M18,14a3,3,0,0,0,3-3V10a3,3,0,0,0-3,3Z" fill="currentColor" data-color="color-2"></path></g></svg>