<svg id="nc_icon" version="1.1" xmlns="http://www.w3.org/2000/svg" xmlns:xlink="http://www.w3.org/1999/xlink" x="0px" y="0px" viewBox="0 0 24 24" xml:space="preserve" ><g class="nc-icon-wrapper" fill="currentColor"><path fill="currentColor" d="M20,11h-2c0-1.3-0.4-2.4-1-3.4c0-0.2,0-0.4,0-0.6c0-2.4-1.7-4.4-4-4.9V0h-2v2.1C8.7,2.6,7,4.6,7,7 c0,0.2,0,0.4,0,0.6c-0.7,1-1,2.1-1,3.4H4c-0.6,0-1,0.4-1,1v11c0,0.6,0.4,1,1,1h16c0.6,0,1-0.4,1-1V12C21,11.4,20.6,11,20,11z M6,22 H5v-9h1V22z M14,20h-4v-2h4V20z M14,16h-4v-2h4V16z M14,12h-4v-2h4V12z M12,5c-1,0-1.9,0.2-2.7,0.6C9.8,4.7,10.8,4,12,4 c1.2,0,2.2,0.7,2.7,1.6C13.9,5.2,13,5,12,5z M19,22h-1v-9h1V22z"></path></g></svg>