<svg id="nc_icon" version="1.1" xmlns="http://www.w3.org/2000/svg" xmlns:xlink="http://www.w3.org/1999/xlink" x="0px" y="0px" viewBox="0 0 24 24" xml:space="preserve" ><g class="nc-icon-wrapper" fill="currentColor"><path d="M22.725,8.038,16.387,9.85,13.8,6.4A1,1,0,0,0,13,6H1A1,1,0,0,0,0,7V17a1,1,0,0,0,1,1H15a1,1,0,0,0,.659-.247l8-7A1,1,0,0,0,24,10V9a1,1,0,0,0-1.275-.962Z" fill="currentColor"></path>  <path d="M2,2H6V4H8V2h4a1,1,0,0,0,0-2H2A1,1,0,0,0,2,2Z" fill="currentColor" data-color="color-2"></path>  <path d="M21,15.586l-.707.707C20.058,16.527,18,18.653,18,21a3,3,0,0,0,6,0c0-2.347-2.058-4.473-2.293-4.707Z" fill="currentColor" data-color="color-2"></path></g></svg>