<svg id="nc_icon" xmlns="http://www.w3.org/2000/svg" xmlns:xlink="http://www.w3.org/1999/xlink" x="0px" y="0px" viewBox="0 0 24 24" ><g class="nc-icon-wrapper" fill="currentColor"><path d="M22.506,9.775h-.742v4.45h.742A.516.516,0,0,0,23,13.73V10.27a.516.516,0,0,0-.494-.495" fill="currentColor"></path> <path d="M22.506,14.719h-.742v4.45h.742a.516.516,0,0,0,.494-.5V15.213a.516.516,0,0,0-.494-.494" fill="currentColor"></path> <path d="M22.506,4.831H21.27V4.076c0-.258-.312-.48-.322-.48h-6.6V6.067h4.944v.989H14.348V8.292h4.944v.989H14.348v1.236h4.944v.989H14.348v1.236h4.944v.988H14.348v1.236h4.944v.989H14.348v1.236h4.944v.989H14.348V20.4h6.427a.5.5,0,0,0,.5-.48V9.281h1.236A.516.516,0,0,0,23,8.787V5.319a.51.51,0,0,0-.494-.488" fill="currentColor" data-color="color-2"></path> <path d="M1,3.3V20.7l12.854,2.175V1.124Zm9.64,12.9-1.647-.1L6.148,10.859q-.058-.105-.108-.2c-.033-.063-.064-.122-.091-.177s-.051-.106-.074-.154-.116-.091-.133-.131c.006.074-.05.156-.045.247s0,.191,0,.3,0,.117,0,.244,0,.474,0,.617V15.92l-1.236-.064V7.921L6.032,7.86l2.725,4.949c.024.042.049.087.077.138l.086.161c.03.058.061.12.094.185s.068.134.1.208h.02c-.007-.051-.014-.113-.018-.187s-.022-.069-.025-.165,0-.189,0-.309,0-.475,0-.618V7.679l1.545-.092Z" fill="currentColor"></path></g></svg>