<svg id="nc_icon" xmlns="http://www.w3.org/2000/svg" xmlns:xlink="http://www.w3.org/1999/xlink" x="0px" y="0px" viewBox="0 0 24 24" ><g class="nc-icon-wrapper" fill="currentColor"><path d="M16.74,4.974A2.943,2.943,0,0,1,15,2.256V1a1,1,0,0,0-1-1H10A1,1,0,0,0,9,1V2.256A2.943,2.943,0,0,1,7.26,4.974,10.024,10.024,0,0,0,1,14c0,5.514,4.935,10,11,10s11-4.486,11-10A10.024,10.024,0,0,0,16.74,4.974ZM9.669,18.058,8.331,19.544A7.424,7.424,0,0,1,6,14,7.424,7.424,0,0,1,8.331,8.456L9.669,9.942A5.5,5.5,0,0,0,8,14,5.5,5.5,0,0,0,9.669,18.058Zm6,1.486-1.338-1.486A5.5,5.5,0,0,0,16,14a5.5,5.5,0,0,0-1.669-4.058l1.338-1.486A7.424,7.424,0,0,1,18,14,7.424,7.424,0,0,1,15.669,19.544Z" fill="currentColor"></path></g></svg>