<svg id="nc_icon" version="1.1" xmlns="http://www.w3.org/2000/svg" xmlns:xlink="http://www.w3.org/1999/xlink" x="0px" y="0px" viewBox="0 0 24 24" xml:space="preserve" ><g class="nc-icon-wrapper" fill="currentColor"><polygon data-color="color-2" fill="currentColor" points="18,15 12,8 6,15 11,15 11,24 13,24 13,15 "></polygon> <path fill="currentColor" d="M23,0H1C0.448,0,0,0.448,0,1v17c0,0.552,0.448,1,1,1h5v-2H2V6h20v11h-4v2h5c0.552,0,1-0.448,1-1V1 C24,0.448,23.552,0,23,0z M2,4V2h20v2H2z"></path></g></svg>