<svg id="nc_icon" xmlns="http://www.w3.org/2000/svg" xmlns:xlink="http://www.w3.org/1999/xlink" x="0px" y="0px" viewBox="0 0 24 24" ><g class="nc-icon-wrapper" fill="currentColor"><rect x="11" y="21" width="2" height="3" fill="currentColor"></rect> <path d="M12.707,1.293a1.029,1.029,0,0,0-1.414,0C11.077,1.509,6,6.647,6,12c0,4.294,2.377,6.477,5,6.914V11h2v7.914c2.623-.437,5-2.62,5-6.914C18,6.647,12.923,1.509,12.707,1.293Z" fill="currentColor"></path> <path d="M21.489,2.924a1,1,0,0,0-1.36-.389,22.946,22.946,0,0,0-2.6,1.758A15.251,15.251,0,0,1,20,12c0,3.889-1.641,6.444-3.817,7.807a6.028,6.028,0,0,0,1.417.182c2.445,0,4.957-1.535,6.037-5.316C25.108,9.526,21.638,3.19,21.489,2.924Z" fill="currentColor" data-color="color-2"></path> <path d="M4,12A15.251,15.251,0,0,1,6.467,4.293a22.946,22.946,0,0,0-2.6-1.758,1,1,0,0,0-1.36.389c-.149.266-3.619,6.6-2.148,11.749,1.08,3.781,3.592,5.316,6.037,5.316a6.028,6.028,0,0,0,1.417-.182C5.641,18.444,4,15.889,4,12Z" fill="currentColor" data-color="color-2"></path></g></svg>