<svg id="nc_icon" version="1.1" xmlns="http://www.w3.org/2000/svg" xmlns:xlink="http://www.w3.org/1999/xlink" x="0px" y="0px" viewBox="0 0 24 24" xml:space="preserve" ><g class="nc-icon-wrapper" fill="currentColor"><circle data-color="color-2" fill="currentColor" cx="7" cy="10" r="2"></circle> <circle data-color="color-2" fill="currentColor" cx="17" cy="10" r="2"></circle> <path fill="currentColor" d="M22.3199463,7.2360229C23.3327637,6.5128174,24,5.3400879,24,4h-4.0189819 C18.15448,1.5765381,15.2616577,0,12,0S5.84552,1.5765381,4.0189819,4H0c0,1.3400879,0.6672363,2.5128174,1.6800537,3.2360229 C1.2480469,8.064209,1,9.0029907,1,10c0,1.6756592,0.6920776,3.1911621,1.8032837,4.2807007C2.2953491,15.062561,2,15.9943237,2,17 c0,1.1309204,0.3895874,2.1623535,1.022644,3c0.5584717-0.7390137,1.3063354-1.3054199,2.1658936-1.6449585 C7.2872314,21.4873657,10.0012207,24,12,24s4.7127686-2.5126343,6.8114624-5.6449585 C19.6710205,18.6945801,20.4188843,19.2609863,20.977356,20C21.6104126,19.1623535,22,18.1309204,22,17 c0-1.0056763-0.2953491-1.937439-0.8032837-2.7192993C22.3079224,13.1911621,23,11.6756592,23,10 C23,9.0029907,22.7519531,8.064209,22.3199463,7.2360229z M7,14c-2.2055664,0-4-1.7944336-4-4s1.7944336-4,4-4s4,1.7944336,4,4 S9.2055664,14,7,14z M12,17c-0.5523071,0-1-1.4477539-1-2c0-0.5523071,0.4476929-2,1-2s1,1.4476929,1,2 C13,15.5522461,12.5523071,17,12,17z M17,14c-2.2055664,0-4-1.7944336-4-4s1.7944336-4,4-4s4,1.7944336,4,4S19.2055664,14,17,14z"></path></g></svg>