<svg id="nc_icon" version="1.1" xmlns="http://www.w3.org/2000/svg" xmlns:xlink="http://www.w3.org/1999/xlink" x="0px" y="0px" viewBox="0 0 24 24" xml:space="preserve" ><g class="nc-icon-wrapper" fill="currentColor"><polygon data-color="color-2" fill="currentColor" points="17,23.414 13.586,20 15,18.586 17,20.586 22,15.586 23.414,17 "></polygon> <path fill="currentColor" d="M12,21H5c-0.552,0-1-0.448-1-1V4c0-0.552,0.448-1,1-1h12c0.552,0,1,0.448,1,1v10.08 c0.327-0.047,0.66-0.08,1-0.08s0.673,0.033,1,0.08V3c0-1.654-1.346-3-3-3H5C3.346,0,2,1.346,2,3v18c0,1.654,1.346,3,3,3h7.683 C12.25,23.09,12,22.075,12,21z"></path></g></svg>