<svg id="nc_icon" version="1.1" xmlns="http://www.w3.org/2000/svg" xmlns:xlink="http://www.w3.org/1999/xlink" x="0px" y="0px" viewBox="0 0 24 24" xml:space="preserve" ><g class="nc-icon-wrapper" fill="currentColor"><path fill="currentColor" d="M10.003,22c0-0.347,0.069-0.682,0.182-1H4c-0.552,0-1-0.448-1-1V4c0-0.552,0.448-1,1-1h12 c0.552,0,1,0.448,1,1v9.761l0.672-0.672c0.382-0.382,0.836-0.661,1.328-0.844V3c0-1.654-1.346-3-3-3H4C2.346,0,1,1.346,1,3v18 c0,1.654,1.346,3,3,3h6.003V22z"></path> <path data-color="color-2" fill="currentColor" d="M19.086,14.503l-6.79,6.79c-0.188,0.188-0.293,0.442-0.293,0.707v2h2 c0.265,0,0.519-0.105,0.707-0.293l6.79-6.79c0.667-0.667,0.667-1.747,0-2.414S19.753,13.836,19.086,14.503z"></path></g></svg>