<svg id="nc_icon" version="1.1" xmlns="http://www.w3.org/2000/svg" xmlns:xlink="http://www.w3.org/1999/xlink" x="0px" y="0px" viewBox="0 0 24 24" xml:space="preserve" ><g class="nc-icon-wrapper" fill="currentColor"><path data-color="color-2" fill="currentColor" d="M23.063,14.92c-0.678-0.67-1.611-0.998-2.566-0.904c-0.546,0.055-1.06,0.246-1.498,0.549 c-0.438-0.303-0.951-0.494-1.498-0.549c-0.953-0.092-1.888,0.234-2.566,0.904C14.333,15.516,14,16.31,14,17.155 s0.333,1.639,0.936,2.235L19,23.405l4.064-4.015C23.667,18.794,24,18,24,17.155S23.667,15.516,23.063,14.92z"></path> <path fill="currentColor" d="M5,21c-0.552,0-1-0.448-1-1V4c0-0.552,0.448-1,1-1h12c0.552,0,1,0.448,1,1v8h2V3c0-1.654-1.346-3-3-3H5 C3.346,0,2,1.346,2,3v18c0,1.654,1.346,3,3,3h11.756l-3.037-3H5z"></path></g></svg>