<svg id="nc_icon" version="1.1" xmlns="http://www.w3.org/2000/svg" xmlns:xlink="http://www.w3.org/1999/xlink" x="0px" y="0px" viewBox="0 0 24 24" xml:space="preserve" ><g class="nc-icon-wrapper" fill="currentColor"><path fill="currentColor" d="M14.144,21H5c-0.552,0-1-0.448-1-1V4c0-0.552,0.448-1,1-1h12c0.552,0,1,0.448,1,1v5.078 C18.332,9.031,18.666,9,19,9s0.668,0.031,1,0.078V3c0-1.654-1.346-3-3-3H5C3.346,0,2,1.346,2,3v18c0,1.654,1.346,3,3,3h11.754 C16.15,23.411,15.105,22.322,14.144,21z"></path> <path data-color="color-2" fill="currentColor" d="M19,11c-2.458,0-5,1.802-5,4.817c0,2.716,3.869,6.486,4.31,6.907L19,23.382l0.69-0.659 c0.441-0.421,4.31-4.191,4.31-6.907C24,12.802,21.458,11,19,11z M19,17c-0.552,0-1-0.448-1-1c0-0.552,0.448-1,1-1s1,0.448,1,1 C20,16.552,19.552,17,19,17z"></path></g></svg>