<svg id="nc_icon" version="1.1" xmlns="http://www.w3.org/2000/svg" xmlns:xlink="http://www.w3.org/1999/xlink" x="0px" y="0px" viewBox="0 0 24 24" xml:space="preserve" ><g class="nc-icon-wrapper" fill="currentColor"><path data-color="color-2" fill="currentColor" d="M24,19v-2h-2.141c-0.094-0.364-0.238-0.704-0.424-1.02l1.515-1.515l-1.414-1.414 l-1.515,1.515c-0.316-0.186-0.656-0.33-1.02-0.424V12h-2v2.141c-0.364,0.094-0.704,0.238-1.02,0.424l-1.515-1.515l-1.414,1.414 l1.515,1.515c-0.186,0.316-0.33,0.656-0.424,1.02H12v2h2.141c0.094,0.364,0.238,0.704,0.424,1.02l-1.515,1.515l1.414,1.414 l1.515-1.515c0.316,0.186,0.656,0.33,1.02,0.424V24h2v-2.141c0.364-0.094,0.704-0.238,1.02-0.424l1.515,1.515l1.414-1.414 l-1.515-1.515c0.186-0.316,0.33-0.656,0.424-1.02H24z M18,19c-0.552,0-1-0.448-1-1c0-0.552,0.448-1,1-1s1,0.448,1,1 C19,18.552,18.552,19,18,19z"></path> <path fill="currentColor" d="M10.587,21H3c-0.552,0-1-0.448-1-1V4c0-0.552,0.448-1,1-1h12c0.552,0,1,0.448,1,1v6.262 C16.64,10.097,17.308,10,18,10V3c0-1.654-1.346-3-3-3H3C1.346,0,0,1.346,0,3v18c0,1.654,1.346,3,3,3h9.721 C11.795,23.185,11.058,22.162,10.587,21z"></path></g></svg>