<svg id="nc_icon" version="1.1" xmlns="http://www.w3.org/2000/svg" xmlns:xlink="http://www.w3.org/1999/xlink" x="0px" y="0px" viewBox="0 0 24 24" xml:space="preserve" ><g class="nc-icon-wrapper" fill="currentColor"><path fill="currentColor" d="M12.812,21H5c-0.552,0-1-0.448-1-1V4c0-0.552,0.448-1,1-1h12c0.552,0,1,0.448,1,1v8 c0.702,0,1.373,0.128,2,0.35V3c0-1.654-1.346-3-3-3H5C3.346,0,2,1.346,2,3v18c0,1.654,1.346,3,3,3h12 c0.122,0,0.237-0.022,0.355-0.036C15.413,23.756,13.749,22.614,12.812,21z"></path> <path data-color="color-2" fill="currentColor" d="M23.707,22.293l-2.274-2.274C21.785,19.424,22,18.74,22,18c0-2.206-1.794-4-4-4s-4,1.794-4,4 s1.794,4,4,4c0.74,0,1.424-0.215,2.019-0.567l2.274,2.274L23.707,22.293z M18,20c-1.103,0-2-0.897-2-2s0.897-2,2-2s2,0.897,2,2 S19.103,20,18,20z"></path></g></svg>