<svg id="nc_icon" version="1.1" xmlns="http://www.w3.org/2000/svg" xmlns:xlink="http://www.w3.org/1999/xlink" x="0px" y="0px" viewBox="0 0 24 24" xml:space="preserve" ><g class="nc-icon-wrapper" fill="currentColor"><path data-color="color-2" fill="currentColor" d="M22,20c-0.35,0-0.674,0.098-0.961,0.257l-2.042-1.225C18.997,19.021,19,19.011,19,19 s-0.003-0.021-0.003-0.032l2.042-1.225C21.326,17.902,21.65,18,22,18c1.103,0,2-0.897,2-2s-0.897-2-2-2s-2,0.897-2,2 c0,0.011,0.003,0.021,0.003,0.032l-2.042,1.225C17.674,17.098,17.35,17,17,17c-1.103,0-2,0.897-2,2s0.897,2,2,2 c0.35,0,0.674-0.098,0.961-0.257l2.042,1.225C20.003,21.979,20,21.989,20,22c0,1.103,0.897,2,2,2s2-0.897,2-2S23.103,20,22,20z"></path> <path fill="currentColor" d="M13.294,21H5c-0.552,0-1-0.448-1-1V4c0-0.552,0.448-1,1-1h12c0.552,0,1,0.448,1,1v8.294 C18.634,12.105,19.305,12,20,12V3c0-1.654-1.346-3-3-3H5C3.346,0,2,1.346,2,3v18c0,1.654,1.346,3,3,3h10.106 C14.268,23.18,13.637,22.153,13.294,21z"></path></g></svg>