<svg id="nc_icon" version="1.1" xmlns="http://www.w3.org/2000/svg" xmlns:xlink="http://www.w3.org/1999/xlink" x="0px" y="0px" viewBox="0 0 24 24" xml:space="preserve" ><g class="nc-icon-wrapper" fill="currentColor"><path fill="currentColor" d="M3,8.272L1.586,9.686c-0.781,0.781-0.781,2.047,0,2.828l2.828,2.828L0.957,18.8 c-1.025,1.025-1.273,2.659-0.46,3.859c1.096,1.616,3.314,1.771,4.624,0.462l3.536-3.536l2.828,2.828 c0.781,0.781,2.047,0.781,2.828,0L15.728,21L3,8.272z"></path> <path data-color="color-2" fill="currentColor" d="M22.799,13.929c0.39-0.39,0.39-1.024,0-1.414l-2.121-2.121l-4.243,1.414l1.414-4.243 l-6.364-6.364c-0.39-0.39-1.024-0.39-1.414,0L4.414,6.858l12.728,12.728L22.799,13.929z"></path></g></svg>