<svg id="nc_icon" version="1.1" xmlns="http://www.w3.org/2000/svg" xmlns:xlink="http://www.w3.org/1999/xlink" x="0px" y="0px" viewBox="0 0 24 24" xml:space="preserve" ><g class="nc-icon-wrapper" fill="currentColor"><path fill="currentColor" d="M21,7H1C0.448,7,0,6.552,0,6V2c0-0.552,0.448-1,1-1h20c0.552,0,1,0.448,1,1v4C22,6.552,21.552,7,21,7z"></path> <path data-color="color-2" fill="currentColor" d="M21.823,10.432L21,9.24l-0.823,1.191C19.522,11.379,18,13.722,18,15c0,1.654,1.346,3,3,3 s3-1.346,3-3C24,13.722,22.478,11.379,21.823,10.432z"></path> <path fill="currentColor" d="M12,16v-4c0-0.552-0.447-1-1-1H3V9H1v3c0,0.552,0.447,1,1,1h8v3H8v7c0,0.552,0.448,1,1,1h4 c0.552,0,1-0.448,1-1v-7H12z"></path></g></svg>