<svg id="nc_icon" version="1.1" xmlns="http://www.w3.org/2000/svg" xmlns:xlink="http://www.w3.org/1999/xlink" x="0px" y="0px" viewBox="0 0 24 24" xml:space="preserve" ><g class="nc-icon-wrapper" fill="currentColor"><path data-color="color-2" fill="currentColor" d="M18,8h-3V3.107c0-1.516-1.076-2.834-2.504-3.066C10.632-0.264,9,1.183,9,3v5H6 c-1.657,0-3,1.343-3,3v2h18v-2C21,9.343,19.657,8,18,8z"></path> <path fill="currentColor" d="M3,15v9h1c1.634,0,3.087-0.788,4-2.003C8.913,23.212,10.366,24,12,24s3.087-0.788,4-2.003 C16.913,23.212,18.366,24,20,24h1v-9H3z"></path></g></svg>