<svg id="nc_icon" version="1.1" xmlns="http://www.w3.org/2000/svg" xmlns:xlink="http://www.w3.org/1999/xlink" x="0px" y="0px" viewBox="0 0 24 24" xml:space="preserve" ><g class="nc-icon-wrapper" fill="currentColor"><path fill="currentColor" d="M22.564,11.375l-0.812-1.107C22.519,9.39,23,8.255,23,7c0-2.757-2.243-5-5-5h-2.25 c0,0-0.926-1.196-1.026-1.297C14.403,0.382,13.817,0,12.852,0c-1.901,0-4.57,1.488-6.967,3.885C4.38,5.389,3.194,7.053,2.544,8.569 c-1.043,2.434-0.348,3.647,0.159,4.154c0.029,0.029,10.672,7.841,10.672,7.841c0.365,0.331,0.821,0.477,1.334,0.477 c1.571,0,3.675-1.371,5.318-3.015C22.208,15.846,23.908,12.857,22.564,11.375z M18,4c1.654,0,3,1.346,3,3 c0,0.589-0.177,1.135-0.471,1.599L17.156,4H18z M4.383,9.357c0.544-1.27,1.606-2.749,2.916-4.059C9.565,3.032,11.766,2,12.852,2 c0.127,0,0.355,0.015,0.458,0.117c0.161,0.161,0.223,0.813-0.266,1.952c-0.544,1.27-1.606,2.749-2.916,4.058 c-2.268,2.267-4.468,3.299-5.553,3.299c-0.127,0-0.356-0.016-0.458-0.117C3.956,11.148,3.895,10.496,4.383,9.357z"></path> <path data-color="color-2" fill="currentColor" d="M4,15.24l-0.823,1.191C2.522,17.379,1,19.722,1,21c0,1.654,1.346,3,3,3s3-1.346,3-3 c0-1.278-1.522-3.621-2.177-4.568L4,15.24z"></path></g></svg>