<svg id="nc_icon" version="1.1" xmlns="http://www.w3.org/2000/svg" xmlns:xlink="http://www.w3.org/1999/xlink" x="0px" y="0px" viewBox="0 0 24 24" xml:space="preserve" ><g class="nc-icon-wrapper" fill="currentColor"><path fill="currentColor" d="M23,0h-5c-0.2,0-0.5,0.1-0.6,0.2L13,3.9V16c0,0.6-0.4,1-1,1s-1-0.4-1-1V3.9L6.6,0.2C6.5,0.1,6.2,0,6,0H1 C0.4,0,0,0.4,0,1v22c0,0.6,0.4,1,1,1h22c0.6,0,1-0.4,1-1V1C24,0.4,23.6,0,23,0z M17,15c0,0.6-0.4,1-1,1s-1-0.4-1-1v-1 c0-0.6,0.4-1,1-1s1,0.4,1,1V15z M17,10c0,0.6-0.4,1-1,1s-1-0.4-1-1V9c0-0.6,0.4-1,1-1s1,0.4,1,1V10z"></path></g></svg>