<svg id="nc_icon" xmlns="http://www.w3.org/2000/svg" xmlns:xlink="http://www.w3.org/1999/xlink" x="0px" y="0px" viewBox="0 0 24 24" ><g class="nc-icon-wrapper" fill="currentColor"><path d="M12,19c-3.02,0-8.911-.3-12-2.471V18c0,3.157,7.543,4,12,4s12-.843,12-4V16.529C20.911,18.7,15.02,19,12,19Z" fill="currentColor"></path> <path d="M5,15V13.4a13.33,13.33,0,0,1-5-1.867V13c0,1.775,2.384,2.817,5.263,3.39A3.965,3.965,0,0,1,5,15Z" fill="currentColor"></path> <path d="M13,15a3.961,3.961,0,0,1-.553,2C16.942,16.941,24,16.056,24,13V11.529c-2.778,1.951-7.816,2.39-11,2.459Z" fill="currentColor"></path> <path d="M12,2C7.543,2,0,2.843,0,6V8c0,1.924,2.8,2.984,6,3.522V15a3,3,0,0,0,6,0V12c4.457,0,12-.843,12-4V6C24,2.843,16.457,2,12,2ZM10,15a1,1,0,0,1-2,0V7.8l-.862-.12c-3.922-.548-5.055-1.5-5.144-1.638C2.273,5.329,5.956,4,12,4s9.727,1.329,10.006,1.958C21.727,6.671,18.044,8,12,8c-.33,0-.654-.006-.977-.014L10,7.962Z" fill="currentColor" data-color="color-2"></path> </g></svg>