<svg id="nc_icon" version="1.1" xmlns="http://www.w3.org/2000/svg" xmlns:xlink="http://www.w3.org/1999/xlink" x="0px" y="0px" viewBox="0 0 24 24" xml:space="preserve" ><g class="nc-icon-wrapper" fill="currentColor"><path fill="currentColor" d="M14,15h-4c-0.57227,0-1.08594,0.31836-1.3418,0.83008c-0.25586,0.51074-0.20117,1.11328,0.1416,1.56934 l2,2.66797c0.28613,0.38086,0.72363,0.59961,1.2002,0.59961s0.91406-0.21875,1.2002-0.60059l2-2.66602 c0.34277-0.45703,0.39746-1.05957,0.1416-1.57031C15.08594,15.31836,14.57227,15,14,15z"></path> <path fill="currentColor" d="M22.83594,9.64551c-0.26556-0.70074-0.59528-1.40839-0.97766-2.10284C23.14038,6.86938,24,5.5257,24,4 c0-2.20605-1.79395-4-4-4c-1.44049,0-2.77808,0.841-3.50354,2.0838C15.17065,1.4079,13.67242,1,12,1S8.82941,1.40796,7.50354,2.0838 C6.77808,0.841,5.44049,0,4,0C1.79395,0,0,1.79395,0,4c0,1.52551,0.85938,2.86914,2.14124,3.54248 C1.75867,8.237,1.42883,8.9447,1.16309,9.64551c-1.12207,2.96387-1.99805,7.16504,0.20508,10.35547C3.2002,22.6543,6.77734,24,12,24 s8.7998-1.3457,10.63184-3.99902c2.20312-3.19043,1.32715-7.3916,0.20508-10.35547H22.83594z M20.98633,18.86426 C19.5498,20.94531,16.52637,22,12,22s-7.5498-1.05469-8.98633-3.13574c-1.70996-2.47559-0.93262-5.99414,0.01953-8.50977 C3.49902,9.12598,6.12012,3,12,3s8.50098,6.12598,8.9668,7.35449C21.91895,12.87012,22.69629,16.38867,20.98633,18.86426z"></path> <path data-color="color-2" fill="currentColor" d="M9.63867,12.37988c0.90234-1.2832,0.98047-1.79395,0.75488-2.67676 c-0.42773-1.6748-1.49414-2.02637-2.3125-2.02637c-2.0332,0-3.61914,2.74414-3.63867,4.11621 c-0.01172,0.82422,0.32129,1.68262,0.87109,2.24023c0.38574,0.39062,0.83887,0.59766,1.31152,0.59766 C7.8877,14.63086,8.85742,13.49316,9.63867,12.37988z"></path> <path data-color="color-2" fill="currentColor" d="M15.91895,7.67676c-0.81836,0-1.88477,0.35156-2.3125,2.02637 c-0.22559,0.88281-0.14746,1.39355,0.75488,2.67676c0.78125,1.11328,1.75098,2.25098,3.01367,2.25098 c0.47266,0,0.92578-0.20703,1.31152-0.59766c0.5498-0.55762,0.88281-1.41602,0.87109-2.23926 C19.53809,10.4209,17.95215,7.67676,15.91895,7.67676z"></path></g></svg>