<svg id="nc_icon" xmlns="http://www.w3.org/2000/svg" xmlns:xlink="http://www.w3.org/1999/xlink" x="0px" y="0px" viewBox="0 0 24 24" ><g class="nc-icon-wrapper" fill="currentColor"><path fill="currentColor" d="M7,19v1.5c0,1.193-1.194,1.447-1.54,1.496C4.651,21.974,4,21.313,4,20.5V2h15v15h2V1c0-0.552-0.448-1-1-1H3 C2.448,0,2,0.448,2,1v19.5C2,22.43,3.57,24,5.5,24h15c1.93,0,3.5-1.57,3.5-3.5V19H7z"></path> <rect data-color="color-2" x="7" y="5" fill="currentColor" width="9" height="2"></rect> <rect data-color="color-2" x="7" y="9" fill="currentColor" width="9" height="2"></rect> <rect data-color="color-2" x="7" y="13" fill="currentColor" width="9" height="2"></rect></g></svg>