<svg id="nc_icon" version="1.1" xmlns="http://www.w3.org/2000/svg" xmlns:xlink="http://www.w3.org/1999/xlink" x="0px" y="0px" viewBox="0 0 24 24" xml:space="preserve" ><g class="nc-icon-wrapper" fill="currentColor"><path fill="currentColor" d="M24,18h-3V7.95l-2.006,2.007c-0.005,1.274-0.505,2.5-1.432,3.427C16.488,14.456,14.375,15,11.281,15 c0,0-0.332-0.004-0.332-0.004l-1.895-0.051l-0.051-1.895c-0.039-1.464,0.04-5.038,1.614-6.612c0.914-0.914,2.129-1.421,3.424-1.43 l4.754-4.754C18.394,0.094,17.958,0,17.5,0h-14C1.567,0,0,1.567,0,3.5V6h5v15c0,1.657,1.343,3,3,3h12h0.5c1.933,0,3.5-1.567,3.5-3.5 V18z M5,4H2V3.5C2,2.673,2.673,2,3.5,2S5,2.673,5,3.5V4z M22,20.5c0,0.827-0.673,1.5-1.5,1.5h-8.825 C11.878,21.581,12,21.085,12,20.5V20h10V20.5z"></path> <path data-color="color-2" fill="currentColor" d="M23.561,0.439c-0.586-0.586-1.535-0.586-2.121,0l-6.655,6.655 c-0.956-0.235-2.006,0.011-2.753,0.758c-1.131,1.131-1.03,5.108-1.029,5.145c0.037,0.001,4.013,0.102,5.145-1.029 c0.747-0.747,0.993-1.797,0.758-2.753l6.655-6.655C24.146,1.975,24.146,1.025,23.561,0.439z"></path></g></svg>