<svg id="nc_icon" version="1.1" xmlns="http://www.w3.org/2000/svg" xmlns:xlink="http://www.w3.org/1999/xlink" x="0px" y="0px" viewBox="0 0 24 24" xml:space="preserve" ><g class="nc-icon-wrapper" fill="currentColor"><path data-color="color-2" fill="currentColor" d="M16.5,10L16.5,10C14.015,10,12,7.985,12,5.5v-1C12,2.015,14.015,0,16.5,0h0 C18.985,0,21,2.015,21,4.5v1C21,7.985,18.985,10,16.5,10z"></path> <path fill="currentColor" d="M7,16L7,16c-2.209,0-4-1.791-4-4v-1c0-2.209,1.791-4,4-4h0c2.209,0,4,1.791,4,4v1C11,14.209,9.209,16,7,16z"></path> <path data-color="color-2" fill="currentColor" d="M19,11h-5c-0.343,0-0.677,0.035-1,0.101V12c0,1.347-0.453,2.585-1.206,3.586 C14.266,16.667,16,19.134,16,22v2h7c0.552,0,1-0.448,1-1v-7C24,13.239,21.761,11,19,11z"></path> <path fill="currentColor" d="M13,24H1c-0.552,0-1-0.448-1-1v-1c0-2.761,2.239-5,5-5h4c2.761,0,5,2.239,5,5v1C14,23.552,13.552,24,13,24z"></path></g></svg>