<svg id="nc_icon" version="1.1" xmlns="http://www.w3.org/2000/svg" xmlns:xlink="http://www.w3.org/1999/xlink" x="0px" y="0px" viewBox="0 0 24 24" xml:space="preserve" ><g class="nc-icon-wrapper" fill="currentColor"><path fill="currentColor" d="M23,22h-0.5c-0.8-0.9-3.1-3.8-5-7H19c0.6,0,1-0.4,1-1s-0.4-1-1-1h-2.6C15.6,11.2,15,9.5,15,8V5 c0-1.3-0.8-2.4-2-2.8V1c0-0.6-0.4-1-1-1c-0.6,0-1,0.4-1,1v1.2C9.8,2.6,9,3.7,9,5v3c0,1.5-0.6,3.2-1.4,5H5c-0.6,0-1,0.4-1,1 s0.4,1,1,1h1.5c-1.9,3.2-4.2,6.1-5,7H1c-0.6,0-1,0.4-1,1s0.4,1,1,1h8v-2c0-1.7,1.3-3,3-3c1.7,0,3,1.3,3,3v2h8c0.6,0,1-0.4,1-1 S23.6,22,23,22z"></path></g></svg>