<svg id="nc_icon" version="1.1" xmlns="http://www.w3.org/2000/svg" xmlns:xlink="http://www.w3.org/1999/xlink" x="0px" y="0px" viewBox="0 0 24 24" xml:space="preserve" ><g class="nc-icon-wrapper" fill="currentColor"><path d="M9.607,6.814v5.02c1.246,0,2.889.111,3.877-.625a2.635,2.635,0,0,0,.088-3.789C12.625,6.658,10.98,6.814,9.607,6.814Z" fill="currentColor"></path>  <path d="M23,0H1A1,1,0,0,0,0,1V23a1,1,0,0,0,1,1H23a1,1,0,0,0,1-1V1A1,1,0,0,0,23,0ZM15.262,12.605a6.456,6.456,0,0,1-4.17,1.191H9.607v5.342H7.273V4.861h4.111a6.218,6.218,0,0,1,4.009,1.094,3.927,3.927,0,0,1,1.333,3.223A4.162,4.162,0,0,1,15.262,12.605Z" fill="currentColor"></path></g></svg>