<svg id="nc_icon" xmlns="http://www.w3.org/2000/svg" xmlns:xlink="http://www.w3.org/1999/xlink" x="0px" y="0px" viewBox="0 0 24 24" ><g class="nc-icon-wrapper" fill="currentColor"><path d="M23,16H1a1,1,0,1,0,0,2h.323l.24.6a6.966,6.966,0,0,0,6.5,4.4h7.876a6.968,6.968,0,0,0,6.5-4.4l.239-.6H23a1,1,0,1,0,0-2Z" fill="currentColor"></path> <path d="M3,15a1,1,0,0,0,1-1c0-1.654,1.794-3,4-3a4.814,4.814,0,0,1,2.643.761A4.306,4.306,0,0,0,10,14a1,1,0,1,0,2,0,2.49,2.49,0,0,1,.677-1.666l.008-.005s.006-.011.011-.016A4.481,4.481,0,0,1,16,11c2.206,0,4,1.346,4,3a1,1,0,1,0,2,0,5.084,5.084,0,0,0-3.661-4.6l3.392-5.6c.026-.043.05-.086.072-.131A1.839,1.839,0,0,0,20.982,1.2q-.067-.034-.138-.063a1.84,1.84,0,0,0-2.393,1.02L15.71,9.008a6.646,6.646,0,0,0-3.7,1.268A6.68,6.68,0,0,0,8,9c-3.309,0-6,2.243-6,5A1,1,0,0,0,3,15Z" fill="currentColor" data-color="color-2"></path> <path d="M12,6V8h0A3,3,0,0,1,9,5V3H9A3,3,0,0,1,12,6Z" fill="currentColor"></path></g></svg>