<svg id="nc_icon" version="1.1" xmlns="http://www.w3.org/2000/svg" xmlns:xlink="http://www.w3.org/1999/xlink" x="0px" y="0px" viewBox="0 0 24 24" xml:space="preserve" ><g class="nc-icon-wrapper" fill="currentColor"><path fill="currentColor" d="M6,5h12c0.552,0,1,0.448,1,1v12c0,0.552-0.448,1-1,1H6c-0.552,0-1-0.448-1-1V6C5,5.448,5.448,5,6,5z"></path> <rect data-color="color-2" x="11" fill="currentColor" width="2" height="3"></rect> <rect data-color="color-2" x="7" fill="currentColor" width="2" height="3"></rect> <rect data-color="color-2" x="15" fill="currentColor" width="2" height="3"></rect> <rect data-color="color-2" x="21.5" y="10.5" transform="matrix(-1.836970e-16 1 -1 -1.836970e-16 34.5 -10.5)" fill="currentColor" width="2" height="3"></rect> <rect data-color="color-2" x="21.5" y="6.5" transform="matrix(-1.836970e-16 1 -1 -1.836970e-16 30.5 -14.5)" fill="currentColor" width="2" height="3"></rect> <rect data-color="color-2" x="21.5" y="14.5" transform="matrix(-1.836970e-16 1 -1 -1.836970e-16 38.5 -6.5)" fill="currentColor" width="2" height="3"></rect> <rect data-color="color-2" x="11" y="21" transform="matrix(-1 -1.224647e-16 1.224647e-16 -1 24 45)" fill="currentColor" width="2" height="3"></rect> <rect data-color="color-2" x="15" y="21" transform="matrix(-1 -1.224647e-16 1.224647e-16 -1 32 45)" fill="currentColor" width="2" height="3"></rect> <rect data-color="color-2" x="7" y="21" transform="matrix(-1 -1.224647e-16 1.224647e-16 -1 16 45)" fill="currentColor" width="2" height="3"></rect> <rect data-color="color-2" x="0.5" y="10.5" transform="matrix(6.123234e-17 -1 1 6.123234e-17 -10.5 13.5)" fill="currentColor" width="2" height="3"></rect> <rect data-color="color-2" x="0.5" y="14.5" transform="matrix(6.123234e-17 -1 1 6.123234e-17 -14.5 17.5)" fill="currentColor" width="2" height="3"></rect> <rect data-color="color-2" x="0.5" y="6.5" transform="matrix(6.123234e-17 -1 1 6.123234e-17 -6.5 9.5)" fill="currentColor" width="2" height="3"></rect></g></svg>