<svg id="nc_icon" version="1.1" xmlns="http://www.w3.org/2000/svg" xmlns:xlink="http://www.w3.org/1999/xlink" x="0px" y="0px" viewBox="0 0 24 24" xml:space="preserve" ><g class="nc-icon-wrapper" fill="currentColor"><path fill="currentColor" d="M21,7h-4V3c0-1.7-1.3-3-3-3h-4C8.3,0,7,1.3,7,3v4H3c-1.7,0-3,1.3-3,3v4c0,1.7,1.3,3,3,3h4v4c0,1.7,1.3,3,3,3 h4c1.7,0,3-1.3,3-3v-4h4c1.7,0,3-1.3,3-3v-4C24,8.3,22.7,7,21,7z M9,3c0-0.6,0.4-1,1-1h4c0.6,0,1,0.4,1,1v4H9V3z M3,15 c-0.6,0-1-0.4-1-1v-4c0-0.6,0.4-1,1-1h4v6H3z M15,21c0,0.6-0.4,1-1,1h-4c-0.6,0-1-0.4-1-1v-4h6V21z M22,14c0,0.6-0.4,1-1,1h-4V9h4 c0.6,0,1,0.4,1,1V14z"></path></g></svg>