<svg id="nc_icon" version="1.1" xmlns="http://www.w3.org/2000/svg" xmlns:xlink="http://www.w3.org/1999/xlink" x="0px" y="0px" viewBox="0 0 24 24" xml:space="preserve" ><g class="nc-icon-wrapper" fill="currentColor"><path data-color="color-2" fill="currentColor" d="M6.36328,5.6377c0.32324,1.08447,1.32031,1.7876,2.39844,1.7876 c0.23535,0,0.47461-0.0332,0.71094-0.104c0.63965-0.18994,1.16797-0.61816,1.48535-1.20508 c0.31836-0.5874,0.38867-1.26367,0.19824-1.90332L10.58691,2.2959c-0.39355-1.32129-1.78516-2.07617-3.10938-1.68408 C6.83789,0.80225,6.30957,1.23047,5.99219,1.81738C5.67383,2.40479,5.60352,3.08105,5.79395,3.7207L6.36328,5.6377z"></path> <path data-color="color-2" fill="currentColor" d="M14.52734,7.32129c0.23633,0.0708,0.47559,0.104,0.71094,0.104 c1.07812,0,2.0752-0.70312,2.39844-1.7876l0.56934-1.91699c0.19043-0.63965,0.12012-1.31592-0.19824-1.90332 c-0.31738-0.58691-0.8457-1.01514-1.48535-1.20508c-1.31738-0.39502-2.71484,0.3623-3.10938,1.68359l-0.56934,1.91699 c-0.19043,0.63965-0.12012,1.31592,0.19824,1.90332C13.35938,6.70312,13.8877,7.13135,14.52734,7.32129z"></path> <path data-color="color-2" fill="currentColor" d="M5.0459,10.61865c0.50781-0.43359,0.81543-1.03906,0.86816-1.70459 c0.05176-0.66602-0.1582-1.31201-0.59277-1.81934l-0.4209-0.49316C4.00684,5.55371,2.42676,5.4292,1.37598,6.32471 C0.86914,6.75879,0.56055,7.36426,0.50781,8.02979C0.45508,8.6958,0.66504,9.3418,1.09961,9.84961l0.4209,0.49268 c0.43359,0.50781,1.03906,0.81641,1.70508,0.86865c0.06641,0.00488,0.13379,0.00781,0.19922,0.00781 C4.01953,11.21875,4.58887,11.00928,5.0459,10.61865z"></path> <path data-color="color-2" fill="currentColor" d="M22.62402,6.3252c-1.04883-0.89551-2.62988-0.77002-3.52441,0.27637l-0.4209,0.49268 c-0.43457,0.50781-0.64453,1.15381-0.59277,1.81982c0.05273,0.66553,0.36035,1.271,0.86816,1.70459 c0.45703,0.39062,1.02637,0.6001,1.62109,0.6001c0.06543,0,0.13281-0.00293,0.19922-0.00781 c0.66602-0.05225,1.27148-0.36084,1.70508-0.86865l0.4209-0.49268c0.43457-0.50781,0.64453-1.15381,0.5918-1.81982 C23.43945,7.36426,23.13086,6.75879,22.62402,6.3252z"></path> <path fill="currentColor" d="M17.71777,12.91699C16.42285,11.09033,14.28516,10,12,10s-4.42285,1.09033-5.71777,2.91699l-2.30566,3.80078 c-1.07324,1.771-0.91797,3.86475,0.4043,5.46436c0.97559,1.18018,2.37207,1.81689,3.83105,1.81689 c0.59961,0,1.20898-0.10742,1.80469-0.32861l0.2002-0.07324c1.15039-0.42822,2.41699-0.42676,3.56934,0.00049l0.19531,0.07227 c2.0498,0.76025,4.26074,0.17578,5.6377-1.48779c1.32227-1.59961,1.47754-3.69336,0.4043-5.46436L17.71777,12.91699z"></path></g></svg>