<svg id="nc_icon" version="1.1" xmlns="http://www.w3.org/2000/svg" xmlns:xlink="http://www.w3.org/1999/xlink" x="0px" y="0px" viewBox="0 0 24 24" xml:space="preserve" ><g class="nc-icon-wrapper" fill="currentColor"><circle data-color="color-2" fill="currentColor" cx="12" cy="11" r="2"></circle> <path fill="currentColor" d="M19,4V1.5C19,0.672,18.328,0,17.5,0S16,0.672,16,1.5V4h-1V1.5C15,0.672,14.328,0,13.5,0S12,0.672,12,1.5V4 h-1V1.5C11,0.672,10.328,0,9.5,0S8,0.672,8,1.5V4H7V1.5C7,0.672,6.328,0,5.5,0S4,0.672,4,1.5V4H0v14h4.262 c0.889,3.449,4.011,6,7.738,6s6.848-2.551,7.738-6H24v-2V4H19z M22,16h-2V8c-2.209,0-4,1.791-4,4v3c-1.008,0-1.917,0.385-2.62,1 c-1.38,1.281-1.88,3.031-1.88,3.031s-0.515-1.3-0.272-3.031H2V6h20V16z"></path></g></svg>