<svg id="nc_icon" xmlns="http://www.w3.org/2000/svg" xmlns:xlink="http://www.w3.org/1999/xlink" x="0px" y="0px" viewBox="0 0 24 24" ><g class="nc-icon-wrapper" fill="currentColor"><path d="M12,12a10.752,10.752,0,0,1,.536-3.358A8.959,8.959,0,0,0,13,6,5.68,5.68,0,0,0,7,0,5.68,5.68,0,0,0,1,6a8.959,8.959,0,0,0,.464,2.642A10.752,10.752,0,0,1,2,12a10.752,10.752,0,0,1-.536,3.358A8.959,8.959,0,0,0,1,18a5.68,5.68,0,0,0,6,6,5.68,5.68,0,0,0,6-6,8.959,8.959,0,0,0-.464-2.642A10.752,10.752,0,0,1,12,12ZM5,18a1,1,0,1,1,1-1A1,1,0,0,1,5,18Zm2,3a1,1,0,1,1,1-1A1,1,0,0,1,7,21Z" fill="currentColor"></path> <path d="M21.17,4.21a6.2,6.2,0,0,0-3.867.235,9.589,9.589,0,0,0-2.317,1.226c0,.11.014.217.014.329a10.908,10.908,0,0,1-.542,3.2A8.849,8.849,0,0,0,14,12a8.02,8.02,0,0,0,.3,2.248Z" fill="currentColor" data-color="color-2"></path> <path d="M14.922,16.883A8.64,8.64,0,0,1,15,18a9.2,9.2,0,0,1-.247,2.11c2.238-.151,5.037-1.487,7.2-4.651A11.042,11.042,0,0,0,24,9.028,6.211,6.211,0,0,0,22.82,5.339Z" fill="currentColor" data-color="color-2"></path></g></svg>