<svg id="nc_icon" version="1.1" xmlns="http://www.w3.org/2000/svg" xmlns:xlink="http://www.w3.org/1999/xlink" x="0px" y="0px" viewBox="0 0 24 24" xml:space="preserve" ><g class="nc-icon-wrapper" fill="currentColor"><path data-color="color-2" fill="currentColor" d="M23.707,10.293l-10-10c-0.391-0.391-1.023-0.391-1.414,0l-2,2 c-0.391,0.391-0.391,1.023,0,1.414l10,10C20.488,13.902,20.744,14,21,14s0.512-0.098,0.707-0.293l2-2 C24.098,11.316,24.098,10.684,23.707,10.293z"></path> <path fill="currentColor" d="M9.592,5.835L3.649,8.063C3.31,8.19,3.067,8.49,3.012,8.848L0.351,22.235L6.3,16.286 C6.113,15.895,6,15.462,6,15c0-1.657,1.343-3,3-3s3,1.343,3,3s-1.343,3-3,3c-0.462,0-0.895-0.113-1.286-0.3l-5.949,5.949 l13.387-2.661c0.357-0.055,0.657-0.299,0.784-0.637l2.229-5.944L9.592,5.835z"></path></g></svg>