<svg id="nc_icon" version="1.1" xmlns="http://www.w3.org/2000/svg" xmlns:xlink="http://www.w3.org/1999/xlink" x="0px" y="0px" viewBox="0 0 24 24" xml:space="preserve" ><g class="nc-icon-wrapper" fill="currentColor"><path data-color="color-2" fill="currentColor" d="M1.915,17.329L1.02,21.804c-0.066,0.328,0.037,0.667,0.273,0.903C1.482,22.896,1.737,23,2,23 c0.065,0,0.131-0.006,0.196-0.02l4.475-0.895L1.915,17.329z"></path> <polygon fill="currentColor" points="13.586,5 11,7.586 3,15.586 8.414,21 19,10.414 "></polygon> <path data-color="color-2" fill="currentColor" d="M22.707,5.293l-4-4c-0.391-0.391-1.023-0.391-1.414,0L15,3.586L20.414,9l2.293-2.293 C23.098,6.316,23.098,5.684,22.707,5.293z"></path></g></svg>