<svg id="nc_icon" xmlns="http://www.w3.org/2000/svg" xmlns:xlink="http://www.w3.org/1999/xlink" x="0px" y="0px" viewBox="0 0 24 24" ><g class="nc-icon-wrapper" fill="currentColor"><path fill="currentColor" d="M19,0h-3v9h-2V0h-4v9H8V0H5C4.447,0,4,0.448,4,1v14c0,0.242,0.088,0.476,0.247,0.659l7,8 C11.438,23.875,11.712,24,12,24s0.562-0.125,0.753-0.341l7-8C19.912,15.476,20,15.242,20,15V1C20,0.448,19.553,0,19,0z M13.296,20 h-2.592l-4.241-4.847l2.444-1.832l2.387,2.387C11.488,15.902,11.744,16,12,16s0.512-0.098,0.707-0.293l2.387-2.387l2.444,1.832 L13.296,20z"></path></g></svg>