<svg id="nc_icon" version="1.1" xmlns="http://www.w3.org/2000/svg" xmlns:xlink="http://www.w3.org/1999/xlink" x="0px" y="0px" viewBox="0 0 24 24" xml:space="preserve" ><g class="nc-icon-wrapper" fill="currentColor"><path fill="currentColor" d="M22.3,3.9l-2.2-2.2c-1.1-1.1-3.1-1.1-4.2,0L2.3,15.3c-0.1,0.1-0.1,0.2-0.2,0.3c0,0,0,0.1,0,0.1 c0,0,0,0.1,0,0.1l-1,6c-0.1,0.3,0.1,0.6,0.3,0.9C1.5,22.9,1.7,23,2,23c0.1,0,0.1,0,0.2,0l6-1c0,0,0.1,0,0.1,0c0,0,0.1,0,0.1,0 c0.1,0,0.2-0.1,0.3-0.2L22.3,8.1C23.5,7,23.5,5,22.3,3.9z M17,10.6L13.4,7l2.3-2.3l3.6,3.6L17,10.6z"></path></g></svg>