<svg id="nc_icon" xmlns="http://www.w3.org/2000/svg" xmlns:xlink="http://www.w3.org/1999/xlink" x="0px" y="0px" viewBox="0 0 24 24" ><g class="nc-icon-wrapper" fill="currentColor"><path d="M12,3.257l1.314-.492a4.1,4.1,0,0,1,1.569-1.718.249.249,0,0,0-.029-.435L13.77.1a.982.982,0,0,0-.984.071A3.576,3.576,0,0,0,11.32,3Z" fill="currentColor" data-color="color-2"></path> <path d="M21.649,6.312A6.158,6.158,0,0,0,14.67,4.393l-2.67,1-2.67-1a6.161,6.161,0,0,0-8.248,6.761L2.761,19.91A4.858,4.858,0,0,0,7.545,24a4.859,4.859,0,0,0,1.971-.421L12,22.477l2.484,1.1a4.846,4.846,0,0,0,6.749-3.638l1.691-8.82A6.171,6.171,0,0,0,21.649,6.312Z" fill="currentColor"></path></g></svg>