<svg id="nc_icon" version="1.1" xmlns="http://www.w3.org/2000/svg" xmlns:xlink="http://www.w3.org/1999/xlink" x="0px" y="0px" viewBox="0 0 24 24" xml:space="preserve" ><g class="nc-icon-wrapper" fill="currentColor"><path fill="currentColor" d="M12,0C5.383,0,0,5.383,0,12s5.383,12,12,12s12-5.383,12-12S18.617,0,12,0z M6,8c0-1.105,0.895-2,2-2 s2,0.895,2,2c0,1.105-0.895,2-2,2S6,9.105,6,8z M16,18c-1.105,0-2-0.895-2-2c0-1.105,0.895-2,2-2s2,0.895,2,2 C18,17.105,17.105,18,16,18z M18,12l-2.293-2.293l-7,7l-1.414-1.414l7-7L12,6h6V12z"></path></g></svg>