<svg id="nc_icon" version="1.1" xmlns="http://www.w3.org/2000/svg" xmlns:xlink="http://www.w3.org/1999/xlink" x="0px" y="0px" viewBox="0 0 24 24" xml:space="preserve" ><g class="nc-icon-wrapper" fill="currentColor"><path fill="currentColor" d="M5.556,18.444l4.151-4.151L6.414,11l3.293-3.293c0.391-0.391,0.391-1.024,0-1.414l-5-5 c-0.391-0.391-1.024-0.391-1.414,0L0,4.586C0,10.12,2.086,14.973,5.556,18.444z"></path> <path fill="currentColor" d="M17.707,14.293c-0.391-0.391-1.024-0.391-1.414,0L13,17.586l-1.172-1.172l-3.962,3.962 C11.053,22.663,15.011,24,19.414,24l3.293-3.293c0.391-0.391,0.391-1.024,0-1.414L17.707,14.293z"></path> <path data-color="color-2" fill="currentColor" d="M2,23c-0.256,0-0.512-0.098-0.707-0.293c-0.391-0.391-0.391-1.023,0-1.414l20-20 c0.391-0.391,1.023-0.391,1.414,0s0.391,1.023,0,1.414l-20,20C2.512,22.902,2.256,23,2,23z"></path></g></svg>