<svg id="nc_icon" version="1.1" xmlns="http://www.w3.org/2000/svg" xmlns:xlink="http://www.w3.org/1999/xlink" x="0px" y="0px" viewBox="0 0 24 24" xml:space="preserve" ><g class="nc-icon-wrapper" fill="currentColor"><circle data-color="color-2" fill="currentColor" cx="12" cy="7" r="7"></circle> <path fill="currentColor" d="M20.175,10.767c-0.884,1.917-2.426,3.482-4.367,4.386C15.936,15.757,16,16.373,16,17 c0,2.36-0.92,4.503-2.411,6.11C14.599,23.675,15.761,24,17,24c3.866,0,7-3.134,7-7C24,14.278,22.443,11.925,20.175,10.767z"></path> <path fill="currentColor" d="M12,16c-3.618,0-6.737-2.151-8.165-5.238C1.561,11.918,0,14.274,0,17c0,3.866,3.134,7,7,7s7-3.134,7-7 c0-0.411-0.043-0.812-0.111-1.203C13.28,15.928,12.648,16,12,16z"></path></g></svg>