<svg id="nc_icon" xmlns="http://www.w3.org/2000/svg" xmlns:xlink="http://www.w3.org/1999/xlink" x="0px" y="0px" viewBox="0 0 24 24" ><g class="nc-icon-wrapper" fill="currentColor"><path d="M7,8.75A1,1,0,0,1,6.47,8.6l-6-3.75a1,1,0,0,1,1.06-1.7l6,3.75A1,1,0,0,1,7,8.75Z" fill="currentColor" data-color="color-2"></path> <path d="M17,8.75A1,1,0,0,1,16.47,6.9l6-3.75a1,1,0,1,1,1.06,1.7l-6,3.75A1,1,0,0,1,17,8.75Z" fill="currentColor" data-color="color-2"></path> <path d="M23,11H16v3a1,1,0,0,1-1,1H9a1,1,0,0,1-1-1V11H1a1,1,0,0,0-1,1v9a3,3,0,0,0,3,3H21a3,3,0,0,0,3-3V12A1,1,0,0,0,23,11Z" fill="currentColor"></path> <path d="M12,0h0a2,2,0,0,1,2,2V13a0,0,0,0,1,0,0H10a0,0,0,0,1,0,0V2a2,2,0,0,1,2-2Z" fill="currentColor"></path></g></svg>