<svg id="nc_icon" version="1.1" xmlns="http://www.w3.org/2000/svg" xmlns:xlink="http://www.w3.org/1999/xlink" x="0px" y="0px" viewBox="0 0 24 24" xml:space="preserve" ><g class="nc-icon-wrapper" fill="currentColor"><path fill="currentColor" d="M24,0h-1c-3.58704,0-6.26459,0.82245-7.99554,2.42755C14.04797,2.15527,13.0426,2,12,2 S9.95203,2.15527,8.99554,2.42755C7.26459,0.82245,4.58704,0,1,0H0v1c0,4.12592,0.27899,6.41455,1.76178,8.00604 C1.27631,10.24597,1,11.59009,1,13c0,6.06543,4.93457,11,11,11s11-4.93457,11-11c0-1.40991-0.27631-2.75403-0.76178-3.99396 C23.72101,7.41455,24,5.12592,24,1V0z M6,8.5C6,7.67157,6.67157,7,7.5,7S9,7.67157,9,8.5S8.32843,10,7.5,10S6,9.32843,6,8.5z M13,20 h-2c-2.20917,0-4-1.79089-4-4c0-2.20917,1.79083-4,4-4h2c2.20917,0,4,1.79083,4,4C17,18.20911,15.20917,20,13,20z M16.5,10 C15.67157,10,15,9.32843,15,8.5S15.67157,7,16.5,7S18,7.67157,18,8.5S17.32843,10,16.5,10z"></path> <circle data-color="color-2" fill="currentColor" cx="10" cy="16" r="1"></circle> <circle data-color="color-2" fill="currentColor" cx="14" cy="16" r="1"></circle></g></svg>