<svg id="nc_icon" version="1.1" xmlns="http://www.w3.org/2000/svg" xmlns:xlink="http://www.w3.org/1999/xlink" x="0px" y="0px" viewBox="0 0 24 24" xml:space="preserve" ><g class="nc-icon-wrapper" fill="currentColor"><path data-color="color-2" fill="currentColor" d="M7,4h10c0.6,0,1-0.4,1-1V1c0-0.6-0.4-1-1-1H7C6.4,0,6,0.4,6,1v2C6,3.6,6.4,4,7,4z"></path> <path fill="currentColor" d="M21.6,13.2L16,8.5V7c0-0.6-0.4-1-1-1H9C8.4,6,8,6.4,8,7v1.5l-5.6,4.7C2.1,13.4,2,13.7,2,14v9 c0,0.6,0.4,1,1,1h18c0.6,0,1-0.4,1-1v-9C22,13.7,21.9,13.4,21.6,13.2z M16,17h-3v3h-2v-3H8v-2h3v-3h2v3h3V17z"></path></g></svg>