<svg id="nc_icon" version="1.1" xmlns="http://www.w3.org/2000/svg" xmlns:xlink="http://www.w3.org/1999/xlink" x="0px" y="0px" viewBox="0 0 24 24" xml:space="preserve" ><g class="nc-icon-wrapper" fill="currentColor"><path fill="currentColor" d="M21,8H3C2.4,8,2,8.4,2,9v14c0,0.6,0.4,1,1,1h18c0.6,0,1-0.4,1-1V9C22,8.4,21.6,8,21,8z M17,18 c0,0.6-0.4,1-1,1H8c-0.6,0-1-0.4-1-1v-4c0-0.6,0.4-1,1-1h8c0.6,0,1,0.4,1,1V18z"></path> <path data-color="color-2" fill="currentColor" d="M0,1v4c0,0.6,0.4,1,1,1h4V3h2v3h2V3h2v3h2V3h2v3h2V3h2v3h4c0.6,0,1-0.4,1-1V1 c0-0.6-0.4-1-1-1H1C0.4,0,0,0.4,0,1z"></path></g></svg>