<svg id="nc_icon" version="1.1" xmlns="http://www.w3.org/2000/svg" xmlns:xlink="http://www.w3.org/1999/xlink" x="0px" y="0px" viewBox="0 0 24 24" xml:space="preserve" ><g class="nc-icon-wrapper" fill="currentColor"><polygon data-color="color-2" fill="currentColor" points="24,19 21,19 21,16 19,16 19,19 16,19 16,21 19,21 19,24 21,24 21,21 24,21 "></polygon> <path fill="currentColor" d="M10,0C5.576,0,1,3.366,1,9c0,5.289,7.952,13.363,8.29,13.705C9.478,22.894,9.733,23,10,23 s0.522-0.106,0.71-0.295C11.048,22.363,19,14.289,19,9C19,3.366,14.424,0,10,0z M10,12c-1.657,0-3-1.343-3-3s1.343-3,3-3 s3,1.343,3,3S11.657,12,10,12z"></path></g></svg>