<svg id="nc_icon" version="1.1" xmlns="http://www.w3.org/2000/svg" xmlns:xlink="http://www.w3.org/1999/xlink" x="0px" y="0px" viewBox="0 0 24 24" xml:space="preserve" ><g class="nc-icon-wrapper" fill="currentColor"><path fill="currentColor" d="M10,19c0-3.866,3.134-7,7-7c0.442,0,0.872,0.046,1.291,0.124C18.729,11.032,19,9.969,19,9 c0-5.634-4.576-9-9-9S1,3.366,1,9c0,5.289,7.952,13.363,8.29,13.705C9.478,22.894,9.733,23,10,23s0.522-0.106,0.71-0.295 c0.026-0.026,0.111-0.113,0.221-0.227C10.342,21.452,10,20.267,10,19z M7,9c0-1.657,1.343-3,3-3s3,1.343,3,3s-1.343,3-3,3 S7,10.657,7,9z"></path> <polygon data-color="color-2" fill="currentColor" points="15,22.414 11.586,19 13,17.586 15,19.586 20,14.586 21.414,16 "></polygon></g></svg>