<svg id="nc_icon" version="1.1" xmlns="http://www.w3.org/2000/svg" xmlns:xlink="http://www.w3.org/1999/xlink" x="0px" y="0px" viewBox="0 0 24 24" xml:space="preserve" ><g class="nc-icon-wrapper" fill="currentColor"><path data-color="color-2" fill="currentColor" d="M16,0c-1.671,0-3.363,0.545-4.76,1.55C14.92,2.796,18,6.131,18,11 c0,2.685-1.638,5.724-3.466,8.288c0.362,0.389,0.638,0.673,0.756,0.792c0.188,0.189,0.443,0.295,0.71,0.295s0.522-0.106,0.71-0.295 C17.456,19.327,24,12.6,24,8C24,2.992,19.933,0,16,0z"></path> <path fill="currentColor" d="M8,3c-3.933,0-8,2.992-8,8c0,4.6,6.544,11.327,7.29,12.08c0.188,0.189,0.443,0.295,0.71,0.295 s0.522-0.106,0.71-0.295C9.456,22.327,16,15.6,16,11C16,5.992,11.933,3,8,3z M8,13c-1.105,0-2-0.895-2-2c0-1.105,0.895-2,2-2 s2,0.895,2,2C10,12.105,9.105,13,8,13z"></path></g></svg>