<svg id="nc_icon" version="1.1" xmlns="http://www.w3.org/2000/svg" xmlns:xlink="http://www.w3.org/1999/xlink" x="0px" y="0px" viewBox="0 0 24 24" xml:space="preserve" ><g class="nc-icon-wrapper" fill="currentColor"><path fill="currentColor" d="M9.003,20.997c0-0.803,0.312-1.557,0.881-2.123l6.788-6.788c0.7-0.701,1.631-1.086,2.621-1.086 c0.128,0,0.252,0.024,0.378,0.037C19.878,10.33,20,9.644,20,9c0-5.634-4.576-9-9-9S2,3.366,2,9c0,4.058,4.671,9.743,7.003,12.329 V20.997z M11,6c1.657,0,3,1.343,3,3s-1.343,3-3,3s-3-1.343-3-3S9.343,6,11,6z"></path> <path data-color="color-2" fill="currentColor" d="M18.086,13.5l-6.79,6.79c-0.188,0.188-0.293,0.442-0.293,0.707v2h2 c0.265,0,0.519-0.105,0.707-0.293l6.79-6.79c0.667-0.667,0.667-1.747,0-2.414S18.753,12.833,18.086,13.5z"></path></g></svg>