<svg id="nc_icon" version="1.1" xmlns="http://www.w3.org/2000/svg" xmlns:xlink="http://www.w3.org/1999/xlink" x="0px" y="0px" viewBox="0 0 24 24" xml:space="preserve" ><g class="nc-icon-wrapper" fill="currentColor"><path fill="currentColor" d="M11,18c0-3.309,2.691-6,6-6c0.765,0,1.494,0.149,2.168,0.411C19.676,11.219,20,10.054,20,9 c0-5.634-4.576-9-9-9S2,3.366,2,9c0,5.289,7.952,13.363,8.29,13.705C10.478,22.894,10.733,23,11,23s0.522-0.106,0.71-0.295 c0.057-0.057,0.341-0.347,0.753-0.79C11.554,20.862,11,19.496,11,18z M8,9c0-1.657,1.343-3,3-3s3,1.343,3,3s-1.343,3-3,3 S8,10.657,8,9z"></path> <path data-color="color-2" fill="currentColor" d="M22.707,22.293l-2.274-2.274C20.785,19.424,21,18.74,21,18c0-2.206-1.794-4-4-4s-4,1.794-4,4 s1.794,4,4,4c0.74,0,1.424-0.215,2.019-0.567l2.274,2.274L22.707,22.293z M17,20c-1.103,0-2-0.897-2-2s0.897-2,2-2s2,0.897,2,2 S18.103,20,17,20z"></path></g></svg>