<svg id="nc_icon" version="1.1" xmlns="http://www.w3.org/2000/svg" xmlns:xlink="http://www.w3.org/1999/xlink" x="0px" y="0px" viewBox="0 0 24 24" xml:space="preserve" ><g class="nc-icon-wrapper" fill="currentColor"><path fill="currentColor" d="M11,19c0-3.866,3.134-7,7-7c0.111,0,0.219,0.011,0.329,0.017C18.742,10.963,19,9.937,19,9 c0-5.634-4.576-9-9-9S1,3.366,1,9c0,5.289,7.952,13.363,8.29,13.705C9.478,22.894,9.733,23,10,23s0.522-0.106,0.71-0.295 c0.062-0.063,0.387-0.393,0.871-0.917C11.209,20.933,11,19.991,11,19z M10,12c-1.657,0-3-1.343-3-3s1.343-3,3-3s3,1.343,3,3 S11.657,12,10,12z"></path> <polygon data-color="color-2" fill="currentColor" points="22.414,16 21,14.586 18,17.586 15,14.586 13.586,16 16.586,19 13.586,22 15,23.414 18,20.414 21,23.414 22.414,22 19.414,19 "></polygon></g></svg>