<svg id="nc_icon" version="1.1" xmlns="http://www.w3.org/2000/svg" xmlns:xlink="http://www.w3.org/1999/xlink" x="0px" y="0px" viewBox="0 0 24 24" xml:space="preserve" ><g class="nc-icon-wrapper" fill="currentColor"><path fill="currentColor" d="M23,1H1C0.448,1,0,1.448,0,2v17c0,0.552,0.448,1,1,1h7.198l3.034,3.64C11.422,23.868,11.703,24,12,24	s0.578-0.132,0.768-0.36L15.802,20H23c0.552,0,1-0.448,1-1V2C24,1.448,23.552,1,23,1z M12,5c1.381,0,2.5,1.119,2.5,2.5	c0,1.381-1.119,2.5-2.5,2.5S9.5,8.881,9.5,7.5C9.5,6.119,10.619,5,12,5z M16.5,16h-9v-1.621c0-0.891,0.585-1.67,1.44-1.922	C9.735,12.222,10.803,12,12,12s2.265,0.222,3.06,0.457c0.855,0.252,1.44,1.031,1.44,1.922V16z"></path></g></svg>