<svg id="nc_icon" version="1.1" xmlns="http://www.w3.org/2000/svg" xmlns:xlink="http://www.w3.org/1999/xlink" x="0px" y="0px" viewBox="0 0 24 24" xml:space="preserve" ><g class="nc-icon-wrapper" fill="currentColor"><path fill="currentColor" d="M12,19c0-3.866,3.134-7,7-7c0.111,0,0.219,0.011,0.329,0.017C19.742,10.963,20,9.937,20,9 c0-5.634-4.576-9-9-9S2,3.366,2,9c0,5.289,7.952,13.363,8.29,13.705C10.478,22.894,10.733,23,11,23s0.522-0.106,0.71-0.295 c0.062-0.063,0.387-0.393,0.871-0.917C12.209,20.933,12,19.991,12,19z M11,12c-1.657,0-3-1.343-3-3s1.343-3,3-3s3,1.343,3,3 S12.657,12,11,12z"></path> <path data-color="color-2" fill="currentColor" d="M21,20c-0.35,0-0.674,0.098-0.961,0.257l-2.042-1.225C17.997,19.021,18,19.011,18,19 s-0.003-0.021-0.003-0.032l2.042-1.225C20.326,17.902,20.65,18,21,18c1.103,0,2-0.897,2-2s-0.897-2-2-2s-2,0.897-2,2 c0,0.011,0.003,0.021,0.003,0.032l-2.042,1.225C16.674,17.098,16.35,17,16,17c-1.103,0-2,0.897-2,2s0.897,2,2,2 c0.35,0,0.674-0.098,0.961-0.257l2.042,1.225C19.003,21.979,19,21.989,19,22c0,1.103,0.897,2,2,2s2-0.897,2-2S22.103,20,21,20z"></path></g></svg>