<svg id="nc_icon" version="1.1" xmlns="http://www.w3.org/2000/svg" xmlns:xlink="http://www.w3.org/1999/xlink" x="0px" y="0px" viewBox="0 0 24 24" xml:space="preserve" ><g class="nc-icon-wrapper" fill="currentColor"><path fill="currentColor" d="M11,18c0-1.304,0.836-2.416,2-2.829V15c0-2.757,2.243-5,5-5c0.306,0,0.603,0.037,0.894,0.09 C18.96,9.717,19,9.352,19,9c0-5.634-4.576-9-9-9S1,3.366,1,9c0,5.289,7.952,13.363,8.29,13.705C9.478,22.894,9.733,23,10,23 s0.522-0.106,0.71-0.295c0.031-0.031,0.144-0.147,0.29-0.299V18z M7,9c0-1.657,1.343-3,3-3s3,1.343,3,3s-1.343,3-3,3S7,10.657,7,9z"></path> <path data-color="color-2" fill="currentColor" d="M22,17h-1v-2c0-1.654-1.346-3-3-3s-3,1.346-3,3v2h-1c-0.552,0-1,0.448-1,1v5 c0,0.552,0.448,1,1,1h8c0.552,0,1-0.448,1-1v-5C23,17.448,22.552,17,22,17z M17,15c0-0.551,0.449-1,1-1s1,0.449,1,1v2h-2V15z"></path></g></svg>