<svg id="nc_icon" version="1.1" xmlns="http://www.w3.org/2000/svg" xmlns:xlink="http://www.w3.org/1999/xlink" x="0px" y="0px" viewBox="0 0 24 24" xml:space="preserve" ><g class="nc-icon-wrapper" fill="currentColor"><path fill="currentColor" d="M20,15.14142V8.85858C21.72223,8.41248,23,6.86169,23,5c0-2.20917-1.79083-4-4-4s-4,1.79083-4,4 c0,0.74054,0.21497,1.42535,0.56573,2.0202L7.0202,15.56573C6.70441,15.37952,6.36365,15.2356,6,15.14142V8.85858 C7.72223,8.41248,9,6.86169,9,5c0-2.20917-1.79083-4-4-4S1,2.79083,1,5c0,1.86169,1.27777,3.41248,3,3.85858v6.28284 C2.27777,15.58746,1,17.13824,1,19c0,2.20911,1.79083,4,4,4s4-1.79089,4-4c0-0.74054-0.21497-1.42535-0.56573-2.0202 l8.54553-8.54553C17.29559,8.62048,17.63635,8.7644,18,8.85858v6.28284C16.27777,15.58746,15,17.13824,15,19 c0,2.20911,1.79083,4,4,4s4-1.79089,4-4C23,17.13824,21.72223,15.58746,20,15.14142z"></path></g></svg>