<svg id="nc_icon" version="1.1" xmlns="http://www.w3.org/2000/svg" xmlns:xlink="http://www.w3.org/1999/xlink" x="0px" y="0px" viewBox="0 0 24 24" xml:space="preserve" ><g class="nc-icon-wrapper" fill="currentColor"><path fill="currentColor" d="M12,0C7.576,0,3,3.366,3,9c0,5.289,7.951,13.363,8.29,13.705C11.478,22.894,11.733,23,12,23 s0.522-0.106,0.71-0.295C13.049,22.363,21,14.289,21,9C21,3.366,16.424,0,12,0z M12,5c1.105,0,2,0.895,2,2c0,1.105-0.895,2-2,2 s-2-0.895-2-2C10,5.895,10.895,5,12,5z M8,13c0-1.657,1.343-3,3-3h2c1.657,0,3,1.343,3,3H8z"></path></g></svg>