<svg id="nc_icon" version="1.1" xmlns="http://www.w3.org/2000/svg" xmlns:xlink="http://www.w3.org/1999/xlink" x="0px" y="0px" viewBox="0 0 24 24" xml:space="preserve" ><g class="nc-icon-wrapper" fill="currentColor"><path fill="currentColor" d="M10,18c0-4.381,3.542-7.948,7.912-7.996C17.969,9.661,18,9.325,18,9c0-5.634-4.576-9-9-9S0,3.366,0,9 c0,5.289,7.952,13.363,8.29,13.705C8.478,22.894,8.733,23,9,23s0.522-0.106,0.71-0.295c0.072-0.073,0.502-0.513,1.116-1.187 C10.302,20.454,10,19.263,10,18z M9,12c-1.657,0-3-1.343-3-3s1.343-3,3-3s3,1.343,3,3S10.657,12,9,12z"></path> <path data-color="color-2" fill="currentColor" d="M18,24c3.314,0,6-2.686,6-6s-2.686-6-6-6s-6,2.686-6,6S14.686,24,18,24z M17,14h2v3h3v2h-5V14 z"></path></g></svg>