<svg id="nc_icon" version="1.1" xmlns="http://www.w3.org/2000/svg" xmlns:xlink="http://www.w3.org/1999/xlink" x="0px" y="0px" viewBox="0 0 24 24" xml:space="preserve" ><g class="nc-icon-wrapper" fill="currentColor"><path fill="currentColor" d="M10,18c0-4.389,3.535-7.948,7.912-7.996C17.969,9.661,18,9.325,18,9c0-5.634-4.576-9-9-9S0,3.366,0,9 c0,5.289,7.952,13.363,8.29,13.705C8.478,22.894,8.733,23,9,23s0.522-0.106,0.71-0.295c0.072-0.073,0.502-0.512,1.114-1.185 C10.302,20.457,10,19.265,10,18z M9,12c-1.657,0-3-1.343-3-3s1.343-3,3-3s3,1.343,3,3S10.657,12,9,12z"></path> <path data-color="color-2" fill="currentColor" d="M24,19v-2h-2.141c-0.094-0.364-0.238-0.704-0.424-1.02l1.515-1.515l-1.414-1.414l-1.515,1.515 c-0.316-0.186-0.656-0.33-1.02-0.424V12h-2v2.141c-0.364,0.094-0.704,0.238-1.02,0.424l-1.515-1.515l-1.414,1.414l1.515,1.515 c-0.186,0.316-0.33,0.656-0.424,1.02H12v2h2.141c0.094,0.364,0.238,0.704,0.424,1.02l-1.515,1.515l1.414,1.414l1.515-1.515 c0.316,0.186,0.656,0.33,1.02,0.424V24h2v-2.141c0.364-0.094,0.704-0.238,1.02-0.424l1.515,1.515l1.414-1.414l-1.515-1.515 c0.186-0.316,0.33-0.656,0.424-1.02H24z M18,19c-0.552,0-1-0.448-1-1c0-0.552,0.448-1,1-1s1,0.448,1,1C19,18.552,18.552,19,18,19z"></path></g></svg>