<svg id="nc_icon" version="1.1" xmlns="http://www.w3.org/2000/svg" xmlns:xlink="http://www.w3.org/1999/xlink" x="0px" y="0px" viewBox="0 0 24 24" xml:space="preserve" ><g class="nc-icon-wrapper" fill="currentColor"><path fill="currentColor" d="M11,18c0-3.866,3.134-7,7-7c0.227,0,0.45,0.013,0.672,0.034C18.879,10.328,19,9.643,19,9 c0-5.634-4.576-9-9-9S1,3.366,1,9c0,5.289,7.952,13.363,8.29,13.705C9.478,22.894,9.733,23,10,23s0.522-0.106,0.71-0.295 c0.075-0.076,0.538-0.549,1.193-1.272C11.331,20.418,11,19.248,11,18z M10,12c-1.657,0-3-1.343-3-3s1.343-3,3-3s3,1.343,3,3 S11.657,12,10,12z"></path> <path data-color="color-2" fill="currentColor" d="M18,15c0.808,0,1.573,0.331,2.131,0.893l-1.608,1.168L22.792,18l0.428-4.351l-1.466,1.065 C20.813,13.644,19.45,13,18,13c-2.283,0-4.274,1.542-4.842,3.751l1.937,0.498C15.436,15.925,16.63,15,18,15z"></path> <path data-color="color-2" fill="currentColor" d="M18,22c-0.808,0-1.573-0.331-2.131-0.893l1.608-1.168L13.208,19l-0.428,4.351l1.466-1.065 C15.187,23.356,16.55,24,18,24c2.283,0,4.274-1.542,4.842-3.751l-1.937-0.498C20.564,21.075,19.37,22,18,22z"></path></g></svg>