<svg id="nc_icon" version="1.1" xmlns="http://www.w3.org/2000/svg" xmlns:xlink="http://www.w3.org/1999/xlink" x="0px" y="0px" viewBox="0 0 24 24" xml:space="preserve" ><g class="nc-icon-wrapper" fill="currentColor"><path data-color="color-2" fill="currentColor" d="M6.672,15.914l-5.379,5.379c-0.391,0.391-0.391,1.023,0,1.414C1.488,22.902,1.744,23,2,23	s0.512-0.098,0.707-0.293l5.379-5.379L6.672,15.914z"></path><path fill="currentColor" d="M23.707,7.293l-7-7c-0.391-0.391-1.023-0.391-1.414,0s-0.391,1.023,0,1.414l0.908,0.908L5.18,8.766	L3.707,7.293c-0.391-0.391-1.023-0.391-1.414,0s-0.391,1.023,0,1.414l13,13C15.488,21.902,15.744,22,16,22s0.512-0.098,0.707-0.293	c0.391-0.391,0.391-1.023,0-1.414l-1.473-1.473l6.151-11.021l0.908,0.908C22.488,8.902,22.744,9,23,9s0.512-0.098,0.707-0.293	C24.098,8.316,24.098,7.684,23.707,7.293z"></path></g></svg>