<svg id="nc_icon" xmlns="http://www.w3.org/2000/svg" xmlns:xlink="http://www.w3.org/1999/xlink" x="0px" y="0px" viewBox="0 0 24 24" ><g class="nc-icon-wrapper" fill="currentColor"><rect x="6" y="10" width="12" height="14" rx="4" ry="4" fill="currentColor"></rect> <path d="M8.269,8.257A5.967,5.967,0,0,1,10,8h4a5.967,5.967,0,0,1,1.731.257,27.79,27.79,0,0,0,3.1-5.085A30.227,30.227,0,0,0,14,6.049C14,6.033,14,6.017,14,6c0-2-2-6-2-6s-2,4-2,6c0,.017.005.033.005.049A30.227,30.227,0,0,0,5.172,3.172,27.79,27.79,0,0,0,8.269,8.257Z" fill="currentColor" data-color="color-2"></path></g></svg>