<svg id="nc_icon" version="1.1" xmlns="http://www.w3.org/2000/svg" xmlns:xlink="http://www.w3.org/1999/xlink" x="0px" y="0px" viewBox="0 0 24 24" xml:space="preserve" ><g class="nc-icon-wrapper" fill="currentColor"><path fill="currentColor" d="M23,11h-8c-0.6,0-1,0.4-1,1v3c0,0.6-0.4,1-1,1s-1-0.4-1-1v-4H5v4c0,5,4,9,9,9h1c5,0,9-4,9-9v-3 C24,11.4,23.6,11,23,11z"></path> <path data-color="color-2" fill="currentColor" d="M13,7h-2V4c0-2.2-1.8-4-4-4H3C2.4,0,2,0.4,2,1v2c0,0.5,0.3,0.9,0.8,1l2.5,0.6 C5.7,4.7,6,5.1,6,5.6V7H4C3.4,7,3,7.4,3,8s0.4,1,1,1h9c0.6,0,1-0.4,1-1S13.6,7,13,7z"></path></g></svg>