<svg id="nc_icon" xmlns="http://www.w3.org/2000/svg" xmlns:xlink="http://www.w3.org/1999/xlink" x="0px" y="0px" viewBox="0 0 24 24" ><g class="nc-icon-wrapper" fill="currentColor"><path fill="currentColor" d="M22.054,20.546l-9.163-18c-0.341-0.67-1.441-0.67-1.782,0l-9.163,18c-0.124,0.243-0.143,0.525-0.053,0.783 c0.089,0.257,0.28,0.466,0.527,0.58C5.444,23.297,8.667,24,12,24s6.556-0.703,9.58-2.091c0.248-0.114,0.438-0.323,0.527-0.58 C22.197,21.071,22.178,20.789,22.054,20.546z M15,13c0.552,0,1,0.448,1,1c0,0.552-0.448,1-1,1s-1-0.448-1-1 C14,13.448,14.448,13,15,13z M12,8c0.552,0,1,0.448,1,1c0,0.552-0.448,1-1,1s-1-0.448-1-1C11,8.448,11.448,8,12,8z M10,14 c0.552,0,1,0.448,1,1c0,0.552-0.448,1-1,1s-1-0.448-1-1C9,14.448,9.448,14,10,14z M4.212,20.503l0.891-1.751 C7.309,19.564,9.62,20,12,20s4.691-0.436,6.896-1.248l0.891,1.751C14.829,22.491,9.171,22.491,4.212,20.503z"></path></g></svg>