<svg id="nc_icon" version="1.1" xmlns="http://www.w3.org/2000/svg" xmlns:xlink="http://www.w3.org/1999/xlink" x="0px" y="0px" viewBox="0 0 24 24" xml:space="preserve" ><g class="nc-icon-wrapper" fill="currentColor"><path data-color="color-2" fill="currentColor" d="M6.611,8.904l4.978-4.977L6.454,0.504c-1.187-0.79-2.777-0.632-3.785,0.375L0.293,3.255 C0.081,3.467-0.024,3.762,0.005,4.061c0.029,0.298,0.191,0.567,0.44,0.733L6.611,8.904z"></path> <path data-color="color-2" fill="currentColor" d="M20.073,12.411l-4.978,4.978l4.111,6.166c0.166,0.25,0.436,0.411,0.733,0.44 C19.973,23.999,20.005,24,20.038,24c0.264,0,0.519-0.104,0.707-0.293l2.376-2.376c1.008-1.009,1.165-2.601,0.375-3.786 L20.073,12.411z"></path> <path fill="currentColor" d="M21.828,2.172c-1.51-1.512-4.146-1.512-5.656,0L6.394,11.95c-0.067,0.067-0.125,0.144-0.171,0.228 l-1.69,3.095l-3.453-0.27c-0.926-0.071-1.44,1.048-0.784,1.704l2.24,2.224l-1.414,2.589c-0.213,0.389-0.143,0.873,0.171,1.186 C1.485,22.899,1.741,23,2,23c0.164,0,0.328-0.04,0.479-0.122l2.589-1.413l2.224,2.24c0.656,0.656,1.775,0.142,1.704-0.784 l-0.27-3.453l3.095-1.69c0.083-0.046,0.16-0.104,0.228-0.171l9.778-9.778C22.584,7.073,23,6.068,23,5S22.584,2.927,21.828,2.172z"></path></g></svg>