<svg id="nc_icon" version="1.1" xmlns="http://www.w3.org/2000/svg" xmlns:xlink="http://www.w3.org/1999/xlink" x="0px" y="0px" viewBox="0 0 24 24" xml:space="preserve" ><g class="nc-icon-wrapper" fill="currentColor"><path fill="currentColor" d="M20.5,9H5.535L3.832,6.445C3.646,6.167,3.334,6,3,6H1C0.692,6,0.401,6.142,0.212,6.385 S-0.045,6.944,0.03,7.243l2,8C2.142,15.688,2.541,16,3,16h8.132l-2.964,4.445c-0.204,0.307-0.224,0.701-0.05,1.026S8.631,22,9,22h4 c0.334,0,0.646-0.167,0.832-0.445L17.535,16H20.5c1.93,0,3.5-1.57,3.5-3.5S22.43,9,20.5,9z"></path> <path data-color="color-2" fill="currentColor" d="M10.272,7h6.345l-2.764-4.521C13.672,2.181,13.349,2,13,2H9C8.639,2,8.305,2.195,8.128,2.511 s-0.17,0.702,0.019,1.011L10.272,7z"></path></g></svg>