<svg id="nc_icon" version="1.1" xmlns="http://www.w3.org/2000/svg" xmlns:xlink="http://www.w3.org/1999/xlink" x="0px" y="0px" viewBox="0 0 24 24" xml:space="preserve" ><g class="nc-icon-wrapper" fill="currentColor"><path fill="currentColor" d="M21.432,18.879c0.671,1.603,0.696,2.642,0.368,2.971c-0.415,0.415-2.005,0.115-4.364-1.208 C19.613,18.805,21,16.063,21,13c0-5.514-4.486-10-10-10C7.937,3,5.195,4.387,3.359,6.563C2.035,4.204,1.736,2.614,2.15,2.199 c0.329-0.328,1.368-0.303,2.971,0.368c0.758-0.43,1.567-0.771,2.415-1.03c-3.103-1.72-5.531-2.023-6.801-0.753 C-0.734,2.256,0.128,5.18,2.125,8.411C1.41,9.787,1,11.345,1,13c0,5.514,4.486,10,10,10c1.655,0,3.213-0.41,4.589-1.125 c3.232,1.997,6.155,2.859,7.626,1.388c1.27-1.27,0.967-3.697-0.753-6.801C22.204,17.311,21.862,18.121,21.432,18.879z M6.5,15 C5.672,15,5,14.328,5,13.5S5.672,12,6.5,12S8,12.672,8,13.5S7.328,15,6.5,15z M13,17c-0.552,0-1-0.448-1-1c0-0.552,0.448-1,1-1 c0.552,0,1,0.448,1,1C14,16.552,13.552,17,13,17z M12.5,11c-0.828,0-1.5-0.672-1.5-1.5S11.672,8,12.5,8S14,8.672,14,9.5 S13.328,11,12.5,11z"></path></g></svg>