<svg id="nc_icon" version="1.1" xmlns="http://www.w3.org/2000/svg" xmlns:xlink="http://www.w3.org/1999/xlink" x="0px" y="0px" viewBox="0 0 24 24" xml:space="preserve" ><g class="nc-icon-wrapper" fill="currentColor"><path fill="currentColor" d="M23,22h-5.10059C17.43457,19.7207,15.41504,18,13,18v-2c2.76141,0,5-2.23859,5-5V9h-1 c-1.64331,0-3.08856,0.80353-4,2.02747V1h-2v5.02747C10.08856,4.80353,8.64331,4,7,4H6v2c0,2.76141,2.23859,5,5,5v7.42432 c-0.83911,0.36652-1.57001,0.95294-2.09961,1.71729C8.61035,20.04834,8.30664,20,8,20c-1.30371,0-2.41602,0.83594-2.8291,2H1 c-0.55273,0-1,0.44775-1,1s0.44727,1,1,1h22c0.55273,0,1-0.44775,1-1S23.55273,22,23,22z"></path></g></svg>