<svg id="nc_icon" version="1.1" xmlns="http://www.w3.org/2000/svg" xmlns:xlink="http://www.w3.org/1999/xlink" x="0px" y="0px" viewBox="0 0 24 24" xml:space="preserve" ><g class="nc-icon-wrapper" fill="currentColor"><path fill="currentColor" d="M20,1H4C1.794,1,0,2.794,0,5v14c0,2.206,1.794,4,4,4h16c2.206,0,4-1.794,4-4V5C24,2.794,22.206,1,20,1z M15.515,12.857l-5,3C10.356,15.953,10.178,16,10,16c-0.17,0-0.34-0.043-0.493-0.13C9.193,15.693,9,15.36,9,15V9 c0-0.36,0.193-0.693,0.507-0.87c0.313-0.178,0.698-0.173,1.008,0.013l5,3C15.815,11.323,16,11.649,16,12 S15.815,12.677,15.515,12.857z"></path></g></svg>