<svg id="nc_icon" version="1.1" xmlns="http://www.w3.org/2000/svg" xmlns:xlink="http://www.w3.org/1999/xlink" x="0px" y="0px" viewBox="0 0 24 24" xml:space="preserve" ><g class="nc-icon-wrapper" fill="currentColor"><path fill="currentColor" d="M23,0H1C0.447,0,0,0.447,0,1v22c0,0.553,0.447,1,1,1h22c0.553,0,1-0.447,1-1V1C24,0.447,23.553,0,23,0z M17,2v2h-2V2H17z M13,2v2h-2V2H13z M9,2v2H7V2H9z M7,22v-2h2v2H7z M11,22v-2h2v2H11z M15,22v-2h2v2H15z M22,22h-3v-2h2v-2H3v2h2v2 H2V2h3v2H3v2h18V4h-2V2h3V22z"></path> <polygon data-color="color-2" fill="currentColor" points="9,8 9,16 16,12 "></polygon></g></svg>