<svg id="nc_icon" version="1.1" xmlns="http://www.w3.org/2000/svg" xmlns:xlink="http://www.w3.org/1999/xlink" x="0px" y="0px" viewBox="0 0 24 24" xml:space="preserve" ><g class="nc-icon-wrapper" fill="currentColor"><path fill="currentColor" d="M23,0H1C0.447,0,0,0.447,0,1v22c0,0.553,0.447,1,1,1h22c0.553,0,1-0.447,1-1V1C24,0.447,23.553,0,23,0z M13,21c-1.304,0-2.403-0.837-2.816-2H3v-2h7.184c0.413-1.163,1.512-2,2.816-2c1.657,0,3,1.343,3,3S14.657,21,13,21z M8,14V4l8,5 L8,14z M21,19h-3v-2h3V19z"></path></g></svg>