<svg id="nc_icon" version="1.1" xmlns="http://www.w3.org/2000/svg" xmlns:xlink="http://www.w3.org/1999/xlink" x="0px" y="0px" viewBox="0 0 24 24" xml:space="preserve" ><g class="nc-icon-wrapper" fill="currentColor"><path data-color="color-2" fill="currentColor" d="M18,23H6c-0.553,0-1-0.448-1-1s0.447-1,1-1h12c0.553,0,1,0.448,1,1S18.553,23,18,23z"></path> <path fill="currentColor" d="M23,1H1C0.447,1,0,1.448,0,2v16c0,0.552,0.447,1,1,1h22c0.553,0,1-0.448,1-1V2C24,1.448,23.553,1,23,1z M15.515,10.857l-5,3C10.356,13.953,10.178,14,10,14c-0.17,0-0.34-0.043-0.493-0.13C9.193,13.693,9,13.36,9,13V7 c0-0.36,0.193-0.693,0.507-0.87c0.313-0.178,0.698-0.174,1.008,0.013l5,3C15.815,9.323,16,9.649,16,10S15.815,10.677,15.515,10.857z "></path></g></svg>