<svg id="nc_icon" version="1.1" xmlns="http://www.w3.org/2000/svg" xmlns:xlink="http://www.w3.org/1999/xlink" x="0px" y="0px" viewBox="0 0 24 24" xml:space="preserve" ><g class="nc-icon-wrapper" fill="currentColor"><path fill="currentColor" d="M23,10H1c-0.552,0-1-0.448-1-1V3c0-0.552,0.448-1,1-1h22c0.552,0,1,0.448,1,1v6C24,9.552,23.552,10,23,10z"></path> <path data-color="color-2" fill="currentColor" d="M23,16H1c-0.552,0-1-0.448-1-1s0.448-1,1-1h22c0.552,0,1,0.448,1,1S23.552,16,23,16z"></path> <path data-color="color-2" fill="currentColor" d="M23,22H1c-0.552,0-1-0.448-1-1s0.448-1,1-1h22c0.552,0,1,0.448,1,1S23.552,22,23,22z"></path></g></svg>