<svg id="nc_icon" version="1.1" xmlns="http://www.w3.org/2000/svg" xmlns:xlink="http://www.w3.org/1999/xlink" x="0px" y="0px" viewBox="0 0 24 24" xml:space="preserve" ><g class="nc-icon-wrapper" fill="currentColor"><rect data-color="color-2" x="11" y="21" fill="currentColor" width="2" height="3"></rect> <path fill="currentColor" d="M21,4h-4V1c0-0.553-0.447-1-1-1s-1,0.447-1,1v3H9V1c0-0.553-0.447-1-1-1S7,0.447,7,1v3H3 C2.447,4,2,4.447,2,5s0.447,1,1,1h1v5c0,4.411,3.589,8,8,8s8-3.589,8-8V6h1c0.553,0,1-0.447,1-1S21.553,4,21,4z"></path></g></svg>