<svg id="nc_icon" version="1.1" xmlns="http://www.w3.org/2000/svg" xmlns:xlink="http://www.w3.org/1999/xlink" x="0px" y="0px" viewBox="0 0 24 24" xml:space="preserve" ><g class="nc-icon-wrapper" fill="currentColor"><path fill="currentColor" d="M12.02,9.268h-1.125V11.5h1.184c0.5,0,0.869-0.096,1.107-0.287s0.357-0.484,0.357-0.879 C13.543,9.623,13.035,9.268,12.02,9.268z"></path> <path fill="currentColor" d="M13.019,7.598c0.221-0.152,0.331-0.404,0.331-0.756c0-0.328-0.12-0.563-0.36-0.706s-0.62-0.214-1.14-0.214 h-0.955v1.904h1.055C12.441,7.826,12.798,7.75,13.019,7.598z"></path> <path fill="currentColor" d="M17.924,2.231c-1.694-1.463-3.959-2.25-6.167-2.229C9.531,0.05,7.319,0.957,5.688,2.491 C3.866,4.204,2.894,6.584,2.949,9.192c0.113,5.287,8.233,13.191,8.579,13.525c0.187,0.18,0.436,0.281,0.695,0.281 c0.007,0,0.014,0,0.021,0c0.267-0.006,0.52-0.118,0.704-0.311c0.331-0.348,8.11-8.589,7.998-13.877 C20.89,6.202,19.817,3.866,17.924,2.231z M14.583,12.344C14.019,12.781,13.252,13,12.283,13H9.078V4.434h2.666 c1.215,0,2.097,0.173,2.646,0.519s0.823,0.896,0.823,1.649c0,0.512-0.12,0.932-0.36,1.26s-0.56,0.525-0.958,0.592v0.059 c0.543,0.121,0.935,0.348,1.175,0.68s0.36,0.773,0.36,1.324C15.43,11.297,15.147,11.906,14.583,12.344z"></path></g></svg>