<svg id="nc_icon" version="1.1" xmlns="http://www.w3.org/2000/svg" xmlns:xlink="http://www.w3.org/1999/xlink" x="0px" y="0px" viewBox="0 0 24 24" xml:space="preserve" ><g class="nc-icon-wrapper" fill="currentColor"><path fill="currentColor" d="M12.143,5.729c-0.129,0.5-0.498,1.736-1.107,3.709h2.232c-0.574-1.848-0.897-2.893-0.97-3.135 S12.174,5.869,12.143,5.729z"></path> <path fill="currentColor" d="M12,0C7.576,0,3,3.366,3,9c0,5.289,7.952,13.363,8.29,13.705C11.478,22.894,11.733,23,12,23 s0.522-0.106,0.71-0.295C13.048,22.363,21,14.289,21,9C21,3.366,16.424,0,12,0z M14.322,13l-0.621-2.039h-3.123L9.957,13H8 l3.023-8.602h2.221L16.279,13H14.322z"></path></g></svg>