<svg id="nc_icon" version="1.1" xmlns="http://www.w3.org/2000/svg" xmlns:xlink="http://www.w3.org/1999/xlink" x="0px" y="0px" viewBox="0 0 24 24" xml:space="preserve" ><g class="nc-icon-wrapper" fill="currentColor"><path fill="currentColor" d="M20,8V0.8L15.2,5H7C5.3,5,4,6.3,4,8l0,0c0,1.1,0.9,2,2,2h12C19.1,10,20,9.1,20,8z"></path> <path fill="currentColor" d="M4,16h16c1.1,0,2-0.9,2-2l0,0c0-1.1-0.9-2-2-2H4c-1.1,0-2,0.9-2,2l0,0C2,15.1,2.9,16,4,16z"></path> <path fill="currentColor" d="M0,21L0,21c0,1.7,1.3,3,3,3h18c1.7,0,3-1.3,3-3l0,0c0-1.7-1.3-3-3-3H3C1.3,18,0,19.3,0,21z"></path></g></svg>