<svg id="nc_icon" xmlns="http://www.w3.org/2000/svg" xmlns:xlink="http://www.w3.org/1999/xlink" x="0px" y="0px" viewBox="0 0 24 24" ><g class="nc-icon-wrapper" fill="currentColor"><path d="M19.858,4A4,4,0,0,0,16,1a3.827,3.827,0,0,0-1.169.182,3.981,3.981,0,0,0-5.662,0A3.827,3.827,0,0,0,8,1,4,4,0,0,0,4.142,4Z" fill="currentColor" data-color="color-2"></path> <polygon points="13.999 24 14.999 6 9.001 6 10.001 24 13.999 24" fill="currentColor"></polygon> <path d="M7,6H3a1,1,0,0,0-.992,1.124l2,16A1,1,0,0,0,5,24H8Z" fill="currentColor"></path> <path d="M21.75,6.338A1,1,0,0,0,21,6H17L16,24h3a1,1,0,0,0,.992-.876l2-16A1,1,0,0,0,21.75,6.338Z" fill="currentColor"></path></g></svg>