<svg id="nc_icon" version="1.1" xmlns="http://www.w3.org/2000/svg" xmlns:xlink="http://www.w3.org/1999/xlink" x="0px" y="0px" viewBox="0 0 24 24" xml:space="preserve" ><g class="nc-icon-wrapper" fill="currentColor"><path fill="currentColor" d="M19,7c0-3.86-3.141-7-7-7S5,3.14,5,7c0,3.519,2.614,6.432,6,6.92V20h2v-6.08C16.386,13.432,19,10.519,19,7z"></path> <path data-color="color-2" fill="currentColor" d="M15,16.118v1.998c4.146,0.331,6.656,1.293,6.986,1.883c-0.404,0.722-4.061,2-9.986,2 c-6.043,0-9.727-1.33-10.006-1.958c0.229-0.586,2.76-1.586,7.006-1.925v-1.999C4.796,16.438,0,17.482,0,20c0,3.158,7.543,4,12,4 s12-0.842,12-4C24,17.482,19.204,16.438,15,16.118z"></path></g></svg>