<svg id="nc_icon" version="1.1" xmlns="http://www.w3.org/2000/svg" xmlns:xlink="http://www.w3.org/1999/xlink" x="0px" y="0px" viewBox="0 0 24 24" xml:space="preserve" ><g class="nc-icon-wrapper" fill="currentColor"><path data-color="color-2" fill="currentColor" d="M22.69189,7.54639C20.62842,3.5083,16.53174,1,12,1	C7.46924,1,3.37256,3.50781,1.30859,7.54492c-0.25098,0.4917-0.05615,1.09424,0.43555,1.3457	c0.4917,0.25098,1.09375,0.05615,1.3457-0.43555C4.81006,5.09033,8.22412,3,12,3c3.77686,0,7.19092,2.09082,8.91064,5.45654	c0.17676,0.34619,0.52783,0.54492,0.8916,0.54492c0.15283,0,0.30859-0.03516,0.4541-0.10938	C22.74805,8.64062,22.94287,8.03809,22.69189,7.54639z"></path><path fill="currentColor" d="M9.55176,8.4043L7.79004,6.0332L7.74902,8.98682c-0.02197,1.60596-0.10352,9.70068,0.47949,11.34717	c0.35645,1.00732,1.08398,1.81543,2.04883,2.27539c0.5459,0.26074,1.13135,0.39209,1.71875,0.39209	c0.4502,0,0.90186-0.07715,1.33838-0.23193c2.0791-0.73633,3.17188-3.02686,2.43506-5.10596	C15.19531,16.04248,10.48926,9.66602,9.55176,8.4043z"></path></g></svg>