<svg id="nc_icon" version="1.1" xmlns="http://www.w3.org/2000/svg" xmlns:xlink="http://www.w3.org/1999/xlink" x="0px" y="0px" viewBox="0 0 24 24" xml:space="preserve" ><g class="nc-icon-wrapper" fill="currentColor"><path fill="currentColor" d="M5,11L5,1c0-0.552-0.448-1-1-1S3,0.448,3,1l0,10H5z"></path> <path data-color="color-2" fill="currentColor" d="M13,3l0-2c0-0.552-0.448-1-1-1s-1,0.448-1,1l0,2H13z"></path> <path fill="currentColor" d="M21,11l0-10c0-0.552-0.448-1-1-1s-1,0.448-1,1l0,10H21z"></path> <path fill="currentColor" d="M4,13c-2.206,0-4,1.794-4,4c0,1.858,1.28,3.411,3,3.858V23c0,0.552,0.448,1,1,1s1-0.448,1-1v-2.142 c1.72-0.447,3-2,3-3.858C8,14.794,6.206,13,4,13z"></path> <path data-color="color-2" fill="currentColor" d="M16,9c0-2.206-1.794-4-4-4S8,6.794,8,9c0,1.858,1.28,3.411,3,3.858V23c0,0.552,0.448,1,1,1 s1-0.448,1-1V12.858C14.72,12.411,16,10.858,16,9z"></path> <path fill="currentColor" d="M24,17c0-2.206-1.794-4-4-4s-4,1.794-4,4c0,1.858,1.28,3.411,3,3.858V23c0,0.552,0.448,1,1,1s1-0.448,1-1 v-2.142C22.72,20.411,24,18.858,24,17z"></path></g></svg>