<svg id="nc_icon" version="1.1" xmlns="http://www.w3.org/2000/svg" xmlns:xlink="http://www.w3.org/1999/xlink" x="0px" y="0px" viewBox="0 0 24 24" xml:space="preserve" ><g class="nc-icon-wrapper" fill="currentColor"><path fill="currentColor" d="M23,0H1C0.447,0,0,0.448,0,1v22c0,0.552,0.447,1,1,1h22c0.553,0,1-0.448,1-1V1C24,0.448,23.553,0,23,0z M11,17H3v-2h8V17z M8,11c-1.304,0-2.403-0.837-2.816-2H3V7h2.184C5.597,5.837,6.696,5,8,5c1.657,0,3,1.343,3,3S9.657,11,8,11z M21,17h-2.184c-0.413,1.163-1.512,2-2.816,2c-1.657,0-3-1.343-3-3s1.343-3,3-3c1.304,0,2.403,0.837,2.816,2H21V17z M21,9h-8V7h8V9z "></path></g></svg>