<svg id="nc_icon" version="1.1" xmlns="http://www.w3.org/2000/svg" xmlns:xlink="http://www.w3.org/1999/xlink" x="0px" y="0px" viewBox="0 0 24 24" xml:space="preserve" ><g class="nc-icon-wrapper" fill="currentColor"><path fill="currentColor" d="M23,5h-3V1c0-0.552-0.448-1-1-1H5C4.448,0,4,0.448,4,1v4H1C0.448,5,0,5.448,0,6v12c0,0.552,0.448,1,1,1h3v4 c0,0.552,0.448,1,1,1h14c0.552,0,1-0.448,1-1v-4h3c0.552,0,1-0.448,1-1V6C24,5.448,23.552,5,23,5z M6,2h12v3H6V2z M6,22v-9h12v4.998 c0,0.001,0,0.002,0,0.002s0,0.002,0,0.002V22H6z"></path></g></svg>