<svg id="nc_icon" version="1.1" xmlns="http://www.w3.org/2000/svg" xmlns:xlink="http://www.w3.org/1999/xlink" x="0px" y="0px" viewBox="0 0 24 24" xml:space="preserve" ><g class="nc-icon-wrapper" fill="currentColor"><path d="M12,24H1a1,1,0,0,1-1-1V1A1,1,0,0,1,1,0H12a1,1,0,0,1,1,1V7H11V2H2V22h9V17h2v6A1,1,0,0,1,12,24Z" fill="currentColor"></path> <path d="M22.707,11.293,18,6.586,16.586,8l3,3h-4.77a3,3,0,1,0,0,2h4.77l-3,3L18,17.414l4.707-4.707A1,1,0,0,0,22.707,11.293Z" fill="currentColor" data-color="color-2"></path></g></svg>