<svg id="nc_icon" version="1.1" xmlns="http://www.w3.org/2000/svg" xmlns:xlink="http://www.w3.org/1999/xlink" x="0px" y="0px" viewBox="0 0 24 24" xml:space="preserve" ><g class="nc-icon-wrapper" fill="currentColor"><path fill="currentColor" d="M20,9h-1V7c0-1.7-1.3-3-3-3H6C4.3,4,3,5.3,3,7v10c0,1.7,1.3,3,3,3h10c1.7,0,3-1.3,3-3v-2h1c0.6,0,1-0.4,1-1 v-4C21,9.4,20.6,9,20,9z M15,13h-0.6l-1.7,1.7C12.5,14.9,12.3,15,12,15c-0.1,0-0.1,0-0.2,0c-0.3-0.1-0.6-0.3-0.7-0.5l-1.4-2.8l-1,1 C8.5,12.9,8.3,13,8,13H7c-0.6,0-1-0.4-1-1s0.4-1,1-1h0.6l1.7-1.7C9.5,9.1,9.8,9,10.2,9c0.3,0.1,0.6,0.3,0.7,0.5l1.4,2.8l1-1 c0.2-0.2,0.4-0.3,0.7-0.3h1c0.6,0,1,0.4,1,1S15.6,13,15,13z"></path> <path data-color="color-2" fill="currentColor" d="M16.3,2L16,0.8C15.9,0.3,15.5,0,15,0H7C6.5,0,6.1,0.3,6,0.8L5.7,2H16.3z"></path> <path data-color="color-2" fill="currentColor" d="M5.7,22L6,23.2C6.1,23.7,6.5,24,7,24h8c0.5,0,0.9-0.3,1-0.8l0.3-1.2H5.7z"></path></g></svg>