<svg id="nc_icon" version="1.1" xmlns="http://www.w3.org/2000/svg" xmlns:xlink="http://www.w3.org/1999/xlink" x="0px" y="0px" viewBox="0 0 24 24" xml:space="preserve" ><g class="nc-icon-wrapper" fill="currentColor"><path fill="currentColor" d="M23,13h-7c-0.4,0-0.8,0.2-0.9,0.6L13,18.5L7.9,6.6C7.8,6.2,7.4,6,7,6S6.2,6.2,6.1,6.6L3.3,13H1 c-0.6,0-1,0.4-1,1s0.4,1,1,1h3c0.4,0,0.8-0.2,0.9-0.6L7,9.5l5.1,11.9c0.2,0.4,0.5,0.6,0.9,0.6s0.8-0.2,0.9-0.6l2.7-6.4H23 c0.6,0,1-0.4,1-1S23.6,13,23,13z"></path> <path data-color="color-2" fill="currentColor" d="M16.8,10.9C17.2,11,17.6,11,18,11c0,0,0,0,0,0c2.3,0,4.3-1.5,4.8-3.8c0.1-0.3,0-0.6-0.2-0.9 C22.5,6.1,22.2,6,21.9,6H21c-1.7,0-3-1.3-3-3V2.1c0-0.3-0.1-0.6-0.4-0.8c-0.2-0.2-0.6-0.3-0.9-0.2c-2.7,0.7-4.2,3.3-3.6,6 C13.6,9,15,10.4,16.8,10.9z"></path></g></svg>