<svg id="nc_icon" version="1.1" xmlns="http://www.w3.org/2000/svg" xmlns:xlink="http://www.w3.org/1999/xlink" x="0px" y="0px" viewBox="0 0 24 24" xml:space="preserve" ><g class="nc-icon-wrapper" fill="currentColor"><path fill="currentColor" d="M17,0H7C5.3,0,4,1.3,4,3h16C20,1.3,18.7,0,17,0z"></path> <path data-color="color-2" fill="currentColor" d="M20,5H4v11h16V5z M16,12h-0.6l-1.7,1.7C13.5,13.9,13.3,14,13,14c-0.1,0-0.1,0-0.2,0 c-0.3-0.1-0.6-0.3-0.7-0.5l-1.4-2.8l-1,1C9.5,11.9,9.3,12,9,12H8c-0.6,0-1-0.4-1-1s0.4-1,1-1h0.6l1.7-1.7C10.5,8.1,10.8,8,11.2,8 c0.3,0.1,0.6,0.3,0.7,0.5l1.4,2.8l1-1c0.2-0.2,0.4-0.3,0.7-0.3h1c0.6,0,1,0.4,1,1S16.6,12,16,12z"></path> <path fill="currentColor" d="M4,18v3c0,1.7,1.3,3,3,3h10c1.7,0,3-1.3,3-3v-3H4z M13,22h-2c-0.6,0-1-0.4-1-1s0.4-1,1-1h2c0.6,0,1,0.4,1,1 S13.6,22,13,22z"></path></g></svg>