<svg id="nc_icon" version="1.1" xmlns="http://www.w3.org/2000/svg" xmlns:xlink="http://www.w3.org/1999/xlink" x="0px" y="0px" viewBox="0 0 24 24" xml:space="preserve" ><g class="nc-icon-wrapper" fill="currentColor"><path fill="currentColor" d="M20.6484375,7.2524414c-1.3303833-1.2162476-2.9550171-1.8215942-4.7162476-1.7736816 c-0.4325562-0.376709-0.9187012-0.6914673-1.4464722-0.9329834C15.0786743,3.6269531,16,3,16,3l-2-2 c-1.1529541,0.2712402-2.4015503,1.5779419-2.8319702,3.0645752c-1.2316284,0.1719971-2.3422241,0.7174683-3.21698,1.5203857 C3.1088867,5.8616333,0,9.8945312,0,16c0,7,8.4091797,7,12,7c3.8950195,0,12,0,12-7 C24,12.4946289,22.7158203,9.1425781,20.6484375,7.2524414z M4,16l2-4l5.0322266,4H4z M12.9677734,16L18,12l2,4H12.9677734z"></path></g></svg>