<svg id="nc_icon" version="1.1" xmlns="http://www.w3.org/2000/svg" xmlns:xlink="http://www.w3.org/1999/xlink" x="0px" y="0px" viewBox="0 0 24 24" xml:space="preserve" ><g class="nc-icon-wrapper" fill="currentColor"><path fill="currentColor" d="M12.625,3.219c-0.301-0.241-0.712-0.288-1.058-0.12C11.22,3.266,11,3.615,11,4v6.719l-9.375-7.5 c-0.301-0.241-0.713-0.288-1.058-0.12C0.22,3.266,0,3.615,0,4v16c0,0.385,0.22,0.734,0.567,0.901C0.705,20.968,0.853,21,1,21 c0.223,0,0.444-0.074,0.625-0.219l9.375-7.5V20c0,0.385,0.22,0.734,0.567,0.901C11.705,20.968,11.853,21,12,21 c0.223,0,0.444-0.074,0.625-0.219l10-8C22.862,12.591,23,12.304,23,12s-0.138-0.591-0.375-0.781L12.625,3.219z"></path></g></svg>