<svg id="nc_icon" version="1.1" xmlns="http://www.w3.org/2000/svg" xmlns:xlink="http://www.w3.org/1999/xlink" x="0px" y="0px" viewBox="0 0 24 24" xml:space="preserve" ><g class="nc-icon-wrapper" fill="currentColor"><path fill="currentColor" d="M20,10V5c0-0.552-0.447-1-1-1h-5c0-2.206-1.794-4-4-4S6,1.794,6,4H1C0.447,4,0,4.448,0,5v5 c2.209,0,4,1.791,4,4s-1.791,4-4,4v5c0,0.552,0.447,1,1,1h5c0-2.209,1.791-4,4-4s4,1.791,4,4h5c0.553,0,1-0.448,1-1v-5 c2.206,0,4-1.794,4-4S22.206,10,20,10z"></path></g></svg>