<svg id="nc_icon" version="1.1" xmlns="http://www.w3.org/2000/svg" xmlns:xlink="http://www.w3.org/1999/xlink" x="0px" y="0px" viewBox="0 0 24 24" xml:space="preserve" ><g class="nc-icon-wrapper" fill="currentColor"><path fill="currentColor" d="M22,0H2C1.448,0,1,0.448,1,1v22c0,0.552,0.448,1,1,1h20c0.552,0,1-0.448,1-1V1C23,0.448,22.552,0,22,0z M12,20c-0.552,0-1-0.448-1-1c0-0.552,0.448-1,1-1c0.552,0,1,0.448,1,1C13,19.552,12.552,20,12,20z M13,12.868V16h-2v-4 c0-0.552,0.448-1,1-1c1.065,0,2-0.935,2-2s-0.935-2-2-2c-0.812,0-1.592,0.672-1.875,1.322L9.724,9.238L7.891,8.437l0.4-0.916 C8.93,6.06,10.49,5,12,5c2.168,0,4,1.832,4,4C16,10.824,14.703,12.411,13,12.868z"></path></g></svg>