<svg id="nc_icon" version="1.1" xmlns="http://www.w3.org/2000/svg" xmlns:xlink="http://www.w3.org/1999/xlink" x="0px" y="0px" viewBox="0 0 24 24" xml:space="preserve" ><g class="nc-icon-wrapper" fill="currentColor"><path fill="currentColor" d="M22.8369141,2.0991211c-0.2548828-1.027832-0.8085938-1.5253906-1.2285156-1.7612305 c-2.5927734-1.4575195-6.8837891,2.5717773-8.4609375,5.1386719c-0.4541016,0.7402344-0.8916016,1.6337891-1.2617188,2.5751953 C10.828125,7.9287109,9.7880859,8.0249023,8.7792969,8.3344727C5.3759766,9.3745117,3,12.7070312,3,16.4379883V18 c0,3.3085938,2.6914062,6,6,6h1.7822266c4.0263672,0,7.4306641-2.7802734,8.0966797-6.6108398 c0.2392578-1.3769531,0.1191406-2.7700195-0.3466797-4.0708008c0.8896484-0.8647461,1.7109375-1.8496094,2.3085938-2.7763672 C22.0742188,8.6289062,23.4296875,4.4912109,22.8369141,2.0991211z M8.5,17C7.6715698,17,7,16.3284302,7,15.5S7.6715698,14,8.5,14 s1.5,0.6715698,1.5,1.5S9.3284302,17,8.5,17z"></path> <path data-color="color-2" fill="currentColor" d="M8.1943359,6.421875c0.7822266-0.2402344,1.5878906-0.3789062,2.3984375-0.4135742 c0.2685547-0.5649414,0.5556641-1.0976562,0.8496094-1.5776367c0.1228638-0.1998901,0.2762451-0.4248047,0.4441528-0.659729 c-0.75-1.4428711-1.6489258-2.6843262-2.5623169-3.3070679C8.7480469,0.0712891,8.1757812-0.0756836,7.6259766,0.0336914 C7.2470703,0.1074219,6.7070312,0.3457031,6.2792969,1.0600586C5.4456787,2.4543457,5.3579102,5.2340088,5.6384277,7.6470337 C6.4203491,7.1237183,7.2748413,6.7028809,8.1943359,6.421875z"></path></g></svg>