<svg id="nc_icon" version="1.1" xmlns="http://www.w3.org/2000/svg" xmlns:xlink="http://www.w3.org/1999/xlink" x="0px" y="0px" viewBox="0 0 24 24" xml:space="preserve" ><g class="nc-icon-wrapper" fill="currentColor"><path data-color="color-2" fill="currentColor" d="M5,12c0,3.86,3.14,7,7,7c0.813,0,1.603-0.146,2.347-0.41l-1.657-1.657 C12.462,16.964,12.234,17,12,17c-2.757,0-5-2.243-5-5s2.243-5,5-5c0.234,0,0.462,0.036,0.69,0.067l1.657-1.657 C13.603,5.146,12.813,5,12,5C8.14,5,5,8.14,5,12z"></path> <path fill="currentColor" d="M12,0C5.383,0,0,5.383,0,12s5.383,12,12,12s12-5.383,12-12S18.617,0,12,0z M2,12C2,6.486,6.486,2,12,2 c2.398,0,4.6,0.85,6.324,2.262l-5.813,5.813C12.347,10.031,12.178,10,12,10c-1.103,0-2,0.897-2,2s0.897,2,2,2 c0.178,0,0.347-0.031,0.511-0.075l5.813,5.813C16.6,21.15,14.398,22,12,22C6.486,22,2,17.514,2,12z"></path></g></svg>