<svg id="nc_icon" version="1.1" xmlns="http://www.w3.org/2000/svg" xmlns:xlink="http://www.w3.org/1999/xlink" x="0px" y="0px" viewBox="0 0 24 24" xml:space="preserve" ><g class="nc-icon-wrapper" fill="currentColor"><path fill="currentColor" d="M21.3,2.3l-10,10c-0.4,0.4-0.4,1,0,1.4c0.2,0.2,0.5,0.3,0.7,0.3s0.5-0.1,0.7-0.3l10-10c0.4-0.4,0.4-1,0-1.4 S21.7,1.9,21.3,2.3z"></path> <path fill="currentColor" d="M21.3,9.3l-10,10c-0.4,0.4-0.4,1,0,1.4c0.2,0.2,0.5,0.3,0.7,0.3s0.5-0.1,0.7-0.3l10-10c0.4-0.4,0.4-1,0-1.4 S21.7,8.9,21.3,9.3z"></path> <path fill="currentColor" d="M12.7,5.3c-0.4-0.4-1-0.4-1.4,0l-10,10c-0.4,0.4-0.4,1,0,1.4C1.5,16.9,1.7,17,2,17s0.5-0.1,0.7-0.3l10-10 C13.1,6.3,13.1,5.7,12.7,5.3z"></path></g></svg>