<svg id="nc_icon" version="1.1" xmlns="http://www.w3.org/2000/svg" xmlns:xlink="http://www.w3.org/1999/xlink" x="0px" y="0px" viewBox="0 0 24 24" xml:space="preserve" ><g class="nc-icon-wrapper" fill="currentColor"><path fill="currentColor" d="M12,5C5.4,5,0,10.4,0,17c0,0.6,0.4,1,1,1s1-0.4,1-1C2,11.5,6.5,7,12,7s10,4.5,10,10c0,0.6,0.4,1,1,1 s1-0.4,1-1C24,10.4,18.6,5,12,5z"></path> <path data-color="color-2" fill="currentColor" d="M12,9c-4.4,0-8,3.6-8,8c0,0.6,0.4,1,1,1s1-0.4,1-1c0-3.3,2.7-6,6-6s6,2.7,6,6c0,0.6,0.4,1,1,1s1-0.4,1-1 C20,12.6,16.4,9,12,9z"></path> <path fill="currentColor" d="M12,13c-2.2,0-4,1.8-4,4c0,0.6,0.4,1,1,1s1-0.4,1-1c0-1.1,0.9-2,2-2s2,0.9,2,2c0,0.6,0.4,1,1,1s1-0.4,1-1 C16,14.8,14.2,13,12,13z"></path></g></svg>