<svg id="nc_icon" version="1.1" xmlns="http://www.w3.org/2000/svg" xmlns:xlink="http://www.w3.org/1999/xlink" x="0px" y="0px" viewBox="0 0 24 24" xml:space="preserve" ><g class="nc-icon-wrapper" fill="currentColor"><path fill="currentColor" d="M24,6c0-3.30859-2.91602-6-6.5-6c-1.85968,0-3.63739,0.75269-4.87073,2.02789 c-0.54113-0.0371-0.71519-0.03725-1.25854,0C10.13739,0.75269,8.35968,0,6.5,0C2.91602,0,0,2.69141,0,6 c0,2.60211,1.78937,4.84064,4.40948,5.66254c0.30725,1.28717,0.77539,2.80267,1.36029,4.3244l-2.62134-0.39319 c-0.55664-0.0752-1.05566,0.29492-1.1377,0.84082s0.29492,1.05566,0.84082,1.1377l3.8327,0.57489 c0.22882,0.49127,0.46735,0.9718,0.71594,1.43188l-3.56818,0.60748c-0.54395,0.0918-0.91016,0.6084-0.81738,1.15332 c0.08301,0.4873,0.50586,0.83203,0.98438,0.83203c0.05566,0,0.1123-0.00488,0.16895-0.01465l4.35797-0.74194 C9.61053,22.95868,10.80225,24,12,24s2.38947-1.04132,3.47406-2.58472l4.35797,0.74194 c0.05664,0.00977,0.11328,0.01465,0.16895,0.01465c0.47852,0,0.90137-0.34473,0.98438-0.83203 c0.09277-0.54492-0.27344-1.06152-0.81738-1.15332l-3.56818-0.60748c0.2486-0.46008,0.48712-0.94061,0.71594-1.43188l3.8327-0.57489 c0.5459-0.08203,0.92285-0.5918,0.84082-1.1377c-0.08301-0.5459-0.5791-0.91602-1.1377-0.84082l-2.62134,0.39319 c0.5849-1.52173,1.05304-3.03723,1.36029-4.3244C22.21063,10.84064,24,8.60211,24,6z M4,9c0,0.1026,0.00397,0.21368,0.01172,0.3324 C2.78162,8.60706,2,7.37463,2,6c0-2.20605,2.01855-4,4.5-4c0.82642,0,1.62415,0.21014,2.31897,0.58063 C5.98682,3.65948,4,6.12964,4,9z M8.5,12C7.67157,12,7,11.32843,7,10.5S7.67157,9,8.5,9S10,9.67157,10,10.5S9.32843,12,8.5,12z M15.5,12c-0.82843,0-1.5-0.67157-1.5-1.5S14.67157,9,15.5,9S17,9.67157,17,10.5S16.32843,12,15.5,12z M15.18103,2.58063 C15.87585,2.21014,16.67358,2,17.5,2C19.98145,2,22,3.79395,22,6c0,1.37463-0.78162,2.60706-2.01172,3.3324 C19.99603,9.21368,20,9.1026,20,9C20,6.12964,18.01318,3.65948,15.18103,2.58063z"></path></g></svg>