<svg id="nc_icon" xmlns="http://www.w3.org/2000/svg" xmlns:xlink="http://www.w3.org/1999/xlink" x="0px" y="0px" viewBox="0 0 24 24" ><g class="nc-icon-wrapper" fill="currentColor"><path fill="currentColor" d="M18,0H2C1.447,0,1,0.448,1,1v22c0,0.552,0.447,1,1,1h16c1.654,0,3-1.346,3-3V3C21,1.346,19.654,0,18,0z M15,10c0,1.654-1.346,3-3,3v6h-2v-6c-1.654,0-3-1.346-3-3V6h2v4c0,0.551,0.448,1,1,1V6h2v5c0.552,0,1-0.449,1-1V6h2V10z"></path> <rect data-color="color-2" x="22" y="4" fill="currentColor" width="2" height="6"></rect></g></svg>