<svg id="nc_icon" version="1.1" xmlns="http://www.w3.org/2000/svg" xmlns:xlink="http://www.w3.org/1999/xlink" x="0px" y="0px" viewBox="0 0 24 24" xml:space="preserve" ><g class="nc-icon-wrapper" fill="currentColor"><path fill="currentColor" d="M22.84814,18.46973l-2.64062-4.22559l-1.69629,1.06055L20.1958,18H15v-2 c0-0.4043-0.24365-0.76953-0.61719-0.92383c-0.37451-0.15625-0.8042-0.07031-1.08984,0.2168l-3,3 c-0.39062,0.39062-0.39062,1.02344,0,1.41406l3,3C13.48438,22.89844,13.73975,23,14,23c0.12891,0,0.25879-0.02441,0.38281-0.07617 C14.75635,22.76953,15,22.4043,15,22v-2h7c0.36328,0,0.69824-0.19727,0.87451-0.51562 C23.05078,19.16699,23.04053,18.77832,22.84814,18.46973z"></path> <path fill="currentColor" d="M11.99854,4.88965l2.46478,3.95929l-1.64398,1.04169c-0.3418,0.2168-0.51953,0.61719-0.4502,1.01562 s0.37207,0.7168,0.7666,0.80469l4.02295,0.90234c0.07373,0.0166,0.14697,0.02441,0.21973,0.02441 c0.45752,0,0.87061-0.31543,0.97461-0.78125l0.90283-4.02344c0.08887-0.39453-0.06934-0.80371-0.3999-1.03613 c-0.33154-0.23438-0.77051-0.24414-1.11084-0.02734l-1.59229,1.00891l-3.30371-5.30676C12.6665,2.17871,12.34619,2,12.00098,2 c-0.00049,0-0.00049,0-0.00049,0c-0.34521,0-0.66553,0.17773-0.84863,0.46973L8.65869,6.45898l1.69629,1.06055L11.99854,4.88965z"></path> <path fill="currentColor" d="M8.62451,9.75781C8.49023,9.2207,7.94629,8.89648,7.41162,9.03027l-4,1 c-0.39209,0.09766-0.68701,0.42285-0.74658,0.82227c-0.05957,0.40039,0.12793,0.79688,0.47461,1.00488l1.57355,0.94409 l-3.55988,5.66626C0.95947,18.77637,0.94873,19.16504,1.125,19.4834C1.30078,19.80273,1.63623,20,2,20h5v-2H3.80908l2.61945-4.16925 l1.71112,1.02667C8.29883,14.95312,8.47656,15,8.6543,15c0.20996,0,0.41943-0.06641,0.59521-0.19629 c0.3252-0.24121,0.47314-0.6543,0.375-1.0459L8.62451,9.75781z"></path></g></svg>