<svg id="nc_icon" version="1.1" xmlns="http://www.w3.org/2000/svg" xmlns:xlink="http://www.w3.org/1999/xlink" x="0px" y="0px" viewBox="0 0 24 24" xml:space="preserve" ><g class="nc-icon-wrapper" fill="currentColor"><path fill="currentColor" d="M2.001,10.98C2.068,10.994,2.135,11,2.201,11c0.466,0,0.883-0.327,0.979-0.801C4.027,6.027,7.736,3,12,3 c1.821,0,3.562,0.544,5.039,1.547l-3.12,3.12l9.297,1.549l-1.549-9.297l-3.198,3.198C16.599,1.75,14.356,1,12,1 C6.789,1,2.255,4.701,1.22,9.801C1.11,10.342,1.46,10.87,2.001,10.98z"></path> <path fill="currentColor" d="M21.999,13.02c-0.541-0.111-1.069,0.24-1.179,0.781C19.973,17.973,16.264,21,12,21 c-1.821,0-3.562-0.544-5.039-1.547l3.12-3.12l-9.297-1.549l1.549,9.297l3.198-3.198C7.401,22.25,9.644,23,12,23 c5.211,0,9.745-3.701,10.78-8.801C22.89,13.658,22.54,13.13,21.999,13.02z" data-color="color-2"></path> </g></svg>