<svg id="nc_icon" version="1.1" xmlns="http://www.w3.org/2000/svg" xmlns:xlink="http://www.w3.org/1999/xlink" x="0px" y="0px" viewBox="0 0 24 24" xml:space="preserve" ><g class="nc-icon-wrapper" fill="currentColor"><circle data-color="color-2" fill="currentColor" cx="12" cy="12" r="3"></circle> <path fill="currentColor" d="M12,3c1.989,0,3.873,0.65,5.43,1.833l-3.604,3.393l9.167,0.983L22.562,0l-3.655,3.442 C16.957,1.862,14.545,1,12,1C5.935,1,1,5.935,1,12h2C3,7.037,7.037,3,12,3z"></path> <path fill="currentColor" d="M12,21c-1.989,0-3.873-0.65-5.43-1.833l3.604-3.393l-9.167-0.983L1.438,24l3.655-3.442 C7.043,22.138,9.455,23,12,23c6.065,0,11-4.935,11-11h-2C21,16.963,16.963,21,12,21z"></path></g></svg>