<svg id="nc_icon" version="1.1" xmlns="http://www.w3.org/2000/svg" xmlns:xlink="http://www.w3.org/1999/xlink" x="0px" y="0px" viewBox="0 0 24 24" xml:space="preserve" ><g class="nc-icon-wrapper" fill="currentColor"><path fill="currentColor" d="M23,2H1C0.448,2,0,2.448,0,3v18c0,0.552,0.448,1,1,1h22c0.552,0,1-0.448,1-1V3C24,2.448,23.552,2,23,2z M8,17c-2.761,0-5-2.239-5-5s2.239-5,5-5s5,2.239,5,5S10.761,17,8,17z M19,18h-2v-6h2V18z M21,10h-6V8h2V6h2v2h2V10z"></path> <circle data-color="color-2" fill="currentColor" cx="8" cy="12" r="2"></circle></g></svg>