<svg id="nc_icon" version="1.1" xmlns="http://www.w3.org/2000/svg" xmlns:xlink="http://www.w3.org/1999/xlink" x="0px" y="0px" viewBox="0 0 24 24" xml:space="preserve" ><g class="nc-icon-wrapper" fill="currentColor"><path fill="currentColor" d="M11,8H5c-1.103,0-2,0.897-2,2v12c0,1.103,0.897,2,2,2h6c1.103,0,2-0.897,2-2V10C13,8.897,12.103,8,11,8z M8,14c-0.552,0-1-0.448-1-1c0-0.552,0.448-1,1-1s1,0.448,1,1C9,13.552,8.552,14,8,14z"></path> <path data-color="color-2" fill="currentColor" d="M17,11h-2v-1c0-2.206-1.794-4-4-4h-1V4h1c3.309,0,6,2.691,6,6V11z"></path> <path data-color="color-2" fill="currentColor" d="M21,11h-2v-1c0-4.411-3.589-8-8-8h-1V0h1c5.514,0,10,4.486,10,10V11z"></path></g></svg>