<svg id="nc_icon" xmlns="http://www.w3.org/2000/svg" xmlns:xlink="http://www.w3.org/1999/xlink" x="0px" y="0px" viewBox="0 0 24 24" ><g class="nc-icon-wrapper" fill="currentColor"><path d="M2,1A1,1,0,0,1,3,0H21a1,1,0,0,1,0,2H3A1,1,0,0,1,2,1Z" fill="currentColor" data-color="color-2"></path> <path d="M2,23a1,1,0,0,1,1-1H21a1,1,0,0,1,0,2H3A1,1,0,0,1,2,23Z" fill="currentColor" data-color="color-2"></path> <polygon points="17 9 12 4 7 9 17 9" fill="currentColor"></polygon> <polygon points="17 15 7 15 12 20 17 15" fill="currentColor"></polygon></g></svg>