<svg id="nc_icon" version="1.1" xmlns="http://www.w3.org/2000/svg" xmlns:xlink="http://www.w3.org/1999/xlink" x="0px" y="0px" viewBox="0 0 24 24" xml:space="preserve" ><g class="nc-icon-wrapper" fill="currentColor"><polygon data-color="color-2" fill="currentColor" points="11,6 11,12.414 16,17.414 17.414,16 13,11.586 13,6 "></polygon> <path fill="currentColor" d="M1,12c0,6.065,4.935,11,11,11s11-4.935,11-11S18.065,1,12,1C9.455,1,7.043,1.862,5.093,3.442l-2.76-2.588 L1.688,8.438l7.604-1.062L6.57,4.833C8.127,3.65,10.011,3,12,3c4.963,0,9,4.037,9,9s-4.037,9-9,9s-9-4.037-9-9H1z"></path></g></svg>