<svg id="nc_icon" xmlns="http://www.w3.org/2000/svg" xmlns:xlink="http://www.w3.org/1999/xlink" x="0px" y="0px" viewBox="0 0 24 24" ><g class="nc-icon-wrapper" fill="currentColor"><path d="M23,11H1a1,1,0,0,0-1,1A12.029,12.029,0,0,0,7.021,22.909,1,1,0,0,0,7.437,23h9.126a1,1,0,0,0,.416-.091A12.029,12.029,0,0,0,24,12,1,1,0,0,0,23,11Z" fill="currentColor"></path> <path d="M3.171,10H20.829a1,1,0,0,0,.943-1.333,3.983,3.983,0,0,0-1.418-1.895l3.478-5.217L22.168.445l-3.726,5.59A3.817,3.817,0,0,0,18,6a3.957,3.957,0,0,0-1.466.279l1.408-3.943-1.884-.672L14.721,5.409a3.95,3.95,0,0,0-2.89-.227,3.979,3.979,0,0,0-6.3.845,4.009,4.009,0,0,0-3.306,2.64A1,1,0,0,0,3.171,10Z" fill="currentColor" data-color="color-2"></path> <circle cx="4" cy="3" r="1" fill="currentColor"></circle> <circle cx="12" cy="2" r="1" fill="currentColor"></circle></g></svg>