<svg id="nc_icon" version="1.1" xmlns="http://www.w3.org/2000/svg" xmlns:xlink="http://www.w3.org/1999/xlink" x="0px" y="0px" viewBox="0 0 24 24" xml:space="preserve" ><g class="nc-icon-wrapper" fill="currentColor"><path d="M12,0A12,12,0,1,0,24,12,12.013,12.013,0,0,0,12,0Zm0,3a1,1,0,1,1-1,1A1,1,0,0,1,12,3ZM4,13a1,1,0,1,1,1-1A1,1,0,0,1,4,13Zm3.05,5.364a1,1,0,1,1,0-1.414A1,1,0,0,1,7.05,18.364Zm0-11.314a1,1,0,1,1,0-1.414A1,1,0,0,1,7.05,7.05ZM12,21a1,1,0,1,1,1-1A1,1,0,0,1,12,21Zm0-5a4,4,0,1,1,4-4A4,4,0,0,1,12,16Zm6.364,2.364a1,1,0,1,1,0-1.414A1,1,0,0,1,18.364,18.364Zm0-11.314a1,1,0,1,1,0-1.414A1,1,0,0,1,18.364,7.05ZM20,13a1,1,0,1,1,1-1A1,1,0,0,1,20,13Z" fill="currentColor"></path></g></svg>