<svg id="nc_icon" version="1.1" xmlns="http://www.w3.org/2000/svg" xmlns:xlink="http://www.w3.org/1999/xlink" x="0px" y="0px" viewBox="0 0 24 24" xml:space="preserve" ><g class="nc-icon-wrapper" fill="currentColor"><path data-color="color-2" fill="currentColor" d="M17,21H7c-0.6,0-1,0.4-1,1v1c0,0.6,0.4,1,1,1h10c0.6,0,1-0.4,1-1v-1C18,21.4,17.6,21,17,21z"></path> <path fill="currentColor" d="M23,5h-8V3c0-1.7-1.3-3-3-3c-1.7,0-3,1.3-3,3v2H1C0.4,5,0,5.4,0,6v3c0,0.6,0.4,1,1,1h2v2c0,0.6,0.4,1,1,1h3 v6h10v-6h3c0.6,0,1-0.4,1-1v-2h2c0.6,0,1-0.4,1-1V6C24,5.4,23.6,5,23,5z"></path></g></svg>