<svg id="nc_icon" xmlns="http://www.w3.org/2000/svg" xmlns:xlink="http://www.w3.org/1999/xlink" x="0px" y="0px" viewBox="0 0 24 24" ><g class="nc-icon-wrapper" fill="currentColor"><path d="M23,20H1a1,1,0,0,1,0-2H23a1,1,0,0,1,0,2Z" fill="currentColor" data-color="color-2"></path> <path d="M9.464,15.535a5,5,0,0,1,0-7.071,16.68,16.68,0,0,1,3.5-2.4C12.641,6.039,12.324,6,12,6,6.486,6,2,10.037,2,15v1h8.03A4.992,4.992,0,0,1,9.464,15.535Z" fill="currentColor"></path> <path d="M19.986,9.592a12.505,12.505,0,0,1-.746,1.84,17.5,17.5,0,0,1-2.7,4.1A4.973,4.973,0,0,1,15.97,16H22V15A8.439,8.439,0,0,0,19.986,9.592Z" fill="currentColor"></path> <path d="M22,3a2,2,0,1,0-3.088,1.674l-2.08,2.08c-1.873.226-5.03,2.2-5.953,3.125a3,3,0,0,0,4.242,4.242c.924-.923,2.9-4.08,3.125-5.953l2.08-2.08A2,2,0,1,0,22,3Z" fill="currentColor"></path></g></svg>