<svg id="nc_icon" version="1.1" xmlns="http://www.w3.org/2000/svg" xmlns:xlink="http://www.w3.org/1999/xlink" x="0px" y="0px" viewBox="0 0 24 24" xml:space="preserve" ><g class="nc-icon-wrapper" fill="currentColor"><path fill="currentColor" d="M23,6h-3V2h1c0.6,0,1-0.4,1-1s-0.4-1-1-1h-4c-0.6,0-1,0.4-1,1s0.4,1,1,1h1v4H6V2h1c0.6,0,1-0.4,1-1 S7.6,0,7,0H3C2.4,0,2,0.4,2,1s0.4,1,1,1h1v4H1C0.4,6,0,6.4,0,7v16c0,0.6,0.4,1,1,1h22c0.6,0,1-0.4,1-1V7C24,6.4,23.6,6,23,6z M5,9h4 v2H5V9z M19,21H5v-6h14V21z M19,11h-4V9h4V11z"></path></g></svg>