<svg id="nc_icon" version="1.1" xmlns="http://www.w3.org/2000/svg" xmlns:xlink="http://www.w3.org/1999/xlink" x="0px" y="0px" viewBox="0 0 24 24" xml:space="preserve" ><g class="nc-icon-wrapper" fill="currentColor"><path fill="currentColor" d="M23,0c-0.6,0-1,0.4-1,1v2h-2V1c0-0.6-0.4-1-1-1c-0.6,0-1,0.4-1,1v3c0,0.6,0.4,1,1,1h1v8h-0.1 c-0.3-3.3-2.2-6.1-4.9-7.6V2c0-0.6-0.4-1-1-1c-0.6,0-1,0.4-1,1v2.5c-0.6-0.2-1.3-0.3-2-0.4V2c0-0.6-0.4-1-1-1C9.4,1,9,1.4,9,2v2.1 C8.3,4.1,7.6,4.3,7,4.5V2c0-0.6-0.4-1-1-1C5.4,1,5,1.4,5,2v3.4c-3,1.7-5,5-5,8.6c0,5.5,4.5,10,10,10c5.2,0,9.4-4,9.9-9H21 c0.6,0,1-0.4,1-1V5h1c0.6,0,1-0.4,1-1V1C24,0.4,23.6,0,23,0z M5,9h4v2H5V9z M10,20c-1.7,0-3-1.3-3-3s1.3-3,3-3c1.7,0,3,1.3,3,3 S11.7,20,10,20z M15,11h-4V9h4V11z"></path></g></svg>