<svg id="nc_icon" xmlns="http://www.w3.org/2000/svg" xmlns:xlink="http://www.w3.org/1999/xlink" x="0px" y="0px" viewBox="0 0 24 24" ><g class="nc-icon-wrapper" fill="currentColor"><path fill="currentColor" d="M20.485,6.343l-2.829-2.829c-0.779-0.778-2.047-0.779-2.828,0L3.514,14.829 c-0.779,0.779-0.779,2.048,0,2.828l2.829,2.829c0,0,0,0,0,0c0.39,0.389,0.901,0.584,1.414,0.584c0.512,0,1.024-0.195,1.414-0.584 L20.486,9.171C21.265,8.392,21.265,7.123,20.485,6.343z"></path> <path data-color="color-2" fill="currentColor" d="M21.899,4.929l0.515-0.515c0.781-0.781,0.781-2.047,0-2.828 c-0.781-0.781-2.047-0.781-2.828,0l-0.515,0.515L21.899,4.929z"></path> <path data-color="color-2" fill="currentColor" d="M4.929,21.899l-0.515,0.515c-0.781,0.781-2.047,0.781-2.828,0 c-0.781-0.781-0.781-2.047,0-2.828l0.515-0.515L4.929,21.899z"></path></g></svg>