<svg id="nc_icon" version="1.1" xmlns="http://www.w3.org/2000/svg" xmlns:xlink="http://www.w3.org/1999/xlink" x="0px" y="0px" viewBox="0 0 24 24" xml:space="preserve" ><g class="nc-icon-wrapper" fill="currentColor"><path fill="currentColor" d="M10,21h9c0.379,0,0.725-0.214,0.895-0.553s0.133-0.744-0.095-1.047l-3-4 c-0.319-0.425-0.914-0.526-1.354-0.232l-6,4c-0.367,0.245-0.53,0.7-0.402,1.122C9.17,20.711,9.56,21,10,21z"></path> <path fill="currentColor" d="M22,10H7c-0.552,0-1,0.448-1,1v12c0,0.552,0.448,1,1,1h15c0.552,0,1-0.448,1-1V11C23,10.448,22.552,10,22,10 z M21,22H8V12h13V22z"></path> <circle fill="currentColor" cx="11" cy="15" r="1"></circle> <path data-color="color-2" fill="currentColor" d="M9,5v3l5-4L9,0v3H6C2.691,3,0,5.691,0,9v3h2V9c0-2.206,1.794-4,4-4H9z"></path></g></svg>