<svg id="nc_icon" version="1.1" xmlns="http://www.w3.org/2000/svg" xmlns:xlink="http://www.w3.org/1999/xlink" x="0px" y="0px" viewBox="0 0 24 24" xml:space="preserve" ><g class="nc-icon-wrapper" fill="currentColor"><path data-color="color-2" fill="currentColor" d="M8,24H7c-3.859,0-7-3.14-7-7v-1h2v1c0,2.757,2.243,5,5,5h1V24z"></path> <path fill="currentColor" d="M23,14h-2.313c-0.029,0.039-0.045,0.086-0.081,0.121l-6.485,6.485c-0.391,0.391-1.024,0.391-1.414,0 l-9.314-9.314c-0.391-0.391-0.391-1.024,0-1.414l6.485-6.485c0.391-0.391,1.024-0.391,1.414,0l1.114,1.114 c0.342-0.592,0.877-1.057,1.523-1.305L12,1.272c-1.17-1.17-3.073-1.17-4.243,0L1.272,7.757c-1.17,1.17-1.17,3.073,0,4.243L12,22.728 c1.17,1.17,3.073,1.17,4.243,0l6.485-6.485c0.631-0.631,0.91-1.475,0.86-2.302C23.398,13.979,23.201,14,23,14z"></path> <path data-color="color-2" fill="currentColor" d="M23,5h-1V3c0-1.654-1.346-3-3-3s-3,1.346-3,3v2h-1c-0.552,0-1,0.448-1,1v5 c0,0.552,0.448,1,1,1h8c0.552,0,1-0.448,1-1V6C24,5.448,23.552,5,23,5z M18,3c0-0.551,0.449-1,1-1s1,0.449,1,1v2h-2V3z"></path></g></svg>