<svg id="nc_icon" version="1.1" xmlns="http://www.w3.org/2000/svg" xmlns:xlink="http://www.w3.org/1999/xlink" x="0px" y="0px" viewBox="0 0 24 24" xml:space="preserve" ><g class="nc-icon-wrapper" fill="currentColor"><path data-color="color-2" fill="currentColor" d="M15,5l-5-4v3.06146c-4.08417,0.45587-7.41193,3.65979-7.93018,7.815l1.98438,0.24707 C4.44775,8.96918,6.92596,6.52252,10,6.07892V9L15,5z"></path> <path fill="currentColor" d="M18.5,8c-2.48145,0-4.5,2.01855-4.5,4.5s2.01855,4.5,4.5,4.5s4.5-2.01855,4.5-4.5S20.98145,8,18.5,8z"></path> <path fill="currentColor" d="M5.5,15C3.01855,15,1,17.01855,1,19.5S3.01855,24,5.5,24s4.5-2.01855,4.5-4.5S7.98145,15,5.5,15z"></path></g></svg>