<svg id="nc_icon" version="1.1" xmlns="http://www.w3.org/2000/svg" xmlns:xlink="http://www.w3.org/1999/xlink" x="0px" y="0px" viewBox="0 0 24 24" xml:space="preserve" ><g class="nc-icon-wrapper" fill="currentColor"><path fill="currentColor" d="M4,21h9c0.379,0,0.725-0.214,0.895-0.553c0.169-0.339,0.133-0.744-0.095-1.047l-3-4 c-0.317-0.424-0.913-0.527-1.354-0.232l-6,4c-0.366,0.245-0.53,0.7-0.402,1.122C3.171,20.711,3.56,21,4,21z"></path> <path fill="currentColor" d="M16,10H1c-0.553,0-1,0.448-1,1v12c0,0.552,0.447,1,1,1h15c0.553,0,1-0.448,1-1V11C17,10.448,16.553,10,16,10 z M15,22H2V12h13V22z"></path> <circle fill="currentColor" cx="5" cy="15" r="1"></circle> <path data-color="color-2" fill="currentColor" d="M18,3h-3V0l-5,4l5,4V5h3c2.206,0,4,1.794,4,4v3h2V9C24,5.691,21.309,3,18,3z"></path></g></svg>