<svg id="nc_icon" version="1.1" xmlns="http://www.w3.org/2000/svg" xmlns:xlink="http://www.w3.org/1999/xlink" x="0px" y="0px" viewBox="0 0 24 24" xml:space="preserve" ><g class="nc-icon-wrapper" fill="currentColor"><path fill="currentColor" d="M12,0C5.383,0,0,5.383,0,12s5.383,12,12,12s12-5.383,12-12S18.617,0,12,0z M16.501,18.063 C15.441,18.676,14.23,19,13,19c-2.785,0-5.188-1.639-6.315-4H4v-2h2.08C6.033,12.672,6,12.34,6,12s0.033-0.672,0.08-1H4V9h2.685 C7.812,6.639,10.215,5,13,5c1.23,0,2.44,0.324,3.5,0.937l0.865,0.501l-1.002,1.731l-0.865-0.5C14.743,7.231,13.879,7,13,7 c-1.627,0-3.061,0.793-3.974,2H13v2H8.101C8.035,11.323,8,11.658,8,12s0.035,0.677,0.101,1H13v2H9.026c0.914,1.207,2.348,2,3.974,2 c0.879,0,1.743-0.231,2.499-0.668l0.866-0.5l1.001,1.731L16.501,18.063z"></path></g></svg>