<svg id="nc_icon" version="1.1" xmlns="http://www.w3.org/2000/svg" xmlns:xlink="http://www.w3.org/1999/xlink" x="0px" y="0px" viewBox="0 0 24 24" xml:space="preserve" ><g class="nc-icon-wrapper" fill="currentColor"><path fill="currentColor" d="M13.592,15.564c0.232-0.163,0.54-0.465,0.54-1.214c0-0.532-0.361-0.851-1.132-1.181v2.659 C13.225,15.759,13.432,15.677,13.592,15.564z"></path> <path fill="currentColor" d="M12,0C5.383,0,0,5.383,0,12s5.383,12,12,12s12-5.383,12-12S18.617,0,12,0z M16.132,14.351 c0,1.549-0.756,2.405-1.391,2.851c-0.497,0.349-1.096,0.557-1.741,0.677V20h-2v-2.037c-1.151-0.087-2.325-0.361-3.34-0.727 l-0.94-0.339l0.679-1.881l0.941,0.34c0.92,0.332,1.834,0.53,2.66,0.606v-3.509c-1.589-0.57-3.352-1.46-3.352-3.722 c0-1.128,0.523-2.059,1.474-2.621C9.664,5.79,10.316,5.617,11,5.536V4h2v1.551c1.177,0.137,2.255,0.46,2.856,0.792l0.877,0.481 L15.77,8.577l-0.876-0.482C14.461,7.857,13.754,7.663,13,7.558v3.464C14.528,11.562,16.132,12.344,16.132,14.351z"></path> <path fill="currentColor" d="M10.141,7.833C9.796,8.037,9.648,8.305,9.648,8.731c0,0.757,0.429,1.17,1.352,1.571V7.556 C10.672,7.613,10.37,7.697,10.141,7.833z"></path></g></svg>