<svg id="nc_icon" version="1.1" xmlns="http://www.w3.org/2000/svg" xmlns:xlink="http://www.w3.org/1999/xlink" x="0px" y="0px" viewBox="0 0 24 24" xml:space="preserve" ><g class="nc-icon-wrapper" fill="currentColor"><path fill="currentColor" d="M9,0H1C0.4,0,0,0.4,0,1v10c0,2.4,1.7,4.4,4,4.9V22H3c-0.6,0-1,0.4-1,1s0.4,1,1,1h4c0.6,0,1-0.4,1-1 s-0.4-1-1-1H6v-6.1c2.3-0.5,4-2.5,4-4.9V1C10,0.4,9.6,0,9,0z"></path> <path data-color="color-2" fill="currentColor" d="M20,8.1V2h1c0.6,0,1-0.4,1-1s-0.4-1-1-1h-4c-0.6,0-1,0.4-1,1s0.4,1,1,1h1v6.1 c-2.3,0.5-4,2.5-4,4.9v10c0,0.6,0.4,1,1,1h8c0.6,0,1-0.4,1-1V13C24,10.6,22.3,8.6,20,8.1z"></path></g></svg>