<svg id="nc_icon" version="1.1" xmlns="http://www.w3.org/2000/svg" xmlns:xlink="http://www.w3.org/1999/xlink" x="0px" y="0px" viewBox="0 0 24 24" xml:space="preserve" ><g class="nc-icon-wrapper" fill="currentColor"><path data-color="color-2" fill="currentColor" d="M23.1358643,8.7218018c0.4291992-2.9161377-0.0172729-5.4254761-1.2261963-6.6343994 c-1.2657471-1.2659912-3.7948608-1.6607666-6.6372681-1.2290649L23.1358643,8.7218018z"></path> <path fill="currentColor" d="M12.9641113,1.3781738C10.3605347,2.1514893,7.704834,3.56427,5.6464844,5.6230469 c-2.1707764,2.1705933-3.5602417,4.7845459-4.3025513,7.3068237l9.7158813,9.7158813 c2.0635986-0.609375,4.8525391-1.8331299,7.314209-4.295166c2.4349976-2.4346313,3.6497803-5.2296143,4.256958-7.305542 L12.9641113,1.3781738z M16.2529297,11.9868164l-1.4140625,1.4140625l-1.4141235-1.4140015l-1.4144287,1.4144287 l1.4140015,1.4141235l-1.4140625,1.4140625l-1.4140015-1.4141235l-1.4141235,1.4141235l-1.4140625-1.4140625l1.4142456-1.4142456 l-1.4142456-1.4143677l1.4140625-1.4140625l1.4142456,1.4143677l1.4141846-1.4141846l-1.4143677-1.4142456l1.4140625-1.4140625 l1.4143677,1.4142456l1.4142456-1.4142456l1.4140625,1.4140625l-1.4141235,1.4141235L16.2529297,11.9868164z"></path> <path data-color="color-2" fill="currentColor" d="M0.8364258,15.2504883c-0.4111328,2.9044189,0.0718384,5.4331665,1.2744141,6.6357422 c0.9335938,0.9335938,2.5991211,1.4311523,4.6132812,1.4311523c0.6370239,0,1.3164062-0.0664062,2.0111084-0.1680908 L0.8364258,15.2504883z"></path></g></svg>