<svg id="nc_icon" version="1.1" xmlns="http://www.w3.org/2000/svg" xmlns:xlink="http://www.w3.org/1999/xlink" x="0px" y="0px" viewBox="0 0 24 24" xml:space="preserve" ><g class="nc-icon-wrapper" fill="currentColor"><path fill="currentColor" d="M19,24c-0.314,0-0.611-0.148-0.8-0.4l-3-4C15.07,19.427,15,19.216,15,19V5h8v14c0,0.216-0.07,0.427-0.2,0.6 l-3,4C19.611,23.852,19.314,24,19,24z"></path> <path data-color="color-2" fill="currentColor" d="M22,0h-6c-0.552,0-1,0.448-1,1v2h8V1C23,0.448,22.552,0,22,0z"></path> <path fill="currentColor" d="M10,0H2C1.4,0,1,0.4,1,1v4h4v2H1v2h3v2H1v2h4v2H1v2h3v2H1v4c0,0.6,0.4,1,1,1h8c0.6,0,1-0.4,1-1V1 C11,0.4,10.6,0,10,0z"></path></g></svg>