<svg id="nc_icon" version="1.1" xmlns="http://www.w3.org/2000/svg" xmlns:xlink="http://www.w3.org/1999/xlink" x="0px" y="0px" viewBox="0 0 24 24" xml:space="preserve" ><g class="nc-icon-wrapper" fill="currentColor"><path fill="currentColor" d="M9.301,12.286C9.114,11.895,9,11.462,9,11c0-0.462,0.113-0.894,0.301-1.285L7.833,8.247 C7.309,9.038,7,9.983,7,11c0,1.018,0.309,1.963,0.833,2.754L9.301,12.286z"></path> <path fill="currentColor" d="M13.285,13.699C12.894,13.887,12.462,14,12,14c-0.461,0-0.894-0.113-1.285-0.3l-1.468,1.468 C10.038,15.691,10.983,16,12,16c1.017,0,1.962-0.309,2.753-0.833L13.285,13.699z"></path> <path fill="currentColor" d="M10.715,8.301C11.106,8.113,11.538,8,12,8c0.462,0,0.895,0.114,1.286,0.301l1.468-1.468 C13.963,6.309,13.018,6,12,6c-1.017,0-1.962,0.309-2.753,0.833L10.715,8.301z"></path> <path fill="currentColor" d="M23,0H1C0.448,0,0,0.448,0,1v20c0,0.552,0.448,1,1,1h3v2h2v-2h12v2h2v-2h3c0.552,0,1-0.448,1-1V1 C24,0.448,23.552,0,23,0z M12,18c-3.86,0-7-3.14-7-7s3.14-7,7-7s7,3.14,7,7S15.86,18,12,18z"></path> <path fill="currentColor" d="M14.7,9.715C14.887,10.106,15,10.539,15,11c0,0.462-0.113,0.894-0.301,1.285l1.468,1.468 C16.691,12.962,17,12.017,17,11c0-1.017-0.309-1.962-0.833-2.752L14.7,9.715z"></path></g></svg>