<svg id="nc_icon" xmlns="http://www.w3.org/2000/svg" xmlns:xlink="http://www.w3.org/1999/xlink" x="0px" y="0px" viewBox="0 0 24 24" ><g class="nc-icon-wrapper" fill="currentColor"><path d="M22,11H2a1,1,0,0,0-1,1,10.919,10.919,0,0,0,6.229,9.9.99.99,0,0,0,.434.1h8.674a.99.99,0,0,0,.434-.1A10.919,10.919,0,0,0,23,12,1,1,0,0,0,22,11Z" fill="currentColor"></path> <path d="M6,9V7A5,5,0,0,0,1,2V4A5,5,0,0,0,6,9Z" fill="currentColor" data-color="color-2"></path> <path d="M21,9a4,4,0,0,0-3.09-3.886A4.994,4.994,0,0,0,8,6,4.948,4.948,0,0,0,9.026,9Z" fill="currentColor" data-color="color-2"></path></g></svg>