<svg id="nc_icon" version="1.1" xmlns="http://www.w3.org/2000/svg" xmlns:xlink="http://www.w3.org/1999/xlink" x="0px" y="0px" viewBox="0 0 24 24" xml:space="preserve" ><g class="nc-icon-wrapper" fill="currentColor"><rect y="4" fill="currentColor" width="24" height="2"></rect> <rect y="18" fill="currentColor" width="24" height="2"></rect> <path data-color="color-2" fill="currentColor" d="M2.938,14.365c-0.705,0-1.447-0.286-2.091-0.573v1.375c0.573,0.28,1.231,0.42,1.976,0.42 c0.809,0,1.439-0.182,1.893-0.544c0.453-0.363,0.68-0.859,0.68-1.489c0-0.455-0.121-0.839-0.363-1.153 c-0.242-0.313-0.689-0.626-1.341-0.938c-0.494-0.235-0.806-0.398-0.938-0.489C2.24,10.621,2.299,10.1,2.599,9.84 c0.32-0.279,0.949-0.208,1.363-0.105c0.243,0.061,0.551,0.167,0.924,0.32l0.477-1.15C5.003,8.749,4.658,8.627,4.329,8.542 C3.455,8.314,2.267,8.343,1.556,8.942c-0.788,0.666-0.929,2.09,0.074,2.959c0.557,0.482,1.281,0.662,1.864,1.05 c0.253,0.168,0.451,0.369,0.451,0.673C3.945,14.182,3.489,14.365,2.938,14.365z"></path> <path data-color="color-2" fill="currentColor" d="M10.496,13.831l0.506,1.661h1.595l-2.473-7.007h-1.81l-2.463,7.007h1.594l0.506-1.661H10.496 z M9.226,9.568c0.085,0.38,0.795,2.632,0.917,3.021H8.324C8.82,10.982,9.121,9.975,9.226,9.568z"></path> <polygon data-color="color-2" fill="currentColor" points="13.542,8.513 13.542,15.492 17.853,15.492 17.853,14.27 15.022,14.27 15.022,8.513 "></polygon> <polygon data-color="color-2" fill="currentColor" points="23.153,9.725 23.153,8.513 19.134,8.513 19.134,15.492 23.153,15.492 23.153,14.27 20.614,14.27 20.614,12.47 22.977,12.47 22.977,11.258 20.614,11.258 20.614,9.725 "></polygon></g></svg>