<svg id="nc_icon" xmlns="http://www.w3.org/2000/svg" xmlns:xlink="http://www.w3.org/1999/xlink" x="0px" y="0px" viewBox="0 0 24 24" ><g class="nc-icon-wrapper" fill="currentColor"><path fill="currentColor" d="M14.563,6.388L12.555,3.04c-0.797-1.329-2.138-2.2-3.676-2.39c-1.543-0.187-3.05,0.33-4.146,1.427 L2.078,4.731C0.981,5.828,0.461,7.34,0.65,8.879c0.189,1.538,1.061,2.878,2.39,3.676l3.348,2.009L14.563,6.388z"></path> <path fill="currentColor" d="M18.961,10.476l-2.122-2.121c-0.391-0.391-1.023-0.391-1.414,0l-7.071,7.071 c-0.391,0.391-0.391,1.023,0,1.414l2.121,2.121c0.195,0.195,0.451,0.293,0.707,0.293s0.512-0.098,0.707-0.293l7.071-7.071 c0.188-0.188,0.293-0.441,0.293-0.707S19.148,10.663,18.961,10.476z"></path> <circle data-color="color-2" fill="currentColor" cx="16" cy="20" r="1"></circle> <circle data-color="color-2" fill="currentColor" cx="20" cy="16" r="1"></circle> <circle data-color="color-2" fill="currentColor" cx="21" cy="21" r="1"></circle></g></svg>