<svg id="nc_icon" version="1.1" xmlns="http://www.w3.org/2000/svg" xmlns:xlink="http://www.w3.org/1999/xlink" x="0px" y="0px" viewBox="0 0 24 24" xml:space="preserve" ><g class="nc-icon-wrapper" fill="currentColor"><path fill="currentColor" d="M22,17.3823853V10.5C22,4.7104492,17.2895508,0,11.5,0C6.2304077,0,1.8397827,3.8831177,1.1102295,9H1 c-0.5522461,0-1,0.4477539-1,1v4c0,0.5522461,0.4477539,1,1,1h15v2.3823853C15.385437,18.0858765,15,18.994751,15,20 c0,2.2055664,1.7944336,4,4,4s4-1.7944336,4-4C23,18.994751,22.614563,18.0858765,22,17.3823853z M2,11h14v2H2V11z M19,22 c-1.1030273,0-2-0.8969727-2-2s0.8969727-2,2-2s2,0.8969727,2,2S20.1030273,22,19,22z"></path></g></svg>