<svg id="nc_icon" version="1.1" xmlns="http://www.w3.org/2000/svg" xmlns:xlink="http://www.w3.org/1999/xlink" x="0px" y="0px" viewBox="0 0 24 24" xml:space="preserve" ><g class="nc-icon-wrapper" fill="currentColor"><path data-color="color-2" fill="currentColor" d="M16,7c0-2.19434-2.7334-5.12891-3.28125-5.69531L12,0.5625l-0.71875,0.74219 C10.7334,1.87109,8,4.80566,8,7c0,2.50391,2.03418,4,4,4S16,9.50391,16,7z"></path> <path fill="currentColor" d="M8.7666,12.58496c-0.32617-0.76465-0.97168-1.33887-1.76758-1.5752 c-0.53223-0.1582-1.08789-0.15332-1.60742,0.00293L4.58008,8.57812C4.06543,7.03613,2.62793,6,1,6H0v10.06152 c0,1.44922,0.39355,2.87207,1.13965,4.11523L3.43359,24H11v-4.3584c0-1.22559-0.24512-2.41895-0.72754-3.5459L8.7666,12.58496z M9,22H4.56641l-1.71191-2.85254C2.2959,18.21582,2,17.14844,2,16.06152V8.30664c0.31249,0.21289,0.55664,0.52637,0.68359,0.9043 l1.05566,3.16797c-0.37207,0.70703-0.43848,1.56348-0.12793,2.34082l1.45996,3.65137 c0.20508,0.51367,0.79199,0.76367,1.2998,0.55762c0.5127-0.20508,0.7627-0.78711,0.55762-1.2998l-1.45996-3.65137 c-0.14672-0.36679,0.00586-0.75846,0.29492-0.95117c0.41518-0.27577,0.97066-0.10786,1.16504,0.34668l1.50586,3.51074 C8.80957,17.75977,9,18.6875,9,19.6416V22z"></path> <path fill="currentColor" d="M13.72754,16.0957C13.24512,17.22266,13,18.41602,13,19.6416V24h7.56641l2.29395-3.82324 C23.60645,18.93359,24,17.51074,24,16.06152V6h-1c-1.62793,0-3.06543,1.03613-3.58008,2.57812L18.6084,11.0127 c-0.51953-0.15625-1.0752-0.16113-1.60742-0.00293c-0.7959,0.23633-1.44141,0.81055-1.76758,1.5752L13.72754,16.0957z M15,19.6416 c0-0.9541,0.19043-1.88184,0.56543-2.75781l1.50586-3.51074c0.19438-0.45454,0.74986-0.62245,1.16504-0.34668 c0.28907,0.19271,0.44164,0.58438,0.29492,0.95117l-1.45996,3.65137c-0.20508,0.5127,0.04492,1.09473,0.55762,1.2998 c0.50781,0.20605,1.09473-0.04395,1.2998-0.55762l1.45996-3.65137c0.31055-0.77734,0.24414-1.63379-0.12793-2.34082l1.05566-3.16797 C21.44336,8.83301,21.6875,8.51953,22,8.30664v7.75488c0,1.08691-0.2959,2.1543-0.85449,3.08594L19.43359,22H15V19.6416z"></path></g></svg>