<svg id="nc_icon" version="1.1" xmlns="http://www.w3.org/2000/svg" xmlns:xlink="http://www.w3.org/1999/xlink" x="0px" y="0px" viewBox="0 0 24 24" xml:space="preserve" ><g class="nc-icon-wrapper" fill="currentColor"><polygon data-color="color-2" fill="currentColor" points="4,24 8,19 5,19 5,5 8,5 4,0 0,5 3,5 3,19 0,19 "></polygon> <path fill="currentColor" d="M13,20v-1.625l2.62927-0.15497C15.93922,18.19747,16,18.10919,16,17.77767V6h-3.81174 c-0.24325,0-0.30995,0.02207-0.35408,0.24325L11.48107,8H10V4h14v4h-1.48107l-0.3531-1.75675 C22.12169,6.02207,22.05499,6,21.81174,6H18v11.77767c0,0.30995,0.03822,0.39822,0.36975,0.4198L21,18.375V20H13z"></path></g></svg>