<svg id="nc_icon" version="1.1" xmlns="http://www.w3.org/2000/svg" xmlns:xlink="http://www.w3.org/1999/xlink" x="0px" y="0px" viewBox="0 0 24 24" xml:space="preserve" ><g class="nc-icon-wrapper" fill="currentColor"><polygon data-color="color-2" fill="currentColor" points="13,20 13,18 7.414,18 13.707,11.707 12.293,10.293 6,16.586 6,11 4,11 4,20 "></polygon> <path fill="currentColor" d="M1,24h22c0.552,0,1-0.448,1-1V1c0-0.552-0.448-1-1-1H1C0.448,0,0,0.448,0,1v22C0,23.552,0.448,24,1,24z M2,2 h13v6c0,0.552,0.448,1,1,1h6v13H2V2z"></path></g></svg>