<svg id="nc_icon" version="1.1" xmlns="http://www.w3.org/2000/svg" xmlns:xlink="http://www.w3.org/1999/xlink" x="0px" y="0px" viewBox="0 0 24 24" xml:space="preserve" ><g class="nc-icon-wrapper" fill="currentColor"><polygon data-color="color-2" fill="currentColor" points="24,20 19,16 19,19 5,19 5,16 0,20 5,24 5,21 19,21 19,24 "></polygon> <path fill="currentColor" d="M8,16v-1.625l2.62927-0.15497C10.93922,14.19747,11,14.10919,11,13.77767V2H7.18826 C6.94501,2,6.87831,2.02207,6.83418,2.24325L6.48107,4H5V0h14v4h-1.48107l-0.3531-1.75675C17.12169,2.02207,17.05499,2,16.81174,2 H13v11.77767c0,0.30995,0.03822,0.39822,0.36975,0.4198L16,14.375V16H8z"></path></g></svg>