<svg id="nc_icon" xmlns="http://www.w3.org/2000/svg" xmlns:xlink="http://www.w3.org/1999/xlink" x="0px" y="0px" viewBox="0 0 24 24" ><g class="nc-icon-wrapper" fill="currentColor"><path fill="currentColor" d="M14,10c0,2.408,1.564,5,5,5s5-2.592,5-5c0-0.208-0.065-0.412-0.186-0.581l-4.991-6.987 c-0.104-0.149-0.249-0.273-0.429-0.351C18.259,2.022,18.125,2.007,17.978,2H6.022c-0.131,0.003-0.28,0.022-0.416,0.081 C5.426,2.158,5.28,2.282,5.177,2.432L0.186,9.419C0.065,9.588,0,9.792,0,10c0,2.408,1.564,5,5,5s5-2.592,5-5 c0-0.136-0.027-0.27-0.081-0.394L7.517,4H11v17H5c-0.552,0-1,0.447-1,1s0.448,1,1,1h14c0.552,0,1-0.447,1-1s-0.448-1-1-1h-6V4h3.483 l-2.402,5.606C14.027,9.73,14,9.864,14,10z M7.912,10H2.229l3.551-4.973L7.912,10z M18.219,5.027L21.771,10h-5.683L18.219,5.027z"></path></g></svg>