<svg id="nc_icon" version="1.1" xmlns="http://www.w3.org/2000/svg" xmlns:xlink="http://www.w3.org/1999/xlink" x="0px" y="0px" viewBox="0 0 24 24" xml:space="preserve" ><g class="nc-icon-wrapper" fill="currentColor"><path fill="currentColor" d="M18.5,15c-0.728,0-1.406,0.19-2.016,0.499l-2.208-2.575l5.625-5.625C21.84,5.36,22.211,2.351,20.8,0 L12,10.267L3.2,0C1.789,2.351,2.16,5.36,4.099,7.298l5.625,5.625l-2.208,2.575C6.906,15.19,6.228,15,5.5,15 C3.019,15,1,17.019,1,19.5S3.019,24,5.5,24s4.5-2.019,4.5-4.5c0-0.672-0.158-1.304-0.423-1.877L12,15.2l2.423,2.423 C14.158,18.196,14,18.828,14,19.5c0,2.481,2.019,4.5,4.5,4.5s4.5-2.019,4.5-4.5S20.981,15,18.5,15z M5.5,22 C4.122,22,3,20.879,3,19.5S4.122,17,5.5,17S8,18.121,8,19.5S6.878,22,5.5,22z M16,19.5c0-1.379,1.122-2.5,2.5-2.5s2.5,1.121,2.5,2.5 S19.878,22,18.5,22S16,20.879,16,19.5z"></path></g></svg>