<svg id="nc_icon" version="1.1" xmlns="http://www.w3.org/2000/svg" xmlns:xlink="http://www.w3.org/1999/xlink" x="0px" y="0px" viewBox="0 0 24 24" xml:space="preserve" ><g class="nc-icon-wrapper" fill="currentColor"><path data-color="color-2" fill="currentColor" d="M23,19c-0.6,0-1,0.4-1,1v1c0,0.6-0.4,1-1,1h-6v-3c0-0.6-0.4-1-1-1h-4c-0.6,0-1,0.4-1,1v3H1 c-0.6,0-1,0.4-1,1s0.4,1,1,1h20c1.7,0,3-1.3,3-3v-1C24,19.4,23.6,19,23,19z"></path> <path fill="currentColor" d="M21,0h-9c-0.6,0-1,0.4-1,1s0.4,1,1,1h9c0.6,0,1,0.4,1,1v2H1C0.4,5,0,5.4,0,6v4.5c0,3,2.5,5.5,5.5,5.5 c2.9,0,5.2-2.2,5.5-5H13c0.3,2.8,2.6,5,5.5,5c3,0,5.5-2.5,5.5-5.5V3C24,1.3,22.7,0,21,0z"></path></g></svg>