<svg id="nc_icon" version="1.1" xmlns="http://www.w3.org/2000/svg" xmlns:xlink="http://www.w3.org/1999/xlink" x="0px" y="0px" viewBox="0 0 24 24" xml:space="preserve" ><g class="nc-icon-wrapper" fill="currentColor"><path fill="currentColor" d="M1,10h7c0.552,0,1-0.448,1-1v0c0-0.552-0.448-1-1-1H1C0.447,8,0,8.448,0,9S0.447,10,1,10z"></path> <path fill="currentColor" d="M1,16h7c0.552,0,1-0.448,1-1v0c0-0.552-0.448-1-1-1H1c-0.553,0-1,0.448-1,1S0.447,16,1,16z"></path> <path fill="currentColor" d="M16,20H1c-0.553,0-1,0.448-1,1s0.447,1,1,1h15c0.553,0,1-0.448,1-1S16.553,20,16,20z"></path> <path fill="currentColor" d="M1,4h15c0.553,0,1-0.448,1-1s-0.447-1-1-1H1C0.447,2,0,2.448,0,3S0.447,4,1,4z"></path> <path data-color="color-2" fill="currentColor" d="M23.707,18.293l-3.54-3.54C20.691,13.962,21,13.017,21,12c0-2.757-2.243-5-5-5s-5,2.243-5,5 s2.243,5,5,5c1.017,0,1.962-0.309,2.753-0.833l3.54,3.54C22.488,19.902,22.744,20,23,20s0.512-0.098,0.707-0.293 C24.098,19.316,24.098,18.684,23.707,18.293z M16,15c-1.657,0-3-1.343-3-3s1.343-3,3-3s3,1.343,3,3S17.657,15,16,15z"></path></g></svg>