<svg id="nc_icon" version="1.1" xmlns="http://www.w3.org/2000/svg" xmlns:xlink="http://www.w3.org/1999/xlink" x="0px" y="0px" viewBox="0 0 24 24" xml:space="preserve" ><g class="nc-icon-wrapper" fill="currentColor"><path fill="currentColor" d="M23.707,22.293l-4.259-4.259C21.039,16.125,22,13.673,22,11c0-6.065-4.935-11-11-11S0,4.935,0,11 s4.935,11,11,11c2.673,0,5.125-0.961,7.034-2.552l4.259,4.259C22.488,23.902,22.744,24,23,24s0.512-0.098,0.707-0.293 C24.098,23.316,24.098,22.684,23.707,22.293z M2,11c0-4.962,4.037-9,9-9s9,4.038,9,9s-4.037,9-9,9S2,15.962,2,11z"></path> <circle data-color="color-2" fill="currentColor" cx="11" cy="8" r="3"></circle> <path data-color="color-2" fill="currentColor" d="M16,16H6v-1.084c0-0.654,0.315-1.265,0.851-1.639C7.67,12.705,9.071,12,11,12 s3.33,0.705,4.149,1.277C15.685,13.652,16,14.263,16,14.916V16z"></path></g></svg>