<svg id="nc_icon" version="1.1" xmlns="http://www.w3.org/2000/svg" xmlns:xlink="http://www.w3.org/1999/xlink" x="0px" y="0px" viewBox="0 0 24 24" xml:space="preserve" ><g class="nc-icon-wrapper" fill="currentColor"><circle cx="12" cy="4" r="4" fill="currentColor" data-color="color-2"></circle>  <path d="M15.533,10.158A5.992,5.992,0,0,0,6,15v2.447Z" fill="currentColor"></path>  <path d="M18,15a5.969,5.969,0,0,0-1.06-3.4L6,19.965V20H18Z" fill="currentColor"></path>  <rect x="6" y="22" width="12" height="2" fill="currentColor"></rect>  <path d="M16.94,11.6,21.4,8.187,20.187,6.6l-4.654,3.559A6.026,6.026,0,0,1,16.94,11.6Z" fill="currentColor"></path>  <path d="M6,20H5.954L6,19.965V17.447L2.393,20.206A1,1,0,0,0,3,22H6Z" fill="currentColor"></path>  <rect x="18" y="20" width="4" height="2" fill="currentColor"></rect></g></svg>