<svg id="nc_icon" version="1.1" xmlns="http://www.w3.org/2000/svg" xmlns:xlink="http://www.w3.org/1999/xlink" x="0px" y="0px" viewBox="0 0 24 24" xml:space="preserve" ><g class="nc-icon-wrapper" fill="currentColor"><path data-color="color-2" fill="currentColor" d="M3,3h3V1H2C1.448,1,1,1.447,1,2v4h2V3z"></path> <path data-color="color-2" fill="currentColor" d="M6,16v-2H3v-3H1v4c0,0.553,0.448,1,1,1H6z"></path> <path data-color="color-2" fill="currentColor" d="M21,14h-3v2h4c0.552,0,1-0.447,1-1v-4h-2V14z"></path> <path data-color="color-2" fill="currentColor" d="M22,1h-4v2h3v3h2V2C23,1.447,22.552,1,22,1z"></path> <path fill="currentColor" d="M12,14c2.761,0,5-2.239,5-5V8c0-2.761-2.239-5-5-5S7,5.239,7,8v1C7,11.761,9.239,14,12,14z"></path> <path fill="currentColor" d="M19.055,17.945C17.317,17.464,14.89,17,12,17c-2.89,0-5.316,0.464-7.055,0.945C3.205,18.427,2,20,2,21.805 V24h20v-2.195C22,20,20.795,18.427,19.055,17.945z"></path></g></svg>