<svg id="nc_icon" version="1.1" xmlns="http://www.w3.org/2000/svg" xmlns:xlink="http://www.w3.org/1999/xlink" x="0px" y="0px" viewBox="0 0 24 24" xml:space="preserve" ><g class="nc-icon-wrapper" fill="currentColor"><path d="M12,24A12,12,0,0,1,12,0V2A10,10,0,1,0,22,12h2A12.013,12.013,0,0,1,12,24Z" fill="currentColor"></path>  <path d="M12,19V17a5,5,0,1,0-5-5H5a7,7,0,1,1,7,7Z" fill="currentColor"></path>  <circle cx="12" cy="12" r="2" fill="currentColor" data-color="color-2"></circle>  <path d="M21.318,8.363a10.036,10.036,0,0,0-5.68-5.681L16.366.819a12.045,12.045,0,0,1,6.815,6.815Z" fill="currentColor" data-color="color-2"></path></g></svg>