<svg id="nc_icon" version="1.1" xmlns="http://www.w3.org/2000/svg" xmlns:xlink="http://www.w3.org/1999/xlink" x="0px" y="0px" viewBox="0 0 24 24" xml:space="preserve" ><g class="nc-icon-wrapper" fill="currentColor"><circle fill="currentColor" cx="12" cy="12" r="2"></circle> <path fill="currentColor" d="M22,0H2C1.447,0,1,0.447,1,1v22c0,0.553,0.447,1,1,1h20c0.553,0,1-0.447,1-1V1C23,0.447,22.553,0,22,0z M18,13h-2.142c-0.094,0.363-0.238,0.704-0.425,1.019l1.516,1.516l-1.414,1.414l-1.516-1.516c-0.316,0.186-0.656,0.33-1.019,0.425 V18h-2v-2.142c-0.363-0.094-0.704-0.238-1.019-0.425l-1.516,1.516l-1.414-1.414l1.516-1.516C8.38,13.704,8.236,13.363,8.142,13H6v-2 h2.142c0.094-0.363,0.238-0.704,0.425-1.019L7.051,8.465l1.414-1.414l1.516,1.516C10.296,8.38,10.637,8.236,11,8.142V6h2v2.142 c0.363,0.094,0.704,0.238,1.019,0.425l1.516-1.516l1.414,1.414l-1.516,1.516c0.186,0.316,0.33,0.656,0.425,1.019H18V13z"></path></g></svg>