<svg id="nc_icon" version="1.1" xmlns="http://www.w3.org/2000/svg" xmlns:xlink="http://www.w3.org/1999/xlink" x="0px" y="0px" viewBox="0 0 24 24" xml:space="preserve" ><g class="nc-icon-wrapper" fill="currentColor"><path fill="currentColor" d="M24,10.7l-1.2-3.8c-0.1-0.3-0.3-0.5-0.5-0.6s-0.5-0.1-0.8-0.1L19.1,7c-1.1-1.4-2.5-2.4-4.1-3V1.5 c0-0.6-0.4-1-1-1h-4c-0.6,0-1,0.4-1,1V4C7.4,4.6,5.9,5.6,4.9,7L2.5,6.2C2.2,6.1,1.9,6.2,1.7,6.3C1.5,6.4,1.3,6.6,1.2,6.9L0,10.7 c-0.2,0.5,0.1,1.1,0.6,1.3L3,12.7c0,1.7,0.6,3.4,1.6,4.9l-1.5,2c-0.2,0.2-0.2,0.5-0.2,0.7s0.2,0.5,0.4,0.7l3.2,2.4 C7,23.7,7.6,23.6,8,23.1l1.5-2c1.7,0.5,3.4,0.5,5.1,0l1.5,2c0.2,0.3,0.5,0.4,0.8,0.4c0.2,0,0.4-0.1,0.6-0.2l3.2-2.4 c0.2-0.2,0.4-0.4,0.4-0.7s0-0.5-0.2-0.7l-1.5-2c1-1.4,1.5-3.1,1.6-4.9l2.4-0.8C23.9,11.7,24.2,11.2,24,10.7z M12,16.5 c-2.2,0-4-1.8-4-4s1.8-4,4-4s4,1.8,4,4S14.2,16.5,12,16.5z"></path></g></svg>