<svg id="nc_icon" version="1.1" xmlns="http://www.w3.org/2000/svg" xmlns:xlink="http://www.w3.org/1999/xlink" x="0px" y="0px" viewBox="0 0 24 24" xml:space="preserve" ><g class="nc-icon-wrapper" fill="currentColor"><path fill="currentColor" d="M20.271,6.771l-3.042-3.042l3.208-3.208C19.692,0.189,18.869,0,18,0c-3.314,0-6,2.686-6,6 c0,0.594,0.089,1.166,0.25,1.708l-10.789,8.73c-0.891,0.787-1.423,1.919-1.459,3.106c-0.037,1.188,0.424,2.351,1.264,3.19 C2.082,23.551,3.167,24,4.321,24c1.239,0,2.421-0.532,3.241-1.461l8.73-10.789C16.834,11.911,17.406,12,18,12c3.314,0,6-2.686,6-6 c0-0.869-0.189-1.692-0.521-2.438L20.271,6.771z"></path></g></svg>