<svg id="nc_icon" version="1.1" xmlns="http://www.w3.org/2000/svg" xmlns:xlink="http://www.w3.org/1999/xlink" x="0px" y="0px" viewBox="0 0 24 24" xml:space="preserve" ><g class="nc-icon-wrapper" fill="currentColor"><path fill="currentColor" d="M15,11c-0.395,0-0.77,0.081-1.116,0.22C13.539,9.945,12.383,9,11,9c-0.395,0-0.77,0.081-1.116,0.22 C9.539,7.945,8.383,7,7,7S4.462,7.945,4.116,9.22C3.77,9.081,3.395,9,3,9c-1.654,0-3,1.346-3,3v12h2V12c0-0.552,0.449-1,1-1 s1,0.448,1,1v9h2v-9v-2c0-0.552,0.449-1,1-1s1,0.448,1,1v2v9h2v-9c0-0.552,0.449-1,1-1s1,0.448,1,1v2v7h2v-7c0-0.552,0.449-1,1-1 s1,0.448,1,1v10h2V14C18,12.346,16.654,11,15,11z"></path> <path data-color="color-2" fill="currentColor" d="M20,11h-2v-1c0-2.206-1.794-4-4-4h-1V4h1c3.309,0,6,2.691,6,6V11z"></path> <path data-color="color-2" fill="currentColor" d="M24,11h-2v-1c0-4.411-3.589-8-8-8h-1V0h1c5.514,0,10,4.486,10,10V11z"></path></g></svg>