<svg id="nc_icon" version="1.1" xmlns="http://www.w3.org/2000/svg" xmlns:xlink="http://www.w3.org/1999/xlink" x="0px" y="0px" viewBox="0 0 24 24" xml:space="preserve" ><g class="nc-icon-wrapper" fill="currentColor"><path d="M22.42,8.092l-4.69-.735-.265-4.008A1.725,1.725,0,0,0,16.3,1.86a2.034,2.034,0,0,0-2.159.429L9.239,7.183l-6.825.79A1.875,1.875,0,0,0,.908,9,1.6,1.6,0,0,0,1,10.547L3.411,14.36.269,19.186a1.6,1.6,0,0,0,.1,1.9,2.036,2.036,0,0,0,2.3.564l5.748-2.231,3.91,2.529a2.042,2.042,0,0,0,1.111.325,2.108,2.108,0,0,0,.747-.137,1.765,1.765,0,0,0,1.106-1.164l1.63-5.829,6.261-3.937a1.639,1.639,0,0,0,.783-1.736A1.81,1.81,0,0,0,22.42,8.092Z" fill="currentColor"></path></g></svg>