<svg id="nc_icon" xmlns="http://www.w3.org/2000/svg" xmlns:xlink="http://www.w3.org/1999/xlink" x="0px" y="0px" viewBox="0 0 24 24" ><g class="nc-icon-wrapper" fill="currentColor"><path d="M23,16H21.42l-1.8-9H20a1,1,0,0,0,1-1V2a1,1,0,0,0-1-1H16a1,1,0,0,0-1,1V3H9V2A1,1,0,0,0,8,1H4A1,1,0,0,0,3,2V6A1,1,0,0,0,4,7h.38l-1.8,9H1a1,1,0,0,0-1,1v4a1,1,0,0,0,1,1H5a1,1,0,0,0,1-1V20H18v1a1,1,0,0,0,1,1h4a1,1,0,0,0,1-1V17A1,1,0,0,0,23,16ZM6,18V17a1,1,0,0,0-1-1H4.62l1.8-9H8A1,1,0,0,0,9,6V5h6V6a1,1,0,0,0,1,1h1.58l1.8,9H19a1,1,0,0,0-1,1v1Z" fill="currentColor"></path></g></svg>