<svg id="nc_icon" xmlns="http://www.w3.org/2000/svg" xmlns:xlink="http://www.w3.org/1999/xlink" x="0px" y="0px" viewBox="0 0 24 24" ><g class="nc-icon-wrapper" fill="currentColor"><path d="M23,9H21.539A10.045,10.045,0,0,0,15,2.461V1a1,1,0,0,0-1-1H10A1,1,0,0,0,9,1V2.461A10.045,10.045,0,0,0,2.461,9H1a1,1,0,0,0-1,1v4a1,1,0,0,0,1,1H2.461A10.045,10.045,0,0,0,9,21.539V23a1,1,0,0,0,1,1h4a1,1,0,0,0,1-1V21.539A10.045,10.045,0,0,0,21.539,15H23a1,1,0,0,0,1-1V10A1,1,0,0,0,23,9ZM15,19.411V19a1,1,0,0,0-1-1H10a1,1,0,0,0-1,1v.411A8.042,8.042,0,0,1,4.589,15H5a1,1,0,0,0,1-1V10A1,1,0,0,0,5,9H4.589A8.042,8.042,0,0,1,9,4.589V5a1,1,0,0,0,1,1h4a1,1,0,0,0,1-1V4.589A8.042,8.042,0,0,1,19.411,9H19a1,1,0,0,0-1,1v4a1,1,0,0,0,1,1h.411A8.042,8.042,0,0,1,15,19.411Z" fill="currentColor"></path></g></svg>