<svg id="nc_icon" xmlns="http://www.w3.org/2000/svg" xmlns:xlink="http://www.w3.org/1999/xlink" x="0px" y="0px" viewBox="0 0 24 24" ><g class="nc-icon-wrapper" fill="currentColor"><path d="M23,16H20.367L14.751,6.642A.982.982,0,0,0,15,6V2a1,1,0,0,0-1-1H10A1,1,0,0,0,9,2V6a.977.977,0,0,0,.249.641L3.633,16H1a1,1,0,0,0-1,1v4a1,1,0,0,0,1,1H5a1,1,0,0,0,1-1V20H18v1a1,1,0,0,0,1,1h4a1,1,0,0,0,1-1V17A1,1,0,0,0,23,16ZM6,18V17a.983.983,0,0,0-.248-.641L11.366,7h1.268l5.615,9.358A.982.982,0,0,0,18,17v1Z" fill="currentColor"></path></g></svg>