<svg id="nc_icon" version="1.1" xmlns="http://www.w3.org/2000/svg" xmlns:xlink="http://www.w3.org/1999/xlink" x="0px" y="0px" viewBox="0 0 24 24" xml:space="preserve" ><g class="nc-icon-wrapper" fill="currentColor"><path fill="currentColor" d="M23,9H10c-0.552,0-1,0.447-1,1v13c0,0.553,0.448,1,1,1h13c0.552,0,1-0.447,1-1V10C24,9.447,23.552,9,23,9z"></path> <path data-color="color-2" fill="currentColor" d="M7,9c0-1.105,0.895-2,2-2h8.768c-1.022-4.48-5.387-7.701-10.325-6.869 C3.74,0.756,0.755,3.742,0.131,7.446C-0.7,12.383,2.521,16.747,7,17.768V9z"></path></g></svg>