<svg id="nc_icon" version="1.1" xmlns="http://www.w3.org/2000/svg" xmlns:xlink="http://www.w3.org/1999/xlink" x="0px" y="0px" viewBox="0 0 24 24" xml:space="preserve" ><g class="nc-icon-wrapper" fill="currentColor"><path fill="currentColor" d="M19,14c-1.6,0-3,0.7-3.9,1.9l-5.3-2.6C9.9,12.8,10,12.4,10,12c0-0.4-0.1-0.9-0.2-1.3l5.3-2.6 C16,9.2,17.4,10,19,10c2.8,0,5-2.2,5-5s-2.2-5-5-5s-5,2.2-5,5c0,0.4,0.1,0.9,0.2,1.3L8.9,8.9C8,7.8,6.6,7,5,7c-2.8,0-5,2.2-5,5 s2.2,5,5,5c1.6,0,3-0.8,3.9-2l5.3,2.6C14.1,18.1,14,18.5,14,19c0,2.8,2.2,5,5,5s5-2.2,5-5S21.8,14,19,14z"></path></g></svg>