<svg id="nc_icon" version="1.1" xmlns="http://www.w3.org/2000/svg" xmlns:xlink="http://www.w3.org/1999/xlink" x="0px" y="0px" viewBox="0 0 24 24" xml:space="preserve" ><g class="nc-icon-wrapper" fill="currentColor"><path fill="currentColor" d="M22,0H2C1.447,0,1,0.447,1,1v22c0,0.553,0.447,1,1,1h20c0.553,0,1-0.447,1-1V1C23,0.447,22.553,0,22,0z M9.5,6C10.881,6,12,7.119,12,8.5c0,1.381-1.119,2.5-2.5,2.5S7,9.881,7,8.5C7,7.119,8.119,6,9.5,6z M14,17H5v-1.164 c0-0.604,0.265-1.179,0.738-1.554C6.461,13.708,7.715,13,9.5,13s3.039,0.708,3.762,1.282C13.735,14.657,14,15.232,14,15.836V17z M13.386,10.727C13.766,10.068,14,9.314,14,8.5s-0.234-1.568-0.614-2.227C13.723,6.104,14.098,6,14.5,6C15.881,6,17,7.119,17,8.5 c0,1.381-1.119,2.5-2.5,2.5C14.098,11,13.723,10.896,13.386,10.727z M19,17h-3v-1.164c0-1.085-0.444-2.082-1.195-2.821 c1.62,0.076,2.777,0.727,3.457,1.267C18.735,14.657,19,15.232,19,15.836V17z"></path></g></svg>