<svg id="nc_icon" version="1.1" xmlns="http://www.w3.org/2000/svg" xmlns:xlink="http://www.w3.org/1999/xlink" x="0px" y="0px" viewBox="0 0 24 24" xml:space="preserve" ><g class="nc-icon-wrapper" fill="currentColor"><path fill="currentColor" d="M18,0H6C5.4,0,5,0.4,5,1v2H1C0.4,3,0,3.4,0,4v19c0,0.6,0.4,1,1,1h10V8c0-0.6,0.4-1,1-1s1,0.4,1,1v16h10 c0.6,0,1-0.4,1-1V4c0-0.6-0.4-1-1-1h-4V1C19,0.4,18.6,0,18,0z M7,8.1v-5l3.3,2.8L7,8.1z M12,4.7L8.8,2h6.5L12,4.7z M17,3.1v5 l-3.3-2.2L17,3.1z M21,17h-5v-3h5V17z"></path></g></svg>