<svg id="nc_icon" version="1.1" xmlns="http://www.w3.org/2000/svg" xmlns:xlink="http://www.w3.org/1999/xlink" x="0px" y="0px" viewBox="0 0 24 24" xml:space="preserve" ><g class="nc-icon-wrapper" fill="currentColor"><path fill="currentColor" d="M22,16h-4l-1.7746582-6.2113647C15.8369141,9.9143677,15.4302979,10,15,10c-2.2091675,0-4-1.7908936-4-4 c0-1.0031738,0.3821411-1.9088135,0.9921265-2.6109619L11,2L4.7738037,5.9863892 C3.800354,6.5426636,3.4742432,7.7904053,4.0511475,8.7518311L6.000061,12H9c0.5527344,0,1,0.4477539,1,1s-0.4472656,1-1,1 H7.2000122L9,17h3c0.5527344,0,1,0.4477539,1,1s-0.4472656,1-1,1h-1.7999878L12,22h12v-4C24,16.8953857,23.1045532,16,22,16z"></path> <path data-color="color-2" fill="currentColor" d="M6.000061,12H1c-0.5527344,0-1,0.4477539-1,1s0.4472656,1,1,1h6.2000122L6.000061,12z"></path> <path data-color="color-2" fill="currentColor" d="M9,17H4c-0.5527344,0-1,0.4477539-1,1s0.4472656,1,1,1h6.2000122L9,17z"></path></g></svg>