<svg id="nc_icon" version="1.1" xmlns="http://www.w3.org/2000/svg" xmlns:xlink="http://www.w3.org/1999/xlink" x="0px" y="0px" viewBox="0 0 24 24" xml:space="preserve" ><g class="nc-icon-wrapper" fill="currentColor"><path fill="currentColor" d="M19.5,13c-0.885,0-1.735-0.207-2.5-0.599C16.235,12.793,15.385,13,14.5,13s-1.735-0.207-2.5-0.599 C11.235,12.793,10.385,13,9.5,13S7.765,12.793,7,12.402C6.235,12.793,5.385,13,4.5,13c-0.527,0-1.027-0.075-1.5-0.206V23 c0,0.552,0.448,1,1,1h6v-5h4v5h6c0.552,0,1-0.448,1-1V12.794C20.527,12.925,20.027,13,19.5,13z"></path> <path data-color="color-2" fill="currentColor" d="M22.832,6.446l-4-6C18.646,0.167,18.334,0,18,0H6C5.666,0,5.354,0.167,5.168,0.446l-4,6 C1.059,6.61,1,6.803,1,7c0,2.355,1.439,4,3.5,4c0.979,0,1.864-0.403,2.5-1.053C7.636,10.597,8.521,11,9.5,11s1.864-0.403,2.5-1.053 C12.636,10.597,13.521,11,14.5,11s1.864-0.403,2.5-1.053C17.636,10.597,18.521,11,19.5,11c2.061,0,3.5-1.645,3.5-4 C23,6.803,22.941,6.61,22.832,6.446z"></path></g></svg>