<svg id="nc_icon" version="1.1" xmlns="http://www.w3.org/2000/svg" xmlns:xlink="http://www.w3.org/1999/xlink" x="0px" y="0px" viewBox="0 0 24 24" xml:space="preserve" ><g class="nc-icon-wrapper" fill="currentColor"><path data-color="color-2" fill="currentColor" d="M18,8c-2.9,0-6,2.2-6,6c0,3.4,4.8,8.3,5.3,8.8c0.2,0.2,0.5,0.3,0.7,0.3s0.5-0.1,0.7-0.3 c0.5-0.5,5.3-5.4,5.3-8.8C24,10.2,20.9,8,18,8z M18,16c-1.1,0-2-0.9-2-2s0.9-2,2-2s2,0.9,2,2S19.1,16,18,16z"></path> <path fill="currentColor" d="M6,10.9C6.6,11.6,7.5,12,8.5,12c0.7,0,1.3-0.2,1.9-0.6C11.5,8,14.8,6,18,6c1.2,0,2.4,0.3,3.5,0.8l-3.6-6.3 C17.7,0.2,17.4,0,17,0H5C4.6,0,4.3,0.2,4.1,0.5l-4,7C0,7.7,0,7.8,0,8c0,2.4,1.4,4,3.5,4C4.5,12,5.4,11.6,6,10.9z"></path> <path fill="currentColor" d="M10,14c0-0.1,0-0.1,0-0.2C9.5,13.9,9,14,8.5,14c-0.9,0-1.7-0.2-2.5-0.6C5.2,13.8,4.4,14,3.5,14 c-0.2,0-0.3,0-0.5,0v7c0,0.6,0.4,1,1,1h9.9C12.1,19.9,10,16.7,10,14z"></path></g></svg>