<svg id="nc_icon" version="1.1" xmlns="http://www.w3.org/2000/svg" xmlns:xlink="http://www.w3.org/1999/xlink" x="0px" y="0px" viewBox="0 0 24 24" xml:space="preserve" ><g class="nc-icon-wrapper" fill="currentColor"><path fill="currentColor" d="M19,12H5c-0.552,0-1,0.448-1,1v3c0,4.411,3.589,8,8,8s8-3.589,8-8v-3C20,12.448,19.552,12,19,12z"></path> <path data-color="color-2" fill="currentColor" d="M11,5.858V10h2V5.858c1.72-0.447,3-2,3-3.858V1c0-0.552-0.448-1-1-1H9C8.448,0,8,0.448,8,1v1 C8,3.858,9.28,5.411,11,5.858z M14,2c0,1.103-0.897,2-2,2s-2-0.897-2-2H14z"></path></g></svg>