<svg id="nc_icon" xmlns="http://www.w3.org/2000/svg" xmlns:xlink="http://www.w3.org/1999/xlink" x="0px" y="0px" viewBox="0 0 24 24" ><g class="nc-icon-wrapper" fill="currentColor"><path fill="currentColor" d="M20,0h-9v2h9c1.103,0,2,0.897,2,2H10C4.486,4,0,8.486,0,14s4.486,10,10,10h3h8c0.552,0,1-0.447,1-1v-5 c0-0.363-0.197-0.698-0.515-0.875c-0.319-0.175-0.708-0.167-1.015,0.027c0,0-4.908,3.848-7.47,3.848c-1.583,0-3-1.679-3-3.5 c0-2.481,2.019-4.5,4.5-4.5H16c2.076,0,8-1.47,8-8V4C24,1.794,22.206,0,20,0z M15.5,9C14.672,9,14,8.328,14,7.5 C14,6.672,14.672,6,15.5,6S17,6.672,17,7.5C17,8.328,16.328,9,15.5,9z"></path></g></svg>