<svg id="nc_icon" version="1.1" xmlns="http://www.w3.org/2000/svg" xmlns:xlink="http://www.w3.org/1999/xlink" x="0px" y="0px" viewBox="0 0 24 24" xml:space="preserve" ><g class="nc-icon-wrapper" fill="currentColor"><path fill="currentColor" d="M0.293,23.707L0.293,23.707c0.39,0.39,1.024,0.39,1.414,0l8.879-8.879l-1.414-1.414l-8.879,8.879 C-0.098,22.684-0.098,23.317,0.293,23.707z"></path> <polygon fill="currentColor" points="24,0 14,0 18.293,4.293 13.414,9.172 14.828,10.586 19.707,5.707 24,10 "></polygon> <path data-color="color-2" fill="currentColor" d="M19.707,18.293l-18-18c-0.39-0.39-1.024-0.39-1.414,0l0,0c-0.39,0.39-0.39,1.024,0,1.414 l18,18L14,24h10V14L19.707,18.293z"></path></g></svg>