<svg id="nc_icon" version="1.1" xmlns="http://www.w3.org/2000/svg" xmlns:xlink="http://www.w3.org/1999/xlink" x="0px" y="0px" viewBox="0 0 24 24" xml:space="preserve" ><g class="nc-icon-wrapper" fill="currentColor"><path data-color="color-2" fill="currentColor" d="M7.809,10.505l1.345-1.495l-2.412-2.68C6.554,6.12,6.283,6,6,6H0v2h5.555L7.809,10.505z"></path> <path data-color="color-2" fill="currentColor" d="M19,16h-3.555l-2.255-2.505l-1.345,1.495l2.412,2.68C14.446,17.88,14.717,18,15,18h4v3l5-4 l-5-4V16z"></path> <path fill="currentColor" d="M24,7l-5-4v3h-4c-0.283,0-0.554,0.12-0.743,0.331L5.555,16H0v2h6c0.283,0,0.554-0.12,0.743-0.331L15.445,8 H19v3L24,7z"></path></g></svg>