<svg id="nc_icon" version="1.1" xmlns="http://www.w3.org/2000/svg" xmlns:xlink="http://www.w3.org/1999/xlink" x="0px" y="0px" viewBox="0 0 24 24" xml:space="preserve" ><g class="nc-icon-wrapper" fill="currentColor"><path data-color="color-2" fill="currentColor" d="M0,8h4.219c0.85,0,1.662,0.362,2.229,0.993l1.361,1.512l1.345-1.495l-1.22-1.356 C6.989,6.604,5.635,6,4.219,6H0V8z"></path> <path fill="currentColor" d="M24,7l-5-4v3h-2.219c-1.416,0-2.771,0.604-3.716,1.655l-6.617,7.352C5.881,15.638,5.068,16,4.219,16H0v2 h4.219c1.416,0,2.771-0.604,3.716-1.655l6.617-7.352C15.119,8.362,15.932,8,16.781,8H19v3L24,7z"></path> <path data-color="color-2" fill="currentColor" d="M24,17l-5-4v3h-2.219c-0.85,0-1.662-0.362-2.229-0.993l-1.361-1.512l-1.345,1.495l1.22,1.355 c0.945,1.052,2.3,1.655,3.716,1.655H19v3L24,17z"></path></g></svg>