<svg id="nc_icon" version="1.1" xmlns="http://www.w3.org/2000/svg" xmlns:xlink="http://www.w3.org/1999/xlink" x="0px" y="0px" viewBox="0 0 24 24" xml:space="preserve" ><g class="nc-icon-wrapper" fill="currentColor"><path fill="currentColor" d="M12,0C5.4,0,0,5.4,0,12s5.4,12,12,12c6.6,0,12-5.4,12-12S18.6,0,12,0z M6,9c0-1.1,0.9-2,2-2c1.1,0,2,0.9,2,2 s-0.9,2-2,2C6.9,11,6,10.1,6,9z M16,15c-0.6,0-1,0.4-1,1s0.4,1,1,1v2c-1.3,0-2.4-0.8-2.8-2h-2.4c-0.4,1.2-1.5,2-2.8,2v-2 c0.6,0,1-0.4,1-1s-0.4-1-1-1v-2c1.3,0,2.4,0.8,2.8,2h2.4c0.4-1.2,1.5-2,2.8-2V15z M16,11c-1.1,0-2-0.9-2-2s0.9-2,2-2 c1.1,0,2,0.9,2,2S17.1,11,16,11z"></path></g></svg>