<svg id="nc_icon" version="1.1" xmlns="http://www.w3.org/2000/svg" xmlns:xlink="http://www.w3.org/1999/xlink" x="0px" y="0px" viewBox="0 0 24 24" xml:space="preserve" ><g class="nc-icon-wrapper" fill="currentColor"><path fill="currentColor" d="M24,13c-4.125-1.9375-7.6875-2-12-2H1c-0.5522847,0-1-0.4477148-1-1V6c0-0.5522847,0.4477153-1,1-1h13 C20.666666,5,23.083334,6.5833335,24,13z"></path> <path fill="currentColor" d="M5,0C3.3457031,0,2,1.3457031,2,3v2c0,0.5522461,0.4477539,1,1,1s1-0.4477539,1-1V4.999939h2V5 c0,0.5522461,0.4477539,1,1,1s1-0.4477539,1-1V3C8,1.3457031,6.6542969,0,5,0z"></path> <path data-color="color-2" fill="currentColor" d="M2,13v8c0,1.6542969,1.3457031,3,3,3s3-1.3457031,3-3v-8H2z"></path></g></svg>