<svg id="nc_icon" version="1.1" xmlns="http://www.w3.org/2000/svg" xmlns:xlink="http://www.w3.org/1999/xlink" x="0px" y="0px" viewBox="0 0 24 24" xml:space="preserve" ><g class="nc-icon-wrapper" fill="currentColor"><path fill="currentColor" d="M20.707,6.293l-6-6c-0.277-0.277-0.692-0.366-1.059-0.229l-8,3C5.311,3.19,5.066,3.491,5.012,3.848l-2,13 c-0.049,0.314,0.056,0.634,0.281,0.859C3.481,17.896,3.736,18,4,18c0.051,0,0.102-0.004,0.152-0.012l13-2 c0.357-0.055,0.657-0.298,0.784-0.637l3-8C21.074,6.984,20.984,6.57,20.707,6.293z M13.414,10.414c-0.781,0.781-2.047,0.781-2.828,0 c-0.781-0.781-0.781-2.047,0-2.828c0.781-0.781,2.047-0.781,2.828,0C14.195,8.367,14.195,9.633,13.414,10.414z"></path> <path data-color="color-2" fill="currentColor" d="M23,24H1c-0.553,0-1-0.448-1-1s0.447-1,1-1h22c0.553,0,1,0.448,1,1S23.553,24,23,24z"></path></g></svg>