<svg id="nc_icon" version="1.1" xmlns="http://www.w3.org/2000/svg" xmlns:xlink="http://www.w3.org/1999/xlink" x="0px" y="0px" viewBox="0 0 24 24" xml:space="preserve" ><g class="nc-icon-wrapper" fill="currentColor"><path data-color="color-2" fill="currentColor" d="M12,4h-1v2h1c2.206,0,4,1.794,4,4v1h2v-1C18,6.691,15.309,4,12,4z"></path> <path data-color="color-2" fill="currentColor" d="M12,0h-1v2h1c4.411,0,8,3.589,8,8v1h2v-1C22,4.486,17.514,0,12,0z"></path> <path fill="currentColor" d="M12,8H4c-1.105,0-2,0.895-2,2v12c0,1.105,0.895,2,2,2h8c1.105,0,2-0.895,2-2V10C14,8.895,13.105,8,12,8z M12,20H4v-9h8V20z"></path></g></svg>