<svg id="nc_icon" version="1.1" xmlns="http://www.w3.org/2000/svg" xmlns:xlink="http://www.w3.org/1999/xlink" x="0px" y="0px" viewBox="0 0 24 24" xml:space="preserve" ><g class="nc-icon-wrapper" fill="currentColor"><path fill="currentColor" d="M12,14c-1.103,0-2-0.897-2-2s0.897-2,2-2s2,0.897,2,2S13.103,14,12,14z M12,12v0.002V12z"></path> <path fill="currentColor" d="M17.761,22.359c-0.335,0-0.663-0.169-0.852-0.475c-0.29-0.471-0.145-1.086,0.325-1.376 C20.219,18.667,22,15.486,22,12c0-5.514-4.486-10-10-10S2,6.486,2,12c0,3.486,1.781,6.667,4.766,8.509 c0.47,0.29,0.615,0.905,0.325,1.376c-0.29,0.469-0.905,0.616-1.376,0.325C2.137,20.002,0,16.185,0,12C0,5.383,5.383,0,12,0 s12,5.383,12,12c0,4.185-2.137,8.002-5.715,10.21C18.121,22.312,17.939,22.359,17.761,22.359z"></path> <path data-color="color-2" fill="currentColor" d="M15.143,18.104c-0.336,0-0.663-0.169-0.853-0.476c-0.289-0.47-0.144-1.086,0.327-1.376 C16.109,15.334,17,13.743,17,12c0-2.757-2.243-5-5-5s-5,2.243-5,5c0,1.743,0.891,3.334,2.383,4.253 c0.471,0.29,0.616,0.906,0.327,1.376c-0.291,0.47-0.907,0.615-1.376,0.327C6.246,16.669,5,14.442,5,12c0-3.859,3.141-7,7-7 s7,3.141,7,7c0,2.442-1.246,4.669-3.334,5.956C15.503,18.057,15.321,18.104,15.143,18.104z"></path></g></svg>