<svg id="nc_icon" version="1.1" xmlns="http://www.w3.org/2000/svg" xmlns:xlink="http://www.w3.org/1999/xlink" x="0px" y="0px" viewBox="0 0 24 24" xml:space="preserve" ><g class="nc-icon-wrapper" fill="currentColor"><path fill="currentColor" d="M23,8h-3.531l-4.51-5.412C14.755,1.13,13.513,0,12,0S9.245,1.13,9.042,2.588L4.531,8H1C0.448,8,0,8.447,0,9 v14c0,0.553,0.448,1,1,1h22c0.552,0,1-0.447,1-1V9C24,8.447,23.552,8,23,8z M9.708,4.913C10.259,5.571,11.076,6,12,6 s1.741-0.429,2.292-1.087L16.865,8H7.135L9.708,4.913z"></path></g></svg>