<svg id="nc_icon" version="1.1" xmlns="http://www.w3.org/2000/svg" xmlns:xlink="http://www.w3.org/1999/xlink" x="0px" y="0px" viewBox="0 0 24 24" xml:space="preserve" ><g class="nc-icon-wrapper" fill="currentColor"><path data-color="color-2" fill="currentColor" d="M23,22H1c-0.552,0-1,0.448-1,1s0.448,1,1,1h22c0.552,0,1-0.448,1-1S23.552,22,23,22z"></path> <path fill="currentColor" d="M2,20.414l1.933-1.933C4.506,18.81,5.15,19,5.829,19c1.022,0,1.984-0.398,2.707-1.122L19.874,6.541 c1.493-1.493,1.493-3.921,0-5.414c-1.492-1.493-3.922-1.493-5.414,0L3.122,12.464C2.398,13.188,2,14.149,2,15.171 c0,0.678,0.19,1.322,0.519,1.895L0.586,19L2,20.414z"></path> <polygon fill="currentColor" points="20.586,10 15.586,15 17,16.414 23.414,10 21,7.586 19.586,9 "></polygon></g></svg>