<svg id="nc_icon" version="1.1" xmlns="http://www.w3.org/2000/svg" xmlns:xlink="http://www.w3.org/1999/xlink" x="0px" y="0px" viewBox="0 0 24 24" xml:space="preserve" ><g class="nc-icon-wrapper" fill="currentColor"><path fill="currentColor" d="M12,0C5.4,0,0,5.4,0,12s5.4,12,12,12s12-5.4,12-12S18.6,0,12,0z M5,9c0-1.7,1.3-3,3-3c1.7,0,3,1.3,3,3H9 c0-0.6-0.4-1-1-1C7.4,8,7,8.4,7,9H5z M19,13c0,2.2-1.8,4-4,4h-1v2c0,1.1-0.9,2-2,2s-2-0.9-2-2v-2H9c-2.2,0-4-1.8-4-4H19z M17,9 c0-0.6-0.4-1-1-1c-0.6,0-1,0.4-1,1h-2c0-1.7,1.3-3,3-3c1.7,0,3,1.3,3,3H17z"></path></g></svg>