<svg id="nc_icon" xmlns="http://www.w3.org/2000/svg" xmlns:xlink="http://www.w3.org/1999/xlink" x="0px" y="0px" viewBox="0 0 24 24" ><g class="nc-icon-wrapper" fill="currentColor"><path data-color="color-2" fill="currentColor" d="M12,6L12,6c-1.657,0-3-1.343-3-3v0c0-1.657,1.343-3,3-3h0c1.657,0,3,1.343,3,3v0 C15,4.657,13.657,6,12,6z"></path> <path fill="currentColor" d="M14,24h-4c-0.552,0-1-0.448-1-1v-6H6v-6c0-1.657,1.343-3,3-3h6c1.657,0,3,1.343,3,3v6h-3v6 C15,23.552,14.552,24,14,24z"></path></g></svg>