<svg id="nc_icon" version="1.1" xmlns="http://www.w3.org/2000/svg" xmlns:xlink="http://www.w3.org/1999/xlink" x="0px" y="0px" viewBox="0 0 24 24" xml:space="preserve" ><g class="nc-icon-wrapper" fill="currentColor"><path data-color="color-2" fill="currentColor" d="M15.461,14.023C14.424,14.632,13.258,15,12,15s-2.424-0.368-3.461-0.977 C4.894,14.262,2,17.296,2,21v1.73l0.695,0.223C2.829,22.995,6.038,24,12,24s9.171-1.005,9.305-1.047L22,22.73V21 C22,17.296,19.106,14.262,15.461,14.023z"></path> <path fill="currentColor" d="M12,13c3.379,0,6-3.763,6-7c0-3.309-2.691-6-6-6S6,2.691,6,6C6,9.237,8.621,13,12,13z"></path></g></svg>