<svg id="nc_icon" version="1.1" xmlns="http://www.w3.org/2000/svg" xmlns:xlink="http://www.w3.org/1999/xlink" x="0px" y="0px" viewBox="0 0 24 24" xml:space="preserve" ><g class="nc-icon-wrapper" fill="currentColor"><path fill="currentColor" d="M14,8H2C1.448,8,1,8.448,1,9v14c0,0.552,0.448,1,1,1h12c0.552,0,1-0.448,1-1V9C15,8.448,14.552,8,14,8z"></path> <path data-color="color-2" fill="currentColor" d="M18,4H5v2h12v14h2V5C19,4.448,18.552,4,18,4z"></path> <path data-color="color-2" fill="currentColor" d="M22,0H9v2h12v14h2V1C23,0.448,22.552,0,22,0z"></path></g></svg>