<svg id="nc_icon" xmlns="http://www.w3.org/2000/svg" xmlns:xlink="http://www.w3.org/1999/xlink" x="0px" y="0px" viewBox="0 0 24 24" ><g class="nc-icon-wrapper" fill="currentColor"><path d="M14,19.438V3h3.558a2,2,0,0,1,1.9,1.368L20,6h2V0H2V6H4l.544-1.632A2,2,0,0,1,6.442,3H10V19.438a2,2,0,0,1-1.515,1.941L6,22v2H18V22l-2.485-.621A2,2,0,0,1,14,19.438Z" fill="currentColor"></path> <polygon data-color="color-2" points="24 12 21 12 21 9 19 9 19 12 16 12 16 14 19 14 19 17 21 17 21 14 24 14 24 12" fill="currentColor"></polygon> <rect data-color="color-2" y="12" width="8" height="2" fill="currentColor"></rect></g></svg>