<svg id="nc_icon" version="1.1" xmlns="http://www.w3.org/2000/svg" xmlns:xlink="http://www.w3.org/1999/xlink" x="0px" y="0px" viewBox="0 0 24 24" xml:space="preserve" ><g class="nc-icon-wrapper" fill="currentColor"><path fill="currentColor" d="M22.2426147,1.7573242c-2.3431396-2.3431396-6.1420898-2.3431396-8.4852295,0l-12,12 c-2.3432007,2.3431396-2.3432007,6.1421509,0,8.4852905c2.3431396,2.3431396,6.1420898,2.3431396,8.4852295,0l12-12 C24.5858154,7.8994751,24.5858154,4.1004639,22.2426147,1.7573242z M9.833313,19.791626L8.272644,18.2310181l0.6503906-0.6503906 l-2.4713745-2.4716797l-0.6505127,0.6505127l-1.5606689-1.5606689l3-3l1.5606689,1.5606689l-0.9354248,0.9354248 l2.4713745,2.4716797l0.9355469-0.9355469l1.5606689,1.5606079L9.833313,19.791626z M16.8124924,12.8125l-1.5606613-1.5606689 l0.8347168-0.8347168l-2.4714966-2.4714966l-0.8347168,0.8347168l-1.5606689-1.5606689l3-3l1.5606689,1.5606689 l-0.7512207,0.7512207l2.4714966,2.4714966l0.7512207-0.7512207L19.8124924,9.8125L16.8124924,12.8125z"></path></g></svg>