<svg id="nc_icon" version="1.1" xmlns="http://www.w3.org/2000/svg" xmlns:xlink="http://www.w3.org/1999/xlink" x="0px" y="0px" viewBox="0 0 24 24" xml:space="preserve" ><g class="nc-icon-wrapper" fill="currentColor"><path fill="currentColor" d="M12,0C5.935,0,1,4.935,1,11c0,3.71,1.902,7.187,5,9.209V23c0,0.552,0.448,1,1,1h10c0.552,0,1-0.448,1-1 v-2.791c3.098-2.023,5-5.5,5-9.209C23,4.935,18.065,0,12,0z M7.5,14C6.119,14,5,12.881,5,11.5S6.119,9,7.5,9 c1.381,0,2.5,1.119,2.5,2.5S8.881,14,7.5,14z M10,18l2-3l2,3H10z M16.5,14c-1.381,0-2.5-1.119-2.5-2.5S15.119,9,16.5,9 c1.381,0,2.5,1.119,2.5,2.5S17.881,14,16.5,14z"></path></g></svg>