<svg id="nc_icon" version="1.1" xmlns="http://www.w3.org/2000/svg" xmlns:xlink="http://www.w3.org/1999/xlink" x="0px" y="0px" viewBox="0 0 24 24" xml:space="preserve" ><g class="nc-icon-wrapper" fill="currentColor"><path fill="currentColor" d="M5.1,20c0.5,2.3,2.5,4,4.9,4h4c2.4,0,4.4-1.7,4.9-4H5.1z"></path> <path fill="currentColor" d="M12,0C5.4,0,0,5.4,0,12v3c0,1.7,1.3,3,3,3h18c1.7,0,3-1.3,3-3v-3C24,5.4,18.6,0,12,0z M8,11 c-1.1,0-2-0.9-2-2s0.9-2,2-2s2,0.9,2,2S9.1,11,8,11z M13,16H11c-0.5,0-0.8-0.5-0.5-0.9l1-1.8c0.2-0.4,0.8-0.4,1,0l1,1.8 C13.8,15.5,13.5,16,13,16z M16,11c-1.1,0-2-0.9-2-2s0.9-2,2-2s2,0.9,2,2S17.1,11,16,11z"></path></g></svg>