<svg id="nc_icon" version="1.1" xmlns="http://www.w3.org/2000/svg" xmlns:xlink="http://www.w3.org/1999/xlink" x="0px" y="0px" viewBox="0 0 24 24" xml:space="preserve" ><g class="nc-icon-wrapper" fill="currentColor"><circle data-color="color-2" fill="currentColor" cx="3" cy="21" r="3"></circle> <path fill="currentColor" d="M19,6C19,6,19,6,19,6c-0.6-3.4-3.5-6-7-6C9.7,0,7.6,1.1,6.3,3C6.2,3,6.1,3,6,3C2.7,3,0,5.7,0,9 c0,2.7,1.8,5,4.4,5.8c1,3.1,3.9,5.2,7.1,5.2c2.8,0,5.4-1.6,6.7-4.1c0.3,0,0.6,0.1,0.8,0.1c2.8,0,5-2.2,5-5S21.8,6,19,6z M14,13h-4 c-0.4,0-0.7-0.2-0.9-0.5c-0.2-0.3-0.2-0.7,0-1L11.2,8H10C9.4,8,9,7.6,9,7s0.4-1,1-1h3c0.4,0,0.7,0.2,0.9,0.5c0.2,0.3,0.2,0.7,0,1 L11.8,11H14c0.6,0,1,0.4,1,1S14.6,13,14,13z"></path></g></svg>