<svg id="nc_icon" version="1.1" xmlns="http://www.w3.org/2000/svg" xmlns:xlink="http://www.w3.org/1999/xlink" x="0px" y="0px" viewBox="0 0 24 24" xml:space="preserve" ><g class="nc-icon-wrapper" fill="currentColor"><path data-color="color-2" fill="currentColor" d="M10.465,9.121l-9.172,9.172c-0.3,0.3-0.378,0.757-0.194,1.14C1.267,19.782,1.619,20,2,20 c0.037,0,0.074-0.002,0.111-0.006l9-1C11.617,18.937,12,18.51,12,18v-3.586l1.879-1.879L10.465,9.121z"></path> <path fill="currentColor" d="M22.702,1.921c-1.485-1.298-3.952-1.086-5.346,0.309c-1.997,1.997-5.477,5.477-5.477,5.477l4.707,4.707 c0.195,0.195,0.451,0.293,0.707,0.293s0.512-0.098,0.707-0.293l4.776-4.776c0.653-0.653,1.124-1.493,1.221-2.411 C24.129,3.962,23.653,2.753,22.702,1.921z"></path></g></svg>