<svg id="nc_icon" version="1.1" xmlns="http://www.w3.org/2000/svg" xmlns:xlink="http://www.w3.org/1999/xlink" x="0px" y="0px" viewBox="0 0 24 24" xml:space="preserve" ><g class="nc-icon-wrapper" fill="currentColor"><path data-color="color-2" fill="currentColor" d="M11,19h12c0.552,0,1,0.448,1,1s-0.448,1-1,1H11c-0.552,0-1-0.448-1-1S10.448,19,11,19z"></path> <path data-color="color-2" fill="currentColor" d="M23,5H11c-0.552,0-1-0.448-1-1s0.448-1,1-1h12c0.552,0,1,0.448,1,1S23.552,5,23,5z"></path> <path fill="currentColor" d="M0,12l7-6v5h16c0.552,0,1,0.448,1,1s-0.448,1-1,1H7v5L0,12z"></path></g></svg>