<svg id="nc_icon" version="1.1" xmlns="http://www.w3.org/2000/svg" xmlns:xlink="http://www.w3.org/1999/xlink" x="0px" y="0px" viewBox="0 0 24 24" xml:space="preserve" ><g class="nc-icon-wrapper" fill="currentColor"><path data-color="color-2" fill="currentColor" d="M13,19H1c-0.552,0-1,0.448-1,1s0.448,1,1,1h12c0.552,0,1-0.448,1-1S13.552,19,13,19z"></path> <path data-color="color-2" fill="currentColor" d="M1,5h12c0.552,0,1-0.448,1-1s-0.448-1-1-1H1C0.448,3,0,3.448,0,4S0.448,5,1,5z"></path> <path fill="currentColor" d="M24,12l-7-6v5H1c-0.552,0-1,0.448-1,1s0.448,1,1,1h16v5L24,12z"></path></g></svg>