<svg id="nc_icon" version="1.1" xmlns="http://www.w3.org/2000/svg" xmlns:xlink="http://www.w3.org/1999/xlink" x="0px" y="0px" viewBox="0 0 24 24" xml:space="preserve" ><g class="nc-icon-wrapper" fill="currentColor"><path fill="currentColor" d="M12,0C5.9,0,1,4.9,1,11v13h22V11C23,4.9,18.1,0,12,0z M5,9c0-1.7,1.3-3,3-3c1.7,0,3,1.3,3,3v1H9V9 c0-0.6-0.4-1-1-1C7.4,8,7,8.4,7,9v1H5V9z M17,18c0,1.7-1.3,3-3,3c-0.8,0-1.5-0.3-2-0.8c-0.5,0.5-1.2,0.8-2,0.8c-1.7,0-3-1.3-3-3v-1 h2v1c0,0.6,0.4,1,1,1c0.6,0,1-0.4,1-1v-2.3c-0.6-0.3-1-1-1-1.7c0-1.1,0.9-2,2-2s2,0.9,2,2c0,0.7-0.4,1.4-1,1.7V18c0,0.6,0.4,1,1,1 c0.6,0,1-0.4,1-1v-1h2V18z M19,10h-2V9c0-0.6-0.4-1-1-1c-0.6,0-1,0.4-1,1v1h-2V9c0-1.7,1.3-3,3-3c1.7,0,3,1.3,3,3V10z"></path></g></svg>