<svg id="nc_icon" version="1.1" xmlns="http://www.w3.org/2000/svg" xmlns:xlink="http://www.w3.org/1999/xlink" x="0px" y="0px" viewBox="0 0 24 24" xml:space="preserve" ><g class="nc-icon-wrapper" fill="currentColor"><path fill="currentColor" d="M12,0C5.4,0,0,5.4,0,12s5.4,12,12,12c6.6,0,12-5.4,12-12S18.6,0,12,0z M6,9c0-1.1,0.9-2,2-2s2,0.9,2,2 c0,1.1-0.9,2-2,2S6,10.1,6,9z M17,15c0,2.8-2.2,5-5,5c-2.8,0-5-2.2-5-5h2c0,1.7,1.3,3,3,3c1.7,0,3-1.3,3-3H17z M16,11 c-1.1,0-2-0.9-2-2c0-1.1,0.9-2,2-2s2,0.9,2,2C18,10.1,17.1,11,16,11z"></path></g></svg>