<svg id="nc_icon" xmlns="http://www.w3.org/2000/svg" xmlns:xlink="http://www.w3.org/1999/xlink" x="0px" y="0px" viewBox="0 0 24 24" ><g class="nc-icon-wrapper" fill="currentColor"><path d="M3.324,12.314a1.23,1.23,0,0,1,1.637,0l.985.85a3.231,3.231,0,0,0,4.252,0l.983-.85a1.231,1.231,0,0,1,1.638,0l.984.85a3.231,3.231,0,0,0,4.252,0l.983-.85a1.231,1.231,0,0,1,1.638,0l1.671,1.443,1.306-1.514L21.983,10.8a3.229,3.229,0,0,0-4.252,0l-.983.849a1.231,1.231,0,0,1-1.638,0l-.984-.849a3.229,3.229,0,0,0-4.252,0l-.983.849a1.231,1.231,0,0,1-1.638,0L6.269,10.8a3.229,3.229,0,0,0-4.252,0L.347,12.243l1.306,1.514Z" fill="currentColor" data-color="color-2"></path> <path d="M23,16H1a1,1,0,0,0-1,1v1a3,3,0,0,0,3,3H21a3,3,0,0,0,3-3V17A1,1,0,0,0,23,16Z" fill="currentColor"></path> <path d="M21,3H3A3,3,0,0,0,0,6V7A1,1,0,0,0,1,8H23a1,1,0,0,0,1-1V6A3,3,0,0,0,21,3Z" fill="currentColor"></path></g></svg>