<svg id="nc_icon" version="1.1" xmlns="http://www.w3.org/2000/svg" xmlns:xlink="http://www.w3.org/1999/xlink" x="0px" y="0px" viewBox="0 0 24 24" xml:space="preserve" ><g class="nc-icon-wrapper" fill="currentColor"><path fill="currentColor" d="M13.4199219,2.0952148C12.3271484,3.1875,11.3349609,4.6098633,10.4589844,5.8652344 c-0.7197266,1.0297852-1.3984375,2.0024414-1.9892578,2.59375c-0.5878906,0.5878906-1.5507812,1.2587891-2.5693359,1.96875 c-1.2578125,0.8759766-2.6816406,1.8686523-3.7939453,2.980957c-1.1308594,1.1298828-1.7539062,2.6352539-1.7548828,4.2387695 c-0.0009766,1.605957,0.6220703,3.1142578,1.7548828,4.246582c1.1308594,1.1313477,2.6367188,1.7543945,4.2412109,1.7543945 c0.0009766,0,0.0029297,0,0.0048828,0c1.6035156-0.0014648,3.1083984-0.6245117,4.2382812-1.7543945 c1.1132812-1.112793,2.1064453-2.5380859,2.9824219-3.7954102c0.7099609-1.0185547,1.3798828-1.980957,1.9677734-2.5688477 c0.5908203-0.5908203,1.5644531-1.2700195,2.59375-1.9887695c1.2558594-0.8754883,2.6777248-1.8686523,3.7705078-2.9609375 c2.3388672-2.3388672,2.3388672-6.1455078,0-8.4848633C19.5664062-0.2446289,15.7607422-0.2446289,13.4199219,2.0952148z"></path></g></svg>