<svg id="nc_icon" version="1.1" xmlns="http://www.w3.org/2000/svg" xmlns:xlink="http://www.w3.org/1999/xlink" x="0px" y="0px" viewBox="0 0 24 24" xml:space="preserve" ><g class="nc-icon-wrapper" fill="currentColor"><path data-color="color-2" fill="currentColor" d="M18,4h-2V1c0-0.5522461-0.4477539-1-1-1H9C8.4477539,0,8,0.4477539,8,1v3H6 C5.4477539,4,5,4.4477539,5,5s0.4477539,1,1,1h1.4207764C7.1480103,6.6245117,7,7.303833,7,8c0,2.7568359,2.2431641,5,5,5 s5-2.2431641,5-5c0-0.696106-0.1480103-1.3754272-0.4208984-2H18c0.5522461,0,1-0.4477539,1-1S18.5522461,4,18,4z"></path> <path fill="currentColor" d="M23.7075195,7.418457c-0.3901367-0.3911133-1.0239258-0.3911133-1.4140625-0.0009766l-3.8568726,3.8526611 C18.4365845,11.2701416,15.46875,15,12,15c-3.5625057,0-6.4379272-3.7227783-6.4379272-3.7227783L1.7075195,7.418457 C1.3173828,7.0273438,0.6835938,7.0273438,0.293457,7.4174805C-0.0976562,7.8076172-0.0976562,8.440918,0.2924805,8.831543 l4.2651367,4.2698364C4.1993408,14.0136108,4,14.9929199,4,16c0,4.4111328,3.5888672,8,8,8s8-3.5888672,8-8 c0-1.0109253-0.1997681-1.992981-0.5587769-2.9067993l4.2653198-4.2606812 C24.0976562,8.4423828,24.0976562,7.809082,23.7075195,7.418457z"></path></g></svg>