<svg id="nc_icon" version="1.1" xmlns="http://www.w3.org/2000/svg" xmlns:xlink="http://www.w3.org/1999/xlink" x="0px" y="0px" viewBox="0 0 24 24" xml:space="preserve" ><g class="nc-icon-wrapper" fill="currentColor"><path fill="currentColor" d="M18.2,9.6l3.7,1c0.1,0,0.2,0,0.3,0c0.4,0,0.8-0.3,1-0.7c0.1-0.5-0.2-1.1-0.7-1.2l-1.8-0.5L22,7.4 c0.5-0.3,0.6-0.9,0.4-1.4S21.5,5.4,21,5.6l-1.4,0.8l0.5-1.8c0.1-0.5-0.2-1.1-0.7-1.2c-0.5-0.1-1.1,0.2-1.2,0.7l-1,3.7L13,10.3V5.4 l2.7-2.7c0.4-0.4,0.4-1,0-1.4s-1-0.4-1.4,0L13,2.6V1c0-0.6-0.4-1-1-1s-1,0.4-1,1v1.6L9.7,1.3c-0.4-0.4-1-0.4-1.4,0s-0.4,1,0,1.4 L11,5.4v4.9L6.8,7.8l-1-3.7C5.7,3.6,5.1,3.3,4.6,3.4C4,3.6,3.7,4.1,3.9,4.7l0.5,1.8L3,5.6C2.5,5.4,1.9,5.5,1.6,6S1.5,7.1,2,7.4 l1.4,0.8L1.6,8.6C1,8.8,0.7,9.3,0.9,9.9c0.1,0.4,0.5,0.7,1,0.7c0.1,0,0.2,0,0.3,0l3.7-1L10,12l-4.2,2.4l-3.7-1 c-0.5-0.1-1.1,0.2-1.2,0.7c-0.1,0.5,0.2,1.1,0.7,1.2l1.8,0.5L2,16.6c-0.5,0.3-0.6,0.9-0.4,1.4c0.2,0.3,0.5,0.5,0.9,0.5 c0.2,0,0.3,0,0.5-0.1l1.4-0.8l-0.5,1.8c-0.1,0.5,0.2,1.1,0.7,1.2c0.1,0,0.2,0,0.3,0c0.4,0,0.8-0.3,1-0.7l1-3.7l4.2-2.4v4.9l-2.7,2.7 c-0.4,0.4-0.4,1,0,1.4s1,0.4,1.4,0l1.3-1.3V23c0,0.6,0.4,1,1,1s1-0.4,1-1v-1.6l1.3,1.3c0.2,0.2,0.5,0.3,0.7,0.3s0.5-0.1,0.7-0.3 c0.4-0.4,0.4-1,0-1.4L13,18.6v-4.9l4.2,2.4l1,3.7c0.1,0.4,0.5,0.7,1,0.7c0.1,0,0.2,0,0.3,0c0.5-0.1,0.8-0.7,0.7-1.2l-0.5-1.8 l1.4,0.8c0.2,0.1,0.3,0.1,0.5,0.1c0.3,0,0.7-0.2,0.9-0.5c0.3-0.5,0.1-1.1-0.4-1.4l-1.4-0.8l1.8-0.5c0.5-0.1,0.8-0.7,0.7-1.2 c-0.1-0.5-0.7-0.9-1.2-0.7l-3.7,1L14,12L18.2,9.6z"></path></g></svg>