<svg id="nc_icon" version="1.1" xmlns="http://www.w3.org/2000/svg" xmlns:xlink="http://www.w3.org/1999/xlink" x="0px" y="0px" viewBox="0 0 24 24" xml:space="preserve" ><g class="nc-icon-wrapper" fill="currentColor"><path fill="currentColor" d="M5,0H1C0.448,0,0,0.448,0,1v22c0,0.552,0.448,1,1,1h4V0z"></path> <path data-color="color-2" fill="currentColor" d="M7,24h10V0H7V24z M12,19c-0.552,0-1-0.448-1-1c0-0.552,0.448-1,1-1s1,0.448,1,1 C13,18.552,12.552,19,12,19z M12,5c0.552,0,1,0.448,1,1c0,0.552-0.448,1-1,1s-1-0.448-1-1C11,5.448,11.448,5,12,5z M12,11 c0.552,0,1,0.448,1,1c0,0.552-0.448,1-1,1s-1-0.448-1-1C11,11.448,11.448,11,12,11z"></path> <path fill="currentColor" d="M23,0h-4v24h4c0.552,0,1-0.448,1-1V1C24,0.448,23.552,0,23,0z"></path></g></svg>