<svg id="nc_icon" version="1.1" xmlns="http://www.w3.org/2000/svg" xmlns:xlink="http://www.w3.org/1999/xlink" x="0px" y="0px" viewBox="0 0 24 24" xml:space="preserve" ><g class="nc-icon-wrapper" fill="currentColor"><path fill="currentColor" d="M9,21c-0.407,0-0.776-0.248-0.929-0.628l-3.294-8.235l-0.945,1.418C3.646,13.833,3.334,14,3,14H0v-2h2.465 l1.703-2.555c0.206-0.308,0.559-0.474,0.936-0.44c0.369,0.039,0.688,0.278,0.825,0.623l2.955,7.39l4.162-13.316 C13.176,3.284,13.562,3,14,3c0.001,0,0.001,0,0.002,0c0.438,0.001,0.825,0.287,0.954,0.706l3.422,11.123L20.2,12.4 c0.188-0.252,0.485-0.4,0.8-0.4h3v2h-2.5l-2.7,3.6c-0.225,0.3-0.599,0.448-0.972,0.385c-0.37-0.065-0.673-0.332-0.784-0.691 l-3.052-9.917L9.954,20.298c-0.126,0.404-0.492,0.685-0.915,0.701C9.025,21,9.013,21,9,21z"></path></g></svg>