<svg id="nc_icon" xmlns="http://www.w3.org/2000/svg" xmlns:xlink="http://www.w3.org/1999/xlink" x="0px" y="0px" viewBox="0 0 24 24" ><g class="nc-icon-wrapper" fill="currentColor"><path d="M18.023,11.654c-1.07-2.214-1.992-4.133-2.018-6.55l.965-3.862A1,1,0,0,0,16,0H8a1,1,0,0,0-.97,1.242L8,5.1c-.026,2.417-.948,4.336-2.018,6.55A23.777,23.777,0,0,0,3,23a1,1,0,0,0,1,1H20a1,1,0,0,0,1-1A23.777,23.777,0,0,0,18.023,11.654ZM9.954,6h4.092a18.245,18.245,0,0,0,2.176,6.524c.234.485.468.977.7,1.476H7.081c.229-.5.463-.991.7-1.476A18.245,18.245,0,0,0,9.954,6Z" fill="currentColor"></path></g></svg>