<svg id="nc_icon" version="1.1" xmlns="http://www.w3.org/2000/svg" xmlns:xlink="http://www.w3.org/1999/xlink" x="0px" y="0px" viewBox="0 0 24 24" xml:space="preserve" ><g class="nc-icon-wrapper" fill="currentColor"><path data-color="color-2" fill="currentColor" d="M2,14.1C2,11.5,3.6,8.5,5.5,6c-1.7-0.6-3-1-3-1l-1-0.3l-0.3,1c-0.2,0.9-2.3,8.9-0.3,12.4 c1,1.7,2.5,2.9,4.3,3.3C3.3,19.7,2,17.2,2,14.1z"></path> <path data-color="color-2" fill="currentColor" d="M22.8,5.7l-0.3-1l-1,0.3c-0.1,0-1.4,0.4-3,1c1.8,2.5,3.5,5.5,3.5,8.1c0,3.1-1.3,5.6-3.2,7.3 c1.8-0.4,3.3-1.6,4.3-3.3C25.1,14.6,23.1,6.6,22.8,5.7z"></path> <path fill="currentColor" d="M12.7,2.3L12,1.6l-0.7,0.7C10.5,3,4,9.7,4,14.1c0,4.9,4.1,7.9,8,7.9c3.9,0,8-2.9,8-7.9 C20,9.7,13.5,3,12.7,2.3z"></path></g></svg>