<svg id="nc_icon" version="1.1" xmlns="http://www.w3.org/2000/svg" xmlns:xlink="http://www.w3.org/1999/xlink" x="0px" y="0px" viewBox="0 0 24 24" xml:space="preserve" ><g class="nc-icon-wrapper" fill="currentColor"><path fill="currentColor" d="M16.484,1.125c-0.316-0.175-0.706-0.166-1.015,0.027L7.713,6H4c-2.206,0-4,1.794-4,4s1.794,4,4,4h3.713 l7.757,4.848C15.632,18.949,15.815,19,16,19c0.167,0,0.334-0.042,0.484-0.125C16.803,18.698,17,18.363,17,18V2 C17,1.637,16.803,1.302,16.484,1.125z"></path> <rect data-color="color-2" x="20" y="9" fill="currentColor" width="4" height="2"></rect> <rect data-color="color-2" x="18.66" y="4" transform="matrix(0.8661 -0.4999 0.4999 0.8661 0.2674 10.9981)" fill="currentColor" width="4.001" height="2"></rect> <rect data-color="color-2" x="19.66" y="13" transform="matrix(0.4999 -0.8661 0.8661 0.4999 -2.6593 25.3944)" fill="currentColor" width="2" height="4.001"></rect> <path fill="currentColor" d="M7.702,16H4.19l2.735,6.047c0.362,0.811,1.312,1.174,2.123,0.813c0.811-0.362,1.174-1.312,0.813-2.123 L7.702,16z"></path></g></svg>