<svg id="nc_icon" version="1.1" xmlns="http://www.w3.org/2000/svg" xmlns:xlink="http://www.w3.org/1999/xlink" x="0px" y="0px" viewBox="0 0 24 24" xml:space="preserve" ><g class="nc-icon-wrapper" fill="currentColor"><path fill="currentColor" d="M17.57,2.178c-0.27-0.188-0.613-0.23-0.921-0.115l-16,6C0.259,8.21,0,8.583,0,9v6 c0,0.417,0.259,0.79,0.649,0.937L2,16.443V20c0,0.489,0.354,0.906,0.835,0.986l6,1C8.89,21.996,8.945,22,9,22 c0.235,0,0.464-0.083,0.646-0.237C9.871,21.573,10,21.294,10,21v-1.557l6.649,2.493C16.763,21.979,16.882,22,17,22 c0.201,0,0.4-0.061,0.57-0.178C17.839,21.635,18,21.328,18,21V3C18,2.672,17.839,2.365,17.57,2.178z M8,19.819l-4-0.667v-1.96l4,1.5 V19.819z"></path> <rect data-color="color-2" x="20" y="11" fill="currentColor" width="4" height="2"></rect> <rect data-color="color-2" x="18.66" y="6" transform="matrix(0.8661 -0.4999 0.4999 0.8661 -0.7325 11.2659)" fill="currentColor" width="4.001" height="2"></rect> <rect data-color="color-2" x="19.66" y="15" transform="matrix(0.4999 -0.8661 0.8661 0.4999 -4.3915 26.3945)" fill="currentColor" width="2" height="4.001"></rect></g></svg>