<svg id="nc_icon" version="1.1" xmlns="http://www.w3.org/2000/svg" xmlns:xlink="http://www.w3.org/1999/xlink" x="0px" y="0px" viewBox="0 0 24 24" xml:space="preserve" ><g class="nc-icon-wrapper" fill="currentColor"><path fill="currentColor" d="M23.4287109,13.7763672c-1.7183228-0.8152466-3.7015381-0.9810791-5.5285645-0.4889526 c-0.3394775-0.380188-0.75-0.7219849-1.2183228-1.0203247C17.5888062,11.4609985,18.7660522,11,20,11c0.5527344,0,1-0.4477539,1-1 s-0.4472656-1-1-1c-2.022583,0-3.9356079,0.8834839-5.2582397,2.3913574C14.1958618,11.2296753,13.6103516,11.1207886,13,11.060791 V3c0-0.5522461-0.4472656-1-1-1s-1,0.4477539-1,1v8.060791c-0.6103516,0.0599976-1.1958618,0.1688843-1.7417603,0.3305664 C7.9356079,9.8834839,6.022583,9,4,9c-0.5527344,0-1,0.4477539-1,1s0.4472656,1,1,1 c1.2338867,0,2.4112549,0.4609985,3.3181763,1.2670898c-0.4682617,0.2983398-0.8788452,0.6401367-1.2183228,1.0203247 c-1.8270264-0.4921265-3.8102417-0.3262939-5.5285645,0.4889526c-0.4990234,0.2368164-0.7119141,0.8334961-0.4746094,1.3320312 c0.1708984,0.3608398,0.5302734,0.5712891,0.9042969,0.5712891c0.1435547,0,0.2890625-0.0307617,0.4277344-0.0966797 c1.1446533-0.5436401,2.4472656-0.6972046,3.6842041-0.46698C5.0429077,15.4047852,5,15.7011108,5,16.0063477 c0,0.2573242,0.0342407,0.5072632,0.0843506,0.7531128C3.2078857,17.8041382,2,19.8049927,2,22.0063477c0,0.5522461,0.4472656,1,1,1 s1-0.4477539,1-1c0-1.4321289,0.7684326-2.7315674,1.9647217-3.4415283C7.1703491,20.0355225,9.3948364,21.0063477,12,21.0063477 s4.8296509-0.9708252,6.0352783-2.4415283C19.2315674,19.2747803,20,20.5742188,20,22.0063477c0,0.5522461,0.4472656,1,1,1 s1-0.4477539,1-1c0-2.201355-1.2078857-4.2022095-3.0843506-5.2468872C18.9657593,16.5136108,19,16.2636719,19,16.0063477 c0-0.3049927-0.0428467-0.6010742-0.112793-0.8896484c1.2368774-0.2296143,2.5394897-0.0765381,3.684082,0.4663086 c0.1386719,0.065918,0.2841797,0.0966797,0.4277344,0.0966797c0.3740234,0,0.7333984-0.2109375,0.9042969-0.5712891 C24.140625,14.6098633,23.9277344,14.0131836,23.4287109,13.7763672z"></path></g></svg>