<svg id="nc_icon" version="1.1" xmlns="http://www.w3.org/2000/svg" xmlns:xlink="http://www.w3.org/1999/xlink" x="0px" y="0px" viewBox="0 0 24 24" xml:space="preserve" ><g class="nc-icon-wrapper" fill="currentColor"><path fill="currentColor" d="M19.094,13.68L15.414,10l2.567-2.567C18.576,7.785,19.26,8,20,8c2.206,0,4-1.794,4-4s-1.794-4-4-4 s-4,1.794-4,4c0,0.74,0.215,1.424,0.567,2.019L0.586,22L2,23.414l12-12l4.293,4.293C18.487,15.901,18.743,16,19,16 c0.21,0,0.421-0.065,0.6-0.2l4-3l-1.2-1.6L19.094,13.68z"></path> <path data-color="color-2" fill="currentColor" d="M10.693,5.107L13,7.414L14.414,6l-2.707-2.707c-0.249-0.248-0.607-0.349-0.95-0.263 l-4.97,1.242l0.485,1.94L10.693,5.107z"></path> <path data-color="color-2" fill="currentColor" d="M13,14.586L11.586,16l2.726,2.726l-5.654,2.827l0.895,1.789l6.895-3.447 c0.288-0.144,0.488-0.417,0.54-0.734c0.051-0.317-0.053-0.64-0.28-0.867L13,14.586z"></path></g></svg>