<svg id="nc_icon" version="1.1" xmlns="http://www.w3.org/2000/svg" xmlns:xlink="http://www.w3.org/1999/xlink" x="0px" y="0px" viewBox="0 0 24 24" xml:space="preserve" ><g class="nc-icon-wrapper" fill="currentColor"><path fill="currentColor" d="M10,8V4c0-0.552-0.448-1-1-1H5C4.448,3,4,3.448,4,4v4l-4,3v12c0,0.552,0.448,1,1,1h12c0.552,0,1-0.448,1-1 V11L10,8z"></path> <rect data-color="color-2" x="19" y="7" fill="currentColor" width="5" height="2"></rect> <rect data-color="color-2" x="17.133" y="0.974" transform="matrix(0.7071 -0.7071 0.7071 0.7071 4.1471 13.9604)" fill="currentColor" width="3.584" height="2"></rect> <rect data-color="color-2" x="17.19" y="13.049" transform="matrix(0.7071 0.7071 -0.7071 0.7071 15.4842 -9.2838)" fill="currentColor" width="3.518" height="2"></rect></g></svg>