<svg id="nc_icon" version="1.1" xmlns="http://www.w3.org/2000/svg" xmlns:xlink="http://www.w3.org/1999/xlink" x="0px" y="0px" viewBox="0 0 24 24" xml:space="preserve" ><g class="nc-icon-wrapper" fill="currentColor"><path data-color="color-2" fill="currentColor" d="M22,24H2c-0.347,0-0.668-0.18-0.851-0.474c-0.182-0.295-0.199-0.663-0.044-0.973l3-6 c0.247-0.494,0.847-0.694,1.342-0.447c0.494,0.247,0.694,0.848,0.447,1.342L3.618,22h16.764l-2.276-4.553 c-0.247-0.494-0.047-1.095,0.447-1.342c0.495-0.247,1.095-0.046,1.342,0.447l3,6c0.155,0.31,0.138,0.678-0.044,0.973 C22.668,23.82,22.347,24,22,24z"></path> <path fill="currentColor" d="M12,0C8.067,0,4,2.992,4,8c0,4.6,6.544,11.327,7.29,12.08c0.188,0.189,0.443,0.295,0.71,0.295 s0.522-0.106,0.71-0.295C13.456,19.327,20,12.6,20,8C20,2.992,15.933,0,12,0z M12,10c-1.105,0-2-0.895-2-2c0-1.105,0.895-2,2-2 s2,0.895,2,2C14,9.105,13.105,10,12,10z"></path></g></svg>