<svg id="nc_icon" version="1.1" xmlns="http://www.w3.org/2000/svg" xmlns:xlink="http://www.w3.org/1999/xlink" x="0px" y="0px" viewBox="0 0 24 24" xml:space="preserve" ><g class="nc-icon-wrapper" fill="currentColor"><path data-color="color-2" fill="currentColor" d="M22,24H2c-0.347,0-0.668-0.18-0.851-0.474c-0.182-0.295-0.199-0.663-0.044-0.973l3-6 C4.275,16.214,4.621,16,5,16h4v2H5.618l-2,4h16.764l-2-4H15v-2h4c0.379,0,0.725,0.214,0.895,0.553l3,6 c0.155,0.31,0.138,0.678-0.044,0.973C22.668,23.82,22.347,24,22,24z"></path> <path fill="currentColor" d="M19,7c0-3.86-3.14-7-7-7S5,3.14,5,7c0,3.519,2.613,6.432,6,6.92V20h2v-6.08C16.387,13.432,19,10.519,19,7z"></path></g></svg>