<svg id="nc_icon" version="1.1" xmlns="http://www.w3.org/2000/svg" xmlns:xlink="http://www.w3.org/1999/xlink" x="0px" y="0px" viewBox="0 0 24 24" xml:space="preserve" ><g class="nc-icon-wrapper" fill="currentColor"><circle data-color="color-2" fill="currentColor" cx="12" cy="3" r="3"></circle> <path fill="currentColor" d="M19.895,13.553l-2.447-4.895C16.936,7.636,15.907,7,14.764,7H9.236C8.093,7,7.064,7.636,6.553,8.658 l-2.447,4.895c-0.247,0.494-0.047,1.095,0.447,1.342c0.495,0.245,1.094,0.047,1.342-0.447l2.447-4.895 c0.093-0.186,0.239-0.328,0.413-0.424L6.78,19H9v4c0,0.553,0.447,1,1,1s1-0.447,1-1v-4h2v4c0,0.553,0.447,1,1,1s1-0.447,1-1v-4h2.22 l-1.974-9.871c0.174,0.096,0.32,0.238,0.413,0.424l2.447,4.895c0.246,0.49,0.843,0.695,1.342,0.447 C19.941,14.647,20.142,14.047,19.895,13.553z"></path></g></svg>