<svg id="nc_icon" version="1.1" xmlns="http://www.w3.org/2000/svg" xmlns:xlink="http://www.w3.org/1999/xlink" x="0px" y="0px" viewBox="0 0 24 24" xml:space="preserve" ><g class="nc-icon-wrapper" fill="currentColor"><path fill="currentColor" d="M17,6c-1.8,0-2.7-0.8-3.8-1.9C11.8,2.7,10,1,6,1C2.6,1,0,3.6,0,7c0,3.5,3.3,9,12,9c7.4,0,12-0.2,12-5 C24,8,20.4,6,17,6z M10.2,9.5c-0.7,0.6-1.8,0.9-2.8,0.9c-0.2,0-0.5,0-0.7-0.1C5.2,10,4,8.6,4,7.2c0-1.3,0.9-2.7,2.6-2.7 C8.1,4.6,11,6.2,11,8C11,8.4,10.9,8.9,10.2,9.5z"></path> <path data-color="color-2" fill="currentColor" d="M12,18c-6.1,0-9.9-2.4-12-5.3V14c0,3.5,3.3,9,12,9c7.4,0,12-0.2,12-5v-2.2 C21.4,18,16.7,18,12,18z"></path></g></svg>