<svg id="nc_icon" xmlns="http://www.w3.org/2000/svg" xmlns:xlink="http://www.w3.org/1999/xlink" x="0px" y="0px" viewBox="0 0 24 24" ><g class="nc-icon-wrapper" fill="currentColor"><path d="M23.236,5.429a8.359,8.359,0,0,0-4.849-3.893,8.9,8.9,0,0,0-6.756.272c-2.582,1.275-3.442,3.6-4.2,5.645-.617,1.664-1.149,3.1-2.488,3.779l-1.759.926A5.645,5.645,0,0,0,.257,15.406a5.456,5.456,0,0,0,.416,4.273,6.11,6.11,0,0,0,4.018,2.875A13.375,13.375,0,0,0,8.232,23a18.577,18.577,0,0,0,9.452-2.636C23.239,16.913,25.23,9.5,23.236,5.429ZM8,19.414,4.586,16,6,14.586,9.414,18Zm6-3L9.586,12,11,10.586,15.414,15Zm5-4L12.586,6,14,4.586,20.414,11Z" fill="currentColor"></path> </g></svg>