<svg id="nc_icon" xmlns="http://www.w3.org/2000/svg" xmlns:xlink="http://www.w3.org/1999/xlink" x="0px" y="0px" viewBox="0 0 24 24" ><g class="nc-icon-wrapper" fill="currentColor"><path fill="currentColor" d="M12,0C5.3828125,0,0,5.3833008,0,12s5.3828125,12,12,12s12-5.3833008,12-12S18.6171875,0,12,0z M12,2 c4.0914307,0,7.6125488,2.4725952,9.1592407,6H2.8408203C4.3875122,4.4725952,7.9085693,2,12,2z M2,12 c0-0.1074829,0.0127563-0.211731,0.0161133-0.3184204c4.289978,1.5153809,7.4432983,5.4158936,7.9205322,10.1018677 C5.4098511,20.8296509,2,16.8066406,2,12z M12,15c-1.1045532,0-2-0.8954468-2-2c0-1.1046143,0.8954468-2,2-2s2,0.8953857,2,2 C14,14.1045532,13.1045532,15,12,15z M14.0633545,21.7834473c0.4772339-4.6859741,3.6305542-8.5864868,7.9205322-10.1018677 C21.9872437,11.788269,22,11.8925171,22,12C22,16.8066406,18.5901489,20.8296509,14.0633545,21.7834473z"></path></g></svg>