<svg id="nc_icon" version="1.1" xmlns="http://www.w3.org/2000/svg" xmlns:xlink="http://www.w3.org/1999/xlink" x="0px" y="0px" viewBox="0 0 24 24" xml:space="preserve" ><g class="nc-icon-wrapper" fill="currentColor"><path fill="currentColor" d="M18,0c-2.9,0-5,2.6-5,6c0,1.2,0.2,2,0.4,2.9C13.7,9.9,14,11,14,13c0,0.6,0.4,1,1,1h6c0.5,0,0.9-0.3,1-0.8 c0-0.2,1-4.2,1-7.2C23,2.6,20.9,0,18,0z"></path> <path fill="currentColor" d="M6,2C3.1,2,1,4.6,1,8c0,3.1,1,7.1,1,7.2C2.1,15.7,2.5,16,3,16h6c0.6,0,1-0.4,1-1c0-2,0.3-3.1,0.6-4.1 C10.8,10,11,9.2,11,8C11,4.6,8.9,2,6,2z"></path> <path data-color="color-2" fill="currentColor" d="M9.3,18H2.7c-0.4,0-0.8,0.3-0.9,0.7h0c-0.2,0.8-0.2,1.7,0.1,2.5C2.7,23,4.3,24,6,24 c1.6,0,3.1-0.9,3.8-2.4c0.4-0.9,0.5-1.9,0.3-2.9h0C10.1,18.3,9.7,18,9.3,18z"></path> <path data-color="color-2" fill="currentColor" d="M21.3,16h-6.6c-0.4,0-0.8,0.3-0.9,0.7h0c-0.2,0.8-0.2,1.7,0.1,2.5c0.7,1.7,2.3,2.8,4,2.8 c1.6,0,3.1-0.9,3.8-2.4c0.4-0.9,0.5-1.9,0.3-2.9l0,0C22.1,16.3,21.7,16,21.3,16z"></path></g></svg>