<svg id="nc_icon" version="1.1" xmlns="http://www.w3.org/2000/svg" xmlns:xlink="http://www.w3.org/1999/xlink" x="0px" y="0px" viewBox="0 0 24 24" xml:space="preserve" ><g class="nc-icon-wrapper" fill="currentColor"><path fill="currentColor" d="M24,18H7.858C7.495,16.601,6.399,15.505,5,15.142V2c0-0.553-0.447-1-1-1H0v2h3v12.142 C1.279,15.589,0,17.141,0,19c0,2.206,1.794,4,4,4c1.859,0,3.411-1.279,3.858-3H24V18z M4,21c-1.103,0-2-0.897-2-2s0.897-2,2-2 s2,0.897,2,2S5.103,21,4,21z"></path> <path data-color="color-2" fill="currentColor" d="M21,15H9c-0.552,0-1-0.448-1-1V4c0-0.552,0.448-1,1-1h12c0.552,0,1,0.448,1,1v10 C22,14.552,21.552,15,21,15z"></path></g></svg>