<svg id="nc_icon" version="1.1" xmlns="http://www.w3.org/2000/svg" xmlns:xlink="http://www.w3.org/1999/xlink" x="0px" y="0px" viewBox="0 0 24 24" xml:space="preserve" ><g class="nc-icon-wrapper" fill="currentColor"><path fill="currentColor" d="M19.471,12.854c0.509-0.451,0.924-1.004,1.187-1.643L24,12.882V2c0-0.552-0.448-1-1-1H1C0.448,1,0,1.448,0,2	v12.4l5.989-4.658l4.045,3.034l2.314-1.544c0.263,0.629,0.676,1.174,1.178,1.62l-3.561,2.373l-3.955-2.966L0,16.934V22	c0,0.552,0.448,1,1,1h22c0.552,0,1-0.448,1-1v-6.882L19.471,12.854z M17,11.949V21h-1v-9.051c-1.14-0.232-2-1.242-2-2.449	s0.86-2.217,2-2.449V3h1v4.051c1.14,0.232,2,1.242,2,2.449S18.14,11.717,17,11.949z"></path></g></svg>