<svg id="nc_icon" xmlns="http://www.w3.org/2000/svg" xmlns:xlink="http://www.w3.org/1999/xlink" x="0px" y="0px" viewBox="0 0 24 24" ><g class="nc-icon-wrapper" fill="currentColor"><path data-color="color-2" fill="currentColor" d="M23.8,6.4L21,2.667V1c0-0.553-0.448-1-1-1H4C3.448,0,3,0.447,3,1v1.667L0.2,6.4 C0.07,6.573,0,6.783,0,7v2c0,0.553,0.448,1,1,1h22c0.552,0,1-0.447,1-1V7C24,6.783,23.93,6.573,23.8,6.4z"></path> <path fill="currentColor" d="M2,12v11c0,0.552,0.448,1,1,1h9v-6h4v6h5c0.552,0,1-0.448,1-1V12H2z M9,18H5v-3h4V18z"></path></g></svg>