<svg id="nc_icon" xmlns="http://www.w3.org/2000/svg" xmlns:xlink="http://www.w3.org/1999/xlink" x="0px" y="0px" viewBox="0 0 24 24" ><g class="nc-icon-wrapper" fill="currentColor"><path d="M20.856,7.705a5.97,5.97,0,0,0-3.248-2.43A11.543,11.543,0,0,0,19,2.515a36.224,36.224,0,0,0-4.323,2.109A34.7,34.7,0,0,0,12,0,34.7,34.7,0,0,0,9.323,4.624,36.224,36.224,0,0,0,5,2.515a11.543,11.543,0,0,0,1.392,2.76A5.988,5.988,0,0,0,2.655,13.4C5.7,20.433,8.847,24,12,24s6.3-3.567,9.345-10.6A6,6,0,0,0,20.856,7.705ZM7,10a1,1,0,1,1,1,1A1,1,0,0,1,7,10Zm2,8a1,1,0,1,1,1-1A1,1,0,0,1,9,18Zm3-4a1,1,0,1,1,1-1A1,1,0,0,1,12,14Zm3,4a1,1,0,1,1,1-1A1,1,0,0,1,15,18Zm1-7a1,1,0,1,1,1-1A1,1,0,0,1,16,11Z" fill="currentColor"></path></g></svg>