<svg id="nc_icon" version="1.1" xmlns="http://www.w3.org/2000/svg" xmlns:xlink="http://www.w3.org/1999/xlink" x="0px" y="0px" viewBox="0 0 24 24" xml:space="preserve" ><g class="nc-icon-wrapper" fill="currentColor"><path fill="currentColor" d="M14,19.43842V15h-4v4.43842c0,0.91772-0.62457,1.71771-1.51495,1.94031L6,22v2h12v-2l-2.48505-0.62128 C14.62457,21.15613,14,20.35614,14,19.43842z"></path> <path fill="currentColor" d="M14,3h3.55847c0.8609,0,1.62512,0.55084,1.8974,1.36755L20,6h2V0H2v6h2l0.54413-1.63245 C4.81641,3.55084,5.58063,3,6.44153,3H10v8h4V3z"></path> <polygon data-color="color-2" fill="currentColor" points="24,13 24,11 14,11 10,11 0,11 0,13 "></polygon></g></svg>