<svg id="nc_icon" version="1.1" xmlns="http://www.w3.org/2000/svg" xmlns:xlink="http://www.w3.org/1999/xlink" x="0px" y="0px" viewBox="0 0 24 24" xml:space="preserve" ><g class="nc-icon-wrapper" fill="currentColor"><path data-color="color-2" fill="currentColor" d="M17.3099,22v-0.9443l1.36056-1.32973c1.02524-0.99495,1.46187-1.40075,1.46187-1.97944 c0-0.37607-0.1828-0.64972-0.72075-0.64972c-0.55887,0-0.79233,0.1828-0.79233,0.90355l-1.38038-0.12223 C17.24879,16.26429,18.4772,16,19.54318,16c1.57364,0,2.13196,0.67009,2.13196,1.6243c0,0.95476-0.65963,1.58411-1.40075,2.29439 l-1.14747,1.09682h1.4927c0.10131,0,0.14206-0.02037,0.16243-0.12223l0.14206-0.80169H22V22H17.3099z"></path> <path fill="currentColor" d="M6,21v-1.58333l2.62927-0.15497C8.93922,19.23913,9,19.15086,9,18.81933V4H4.18826 C3.94501,4,3.87831,4.02207,3.83418,4.24325L3.48107,6H2V2h16v4h-1.48107l-0.3531-1.75675C16.12169,4.02207,16.05499,4,15.81174,4 H11v14.81933c0,0.30995,0.03822,0.39822,0.36975,0.4198L14,19.41667V21H6z"></path></g></svg>