<svg id="nc_icon" version="1.1" xmlns="http://www.w3.org/2000/svg" xmlns:xlink="http://www.w3.org/1999/xlink" x="0px" y="0px" viewBox="0 0 24 24" xml:space="preserve" ><g class="nc-icon-wrapper" fill="currentColor"><path data-color="color-2" fill="currentColor" d="M11.2,15.8C10.4,16.9,9,18.7,9,20c0,1.9,1.5,3,3,3s3-1.1,3-3c0-1.3-1.4-3.1-2.2-4.1 C12.4,15.4,11.6,15.4,11.2,15.8z"></path> <path fill="currentColor" d="M17,0c-3.2,0-5.9,2.1-6.7,5.1C8.5,5.5,6.9,6.5,6,8.1C5.6,8,5.3,8,5,8c-2.8,0-5,2.2-5,5s2.2,5,5,5h2.4 c0.4-0.9,1-2,2.3-3.4c0.6-0.7,1.4-1.1,2.3-1.1s1.7,0.4,2.3,1.1c1.2,1.5,1.9,2.6,2.3,3.4H19c2.8,0,5-2.2,5-5c0-1-0.3-2-0.8-2.8 C23.7,9.2,24,8.1,24,7C24,3.1,20.9,0,17,0z M17.2,8.3c-1-1.8-2.7-3-4.8-3.3C13.2,3.2,14.9,2,17,2c2.8,0,5,2.2,5,5 c0,0.6-0.1,1.2-0.3,1.8C20.9,8.3,20,8,19,8C18.4,8,17.8,8.1,17.2,8.3z"></path></g></svg>