<svg id="nc_icon" version="1.1" xmlns="http://www.w3.org/2000/svg" xmlns:xlink="http://www.w3.org/1999/xlink" x="0px" y="0px" viewBox="0 0 24 24" xml:space="preserve" ><g class="nc-icon-wrapper" fill="currentColor"><path data-color="color-2" fill="currentColor" d="M16.3,16.5c-0.3-0.5-0.9-0.6-1.4-0.4l-2,1.1V15c0-0.6-0.4-1-1-1s-1,0.4-1,1v2.3l-2-1.1 c-0.5-0.3-1.1-0.1-1.4,0.4S7.6,17.6,8,17.9l2,1.1l-2,1.1c-0.5,0.3-0.6,0.9-0.4,1.4C7.9,21.8,8.2,22,8.5,22c0.2,0,0.3,0,0.5-0.1 l2-1.1V23c0,0.6,0.4,1,1,1s1-0.4,1-1v-2.3l2,1.1c0.2,0.1,0.3,0.1,0.5,0.1c0.3,0,0.7-0.2,0.9-0.5c0.3-0.5,0.1-1.1-0.4-1.4L14,19 l2-1.1C16.4,17.6,16.6,17,16.3,16.5z"></path> <path fill="currentColor" d="M17,0c-3.2,0-5.9,2.1-6.7,5.1C8.5,5.5,6.9,6.5,6,8.1C5.6,8,5.3,8,5,8c-2.8,0-5,2.2-5,5s2.2,5,5,5h0.7 c-0.3-0.8-0.2-1.7,0.2-2.5C6.5,14.6,7.5,14,8.5,14c0.2,0,0.4,0,0.6,0.1C9.5,12.9,10.7,12,12,12s2.5,0.9,2.9,2.1 c0.2,0,0.4-0.1,0.6-0.1c1.1,0,2.1,0.6,2.6,1.5c0.5,0.8,0.5,1.7,0.2,2.5H19c2.8,0,5-2.2,5-5c0-1-0.3-2-0.8-2.8C23.7,9.2,24,8.1,24,7 C24,3.1,20.9,0,17,0z M17.2,8.3c-1-1.8-2.7-3-4.8-3.3C13.2,3.2,14.9,2,17,2c2.8,0,5,2.2,5,5c0,0.6-0.1,1.2-0.3,1.8 C20.9,8.3,20,8,19,8C18.4,8,17.8,8.1,17.2,8.3z"></path></g></svg>