<svg id="nc_icon" version="1.1" xmlns="http://www.w3.org/2000/svg" xmlns:xlink="http://www.w3.org/1999/xlink" x="0px" y="0px" viewBox="0 0 24 24" xml:space="preserve" ><g class="nc-icon-wrapper" fill="currentColor"><path fill="currentColor" d="M12,5c-3.86,0-7,3.14-7,7c0,1.075,0.25,2.089,0.685,3H8c1.654,0,3,1.346,3,3 c0,0.314-0.062,0.612-0.152,0.897C11.224,18.959,11.607,19,12,19c3.86,0,7-3.14,7-7S15.86,5,12,5z"></path> <path data-color="color-2" fill="currentColor" d="M8,19H1c-0.552,0-1-0.448-1-1s0.448-1,1-1h7c0.552,0,1,0.448,1,1S8.552,19,8,19z"></path> <path data-color="color-2" fill="currentColor" d="M13,23H5c-0.552,0-1-0.448-1-1s0.448-1,1-1h8c0.552,0,1,0.448,1,1S13.552,23,13,23z"></path> <rect x="11" fill="currentColor" width="2" height="3"></rect> <rect x="3.575" y="3.075" transform="matrix(0.7071 -0.7071 0.7071 0.7071 -1.8952 4.5754)" fill="currentColor" width="2" height="3"></rect> <rect x="0.5" y="10.5" transform="matrix(4.456530e-11 -1 1 4.456530e-11 -10.5 13.5)" fill="currentColor" width="2" height="3"></rect> <rect x="18.425" y="3.075" transform="matrix(0.7071 0.7071 -0.7071 0.7071 8.9246 -12.3952)" fill="currentColor" width="2" height="3"></rect> <rect x="21.5" y="10.5" transform="matrix(4.501980e-11 1 -1 4.501980e-11 34.5 -10.5)" fill="currentColor" width="2" height="3"></rect> <rect x="18.425" y="17.925" transform="matrix(-0.7071 0.7071 -0.7071 -0.7071 46.8952 19.4246)" fill="currentColor" width="2" height="3"></rect></g></svg>