<svg id="nc_icon" version="1.1" xmlns="http://www.w3.org/2000/svg" xmlns:xlink="http://www.w3.org/1999/xlink" x="0px" y="0px" viewBox="0 0 24 24" xml:space="preserve" ><g class="nc-icon-wrapper" fill="currentColor"><path data-color="color-2" fill="currentColor" d="M23,16H1c-0.6,0-1,0.4-1,1s0.4,1,1,1h22c0.6,0,1-0.4,1-1S23.6,16,23,16z"></path> <path data-color="color-2" fill="currentColor" d="M20,20H4c-0.6,0-1,0.4-1,1s0.4,1,1,1h16c0.6,0,1-0.4,1-1S20.6,20,20,20z"></path> <path fill="currentColor" d="M23.2,10.3C23.7,9.2,24,8.1,24,7c0-3.9-3.1-7-7-7c-3.2,0-5.9,2.1-6.7,5.1C8.5,5.5,6.9,6.5,6,8.1 C5.6,8,5.3,8,5,8c-2.8,0-5,2.2-5,5c0,0.6,0.4,1,1,1h22c0,0,0,0,0,0c0.6,0,1-0.4,1-1c0-0.1,0-0.2,0-0.2C24,11.8,23.6,11,23.2,10.3z M21.7,8.8C20.9,8.3,20,8,19,8c-0.6,0-1.2,0.1-1.8,0.3c-1-1.8-2.7-3-4.8-3.3C13.2,3.2,14.9,2,17,2c2.8,0,5,2.2,5,5 C22,7.6,21.9,8.2,21.7,8.8z"></path></g></svg>