<svg id="nc_icon" version="1.1" xmlns="http://www.w3.org/2000/svg" xmlns:xlink="http://www.w3.org/1999/xlink" x="0px" y="0px" viewBox="0 0 24 24" xml:space="preserve" ><g class="nc-icon-wrapper" fill="currentColor"><path fill="currentColor" d="M19,14c-0.108,0-0.213,0.023-0.321,0.03C18.879,13.374,19,12.692,19,12c0-3.859-3.14-7-7-7s-7,3.141-7,7 c0,0.691,0.115,1.375,0.314,2.032C5.209,14.025,5.105,14,5,14c-2.757,0-5,2.243-5,5s2.243,5,5,5h14c2.757,0,5-2.243,5-5 S21.757,14,19,14z M12,7c2.757,0,5,2.243,5,5c0,0.569-0.093,1.121-0.274,1.642C15.523,12.011,13.601,11,11.5,11 c-1.679,0-3.253,0.652-4.435,1.758C7.026,12.507,7,12.255,7,12C7,9.243,9.243,7,12,7z"></path> <rect data-color="color-2" x="11" fill="currentColor" width="2" height="3"></rect> <rect data-color="color-2" x="18.425" y="3.075" transform="matrix(0.7071 0.7071 -0.7071 0.7071 8.9246 -12.3952)" fill="currentColor" width="2" height="3"></rect> <rect data-color="color-2" x="21.5" y="10.5" transform="matrix(4.501980e-11 1 -1 4.501980e-11 34.5 -10.5)" fill="currentColor" width="2" height="3"></rect> <rect data-color="color-2" x="0.5" y="10.5" transform="matrix(-1.341504e-10 -1 1 -1.341504e-10 -10.5 13.5)" fill="currentColor" width="2" height="3"></rect> <rect data-color="color-2" x="3.575" y="3.075" transform="matrix(0.7071 -0.7071 0.7071 0.7071 -1.8952 4.5754)" fill="currentColor" width="2" height="3"></rect></g></svg>