<svg id="nc_icon" version="1.1" xmlns="http://www.w3.org/2000/svg" xmlns:xlink="http://www.w3.org/1999/xlink" x="0px" y="0px" viewBox="0 0 24 24" xml:space="preserve" ><g class="nc-icon-wrapper" fill="currentColor"><path data-color="color-2" fill="currentColor" d="M23,14H1c-0.6,0-1,0.4-1,1s0.4,1,1,1h22c0.6,0,1-0.4,1-1S23.6,14,23,14z"></path> <path data-color="color-2" fill="currentColor" d="M20,18H4c-0.6,0-1,0.4-1,1s0.4,1,1,1h16c0.6,0,1-0.4,1-1S20.6,18,20,18z"></path> <path data-color="color-2" fill="currentColor" d="M17,22H7c-0.6,0-1,0.4-1,1s0.4,1,1,1h10c0.6,0,1-0.4,1-1S17.6,22,17,22z"></path> <path fill="currentColor" d="M2,12h20c0,0,0,0,0,0c0.6,0,1-0.4,1-1c0-0.1,0-0.1,0-0.2C22.9,4.8,18,0,12,0C5.9,0,1,4.9,1,11 C1,11.6,1.4,12,2,12z"></path></g></svg>