<svg id="nc_icon" version="1.1" xmlns="http://www.w3.org/2000/svg" xmlns:xlink="http://www.w3.org/1999/xlink" x="0px" y="0px" viewBox="0 0 24 24" xml:space="preserve" ><g class="nc-icon-wrapper" fill="currentColor"><path fill="currentColor" d="M22.4,6C20.3,2.4,16.4,0,12,0C7.6,0,3.7,2.4,1.6,6H22.4z"></path> <path fill="currentColor" d="M21.5,8L20,12h-6l-2-3.3L10,12H4L2.5,8H0.7C0.3,9.3,0,10.6,0,12c0,6.6,5.4,12,12,12c6.6,0,12-5.4,12-12 c0-1.4-0.3-2.7-0.7-4H21.5z M17.8,16.6C15.6,20,12.1,20,12,20h-1v-2h1c0.1,0,2.5-0.1,4.2-2.6l0.6-0.8l1.7,1.1L17.8,16.6z"></path></g></svg>