<svg id="nc_icon" version="1.1" xmlns="http://www.w3.org/2000/svg" xmlns:xlink="http://www.w3.org/1999/xlink" x="0px" y="0px" viewBox="0 0 24 24" xml:space="preserve" ><g class="nc-icon-wrapper" fill="currentColor"><path fill="currentColor" d="M12,0C7.6,0,3.7,2.4,1.6,6h20.8C20.3,2.4,16.4,0,12,0z"></path> <path fill="currentColor" d="M23.3,8h-1.8L20,12h-6l-2-3.3L10,12H4L2.5,8H0.7C0.3,9.3,0,10.6,0,12c0,6.6,5.4,12,12,12c6.6,0,12-5.4,12-12 C24,10.6,23.7,9.3,23.3,8z M16,16c0,2.2-1.8,4-4,4c-2.2,0-4-1.8-4-4h2c0,1.1,0.9,2,2,2c1.1,0,2-0.9,2-2H16z"></path></g></svg>