<svg id="nc_icon" version="1.1" xmlns="http://www.w3.org/2000/svg" xmlns:xlink="http://www.w3.org/1999/xlink" x="0px" y="0px" viewBox="0 0 24 24" xml:space="preserve" ><g class="nc-icon-wrapper" fill="currentColor"><path fill="currentColor" d="M20.5,3.5C18.2,1.2,15.2,0,12,0S5.8,1.2,3.5,3.5c-4.7,4.7-4.7,12.3,0,17C5.8,22.8,8.8,24,12,24 s6.2-1.2,8.5-3.5C25.2,15.8,25.2,8.2,20.5,3.5z M20.9,16.6l-3.1-3.1c0.1-0.5,0.2-1,0.2-1.5s-0.1-1-0.2-1.5l3.1-3.1 C22.4,10.3,22.4,13.7,20.9,16.6z M3.1,7.4l3.1,3.1C6.1,11,6,11.5,6,12s0.1,1,0.2,1.5l-3.1,3.1C1.6,13.7,1.6,10.3,3.1,7.4z M9.2,14.8 C8.4,14.1,8,13.1,8,12s0.4-2.1,1.2-2.8C9.9,8.4,10.9,8,12,8s2.1,0.4,2.8,1.2C15.6,9.9,16,10.9,16,12s-0.4,2.1-1.2,2.8 C13.3,16.3,10.7,16.3,9.2,14.8z M16.6,3.1l-3.1,3.1C13,6.1,12.5,6,12,6s-1,0.1-1.6,0.2L7.4,3.1C8.8,2.4,10.4,2,12,2 S15.2,2.4,16.6,3.1z M7.4,20.9l3.1-3.1c0.5,0.1,1,0.2,1.6,0.2s1-0.1,1.6-0.2l3.1,3.1c-1.4,0.7-3,1.1-4.6,1.1S8.8,21.6,7.4,20.9z"></path></g></svg>