<svg id="nc_icon" xmlns="http://www.w3.org/2000/svg" xmlns:xlink="http://www.w3.org/1999/xlink" x="0px" y="0px" viewBox="0 0 24 24" ><g class="nc-icon-wrapper" fill="currentColor"><path data-color="color-2" d="M4.06,22.658a1,1,0,0,0,1.88.684l1.234-3.395-2.452.892Z" fill="currentColor"></path> <path d="M23.94,10.658a1,1,0,0,0-1.282-.6l-1.211.44A5.943,5.943,0,0,0,22,8a6.006,6.006,0,0,0-6-6,5.943,5.943,0,0,0-2.5.553l.44-1.211A1,1,0,0,0,12.06.658L6.505,15.934.658,18.06a1,1,0,0,0,.684,1.88l22-8A1,1,0,0,0,23.94,10.658ZM8.958,15.042l1.627-4.475a6.024,6.024,0,0,0,2.848,2.848ZM16,10a2,2,0,1,1,2-2A2,2,0,0,1,16,10Z" fill="currentColor"></path></g></svg>