<svg id="nc_icon" version="1.1" xmlns="http://www.w3.org/2000/svg" xmlns:xlink="http://www.w3.org/1999/xlink" x="0px" y="0px" viewBox="0 0 24 24" xml:space="preserve" ><g class="nc-icon-wrapper" fill="currentColor"><path data-color="color-2" fill="currentColor" d="M22,16H2c-0.6,0-1,0.4-1,1s0.4,1,1,1h3.5l3.7,5.6C9.4,23.8,9.7,24,10,24h4 c0.3,0,0.6-0.2,0.8-0.4l3.7-5.6H22c0.6,0,1-0.4,1-1S22.6,16,22,16z"></path> <path fill="currentColor" d="M22,0c-0.6,0-1,0.4-1,1v4l-9,6.7L3,5V1c0-0.6-0.4-1-1-1C1.4,0,1,0.4,1,1v8c0,2.8,2.2,5,5,5h12 c2.8,0,5-2.2,5-5V1C23,0.4,22.6,0,22,0z"></path></g></svg>