<svg id="nc_icon" version="1.1" xmlns="http://www.w3.org/2000/svg" xmlns:xlink="http://www.w3.org/1999/xlink" x="0px" y="0px" viewBox="0 0 24 24" xml:space="preserve" ><g class="nc-icon-wrapper" fill="currentColor"><polygon data-color="color-2" fill="currentColor" points="7,12 7,18 5,18 5,12 1,12 6,6 11,12 "></polygon> <path fill="currentColor" d="M17.5,2C15.01855,2,13,4.01855,13,6.5V21c0,0.55225,0.44727,1,1,1h7c0.55273,0,1-0.44775,1-1V6.5 C22,4.01855,19.98145,2,17.5,2z M20,8c-0.43927,0.22101-1.31195,0.58722-2.46875,0.59375C16.33972,8.6004,15.44153,8.22211,15,8 c0-0.5,0-1,0-1.5C15,5.11926,16.11932,4,17.5,4C18.88074,4,20,5.11926,20,6.5V8z"></path></g></svg>