<svg id="nc_icon" version="1.1" xmlns="http://www.w3.org/2000/svg" xmlns:xlink="http://www.w3.org/1999/xlink" x="0px" y="0px" viewBox="0 0 24 24" xml:space="preserve" ><g class="nc-icon-wrapper" fill="currentColor"><polygon data-color="color-2" fill="currentColor" points="24,8 18,3 18,7 12,7 12,9 18,9 18,13 "></polygon> <path fill="currentColor" d="M4.5,2C2.01855,2,0,4.01855,0,6.5V21c0,0.55225,0.44775,1,1,1h7c0.55225,0,1-0.44775,1-1V6.5 C9,4.01855,6.98145,2,4.5,2z M7,8C6.56073,8.22101,5.68805,8.58722,4.53125,8.59375C3.33972,8.6004,2.44153,8.22211,2,8 c0-0.5,0-1,0-1.5C2,5.11926,3.11932,4,4.5,4C5.88074,4,7,5.11926,7,6.5V8z"></path></g></svg>