<svg id="nc_icon" version="1.1" xmlns="http://www.w3.org/2000/svg" xmlns:xlink="http://www.w3.org/1999/xlink" x="0px" y="0px" viewBox="0 0 24 24" xml:space="preserve" ><g class="nc-icon-wrapper" fill="currentColor"><polygon data-color="color-2" fill="currentColor" points="12,7 6,7 6,3 0,8 6,13 6,9 12,9 "></polygon> <path fill="currentColor" d="M19.5,2C17.01855,2,15,4.01855,15,6.5V21c0,0.55225,0.44775,1,1,1h7c0.55225,0,1-0.44775,1-1V6.5 C24,4.01855,21.98145,2,19.5,2z M22,8c-0.43927,0.22101-1.31195,0.58722-2.46875,0.59375C18.33972,8.6004,17.44153,8.22211,17,8 c0-0.5,0-1,0-1.5C17,5.11926,18.11932,4,19.5,4C20.88074,4,22,5.11926,22,6.5V8z"></path></g></svg>