<svg id="nc_icon" version="1.1" xmlns="http://www.w3.org/2000/svg" xmlns:xlink="http://www.w3.org/1999/xlink" x="0px" y="0px" viewBox="0 0 24 24" xml:space="preserve" ><g class="nc-icon-wrapper" fill="currentColor"><path data-color="color-2" fill="currentColor" d="M20,16H4c-2.2,0-4,1.8-4,4s1.8,4,4,4h16c2.2,0,4-1.8,4-4S22.2,16,20,16z"></path> <path fill="currentColor" d="M20,14c1.5,0,2.9,0.6,4,1.5V0.1c-4.3-0.6-8,2.7-8,6.9v7H20z"></path> <path fill="currentColor" d="M4,14h3v-2c0-0.6-0.4-1-1-1H5.5c-0.4,0-0.8-0.2-1-0.4C4.2,10.3,4,9.9,4,9.6C4,8.7,4.7,8,5.5,8H6 c0.6,0,1-0.4,1-1V4c0-0.6-0.4-1-1-1H1C0.4,3,0,3.4,0,4v11.5C1.1,14.6,2.5,14,4,14z"></path></g></svg>