<svg id="nc_icon" version="1.1" xmlns="http://www.w3.org/2000/svg" xmlns:xlink="http://www.w3.org/1999/xlink" x="0px" y="0px" viewBox="0 0 24 24" xml:space="preserve" ><g class="nc-icon-wrapper" fill="currentColor"><path data-color="color-2" fill="currentColor" d="M22,8h-6c-1.103,0-2,0.897-2,2v12c0,1.103,0.897,2,2,2h6c1.103,0,2-0.897,2-2V10 C24,8.897,23.103,8,22,8z M22,20h-6V10h6V20z"></path> <path fill="currentColor" d="M21,0H2C0.897,0,0,0.897,0,2v14c0,1.103,0.897,2,2,2h10v-3H7c-0.552,0-1-0.447-1-1V4c0-0.553,0.448-1,1-1h12 c0.552,0,1,0.447,1,1v2h3V2C23,0.897,22.103,0,21,0z M3,10c-0.552,0-1-0.448-1-1c0-0.552,0.448-1,1-1s1,0.448,1,1 C4,9.552,3.552,10,3,10z"></path></g></svg>