<svg id="nc_icon" version="1.1" xmlns="http://www.w3.org/2000/svg" xmlns:xlink="http://www.w3.org/1999/xlink" x="0px" y="0px" viewBox="0 0 24 24" xml:space="preserve" ><g class="nc-icon-wrapper" fill="currentColor"><path fill="currentColor" d="M19,0H5C3.346,0,2,1.346,2,3v18c0,1.654,1.346,3,3,3h14c1.654,0,3-1.346,3-3V3C22,1.346,20.654,0,19,0z M12,20c-0.552,0-1-0.448-1-1c0-0.552,0.448-1,1-1c0.552,0,1,0.448,1,1C13,19.552,12.552,20,12,20z M14,15H6v-2h8V15z M18,11H6V9h12 V11z M18,7H6V5h12V7z"></path></g></svg>