<svg id="nc_icon" version="1.1" xmlns="http://www.w3.org/2000/svg" xmlns:xlink="http://www.w3.org/1999/xlink" x="0px" y="0px" viewBox="0 0 24 24" xml:space="preserve" ><g class="nc-icon-wrapper" fill="currentColor"><rect data-color="color-2" x="6" y="6" fill="currentColor" width="12" height="2"></rect> <rect data-color="color-2" x="6" y="11" fill="currentColor" width="12" height="2"></rect> <rect data-color="color-2" x="6" y="16" fill="currentColor" width="9" height="2"></rect> <path fill="currentColor" d="M20,0H4C2.346,0,1,1.346,1,3v18c0,1.654,1.346,3,3,3h16c1.654,0,3-1.346,3-3V3C23,1.346,21.654,0,20,0z M21,20c0,0.552-0.448,1-1,1H4c-0.552,0-1-0.448-1-1V4c0-0.552,0.448-1,1-1h16c0.552,0,1,0.448,1,1V20z"></path></g></svg>