<svg id="nc_icon" version="1.1" xmlns="http://www.w3.org/2000/svg" xmlns:xlink="http://www.w3.org/1999/xlink" x="0px" y="0px" viewBox="0 0 24 24" xml:space="preserve" ><g class="nc-icon-wrapper" fill="currentColor"><path data-color="color-2" fill="currentColor" d="M6,14v3c0,0.6,0.4,1,1,1c0.6,0,1-0.4,1-1v-3H6z"></path> <path data-color="color-2" fill="currentColor" d="M2,14v8c0,0.6,0.4,1,1,1c0.6,0,1-0.4,1-1v-8H2z"></path> <path fill="currentColor" d="M23.7,7.3l-6-6C17.5,1.1,17.3,1,17,1H7C6.7,1,6.5,1.1,6.3,1.3l-6,6C0.1,7.5,0,7.7,0,8v3c0,0.6,0.4,1,1,1h22 c0.6,0,1-0.4,1-1V8C24,7.7,23.9,7.5,23.7,7.3z"></path> <path data-color="color-2" fill="currentColor" d="M20,14v8c0,0.6,0.4,1,1,1c0.6,0,1-0.4,1-1v-8H20z"></path> <path data-color="color-2" fill="currentColor" d="M16,14v3c0,0.6,0.4,1,1,1c0.6,0,1-0.4,1-1v-3H16z"></path></g></svg>