<svg id="nc_icon" version="1.1" xmlns="http://www.w3.org/2000/svg" xmlns:xlink="http://www.w3.org/1999/xlink" x="0px" y="0px" viewBox="0 0 24 24" xml:space="preserve" ><g class="nc-icon-wrapper" fill="currentColor"><path fill="currentColor" d="M20,0H4C2.346,0,1,1.346,1,3v18c0,1.654,1.346,3,3,3h16c1.654,0,3-1.346,3-3V3C23,1.346,21.654,0,20,0z M12,22c-0.552,0-1-0.448-1-1s0.448-1,1-1s1,0.448,1,1S12.552,22,12,22z M21,17c0,0.552-0.448,1-1,1H4c-0.552,0-1-0.448-1-1V4 c0-0.552,0.448-1,1-1h16c0.552,0,1,0.448,1,1V17z"></path></g></svg>