<svg id="nc_icon" xmlns="http://www.w3.org/2000/svg" xmlns:xlink="http://www.w3.org/1999/xlink" x="0px" y="0px" viewBox="0 0 24 24" ><g class="nc-icon-wrapper" fill="currentColor"><path fill="currentColor" d="M20,5.4140625V9c0,0.5522461,0.4472656,1,1,1s1-0.4477539,1-1V3 c0-0.130127-0.0264893-0.2597656-0.0770264-0.381897c-0.1013184-0.244751-0.2961426-0.4396362-0.5408936-0.5410156 C21.2598877,2.0265503,21.130188,2,21,2h-6c-0.5527344,0-1,0.4477539-1,1s0.4472656,1,1,1h3.5859375L7.7529297,14.8330078 C6.9624023,14.309021,6.017334,14,5,14c-2.7568359,0-5,2.2431641-5,5s2.2431641,5,5,5s5-2.2431641,5-5 c0-1.017334-0.309021-1.9624023-0.8330078-2.7529297L20,5.4140625z M5,22c-1.6542969,0-3-1.3457031-3-3s1.3457031-3,3-3 s3,1.3457031,3,3S6.6542969,22,5,22z"></path> <path data-color="color-2" fill="currentColor" d="M1.2929688,8.7070312c0.3906362,0.3906364,1.0234263,0.3906364,1.4140625,0L5,6.4140625 l2.2929688,2.2929688c0.390636,0.3906364,1.0234261,0.3906364,1.4140625,0c0.390625-0.390625,0.390625-1.0234375,0-1.4140625 L6.4140625,5l2.2929688-2.2929688c0.390625-0.390625,0.390625-1.0234375,0-1.4140625s-1.0234375-0.390625-1.4140625,0L5,3.5859375 L2.7070312,1.2929688c-0.390625-0.390625-1.0234375-0.390625-1.4140625,0s-0.390625,1.0234375,0,1.4140625L3.5859375,5 L1.2929688,7.2929688C0.9023438,7.6835938,0.9023438,8.3164062,1.2929688,8.7070312z"></path> <path data-color="color-2" fill="currentColor" d="M20.4140625,19l2.2929688-2.2929688c0.390625-0.390625,0.390625-1.0234375,0-1.4140625 s-1.0234375-0.390625-1.4140625,0L19,17.5859375l-2.2929688-2.2929688c-0.390625-0.390625-1.0234375-0.390625-1.4140625,0 s-0.390625,1.0234375,0,1.4140625L17.5859375,19l-2.2929688,2.2929688c-0.390625,0.390625-0.390625,1.0234375,0,1.4140625 c0.3906364,0.3906364,1.0234261,0.3906364,1.4140625,0L19,20.4140625l2.2929688,2.2929688 c0.3906364,0.3906364,1.0234261,0.3906364,1.4140625,0c0.390625-0.390625,0.390625-1.0234375,0-1.4140625L20.4140625,19z"></path></g></svg>