<svg id="nc_icon" version="1.1" xmlns="http://www.w3.org/2000/svg" xmlns:xlink="http://www.w3.org/1999/xlink" x="0px" y="0px" viewBox="0 0 24 24" xml:space="preserve" ><g class="nc-icon-wrapper" fill="currentColor"><path fill="currentColor" d="M22.7,11.3l-11-11C11.5,0.1,11.3,0,11,0H4C3.7,0,3.5,0.1,3.3,0.3l-3,3C0.1,3.5,0,3.7,0,4v7 c0,0.3,0.1,0.5,0.3,0.7l11,11c0.2,0.2,0.5,0.3,0.7,0.3s0.5-0.1,0.7-0.3l10-10C23.1,12.3,23.1,11.7,22.7,11.3z M7,9C5.9,9,5,8.1,5,7 c0-1.1,0.9-2,2-2s2,0.9,2,2C9,8.1,8.1,9,7,9z"></path></g></svg>