<svg id="nc_icon" version="1.1" xmlns="http://www.w3.org/2000/svg" xmlns:xlink="http://www.w3.org/1999/xlink" x="0px" y="0px" viewBox="0 0 24 24" xml:space="preserve" ><g class="nc-icon-wrapper" fill="currentColor"><path fill="currentColor" d="M10,12c0-3.089,1.754-5.764,4.317-7.097l-3.61-3.61C10.52,1.105,10.265,1,10,1H1C0.448,1,0,1.448,0,2v9 c0,0.265,0.105,0.52,0.293,0.707l11,11C11.488,22.902,11.744,23,12,23s0.512-0.098,0.707-0.293l3.035-3.035 C12.424,18.697,10,15.634,10,12z M6,9C4.895,9,4,8.105,4,7c0-1.105,0.895-2,2-2s2,0.895,2,2C8,8.105,7.105,9,6,9z"></path> <path data-color="color-2" fill="currentColor" d="M18,6c-3.314,0-6,2.686-6,6s2.686,6,6,6s6-2.686,6-6S21.314,6,18,6z M22,13h-5V8h2v3h3V13z"></path></g></svg>