<svg id="nc_icon" version="1.1" xmlns="http://www.w3.org/2000/svg" xmlns:xlink="http://www.w3.org/1999/xlink" x="0px" y="0px" viewBox="0 0 24 24" xml:space="preserve" ><g class="nc-icon-wrapper" fill="currentColor"><path fill="currentColor" d="M5,9.414l6-6l6,6V13h2V9c0-0.266-0.105-0.52-0.293-0.707l-7-7c-0.391-0.391-1.023-0.391-1.414,0l-7,7 C3.105,8.48,3,8.734,3,9v14c0,0.553,0.448,1,1,1h9v-2H5V9.414z"></path> <circle fill="currentColor" cx="11" cy="10" r="2"></circle> <path data-color="color-2" fill="currentColor" d="M21.361,16.631c-0.973-0.961-2.597-0.804-3.361,0.333c-0.765-1.138-2.389-1.293-3.361-0.333 c-0.852,0.842-0.852,2.207,0,3.048L18,23l3.361-3.321C22.213,18.838,22.213,17.473,21.361,16.631z"></path></g></svg>