<svg id="nc_icon" version="1.1" xmlns="http://www.w3.org/2000/svg" xmlns:xlink="http://www.w3.org/1999/xlink" x="0px" y="0px" viewBox="0 0 24 24" xml:space="preserve" ><g class="nc-icon-wrapper" fill="currentColor"><path fill="currentColor" d="M21.707,10.293l-9-9c-0.391-0.391-1.023-0.391-1.414,0l-9,9C2.105,10.48,2,10.735,2,11v12 c0,0.552,0.448,1,1,1h18c0.552,0,1-0.448,1-1V11C22,10.735,21.895,10.48,21.707,10.293z M12,9c1.103,0,2,0.897,2,2s-0.897,2-2,2 s-2-0.897-2-2S10.897,9,12,9z M17,19H7v-2h10V19z"></path></g></svg>