<svg id="nc_icon" version="1.1" xmlns="http://www.w3.org/2000/svg" xmlns:xlink="http://www.w3.org/1999/xlink" x="0px" y="0px" viewBox="0 0 24 24" xml:space="preserve" ><g class="nc-icon-wrapper" fill="currentColor"><path data-color="color-2" fill="currentColor" d="M3.34082,17.00391c-0.34521,0-0.68115-0.17871-0.86621-0.49902 C1.50977,14.83887,1,12.93555,1,11C1,4.93457,5.93457,0,12,0s11,4.93457,11,11c0,1.93408-0.50928,3.83643-1.47217,5.50098 c-0.27686,0.47803-0.88818,0.64111-1.3667,0.36475c-0.47803-0.27686-0.64111-0.88867-0.36475-1.3667 C20.58398,14.13867,21,12.58301,21,11c0-4.9624-4.0376-9-9-9s-9,4.0376-9,9c0,1.58398,0.41699,3.14111,1.20508,4.50293 c0.27686,0.47803,0.11377,1.08984-0.36426,1.36621C3.68311,16.96045,3.51074,17.00391,3.34082,17.00391z"></path> <path fill="currentColor" d="M12,7c-2.75684,0-5,2.24316-5,5v11c0,0.55225,0.44775,1,1,1h8c0.55225,0,1-0.44775,1-1V12 C17,9.24316,14.75684,7,12,7z M15,13c-0.6283,0.24414-1.66187,0.55756-2.96875,0.5625C10.69189,13.56757,9.63428,13.24646,9,13 c0-0.33337,0-0.66669,0-1c0-1.65686,1.34314-3,3-3s3,1.34314,3,3V13z"></path></g></svg>