<svg id="nc_icon" xmlns="http://www.w3.org/2000/svg" xmlns:xlink="http://www.w3.org/1999/xlink" x="0px" y="0px" viewBox="0 0 24 24" ><g class="nc-icon-wrapper" fill="currentColor"><path fill="currentColor" d="M23,8H13v5h2v5H9v-5h2V8H1C0.447,8,0,8.447,0,9v5c0,5.514,4.486,10,10,10c4.829,0,8.869-3.441,9.798-8H21 c1.654,0,3-1.346,3-3V9C24,8.447,23.553,8,23,8z M22,13c0,0.552-0.448,1-1,1h-1v-4h2V13z"></path> <rect data-color="color-2" x="4" y="1" fill="currentColor" width="2" height="5"></rect> <rect data-color="color-2" x="14" y="1" fill="currentColor" width="2" height="5"></rect> <rect data-color="color-2" x="9" fill="currentColor" width="2" height="5"></rect></g></svg>