<svg id="nc_icon" version="1.1" xmlns="http://www.w3.org/2000/svg" xmlns:xlink="http://www.w3.org/1999/xlink" x="0px" y="0px" viewBox="0 0 24 24" xml:space="preserve" ><g class="nc-icon-wrapper" fill="currentColor"><path fill="currentColor" d="M23,22v-9h1v-2H0v2h1v9H0v2h24v-2H23z M21,22h-3v-9h3V22z M13,13h3v9h-3V13z M11,22H8v-9h3V22z M3,13h3v9H3 V13z"></path> <path data-color="color-2" fill="currentColor" d="M13,3.1V1c0-0.6-0.4-1-1-1c-0.6,0-1,0.4-1,1v2.1C7.5,3.4,4.7,5.8,3.5,9h16.9 C19.3,5.8,16.5,3.4,13,3.1z"></path></g></svg>