<svg id="nc_icon" version="1.1" xmlns="http://www.w3.org/2000/svg" xmlns:xlink="http://www.w3.org/1999/xlink" x="0px" y="0px" viewBox="0 0 24 24" xml:space="preserve" ><g class="nc-icon-wrapper" fill="currentColor"><rect data-color="color-2" x="4" y="1" fill="currentColor" width="3" height="2"></rect> <rect data-color="color-2" x="4" y="5" fill="currentColor" width="3" height="2"></rect> <rect data-color="color-2" x="4" y="9" fill="currentColor" width="3" height="2"></rect> <path fill="currentColor" d="M17,11.3V4c0-2.2-1.8-4-4-4S9,1.8,9,4v7.3c-1.9,1.3-3,3.5-3,5.7c0,3.9,3.1,7,7,7s7-3.1,7-7 C20,14.7,18.9,12.6,17,11.3z M13,21c-2.2,0-4-1.8-4-4h8C17,19.2,15.2,21,13,21z"></path></g></svg>