<svg id="nc_icon" version="1.1" xmlns="http://www.w3.org/2000/svg" xmlns:xlink="http://www.w3.org/1999/xlink" x="0px" y="0px" viewBox="0 0 24 24" xml:space="preserve" ><g class="nc-icon-wrapper" fill="currentColor"><path fill="currentColor" d="M15,12c0-3.4083862,1.5585327-6.4592896,4-8.4785767C17.0967407,1.9473267,14.6570435,1,12,1 S6.9032593,1.9473267,5,3.5214233C7.4414673,5.5407104,9,8.5916138,9,12s-1.5585327,6.4592896-4,8.4785767 C6.9032593,22.0526733,9.3429565,23,12,23s5.0967407-0.9473267,7-2.5214233C16.5585327,18.4592896,15,15.4083862,15,12z"></path> <path data-color="color-2" fill="currentColor" d="M20.428894,4.9453125C18.3442383,6.5951538,17,9.1413574,17,12 s1.3442383,5.4048462,3.428894,7.0546875C22.0313721,17.1433105,23,14.6835327,23,12S22.0313721,6.8566895,20.428894,4.9453125z"></path> <path data-color="color-2" fill="currentColor" d="M3.571106,4.9453125C1.9686279,6.8566895,1,9.3164673,1,12 s0.9686279,5.1433105,2.571106,7.0546875C5.6557617,17.4048462,7,14.8586426,7,12S5.6557617,6.5951538,3.571106,4.9453125z"></path></g></svg>