<svg id="nc_icon" xmlns="http://www.w3.org/2000/svg" xmlns:xlink="http://www.w3.org/1999/xlink" x="0px" y="0px" viewBox="0 0 24 24" ><g class="nc-icon-wrapper" fill="currentColor"><path d="M17,16a1,1,0,0,0,0-2H7a1,1,0,0,0,0,2h4v8h2V16Z" fill="currentColor"></path> <path d="M22,12v6H17a1,1,0,0,0-1,1v5h2V20h4v4h2V12Z" fill="currentColor"></path> <path d="M7,18H2V12H0V24H2V20H6v4H8V19A1,1,0,0,0,7,18Z" fill="currentColor"></path> <path d="M2,7h9v3h2V7h9a1,1,0,0,0,.788-1.616,13.5,13.5,0,0,0-21.576,0A1,1,0,0,0,2,7Z" fill="currentColor" data-color="color-2"></path></g></svg>