<svg id="nc_icon" version="1.1" xmlns="http://www.w3.org/2000/svg" xmlns:xlink="http://www.w3.org/1999/xlink" x="0px" y="0px" viewBox="0 0 24 24" xml:space="preserve" ><g class="nc-icon-wrapper" fill="currentColor"><path data-color="color-2" fill="currentColor" d="M15,8V6c-1.2,0-2.266,0.542-3,1.382C11.266,6.542,10.2,6,9,6v2c1.103,0,2,0.897,2,2v4 c0,1.103-0.897,2-2,2v2c1.2,0,2.266-0.542,3-1.382C12.734,17.458,13.8,18,15,18v-2c-1.103,0-2-0.897-2-2v-4C13,8.897,13.897,8,15,8z "></path> <path fill="currentColor" d="M23,6c0.552,0,1-0.448,1-1V1c0-0.552-0.448-1-1-1h-4c-0.552,0-1,0.448-1,1v1H6V1c0-0.552-0.448-1-1-1H1 C0.448,0,0,0.448,0,1v4c0,0.552,0.448,1,1,1h1v12H1c-0.552,0-1,0.448-1,1v4c0,0.552,0.448,1,1,1h4c0.552,0,1-0.448,1-1v-1h12v1 c0,0.552,0.448,1,1,1h4c0.552,0,1-0.448,1-1v-4c0-0.552-0.448-1-1-1h-1V6H23z M20,18h-1c-0.552,0-1,0.448-1,1v1H6v-1 c0-0.552-0.448-1-1-1H4V6h1c0.552,0,1-0.448,1-1V4h12v1c0,0.552,0.448,1,1,1h1V18z"></path></g></svg>