<svg id="nc_icon" version="1.1" xmlns="http://www.w3.org/2000/svg" xmlns:xlink="http://www.w3.org/1999/xlink" x="0px" y="0px" viewBox="0 0 24 24" xml:space="preserve" ><g class="nc-icon-wrapper" fill="currentColor"><path fill="currentColor" d="M23,10c0.552,0,1-0.447,1-1V4c0-0.553-0.448-1-1-1H1C0.448,3,0,3.447,0,4v5c0,0.553,0.448,1,1,1 c1.103,0,2,0.897,2,2s-0.897,2-2,2c-0.552,0-1,0.447-1,1v5c0,0.553,0.448,1,1,1h22c0.552,0,1-0.447,1-1v-5c0-0.553-0.448-1-1-1 c-1.103,0-2-0.897-2-2S21.897,10,23,10z M16,15H8V9h8V15z"></path></g></svg>