<svg id="nc_icon" version="1.1" xmlns="http://www.w3.org/2000/svg" xmlns:xlink="http://www.w3.org/1999/xlink" x="0px" y="0px" viewBox="0 0 24 24" xml:space="preserve" ><g class="nc-icon-wrapper" fill="currentColor"><path data-color="color-2" fill="currentColor" d="M12,17L12,17c-1.1,0-2-0.9-2-2V9c0-1.1,0.9-2,2-2h0c1.1,0,2,0.9,2,2v6C14,16.1,13.1,17,12,17 z"></path> <path fill="currentColor" d="M22.5,4.8c-0.9-0.5-2-0.6-3,0L15.5,7C15.8,7.6,16,8.3,16,9v2h3v2h-3v2c0,0.7-0.2,1.4-0.5,2l4.1,2.3 c0.5,0.3,1,0.4,1.5,0.4c0.5,0,1-0.1,1.5-0.4c0.9-0.5,1.5-1.5,1.5-2.6V7.4C24,6.3,23.4,5.4,22.5,4.8z"></path> <path fill="currentColor" d="M8,13H5v-2h3V9c0-0.7,0.2-1.4,0.5-2L4.5,4.8c-0.9-0.5-2.1-0.5-3,0C0.6,5.4,0,6.3,0,7.4v9.2 c0,1.1,0.6,2,1.5,2.6c0.5,0.3,1,0.4,1.5,0.4c0.5,0,1-0.1,1.5-0.4L8.5,17C8.2,16.4,8,15.7,8,15V13z"></path></g></svg>