<svg id="nc_icon" version="1.1" xmlns="http://www.w3.org/2000/svg" xmlns:xlink="http://www.w3.org/1999/xlink" x="0px" y="0px" viewBox="0 0 24 24" xml:space="preserve" ><g class="nc-icon-wrapper" fill="currentColor"><path fill="currentColor" d="M15,1H1C0.4,1,0,1.4,0,2v4c0,0.6,0.4,1,1,1h14c0.6,0,1-0.4,1-1V2C16,1.4,15.6,1,15,1z"></path> <path fill="currentColor" d="M15,9H1c-0.6,0-1,0.4-1,1v4c0,0.6,0.4,1,1,1h14c0.6,0,1-0.4,1-1v-4C16,9.4,15.6,9,15,9z"></path> <path fill="currentColor" d="M15,17H1c-0.6,0-1,0.4-1,1v4c0,0.6,0.4,1,1,1h14c0.6,0,1-0.4,1-1v-4C16,17.4,15.6,17,15,17z"></path> <path data-color="color-2" fill="currentColor" d="M23,1h-4c-0.6,0-1,0.4-1,1v20c0,0.6,0.4,1,1,1h4c0.6,0,1-0.4,1-1V2C24,1.4,23.6,1,23,1z"></path></g></svg>