<svg id="nc_icon" xmlns="http://www.w3.org/2000/svg" xmlns:xlink="http://www.w3.org/1999/xlink" x="0px" y="0px" viewBox="0 0 24 24" ><g class="nc-icon-wrapper" fill="currentColor"><path d="M13,4.051V2h3a1,1,0,0,0,0-2H8A1,1,0,0,0,8,2h3V4.051A10.013,10.013,0,0,0,2,14v9a1,1,0,0,0,1,1H21a1,1,0,0,0,1-1V14A10.013,10.013,0,0,0,13,4.051ZM12,6a8,8,0,1,1-8,8A8.009,8.009,0,0,1,12,6Z" fill="currentColor"></path> <rect x="11" y="13" width="7" height="2" fill="currentColor" data-color="color-2"></rect></g></svg>