<svg id="nc_icon" xmlns="http://www.w3.org/2000/svg" xmlns:xlink="http://www.w3.org/1999/xlink" x="0px" y="0px" viewBox="0 0 24 24" ><g class="nc-icon-wrapper" fill="currentColor"><path data-color="color-2" fill="currentColor" d="M12,13H6v-2h5V6h2v6C13,12.553,12.552,13,12,13z"></path> <path fill="currentColor" d="M21,12c0,4.963-4.037,9-9,9s-9-4.037-9-9s4.037-9,9-9c1.989,0,3.873,0.65,5.43,1.833l-3.604,3.393 l9.167,0.983L22.562,0l-3.655,3.442C16.957,1.862,14.545,1,12,1C5.935,1,1,5.935,1,12s4.935,11,11,11s11-4.935,11-11H21z"></path></g></svg>