<svg id="nc_icon" version="1.1" xmlns="http://www.w3.org/2000/svg" xmlns:xlink="http://www.w3.org/1999/xlink" x="0px" y="0px" viewBox="0 0 24 24" xml:space="preserve" ><g class="nc-icon-wrapper" fill="currentColor"><path data-color="color-2" fill="currentColor" d="M21,12H3c-0.6,0-1,0.4-1,1v1h20v-1C22,12.4,21.6,12,21,12z"></path> <path fill="currentColor" d="M8,20.9V23c0,0.6,0.4,1,1,1h6c0.6,0,1-0.4,1-1v-2.1c2.7-0.4,4.9-2.4,5.7-4.9H2.3C3.1,18.6,5.3,20.5,8,20.9z"></path> <path fill="currentColor" d="M19,3c0-1.7-1.3-3-3-3H8C6.3,0,5,1.3,5,3v7h14V3z"></path></g></svg>