<svg id="nc_icon" xmlns="http://www.w3.org/2000/svg" xmlns:xlink="http://www.w3.org/1999/xlink" x="0px" y="0px" viewBox="0 0 24 24" ><g class="nc-icon-wrapper" fill="currentColor"><path d="M12,0A12,12,0,1,0,24,12,12.013,12.013,0,0,0,12,0Zm4.243,6.343a1,1,0,1,1,1.414,1.414c-.391.391-2.438,1.8-2.829,1.415S15.852,6.734,16.243,6.343ZM4,12a1,1,0,0,1,1-1c.552,0,3,.448,3,1s-2.448,1-3,1A1,1,0,0,1,4,12Zm3.757,5.657a1,1,0,0,1-1.414-1.414c.391-.391,2.438-1.8,2.829-1.415S8.148,17.266,7.757,17.657ZM9.172,9.172c-.391.39-2.438-1.024-2.829-1.415A1,1,0,0,1,7.757,6.343C8.148,6.734,9.562,8.781,9.172,9.172ZM12,20a1,1,0,0,1-1-1c0-.552.448-3,1-3s1,2.448,1,3A1,1,0,0,1,12,20ZM12,8c-.552,0-1-2.448-1-3a1,1,0,0,1,2,0C13,5.552,12.552,8,12,8Zm5.657,9.657a1,1,0,0,1-1.414,0c-.391-.391-1.8-2.438-1.415-2.829s2.438,1.024,2.829,1.415A1,1,0,0,1,17.657,17.657ZM19,13c-.552,0-3-.448-3-1s2.448-1,3-1a1,1,0,0,1,0,2Z" fill="currentColor"></path></g></svg>