<svg id="nc_icon" version="1.1" xmlns="http://www.w3.org/2000/svg" xmlns:xlink="http://www.w3.org/1999/xlink" x="0px" y="0px" viewBox="0 0 24 24" xml:space="preserve" ><g class="nc-icon-wrapper" fill="currentColor"><path d="M2,3H6V1H1A1,1,0,0,0,0,2V7H2Z" fill="currentColor"></path> <path d="M23,1H18V3h4V7h2V2A1,1,0,0,0,23,1Z" fill="currentColor"></path> <rect x="9" y="1" width="6" height="2" fill="currentColor"></rect> <path d="M2,17H0v5a1,1,0,0,0,1,1H6V21H2Z" fill="currentColor"></path> <path d="M22,21H18v2h5a1,1,0,0,0,1-1V17H22Z" fill="currentColor"></path> <rect x="9" y="21" width="6" height="2" fill="currentColor"></rect> <rect y="10" width="2" height="4" fill="currentColor"></rect> <rect x="22" y="10" width="2" height="4" fill="currentColor"></rect> <rect x="5" y="6" width="14" height="12" fill="currentColor" data-color="color-2"></rect></g></svg>