<svg id="nc_icon" version="1.1" xmlns="http://www.w3.org/2000/svg" xmlns:xlink="http://www.w3.org/1999/xlink" x="0px" y="0px" viewBox="0 0 24 24" xml:space="preserve" ><g class="nc-icon-wrapper" fill="currentColor"><path d="M21.5,4A1.5,1.5,0,0,0,20,5.5V11H19V3.5a1.5,1.5,0,0,0-3,0V11H15V2.5a1.5,1.5,0,0,0-3,0V11H11V3.5a1.5,1.5,0,0,0-3,0v9.882a1,1,0,0,1-1.447.894L3.1,12.548a1.7,1.7,0,0,0-2.163.559,1.78,1.78,0,0,0,.2,2.171l4.18,4.7A9,9,0,0,0,12.042,23H14a9,9,0,0,0,9-9V5.5A1.5,1.5,0,0,0,21.5,4Z" fill="currentColor"></path></g></svg>