<svg id="nc_icon" version="1.1" xmlns="http://www.w3.org/2000/svg" xmlns:xlink="http://www.w3.org/1999/xlink" x="0px" y="0px" viewBox="0 0 24 24" xml:space="preserve" ><g class="nc-icon-wrapper" fill="currentColor"><path data-color="color-2" fill="currentColor" d="M23.707,22.293L21.3,19.886c0.437-0.693,0.7-1.508,0.7-2.386c0-2.481-2.019-4.5-4.5-4.5 S13,15.019,13,17.5s2.019,4.5,4.5,4.5c0.879,0,1.693-0.263,2.386-0.7l2.407,2.407L23.707,22.293z M15,17.5 c0-1.379,1.121-2.5,2.5-2.5s2.5,1.121,2.5,2.5S18.879,20,17.5,20S15,18.879,15,17.5z"></path> <path fill="currentColor" d="M2,8v14c0,0.553,0.447,1,1,1h11.052C12.222,21.849,11,19.817,11,17.5c0-3.584,2.916-6.5,6.5-6.5 c1.746,0,3.331,0.696,4.5,1.821V8H2z"></path> <path fill="currentColor" d="M23,1H1C0.447,1,0,1.447,0,2v3c0,0.553,0.447,1,1,1h22c0.553,0,1-0.447,1-1V2C24,1.447,23.553,1,23,1z"></path></g></svg>