<svg id="nc_icon" version="1.1" xmlns="http://www.w3.org/2000/svg" xmlns:xlink="http://www.w3.org/1999/xlink" x="0px" y="0px" viewBox="0 0 24 24" xml:space="preserve" ><g class="nc-icon-wrapper" fill="currentColor"><path fill="currentColor" d="M5.42507,13L1.60029,1.47231C1.52865,1.25665,1.38537,1.22083,1.16898,1.16673L0.36192,0.96935L0.54029,0 h4.20199v0.96935L3.26998,1.13091l3.28673,10.45088L9.91363,1.13091L8.45887,0.96935L8.6387,0h3.91543v0.96935L11.7997,1.16673 c-0.21639,0.0541-0.37721,0.12574-0.44886,0.34139L7.6518,13H5.42507z"></path> <path fill="currentColor" d="M19.25772,13v-0.96935l1.47231-0.16156l-0.96935-2.83715h-5.01052l-0.95181,2.83715l1.45476,0.16156V13 h-4.13035v-0.95181l0.77197-0.19738c0.28803-0.07164,0.37721-0.12574,0.44886-0.34139L16.2941,0h2.08345l4.02216,11.52769 c0.07164,0.21566,0.21492,0.25148,0.43131,0.30484l0.80706,0.19811V13H19.25772z M17.28246,1.40066l-2.11854,6.32053h4.20053 L17.28246,1.40066z"></path> <polygon data-color="color-2" fill="currentColor" points="24,19 19,15 19,18 5,18 5,15 0,19 5,23 5,20 19,20 19,23 "></polygon></g></svg>