<svg id="nc_icon" version="1.1" xmlns="http://www.w3.org/2000/svg" xmlns:xlink="http://www.w3.org/1999/xlink" x="0px" y="0px" viewBox="0 0 24 24" xml:space="preserve" ><g class="nc-icon-wrapper" fill="currentColor"><path fill="currentColor" d="M21,14.142V13c0-1.654-1.346-3-3-3V8h2V6h-2c-1.103,0-2,0.897-2,2v2h-1.22L12.97,2.757 C12.858,2.312,12.459,2,12,2H4C3.447,2,3,2.448,3,3s0.447,1,1,1h1v6.09C2.167,10.569,0,13.033,0,16c0,3.309,2.691,6,6,6 c2.215,0,4.149-1.21,5.188-3h4.954c0.447,1.72,1.999,3,3.858,3c2.206,0,4-1.794,4-4C24,16.142,22.721,14.589,21,14.142z M12.719,10 H7V4h4.219L12.719,10z M6,20c-2.206,0-4-1.794-4-4s1.794-4,4-4s4,1.794,4,4S8.206,20,6,20z M20,20c-1.103,0-2-0.897-2-2 c0-1.102,0.897-1.999,1.998-2c0.001,0,0.001,0,0.002,0s0.001,0,0.002,0C21.103,16.001,22,16.898,22,18C22,19.103,21.103,20,20,20z"></path></g></svg>