<svg id="nc_icon" version="1.1" xmlns="http://www.w3.org/2000/svg" xmlns:xlink="http://www.w3.org/1999/xlink" x="0px" y="0px" viewBox="0 0 24 24" xml:space="preserve" ><g class="nc-icon-wrapper" fill="currentColor"><path data-color="color-2" fill="currentColor" d="M23,22H2c-0.552,0-1-0.448-1-1s0.448-1,1-1h21c0.552,0,1,0.448,1,1S23.552,22,23,22z"></path> <rect data-color="color-2" x="4" y="16" fill="currentColor" width="3" height="2"></rect> <rect data-color="color-2" x="9" y="16" fill="currentColor" width="3" height="2"></rect> <rect data-color="color-2" x="14" y="16" fill="currentColor" width="3" height="2"></rect> <rect data-color="color-2" x="19" y="16" fill="currentColor" width="3" height="2"></rect> <path fill="currentColor" d="M10,9V7h14V3c0-0.552-0.448-1-1-1H4C1.794,2,0,3.794,0,6v1h6v2H0v4c0,0.552,0.448,1,1,1h22 c0.552,0,1-0.448,1-1V9H10z"></path></g></svg>