<svg id="nc_icon" version="1.1" xmlns="http://www.w3.org/2000/svg" xmlns:xlink="http://www.w3.org/1999/xlink" x="0px" y="0px" viewBox="0 0 24 24" xml:space="preserve" ><g class="nc-icon-wrapper" fill="currentColor"><path data-color="color-2" fill="currentColor" d="M20.895,22.553l-3-6c-0.247-0.493-0.847-0.695-1.342-0.447 c-0.494,0.247-0.694,0.848-0.447,1.342L17.382,20H6.618l1.276-2.553c0.247-0.494,0.047-1.095-0.447-1.342 c-0.495-0.248-1.095-0.046-1.342,0.447l-3,6c-0.247,0.494-0.047,1.095,0.447,1.342C3.696,23.966,3.849,24,3.999,24 c0.367,0,0.72-0.202,0.896-0.553L5.618,22h12.764l0.724,1.447C19.281,23.798,19.634,24,20.001,24c0.15,0,0.303-0.034,0.446-0.105 C20.941,23.647,21.142,23.047,20.895,22.553z"></path> <rect y="6" fill="currentColor" width="2" height="5"></rect> <rect x="22" y="6" fill="currentColor" width="2" height="5"></rect> <path fill="currentColor" d="M18,0H6C4.346,0,3,1.346,3,3v14c0,0.552,0.448,1,1,1h16c0.552,0,1-0.448,1-1V3C21,1.346,19.654,0,18,0z M7,15c-0.552,0-1-0.448-1-1c0-0.552,0.448-1,1-1s1,0.448,1,1C8,14.552,7.552,15,7,15z M17,15c-0.552,0-1-0.448-1-1 c0-0.552,0.448-1,1-1s1,0.448,1,1C18,14.552,17.552,15,17,15z M19,9c0,0.552-0.448,1-1,1H6c-0.552,0-1-0.448-1-1V3 c0-0.552,0.448-1,1-1h12c0.552,0,1,0.448,1,1V9z"></path></g></svg>