<svg id="nc_icon" version="1.1" xmlns="http://www.w3.org/2000/svg" xmlns:xlink="http://www.w3.org/1999/xlink" x="0px" y="0px" viewBox="0 0 24 24" xml:space="preserve" ><g class="nc-icon-wrapper" fill="currentColor"><rect y="10" fill="currentColor" width="2" height="5"></rect> <rect x="22" y="10" fill="currentColor" width="2" height="5"></rect> <path data-color="color-2" fill="currentColor" d="M18,1H6C5.447,1,5,1.448,5,2s0.447,1,1,1h1.382l1.724,3.447l1.789-0.895L9.618,3h4.764 l-1.276,2.553l1.789,0.895L16.618,3H18c0.553,0,1-0.448,1-1S18.553,1,18,1z"></path> <path fill="currentColor" d="M18,5H6C4.346,5,3,6.346,3,8v14c0,0.552,0.447,1,1,1h16c0.553,0,1-0.448,1-1V8C21,6.346,19.654,5,18,5z M7,20c-0.552,0-1-0.448-1-1c0-0.552,0.448-1,1-1s1,0.448,1,1C8,19.552,7.552,20,7,20z M17,20c-0.552,0-1-0.448-1-1 c0-0.552,0.448-1,1-1s1,0.448,1,1C18,19.552,17.552,20,17,20z M19,14c0,0.552-0.448,1-1,1H6c-0.552,0-1-0.448-1-1V8 c0-0.552,0.448-1,1-1h12c0.552,0,1,0.448,1,1V14z"></path></g></svg>