<svg id="nc_icon" version="1.1" xmlns="http://www.w3.org/2000/svg" xmlns:xlink="http://www.w3.org/1999/xlink" x="0px" y="0px" viewBox="0 0 24 24" xml:space="preserve" ><g class="nc-icon-wrapper" fill="currentColor"><path d="M1,0H8A0,0,0,0,1,8,0V8A0,0,0,0,1,8,8H0A0,0,0,0,1,0,8V1A1,1,0,0,1,1,0Z" fill="currentColor"></path> <rect x="8" y="8" width="8" height="8" fill="currentColor" data-color="color-2"></rect> <path d="M16,0h7a1,1,0,0,1,1,1V8a0,0,0,0,1,0,0H16a0,0,0,0,1,0,0V0A0,0,0,0,1,16,0Z" fill="currentColor"></path> <path d="M0,16H8a0,0,0,0,1,0,0v8a0,0,0,0,1,0,0H1a1,1,0,0,1-1-1V16A0,0,0,0,1,0,16Z" fill="currentColor"></path> <path d="M16,16h8a0,0,0,0,1,0,0v7a1,1,0,0,1-1,1H16a0,0,0,0,1,0,0V16A0,0,0,0,1,16,16Z" fill="currentColor"></path></g></svg>