<svg id="nc_icon" version="1.1" xmlns="http://www.w3.org/2000/svg" xmlns:xlink="http://www.w3.org/1999/xlink" x="0px" y="0px" viewBox="0 0 24 24" xml:space="preserve" ><g class="nc-icon-wrapper" fill="currentColor"><path fill="currentColor" d="M23,18H7c-0.552,0-1-0.448-1-1V1c0-0.552,0.448-1,1-1h16c0.552,0,1,0.448,1,1v16C24,17.552,23.552,18,23,18z "></path> <path data-color="color-2" fill="currentColor" d="M4,24H1c-0.553,0-1-0.448-1-1v-3h2v2h2V24z"></path> <path data-color="color-2" fill="currentColor" d="M11,24H8v-2h2v-2h2v3C12,23.552,11.553,24,11,24z"></path> <path data-color="color-2" fill="currentColor" d="M2,16H0v-3c0-0.552,0.447-1,1-1h3v2H2V16z"></path></g></svg>