<svg id="nc_icon" xmlns="http://www.w3.org/2000/svg" xmlns:xlink="http://www.w3.org/1999/xlink" x="0px" y="0px" viewBox="0 0 24 24" ><g class="nc-icon-wrapper" fill="currentColor"><path d="M24,12a2.99,2.99,0,0,0-2-2.816V5.816A2.993,2.993,0,1,0,18.184,2H14.816A2.982,2.982,0,0,0,9.184,2H5.816A2.993,2.993,0,1,0,2,5.816V9.184a2.982,2.982,0,0,0,0,5.632v3.368A2.993,2.993,0,1,0,5.816,22H9.184a2.982,2.982,0,0,0,5.632,0h3.368A2.993,2.993,0,1,0,22,18.184V14.816A2.99,2.99,0,0,0,24,12Zm-4,2.816v3.368A2.987,2.987,0,0,0,18.184,20H14.816a2.982,2.982,0,0,0-5.632,0H5.816A2.987,2.987,0,0,0,4,18.184V14.816A2.982,2.982,0,0,0,4,9.184V5.816A2.987,2.987,0,0,0,5.816,4H9.184a2.982,2.982,0,0,0,5.632,0h3.368A2.987,2.987,0,0,0,20,5.816V9.184a2.982,2.982,0,0,0,0,5.632Z" fill="currentColor"></path> <circle data-color="color-2" cx="12" cy="12" r="3" fill="currentColor"></circle></g></svg>