<svg id="nc_icon" version="1.1" xmlns="http://www.w3.org/2000/svg" xmlns:xlink="http://www.w3.org/1999/xlink" x="0px" y="0px" viewBox="0 0 24 24" xml:space="preserve" ><g class="nc-icon-wrapper" fill="currentColor"><path data-color="color-2" fill="currentColor" d="M23,4h-6V1c0-0.552-0.447-1-1-1H8C7.447,0,7,0.448,7,1v3H1C0.447,4,0,4.448,0,5v2c0,0.552,0.447,1,1,1h22 c0.553,0,1-0.448,1-1V5C24,4.448,23.553,4,23,4z M9,2h6v2H9V2z"></path> <path fill="currentColor" d="M21,10H3v13c0,0.552,0.448,1,1,1h16c0.552,0,1-0.448,1-1V10z M9,20H7v-6h2V20z M13,20h-2v-6h2V20z M17,20 h-2v-6h2V20z"></path></g></svg>