<svg id="nc_icon" version="1.1" xmlns="http://www.w3.org/2000/svg" xmlns:xlink="http://www.w3.org/1999/xlink" x="0px" y="0px" viewBox="0 0 24 24" xml:space="preserve" ><g class="nc-icon-wrapper" fill="currentColor"><path fill="currentColor" d="M21,8H3v14c0,1.105,0.895,2,2,2h14c1.105,0,2-0.895,2-2V8z"></path> <path data-color="color-2" fill="currentColor" d="M23,4h-7c0-2.206-1.794-4-4-4S8,1.794,8,4H1C0.447,4,0,4.448,0,5s0.447,1,1,1h22 c0.553,0,1-0.448,1-1S23.553,4,23,4z M12,2c1.103,0,2,0.897,2,2h-4C10,2.897,10.897,2,12,2z"></path></g></svg>