<svg id="nc_icon" version="1.1" xmlns="http://www.w3.org/2000/svg" xmlns:xlink="http://www.w3.org/1999/xlink" x="0px" y="0px" viewBox="0 0 24 24" xml:space="preserve" ><g class="nc-icon-wrapper" fill="currentColor"><path fill="currentColor" d="M23.615,1.212c-0.243-0.19-0.561-0.258-0.858-0.182l-7.717,1.93L9.316,1.051 C9.135,0.99,8.942,0.983,8.757,1.03l-8,2C0.312,3.141,0,3.541,0,4v18c0,0.308,0.142,0.599,0.385,0.788C0.562,22.927,0.779,23,1,23 c0.081,0,0.163-0.01,0.243-0.03l7.717-1.93l5.724,1.908c0.18,0.06,0.374,0.067,0.559,0.021l8-2C23.688,20.859,24,20.459,24,20V2 C24,1.692,23.858,1.401,23.615,1.212z M7,13H4v-2h3V13z M12,13H9v-2h3V13z M20.414,14L19,15.414l-2-2l-2,2L13.586,14l2-2l-2-2 L15,8.586l2,2l2-2L20.414,10l-2,2L20.414,14z"></path></g></svg>