<svg id="nc_icon" version="1.1" xmlns="http://www.w3.org/2000/svg" xmlns:xlink="http://www.w3.org/1999/xlink" x="0px" y="0px" viewBox="0 0 24 24" xml:space="preserve" ><g class="nc-icon-wrapper" fill="currentColor"><path fill="currentColor" d="M18.87891,9.07715C18.95947,8.7251,19,8.36523,19,8c0-2.50342-1.84912-4.58252-4.25342-4.94434 C14.1377,1.26709,12.43652,0,10.5,0C8.01855,0,6,2.01855,6,4.5c0,0.1626,0.01074,0.32715,0.03271,0.49609 C4.76318,5.93115,4,7.40625,4,9c0,0.13623,0.00635,0.27246,0.02002,0.41113C2.22412,10.18945,1,11.98779,1,14 c0,2.75684,2.24316,5,5,5h5v3H7c-0.55225,0-1,0.44775-1,1s0.44775,1,1,1h10c0.55225,0,1-0.44775,1-1s-0.44775-1-1-1h-4v-3h5 c2.75684,0,5-2.24316,5-5C23,11.54248,21.21826,9.49365,18.87891,9.07715z"></path></g></svg>