<svg id="nc_icon" version="1.1" xmlns="http://www.w3.org/2000/svg" xmlns:xlink="http://www.w3.org/1999/xlink" x="0px" y="0px" viewBox="0 0 24 24" xml:space="preserve" ><g class="nc-icon-wrapper" fill="currentColor"><path fill="currentColor" d="M12.8,7.4c-0.377-0.504-1.223-0.504-1.6,0l-9,12c-0.228,0.303-0.264,0.708-0.095,1.047 C2.275,20.786,2.621,21,3,21h18c0.007,0,0.015,0,0.02,0c0.553,0,1-0.447,1-1c0-0.289-0.123-0.551-0.319-0.733L12.8,7.4z"></path> <path data-color="color-2" fill="currentColor" d="M3,5h18c0.553,0,1-0.447,1-1s-0.447-1-1-1H3C2.447,3,2,3.447,2,4S2.447,5,3,5z"></path></g></svg>