<svg id="nc_icon" version="1.1" xmlns="http://www.w3.org/2000/svg" xmlns:xlink="http://www.w3.org/1999/xlink" x="0px" y="0px" viewBox="0 0 24 24" xml:space="preserve" ><g class="nc-icon-wrapper" fill="currentColor"><path fill="currentColor" d="M20.447,2.105C20.109,1.938,19.703,1.973,19.4,2.2l-12,9C7.148,11.389,7,11.686,7,12s0.148,0.611,0.4,0.8 l12,9c0.176,0.133,0.388,0.2,0.6,0.2c0.152,0,0.306-0.035,0.447-0.105C20.786,21.725,21,21.379,21,21V3 C21,2.621,20.786,2.275,20.447,2.105z"></path> <path data-color="color-2" fill="currentColor" d="M4,2C3.447,2,3,2.447,3,3v18c0,0.553,0.447,1,1,1s1-0.447,1-1V3C5,2.447,4.553,2,4,2z"></path></g></svg>