<svg id="nc_icon" version="1.1" xmlns="http://www.w3.org/2000/svg" xmlns:xlink="http://www.w3.org/1999/xlink" x="0px" y="0px" viewBox="0 0 24 24" xml:space="preserve" ><g class="nc-icon-wrapper" fill="currentColor"><path fill="currentColor" d="M11.2,16.6c0.188,0.252,0.485,0.4,0.8,0.4s0.611-0.148,0.8-0.4l9-12c0.228-0.303,0.264-0.708,0.095-1.047 C21.725,3.214,21.379,3,21,3H3C2.621,3,2.275,3.214,2.105,3.553C1.937,3.892,1.973,4.297,2.2,4.6L11.2,16.6z"></path> <path data-color="color-2" fill="currentColor" d="M21,19H3c-0.553,0-1,0.447-1,1s0.447,1,1,1h18c0.553,0,1-0.447,1-1S21.553,19,21,19z"></path></g></svg>