<svg id="nc_icon" version="1.1" xmlns="http://www.w3.org/2000/svg" xmlns:xlink="http://www.w3.org/1999/xlink" x="0px" y="0px" viewBox="0 0 24 24" xml:space="preserve" ><g class="nc-icon-wrapper" fill="currentColor"><path fill="currentColor" d="M21,7H3C2.621,7,2.275,7.214,2.105,7.553S1.973,8.297,2.2,8.6l9,12c0.188,0.252,0.485,0.4,0.8,0.4 s0.611-0.148,0.8-0.4l9-12c0.228-0.303,0.264-0.708,0.095-1.047S21.379,7,21,7z"></path> <path data-color="color-2" fill="currentColor" d="M3,5h18c0.552,0,1-0.447,1-1s-0.448-1-1-1H3C2.448,3,2,3.447,2,4S2.448,5,3,5z"></path></g></svg>