<svg id="nc_icon" version="1.1" xmlns="http://www.w3.org/2000/svg" xmlns:xlink="http://www.w3.org/1999/xlink" x="0px" y="0px" viewBox="0 0 24 24" xml:space="preserve" ><g class="nc-icon-wrapper" fill="currentColor"><path fill="currentColor" d="M16.447,2.105C16.108,1.937,15.704,1.972,15.4,2.2l-12,9C3.148,11.389,3,11.686,3,12s0.148,0.611,0.4,0.8 l12,9c0.177,0.133,0.388,0.2,0.6,0.2c0.152,0,0.306-0.035,0.447-0.105C16.786,21.725,17,21.379,17,21V3 C17,2.621,16.786,2.275,16.447,2.105z"></path> <path data-color="color-2" fill="currentColor" d="M20,2c-0.552,0-1,0.447-1,1v18c0,0.553,0.448,1,1,1s1-0.447,1-1V3C21,2.447,20.552,2,20,2z"></path></g></svg>