<svg id="nc_icon" version="1.1" xmlns="http://www.w3.org/2000/svg" xmlns:xlink="http://www.w3.org/1999/xlink" x="0px" y="0px" viewBox="0 0 24 24" xml:space="preserve" ><g class="nc-icon-wrapper" fill="currentColor"><path data-color="color-2" fill="currentColor" d="M19,0H5C4.447,0,4,0.448,4,1v3c0,0.552,0.447,1,1,1h14c0.553,0,1-0.448,1-1V1 C20,0.448,19.553,0,19,0z"></path> <path fill="currentColor" d="M13,16.586V14h2c0.553,0,1-0.448,1-1V7H8v6c0,0.552,0.447,1,1,1h2v2.586l-5.707,5.707 c-0.391,0.391-0.391,1.023,0,1.414s1.023,0.391,1.414,0L11,19.414V22c0,0.552,0.447,1,1,1s1-0.448,1-1v-2.586l4.293,4.293 C17.488,23.902,17.744,24,18,24s0.512-0.098,0.707-0.293c0.391-0.391,0.391-1.023,0-1.414L13,16.586z"></path></g></svg>