<svg id="nc_icon" version="1.1" xmlns="http://www.w3.org/2000/svg" xmlns:xlink="http://www.w3.org/1999/xlink" x="0px" y="0px" viewBox="0 0 24 24" xml:space="preserve" ><g class="nc-icon-wrapper" fill="currentColor"><path data-color="color-2" fill="currentColor" d="M21,22c-0.6,0-1-0.4-1-1V1c0-0.6,0.4-1,1-1h2c0.6,0,1,0.4,1,1s-0.4,1-1,1h-1v19 C22,21.6,21.6,22,21,22z"></path> <path fill="currentColor" d="M1,18h16c0.6,0,1-0.4,1-1v-7H0v7C0,17.6,0.4,18,1,18z"></path> <path fill="currentColor" d="M18,5c0-0.6-0.4-1-1-1h-4V1c0-0.6-0.4-1-1-1H6C5.4,0,5,0.4,5,1v3H1C0.4,4,0,4.4,0,5v3h18V5z M7,2h4v2H7V2z"></path> <path data-color="color-2" fill="currentColor" d="M21,20H1c-0.6,0-1,0.4-1,1s0.4,1,1,1h1v1c0,0.6,0.4,1,1,1s1-0.4,1-1v-1h14v1c0,0.6,0.4,1,1,1 c0.6,0,1-0.4,1-1v-1h1c0.6,0,1-0.4,1-1S21.6,20,21,20z"></path></g></svg>