<svg id="nc_icon" version="1.1" xmlns="http://www.w3.org/2000/svg" xmlns:xlink="http://www.w3.org/1999/xlink" x="0px" y="0px" viewBox="0 0 24 24" xml:space="preserve" ><g class="nc-icon-wrapper" fill="currentColor"><path data-color="color-2" fill="currentColor" d="M21,2V1c0-0.552-0.448-1-1-1H4C3.448,0,3,0.448,3,1v1H21z"></path> <rect y="7" fill="currentColor" width="2" height="4"></rect> <rect x="22" y="7" fill="currentColor" width="2" height="4"></rect> <path fill="currentColor" d="M22.707,13.293L21,11.586V4H3v7.586l-1.707,1.707C1.105,13.48,1,13.735,1,14v6c0,0.552,0.448,1,1,1h20 c0.552,0,1-0.448,1-1v-6C23,13.735,22.895,13.48,22.707,13.293z M5,6h14v5H5V6z M5,18c-0.552,0-1-0.448-1-1c0-0.552,0.448-1,1-1 c0.552,0,1,0.448,1,1C6,17.552,5.552,18,5,18z M19,18c-0.552,0-1-0.448-1-1c0-0.552,0.448-1,1-1c0.552,0,1,0.448,1,1 C20,17.552,19.552,18,19,18z"></path> <path data-color="color-2" fill="currentColor" d="M3,22v1c0,0.552,0.447,1,1,1h3c0.553,0,1-0.448,1-1v-1H3z"></path> <path data-color="color-2" fill="currentColor" d="M16,22v1c0,0.552,0.447,1,1,1h3c0.553,0,1-0.448,1-1v-1H16z"></path></g></svg>