<svg id="nc_icon" version="1.1" xmlns="http://www.w3.org/2000/svg" xmlns:xlink="http://www.w3.org/1999/xlink" x="0px" y="0px" viewBox="0 0 24 24" xml:space="preserve" ><g class="nc-icon-wrapper" fill="currentColor"><rect x="11" y="12" fill="currentColor" width="2" height="1"></rect> <rect x="11" y="15" fill="currentColor" width="2" height="1"></rect> <path data-color="color-2" fill="currentColor" d="M3,13H0v1c0,0.6,0.4,1,1,1h2V13z"></path> <path fill="currentColor" d="M19,9c0-0.6,0.4-1,1-1s1,0.4,1,1v2h3V4c0-2.2-1.8-4-4-4h-4c-0.6,0-1,0.4-1,1c0,1.7-1.3,3-3,3S9,2.7,9,1 c0-0.6-0.4-1-1-1H4C1.8,0,0,1.8,0,4v7h3V9c0-0.6,0.4-1,1-1s1,0.4,1,1v15h14V9z M15,17c0,0.6-0.4,1-1,1h-4c-0.6,0-1-0.4-1-1v-6 c0-0.6,0.4-1,1-1h4c0.6,0,1,0.4,1,1V17z"></path> <path data-color="color-2" fill="currentColor" d="M21,15h2c0.6,0,1-0.4,1-1v-1h-3V15z"></path></g></svg>