<svg id="nc_icon" version="1.1" xmlns="http://www.w3.org/2000/svg" xmlns:xlink="http://www.w3.org/1999/xlink" x="0px" y="0px" viewBox="0 0 24 24" xml:space="preserve" ><g class="nc-icon-wrapper" fill="currentColor"><path fill="currentColor" d="M20,0l-4,0c-0.6,0-1,0.5-1,1c0,2.3-2.6,4-5,2.3C9.3,2.8,9,1.9,9,1c0-0.6-0.4-1-1-1H4C1.8,0,0,1.8,0,4v9 c0,0.6,0.4,1,1,1h2v-3.1C3,10.4,3.4,10,3.9,10h0.2C4.6,10,5,10.4,5,10.9V24h14V10.9c0-0.5,0.4-0.9,0.9-0.9h0.2 c0.5,0,0.9,0.4,0.9,0.9V14h2c0.6,0,1-0.4,1-1V4C24,1.8,22.2,0,20,0z"></path></g></svg>