<svg id="nc_icon" version="1.1" xmlns="http://www.w3.org/2000/svg" xmlns:xlink="http://www.w3.org/1999/xlink" x="0px" y="0px" viewBox="0 0 24 24" xml:space="preserve" ><g class="nc-icon-wrapper" fill="currentColor"><path fill="currentColor" d="M23,6h-8.865l3.633-4.36c0.354-0.424,0.296-1.055-0.128-1.408c-0.426-0.354-1.055-0.296-1.409,0.128 l-4.19,5.028L9.8,2.4C9.469,1.958,8.841,1.867,8.4,2.2C7.958,2.531,7.868,3.158,8.2,3.6L10,6H1C0.447,6,0,6.448,0,7v16 c0,0.552,0.447,1,1,1h22c0.553,0,1-0.448,1-1V7C24,6.448,23.553,6,23,6z M16,20H4V10h12V20z M20,20h-2v-5h2V20z M20,13h-2v-3h2V13z"></path></g></svg>