<svg id="nc_icon" version="1.1" xmlns="http://www.w3.org/2000/svg" xmlns:xlink="http://www.w3.org/1999/xlink" x="0px" y="0px" viewBox="0 0 24 24" xml:space="preserve" ><g class="nc-icon-wrapper" fill="currentColor"><path fill="currentColor" d="M22.995,11.901C22.468,6.59,18.251,2.51,13,2.047V0h-2v2.047C5.749,2.51,1.532,6.59,1.005,11.901L0.896,13 h22.209L22.995,11.901z"></path> <path data-color="color-2" fill="currentColor" d="M18,19c-0.552,0-1,0.448-1,1c0,1.103-0.897,2-2,2s-2-0.897-2-2v-5h-2v5c0,2.206,1.794,4,4,4 s4-1.794,4-4C19,19.448,18.552,19,18,19z"></path></g></svg>