<svg id="nc_icon" xmlns="http://www.w3.org/2000/svg" xmlns:xlink="http://www.w3.org/1999/xlink" x="0px" y="0px" viewBox="0 0 24 24" ><g class="nc-icon-wrapper" fill="currentColor"><path data-color="color-2" fill="currentColor" d="M23,23H1c-0.55225,0-1-0.44775-1-1s0.44775-1,1-1h22c0.55225,0,1,0.44775,1,1 S23.55225,23,23,23z"></path> <path fill="currentColor" d="M16.27995,1.98042c0-0.36641-0.04879-0.46399-0.3913-0.48888l-1.54033-0.17126V0h6.06472v1.32028 l-1.6379,0.19615c-0.36741,0.04879-0.3913,0.09758-0.3913,0.46399v9.8075c0,4.23067-2.34783,6.21208-6.5307,6.21208 c-4.54829,0-6.33355-2.15267-6.33355-6.26087V1.98042c0-0.36641-0.04879-0.46399-0.3913-0.48888L3.58696,1.32028V0h6.21208v1.32028 l-1.6389,0.19615c-0.36641,0.04879-0.3913,0.09758-0.3913,0.46399v9.48988c0,3.3007,1.39496,4.62197,4.23166,4.62197 c2.8855,0,4.27946-1.15002,4.27946-4.54929V1.98042z"></path></g></svg>