<svg id="nc_icon" version="1.1" xmlns="http://www.w3.org/2000/svg" xmlns:xlink="http://www.w3.org/1999/xlink" x="0px" y="0px" viewBox="0 0 24 24" xml:space="preserve" ><g class="nc-icon-wrapper" fill="currentColor"><path data-color="color-2" fill="currentColor" d="M17.848,18.931l1.459,1.367c1.688-1.802,1.856-2.048,2.93-4.262l-1.799-0.873 C19.455,17.188,19.388,17.286,17.848,18.931z"></path> <path data-color="color-2" fill="currentColor" d="M11.226,21.022l0.049,1.999c2.615-0.064,3.032-0.144,5.458-1.028l-0.685-1.879 C13.837,20.919,13.622,20.963,11.226,21.022z"></path> <path data-color="color-2" fill="currentColor" d="M4.881,17.576l-1.429,1.399c1.837,1.875,2.199,2.143,4.556,3.32l0.895-1.789 C6.763,19.438,6.56,19.292,4.881,17.576z"></path> <path data-color="color-2" fill="currentColor" d="M3,11H1c0,2.523,0.054,2.863,0.81,5.25l1.906-0.604C3.024,13.461,3,13.301,3,11z"></path> <path fill="currentColor" d="M6.57,4.833C8.127,3.65,10.011,3,12,3c4.963,0,9,4.037,9,9c0,0.207-0.017,0.409-0.031,0.612l1.984,0.31 C22.979,12.617,23,12.311,23,12c0-6.065-4.935-11-11-11C9.455,1,7.043,1.862,5.093,3.442l-2.76-2.588L1.687,8.438l7.604-1.062 L6.57,4.833z"></path></g></svg>