<svg id="nc_icon" version="1.1" xmlns="http://www.w3.org/2000/svg" xmlns:xlink="http://www.w3.org/1999/xlink" x="0px" y="0px" viewBox="0 0 24 24" xml:space="preserve" ><g class="nc-icon-wrapper" fill="currentColor"><polygon data-color="color-2" fill="currentColor" points="17,6 12,0 7,6 11,6 11,17 13,17 13,6 "></polygon> <path fill="currentColor" d="M22,24H2c-0.308,0-0.599-0.142-0.788-0.385s-0.257-0.559-0.182-0.858l3-12C4.141,10.312,4.541,10,5,10h4v2 H5.781l-2.5,10h17.438l-2.5-10H15v-2h4c0.459,0,0.859,0.312,0.97,0.757l3,12c0.075,0.299,0.007,0.615-0.182,0.858S22.308,24,22,24z"></path></g></svg>