<svg id="nc_icon" version="1.1" xmlns="http://www.w3.org/2000/svg" xmlns:xlink="http://www.w3.org/1999/xlink" x="0px" y="0px" viewBox="0 0 24 24" xml:space="preserve" ><g class="nc-icon-wrapper" fill="currentColor"><path fill="currentColor" d="M21,9h-6v6h2v1.465l-4,2.667V5h3l-3.958-5L8,5h3v13.132l-4-2.667v-2.649 c1.336-0.477,2.245-1.861,1.941-3.416c-0.23-1.175-1.198-2.131-2.376-2.348C4.664,6.703,3,8.161,3,10c0,1.302,0.839,2.402,2,2.816 V16c0,0.334,0.167,0.647,0.445,0.832L11,20.535V24h2v-2.465l5.555-3.703C18.833,17.647,19,17.334,19,17v-2h2V9z"></path></g></svg>