<svg id="nc_icon" version="1.1" xmlns="http://www.w3.org/2000/svg" xmlns:xlink="http://www.w3.org/1999/xlink" x="0px" y="0px" viewBox="0 0 24 24" xml:space="preserve" ><g class="nc-icon-wrapper" fill="currentColor"><path fill="currentColor" d="M23,0H1C0.448,0,0,0.448,0,1v22c0,0.552,0.448,1,1,1h22c0.552,0,1-0.448,1-1V1C24,0.448,23.552,0,23,0z	 M22,22h-2c0-3.314-2.686-6-6-6h-4c-3.314,0-6,2.686-6,6H2V2h20V22z"></path><path data-color="color-2" fill="currentColor" d="M12,14c2.209,0,4-1.791,4-4V9c0-2.209-1.791-4-4-4S8,6.791,8,9v1C8,12.209,9.791,14,12,14z"></path></g></svg>