<svg id="nc_icon" version="1.1" xmlns="http://www.w3.org/2000/svg" xmlns:xlink="http://www.w3.org/1999/xlink" x="0px" y="0px" viewBox="0 0 24 24" xml:space="preserve" ><g class="nc-icon-wrapper" fill="currentColor"><circle fill="currentColor" cx="13" cy="5" r="3"></circle> <path fill="currentColor" d="M18,9H6V6c0-0.5522461-0.4472656-1-1-1S4,5.4477539,4,6v3c0,1.1030273,0.8974609,2,2,2h6v3.7641602 c0,0.5029297-0.3320312,0.762207-0.4746094,0.8505859C11.3828125,15.7026367,11,15.8833008,10.5527344,15.6582031 l-2.359375-1.1796875c-0.8603516-0.4301758-1.9130859-0.1855469-2.4941406,0.5888672l-2.4990234,3.3325195 c-0.3320312,0.4418945-0.2421875,1.0688477,0.2001953,1.3999023c0.4395337,0.3308449,1.0666208,0.2440166,1.3994141-0.199707 l2.4990234-3.3325195l2.359375,1.1796875c0.9355469,0.4677734,2.0283203,0.4204102,2.9189453-0.1313477 C13.4677734,16.7651367,14,15.8115234,14,14.7641602V11h4v3c0,0.5522461,0.4472656,1,1,1s1-0.4477539,1-1v-3 C20,9.8969727,19.1025391,9,18,9z"></path> <rect data-color="color-2" x="8" y="19" fill="currentColor" width="2" height="5"></rect> <rect data-color="color-2" x="7" fill="currentColor" width="2" height="6"></rect></g></svg>