<svg id="nc_icon" version="1.1" xmlns="http://www.w3.org/2000/svg" xmlns:xlink="http://www.w3.org/1999/xlink" x="0px" y="0px" viewBox="0 0 24 24" xml:space="preserve" ><g class="nc-icon-wrapper" fill="currentColor"><circle fill="currentColor" cx="12" cy="3" r="3"></circle> <path fill="currentColor" d="M22,7H2C1.4477539,7,1,7.4477539,1,8s0.4477539,1,1,1h9v4.0178223 c0,0.0008545-0.000061,0.001709-0.000061,0.001709L11,23c0,0.5522461,0.4477539,1,1,1s1-0.4477539,1-1v-1.6381836 l3.8867188-4.6640625c0.4086914-0.4897461,0.559082-1.1518555,0.402832-1.7705078s-0.6035156-1.1293945-1.1958008-1.3671875 L13,12.3226318V9h9c0.5522461,0,1-0.4477539,1-1S22.5522461,7,22,7z M15.3505859,15.4174805L13,18.2381592v-3.7608643 L15.3505859,15.4174805z"></path></g></svg>