<svg id="nc_icon" version="1.1" xmlns="http://www.w3.org/2000/svg" xmlns:xlink="http://www.w3.org/1999/xlink" x="0px" y="0px" viewBox="0 0 24 24" xml:space="preserve" ><g class="nc-icon-wrapper" fill="currentColor"><circle fill="currentColor" cx="12" cy="4" r="3"></circle> <path fill="currentColor" d="M4.7832031,12.1972656c0.6103516,0.6103516,1.5371094,0.7592773,2.3085938,0.375L11,10.6181641V17H5 c-0.5527344,0-1,0.4477539-1,1s0.4472656,1,1,1h14c0.5527344,0,1-0.4477539,1-1s-0.4472656-1-1-1h-6v-6.3818359l3.9082031,1.9541016 c0.7847595,0.391036,1.7091084,0.2244844,2.3085938-0.375l2.4902344-2.4902344c0.390625-0.390625,0.390625-1.0234375,0-1.4140625 s-1.0234375-0.390625-1.4140625,0l-2.4902344,2.4902344l-4.9082031-2.4541016c-0.5420742-0.2710371-1.2087698-0.2901459-1.7890625,0 l-4.9082031,2.4541016L3.7070312,8.2929688c-0.390625-0.390625-1.0234375-0.390625-1.4140625,0s-0.390625,1.0234375,0,1.4140625 L4.7832031,12.1972656z"></path> <rect data-color="color-2" y="21" fill="currentColor" width="24" height="2"></rect></g></svg>