<svg id="nc_icon" version="1.1" xmlns="http://www.w3.org/2000/svg" xmlns:xlink="http://www.w3.org/1999/xlink" x="0px" y="0px" viewBox="0 0 24 24" xml:space="preserve" ><g class="nc-icon-wrapper" fill="currentColor"><path fill="currentColor" d="M5.5810547,16.8139648l5.8601685-4.1855469l2.7374878,3.9418945 c0.3158512,0.454731,0.9385643,0.5653038,1.3916016,0.2509766c0.4541016-0.3149414,0.5664062-0.9379883,0.2509766-1.3916016 l-5.7871094-8.3330078c-0.1621094-0.222168-0.2236328-0.4936523-0.1757812-0.7641602 c0.0488281-0.2705078,0.2011719-0.5039062,0.4296875-0.65625l4.2666016-2.8442383 c0.4599609-0.3061523,0.5839844-0.9272461,0.2773438-1.3867188c-0.3066406-0.4604492-0.9267578-0.5854492-1.3867188-0.2773438 L9.1787109,4.012207c-0.6865234,0.4575195-1.1435547,1.1567383-1.2890625,1.96875 C7.7441406,6.7924805,7.9316406,7.6064453,8.4042969,8.2553711l1.895874,2.7300415l-5.8812256,4.2006226 c-0.4492188,0.3212891-0.5537109,0.9458008-0.2324219,1.3950195C4.5086842,17.0320797,5.1336222,17.1333828,5.5810547,16.8139648z"></path> <circle fill="currentColor" cx="16" cy="8" r="3"></circle> <path data-color="color-2" fill="currentColor" d="M22,19c0,1.6542969-1.3457031,3-3,3c-1.0488281,0-2.0585938-0.6147461-2.6367188-1.6040039 L15.5,18.9155273l-0.8632812,1.4804688C14.0585938,21.3852539,13.0488281,22,12,22s-2.0585938-0.6147461-2.6367188-1.6040039 L8.5,18.9155273l-0.8632812,1.4804688C7.0585938,21.3852539,6.0488281,22,5,22c-1.6542969,0-3-1.3457031-3-3H0 c0,2.7568359,2.2431641,5,5,5c1.3017578,0,2.5566406-0.5458984,3.5-1.4799805C9.4433594,23.4541016,10.6982422,24,12,24 s2.5566406-0.5458984,3.5-1.4799805C16.4433594,23.4541016,17.6982422,24,19,24c2.7568359,0,5-2.2431641,5-5H22z"></path></g></svg>