<svg id="nc_icon" version="1.1" xmlns="http://www.w3.org/2000/svg" xmlns:xlink="http://www.w3.org/1999/xlink" x="0px" y="0px" viewBox="0 0 24 24" xml:space="preserve" ><g class="nc-icon-wrapper" fill="currentColor"><path fill="currentColor" d="M23,0H1C0.448,0,0,0.448,0,1v22c0,0.552,0.448,1,1,1h22c0.552,0,1-0.448,1-1V1C24,0.448,23.552,0,23,0z	 M18,21H6c-0.552,0-1-0.448-1-1v-1c0-2,1.508-2.382,3.5-3.046c1.183-0.394,1.694-1.437,1.919-2.281C8.997,13.059,8,11.647,8,10	l0-0.828c0-2.089,1.527-3.955,3.607-4.153C13.993,4.791,16,6.661,16,9v1c0,1.647-0.997,3.059-2.419,3.673	c0.227,0.846,0.741,1.889,1.919,2.281C17.491,16.618,19,17,19,19v1C19,20.552,18.552,21,18,21z"></path></g></svg>