<svg id="nc_icon" version="1.1" xmlns="http://www.w3.org/2000/svg" xmlns:xlink="http://www.w3.org/1999/xlink" x="0px" y="0px" viewBox="0 0 24 24" xml:space="preserve" ><g class="nc-icon-wrapper" fill="currentColor"><path fill="currentColor" d="M23,7c-0.7318726,0-1.4093018,0.211853-2,0.5563354V7c0-3.8598633-3.140625-7-7-7h-4 C6.140625,0,3,3.1401367,3,7v0.5563354C2.4093018,7.211853,1.7318726,7,1,7H0v4c0,1.8583374,1.27948,3.4108276,3,3.8580322V15 c0,4.9624023,4.0371094,9,9,9s9-4.0375977,9-9v-0.1419678C22.72052,14.4108276,24,12.8583374,24,11V7H23z M15.5,8 C16.3284302,8,17,8.6715698,17,9.5S16.3284302,11,15.5,11S14,10.3284302,14,9.5S14.6715698,8,15.5,8z M8.5,8 C9.3284302,8,10,8.6715698,10,9.5S9.3284302,11,8.5,11S7,10.3284302,7,9.5S7.6715698,8,8.5,8z M15,20.2358398L13.3818359,17 h-2.7636719L9,20.2358398L6.3818359,15h3.5976562c0.0136719,0,0.0283203,0,0.0419922,0h3.9570312 c0.0136719,0,0.0283203,0,0.0419922,0h3.5976562L15,20.2358398z"></path></g></svg>