<svg id="nc_icon" xmlns="http://www.w3.org/2000/svg" xmlns:xlink="http://www.w3.org/1999/xlink" x="0px" y="0px" viewBox="0 0 24 24" ><g class="nc-icon-wrapper" fill="currentColor"><path d="M24,8V4H20V5H15.858A3.981,3.981,0,0,0,8.142,5H4V4H0V8H4V7H8.142a3.9,3.9,0,0,0,.247.692A10.007,10.007,0,0,0,2.055,16H1a1,1,0,0,0-1,1v4a1,1,0,0,0,1,1H5a1,1,0,0,0,1-1V17a1,1,0,0,0-1-1H4.069A8.015,8.015,0,0,1,9.775,9.321a3.985,3.985,0,0,0,4.45,0A8.015,8.015,0,0,1,19.931,16H19a1,1,0,0,0-1,1v4a1,1,0,0,0,1,1h4a1,1,0,0,0,1-1V17a1,1,0,0,0-1-1H21.945a10.007,10.007,0,0,0-6.334-8.308A3.9,3.9,0,0,0,15.858,7H20V8ZM12,4a2,2,0,1,1-2,2A2,2,0,0,1,12,4Z" fill="currentColor"></path></g></svg>