<svg id="nc_icon" xmlns="http://www.w3.org/2000/svg" xmlns:xlink="http://www.w3.org/1999/xlink" x="0px" y="0px" viewBox="0 0 24 24" ><g class="nc-icon-wrapper" fill="currentColor"><path d="M15.769.008l-13.893,2A2,2,0,1,0,2.162,6l14.036,0A3,3,0,1,0,15.769.008Z" fill="currentColor" data-color="color-2"></path> <path d="M21.229.615a3.424,3.424,0,0,1,2.712.13,3.424,3.424,0,0,1-1.71,2.109,3.423,3.423,0,0,1-2.712-.13A3.42,3.42,0,0,1,21.229.615Z" fill="currentColor" data-color="color-2"></path> <path d="M14,8v2a1,1,0,0,1-1,1h0a1,1,0,0,1-1-1V8H10v2a1,1,0,0,1-1,1H9a1,1,0,0,1-1-1V8H6v4a3,3,0,0,0,3,3h1v8a1,1,0,0,0,2,0V15h1a3,3,0,0,0,3-3V8Z" fill="currentColor"></path></g></svg>