<svg id="nc_icon" version="1.1" xmlns="http://www.w3.org/2000/svg" xmlns:xlink="http://www.w3.org/1999/xlink" x="0px" y="0px" viewBox="0 0 24 24" xml:space="preserve" ><g class="nc-icon-wrapper" fill="currentColor"><path d="M22.814,19.089l-8.457-4.883A7.169,7.169,0,0,0,18,8a6.975,6.975,0,0,0-5.834-6.9A1,1,0,0,0,11,2.09v9.775A7.164,7.164,0,0,0,3.8,11.8,6.974,6.974,0,0,0,.749,20.3a1,1,0,0,0,1.437.517l8.458-4.883A7.169,7.169,0,0,0,14.2,22.2a6.974,6.974,0,0,0,8.889-1.6,1,1,0,0,0-.271-1.5Z" fill="currentColor"></path></g></svg>