<svg id="nc_icon" version="1.1" xmlns="http://www.w3.org/2000/svg" xmlns:xlink="http://www.w3.org/1999/xlink" x="0px" y="0px" viewBox="0 0 24 24" xml:space="preserve" ><g class="nc-icon-wrapper" fill="currentColor"><path fill="currentColor" d="M22.775,16.13L20.389,9H22V3h-4c-0.352,0-0.686,0.072-1,0.184V2c0-0.552-0.448-1-1-1h-4v2h3v10 c0,0.551-0.449,1-1,1h-2c-0.551,0-1-0.449-1-1V8c0-1.654-1.346-3-3-3H3C1.346,5,0,6.346,0,8v9c0,1.336,0.884,2.458,2.094,2.845 C2.483,21.645,4.085,23,6,23c1.858,0,3.411-1.28,3.858-3h6.284c0.447,1.72,2,3,3.858,3c2.206,0,4-1.794,4-4 C24,17.873,23.528,16.858,22.775,16.13z M18,5h2v2h-2c-0.551,0-1-0.449-1-1S17.449,5,18,5z M2,8c0-0.551,0.449-1,1-1h5 c0.551,0,1,0.449,1,1v1H2V8z M6,21c-1.103,0-2-0.897-2-2s0.897-2,2-2s2,0.897,2,2S7.103,21,6,21z M20,21c-1.103,0-2-0.897-2-2 s0.897-2,2-2s2,0.897,2,2S21.103,21,20,21z"></path></g></svg>