<svg id="nc_icon" xmlns="http://www.w3.org/2000/svg" xmlns:xlink="http://www.w3.org/1999/xlink" x="0px" y="0px" viewBox="0 0 24 24" ><g class="nc-icon-wrapper" fill="currentColor"><polygon data-color="color-2" fill="currentColor" points="16.382,0 7.618,0 10.618,6 13.382,6 "></polygon> <path fill="currentColor" d="M6,7c0-0.552,0.448-1,1-1h1.382L5.846,0.928L4.465,3H1C0.448,3,0,3.448,0,4v19c0,0.552,0.448,1,1,1h5V7z"></path> <path fill="currentColor" d="M23,3h-3.465l-1.381-2.072l-3.259,6.519C14.725,7.786,14.379,8,14,8H8v16h15c0.552,0,1-0.448,1-1V4 C24,3.448,23.552,3,23,3z M12,20h-2v-2h2V20z M12,16h-2v-2h2V16z M12,12h-2v-2h2V12z"></path></g></svg>