<svg id="nc_icon" version="1.1" xmlns="http://www.w3.org/2000/svg" xmlns:xlink="http://www.w3.org/1999/xlink" x="0px" y="0px" viewBox="0 0 24 24" xml:space="preserve" ><g class="nc-icon-wrapper" fill="currentColor"><rect x="11" y="14" fill="currentColor" width="2" height="1"></rect> <rect x="11" y="11" fill="currentColor" width="2" height="1"></rect> <path data-color="color-2" fill="currentColor" d="M1,22v1c0,0.6,0.4,1,1,1h20c0.6,0,1-0.4,1-1v-1H1z"></path> <path fill="currentColor" d="M23,20V9c0-0.2-0.1-0.5-0.2-0.7C21,6.4,20,3.7,20,1c0-0.6-0.4-1-1-1h-3c-0.6,0-1,0.4-1,1c0,1.7-1.3,3-3,3 S9,2.7,9,1c0-0.6-0.4-1-1-1H5C4.4,0,4,0.4,4,1c0,2.7-1,5.4-2.8,7.3C1.1,8.5,1,8.8,1,9v11H23z M9,10c0-0.6,0.4-1,1-1h4 c0.6,0,1,0.4,1,1v6c0,0.6-0.4,1-1,1h-4c-0.6,0-1-0.4-1-1V10z"></path></g></svg>