<svg id="nc_icon" version="1.1" xmlns="http://www.w3.org/2000/svg" xmlns:xlink="http://www.w3.org/1999/xlink" x="0px" y="0px" viewBox="0 0 24 24" xml:space="preserve" ><g class="nc-icon-wrapper" fill="currentColor"><path fill="currentColor" d="M23.502,11.135c-0.308-0.178-0.689-0.181-0.998-0.003L17,14.277V11c0-0.553-0.447-1-1-1H1 c-0.553,0-1,0.447-1,1v12c0,0.553,0.447,1,1,1h15c0.553,0,1-0.447,1-1v-3.277l5.504,3.145C22.657,22.956,22.829,23,23,23 c0.174,0,0.347-0.045,0.502-0.135C23.811,22.686,24,22.356,24,22V12C24,11.644,23.811,11.314,23.502,11.135z"></path> <circle data-color="color-2" fill="currentColor" cx="4" cy="4" r="4"></circle> <circle data-color="color-2" fill="currentColor" cx="12" cy="5" r="3"></circle></g></svg>