<svg id="nc_icon" version="1.1" xmlns="http://www.w3.org/2000/svg" xmlns:xlink="http://www.w3.org/1999/xlink" x="0px" y="0px" viewBox="0 0 24 24" xml:space="preserve" ><g class="nc-icon-wrapper" fill="currentColor"><path fill="currentColor" d="M23.55,6.165c-0.28-0.186-0.635-0.217-0.944-0.084L17,8.484V4c0-0.553-0.448-1-1-1H1C0.448,3,0,3.447,0,4v16 c0,0.553,0.448,1,1,1h15c0.552,0,1-0.447,1-1v-4.484l5.606,2.403C22.732,17.974,22.866,18,23,18c0.193,0,0.385-0.056,0.55-0.165 C23.831,17.649,24,17.336,24,17V7C24,6.664,23.831,6.351,23.55,6.165z"></path></g></svg>