<svg id="nc_icon" version="1.1" xmlns="http://www.w3.org/2000/svg" xmlns:xlink="http://www.w3.org/1999/xlink" x="0px" y="0px" viewBox="0 0 24 24" xml:space="preserve" ><g class="nc-icon-wrapper" fill="currentColor"><path fill="currentColor" d="M13.537,15.992C11.95,15.334,10.087,15,8,15s-3.95,0.334-5.536,0.992C0.967,16.611,0,18.062,0,19.688V23h16 v-3.312C16,18.062,15.033,16.611,13.537,15.992z"></path> <circle fill="currentColor" cx="8" cy="9" r="5"></circle> <path data-color="color-2" fill="currentColor" d="M17.088,13.057l-1.499-1.323l0.661-0.75C16.733,10.436,17,9.731,17,9 s-0.266-1.436-0.749-1.983l-0.661-0.75l1.499-1.323l0.662,0.75C18.557,6.606,19,7.781,19,9c0,1.219-0.444,2.394-1.25,3.307 L17.088,13.057z"></path> <path data-color="color-2" fill="currentColor" d="M19.923,17.12l-1.334-1.49l0.745-0.667C21.028,13.445,22,11.272,22,9 c0-2.272-0.972-4.445-2.666-5.962l-0.745-0.667l1.334-1.49l0.745,0.667C22.785,3.443,24,6.16,24,9s-1.215,5.557-3.332,7.453 L19.923,17.12z"></path></g></svg>