<svg id="nc_icon" version="1.1" xmlns="http://www.w3.org/2000/svg" xmlns:xlink="http://www.w3.org/1999/xlink" x="0px" y="0px" viewBox="0 0 24 24" xml:space="preserve" ><g class="nc-icon-wrapper" fill="currentColor"><path data-color="color-2" fill="currentColor" d="M9.2744141,3.7285156c0.1746216-0.8740845,0.451416-1.7244873,0.8054199-2.550293 C8.4133301,1.472168,6.8796997,2.1395874,5.5623779,3.0935059c-0.9127808,2.6782227-0.9934082,7.4724731,1.46698,10.8904419 c1.5166016-0.5134888,2.7902222-1.3406372,3.6853027-2.0592651C9.7414551,10.0627441,8.6153564,7.024353,9.2744141,3.7285156z"></path> <path data-color="color-2" fill="currentColor" d="M16.5471802,14.5754395c-1.5223389-0.8360596-3.1084595-1.2088623-4.2506714-1.3673096 c-1.5834351,1.3432617-4.4631958,3.2640381-8.041626,3.2640381c-0.805603,0-1.609314-0.0819702-2.4061279-0.2334595 c0.593689,1.420105,1.4813232,2.6829834,2.579834,3.727417C11.6861572,20.0655518,14.6265259,17.9952393,16.5471802,14.5754395z"></path> <path data-color="color-2" fill="currentColor" d="M21.7907104,16.9974976c0.611145-1.1947021,1.0169678-2.5112915,1.1543579-3.9093018 c-4.5778198-5.6791382-7.9903564-6.6688232-11.7592163-6.02771c0.2410889,1.692627,0.8779297,3.1660156,1.4310913,4.1737061 c2.0613403,0.2924805,5.3771362,1.1668091,7.7424316,3.8117065C20.8969116,15.6467285,21.3720093,16.3013916,21.7907104,16.9974976z "></path> <path fill="currentColor" d="M18.8686523,16.3793945c-0.2138062-0.2391357-0.444458-0.4490356-0.6768188-0.6547852 c-1.9451904,3.3862305-4.8533936,5.7091675-10.9885864,6.1628418C8.654541,22.5930176,10.277832,23,12,23 c3.4569092,0,6.5377197-1.5976562,8.5542603-4.0914307C20.1033325,17.9815063,19.5414429,17.1312256,18.8686523,16.3793945z"></path> <path fill="currentColor" d="M11.2353516,4.1206055c-0.0623169,0.3116455-0.0911865,0.6192017-0.116333,0.9257812 c3.3798828-0.5246582,7.1341553,0.045105,11.6700439,4.8192749c-0.9705811-4.9329224-5.2382812-8.6713257-10.4130249-8.8466797 C11.8398438,2.0059204,11.4502563,3.0444336,11.2353516,4.1206055z"></path> <path fill="currentColor" d="M4.2548828,14.472168c0.2290039,0,0.4477539-0.0297852,0.6704712-0.048584 c-1.6116333-2.6535034-2.1432495-5.9071655-1.9047241-8.7637329C1.7522583,7.4528198,1,9.6366577,1,12 c0,0.6931763,0.0718384,1.3688354,0.194458,2.0264893C2.2023926,14.317749,3.2281494,14.472168,4.2548828,14.472168z"></path></g></svg>