<svg id="nc_icon" version="1.1" xmlns="http://www.w3.org/2000/svg" xmlns:xlink="http://www.w3.org/1999/xlink" x="0px" y="0px" viewBox="0 0 24 24" xml:space="preserve" ><g class="nc-icon-wrapper" fill="currentColor"><path fill="currentColor" d="M14.447,1.105C14.109,0.938,13.703,0.973,13.4,1.2L5.667,7H1C0.447,7,0,7.447,0,8v8c0,0.553,0.447,1,1,1 h4.667l7.733,5.8c0.176,0.133,0.388,0.2,0.6,0.2c0.152,0,0.306-0.035,0.447-0.105C14.786,22.725,15,22.379,15,22V2 C15,1.621,14.786,1.275,14.447,1.105z"></path> <path data-color="color-2" fill="currentColor" d="M18.243,7.758l-0.707-0.707l-1.414,1.414l0.707,0.707c1.56,1.56,1.56,4.097,0,5.656 l-0.707,0.707l1.414,1.414l0.707-0.707C20.582,13.903,20.582,10.097,18.243,7.758z"></path> <path data-color="color-2" fill="currentColor" d="M20.364,4.222L18.95,5.636l0.707,0.707c3.119,3.119,3.119,8.195,0,11.314l-0.707,0.707 l1.414,1.414l0.707-0.707c3.899-3.899,3.899-10.243,0-14.143L20.364,4.222z"></path></g></svg>