<svg id="nc_icon" version="1.1" xmlns="http://www.w3.org/2000/svg" xmlns:xlink="http://www.w3.org/1999/xlink" x="0px" y="0px" viewBox="0 0 24 24" xml:space="preserve" ><g class="nc-icon-wrapper" fill="currentColor"><path data-color="color-2" fill="currentColor" d="M19,7c-2.757,0-5,2.243-5,5s2.243,5,5,5s5-2.243,5-5S21.757,7,19,7z M22,12 c0,0.462-0.113,0.894-0.301,1.285l-3.985-3.985C18.106,9.113,18.538,9,19,9C20.654,9,22,10.346,22,12z M16,12 c0-0.462,0.113-0.894,0.301-1.285l3.985,3.985C19.894,14.887,19.462,15,19,15C17.346,15,16,13.654,16,12z"></path> <path fill="currentColor" d="M12,12c0-2.791,1.637-5.193,4-6.317V2c0-0.379-0.214-0.725-0.553-0.895C15.109,0.938,14.703,0.973,14.4,1.2 L6.667,7H1C0.447,7,0,7.447,0,8v8c0,0.553,0.447,1,1,1h5.667l7.733,5.8c0.176,0.133,0.388,0.2,0.6,0.2 c0.152,0,0.306-0.035,0.447-0.105C15.786,22.725,16,22.379,16,22v-3.683C13.637,17.193,12,14.791,12,12z"></path></g></svg>