<svg id="nc_icon" version="1.1" xmlns="http://www.w3.org/2000/svg" xmlns:xlink="http://www.w3.org/1999/xlink" x="0px" y="0px" viewBox="0 0 24 24" xml:space="preserve" ><g class="nc-icon-wrapper" fill="currentColor"><path fill="currentColor" d="M10.567,17.675L17.4,22.8c0.176,0.133,0.388,0.2,0.6,0.2c0.152,0,0.306-0.035,0.447-0.105 C18.786,22.725,19,22.379,19,22V9.242L10.567,17.675z"></path> <path fill="currentColor" d="M2,17h5L19,5V2c0-0.379-0.214-0.725-0.553-0.895C18.109,0.938,17.703,0.973,17.4,1.2L9.667,7H2 C1.447,7,1,7.447,1,8v8C1,16.553,1.447,17,2,17z"></path> <path data-color="color-2" fill="currentColor" d="M1,24c-0.256,0-0.512-0.098-0.707-0.293c-0.391-0.391-0.391-1.023,0-1.414l22-22 c0.391-0.391,1.023-0.391,1.414,0s0.391,1.023,0,1.414l-22,22C1.512,23.902,1.256,24,1,24z"></path></g></svg>