<svg id="nc_icon" version="1.1" xmlns="http://www.w3.org/2000/svg" xmlns:xlink="http://www.w3.org/1999/xlink" x="0px" y="0px" viewBox="0 0 24 24" xml:space="preserve" ><g class="nc-icon-wrapper" fill="currentColor"><rect data-color="color-2" x="16" y="11" fill="currentColor" width="8" height="2"></rect> <path fill="currentColor" d="M14,12c0-1.775,0.775-3.365,2-4.463V2c0-0.379-0.214-0.725-0.553-0.895C15.108,0.937,14.704,0.972,14.4,1.2 L6.667,7H1C0.448,7,0,7.447,0,8v8c0,0.553,0.448,1,1,1h5.667l7.733,5.8c0.177,0.133,0.388,0.2,0.6,0.2 c0.152,0,0.306-0.035,0.447-0.105C15.786,22.725,16,22.379,16,22v-5.537C14.775,15.365,14,13.775,14,12z"></path></g></svg>