<svg id="nc_icon" version="1.1" xmlns="http://www.w3.org/2000/svg" xmlns:xlink="http://www.w3.org/1999/xlink" x="0px" y="0px" viewBox="0 0 24 24" xml:space="preserve" ><g class="nc-icon-wrapper" fill="currentColor"><path fill="currentColor" d="M13,13h-2v-3c0-2.206-1.794-4-4-4s-4,1.794-4,4v3H1c-0.552,0-1,0.447-1,1v9c0,0.553,0.448,1,1,1h12 c0.552,0,1-0.447,1-1v-9C14,13.447,13.552,13,13,13z M7,19c-0.552,0-1-0.448-1-1c0-0.552,0.448-1,1-1s1,0.448,1,1 C8,18.552,7.552,19,7,19z M9,13H5v-3c0-1.103,0.897-2,2-2s2,0.897,2,2V13z"></path> <path data-color="color-2" fill="currentColor" d="M20,11h-2v-1c0-2.206-1.794-4-4-4h-1V4h1c3.309,0,6,2.691,6,6V11z"></path> <path data-color="color-2" fill="currentColor" d="M24,11h-2v-1c0-4.411-3.589-8-8-8h-1V0h1c5.514,0,10,4.486,10,10V11z"></path></g></svg>