<svg id="nc_icon" xmlns="http://www.w3.org/2000/svg" xmlns:xlink="http://www.w3.org/1999/xlink" x="0px" y="0px" viewBox="0 0 24 24" ><g class="nc-icon-wrapper" fill="currentColor"><rect x="9.464" y="14.464" width="5.071" height="5.071" transform="translate(-8.506 13.464) rotate(-45)" fill="currentColor"></rect> <rect x="4.464" y="9.464" width="5.071" height="5.071" transform="translate(-6.435 8.464) rotate(-45)" fill="currentColor"></rect> <rect x="9.464" y="4.464" width="5.071" height="5.071" transform="translate(-1.435 10.536) rotate(-45)" fill="currentColor"></rect> <rect x="14.464" y="9.464" width="5.071" height="5.071" transform="translate(-3.506 15.536) rotate(-45)" fill="currentColor"></rect> <path d="M20,1H4A3,3,0,0,0,1,4V20a3,3,0,0,0,3,3H20a3,3,0,0,0,3-3V4A3,3,0,0,0,20,1Zm1,3.414L18.414,7,21,9.586v4.828L18.414,17,21,19.586V20a1,1,0,0,1-1,1h-.414L17,18.414,14.414,21H9.586L7,18.414,4.414,21H4a1,1,0,0,1-1-1v-.414L5.586,17,3,14.414V9.586L5.586,7,3,4.414V4A1,1,0,0,1,4,3h.414L7,5.586,9.586,3h4.828L17,5.586,19.586,3H20a1,1,0,0,1,1,1Z" fill="currentColor"></path></g></svg>