<svg id="nc_icon" version="1.1" xmlns="http://www.w3.org/2000/svg" xmlns:xlink="http://www.w3.org/1999/xlink" x="0px" y="0px" viewBox="0 0 24 24" xml:space="preserve" ><g class="nc-icon-wrapper" fill="currentColor"><path d="M6.818,10.709l1.124-.562.6-2.534L5.553,9.105a1,1,0,0,0-.5.578L3.735,13.633l1.9.632Z" fill="currentColor" data-color="color-2"></path>  <path d="M13.241,13.827,12.7,16.116l1.3,1.3V23h2V17a1,1,0,0,0-.293-.707Z" fill="currentColor" data-color="color-2"></path>  <path d="M18.684,10.052l-2.5.834L12.523,8.143,12.8,6.97a3.5,3.5,0,1,0-1.959-.408L7.026,22.771l1.947.459,3.05-12.962L15.4,12.8a1,1,0,0,0,.6.2.983.983,0,0,0,.316-.052l3-1Z" fill="currentColor"></path></g></svg>