<svg id="nc_icon" version="1.1" xmlns="http://www.w3.org/2000/svg" xmlns:xlink="http://www.w3.org/1999/xlink" x="0px" y="0px" viewBox="0 0 24 24" xml:space="preserve" ><g class="nc-icon-wrapper" fill="currentColor"><rect data-color="color-2" x="6" fill="currentColor" width="16" height="4"></rect> <path fill="currentColor" d="M23,6H3C2.449,6,2,5.551,2,5s0.449-1,1-1h1V2H3C1.343,2,0,3.343,0,5v15c0,2.209,1.791,4,4,4h19 c0.552,0,1-0.448,1-1V7C24,6.448,23.552,6,23,6z M18,17c-1.105,0-2-0.895-2-2c0-1.105,0.895-2,2-2s2,0.895,2,2 C20,16.105,19.105,17,18,17z"></path> </g></svg>