<svg id="nc_icon" version="1.1" xmlns="http://www.w3.org/2000/svg" xmlns:xlink="http://www.w3.org/1999/xlink" x="0px" y="0px" viewBox="0 0 24 24" xml:space="preserve" ><g class="nc-icon-wrapper" fill="currentColor"><path fill="currentColor" d="M23,4H4H3C2.449,4,2,3.551,2,3s0.449-1,1-1h15v1h2V1c0-0.552-0.448-1-1-1H3C1.343,0,0,1.343,0,3v17 c0,2.209,1.791,4,4,4h19c0.552,0,1-0.448,1-1V5C24,4.448,23.552,4,23,4z M18,16c-1.105,0-2-0.895-2-2c0-1.105,0.895-2,2-2 s2,0.895,2,2C20,15.105,19.105,16,18,16z"></path></g></svg>