<svg id="nc_icon" version="1.1" xmlns="http://www.w3.org/2000/svg" xmlns:xlink="http://www.w3.org/1999/xlink" x="0px" y="0px" viewBox="0 0 24 24" xml:space="preserve" ><g class="nc-icon-wrapper"><path data-color="color-2" fill="currentColor" d="M18.707,8.293l-3-3c-0.391-0.391-1.023-0.391-1.414,0L12,7.586L16.414,12l2.293-2.293 C19.098,9.316,19.098,8.684,18.707,8.293z"></path> <path fill="currentColor" d="M10.586,9l-9.293,9.293c-0.391,0.391-0.391,1.023,0,1.414l3,3C4.488,22.902,4.744,23,5,23 s0.512-0.098,0.707-0.293L15,13.414L10.586,9z"></path> <rect data-color="color-2" x="14" fill="currentColor" width="2" height="3"></rect> <rect data-color="color-2" x="19.303" y="2.197" transform="matrix(0.7071 0.7071 -0.7071 0.7071 8.5607 -13.2739)" fill="currentColor" width="2" height="3"></rect> <rect data-color="color-2" x="21.5" y="7.5" transform="matrix(4.547455e-11 1 -1 4.547455e-11 31.5 -13.5)" fill="currentColor" width="2" height="3"></rect> <rect data-color="color-2" x="19.303" y="12.803" transform="matrix(-0.7071 0.7071 -0.7071 -0.7071 44.7739 10.0607)" fill="currentColor" width="2" height="3"></rect> <rect data-color="color-2" x="8.697" y="2.197" transform="matrix(0.7071 -0.7071 0.7071 0.7071 0.2261 7.9393)" fill="currentColor" width="2" height="3"></rect></g></svg>