<svg id="nc_icon" version="1.1" xmlns="http://www.w3.org/2000/svg" xmlns:xlink="http://www.w3.org/1999/xlink" x="0px" y="0px" viewBox="0 0 24 24" xml:space="preserve" ><g class="nc-icon-wrapper" fill="currentColor"><path fill="currentColor" d="M23,2c-0.6,0-1,0.4-1,1v5.4C21.4,8.8,20.7,9,20,9c-1.3,0-2.4-0.6-3.2-1.6C16.6,7.1,16.3,7,16,7 c-0.3,0-0.6,0.1-0.8,0.4C14.4,8.4,13.3,9,12,9c-1.3,0-2.4-0.6-3.2-1.6C8.6,7.1,8.3,7,8,7C7.7,7,7.4,7.1,7.2,7.4C6.4,8.4,5.3,9,4,9 C3.3,9,2.6,8.8,2,8.4V3c0-0.6-0.4-1-1-1S0,2.4,0,3v18c0,0.6,0.4,1,1,1h22c0.6,0,1-0.4,1-1V3C24,2.4,23.6,2,23,2z"></path></g></svg>