<svg id="nc_icon" version="1.1" xmlns="http://www.w3.org/2000/svg" xmlns:xlink="http://www.w3.org/1999/xlink" x="0px" y="0px" viewBox="0 0 24 24" xml:space="preserve" ><g class="nc-icon-wrapper"><path fill="currentColor" d="M23,0H1C0.4,0,0,0.4,0,1v22c0,0.6,0.4,1,1,1h22c0.6,0,1-0.4,1-1V1C24,0.4,23.6,0,23,0z M12,5 c3.5,0,6.4,2.5,6.9,5.9l-0.5,0.3c-3.6,2.4-4.5,1.5-5.8,0.2c-1.7-1.7-3.5-3-7.5-0.6C5.7,7.5,8.6,5,12,5z M12,19 c-3.5,0-6.4-2.5-6.9-5.9l0.5-0.3c3.5-2.3,4.4-1.4,5.7-0.1c1,1,2.1,1.9,3.7,1.9c1.1,0,2.3-0.4,4-1.4C18.3,16.5,15.4,19,12,19z"></path></g></svg>