<svg id="nc_icon" version="1.1" xmlns="http://www.w3.org/2000/svg" xmlns:xlink="http://www.w3.org/1999/xlink" x="0px" y="0px" viewBox="0 0 24 24" xml:space="preserve" ><g class="nc-icon-wrapper"><path fill="currentColor" d="M23,2c-0.6,0-1,0.4-1,1v2.5C21.4,5.8,20.7,6,20,6c-1.3,0-2.4-0.6-3.2-1.6C16.6,4.1,16.3,4,16,4 c-0.3,0-0.6,0.1-0.8,0.4C14.4,5.4,13.3,6,12,6c-1.3,0-2.4-0.6-3.2-1.6C8.6,4.1,8.3,4,8,4C7.7,4,7.4,4.1,7.2,4.4C6.4,5.4,5.3,6,4,6 C3.3,6,2.6,5.8,2,5.5V3c0-0.6-0.4-1-1-1S0,2.4,0,3v18c0,0.6,0.4,1,1,1h22c0.6,0,1-0.4,1-1V3C24,2.4,23.6,2,23,2z M11,17 c0,0.6-0.4,1-1,1H6c-0.6,0-1-0.4-1-1l0-3c0,0,0,0,0,0s0,0,0,0l0-3c0-0.3,0.1-0.5,0.3-0.7S5.7,10,6,10h4c0.6,0,1,0.4,1,1s-0.4,1-1,1 H7l0,1h3c0.6,0,1,0.4,1,1V17z M19,17c0,0.6-0.4,1-1,1h-4c-0.6,0-1-0.4-1-1v-6c0-0.6,0.4-1,1-1h4c0.6,0,1,0.4,1,1V17z"></path> <rect x="15" y="12" fill="currentColor" width="2" height="4"></rect> <rect x="7" y="15" fill="currentColor" width="2" height="1"></rect></g></svg>