<svg id="nc_icon" version="1.1" xmlns="http://www.w3.org/2000/svg" xmlns:xlink="http://www.w3.org/1999/xlink" x="0px" y="0px" viewBox="0 0 24 24" xml:space="preserve" ><g class="nc-icon-wrapper" fill="currentColor"><path fill="currentColor" d="M16.76624,14.97392c1.32208-2.45793,3.4891-3.18027,6.23376-3.41561 c-0.51844-0.69231-1.1818-1.29359-1.97838-1.75352c-1.04488-0.6033-2.1857-0.88224-3.31127-0.87955 c0.56507-0.9734,0.89392-2.10085,0.89392-3.30738c0-1.39127-0.43245-2.68037-1.16702-3.74487 C17.10853,4.59851,14.81413,6.71857,12,6.71857S6.89147,4.59851,6.56275,1.873C5.82818,2.9375,5.39573,4.22659,5.39573,5.61786 c0,1.20652,0.32886,2.33397,0.89393,3.30738C5.16408,8.92255,4.02326,9.20149,2.97838,9.80479 C2.1818,10.26472,1.51844,10.866,1,11.55831c2.74466,0.23534,4.91169,0.95768,6.23376,3.41561 c1.40706,2.4371,0.71824,5.48415-1.47774,7.13159c1.28916,0.10386,2.62178-0.16614,3.82663-0.86175 c1.04495-0.6033,1.85691-1.45187,2.41735-2.42796c0.56043,0.97609,1.3724,1.82467,2.41735,2.42796 c1.20484,0.6956,2.53747,0.96561,3.82663,0.86175C16.04799,20.45806,15.35917,17.41101,16.76624,14.97392z"></path></g></svg>