<svg id="nc_icon" version="1.1" xmlns="http://www.w3.org/2000/svg" xmlns:xlink="http://www.w3.org/1999/xlink" x="0px" y="0px" viewBox="0 0 24 24" xml:space="preserve" ><g class="nc-icon-wrapper" fill="currentColor"><path fill="currentColor" d="M17.985,0.828C17.901,0.349,17.486,0,17,0H7C6.514,0,6.099,0.349,6.015,0.828L5.061,6.275 C3.774,7.832,3,9.827,3,12s0.774,4.168,2.061,5.725l0.954,5.448C6.099,23.651,6.514,24,7,24h10c0.486,0,0.901-0.349,0.985-0.828 l0.954-5.448C20.226,16.168,21,14.173,21,12s-0.774-4.168-2.061-5.725L17.985,0.828z M12,19c-3.86,0-7-3.14-7-7s3.14-7,7-7 s7,3.14,7,7S15.86,19,12,19z"></path> <polygon data-color="color-2" fill="currentColor" points="13,8 11,8 11,13 16,13 16,11 13,11 "></polygon></g></svg>