<svg id="nc_icon" version="1.1" xmlns="http://www.w3.org/2000/svg" xmlns:xlink="http://www.w3.org/1999/xlink" x="0px" y="0px" viewBox="0 0 24 24" xml:space="preserve" ><g class="nc-icon-wrapper" fill="currentColor"><path fill="currentColor" d="M21,6c0-1.468-1.061-2.687-2.455-2.945L17.97,0.757C17.859,0.312,17.459,0,17,0H7 C6.541,0,6.141,0.312,6.03,0.757L5.455,3.055C4.061,3.313,3,4.532,3,6v12c0,1.468,1.061,2.687,2.455,2.945l0.574,2.298 C6.141,23.688,6.541,24,7,24h10c0.459,0,0.859-0.312,0.97-0.757l0.574-2.298C19.939,20.687,21,19.468,21,18v-3h2V9h-2V6z M19,18 c0,0.551-0.449,1-1,1H6c-0.551,0-1-0.449-1-1V6c0-0.551,0.449-1,1-1h12c0.551,0,1,0.449,1,1V18z"></path></g></svg>