<svg id="nc_icon" version="1.1" xmlns="http://www.w3.org/2000/svg" xmlns:xlink="http://www.w3.org/1999/xlink" x="0px" y="0px" viewBox="0 0 24 24" xml:space="preserve" ><g class="nc-icon-wrapper" fill="currentColor"><path fill="currentColor" d="M22.99609,16.90869C22.90332,15.90234,21.94922,14,19,14h-5.00195C13.08496,12.78613,11.63281,12,10,12 H7.47168C5.94043,10.37207,3.05957,10,2,10H0v8.61816l7.36914,3.68457c0.56055,0.28027,1.1748,0.42139,1.79004,0.42139 c0.48633,0,0.97363-0.08838,1.43555-0.26611l12.4707-4.79639L22.99609,16.90869z M9.87598,20.59131 c-0.52246,0.20068-1.11035,0.17334-1.6123-0.07764L2,17.38184V12c1.52306,0,3.41983,0.48669,4.47949,2H10 c1.30371,0,2.41602,0.83594,2.8291,2H7c-0.55273,0-1,0.44775-1,1s0.44727,1,1,1h8v-1c0-0.34229-0.03418-0.67676-0.10059-1H19 c0.84766,0,1.33789,0.21631,1.62207,0.4585L9.87598,20.59131z"></path> <path data-color="color-2" fill="currentColor" d="M14,11c1.96582,0,4-1.49609,4-4c0-2.19336-2.7334-5.12939-3.28125-5.69531L14,0.56201 l-0.71875,0.74268C12.7334,1.87061,10,4.80664,10,7C10,9.50391,12.03418,11,14,11z"></path></g></svg>