<svg id="nc_icon" version="1.1" xmlns="http://www.w3.org/2000/svg" xmlns:xlink="http://www.w3.org/1999/xlink" x="0px" y="0px" viewBox="0 0 24 24" xml:space="preserve" ><g class="nc-icon-wrapper" fill="currentColor"><path fill="currentColor" d="M23.3,17.8L6.2,0.7C6,0.5,5.7,0.4,5.4,0.4S4.9,0.5,4.7,0.7c-5.1,5.1-5.1,13.4,0,18.5 c2.6,2.6,5.9,3.8,9.3,3.8s6.7-1.3,9.3-3.8C23.7,18.9,23.7,18.2,23.3,17.8z M13.3,14c0.4-0.4,1-0.4,1.4,0l0.8,0.8 c0.4,0.4,0.4,1,0,1.4c-0.2,0.2-0.5,0.3-0.7,0.3s-0.5-0.1-0.7-0.3l-0.8-0.8C12.9,15,12.9,14.3,13.3,14z M11.6,12.4 c0.4,0.4,0.4,1,0,1.4l-0.8,0.8c-0.2,0.2-0.5,0.3-0.7,0.3s-0.5-0.1-0.7-0.3c-0.4-0.4-0.4-1,0-1.4l0.8-0.8C10.6,12,11.2,12,11.6,12.4z M7.8,8.5c0.4-0.4,1-0.4,1.4,0L10,9.3c0.4,0.4,0.4,1,0,1.4C9.8,10.9,9.6,11,9.3,11s-0.5-0.1-0.7-0.3L7.8,9.9 C7.5,9.5,7.5,8.9,7.8,8.5z M6.2,17.8c-4.1-4.1-4.3-10.6-0.7-15l1.6,1.6C4.4,8,4.6,13,7.8,16.2c3.2,3.2,8.2,3.4,11.7,0.7l1.6,1.6 C16.8,22.2,10.2,21.9,6.2,17.8z"></path></g></svg>