<svg id="nc_icon" version="1.1" xmlns="http://www.w3.org/2000/svg" xmlns:xlink="http://www.w3.org/1999/xlink" x="0px" y="0px" viewBox="0 0 24 24" xml:space="preserve" ><g class="nc-icon-wrapper" fill="currentColor"><path data-color="color-2" fill="currentColor" d="M21.23535,15.32227L20.5,14.52441l-0.73535,0.79785C19.30273,15.82324,17,18.4209,17,20.375 C17,22.64453,18.7793,24,20.5,24s3.5-1.35547,3.5-3.625C24,18.4209,21.69727,15.82324,21.23535,15.32227z"></path> <path fill="currentColor" d="M19.64429,7.17786l-0.00427-0.02081C20.35156,8.26318,21.58698,9,23,9V1 c-1.99011,0-3.62775,1.45728-3.93555,3.36053l-0.00757-0.03668l-6.33276,1.05548L12,2H1v14h14l-1.25806-5.87097L19.64429,7.17786z"></path></g></svg>