<svg id="nc_icon" version="1.1" xmlns="http://www.w3.org/2000/svg" xmlns:xlink="http://www.w3.org/1999/xlink" x="0px" y="0px" viewBox="0 0 24 24" xml:space="preserve" ><g class="nc-icon-wrapper" fill="currentColor"><path fill="currentColor" d="M17,5V2h3c0.55225,0,1-0.44775,1-1s-0.44775-1-1-1h-8c-0.55225,0-1,0.44775-1,1s0.44775,1,1,1h3v3h-5 c-3.85986,0-7,3.14014-7,7v2h4v-2c0-1.6543,1.3457-3,3-3h14V5H17z"></path> <path data-color="color-2" fill="currentColor" d="M2,21c0,1.89996,1.5,3,3,3s3-1.10004,3-3c0-1.90002-3-5-3-5S2,19.09998,2,21z"></path></g></svg>