<svg id="nc_icon" version="1.1" xmlns="http://www.w3.org/2000/svg" xmlns:xlink="http://www.w3.org/1999/xlink" x="0px" y="0px" viewBox="0 0 24 24" xml:space="preserve" ><g class="nc-icon-wrapper" fill="currentColor"><path fill="currentColor" d="M19,22h-0.957c0.107-2.819,0.613-5.456,1.088-7.802C19.578,11.987,20,9.898,20,8c0-4.486-3.514-8-8-8 S4,3.514,4,8c0,1.898,0.422,3.987,0.869,6.198C5.343,16.544,5.85,19.181,5.957,22H5c-0.553,0-1,0.448-1,1s0.447,1,1,1h11h2h1 c0.553,0,1-0.448,1-1S19.553,22,19,22z M12,12c-2.209,0-4-1.791-4-4c0-2.209,1.791-4,4-4s4,1.791,4,4C16,10.209,14.209,12,12,12z"></path> <circle data-color="color-2" fill="currentColor" cx="12" cy="8" r="1"></circle></g></svg>