<svg id="nc_icon" version="1.1" xmlns="http://www.w3.org/2000/svg" xmlns:xlink="http://www.w3.org/1999/xlink" x="0px" y="0px" viewBox="0 0 24 24" xml:space="preserve" ><g class="nc-icon-wrapper" fill="currentColor"><path fill="currentColor" d="M22.722,20.592l-2.749-4.581C21.239,14.336,22,12.258,22,10c0-5.514-4.486-10-10-10S2,4.486,2,10 c0,2.257,0.761,4.335,2.027,6.011l-2.749,4.581c-0.409,0.682-0.383,1.512,0.07,2.167c0.452,0.654,1.22,0.974,2.003,0.831L12,22.017 l8.648,1.572c0.124,0.022,0.247,0.034,0.368,0.033c0.649,0,1.254-0.312,1.635-0.864C23.104,22.104,23.131,21.274,22.722,20.592z M12,2c4.411,0,8,3.589,8,8s-3.589,8-8,8s-8-3.589-8-8S7.589,2,12,2z"></path> <path data-color="color-2" fill="currentColor" d="M12,6c-2.757,0-5,2.243-5,5s2.243,5,5,5s5-2.243,5-5S14.757,6,12,6z M12,12 c-0.552,0-1-0.448-1-1c0-0.552,0.448-1,1-1s1,0.448,1,1C13,11.552,12.552,12,12,12z"></path></g></svg>