<svg id="nc_icon" version="1.1" xmlns="http://www.w3.org/2000/svg" xmlns:xlink="http://www.w3.org/1999/xlink" x="0px" y="0px" viewBox="0 0 24 24" xml:space="preserve" ><g class="nc-icon-wrapper" fill="currentColor"><path data-color="color-2" fill="currentColor" d="M24,4V2c0-0.552-0.447-1-1-1H6v3H24z"></path> <path data-color="color-2" fill="currentColor" d="M4,4V1H1C0.447,1,0,1.448,0,2v2H4z"></path> <path fill="currentColor" d="M0,6v16c0,0.552,0.447,1,1,1h22c0.553,0,1-0.448,1-1V6H0z M7,20H3v-5h4V20z M21,20H10v-5h11V20z M21,12H3V9 h18V12z"></path></g></svg>