<svg id="nc_icon" version="1.1" xmlns="http://www.w3.org/2000/svg" xmlns:xlink="http://www.w3.org/1999/xlink" x="0px" y="0px" viewBox="0 0 24 24" xml:space="preserve" ><g class="nc-icon-wrapper" fill="currentColor"><path d="M12,0A12,12,0,1,0,24,12,12.013,12.013,0,0,0,12,0Zm8.192,8.287L15.366,9.855A3.99,3.99,0,0,0,13,8.141V3.059A9,9,0,0,1,20.192,8.287ZM11,3.059V8.141A3.99,3.99,0,0,0,8.634,9.855L3.808,8.287A9,9,0,0,1,11,3.059ZM3,12a9.042,9.042,0,0,1,.183-1.813L8.024,11.76c0,.081-.024.158-.024.24a3.963,3.963,0,0,0,.926,2.53L5.94,18.64A8.966,8.966,0,0,1,3,12Zm4.555,7.819,2.982-4.1a3.9,3.9,0,0,0,2.926,0l2.982,4.1a8.959,8.959,0,0,1-8.89,0ZM18.06,18.64l-2.986-4.11A3.963,3.963,0,0,0,16,12c0-.082-.019-.159-.024-.24l4.841-1.573A8.991,8.991,0,0,1,18.06,18.64Z" fill="currentColor"></path></g></svg>