<svg id="nc_icon" xmlns="http://www.w3.org/2000/svg" xmlns:xlink="http://www.w3.org/1999/xlink" x="0px" y="0px" viewBox="0 0 24 24" ><g class="nc-icon-wrapper" fill="currentColor"><path data-color="color-2" d="M6.379,14.621.621,20.379a2.121,2.121,0,0,0,3,3l5.758-5.758Z" fill="currentColor"></path> <path d="M22.1,1.9a6.5,6.5,0,0,0-9.192,0C10.979,3.829,8.344,11.789,8.05,12.69l-.191.583,2.856,2.856.571-.171c.868-.259,8.549-2.6,10.81-4.862a6.5,6.5,0,0,0,0-9.192Zm-3.8,5.389a64.2,64.2,0,0,1-6.764,5.184,75.23,75.23,0,0,1,5.178-6.77c1.876-1.876,3.475-2.433,3.884-2.433a.267.267,0,0,1,.044,0c.006.007.014.011.021.018C20.778,3.654,20.268,5.317,18.293,7.293ZM14.318,3.318a4.345,4.345,0,0,1,3.9-1.248,12.9,12.9,0,0,0-2.922,2.223A51.564,51.564,0,0,0,11.43,9.175C12.426,6.605,13.558,4.078,14.318,3.318Zm6.364,6.364c-.972.972-3.578,2.11-5.985,3.01a47.644,47.644,0,0,0,5.01-3.985A12.918,12.918,0,0,0,21.93,5.785a4.345,4.345,0,0,1-1.248,3.9Z" fill="currentColor"></path></g></svg>