<svg id="nc_icon" version="1.1" xmlns="http://www.w3.org/2000/svg" xmlns:xlink="http://www.w3.org/1999/xlink" x="0px" y="0px" viewBox="0 0 24 24" xml:space="preserve" ><g class="nc-icon-wrapper" fill="currentColor"><path fill="currentColor" d="M7,10c-3.8598633,0-7,3.1401367-7,7s3.1401367,7,7,7s7-3.1401367,7-7h6.6772461l2.7998047-7H7z"></path> <path data-color="color-2" fill="currentColor" d="M12,5c0.5522461,0,1-0.4477539,1-1V1c0-0.5522461-0.4477539-1-1-1s-1,0.4477539-1,1v3 C11,4.5522461,11.4477539,5,12,5z"></path> <path data-color="color-2" fill="currentColor" d="M17.6567383,6.7573242l2.121582-2.121582c0.390625-0.390625,0.390625-1.0234375,0-1.4140625 s-1.0234375-0.390625-1.4140625,0l-2.121582,2.121582c-0.390625,0.390625-0.390625,1.0234375,0,1.4140625 C16.6333122,7.1479602,17.2661018,7.1479602,17.6567383,6.7573242z"></path> <path data-color="color-2" fill="currentColor" d="M6.3432617,6.7573242c0.390636,0.390636,1.0234265,0.390636,1.4140625,0 c0.390625-0.390625,0.390625-1.0234375,0-1.4140625l-2.121582-2.121582c-0.390625-0.390625-1.0234375-0.390625-1.4140625,0 s-0.390625,1.0234375,0,1.4140625L6.3432617,6.7573242z"></path></g></svg>