<svg id="nc_icon" version="1.1" xmlns="http://www.w3.org/2000/svg" xmlns:xlink="http://www.w3.org/1999/xlink" x="0px" y="0px" viewBox="0 0 24 24" xml:space="preserve" ><g class="nc-icon-wrapper" fill="currentColor"><path fill="currentColor" d="M12,0C5.4,0,0,5.4,0,12s5.4,12,12,12c6.6,0,12-5.4,12-12S18.6,0,12,0z M16,6c1.1,0,2,0.9,2,2s-0.9,2-2,2 s-2-0.9-2-2S14.9,6,16,6z M8,6c1.1,0,2,0.9,2,2s-0.9,2-2,2S6,9.1,6,8S6.9,6,8,6z M5.7,14.1L4.6,13L6,11.6l1.1,1.1 C7.3,12.9,7.6,13,7.8,13H11v2H7.8C7,15,6.3,14.7,5.7,14.1z M15,19H9v-2h6V19z M18.3,14.1C17.7,14.7,17,15,16.2,15H13v-2h3.2 c0.3,0,0.5-0.1,0.7-0.3l1.1-1.1l1.4,1.4L18.3,14.1z"></path></g></svg>