<svg id="nc_icon" version="1.1" xmlns="http://www.w3.org/2000/svg" xmlns:xlink="http://www.w3.org/1999/xlink" x="0px" y="0px" viewBox="0 0 24 24" xml:space="preserve" ><g class="nc-icon-wrapper" fill="currentColor"><path fill="currentColor" d="M23,15h-2v-4c0-0.1,0-0.2-0.1-0.3c0,0,0-0.1,0-0.1c0-0.1-0.1-0.2-0.2-0.3c0,0,0,0,0,0c0,0-0.1-0.1-0.1-0.1 L13,5.4V3h2V1h-2V0h-2v1v2v2.4l-7.5,4.7c-0.1,0-0.1,0.1-0.1,0.1c0,0,0,0,0,0c-0.1,0.1-0.1,0.2-0.2,0.3c0,0,0,0,0,0.1 C3,10.8,3,10.9,3,11v4H1c-0.6,0-1,0.4-1,1v7c0,0.6,0.4,1,1,1h3h1h14h1h3c0.6,0,1-0.4,1-1v-7C24,15.4,23.6,15,23,15z M5,22v-9h3v9H5z M10,13h4v9h-4V13z M16,22v-9h3v9H16z"></path></g></svg>