<svg id="nc_icon" version="1.1" xmlns="http://www.w3.org/2000/svg" xmlns:xlink="http://www.w3.org/1999/xlink" x="0px" y="0px" viewBox="0 0 24 24" xml:space="preserve" ><g class="nc-icon-wrapper" fill="currentColor"><path fill="currentColor" d="M17.657,10.757L16.95,10.05C15.628,8.728,13.869,8,12,8s-3.628,0.728-4.95,2.05l-0.707,0.707L4.929,9.343 l0.707-0.707C7.336,6.936,9.597,6,12,6s4.664,0.936,6.364,2.636l0.707,0.707L17.657,10.757z"></path> <path fill="currentColor" d="M21.899,6.515l-0.707-0.707C18.737,3.352,15.473,2,12,2S5.263,3.352,2.808,5.808L2.101,6.515L0.687,5.101 l0.707-0.707C4.227,1.561,7.993,0,12,0s7.773,1.561,10.606,4.394l0.707,0.707L21.899,6.515z"></path> <path data-color="color-2" fill="currentColor" d="M23,17h-1v-2c0-1.654-1.346-3-3-3s-3,1.346-3,3v2h-1c-0.553,0-1,0.448-1,1v5 c0,0.552,0.447,1,1,1h8c0.553,0,1-0.448,1-1v-5C24,17.448,23.553,17,23,17z M18,15c0-0.551,0.448-1,1-1s1,0.449,1,1v2h-2V15z"></path> <path fill="currentColor" d="M14,15.171V15c0-0.648,0.133-1.263,0.359-1.832C13.809,12.463,12.961,12,12,12c-1.654,0-3,1.346-3,3 s1.346,3,3,3C12,16.696,12.836,15.584,14,15.171z"></path></g></svg>