<svg id="nc_icon" version="1.1" xmlns="http://www.w3.org/2000/svg" xmlns:xlink="http://www.w3.org/1999/xlink" x="0px" y="0px" viewBox="0 0 24 24" xml:space="preserve" ><g class="nc-icon-wrapper" fill="currentColor"><circle data-color="color-2" fill="currentColor" cx="12" cy="18" r="3"></circle> <path fill="currentColor" d="M12,9c-2.404,0-4.664,0.936-6.364,2.636l-0.707,0.707l1.414,1.414L7.05,13.05C8.373,11.728,10.13,11,12,11 s3.627,0.728,4.95,2.05l0.707,0.707l1.414-1.414l-0.707-0.707C16.664,9.936,14.404,9,12,9z"></path> <path fill="currentColor" d="M22.606,7.394C19.774,4.561,16.007,3,12,3S4.226,4.561,1.394,7.394L0.687,8.101l1.414,1.414l0.707-0.707 C5.263,6.352,8.527,5,12,5s6.737,1.352,9.192,3.808l0.707,0.707l1.414-1.414L22.606,7.394z"></path></g></svg>