<svg id="nc_icon" version="1.1" xmlns="http://www.w3.org/2000/svg" xmlns:xlink="http://www.w3.org/1999/xlink" x="0px" y="0px" viewBox="0 0 24 24" xml:space="preserve" ><g class="nc-icon-wrapper" fill="currentColor"><path fill="currentColor" d="M1,9h12.8c2.2,0,4-1.8,4-4s-1.8-4-4-4c-1.7,0-3.2,1.1-3.8,2.7c-0.2,0.5,0.1,1.1,0.6,1.3s1.1-0.1,1.3-0.6 C12.2,3.5,13,3,13.8,3c1.1,0,2,0.9,2,2s-0.9,2-2,2H1C0.4,7,0,7.4,0,8S0.4,9,1,9z"></path> <path fill="currentColor" d="M7.8,15H1c-0.6,0-1,0.4-1,1s0.4,1,1,1h6.8c1.1,0,2,0.9,2,2s-0.9,2-2,2c-0.8,0-1.6-0.5-1.9-1.3 c-0.2-0.5-0.8-0.8-1.3-0.6c-0.5,0.2-0.8,0.8-0.6,1.3C4.6,21.9,6.1,23,7.8,23c2.2,0,4-1.8,4-4S10,15,7.8,15z"></path> <path data-color="color-2" fill="currentColor" d="M20,11H1c-0.6,0-1,0.4-1,1s0.4,1,1,1h19c1.1,0,2,0.9,2,2s-0.9,2-2,2c-0.8,0-1.6-0.5-1.9-1.3 c-0.2-0.5-0.8-0.8-1.3-0.6c-0.5,0.2-0.8,0.8-0.6,1.3c0.6,1.6,2.1,2.7,3.8,2.7c2.2,0,4-1.8,4-4S22.2,11,20,11z"></path></g></svg>