<svg id="nc_icon" version="1.1" xmlns="http://www.w3.org/2000/svg" xmlns:xlink="http://www.w3.org/1999/xlink" x="0px" y="0px" viewBox="0 0 24 24" xml:space="preserve" ><g class="nc-icon-wrapper" fill="currentColor"><path data-color="color-2" fill="currentColor" d="M3.22412,12c-0.07324,0-0.14746-0.00781-0.22217-0.02441 c-0.53857-0.12207-0.87598-0.6582-0.75391-1.19629c0.49268-2.1748,1.72412-4.14746,3.46631-5.55664 C6.14404,4.875,6.77344,4.94141,7.12109,5.37109c0.34717,0.42969,0.28027,1.05957-0.14893,1.40625 C5.57764,7.90527,4.59229,9.4834,4.19824,11.2207C4.09326,11.68555,3.68066,12,3.22412,12z"></path> <path data-color="color-2" fill="currentColor" d="M12,23c-1.5625,0-3.05908-0.35059-4.44824-1.04102 c-0.49463-0.24609-0.6958-0.84668-0.4502-1.34082c0.24512-0.49414,0.84521-0.69727,1.34082-0.4502 c2.25781,1.12305,4.98438,1.10254,7.22461-0.05566c0.49072-0.25391,1.09424-0.06152,1.34766,0.42773 c0.25391,0.49121,0.06201,1.09473-0.42871,1.34766C15.18018,22.61523,13.59424,23,12,23z"></path> <path data-color="color-2" fill="currentColor" d="M20.77588,12c-0.45654,0-0.86865-0.31445-0.97412-0.77832 c-0.39453-1.73828-1.37988-3.31641-2.77393-4.44434c-0.4292-0.34668-0.49609-0.97656-0.14893-1.40625 c0.34814-0.42871,0.97754-0.49707,1.40674-0.14844c1.7417,1.4082,2.97266,3.38184,3.46631,5.55566 c0.12256,0.53906-0.21533,1.07422-0.75391,1.19727C20.92383,11.99219,20.84912,12,20.77588,12z"></path> <path fill="currentColor" d="M12,8c0.71179,0,1.38641,0.15448,2,0.42383V3c0-1.10461-0.89545-2-2-2s-2,0.89539-2,2v5.42383 C10.61359,8.15448,11.28821,8,12,8z"></path> <path fill="currentColor" d="M21.66028,16.26794l-4.71545-2.72247c-0.15698,1.4212-0.89728,2.66028-1.99255,3.46838l4.70801,2.7182 C20.61682,20.2843,21.84003,19.95654,22.39233,19C22.94458,18.0434,22.61682,16.82019,21.66028,16.26794z"></path> <path fill="currentColor" d="M7.05518,13.54547l-4.71545,2.72247C1.38318,16.82019,1.05542,18.0434,1.60767,19 c0.55231,0.95654,1.77551,1.2843,2.73206,0.73206l4.70801-2.7182C7.95245,16.20575,7.21216,14.96667,7.05518,13.54547z"></path> <circle fill="currentColor" cx="12" cy="13" r="3"></circle></g></svg>