<svg id="nc_icon" xmlns="http://www.w3.org/2000/svg" xmlns:xlink="http://www.w3.org/1999/xlink" x="0px" y="0px" viewBox="0 0 24 24" ><g class="nc-icon-wrapper" fill="currentColor"><path d="M23,2H11V4H22V20H14v2h9a1,1,0,0,0,1-1V3A1,1,0,0,0,23,2Z" fill="currentColor" data-color="color-2"></path> <rect x="14" y="8" width="6" height="2" fill="currentColor" data-color="color-2"></rect> <rect x="14" y="14" width="6" height="2" fill="currentColor" data-color="color-2"></rect> <path d="M11.857,12.485,9,7.723V1A1,1,0,0,0,8,0H5A1,1,0,0,0,4,1V7.723L1.143,12.485A1,1,0,0,0,1,13V23a1,1,0,0,0,1,1h9a1,1,0,0,0,1-1V13A1,1,0,0,0,11.857,12.485ZM9,20H4V16H9Z" fill="currentColor"></path></g></svg>