<svg id="nc_icon" version="1.1" xmlns="http://www.w3.org/2000/svg" xmlns:xlink="http://www.w3.org/1999/xlink" x="0px" y="0px" viewBox="0 0 24 24" xml:space="preserve" ><g class="nc-icon-wrapper" fill="currentColor"><path fill="currentColor" d="M18.4006348,14.727417l-1.1320801-6.0018311c4.0629883,0.3823242,5.2895508-0.5834961,5.6660156-1.3696289 c0.1860352-0.487793,0.0849609-1.0185547-0.2998047-1.5771484C21.2280273,3.737793,14.7412109,0,12,0 C9.4593506,0,7.2301025,7.4210205,5.6520386,14.7201538C2.0620117,15.5983887,0,17.1346436,0,19c0,3.2827148,6.0366211,5,12,5 s12-1.7172852,12-5C24,17.1331787,21.9572754,15.5994263,18.4006348,14.727417z M16.8681641,17.3935547 C16.1015625,17.6459961,14.5683594,18,12,18c-2.5649414,0-4.097168-0.3530273-4.8603516-0.6030273 C7.2495728,16.854187,7.7550659,14.6495361,7.78125,14.53125c1.2705688,0.4244385,2.7440186,0.78125,4.5,0.78125 c1.4849854,0,2.9052124-0.2531128,4.09375-0.625L16.8681641,17.3935547z"></path></g></svg>