<svg id="nc_icon" xmlns="http://www.w3.org/2000/svg" xmlns:xlink="http://www.w3.org/1999/xlink" x="0px" y="0px" viewBox="0 0 24 24" ><g class="nc-icon-wrapper" fill="currentColor"><path data-color="color-2" fill="currentColor" d="M12,8c2.2,0,4-1.8,4-4s-1.8-4-4-4S8,1.8,8,4S9.8,8,12,8z"></path> <path fill="currentColor" d="M18.9,18.6L16,12.8V10c0-0.6-0.4-1-1-1H9c-0.6,0-1,0.4-1,1v2.8l-2.9,5.8c-0.2,0.3-0.1,0.7,0,1 C5.3,19.8,5.7,20,6,20h3v3c0,0.6,0.4,1,1,1h4c0.6,0,1-0.4,1-1v-3h3c0.3,0,0.7-0.2,0.9-0.5C19,19.2,19,18.9,18.9,18.6z"></path></g></svg>