<svg id="nc_icon" version="1.1" xmlns="http://www.w3.org/2000/svg" xmlns:xlink="http://www.w3.org/1999/xlink" x="0px" y="0px" viewBox="0 0 24 24" xml:space="preserve" ><g class="nc-icon-wrapper" fill="currentColor"><path fill="currentColor" d="M12,0C5.383,0,0,5.383,0,12v9.535l0.445,0.297C0.578,21.92,3.792,24,12,24s11.422-2.08,11.555-2.168 L24,21.535V12C24,5.383,18.617,0,12,0z M12,21c-4.962,0-9-4.038-9-9c0-1.855,0.505-3.017,0.924-4.017 c4.2-0.422,7.044-1.749,10.081-4.775C18.718,4.614,21,8.226,21,12C21,16.962,16.962,21,12,21z"></path> <circle data-color="color-2" fill="currentColor" cx="7.5" cy="12.5" r="1.5"></circle> <circle data-color="color-2" fill="currentColor" cx="16.5" cy="12.5" r="1.5"></circle></g></svg>