<svg id="nc_icon" version="1.1" xmlns="http://www.w3.org/2000/svg" xmlns:xlink="http://www.w3.org/1999/xlink" x="0px" y="0px" viewBox="0 0 24 24" xml:space="preserve" ><g class="nc-icon-wrapper" fill="currentColor"><path fill="currentColor" d="M23,0h-2c-0.37891,0-0.72461,0.21387-0.89453,0.55273L18,4.76416l-2.10547-4.21143 C15.72461,0.21387,15.37891,0,15,0H8C7.44727,0,7,0.44775,7,1v9L4.59961,8.2002C4.20117,7.90088,3.64355,7.94043,3.29297,8.29297 l-2,2c-0.35156,0.35205-0.3916,0.90869-0.09277,1.30713L7,19.3335V23c0,0.55225,0.44727,1,1,1h4v-8h2v8h9c0.55273,0,1-0.44775,1-1V1 C24,0.44775,23.55273,0,23,0z M14,14h-2v-3h2V14z"></path></g></svg>