<svg id="nc_icon" version="1.1" xmlns="http://www.w3.org/2000/svg" xmlns:xlink="http://www.w3.org/1999/xlink" x="0px" y="0px" viewBox="0 0 24 24" xml:space="preserve" ><g class="nc-icon-wrapper" fill="currentColor"><path data-color="color-2" fill="currentColor" d="M11,22.2V13H6C6.3,17.2,8.5,20.5,11,22.2z"></path> <path data-color="color-2" fill="currentColor" d="M18,13h-5v9.2C15.5,20.5,17.7,17.2,18,13z"></path> <path data-color="color-2" fill="currentColor" d="M11,11V1.8c-2.8,2-4.7,5.5-5,9.2H11z"></path> <path fill="currentColor" d="M20,11h4c-0.4-5.4-4.5-9.8-9.7-10.8C17.5,2.6,19.7,6.7,20,11z"></path> <path data-color="color-2" fill="currentColor" d="M13,1.8V11h5C17.7,7.3,15.8,3.7,13,1.8z"></path> <path fill="currentColor" d="M20,13c-0.3,4.4-2.4,8.4-5.7,10.8c5.2-1,9.2-5.4,9.7-10.8H20z"></path> <path fill="currentColor" d="M4,13h-4c0.4,5.4,4.4,9.8,9.7,10.8C6.5,21.4,4.3,17.4,4,13z"></path> <path fill="currentColor" d="M4,11C4.3,6.7,6.5,2.6,9.7,0.2C4.5,1.2,0.5,5.6,0.1,11H4z"></path></g></svg>