<svg id="nc_icon" version="1.1" xmlns="http://www.w3.org/2000/svg" xmlns:xlink="http://www.w3.org/1999/xlink" x="0px" y="0px" viewBox="0 0 24 24" xml:space="preserve" ><g class="nc-icon-wrapper" fill="currentColor"><path fill="currentColor" d="M12,0C5.383,0,0,5.383,0,12s5.383,12,12,12s12-5.383,12-12S18.617,0,12,0z M12,22 c-2.5,0-4.783-0.929-6.538-2.451c0.008-0.013,0.019-0.024,0.026-0.037c1.652-2.768,0.613-4.459-0.154-5.221 c-0.202-0.201-0.433-0.384-0.671-0.568C4.041,13.24,3.629,12.921,3.629,12c0-0.434,0.242-0.604,1.437-1.012 c0.822-0.281,1.753-0.599,2.354-1.376c1.395-1.804-0.139-4.586-0.461-5.126C6.794,4.209,6.615,3.949,6.429,3.7 c1.503-1.012,3.297-1.616,5.225-1.683c0.312,0.529,0.827,0.975,1.333,1.41c0.432,0.372,1.118,0.528,1.471,0.968 c0.202,0.252,0.104,0.738,0.111,1.056c0.014,0.631,0.396,1.546,1.684,1.546c0.057,0,0.116-0.002,0.177-0.006 c0.498-0.035,2.052-0.391,3.614-0.907C21.268,7.744,22,9.786,22,12C22,17.514,17.514,22,12,22z"></path> <path data-color="color-2" fill="currentColor" d="M15.514,8.903c-1.576,0-3.185,0.749-4.003,1.863c-0.549,0.748-0.709,1.613-0.451,2.436 c0.515,1.642,0.565,2.61,0.243,3.695c-0.286,0.964-0.314,2.362,1.319,3.028c0.308,0.126,0.646,0.19,1.002,0.19 c1.214,0,2.651-0.751,3.944-2.062c1.554-1.575,2.468-3.505,2.446-5.165C19.984,10.654,18.007,8.903,15.514,8.903z"></path></g></svg>