<svg id="nc_icon" version="1.1" xmlns="http://www.w3.org/2000/svg" xmlns:xlink="http://www.w3.org/1999/xlink" x="0px" y="0px" viewBox="0 0 24 24" xml:space="preserve" ><g class="nc-icon-wrapper" fill="currentColor"><path fill="currentColor" d="M18,4c-2.2091675,0-4-1.7908936-4-4h-4C6.1340332,0,3,3.1339722,3,7v8c0,4.9705811,4.0294189,9,9,9 s9-4.0294189,9-9V7C19.3431396,7,18,5.6568604,18,4z M7,9.5C7,8.6715698,7.6715698,8,8.5,8S10,8.6715698,10,9.5S9.3284302,11,8.5,11 S7,10.3284302,7,9.5z M16,19c0,0.5522461-0.4477539,1-1,1s-1-0.4477539-1-1v-2H8c0-2.2091675,1.7908325-4,4-4s4,1.7908325,4,4V19z M15.5,11c-0.8284302,0-1.5-0.6715698-1.5-1.5S14.6715698,8,15.5,8S17,8.6715698,17,9.5S16.3284302,11,15.5,11z"></path></g></svg>