<svg id="nc_icon" version="1.1" xmlns="http://www.w3.org/2000/svg" xmlns:xlink="http://www.w3.org/1999/xlink" x="0px" y="0px" viewBox="0 0 24 24" xml:space="preserve" ><g class="nc-icon-wrapper" fill="currentColor"><path fill="currentColor" d="M22.707,19.879l-4.37-4.37C19.386,13.928,20,12.035,20,10c0-5.514-4.486-10-10-10S0,4.486,0,10 s4.486,10,10,10c2.035,0,3.928-0.614,5.509-1.663l4.369,4.37c0.391,0.391,1.024,0.391,1.414,0l1.414-1.414 C23.098,20.902,23.098,20.269,22.707,19.879z M2,10c0-4.411,3.589-8,8-8s8,3.589,8,8s-3.589,8-8,8S2,14.411,2,10z"></path> <polygon data-color="color-2" fill="currentColor" points="14,9 11,9 11,6 9,6 9,9 6,9 6,11 9,11 9,14 11,14 11,11 14,11 "></polygon></g></svg>