<svg id="nc_icon" version="1.1" xmlns="http://www.w3.org/2000/svg" xmlns:xlink="http://www.w3.org/1999/xlink" x="0px" y="0px" viewBox="0 0 24 24" xml:space="preserve" ><g class="nc-icon-wrapper" fill="currentColor"><path data-color="color-2" fill="currentColor" d="M19.707,18.293c-0.391-0.391-1.023-0.391-1.414,0s-0.391,1.023,0,1.414l3,3C21.488,22.902,21.744,23,22,23 s0.512-0.098,0.707-0.293c0.391-0.391,0.391-1.023,0-1.414L19.707,18.293z"></path> <path fill="currentColor" d="M10,0C4.486,0,0,4.486,0,10s4.486,10,10,10s10-4.486,10-10S15.514,0,10,0z M9.199,6.08 C7.624,6.4,6.4,7.624,6.08,9.199l-0.199,0.98l-1.96-0.397l0.199-0.98C4.6,6.437,6.437,4.6,8.801,4.12l0.98-0.199l0.397,1.96 L9.199,6.08z"></path></g></svg>