<svg id="nc_icon" version="1.1" xmlns="http://www.w3.org/2000/svg" xmlns:xlink="http://www.w3.org/1999/xlink" x="0px" y="0px" viewBox="0 0 24 24" xml:space="preserve" ><g class="nc-icon-wrapper" fill="currentColor"><path data-color="color-2" fill="currentColor" d="M22.707,21.293l-3-3c-0.391-0.391-1.023-0.391-1.414,0s-0.391,1.023,0,1.414l3,3 C21.488,22.902,21.744,23,22,23s0.512-0.098,0.707-0.293C23.098,22.316,23.098,21.684,22.707,21.293z"></path> <path fill="currentColor" d="M10,0C4.486,0,0,4.486,0,10s4.486,10,10,10s10-4.486,10-10S15.514,0,10,0z M14,11H6V9h8V11z"></path></g></svg>