<svg id="nc_icon" version="1.1" xmlns="http://www.w3.org/2000/svg" xmlns:xlink="http://www.w3.org/1999/xlink" x="0px" y="0px" viewBox="0 0 24 24" xml:space="preserve" ><g class="nc-icon-wrapper" fill="currentColor"><path fill="currentColor" d="M22.707,19.293l-4.148-4.148C19.467,13.639,20,11.883,20,10c0-5.514-4.486-10-10-10S0,4.486,0,10 s4.486,10,10,10c1.883,0,3.639-0.533,5.145-1.441l4.148,4.148C19.488,22.902,19.744,23,20,23s0.512-0.098,0.707-0.293l2-2 C23.098,20.316,23.098,19.684,22.707,19.293z M14,11h-3v3H9v-3H6V9h3V6h2v3h3V11z"></path></g></svg>