<svg id="nc_icon" xmlns="http://www.w3.org/2000/svg" xmlns:xlink="http://www.w3.org/1999/xlink" x="0px" y="0px" viewBox="0 0 24 24"><g  transform="translate(0, 0)">
<path data-cap="butt" fill="none" stroke="currentColor" vector-effect="non-scaling-stroke" stroke-miterlimit="10" d="M22,12c0-5.5-4.5-10-10-10&#10;&#9;C8.1,2,4.7,4.2,3.1,7.5" stroke-linejoin="miter" stroke-linecap="butt"/>
<polyline fill="none" stroke="currentColor" vector-effect="non-scaling-stroke" stroke-linecap="square" stroke-miterlimit="10" points="2.3,1.6 3.1,7.5 &#10;&#9;9.1,6.7 " stroke-linejoin="miter"/>
<path data-color="color-2" fill="none" stroke="currentColor" vector-effect="non-scaling-stroke" stroke-linecap="square" stroke-miterlimit="10" d="&#10;&#9;M19.26,18.885c0.658-0.703,1.213-1.505,1.64-2.385" stroke-linejoin="miter"/>
<path data-color="color-2" fill="none" stroke="currentColor" vector-effect="non-scaling-stroke" stroke-linecap="square" stroke-miterlimit="10" d="&#10;&#9;M12.25,21.997c1.122-0.027,2.199-0.236,3.201-0.601" stroke-linejoin="miter"/>
<path data-color="color-2" fill="none" stroke="currentColor" vector-effect="non-scaling-stroke" stroke-linecap="square" stroke-miterlimit="10" d="M4.866,18.99&#10;&#9;c0.779,0.795,1.69,1.462,2.695,1.964" stroke-linejoin="miter"/>
<path data-color="color-2" fill="none" stroke="currentColor" vector-effect="non-scaling-stroke" stroke-linecap="square" stroke-miterlimit="10" d="M2,12&#10;&#9;c0,1.042,0.162,2.048,0.461,2.994" stroke-linejoin="miter"/>
</g></svg>