<svg id="nc_icon" xmlns="http://www.w3.org/2000/svg" xmlns:xlink="http://www.w3.org/1999/xlink" x="0px" y="0px" viewBox="0 0 24 24"><g  transform="translate(0, 0)">
<path data-cap="butt" fill="none" stroke="currentColor" vector-effect="non-scaling-stroke" stroke-miterlimit="10" d="M11,12v4c0,1.657,2.686,3,6,3&#10;&#9;s6-1.343,6-3v-4" stroke-linejoin="miter" stroke-linecap="butt"/>
<path data-cap="butt" fill="none" stroke="currentColor" vector-effect="non-scaling-stroke" stroke-miterlimit="10" d="M11,16v4c0,1.657,2.686,3,6,3&#10;&#9;s6-1.343,6-3v-4" stroke-linejoin="miter" stroke-linecap="butt"/>
<ellipse fill="none" stroke="currentColor" vector-effect="non-scaling-stroke" stroke-linecap="square" stroke-miterlimit="10" cx="17" cy="12" rx="6" ry="3" stroke-linejoin="miter"/>
<polyline data-color="color-2" fill="none" stroke="currentColor" vector-effect="non-scaling-stroke" stroke-linecap="square" stroke-miterlimit="10" points="&#10;&#9;8,5 8,8 5,8 " stroke-linejoin="miter"/>
<path data-color="color-2" fill="none" stroke="currentColor" vector-effect="non-scaling-stroke" stroke-linecap="square" stroke-miterlimit="10" d="M8,15&#10;&#9;c-3.866,0-7-3.134-7-7s3.134-7,7-7c3.171,0,5.85,2.109,6.71,5.001" stroke-linejoin="miter"/>
</g></svg>