<svg id="nc_icon" xmlns="http://www.w3.org/2000/svg" xmlns:xlink="http://www.w3.org/1999/xlink" x="0px" y="0px" viewBox="0 0 24 24"><g  transform="translate(0, 0)">
<polyline fill="none" stroke="currentColor" vector-effect="non-scaling-stroke" stroke-linecap="square" stroke-miterlimit="10" points="8,15 1,15 1,5 &#10;&#9;23,5 23,16 " stroke-linejoin="miter"/>
<path fill="none" stroke="currentColor" vector-effect="non-scaling-stroke" stroke-linecap="square" stroke-miterlimit="10" d="M5,15v0.5&#10;&#9;c0,4.142,3.358,7.5,7.5,7.5h0c4.142,0,7.5-3.358,7.5-7.5V8h0c-2.209,0-4,1.791-4,4v2c-2.209,0-4,1.791-4,4" stroke-linejoin="miter"/>
<circle data-color="color-2" fill="none" stroke="currentColor" vector-effect="non-scaling-stroke" stroke-linecap="square" stroke-miterlimit="10" cx="12" cy="10" r="1" stroke-linejoin="miter"/>
<circle data-color="color-2" data-stroke="none" fill="none" cx="12" cy="10" r="1" stroke-linejoin="miter" stroke-linecap="square"/>
<path fill="none" stroke="currentColor" vector-effect="non-scaling-stroke" stroke-linecap="square" stroke-miterlimit="10" d="M19,5V4&#10;&#9;c0-1.657-1.343-3-3-3H8C6.343,1,5,2.343,5,4v1" stroke-linejoin="miter"/>
</g></svg>