<svg id="nc_icon" xmlns="http://www.w3.org/2000/svg" xmlns:xlink="http://www.w3.org/1999/xlink" x="0px" y="0px" viewBox="0 0 24 24"><g  transform="translate(0, 0)">
<path fill="none" stroke="currentColor" vector-effect="non-scaling-stroke" stroke-linecap="square" stroke-miterlimit="10" d="M21,12V5H3&#10;&#9;C1.895,5,1,4.105,1,3v17c0,1.657,1.343,3,3,3h17v-7" stroke-linejoin="miter"/>
<path fill="none" stroke="currentColor" vector-effect="non-scaling-stroke" stroke-linecap="square" stroke-miterlimit="10" d="M17,2V1H3&#10;&#9;C1.895,1,1,1.895,1,3v0c0,1.105,0.895,2,2,2" stroke-linejoin="miter"/>
<path data-color="color-2" fill="none" stroke="currentColor" vector-effect="non-scaling-stroke" stroke-linecap="square" stroke-miterlimit="10" d="M23,16h-5&#10;&#9;c-1.105,0-2-0.895-2-2l0,0c0-1.105,0.895-2,2-2h5V16z" stroke-linejoin="miter"/>
</g></svg>