<svg id="nc_icon" xmlns="http://www.w3.org/2000/svg" xmlns:xlink="http://www.w3.org/1999/xlink" x="0px" y="0px" viewBox="0 0 24 24"><g  transform="translate(0, 0)">
<path fill="none" stroke="currentColor" vector-effect="non-scaling-stroke" stroke-linecap="square" stroke-miterlimit="10" d="M21,23H3V11&#10;&#9;c0-3.3,2.7-6,6-6h6c3.3,0,6,2.7,6,6V23z" stroke-linejoin="miter"/>
<path fill="none" stroke="currentColor" vector-effect="non-scaling-stroke" stroke-linecap="square" stroke-miterlimit="10" d="M3,20c0-3.9,3.1-7,7-7h4&#10;&#9;c3.9,0,7,3.1,7,7" stroke-linejoin="miter"/>
<path data-color="color-2" fill="none" stroke="currentColor" vector-effect="non-scaling-stroke" stroke-linecap="square" stroke-miterlimit="10" d="M9,7V4&#10;&#9;c0-1.7,1.3-3,3-3h0c1.7,0,3,1.3,3,3v3" stroke-linejoin="miter"/>
</g></svg>