<svg id="nc_icon" xmlns="http://www.w3.org/2000/svg" xmlns:xlink="http://www.w3.org/1999/xlink" x="0px" y="0px" viewBox="0 0 24 24"><g  transform="translate(0, 0)">
<line data-cap="butt" data-color="color-2" fill="none" stroke="currentColor" vector-effect="non-scaling-stroke" stroke-miterlimit="10" x1="9" y1="9" x2="9" y2="17" stroke-linejoin="miter" stroke-linecap="butt"/>
<line data-cap="butt" data-color="color-2" fill="none" stroke="currentColor" vector-effect="non-scaling-stroke" stroke-miterlimit="10" x1="15" y1="9" x2="15" y2="17" stroke-linejoin="miter" stroke-linecap="butt"/>
<path fill="none" stroke="currentColor" vector-effect="non-scaling-stroke" stroke-linecap="square" stroke-miterlimit="10" d="M17,5c0,2.8-2.2,5-5,5&#10;&#9;S7,7.8,7,5H3C1.9,5,1,5.9,1,7v16h22V7c0-1.1-0.9-2-2-2H17z" stroke-linejoin="miter"/>
<path fill="none" stroke="currentColor" vector-effect="non-scaling-stroke" stroke-linecap="square" stroke-miterlimit="10" d="M6,5C4.9,5,4,4.1,4,3v0&#10;&#9;c0-1.1,0.9-2,2-2h12c1.1,0,2,0.9,2,2v0c0,1.1-0.9,2-2,2" stroke-linejoin="miter"/>
</g></svg>