<svg id="nc_icon" xmlns="http://www.w3.org/2000/svg" xmlns:xlink="http://www.w3.org/1999/xlink" x="0px" y="0px" viewBox="0 0 24 24"><g  transform="translate(0, 0)">
<path data-cap="butt" data-color="color-2" fill="none" stroke="currentColor" vector-effect="non-scaling-stroke" stroke-miterlimit="10" d="M18,11.6c0.6,0.3,1.3,0.4,2,0.4&#10;&#9;c1.1,0,2.2-0.4,3-1" stroke-linejoin="miter" stroke-linecap="butt"/>
<path data-cap="butt" data-color="color-2" fill="none" stroke="currentColor" vector-effect="non-scaling-stroke" stroke-miterlimit="10" d="M1,11c0.8,0.6,1.9,1,3,1&#10;&#9;c0.9,0,1.8-0.3,2.5-0.7" stroke-linejoin="miter" stroke-linecap="butt"/>
<polyline fill="none" stroke="currentColor" vector-effect="non-scaling-stroke" stroke-linecap="square" stroke-miterlimit="10" points="1,4 1,22 23,22 &#10;&#9;23,4 " stroke-linejoin="miter"/>
<path fill="none" stroke="currentColor" vector-effect="non-scaling-stroke" stroke-linecap="square" stroke-miterlimit="10" d="M9,2v3.8l-3,3&#10;&#9;C5.4,9.4,5.4,10.4,6,11c0.6,0.6,1.5,0.6,2.1,0L9,10.1V16c0,0.6,0.4,1,1,1h7c0.6,0,1-0.4,1-1V2H9z" stroke-linejoin="miter"/>
<line fill="none" stroke="currentColor" vector-effect="non-scaling-stroke" stroke-linecap="square" stroke-miterlimit="10" x1="12" y1="17" x2="12" y2="13" stroke-linejoin="miter"/>
<line fill="none" stroke="currentColor" vector-effect="non-scaling-stroke" stroke-linecap="square" stroke-miterlimit="10" x1="15" y1="17" x2="15" y2="13" stroke-linejoin="miter"/>
</g></svg>