<svg id="nc_icon" xmlns="http://www.w3.org/2000/svg" xmlns:xlink="http://www.w3.org/1999/xlink" x="0px" y="0px" viewBox="0 0 24 24"><g  transform="translate(0, 0)">
<polyline data-cap="butt" data-color="color-2" fill="none" stroke="currentColor" vector-effect="non-scaling-stroke" stroke-miterlimit="10" points="15.021,18.879 &#10;&#9;22.092,11.808 19.971,9.686 17.142,9.686 17.142,6.858 12.192,1.908 5.121,8.979 " stroke-linejoin="miter" stroke-linecap="butt"/>
<path fill="none" stroke="currentColor" vector-effect="non-scaling-stroke" stroke-linecap="square" stroke-miterlimit="10" d="M4.414,9.686&#10;&#9;c-1.202,1.202-1.202,3.041,0,4.243l1.414,1.414l-4.172,4.172c-0.707,0.707-0.849,1.838-0.283,2.687&#10;&#9;c0.778,1.061,2.192,1.061,3.041,0.212l4.243-4.243l1.414,1.414c1.202,1.202,3.041,1.202,4.243,0l0.707-0.707L5.121,8.979&#10;&#9;L4.414,9.686z" stroke-linejoin="miter"/>
</g></svg>