<svg id="nc_icon" xmlns="http://www.w3.org/2000/svg" xmlns:xlink="http://www.w3.org/1999/xlink" x="0px" y="0px" viewBox="0 0 24 24"><g  transform="translate(0, 0)">
<path fill="none" stroke="currentColor" vector-effect="non-scaling-stroke" stroke-linecap="square" stroke-miterlimit="10" d="M1,12c0-3.7,1.8-7,4.7-9&#10;&#9;c1-0.7,2.7-0.9,3.3,0c1,1.2-0.8,3,0,4c2,2.4,6.1-2.3,11,0c3.5,1.8,3,6.3,2.6,8c-1.3,4.6-5.6,8-10.6,8C5.9,23,1,18.1,1,12z" stroke-linejoin="miter"/>
<circle data-color="color-2" fill="none" stroke="currentColor" vector-effect="non-scaling-stroke" stroke-linecap="square" stroke-miterlimit="10" cx="17" cy="12" r="2" stroke-linejoin="miter"/>
<circle data-color="color-2" fill="none" stroke="currentColor" vector-effect="non-scaling-stroke" stroke-linecap="square" stroke-miterlimit="10" cx="5" cy="12" r="1" stroke-linejoin="miter"/>
<circle data-color="color-2" fill="none" stroke="currentColor" vector-effect="non-scaling-stroke" stroke-linecap="square" stroke-miterlimit="10" cx="7.5" cy="17" r="1" stroke-linejoin="miter"/>
<circle data-color="color-2" fill="none" stroke="currentColor" vector-effect="non-scaling-stroke" stroke-linecap="square" stroke-miterlimit="10" cx="13" cy="19" r="1" stroke-linejoin="miter"/>
</g></svg>