<svg id="nc_icon" xmlns="http://www.w3.org/2000/svg" xmlns:xlink="http://www.w3.org/1999/xlink" x="0px" y="0px" viewBox="0 0 24 24"><g  transform="translate(0, 0)">
<line fill="none" stroke="currentColor" vector-effect="non-scaling-stroke" stroke-miterlimit="10" x1="12" y1="20" x2="4" y2="12" stroke-linejoin="miter" stroke-linecap="square"/>
<line fill="none" stroke="currentColor" vector-effect="non-scaling-stroke" stroke-miterlimit="10" x1="12" y1="4" x2="20" y2="12" stroke-linejoin="miter" stroke-linecap="square"/>
<circle data-color="color-2" data-stroke="none" fill="none" cx="12" cy="9" r="1" stroke-linejoin="miter" stroke-linecap="square"/>
<circle data-color="color-2" data-stroke="none" fill="none" cx="15" cy="12" r="1" stroke-linejoin="miter" stroke-linecap="square"/>
<circle data-color="color-2" data-stroke="none" fill="none" cx="9" cy="12" r="1" stroke-linejoin="miter" stroke-linecap="square"/>
<circle data-color="color-2" data-stroke="none" fill="none" cx="12" cy="15" r="1" stroke-linejoin="miter" stroke-linecap="square"/>
<path fill="none" stroke="currentColor" vector-effect="non-scaling-stroke" stroke-linecap="square" stroke-miterlimit="10" d="M22.414,9.586&#10;&#9;c0.781-0.781,0.781-2.047,0-2.828l-5.172-5.172c-0.781-0.781-2.047-0.781-2.828,0L1.586,14.414c-0.781,0.781-0.781,2.047,0,2.828&#10;&#9;l5.172,5.172c0.781,0.781,2.047,0.781,2.828,0L22.414,9.586z" stroke-linejoin="miter"/>
</g></svg>