<svg id="nc_icon" xmlns="http://www.w3.org/2000/svg" xmlns:xlink="http://www.w3.org/1999/xlink" x="0px" y="0px" viewBox="0 0 24 24"><g  transform="translate(0, 0)">
<line data-cap="butt" data-color="color-2" fill="none" stroke="currentColor" vector-effect="non-scaling-stroke" stroke-miterlimit="10" x1="4" y1="13" x2="20" y2="13" stroke-linejoin="miter" stroke-linecap="butt"/>
<path fill="none" stroke="currentColor" vector-effect="non-scaling-stroke" stroke-linecap="square" stroke-miterlimit="10" d="M16,19c0,2.209,1.791,4,4,4&#10;&#9;V12c0-1.657-1.343-3-3-3h-3V3.107c0-0.996-0.681-1.92-1.664-2.08C11.083,0.824,10,1.785,10,3v6H7c-1.657,0-3,1.343-3,3v11&#10;&#9;c2.209,0,4-1.791,4-4" stroke-linejoin="miter"/>
<path fill="none" stroke="currentColor" vector-effect="non-scaling-stroke" stroke-linecap="square" stroke-miterlimit="10" d="M8,19c0,2.209,1.791,4,4,4&#10;&#9;s4-1.791,4-4" stroke-linejoin="miter"/>
</g></svg>