<svg id="nc_icon" xmlns="http://www.w3.org/2000/svg" xmlns:xlink="http://www.w3.org/1999/xlink" x="0px" y="0px" viewBox="0 0 24 24"><g  transform="translate(0, 0)">
<polyline data-cap="butt" fill="none" stroke="currentColor" vector-effect="non-scaling-stroke" stroke-miterlimit="10" points="21,5 23,5 23,21 1,21 1,5 &#10;&#9;17,5 " stroke-linejoin="miter" stroke-linecap="butt"/>
<circle data-color="color-2" fill="none" stroke="currentColor" vector-effect="non-scaling-stroke" stroke-linecap="square" stroke-miterlimit="10" cx="5" cy="13" r="1" stroke-linejoin="miter"/>
<polyline data-cap="butt" data-color="color-2" fill="none" stroke="currentColor" vector-effect="non-scaling-stroke" stroke-miterlimit="10" points="18,8 20,8 20,18 9,18 &#10;&#9;9,8 14,8 " stroke-linejoin="miter" stroke-linecap="butt"/>
<path fill="none" stroke="currentColor" vector-effect="non-scaling-stroke" stroke-linecap="square" stroke-miterlimit="10" d="M12.586,11.414&#10;&#9;c0,0,0.448-2.448,1-3l7-7c0.552-0.552,1.448-0.552,2,0l0,0c0.552,0.552,0.552,1.448,0,2l-7,7&#10;&#9;C15.034,10.966,12.586,11.414,12.586,11.414z" stroke-linejoin="miter"/>
<line data-color="color-2" fill="none" stroke="currentColor" vector-effect="non-scaling-stroke" stroke-linecap="square" stroke-miterlimit="10" x1="5" y1="8" x2="5" y2="9" stroke-linejoin="miter"/>
<line data-color="color-2" fill="none" stroke="currentColor" vector-effect="non-scaling-stroke" stroke-linecap="square" stroke-miterlimit="10" x1="5" y1="17" x2="5" y2="18" stroke-linejoin="miter"/>
</g></svg>