<svg id="nc_icon" xmlns="http://www.w3.org/2000/svg" xmlns:xlink="http://www.w3.org/1999/xlink" x="0px" y="0px" viewBox="0 0 24 24"><g  transform="translate(0, 0)">
<path data-cap="butt" fill="none" stroke="currentColor" vector-effect="non-scaling-stroke" stroke-miterlimit="10" d="M18,8v13c0,1.105-0.895,2-2,2H6&#10;&#9;c-1.105,0-2-0.895-2-2V3c0-1.105,0.895-2,2-2h10c1.105,0,2,0.895,2,2v1" stroke-linejoin="miter" stroke-linecap="butt"/>
<circle fill="none" stroke="currentColor" vector-effect="non-scaling-stroke" stroke-linecap="square" stroke-miterlimit="10" cx="11" cy="19" r="1" stroke-linejoin="miter"/>
<line data-cap="butt" fill="none" stroke="currentColor" vector-effect="non-scaling-stroke" stroke-miterlimit="10" x1="4" y1="5" x2="17" y2="5" stroke-linejoin="miter" stroke-linecap="butt"/>
<line data-cap="butt" fill="none" stroke="currentColor" vector-effect="non-scaling-stroke" stroke-miterlimit="10" x1="15" y1="15" x2="18" y2="15" stroke-linejoin="miter" stroke-linecap="butt"/>
<line data-cap="butt" fill="none" stroke="currentColor" vector-effect="non-scaling-stroke" stroke-miterlimit="10" x1="4" y1="15" x2="9" y2="15" stroke-linejoin="miter" stroke-linecap="butt"/>
<path data-color="color-2" fill="none" stroke="currentColor" vector-effect="non-scaling-stroke" stroke-linecap="square" stroke-miterlimit="10" d="M15,11l-2-2&#10;&#9;l7-7c0.552-0.552,1.448-0.552,2,0l0,0c0.552,0.552,0.552,1.448,0,2L15,11z" stroke-linejoin="miter"/>
<path data-color="color-2" fill="none" stroke="currentColor" vector-effect="non-scaling-stroke" stroke-linecap="square" stroke-miterlimit="10" d="&#10;&#9;M9.688,11.568c0.758-0.758,1.986-0.758,2.744,0s0.758,1.986,0,2.744s-3.43,0.686-3.43,0.686S8.93,12.326,9.688,11.568z" stroke-linejoin="miter"/>
</g></svg>