<svg id="nc_icon" xmlns="http://www.w3.org/2000/svg" xmlns:xlink="http://www.w3.org/1999/xlink" x="0px" y="0px" viewBox="0 0 24 24"><g  transform="translate(0, 0)">
<path fill="none" stroke="currentColor" vector-effect="non-scaling-stroke" stroke-linecap="square" stroke-miterlimit="10" d="M15,10h-3.5&#10;&#9;C10.1,10,9,8.9,9,7.5v0C9,6.1,10.1,5,11.5,5H15V10z" stroke-linejoin="miter"/>
<path fill="none" stroke="currentColor" vector-effect="non-scaling-stroke" stroke-linecap="square" stroke-miterlimit="10" d="M11,2h2c1.1,0,2,0.9,2,2v6" stroke-linejoin="miter"/>
<line fill="none" stroke="currentColor" vector-effect="non-scaling-stroke" stroke-linecap="square" stroke-miterlimit="10" x1="3" y1="11" x2="3" y2="22" stroke-linejoin="miter"/>
<path fill="none" stroke="currentColor" vector-effect="non-scaling-stroke" stroke-linecap="square" stroke-miterlimit="10" d="M6,22H3v-6h3&#10;&#9;c1.7,0,3,1.3,3,3v0C9,20.7,7.7,22,6,22z" stroke-linejoin="miter"/>
<path fill="none" stroke="currentColor" vector-effect="non-scaling-stroke" stroke-linecap="square" stroke-miterlimit="10" d="M21.7,16&#10;&#9;c-0.3-0.6-1-1-1.7-1h-2c-1.1,0-2,0.9-2,2v3c0,1.1,0.9,2,2,2h2c0.7,0,1.4-0.4,1.7-1" stroke-linejoin="miter"/>
</g></svg>