<svg id="nc_icon" xmlns="http://www.w3.org/2000/svg" xmlns:xlink="http://www.w3.org/1999/xlink" x="0px" y="0px" viewBox="0 0 24 24"><g  transform="translate(0, 0)">
<path fill="none" stroke="currentColor" vector-effect="non-scaling-stroke" stroke-linecap="square" stroke-miterlimit="10" d="M20,23H4V9c0-2.2,1.8-4,4-4&#10;&#9;h8c2.2,0,4,1.8,4,4V23z" stroke-linejoin="miter"/>
<path data-color="color-2" fill="none" stroke="currentColor" vector-effect="non-scaling-stroke" stroke-linecap="square" stroke-miterlimit="10" d="M8,7V5&#10;&#9;c0-2.2,1.8-4,4-4l0,0c2.2,0,4,1.8,4,4v2" stroke-linejoin="miter"/>
<path fill="none" stroke="currentColor" vector-effect="non-scaling-stroke" stroke-linecap="square" stroke-miterlimit="10" d="M4,16L4,16&#10;&#9;c-1.7,0-3,1.3-3,3v4h3" stroke-linejoin="miter"/>
<path fill="none" stroke="currentColor" vector-effect="non-scaling-stroke" stroke-linecap="square" stroke-miterlimit="10" d="M20,16L20,16&#10;&#9;c1.7,0,3,1.3,3,3v4h-3" stroke-linejoin="miter"/>
<line data-color="color-2" fill="none" stroke="currentColor" vector-effect="non-scaling-stroke" stroke-linecap="square" stroke-miterlimit="10" x1="7" y1="17" x2="9" y2="17" stroke-linejoin="miter"/>
<line data-color="color-2" fill="none" stroke="currentColor" vector-effect="non-scaling-stroke" stroke-linecap="square" stroke-miterlimit="10" x1="15" y1="17" x2="17" y2="17" stroke-linejoin="miter"/>
<line fill="none" stroke="currentColor" vector-effect="non-scaling-stroke" stroke-linecap="square" stroke-miterlimit="10" x1="4" y1="13" x2="20" y2="13" stroke-linejoin="miter"/>
<line data-color="color-2" fill="none" stroke="currentColor" vector-effect="non-scaling-stroke" stroke-linecap="square" stroke-miterlimit="10" x1="8" y1="11" x2="8" y2="19" stroke-linejoin="miter"/>
<line data-color="color-2" fill="none" stroke="currentColor" vector-effect="non-scaling-stroke" stroke-linecap="square" stroke-miterlimit="10" x1="16" y1="11" x2="16" y2="19" stroke-linejoin="miter"/>
</g></svg>