<svg id="nc_icon" xmlns="http://www.w3.org/2000/svg" xmlns:xlink="http://www.w3.org/1999/xlink" x="0px" y="0px" viewBox="0 0 24 24"><g  transform="translate(0, 0)">
<path data-cap="butt" data-color="color-2" fill="none" stroke="currentColor" vector-effect="non-scaling-stroke" stroke-miterlimit="10" d="M7,8v7c0,2.8,2.2,5,5,5l0,0&#10;&#9;c2.8,0,5-2.2,5-5V8.2" stroke-linejoin="miter" stroke-linecap="butt"/>
<line data-cap="butt" data-color="color-2" fill="none" stroke="currentColor" vector-effect="non-scaling-stroke" stroke-miterlimit="10" x1="12" y1="8" x2="12" y2="14" stroke-linejoin="miter" stroke-linecap="butt"/>
<line fill="none" stroke="currentColor" vector-effect="non-scaling-stroke" stroke-linecap="square" stroke-miterlimit="10" x1="4" y1="8" x2="20" y2="8" stroke-linejoin="miter"/>
<path fill="none" stroke="currentColor" vector-effect="non-scaling-stroke" stroke-linecap="square" stroke-miterlimit="10" d="M2,4.5c1.2,0.7,2,2,2,3.5&#10;&#9;c0,1.5-0.8,2.8-2,3.5" stroke-linejoin="miter"/>
<path fill="none" stroke="currentColor" vector-effect="non-scaling-stroke" stroke-linecap="square" stroke-miterlimit="10" d="M22,4.5c-1.2,0.7-2,2-2,3.5&#10;&#9;c0,1.5,0.8,2.8,2,3.5" stroke-linejoin="miter"/>
</g></svg>