<svg id="nc_icon" xmlns="http://www.w3.org/2000/svg" xmlns:xlink="http://www.w3.org/1999/xlink" x="0px" y="0px" viewBox="0 0 24 24"><g  transform="translate(0, 0)">
<path data-color="color-2" fill="none" stroke="currentColor" vector-effect="non-scaling-stroke" stroke-linecap="square" stroke-miterlimit="10" d="M18,12&#10;&#9;c0-1.1-0.9-2-2-2s-2,0.9-2,2" stroke-linejoin="miter"/>
<path data-color="color-2" fill="none" stroke="currentColor" vector-effect="non-scaling-stroke" stroke-linecap="square" stroke-miterlimit="10" d="M10,12&#10;&#9;c0-1.1-0.9-2-2-2s-2,0.9-2,2" stroke-linejoin="miter"/>
<path data-color="color-2" fill="none" stroke="currentColor" vector-effect="non-scaling-stroke" stroke-linecap="square" stroke-miterlimit="10" d="M16,17&#10;&#9;c0,1.1-0.9,2-2,2s-2-0.9-2-2c0,1.1-0.9,2-2,2s-2-0.9-2-2" stroke-linejoin="miter"/>
<path fill="none" stroke="currentColor" vector-effect="non-scaling-stroke" stroke-linecap="square" stroke-miterlimit="10" d="M15,5h2c3.3,0,6,2.7,6,6v6&#10;&#9;c0,3.3-2.7,6-6,6H7c-3.3,0-6-2.7-6-6v-6c0-3.3,2.7-6,6-6h2l6-3L15,5z" stroke-linejoin="miter"/>
</g></svg>