<svg id="nc_icon" xmlns="http://www.w3.org/2000/svg" xmlns:xlink="http://www.w3.org/1999/xlink" x="0px" y="0px" viewBox="0 0 24 24"><g  transform="translate(0, 0)">
<path fill="none" stroke="currentColor" vector-effect="non-scaling-stroke" stroke-linecap="square" stroke-miterlimit="10" d="M23,18c0-0.6-0.4-1-1-1H2&#10;&#9;c-0.6,0-1,0.4-1,1v5h22V18z" stroke-linejoin="miter"/>
<path fill="none" stroke="currentColor" vector-effect="non-scaling-stroke" stroke-linecap="square" stroke-miterlimit="10" d="M21,17v-5c0-0.6-0.4-1-1-1&#10;&#9;H4c-0.6,0-1,0.4-1,1v5" stroke-linejoin="miter"/>
<line fill="none" stroke="currentColor" vector-effect="non-scaling-stroke" stroke-linecap="square" stroke-miterlimit="10" x1="12" y1="11" x2="12" y2="8" stroke-linejoin="miter"/>
<path data-color="color-2" fill="none" stroke="currentColor" vector-effect="non-scaling-stroke" stroke-linecap="square" stroke-miterlimit="10" d="M12,8&#10;&#9;c1.1,0,2-0.9,2-2s-2-4-2-4s-2,2.9-2,4S10.9,8,12,8z" stroke-linejoin="miter"/>
</g></svg>