<svg id="nc_icon" xmlns="http://www.w3.org/2000/svg" xmlns:xlink="http://www.w3.org/1999/xlink" x="0px" y="0px" viewBox="0 0 24 24"><g  transform="translate(0, 0)">
<path data-color="color-2" fill="none" stroke="currentColor" vector-effect="non-scaling-stroke" stroke-linecap="square" stroke-miterlimit="10" d="M9,7&#10;&#9;c0-1.9,3-5,3-5s3,3.1,3,5s-1.5,3-3,3S9,8.9,9,7z" stroke-linejoin="miter"/>
<path data-cap="butt" fill="none" stroke="currentColor" vector-effect="non-scaling-stroke" stroke-miterlimit="10" d="M6,18l-1.46041-3.65102&#10;&#9;c-0.31448-0.7862-0.03526-1.6852,0.66929-2.1549l0,0c0.93152-0.62101,2.19808-0.2445,2.63909,0.78452l1.50519,3.51211&#10;&#9;C9.77994,17.48652,10,18.55865,10,19.64206V23H4l-2.00245-3.33742C1.3448,18.57467,1,17.32982,1,16.06111V7h0.0035&#10;&#9;c1.19229,0,2.25082,0.76294,2.62785,1.89405l1.20909,3.62726" stroke-linejoin="miter" stroke-linecap="butt"/>
<path data-cap="butt" fill="none" stroke="currentColor" vector-effect="non-scaling-stroke" stroke-miterlimit="10" d="M18,18l1.46041-3.65102&#10;&#9;c0.31448-0.7862,0.03526-1.6852-0.66929-2.1549l0,0c-0.93152-0.62101-2.19808-0.2445-2.63909,0.78452l-1.50519,3.51211&#10;&#9;C14.22006,17.48652,14,18.55865,14,19.64206V23h6l2.00245-3.33742C22.6552,18.57467,23,17.32982,23,16.06111V7h-0.0035&#10;&#9;c-1.19229,0-2.25082,0.76294-2.62785,1.89405l-1.20909,3.62726" stroke-linejoin="miter" stroke-linecap="butt"/>
</g></svg>