<svg id="nc_icon" xmlns="http://www.w3.org/2000/svg" xmlns:xlink="http://www.w3.org/1999/xlink" x="0px" y="0px" viewBox="0 0 24 24"><g  transform="translate(0, 0)">
<path data-cap="butt" data-color="color-2" fill="none" stroke="currentColor" vector-effect="non-scaling-stroke" stroke-miterlimit="10" d="M16.58402,16.00003&#10;&#9;c-0.24302,0.55739-0.59251,1.07953-1.04849,1.53551c-1.95262,1.95262-5.11845,1.95262-7.07107,0s-1.95262-5.11845,0-7.07107&#10;&#9;s5.11845-1.95262,7.07107,0" stroke-linejoin="miter" stroke-linecap="butt"/>
<polygon data-color="color-2" fill="none" stroke="currentColor" vector-effect="non-scaling-stroke" stroke-linecap="square" stroke-miterlimit="10" points="&#10;&#9;14,12 17,12 17,9 " stroke-linejoin="miter"/>
<polyline fill="none" stroke="currentColor" vector-effect="non-scaling-stroke" stroke-linecap="square" stroke-miterlimit="10" points="3,9 3,23 21,23 &#10;&#9;21,9 " stroke-linejoin="miter"/>
<line fill="none" stroke="currentColor" vector-effect="non-scaling-stroke" stroke-linecap="square" stroke-miterlimit="10" x1="1" y1="5" x2="23" y2="5" stroke-linejoin="miter"/>
<polyline fill="none" stroke="currentColor" vector-effect="non-scaling-stroke" stroke-linecap="square" stroke-miterlimit="10" points="9,5 9,1 15,1 &#10;&#9;15,5 " stroke-linejoin="miter"/>
</g></svg>