<svg id="nc_icon" xmlns="http://www.w3.org/2000/svg" xmlns:xlink="http://www.w3.org/1999/xlink" x="0px" y="0px" viewBox="0 0 24 24"><g  transform="translate(0, 0)">
<path data-color="color-2" fill="none" stroke="currentColor" vector-effect="non-scaling-stroke" stroke-linecap="square" stroke-miterlimit="10" d="M16,15v1.5&#10;&#9;c0,1.38071,1.11929,2.5,2.5,2.5h0c1.38071,0,2.5-1.11929,2.5-2.5V11" stroke-linejoin="miter"/>
<rect data-color="color-2" x="5" y="6" fill="none" stroke="currentColor" vector-effect="non-scaling-stroke" stroke-linecap="square" stroke-miterlimit="10" width="7" height="5" stroke-linejoin="miter"/>
<path data-color="color-2" fill="none" stroke="currentColor" vector-effect="non-scaling-stroke" stroke-linecap="square" stroke-miterlimit="10" d="M19,7h4v2&#10;&#9;c0,1.10457-0.89543,2-2,2h0c-1.10457,0-2-0.89543-2-2V7z" stroke-linejoin="miter"/>
<line data-color="color-2" fill="none" stroke="currentColor" vector-effect="non-scaling-stroke" stroke-linecap="square" stroke-miterlimit="10" x1="19" y1="5" x2="19" y2="7" stroke-linejoin="miter"/>
<line data-color="color-2" fill="none" stroke="currentColor" vector-effect="non-scaling-stroke" stroke-linecap="square" stroke-miterlimit="10" x1="23" y1="5" x2="23" y2="7" stroke-linejoin="miter"/>
<path fill="none" stroke="currentColor" vector-effect="non-scaling-stroke" stroke-linecap="square" stroke-miterlimit="10" d="M1,22V4&#10;&#9;c0-1.10457,0.89543-2,2-2h11c1.10457,0,2,0.89543,2,2v18H1z" stroke-linejoin="miter"/>
</g></svg>