<svg id="nc_icon" xmlns="http://www.w3.org/2000/svg" xmlns:xlink="http://www.w3.org/1999/xlink" x="0px" y="0px" viewBox="0 0 24 24"><g  transform="translate(0, 0)">
<polygon fill="none" stroke="currentColor" vector-effect="non-scaling-stroke" stroke-linecap="square" stroke-miterlimit="10" points="23,23 1,23 1,1 &#10;&#9;9,1 12,5 23,5 " stroke-linejoin="miter"/>
<polyline data-color="color-2" fill="none" stroke="currentColor" vector-effect="non-scaling-stroke" stroke-linecap="square" stroke-miterlimit="10" points="&#10;&#9;15,17 7,17 7,15 " stroke-linejoin="miter"/>
<polygon data-color="color-2" fill="none" stroke="currentColor" vector-effect="non-scaling-stroke" stroke-linecap="square" stroke-miterlimit="10" points="&#10;&#9;15,19 17,17 15,15 " stroke-linejoin="miter"/>
<polygon data-color="color-2" data-stroke="none" fill="none" points="15,19 17,17 15,15 " stroke-linejoin="miter" stroke-linecap="square"/>
<polyline data-color="color-2" fill="none" stroke="currentColor" vector-effect="non-scaling-stroke" stroke-linecap="square" stroke-miterlimit="10" points="&#10;&#9;9,10 17,10 17,12 " stroke-linejoin="miter"/>
<polygon data-color="color-2" fill="none" stroke="currentColor" vector-effect="non-scaling-stroke" stroke-linecap="square" stroke-miterlimit="10" points="&#10;&#9;9,8 7,10 9,12 " stroke-linejoin="miter"/>
<polygon data-color="color-2" data-stroke="none" fill="none" points="9,8 7,10 9,12 " stroke-linejoin="miter" stroke-linecap="square"/>
</g></svg>