<svg id="nc_icon" xmlns="http://www.w3.org/2000/svg" xmlns:xlink="http://www.w3.org/1999/xlink" x="0px" y="0px" viewBox="0 0 24 24"><g  transform="translate(0, 0)">
<polygon fill="none" stroke="currentColor" vector-effect="non-scaling-stroke" stroke-linecap="square" stroke-miterlimit="10" points="23,23 1,23 1,1 &#10;&#9;9,1 12,5 23,5 " stroke-linejoin="miter"/>
<path data-color="color-2" fill="none" stroke="currentColor" vector-effect="non-scaling-stroke" stroke-linecap="square" stroke-miterlimit="10" d="M13.5,10&#10;&#9;c-1.4,0-2.7,0.9-3.2,2.1C10,12.1,9.8,12,9.5,12C8.1,12,7,13.1,7,14.5C7,15.9,8.1,17,9.5,17c0.7,0,3.2,0,4,0c1.9,0,3.5-1.6,3.5-3.5&#10;&#9;S15.4,10,13.5,10z" stroke-linejoin="miter"/>
</g></svg>