<svg id="nc_icon" xmlns="http://www.w3.org/2000/svg" xmlns:xlink="http://www.w3.org/1999/xlink" x="0px" y="0px" viewBox="0 0 24 24"><g  transform="translate(0, 0)">
<polygon fill="none" stroke="currentColor" vector-effect="non-scaling-stroke" stroke-linecap="square" stroke-miterlimit="10" points="23,23 1,23 1,1 &#10;&#9;9,1 12,5 23,5 " stroke-linejoin="miter"/>
<path data-color="color-2" fill="none" stroke="currentColor" vector-effect="non-scaling-stroke" stroke-linecap="square" stroke-miterlimit="10" d="M14,18.836&#10;&#9;c0-0.604-0.265-1.179-0.738-1.554C12.539,16.708,11.285,16,9.5,16s-3.039,0.708-3.762,1.282C5.265,17.657,5,18.232,5,18.836V20h9&#10;&#9;V18.836z" stroke-linejoin="miter"/>
<circle data-color="color-2" fill="none" stroke="currentColor" vector-effect="non-scaling-stroke" stroke-linecap="square" stroke-miterlimit="10" cx="9.5" cy="10.5" r="2.5" stroke-linejoin="miter"/>
<path data-color="color-2" fill="none" stroke="currentColor" vector-effect="non-scaling-stroke" stroke-linecap="square" stroke-miterlimit="10" d="M17,20h2&#10;&#9;v-1.164c0-0.604-0.265-1.179-0.738-1.554c-0.5-0.397-1.255-0.858-2.264-1.105" stroke-linejoin="miter"/>
<path data-color="color-2" fill="none" stroke="currentColor" vector-effect="non-scaling-stroke" stroke-linecap="square" stroke-miterlimit="10" d="&#10;&#9;M14.996,8.049C16.139,8.279,17,9.289,17,10.5c0,1.209-0.859,2.218-2,2.45" stroke-linejoin="miter"/>
</g></svg>