<svg id="nc_icon" xmlns="http://www.w3.org/2000/svg" xmlns:xlink="http://www.w3.org/1999/xlink" x="0px" y="0px" viewBox="0 0 24 24"><g  transform="translate(0, 0)">
<rect x="2" y="1" fill="none" stroke="currentColor" vector-effect="non-scaling-stroke" stroke-linecap="square" stroke-miterlimit="10" width="20" height="22" stroke-linejoin="miter"/>
<path data-color="color-2" fill="none" stroke="currentColor" vector-effect="non-scaling-stroke" stroke-linecap="square" stroke-miterlimit="10" d="M14,16.836&#10;&#9;c0-0.604-0.265-1.179-0.738-1.554C12.539,14.708,11.285,14,9.5,14s-3.039,0.708-3.762,1.282C5.265,15.657,5,16.232,5,16.836V18h9&#10;&#9;V16.836z" stroke-linejoin="miter"/>
<circle data-color="color-2" fill="none" stroke="currentColor" vector-effect="non-scaling-stroke" stroke-linecap="square" stroke-miterlimit="10" cx="9.5" cy="8.5" r="2.5" stroke-linejoin="miter"/>
<path data-color="color-2" fill="none" stroke="currentColor" vector-effect="non-scaling-stroke" stroke-linecap="square" stroke-miterlimit="10" d="M17,18h2&#10;&#9;v-1.164c0-0.604-0.265-1.179-0.738-1.554c-0.5-0.397-1.255-0.858-2.264-1.105" stroke-linejoin="miter"/>
<path data-color="color-2" fill="none" stroke="currentColor" vector-effect="non-scaling-stroke" stroke-linecap="square" stroke-miterlimit="10" d="&#10;&#9;M14.996,6.049C16.139,6.279,17,7.289,17,8.5c0,1.209-0.859,2.218-2,2.45" stroke-linejoin="miter"/>
</g></svg>