<svg id="nc_icon" xmlns="http://www.w3.org/2000/svg" xmlns:xlink="http://www.w3.org/1999/xlink" x="0px" y="0px" viewBox="0 0 24 24"><g  transform="translate(0, 0)">
<path data-cap="butt" fill="none" stroke="currentColor" vector-effect="non-scaling-stroke" stroke-miterlimit="10" d="M10,6l1.4-4.6c0.2-0.5,0.9-0.5,1.1,0&#10;&#9;L14,6" stroke-linejoin="miter" stroke-linecap="butt"/>
<rect x="6" y="6" fill="none" stroke="currentColor" vector-effect="non-scaling-stroke" stroke-linecap="square" stroke-miterlimit="10" width="12" height="3" stroke-linejoin="miter"/>
<line data-color="color-2" fill="none" stroke="currentColor" vector-effect="non-scaling-stroke" stroke-linecap="square" stroke-miterlimit="10" x1="13" y1="13" x2="14" y2="13" stroke-linejoin="miter"/>
<line data-color="color-2" fill="none" stroke="currentColor" vector-effect="non-scaling-stroke" stroke-linecap="square" stroke-miterlimit="10" x1="13" y1="16" x2="14" y2="16" stroke-linejoin="miter"/>
<line data-color="color-2" fill="none" stroke="currentColor" vector-effect="non-scaling-stroke" stroke-linecap="square" stroke-miterlimit="10" x1="13" y1="19" x2="14" y2="19" stroke-linejoin="miter"/>
<path fill="none" stroke="currentColor" vector-effect="non-scaling-stroke" stroke-linecap="square" stroke-miterlimit="10" d="M10,9c-1.7,0-3,1.3-3,3v8&#10;&#9;c0,1.7,1.3,3,3,3h4c1.7,0,3-1.3,3-3v-8c0-1.7-1.3-3-3-3" stroke-linejoin="miter"/>
</g></svg>