<svg id="nc_icon" xmlns="http://www.w3.org/2000/svg" xmlns:xlink="http://www.w3.org/1999/xlink" x="0px" y="0px" viewBox="0 0 24 24"><g  transform="translate(0, 0)">
<path data-cap="butt" data-color="color-2" fill="none" stroke="currentColor" vector-effect="non-scaling-stroke" stroke-miterlimit="10" d="M18.7,14.1&#10;&#9;C17.8,16.9,15.1,19,12,19c-3.9,0-7-3.1-7-7c0-3.4,2.4-6.2,5.5-6.8" stroke-linejoin="miter" stroke-linecap="butt"/>
<line data-cap="butt" data-color="color-2" fill="none" stroke="currentColor" vector-effect="non-scaling-stroke" stroke-miterlimit="10" x1="14.5" y1="9.5" x2="6.6" y2="16.4" stroke-linejoin="miter" stroke-linecap="butt"/>
<line data-cap="butt" data-color="color-2" fill="none" stroke="currentColor" vector-effect="non-scaling-stroke" stroke-miterlimit="10" x1="14.5" y1="9.5" x2="5.3" y2="9.9" stroke-linejoin="miter" stroke-linecap="butt"/>
<line data-cap="butt" data-color="color-2" fill="none" stroke="currentColor" vector-effect="non-scaling-stroke" stroke-miterlimit="10" x1="14.5" y1="9.5" x2="14" y2="18.7" stroke-linejoin="miter" stroke-linecap="butt"/>
<path fill="none" stroke="currentColor" vector-effect="non-scaling-stroke" stroke-linecap="square" stroke-miterlimit="10" d="M7.6,1.9&#10;&#9;C3.7,3.6,1,7.5,1,12c0,6.1,4.9,11,11,11c4.1,0,7.8-2.3,9.6-5.7L7.6,1.9z" stroke-linejoin="miter"/>
</g></svg>