<svg id="nc_icon" xmlns="http://www.w3.org/2000/svg" xmlns:xlink="http://www.w3.org/1999/xlink" x="0px" y="0px" viewBox="0 0 24 24"><g  transform="translate(0, 0)">
<path data-cap="butt" data-color="color-2" fill="none" stroke="currentColor" vector-effect="non-scaling-stroke" stroke-miterlimit="10" d="M21,11.7c0.6-0.7,1-1.6,1-2.7&#10;&#9;c0-2.2-1.8-4-4-4c-0.5,0-0.9,0.1-1.3,0.2C16,3.4,14.1,2,12,2S8,3.4,7.3,5.2C6.9,5.1,6.5,5,6,5C3.8,5,2,6.8,2,9c0,1,0.4,1.9,1,2.7" stroke-linejoin="miter" stroke-linecap="butt"/>
<line data-color="color-2" fill="none" stroke="currentColor" vector-effect="non-scaling-stroke" stroke-linecap="square" stroke-miterlimit="10" x1="12" y1="16" x2="13" y2="17" stroke-linejoin="miter"/>
<line data-color="color-2" fill="none" stroke="currentColor" vector-effect="non-scaling-stroke" stroke-linecap="square" stroke-miterlimit="10" x1="16" y1="14" x2="16" y2="13" stroke-linejoin="miter"/>
<line data-color="color-2" fill="none" stroke="currentColor" vector-effect="non-scaling-stroke" stroke-linecap="square" stroke-miterlimit="10" x1="7" y1="14" x2="8" y2="13" stroke-linejoin="miter"/>
<path fill="none" stroke="currentColor" vector-effect="non-scaling-stroke" stroke-linecap="square" stroke-miterlimit="10" d="M23,21H1v-3&#10;&#9;C1,11.9,5.9,7,12,7h0c6.1,0,11,4.9,11,11V21z" stroke-linejoin="miter"/>
</g></svg>