<svg id="nc_icon" xmlns="http://www.w3.org/2000/svg" xmlns:xlink="http://www.w3.org/1999/xlink" x="0px" y="0px" viewBox="0 0 24 24"><g  transform="translate(0, 0)">
<rect data-color="color-2" x="8" y="14" fill="none" stroke="currentColor" vector-effect="non-scaling-stroke" stroke-linecap="square" stroke-miterlimit="10" width="8" height="4" stroke-linejoin="miter"/>
<path fill="none" stroke="currentColor" vector-effect="non-scaling-stroke" stroke-linecap="square" stroke-miterlimit="10" d="M3,10v10c0,1.1,0.9,2,2,2&#10;&#9;h14c1.1,0,2-0.9,2-2V10" stroke-linejoin="miter"/>
<polyline data-cap="butt" fill="none" stroke="currentColor" vector-effect="non-scaling-stroke" stroke-miterlimit="10" points="20,6 22,10 2,10 4,6 " stroke-linejoin="miter" stroke-linecap="butt"/>
<path fill="none" stroke="currentColor" vector-effect="non-scaling-stroke" stroke-linecap="square" stroke-miterlimit="10" d="M20,6H4C2.9,6,2,5.1,2,4v0&#10;&#9;c0-1.1,0.9-2,2-2h16c1.1,0,2,0.9,2,2v0C22,5.1,21.1,6,20,6z" stroke-linejoin="miter"/>
</g></svg>