<svg id="nc_icon" xmlns="http://www.w3.org/2000/svg" xmlns:xlink="http://www.w3.org/1999/xlink" x="0px" y="0px" viewBox="0 0 24 24"><g  transform="translate(0, 0)">
<polyline data-cap="butt" data-color="color-2" fill="none" stroke="currentColor" vector-effect="non-scaling-stroke" stroke-miterlimit="10" points="19,12 23,9 23,15 &#10;&#9;19,12 " stroke-linejoin="miter" stroke-linecap="butt"/>
<path data-color="color-2" fill="none" stroke="currentColor" vector-effect="non-scaling-stroke" stroke-linecap="square" stroke-miterlimit="10" d="M10.2,18&#10;&#9;c1.1-1.7,1.8-3.8,1.8-6s-0.7-4.3-1.8-6" stroke-linejoin="miter"/>
<path data-color="color-2" fill="none" stroke="currentColor" vector-effect="non-scaling-stroke" stroke-linecap="square" stroke-miterlimit="10" d="M15.1,16.4&#10;&#9;C15.7,15,16,13.6,16,12s-0.3-3-0.9-4.4" stroke-linejoin="miter"/>
<line data-color="color-2" fill="none" stroke="currentColor" vector-effect="non-scaling-stroke" stroke-linecap="square" stroke-miterlimit="10" x1="8" y1="12" x2="19" y2="12" stroke-linejoin="miter"/>
<path fill="none" stroke="currentColor" vector-effect="non-scaling-stroke" stroke-linecap="square" stroke-miterlimit="10" d="M2,12c0,0,1.7,3.5,4.7,5.1&#10;&#9;C7.5,15.6,8,13.9,8,12c0-1.8-0.5-3.6-1.3-5.1C3.7,8.6,2,12,2,12z" stroke-linejoin="miter"/>
</g></svg>