<svg id="nc_icon" xmlns="http://www.w3.org/2000/svg" xmlns:xlink="http://www.w3.org/1999/xlink" x="0px" y="0px" viewBox="0 0 24 24"><g  transform="translate(0, 0)">
<path data-cap="butt" fill="none" stroke="currentColor" vector-effect="non-scaling-stroke" stroke-miterlimit="10" d="M4,10.5V21c0,1.1,0.9,2,2,2h0&#10;&#9;c1.1,0,2-0.9,2-2V10.5" stroke-linejoin="miter" stroke-linecap="butt"/>
<path data-cap="butt" data-color="color-2" fill="none" stroke="currentColor" vector-effect="non-scaling-stroke" stroke-miterlimit="10" d="M16,15v6c0,1.1,0.9,2,2,2h0&#10;&#9;c1.1,0,2-0.9,2-2v-6" stroke-linejoin="miter" stroke-linecap="butt"/>
<path fill="none" stroke="currentColor" vector-effect="non-scaling-stroke" stroke-linecap="square" stroke-miterlimit="10" d="M6,11L6,11&#10;&#9;c-2.2,0-4-1.8-4-4V5c0-2.2,1.8-4,4-4h0c2.2,0,4,1.8,4,4v2C10,9.2,8.2,11,6,11z" stroke-linejoin="miter"/>
<path data-color="color-2" fill="none" stroke="currentColor" vector-effect="non-scaling-stroke" stroke-linecap="square" stroke-miterlimit="10" d="M20,15h-6V7&#10;&#9;c0-3.3,2.7-6,6-6h0V15z" stroke-linejoin="miter"/>
</g></svg>