<svg id="nc_icon" xmlns="http://www.w3.org/2000/svg" xmlns:xlink="http://www.w3.org/1999/xlink" x="0px" y="0px" viewBox="0 0 24 24"><g  transform="translate(0, 0)">
<path data-cap="butt" data-color="color-2" fill="none" stroke="currentColor" vector-effect="non-scaling-stroke" stroke-miterlimit="10" d="M16.9,4.2l2.1-2.1&#10;&#9;c0.8-0.8,2-0.8,2.8,0l0,0c0.8,0.8,0.8,2,0,2.8l-2.1,2.1" stroke-linejoin="miter" stroke-linecap="butt"/>
<path data-cap="butt" data-color="color-2" fill="none" stroke="currentColor" vector-effect="non-scaling-stroke" stroke-miterlimit="10" d="M7.1,19.8l-2.1,2.1&#10;&#9;c-0.8,0.8-2,0.8-2.8,0l0,0c-0.8-0.8-0.8-2,0-2.8l2.1-2.1" stroke-linejoin="miter" stroke-linecap="butt"/>
<path fill="none" stroke="currentColor" vector-effect="non-scaling-stroke" stroke-linecap="square" stroke-miterlimit="10" d="M7.1,19.8l-2.8-2.8&#10;&#9;c-0.4-0.4-0.4-1,0-1.4L15.5,4.2c0.4-0.4,1-0.4,1.4,0l2.8,2.8c0.4,0.4,0.4,1,0,1.4L8.5,19.8C8.1,20.2,7.4,20.2,7.1,19.8z" stroke-linejoin="miter"/>
</g></svg>