<svg id="nc_icon" xmlns="http://www.w3.org/2000/svg" xmlns:xlink="http://www.w3.org/1999/xlink" x="0px" y="0px" viewBox="0 0 24 24"><g  transform="translate(0, 0)">
<path fill="none" stroke="currentColor" vector-effect="non-scaling-stroke" stroke-linecap="square" stroke-miterlimit="10" d="M9,23V12.5&#10;&#9;c0-1.38071,1.11929-2.5,2.5-2.5H11.5c1.38071,0,2.5,1.11929,2.5,2.5V23" stroke-linejoin="miter"/>
<path fill="none" stroke="currentColor" vector-effect="non-scaling-stroke" stroke-linecap="square" stroke-miterlimit="10" d="M14,15.00025V14.5&#10;&#9;c0-1.38071,1.11929-2.5,2.5-2.5h0c1.38071,0,2.5,1.11929,2.5,2.5V23" stroke-linejoin="miter"/>
<path fill="none" stroke="currentColor" vector-effect="non-scaling-stroke" stroke-linecap="square" stroke-miterlimit="10" d="M4,23v-8.5&#10;&#9;C4,13.11929,5.11929,12,6.5,12h0C7.88071,12,9,13.11929,9,14.5v0.50025" stroke-linejoin="miter"/>
<line data-cap="butt" data-color="color-2" fill="none" stroke="currentColor" vector-effect="non-scaling-stroke" stroke-miterlimit="10" x1="22" y1="5" x2="2" y2="5" stroke-linejoin="miter" stroke-linecap="butt"/>
<polyline data-color="color-2" fill="none" stroke="currentColor" vector-effect="non-scaling-stroke" stroke-linecap="square" stroke-miterlimit="10" points="&#10;&#9;19,2 22,5 19,8 " stroke-linejoin="miter"/>
</g></svg>