<svg id="nc_icon" xmlns="http://www.w3.org/2000/svg" xmlns:xlink="http://www.w3.org/1999/xlink" x="0px" y="0px" viewBox="0 0 24 24"><g  transform="translate(0, 0)">
<path data-cap="butt" data-color="color-2" fill="none" stroke="currentColor" vector-effect="non-scaling-stroke" stroke-miterlimit="10" d="M14,6H8&#10;&#9;C6.34315,6,5,7.34315,5,9v3" stroke-linejoin="miter" stroke-linecap="butt"/>
<polyline data-color="color-2" fill="none" stroke="currentColor" vector-effect="non-scaling-stroke" stroke-linecap="square" stroke-miterlimit="10" points="&#10;&#9;10,10 14,6 10,2 " stroke-linejoin="miter"/>
<path fill="none" stroke="currentColor" vector-effect="non-scaling-stroke" stroke-linecap="square" stroke-miterlimit="10" d="M18.5,9L18.5,9&#10;&#9;c1.925,0,3.5,1.575,3.5,3.5V12.5c0,1.925-1.575,3.5-3.5,3.5H18.5c-1.925,0-3.5-1.575-3.5-3.5V12.5C15,10.575,16.575,9,18.5,9z" stroke-linejoin="miter"/>
<path fill="none" stroke="currentColor" vector-effect="non-scaling-stroke" stroke-linecap="square" stroke-miterlimit="10" d="M5.5,16L5.5,16&#10;&#9;C7.425,16,9,17.575,9,19.5V19.5C9,21.425,7.425,23,5.5,23H5.5C3.575,23,2,21.425,2,19.5V19.5C2,17.575,3.575,16,5.5,16z" stroke-linejoin="miter"/>
</g></svg>