<svg id="nc_icon" xmlns="http://www.w3.org/2000/svg" xmlns:xlink="http://www.w3.org/1999/xlink" x="0px" y="0px" viewBox="0 0 24 24"><g  transform="translate(0, 0)">
<path fill="none" stroke="currentColor" vector-effect="non-scaling-stroke" stroke-linecap="square" stroke-miterlimit="10" d="M19.4,6.5&#10;&#9;c-2-1.5-4.3-2.1-7.4-0.9l0,0l0,0C8.9,4.5,6.6,5,4.6,6.5c-2.4,1.9-5.4,8.7,2.8,15.7c1.9,1.7,4.6,0,4.6,0s2.7,1.7,4.6,0&#10;&#9;C24.8,15.2,21.8,8.4,19.4,6.5z" stroke-linejoin="miter"/>
<path data-cap="butt" data-color="color-2" fill="none" stroke="currentColor" vector-effect="non-scaling-stroke" stroke-miterlimit="10" d="M15,8c-0.8,0.6-1.9,1-3,1&#10;&#9;c-1.1,0-2.2-0.4-3-1" stroke-linejoin="miter" stroke-linecap="butt"/>
<path data-cap="butt" data-color="color-2" fill="none" stroke="currentColor" vector-effect="non-scaling-stroke" stroke-miterlimit="10" d="M12,9c0-4.5,0.5-6.4,3-8" stroke-linejoin="miter" stroke-linecap="butt"/>
</g></svg>