<svg id="nc_icon" xmlns="http://www.w3.org/2000/svg" xmlns:xlink="http://www.w3.org/1999/xlink" x="0px" y="0px" viewBox="0 0 24 24"><g  transform="translate(0, 0)">
<polyline data-cap="butt" fill="none" stroke="currentColor" vector-effect="non-scaling-stroke" stroke-miterlimit="10" points="18,10 20,10 20,14 18,14 " stroke-linejoin="miter" stroke-linecap="butt"/>
<polyline data-color="color-2" fill="none" stroke="currentColor" vector-effect="non-scaling-stroke" stroke-linecap="square" stroke-miterlimit="10" points="&#10;&#9;7,12 8,12 10,10 12,14 14,12 15,12 " stroke-linejoin="miter"/>
<polyline data-cap="butt" fill="none" stroke="currentColor" vector-effect="non-scaling-stroke" stroke-miterlimit="10" points="6,5 7,1 15,1 16,5 " stroke-linejoin="miter" stroke-linecap="butt"/>
<polyline data-cap="butt" fill="none" stroke="currentColor" vector-effect="non-scaling-stroke" stroke-miterlimit="10" points="16,19 15,23 7,23 6,19 " stroke-linejoin="miter" stroke-linecap="butt"/>
<path fill="none" stroke="currentColor" vector-effect="non-scaling-stroke" stroke-linecap="square" stroke-miterlimit="10" d="M16,19H6c-1.1,0-2-0.9-2-2&#10;&#9;V7c0-1.1,0.9-2,2-2h10c1.1,0,2,0.9,2,2v10C18,18.1,17.1,19,16,19z" stroke-linejoin="miter"/>
</g></svg>