<svg id="nc_icon" xmlns="http://www.w3.org/2000/svg" xmlns:xlink="http://www.w3.org/1999/xlink" x="0px" y="0px" viewBox="0 0 24 24"><g  transform="translate(0, 0)">
<path data-cap="butt" data-color="color-2" fill="none" stroke="currentColor" vector-effect="non-scaling-stroke" stroke-miterlimit="10" d="M17,22V3&#10;&#9;c0-0.6000004-0.3999996-1-1-1H9C8.3999996,2,8,2.3999996,8,3v6.8999996L7.1000004,9C6.5,8.3999996,5.5999999,8.3999996,5,9&#10;&#9;s-0.5999999,1.6000004,0,2.1999998l3,3V20" stroke-linejoin="miter" stroke-linecap="butt"/>
<line data-cap="butt" data-color="color-2" fill="none" stroke="currentColor" vector-effect="non-scaling-stroke" stroke-miterlimit="10" x1="11" y1="7" x2="11" y2="2" stroke-linejoin="miter" stroke-linecap="butt"/>
<line data-cap="butt" data-color="color-2" fill="none" stroke="currentColor" vector-effect="non-scaling-stroke" stroke-miterlimit="10" x1="14" y1="7" x2="14" y2="2" stroke-linejoin="miter" stroke-linecap="butt"/>
<path fill="none" stroke="currentColor" vector-effect="non-scaling-stroke" stroke-linecap="square" stroke-miterlimit="10" d="M1,22h5&#10;&#9;c0-1.1046143,0.8954468-2,2-2c0.4987183,0,0.9491577,0.1890869,1.2994385,0.4910278C9.8955078,19.0308838,11.3254395,18,13,18&#10;&#9;c2.2091675,0,4,1.7908325,4,4h6" stroke-linejoin="miter"/>
</g></svg>