<svg id="nc_icon" xmlns="http://www.w3.org/2000/svg" xmlns:xlink="http://www.w3.org/1999/xlink" x="0px" y="0px" viewBox="0 0 24 24"><g  transform="translate(0, 0)">
<path data-cap="butt" data-color="color-2" fill="none" stroke="currentColor" vector-effect="non-scaling-stroke" stroke-miterlimit="10" d="M3.5613384,10&#10;&#9;c0,0,2.8136616,1,8.4386616,1s8.433876-1,8.433876-1" stroke-linejoin="miter" stroke-linecap="butt"/>
<path data-cap="butt" data-color="color-2" fill="none" stroke="currentColor" vector-effect="non-scaling-stroke" stroke-miterlimit="10" d="M3,15c0,0,3.437489,1,9,1&#10;&#9;c5.5624886,0,9-1,9-1" stroke-linejoin="miter" stroke-linecap="butt"/>
<path fill="none" stroke="currentColor" vector-effect="non-scaling-stroke" stroke-linecap="square" stroke-miterlimit="10" d="M3,15C3,7,7,1,12,1&#10;&#9;c4.958334,0,9,6,9,14c0,5-4.5817223,8-9,8S3,20,3,15z" stroke-linejoin="miter"/>
</g></svg>