<svg id="nc_icon" xmlns="http://www.w3.org/2000/svg" xmlns:xlink="http://www.w3.org/1999/xlink" x="0px" y="0px" viewBox="0 0 24 24"><g  transform="translate(0, 0)">
<path data-cap="butt" data-color="color-2" fill="none" stroke="currentColor" vector-effect="non-scaling-stroke" stroke-miterlimit="10" d="M18,17.485&#10;&#9;c3.01,0.535,5,1.462,5,2.515c0,1.657-4.925,3-11,3S1,21.657,1,20c0-1.053,1.99-1.979,5-2.515" stroke-linejoin="miter" stroke-linecap="butt"/>
<path fill="none" stroke="currentColor" vector-effect="non-scaling-stroke" stroke-linecap="square" stroke-miterlimit="10" d="M18,19H6v-2.67&#10;&#9;c0-1.42,0.99-2.658,2.382-2.937C9.431,13.183,10.716,13,12,13s2.569,0.183,3.618,0.393C17.01,13.671,18,14.909,18,16.33V19z" stroke-linejoin="miter"/>
<circle fill="none" stroke="currentColor" vector-effect="non-scaling-stroke" stroke-linecap="square" stroke-miterlimit="10" cx="12" cy="5" r="4" stroke-linejoin="miter"/>
</g></svg>