<svg id="nc_icon" xmlns="http://www.w3.org/2000/svg" xmlns:xlink="http://www.w3.org/1999/xlink" x="0px" y="0px" viewBox="0 0 24 24"><g  transform="translate(0, 0)">
<path fill="none" stroke="currentColor" vector-effect="non-scaling-stroke" stroke-linecap="square" stroke-miterlimit="10" d="M1,23l0-11c0-1.1,0.9-2,2-2&#10;&#9;h0c1.1,0,2,0.9,2,2v8" stroke-linejoin="miter"/>
<path fill="none" stroke="currentColor" vector-effect="non-scaling-stroke" stroke-linecap="square" stroke-miterlimit="10" d="M13,20l0-8c0-1.1-0.9-2-2-2&#10;&#9;h0c-1.1,0-2,0.9-2,2v8" stroke-linejoin="miter"/>
<path fill="none" stroke="currentColor" vector-effect="non-scaling-stroke" stroke-linecap="square" stroke-miterlimit="10" d="M17,23l0-9c0-1.1-0.9-2-2-2&#10;&#9;h0c-1.1,0-2,0.9-2,2v6" stroke-linejoin="miter"/>
<path display="none" fill="none" stroke="currentColor" vector-effect="non-scaling-stroke" stroke-linecap="square" stroke-miterlimit="10" d="M19,10&#10;&#9;c0-2.8-2.2-5-5-5" stroke-linejoin="miter"/>
<path fill="none" stroke="currentColor" vector-effect="non-scaling-stroke" stroke-linecap="square" stroke-miterlimit="10" d="M5,20V10c0-1.1,0.9-2,2-2h0&#10;&#9;c1.1,0,2,0.9,2,2v10" stroke-linejoin="miter"/>
<path data-color="color-2" fill="none" stroke="currentColor" vector-effect="non-scaling-stroke" stroke-linecap="square" stroke-miterlimit="10" d="M19,10&#10;&#9;c0-2.8-2.2-5-5-5" stroke-linejoin="miter"/>
<path data-color="color-2" fill="none" stroke="currentColor" vector-effect="non-scaling-stroke" stroke-linecap="square" stroke-miterlimit="10" d="M23,10&#10;&#9;c0-5-4-9-9-9" stroke-linejoin="miter"/>
</g></svg>