<svg id="nc_icon" xmlns="http://www.w3.org/2000/svg" xmlns:xlink="http://www.w3.org/1999/xlink" x="0px" y="0px" viewBox="0 0 24 24"><g  transform="translate(0, 0)">
<path data-cap="butt" fill="none" stroke="currentColor" vector-effect="non-scaling-stroke" stroke-miterlimit="10" d="M7.969,15.906l2.219,4.872&#10;&#9;c0.362,0.811-0.002,1.761-0.813,2.123l0,0c-0.811,0.362-1.761-0.002-2.123-0.813l-4.177-9.237" stroke-linejoin="miter" stroke-linecap="butt"/>
<path fill="none" stroke="currentColor" vector-effect="non-scaling-stroke" stroke-linecap="square" stroke-miterlimit="10" d="M16,18l-8-5H4&#10;&#9;c-1.657,0-3-1.343-3-3v0c0-1.657,1.343-3,3-3h4l8-5V18z" stroke-linejoin="miter"/>
<line data-color="color-2" fill="none" stroke="currentColor" vector-effect="non-scaling-stroke" stroke-linecap="square" stroke-miterlimit="10" x1="21" y1="10" x2="23" y2="10" stroke-linejoin="miter"/>
<line data-color="color-2" fill="none" stroke="currentColor" vector-effect="non-scaling-stroke" stroke-linecap="square" stroke-miterlimit="10" x1="19.794" y1="5.5" x2="21.526" y2="4.5" stroke-linejoin="miter"/>
<line data-color="color-2" fill="none" stroke="currentColor" vector-effect="non-scaling-stroke" stroke-linecap="square" stroke-miterlimit="10" x1="19.794" y1="14.5" x2="21.526" y2="15.5" stroke-linejoin="miter"/>
</g></svg>