<svg id="nc_icon" xmlns="http://www.w3.org/2000/svg" xmlns:xlink="http://www.w3.org/1999/xlink" x="0px" y="0px" viewBox="0 0 24 24"><g  transform="translate(0, 0)">
<path fill="none" stroke="currentColor" vector-effect="non-scaling-stroke" stroke-linecap="square" stroke-miterlimit="10" d="M19,14c0,4.971-4.029,9-9,9&#10;&#9;h0c-4.971,0-9-4.029-9-9" stroke-linejoin="miter"/>
<path data-stroke="none" fill="none" d="M10,20L10,20c-1.657,0-3-1.343-3-3v0h6v0C13,18.657,11.657,20,10,20z" stroke-linejoin="miter" stroke-linecap="square"/>
<path data-color="color-2" fill="none" stroke="currentColor" vector-effect="non-scaling-stroke" stroke-linecap="square" stroke-miterlimit="10" d="M19,10H1&#10;&#9;c0-4.971,4.029-9,9-9h0C14.971,1,19,5.029,19,10z" stroke-linejoin="miter"/>
<path data-color="color-2" fill="none" stroke="currentColor" vector-effect="non-scaling-stroke" stroke-linecap="square" stroke-miterlimit="10" d="M19,14h-9&#10;&#9;c-2.209,0-4-1.791-4-4v0h17v0C23,12.209,21.209,14,19,14z" stroke-linejoin="miter"/>
</g></svg>