<svg id="nc_icon" xmlns="http://www.w3.org/2000/svg" xmlns:xlink="http://www.w3.org/1999/xlink" x="0px" y="0px" viewBox="0 0 24 24"><g  transform="translate(0, 0)">
<path data-cap="butt" data-color="color-2" fill="none" stroke="currentColor" vector-effect="non-scaling-stroke" stroke-miterlimit="10" d="M8.51776,7H1&#10;&#9;c0,2.20911,1.79083,4,4,4h0.40686" stroke-linejoin="miter" stroke-linecap="butt"/>
<path data-cap="butt" data-color="color-2" fill="none" stroke="currentColor" vector-effect="non-scaling-stroke" stroke-miterlimit="10" d="M15.48224,7H23&#10;&#9;c0,2.20911-1.79083,4-4,4h-0.40686" stroke-linejoin="miter" stroke-linecap="butt"/>
<path data-cap="butt" data-color="color-2" fill="none" stroke="currentColor" vector-effect="non-scaling-stroke" stroke-miterlimit="10" d="M5.43158,16.3205&#10;&#9;C4.00232,16.93054,3,18.34778,3,20c0,0.48962,0.1004,0.95294,0.26141,1.38654c1.50421-1.05841,3.98669-1.31641,3.98669-1.31641" stroke-linejoin="miter" stroke-linecap="butt"/>
<path data-cap="butt" data-color="color-2" fill="none" stroke="currentColor" vector-effect="non-scaling-stroke" stroke-miterlimit="10" d="M18.56842,16.3205&#10;&#9;C19.99768,16.93054,21,18.34778,21,20c0,0.48962-0.1004,0.95294-0.26141,1.38654c-1.50421-1.05841-3.98669-1.31641-3.98669-1.31641" stroke-linejoin="miter" stroke-linecap="butt"/>
<path data-cap="butt" data-color="color-2" fill="none" stroke="currentColor" vector-effect="non-scaling-stroke" stroke-miterlimit="10" d="M9,6.72193V4&#10;&#9;c0-1.65685,1.34314-3,3-3H12c1.65685,0,3,1.34314,3,3v2.7024" stroke-linejoin="miter" stroke-linecap="butt"/>
<path fill="none" stroke="currentColor" vector-effect="non-scaling-stroke" stroke-linecap="square" stroke-miterlimit="10" d="M5,13.5&#10;&#9;C5,9.35786,8.13401,6,12,6s7,3.35786,7,7.5S15.86599,23,12,23S5,17.64214,5,13.5z" stroke-linejoin="miter"/>
</g></svg>