<svg id="nc_icon" xmlns="http://www.w3.org/2000/svg" xmlns:xlink="http://www.w3.org/1999/xlink" x="0px" y="0px" viewBox="0 0 24 24"><g  transform="translate(0, 0)">
<path data-cap="butt" data-color="color-2" fill="none" stroke="currentColor" vector-effect="non-scaling-stroke" stroke-miterlimit="10" d="M15.89676,13l2.45502-4.28766&#10;&#9;c0.66624,0.38152,1.4781,0.50879,2.27753,0.29151c1.59886-0.43456,2.54269-2.08296,2.10813-3.68182&#10;&#9;c-0.43456-1.59886-2.08296-2.54269-3.68182-2.10813c-0.43456-1.59886-2.08296-2.54269-3.68182-2.10813&#10;&#9;S12.8311,3.18874,13.26567,4.7876c0.21728,0.79943,0.73801,1.43517,1.40429,1.81662L11.00787,13" stroke-linejoin="miter" stroke-linecap="butt"/>
<polygon fill="none" stroke="currentColor" vector-effect="non-scaling-stroke" stroke-linecap="square" stroke-miterlimit="10" points="19,13 5,13 2,23 &#10;&#9;22,23 " stroke-linejoin="miter"/>
</g></svg>