<svg id="nc_icon" xmlns="http://www.w3.org/2000/svg" xmlns:xlink="http://www.w3.org/1999/xlink" x="0px" y="0px" viewBox="0 0 24 24"><g  transform="translate(0, 0)">
<path data-color="color-2" fill="none" stroke="currentColor" vector-effect="non-scaling-stroke" stroke-linecap="square" stroke-miterlimit="10" d="M10,14H6&#10;&#9;c-2.76142,0-5-2.23858-5-5V4h0.00001C5.97057,4,10,8.02943,10,12.99999V14z" stroke-linejoin="miter"/>
<path data-color="color-2" fill="none" stroke="currentColor" vector-effect="non-scaling-stroke" stroke-linecap="square" stroke-miterlimit="10" d="M6.5,21&#10;&#9;L6.5,21c1.933,0,3.5-1.567,3.5-3.5V14H6.5C4.567,14,3,15.567,3,17.5V17.5C3,19.433,4.567,21,6.5,21z" stroke-linejoin="miter"/>
<path data-color="color-2" fill="none" stroke="currentColor" vector-effect="non-scaling-stroke" stroke-linecap="square" stroke-miterlimit="10" d="M14,14h4&#10;&#9;c2.76142,0,5-2.23858,5-5V4h-0.00001C18.02943,4,14,8.02943,14,12.99999V14z" stroke-linejoin="miter"/>
<path data-color="color-2" fill="none" stroke="currentColor" vector-effect="non-scaling-stroke" stroke-linecap="square" stroke-miterlimit="10" d="M17.5,21&#10;&#9;L17.5,21c-1.933,0-3.5-1.567-3.5-3.5V14h3.5c1.93299,0,3.5,1.567,3.5,3.5V17.5C21,19.433,19.433,21,17.5,21z" stroke-linejoin="miter"/>
<path data-cap="butt" fill="none" stroke="currentColor" vector-effect="non-scaling-stroke" stroke-miterlimit="10" d="M11.00876,5.26506&#10;&#9;C10.79167,3.375,10.28125,2.1875,9,1" stroke-linejoin="miter" stroke-linecap="butt"/>
<path data-cap="butt" fill="none" stroke="currentColor" vector-effect="non-scaling-stroke" stroke-miterlimit="10" d="M12.99124,5.26506&#10;&#9;C13.20833,3.375,13.71875,2.1875,15,1" stroke-linejoin="miter" stroke-linecap="butt"/>
<circle fill="none" stroke="currentColor" vector-effect="non-scaling-stroke" stroke-linecap="square" stroke-miterlimit="10" cx="12" cy="7" r="2" stroke-linejoin="miter"/>
<path fill="none" stroke="currentColor" vector-effect="non-scaling-stroke" stroke-linecap="square" stroke-miterlimit="10" d="M12,23L12,23&#10;&#9;c-1.10457,0-2-0.89543-2-2V11c0-1.10457,0.89543-2,2-2h0c1.10457,0,2,0.89543,2,2v10C14,22.10457,13.10457,23,12,23z" stroke-linejoin="miter"/>
</g></svg>