<svg id="nc_icon" xmlns="http://www.w3.org/2000/svg" xmlns:xlink="http://www.w3.org/1999/xlink" x="0px" y="0px" viewBox="0 0 24 24"><g  transform="translate(0, 0)">
<path data-cap="butt" fill="none" stroke="currentColor" vector-effect="non-scaling-stroke" stroke-miterlimit="10" d="M2.2,10&#10;&#9;C2.995,6.082,6.082,2.995,10,2.2" stroke-linejoin="miter" stroke-linecap="butt"/>
<path data-cap="butt" fill="none" stroke="currentColor" vector-effect="non-scaling-stroke" stroke-miterlimit="10" d="M10,21.8&#10;&#9;c-3.918-0.795-7.004-3.882-7.8-7.8" stroke-linejoin="miter" stroke-linecap="butt"/>
<path data-cap="butt" fill="none" stroke="currentColor" vector-effect="non-scaling-stroke" stroke-miterlimit="10" d="M21.8,14&#10;&#9;c-0.795,3.918-3.882,7.004-7.8,7.8" stroke-linejoin="miter" stroke-linecap="butt"/>
<path data-cap="butt" fill="none" stroke="currentColor" vector-effect="non-scaling-stroke" stroke-miterlimit="10" d="M14,2.2&#10;&#9;c3.918,0.795,7.004,3.882,7.8,7.8" stroke-linejoin="miter" stroke-linecap="butt"/>
<polyline data-cap="butt" data-color="color-2" fill="none" stroke="currentColor" vector-effect="non-scaling-stroke" stroke-miterlimit="10" points="10,7.416 10,1 14,1 &#10;&#9;14,7.416 " stroke-linejoin="miter" stroke-linecap="butt"/>
<polyline data-cap="butt" data-color="color-2" fill="none" stroke="currentColor" vector-effect="non-scaling-stroke" stroke-miterlimit="10" points="16.584,10 23,10 &#10;&#9;23,14 16.584,14 " stroke-linejoin="miter" stroke-linecap="butt"/>
<polyline data-cap="butt" data-color="color-2" fill="none" stroke="currentColor" vector-effect="non-scaling-stroke" stroke-miterlimit="10" points="14,16.584 14,23 &#10;&#9;10,23 10,16.584 " stroke-linejoin="miter" stroke-linecap="butt"/>
<polyline data-cap="butt" data-color="color-2" fill="none" stroke="currentColor" vector-effect="non-scaling-stroke" stroke-miterlimit="10" points="7.416,14 1,14 1,10 &#10;&#9;7.416,10 " stroke-linejoin="miter" stroke-linecap="butt"/>
<circle fill="none" stroke="currentColor" vector-effect="non-scaling-stroke" stroke-linecap="square" stroke-miterlimit="10" cx="12" cy="12" r="5" stroke-linejoin="miter"/>
</g></svg>