<svg id="nc_icon" xmlns="http://www.w3.org/2000/svg" xmlns:xlink="http://www.w3.org/1999/xlink" x="0px" y="0px" viewBox="0 0 24 24"><g  transform="translate(0, 0)">
<line fill="none" stroke="currentColor" vector-effect="non-scaling-stroke" stroke-linecap="square" stroke-miterlimit="10" x1="12" y1="4" x2="12" y2="1" stroke-linejoin="miter"/>
<path fill="none" stroke="currentColor" vector-effect="non-scaling-stroke" stroke-linecap="square" stroke-miterlimit="10" d="M23,16H1v0&#10;&#9;c0-2.209,1.791-4,4-4h14C21.209,12,23,13.791,23,16L23,16z" stroke-linejoin="miter"/>
<path fill="none" stroke="currentColor" vector-effect="non-scaling-stroke" stroke-linecap="square" stroke-miterlimit="10" d="M19,12v-1&#10;&#9;c0-3.866-3.134-7-7-7h0c-3.866,0-7,3.134-7,7v1" stroke-linejoin="miter"/>
<line data-color="color-2" fill="none" stroke="currentColor" vector-effect="non-scaling-stroke" stroke-linecap="square" stroke-miterlimit="10" x1="12" y1="21" x2="12" y2="23" stroke-linejoin="miter"/>
<line data-color="color-2" fill="none" stroke="currentColor" vector-effect="non-scaling-stroke" stroke-linecap="square" stroke-miterlimit="10" x1="16.649" y1="19.969" x2="17.494" y2="21.782" stroke-linejoin="miter"/>
<line data-color="color-2" fill="none" stroke="currentColor" vector-effect="non-scaling-stroke" stroke-linecap="square" stroke-miterlimit="10" x1="7.351" y1="19.969" x2="6.506" y2="21.782" stroke-linejoin="miter"/>
<circle data-stroke="none" fill="none" cx="12" cy="8" r="1" stroke-linejoin="miter" stroke-linecap="square"/>
</g></svg>