<svg id="nc_icon" xmlns="http://www.w3.org/2000/svg" xmlns:xlink="http://www.w3.org/1999/xlink" x="0px" y="0px" viewBox="0 0 24 24"><g  transform="translate(0, 0)">
<line fill="none" stroke="currentColor" vector-effect="non-scaling-stroke" stroke-linecap="square" stroke-miterlimit="10" x1="1" y1="5" x2="23" y2="5" stroke-linejoin="miter"/>
<line fill="none" stroke="currentColor" vector-effect="non-scaling-stroke" stroke-linecap="square" stroke-miterlimit="10" x1="1" y1="9" x2="23" y2="9" stroke-linejoin="miter"/>
<path fill="none" stroke="currentColor" vector-effect="non-scaling-stroke" stroke-linecap="square" stroke-miterlimit="10" d="M13,17H3c-1.1,0-2-0.9-2-2&#10;&#9;V3c0-1.1,0.9-2,2-2h13h5c1.1,0,2,0.9,2,2v12c0,1.1-0.9,2-2,2" stroke-linejoin="miter"/>
<line fill="none" stroke="currentColor" vector-effect="non-scaling-stroke" stroke-linecap="square" stroke-miterlimit="10" x1="5" y1="13" x2="10" y2="13" stroke-linejoin="miter"/>
<rect data-color="color-2" x="13" y="16" fill="none" stroke="currentColor" vector-effect="non-scaling-stroke" stroke-linecap="square" stroke-miterlimit="10" width="8" height="7" stroke-linejoin="miter"/>
<path data-color="color-2" fill="none" stroke="currentColor" vector-effect="non-scaling-stroke" stroke-linecap="square" stroke-miterlimit="10" d="M15,16v-2&#10;&#9;c0-1.1,0.9-2,2-2l0,0c1.1,0,2,0.9,2,2v2" stroke-linejoin="miter"/>
<line data-color="color-2" fill="none" stroke="currentColor" vector-effect="non-scaling-stroke" stroke-linecap="square" stroke-miterlimit="10" x1="17" y1="19" x2="17" y2="20" stroke-linejoin="miter"/>
</g></svg>