<svg id="nc_icon" xmlns="http://www.w3.org/2000/svg" xmlns:xlink="http://www.w3.org/1999/xlink" x="0px" y="0px" viewBox="0 0 24 24"><g  transform="translate(0, 0)">
<polyline fill="none" stroke="currentColor" vector-effect="non-scaling-stroke" stroke-linecap="square" stroke-miterlimit="10" points="21,9 21,23 3,23 &#10;&#9;3,9 " stroke-linejoin="miter"/>
<rect x="1" y="5" fill="none" stroke="currentColor" vector-effect="non-scaling-stroke" stroke-linecap="square" stroke-miterlimit="10" width="22" height="4" stroke-linejoin="miter"/>
<path data-color="color-2" fill="none" stroke="currentColor" vector-effect="non-scaling-stroke" stroke-linecap="square" stroke-miterlimit="10" d="M6,3&#10;&#9;c0-1.105,0.895-2,2-2c2.958,0,4,4,4,4S9.105,5,8,5S6,4.105,6,3z" stroke-linejoin="miter"/>
<path data-color="color-2" fill="none" stroke="currentColor" vector-effect="non-scaling-stroke" stroke-linecap="square" stroke-miterlimit="10" d="M18,3&#10;&#9;c0-1.105-0.895-2-2-2c-2.958,0-4,4-4,4s2.895,0,4,0S18,4.105,18,3z" stroke-linejoin="miter"/>
<polyline data-color="color-2" fill="none" stroke="currentColor" vector-effect="non-scaling-stroke" stroke-linecap="square" stroke-miterlimit="10" points="&#10;&#9;14,5 14,23 10,23 10,5 " stroke-linejoin="miter"/>
</g></svg>