<svg id="nc_icon" xmlns="http://www.w3.org/2000/svg" xmlns:xlink="http://www.w3.org/1999/xlink" x="0px" y="0px" viewBox="0 0 24 24"><g  transform="translate(0, 0)">
<path data-cap="butt" fill="none" stroke="currentColor" vector-effect="non-scaling-stroke" stroke-miterlimit="10" d="M13.4,12c-1.3-0.1-2.4-1.2-2.4-2.5&#10;&#9;c0,1.4-1.1,2.5-2.5,2.5S6,10.9,6,9.5C6,10.9,4.9,12,3.5,12S1,11,1,9l4-8h12l4,8c0,0.3,0,0.6-0.1,0.9" stroke-linejoin="miter" stroke-linecap="butt"/>
<polyline data-cap="butt" fill="none" stroke="currentColor" vector-effect="non-scaling-stroke" stroke-miterlimit="10" points="4,12 4,21 17,21 " stroke-linejoin="miter" stroke-linecap="butt"/>
<path data-color="color-2" fill="none" stroke="currentColor" vector-effect="non-scaling-stroke" stroke-linecap="square" stroke-miterlimit="10" d="M23,14&#10;&#9;c0,3.1-5,8.1-5,8.1s-5-5-5-8.1c0-3.2,2.6-5,5-5S23,10.8,23,14z" stroke-linejoin="miter"/>
<circle data-color="color-2" fill="none" stroke="currentColor" vector-effect="non-scaling-stroke" stroke-linecap="square" stroke-miterlimit="10" cx="18" cy="14" r="1" stroke-linejoin="miter"/>
</g></svg>