<svg id="nc_icon" xmlns="http://www.w3.org/2000/svg" xmlns:xlink="http://www.w3.org/1999/xlink" x="0px" y="0px" viewBox="0 0 24 24"><g  transform="translate(0, 0)">
<line data-cap="butt" data-color="color-2" fill="none" stroke="currentColor" vector-effect="non-scaling-stroke" stroke-miterlimit="10" x1="5.572" y1="7" x2="9" y2="1" stroke-linejoin="miter" stroke-linecap="butt"/>
<line data-cap="butt" data-color="color-2" fill="none" stroke="currentColor" vector-effect="non-scaling-stroke" stroke-miterlimit="10" x1="18.427" y1="6.997" x2="15" y2="1" stroke-linejoin="miter" stroke-linecap="butt"/>
<polyline fill="none" stroke="currentColor" vector-effect="non-scaling-stroke" stroke-linecap="square" stroke-miterlimit="10" points="12,22 3,22 3,11 &#10;&#9;" stroke-linejoin="miter"/>
<polygon fill="none" stroke="currentColor" vector-effect="non-scaling-stroke" stroke-linecap="square" stroke-miterlimit="10" points="23,11 1,11 1,7 &#10;&#9;1,7 23,7 " stroke-linejoin="miter"/>
<path data-color="color-2" fill="none" stroke="currentColor" vector-effect="non-scaling-stroke" stroke-linecap="square" stroke-miterlimit="10" d="&#10;&#9;M22.361,15.631c-0.973-0.961-2.597-0.804-3.361,0.333c-0.765-1.138-2.389-1.293-3.361-0.333c-0.852,0.842-0.852,2.207,0,3.048L19,22&#10;&#9;l3.361-3.321C23.213,17.838,23.213,16.473,22.361,15.631z" stroke-linejoin="miter"/>
</g></svg>