<svg id="nc_icon" xmlns="http://www.w3.org/2000/svg" xmlns:xlink="http://www.w3.org/1999/xlink" x="0px" y="0px" viewBox="0 0 24 24"><g  transform="translate(0, 0)">
<polyline data-color="color-2" fill="none" stroke="currentColor" vector-effect="non-scaling-stroke" stroke-linecap="square" stroke-miterlimit="10" points="&#10;&#9;21,19 21,23 6,23 6,19 " stroke-linejoin="miter"/>
<path data-cap="butt" fill="none" stroke="currentColor" vector-effect="non-scaling-stroke" stroke-miterlimit="10" d="M10.9497137,10H17&#10;&#9;c2.2091389,0,4-1.7908611,4-4V5" stroke-linejoin="miter" stroke-linecap="butt"/>
<path fill="none" stroke="currentColor" vector-effect="non-scaling-stroke" stroke-linecap="square" stroke-miterlimit="10" d="M6,8V4&#10;&#9;c0-1.6568542,1.3431458-3,3-3h9c1.6568546,0,3,1.3431458,3,3v15c0,0-14.4375,0-15,0s-3-0.75-3-5v-3C3,9.3431454,4.3431458,8,6,8&#10;&#9;h2.5000029C9.8807135,8,11,9.1192865,11,10.4999971v0.0000057C11,11.8807135,9.8807135,13,8.5000029,13h-0.500001" stroke-linejoin="miter"/>
</g></svg>