<svg id="nc_icon" xmlns="http://www.w3.org/2000/svg" xmlns:xlink="http://www.w3.org/1999/xlink" x="0px" y="0px" viewBox="0 0 24 24"><g  transform="translate(0, 0)">
<line data-cap="butt" data-color="color-2" fill="none" stroke="currentColor" vector-effect="non-scaling-stroke" stroke-miterlimit="10" x1="4.5" y1="6" x2="6" y2="12" stroke-linejoin="miter" stroke-linecap="butt"/>
<path data-cap="butt" data-color="color-2" fill="none" stroke="currentColor" vector-effect="non-scaling-stroke" stroke-miterlimit="10" d="M17.7094688,15.2263298&#10;&#9;l4.1934185-10.4835491C22.4283791,3.4290526,21.4608631,2,20.0459347,2H16" stroke-linejoin="miter" stroke-linecap="butt"/>
<line data-color="color-2" fill="none" stroke="currentColor" vector-effect="non-scaling-stroke" stroke-linecap="square" stroke-miterlimit="10" x1="2" y1="6" x2="7" y2="6" stroke-linejoin="miter"/>
<circle fill="none" stroke="currentColor" vector-effect="non-scaling-stroke" stroke-linecap="square" stroke-miterlimit="10" cx="6" cy="17" r="1" stroke-linejoin="miter"/>
<path fill="none" stroke="currentColor" vector-effect="non-scaling-stroke" stroke-linecap="square" stroke-miterlimit="10" d="M20.9654541,16.1729736&#10;&#9;L7.6818848,12.3109131C7.4387817,12.2235718,6.7291665,12,6,12c-2.7614136,0-5,2.2385864-5,5s2.2385864,5,5,5h14&#10;&#9;c1.6568604,0,3-1.3431396,3-3C23,17.6829834,22.145752,16.5764771,20.9654541,16.1729736z" stroke-linejoin="miter"/>
</g></svg>