<svg id="nc_icon" xmlns="http://www.w3.org/2000/svg" xmlns:xlink="http://www.w3.org/1999/xlink" x="0px" y="0px" viewBox="0 0 24 24"><g  transform="translate(0, 0)">
<path data-cap="butt" data-color="color-2" fill="none" stroke="currentColor" vector-effect="non-scaling-stroke" stroke-miterlimit="10" d="M12,17H1v5&#10;&#9;c6.0833335,0,6-7.833333,6-11" stroke-linejoin="miter" stroke-linecap="butt"/>
<circle data-color="color-2" fill="none" stroke="currentColor" vector-effect="non-scaling-stroke" stroke-linecap="square" stroke-miterlimit="10" cx="16" cy="19" r="1" stroke-linejoin="miter"/>
<path fill="none" stroke="currentColor" vector-effect="non-scaling-stroke" stroke-linecap="square" stroke-miterlimit="10" d="M16.0000038,23&#10;&#9;C18.2091408,23,20,21.2091408,20,19.0000038V18c0-2,3-3.125,3-5c0-1.458333,0-2,0-2C22.4940796,5.394165,17.7375488,1,12,1&#10;&#9;S1.5563965,5.394165,1.0504761,11H10c1.1045694,0,2,0.8954306,2,2v6.0000038C12,21.2091408,13.7908592,23,15.9999962,23H16.0000038z&#10;&#9;" stroke-linejoin="miter"/>
</g></svg>