<svg id="nc_icon" xmlns="http://www.w3.org/2000/svg" xmlns:xlink="http://www.w3.org/1999/xlink" x="0px" y="0px" viewBox="0 0 24 24"><g  transform="translate(0, 0)">
<path fill="none" stroke="currentColor" vector-effect="non-scaling-stroke" stroke-linecap="square" stroke-miterlimit="10" d="M10,23H3&#10;&#9;c-1.105,0-2-0.895-2-2V3c0-1.105,0.895-2,2-2h12c1.105,0,2,0.895,2,2v7" stroke-linejoin="miter"/>
<circle data-stroke="none" fill="none" cx="9" cy="18" r="1" stroke-linejoin="miter" stroke-linecap="square"/>
<path data-cap="butt" data-color="color-2" fill="none" stroke="currentColor" vector-effect="non-scaling-stroke" stroke-miterlimit="10" d="M14.126,17&#10;&#9;c0.444-1.725,2.01-3,3.874-3c1.48,0,2.772,0.804,3.464,1.999" stroke-linejoin="miter" stroke-linecap="butt"/>
<polygon data-color="color-2" data-stroke="none" fill="none" points="23.22,13.649 22.792,18 18.522,17.061 " stroke-linejoin="miter" stroke-linecap="square"/>
<path data-cap="butt" data-color="color-2" fill="none" stroke="currentColor" vector-effect="non-scaling-stroke" stroke-miterlimit="10" d="M21.874,20&#10;&#9;c-0.444,1.725-2.01,3-3.874,3c-1.48,0-2.772-0.804-3.464-1.999" stroke-linejoin="miter" stroke-linecap="butt"/>
<polygon data-color="color-2" data-stroke="none" fill="none" points="12.78,23.351 13.208,19 17.478,19.939 " stroke-linejoin="miter" stroke-linecap="square"/>
</g></svg>