<svg id="nc_icon" xmlns="http://www.w3.org/2000/svg" xmlns:xlink="http://www.w3.org/1999/xlink" x="0px" y="0px" viewBox="0 0 24 24"><g  transform="translate(0, 0)">
<path data-color="color-2" fill="none" stroke="currentColor" vector-effect="non-scaling-stroke" stroke-linecap="square" stroke-miterlimit="10" d="M23,15.817&#10;&#9;C23,18.183,19,22,19,22s-4-3.817-4-6.183C15,13.374,17.08,12,19,12S23,13.374,23,15.817z" stroke-linejoin="miter"/>
<circle data-color="color-2" data-stroke="none" fill="none" cx="19" cy="16" r="1" stroke-linejoin="miter" stroke-linecap="square"/>
<path fill="none" stroke="currentColor" vector-effect="non-scaling-stroke" stroke-linecap="square" stroke-miterlimit="10" d="M3,14V4&#10;&#9;c0-0.552,0.448-1,1-1h16c0.552,0,1,0.448,1,1v4" stroke-linejoin="miter"/>
<path fill="none" stroke="currentColor" vector-effect="non-scaling-stroke" stroke-linecap="square" stroke-miterlimit="10" d="M11,18H1v0&#10;&#9;c0,1.657,1.343,3,3,3h9" stroke-linejoin="miter"/>
</g></svg>