<svg id="nc_icon" xmlns="http://www.w3.org/2000/svg" xmlns:xlink="http://www.w3.org/1999/xlink" x="0px" y="0px" viewBox="0 0 24 24"><g  transform="translate(0, 0)">
<path fill="none" stroke="currentColor" vector-effect="non-scaling-stroke" stroke-linecap="square" stroke-miterlimit="10" d="M13.001,16.268&#10;&#9;C13.598,16.614,14,17.26,14,18c0,1.105-0.895,2-2,2c-0.742,0-1.39-0.404-1.735-1.004" stroke-linejoin="miter"/>
<path fill="none" stroke="currentColor" vector-effect="non-scaling-stroke" stroke-linecap="square" stroke-miterlimit="10" d="M17.657,12.343&#10;&#9;C16.209,10.895,14.209,10,12,10c-2.209,0-4.209,0.895-5.657,2.343" stroke-linejoin="miter"/>
<path fill="none" stroke="currentColor" vector-effect="non-scaling-stroke" stroke-linecap="square" stroke-miterlimit="10" d="M21.899,8.101&#10;&#9;C19.366,5.567,15.866,4,12,4C8.134,4,4.634,5.567,2.101,8.101" stroke-linejoin="miter"/>
<line data-color="color-2" fill="none" stroke="currentColor" vector-effect="non-scaling-stroke" stroke-linecap="square" stroke-miterlimit="10" x1="4" y1="20" x2="22" y2="2" stroke-linejoin="miter"/>
</g></svg>