<svg id="nc_icon" xmlns="http://www.w3.org/2000/svg" xmlns:xlink="http://www.w3.org/1999/xlink" x="0px" y="0px" viewBox="0 0 24 24"><g  transform="translate(0, 0)">
<line data-color="color-2" fill="none" stroke="currentColor" vector-effect="non-scaling-stroke" stroke-linecap="square" stroke-miterlimit="10" x1="17" y1="6" x2="17" y2="3" stroke-linejoin="miter"/>
<path data-color="color-2" fill="none" stroke="currentColor" vector-effect="non-scaling-stroke" stroke-linecap="square" stroke-miterlimit="10" d="M11,18v2&#10;&#9;c0,1.7,1.3,3,3,3h0c1.7,0,3-1.3,3-3v-2" stroke-linejoin="miter"/>
<path data-color="color-2" fill="none" stroke="currentColor" vector-effect="non-scaling-stroke" stroke-linecap="square" stroke-miterlimit="10" d="M5,6V4&#10;&#9;c0-1.7,1.3-3,3-3h0c1.7,0,3,1.3,3,3v2" stroke-linejoin="miter"/>
<rect x="1" y="6" fill="none" stroke="currentColor" vector-effect="non-scaling-stroke" stroke-linecap="square" stroke-miterlimit="10" width="22" height="12" stroke-linejoin="miter"/>
<line data-color="color-2" fill="none" stroke="currentColor" vector-effect="non-scaling-stroke" stroke-linecap="square" stroke-miterlimit="10" x1="4" y1="10" x2="5" y2="10" stroke-linejoin="miter"/>
<line data-color="color-2" fill="none" stroke="currentColor" vector-effect="non-scaling-stroke" stroke-linecap="square" stroke-miterlimit="10" x1="9" y1="10" x2="10" y2="10" stroke-linejoin="miter"/>
<line data-color="color-2" fill="none" stroke="currentColor" vector-effect="non-scaling-stroke" stroke-linecap="square" stroke-miterlimit="10" x1="14" y1="10" x2="15" y2="10" stroke-linejoin="miter"/>
<line data-color="color-2" fill="none" stroke="currentColor" vector-effect="non-scaling-stroke" stroke-linecap="square" stroke-miterlimit="10" x1="19" y1="10" x2="20" y2="10" stroke-linejoin="miter"/>
<line data-color="color-2" fill="none" stroke="currentColor" vector-effect="non-scaling-stroke" stroke-linecap="square" stroke-miterlimit="10" x1="4" y1="14" x2="5" y2="14" stroke-linejoin="miter"/>
<line data-color="color-2" fill="none" stroke="currentColor" vector-effect="non-scaling-stroke" stroke-linecap="square" stroke-miterlimit="10" x1="9" y1="14" x2="15" y2="14" stroke-linejoin="miter"/>
<line data-color="color-2" fill="none" stroke="currentColor" vector-effect="non-scaling-stroke" stroke-linecap="square" stroke-miterlimit="10" x1="19" y1="14" x2="20" y2="14" stroke-linejoin="miter"/>
</g></svg>