<svg id="nc_icon" xmlns="http://www.w3.org/2000/svg" xmlns:xlink="http://www.w3.org/1999/xlink" x="0px" y="0px" viewBox="0 0 24 24"><g  transform="translate(0, 0)">
<polyline fill="none" stroke="currentColor" vector-effect="non-scaling-stroke" stroke-linecap="square" stroke-miterlimit="10" points="6,7 6,2 10,2 &#10;&#9;10,7 " stroke-linejoin="miter"/>
<polyline data-cap="butt" fill="none" stroke="currentColor" vector-effect="non-scaling-stroke" stroke-miterlimit="10" points="4,11 4,7 16,7 18,11 " stroke-linejoin="miter" stroke-linecap="butt"/>
<polyline fill="none" stroke="currentColor" vector-effect="non-scaling-stroke" stroke-linecap="square" stroke-miterlimit="10" points="4,17 2,11 22,11 &#10;&#9;19,17 " stroke-linejoin="miter"/>
<path data-color="color-2" fill="none" stroke="currentColor" vector-effect="non-scaling-stroke" stroke-linecap="square" stroke-miterlimit="10" d="M1,18&#10;&#9;c0,2.2,1.8,4,4,4c1.5,0,2.8-0.9,3.5-2.1c0.7,1.2,2,2.1,3.5,2.1s2.8-0.9,3.5-2.1c0.7,1.2,2,2.1,3.5,2.1c2.2,0,4-1.8,4-4" stroke-linejoin="miter"/>
</g></svg>