<svg id="nc_icon" xmlns="http://www.w3.org/2000/svg" xmlns:xlink="http://www.w3.org/1999/xlink" x="0px" y="0px" viewBox="0 0 24 24"><g  transform="translate(0, 0)">
<path data-cap="butt" data-color="color-2" fill="none" stroke="currentColor" vector-effect="non-scaling-stroke" stroke-miterlimit="10" d="M13.6,6.2L6.5,1.4&#10;&#9;C5.7,0.9,4.6,1,4,1.7L1.6,4l8.5,5.7" stroke-linejoin="miter" stroke-linecap="butt"/>
<path data-cap="butt" data-color="color-2" fill="none" stroke="currentColor" vector-effect="non-scaling-stroke" stroke-miterlimit="10" d="M17.8,10.4l4.7,7.1&#10;&#9;c0.5,0.8,0.4,1.8-0.2,2.5L20,22.4l-5.7-8.5" stroke-linejoin="miter" stroke-linecap="butt"/>
<path data-cap="butt" data-color="color-2" fill="none" stroke="currentColor" vector-effect="non-scaling-stroke" stroke-miterlimit="10" d="M5.3,20.5l2.2,2.2&#10;&#9;c0.7,0.7,1.8,0.1,1.7-0.8l-0.3-3.7" stroke-linejoin="miter" stroke-linecap="butt"/>
<path data-cap="butt" data-color="color-2" fill="none" stroke="currentColor" vector-effect="non-scaling-stroke" stroke-miterlimit="10" d="M5.8,15.1l-3.7-0.3&#10;&#9;c-0.9-0.1-1.4,1-0.8,1.7l2.2,2.2" stroke-linejoin="miter" stroke-linecap="butt"/>
<path fill="none" stroke="currentColor" vector-effect="non-scaling-stroke" stroke-linecap="square" stroke-miterlimit="10" d="M12.2,16.1l-7.9,5&#10;&#9;c-0.9,0.5-1.9-0.5-1.4-1.4l5-7.9L15.7,4c1.2-1.2,3.1-1.2,4.2,0l0,0c1.2,1.2,1.2,3.1,0,4.2L12.2,16.1z" stroke-linejoin="miter"/>
</g></svg>