<svg id="nc_icon" xmlns="http://www.w3.org/2000/svg" xmlns:xlink="http://www.w3.org/1999/xlink" x="0px" y="0px" viewBox="0 0 24 24"><g  transform="translate(0, 0)">
<path data-color="color-2" fill="none" stroke="currentColor" vector-effect="non-scaling-stroke" stroke-linecap="square" stroke-miterlimit="10" d="M10,11v10&#10;&#9;c0,1.1-0.9,2-2,2l0,0c-1.1,0-2-0.9-2-2l0,0" stroke-linejoin="miter"/>
<path data-color="color-2" fill="none" stroke="currentColor" vector-effect="non-scaling-stroke" stroke-linecap="square" stroke-miterlimit="10" d="M6,11v5&#10;&#9;c0,1.1-0.9,2-2,2l0,0c-1.1,0-2-0.9-2-2l0,0" stroke-linejoin="miter"/>
<path data-color="color-2" fill="none" stroke="currentColor" vector-effect="non-scaling-stroke" stroke-linecap="square" stroke-miterlimit="10" d="M18,11v5&#10;&#9;c0,1.1,0.9,2,2,2l0,0c1.1,0,2-0.9,2-2l0,0" stroke-linejoin="miter"/>
<path data-color="color-2" fill="none" stroke="currentColor" vector-effect="non-scaling-stroke" stroke-linecap="square" stroke-miterlimit="10" d="M14,11v10&#10;&#9;c0,1.1,0.9,2,2,2l0,0c1.1,0,2-0.9,2-2l0,0" stroke-linejoin="miter"/>
<path fill="none" stroke="currentColor" vector-effect="non-scaling-stroke" stroke-linecap="square" stroke-miterlimit="10" d="M2,11C2,5.5,6.5,1,12,1&#10;&#9;c5.5,0,10,4.5,10,10H2z" stroke-linejoin="miter"/>
</g></svg>