<svg id="nc_icon" xmlns="http://www.w3.org/2000/svg" xmlns:xlink="http://www.w3.org/1999/xlink" x="0px" y="0px" viewBox="0 0 24 24"><g  transform="translate(0, 0)">
<path data-color="color-2" fill="none" stroke="currentColor" vector-effect="non-scaling-stroke" stroke-linecap="square" stroke-miterlimit="10" d="M10,8V5&#10;&#9;c0-1.1,0.9-2,2-2c1.1,0,2,0.9,2,2v3" stroke-linejoin="miter"/>
<line data-color="color-2" fill="none" stroke="currentColor" vector-effect="non-scaling-stroke" stroke-linecap="square" stroke-miterlimit="10" x1="12" y1="3" x2="12" y2="1" stroke-linejoin="miter"/>
<path data-cap="butt" fill="none" stroke="currentColor" vector-effect="non-scaling-stroke" stroke-miterlimit="10" d="M10,8c0,5.9-8,15-8,15" stroke-linejoin="miter" stroke-linecap="butt"/>
<path data-cap="butt" fill="none" stroke="currentColor" vector-effect="non-scaling-stroke" stroke-miterlimit="10" d="M22,23c0,0-8-9.1-8-15" stroke-linejoin="miter" stroke-linecap="butt"/>
<line fill="none" stroke="currentColor" vector-effect="non-scaling-stroke" stroke-linecap="square" stroke-miterlimit="10" x1="5" y1="14" x2="19" y2="14" stroke-linejoin="miter"/>
<path fill="none" stroke="currentColor" vector-effect="non-scaling-stroke" stroke-linecap="square" stroke-miterlimit="10" d="M1,23h5h4v-2&#10;&#9;c0-1.1,0.9-2,2-2c1.1,0,2,0.9,2,2v2h4h5" stroke-linejoin="miter"/>
<line fill="none" stroke="currentColor" vector-effect="non-scaling-stroke" stroke-linecap="square" stroke-miterlimit="10" x1="14" y1="8" x2="10" y2="8" stroke-linejoin="miter"/>
</g></svg>