<svg id="nc_icon" xmlns="http://www.w3.org/2000/svg" xmlns:xlink="http://www.w3.org/1999/xlink" x="0px" y="0px" viewBox="0 0 24 24"><g  transform="translate(0, 0)">
<path data-color="color-2" fill="none" stroke="currentColor" vector-effect="non-scaling-stroke" stroke-linecap="square" stroke-miterlimit="10" d="M12,16&#10;&#9;c-0.5,0-2-0.4-2-2.1c0-1.3,2-3.9,2-3.9s2,2.5,2,3.9C14,15.6,12.5,16,12,16z" stroke-linejoin="miter"/>
<polyline data-cap="butt" fill="none" stroke="currentColor" vector-effect="non-scaling-stroke" stroke-miterlimit="10" points="8,19.9 8,23 16,23 16,19.9 &#10;&#9;" stroke-linejoin="miter" stroke-linecap="butt"/>
<path fill="none" stroke="currentColor" vector-effect="non-scaling-stroke" stroke-linecap="square" stroke-miterlimit="10" d="M20,4v11c0,2.8-2.2,5-5,5H9&#10;&#9;c-2.8,0-5-2.2-5-5V4" stroke-linejoin="miter"/>
<line fill="none" stroke="currentColor" vector-effect="non-scaling-stroke" stroke-linecap="square" stroke-miterlimit="10" x1="2" y1="4" x2="22" y2="4" stroke-linejoin="miter"/>
<rect x="9" y="1" fill="none" stroke="currentColor" vector-effect="non-scaling-stroke" stroke-linecap="square" stroke-miterlimit="10" width="6" height="3" stroke-linejoin="miter"/>
</g></svg>