<svg id="nc_icon" xmlns="http://www.w3.org/2000/svg" xmlns:xlink="http://www.w3.org/1999/xlink" x="0px" y="0px" viewBox="0 0 24 24"><g  transform="translate(0, 0)">
<line data-cap="butt" fill="none" stroke="currentColor" vector-effect="non-scaling-stroke" stroke-miterlimit="10" x1="12" y1="8" x2="12" y2="1" stroke-linejoin="miter" stroke-linecap="butt"/>
<line data-cap="butt" fill="none" stroke="currentColor" vector-effect="non-scaling-stroke" stroke-miterlimit="10" x1="14.6" y1="15" x2="23" y2="15" stroke-linejoin="miter" stroke-linecap="butt"/>
<line data-cap="butt" fill="none" stroke="currentColor" vector-effect="non-scaling-stroke" stroke-miterlimit="10" x1="1" y1="15" x2="9.4" y2="15" stroke-linejoin="miter" stroke-linecap="butt"/>
<line data-cap="butt" fill="none" stroke="currentColor" vector-effect="non-scaling-stroke" stroke-miterlimit="10" x1="1.8" y1="8" x2="22.2" y2="8" stroke-linejoin="miter" stroke-linecap="butt"/>
<path fill="none" stroke="currentColor" vector-effect="non-scaling-stroke" stroke-linecap="square" stroke-miterlimit="10" d="M8,21H1v-9&#10;&#9;C1,5.9,5.9,1,12,1c6.1,0,11,4.9,11,11v9h-7" stroke-linejoin="miter"/>
<path data-color="color-2" fill="none" stroke="currentColor" vector-effect="non-scaling-stroke" stroke-linecap="square" stroke-miterlimit="10" d="M16,18&#10;&#9;c0-2.2-1.8-4-4-4s-4,1.8-4,4v5h8V18z" stroke-linejoin="miter"/>
<line data-cap="butt" fill="none" stroke="currentColor" vector-effect="non-scaling-stroke" stroke-miterlimit="10" x1="6" y1="15" x2="6" y2="8" stroke-linejoin="miter" stroke-linecap="butt"/>
<line data-cap="butt" fill="none" stroke="currentColor" vector-effect="non-scaling-stroke" stroke-miterlimit="10" x1="18" y1="15" x2="18" y2="8" stroke-linejoin="miter" stroke-linecap="butt"/>
</g></svg>