<svg id="nc_icon" xmlns="http://www.w3.org/2000/svg" xmlns:xlink="http://www.w3.org/1999/xlink" x="0px" y="0px" viewBox="0 0 24 24"><g  transform="translate(0, 0)">
<polyline data-cap="butt" data-color="color-2" fill="none" stroke="currentColor" vector-effect="non-scaling-stroke" stroke-miterlimit="10" points="11.9,19.4 20.6,22.6 &#10;&#9;22,18.8 17.8,17.3 " stroke-linejoin="miter" stroke-linecap="butt"/>
<polyline data-cap="butt" data-color="color-2" fill="none" stroke="currentColor" vector-effect="non-scaling-stroke" stroke-miterlimit="10" points="9.3,14.2 3.2,12 &#10;&#9;1.8,15.8 6.1,17.3 " stroke-linejoin="miter" stroke-linecap="butt"/>
<polyline data-cap="butt" data-color="color-2" fill="none" stroke="currentColor" vector-effect="non-scaling-stroke" stroke-miterlimit="10" points="14.9,14.1 20.6,12 &#10;&#9;22,15.8 3.2,22.6 1.8,18.8 12.5,15 " stroke-linejoin="miter" stroke-linecap="butt"/>
<path fill="none" stroke="currentColor" vector-effect="non-scaling-stroke" stroke-linecap="square" stroke-miterlimit="10" d="M7,10c0-3,5-8,5-8s5,5,5,8&#10;&#9;c0,3.2-2.6,5-5,5C9.6,15,7,13.2,7,10z" stroke-linejoin="miter"/>
</g></svg>