<svg id="nc_icon" xmlns="http://www.w3.org/2000/svg" xmlns:xlink="http://www.w3.org/1999/xlink" x="0px" y="0px" viewBox="0 0 24 24"><g  transform="translate(0, 0)">
<path data-color="color-2" fill="none" stroke="currentColor" vector-effect="non-scaling-stroke" stroke-linecap="square" stroke-miterlimit="10" d="M5,7V5&#10;&#9;c0-1.1-2-3-2-3S1,3.9,1,5v2" stroke-linejoin="miter"/>
<path data-color="color-2" fill="none" stroke="currentColor" vector-effect="non-scaling-stroke" stroke-linecap="square" stroke-miterlimit="10" d="M23,7V5&#10;&#9;c0-1.1-2-3-2-3s-2,1.9-2,3v2" stroke-linejoin="miter"/>
<path data-color="color-2" fill="none" stroke="currentColor" vector-effect="non-scaling-stroke" stroke-linecap="square" stroke-miterlimit="10" d="M17,13&#10;&#9;c0-2.8-2.2-5-5-5c-2.8,0-5,2.2-5,5" stroke-linejoin="miter"/>
<path fill="none" stroke="currentColor" vector-effect="non-scaling-stroke" stroke-linecap="square" stroke-miterlimit="10" d="M19,13V7h4v16h-7v-1&#10;&#9;c0-2.2-1.8-4-4-4s-4,1.8-4,4v1H1V7h4v6H19z" stroke-linejoin="miter"/>
</g></svg>