<svg id="nc_icon" xmlns="http://www.w3.org/2000/svg" xmlns:xlink="http://www.w3.org/1999/xlink" x="0px" y="0px" viewBox="0 0 24 24"><g  transform="translate(0, 0)">
<path data-cap="butt" data-color="color-2" fill="none" stroke="currentColor" vector-effect="non-scaling-stroke" stroke-miterlimit="10" d="M10,15l3,4.5&#10;&#9;c0.5,0.8,0.3,1.9-0.5,2.5l0,0c-0.8,0.6-2,0.3-2.5-0.5L6,15" stroke-linejoin="miter" stroke-linecap="butt"/>
<path display="none" fill="none" stroke="currentColor" vector-effect="non-scaling-stroke" stroke-linecap="square" stroke-miterlimit="10" d="M5,14&#10;&#9;c-1.7,0-3-1.3-3-3s1.3-3,3-3" stroke-linejoin="miter"/>
<path fill="none" stroke="currentColor" vector-effect="non-scaling-stroke" stroke-linecap="square" stroke-miterlimit="10" d="M13,7H5c-2.2,0-4,1.8-4,4&#10;&#9;c0,2.2,1.8,4,4,4h8l9,5V2L13,7z" stroke-linejoin="miter"/>
</g></svg>