<svg id="nc_icon" xmlns="http://www.w3.org/2000/svg" xmlns:xlink="http://www.w3.org/1999/xlink" x="0px" y="0px" viewBox="0 0 24 24"><g  transform="translate(0, 0)">
<polyline fill="none" stroke="currentColor" vector-effect="non-scaling-stroke" stroke-linecap="square" stroke-miterlimit="10" points="19,3 23,3 23,23 &#10;&#9;1,23 1,3 5,3 " stroke-linejoin="miter"/>
<line fill="none" stroke="currentColor" vector-effect="non-scaling-stroke" stroke-linecap="square" stroke-miterlimit="10" x1="7" y1="3" x2="17" y2="3" stroke-linejoin="miter"/>
<rect x="5" y="1" fill="none" stroke="currentColor" vector-effect="non-scaling-stroke" stroke-linecap="square" stroke-miterlimit="10" width="2" height="4" stroke-linejoin="miter"/>
<rect x="17" y="1" fill="none" stroke="currentColor" vector-effect="non-scaling-stroke" stroke-linecap="square" stroke-miterlimit="10" width="2" height="4" stroke-linejoin="miter"/>
<line fill="none" stroke="currentColor" vector-effect="non-scaling-stroke" stroke-linecap="square" stroke-miterlimit="10" x1="1" y1="9" x2="23" y2="9" stroke-linejoin="miter"/>
<rect data-color="color-2" x="5" y="13" fill="none" stroke="currentColor" vector-effect="non-scaling-stroke" stroke-linecap="square" stroke-miterlimit="10" width="2" height="1" stroke-linejoin="miter"/>
<rect data-color="color-2" x="11" y="13" fill="none" stroke="currentColor" vector-effect="non-scaling-stroke" stroke-linecap="square" stroke-miterlimit="10" width="2" height="1" stroke-linejoin="miter"/>
<rect data-color="color-2" x="5" y="18" fill="none" stroke="currentColor" vector-effect="non-scaling-stroke" stroke-linecap="square" stroke-miterlimit="10" width="2" height="1" stroke-linejoin="miter"/>
<rect data-color="color-2" x="11" y="18" fill="none" stroke="currentColor" vector-effect="non-scaling-stroke" stroke-linecap="square" stroke-miterlimit="10" width="2" height="1" stroke-linejoin="miter"/>
<rect data-color="color-2" x="17" y="13" fill="none" stroke="currentColor" vector-effect="non-scaling-stroke" stroke-linecap="square" stroke-miterlimit="10" width="2" height="1" stroke-linejoin="miter"/>
<rect data-color="color-2" data-stroke="none" x="5" y="13" fill="none" width="2" height="1" stroke-linejoin="miter" stroke-linecap="square"/>
<rect data-color="color-2" data-stroke="none" x="11" y="13" fill="none" width="2" height="1" stroke-linejoin="miter" stroke-linecap="square"/>
<rect data-color="color-2" data-stroke="none" x="5" y="18" fill="none" width="2" height="1" stroke-linejoin="miter" stroke-linecap="square"/>
<rect data-color="color-2" data-stroke="none" x="11" y="18" fill="none" width="2" height="1" stroke-linejoin="miter" stroke-linecap="square"/>
<rect data-color="color-2" data-stroke="none" x="17" y="13" fill="none" width="2" height="1" stroke-linejoin="miter" stroke-linecap="square"/>
</g></svg>