<svg id="nc_icon" xmlns="http://www.w3.org/2000/svg" xmlns:xlink="http://www.w3.org/1999/xlink" x="0px" y="0px" viewBox="0 0 24 24"><g  transform="translate(0, 0)">
<path data-color="color-2" fill="none" stroke="currentColor" vector-effect="non-scaling-stroke" stroke-linecap="square" stroke-miterlimit="10" d="M19,23v-1c0-2.2-1.8-4-4-4&#10;&#9;H9c-2.2,0-4,1.8-4,4v1" stroke-linejoin="miter"/>
<path data-color="color-2" fill="none" stroke="currentColor" vector-effect="non-scaling-stroke" stroke-linecap="square" stroke-miterlimit="10" d="M12,15L12,15&#10;&#9;c-2.2,0-4-1.8-4-4V9c0-2.2,1.8-4,4-4h0c2.2,0,4,1.8,4,4v2C16,13.2,14.2,15,12,15z" stroke-linejoin="miter"/>
<rect x="1" y="1" fill="none" stroke="currentColor" vector-effect="non-scaling-stroke" stroke-linecap="square" stroke-miterlimit="10" width="22" height="22" stroke-linejoin="miter"/>
</g></svg>