<svg id="nc_icon" xmlns="http://www.w3.org/2000/svg" xmlns:xlink="http://www.w3.org/1999/xlink" x="0px" y="0px" viewBox="0 0 24 24"><g  transform="translate(0, 0)">
<polygon data-color="color-2" fill="none" stroke="currentColor" vector-effect="non-scaling-stroke" stroke-linecap="square" stroke-miterlimit="10" points="&#10;&#9;23,1 11,1 11,11 16,7 23,7 " stroke-linejoin="miter"/>
<path fill="none" stroke="currentColor" vector-effect="non-scaling-stroke" stroke-linecap="square" stroke-miterlimit="10" d="M10,21.836&#10;&#9;c0-0.604-0.265-1.179-0.738-1.554C8.539,19.708,7.285,19,5.5,19s-3.039,0.708-3.762,1.282C1.265,20.657,1,21.232,1,21.836V23h9&#10;&#9;V21.836z" stroke-linejoin="miter"/>
<circle fill="none" stroke="currentColor" vector-effect="non-scaling-stroke" stroke-linecap="square" stroke-miterlimit="10" cx="5.5" cy="13.5" r="2.5" stroke-linejoin="miter"/>
<path fill="none" stroke="currentColor" vector-effect="non-scaling-stroke" stroke-linecap="square" stroke-miterlimit="10" d="M23,21.836&#10;&#9;c0-0.604-0.265-1.179-0.738-1.554C21.539,19.708,20.285,19,18.5,19s-3.039,0.708-3.762,1.282C14.265,20.657,14,21.232,14,21.836V23&#10;&#9;h9V21.836z" stroke-linejoin="miter"/>
<circle fill="none" stroke="currentColor" vector-effect="non-scaling-stroke" stroke-linecap="square" stroke-miterlimit="10" cx="18.5" cy="13.5" r="2.5" stroke-linejoin="miter"/>
</g></svg>