<svg id="nc_icon" xmlns="http://www.w3.org/2000/svg" xmlns:xlink="http://www.w3.org/1999/xlink" x="0px" y="0px" viewBox="0 0 24 24"><g  transform="translate(0, 0)">
<path fill="none" stroke="currentColor" vector-effect="non-scaling-stroke" stroke-linecap="square" stroke-miterlimit="10" d="M19,19H5v-1.313&#10;&#9;c0-1.213,0.725-2.307,1.846-2.772C7.981,14.445,9.67,14,12,14s4.019,0.445,5.154,0.916C18.275,15.38,19,16.474,19,17.687V19z" stroke-linejoin="miter"/>
<circle fill="none" stroke="currentColor" vector-effect="non-scaling-stroke" stroke-linecap="square" stroke-miterlimit="10" cx="12" cy="7" r="4" stroke-linejoin="miter"/>
<polyline data-color="color-2" fill="none" stroke="currentColor" vector-effect="non-scaling-stroke" stroke-linecap="square" stroke-miterlimit="10" points="&#10;&#9;1,5 1,1 5,1 " stroke-linejoin="miter"/>
<polyline data-color="color-2" fill="none" stroke="currentColor" vector-effect="non-scaling-stroke" stroke-linecap="square" stroke-miterlimit="10" points="&#10;&#9;23,5 23,1 19,1 " stroke-linejoin="miter"/>
<polyline data-color="color-2" fill="none" stroke="currentColor" vector-effect="non-scaling-stroke" stroke-linecap="square" stroke-miterlimit="10" points="&#10;&#9;1,19 1,23 5,23 " stroke-linejoin="miter"/>
<polyline data-color="color-2" fill="none" stroke="currentColor" vector-effect="non-scaling-stroke" stroke-linecap="square" stroke-miterlimit="10" points="&#10;&#9;23,19 23,23 19,23 " stroke-linejoin="miter"/>
</g></svg>