<svg id="nc_icon" xmlns="http://www.w3.org/2000/svg" xmlns:xlink="http://www.w3.org/1999/xlink" x="0px" y="0px" viewBox="0 0 24 24"><g  transform="translate(0, 0)">
<path fill="none" stroke="currentColor" vector-effect="non-scaling-stroke" stroke-linecap="square" stroke-miterlimit="10" d="M21.492,17.614&#10;&#9;c-1.842-0.47-4.791-1.22-5.4-1.368c-0.887-0.215-1.505-0.741-1.75-1.633c-0.295-1.076-0.203-1.969,0.682-2.641&#10;&#9;C16.223,11.06,17,9.623,17,8l0-1.785c0-2.611-1.909-4.943-4.509-5.191C9.509,0.739,7,3.077,7,6v2c0,1.623,0.777,3.06,1.977,3.971&#10;&#9;c0.885,0.672,0.977,1.565,0.682,2.641c-0.245,0.893-0.863,1.418-1.75,1.633c-0.61,0.148-3.558,0.898-5.4,1.368&#10;&#9;c-0.888,0.226-1.504,1.02-1.502,1.936c0.002,0.632,0.003,1.451,0.003,2.449H12h10.992c0-0.998,0.001-1.817,0.003-2.449&#10;&#9;C22.996,18.634,22.379,17.84,21.492,17.614z" stroke-linejoin="miter"/>
</g></svg>