<svg id="nc_icon" xmlns="http://www.w3.org/2000/svg" xmlns:xlink="http://www.w3.org/1999/xlink" x="0px" y="0px" viewBox="0 0 24 24"><g  transform="translate(0, 0)">
<circle data-stroke="none" fill="none" cx="8.5" cy="14.5" r="1.5" stroke-linejoin="miter" stroke-linecap="square"/>
<circle data-stroke="none" fill="none" cx="15.5" cy="14.5" r="1.5" stroke-linejoin="miter" stroke-linecap="square"/>
<path fill="none" stroke="currentColor" vector-effect="non-scaling-stroke" stroke-linecap="square" stroke-miterlimit="10" d="M23,13&#10;&#9;c0-1.487-1.085-2.713-2.505-2.95C19.273,6.53,15.936,4,12,4s-7.273,2.53-8.495,6.05C2.085,10.287,1,11.513,1,13&#10;&#9;s1.085,2.713,2.505,2.95C4.727,19.47,8.064,22,12,22s7.273-2.53,8.495-6.05C21.915,15.713,23,14.487,23,13z" stroke-linejoin="miter"/>
<path data-cap="butt" data-color="color-2" fill="none" stroke="currentColor" vector-effect="non-scaling-stroke" stroke-miterlimit="10" d="M12,7&#10;&#9;c-0.25-3.583,1.667-5.792,5-6" stroke-linejoin="miter" stroke-linecap="butt"/>
</g></svg>