<svg id="nc_icon" xmlns="http://www.w3.org/2000/svg" xmlns:xlink="http://www.w3.org/1999/xlink" x="0px" y="0px" viewBox="0 0 24 24"><g  transform="translate(0, 0)">
<circle data-stroke="none" fill="none" cx="8.5" cy="12.5" r="1.5" stroke-linejoin="miter" stroke-linecap="square"/>
<circle data-stroke="none" fill="none" cx="15.5" cy="12.5" r="1.5" stroke-linejoin="miter" stroke-linecap="square"/>
<path data-color="color-2" fill="none" stroke="currentColor" vector-effect="non-scaling-stroke" stroke-linecap="square" stroke-miterlimit="10" d="M12,1&#10;&#9;C5.925,1,1,5.925,1,12v9c0,0,3,2,11,2s11-2,11-2v-9C23,5.925,18.075,1,12,1z" stroke-linejoin="miter"/>
<path fill="none" stroke="currentColor" vector-effect="non-scaling-stroke" stroke-linecap="square" stroke-miterlimit="10" d="M14.289,4.336&#10;&#9;c-2.535,2.524-5.911,4.204-9.672,4.582C4.22,9.867,4,10.908,4,12c0,4.418,3.582,8,8,8s8-3.582,8-8&#10;&#9;C20,8.378,17.591,5.321,14.289,4.336z" stroke-linejoin="miter"/>
</g></svg>