<svg id="nc_icon" xmlns="http://www.w3.org/2000/svg" xmlns:xlink="http://www.w3.org/1999/xlink" x="0px" y="0px" viewBox="0 0 24 24"><g  transform="translate(0, 0)">
<line fill="none" stroke="currentColor" vector-effect="non-scaling-stroke" stroke-linecap="square" stroke-miterlimit="10" x1="12" y1="1" x2="12" y2="23" stroke-linejoin="miter"/>
<polyline fill="none" stroke="currentColor" vector-effect="non-scaling-stroke" stroke-linecap="square" stroke-miterlimit="10" points="9,2 12,5 15,2 " stroke-linejoin="miter"/>
<polyline fill="none" stroke="currentColor" vector-effect="non-scaling-stroke" stroke-linecap="square" stroke-miterlimit="10" points="9,22 12,19 15,22 &#10;&#9;" stroke-linejoin="miter"/>
<line fill="none" stroke="currentColor" vector-effect="non-scaling-stroke" stroke-linecap="square" stroke-miterlimit="10" x1="2.5" y1="6.5" x2="21.5" y2="17.5" stroke-linejoin="miter"/>
<polyline fill="none" stroke="currentColor" vector-effect="non-scaling-stroke" stroke-linecap="square" stroke-miterlimit="10" points="1.8,9.6 5.9,8.5 &#10;&#9;4.8,4.4 " stroke-linejoin="miter"/>
<polyline fill="none" stroke="currentColor" vector-effect="non-scaling-stroke" stroke-linecap="square" stroke-miterlimit="10" points="19.2,19.6 &#10;&#9;18.1,15.5 22.2,14.4 " stroke-linejoin="miter"/>
<line fill="none" stroke="currentColor" vector-effect="non-scaling-stroke" stroke-linecap="square" stroke-miterlimit="10" x1="21.5" y1="6.5" x2="2.5" y2="17.5" stroke-linejoin="miter"/>
<polyline fill="none" stroke="currentColor" vector-effect="non-scaling-stroke" stroke-linecap="square" stroke-miterlimit="10" points="22.2,9.6 &#10;&#9;18.1,8.5 19.2,4.4 " stroke-linejoin="miter"/>
<polyline fill="none" stroke="currentColor" vector-effect="non-scaling-stroke" stroke-linecap="square" stroke-miterlimit="10" points="4.8,19.6 &#10;&#9;5.9,15.5 1.8,14.4 " stroke-linejoin="miter"/>
</g></svg>