<svg id="nc_icon" xmlns="http://www.w3.org/2000/svg" xmlns:xlink="http://www.w3.org/1999/xlink" x="0px" y="0px" viewBox="0 0 24 24"><g  transform="translate(0, 0)">
<path fill="none" stroke="currentColor" vector-effect="non-scaling-stroke" stroke-linecap="square" stroke-miterlimit="10" d="M19,16c2.2,0,4-1.8,4-4&#10;&#9;s-1.8-4-4-4l0,0c-0.3-3.9-3.5-7-7.5-7S4.2,4.2,4,8.1c-1.7,0.4-3,2-3,3.9c0,2.2,1.8,4,4,4" stroke-linejoin="miter"/>
<path data-color="color-2" fill="none" stroke="currentColor" vector-effect="non-scaling-stroke" stroke-linecap="square" stroke-miterlimit="10" d="M9,20&#10;&#9;c0-1.9,3-5,3-5s3,3.1,3,5c0,1.9-1.5,3-3,3S9,21.9,9,20z" stroke-linejoin="miter"/>
</g></svg>