<svg id="nc_icon" xmlns="http://www.w3.org/2000/svg" xmlns:xlink="http://www.w3.org/1999/xlink" x="0px" y="0px" viewBox="0 0 24 24"><g  transform="translate(0, 0)">
<path data-cap="butt" fill="none" stroke="currentColor" vector-effect="non-scaling-stroke" stroke-miterlimit="10" d="M1,7l2.8-1.7c1.3-0.8,3-0.8,4.3,0.1&#10;&#9;l1.7,1.1c1.3,0.9,3.1,0.9,4.4,0l1.7-1.1c1.3-0.9,3-0.9,4.3-0.1L23,7" stroke-linejoin="miter" stroke-linecap="butt"/>
<path data-cap="butt" fill="none" stroke="currentColor" vector-effect="non-scaling-stroke" stroke-miterlimit="10" d="M1,19.1l2.8-1.7&#10;&#9;c1.3-0.8,3-0.8,4.3,0.1l1.7,1.1c1.3,0.9,3.1,0.9,4.4,0l1.7-1.1c1.3-0.9,3-0.9,4.3-0.1l2.8,1.7" stroke-linejoin="miter" stroke-linecap="butt"/>
<path data-cap="butt" data-color="color-2" fill="none" stroke="currentColor" vector-effect="non-scaling-stroke" stroke-miterlimit="10" d="M1,13l2.8-1.7&#10;&#9;c1.3-0.8,3-0.8,4.3,0.1l1.7,1.1c1.3,0.9,3.1,0.9,4.4,0l1.7-1.1c1.3-0.9,3-0.9,4.3-0.1L23,13" stroke-linejoin="miter" stroke-linecap="butt"/>
</g></svg>