<?xml version="1.0" standalone="no"?>
<!DOCTYPE svg PUBLIC "-//W3C//DTD SVG 1.1//EN" "http://www.w3.org/Graphics/SVG/1.1/DTD/svg11.dtd" >
<svg xmlns="http://www.w3.org/2000/svg">
<metadata></metadata>
<defs>
<font id="europalight" horiz-adv-x="1060" >
<font-face units-per-em="2048" ascent="1548" descent="-500" />
<missing-glyph horiz-adv-x="557" />
<glyph horiz-adv-x="0" />
<glyph horiz-adv-x="682" />
<glyph unicode=" "  horiz-adv-x="557" />
<glyph unicode="&#x09;" horiz-adv-x="557" />
<glyph unicode="&#xa0;" horiz-adv-x="557" />
<glyph unicode="!" horiz-adv-x="524" d="M180 57q0 35 24 59q23 23 58 23q36 0 59 -23t23 -59q0 -35 -23 -58q-24 -24 -59 -24q-34 0 -58 24t-24 58zM209 371v1063h106v-1063h-106z" />
<glyph unicode="&#x22;" horiz-adv-x="684" d="M164 946v488h102v-488h-102zM418 946v488h102v-488h-102z" />
<glyph unicode="#" horiz-adv-x="1298" d="M104 487v99h277l41 295h-266v98h278l70 485l100 -14l-67 -471h288l70 485l100 -14l-67 -471h270v-98h-283l-41 -295h273v-99h-287l-72 -516l-100 15l70 501h-289l-72 -516l-100 15l70 501h-263zM483 586h289l41 295h-289z" />
<glyph unicode="$" horiz-adv-x="1187" d="M162 268l96 58q17 -44 46 -85q28 -40 71 -76q37 -31 91 -56q51 -23 109 -29v614q-73 33 -138 72q-63 38 -113 88t-77 108q-28 61 -28 132q0 59 22 123q21 61 65 111t111 85q68 36 158 43v166h89v-166q63 -6 112 -26q53 -21 97 -50q49 -32 79 -62q35 -35 56 -65l-82 -63 q-34 51 -105 101q-71 49 -157 61v-582l28 -12q172 -73 256 -166q86 -95 86 -234q0 -81 -28 -146q-29 -67 -78 -116q-50 -50 -117 -80q-72 -32 -147 -39v-165h-89v165q-73 4 -140 32q-65 27 -120 69q-50 39 -93 91q-37 46 -60 99zM326 1100q0 -104 69 -170q70 -67 180 -119 v541q-116 -12 -183 -82q-66 -69 -66 -170zM664 84q111 16 188 87q76 70 76 187q0 56 -22 103q-21 46 -57 80q-37 36 -84 62q-55 31 -101 52v-571z" />
<glyph unicode="%" horiz-adv-x="1458" d="M66 1141q0 69 25 125t69 100q45 45 101 68q59 24 126 24t126 -24q56 -23 101 -68q44 -44 69 -100q26 -58 26 -125t-26 -125t-69 -101t-101 -67q-61 -25 -126 -25t-126 25q-58 24 -101 67t-69 101q-25 56 -25 125zM164 1141q0 -49 17 -87q19 -43 47 -71q30 -30 71 -48 q38 -17 88 -17t88 17q41 18 71 48q28 28 47 71q17 38 17 87q0 48 -17 86q-19 43 -47 71q-31 31 -71 49q-38 17 -88 17t-88 -17q-40 -18 -71 -49q-28 -28 -47 -71q-17 -38 -17 -86zM186 -6l973 1495l72 -49l-973 -1495zM750 293q0 69 25 125t69 100q45 45 101 68 q59 24 126 24t126 -24q56 -23 101 -68q44 -44 69 -100q26 -58 26 -125t-26 -125q-25 -56 -69 -100q-45 -45 -101 -68q-61 -25 -126 -25t-126 25q-56 23 -101 68q-44 44 -69 100t-25 125zM848 293q0 -49 17 -87q19 -43 47 -71q30 -30 71 -48q38 -17 88 -17t88 17q41 18 71 48 q28 28 47 71q17 38 17 87q0 48 -17 86q-20 45 -47 72q-30 30 -71 48q-38 17 -88 17t-88 -17q-41 -18 -71 -48q-27 -27 -47 -72q-17 -38 -17 -86z" />
<glyph unicode="&#x26;" horiz-adv-x="1431" d="M156 317q0 62 24 113q22 47 72 100q46 49 114 103l152 119l-111 102q-52 49 -85 92q-36 47 -55 92t-19 103q0 62 24 119q23 56 72 101q46 43 114 71q64 26 150 26q87 0 151 -26q66 -27 113 -71q49 -45 72 -104q25 -62 25 -124q0 -47 -16 -92q-15 -42 -50 -86 q-36 -45 -89 -94q-55 -50 -134 -116l403 -360q14 22 27 64q15 49 21 94q8 53 12 115q4 56 4 128h104q0 -75 -8 -152q-7 -68 -20 -134q-12 -61 -29 -109q-17 -49 -33 -76l262 -233l-67 -80l-252 225q-40 -50 -88 -92q-51 -45 -117 -81q-67 -36 -142 -57q-80 -22 -165 -22 q-96 0 -176 27q-81 27 -138 73q-61 49 -91 108q-31 62 -31 134zM266 322q0 -58 28 -105q28 -46 74 -76q49 -32 106 -46q60 -15 126 -15q77 0 141 19q62 18 119 51q51 29 96 68q43 37 72 77l-436 391l-142 -111q-67 -52 -102 -87q-41 -41 -61 -78q-21 -39 -21 -88zM356 1143 q0 -54 25 -101q23 -43 62 -85q28 -31 82 -75q42 -35 83 -71l107 87q53 46 79 77q30 36 49 75q17 35 17 85q0 98 -69 158q-70 61 -183 61q-112 0 -182 -61t-70 -150z" />
<glyph unicode="'" horiz-adv-x="307" d="M102 946v488h103v-488h-103z" />
<glyph unicode="(" horiz-adv-x="630" d="M135 604q0 136 23 260q23 125 64 233q42 111 102 219q59 106 133 218l86 -59q-63 -95 -123 -199q-54 -93 -94 -200q-39 -104 -60 -219q-20 -110 -20 -253q0 -145 20 -254q21 -115 60 -218q40 -106 94 -201q52 -91 123 -197l-86 -60q-74 112 -133 218t-102 220 q-41 109 -64 232q-23 124 -23 260z" />
<glyph unicode=")" horiz-adv-x="630" d="M88 -266l86 -60q74 112 133 218t102 220q41 109 64 232q23 124 23 260t-23 260q-23 125 -64 233q-42 111 -102 219q-59 106 -133 218l-86 -59q63 -95 123 -199q54 -93 94 -200q39 -104 60 -219q20 -110 20 -253q0 -145 -20 -254q-21 -115 -60 -218q-40 -106 -94 -201 q-52 -91 -123 -197z" />
<glyph unicode="*" horiz-adv-x="815" d="M63 1176l25 77l279 -90v295h82v-295l278 90l25 -77l-273 -89l168 -233l-67 -49l-172 235l-170 -235l-68 49l168 231z" />
<glyph unicode="+" horiz-adv-x="1064" d="M70 438h411v-438h103v438h411v99h-411v421h-103v-421h-411v-99z" />
<glyph unicode="," horiz-adv-x="448" d="M66 -301l170 481l98 -35l-174 -479z" />
<glyph unicode="-" horiz-adv-x="681" d="M68 436v99h546v-99h-546z" />
<glyph unicode="." horiz-adv-x="434" d="M135 57q0 35 24 59q23 23 58 23t58 -23q24 -24 24 -59q0 -34 -24 -58t-58 -24t-58 24t-24 58z" />
<glyph unicode="/" horiz-adv-x="993" d="M39 -219l811 1841l88 -39l-811 -1841z" />
<glyph unicode="0" horiz-adv-x="1212" d="M86 717q0 141 30 274t93 237q63 103 163 167q99 63 236 63t236 -63q97 -62 161 -167q61 -101 92 -237q29 -129 29 -274q0 -144 -29 -273q-30 -134 -92 -237q-64 -106 -161 -168q-101 -64 -236 -64t-236 64q-100 64 -163 167q-63 104 -93 236q-30 133 -30 275zM197 717 q0 -118 23 -227q24 -113 73 -204q50 -93 127 -149q78 -57 188 -57q111 0 188 57q76 57 126 149q48 89 71 204q23 117 23 227q0 109 -23 226q-23 116 -71 205q-49 91 -126 148q-78 58 -188 58q-109 0 -188 -58q-78 -57 -127 -148q-49 -90 -73 -205q-23 -109 -23 -226z" />
<glyph unicode="1" horiz-adv-x="794" d="M57 1130l379 304h88v-1434h-106v1282l-297 -233z" />
<glyph unicode="2" horiz-adv-x="1089" d="M109 1143q16 50 53 111q34 57 87 102q54 46 123 74t163 28q93 0 172 -32q77 -31 132 -86q54 -54 84 -126q29 -70 29 -153q0 -67 -18 -126q-17 -56 -46 -107q-24 -43 -58 -87q-19 -25 -50 -69l-454 -574h645v-98h-856l544 686q32 41 60 74q30 35 59 84q27 46 45 97 q19 55 19 114q0 61 -21 115q-22 58 -58 96q-36 39 -95 64q-57 24 -131 24q-73 0 -128 -23q-58 -24 -94 -59q-38 -36 -64 -81q-24 -41 -40 -87z" />
<glyph unicode="3" horiz-adv-x="1114" d="M98 289l101 49q18 -50 48 -97q31 -48 72 -82q45 -37 101 -58q57 -21 131 -21q72 0 131 20q62 21 106 61q46 42 71 97q26 58 26 129q0 124 -79 206q-80 83 -241 83h-84v106h74q67 0 125 22q55 21 94 60q41 41 61 90q21 51 21 113q0 129 -85 208t-218 79q-61 0 -111 -18 t-86 -47q-35 -28 -63 -67q-24 -34 -41 -79l-98 41q18 50 52 97q35 49 83 88q52 42 114 65q66 24 150 24q87 0 164 -30t130 -80q56 -53 85 -123q31 -74 31 -154q0 -65 -18 -117q-19 -55 -46 -95q-30 -44 -64 -74q-35 -31 -73 -52q101 -33 165 -124t64 -226q0 -94 -35 -172 q-33 -74 -95 -128q-61 -53 -141 -80q-84 -28 -171 -28q-95 0 -171 29q-72 27 -130 73q-54 42 -92 100q-37 56 -58 112z" />
<glyph unicode="4" horiz-adv-x="1105" d="M4 408l739 1026h103v-928h198v-98h-198v-408h-107v408h-735zM195 506h544v758z" />
<glyph unicode="5" horiz-adv-x="1177" d="M143 270l97 54q17 -41 48 -86q31 -44 73 -78q46 -36 101 -58q56 -22 126 -22q78 0 142 26q68 28 116 76q50 50 78 117q28 66 28 150q0 82 -26 146q-28 68 -75 115q-48 48 -116 75q-70 28 -147 28q-62 0 -117 -15q-54 -15 -103 -39q-51 -25 -88 -53q-39 -29 -71 -61v789 h792v-99h-686v-493q48 25 117 50q73 26 166 26q96 0 181 -33q86 -33 148 -94q60 -59 99 -149q37 -86 37 -193q0 -109 -38 -199t-103 -149q-66 -60 -152 -93t-180 -33q-85 0 -158 26q-67 24 -128 67q-52 37 -96 94q-42 54 -65 108z" />
<glyph unicode="6" horiz-adv-x="1122" d="M106 436q0 125 70 260q20 38 60 106l107 183l139 235l155 257l86 -56l-348 -569q25 14 75 31q47 16 121 16q105 0 189 -39t142 -103q58 -65 90 -147q32 -84 32 -168t-31 -169q-30 -82 -89 -149q-61 -69 -144 -108q-87 -41 -195 -41q-107 0 -194 41q-86 41 -145 107 q-60 68 -89 147q-31 85 -31 166zM217 446q0 -80 27 -146q29 -70 72 -116q45 -48 110 -76t139 -28q75 0 140 28q63 27 109 76t73 115q26 64 26 143q0 81 -26 143q-27 65 -73 111q-48 48 -111 73q-66 26 -140 26q-71 0 -137 -25q-63 -24 -110 -71q-45 -45 -72 -110t-27 -143z " />
<glyph unicode="7" horiz-adv-x="1040" d="M106 1335v99h930l-753 -1457l-90 50l677 1308h-764z" />
<glyph unicode="8" horiz-adv-x="1155" d="M131 397q0 130 66 226q67 98 163 143q-35 20 -69 52q-35 34 -58 72q-22 37 -38 88q-15 48 -15 101q0 70 27 139q27 68 78 121t125 86t168 33q93 0 167 -33t125 -86t78 -121q27 -69 27 -139q0 -56 -14 -101q-15 -47 -39 -88q-23 -38 -58 -72q-34 -32 -69 -52 q96 -45 163 -143q66 -96 66 -226q0 -87 -33 -163q-34 -78 -91 -134q-58 -57 -140 -91q-81 -34 -182 -34q-102 0 -183 34q-82 34 -140 91q-57 56 -91 134q-33 76 -33 163zM242 395q0 -67 24 -126q23 -55 69 -100q43 -42 105 -66q59 -23 138 -23q78 0 137 23q61 24 105 66 q46 45 69 100q24 59 24 126t-24 126q-24 58 -69 100q-43 40 -105 64q-61 24 -137 24t-138 -24t-105 -64q-45 -42 -69 -100q-24 -59 -24 -126zM291 1081q0 -66 22 -116q23 -51 63 -87q43 -38 91 -55q51 -18 111 -18q56 0 109 18q49 17 92 55q41 36 63 87q22 50 22 116 q0 68 -22 116q-23 51 -63 85q-42 36 -92 53q-55 19 -109 19q-57 0 -111 -19q-49 -17 -91 -53q-40 -34 -63 -85q-22 -48 -22 -116z" />
<glyph unicode="9" horiz-adv-x="1122" d="M98 993q0 79 31 166q30 83 89 150q57 64 144 107q86 42 195 42q108 0 195 -41q85 -40 144 -107t89 -149q31 -85 31 -164q0 -125 -70 -260q-22 -43 -143 -253l-305 -521l-86 55l336 564q-25 -14 -75 -31q-47 -16 -122 -16q-108 0 -189 39q-83 40 -142 105q-58 65 -90 147 q-32 84 -32 167zM209 991q0 -77 27 -142q29 -69 72 -112q46 -47 111 -72q66 -26 140 -26q71 0 137 25q65 25 110 70q46 46 73 111q26 62 26 144q0 81 -26 145q-27 66 -73 115q-47 50 -110 77q-65 28 -139 28t-139 -28q-63 -27 -110 -77q-44 -47 -72 -115q-27 -66 -27 -143z " />
<glyph unicode=":" horiz-adv-x="450" d="M143 57q0 35 24 59q23 23 58 23q36 0 59 -23t23 -59q0 -35 -23 -58q-24 -24 -59 -24q-34 0 -58 24t-24 58zM143 877q0 34 24 58q23 23 58 23q36 0 59 -23t23 -58q0 -36 -23 -59t-59 -23q-35 0 -58 23q-24 24 -24 59z" />
<glyph unicode=";" horiz-adv-x="448" d="M66 -301l170 481l98 -35l-174 -479zM152 877q0 35 23 58t58 23q36 0 59 -23t23 -58q0 -36 -23 -59t-59 -23q-35 0 -58 23t-23 59z" />
<glyph unicode="&#x3c;" horiz-adv-x="1064" d="M25 500v110l946 406v-107l-834 -354l834 -354v-107z" />
<glyph unicode="=" horiz-adv-x="1064" d="M113 309v99h839v-99h-839zM113 588v98h839v-98h-839z" />
<glyph unicode="&#x3e;" horiz-adv-x="1064" d="M94 94l946 406v110l-946 406v-107l834 -354l-834 -354v-107z" />
<glyph unicode="?" horiz-adv-x="978" d="M63 1163q39 133 144 214t258 81q87 0 159 -26q75 -27 130 -76q56 -50 87 -118t31 -153q0 -93 -33 -153q-36 -66 -83 -113q-44 -44 -104 -89q-59 -44 -95 -79q-12 -12 -15 -17q-5 -9 -8 -18q-4 -14 -4 -25v-40v-182h-106v184q0 52 1 68q2 28 8 43q7 16 21 32q8 9 38 37 q63 52 97 76q48 35 86 74q39 40 62 87q25 50 25 113q0 56 -20 107q-19 50 -56 86q-36 36 -92 57t-125 21q-73 0 -125 -21q-55 -22 -90 -53q-37 -32 -58 -72q-22 -41 -32 -78zM395 57q0 35 24 59q23 23 58 23q36 0 59 -23t23 -59q0 -35 -23 -58q-24 -24 -59 -24q-34 0 -58 24 t-24 58z" />
<glyph unicode="@" horiz-adv-x="1636" d="M98 717q0 153 59 289t158 235q101 101 237 159q135 58 294 58q152 0 278 -55q128 -55 219 -153q94 -100 144 -231q51 -134 51 -294q0 -129 -32 -213q-31 -81 -78 -128q-45 -45 -98 -62q-54 -17 -91 -17q-53 0 -107 31q-52 30 -63 108q-39 -54 -113 -97q-72 -42 -159 -42 q-46 0 -102 16q-51 15 -96 47q-46 33 -72 81q-27 50 -27 114q0 62 25 111t69 82q42 32 98 50q52 17 115 17q84 0 146 -28q63 -28 104 -62v60q0 69 -21 115q-22 48 -52 74q-32 28 -74 38q-40 10 -85 10q-78 0 -137 -23q-57 -22 -104 -53l-43 78q55 32 125 58q71 26 161 26 q149 0 234 -82q86 -83 86 -217v-334q0 -41 21 -66q21 -26 75 -26q30 0 63 11q35 12 67 47q31 35 54 99q23 66 23 173q0 147 -45 267t-125 206q-79 85 -191 132q-110 46 -245 46q-141 0 -261 -51t-208 -139q-89 -89 -138 -208q-51 -124 -51 -255t51 -255q50 -121 138 -209 q89 -89 209 -141q123 -53 262 -53q115 0 208 29q92 28 144 57l35 -75q-68 -37 -163 -66q-102 -31 -222 -31q-156 0 -294 59q-136 58 -238 159q-100 98 -159 235q-59 136 -59 289zM590 563q0 -73 59 -122q61 -50 160 -50q97 0 155 45q57 44 93 103v104q-40 36 -99 65 q-58 29 -145 29q-60 0 -102 -16t-70 -41q-26 -23 -39 -55q-12 -30 -12 -62z" />
<glyph unicode="A" horiz-adv-x="1310" d="M25 0l571 1434h119l571 -1434h-115l-163 418h-705l-164 -418h-114zM344 516h623l-312 799z" />
<glyph unicode="B" horiz-adv-x="1128" d="M180 0v1434h389q91 0 167 -26q75 -25 128 -74q54 -49 83 -116q30 -69 30 -155q0 -81 -24 -138q-25 -59 -53 -94q-29 -36 -57 -55q-27 -18 -36 -20q1 0 48 -21q38 -17 85 -59q45 -40 80 -111q35 -70 35 -174q0 -175 -113 -283q-112 -108 -321 -108h-441zM287 98h323 q93 0 159 26q64 25 103 66t56 94q16 51 16 105q0 56 -16 107q-16 52 -54 96q-37 43 -95 70q-56 26 -140 26h-352v-590zM287 786h301q72 0 126 23q52 22 86 59q33 36 50 86q16 48 16 105q0 127 -80 202q-78 74 -227 74h-272v-549z" />
<glyph unicode="C" horiz-adv-x="1378" d="M90 717q0 157 52 291t147 235q96 102 224 158q131 57 286 57q158 0 286 -58q129 -59 224 -161l-76 -70q-80 87 -189 136q-110 49 -245 49q-132 0 -244 -50q-105 -47 -189 -137q-78 -84 -122 -202q-43 -116 -43 -248q0 -135 43 -249q45 -119 122 -202q82 -88 188 -136 q111 -50 243 -50q145 0 263 57q114 55 195 150l74 -74q-95 -112 -230 -174q-139 -64 -300 -64q-153 0 -286 58q-130 57 -224 157t-147 236q-52 134 -52 291z" />
<glyph unicode="D" horiz-adv-x="1370" d="M180 0v1434h391q153 0 286 -55q128 -53 224 -149q94 -94 147 -226q52 -129 52 -287t-52 -287q-53 -132 -147 -226q-98 -98 -224 -150q-131 -54 -286 -54h-391zM287 98h264q141 0 256 44t194 126q81 85 124 196q44 115 44 253t-44 253q-42 110 -124 195q-79 82 -194 126 t-256 44h-264v-1237z" />
<glyph unicode="E" horiz-adv-x="1101" d="M180 0v1434h795v-99h-688v-551h639v-98h-639v-588h700v-98h-807z" />
<glyph unicode="F" horiz-adv-x="1067" d="M180 0v1434h785v-103h-678v-547h637v-98h-637v-686h-107z" />
<glyph unicode="G" horiz-adv-x="1482" d="M90 715q0 157 52 292q51 134 146 236q93 101 224 158t291 57q81 0 158 -15q74 -14 141 -42q63 -26 121 -65q54 -37 94 -81l-76 -71q-68 77 -184 123q-118 47 -254 47q-138 0 -248 -49q-108 -48 -189 -137q-78 -86 -122 -203q-43 -116 -43 -252q0 -133 41 -248 q42 -118 119 -201q79 -86 192 -135q111 -49 254 -49q51 0 117 8q52 6 120 25q60 17 114 42q53 25 97 60v438h-391v101h496v-586q-53 -48 -122 -85q-60 -33 -139 -59q-71 -24 -148 -36q-81 -13 -146 -13q-162 0 -295 58q-131 57 -225 157q-96 102 -145 236q-50 136 -50 289z " />
<glyph unicode="H" horiz-adv-x="1398" d="M180 0v1434h107v-650h825v650h107v-1434h-107v686h-825v-686h-107z" />
<glyph unicode="I" horiz-adv-x="524" d="M209 0v1434h106v-1434h-106z" />
<glyph unicode="J" horiz-adv-x="954" d="M27 182l82 68q39 -66 110 -118t180 -52q70 0 121 24q50 24 84 68t48 99q16 61 16 118v1045h106v-1045q0 -98 -28 -177q-27 -76 -77 -129t-119 -80q-72 -28 -149 -28q-66 0 -128 19q-57 17 -104 48q-46 30 -82 67q-40 42 -60 73z" />
<glyph unicode="K" horiz-adv-x="1165" d="M180 0v1434h107v-691l637 691h139l-649 -703l751 -731h-153l-725 702v-702h-107z" />
<glyph unicode="L" horiz-adv-x="999" d="M180 0v1434h107v-1336h684v-98h-791z" />
<glyph unicode="M" horiz-adv-x="1658" d="M180 0v1434h101l548 -881l549 881h101v-1434h-107v1223l-543 -865l-544 863v-1221h-105z" />
<glyph unicode="N" horiz-adv-x="1454" d="M180 0v1434h107l880 -1250v1250h107v-1434h-107l-880 1253v-1253h-107z" />
<glyph unicode="O" horiz-adv-x="1597" d="M90 717q0 155 53 291q51 131 149 235q95 101 224 158t283 57q153 0 282 -57q131 -58 225 -158q97 -103 148 -235q53 -136 53 -291t-53 -291t-147 -236t-225 -157q-133 -58 -283 -58q-151 0 -284 58q-130 57 -224 157q-96 102 -148 236q-53 136 -53 291zM201 717 q0 -135 43 -249q45 -119 122 -202q82 -88 188 -136q111 -50 245 -50q133 0 244 50q108 49 189 136q77 83 122 202q43 114 43 249q0 132 -43 248q-44 118 -122 202q-83 89 -189 137q-111 50 -244 50q-134 0 -245 -50q-105 -47 -188 -137q-78 -84 -122 -202q-43 -116 -43 -248 z" />
<glyph unicode="P" horiz-adv-x="1052" d="M180 0v1434h367q103 0 188 -32q86 -32 143 -88q60 -58 90 -132q31 -75 31 -164t-31 -164q-30 -74 -90 -132q-57 -56 -143 -88q-85 -32 -188 -32h-260v-602h-107zM287 700h262q75 0 138 24q64 24 108 64t69 100q25 61 25 130q0 66 -25 129q-24 59 -69 100q-46 41 -108 65 q-60 23 -138 23h-262v-635z" />
<glyph unicode="Q" horiz-adv-x="1615" d="M90 717q0 157 52 291t147 235q96 102 224 158q131 57 286 57t285 -57t225 -158q93 -99 146 -235q52 -134 52 -289q0 -149 -46 -275q-46 -127 -128 -225l205 -182l-65 -78l-211 186q-92 -80 -209 -125t-254 -45q-153 0 -286 58q-130 57 -224 157t-147 236q-52 134 -52 291 zM201 717q0 -135 43 -249q45 -119 122 -202q82 -88 189 -136q112 -50 244 -50q115 0 211 36q97 36 172 101l-277 248l68 80l280 -254q69 87 106 194q38 109 38 232q0 132 -43 248q-44 118 -122 202q-83 89 -190 137q-112 50 -243 50q-132 0 -244 -50q-105 -47 -189 -137 q-78 -84 -122 -202q-43 -116 -43 -248z" />
<glyph unicode="R" horiz-adv-x="1099" d="M180 0v1434h346q112 0 197 -30q86 -30 146 -84q63 -57 92 -130q30 -76 30 -166q0 -114 -44 -188q-44 -75 -103 -119q-61 -46 -123 -65q-58 -18 -100 -23l409 -629h-129l-401 623h-213v-623h-107zM287 725h245q162 0 255 81q94 82 94 222q0 141 -95 222q-94 81 -254 81 h-245v-606z" />
<glyph unicode="S" horiz-adv-x="1097" d="M111 268l96 58q23 -55 53 -94q30 -40 77 -77q42 -34 99 -55q53 -20 123 -20q65 0 122 19q56 19 101 56q44 36 69 87q26 52 26 116q0 68 -27 116q-26 47 -72 85t-103 66l-122 57q-76 34 -143 72q-73 41 -123 87q-54 49 -86 109q-33 61 -33 142q0 62 25 131q23 64 73 117 q49 52 123 85t172 33q72 0 132 -18q59 -18 110 -47q49 -29 87 -66q39 -39 66 -76l-82 -63q-23 33 -50 60q-31 31 -67 54q-32 20 -87 37q-50 15 -107 15q-129 0 -210 -73q-79 -72 -79 -183q0 -65 28 -113q27 -47 77 -86q48 -38 117 -73q56 -29 145 -68q93 -43 150 -79 q63 -40 106 -88q44 -49 65 -104q21 -56 21 -125q0 -87 -33 -159q-33 -73 -90 -122q-60 -52 -134 -78q-79 -28 -165 -28q-87 0 -159 26q-67 24 -127 67q-54 39 -97 94q-37 49 -67 106z" />
<glyph unicode="T" horiz-adv-x="1036" d="M33 1335v99h971v-99h-433v-1335h-106v1335h-432z" />
<glyph unicode="U" horiz-adv-x="1380" d="M180 539v895h107v-885q0 -107 22 -191q22 -85 72 -148q48 -61 126 -96q75 -34 183 -34t183 34q78 35 126 96q50 63 72 148q23 87 23 191v885h106v-895q0 -127 -34 -229q-35 -105 -98 -178q-65 -75 -160 -116q-96 -41 -218 -41t-218 41q-95 41 -160 116q-63 73 -98 178 q-34 102 -34 229z" />
<glyph unicode="V" horiz-adv-x="1220" d="M12 1434h115l485 -1219l486 1219h110l-598 -1475z" />
<glyph unicode="W" horiz-adv-x="1923" d="M8 1434h115l418 -1172l366 1172h109l373 -1172l413 1172h113l-529 -1475l-423 1298l-426 -1298z" />
<glyph unicode="X" horiz-adv-x="1202" d="M43 0l496 739l-463 695h129l397 -609l399 609h125l-462 -695l495 -739h-129l-430 653l-432 -653h-125z" />
<glyph unicode="Y" horiz-adv-x="1163" d="M33 1434h123l428 -762l428 762h118l-495 -871v-563h-107v563z" />
<glyph unicode="Z" horiz-adv-x="1155" d="M49 0l873 1335h-826v99h1010l-873 -1336h842v-98h-1026z" />
<glyph unicode="[" horiz-adv-x="630" d="M174 -471v1987h344v-99h-237v-1790h237v-98h-344z" />
<glyph unicode="\" horiz-adv-x="993" d="M55 1583l88 39l811 -1841l-88 -39z" />
<glyph unicode="]" horiz-adv-x="628" d="M172 -373h238v1790h-238v99h344v-1987h-344v98z" />
<glyph unicode="^" horiz-adv-x="1097" d="M78 717l422 831h98l422 -831h-123l-348 706l-352 -706h-119z" />
<glyph unicode="_" horiz-adv-x="1024" d="M86 -365h852v-106h-852v106z" />
<glyph unicode="`" horiz-adv-x="540" d="M47 1346l80 75l305 -305l-72 -67z" />
<glyph unicode="a" horiz-adv-x="1034" d="M98 289q0 76 32 137q30 57 84 99q51 40 120 61q64 20 139 20q76 0 155 -20q82 -21 152 -68v70q0 86 -28 138q-28 51 -70 81q-41 29 -90 38q-50 9 -88 9q-78 0 -158 -24q-82 -25 -145 -62l-47 92q51 32 145 66q89 32 207 32q96 0 168 -27q70 -26 119 -75q45 -45 70 -110 q24 -63 24 -134v-612h-96v162q-66 -90 -159 -138q-95 -49 -190 -49q-62 0 -123 21q-62 21 -110 59q-50 39 -80 98q-31 60 -31 136zM209 289q0 -53 22 -93q23 -40 60 -66q39 -27 82 -38q45 -12 90 -12q54 0 101 16q49 17 88 43q40 27 73 61q33 35 55 68v158q-53 35 -131 56 q-82 22 -153 22q-54 0 -105 -12q-52 -12 -92 -39q-42 -28 -66 -68q-24 -41 -24 -96z" />
<glyph unicode="b" horiz-adv-x="1161" d="M180 0v1548h105v-762q6 12 32 43q24 28 66 58t100 50q60 21 140 21q100 0 182 -35q83 -36 147 -101q65 -67 100 -155q35 -89 35 -200t-35 -200q-35 -90 -99 -155q-65 -66 -147 -101q-85 -36 -181 -36q-62 0 -120 16q-53 15 -98 41q-46 27 -77 58q-32 32 -54 68v-158h-96z M287 279q21 -38 52 -73q33 -38 74 -64q42 -27 93 -45q48 -17 112 -17q81 0 147 30q71 32 114 81q47 53 72 123q26 72 26 153t-26 153q-25 69 -72 122q-45 51 -114 82q-66 30 -147 30q-64 0 -112 -17q-51 -18 -93 -45q-41 -26 -74 -64q-31 -35 -52 -73v-376z" />
<glyph unicode="c" horiz-adv-x="983" d="M74 467q0 100 36 190q37 93 100 157q67 68 151 106q85 38 192 38q70 0 125 -16t105 -41q47 -23 84 -56q35 -31 61 -63l-76 -67q-39 49 -115 94q-77 45 -182 45q-83 0 -153 -32q-66 -30 -116 -85q-47 -51 -75 -123q-27 -69 -27 -147q0 -79 27 -148q27 -70 75 -122 q50 -55 116 -85q70 -32 153 -32q111 0 190 50q78 49 119 106l74 -70q-56 -74 -153 -132q-98 -59 -232 -59q-105 0 -192 39q-84 38 -151 106q-63 65 -100 155q-36 89 -36 192z" />
<glyph unicode="d" horiz-adv-x="1161" d="M74 467q0 109 36 200q36 92 98 155q65 66 146 101q82 35 178 35q81 0 140 -22q56 -21 101 -53q39 -28 68 -62q25 -30 36 -45v772h104v-1548h-96v172q-22 -34 -55 -70t-74 -63q-42 -28 -100 -46q-57 -18 -124 -18q-94 0 -178 36q-81 35 -146 101q-62 63 -98 155 q-36 91 -36 200zM184 467q0 -81 26 -153q25 -69 73 -123q44 -50 111 -81q64 -30 143 -30q65 0 116 19t96 51q41 29 73 69q30 37 52 78v340q-23 42 -54 80t-74 69q-48 34 -94 50q-53 18 -113 18q-78 0 -144 -30t-112 -82q-49 -55 -73 -122q-26 -72 -26 -153z" />
<glyph unicode="e" d="M74 471q0 99 34 186q36 92 93 155q62 68 143 107t184 39q100 0 181 -36q83 -37 145 -102q61 -64 97 -155t36 -198v-21v-3.5t-0.5 -5t-1 -6.5t-0.5 -7h-805q1 -52 27 -116q24 -60 71 -110t113 -84q67 -34 158 -34q56 0 104 13q49 13 90 36q43 24 73 51q29 26 56 60l72 -74 q-72 -86 -175 -138q-104 -53 -222 -53q-103 0 -189 39t-149 107q-63 67 -99 158q-36 90 -36 192zM184 522h693q-1 34 -21 96q-18 57 -59 110q-39 50 -107 89q-65 37 -160 37t-160 -38q-66 -39 -106 -90q-42 -54 -59 -109q-20 -63 -21 -95z" />
<glyph unicode="f" horiz-adv-x="661" d="M47 836v98h201v366q0 69 21 118q21 50 59 85q37 34 86 52t104 18q26 0 69 -8q36 -7 95 -37l-45 -92q-11 7 -48 21q-29 11 -75 11q-86 0 -123 -55t-37 -141v-338h246v-98h-246v-836h-106v836h-201z" />
<glyph unicode="g" horiz-adv-x="1128" d="M74 467q0 109 36 200q35 90 99 155q63 65 146 101q80 35 180 35q70 0 122 -17q58 -19 100 -45q46 -28 76 -63q29 -33 52 -71v172h96v-957q0 -110 -33 -197q-33 -88 -93 -149q-59 -61 -144 -94q-84 -33 -185 -33q-74 0 -140 17q-63 16 -119 44q-54 27 -97 61 q-45 36 -74 69l72 76q27 -32 58 -59q34 -29 79 -52q42 -21 101 -37q52 -14 120 -14q88 0 154 27q62 25 108 76q44 48 65 115q21 66 21 146v183q-8 -11 -36 -46q-22 -27 -66 -60q-39 -29 -99 -52t-138 -23q-97 0 -180 36t-146 101q-64 65 -99 155q-36 91 -36 200zM184 467 q0 -81 26 -153q26 -70 72 -123q45 -51 111 -81t144 -30q67 0 118 19q50 19 97 51q42 29 73 69q32 42 49 78v340q-17 36 -49 78q-31 40 -73 69q-47 32 -97 51q-51 19 -118 19q-78 0 -144 -30q-64 -29 -111 -82t-72 -122q-26 -72 -26 -153z" />
<glyph unicode="h" horiz-adv-x="1093" d="M180 0v1548h107v-768q18 33 47 65t67 57q41 27 88 41q49 15 109 15q66 0 126 -20q62 -21 112 -66q49 -45 79 -113q31 -71 31 -163v-596h-106v580q0 70 -21 123t-55 87q-33 33 -82 49q-46 15 -98 15q-62 0 -110 -18q-44 -16 -84 -50q-36 -30 -61 -67q-27 -39 -42 -74v-645 h-107z" />
<glyph unicode="i" horiz-adv-x="458" d="M147 1237q0 34 24 58t58 24q35 0 59 -24q23 -23 23 -58t-23 -58q-24 -24 -59 -24q-34 0 -58 24t-24 58zM176 0v934h107v-934h-107z" />
<glyph unicode="j" horiz-adv-x="503" d="M-45 -453l41 93q29 -17 52 -24q22 -7 50 -7q19 0 38 4q23 5 40 19q18 15 32 44q13 27 13 78v1180h107v-1196q0 -64 -21 -109q-21 -46 -52 -72q-33 -28 -71 -40q-42 -13 -78 -13q-48 0 -89 15q-45 17 -62 28zM193 1237q0 35 23 58q24 24 58 24q35 0 59 -24q23 -23 23 -58 t-23 -58q-24 -24 -59 -24q-34 0 -58 24q-23 23 -23 58z" />
<glyph unicode="k" horiz-adv-x="962" d="M180 0v1548h107v-1042l467 428h149l-485 -447l532 -487h-157l-506 467v-467h-107z" />
<glyph unicode="l" horiz-adv-x="466" d="M180 0l4 1548h103v-1548h-107z" />
<glyph unicode="m" horiz-adv-x="1572" d="M147 0v934h97v-158q37 72 109 127q71 55 184 55q91 0 166 -45t114 -137q0 1 2.5 5t8 12.5t10.5 16.5q17 28 54 62t91 60q53 26 133 26q57 0 109 -17q58 -19 99 -57q46 -42 73 -106q28 -65 28 -164v-614h-106v582q0 143 -62 208q-61 64 -159 64q-52 0 -92 -15 q-42 -16 -72 -41q-30 -26 -53 -59q-22 -33 -37 -65v-674h-107v582q0 144 -61 208t-160 64q-52 0 -92 -15t-74 -41q-30 -23 -56 -59q-24 -33 -40 -65v-674h-107z" />
<glyph unicode="n" d="M147 0v934h97v-170q15 27 46 67q29 38 67 64q39 28 93 46q50 17 115 17q66 0 126 -20q62 -21 112 -66q51 -46 80 -113q30 -69 30 -163v-596h-106v580q0 70 -21 123t-55 87q-33 33 -82 49q-46 15 -98 15q-62 0 -110 -18q-44 -16 -84 -50q-36 -30 -61 -67q-27 -39 -42 -74 v-645h-107z" />
<glyph unicode="o" horiz-adv-x="1097" d="M74 467q0 99 35 190t98 157q65 68 150 106t192 38q106 0 191 -38q87 -39 151 -106q63 -66 98 -157t35 -190q0 -102 -35 -192q-34 -88 -98 -155t-151 -106t-191 -39q-105 0 -192 39q-85 38 -150 106q-64 67 -98 155q-35 90 -35 192zM184 467q0 -78 25 -150q24 -69 71 -122 q49 -56 113 -84q70 -31 156 -31t156 31q64 28 113 84q47 53 71 122t24 150q0 80 -24 149q-25 71 -71 123q-49 56 -113 84q-70 31 -156 31t-156 -31q-64 -28 -113 -84q-46 -52 -71 -123q-25 -72 -25 -149z" />
<glyph unicode="p" horiz-adv-x="1128" d="M147 -471v1405h97v-172q24 39 53 71q32 35 77 63q44 27 99 45q52 17 123 17q96 0 178 -35q83 -36 147 -101q62 -63 98 -155q36 -91 36 -200t-36 -200q-36 -92 -98 -155q-64 -65 -147 -101q-84 -36 -178 -36q-76 0 -137 23q-62 23 -101 52q-40 30 -66 60q-31 37 -38 46 v-627h-107zM254 297q23 -45 53 -80q35 -42 75 -70q45 -32 94 -49q52 -18 114 -18q77 0 143 30q69 31 113 81q48 54 73 123t25 153t-25 153q-24 67 -73 122q-45 51 -113 82q-66 30 -143 30q-62 0 -114 -18q-46 -16 -94 -50q-42 -30 -75 -69q-30 -35 -53 -80v-340z" />
<glyph unicode="q" horiz-adv-x="1128" d="M74 467q0 109 36 200q36 92 98 155q65 66 146 101q82 35 178 35q71 0 123 -17q58 -19 100 -45t76 -63q32 -35 54 -71v172h96v-1405h-107v627q-12 -17 -37 -46q-24 -28 -67 -60q-40 -29 -100 -52q-61 -23 -138 -23q-94 0 -178 36q-81 35 -146 101q-62 63 -98 155 q-36 91 -36 200zM184 467q0 -81 26 -153q25 -69 73 -123q45 -50 112 -81q66 -30 144 -30q61 0 113 18q49 17 94 49q40 28 75 70q30 35 53 80v340q-23 45 -53 80q-33 39 -75 69q-48 34 -94 50q-53 18 -113 18q-78 0 -144 -30t-112 -82q-49 -55 -73 -122q-26 -72 -26 -153z " />
<glyph unicode="r" horiz-adv-x="673" d="M147 0v934h97v-152q17 34 42 65q26 33 60 56q37 26 78 40q44 15 96 15q33 0 72 -6q41 -6 70 -18l-46 -103q-20 10 -47 16q-31 7 -67 7q-50 0 -87 -15q-39 -16 -69 -41q-30 -26 -53 -59q-24 -36 -39 -65v-674h-107z" />
<glyph unicode="s" horiz-adv-x="915" d="M76 174l84 72q39 -61 119 -114q79 -52 194 -52q36 0 82 8q39 7 80 28q34 18 60 50q24 30 24 78q0 39 -20 67q-19 27 -55 46q-35 19 -83 33q-53 15 -102 26q-68 16 -130 38t-106 54q-45 33 -70 76q-26 44 -26 102q0 57 22 105t66 86q42 36 104 59q60 22 140 22 q112 0 195 -38q84 -38 137 -93l-70 -77q-33 33 -105 70q-67 34 -159 34q-97 0 -159 -43t-62 -119q0 -43 21 -70q22 -28 59 -49q32 -18 89 -33l111 -28q68 -17 119 -34q55 -19 100 -50q43 -30 69 -74q25 -43 25 -106q0 -70 -30 -121q-29 -50 -80 -85q-47 -33 -114 -50 q-66 -17 -132 -17q-71 0 -134 18q-66 19 -113 46q-52 30 -88 63q-39 36 -62 72z" />
<glyph unicode="t" horiz-adv-x="772" d="M57 836v98h203v301h107v-301h317v-98h-317v-564q0 -36 8 -73q7 -34 26 -62q17 -25 50 -42q30 -15 75 -15q49 0 84 14q41 16 60 29l41 -92q-41 -24 -94 -41q-47 -15 -99 -15q-61 0 -111 22q-47 21 -81 59q-33 38 -50 88q-16 48 -16 108v584h-203z" />
<glyph unicode="u" d="M147 338v596h107v-580q0 -73 19 -124q18 -49 55 -86q33 -33 82 -49q46 -15 100 -15q64 0 108 17q50 19 83 47q38 32 62 67q29 42 44 74v649h106v-934h-96v166q-41 -74 -120 -132q-80 -59 -201 -59q-65 0 -128 21q-64 21 -112 65t-79 113q-30 68 -30 164z" />
<glyph unicode="v" horiz-adv-x="966" d="M16 934h115l354 -752l355 752h110l-467 -975z" />
<glyph unicode="w" horiz-adv-x="1523" d="M20 934h115l303 -731l297 731h62l295 -731l301 731h110l-418 -975l-323 780l-326 -780z" />
<glyph unicode="x" horiz-adv-x="999" d="M53 0l383 481l-356 453h131l289 -379l288 379h132l-357 -453l383 -481h-131l-315 406l-316 -406h-131z" />
<glyph unicode="y" horiz-adv-x="1001" d="M29 934h114l406 -838l325 838h111l-237 -598l-90 -225l-79 -200l-60 -148l-27 -68q-40 -103 -100 -148q-58 -43 -136 -43q-48 0 -96 19q-47 19 -97 63l64 86q22 -22 55 -43q31 -20 76 -20q46 0 79 31q31 29 60 100l97 244z" />
<glyph unicode="z" horiz-adv-x="952" d="M78 0l604 827h-561v107h762l-604 -828h581v-106h-782z" />
<glyph unicode="{" horiz-adv-x="638" d="M80 463v119q38 0 76 6q36 6 65 27q27 20 46 63q18 40 18 110v494q0 65 20 106q21 44 52 72t72 42q42 14 81 14h41v-99h-21q-28 0 -56 -5q-25 -4 -44 -20q-18 -15 -29 -44q-10 -27 -10 -78v-482q0 -80 -18 -131q-17 -49 -49 -79q-29 -28 -69 -39q-42 -12 -77 -13v-8 q40 -2 77 -12q40 -11 69 -39q31 -30 49 -80q18 -51 18 -131v-481q0 -51 10 -78q11 -29 29 -44q20 -17 44 -21q28 -5 56 -5h21v-98h-41q-105 0 -165 57t-60 176v494q0 70 -18 111q-19 42 -46 62q-31 22 -65 28q-38 6 -76 6z" />
<glyph unicode="|" horiz-adv-x="532" d="M213 -471v1987h106v-1987h-106z" />
<glyph unicode="}" horiz-adv-x="638" d="M88 -373h21q28 0 56 5q24 4 44 21q18 15 29 44q10 27 10 78v481q0 80 18 131q18 50 49 80q29 28 69 39q37 10 77 12v8q-35 1 -77 13q-40 11 -69 39q-32 30 -49 79q-18 51 -18 131v482q0 51 -10 78q-11 29 -29 44q-19 16 -44 20q-28 5 -56 5h-21v99h41q38 0 80 -14t73 -42 t52 -72q20 -41 20 -106v-494q0 -70 18 -110q19 -43 46 -63q29 -21 65 -27q38 -6 76 -6v-119q-39 0 -76 -6q-34 -6 -65 -28q-27 -20 -46 -62q-18 -41 -18 -111v-494q0 -119 -60 -176t-165 -57h-41v98z" />
<glyph unicode="~" horiz-adv-x="837" d="M45 639q23 89 85 132q64 44 134 44q52 0 92 -18q37 -17 78 -41q51 -30 71 -41q36 -19 68 -19q42 0 79 30q38 30 48 95l93 -51q-23 -89 -85 -132q-64 -44 -135 -44q-51 0 -92 18q-37 17 -78 41q-57 34 -70 41q-36 19 -69 19q-42 0 -79 -30q-38 -30 -48 -95z" />
<glyph unicode="&#xa1;" horiz-adv-x="524" d="M180 889q0 34 24 58t58 24q35 0 59 -24q23 -23 23 -58q0 -36 -23 -59t-59 -23q-35 0 -58 23q-24 24 -24 59zM209 -487v1062h106v-1062h-106z" />
<glyph unicode="&#xa2;" horiz-adv-x="1187" d="M174 467q0 91 31 178q30 85 87 149q56 64 134 107q76 42 170 53v189h88v-187q63 -5 111 -20q53 -17 97 -41q46 -26 79 -54q33 -29 57 -59l-76 -67q-36 48 -105 88q-72 42 -163 49v-772q94 7 171 55q74 46 110 101l73 -70q-26 -38 -61 -67q-38 -32 -83 -58t-99 -43 q-52 -16 -111 -21v-170h-88v173q-93 11 -170 52q-78 42 -134 107q-57 66 -87 150q-31 87 -31 178zM285 467q0 -71 21 -136q20 -62 63 -116q41 -51 98 -86t129 -45v766q-72 -10 -129 -45q-58 -35 -98 -87q-43 -56 -63 -117q-21 -65 -21 -134z" />
<glyph unicode="&#xa3;" horiz-adv-x="1187" d="M160 647v98h168q-58 102 -89 176q-32 76 -32 150q0 63 24 132q23 67 76 126q51 57 128 93t179 36q75 0 135 -18q61 -18 107 -48q49 -32 82 -66q35 -37 59 -71l-82 -61q-18 27 -45 54q-30 30 -63 51q-38 24 -85 39q-51 16 -108 16q-82 0 -140 -29q-56 -28 -91 -72 q-35 -45 -50 -93q-16 -53 -16 -93q0 -27 9 -65q8 -32 24 -69q14 -31 41 -84q17 -33 60 -104h393v-98h-338q24 -42 44 -97q21 -58 21 -126q0 -69 -20 -119q-21 -53 -51 -86q43 -10 79 -33l71 -46q36 -24 75 -42t88 -18q39 0 69 12q28 11 50 33t33 44q12 25 18 46l90 -45 q-12 -35 -35 -70q-24 -36 -55 -62q-32 -27 -77 -45q-44 -18 -99 -18q-66 0 -117 23q-52 24 -90 49q-31 21 -82 49q-41 23 -92 23q-72 0 -113 -44q-39 -42 -55 -100l-96 52q22 71 76 127q55 57 133 73q47 37 69 97q21 57 21 102q0 56 -26 116q-25 58 -54 105h-221z" />
<glyph unicode="&#xa4;" horiz-adv-x="1150" d="M66 229l137 138q-49 60 -76 134q-27 75 -27 161q0 83 27 158t76 136l-137 138l77 77l138 -137q64 50 134 75q78 28 160 28q81 0 159 -28q70 -25 136 -75l138 137l77 -77l-137 -138q50 -66 75 -136q28 -78 28 -158q0 -83 -28 -161q-25 -70 -75 -134l137 -138l-77 -77 l-138 137q-61 -49 -136 -76t-159 -27q-85 0 -160 27q-74 27 -134 76l-138 -137zM203 659q0 -79 28 -145q28 -67 80 -119t119 -80q66 -28 145 -28t147 28q69 29 119 80q50 52 80 119q29 65 29 145t-29 147q-30 69 -80 119t-119 80q-67 29 -147 29t-145 -29q-67 -30 -119 -80 q-51 -50 -80 -119q-28 -68 -28 -147z" />
<glyph unicode="&#xa5;" horiz-adv-x="1187" d="M45 1434h127l428 -760l424 760h119l-316 -553h289v-97h-342l-78 -135h420v-96h-469v-553h-106v553h-469v96h420l-78 135h-342v97h288z" />
<glyph unicode="&#xa6;" horiz-adv-x="532" d="M213 328h106v-799h-106v799zM213 717v799h106v-799h-106z" />
<glyph unicode="&#xa7;" horiz-adv-x="1040" d="M147 545q0 59 22 108q21 47 56 82q36 36 80 58q42 21 92 34q-35 19 -85 55q-43 31 -73 68q-32 40 -53 86q-20 44 -20 105q0 66 28 125q27 57 76 100q51 45 115 68q66 24 141 24q119 0 205 -53q84 -52 135 -115l-84 -65q-34 48 -97 89q-62 40 -161 40q-61 0 -110 -19 q-47 -18 -78 -49q-30 -30 -45 -69t-15 -78q0 -63 32 -109q32 -45 80 -80q44 -32 106 -61l108 -51q40 -19 103 -54q55 -31 92 -65q41 -38 66 -86q26 -50 26 -117q0 -65 -23 -114q-22 -47 -59 -81q-39 -36 -81 -56q-46 -22 -87 -32q35 -19 85 -55q43 -31 74 -69t52 -85 q20 -44 20 -104q0 -68 -27 -125q-26 -55 -77 -100t-115 -68q-66 -24 -141 -24q-119 0 -205 53q-84 52 -135 115l84 65q34 -48 97 -89q62 -40 161 -40q62 0 111 19q46 18 77 49q30 30 45 68t15 79q0 63 -32 109q-32 45 -80 80q-46 33 -105 61l-109 51q-45 22 -106 56 q-52 29 -91 65q-42 39 -65 86q-25 52 -25 115zM252 549q0 -56 23 -92q24 -37 63 -66q38 -28 88 -52l98 -48q31 1 77 14q42 12 85 37q40 24 70 66q28 40 28 102q0 57 -23 93q-25 39 -62 67q-36 27 -87 52l-100 48h-4q-25 0 -66 -10t-85 -35q-41 -23 -73 -68q-32 -44 -32 -108 z" />
<glyph unicode="&#xa8;" horiz-adv-x="800" d="M133 1237q0 34 24 58t58 24t58 -24t24 -58t-24 -58t-58 -24t-58 24t-24 58zM504 1237q0 35 23 58q24 24 59 24q34 0 58 -24t24 -58t-24 -58t-58 -24q-35 0 -59 24q-23 23 -23 58z" />
<glyph unicode="&#xa9;" horiz-adv-x="1679" d="M102 717q0 153 59 289t158 235q100 100 235 159q132 58 286 58q153 0 285 -58q135 -59 235 -159q101 -101 159 -235t58 -289t-58 -289t-159 -235q-100 -100 -235 -159t-285 -59q-151 0 -286 59t-235 159q-99 99 -158 235t-59 289zM190 721q0 -131 49 -253 q48 -120 135 -210t206 -143q122 -54 260 -54t260 54q119 53 206 143t135 210t48 253t-48 252q-49 120 -135 208q-87 89 -206 140q-118 51 -260 51t-260 -51q-119 -51 -206 -140q-86 -88 -135 -208q-49 -121 -49 -252zM465 713q0 83 30 157q30 73 83 129q51 54 125 88 q72 33 159 33q112 0 191 -47q76 -45 116 -96l-67 -59q-26 34 -88 73q-59 37 -152 37q-68 0 -126 -26q-56 -25 -96 -68t-61 -100q-22 -60 -22 -121q0 -63 22 -123q22 -59 61 -101q41 -44 96 -67q59 -25 126 -25q93 0 156 39t98 86l64 -59q-21 -27 -51 -54q-36 -33 -69 -52 q-37 -22 -90 -38q-46 -14 -108 -14q-87 0 -159 33q-74 34 -125 88q-53 56 -83 129q-30 74 -30 158z" />
<glyph unicode="&#xaa;" horiz-adv-x="626" d="M61 1055q0 86 62 139t156 53q59 0 101 -18q39 -17 64 -35v39q0 44 -16 70q-15 25 -40 39q-24 14 -49 18q-23 4 -42 4q-45 0 -86 -14q-42 -15 -76 -33l-41 84q32 21 89 40q51 17 120 17q64 0 108 -17q46 -18 74 -46t43 -66q15 -37 15 -76v-370h-90v82q-30 -43 -78 -69 q-51 -28 -109 -28q-32 0 -73 13q-39 12 -67 35q-28 22 -47 59q-18 35 -18 80zM160 1055q0 -52 40 -74q41 -23 85 -23q51 0 93 25q37 22 66 59v72q-16 15 -53 31q-36 16 -90 16q-67 0 -103 -29q-38 -30 -38 -77z" />
<glyph unicode="&#xab;" horiz-adv-x="929" d="M45 502l352 459l82 -66l-305 -393l305 -393l-82 -66zM352 502l353 459l81 -66l-305 -393l305 -393l-81 -66z" />
<glyph unicode="&#xac;" horiz-adv-x="1380" d="M37 895v98h1208v-583h-102v485h-1106z" />
<glyph unicode="&#xad;" horiz-adv-x="681" d="M68 436v99h546v-99h-546z" />
<glyph unicode="&#xae;" horiz-adv-x="829" d="M45 1087q0 75 29 144q29 68 80 119q52 52 117 80t145 28q77 0 143 -28q68 -29 118 -80q51 -52 79 -119q28 -66 28 -144q0 -79 -28 -144q-28 -66 -79 -118q-50 -51 -118 -80q-66 -28 -143 -28q-80 0 -145 28t-117 80q-51 51 -80 118t-29 144zM121 1087q0 -62 22 -115 t63 -94t94 -63t116 -22q62 0 115 22q55 23 95 63q38 38 63 94q24 54 24 115q0 62 -24 116q-25 56 -63 94q-39 39 -95 64q-52 23 -115 23q-64 0 -116 -23q-54 -24 -94 -64q-41 -41 -63 -94t-22 -116zM301 899v385h125q60 0 94 -33q35 -33 35 -86q0 -43 -24 -73 q-25 -31 -64 -41l100 -152h-78l-94 145h-28v-145h-66zM367 1106h53q34 0 54 15t20 44t-20 44q-21 16 -54 16h-53v-119z" />
<glyph unicode="&#xaf;" horiz-adv-x="643" d="M12 1194v98h619v-98h-619z" />
<glyph unicode="&#xb0;" horiz-adv-x="679" d="M45 1163q0 63 24 115q25 55 63 93q40 40 93 64q50 23 115 23t115 -23q53 -24 93 -64q38 -38 63 -93q24 -53 24 -115q0 -61 -24 -114q-26 -57 -63 -94q-38 -38 -93 -63q-53 -24 -115 -24t-115 24q-55 25 -93 63q-37 37 -63 94q-24 53 -24 114zM139 1163q0 -84 59 -141 t142 -57q84 0 142 57q59 57 59 141t-59 143q-58 58 -142 58t-142 -58q-59 -59 -59 -143z" />
<glyph unicode="&#xb1;" horiz-adv-x="1064" d="M92 0v98h881v-98h-881zM92 537v98h389v336h103v-336h389v-98h-389v-349h-103v349h-389z" />
<glyph unicode="&#xb2;" horiz-adv-x="718" d="M68 807l338 371q53 58 86 104q32 45 32 107q0 32 -10 62q-11 32 -33 56q-23 25 -57 41q-36 17 -84 17q-83 0 -127 -44q-43 -43 -66 -104l-79 33q13 41 35 76q24 37 58 64q36 28 78 44q45 17 101 17q59 0 110 -20t87 -53q35 -33 57 -82q20 -46 20 -103q0 -76 -34 -131 q-32 -51 -88 -117q-3 -3 -21 -24l-50 -56l-72 -81l-85 -95h361v-82h-557z" />
<glyph unicode="&#xb3;" horiz-adv-x="733" d="M88 991l78 35q17 -58 63 -101q47 -44 133 -44q87 0 135 45t48 110q0 66 -48 111t-130 45h-48v80h48q69 0 118 36q50 36 50 107q0 23 -10 53q-10 29 -28 49q-18 19 -51 34q-31 14 -75 14q-79 0 -120 -37q-44 -39 -61 -82l-73 37q27 64 89 115q64 53 165 53q54 0 103 -19 q44 -17 80 -50q33 -30 52 -74t19 -89q0 -38 -12 -68q-14 -36 -28 -53q-18 -23 -38 -37q-26 -18 -41 -26q35 -11 61 -34q25 -22 40 -49q17 -30 22 -57q6 -30 6 -59q0 -59 -24 -104q-26 -48 -62 -76q-41 -31 -89 -46q-50 -15 -102 -15q-109 0 -177 59q-69 60 -93 137z" />
<glyph unicode="&#xb4;" horiz-adv-x="540" d="M109 1116l305 305l71 -71l-307 -301z" />
<glyph unicode="&#xb5;" horiz-adv-x="1081" d="M156 -471v1405h106v-559q0 -76 20 -134q20 -57 54 -93q33 -35 82 -52q45 -16 104 -16q64 0 108 17q48 19 82 44q36 27 60 60q30 41 43 63v670h107v-934h-97v156q-24 -40 -50 -67q-32 -34 -69 -57q-41 -26 -91 -41q-53 -16 -111 -16q-150 0 -242 99v-545h-106z" />
<glyph unicode="&#xb6;" horiz-adv-x="1163" d="M131 946q0 102 39 190q39 89 104 154q66 66 155 105t189 39h365l-8 -1819h-107v1720h-143v-1720h-107v848q-99 0 -189 38t-155 103t-104 154q-39 88 -39 188z" />
<glyph unicode="&#xb7;" horiz-adv-x="567" d="M168 735q0 48 34 82q35 35 81 35q47 0 82 -35q34 -34 34 -82q0 -47 -34 -81q-33 -33 -82 -33q-48 0 -81 33q-34 34 -34 81z" />
<glyph unicode="&#xb8;" horiz-adv-x="645" d="M211 -479l121 379l104 -13l-119 -397z" />
<glyph unicode="&#xb9;" horiz-adv-x="565" d="M31 1397l291 241h69v-831h-86v706l-221 -182z" />
<glyph unicode="&#xba;" horiz-adv-x="663" d="M37 1163q0 65 23 115q24 53 64 93t93 64q50 23 115 23q64 0 114 -23q55 -25 94 -64q38 -38 63 -93q24 -53 24 -115q0 -61 -24 -114q-26 -57 -63 -94t-94 -63q-52 -24 -114 -24t-115 24q-55 25 -93 63q-39 39 -64 94q-23 50 -23 114zM135 1163q0 -83 56 -140 q57 -58 141 -58q83 0 140 58q56 57 56 140q0 41 -15 77q-16 38 -42 64q-30 30 -63 43q-38 15 -78 15q-85 0 -140 -58t-55 -141z" />
<glyph unicode="&#xbb;" horiz-adv-x="929" d="M164 109l305 393l-305 393l82 66l352 -459l-352 -459zM471 109l305 393l-305 393l82 66l352 -459l-352 -459z" />
<glyph unicode="&#xbc;" horiz-adv-x="1699" d="M104 1192l291 242h70v-832h-86v707l-221 -183zM369 -6l972 1495l72 -49l-973 -1495zM969 190l444 641h74v-559h110v-82h-110v-190h-86v190h-432zM1120 272h281v410z" />
<glyph unicode="&#xbd;" horiz-adv-x="1699" d="M104 1192l291 242h70v-832h-86v707l-221 -183zM287 -6l973 1495l71 -49l-973 -1495zM997 0l338 371q53 58 86 104q33 47 33 107q0 32 -10 62q-11 32 -33 56q-23 25 -57 41q-36 17 -84 17q-83 0 -127 -44q-43 -43 -66 -104l-80 33q12 38 36 76q24 37 58 64q37 29 77 44 q45 17 102 17q58 0 109 -20t87 -53q37 -34 58 -82q20 -46 20 -103q0 -75 -35 -131q-32 -51 -88 -117l-3 -3q-2 -3 -7 -9l-10 -12l-50 -56l-72 -81l-85 -95h360v-82h-557z" />
<glyph unicode="&#xbe;" horiz-adv-x="1699" d="M90 786l78 35q17 -58 63 -101q47 -44 134 -44q86 0 134 45t48 110q0 66 -48 111t-130 45h-47v80h47q69 0 118 36q50 36 50 107q0 24 -10 54q-9 28 -28 48q-20 21 -50 35q-29 13 -76 13q-79 0 -120 -37q-42 -38 -60 -82l-74 37q28 65 89 116q62 52 165 52q54 0 103 -19 q44 -17 80 -50q34 -31 52 -73q19 -44 19 -90q0 -38 -12 -68q-14 -34 -28 -52q-20 -25 -38 -38q-26 -18 -41 -26q35 -11 61 -34q25 -22 40 -49q17 -30 22 -57q6 -30 6 -59q0 -59 -24 -104q-26 -48 -62 -76q-41 -31 -89 -46q-50 -15 -102 -15q-109 0 -177 59q-69 60 -93 137z M408 -6l972 1495l72 -49l-973 -1495zM971 190l444 641h74v-559h111v-82h-111v-190h-86v190h-432zM1122 272h281v410z" />
<glyph unicode="&#xbf;" horiz-adv-x="978" d="M106 -139q0 91 34 153q36 66 83 113q44 44 104 89q59 44 95 79q12 12 15 17q5 9 8 18q4 14 4 25v40v183h106v-185q0 -51 -1 -67q-2 -28 -8 -43q-8 -18 -21 -33q-8 -9 -38 -37q-63 -52 -97 -76q-48 -35 -86 -74q-39 -40 -62 -87q-25 -50 -25 -113q0 -56 20 -107 q19 -50 56 -86q36 -36 92 -57q55 -21 125 -21q72 0 125 21q55 22 90 53q37 32 58 72q22 41 32 78l100 -33q-39 -134 -143 -214q-105 -81 -258 -81q-84 0 -159 27q-77 28 -130 75q-56 50 -87 118q-32 70 -32 153zM420 889q0 35 23 58q24 24 59 24q34 0 58 -24t24 -58 q0 -35 -24 -59q-23 -23 -58 -23q-36 0 -59 23t-23 59z" />
<glyph unicode="&#xc0;" horiz-adv-x="1310" d="M25 0l571 1434h119l571 -1434h-115l-163 418h-705l-164 -418h-114zM344 516h623l-312 799zM375 1833l80 76l305 -305l-72 -68z" />
<glyph unicode="&#xc1;" horiz-adv-x="1310" d="M25 0l571 1434h119l571 -1434h-115l-163 418h-705l-164 -418h-114zM344 516h623l-312 799zM553 1604l305 305l72 -72l-307 -301z" />
<glyph unicode="&#xc2;" horiz-adv-x="1310" d="M25 0l571 1434h119l571 -1434h-115l-163 418h-705l-164 -418h-114zM328 1622l327 236l328 -236l-61 -76l-267 197l-266 -197zM344 516h623l-312 799z" />
<glyph unicode="&#xc3;" horiz-adv-x="1310" d="M25 0l571 1434h119l571 -1434h-115l-163 418h-705l-164 -418h-114zM344 516h623l-312 799zM346 1655q22 70 76 110q52 39 119 39q42 0 74 -14q38 -17 63 -31l56 -30q27 -15 59 -15q31 0 65 23q32 22 43 78l86 -52q-22 -70 -76 -110q-53 -39 -118 -39q-43 0 -75 14 q-38 17 -63 31l-56 31q-25 14 -58 14q-32 0 -66 -23q-33 -22 -43 -77z" />
<glyph unicode="&#xc4;" horiz-adv-x="1310" d="M25 0l571 1434h119l571 -1434h-115l-163 418h-705l-164 -418h-114zM344 516h623l-312 799zM389 1724q0 35 24 59q23 23 58 23t58 -23q24 -24 24 -59q0 -34 -24 -58t-58 -24t-58 24t-24 58zM760 1724q0 36 23 59t59 23q35 0 58 -23q24 -24 24 -59q0 -34 -24 -58t-58 -24 q-35 0 -59 24q-23 23 -23 58z" />
<glyph unicode="&#xc5;" horiz-adv-x="1310" d="M25 0l571 1434h119l571 -1434h-115l-163 418h-705l-164 -418h-114zM344 516h623l-312 799zM453 1720q0 87 58 145t144 58q87 0 145 -58t58 -145q0 -86 -58 -144t-145 -58q-86 0 -144 58t-58 144zM537 1720q0 -52 33 -85t85 -33q53 0 86 33q35 35 35 85q0 51 -35 86 t-86 35q-50 0 -85 -35q-33 -33 -33 -86z" />
<glyph unicode="&#xc6;" horiz-adv-x="1771" d="M25 0l835 1434h785v-99h-615v-551h565v-98h-565v-588h627v-98h-733v418h-539l-244 -418h-116zM442 516h482v827z" />
<glyph unicode="&#xc7;" horiz-adv-x="1378" d="M90 717q0 157 52 291t147 235q96 102 224 158q131 57 286 57q158 0 286 -58q129 -59 224 -161l-76 -70q-80 87 -189 136q-110 49 -245 49q-132 0 -244 -50q-105 -47 -189 -137q-78 -84 -122 -202q-43 -116 -43 -248q0 -135 43 -249q45 -119 122 -202q82 -88 188 -136 q111 -50 243 -50q145 0 263 57q114 55 195 150l74 -74q-95 -112 -230 -174q-139 -64 -300 -64q-153 0 -286 58q-130 57 -224 157t-147 236q-52 134 -52 291zM588 -479l121 379l104 -13l-119 -397z" />
<glyph unicode="&#xc8;" horiz-adv-x="1101" d="M180 0v1434h795v-99h-688v-551h639v-98h-639v-588h700v-98h-807zM360 1845l80 76l305 -305l-71 -68z" />
<glyph unicode="&#xc9;" horiz-adv-x="1101" d="M180 0v1434h795v-99h-688v-551h639v-98h-639v-588h700v-98h-807zM381 1616l305 305l72 -72l-307 -301z" />
<glyph unicode="&#xca;" horiz-adv-x="1101" d="M180 0v1434h795v-99h-688v-551h639v-98h-639v-588h700v-98h-807zM256 1647l328 235l327 -235l-61 -76l-266 196l-267 -196z" />
<glyph unicode="&#xcb;" horiz-adv-x="1101" d="M180 0v1434h795v-99h-688v-551h639v-98h-639v-588h700v-98h-807zM313 1724q0 35 24 59q23 23 58 23q36 0 59 -23t23 -59q0 -35 -23 -58q-24 -24 -59 -24q-34 0 -58 24t-24 58zM684 1724q0 35 24 59q23 23 58 23t58 -23q24 -24 24 -59q0 -34 -24 -58t-58 -24t-58 24 t-24 58z" />
<glyph unicode="&#xcc;" horiz-adv-x="524" d="M33 1833l80 76l305 -305l-72 -68zM209 0v1434h106v-1434h-106z" />
<glyph unicode="&#xcd;" horiz-adv-x="524" d="M109 1604l305 305l71 -72l-307 -301zM209 0v1434h106v-1434h-106z" />
<glyph unicode="&#xce;" horiz-adv-x="524" d="M-63 1561l327 235l328 -235l-62 -76l-266 196l-266 -196zM209 0v1434h106v-1434h-106z" />
<glyph unicode="&#xcf;" horiz-adv-x="524" d="M-2 1724q0 35 24 59q23 23 58 23t58 -23q24 -24 24 -59q0 -34 -24 -58t-58 -24t-58 24t-24 58zM209 0v1434h106v-1434h-106zM369 1724q0 36 23 59t59 23q35 0 58 -23t23 -59q0 -35 -23 -58q-24 -24 -58 -24q-35 0 -59 24q-23 23 -23 58z" />
<glyph unicode="&#xd0;" horiz-adv-x="1388" d="M49 686v98h150v650h391q153 0 286 -55q128 -53 224 -149q92 -92 146 -226q52 -129 52 -287t-52 -287q-54 -134 -146 -226q-98 -98 -224 -150q-130 -54 -286 -54h-391v686h-150zM305 98h264q141 0 256 44q116 44 195 126q81 85 124 196q44 115 44 253t-44 253 q-42 110 -124 195q-79 82 -195 126q-115 44 -256 44h-264v-551h432v-98h-432v-588z" />
<glyph unicode="&#xd1;" horiz-adv-x="1454" d="M180 0v1434h107l880 -1250v1250h107v-1434h-107l-880 1253v-1253h-107zM410 1696q22 71 75 110t119 39q43 0 75 -14q34 -15 62 -31l57 -31q25 -14 58 -14q32 0 66 23q33 22 43 77l86 -51q-22 -70 -76 -110q-53 -39 -119 -39q-43 0 -75 14q-34 15 -62 31l-56 31 q-25 14 -59 14q-31 0 -65 -23q-33 -22 -43 -77z" />
<glyph unicode="&#xd2;" horiz-adv-x="1597" d="M90 717q0 155 53 291q51 131 149 235q95 101 224 158t283 57q153 0 282 -57q131 -58 225 -158q97 -103 148 -235q53 -136 53 -291t-53 -291t-147 -236t-225 -157q-133 -58 -283 -58q-151 0 -284 58q-130 57 -224 157q-96 102 -148 236q-53 136 -53 291zM201 717 q0 -135 43 -249q45 -119 122 -202q82 -88 188 -136q111 -50 245 -50q133 0 244 50q108 49 189 136q77 83 122 202q43 114 43 249q0 132 -43 248q-44 118 -122 202q-83 89 -189 137q-111 50 -244 50q-134 0 -245 -50q-105 -47 -188 -137q-78 -84 -122 -202q-43 -116 -43 -248 zM565 1853l80 76l305 -305l-71 -68z" />
<glyph unicode="&#xd3;" horiz-adv-x="1597" d="M90 717q0 155 53 291q51 131 149 235q95 101 224 158t283 57q153 0 282 -57q131 -58 225 -158q97 -103 148 -235q53 -136 53 -291t-53 -291t-147 -236t-225 -157q-133 -58 -283 -58q-151 0 -284 58q-130 57 -224 157q-96 102 -148 236q-53 136 -53 291zM201 717 q0 -135 43 -249q45 -119 122 -202q82 -88 188 -136q111 -50 245 -50q133 0 244 50q108 49 189 136q77 83 122 202q43 114 43 249q0 132 -43 248q-44 118 -122 202q-83 89 -189 137q-111 50 -244 50q-134 0 -245 -50q-105 -47 -188 -137q-78 -84 -122 -202q-43 -116 -43 -248 zM643 1624l305 305l72 -71l-307 -302z" />
<glyph unicode="&#xd4;" horiz-adv-x="1597" d="M90 717q0 155 53 291q51 131 149 235q95 101 224 158t283 57q153 0 282 -57q131 -58 225 -158q97 -103 148 -235q53 -136 53 -291t-53 -291t-147 -236t-225 -157q-133 -58 -283 -58q-151 0 -284 58q-130 57 -224 157q-96 102 -148 236q-53 136 -53 291zM201 717 q0 -135 43 -249q45 -119 122 -202q82 -88 188 -136q111 -50 245 -50q133 0 244 50q108 49 189 136q77 83 122 202q43 114 43 249q0 132 -43 248q-44 118 -122 202q-83 89 -189 137q-111 50 -244 50q-134 0 -245 -50q-105 -47 -188 -137q-78 -84 -122 -202q-43 -116 -43 -248 zM471 1642l328 236l327 -236l-61 -75l-266 196l-267 -196z" />
<glyph unicode="&#xd5;" horiz-adv-x="1597" d="M90 717q0 155 53 291q51 131 149 235q95 101 224 158t283 57q153 0 282 -57q131 -58 225 -158q97 -103 148 -235q53 -136 53 -291t-53 -291t-147 -236t-225 -157q-133 -58 -283 -58q-151 0 -284 58q-130 57 -224 157q-96 102 -148 236q-53 136 -53 291zM201 717 q0 -135 43 -249q45 -119 122 -202q82 -88 188 -136q111 -50 245 -50q133 0 244 50q108 49 189 136q77 83 122 202q43 114 43 249q0 132 -43 248q-44 118 -122 202q-83 89 -189 137q-111 50 -244 50q-134 0 -245 -50q-105 -47 -188 -137q-78 -84 -122 -202q-43 -116 -43 -248 zM483 1655q22 70 76 110q52 39 119 39q43 0 75 -14q34 -15 62 -31l56 -30q27 -15 59 -15q31 0 65 23q32 22 43 78l86 -52q-22 -71 -75 -110t-119 -39q-43 0 -75 14q-34 15 -62 31l-57 31q-25 14 -58 14q-32 0 -66 -23q-33 -22 -43 -77z" />
<glyph unicode="&#xd6;" horiz-adv-x="1597" d="M90 717q0 155 53 291q51 131 149 235q95 101 224 158t283 57q153 0 282 -57q131 -58 225 -158q97 -103 148 -235q53 -136 53 -291t-53 -291t-147 -236t-225 -157q-133 -58 -283 -58q-151 0 -284 58q-130 57 -224 157q-96 102 -148 236q-53 136 -53 291zM201 717 q0 -135 43 -249q45 -119 122 -202q82 -88 188 -136q111 -50 245 -50q133 0 244 50q108 49 189 136q77 83 122 202q43 114 43 249q0 132 -43 248q-44 118 -122 202q-83 89 -189 137q-111 50 -244 50q-134 0 -245 -50q-105 -47 -188 -137q-78 -84 -122 -202q-43 -116 -43 -248 zM532 1724q0 35 24 59q23 23 58 23q36 0 59 -23t23 -59q0 -35 -23 -58q-24 -24 -59 -24q-34 0 -58 24t-24 58zM903 1724q0 35 24 59q23 23 58 23t58 -23q24 -24 24 -59q0 -34 -24 -58t-58 -24t-58 24t-24 58z" />
<glyph unicode="&#xd7;" horiz-adv-x="1064" d="M100 160l70 -70l362 363l363 -363l70 70l-363 362l363 363l-70 69l-363 -362l-362 362l-70 -69l363 -363z" />
<glyph unicode="&#xd8;" horiz-adv-x="1613" d="M98 715q0 152 54 292q51 133 148 236q95 101 224 158t283 57q129 0 241 -41q111 -41 201 -114l150 178l71 -62l-151 -182q91 -100 144 -235t53 -287q0 -150 -54 -289q-53 -136 -147 -236t-225 -157q-133 -58 -285 -58q-124 0 -231 37q-105 37 -195 105l-139 -166l-72 61 l141 168q-98 100 -155 239q-56 138 -56 296zM209 717q0 -134 44 -252q43 -116 124 -203l805 961q-73 61 -169 96t-206 35q-134 0 -245 -50q-105 -47 -188 -137q-78 -84 -122 -202q-43 -116 -43 -248zM446 199q75 -59 163 -88q95 -31 198 -31q134 0 245 50q106 48 188 136 q77 83 122 202q43 114 43 247q0 127 -41 241q-40 112 -115 199z" />
<glyph unicode="&#xd9;" horiz-adv-x="1380" d="M180 539v895h107v-885q0 -107 22 -191q22 -85 72 -148q48 -61 126 -96q75 -34 183 -34t183 34q78 35 126 96q50 63 72 148q23 87 23 191v885h106v-895q0 -127 -34 -229q-35 -105 -98 -178q-65 -75 -160 -116q-96 -41 -218 -41t-218 41q-95 41 -160 116q-63 73 -98 178 q-34 102 -34 229zM416 1845l80 76l305 -305l-72 -68z" />
<glyph unicode="&#xda;" horiz-adv-x="1380" d="M180 539v895h107v-885q0 -107 22 -191q22 -85 72 -148q48 -61 126 -96q75 -34 183 -34t183 34q78 35 126 96q50 63 72 148q23 87 23 191v885h106v-895q0 -127 -34 -229q-35 -105 -98 -178q-65 -75 -160 -116q-96 -41 -218 -41t-218 41q-95 41 -160 116q-63 73 -98 178 q-34 102 -34 229zM582 1616l305 305l71 -72l-307 -301z" />
<glyph unicode="&#xdb;" horiz-adv-x="1380" d="M180 539v895h107v-885q0 -107 22 -191q22 -85 72 -148q48 -61 126 -96q75 -34 183 -34t183 34q78 35 126 96q50 63 72 148q23 87 23 191v885h106v-895q0 -127 -34 -229q-35 -105 -98 -178q-65 -75 -160 -116q-96 -41 -218 -41t-218 41q-95 41 -160 116q-63 73 -98 178 q-34 102 -34 229zM362 1642l328 236l328 -236l-62 -75l-266 196l-266 -196z" />
<glyph unicode="&#xdc;" horiz-adv-x="1380" d="M180 539v895h107v-885q0 -107 22 -191q22 -85 72 -148q48 -61 126 -96q75 -34 183 -34t183 34q78 35 126 96q50 63 72 148q23 87 23 191v885h106v-895q0 -127 -34 -229q-35 -105 -98 -178q-65 -75 -160 -116q-96 -41 -218 -41t-218 41q-95 41 -160 116q-63 73 -98 178 q-34 102 -34 229zM424 1724q0 36 23 59t59 23q35 0 58 -23q24 -24 24 -59q0 -34 -24 -58t-58 -24q-35 0 -59 24q-23 23 -23 58zM795 1724q0 36 23 59t59 23q35 0 58 -23t23 -59q0 -35 -23 -58q-24 -24 -58 -24q-35 0 -59 24q-23 23 -23 58z" />
<glyph unicode="&#xdd;" horiz-adv-x="1163" d="M33 1434h123l428 -762l428 762h118l-495 -871v-563h-107v563zM496 1616l305 305l71 -72l-307 -301z" />
<glyph unicode="&#xde;" horiz-adv-x="1101" d="M180 0v1434h107v-261h272q107 0 191 -25q83 -25 148 -76q60 -47 96 -127q34 -75 34 -177q0 -103 -34 -178q-35 -78 -96 -126q-65 -51 -148 -76q-87 -26 -191 -26h-272v-362h-107zM287 461h264q76 0 138 14q70 16 117 50q51 37 81 95q31 60 31 148q0 85 -31 147 q-29 58 -81 96q-47 34 -117 50q-62 14 -138 14h-264v-614z" />
<glyph unicode="&#xdf;" horiz-adv-x="1200" d="M180 0v1139q0 99 30 178q29 78 83 136q51 55 126 88q73 32 159 32q62 0 136 -20t133 -63t100 -116q40 -71 40 -176q0 -71 -17 -119q-18 -51 -45 -90q-26 -37 -65 -64q-38 -26 -76 -42q60 -17 113 -49q55 -33 99 -86q44 -54 71 -129q27 -77 27 -177q0 -132 -45 -220 t-117 -144q-71 -55 -165 -79q-93 -24 -187 -24h-62v99h51q124 0 204 31q81 31 129 84q49 54 67 117q18 64 18 132q0 81 -22 148q-23 70 -71 123q-50 55 -123 84q-75 30 -179 30v95q88 0 144 28q54 27 89 70q31 39 44 89q12 48 12 87q0 54 -18 103q-19 53 -54 88 q-39 39 -91 62t-128 23q-80 0 -137 -27q-56 -26 -95 -75q-35 -43 -54 -109q-17 -58 -17 -131v-1126h-107z" />
<glyph unicode="&#xe0;" horiz-adv-x="1034" d="M98 289q0 76 32 137q30 57 84 99q51 40 120 61q64 20 139 20q76 0 155 -20q82 -21 152 -68v70q0 86 -28 138q-28 51 -70 81q-41 29 -90 38q-50 9 -88 9q-78 0 -158 -24q-82 -25 -145 -62l-47 92q51 32 145 66q89 32 207 32q96 0 168 -27q70 -26 119 -75q45 -45 70 -110 q24 -63 24 -134v-612h-96v162q-66 -90 -159 -138q-95 -49 -190 -49q-62 0 -123 21q-62 21 -110 59q-50 39 -80 98q-31 60 -31 136zM209 289q0 -53 22 -93q23 -40 60 -66q39 -27 82 -38q45 -12 90 -12q54 0 101 16q49 17 88 43q40 27 73 61q33 35 55 68v158q-53 35 -131 56 q-82 22 -153 22q-54 0 -105 -12q-52 -12 -92 -39q-42 -28 -66 -68q-24 -41 -24 -96zM328 1382l80 76l305 -305l-72 -68z" />
<glyph unicode="&#xe1;" horiz-adv-x="1034" d="M98 289q0 76 32 137q30 57 84 99q51 40 120 61q64 20 139 20q76 0 155 -20q82 -21 152 -68v70q0 86 -28 138q-28 51 -70 81q-41 29 -90 38q-50 9 -88 9q-78 0 -158 -24q-82 -25 -145 -62l-47 92q51 32 145 66q89 32 207 32q96 0 168 -27q70 -26 119 -75q45 -45 70 -110 q24 -63 24 -134v-612h-96v162q-66 -90 -159 -138q-95 -49 -190 -49q-62 0 -123 21q-62 21 -110 59q-50 39 -80 98q-31 60 -31 136zM209 289q0 -53 22 -93q23 -40 60 -66q39 -27 82 -38q45 -12 90 -12q54 0 101 16q49 17 88 43q40 27 73 61q33 35 55 68v158q-53 35 -131 56 q-82 22 -153 22q-54 0 -105 -12q-52 -12 -92 -39q-42 -28 -66 -68q-24 -41 -24 -96zM383 1153l305 305l72 -72l-307 -301z" />
<glyph unicode="&#xe2;" horiz-adv-x="1034" d="M98 289q0 76 32 137q30 57 84 99q51 40 120 61q64 20 139 20q76 0 155 -20q82 -21 152 -68v70q0 86 -28 138q-28 51 -70 81q-41 29 -90 38q-50 9 -88 9q-78 0 -158 -24q-82 -25 -145 -62l-47 92q51 32 145 66q89 32 207 32q96 0 168 -27q70 -26 119 -75q45 -45 70 -110 q24 -63 24 -134v-612h-96v162q-66 -90 -159 -138q-95 -49 -190 -49q-62 0 -123 21q-62 21 -110 59q-50 39 -80 98q-31 60 -31 136zM188 1182l328 235l328 -235l-62 -76l-266 197l-266 -197zM209 289q0 -53 22 -93q23 -40 60 -66q39 -27 82 -38q45 -12 90 -12q54 0 101 16 q49 17 88 43q40 27 73 61q33 35 55 68v158q-53 35 -131 56q-82 22 -153 22q-54 0 -105 -12q-52 -12 -92 -39q-42 -28 -66 -68q-24 -41 -24 -96z" />
<glyph unicode="&#xe3;" horiz-adv-x="1034" d="M98 289q0 76 32 137q30 57 84 99q51 40 120 61q64 20 139 20q76 0 155 -20q82 -21 152 -68v70q0 86 -28 138q-28 51 -70 81q-41 29 -90 38q-50 9 -88 9q-78 0 -158 -24q-82 -25 -145 -62l-47 92q51 32 145 66q89 32 207 32q96 0 168 -27q70 -26 119 -75q45 -45 70 -110 q24 -63 24 -134v-612h-96v162q-66 -90 -159 -138q-95 -49 -190 -49q-62 0 -123 21q-62 21 -110 59q-50 39 -80 98q-31 60 -31 136zM203 1214q22 71 76 111q52 39 118 39q43 0 75 -14q38 -17 63 -31l56 -31q25 -14 58 -14q34 0 66 22t43 78l86 -51q-22 -71 -76 -111 q-51 -38 -119 -38q-43 0 -75 14q-34 15 -62 31l-56 30q-27 15 -59 15q-31 0 -65 -23q-32 -22 -43 -78zM209 289q0 -53 22 -93q23 -40 60 -66q39 -27 82 -38q45 -12 90 -12q54 0 101 16q49 17 88 43q40 27 73 61q33 35 55 68v158q-53 35 -131 56q-82 22 -153 22 q-54 0 -105 -12q-52 -12 -92 -39q-42 -28 -66 -68q-24 -41 -24 -96z" />
<glyph unicode="&#xe4;" horiz-adv-x="1034" d="M98 289q0 76 32 137q30 57 84 99q51 40 120 61q64 20 139 20q76 0 155 -20q82 -21 152 -68v70q0 86 -28 138q-28 51 -70 81q-41 29 -90 38q-50 9 -88 9q-78 0 -158 -24q-82 -25 -145 -62l-47 92q51 32 145 66q89 32 207 32q96 0 168 -27q70 -26 119 -75q45 -45 70 -110 q24 -63 24 -134v-612h-96v162q-66 -90 -159 -138q-95 -49 -190 -49q-62 0 -123 21q-62 21 -110 59q-50 39 -80 98q-31 60 -31 136zM209 289q0 -53 22 -93q23 -40 60 -66q39 -27 82 -38q45 -12 90 -12q54 0 101 16q49 17 88 43q40 27 73 61q33 35 55 68v158q-53 35 -131 56 q-82 22 -153 22q-54 0 -105 -12q-52 -12 -92 -39q-42 -28 -66 -68q-24 -41 -24 -96zM266 1237q0 34 24 58t58 24q35 0 59 -24q23 -23 23 -58t-23 -58q-24 -24 -59 -24q-34 0 -58 24t-24 58zM637 1237q0 35 23 58q24 24 59 24q34 0 58 -24t24 -58t-24 -58t-58 -24 q-35 0 -59 24q-23 23 -23 58z" />
<glyph unicode="&#xe5;" horiz-adv-x="1034" d="M98 289q0 76 32 137q30 57 84 99q51 40 120 61q64 20 139 20q76 0 155 -20q82 -21 152 -68v70q0 86 -28 138q-28 51 -70 81q-41 29 -90 38q-50 9 -88 9q-78 0 -158 -24q-82 -25 -145 -62l-47 92q51 32 145 66q89 32 207 32q96 0 168 -27q70 -26 119 -75q45 -45 70 -110 q24 -63 24 -134v-612h-96v162q-66 -90 -159 -138q-95 -49 -190 -49q-62 0 -123 21q-62 21 -110 59q-50 39 -80 98q-31 60 -31 136zM209 289q0 -53 22 -93q23 -40 60 -66q39 -27 82 -38q45 -12 90 -12q54 0 101 16q49 17 88 43q40 27 73 61q33 35 55 68v158q-53 35 -131 56 q-82 22 -153 22q-54 0 -105 -12q-52 -12 -92 -39q-42 -28 -66 -68q-24 -41 -24 -96zM340 1313q0 86 58 144q59 59 145 59q85 0 144 -59q58 -58 58 -144q0 -87 -58 -145t-144 -58q-87 0 -145 58t-58 145zM424 1313q0 -51 34 -85t85 -34q52 0 86 34q35 35 35 85q0 51 -35 86 t-86 35q-50 0 -85 -35q-34 -34 -34 -86z" />
<glyph unicode="&#xe6;" horiz-adv-x="1746" d="M98 262q0 123 93 195q92 71 280 71h295v43q0 133 -80 208t-211 75q-71 0 -142 -20q-75 -21 -138 -60l-50 92q63 39 152 66q85 26 180 26q143 0 233 -62q92 -63 126 -151v-10q61 101 158 162q98 61 229 61q97 0 177 -35q82 -36 143 -100t95 -153q35 -91 35 -197v-20 q0 -1 -2 -23h-799q1 -49 27 -115q23 -59 71 -113q47 -53 113 -87q68 -35 158 -35q57 0 105 13q50 13 90 36t72 51q33 29 57 60l71 -74q-67 -82 -171 -136q-105 -55 -226 -55q-134 0 -245 67q-109 66 -169 177q-25 -48 -62 -91q-37 -44 -87 -78q-45 -32 -111 -54 q-61 -21 -133 -21q-70 0 -131 21q-64 22 -106 57q-46 38 -71 90q-26 54 -26 119zM209 266q0 -55 20 -89q21 -35 53 -57q34 -22 72 -31q40 -9 84 -9q86 0 148 30t101 72t59 90t20 80v78q-36 0 -60 1t-70 1h-58h-27q-181 0 -261 -34q-81 -34 -81 -132zM877 528h686 q-1 37 -20 96q-18 58 -57 107q-40 51 -105 87q-64 36 -158 36q-97 0 -161 -37q-67 -39 -106 -88q-42 -52 -59 -106q-19 -57 -20 -95z" />
<glyph unicode="&#xe7;" horiz-adv-x="983" d="M74 467q0 100 36 190q37 93 100 157q67 68 151 106q85 38 192 38q70 0 125 -16t105 -41q47 -23 84 -56q35 -31 61 -63l-76 -67q-39 49 -115 94q-77 45 -182 45q-83 0 -153 -32q-66 -30 -116 -85q-47 -51 -75 -123q-27 -69 -27 -147q0 -79 27 -148q27 -70 75 -122 q50 -55 116 -85q70 -32 153 -32q111 0 190 50q78 49 119 106l74 -70q-56 -74 -153 -132q-98 -59 -232 -59q-105 0 -192 39q-84 38 -151 106q-63 65 -100 155q-36 89 -36 192zM336 -479l121 379l104 -13l-119 -397z" />
<glyph unicode="&#xe8;" d="M74 471q0 99 34 186q36 92 93 155q62 68 143 107t184 39q100 0 181 -36q83 -37 145 -102q61 -64 97 -155t36 -198v-21v-3.5t-0.5 -5t-1 -6.5t-0.5 -7h-805q1 -52 27 -116q24 -60 71 -110t113 -84q67 -34 158 -34q56 0 104 13q49 13 90 36q43 24 73 51q29 26 56 60l72 -74 q-72 -86 -175 -138q-104 -53 -222 -53q-103 0 -189 39t-149 107q-63 67 -99 158q-36 90 -36 192zM184 522h693q-1 34 -21 96q-18 57 -59 110q-39 50 -107 89q-65 37 -160 37t-160 -38q-66 -39 -106 -90q-42 -54 -59 -109q-20 -63 -21 -95zM326 1382l80 76l305 -305l-72 -68z " />
<glyph unicode="&#xe9;" d="M74 471q0 99 34 186q36 92 93 155q62 68 143 107t184 39q100 0 181 -36q83 -37 145 -102q61 -64 97 -155t36 -198v-21v-3.5t-0.5 -5t-1 -6.5t-0.5 -7h-805q1 -52 27 -116q24 -60 71 -110t113 -84q67 -34 158 -34q56 0 104 13q49 13 90 36q43 24 73 51q29 26 56 60l72 -74 q-72 -86 -175 -138q-104 -53 -222 -53q-103 0 -189 39t-149 107q-63 67 -99 158q-36 90 -36 192zM184 522h693q-1 34 -21 96q-18 57 -59 110q-39 50 -107 89q-65 37 -160 37t-160 -38q-66 -39 -106 -90q-42 -54 -59 -109q-20 -63 -21 -95zM377 1153l305 305l72 -72 l-308 -301z" />
<glyph unicode="&#xea;" d="M74 471q0 99 34 186q36 92 93 155q62 68 143 107t184 39q100 0 181 -36q83 -37 145 -102q61 -64 97 -155t36 -198v-21v-3.5t-0.5 -5t-1 -6.5t-0.5 -7h-805q1 -52 27 -116q24 -60 71 -110t113 -84q67 -34 158 -34q56 0 104 13q49 13 90 36q43 24 73 51q29 26 56 60l72 -74 q-72 -86 -175 -138q-104 -53 -222 -53q-103 0 -189 39t-149 107q-63 67 -99 158q-36 90 -36 192zM184 522h693q-1 34 -21 96q-18 57 -59 110q-39 50 -107 89q-65 37 -160 37t-160 -38q-66 -39 -106 -90q-42 -54 -59 -109q-20 -63 -21 -95zM225 1161l328 236l328 -236 l-62 -76l-266 197l-266 -197z" />
<glyph unicode="&#xeb;" d="M74 471q0 99 34 186q36 92 93 155q62 68 143 107t184 39q100 0 181 -36q83 -37 145 -102q61 -64 97 -155t36 -198v-21v-3.5t-0.5 -5t-1 -6.5t-0.5 -7h-805q1 -52 27 -116q24 -60 71 -110t113 -84q67 -34 158 -34q56 0 104 13q49 13 90 36q43 24 73 51q29 26 56 60l72 -74 q-72 -86 -175 -138q-104 -53 -222 -53q-103 0 -189 39t-149 107q-63 67 -99 158q-36 90 -36 192zM184 522h693q-1 34 -21 96q-18 57 -59 110q-39 50 -107 89q-65 37 -160 37t-160 -38q-66 -39 -106 -90q-42 -54 -59 -109q-20 -63 -21 -95zM274 1237q0 34 24 58t58 24 q35 0 59 -24q23 -23 23 -58t-23 -58q-24 -24 -59 -24q-34 0 -58 24t-24 58zM645 1237q0 34 24 58t58 24t58 -24t24 -58t-24 -58t-58 -24t-58 24t-24 58z" />
<glyph unicode="&#xec;" horiz-adv-x="458" d="M2 1382l80 76l305 -305l-72 -68zM176 0v934h107v-934h-107z" />
<glyph unicode="&#xed;" horiz-adv-x="458" d="M76 1153l305 305l72 -72l-308 -301zM174 0v934h107v-934h-107z" />
<glyph unicode="&#xee;" horiz-adv-x="524" d="M-63 1161l327 236l328 -236l-62 -76l-266 197l-266 -197zM209 0v934h106v-934h-106z" />
<glyph unicode="&#xef;" horiz-adv-x="501" d="M-14 1237q0 35 23 58q24 24 59 24q34 0 58 -24t24 -58t-24 -58t-58 -24q-35 0 -59 24q-23 23 -23 58zM197 0v934h106v-934h-106zM356 1237q0 34 24 58t58 24q35 0 59 -24q23 -23 23 -58t-23 -58q-24 -24 -59 -24q-34 0 -58 24t-24 58z" />
<glyph unicode="&#xf0;" horiz-adv-x="1114" d="M74 467q0 99 35 190t98 157q65 68 151 106t197 38q97 0 174 -31q75 -30 133 -96q-46 126 -133 236q-85 107 -178 182l-279 -129l-39 82l236 109q-28 22 -74 52q-47 31 -76 47l-69 40q-38 21 -57 29l45 88q62 -27 153 -81q90 -53 184 -124l259 119l38 -84l-217 -101 q77 -68 137 -141q63 -76 118 -175q53 -95 83 -207q31 -115 31 -236v-29q0 -122 -36 -221t-98 -167q-64 -70 -150 -107q-88 -38 -189 -38q-107 0 -195 39q-84 37 -150 106q-62 65 -97 155t-35 192zM184 467q0 -78 25 -150q24 -69 71 -122q49 -55 112 -84q68 -31 153 -31 q88 0 157 33q71 34 116 88q47 57 71 126q24 71 24 146q0 76 -24 145t-71 122q-48 54 -113 83q-70 31 -156 31t-156 -31q-64 -28 -113 -84q-46 -52 -71 -123q-25 -72 -25 -149z" />
<glyph unicode="&#xf1;" horiz-adv-x="1069" d="M147 0v934h97v-170q15 27 46 67q29 38 67 64q39 28 93 46q50 17 115 17q66 0 126 -20q62 -21 112 -66q51 -46 80 -113q30 -69 30 -163v-596h-106v580q0 70 -21 123t-55 87q-33 33 -82 49q-46 15 -98 15q-62 0 -110 -18q-44 -16 -84 -50q-36 -30 -61 -67q-27 -39 -42 -74 v-645h-107zM215 1190q22 70 76 110q52 39 119 39q42 0 74 -14q38 -17 63 -31l56 -30q27 -15 58 -15q32 0 66 23q32 22 43 78l86 -52q-22 -70 -76 -110q-52 -39 -118 -39q-43 0 -75 14q-38 17 -63 31l-56 31q-25 14 -58 14q-34 0 -66 -22t-43 -78z" />
<glyph unicode="&#xf2;" horiz-adv-x="1097" d="M74 467q0 99 35 190t98 157q65 68 150 106t192 38q106 0 191 -38q87 -39 151 -106q63 -66 98 -157t35 -190q0 -102 -35 -192q-34 -88 -98 -155t-151 -106t-191 -39q-105 0 -192 39q-85 38 -150 106q-64 67 -98 155q-35 90 -35 192zM184 467q0 -78 25 -150q24 -69 71 -122 q49 -56 113 -84q70 -31 156 -31t156 31q64 28 113 84q47 53 71 122t24 150q0 80 -24 149q-25 71 -71 123q-49 56 -113 84q-70 31 -156 31t-156 -31q-64 -28 -113 -84q-46 -52 -71 -123q-25 -72 -25 -149zM334 1382l80 76l305 -305l-72 -68z" />
<glyph unicode="&#xf3;" horiz-adv-x="1097" d="M74 467q0 99 35 190t98 157q65 68 150 106t192 38q106 0 191 -38q87 -39 151 -106q63 -66 98 -157t35 -190q0 -102 -35 -192q-34 -88 -98 -155t-151 -106t-191 -39q-105 0 -192 39q-85 38 -150 106q-64 67 -98 155q-35 90 -35 192zM184 467q0 -78 25 -150q24 -69 71 -122 q49 -56 113 -84q70 -31 156 -31t156 31q64 28 113 84q47 53 71 122t24 150q0 80 -24 149q-25 71 -71 123q-49 56 -113 84q-70 31 -156 31t-156 -31q-64 -28 -113 -84q-46 -52 -71 -123q-25 -72 -25 -149zM379 1153l305 305l72 -72l-307 -301z" />
<glyph unicode="&#xf4;" horiz-adv-x="1097" d="M74 467q0 99 35 190t98 157q65 68 150 106t192 38q106 0 191 -38q87 -39 151 -106q63 -66 98 -157t35 -190q0 -102 -35 -192q-34 -88 -98 -155t-151 -106t-191 -39q-105 0 -192 39q-85 38 -150 106q-64 67 -98 155q-35 90 -35 192zM184 467q0 -78 25 -150q24 -69 71 -122 q49 -56 113 -84q70 -31 156 -31t156 31q64 28 113 84q47 53 71 122t24 150q0 80 -24 149q-25 71 -71 123q-49 56 -113 84q-70 31 -156 31t-156 -31q-64 -28 -113 -84q-46 -52 -71 -123q-25 -72 -25 -149zM221 1161l328 236l328 -236l-62 -76l-266 197l-266 -197z" />
<glyph unicode="&#xf5;" horiz-adv-x="1097" d="M74 467q0 99 35 190t98 157q65 68 150 106t192 38q106 0 191 -38q87 -39 151 -106q63 -66 98 -157t35 -190q0 -102 -35 -192q-34 -88 -98 -155t-151 -106t-191 -39q-105 0 -192 39q-85 38 -150 106q-64 67 -98 155q-35 90 -35 192zM184 467q0 -78 25 -150q24 -69 71 -122 q49 -56 113 -84q70 -31 156 -31t156 31q64 28 113 84q47 53 71 122t24 150q0 80 -24 149q-25 71 -71 123q-49 56 -113 84q-70 31 -156 31t-156 -31q-64 -28 -113 -84q-46 -52 -71 -123q-25 -72 -25 -149zM236 1214q22 72 75 111q52 39 119 39q43 0 75 -14q34 -15 62 -31 l57 -31q25 -14 58 -14q34 0 66 22t43 78l86 -51q-22 -71 -76 -111q-51 -38 -119 -38q-43 0 -75 14q-34 15 -62 31l-57 30q-27 15 -58 15t-65 -23q-32 -22 -43 -78z" />
<glyph unicode="&#xf6;" horiz-adv-x="1097" d="M74 467q0 99 35 190t98 157q65 68 150 106t192 38q106 0 191 -38q87 -39 151 -106q63 -66 98 -157t35 -190q0 -102 -35 -192q-34 -88 -98 -155t-151 -106t-191 -39q-105 0 -192 39q-85 38 -150 106q-64 67 -98 155q-35 90 -35 192zM184 467q0 -78 25 -150q24 -69 71 -122 q49 -56 113 -84q70 -31 156 -31t156 31q64 28 113 84q47 53 71 122t24 150q0 80 -24 149q-25 71 -71 123q-49 56 -113 84q-70 31 -156 31t-156 -31q-64 -28 -113 -84q-46 -52 -71 -123q-25 -72 -25 -149zM283 1237q0 35 23 58q24 24 59 24q34 0 58 -24q23 -23 23 -58 t-23 -58q-24 -24 -58 -24q-35 0 -59 24q-23 23 -23 58zM653 1237q0 34 24 58t58 24q35 0 59 -24q23 -23 23 -58t-23 -58q-24 -24 -59 -24q-34 0 -58 24t-24 58z" />
<glyph unicode="&#xf7;" horiz-adv-x="1064" d="M92 465v98h881v-98h-881zM451 160q0 35 23 58q24 24 58 24q35 0 59 -24q23 -23 23 -58q0 -36 -23 -59t-59 -23q-35 0 -58 23t-23 59zM451 877q0 35 23 58t58 23q36 0 59 -23t23 -58q0 -36 -23 -59t-59 -23q-35 0 -58 23t-23 59z" />
<glyph unicode="&#xf8;" horiz-adv-x="1114" d="M82 467q0 99 35 190t98 157q64 67 151 106q85 38 191 38q81 0 148 -22q66 -22 126 -64l91 109l71 -61l-92 -109q61 -67 96 -156q35 -90 35 -188q0 -102 -35 -192q-34 -88 -98 -155q-65 -68 -150 -106q-87 -39 -192 -39q-83 0 -153 24q-73 25 -128 67l-79 -97l-72 62 l82 98q-58 64 -92 153q-33 87 -33 185zM193 467q0 -153 81 -258l490 586q-42 29 -93 44q-53 15 -114 15q-86 0 -156 -31q-64 -28 -113 -84q-46 -52 -71 -123q-24 -69 -24 -149zM342 143q86 -63 213 -63q86 0 157 31q64 28 114 84q47 53 71 122q25 72 25 150q0 156 -88 262z " />
<glyph unicode="&#xf9;" d="M147 338v596h107v-580q0 -73 19 -124q18 -49 55 -86q33 -33 82 -49q46 -15 100 -15q64 0 108 17q50 19 83 47q38 32 62 67q29 42 44 74v649h106v-934h-96v166q-41 -74 -120 -132q-80 -59 -201 -59q-65 0 -128 21q-64 21 -112 65t-79 113q-30 68 -30 164zM260 1382l80 76 l305 -305l-72 -68z" />
<glyph unicode="&#xfa;" d="M147 338v596h107v-580q0 -73 19 -124q18 -49 55 -86q33 -33 82 -49q46 -15 100 -15q64 0 108 17q50 19 83 47q38 32 62 67q29 42 44 74v649h106v-934h-96v166q-41 -74 -120 -132q-80 -59 -201 -59q-65 0 -128 21q-64 21 -112 65t-79 113q-30 68 -30 164zM418 1153 l305 305l72 -72l-308 -301z" />
<glyph unicode="&#xfb;" d="M147 338v596h107v-580q0 -73 19 -124q18 -49 55 -86q33 -33 82 -49q46 -15 100 -15q64 0 108 17q50 19 83 47q38 32 62 67q29 42 44 74v649h106v-934h-96v166q-41 -74 -120 -132q-80 -59 -201 -59q-65 0 -128 21q-64 21 -112 65t-79 113q-30 68 -30 164zM209 1161 l328 236l327 -236l-61 -76l-266 197l-267 -197z" />
<glyph unicode="&#xfc;" d="M147 338v596h107v-580q0 -73 19 -124q18 -49 55 -86q33 -33 82 -49q46 -15 100 -15q64 0 108 17q50 19 83 47q38 32 62 67q29 42 44 74v649h106v-934h-96v166q-41 -74 -120 -132q-80 -59 -201 -59q-65 0 -128 21q-64 21 -112 65t-79 113q-30 68 -30 164zM266 1237 q0 34 24 58t58 24q35 0 59 -24q23 -23 23 -58t-23 -58q-24 -24 -59 -24q-34 0 -58 24t-24 58zM637 1237q0 35 23 58q24 24 59 24q34 0 58 -24t24 -58t-24 -58t-58 -24q-35 0 -59 24q-23 23 -23 58z" />
<glyph unicode="&#xfd;" horiz-adv-x="1001" d="M29 934h114l406 -838l325 838h111l-237 -598l-90 -225l-79 -200l-60 -148l-27 -68q-40 -103 -100 -148q-58 -43 -136 -43q-48 0 -96 19q-47 19 -97 63l64 86q22 -22 55 -43q31 -20 76 -20q46 0 79 31q31 29 60 100l97 244zM408 1153l305 305l71 -72l-307 -301z" />
<glyph unicode="&#xfe;" horiz-adv-x="1161" d="M180 -471h107v621q12 -18 35 -46q24 -28 66 -57q45 -30 101 -50q63 -22 138 -22q96 0 180 36q81 35 146 101q64 65 99 155q35 89 35 200t-35 200q-35 90 -99 155q-65 66 -146 101q-82 35 -178 35q-77 0 -136 -21q-58 -21 -101 -50q-40 -27 -67 -59q-31 -37 -38 -46v654 h-107v-1907zM287 283v368q20 36 52 74q31 37 74 66q40 27 95 46q50 17 115 17q79 0 145 -30t112 -82q45 -51 71 -122q26 -72 26 -153t-26 -153t-71 -123q-45 -50 -112 -81q-66 -30 -145 -30q-65 0 -115 17q-55 19 -95 46q-43 29 -74 66q-32 38 -52 74z" />
<glyph unicode="&#xff;" horiz-adv-x="1001" d="M29 934h114l406 -838l325 838h111l-237 -598l-90 -225l-79 -200l-60 -148l-27 -68q-40 -103 -100 -148q-58 -43 -136 -43q-48 0 -96 19q-47 19 -97 63l64 86q22 -22 55 -43q31 -20 76 -20q46 0 79 31q31 29 60 100l97 244zM242 1237q0 35 23 58q24 24 59 24q34 0 58 -24 t24 -58t-24 -58t-58 -24q-35 0 -59 24q-23 23 -23 58zM612 1237q0 34 24 58t58 24q35 0 59 -24q23 -23 23 -58t-23 -58q-24 -24 -59 -24q-34 0 -58 24t-24 58z" />
<glyph unicode="&#x152;" horiz-adv-x="1732" d="M90 717q0 163 52 295q52 133 147 226q95 94 224 144q133 52 286 52h807v-107h-631v-536h581v-107h-581v-578h643v-106h-819q-155 0 -286 51q-127 50 -224 145q-95 93 -147 225q-52 131 -52 296zM207 717q0 -131 43 -241q44 -112 122 -193q80 -83 187 -129 q111 -48 240 -48h61v1221h-61q-131 0 -240 -47q-107 -46 -187 -129q-77 -80 -122 -194q-43 -110 -43 -240z" />
<glyph unicode="&#x153;" horiz-adv-x="1902" d="M74 467q0 99 35 190t98 157q65 68 150 106t192 38q145 0 252 -70t168 -186v-18q53 122 160 198t251 76q98 0 179 -36q83 -37 145 -102q61 -64 97 -155t36 -198v-21l-2 -22h-805q1 -52 27 -116q25 -62 70 -110q47 -50 114 -84t158 -34q56 0 104 13q49 13 90 36 q43 24 73 51q29 26 56 60l72 -74q-67 -82 -171 -136q-105 -55 -226 -55q-72 0 -135 21q-67 22 -119 56q-54 35 -99 86q-41 46 -71 110v-8q-57 -117 -167 -191t-257 -74q-105 0 -192 39q-85 38 -150 106q-64 67 -98 155q-35 90 -35 192zM184 467q0 -78 25 -150 q24 -69 71 -122q49 -56 113 -84q70 -31 156 -31t156 31q64 28 113 84q47 53 71 122t24 150q0 80 -24 149q-25 71 -71 123q-49 56 -113 84q-70 31 -156 31t-156 -31q-64 -28 -113 -84q-46 -52 -71 -123q-25 -72 -25 -149zM1034 522h692q-1 37 -20 96q-18 57 -59 110 q-39 50 -107 89q-65 37 -160 37t-160 -38q-66 -39 -106 -90q-42 -54 -59 -109q-20 -63 -21 -95z" />
<glyph unicode="&#x178;" horiz-adv-x="1163" d="M33 1434h123l428 -762l428 762h118l-495 -871v-563h-107v563zM317 1724q0 35 24 59q23 23 58 23q36 0 59 -23t23 -59q0 -35 -23 -58q-24 -24 -59 -24q-34 0 -58 24t-24 58zM688 1724q0 35 24 59q23 23 58 23t58 -23q24 -24 24 -59q0 -34 -24 -58t-58 -24t-58 24t-24 58z " />
<glyph unicode="&#x2c6;" horiz-adv-x="856" d="M100 1135l328 235l328 -235l-62 -76l-266 196l-266 -196z" />
<glyph unicode="&#x2dc;" horiz-adv-x="798" d="M84 1208q22 71 76 111q53 39 119 39q39 0 74 -15q45 -20 63 -30l56 -31q25 -14 58 -14q34 0 66 22t43 78l86 -51q-22 -71 -76 -111q-53 -39 -119 -39q-40 0 -74 15q-45 20 -63 30l-56 31q-25 14 -58 14q-34 0 -66 -22t-43 -78z" />
<glyph unicode="&#x2000;" horiz-adv-x="964" />
<glyph unicode="&#x2001;" horiz-adv-x="1929" />
<glyph unicode="&#x2002;" horiz-adv-x="964" />
<glyph unicode="&#x2003;" horiz-adv-x="1929" />
<glyph unicode="&#x2004;" horiz-adv-x="643" />
<glyph unicode="&#x2005;" horiz-adv-x="482" />
<glyph unicode="&#x2006;" horiz-adv-x="321" />
<glyph unicode="&#x2007;" horiz-adv-x="321" />
<glyph unicode="&#x2008;" horiz-adv-x="241" />
<glyph unicode="&#x2009;" horiz-adv-x="385" />
<glyph unicode="&#x200a;" horiz-adv-x="107" />
<glyph unicode="&#x2010;" horiz-adv-x="681" d="M68 436v99h546v-99h-546z" />
<glyph unicode="&#x2011;" horiz-adv-x="681" d="M68 436v99h546v-99h-546z" />
<glyph unicode="&#x2012;" horiz-adv-x="681" d="M68 436v99h546v-99h-546z" />
<glyph unicode="&#x2013;" horiz-adv-x="1024" d="M0 451v98h1024v-98h-1024z" />
<glyph unicode="&#x2014;" horiz-adv-x="2048" d="M0 451v98h2048v-98h-2048z" />
<glyph unicode="&#x2018;" horiz-adv-x="307" d="M102 946v488h103v-488h-103z" />
<glyph unicode="&#x2019;" horiz-adv-x="307" d="M102 946v488h103v-488h-103z" />
<glyph unicode="&#x201c;" horiz-adv-x="684" d="M164 946v488h102v-488h-102zM418 946v488h102v-488h-102z" />
<glyph unicode="&#x201d;" horiz-adv-x="684" d="M164 946v488h102v-488h-102zM418 946v488h102v-488h-102z" />
<glyph unicode="&#x201e;" horiz-adv-x="684" d="M164 201h102v-488h-102v488zM418 201h102v-488h-102v488z" />
<glyph unicode="&#x2022;" horiz-adv-x="831" d="M236 717q0 76 52 128t128 52t128 -52t52 -128t-52 -128t-128 -52t-128 52t-52 128z" />
<glyph unicode="&#x2026;" horiz-adv-x="2048" d="M266 57q0 35 24 59q23 23 58 23q36 0 59 -23t23 -59q0 -35 -23 -58q-24 -24 -59 -24q-34 0 -58 24t-24 58zM942 57q0 35 24 59q23 23 58 23t58 -23q24 -24 24 -59q0 -34 -24 -58t-58 -24t-58 24t-24 58zM1618 57q0 36 23 59t59 23q35 0 58 -23q24 -24 24 -59 q0 -34 -24 -58t-58 -24q-35 0 -59 24q-23 23 -23 58z" />
<glyph unicode="&#x202f;" horiz-adv-x="385" />
<glyph unicode="&#x2039;" horiz-adv-x="610" d="M45 502l352 459l82 -64l-305 -395l305 -396l-82 -63z" />
<glyph unicode="&#x203a;" horiz-adv-x="610" d="M131 106l305 396l-305 395l82 64l352 -459l-352 -459z" />
<glyph unicode="&#x205f;" horiz-adv-x="482" />
<glyph unicode="&#x20ac;" horiz-adv-x="1187" d="M68 553v96h155q-2 22 -2 34v34v34q0 11 2 33h-155v97h165q22 124 77 230q54 104 139 182q87 79 194 121q112 44 246 44q84 0 145 -13q67 -14 101 -28l-35 -96q-49 18 -102 25q-61 8 -105 8q-104 0 -195 -35q-90 -35 -160 -97q-70 -63 -120 -150q-49 -86 -70 -191h547v-97 h-561q-2 -22 -2 -33v-34v-34q0 -12 2 -34h561v-96h-547q23 -110 72 -196t120 -148q68 -60 159 -95q87 -34 192 -34q53 0 110 9q55 9 103 28l33 -97q-31 -12 -106 -30q-64 -15 -146 -15q-137 0 -245 43q-111 44 -193 120t-137 184t-77 231h-165z" />
<glyph unicode="&#x2122;" horiz-adv-x="1546" d="M33 1356v78h526v-78h-223v-680h-84v680h-219zM713 676v758h88l268 -424l268 424h88v-758h-84v614l-272 -428l-272 428v-614h-84z" />
<glyph unicode="&#x25fc;" horiz-adv-x="931" d="M0 0v932h932v-932h-932z" />
</font>
</defs>
</svg>
