<?xml version="1.0" standalone="no"?>
<!DOCTYPE svg PUBLIC "-//W3C//DTD SVG 1.1//EN" "http://www.w3.org/Graphics/SVG/1.1/DTD/svg11.dtd" >
<svg xmlns="http://www.w3.org/2000/svg">
<metadata></metadata>
<defs>
<font id="europaregular" horiz-adv-x="1064" >
<font-face units-per-em="2048" ascent="1548" descent="-500" />
<missing-glyph horiz-adv-x="573" />
<glyph horiz-adv-x="0" />
<glyph horiz-adv-x="682" />
<glyph unicode=" "  horiz-adv-x="573" />
<glyph unicode="&#x09;" horiz-adv-x="573" />
<glyph unicode="&#xa0;" horiz-adv-x="573" />
<glyph unicode="!" horiz-adv-x="567" d="M168 92q0 46 35 81q34 34 82 34q47 0 81 -34q33 -33 33 -81q0 -49 -33 -82q-35 -35 -81 -35q-47 0 -82 35t-35 82zM199 371v1063h172v-1063h-172z" />
<glyph unicode="&#x22;" horiz-adv-x="679" d="M123 946v488h147v-488h-147zM410 946v488h147v-488h-147z" />
<glyph unicode="#" horiz-adv-x="1298" d="M98 455v131h262l41 295h-243v131h262l65 454l125 -18l-61 -436h278l64 454l127 -18l-62 -436h244v-131h-262l-43 -295h246v-131h-264l-68 -486l-125 19l66 467h-279l-68 -486l-127 19l66 467h-244zM489 586h279l41 295h-279z" />
<glyph unicode="$" horiz-adv-x="1187" d="M145 274l144 88q14 -36 41 -73q29 -41 62 -68q38 -32 80 -52q46 -22 93 -28v514q-58 25 -135 69q-66 38 -117 87q-52 51 -83 112q-31 62 -31 144q0 63 21 129q20 64 67 120t113 92q69 38 165 48v170h105v-172q57 -6 115 -28q56 -22 100 -51q47 -31 79 -62q28 -27 54 -64 l-129 -106q-31 47 -90 89q-58 41 -129 56v-491q4 -3 10 -5q2 0 4 -2t4 -2q96 -43 149 -75q66 -39 112 -88q47 -50 71 -110t24 -140q0 -86 -27 -155q-26 -67 -78 -119t-119 -81q-68 -30 -150 -40v-173h-105v170q-75 4 -146 32q-66 26 -122 69q-53 41 -92 92q-39 50 -60 104z M371 1075q0 -77 51 -130q51 -52 143 -99v444q-96 -15 -145 -77t-49 -138zM670 145q81 16 140 72q58 55 58 150q0 91 -55 143q-57 54 -143 96v-461z" />
<glyph unicode="%" horiz-adv-x="1458" d="M66 1141q0 69 25 125t69 100q45 45 101 68q59 24 126 24t126 -24q56 -23 101 -68q44 -44 69 -100q26 -58 26 -125t-26 -125t-69 -101t-101 -67q-61 -25 -126 -25t-126 25q-58 24 -101 67t-69 101q-25 56 -25 125zM184 1141q0 -40 16 -80q14 -36 43 -66q27 -29 64 -45 q36 -16 80 -16t80 16q37 16 64 45q29 30 43 66q16 40 16 80t-16 80q-14 34 -43 65q-27 29 -64 45q-39 17 -80 17t-80 -17q-37 -16 -64 -45q-29 -31 -43 -65q-16 -40 -16 -80zM197 23l944 1452l88 -60l-940 -1456zM750 293q0 69 25 125t69 100q45 45 101 68q59 24 126 24 t126 -24q56 -23 101 -68q44 -44 69 -100q26 -58 26 -125t-26 -125q-25 -56 -69 -100q-45 -45 -101 -68q-61 -25 -126 -25t-126 25q-56 23 -101 68q-44 44 -69 100t-25 125zM868 293q0 -40 16 -80q14 -36 43 -66q27 -29 64 -45q36 -16 80 -16t80 16q37 16 64 45q29 30 43 66 q16 40 16 80t-16 80q-14 34 -43 65q-27 29 -64 45q-39 17 -80 17t-80 -17q-37 -16 -64 -45q-29 -31 -43 -65q-16 -40 -16 -80z" />
<glyph unicode="&#x26;" horiz-adv-x="1435" d="M147 332q0 51 17 102q18 54 53 100q41 54 95 104q56 51 143 120q-118 105 -165 187q-50 86 -50 175q0 66 23 125q25 64 70 109q49 49 113 76q66 28 154 28t154 -28q65 -27 113 -77q45 -47 70 -110q24 -62 24 -125q0 -40 -12 -78q-12 -36 -40 -78q-34 -50 -77 -93 q-54 -54 -127 -113l358 -324q12 16 22 53q11 39 18 86q7 44 10 105q3 55 3 110h160q0 -155 -28 -284q-27 -125 -62 -178l250 -226l-105 -123l-246 218q-77 -96 -204 -156q-130 -62 -283 -62q-92 0 -174 24t-143 70q-63 47 -98 112q-36 66 -36 151zM319 328q0 -50 26 -87 q25 -35 67 -60q37 -22 92 -35q47 -11 100 -11q108 0 208 44q98 43 159 118l-396 352l-6 -6q-41 -37 -75 -63q-41 -31 -82 -72q-38 -38 -66 -83q-27 -43 -27 -97zM412 1122q0 -46 16 -81q17 -37 43 -66q37 -41 58 -59q35 -30 61 -56l102 91q43 39 61 63q20 26 28 49 q7 21 7 49q0 50 -16 86t-43 60q-28 25 -60 36q-37 13 -71 13q-80 0 -133 -53t-53 -132z" />
<glyph unicode="'" horiz-adv-x="307" d="M82 946v488h143v-488h-143z" />
<glyph unicode="(" horiz-adv-x="630" d="M135 604q0 137 22 264q21 123 61 232q42 116 98 216q53 95 133 216l124 -88q-50 -77 -117 -196q-52 -92 -88 -191q-38 -105 -55 -209q-18 -111 -18 -244t18 -244q17 -102 55 -208q36 -100 88 -193q61 -109 117 -195l-124 -88q-80 121 -133 216q-55 98 -98 217 q-40 110 -61 231q-22 127 -22 264z" />
<glyph unicode=")" horiz-adv-x="630" d="M57 -236q63 96 118 195q52 93 88 193q37 101 54 208q19 117 19 244t-19 244q-18 109 -54 209q-36 99 -88 191q-60 107 -118 196l125 88q74 -111 132 -216t99 -216q40 -109 61 -232q22 -127 22 -264t-22 -264q-21 -121 -61 -231q-42 -114 -99 -217q-58 -105 -132 -216z " />
<glyph unicode="*" horiz-adv-x="815" d="M57 1155l37 117l252 -84v270h123v-270l252 84l37 -117l-250 -80l151 -213l-98 -69l-151 217l-156 -217l-98 71l155 211z" />
<glyph unicode="+" d="M57 418v151h398v402h155v-402h398v-151h-398v-418h-155v418h-398z" />
<glyph unicode="," horiz-adv-x="468" d="M49 -291l166 479l156 -53l-176 -477z" />
<glyph unicode="-" horiz-adv-x="681" d="M68 418v164h546v-164h-546z" />
<glyph unicode="." horiz-adv-x="471" d="M119 92q0 47 35 82t82 35q46 0 81 -35t35 -82t-35 -82t-81 -35q-47 0 -82 35t-35 82z" />
<glyph unicode="/" horiz-adv-x="1017" d="M45 -211l813 1837l139 -61l-813 -1837z" />
<glyph unicode="0" horiz-adv-x="1212" d="M86 717q0 139 31 277q30 133 94 237q63 102 162 165q97 62 235 62q139 0 235 -62q98 -64 161 -165q62 -101 93 -237q29 -129 29 -277q0 -149 -29 -278q-30 -134 -93 -236q-63 -101 -161 -165q-97 -63 -235 -63q-136 0 -235 63t-162 165q-64 104 -94 236q-31 138 -31 278z M258 717q0 -101 20 -209q19 -104 60 -187q41 -84 107 -135t163 -51q95 0 161 51q67 52 108 135q41 84 59 187q18 105 18 209t-18 209q-18 103 -59 187q-40 81 -108 134q-66 51 -161 51q-97 0 -163 -51t-107 -134t-60 -187q-20 -108 -20 -209z" />
<glyph unicode="1" horiz-adv-x="829" d="M37 1120l393 314h154v-1434h-172v1208l-275 -219z" />
<glyph unicode="2" horiz-adv-x="1089" d="M98 1135q17 56 55 119q36 59 89 104q54 46 124 73t162 27q98 0 180 -32q80 -31 137 -88q57 -56 88 -133q32 -78 32 -165q0 -72 -20 -135q-19 -59 -44 -108q-22 -43 -49 -80l-37 -49l-381 -508h541v-160h-869l504 668l52 65q32 42 59 87q29 49 50 104q22 58 22 116 q0 50 -17 98q-17 47 -49 82q-33 36 -82 57q-50 21 -115 21t-111 -20q-50 -22 -83 -52q-35 -32 -56 -71q-24 -44 -34 -76z" />
<glyph unicode="3" horiz-adv-x="1114" d="M76 301l151 70q15 -46 40 -88q24 -42 65 -76q38 -32 90 -52t119 -20q65 0 119 21q58 23 93 56q37 36 58 85q20 47 20 109q0 109 -73 178q-74 69 -230 69h-67v158h43q62 0 114 15t94 46q38 28 62 75q23 44 23 102q0 48 -19 97q-18 46 -52 80q-33 33 -82 53q-47 19 -105 19 q-59 0 -100 -17q-47 -19 -77 -44q-34 -28 -55 -60q-23 -36 -35 -65l-147 66q22 53 56 99q37 50 88 90q52 40 119 66q65 25 149 25q87 0 169 -31q76 -29 137 -85q57 -52 92 -129q34 -74 34 -162q0 -112 -53 -192q-52 -79 -123 -116q98 -34 155 -127q56 -92 56 -215 q0 -99 -36 -179q-35 -76 -100 -134q-63 -56 -147 -84q-85 -29 -182 -29q-95 0 -174 28q-75 27 -134 73q-58 46 -96 104q-37 57 -59 121z" />
<glyph unicode="4" horiz-adv-x="1150" d="M4 377l748 1057h151v-897h178v-160h-178v-377h-168v377h-731zM291 537h444v634z" />
<glyph unicode="5" horiz-adv-x="1177" d="M127 285l149 80q16 -40 48 -87q30 -45 68 -74q42 -32 90 -50q52 -19 112 -19q62 0 119 21t100 61t69 101q25 59 25 141q0 80 -25 139q-24 58 -69 99q-43 40 -100 61q-54 20 -121 20q-57 0 -114 -15q-53 -14 -106 -38q-55 -25 -96 -51q-38 -24 -77 -56v816h850v-160h-687 v-393q57 29 126 44q70 15 135 15q89 0 171 -30q85 -31 146 -89q65 -61 101 -149q38 -91 38 -209q0 -123 -41 -216t-109 -152q-69 -60 -157 -90t-180 -30t-167 27t-133 70q-60 45 -99 98q-44 61 -66 115z" />
<glyph unicode="6" horiz-adv-x="1110" d="M90 440q0 68 20 139q18 64 50 123q13 24 56 97l109 181l142 238l160 265l139 -90l-309 -492q19 8 43 14q28 7 69 7q107 0 192 -39q83 -38 144 -105q60 -66 91 -150q32 -87 32 -175q0 -89 -31 -177q-30 -85 -91 -152q-62 -69 -147 -108q-88 -41 -200 -41t-200 41 q-85 39 -147 108q-61 68 -91 149q-31 85 -31 167zM262 453q0 -64 21 -121q22 -61 58 -102q37 -44 93 -69q57 -26 125 -26q69 0 124 26q54 25 93 69q38 42 60 102q20 54 20 121q0 62 -21 119q-20 54 -60 99q-37 42 -93 66q-58 25 -123 25t-123 -25q-56 -24 -93 -66 q-38 -43 -59 -99q-22 -60 -22 -119z" />
<glyph unicode="7" horiz-adv-x="1036" d="M94 1274v160h955l-762 -1471l-146 78l637 1233h-684z" />
<glyph unicode="8" horiz-adv-x="1130" d="M111 412q0 117 55 214q56 98 156 150q-74 44 -116 125q-44 83 -44 174q0 72 26 138q27 70 79 123q52 54 127 88q74 34 171 34t171 -34q75 -34 127 -88q52 -53 79 -123q27 -69 27 -138q0 -91 -44 -174q-42 -81 -116 -125q101 -52 156 -150q55 -97 55 -214q0 -90 -33 -169 q-33 -80 -92 -139q-60 -60 -143 -94q-85 -35 -187 -35q-101 0 -186 35q-83 34 -143 94t-93 139q-32 77 -32 169zM283 414q0 -56 19 -104q21 -52 56 -89q37 -38 89 -62q53 -24 118 -24t118 24q52 24 89 62q35 37 56 89q20 51 20 104q0 52 -20 103t-56 90q-37 40 -89 64 q-50 23 -118 23t-118 -23q-52 -24 -89 -64q-36 -39 -56 -90q-19 -48 -19 -103zM334 1071q0 -49 18 -91t49 -73q30 -30 73 -47q41 -16 91 -16t91 16q43 17 73 47q31 31 49 73q19 44 19 91t-19 91q-18 42 -49 73q-30 30 -73 47q-41 16 -91 16t-91 -16q-43 -17 -73 -47 q-31 -31 -49 -73t-18 -91z" />
<glyph unicode="9" horiz-adv-x="1110" d="M82 983q0 85 31 173q29 84 91 153q60 67 147 108q88 41 200 41t200 -41q86 -40 147 -107t91 -151q31 -87 31 -170q0 -67 -16 -124q-16 -56 -41 -105l-58 -101l-111 -188l-147 -245l-162 -269l-139 90l309 494q-19 -12 -35 -17q-26 -8 -77 -8q-110 0 -194 40t-144 106 t-91 149q-32 85 -32 172zM254 983q0 -63 21 -119q20 -52 60 -97q39 -44 93 -67q56 -24 123 -24t123 24q54 23 93 67q39 43 59 97q22 58 22 119q0 64 -21 121q-21 58 -59 100q-39 44 -93 69q-53 25 -124 25t-125 -25q-56 -25 -93 -69q-39 -45 -59 -100q-20 -54 -20 -121z" />
<glyph unicode=":" horiz-adv-x="483" d="M125 92q0 47 35 82t82 35t82 -35q34 -34 34 -82t-34 -82q-35 -35 -82 -35t-82 35t-35 82zM125 854q0 47 35 82t82 35t82 -35q34 -34 34 -82t-34 -82q-35 -35 -82 -35t-82 35t-35 82z" />
<glyph unicode=";" horiz-adv-x="471" d="M49 -291l166 479l156 -53l-176 -477zM139 854q0 47 35 82t82 35t82 -35t35 -82t-35 -82t-82 -35t-82 35t-35 82z" />
<glyph unicode="&#x3c;" d="M37 483v144l946 403v-160l-750 -315l750 -317v-160z" />
<glyph unicode="=" d="M113 256v152h839v-152h-839zM113 580v151h839v-151h-839z" />
<glyph unicode="&#x3e;" d="M82 78v160l749 317l-749 315v160l946 -403v-144z" />
<glyph unicode="?" horiz-adv-x="987" d="M45 1157q51 135 163 218t265 83q89 0 165 -30q78 -31 134 -82t90 -126q33 -72 33 -159q0 -69 -22 -130q-21 -59 -54 -105t-71 -83q-29 -27 -72 -63l-67 -58q-22 -19 -34 -40q-11 -18 -12 -39q-2 -28 -2 -56v-118h-160v118q0 49 3 85q3 37 18 68q16 33 43 63t80 75l57 48 q27 23 57 58q29 34 46 73q18 42 18 96q0 108 -71 177q-69 68 -177 68q-55 0 -98 -17q-48 -19 -80 -47t-61 -68q-25 -35 -43 -79zM367 90q0 49 33 82q35 35 81 35q47 0 82 -35t35 -82q0 -46 -35 -81q-34 -34 -82 -34q-47 0 -81 34q-33 33 -33 81z" />
<glyph unicode="@" horiz-adv-x="1636" d="M98 717q0 153 59 289t158 235q101 101 237 159q135 58 294 58q152 0 278 -55q128 -55 219 -153q94 -101 144 -232q51 -135 51 -295q0 -130 -32 -212q-31 -79 -79 -127q-45 -45 -100 -62q-54 -17 -96 -17q-30 0 -67 8q-32 7 -62 26q-28 17 -49 45q-21 27 -27 67 q-42 -71 -110 -108q-70 -38 -142 -38q-48 0 -100 19q-50 18 -88 52q-39 35 -63 82q-23 46 -23 107q0 59 22 107t63 83q38 33 93 53q51 19 113 19q91 0 141 -33q54 -35 82 -65v62q0 59 -19 100q-17 38 -46 60q-30 23 -61 30q-37 8 -65 8q-65 0 -124 -24q-54 -22 -93 -56 l-59 109q39 30 116 65q72 33 171 33q142 0 228 -80q85 -79 85 -217v-305q0 -52 29 -70q28 -18 63 -18q15 0 43 6t57 35q31 31 51 88q21 60 21 166q0 142 -44 257q-42 111 -121 191q-76 78 -179 120q-102 42 -221 42q-132 0 -244 -48t-196 -132q-85 -85 -133 -196t-48 -238 q0 -128 48 -239q47 -109 133 -195q85 -85 197 -132q116 -49 245 -49q103 0 193 26q92 26 141 54l51 -110q-68 -37 -163 -66q-102 -31 -222 -31q-156 0 -294 59q-136 58 -238 159q-100 98 -159 235q-59 136 -59 289zM639 563q0 -66 46 -100q47 -35 116 -35q66 0 124 33 q60 34 89 98v62q-37 45 -92 67q-57 23 -109 23q-76 0 -125 -40t-49 -108z" />
<glyph unicode="A" horiz-adv-x="1314" d="M16 0l564 1434h159l559 -1434h-180l-149 387h-619l-149 -387h-185zM414 551h491l-246 637z" />
<glyph unicode="B" horiz-adv-x="1153" d="M168 0v1434h377q107 0 196 -28q85 -27 145 -79q59 -51 89 -121q31 -71 31 -155q0 -80 -23 -135q-23 -54 -52 -88q-30 -34 -55 -49q-27 -16 -32 -17q2 0 46 -18q38 -15 81 -54t78 -105q34 -65 34 -171q0 -99 -32 -173q-33 -77 -95 -130q-63 -54 -147 -82q-87 -29 -193 -29 h-448zM340 164h276q77 0 133 19q55 19 92 54q35 34 53 77q17 41 17 96q0 54 -17 95q-19 45 -53 78q-35 33 -92 53q-56 19 -133 19h-276v-491zM340 815h233q122 0 192 62q69 61 69 165t-69 166q-70 62 -192 62h-233v-455z" />
<glyph unicode="C" horiz-adv-x="1357" d="M78 717q0 157 52 291q53 136 146 235q95 101 225 158q131 57 285 57q99 0 175 -20q77 -20 144 -53q66 -32 114 -70q46 -36 81 -76l-118 -113q-62 72 -165 120t-226 48q-118 0 -217 -47q-95 -45 -166 -127q-72 -83 -108 -184q-38 -106 -38 -219t38 -219q37 -103 108 -185 q70 -81 165 -127q97 -47 213 -47q73 0 136 18q62 18 115 45q54 28 93 61q46 39 70 67l117 -119q-39 -42 -90 -83q-49 -39 -121 -76q-65 -33 -149 -55q-85 -22 -175 -22q-151 0 -282 58q-130 57 -222 157q-95 103 -147 236q-53 136 -53 291z" />
<glyph unicode="D" horiz-adv-x="1366" d="M168 0v1434h412q164 0 298 -55q130 -53 223 -149q90 -93 139 -226q48 -130 48 -287t-48 -287q-49 -133 -139 -226q-94 -97 -223 -150q-132 -54 -298 -54h-412zM340 164h229q133 0 232 43q102 44 168 119t101 176q34 99 34 215t-34 215q-35 101 -101 176t-168 119 q-99 43 -232 43h-229v-1106z" />
<glyph unicode="E" horiz-adv-x="1114" d="M168 0v1434h827v-164h-655v-453h606v-164h-606v-489h668v-164h-840z" />
<glyph unicode="F" horiz-adv-x="1071" d="M168 0v1434h809v-164h-637v-453h596v-164h-596v-653h-172z" />
<glyph unicode="G" horiz-adv-x="1468" d="M78 717q0 157 52 291q51 132 148 235q95 101 228 158t293 57q153 0 291 -52q140 -53 225 -151l-123 -120q-66 69 -171 114t-226 45q-119 0 -218 -47q-96 -46 -168 -127t-109 -185q-38 -106 -38 -220q0 -113 38 -218q37 -103 109 -184t170 -127q100 -47 224 -47q41 0 92 6 q43 5 102 19q49 12 101 32q47 19 86 48v379h-359v163h529v-622q-52 -46 -120 -83q-60 -33 -139 -59q-66 -22 -149 -35q-76 -12 -145 -12q-159 0 -295 58q-134 57 -228 157q-96 102 -148 236t-52 291z" />
<glyph unicode="H" horiz-adv-x="1398" d="M168 0v1434h172v-617h719v617h172v-1434h-172v653h-719v-653h-172z" />
<glyph unicode="I" horiz-adv-x="565" d="M197 0v1434h172v-1434h-172z" />
<glyph unicode="J" horiz-adv-x="970" d="M8 182l125 109q16 -26 40 -53q27 -30 55 -49t72 -35q40 -15 93 -15q65 0 111 23t74 57t40 78q13 47 13 84v1053h172v-1051q0 -90 -30 -165t-84 -129t-129 -84t-167 -30q-68 0 -131 19q-57 17 -106 47q-44 27 -84 67q-38 38 -64 74z" />
<glyph unicode="K" horiz-adv-x="1206" d="M168 0v1434h172v-674l580 674h219l-607 -701l674 -733h-233l-633 684v-684h-172z" />
<glyph unicode="L" horiz-adv-x="999" d="M168 0v1434h172v-1270h643v-164h-815z" />
<glyph unicode="M" horiz-adv-x="1658" d="M168 0v1434h172l494 -801l491 801h166v-1434h-172v1122l-490 -796l-489 794v-1120h-172z" />
<glyph unicode="N" horiz-adv-x="1454" d="M168 0v1434h178l768 -1147v1147h172v-1434h-178l-768 1147v-1147h-172z" />
<glyph unicode="O" horiz-adv-x="1572" d="M78 717q0 157 52 291q53 136 146 235q95 101 225 158q131 57 285 57q156 0 286 -57q128 -56 224 -158q95 -101 147 -235t52 -291t-52 -291q-53 -136 -147 -236t-224 -157q-133 -58 -286 -58q-152 0 -285 58q-131 57 -225 157q-92 98 -146 236q-52 134 -52 291zM262 717 q0 -113 38 -219q37 -105 107 -185q72 -82 165 -127q99 -47 214 -47t214 47q95 45 166 127q70 80 107 185q38 106 38 219t-38 219q-37 103 -107 184q-71 82 -166 127q-99 47 -214 47t-214 -47q-93 -45 -165 -127q-70 -81 -107 -184q-38 -106 -38 -219z" />
<glyph unicode="P" horiz-adv-x="1081" d="M168 0v1434h371q224 0 357 -113q132 -113 132 -320t-132 -319q-133 -113 -357 -113h-199v-569h-172zM340 733h188q148 0 238 66t90 202q0 137 -90 203t-238 66h-188v-537z" />
<glyph unicode="Q" horiz-adv-x="1619" d="M78 717q0 157 52 291q53 136 146 235q95 101 225 158q131 57 285 57q156 0 286 -57q128 -56 224 -158q95 -101 147 -235t52 -291q0 -135 -39 -252q-40 -119 -110 -213l221 -197l-107 -125l-227 201q-92 -75 -203 -115q-114 -41 -244 -41q-152 0 -285 58q-131 57 -225 157 q-92 98 -146 236q-52 134 -52 291zM262 717q0 -113 38 -219q37 -103 108 -185q70 -81 165 -127q97 -47 213 -47q91 0 170 29t142 80l-201 180l109 127l204 -184q49 73 76 161t27 185q0 114 -39 219q-39 104 -108 184q-71 82 -166 127q-99 47 -214 47q-116 0 -213 -47 q-95 -46 -165 -127q-72 -83 -108 -184q-38 -106 -38 -219z" />
<glyph unicode="R" horiz-adv-x="1132" d="M168 0v1434h373q105 0 194 -30q91 -31 152 -86q65 -59 98 -135q35 -81 35 -177q0 -125 -49 -204q-50 -80 -112 -123q-66 -46 -119 -61q-58 -17 -70 -18l397 -600h-207l-387 586h-133v-586h-172zM340 750h211q145 0 221 70t76 190q0 119 -76 189q-77 71 -221 71h-211v-520 z" />
<glyph unicode="S" horiz-adv-x="1110" d="M102 274l144 86q16 -39 48 -82t68 -71q40 -31 90 -49q52 -19 109 -19q51 0 99 15t85 43q38 29 60 70t22 100q0 55 -21 95q-20 39 -58 71q-40 33 -89 58l-110 54q-83 40 -140 70q-72 38 -127 86q-59 51 -92 113q-34 64 -34 151q0 74 26 142q27 71 78 126t128 90 q78 35 179 35q78 0 141 -19q62 -19 115 -50q50 -29 90 -68q42 -40 64 -72l-129 -104q-14 21 -46 53q-26 26 -64 48t-79 35q-42 13 -92 13q-60 0 -103 -18q-44 -18 -75 -49t-46 -71t-15 -81q0 -52 22 -89t64 -71q41 -34 100 -63q84 -42 133 -64q97 -44 149 -76 q65 -40 112 -87t71 -107q25 -63 25 -139q0 -95 -34 -169q-35 -76 -93 -127q-61 -53 -141 -80q-84 -28 -173 -28q-91 0 -166 26q-73 25 -131 68t-98 96q-45 59 -66 109z" />
<glyph unicode="T" horiz-adv-x="1052" d="M29 1270v164h995v-164h-412v-1270h-172v1270h-411z" />
<glyph unicode="U" horiz-adv-x="1380" d="M168 528v906h172v-887q0 -88 19 -161q19 -74 63 -130q44 -57 109 -86q68 -31 159 -31t159 31q65 29 109 86q44 56 63 130q19 73 19 161v887h172v-906q0 -125 -35 -224q-35 -100 -103 -174t-164 -114q-99 -41 -220 -41t-220 41q-96 40 -164 114q-66 72 -102 174t-36 224z " />
<glyph unicode="V" horiz-adv-x="1212" d="M8 1434h189l413 -1051l416 1051h178l-598 -1475z" />
<glyph unicode="W" horiz-adv-x="1945" d="M8 1434h193l362 -994l352 994h125l349 -994l366 994h182l-553 -1475l-411 1128l-414 -1128z" />
<glyph unicode="X" horiz-adv-x="1208" d="M35 0l463 741l-430 693h202l340 -557l338 557h193l-430 -693l463 -741h-205l-371 602l-369 -602h-194z" />
<glyph unicode="Y" horiz-adv-x="1187" d="M25 1434h192l385 -705l379 705h182l-483 -871v-563h-172v563z" />
<glyph unicode="Z" horiz-adv-x="1171" d="M37 0l805 1270h-750v164h1043l-805 -1270h766v-164h-1059z" />
<glyph unicode="[" horiz-adv-x="641" d="M154 -471v1987h385v-136h-234v-1716h234v-135h-385z" />
<glyph unicode="\" horiz-adv-x="1017" d="M20 1565l140 61l813 -1837l-139 -61z" />
<glyph unicode="]" horiz-adv-x="641" d="M102 -336h234v1716h-234v136h385v-1987h-385v135z" />
<glyph unicode="^" horiz-adv-x="1097" d="M57 717l422 831h139l422 -831h-186l-305 618l-309 -618h-183z" />
<glyph unicode="_" horiz-adv-x="1024" d="M86 -307h852v-164h-852v164z" />
<glyph unicode="`" horiz-adv-x="540" d="M37 1370l106 107l306 -306l-103 -96z" />
<glyph unicode="a" horiz-adv-x="1048" d="M86 295q0 70 29 130q27 56 79 100q49 42 119 66q66 23 150 23q91 0 164 -24q71 -23 118 -53v51q0 76 -26 118t-65 67q-36 23 -80 31q-39 7 -70 7q-63 0 -140 -23q-75 -22 -141 -57l-71 143q67 38 151 66q95 31 203 31q104 0 182 -30q80 -31 128 -79q52 -52 76 -111 q26 -64 26 -128v-623h-158v137q-54 -75 -138 -118q-86 -44 -182 -44q-62 0 -128 22q-60 20 -113 62q-52 41 -82 101q-31 62 -31 135zM258 295q0 -43 18 -75q16 -28 50 -52q28 -20 68 -31q36 -10 79 -10q95 0 165 47q67 45 107 96v133q-43 30 -106 49q-64 19 -139 19 q-116 0 -178 -49q-64 -50 -64 -127z" />
<glyph unicode="b" horiz-adv-x="1169" d="M168 0v1548h172v-719q38 49 114 96q76 46 191 46q96 0 180 -39q83 -39 146 -106q61 -65 97 -157q36 -91 36 -196q0 -104 -36 -195q-37 -94 -98 -158q-65 -68 -147 -106q-84 -39 -180 -39q-59 0 -109 15q-54 16 -91 37q-37 20 -69 51q-29 28 -48 59v-137h-158zM340 299 q16 -29 42 -57q27 -31 61 -53q32 -22 80 -38q46 -16 100 -16q70 0 127 27q58 28 97 72q39 45 62 108t23 131t-23 131q-23 62 -63 108q-38 44 -98 72q-57 27 -127 27q-102 0 -170 -49q-72 -52 -111 -115v-348z" />
<glyph unicode="c" horiz-adv-x="976" d="M66 473q0 109 36 195q38 90 103 157q67 69 154 107q88 39 194 39q64 0 125 -16q54 -14 104 -40q46 -24 85 -55q41 -33 63 -59l-117 -105q-36 41 -100 77q-67 38 -160 38q-71 0 -130 -27q-61 -28 -99 -72q-42 -48 -64 -108t-22 -131t22 -131t64 -108q38 -44 99 -72 q59 -27 130 -27q99 0 169 43t107 92l111 -112q-33 -37 -64 -64q-33 -29 -86 -59q-46 -26 -108 -43t-129 -17q-106 0 -194 39q-86 38 -154 106q-65 65 -103 158q-36 88 -36 195z" />
<glyph unicode="d" horiz-adv-x="1169" d="M66 473q0 107 35 196q35 90 98 157q64 68 145 106q84 39 180 39q116 0 192 -46q75 -45 113 -96v719h172v-1548h-157v137q-17 -29 -49 -59q-29 -28 -71 -51q-40 -22 -89 -37t-109 -15q-96 0 -180 39q-80 37 -146 106q-63 66 -99 158q-35 89 -35 195zM238 473 q0 -71 22 -131q22 -62 63 -108q39 -44 97 -72q57 -27 127 -27q53 0 99 16q48 16 80 38q34 22 61 53q25 28 42 57v348q-40 64 -110 115q-68 49 -170 49q-70 0 -127 -27q-60 -28 -98 -72q-42 -48 -64 -108t-22 -131z" />
<glyph unicode="e" d="M66 477q0 105 33 191q34 89 96 157q63 69 148 107q87 39 194 39q99 0 185 -36q85 -36 146 -101q63 -68 97 -159q34 -92 34 -208v-27q0 -6 -2 -28h-764q5 -56 31 -104q28 -51 70 -89q43 -38 100 -61q58 -23 125 -23q100 0 171 43q75 45 114 96l108 -112q-31 -36 -70 -69 q-36 -30 -90 -60q-49 -27 -110 -42q-64 -16 -129 -16q-104 0 -195 38q-88 36 -154 106q-64 67 -102 160q-36 88 -36 198zM238 555h593q-1 39 -21 84q-20 46 -55 84q-36 39 -90 63q-56 25 -128 25q-76 0 -130 -27q-57 -28 -91 -64q-35 -36 -55 -83q-18 -42 -23 -82z" />
<glyph unicode="f" horiz-adv-x="702" d="M41 791v155h197v326q0 77 26 132q27 56 69 94q43 38 95 56q55 19 107 19q36 0 82 -10q49 -11 110 -45l-63 -142q-61 37 -117 37q-63 0 -101 -41q-36 -39 -36 -110v-316h245v-155h-245v-791h-172v791h-197z" />
<glyph unicode="g" horiz-adv-x="1132" d="M66 473q0 107 35 196q36 91 99 157q66 69 146 106q84 39 180 39q60 0 109 -15q53 -16 89 -36q39 -22 71 -52t49 -59v137h157v-950q0 -127 -39 -215q-41 -92 -107 -154q-66 -61 -156 -92q-91 -31 -187 -31q-145 0 -251 56q-104 55 -171 125l105 129q49 -58 124 -103 q79 -47 195 -47q142 0 228 82q87 83 87 242v131q-13 -18 -36 -41t-63 -47q-37 -22 -89 -39q-53 -17 -117 -17q-96 0 -180 39q-81 38 -145 106q-62 67 -98 158q-35 89 -35 195zM238 473q0 -71 22 -131q22 -62 63 -108q39 -44 97 -72q57 -27 129 -27q51 0 97 16t80 37 q33 21 61 52q26 30 42 55v356q-40 61 -108 110q-70 50 -172 50q-72 0 -129 -27q-58 -28 -97 -72q-41 -46 -63 -108q-22 -60 -22 -131z" />
<glyph unicode="h" horiz-adv-x="1105" d="M168 0v1548h172v-717q10 15 33 39q26 28 56 46q36 22 81 38q48 17 108 17q70 0 135 -24t113 -69q49 -46 79 -114t30 -156v-608h-172v580q0 58 -19 104q-18 44 -48 72q-31 29 -69 42q-39 13 -83 13q-50 0 -85 -14q-41 -16 -68 -38q-30 -24 -52 -52q-21 -27 -39 -56v-651 h-172z" />
<glyph unicode="i" horiz-adv-x="495" d="M131 1249q0 47 35 82t82 35t82 -35t35 -82t-35 -82q-34 -34 -82 -34t-82 34q-35 35 -35 82zM162 0v946h172v-946h-172z" />
<glyph unicode="j" horiz-adv-x="526" d="M-49 -453l61 144q33 -19 43 -22q17 -5 35 -5q17 0 33 4q19 5 34 20q14 14 25 44t11 78v1136h172v-1153q0 -82 -26 -140q-24 -54 -64 -89q-37 -32 -84 -46q-48 -14 -87 -14q-19 0 -68 9q-41 8 -85 34zM162 1249q0 47 35 82t82 35q46 0 81 -35t35 -82t-35 -82 q-34 -34 -81 -34q-48 0 -82 34q-35 35 -35 82z" />
<glyph unicode="k" horiz-adv-x="1011" d="M168 0v1548h172v-1022l405 420h226l-443 -446l480 -500h-240l-428 459v-459h-172z" />
<glyph unicode="l" horiz-adv-x="507" d="M168 0v1548h172v-1548h-172z" />
<glyph unicode="m" horiz-adv-x="1589" d="M131 0v946h160v-139q15 29 37 58q23 31 55 54q28 21 76 37q44 15 98 15q87 0 168 -40q83 -41 123 -136q33 67 103 121q72 55 186 55q141 0 231 -93t90 -270v-608h-172v582q0 117 -55 173t-141 56q-84 0 -134 -48q-46 -45 -75 -104v-659h-172v582q0 115 -56 173 q-55 56 -139 56q-44 0 -77 -13q-31 -12 -59 -35q-25 -21 -44 -49q-20 -30 -31 -55v-659h-172z" />
<glyph unicode="n" horiz-adv-x="1069" d="M131 0v946h160v-133q37 60 109 109q71 49 184 49q70 0 134 -24q65 -24 113 -69q49 -46 78 -114q29 -69 29 -156v-608h-172v580q0 60 -18 104q-17 42 -49 72q-31 29 -69 42q-39 13 -83 13q-50 0 -85 -14q-41 -16 -68 -38q-30 -24 -52 -52q-21 -27 -39 -56v-651h-172z" />
<glyph unicode="o" horiz-adv-x="1105" d="M66 473q0 108 36 196q38 91 103 157q68 68 154 106q88 39 194 39q105 0 193 -39t155 -106q65 -66 103 -157q36 -88 36 -196q0 -107 -36 -195q-38 -93 -103 -158q-67 -67 -155 -106t-193 -39q-106 0 -194 39q-86 38 -154 106q-65 65 -103 158q-36 88 -36 195zM238 473 q0 -71 22 -131t64 -108q38 -44 99 -72q59 -27 130 -27t130 27q61 28 99 72q42 48 64 108t22 131t-22 131t-64 108q-38 44 -99 72q-59 27 -130 27t-130 -27q-61 -28 -99 -72q-42 -48 -64 -108t-22 -131z" />
<glyph unicode="p" horiz-adv-x="1132" d="M131 -471v1417h158v-137q41 63 122 112q82 50 197 50q96 0 180 -39q83 -39 146 -106q61 -65 97 -157q36 -91 36 -196q0 -104 -36 -195q-37 -93 -97 -158q-63 -67 -146 -106q-84 -39 -180 -39q-63 0 -116 17q-54 18 -90 39q-40 24 -62 46q-29 29 -37 40v-588h-172z M303 297q17 -27 44 -57q25 -28 61 -53q29 -20 78 -37q44 -15 98 -15q70 0 128 27q59 27 98 72t62 108t23 131t-23 131t-62 108t-98 72t-128 27q-57 0 -98 -14q-46 -16 -78 -38q-38 -27 -61 -52q-25 -28 -44 -58v-352z" />
<glyph unicode="q" horiz-adv-x="1132" d="M66 473q0 107 35 196q35 90 98 157q64 68 145 106q84 39 180 39q116 0 198 -50q81 -49 122 -112v137h157v-1417h-172v588q-11 -15 -36 -40q-21 -21 -63 -46q-37 -22 -89 -39q-53 -17 -117 -17q-96 0 -180 39q-81 38 -145 106q-62 67 -98 158q-35 89 -35 195zM238 473 q0 -71 22 -131q22 -62 63 -108q39 -44 97 -72q57 -27 129 -27q53 0 97 15q51 18 79 37q33 23 60 53t44 57v352q-19 30 -44 58q-24 27 -60 52q-31 21 -79 38q-41 14 -97 14q-72 0 -129 -27q-58 -28 -97 -72q-41 -46 -63 -108q-22 -60 -22 -131z" />
<glyph unicode="r" horiz-adv-x="696" d="M131 0v946h160v-145q17 31 44 63q29 34 58 55q27 20 74 37q41 15 90 15q31 0 67 -6q29 -5 68 -19l-63 -155q-23 11 -52 15q-33 5 -53 5q-46 0 -80 -15t-62 -38t-47 -51q-20 -30 -32 -56v-651h-172z" />
<glyph unicode="s" horiz-adv-x="931" d="M70 174l118 111q16 -24 46 -54q25 -25 65 -49q36 -21 81 -37q41 -14 97 -14q33 0 69 6q32 5 65 22q29 15 49 39q20 25 20 58q0 32 -20 57t-51 41t-69 27t-75 18q-42 9 -107 29q-57 17 -112 50q-52 31 -90 83q-37 50 -37 125q0 58 24 110q23 51 71 91q45 38 110 61 q64 23 143 23q121 0 210 -45q87 -44 140 -99l-112 -116q-33 33 -97 70q-59 34 -145 34q-85 0 -131 -38q-45 -37 -45 -85q0 -33 19 -55q21 -24 52 -38q32 -15 74 -27q13 -4 84 -21q44 -10 112 -31q57 -17 107 -51q48 -32 82 -83q33 -49 33 -124q0 -74 -33 -128 q-34 -55 -85 -89t-120 -52q-68 -18 -135 -18q-71 0 -134 18q-65 19 -114 46q-52 29 -92 63q-39 33 -67 72z" />
<glyph unicode="t" horiz-adv-x="770" d="M49 791v155h184v289h173v-289h294v-155h-294v-510q0 -71 34 -108q35 -38 97 -38q36 0 61 11q26 12 53 28l64 -141q-60 -34 -108 -46q-47 -12 -85 -12q-53 0 -104 18q-54 19 -92 53q-43 38 -67 92q-26 58 -26 134v519h-184z" />
<glyph unicode="u" horiz-adv-x="1069" d="M131 338v608h172v-579q0 -59 19 -105q17 -42 49 -72q30 -29 70 -42q39 -13 83 -13q93 0 151 48q58 47 91 108v655h172v-946h-160v145q-16 -27 -42 -58q-27 -31 -62 -54q-39 -25 -84 -41q-48 -17 -105 -17q-70 0 -133 24t-112 70t-79 113q-30 68 -30 156z" />
<glyph unicode="v" horiz-adv-x="970" d="M12 946h189l291 -641l290 641h176l-473 -987z" />
<glyph unicode="w" horiz-adv-x="1519" d="M16 946h187l254 -612l250 612h116l252 -612l252 612h176l-432 -987l-311 711l-311 -711z" />
<glyph unicode="x" horiz-adv-x="1001" d="M45 0l344 487l-323 459h200l240 -348l237 348h191l-318 -459l340 -487h-202l-260 371l-256 -371h-193z" />
<glyph unicode="y" horiz-adv-x="1024" d="M20 946h195l332 -747l282 747h187l-240 -604l-90 -226l-81 -202l-59 -150l-28 -69q-41 -103 -114 -147t-148 -44q-64 0 -118 23t-83 45l74 141q62 -49 117 -49q54 0 84 38q30 37 59 108l74 186z" />
<glyph unicode="z" horiz-adv-x="962" d="M70 0l542 786h-514v160h817l-542 -786h520v-160h-823z" />
<glyph unicode="{" horiz-adv-x="638" d="M53 463v119q39 0 76 6t66 27q27 20 46 63q17 38 17 110v451q0 60 22 113q21 52 58 87q36 35 88 56q51 21 111 21h41v-148h-21q-31 0 -56 -6q-26 -6 -44 -24q-19 -19 -29 -49t-10 -83v-418q0 -80 -21 -131q-21 -52 -53 -79q-33 -28 -72 -39q-44 -12 -77 -13v-8 q38 -1 77 -12q39 -10 72 -39q31 -27 53 -80q21 -51 21 -131v-418q0 -53 10 -83t29 -49q17 -17 44 -23q30 -7 56 -7h21v-147h-41q-78 0 -128 20q-51 20 -86 57t-50 87q-15 51 -15 112v451q0 73 -17 111q-19 42 -46 62q-30 22 -66 28q-37 6 -76 6z" />
<glyph unicode="|" horiz-adv-x="532" d="M184 -471v1987h164v-1987h-164z" />
<glyph unicode="}" horiz-adv-x="638" d="M61 -324h21q26 0 56 7q27 6 44 23q19 19 29 49t10 83v418q0 80 21 131q22 53 52 80q32 29 72 39q41 11 78 12v8q-33 1 -78 13q-40 11 -72 39q-31 28 -52 79t-21 131v418q0 53 -10 83t-29 49q-18 18 -44 24t-56 6h-21v148h41q60 0 111 -21q52 -21 88 -56q37 -35 58 -87 q22 -53 22 -113v-451q0 -72 17 -110q19 -43 46 -63q28 -21 66 -27q37 -6 76 -6v-119q-38 0 -76 -6q-36 -6 -66 -28q-27 -20 -46 -62q-17 -38 -17 -111v-451q0 -122 -65 -199t-214 -77h-41v147z" />
<glyph unicode="~" horiz-adv-x="880" d="M41 639q39 86 112 137q70 49 148 49q45 0 83 -15q39 -16 71 -33l63 -33q30 -15 64 -15q42 0 85 31q41 30 58 90l115 -80q-33 -78 -99 -132t-155 -54q-47 0 -86 15q-37 14 -73 33l-65 33q-30 15 -61 15q-40 0 -83 -31q-42 -30 -60 -90z" />
<glyph unicode="&#xa1;" horiz-adv-x="567" d="M168 854q0 47 35 82t82 35q46 0 81 -35q33 -33 33 -82q0 -48 -33 -81q-34 -34 -81 -34q-48 0 -82 34q-35 35 -35 81zM199 -487v1062h172v-1062h-172z" />
<glyph unicode="&#xa2;" horiz-adv-x="1187" d="M180 471q0 91 31 179q29 84 86 151q53 63 132 108q77 44 169 56v178h104v-174q58 -5 110 -21q55 -17 96 -40q48 -27 79 -52q36 -30 57 -55l-116 -105q-34 42 -93 73q-62 33 -133 40v-672q42 4 80 18q40 14 69 31q29 16 55 41q22 21 38 43l111 -112q-48 -64 -145 -118 q-94 -52 -208 -63v-170h-104v175q-93 12 -169 54q-77 42 -132 106q-56 65 -86 149q-31 87 -31 180zM352 473q0 -123 66 -215q67 -93 180 -117v662q-57 -12 -102 -42t-77 -74q-30 -42 -49 -98q-18 -54 -18 -116z" />
<glyph unicode="&#xa3;" horiz-adv-x="1187" d="M135 63q18 35 36 60q20 28 47 57q25 26 56 48q31 21 62 34q40 45 60 99q20 55 20 104q0 37 -13 84q-13 46 -32 82h-228v131h152q-59 98 -82 163q-23 66 -23 126q0 71 26 144q25 72 77 131q49 57 129 95q77 37 182 37q73 0 136 -18q62 -18 112 -48q48 -29 88 -66 q39 -36 68 -71l-119 -114q-38 53 -108 104q-68 49 -171 49q-69 0 -114 -23q-47 -24 -77 -60t-43 -77q-14 -44 -14 -81q0 -25 9 -61q7 -27 24 -63q12 -25 41 -74l56 -93h348v-131h-283q16 -36 23 -80q8 -48 8 -88q0 -63 -19 -117q-18 -52 -41 -82q41 -11 75 -34l61 -41 q27 -19 58 -34q32 -16 71 -16q66 0 107 40q42 41 63 91l127 -88q-15 -34 -43 -73q-27 -37 -64 -67t-84 -48q-49 -19 -108 -19q-67 0 -116 22q-44 20 -83 48q-38 27 -72 48q-36 22 -82 22q-33 0 -63 -14q-32 -15 -50 -32q-23 -21 -37 -44q-14 -22 -26 -50z" />
<glyph unicode="&#xa4;" horiz-adv-x="1187" d="M68 248l139 139q-42 63 -65 128q-23 66 -23 147q0 80 23 146q23 65 65 128l-139 139l112 113l139 -139q60 40 128 64q69 24 147 24q77 0 146 -24q68 -24 128 -64l140 139l112 -113l-139 -139q40 -60 64 -128q24 -69 24 -146q0 -78 -24 -147q-24 -68 -64 -128l139 -139 l-112 -113l-140 139q-60 -40 -128 -64q-69 -24 -146 -24q-78 0 -147 24q-68 24 -128 64l-139 -139zM266 662q0 -67 26 -128q27 -63 69 -105q45 -45 104 -70t129 -25q69 0 128 25t104 70q44 44 70 105t26 128q0 68 -26 129q-24 57 -70 103q-45 45 -104 70t-128 25 q-70 0 -129 -25t-104 -70q-44 -44 -69 -103q-26 -61 -26 -129z" />
<glyph unicode="&#xa5;" horiz-adv-x="1187" d="M39 1434h184l373 -699l369 699h184l-277 -514h246v-132h-315l-78 -143h393v-131h-436v-514h-172v514h-436v131h391l-78 143h-313v132h243z" />
<glyph unicode="&#xa6;" horiz-adv-x="532" d="M184 328h164v-799h-164v799zM184 717v799h164v-799h-164z" />
<glyph unicode="&#xa7;" horiz-adv-x="1040" d="M156 518q0 66 20 112q22 50 53 84t72 59q34 21 74 40q-81 46 -142 122q-59 74 -59 187q0 71 28 135q27 62 77 107q52 47 115 70q66 24 143 24q118 0 203 -52q83 -51 134 -116l-120 -110q-26 37 -82 77q-52 37 -135 37q-92 0 -141 -49q-50 -50 -50 -121q0 -49 23 -84 q22 -33 60 -64q37 -29 86 -54l97 -52l110 -61q48 -28 92 -68q40 -37 64 -85q23 -46 23 -111q0 -67 -22 -115q-21 -46 -56 -86q-31 -36 -71 -60q-26 -16 -70 -38q79 -46 140 -121t61 -186q0 -72 -28 -136q-26 -60 -77 -106q-52 -47 -115 -70q-66 -24 -143 -24q-61 0 -112 15 q-53 16 -94 39q-39 22 -74 54q-31 28 -58 62l121 110q27 -41 83 -80q52 -36 134 -36q89 0 139 49q52 50 52 121q0 48 -23 83q-23 36 -60 65t-86 54l-98 51l-109 62q-46 26 -92 69q-39 36 -64 85q-23 45 -23 112zM322 537q0 -45 16 -71q17 -28 45 -50q25 -20 68 -43l81 -45 l11 -6q27 7 57 19q32 13 63 38q30 24 51 60t21 85q0 34 -11 57q-12 25 -36 49q-25 25 -64 48q-54 32 -100 55l-8 4q-26 -7 -58 -19q-35 -14 -64 -37q-31 -25 -51 -59q-21 -36 -21 -85z" />
<glyph unicode="&#xa8;" horiz-adv-x="800" d="M98 1249q0 47 35 82t82 35t82 -35t35 -82t-35 -82q-34 -34 -82 -34t-82 34q-35 35 -35 82zM469 1249q0 47 35 82t82 35t82 -35q34 -34 34 -82t-34 -82t-82 -34t-82 34q-35 35 -35 82z" />
<glyph unicode="&#xa9;" horiz-adv-x="1677" d="M98 717q0 153 59 289t158 235q100 100 236 159q134 58 289 58q154 0 288 -58q137 -59 235 -159q100 -102 158 -235q58 -134 58 -289t-58 -289q-58 -133 -158 -235q-98 -100 -235 -159q-136 -59 -288 -59q-153 0 -289 59t-236 159q-99 99 -158 235t-59 289zM219 717 q0 -128 49 -241t133 -197q85 -85 198 -134t241 -49t239 49q113 49 197 134q84 84 133 197t49 241t-49 239q-50 113 -133 198q-82 83 -197 134q-111 49 -239 49t-241 -49q-116 -50 -198 -134q-83 -85 -133 -198q-49 -111 -49 -239zM475 717q0 81 31 157q30 73 83 128 q55 57 124 87q71 31 151 31q103 0 176 -44q72 -44 113 -89l-84 -74q-31 35 -80 64q-51 31 -127 31q-121 0 -190 -83q-70 -84 -70 -208q0 -60 19 -115t52 -91q35 -37 81 -60q48 -23 106 -23q56 0 95 16t66 35q20 14 40 34q15 15 16 13l78 -75q-44 -51 -116 -95 q-71 -43 -175 -43q-80 0 -152 32q-70 31 -123 86t-83 128q-31 76 -31 158z" />
<glyph unicode="&#xaa;" horiz-adv-x="671" d="M68 1059q0 84 60 135t155 51q43 0 84 -10q43 -10 73 -33v33q0 28 -13 45q-14 19 -33 29q-20 11 -42 15q-25 5 -43 5q-35 0 -76 -12q-39 -12 -75 -35l-62 115q44 28 106 45q58 16 120 16t109 -16t82 -45q31 -26 51 -67q18 -38 18 -81v-364h-131v71q-27 -34 -74 -60 t-107 -26q-35 0 -74 13q-35 12 -65 37q-27 23 -46 59q-17 33 -17 80zM209 1065q0 -43 34 -59q36 -17 66 -17q45 0 79 21q34 20 52 45v47q-25 15 -60 26q-36 11 -67 11q-32 0 -69 -16q-35 -15 -35 -58z" />
<glyph unicode="&#xab;" horiz-adv-x="999" d="M29 502l362 473l121 -90l-299 -383l299 -383l-121 -90zM403 502l363 473l121 -90l-299 -383l299 -383l-121 -90z" />
<glyph unicode="&#xac;" horiz-adv-x="1388" d="M45 864v160h1229v-614h-156v454h-1073z" />
<glyph unicode="&#xad;" horiz-adv-x="681" d="M68 418v164h546v-164h-546z" />
<glyph unicode="&#xae;" horiz-adv-x="923" d="M45 1087q0 85 33 162t89 133q60 60 132 91q74 32 162 32t162 -32t133 -91q57 -57 90 -133q33 -77 33 -162t-33 -161q-32 -74 -90 -132q-56 -56 -133 -89t-162 -33t-162 33q-76 33 -132 89t-89 132t-33 161zM150 1087q0 -65 24 -122t67 -100q42 -42 99 -66q59 -25 123 -25 t123 25q56 24 100 66t68 100q24 57 24 122q0 66 -24 123t-68 101q-43 43 -100 67q-59 25 -123 25t-123 -25q-58 -24 -99 -67q-43 -45 -67 -101q-24 -57 -24 -123zM315 895v393h187q59 0 94 -38t35 -91q0 -43 -24 -76t-64 -45l102 -143h-115l-86 133h-30v-133h-99zM414 1110 h57q23 0 42 9t19 40t-19 40t-42 9h-57v-98z" />
<glyph unicode="&#xaf;" horiz-adv-x="643" d="M12 1171v142h619v-142h-619z" />
<glyph unicode="&#xb0;" horiz-adv-x="679" d="M45 1163q0 63 24 115q25 55 63 93q40 40 93 64q50 23 115 23t115 -23q53 -24 93 -64q38 -38 63 -93q24 -53 24 -115q0 -61 -24 -114q-26 -57 -63 -94q-38 -38 -93 -63q-53 -24 -115 -24t-115 24q-55 25 -93 63q-37 37 -63 94q-24 53 -24 114zM193 1161q0 -62 41 -103 q42 -42 104 -42q60 0 104 42q43 42 43 103q0 62 -43 105t-104 43q-62 0 -104 -43q-41 -42 -41 -105z" />
<glyph unicode="&#xb1;" d="M92 0v139h881v-139h-881zM92 535v143h365v293h151v-293h365v-143h-365v-306h-151v306h-365z" />
<glyph unicode="&#xb2;" horiz-adv-x="716" d="M59 1442q16 44 40 79q25 37 62 66q34 27 83 46q47 18 104 18t108 -20q50 -19 87 -54q36 -33 58 -86t22 -115q0 -56 -21 -112q-22 -57 -76 -119l-31 -36l-38 -42l-55 -60l-80 -89h311v-111h-572l338 371q43 47 75 91q34 46 34 109q0 65 -40 115q-40 51 -120 51 q-78 0 -121 -46q-41 -44 -63 -99z" />
<glyph unicode="&#xb3;" horiz-adv-x="720" d="M74 993l96 47q8 -24 21 -47t35 -45q19 -19 54 -34q30 -13 74 -13q67 0 116 34q50 35 50 107q0 62 -41 100t-119 38h-49v106h35q68 0 119 31q49 30 49 96q0 59 -39 95t-104 36q-73 0 -113 -39q-42 -40 -57 -75l-95 47q11 26 34 59q21 29 55 56t75 42q45 17 99 17 q114 0 187 -67t73 -167q0 -75 -37 -118q-39 -45 -76 -62q64 -23 91 -80q28 -59 28 -117t-24 -105q-25 -49 -62 -77q-40 -31 -90 -47q-49 -16 -107 -16q-63 0 -107 17q-46 18 -80 46q-32 26 -56 65q-24 38 -35 70z" />
<glyph unicode="&#xb4;" horiz-adv-x="540" d="M92 1171l305 306l107 -107l-309 -295z" />
<glyph unicode="&#xb5;" horiz-adv-x="1081" d="M135 -471v1417h172v-571q0 -62 18 -107q17 -43 48 -74q28 -28 71 -44q41 -15 86 -15q90 0 150 48q58 47 94 112v651h172v-946h-160v145q-20 -33 -45 -61q-31 -35 -63 -55q-38 -24 -84 -39t-102 -15q-101 0 -185 45v-491h-172z" />
<glyph unicode="&#xb6;" horiz-adv-x="1265" d="M74 946q0 102 39 190q39 89 104 154q66 66 155 105q88 39 189 39h537v-1819h-172v1659h-193v-1659h-172v848q-99 0 -189 38t-155 103t-104 154q-39 88 -39 188z" />
<glyph unicode="&#xb7;" horiz-adv-x="567" d="M168 737q0 46 35 81q34 34 82 34q47 0 81 -34q33 -33 33 -81q0 -49 -33 -82q-34 -34 -81 -34q-48 0 -82 34q-35 35 -35 82z" />
<glyph unicode="&#xb8;" horiz-adv-x="645" d="M180 -471l127 375l158 -19l-121 -405z" />
<glyph unicode="&#xb9;" horiz-adv-x="589" d="M25 1386l303 252h98v-831h-115v676l-219 -180z" />
<glyph unicode="&#xba;" horiz-adv-x="679" d="M45 1163q0 63 24 115q25 55 63 93q40 40 93 64q50 23 115 23t115 -23q53 -24 93 -64q38 -38 63 -93q24 -53 24 -115q0 -61 -24 -114q-26 -57 -63 -94q-38 -38 -93 -63q-53 -24 -115 -24t-115 24q-55 25 -93 63q-37 37 -63 94q-24 53 -24 114zM178 1163q0 -72 47 -116 q46 -43 115 -43t115 43q47 44 47 116q0 74 -47 118t-115 44t-115 -44t-47 -118z" />
<glyph unicode="&#xbb;" horiz-adv-x="999" d="M113 119l299 383l-299 383l120 90l363 -473l-363 -473zM487 119l299 383l-299 383l121 90l363 -473l-363 -473z" />
<glyph unicode="&#xbc;" horiz-adv-x="1699" d="M94 1182l303 252h99v-832h-115v676l-219 -180zM387 0l973 1495l88 -61l-969 -1497zM954 190l445 641h102v-530h111v-111h-111v-190h-115v190h-432zM1155 301h231v336z" />
<glyph unicode="&#xbd;" horiz-adv-x="1699" d="M94 1182l303 252h99v-832h-115v676l-219 -180zM289 0l973 1495l88 -61l-969 -1497zM995 635q16 44 40 79q25 37 62 66q34 27 83 46q46 18 104 18q57 0 108 -20q50 -20 87 -54q36 -33 58 -86t22 -115q0 -57 -21 -112q-22 -57 -76 -119l-31 -36l-38 -42l-55 -60l-81 -89 h312v-111h-572l338 371q43 47 75 91q34 46 34 109q0 65 -40 115q-40 51 -120 51q-78 0 -121 -46q-41 -44 -63 -99z" />
<glyph unicode="&#xbe;" horiz-adv-x="1699" d="M100 788l97 48q9 -26 21 -48q13 -23 35 -45q18 -18 53 -33q33 -14 75 -14q67 0 116 34q50 35 50 108q0 61 -41 99t-119 38h-49v106h35q68 0 119 31q49 30 49 96q0 60 -39 96q-38 35 -105 35q-71 0 -112 -39q-43 -42 -58 -75l-94 47q11 26 34 59t54 57q33 26 76 42 q42 16 98 16q115 0 188 -67q72 -66 72 -167q0 -74 -37 -117q-41 -47 -75 -63q64 -23 91 -80q28 -59 28 -116q0 -60 -24 -106q-24 -47 -63 -77q-40 -31 -90 -47q-49 -16 -106 -16q-64 0 -108 17q-46 18 -80 46q-32 26 -56 65q-24 38 -35 70zM387 0l973 1495l88 -61 l-969 -1497zM956 190l445 641h102v-530h111v-111h-111v-190h-114v190h-433zM1157 301h232v336z" />
<glyph unicode="&#xbf;" horiz-adv-x="987" d="M94 -115q0 69 22 130q21 59 54 105q31 43 72 83q34 33 71 63l67 59q22 19 34 40q11 18 12 38q2 28 2 56v119h160v-119q0 -49 -3 -85q-3 -37 -18 -68q-16 -33 -43 -63t-80 -75l-57 -48q-27 -23 -57 -58q-27 -32 -45 -73q-19 -44 -19 -95q0 -109 71 -178q69 -68 177 -68 q56 0 98 17q48 19 80 47q35 30 62 68q25 35 43 79l147 -70q-51 -135 -163 -218t-265 -83q-88 0 -165 30q-76 30 -134 83q-56 51 -90 126q-33 72 -33 158zM391 856q0 46 35 81q34 34 82 34q47 0 81 -34t34 -81q0 -48 -34 -82q-35 -35 -81 -35q-47 0 -82 35t-35 82z" />
<glyph unicode="&#xc0;" horiz-adv-x="1314" d="M16 0l564 1434h159l559 -1434h-180l-149 387h-619l-149 -387h-185zM395 1817l107 106l305 -305l-102 -96zM414 551h491l-246 637z" />
<glyph unicode="&#xc1;" horiz-adv-x="1314" d="M16 0l564 1434h159l559 -1434h-180l-149 387h-619l-149 -387h-185zM414 551h491l-246 637zM512 1618l305 305l107 -106l-310 -295z" />
<glyph unicode="&#xc2;" horiz-adv-x="1314" d="M16 0l564 1434h159l559 -1434h-180l-149 387h-619l-149 -387h-185zM324 1640l340 248l340 -248l-95 -110l-245 188l-246 -188zM414 551h491l-246 637z" />
<glyph unicode="&#xc3;" horiz-adv-x="1314" d="M16 0l564 1434h159l559 -1434h-180l-149 387h-619l-149 -387h-185zM307 1655q34 86 95 128q64 44 135 44q42 0 75 -15q46 -21 61 -31l51 -32q22 -14 50 -14q31 0 64 24q32 24 51 78l119 -76q-29 -79 -88 -125q-61 -47 -138 -47q-44 0 -79 15q-39 17 -60 31l-50 32 q-22 14 -50 14q-33 0 -66 -24q-32 -23 -49 -78zM414 551h491l-246 637z" />
<glyph unicode="&#xc4;" horiz-adv-x="1314" d="M16 0l564 1434h159l559 -1434h-180l-149 387h-619l-149 -387h-185zM356 1696q0 47 35 82q34 34 82 34t82 -34q35 -35 35 -82t-35 -82t-82 -35t-82 35t-35 82zM414 551h491l-246 637zM727 1696q0 47 35 82q34 34 82 34t82 -34q35 -35 35 -82t-35 -82t-82 -35t-82 35 t-35 82z" />
<glyph unicode="&#xc5;" horiz-adv-x="1314" d="M16 0l564 1434h159l559 -1434h-180l-149 387h-619l-149 -387h-185zM414 551h491l-246 637zM438 1720q0 46 18 86q19 43 47 71q29 29 69 47t87 18q45 0 86 -18q43 -19 71 -47t47 -71q18 -40 18 -86t-18 -87q-18 -40 -47 -69q-28 -28 -71 -47q-41 -18 -86 -18q-47 0 -87 18 t-69 47t-47 69q-18 41 -18 87zM547 1720q0 -47 33 -80q32 -32 79 -32q48 0 80 32q33 33 33 80t-33 80t-80 33q-46 0 -79 -33t-33 -80z" />
<glyph unicode="&#xc6;" horiz-adv-x="1812" d="M16 0l836 1434h842v-164h-574v-453h525v-164h-525v-489h586v-164h-758v387h-516l-225 -387h-191zM526 551h422v721z" />
<glyph unicode="&#xc7;" horiz-adv-x="1357" d="M78 717q0 157 52 291q53 136 146 235q95 101 225 158q131 57 285 57q99 0 175 -20q77 -20 144 -53q66 -32 114 -70q46 -36 81 -76l-118 -113q-62 72 -165 120t-226 48q-118 0 -217 -47q-95 -45 -166 -127q-72 -83 -108 -184q-38 -106 -38 -219t38 -219q37 -103 108 -185 q70 -81 165 -127q97 -47 213 -47q73 0 136 18q62 18 115 45q54 28 93 61q46 39 70 67l117 -119q-39 -42 -90 -83q-49 -39 -121 -76q-65 -33 -149 -55q-85 -22 -175 -22q-151 0 -282 58q-130 57 -222 157q-95 103 -147 236q-53 136 -53 291zM528 -471l127 375l158 -19 l-121 -405z" />
<glyph unicode="&#xc8;" horiz-adv-x="1114" d="M168 0v1434h827v-164h-655v-453h606v-164h-606v-489h668v-164h-840zM330 1817l106 106l305 -305l-102 -96z" />
<glyph unicode="&#xc9;" horiz-adv-x="1114" d="M168 0v1434h827v-164h-655v-453h606v-164h-606v-489h668v-164h-840zM410 1618l305 305l106 -106l-309 -295z" />
<glyph unicode="&#xca;" horiz-adv-x="1114" d="M168 0v1434h827v-164h-655v-453h606v-164h-606v-489h668v-164h-840zM240 1640l340 248l340 -248l-95 -110l-245 188l-246 -188z" />
<glyph unicode="&#xcb;" horiz-adv-x="1114" d="M168 0v1434h827v-164h-655v-453h606v-164h-606v-489h668v-164h-840zM289 1696q0 47 35 82q34 34 82 34q47 0 81 -34q35 -35 35 -82t-35 -82t-81 -35q-47 0 -82 35t-35 82zM659 1696q0 47 35 82q34 34 82 34t82 -34q35 -35 35 -82t-35 -82t-82 -35t-82 35t-35 82z" />
<glyph unicode="&#xcc;" horiz-adv-x="565" d="M41 1817l106 106l306 -305l-103 -96zM197 0v1434h172v-1434h-172z" />
<glyph unicode="&#xcd;" horiz-adv-x="565" d="M113 1618l305 305l106 -106l-309 -295zM197 0v1434h172v-1434h-172z" />
<glyph unicode="&#xce;" horiz-adv-x="565" d="M-55 1640l340 248l340 -248l-95 -110l-245 188l-246 -188zM197 0v1434h172v-1434h-172z" />
<glyph unicode="&#xcf;" horiz-adv-x="565" d="M-39 1696q0 47 35 82q34 34 82 34t82 -34q35 -35 35 -82t-35 -82t-82 -35t-82 35t-35 82zM176 0v1434h172v-1434h-172zM332 1696q0 47 35 82q34 34 82 34q47 0 81 -34q35 -35 35 -82t-35 -82t-81 -35q-47 0 -82 35t-35 82z" />
<glyph unicode="&#xd0;" horiz-adv-x="1376" d="M25 668v143h174v623h391q153 0 286 -55q128 -53 224 -149q92 -92 146 -226q52 -129 52 -287t-52 -287q-54 -134 -146 -226q-98 -98 -224 -150q-130 -54 -286 -54h-391v668h-174zM371 164h219q118 0 213 43q99 45 166 119q70 78 107 176q38 102 38 215t-38 215 q-37 98 -107 176q-67 74 -166 119q-95 43 -213 43h-219v-459h415v-143h-415v-504z" />
<glyph unicode="&#xd1;" horiz-adv-x="1454" d="M168 0v1434h178l768 -1147v1147h172v-1434h-178l-768 1147v-1147h-172zM385 1655q34 86 95 128q64 44 134 44q43 0 76 -15q46 -21 61 -31l51 -32q22 -14 50 -14q30 0 63 24q34 24 52 78l118 -76q-29 -79 -88 -125q-61 -47 -137 -47q-44 0 -79 15q-39 17 -60 31l-50 32 q-22 14 -50 14q-33 0 -66 -24q-32 -23 -49 -78z" />
<glyph unicode="&#xd2;" horiz-adv-x="1572" d="M78 717q0 157 52 291q53 136 146 235q95 101 225 158q131 57 285 57q156 0 286 -57q128 -56 224 -158q95 -101 147 -235t52 -291t-52 -291q-53 -136 -147 -236t-224 -157q-133 -58 -286 -58q-152 0 -285 58q-131 57 -225 157q-92 98 -146 236q-52 134 -52 291zM262 717 q0 -113 38 -219q37 -105 107 -185q72 -82 165 -127q99 -47 214 -47t214 47q95 45 166 127q70 80 107 185q38 106 38 219t-38 219q-37 103 -107 184q-71 82 -166 127q-99 47 -214 47t-214 -47q-93 -45 -165 -127q-70 -81 -107 -184q-38 -106 -38 -219zM535 1817l106 106 l305 -305l-102 -96z" />
<glyph unicode="&#xd3;" horiz-adv-x="1572" d="M78 717q0 157 52 291q53 136 146 235q95 101 225 158q131 57 285 57q156 0 286 -57q128 -56 224 -158q95 -101 147 -235t52 -291t-52 -291q-53 -136 -147 -236t-224 -157q-133 -58 -286 -58q-152 0 -285 58q-131 57 -225 157q-92 98 -146 236q-52 134 -52 291zM262 717 q0 -113 38 -219q37 -105 107 -185q72 -82 165 -127q99 -47 214 -47t214 47q95 45 166 127q70 80 107 185q38 106 38 219t-38 219q-37 103 -107 184q-71 82 -166 127q-99 47 -214 47t-214 -47q-93 -45 -165 -127q-70 -81 -107 -184q-38 -106 -38 -219zM610 1618l305 305 l107 -106l-309 -295z" />
<glyph unicode="&#xd4;" horiz-adv-x="1572" d="M78 717q0 157 52 291q53 136 146 235q95 101 225 158q131 57 285 57q156 0 286 -57q128 -56 224 -158q95 -101 147 -235t52 -291t-52 -291q-53 -136 -147 -236t-224 -157q-133 -58 -286 -58q-152 0 -285 58q-131 57 -225 157q-92 98 -146 236q-52 134 -52 291zM262 717 q0 -113 38 -219q37 -105 107 -185q72 -82 165 -127q99 -47 214 -47t214 47q95 45 166 127q70 80 107 185q38 106 38 219t-38 219q-37 103 -107 184q-71 82 -166 127q-99 47 -214 47t-214 -47q-93 -45 -165 -127q-70 -81 -107 -184q-38 -106 -38 -219zM446 1640l340 248 l340 -248l-94 -110l-246 188l-245 -188z" />
<glyph unicode="&#xd5;" horiz-adv-x="1572" d="M78 717q0 157 52 291q53 136 146 235q95 101 225 158q131 57 285 57q156 0 286 -57q128 -56 224 -158q95 -101 147 -235t52 -291t-52 -291q-53 -136 -147 -236t-224 -157q-133 -58 -286 -58q-152 0 -285 58q-131 57 -225 157q-92 98 -146 236q-52 134 -52 291zM262 717 q0 -113 38 -219q37 -105 107 -185q72 -82 165 -127q99 -47 214 -47t214 47q95 45 166 127q70 80 107 185q38 106 38 219t-38 219q-37 103 -107 184q-71 82 -166 127q-99 47 -214 47t-214 -47q-93 -45 -165 -127q-70 -81 -107 -184q-38 -106 -38 -219zM436 1655q34 86 95 128 q64 44 135 44q42 0 75 -15q46 -21 61 -31l51 -32q22 -14 50 -14q31 0 64 24q32 24 51 78l119 -76q-29 -79 -88 -125q-61 -47 -138 -47q-43 0 -78 15q-42 18 -61 31l-50 32q-22 14 -50 14q-33 0 -66 -24q-32 -23 -49 -78z" />
<glyph unicode="&#xd6;" horiz-adv-x="1572" d="M78 717q0 157 52 291q53 136 146 235q95 101 225 158q131 57 285 57q156 0 286 -57q128 -56 224 -158q95 -101 147 -235t52 -291t-52 -291q-53 -136 -147 -236t-224 -157q-133 -58 -286 -58q-152 0 -285 58q-131 57 -225 157q-92 98 -146 236q-52 134 -52 291zM262 717 q0 -113 38 -219q37 -105 107 -185q72 -82 165 -127q99 -47 214 -47t214 47q95 45 166 127q70 80 107 185q38 106 38 219t-38 219q-37 103 -107 184q-71 82 -166 127q-99 47 -214 47t-214 -47q-93 -45 -165 -127q-70 -81 -107 -184q-38 -106 -38 -219zM485 1696q0 47 35 82 q34 34 82 34t82 -34q35 -35 35 -82t-35 -82t-82 -35t-82 35t-35 82zM856 1696q0 47 35 82q34 34 82 34t82 -34q35 -35 35 -82t-35 -82t-82 -35t-82 35t-35 82z" />
<glyph unicode="&#xd7;" d="M84 174l348 348l-348 348l100 101l348 -348l349 348l100 -101l-348 -348l348 -348l-100 -100l-349 348l-348 -348z" />
<glyph unicode="&#xd8;" horiz-adv-x="1589" d="M86 717q0 157 52 291t147 235q96 102 224 158q130 57 286 57q129 0 238 -39q113 -40 200 -110l151 180l91 -78l-156 -184q88 -100 136 -231q48 -130 48 -279q0 -157 -52 -291q-54 -138 -146 -236q-94 -100 -225 -157q-133 -58 -285 -58q-121 0 -228 35q-100 33 -190 99 l-141 -166l-91 77l142 168q-96 102 -149 237q-52 132 -52 292zM270 717q0 -109 35 -211q34 -99 98 -178l715 846q-68 59 -146 89q-80 31 -177 31q-116 0 -213 -47q-96 -47 -166 -127q-72 -83 -108 -184q-38 -106 -38 -219zM489 244q62 -50 139 -77q79 -28 167 -28 q116 0 213 47q96 47 166 127t107 185q38 106 38 219q0 101 -31 197q-29 91 -88 171z" />
<glyph unicode="&#xd9;" horiz-adv-x="1380" d="M168 528v906h172v-887q0 -88 19 -161q19 -74 63 -130q44 -57 109 -86q68 -31 159 -31t159 31q65 29 109 86q44 56 63 130q19 73 19 161v887h172v-906q0 -125 -35 -224q-35 -100 -103 -174t-164 -114q-99 -41 -220 -41t-220 41q-96 40 -164 114q-66 72 -102 174t-36 224z M395 1817l107 106l305 -305l-102 -96z" />
<glyph unicode="&#xda;" horiz-adv-x="1380" d="M168 528v906h172v-887q0 -88 19 -161q19 -74 63 -130q44 -57 109 -86q68 -31 159 -31t159 31q65 29 109 86q44 56 63 130q19 73 19 161v887h172v-906q0 -125 -35 -224q-35 -100 -103 -174t-164 -114q-99 -41 -220 -41t-220 41q-96 40 -164 114q-66 72 -102 174t-36 224z M575 1618l306 305l106 -106l-309 -295z" />
<glyph unicode="&#xdb;" horiz-adv-x="1380" d="M168 528v906h172v-887q0 -88 19 -161q19 -74 63 -130q44 -57 109 -86q68 -31 159 -31t159 31q65 29 109 86q44 56 63 130q19 73 19 161v887h172v-906q0 -125 -35 -224q-35 -100 -103 -174t-164 -114q-99 -41 -220 -41t-220 41q-96 40 -164 114q-66 72 -102 174t-36 224z M350 1640l340 248l340 -248l-94 -110l-246 188l-246 -188z" />
<glyph unicode="&#xdc;" horiz-adv-x="1380" d="M168 528v906h172v-887q0 -88 19 -161q19 -74 63 -130q44 -57 109 -86q68 -31 159 -31t159 31q65 29 109 86q44 56 63 130q19 73 19 161v887h172v-906q0 -125 -35 -224q-35 -100 -103 -174t-164 -114q-99 -41 -220 -41t-220 41q-96 40 -164 114q-66 72 -102 174t-36 224z M389 1696q0 47 35 82q34 34 82 34t82 -34q35 -35 35 -82t-35 -82t-82 -35t-82 35t-35 82zM760 1696q0 47 35 82q34 34 82 34q47 0 81 -34q35 -35 35 -82t-35 -82t-81 -35q-47 0 -82 35t-35 82z" />
<glyph unicode="&#xdd;" horiz-adv-x="1187" d="M25 1434h192l385 -705l379 705h182l-483 -871v-563h-172v563zM471 1618l305 305l107 -106l-310 -295z" />
<glyph unicode="&#xde;" horiz-adv-x="1105" d="M168 0v1434h172v-260h215q102 0 194 -25q85 -23 153 -75q64 -49 102 -127q36 -73 36 -179t-36 -179q-38 -78 -102 -127q-68 -52 -153 -75q-92 -25 -194 -25h-215v-362h-172zM340 526h215q67 0 129 13q56 12 98 40t64 74q22 45 22 115t-22 115q-22 46 -64 74t-98 40 q-62 13 -129 13h-215v-484z" />
<glyph unicode="&#xdf;" horiz-adv-x="1163" d="M135 0v1133q0 95 28 179q26 79 80 139q53 59 127 90q76 32 167 32q69 0 149 -22q73 -20 138 -68q61 -45 103 -121q40 -73 40 -176q0 -65 -17 -116q-16 -48 -44 -87q-27 -37 -61 -61q-35 -24 -69 -39q52 -17 105 -47q51 -29 96 -82q42 -49 70 -124q26 -69 26 -169 q0 -129 -48 -220t-123 -151t-169 -87q-98 -28 -186 -28h-62v160h52q93 0 162 27q71 28 114 71q47 47 67 105q21 60 21 125q0 71 -23 128q-24 60 -72 105t-123 72t-177 27v151q84 0 142 23q57 22 89 56q33 35 45 74q13 44 13 75q0 28 -11 72q-10 40 -38 79q-27 38 -73 63 t-120 25q-73 0 -120 -25q-49 -26 -76 -68t-39 -94q-11 -48 -11 -106v-1120h-172z" />
<glyph unicode="&#xe0;" horiz-adv-x="1048" d="M86 295q0 70 29 130q27 56 79 100q49 42 119 66q66 23 150 23q91 0 164 -24q71 -23 118 -53v51q0 76 -26 118t-65 67q-36 23 -80 31q-39 7 -70 7q-63 0 -140 -23q-75 -22 -141 -57l-71 143q67 38 151 66q95 31 203 31q104 0 182 -30q80 -31 128 -79q52 -52 76 -111 q26 -64 26 -128v-623h-158v137q-54 -75 -138 -118q-86 -44 -182 -44q-62 0 -128 22q-60 20 -113 62q-52 41 -82 101q-31 62 -31 135zM258 295q0 -43 18 -75q16 -28 50 -52q28 -20 68 -31q36 -10 79 -10q95 0 165 47q67 45 107 96v133q-43 30 -106 49q-64 19 -139 19 q-116 0 -178 -49q-64 -50 -64 -127zM322 1370l106 107l305 -306l-102 -96z" />
<glyph unicode="&#xe1;" horiz-adv-x="1048" d="M86 295q0 70 29 130q27 56 79 100q49 42 119 66q66 23 150 23q91 0 164 -24q71 -23 118 -53v51q0 76 -26 118t-65 67q-36 23 -80 31q-39 7 -70 7q-63 0 -140 -23q-75 -22 -141 -57l-71 143q67 38 151 66q95 31 203 31q104 0 182 -30q80 -31 128 -79q52 -52 76 -111 q26 -64 26 -128v-623h-158v137q-54 -75 -138 -118q-86 -44 -182 -44q-62 0 -128 22q-60 20 -113 62q-52 41 -82 101q-31 62 -31 135zM258 295q0 -43 18 -75q16 -28 50 -52q28 -20 68 -31q36 -10 79 -10q95 0 165 47q67 45 107 96v133q-43 30 -106 49q-64 19 -139 19 q-116 0 -178 -49q-64 -50 -64 -127zM428 1171l305 306l107 -107l-310 -295z" />
<glyph unicode="&#xe2;" horiz-adv-x="1048" d="M86 295q0 70 29 130q27 56 79 100q49 42 119 66q66 23 150 23q91 0 164 -24q71 -23 118 -53v51q0 76 -26 118t-65 67q-36 23 -80 31q-39 7 -70 7q-63 0 -140 -23q-75 -22 -141 -57l-71 143q67 38 151 66q95 31 203 31q104 0 182 -30q80 -31 128 -79q52 -52 76 -111 q26 -64 26 -128v-623h-158v137q-54 -75 -138 -118q-86 -44 -182 -44q-62 0 -128 22q-60 20 -113 62q-52 41 -82 101q-31 62 -31 135zM207 1194l340 248l340 -248l-94 -111l-246 189l-246 -189zM258 295q0 -43 18 -75q16 -28 50 -52q28 -20 68 -31q36 -10 79 -10q95 0 165 47 q67 45 107 96v133q-43 30 -106 49q-64 19 -139 19q-116 0 -178 -49q-64 -50 -64 -127z" />
<glyph unicode="&#xe3;" horiz-adv-x="1048" d="M86 295q0 70 29 130q27 56 79 100q49 42 119 66q66 23 150 23q91 0 164 -24q71 -23 118 -53v51q0 76 -26 118t-65 67q-36 23 -80 31q-39 7 -70 7q-63 0 -140 -23q-75 -22 -141 -57l-71 143q67 38 151 66q95 31 203 31q104 0 182 -30q80 -31 128 -79q52 -52 76 -111 q26 -64 26 -128v-623h-158v137q-54 -75 -138 -118q-86 -44 -182 -44q-62 0 -128 22q-60 20 -113 62q-52 41 -82 101q-31 62 -31 135zM184 1208q33 85 96 128q64 44 134 44q44 0 75 -14q41 -19 61 -32l51 -31q24 -15 50 -15q30 0 64 25q32 24 51 78l119 -76q-29 -79 -88 -125 q-61 -47 -138 -47q-46 0 -78 14q-37 16 -61 32l-50 32q-22 14 -50 14q-32 0 -66 -25q-32 -23 -49 -77zM258 295q0 -43 18 -75q16 -28 50 -52q28 -20 68 -31q36 -10 79 -10q95 0 165 47q67 45 107 96v133q-43 30 -106 49q-64 19 -139 19q-116 0 -178 -49q-64 -50 -64 -127z " />
<glyph unicode="&#xe4;" horiz-adv-x="1048" d="M86 295q0 70 29 130q27 56 79 100q49 42 119 66q66 23 150 23q91 0 164 -24q71 -23 118 -53v51q0 76 -26 118t-65 67q-36 23 -80 31q-39 7 -70 7q-63 0 -140 -23q-75 -22 -141 -57l-71 143q67 38 151 66q95 31 203 31q104 0 182 -30q80 -31 128 -79q52 -52 76 -111 q26 -64 26 -128v-623h-158v137q-54 -75 -138 -118q-86 -44 -182 -44q-62 0 -128 22q-60 20 -113 62q-52 41 -82 101q-31 62 -31 135zM236 1249q0 48 34 82q35 35 82 35t82 -35t35 -82t-35 -82q-34 -34 -82 -34t-82 34t-34 82zM258 295q0 -43 18 -75q16 -28 50 -52 q28 -20 68 -31q36 -10 79 -10q95 0 165 47q67 45 107 96v133q-43 30 -106 49q-64 19 -139 19q-116 0 -178 -49q-64 -50 -64 -127zM606 1249q0 47 35 82t82 35t82 -35t35 -82t-35 -82q-34 -34 -82 -34t-82 34q-35 35 -35 82z" />
<glyph unicode="&#xe5;" horiz-adv-x="1048" d="M86 295q0 70 29 130q27 56 79 100q49 42 119 66q66 23 150 23q91 0 164 -24q71 -23 118 -53v51q0 76 -26 118t-65 67q-36 23 -80 31q-39 7 -70 7q-63 0 -140 -23q-75 -22 -141 -57l-71 143q67 38 151 66q95 31 203 31q104 0 182 -30q80 -31 128 -79q52 -52 76 -111 q26 -64 26 -128v-623h-158v137q-54 -75 -138 -118q-86 -44 -182 -44q-62 0 -128 22q-60 20 -113 62q-52 41 -82 101q-31 62 -31 135zM258 295q0 -43 18 -75q16 -28 50 -52q28 -20 68 -31q36 -10 79 -10q95 0 165 47q67 45 107 96v133q-43 30 -106 49q-64 19 -139 19 q-116 0 -178 -49q-64 -50 -64 -127zM313 1321q0 45 18 86q19 43 47 71q29 29 69 47q38 17 88 17q48 0 86 -17q41 -18 70 -47q28 -28 47 -71q18 -41 18 -86q0 -47 -18 -87q-18 -41 -47 -70t-70 -47q-38 -17 -86 -17q-50 0 -88 17q-40 18 -69 47t-47 70q-18 40 -18 87z M422 1321q0 -47 33 -80t80 -33q46 0 79 33t33 80t-33 80t-79 33q-47 0 -80 -33t-33 -80z" />
<glyph unicode="&#xe6;" horiz-adv-x="1679" d="M86 279q0 87 36 139q38 55 88 84q54 31 112 41q57 10 108 10h295v18q0 61 -23 107q-22 45 -60 75q-35 28 -86 44q-45 14 -99 14q-80 0 -144 -29q-62 -28 -100 -57l-86 135q55 39 138 75q82 36 202 36q124 0 223 -45t148 -121q62 74 149 120q88 46 201 46q96 0 178 -36 q83 -36 142 -101q61 -67 95 -159q33 -89 33 -208v-27q0 -6 -2 -28h-743q1 -53 28 -105q25 -49 67 -88t98 -61q58 -23 120 -23q85 0 162 41t123 100l106 -110q-67 -82 -171 -136q-105 -55 -224 -55q-122 0 -228 59q-105 59 -165 154q-50 -86 -144 -149q-96 -64 -231 -64 q-65 0 -130 20q-63 19 -111 57q-48 37 -76 94q-29 58 -29 133zM258 281q0 -45 16 -71q17 -28 43 -44q27 -16 60 -24q31 -7 63 -7q64 0 118 23q53 23 89 56q36 34 58 72q20 36 20 68v58q-35 2 -93 3q-39 1 -108 1q-55 0 -103 -3t-84 -18q-37 -15 -57 -41q-22 -28 -22 -73z M895 553h571q-2 40 -19 85q-19 49 -51 84q-35 38 -86 63q-54 26 -122 26q-72 0 -126 -27q-56 -28 -90 -65q-37 -40 -56 -84q-20 -45 -21 -82z" />
<glyph unicode="&#xe7;" horiz-adv-x="976" d="M66 473q0 109 36 195q38 90 103 157q67 69 154 107q88 39 194 39q64 0 125 -16q54 -14 104 -40q46 -24 85 -55q41 -33 63 -59l-117 -105q-36 41 -100 77q-67 38 -160 38q-71 0 -130 -27q-61 -28 -99 -72q-42 -48 -64 -108t-22 -131t22 -131t64 -108q38 -44 99 -72 q59 -27 130 -27q99 0 169 43t107 92l111 -112q-33 -37 -64 -64q-33 -29 -86 -59q-46 -26 -108 -43t-129 -17q-106 0 -194 39q-86 38 -154 106q-65 65 -103 158q-36 88 -36 195zM330 -471l127 375l157 -19l-120 -405z" />
<glyph unicode="&#xe8;" d="M66 477q0 105 33 191q34 89 96 157q63 69 148 107q87 39 194 39q99 0 185 -36q85 -36 146 -101q63 -68 97 -159q34 -92 34 -208v-27q0 -6 -2 -28h-764q5 -56 31 -104q28 -51 70 -89q43 -38 100 -61q58 -23 125 -23q100 0 171 43q75 45 114 96l108 -112q-31 -36 -70 -69 q-36 -30 -90 -60q-49 -27 -110 -42q-64 -16 -129 -16q-104 0 -195 38q-88 36 -154 106q-64 67 -102 160q-36 88 -36 198zM238 555h593q-1 39 -21 84q-20 46 -55 84q-36 39 -90 63q-56 25 -128 25q-76 0 -130 -27q-57 -28 -91 -64q-35 -36 -55 -83q-18 -42 -23 -82zM332 1370 l106 107l305 -306l-102 -96z" />
<glyph unicode="&#xe9;" d="M66 477q0 105 33 191q34 89 96 157q63 69 148 107q87 39 194 39q99 0 185 -36q85 -36 146 -101q63 -68 97 -159q34 -92 34 -208v-27q0 -6 -2 -28h-764q5 -56 31 -104q28 -51 70 -89q43 -38 100 -61q58 -23 125 -23q100 0 171 43q75 45 114 96l108 -112q-31 -36 -70 -69 q-36 -30 -90 -60q-49 -27 -110 -42q-64 -16 -129 -16q-104 0 -195 38q-88 36 -154 106q-64 67 -102 160q-36 88 -36 198zM238 555h593q-1 39 -21 84q-20 46 -55 84q-36 39 -90 63q-56 25 -128 25q-76 0 -130 -27q-57 -28 -91 -64q-35 -36 -55 -83q-18 -42 -23 -82zM356 1171 l306 306l106 -107l-309 -295z" />
<glyph unicode="&#xea;" d="M66 477q0 105 33 191q34 89 96 157q63 69 148 107q87 39 194 39q99 0 185 -36q85 -36 146 -101q63 -68 97 -159q34 -92 34 -208v-27q0 -6 -2 -28h-764q5 -56 31 -104q28 -51 70 -89q43 -38 100 -61q58 -23 125 -23q100 0 171 43q75 45 114 96l108 -112q-31 -36 -70 -69 q-36 -30 -90 -60q-49 -27 -110 -42q-64 -16 -129 -16q-104 0 -195 38q-88 36 -154 106q-64 67 -102 160q-36 88 -36 198zM213 1194l340 248l340 -248l-94 -111l-246 189l-246 -189zM238 555h593q-1 39 -21 84q-20 46 -55 84q-36 39 -90 63q-56 25 -128 25q-76 0 -130 -27 q-57 -28 -91 -64q-35 -36 -55 -83q-18 -42 -23 -82z" />
<glyph unicode="&#xeb;" d="M66 477q0 105 33 191q34 89 96 157q63 69 148 107q87 39 194 39q99 0 185 -36q85 -36 146 -101q63 -68 97 -159q34 -92 34 -208v-27q0 -6 -2 -28h-764q5 -56 31 -104q28 -51 70 -89q43 -38 100 -61q58 -23 125 -23q100 0 171 43q75 45 114 96l108 -112q-31 -36 -70 -69 q-36 -30 -90 -60q-49 -27 -110 -42q-64 -16 -129 -16q-104 0 -195 38q-88 36 -154 106q-64 67 -102 160q-36 88 -36 198zM238 555h593q-1 39 -21 84q-20 46 -55 84q-36 39 -90 63q-56 25 -128 25q-76 0 -130 -27q-57 -28 -91 -64q-35 -36 -55 -83q-18 -42 -23 -82zM240 1249 q0 48 34 82q35 35 82 35t82 -35t35 -82t-35 -82q-34 -34 -82 -34t-82 34t-34 82zM610 1249q0 47 35 82t82 35t82 -35t35 -82t-35 -82q-34 -34 -82 -34t-82 34q-35 35 -35 82z" />
<glyph unicode="&#xec;" horiz-adv-x="458" d="M8 1370l107 107l305 -306l-103 -96zM143 0v946h172v-946h-172z" />
<glyph unicode="&#xed;" horiz-adv-x="468" d="M53 1171l305 306l107 -107l-309 -295zM143 0v946h172v-946h-172z" />
<glyph unicode="&#xee;" horiz-adv-x="524" d="M-76 1194l340 248l340 -248l-94 -111l-246 189l-246 -189zM176 0v946h172v-946h-172z" />
<glyph unicode="&#xef;" horiz-adv-x="501" d="M-49 1249q0 47 35 82t82 35t82 -35q34 -34 34 -82t-34 -82t-82 -34t-82 34q-35 35 -35 82zM164 0v946h172v-946h-172zM322 1249q0 48 34 82q35 35 82 35t82 -35t35 -82t-35 -82q-34 -34 -82 -34t-82 34t-34 82z" />
<glyph unicode="&#xf0;" horiz-adv-x="1114" d="M66 471q0 108 36 196q37 91 103 158q68 69 152 107q87 39 190 39q97 0 164 -32q65 -31 106 -69q-44 100 -118 183t-164 155l-271 -125l-61 131l198 93q-60 39 -121 73l-108 60l70 133q61 -30 157 -84q77 -43 166 -107l258 121l62 -131l-193 -90q157 -140 252 -316 q96 -177 96 -415q0 -147 -38 -256q-38 -110 -103 -179q-67 -72 -153 -106q-88 -35 -185 -35q-109 0 -200 39q-87 37 -156 106q-65 65 -103 156q-36 86 -36 195zM242 473q0 -71 22 -131t64 -108q38 -44 99 -72q58 -27 130 -27q71 0 130 27q61 28 99 72q42 48 64 108t22 133 q0 71 -22 131t-64 107q-39 43 -99 71q-59 27 -130 27t-130 -27q-61 -28 -99 -72q-42 -48 -64 -108t-22 -131z" />
<glyph unicode="&#xf1;" horiz-adv-x="1069" d="M131 0v946h160v-133q37 60 109 109q71 49 184 49q70 0 134 -24q65 -24 113 -69q49 -46 78 -114q29 -69 29 -156v-608h-172v580q0 60 -18 104q-17 42 -49 72q-31 29 -69 42q-39 13 -83 13q-50 0 -85 -14q-41 -16 -68 -38q-30 -24 -52 -52q-21 -27 -39 -56v-651h-172z M186 1208q33 85 96 128q64 44 134 44q45 0 76 -14q38 -17 60 -32l51 -31q24 -15 50 -15q30 0 64 25q32 24 51 78l119 -76q-29 -79 -88 -125q-61 -47 -137 -47q-47 0 -79 14q-37 16 -61 32l-50 32q-22 14 -50 14q-32 0 -66 -25q-32 -23 -49 -77z" />
<glyph unicode="&#xf2;" horiz-adv-x="1105" d="M66 473q0 108 36 196q38 91 103 157q68 68 154 106q88 39 194 39q105 0 193 -39t155 -106q65 -66 103 -157q36 -88 36 -196q0 -107 -36 -195q-38 -93 -103 -158q-67 -67 -155 -106t-193 -39q-106 0 -194 39q-86 38 -154 106q-65 65 -103 158q-36 88 -36 195zM238 473 q0 -71 22 -131t64 -108q38 -44 99 -72q59 -27 130 -27t130 27q61 28 99 72q42 48 64 108t22 131t-22 131t-64 108q-38 44 -99 72q-59 27 -130 27t-130 -27q-61 -28 -99 -72q-42 -48 -64 -108t-22 -131zM299 1370l107 107l305 -306l-103 -96z" />
<glyph unicode="&#xf3;" horiz-adv-x="1105" d="M66 473q0 108 36 196q38 91 103 157q68 68 154 106q88 39 194 39q105 0 193 -39t155 -106q65 -66 103 -157q36 -88 36 -196q0 -107 -36 -195q-38 -93 -103 -158q-67 -67 -155 -106t-193 -39q-106 0 -194 39q-86 38 -154 106q-65 65 -103 158q-36 88 -36 195zM238 473 q0 -71 22 -131t64 -108q38 -44 99 -72q59 -27 130 -27t130 27q61 28 99 72q42 48 64 108t22 131t-22 131t-64 108q-38 44 -99 72q-59 27 -130 27t-130 -27q-61 -28 -99 -72q-42 -48 -64 -108t-22 -131zM375 1171l305 306l106 -107l-309 -295z" />
<glyph unicode="&#xf4;" horiz-adv-x="1105" d="M66 473q0 108 36 196q38 91 103 157q68 68 154 106q88 39 194 39q105 0 193 -39t155 -106q65 -66 103 -157q36 -88 36 -196q0 -107 -36 -195q-38 -93 -103 -158q-67 -67 -155 -106t-193 -39q-106 0 -194 39q-86 38 -154 106q-65 65 -103 158q-36 88 -36 195zM213 1194 l340 248l340 -248l-94 -111l-246 189l-246 -189zM238 473q0 -71 22 -131t64 -108q38 -44 99 -72q59 -27 130 -27t130 27q61 28 99 72q42 48 64 108t22 131t-22 131t-64 108q-38 44 -99 72q-59 27 -130 27t-130 -27q-61 -28 -99 -72q-42 -48 -64 -108t-22 -131z" />
<glyph unicode="&#xf5;" horiz-adv-x="1105" d="M66 473q0 108 36 196q38 91 103 157q68 68 154 106q88 39 194 39q105 0 193 -39t155 -106q65 -66 103 -157q36 -88 36 -196q0 -107 -36 -195q-38 -93 -103 -158q-67 -67 -155 -106t-193 -39q-106 0 -194 39q-86 38 -154 106q-65 65 -103 158q-36 88 -36 195zM205 1208 q34 86 95 128q64 44 134 44q45 0 76 -14q38 -17 60 -32l52 -31q24 -15 50 -15q29 0 63 25q32 24 51 78l119 -76q-29 -79 -88 -125q-61 -47 -137 -47q-47 0 -79 14q-34 15 -60 32l-51 32q-22 14 -50 14q-31 0 -65 -25q-32 -23 -49 -77zM238 473q0 -71 22 -131t64 -108 q38 -44 99 -72q59 -27 130 -27t130 27q61 28 99 72q42 48 64 108t22 131t-22 131t-64 108q-38 44 -99 72q-59 27 -130 27t-130 -27q-61 -28 -99 -72q-42 -48 -64 -108t-22 -131z" />
<glyph unicode="&#xf6;" horiz-adv-x="1105" d="M66 473q0 108 36 196q38 91 103 157q68 68 154 106q88 39 194 39q105 0 193 -39t155 -106q65 -66 103 -157q36 -88 36 -196q0 -107 -36 -195q-38 -93 -103 -158q-67 -67 -155 -106t-193 -39q-106 0 -194 39q-86 38 -154 106q-65 65 -103 158q-36 88 -36 195zM238 473 q0 -71 22 -131t64 -108q38 -44 99 -72q59 -27 130 -27t130 27q61 28 99 72q42 48 64 108t22 131t-22 131t-64 108q-38 44 -99 72q-59 27 -130 27t-130 -27q-61 -28 -99 -72q-42 -48 -64 -108t-22 -131zM252 1249q0 47 35 82t82 35t82 -35q34 -34 34 -82t-34 -82t-82 -34 t-82 34q-35 35 -35 82zM623 1249q0 48 34 82q35 35 82 35t82 -35t35 -82t-35 -82q-34 -34 -82 -34t-82 34t-34 82z" />
<glyph unicode="&#xf7;" d="M92 438v152h881v-152h-881zM414 195q0 46 35 81t81 35q47 0 82 -35t35 -81q0 -47 -35 -82t-82 -35q-46 0 -81 35t-35 82zM414 854q0 47 35 82t81 35q47 0 82 -35t35 -82t-35 -82t-82 -35q-46 0 -81 35t-35 82z" />
<glyph unicode="&#xf8;" horiz-adv-x="1122" d="M74 473q0 106 37 196q38 93 102 157q67 67 155 106t193 39q76 0 148 -22q68 -21 129 -62l82 98l88 -76l-84 -100q58 -64 92 -152q33 -85 33 -184q0 -105 -37 -195q-38 -93 -103 -158q-68 -68 -154 -106q-89 -39 -194 -39q-77 0 -145 21q-71 22 -125 59l-80 -94l-88 76 l80 94q-60 65 -95 154q-34 87 -34 188zM246 471q0 -124 65 -211l420 502q-35 22 -78 36q-42 13 -92 13q-71 0 -130 -27q-61 -28 -99 -72q-42 -49 -64 -109q-22 -62 -22 -132zM395 180q73 -45 166 -45q71 0 130 27q62 29 100 72q41 46 63 108q23 63 23 131q0 116 -62 207z " />
<glyph unicode="&#xf9;" horiz-adv-x="1069" d="M131 338v608h172v-579q0 -59 19 -105q17 -42 49 -72q30 -29 70 -42q39 -13 83 -13q93 0 151 48q58 47 91 108v655h172v-946h-160v145q-16 -27 -42 -58q-27 -31 -62 -54q-39 -25 -84 -41q-48 -17 -105 -17q-70 0 -133 24t-112 70t-79 113q-30 68 -30 156zM274 1370 l107 107l305 -306l-102 -96z" />
<glyph unicode="&#xfa;" horiz-adv-x="1069" d="M131 338v608h172v-579q0 -59 19 -105q17 -42 49 -72q30 -29 70 -42q39 -13 83 -13q93 0 151 48q58 47 91 108v655h172v-946h-160v145q-16 -27 -42 -58q-27 -31 -62 -54q-39 -25 -84 -41q-48 -17 -105 -17q-70 0 -133 24t-112 70t-79 113q-30 68 -30 156zM391 1171 l305 306l107 -107l-309 -295z" />
<glyph unicode="&#xfb;" horiz-adv-x="1069" d="M131 338v608h172v-579q0 -59 19 -105q17 -42 49 -72q30 -29 70 -42q39 -13 83 -13q93 0 151 48q58 47 91 108v655h172v-946h-160v145q-16 -27 -42 -58q-27 -31 -62 -54q-39 -25 -84 -41q-48 -17 -105 -17q-70 0 -133 24t-112 70t-79 113q-30 68 -30 156zM197 1194 l340 248l340 -248l-95 -111l-245 189l-246 -189z" />
<glyph unicode="&#xfc;" horiz-adv-x="1069" d="M131 338v608h172v-579q0 -59 19 -105q17 -42 49 -72q30 -29 70 -42q39 -13 83 -13q93 0 151 48q58 47 91 108v655h172v-946h-160v145q-16 -27 -42 -58q-27 -31 -62 -54q-39 -25 -84 -41q-48 -17 -105 -17q-70 0 -133 24t-112 70t-79 113q-30 68 -30 156zM233 1249 q0 47 35 82t82 35t82 -35t35 -82t-35 -82q-34 -34 -82 -34t-82 34q-35 35 -35 82zM604 1249q0 47 35 82t82 35t82 -35t35 -82t-35 -82q-34 -34 -82 -34t-82 34q-35 35 -35 82z" />
<glyph unicode="&#xfd;" horiz-adv-x="1024" d="M20 946h195l332 -747l282 747h187l-240 -604l-90 -226l-81 -202l-59 -150l-28 -69q-41 -103 -114 -147t-148 -44q-64 0 -118 23t-83 45l74 141q62 -49 117 -49q54 0 84 38q30 37 59 108l74 186zM356 1171l306 306l106 -107l-309 -295z" />
<glyph unicode="&#xfe;" horiz-adv-x="1169" d="M168 -471v2019h172v-719q12 15 36 39q26 26 61 47q37 22 89 39q53 17 117 17q98 0 182 -39q83 -39 146 -106q61 -65 97 -157q36 -91 36 -196q0 -104 -36 -195q-37 -93 -97 -158q-63 -67 -146 -106q-84 -39 -180 -39q-64 0 -117 17q-52 17 -89 39q-40 24 -62 46 q-29 29 -37 40v-588h-172zM340 297q17 -27 44 -57t60 -53q28 -19 79 -37q44 -15 98 -15q69 0 128 27t98 72t62 108t23 131t-23 131t-62 108t-98 72q-58 27 -128 27q-57 0 -98 -14q-48 -17 -79 -38q-36 -25 -60 -52q-25 -28 -44 -58v-352z" />
<glyph unicode="&#xff;" horiz-adv-x="1024" d="M20 946h195l332 -747l282 747h187l-240 -604l-90 -226l-81 -202l-59 -150l-28 -69q-41 -103 -114 -147t-148 -44q-64 0 -118 23t-83 45l74 141q62 -49 117 -49q54 0 84 38q30 37 59 108l74 186zM225 1249q0 47 35 82t82 35t82 -35t35 -82t-35 -82q-34 -34 -82 -34t-82 34 q-35 35 -35 82zM596 1249q0 47 35 82t82 35t82 -35q34 -34 34 -82t-34 -82t-82 -34t-82 34q-35 35 -35 82z" />
<glyph unicode="&#x152;" horiz-adv-x="1712" d="M78 717q0 158 52 287q54 134 146 226q95 95 225 149q133 55 285 55h807v-164h-573v-453h524v-164h-524v-489h586v-164h-820q-154 0 -285 54q-128 53 -225 150q-92 92 -146 226q-52 129 -52 287zM254 717q0 -115 39 -215t109 -176q69 -75 169 -119q98 -43 215 -43h62v1106 h-62q-117 0 -215 -43q-100 -44 -169 -119q-70 -76 -109 -176q-39 -101 -39 -215z" />
<glyph unicode="&#x153;" horiz-adv-x="1847" d="M66 473q0 108 36 196q38 91 103 157q69 69 153 106q88 39 193 39q131 0 234 -59q102 -58 163 -148q59 93 158 150t225 57q97 0 180 -36q85 -37 143 -101q59 -65 94 -159q34 -92 34 -208v-27q0 -6 -2 -28h-744q1 -53 28 -105q25 -48 68 -88q42 -39 98 -61q58 -23 120 -23 q84 0 161 41t123 100l107 -110q-67 -82 -171 -136q-105 -55 -227 -55q-121 0 -226 58q-103 57 -165 149q-65 -93 -169 -150q-103 -57 -230 -57q-106 0 -194 39q-86 38 -154 106q-65 65 -103 158q-36 88 -36 195zM238 473q0 -71 22 -131q21 -58 64 -107q39 -45 101 -73 q60 -27 134 -27q137 0 216 88t91 236l2 14q0 71 -22 131t-64 108q-38 44 -99 72q-59 27 -130 27t-130 -27q-61 -28 -99 -72q-42 -48 -64 -108t-22 -131zM1040 553h572q-1 37 -20 85q-19 49 -51 84q-35 38 -86 63q-54 26 -122 26q-72 0 -126 -27q-56 -28 -90 -65 q-35 -38 -55 -84q-21 -48 -22 -82z" />
<glyph unicode="&#x178;" horiz-adv-x="1187" d="M25 1434h192l385 -705l379 705h182l-483 -871v-563h-172v563zM293 1696q0 47 35 82q34 34 82 34t82 -34t34 -82t-34 -82q-35 -35 -82 -35t-82 35t-35 82zM664 1696q0 48 34 82t82 34t82 -34q35 -35 35 -82t-35 -82t-82 -35t-82 35q-34 34 -34 82z" />
<glyph unicode="&#x2c6;" horiz-adv-x="868" d="M94 1194l340 248l340 -248l-94 -111l-246 189l-246 -189z" />
<glyph unicode="&#x2dc;" horiz-adv-x="798" d="M49 1208q34 86 95 128q64 44 135 44q44 0 75 -14q41 -19 61 -32l51 -31q24 -15 50 -15q30 0 64 25q32 24 51 78l119 -76q-29 -79 -88 -125q-61 -47 -138 -47q-47 0 -79 14q-35 15 -60 32l-50 32q-22 14 -50 14q-32 0 -66 -25q-32 -23 -49 -77z" />
<glyph unicode="&#x2000;" horiz-adv-x="971" />
<glyph unicode="&#x2001;" horiz-adv-x="1942" />
<glyph unicode="&#x2002;" horiz-adv-x="971" />
<glyph unicode="&#x2003;" horiz-adv-x="1942" />
<glyph unicode="&#x2004;" horiz-adv-x="647" />
<glyph unicode="&#x2005;" horiz-adv-x="485" />
<glyph unicode="&#x2006;" horiz-adv-x="323" />
<glyph unicode="&#x2007;" horiz-adv-x="323" />
<glyph unicode="&#x2008;" horiz-adv-x="242" />
<glyph unicode="&#x2009;" horiz-adv-x="388" />
<glyph unicode="&#x200a;" horiz-adv-x="107" />
<glyph unicode="&#x2010;" horiz-adv-x="681" d="M68 418v164h546v-164h-546z" />
<glyph unicode="&#x2011;" horiz-adv-x="681" d="M68 418v164h546v-164h-546z" />
<glyph unicode="&#x2012;" horiz-adv-x="681" d="M68 418v164h546v-164h-546z" />
<glyph unicode="&#x2013;" horiz-adv-x="1024" d="M0 418v164h1024v-164h-1024z" />
<glyph unicode="&#x2014;" horiz-adv-x="2048" d="M0 418v164h2048v-164h-2048z" />
<glyph unicode="&#x2018;" horiz-adv-x="307" d="M82 946v488h143v-488h-143z" />
<glyph unicode="&#x2019;" horiz-adv-x="307" d="M82 946v488h143v-488h-143z" />
<glyph unicode="&#x201c;" horiz-adv-x="679" d="M123 946v488h147v-488h-147zM410 946v488h147v-488h-147z" />
<glyph unicode="&#x201d;" horiz-adv-x="679" d="M123 946v488h147v-488h-147zM410 946v488h147v-488h-147z" />
<glyph unicode="&#x201e;" horiz-adv-x="679" d="M123 201h147v-488h-147v488zM410 201h147v-488h-147v488z" />
<glyph unicode="&#x2022;" horiz-adv-x="829" d="M168 723q0 52 19 96t54 79q34 34 78 53q46 20 97 20q50 0 95 -20t78 -53t53 -79t20 -96t-20 -95t-53 -78t-78 -53t-95 -20q-51 0 -97 20q-44 19 -78 53q-35 34 -54 78q-19 42 -19 95z" />
<glyph unicode="&#x2026;" horiz-adv-x="2048" d="M231 92q0 47 35 82t82 35t82 -35t35 -82t-35 -82t-82 -35t-82 35t-35 82zM907 92q0 47 35 82t82 35t82 -35t35 -82t-35 -82t-82 -35t-82 35t-35 82zM1583 92q0 47 35 82t82 35t82 -35t35 -82t-35 -82t-82 -35t-82 35t-35 82z" />
<glyph unicode="&#x202f;" horiz-adv-x="388" />
<glyph unicode="&#x2039;" horiz-adv-x="624" d="M29 502l362 473l121 -90l-299 -383l299 -383l-121 -90z" />
<glyph unicode="&#x203a;" horiz-adv-x="624" d="M113 119l299 383l-299 383l120 90l363 -473l-363 -473z" />
<glyph unicode="&#x205f;" horiz-adv-x="485" />
<glyph unicode="&#x20ac;" horiz-adv-x="1187" d="M68 514v131h149q-6 69 0 143h-149v132h168q28 120 81 215q54 97 138 170q82 72 188 112q108 41 234 41q80 0 139 -14q69 -16 121 -37l-60 -152q-85 39 -194 39q-91 0 -168 -27q-72 -25 -134 -78q-58 -49 -99 -119q-39 -66 -60 -150h475v-132h-500q-6 -74 0 -143h500v-131 h-483q15 -92 58 -161q42 -68 108 -117t141 -72q81 -25 158 -25q55 0 110 12q64 14 101 31l49 -157q-65 -26 -133 -37q-80 -13 -146 -13q-125 0 -234 38q-105 37 -190 109q-82 70 -135 170q-54 102 -70 222h-163z" />
<glyph unicode="&#x2122;" horiz-adv-x="1570" d="M41 1325v109h526v-109h-209v-649h-112v649h-205zM707 676v758h112l258 -424l258 424h113v-758h-113v547l-258 -428l-258 428v-547h-112z" />
<glyph unicode="&#x25fc;" horiz-adv-x="942" d="M0 0v942h942v-942h-942z" />
</font>
</defs>
</svg>
