<svg id="nc_icon" xmlns="http://www.w3.org/2000/svg" xml:space="preserve" viewBox="0 0 24 24"><g fill="none" stroke="currentColor" stroke-miterlimit="10" class="nc-icon-wrapper"><path d="M22.419 13c.375-.926.581-1.94.581-3a8 8 0 0 0-8-8 7.96 7.96 0 0 0-5.317 2.034A8.064 8.064 0 0 0 9 4a8 8 0 0 0-7.418 11.001" data-cap="butt" data-color="color-2" vector-effect="non-scaling-stroke"/><path stroke-linecap="square" d="M12 23V10.5A3.5 3.5 0 0 1 15.5 7h0a3.5 3.5 0 0 1 3.5 3.5V23M5 23V12.5A3.5 3.5 0 0 1 8.5 9h0a3.5 3.5 0 0 1 3.5 3.5v.5" vector-effect="non-scaling-stroke"/></g></svg>
