<svg id="nc_icon" xmlns="http://www.w3.org/2000/svg" xml:space="preserve" viewBox="0 0 24 24"><g fill="none" stroke="currentColor" stroke-miterlimit="10" class="nc-icon-wrapper"><path d="M22 5H2" data-cap="butt" data-color="color-2" vector-effect="non-scaling-stroke"/><path stroke-linecap="square" d="m19 2 3 3-3 3" data-color="color-2" vector-effect="non-scaling-stroke"/><path stroke-linecap="square" d="M7 23v-9.5A2.5 2.5 0 0 1 9.5 11h0a2.5 2.5 0 0 1 2.5 2.5V23M12 16v-.5a2.5 2.5 0 0 1 2.5-2.5h0a2.5 2.5 0 0 1 2.5 2.5V23M17 18v-.5a2.5 2.5 0 0 1 2.5-2.5h0a2.5 2.5 0 0 1 2.5 2.5V23M2 23v-7.5A2.5 2.5 0 0 1 4.5 13h0A2.5 2.5 0 0 1 7 15.5v.5" vector-effect="non-scaling-stroke"/></g></svg>
