<svg id="nc_icon" xmlns="http://www.w3.org/2000/svg" xml:space="preserve" viewBox="0 0 24 24"><g fill="none" stroke="currentColor" stroke-linecap="square" stroke-miterlimit="10" class="nc-icon-wrapper"><path d="M12 4V1M2 16C2 7.083 7.029 4 12 4s10 3.083 10 12c0 4.971-5.029 7-10 7S2 20.971 2 16z" vector-effect="non-scaling-stroke"/><path d="M12 8c-3.804 0-5.811 2.463-5.983 7.312.061.595.332 1.114 1.179 1.623C8.322 17.612 10.073 18 12 18s3.678-.388 4.804-1.065c.847-.509 1.117-1.028 1.179-1.623C17.811 10.463 15.804 8 12 8z" data-color="color-2" vector-effect="non-scaling-stroke"/></g></svg>
