<svg id="nc_icon" xmlns="http://www.w3.org/2000/svg" xml:space="preserve" viewBox="0 0 24 24"><g fill="none" class="nc-icon-wrapper"><path stroke="currentColor" stroke-linecap="square" stroke-miterlimit="10" d="M10 21.836c0-.604-.265-1.179-.738-1.554C8.539 19.708 7.285 19 5.5 19s-3.039.708-3.762 1.282c-.473.375-.738.95-.738 1.554V23h9v-1.164z" vector-effect="non-scaling-stroke"/><circle cx="5.5" cy="13.5" r="2.5" stroke="currentColor" stroke-linecap="square" stroke-miterlimit="10" vector-effect="non-scaling-stroke"/><path stroke="currentColor" stroke-linecap="square" stroke-miterlimit="10" d="M23 21.836c0-.604-.265-1.179-.738-1.554C21.539 19.708 20.285 19 18.5 19s-3.039.708-3.762 1.282c-.473.375-.738.95-.738 1.554V23h9v-1.164z" vector-effect="non-scaling-stroke"/><circle cx="18.5" cy="13.5" r="2.5" stroke="currentColor" stroke-linecap="square" stroke-miterlimit="10" vector-effect="non-scaling-stroke"/><path stroke="currentColor" stroke-linecap="square" stroke-miterlimit="10" d="M16 4.817C16 7.183 12 11 12 11S8 7.183 8 4.817C8 2.374 10.08 1 12 1s4 1.374 4 3.817z" data-color="color-2" vector-effect="non-scaling-stroke"/><circle cx="12" cy="5" r="1" data-color="color-2" data-stroke="none"/></g></svg>
