<svg id="nc_icon" xmlns="http://www.w3.org/2000/svg" xml:space="preserve" viewBox="0 0 24 24"><g fill="none" stroke="currentColor" stroke-miterlimit="10" class="nc-icon-wrapper"><path d="M16.475 15.708C15.654 19.138 13.958 23 12 23c-1.96 0-3.654-3.859-4.473-7.292M8.191 18h7.61M9.904 13h4.192" data-cap="butt" data-color="color-2" vector-effect="non-scaling-stroke"/><path stroke-linecap="square" d="M9 4c0-1.958 1.895-3 3-3s3 1.042 3 3c0 1.105-1.895 2-3 2s-3-.895-3-2zM6.024 16H1C1 11 5.958 6 12 6c-.958 3.542-2.145 7.15-2.145 7.15A4 4 0 0 1 6.024 16zM17.976 16H23c0-5-4.958-10-11-10 .958 3.542 2.145 7.15 2.145 7.15A4 4 0 0 0 17.976 16z" vector-effect="non-scaling-stroke"/></g></svg>
