<svg id="nc_icon" xmlns="http://www.w3.org/2000/svg" xml:space="preserve" viewBox="0 0 24 24"><g fill="none" stroke="currentColor" stroke-miterlimit="10" class="nc-icon-wrapper"><path d="M17 12h4v4c0 1.1-.9 2-2 2h-2M17 10.5V23H3V10.5" data-cap="butt" data-color="color-2" vector-effect="non-scaling-stroke"/><path stroke-linecap="square" d="M15.5 6s0 0 0 0c-.3-2.8-2.6-5-5.5-5S4.8 3.2 4.5 6c0 0 0 0 0 0C3 6 1.9 7.3 2 8.8c.1 1.3 1.3 2.2 2.6 2.2H7v4c0 1.1.9 2 2 2h0c1.1 0 2-.9 2-2v-4h4.4c1.3 0 2.5-.9 2.6-2.2.1-1.5-1-2.8-2.5-2.8z" vector-effect="non-scaling-stroke"/></g></svg>
