<svg id="nc_icon" xmlns="http://www.w3.org/2000/svg" xml:space="preserve" viewBox="0 0 24 24"><g fill="none" stroke="currentColor" stroke-linecap="square" stroke-miterlimit="10" class="nc-icon-wrapper"><path d="M12 4c0-1.7-1.3-3-3-3-1.3 0-2.4.8-2.8 2H6C3.2 3 1 5.2 1 8c0 1.3.5 2.6 1.4 3.5C1.6 12 1 12.9 1 14c0 1 .5 1.9 1.3 2.4-.2.5-.3 1.1-.3 1.6 0 2.8 2.2 5 5 5s5-2.2 5-5v-8M12 4c0-1.7 1.3-3 3-3 1.3 0 2.4.8 2.8 2h.2c2.8 0 5 2.2 5 5 0 1.3-.5 2.6-1.4 3.5.8.5 1.4 1.4 1.4 2.5 0 1-.5 1.9-1.3 2.4.2.5.3 1 .3 1.6 0 2.8-2.2 5-5 5s-5-2.2-5-5" vector-effect="non-scaling-stroke"/><path d="M6 13c-1.4 0-2.7-.6-3.6-1.5M18 13c1.4 0 2.7-.6 3.6-1.5M12 4c0 1.7-1.3 3-3 3M12 4c0 1.7 1.3 3 3 3M8 15.8c-1.2-.4-2-1.5-2-2.8 0-.9.4-1.7 1-2.2M16 15.8c1.2-.4 2-1.5 2-2.8 0-.9-.4-1.7-1-2.2" vector-effect="non-scaling-stroke"/></g></svg>
