<svg id="nc_icon" xmlns="http://www.w3.org/2000/svg" xml:space="preserve" viewBox="0 0 24 24"><g fill="none" stroke="currentColor" stroke-miterlimit="10" class="nc-icon-wrapper"><path d="M7 14.5c3.1 4.7 3 8.5 3 8.5h4s-.8-5.8 3.9-9.2" data-cap="butt" data-color="color-2" vector-effect="non-scaling-stroke"/><path stroke-linecap="square" d="M19 6c-.2-2.2-2.1-4-4.5-4-1.3 0-2.4.5-3.2 1.4C10.4 2 8.8 1 7 1 4.2 1 2 3.2 2 6c0 .5.1 1.1.3 1.6C1.5 8.1 1 9 1 10c0 1.7 1.3 3 3 3 .6 0 1.1-.2 1.6-.5 1 2 3 3.5 5.4 3.5 2.3 0 4.2-1.3 5.3-3.1.7.7 1.6 1.1 2.7 1.1 2.2 0 4-1.8 4-4s-1.4-4-4-4z" vector-effect="non-scaling-stroke"/></g></svg>
