<svg id="nc_icon" xmlns="http://www.w3.org/2000/svg" xml:space="preserve" viewBox="0 0 24 24"><g fill="none" class="nc-icon-wrapper"><path stroke="currentColor" stroke-linecap="square" stroke-miterlimit="10" d="M19 3h4v20H1V3h4M7 3h10" vector-effect="non-scaling-stroke"/><path stroke="currentColor" stroke-linecap="square" stroke-miterlimit="10" d="M5 1h2v4H5zM17 1h2v4h-2zM1 9h22" vector-effect="non-scaling-stroke"/><path stroke="currentColor" stroke-linecap="square" stroke-miterlimit="10" d="M5 13h2v1H5zM11 13h2v1h-2zM5 18h2v1H5zM11 18h2v1h-2zM17 13h2v1h-2z" data-color="color-2" vector-effect="non-scaling-stroke"/><path d="M5 13h2v1H5zM11 13h2v1h-2zM5 18h2v1H5zM11 18h2v1h-2zM17 13h2v1h-2z" data-color="color-2" data-stroke="none"/></g></svg>
