<svg id="nc_icon" xmlns="http://www.w3.org/2000/svg" xml:space="preserve" viewBox="0 0 24 24"><g fill="none" class="nc-icon-wrapper"><path d="M2 21h4v2H2z" data-cap="butt" data-stroke="none"/><path stroke="currentColor" stroke-miterlimit="10" d="m20 15-1.772-5.316A1 1 0 0 0 17.279 9H6.721a1 1 0 0 0-.949.684L4 15" data-cap="butt" vector-effect="non-scaling-stroke"/><path stroke="currentColor" stroke-linecap="square" stroke-miterlimit="10" d="M22 21H2v-3.586a1 1 0 0 1 .293-.707L4 15h16l1.707 1.707a1 1 0 0 1 .293.707Z" vector-effect="non-scaling-stroke"/><circle cx="6" cy="18" r="1" data-cap="butt" data-stroke="none"/><circle cx="18" cy="18" r="1" data-cap="butt" data-stroke="none"/><path d="M10 3.125C10 1.938 12 0 12 0s2 1.938 2 3.125A1.906 1.906 0 0 1 12 5a1.906 1.906 0 0 1-2-1.875ZM2 3.125C2 1.938 4 0 4 0s2 1.938 2 3.125A1.906 1.906 0 0 1 4 5a1.906 1.906 0 0 1-2-1.875ZM18 3.125C18 1.938 20 0 20 0s2 1.938 2 3.125a2 2 0 0 1-4 0Z" data-cap="butt" data-color="color-2" data-stroke="none"/><path stroke="currentColor" stroke-linecap="square" stroke-miterlimit="10" d="M6 21v2H2v-2" vector-effect="non-scaling-stroke"/><path d="M18 21h4v2h-4z" data-cap="butt" data-stroke="none"/><path stroke="currentColor" stroke-linecap="square" stroke-miterlimit="10" d="M22 21v2h-4v-2" vector-effect="non-scaling-stroke"/></g></svg>
