<svg id="nc_icon" xmlns="http://www.w3.org/2000/svg" xml:space="preserve" viewBox="0 0 24 24"><g fill="none" class="nc-icon-wrapper"><path stroke="currentColor" stroke-linecap="square" stroke-miterlimit="10" d="M1 5h22M1 10h22M23 10V3c0-1.1-.9-2-2-2H3c-1.1 0-2 .9-2 2v13c0 1.1.9 2 2 2h6" vector-effect="non-scaling-stroke"/><path stroke="currentColor" stroke-miterlimit="10" d="M14.126 17a4.002 4.002 0 0 1 7.338-1.001" data-cap="butt" data-color="color-2" vector-effect="non-scaling-stroke"/><path d="M23.22 13.649 22.792 18l-4.27-.939z" data-color="color-2" data-stroke="none"/><path stroke="currentColor" stroke-miterlimit="10" d="M21.874 20a4.002 4.002 0 0 1-7.338 1.001" data-cap="butt" data-color="color-2" vector-effect="non-scaling-stroke"/><path d="M12.78 23.351 13.208 19l4.27.939z" data-color="color-2" data-stroke="none"/></g></svg>
