<svg id="nc_icon" xmlns="http://www.w3.org/2000/svg" xml:space="preserve" viewBox="0 0 24 24"><g fill="none" stroke="currentColor" stroke-miterlimit="10" class="nc-icon-wrapper"><path d="M19.8 12.3c1.9-1 3.2-3 3.2-5.3-3.3 0-6-2.7-6-6-2.4 0-4.4 1.4-5.4 3.4-.3.6-.4 1.2-.5 1.9" data-cap="butt" data-color="color-2" vector-effect="non-scaling-stroke"/><path stroke-linecap="square" d="M9 6c3.8 0 7 2.6 7.8 6.2.4-.1.8-.2 1.2-.2 2.8 0 5 2.2 5 5s-2.2 5-5 5H9c-4.4 0-8-3.6-8-8s3.6-8 8-8z" vector-effect="non-scaling-stroke"/></g></svg>
