<svg id="nc_icon" xmlns="http://www.w3.org/2000/svg" xml:space="preserve" viewBox="0 0 24 24"><g fill="none" stroke="currentColor" stroke-miterlimit="10" class="nc-icon-wrapper"><path d="M1 4v4c0 1.657 2.686 3 6 3s6-1.343 6-3V4" data-cap="butt" data-color="color-2" vector-effect="non-scaling-stroke"/><path d="M1 8v4c0 1.657 2.686 3 6 3 1.537 0 2.938-.29 4-.765" data-cap="butt" data-color="color-2" vector-effect="non-scaling-stroke"/><path d="M1 12v4c0 1.657 2.686 3 6 3 1.537 0 2.939-.289 4-.764" data-cap="butt" data-color="color-2" vector-effect="non-scaling-stroke"/><ellipse cx="7" cy="4" stroke-linecap="square" data-color="color-2" rx="6" ry="3" vector-effect="non-scaling-stroke"/><path d="M11 12v4c0 1.657 2.686 3 6 3s6-1.343 6-3v-4" data-cap="butt" vector-effect="non-scaling-stroke"/><path d="M11 16v4c0 1.657 2.686 3 6 3s6-1.343 6-3v-4" data-cap="butt" vector-effect="non-scaling-stroke"/><ellipse cx="17" cy="12" stroke-linecap="square" rx="6" ry="3" vector-effect="non-scaling-stroke"/></g></svg>
