<svg id="nc_icon" xmlns="http://www.w3.org/2000/svg" xml:space="preserve" viewBox="0 0 24 24"><g fill="none" stroke="currentColor" stroke-miterlimit="10" class="nc-icon-wrapper"><path d="M18.2 20.1C20 20.6 20 23 20 23M19 9c0 2-1 3.7-2.2 4.2M5.8 20.1C4 20.6 4 23 4 23M5 9c0 2 1 3.7 2.2 4.2" data-cap="butt" data-color="color-2" vector-effect="non-scaling-stroke"/><path stroke-linecap="square" d="M16.2 2.1C16.7 3.2 17.7 4 19 4s2.3-.8 2.8-1.9c.7.8 1.2 1.8 1.2 2.9 0 2.2-1.8 4-4 4s-4-1.8-4-4c0-1.1.5-2.1 1.2-2.9zM2 17s4.4-5 10-5 10 5 10 5-4.5 5-10 5c-5.6 0-10-5-10-5zM7.8 2.1C7.3 3.2 6.3 4 5 4s-2.3-.8-2.8-1.9C1.5 2.9 1 3.9 1 5c0 2.2 1.8 4 4 4s4-1.8 4-4c0-1.1-.5-2.1-1.2-2.9z" vector-effect="non-scaling-stroke"/></g></svg>
