<svg id="nc_icon" xmlns="http://www.w3.org/2000/svg" xml:space="preserve" viewBox="0 0 24 24"><g fill="none" stroke="currentColor" stroke-miterlimit="10" class="nc-icon-wrapper"><path d="M17 22V3c0-.6-.4-1-1-1H9c-.6 0-1 .4-1 1v6.9L7.1 9c-.6-.6-1.5-.6-2.1 0s-.6 1.6 0 2.2l3 3V20M11 7V2M14 7V2" data-cap="butt" data-color="color-2" vector-effect="non-scaling-stroke"/><path stroke-linecap="square" d="M1 22h5a2 2 0 0 1 2-2c.499 0 .95.19 1.3.491A3.997 3.997 0 0 1 17 22h6" vector-effect="non-scaling-stroke"/></g></svg>
