<svg id="nc_icon" xmlns="http://www.w3.org/2000/svg" xml:space="preserve" viewBox="0 0 24 24"><g fill="none" stroke="currentColor" stroke-miterlimit="10" class="nc-icon-wrapper"><circle cx="8" cy="11" r="1" stroke-linecap="square" data-color="color-2" vector-effect="non-scaling-stroke"/><circle cx="16" cy="11" r="1" stroke-linecap="square" data-color="color-2" vector-effect="non-scaling-stroke"/><path d="M2.996 10.998A4.992 4.992 0 0 1 1 7V1a7.997 7.997 0 0 1 6.93 4M21.004 10.998A4.992 4.992 0 0 0 23 7V1a7.997 7.997 0 0 0-6.93 4" data-cap="butt" vector-effect="non-scaling-stroke"/><path d="M5.994 21.873A4.002 4.002 0 0 1 3 18v-8a5 5 0 0 1 5-5h8a5 5 0 0 1 5 5v8a4.002 4.002 0 0 1-3 3.874" data-cap="butt" vector-effect="non-scaling-stroke"/><path d="M12 18.528V19a4 4 0 0 1-4 4H6v-5a3 3 0 0 1 3-3h.765M12 18.056V19a4 4 0 0 0 4 4h2v-5a3 3 0 0 0-3-3h-.765" data-cap="butt" data-color="color-2" vector-effect="non-scaling-stroke"/><path stroke-linecap="square" d="M10.766 14h2.468a1 1 0 0 1 .857 1.514l-1.234 2.057a1 1 0 0 1-1.714 0l-1.234-2.057A1 1 0 0 1 10.766 14z" data-color="color-2" vector-effect="non-scaling-stroke"/></g></svg>
