<svg id="nc_icon" xmlns="http://www.w3.org/2000/svg" xml:space="preserve" viewBox="0 0 24 24"><g fill="none" stroke="currentColor" stroke-miterlimit="10" class="nc-icon-wrapper"><path d="M21 9v8h-3M5 14V9" data-cap="butt" vector-effect="non-scaling-stroke"/><path stroke-linecap="square" d="M7 3c0-1.1.9-2 2-2 3 0 4 4 4 4H9c-1.1 0-2-.9-2-2zM19 3c0-1.1-.9-2-2-2-3 0-4 4-4 4h4c1.1 0 2-.9 2-2z" data-color="color-2" vector-effect="non-scaling-stroke"/><path stroke-linecap="square" d="M3 5h20v4H3z" vector-effect="non-scaling-stroke"/><path d="M14.1 17H19c2.4 0 3 2 3 2l-10.6 3.8c-.8.2-1.7.2-2.5-.1L1 19.406V14h4c1.6 0 3.1.7 4 2h3c1.5 0 3 1.5 3 3H8" data-cap="butt" vector-effect="non-scaling-stroke"/></g></svg>
