<svg id="nc_icon" xmlns="http://www.w3.org/2000/svg" xml:space="preserve" viewBox="0 0 24 24"><g fill="none" stroke="currentColor" stroke-miterlimit="10" class="nc-icon-wrapper"><path d="m2.546 12.94-.259-.35a7.416 7.416 0 0 1 .884-9.419C5.333 1.01 8.735.236 12 1.923" data-cap="butt" vector-effect="non-scaling-stroke"/><path d="M18 7c-2 2-6 0-6 0l-1 1a4.242 4.242 0 0 1-6 0l5.345-4.829a7.412 7.412 0 0 1 10.642.164c2.783 2.955 2.492 7.67-.379 10.54l-.271.272" data-cap="butt" vector-effect="non-scaling-stroke"/><path stroke-linecap="square" d="m7.682 21.218-4.95-4.95a2.501 2.501 0 0 1 0-3.536h0a2.501 2.501 0 0 1 3.536 0l4.95 4.95a2.501 2.501 0 0 1 0 3.536h0a2.501 2.501 0 0 1-3.536 0z" vector-effect="non-scaling-stroke"/><path d="m14.234 7.749 5.473 5.473a3 3 0 0 1 0 4.243l-4.243 4.243a3 3 0 0 1-4.243 0l-.269-.259" data-cap="butt" vector-effect="non-scaling-stroke"/></g></svg>
