<svg id="nc_icon" xmlns="http://www.w3.org/2000/svg" xml:space="preserve" viewBox="0 0 24 24"><g fill="none" stroke="currentColor" stroke-linecap="square" stroke-miterlimit="10" class="nc-icon-wrapper"><path d="M21 12h2M14 12h3M7 12h3M14 20h3M7 20h3M5 23h0c-1.1 0-2-.9-2-2V11c0-1.1.9-2 2-2h0c1.1 0 2 .9 2 2v10c0 1.1-.9 2-2 2zM12 23h0c-1.1 0-2-.9-2-2V11c0-1.1.9-2 2-2h0c1.1 0 2 .9 2 2v10c0 1.1-.9 2-2 2zM19 23h0c-1.1 0-2-.9-2-2V11c0-1.1.9-2 2-2h0c1.1 0 2 .9 2 2v10c0 1.1-.9 2-2 2z" vector-effect="non-scaling-stroke"/><path d="M12 5V1M7 6V4M17 6V4" data-color="color-2" vector-effect="non-scaling-stroke"/></g></svg>
