<svg id="nc_icon" xmlns="http://www.w3.org/2000/svg" xml:space="preserve" viewBox="0 0 24 24"><g fill="none" stroke="currentColor" stroke-miterlimit="10" class="nc-icon-wrapper"><path d="M9 9v8M15 9v8" data-cap="butt" data-color="color-2" vector-effect="non-scaling-stroke"/><path stroke-linecap="square" d="M17 5c0 2.8-2.2 5-5 5S7 7.8 7 5H3c-1.1 0-2 .9-2 2v16h22V7c0-1.1-.9-2-2-2h-4zM6 5c-1.1 0-2-.9-2-2h0c0-1.1.9-2 2-2h12c1.1 0 2 .9 2 2h0c0 1.1-.9 2-2 2" vector-effect="non-scaling-stroke"/></g></svg>
