<svg id="nc_icon" xmlns="http://www.w3.org/2000/svg" xml:space="preserve" viewBox="0 0 24 24"><g fill="none" class="nc-icon-wrapper"><path stroke="currentColor" stroke-linecap="square" stroke-miterlimit="10" d="M19 14a9 9 0 0 1-9 9h0a9 9 0 0 1-9-9" vector-effect="non-scaling-stroke"/><path d="M10 20a3 3 0 0 1-3-3h6a3 3 0 0 1-3 3z" data-stroke="none"/><path stroke="currentColor" stroke-linecap="square" stroke-miterlimit="10" d="M19 10H1a9 9 0 0 1 9-9h0a9 9 0 0 1 9 9zM19 14h-9a4 4 0 0 1-4-4h17a4 4 0 0 1-4 4z" data-color="color-2" vector-effect="non-scaling-stroke"/></g></svg>
