<svg id="nc_icon" xmlns="http://www.w3.org/2000/svg" viewBox="0 0 24 24"><g fill="none" stroke="currentColor" stroke-linecap="square" stroke-miterlimit="10" class="nc-icon-wrapper"><path d="M19 11h-8" data-color="color-2" vector-effect="non-scaling-stroke"/><path d="M21 14H7v7a2 2 0 0 0 2 2h10a2 2 0 0 0 2-2v-7zM7 14H5a2 2 0 0 1-2-2V4a2 2 0 0 1 2-2h2v12z" vector-effect="non-scaling-stroke"/><path d="M15 8c1.104 0 2-.896 2-2s-2-4-2-4-2 2.896-2 4 .896 2 2 2z" data-color="color-2" vector-effect="non-scaling-stroke"/></g></svg>
