<svg id="nc_icon" xmlns="http://www.w3.org/2000/svg" xml:space="preserve" viewBox="0 0 24 24"><g fill="none" stroke="currentColor" stroke-linecap="square" stroke-miterlimit="10" class="nc-icon-wrapper"><path d="M15 23H1v-4.313c0-1.213.725-2.307 1.846-2.772C3.981 15.445 5.67 15 8 15s4.019.445 5.154.916A2.994 2.994 0 0 1 15 18.687V23z" vector-effect="non-scaling-stroke"/><circle cx="8" cy="8" r="4" vector-effect="non-scaling-stroke"/><path d="M23 11.836c0-.604-.265-1.179-.738-1.554C21.539 9.708 20.285 9 18.5 9s-3.039.708-3.762 1.282c-.473.375-.738.95-.738 1.554V13h9v-1.164z" data-color="color-2" vector-effect="non-scaling-stroke"/><circle cx="18.5" cy="3.5" r="2.5" data-color="color-2" vector-effect="non-scaling-stroke"/></g></svg>
