<svg id="nc_icon" xmlns="http://www.w3.org/2000/svg" xml:space="preserve" viewBox="0 0 24 24"><g fill="none" class="nc-icon-wrapper"><path stroke="currentColor" stroke-linecap="square" stroke-miterlimit="10" d="M8 15H1V5h22v11" vector-effect="non-scaling-stroke"/><path stroke="currentColor" stroke-linecap="square" stroke-miterlimit="10" d="M5 15v.5a7.5 7.5 0 0 0 7.5 7.5h0a7.5 7.5 0 0 0 7.5-7.5V8h0a4 4 0 0 0-4 4v2a4 4 0 0 0-4 4" vector-effect="non-scaling-stroke"/><circle cx="12" cy="10" r="1" stroke="currentColor" stroke-linecap="square" stroke-miterlimit="10" data-color="color-2" vector-effect="non-scaling-stroke"/><circle cx="12" cy="10" r="1" data-color="color-2" data-stroke="none"/><path stroke="currentColor" stroke-linecap="square" stroke-miterlimit="10" d="M19 5V4a3 3 0 0 0-3-3H8a3 3 0 0 0-3 3v1" vector-effect="non-scaling-stroke"/></g></svg>
