<svg id="nc_icon" xmlns="http://www.w3.org/2000/svg" viewBox="0 0 24 24"><g fill="none" class="nc-icon-wrapper"><path d="M8.414 8.414A2.559 2.559 0 0 0 9.34 9h5.32a2.559 2.559 0 0 0 .926-.586 26.147 26.147 0 0 0 3.242-5.242A30.227 30.227 0 0 0 14 6.049V6c0-2-2-6-2-6s-2 4-2 6c0 .017.005.033.005.049a30.227 30.227 0 0 0-4.833-2.877 26.147 26.147 0 0 0 3.242 5.242Z" data-cap="butt" data-color="color-2" data-stroke="none"/><rect width="12" height="14" x="6" y="9" stroke="currentColor" stroke-linecap="square" stroke-miterlimit="10" rx="4" ry="4" vector-effect="non-scaling-stroke"/></g></svg>
