<svg id="nc_icon" xmlns="http://www.w3.org/2000/svg" xml:space="preserve" viewBox="0 0 24 24"><g fill="none" class="nc-icon-wrapper"><path stroke="currentColor" stroke-miterlimit="10" d="M13.6 6.157 6.479 1.41a2 2 0 0 0-2.524.25L1.579 4.036l8.485 5.657M17.843 10.4l4.747 7.121a2 2 0 0 1-.25 2.524l-2.376 2.376-5.657-8.485" data-cap="butt" data-color="color-2" vector-effect="non-scaling-stroke"/><path d="m5.401 15.341-4.322-.338c-.926-.071-1.44 1.048-.784 1.704L2.9 19.293l2.501-3.952zM8.659 18.599l.338 4.322c.071.926-1.048 1.44-1.704.784L4.707 21.1l3.952-2.501z" data-stroke="none"/><path stroke="currentColor" stroke-linecap="square" stroke-miterlimit="10" d="m11.343 16.899-7.822 4.952c-.893.536-1.908-.479-1.372-1.372l4.952-7.822 9.778-9.778a3 3 0 0 1 4.243 0h0a3 3 0 0 1 0 4.243l-9.779 9.777z" vector-effect="non-scaling-stroke"/></g></svg>
