<svg id="nc_icon" xmlns="http://www.w3.org/2000/svg" viewBox="0 0 24 24"><g fill="none" stroke="currentColor" stroke-miterlimit="10" class="nc-icon-wrapper"><path d="m7.516 13.656-2.637 2.637a2.5 2.5 0 0 0-3.146 3.854c.4.4.902.627 1.422.699.072.52.299 1.022.699 1.422a2.501 2.501 0 0 0 3.854-3.146l2.637-2.637" data-cap="butt" data-color="color-2" vector-effect="non-scaling-stroke"/><path d="m22.668 9.009-4.243 4.243c-2.121 2.121-5.686 1.443-7.778 3.535l-3.536-3.536s.884.884 0 0c2.092-2.092 1.414-5.657 3.535-7.778l4.243-4.243" data-cap="butt" vector-effect="non-scaling-stroke"/><path stroke-linecap="square" d="M17.722 6.891c2.345 2.345 4.165 2.898 4.946 2.117.781-.781.228-2.6-2.117-4.946S15.671.448 14.89 1.23c-.781.782.487 3.316 2.832 5.661z" vector-effect="non-scaling-stroke"/></g></svg>
