<svg id="nc_icon" xmlns="http://www.w3.org/2000/svg" xml:space="preserve" viewBox="0 0 24 24"><g fill="none" stroke="currentColor" stroke-linecap="square" stroke-miterlimit="10" class="nc-icon-wrapper"><path d="M21 17c0-1.1.9-2 2-2v-5c-1.1 0-2-.9-2-2s.9-2 2-2V5c0-2.2-1.8-4-4-4H5C2.8 1 1 2.8 1 5v1c1.1 0 2 .9 2 2s-.9 2-2 2v5c1.1 0 2 .9 2 2s-.9 2-2 2c0 2.2 1.8 4 4 4h14c2.2 0 4-1.8 4-4-1.1 0-2-.9-2-2z" vector-effect="non-scaling-stroke"/><path d="M6 6h4v4H6zM14 6h4v4h-4zM6 14h4v4H6zM14 14h4v4h-4z" data-color="color-2" vector-effect="non-scaling-stroke"/></g></svg>
