<svg id="nc_icon" xmlns="http://www.w3.org/2000/svg" xml:space="preserve" viewBox="0 0 24 24"><g fill="none" stroke="currentColor" stroke-miterlimit="10" class="nc-icon-wrapper"><path d="M4.042 13.117C4.479 8.555 8.323 5 13 5a9 9 0 0 1 2.901.478" data-cap="butt" data-color="color-2" vector-effect="non-scaling-stroke"/><path stroke-linecap="square" d="M19 4h0c2.2 0 4 1.8 4 4h0c0 2.2-1.8 4-4 4h0c-2.2 0-4-1.8-4-4h0c0-2.2 1.8-4 4-4zM5 13h0c2.2 0 4 1.8 4 4h0c0 2.2-1.8 4-4 4h0c-2.2 0-4-1.8-4-4h0c0-2.2 1.8-4 4-4z" vector-effect="non-scaling-stroke"/></g></svg>
