<svg id="nc_icon" xmlns="http://www.w3.org/2000/svg" xml:space="preserve" viewBox="0 0 24 24"><g fill="none" stroke="currentColor" stroke-linecap="square" stroke-miterlimit="10" class="nc-icon-wrapper"><circle cx="12" cy="12" r="3" data-color="color-2" vector-effect="non-scaling-stroke"/><path d="m19.975 11.512 3.104-1.009-1.236-3.804-3.101 1.008A7.993 7.993 0 0 0 14 4.262V1h-4v3.262a8.001 8.001 0 0 0-4.743 3.444L2.156 6.699.92 10.503l3.104 1.009a7.91 7.91 0 0 0 1.804 5.58l-1.913 2.632 3.236 2.351 1.916-2.637a7.928 7.928 0 0 0 5.864 0l1.916 2.637 3.236-2.351-1.913-2.632a7.9 7.9 0 0 0 1.805-5.58z" vector-effect="non-scaling-stroke"/></g></svg>
