<svg id="nc_icon" xmlns="http://www.w3.org/2000/svg" xml:space="preserve" viewBox="0 0 24 24"><g fill="none" stroke="currentColor" stroke-linecap="square" stroke-miterlimit="10" class="nc-icon-wrapper"><path d="M23 12a2 2 0 0 0-2-2h-1.262a7.968 7.968 0 0 0-.852-2.058l.892-.892a2 2 0 1 0-2.828-2.828l-.892.892A7.968 7.968 0 0 0 14 4.262V3a2 2 0 0 0-4 0v1.262a7.968 7.968 0 0 0-2.058.852l-.892-.892A2 2 0 1 0 4.222 7.05l.892.892A7.968 7.968 0 0 0 4.262 10H3a2 2 0 0 0 0 4h1.262c.189.732.477 1.422.852 2.058l-.892.892a2 2 0 1 0 2.828 2.828l.892-.892a7.953 7.953 0 0 0 2.058.852V21a2 2 0 0 0 4 0v-1.262a7.968 7.968 0 0 0 2.058-.852l.892.892a2 2 0 1 0 2.828-2.828l-.892-.892A7.953 7.953 0 0 0 19.738 14H21a2 2 0 0 0 2-2z" vector-effect="non-scaling-stroke"/><circle cx="12" cy="12" r="3" data-color="color-2" vector-effect="non-scaling-stroke"/></g></svg>
