<svg id="nc_icon" xmlns="http://www.w3.org/2000/svg" xml:space="preserve" viewBox="0 0 24 24"><g fill="none" stroke="currentColor" stroke-miterlimit="10" class="nc-icon-wrapper"><path d="m5.636 9.879 4.243-4.243M18.364 14.121l-4.243 4.243M12.707 2.808a6 6 0 1 1 8.485 8.485M2.808 12.707a6 6 0 1 0 8.485 8.485" data-cap="butt" data-color="color-2" vector-effect="non-scaling-stroke"/><path stroke-linecap="square" d="m12.707 5.636 5.657 5.657M11.293 7.05 9.172 4.93 12 2.1l2.121 2.121zM19.071 14.828l-2.121-2.121 2.828-2.829L21.9 12zM5.636 12.707l5.657 5.657M4.222 14.122 2.1 12 4.93 9.172l2.121 2.121zM12 21.899l-2.121-2.121 2.828-2.829 2.121 2.121z" vector-effect="non-scaling-stroke"/></g></svg>
