<svg id="nc_icon" xmlns="http://www.w3.org/2000/svg" xml:space="preserve" viewBox="0 0 24 24"><g fill="none" stroke="currentColor" stroke-linecap="square" stroke-miterlimit="10" class="nc-icon-wrapper"><path d="M16 17c0 1.1-.9 2-2 2s-2-.9-2-2c0 1.1-.9 2-2 2s-2-.9-2-2" data-color="color-2" vector-effect="non-scaling-stroke"/><circle cx="12" cy="13" r="1" data-color="color-2" vector-effect="non-scaling-stroke"/><path d="M18 9c0-1.1-.9-2-2-2s-2 .9-2 2M12 17v-3" data-color="color-2" vector-effect="non-scaling-stroke"/><path d="M18 9c0-1.1-.9-2-2-2s-2 .9-2 2M10 9c0-1.1-.9-2-2-2s-2 .9-2 2" data-color="color-2" vector-effect="non-scaling-stroke"/><path d="M22 11c0-5.5-4.5-10-10-10S2 5.5 2 11v12h20V11z" vector-effect="non-scaling-stroke"/></g></svg>
