<svg id="nc_icon" xmlns="http://www.w3.org/2000/svg" xml:space="preserve" viewBox="0 0 24 24"><g fill="none" stroke="currentColor" stroke-miterlimit="10" class="nc-icon-wrapper"><path stroke-linecap="square" d="M12 3v9" data-color="color-2" vector-effect="non-scaling-stroke"/><path d="M4 10a5.993 5.993 0 0 1 4.92 2.572M1 14.68a6.973 6.973 0 0 1 3-.674c.867 0 1.703.159 2.469.447M3 22.006a5 5 0 0 1 3.317-4.714M20 10a5.993 5.993 0 0 0-4.92 2.572M23 14.68a6.973 6.973 0 0 0-3-.674c-.867 0-1.703.159-2.469.447M21 22.006a5 5 0 0 0-3.317-4.714" data-cap="butt" vector-effect="non-scaling-stroke"/><ellipse cx="12" cy="16.006" stroke-linecap="square" rx="6" ry="4" vector-effect="non-scaling-stroke"/></g></svg>
