<svg id="nc_icon" xmlns="http://www.w3.org/2000/svg" viewBox="0 0 24 24"><g fill="none" class="nc-icon-wrapper"><path stroke="currentColor" stroke-linecap="square" stroke-miterlimit="10" d="M8 11v1M10 16v1M12 12v1M16 11v1M14 16v1" data-color="color-2" vector-effect="non-scaling-stroke"/><path stroke="currentColor" stroke-linecap="square" stroke-miterlimit="10" d="M12 23c-3.355 0-6.397-5.315-8.427-10.001C2.14 9.692 4.554 6 8.158 6h7.685c3.604 0 6.018 3.692 4.585 6.999C18.397 17.685 15.355 23 12 23z" vector-effect="non-scaling-stroke"/><path d="M14.677 4.624C13.787 2.591 12 0 12 0s-1.787 2.591-2.677 4.624C8.377 3.933 5 2.515 5 2.515S5.729 4.771 7 6h10c1.271-1.229 2-3.485 2-3.485s-3.377 1.418-4.323 2.109z" data-stroke="none"/></g></svg>
