<svg id="nc_icon" xmlns="http://www.w3.org/2000/svg" xml:space="preserve" viewBox="0 0 24 24"><g fill="none" stroke="currentColor" stroke-miterlimit="10" class="nc-icon-wrapper"><path d="M6.7 14.8C6.3 14 6 13 6 12c0-3.3 2.7-6 6-6s6 2.7 6 6c0 1.4-.5 2.7-1.3 3.7" data-cap="butt" data-color="color-2" vector-effect="non-scaling-stroke"/><path stroke-linecap="square" d="M1 12h1M4.2 4.2l.7.7M12 1v1M19.8 4.2l-.7.7M23 12h-1" data-color="color-2" vector-effect="non-scaling-stroke"/><path stroke-linecap="square" d="M5 23c-2.2 0-4-1.8-4-4s1.8-4 4-4c.5 0 1 .1 1.5.3.9-1.9 2.8-3.3 5-3.3 2.4 0 4.5 1.6 5.2 3.7.7-.5 1.4-.7 2.3-.7 2.2 0 4 1.8 4 4s-1.8 4-4 4H5z" vector-effect="non-scaling-stroke"/></g></svg>
