<svg id="nc_icon" xmlns="http://www.w3.org/2000/svg" xml:space="preserve" viewBox="0 0 24 24"><g fill="none" stroke="currentColor" stroke-linecap="square" stroke-miterlimit="10" class="nc-icon-wrapper"><path d="M22 5c0-1.6-1.3-3-3-3-.8 0-2.6.5-4.1 1-1 .3-1.9.5-2.9.5s-1.9-.2-2.9-.5C7.6 2.5 5.8 2 5 2 3.3 2 2 3.4 2 5s1 5 1 5L2 20.1c0 1 .9 1.9 1.9 1.9.7 0 1.2-.5 1.6-.9l3.9-4.6c.7-.9 1.6-1.5 2.6-1.5s1.8.6 2.6 1.5l3.9 4.6c.4.5 1 .9 1.6.9 1.1 0 1.9-.9 1.9-1.9L21 10s1-3.4 1-5z" vector-effect="non-scaling-stroke"/><path d="M9 7.1c1 .2 2 .3 3 .3s2-.1 3-.3" data-color="color-2" vector-effect="non-scaling-stroke"/></g></svg>
