<svg id="nc_icon" xmlns="http://www.w3.org/2000/svg" xml:space="preserve" viewBox="0 0 24 24"><g fill="none" stroke="currentColor" stroke-miterlimit="10" class="nc-icon-wrapper"><path d="M1 10v7a2 2 0 0 0 2 2" data-cap="butt" vector-effect="non-scaling-stroke"/><path stroke-linecap="square" d="M10 10v3a2 2 0 0 0 2 2h2a2 2 0 0 0 2-2V2h-3" vector-effect="non-scaling-stroke"/><path d="M21.9 16.667 19 8M9 19h8" data-cap="butt" vector-effect="non-scaling-stroke"/><circle cx="6" cy="19" r="3" stroke-linecap="square" data-color="color-2" vector-effect="non-scaling-stroke"/><path stroke-linecap="square" d="M10 10H1V8a2 2 0 0 1 2-2h5a2 2 0 0 1 2 2v2z" vector-effect="non-scaling-stroke"/><circle cx="20" cy="19" r="3" stroke-linecap="square" data-color="color-2" vector-effect="non-scaling-stroke"/><path stroke-linecap="square" d="M21 8h-3a2 2 0 0 1-2-2v0a2 2 0 0 1 2-2h3v4z" vector-effect="non-scaling-stroke"/></g></svg>
