<svg id="nc_icon" xmlns="http://www.w3.org/2000/svg" xml:space="preserve" viewBox="0 0 24 24"><g fill="none" stroke="currentColor" stroke-linecap="square" stroke-miterlimit="10" class="nc-icon-wrapper"><path d="M15 22H1v-2.313c0-1.213.725-2.307 1.846-2.772C3.981 16.445 5.67 16 8 16s4.019.445 5.154.916A2.994 2.994 0 0 1 15 19.687V22z" vector-effect="non-scaling-stroke"/><circle cx="8" cy="9" r="4" vector-effect="non-scaling-stroke"/><path d="M17.001 6.355C17.623 7.06 18 7.986 18 9a3.99 3.99 0 0 1-1 2.646M20.001 2.293A8.976 8.976 0 0 1 23 9a8.978 8.978 0 0 1-2.999 6.708" data-color="color-2" vector-effect="non-scaling-stroke"/></g></svg>
