<svg id="nc_icon" xmlns="http://www.w3.org/2000/svg" xml:space="preserve" viewBox="0 0 24 24"><g fill="none" stroke="currentColor" stroke-linecap="square" stroke-miterlimit="10" class="nc-icon-wrapper"><path d="M21 12V5H3a2 2 0 0 1-2-2v17a3 3 0 0 0 3 3h17v-7" vector-effect="non-scaling-stroke"/><path d="M17 2V1H3a2 2 0 0 0-2 2h0a2 2 0 0 0 2 2" vector-effect="non-scaling-stroke"/><path d="M23 16h-5a2 2 0 0 1-2-2h0a2 2 0 0 1 2-2h5v4z" data-color="color-2" vector-effect="non-scaling-stroke"/></g></svg>
