<svg id="nc_icon" xmlns="http://www.w3.org/2000/svg" xml:space="preserve" viewBox="0 0 24 24"><g fill="none" stroke="currentColor" stroke-linecap="square" stroke-miterlimit="10" class="nc-icon-wrapper"><path d="M10 9.5C10 5.4 12 2 12 2s2 3.4 2 7.5-2 7.5-2 7.5-2-3.4-2-7.5z" vector-effect="non-scaling-stroke"/><path d="M17.4 13.5c1.9-2 4.6-2.5 4.6-2.5s-.5 2.6-2.4 4.5S15 18 15 18s.5-2.6 2.4-4.5z" data-color="color-2" vector-effect="non-scaling-stroke"/><path d="M18.5 20c2.1 0 3.8 1.5 3.8 1.5S20.6 23 18.5 23s-3.8-1.5-3.8-1.5 1.7-1.5 3.8-1.5z" vector-effect="non-scaling-stroke"/><path d="M6.6 13.5C4.7 11.5 2 11 2 11s.5 2.6 2.4 4.5S9 18 9 18s-.5-2.6-2.4-4.5z" data-color="color-2" vector-effect="non-scaling-stroke"/><path d="M5.5 20c-2.1 0-3.8 1.5-3.8 1.5S3.4 23 5.5 23s3.8-1.5 3.8-1.5S7.6 20 5.5 20z" vector-effect="non-scaling-stroke"/></g></svg>
