<svg id="nc_icon" xmlns="http://www.w3.org/2000/svg" xml:space="preserve" viewBox="0 0 24 24"><g fill="none" stroke="currentColor" stroke-linecap="square" stroke-miterlimit="10" class="nc-icon-wrapper"><path d="M12 17a2 2 0 1 1 1-3.733M17.657 9.343A7.975 7.975 0 0 0 12 7a7.975 7.975 0 0 0-5.657 2.343M21.899 5.101A13.952 13.952 0 0 0 12 1a13.952 13.952 0 0 0-9.899 4.101" vector-effect="non-scaling-stroke"/><path d="M15 18h8v5h-8zM17 18v-3c0-1.1.9-2 2-2h0c1.1 0 2 .9 2 2v3" data-color="color-2" vector-effect="non-scaling-stroke"/></g></svg>
