<svg id="nc_icon" xmlns="http://www.w3.org/2000/svg" xml:space="preserve" viewBox="0 0 24 24"><g fill="none" stroke="currentColor" stroke-linecap="square" stroke-miterlimit="10" class="nc-icon-wrapper"><circle cx="9" cy="9" r="1" data-color="color-2" vector-effect="non-scaling-stroke"/><circle cx="15" cy="9" r="1" data-color="color-2" vector-effect="non-scaling-stroke"/><path d="M16 17H8v0a4 4 0 0 1 4-4h0a4 4 0 0 1 4 4v0zM14 17v2" data-color="color-2" vector-effect="non-scaling-stroke"/><path d="M18 5a4 4 0 0 1-4-4h-4a7 7 0 0 0-7 7v6a9 9 0 1 0 18 0V8a3 3 0 0 1-3-3z" vector-effect="non-scaling-stroke"/></g></svg>
