<svg aria-hidden="true" style="position: absolute; width: 0; height: 0; overflow: hidden;" version="1.1" xmlns="http://www.w3.org/2000/svg" xmlns:xlink="http://www.w3.org/1999/xlink">
<defs>
<symbol id="icon-add" viewBox="0 0 32 32">
<title>add</title>
<path d="M16 0c-8.8 0-16 7.2-16 16s7.2 16 16 16c8.8 0 16-7.2 16-16s-7.2-16-16-16zM24 18h-6v6h-4v-6h-6v-4h6v-6h4v6h6v4z"></path>
</symbol>
<symbol id="icon-Menus" viewBox="0 0 34 32">
<title>Menus</title>
<path fill="currentColor" d="M0 0h34.133v6.4h-34.133v-6.4zM0 12.8h34.133v6.4h-34.133v-6.4zM0 25.6h34.133v6.4h-34.133v-6.4z"></path>
</symbol>
<symbol id="icon-Check" viewBox="0 0 32 32">
<title>Check</title>
<path d="M12.16 12.373l2.773 2.773 13.44-13.44c0.853-0.853 2.133-0.853 2.987 0s0.853 2.133 0 2.987l-14.933 14.933c-0.427 0.427-0.853 0.64-1.493 0.64s-1.067-0.213-1.493-0.64l-4.267-4.267c-0.853-0.853-0.853-2.133 0-2.987s2.133-0.853 2.987 0zM14.933 30.933c-8.32 0-14.933-6.613-14.933-14.933s6.613-14.933 14.933-14.933c1.707 0 3.413 0.213 5.12 0.853 1.067 0.427 1.707 1.707 1.28 2.773s-1.707 1.707-2.773 1.28c-1.28-0.427-2.347-0.64-3.627-0.64-5.973 0-10.667 4.693-10.667 10.667s4.693 10.667 10.667 10.667c5.973 0 10.667-4.693 10.667-10.667 0-1.28 0.853-2.133 2.133-2.133s2.133 0.853 2.133 2.133c0 8.32-6.613 14.933-14.933 14.933z"></path>
</symbol>
<symbol id="icon-Code-Injection" viewBox="0 0 32 32">
<title>Code-Injection</title>
<path fill="currentColor" d="M25.4 22.525l-2.8-2.8 4.6-4.6-4.6-4.6 2.8-2.8 6 6c0.8 0.8 0.8 2 0 2.8l-6 6zM6.6 22.525l-6-6c-0.8-0.8-0.8-2 0-2.8l6-6 2.8 2.8-4.6 4.6 4.6 4.6-2.8 2.8zM12 29.125c-0.2 0-0.4 0-0.6-0.2-1-0.4-1.6-1.4-1.2-2.6l8-24c0.4-1 1.4-1.6 2.6-1.2 1 0.4 1.6 1.4 1.2 2.6l-8 24c-0.4 0.8-1.2 1.4-2 1.4z"></path>
</symbol>
<symbol id="icon-CSS" viewBox="0 0 28 32">
<title>CSS</title>
<path fill="currentColor" d="M27.473 0.646c-0.38-0.412-0.912-0.646-1.472-0.646h-24c-0.56 0-1.092 0.234-1.472 0.646-0.378 0.412-0.568 0.962-0.522 1.52l2 24c0.062 0.756 0.546 1.41 1.25 1.692l10 4c0.24 0.096 0.492 0.142 0.744 0.142s0.504-0.046 0.744-0.142l10-4c0.704-0.282 1.188-0.936 1.25-1.692l2-24c0.046-0.558-0.144-1.108-0.522-1.52zM22.001 9.442l-7.676 2.558h7.676v11.442l-8 2.666-8-2.666v-5.442h4v2.558l4 1.334 4-1.334v-4.558h-12v-5.442l7.676-2.558h-7.676v-4h16v5.442z"></path>
</symbol>
<symbol id="icon-Edit-Page" viewBox="0 0 32 32">
<title>Edit-Page</title>
<path fill="currentColor" d="M22 32h-4v-4.267l10-10.667 4 4.267-10 10.667zM4 12.8h28v-10.667c0-1.178-0.894-2.133-2-2.133h-28c-1.106 0-2 0.956-2 2.133v21.333c0 1.178 0.894 2.133 2 2.133h12v-4.267h-10v-8.533zM4 4.267h24v4.267h-24v-4.267z"></path>
</symbol>
<symbol id="icon-Gear" viewBox="0 0 32 32">
<title>Gear</title>
<path fill="currentColor" d="M26.6 10.4l2.2-4.2-2.8-2.8-4.2 2.2c-0.6-0.4-1.4-0.6-2.2-0.8l-1.6-4.8h-4l-1.6 4.6c-0.6 0.2-1.4 0.4-2 0.8l-4.2-2.2-3 3 2.2 4.2c-0.4 0.6-0.6 1.4-0.8 2l-4.6 1.6v4l4.6 1.6c0.2 0.8 0.6 1.4 0.8 2.2l-2.2 4.2 2.8 2.8 4.2-2.2c0.6 0.4 1.4 0.6 2.2 0.8l1.6 4.6h4l1.6-4.6c0.8-0.2 1.4-0.6 2.2-0.8l4.2 2.2 2.8-2.8-2.2-4.2c0.4-0.6 0.6-1.4 0.8-2.2l4.6-1.6v-4l-4.6-1.6c-0.2-0.6-0.4-1.4-0.8-2zM16 22c-3.4 0-6-2.6-6-6s2.6-6 6-6c3.4 0 6 2.6 6 6s-2.6 6-6 6z"></path>
</symbol>
<symbol id="icon-General-Settings" viewBox="0 0 32 32">
<title>General-Settings</title>
<path fill="currentColor" d="M22 20v10c0 1.2 0.8 2 2 2s2-0.8 2-2v-10c0-1.2-0.8-2-2-2s-2 0.8-2 2zM32 12v-6c0-1.2-0.8-2-2-2h-4v-2c0-1.2-0.8-2-2-2s-2 0.8-2 2v2h-4c-1.2 0-2 0.8-2 2v6c0 1.2 0.8 2 2 2h12c1.2 0 2-0.8 2-2zM8 0c-1.2 0-2 0.8-2 2v10c0 1.2 0.8 2 2 2s2-0.8 2-2v-10c0-1.2-0.8-2-2-2zM2 28h4v2c0 1.2 0.8 2 2 2s2-0.8 2-2v-2h4c1.2 0 2-0.8 2-2v-6c0-1.2-0.8-2-2-2h-12c-1.2 0-2 0.8-2 2v6c0 1.2 0.8 2 2 2z"></path>
</symbol>
<symbol id="icon-Info" viewBox="0 0 32 32">
<title>Info</title>
<path fill="currentColor" d="M16 0c-8.8 0-16 7.2-16 16s7.2 16 16 16c8.8 0 16-7.2 16-16s-7.2-16-16-16zM16 28c-6.6 0-12-5.4-12-12s5.4-12 12-12c6.6 0 12 5.4 12 12s-5.4 12-12 12zM14 14h4v10h-4v-10zM16 12c1.105 0 2-0.895 2-2s-0.895-2-2-2c-1.105 0-2 0.895-2 2s0.895 2 2 2z"></path>
</symbol>
<symbol id="icon-Pages" viewBox="0 0 32 32">
<title>Pages</title>
<path fill="currentColor" d="M19.067 8c1.2 0 2 0.8 2 2v20c0 1.2-0.8 2-2 2h-16c-1.2 0-2-0.8-2-2v-20c0-1.2 0.8-2 2-2h16zM27.067 0c1.2 0 2 0.8 2 2v24h-4v-22h-18v-4h20z"></path>
</symbol>
<symbol id="icon-search" viewBox="0 0 32 32">
<title>search</title>
<path d="M14 28c-7.72 0-14-6.28-14-14s6.28-14 14-14c7.72 0 14 6.28 14 14s-6.28 14-14 14zM14 4c-5.514 0-10 4.486-10 10s4.486 10 10 10c5.514 0 10-4.486 10-10s-4.486-10-10-10zM31.414 28.586c0.782 0.782 0.782 2.046 0 2.828-0.39 0.39-0.902 0.586-1.414 0.586s-1.024-0.196-1.414-0.586l-4.786-4.786c1.058-0.822 2.006-1.77 2.828-2.828l4.786 4.786z"></path>
</symbol>
<symbol id="icon-Social" viewBox="0 0 28 32">
<title>Social</title>
<path fill="currentColor" d="M22 12c3.308 0 6-2.692 6-6s-2.692-6-6-6c-3.308 0-6 2.692-6 6 0 0.446 0.058 0.878 0.15 1.298l-6.44 4.024c-1.024-0.814-2.302-1.322-3.71-1.322-3.308 0-6 2.692-6 6s2.692 6 6 6c1.408 0 2.686-0.508 3.71-1.322l6.44 4.024c-0.092 0.42-0.15 0.852-0.15 1.298 0 3.308 2.692 6 6 6s6-2.692 6-6c0-3.308-2.692-6-6-6-1.408 0-2.686 0.508-3.71 1.322l-6.44-4.024c0.092-0.42 0.15-0.852 0.15-1.298s-0.058-0.878-0.15-1.298l6.44-4.024c1.024 0.814 2.302 1.322 3.71 1.322z"></path>
</symbol>
<symbol id="icon-Trash" viewBox="0 0 32 32">
<title>Trash</title>
<path fill="currentColor" d="M4 12h24v16c0 2.2-1.8 4-4 4h-16c-2.2 0-4-1.8-4-4v-16zM24 6h8v4h-32v-4h8v-4c0-1.2 0.8-2 2-2h12c1.2 0 2 0.8 2 2v4zM20 6v-2h-8v2h8z"></path>
</symbol>
</defs>
</svg>
