<?xml version="1.0" encoding="UTF-8"?>
<svg width="1007px" height="225px" viewBox="0 0 1007 225" version="1.1" xmlns="http://www.w3.org/2000/svg" xmlns:xlink="http://www.w3.org/1999/xlink">
    <!-- Generator: Sketch 63.1 (92452) - https://sketch.com -->
    <title>Group</title>
    <desc>Created with Sketch.</desc>
    <g id="Page-1" stroke="none" stroke-width="1" fill="none" fill-rule="evenodd">
        <g id="Group">
            <path d="M348.50702,190.508433 L296.00702,133.508433 L341.30702,91.8084333 C346.10702,87.6084333 348.50702,83.1084333 348.50702,78.3084333 C348.50702,74.5084333 346.75702,70.7584333 343.25702,67.0584333 C339.75702,63.3584333 335.80702,61.5084333 331.40702,61.5084333 C326.409278,61.5069791 321.632799,63.5695496 318.20702,67.2084333 L254.00702,129.308433 L254.00702,18.3084333 C254.139288,13.4481697 252.299748,8.74111239 248.90702,5.25843332 C241.731347,-1.74133983 230.282694,-1.74133983 223.10702,5.25843332 C219.712627,8.74003876 217.8728,13.4478294 218.00702,18.3084333 L218.00702,203.708433 C217.871189,208.569318 219.711252,213.277714 223.10702,216.758433 C230.282694,223.758206 241.731347,223.758206 248.90702,216.758433 C252.300826,213.276449 254.140551,208.568917 254.00702,203.708433 L254.00702,172.208433 L268.70702,158.708433 L322.70702,215.708433 C325.997195,219.570072 330.834164,221.768694 335.90702,221.708433 C340.30702,221.708433 344.45702,220.008433 348.35702,216.608433 C352.116839,213.512861 354.268628,208.878239 354.208308,204.008433 C354.172998,198.930492 352.122555,194.07418 348.50702,190.508433 L348.50702,190.508433 Z M451.10702,58.5084333 C441.527703,58.4571368 432.071465,60.6670186 423.50702,64.9584333 C415.14398,69.0352568 408.233036,75.5797119 403.70702,83.7084333 L403.70702,79.8084333 C403.839288,74.9481697 401.999748,70.2411124 398.60702,66.7584333 C391.431778,59.7576013 379.982263,59.7576013 372.80702,66.7584333 C369.412332,70.239849 367.572455,74.9477693 367.70702,79.8084333 L367.70702,203.708433 C367.570729,208.569398 369.410859,213.277968 372.80702,216.758433 C379.982263,223.759265 391.431778,223.759265 398.60702,216.758433 C402.001218,213.276701 403.84101,208.568997 403.70702,203.708433 L403.70702,132.608433 C403.70702,123.608433 405.25702,115.858433 408.35702,109.358433 C411.45702,102.858433 415.40702,98.0084333 420.20702,94.8084333 C424.609996,91.7352807 429.83789,90.0623547 435.20702,90.0084333 C437.48797,89.9923746 439.759963,90.295307 441.95702,90.9084333 C444.05702,91.5084333 445.40802,91.9084333 446.00702,92.1084333 C449.257884,93.4000973 452.710308,94.1108905 456.20702,94.2084333 C460.479015,94.2613527 464.590797,92.5841785 467.60702,89.5584333 C470.80702,86.4597666 472.40702,81.8097666 472.40702,75.6084333 C472.40702,71.0084333 470.356687,67.0084333 466.25602,63.6084333 C461.980255,60.1480325 456.60398,58.3381973 451.10602,58.5084333 L451.10602,58.5084333 L451.10702,58.5084333 Z M634.10702,141.908433 C634.10702,125.908433 630.50702,111.558433 623.30702,98.8584333 C616.374683,86.4301178 606.150076,76.1536096 593.75702,69.1584333 C568.036849,54.9581828 536.827192,54.9581828 511.10702,69.1584333 C498.777872,76.1867888 488.609848,86.4585686 481.70702,98.8584333 C474.50702,111.561767 470.90702,125.911767 470.90702,141.908433 C470.90702,157.9051 474.50702,172.2551 481.70702,184.958433 C488.584584,197.338603 498.762011,207.567955 511.10702,214.508433 C536.878403,228.508561 567.985637,228.508561 593.75702,214.508433 C606.165579,207.601038 616.399625,197.366992 623.30702,184.958433 C630.50702,172.260433 634.10702,157.910433 634.10702,141.908433 L634.10702,141.908433 L634.10702,141.908433 Z M598.10702,141.908433 C598.278677,150.986562 596.163775,159.962 591.95702,168.008433 C588.155479,175.289601 582.453835,181.40591 575.45702,185.708433 C561.309949,194.108387 543.704092,194.108387 529.55702,185.708433 C522.558995,181.407389 516.857002,175.290705 513.05702,168.008433 C508.847954,159.962861 506.732911,150.986823 506.90702,141.908433 C506.746271,132.783587 508.859835,123.762278 513.05702,115.658433 C516.826105,108.314936 522.531976,102.14222 529.55702,97.8084333 C543.704092,89.4084799 561.309949,89.4084799 575.45702,97.8084333 C582.480891,102.143646 588.186423,108.315994 591.95702,115.658433 C596.151906,123.763128 598.265332,132.783847 598.10702,141.908433 L598.10702,141.908433 Z M830.90702,61.5084333 C827.010467,61.3761054 823.157845,62.3652922 819.80702,64.3584333 C816.739902,66.3503953 814.501005,69.388899 813.50702,72.9084333 L781.40702,159.308433 L758.30702,96.6084333 C757.095837,93.3603024 755.083556,90.4708729 752.45702,88.2084333 C750.155687,86.4084333 746.905687,85.5084333 742.70702,85.5084333 C734.90702,85.5084333 729.40702,89.2084333 726.20702,96.6084333 L702.50702,160.808433 L670.10702,72.9084333 C669.130846,69.4216835 666.952239,66.3928878 663.95702,64.3584333 C660.865111,62.4050492 657.263048,61.4131769 653.60702,61.5084333 C648.647182,61.3205885 643.862196,63.3555825 640.55702,67.0584333 C637.309869,70.6221174 635.540161,75.2877111 635.605193,80.1084333 C635.598067,82.4611113 636.004294,84.796917 636.80702,87.0084333 L682.70702,210.608433 C683.828151,214.105895 686.101906,217.119943 689.15702,219.158433 C692.106097,221.211408 695.613727,222.310814 699.20702,222.308437 L701.60702,222.008433 C708.40702,221.608433 713.50702,217.808433 716.90702,210.608433 L741.20702,136.808433 L766.70702,210.608433 C770.10702,217.808433 775.20702,221.608433 782.00702,222.008433 L784.40702,222.308437 C788.000225,222.310236 791.507686,221.210883 794.45702,219.158433 C797.511036,217.118778 799.784469,214.105158 800.90702,210.608433 L846.79902,87.0084333 C847.504166,84.7720513 847.907727,82.4515723 847.99902,80.1084333 C848.175497,75.1795571 846.39618,70.3807928 843.04902,66.7584333 C839.941954,63.3433131 835.515388,61.4305996 830.89902,61.5084333 L830.89902,61.5084333 L830.90702,61.5084333 Z M988.39602,0.0084333153 C983.548773,-0.135120097 978.865487,1.7708682 975.49602,5.25843332 C972.101627,8.74003876 970.2618,13.4478294 970.39602,18.3084333 L970.39602,77.1084333 C964.146928,71.4264943 956.93381,66.9055965 949.09602,63.7584333 C940.535289,60.2283711 931.355785,58.4434677 922.09602,58.5084333 C909.069941,58.4014077 896.296479,62.103105 885.34602,69.1584333 C874.24602,76.2597666 865.49602,86.1597666 859.09602,98.8584333 C852.69602,111.5571 849.49602,125.9071 849.49602,141.908433 C849.49602,157.908433 852.74602,172.208433 859.24602,184.808433 C865.262527,196.87706 874.437863,207.089157 885.79602,214.358433 C897.002355,221.461817 910.028895,225.161354 923.29602,225.008433 C932.597467,225.028892 941.78081,222.925445 950.14602,218.858433 C958.645354,214.761767 965.395354,209.811767 970.39602,204.008433 C970.434461,208.821089 972.312884,213.436642 975.64602,216.908433 C978.987731,220.328757 983.617317,222.180591 988.39602,222.008433 C993.243336,222.152362 997.926767,220.246314 1001.29602,216.758433 C1004.69061,213.276954 1006.53047,208.569077 1006.39602,203.708433 L1006.39602,18.3084333 C1006.39602,12.9084333 1004.69602,8.50843332 1001.29602,5.10843332 C997.882132,1.70403372 993.214962,-0.141126252 988.39602,0.0084333153 L988.39602,0.0084333153 L988.39602,0.0084333153 Z M927.79602,192.008433 C914.79602,192.008433 904.24602,187.258433 896.14602,177.758433 C888.04602,168.258433 883.99602,156.308433 883.99602,141.908433 C883.99602,127.508433 888.09602,115.508433 896.29602,105.908433 C904.49602,96.3084333 914.99602,91.5084333 927.79602,91.5084333 C940.79602,91.5084333 951.39602,96.3084333 959.59602,105.908433 C967.79602,115.508433 971.89602,127.508433 971.89602,141.908433 C971.89602,156.308433 967.79602,168.258433 959.59602,177.758433 C951.39602,187.258433 940.79602,192.008433 927.79602,192.008433 L927.79602,192.008433 Z" id="krowd" fill="#FFFFFF"></path>
            <rect id="Rectangle" fill="#674DF0" x="0" y="52" width="173" height="173"></rect>
            <rect id="Rectangle-Copy" fill="#29F0B4" x="106" y="52" width="67" height="67"></rect>
        </g>
    </g>
</svg>