<svg width="872" height="159" viewBox="0 0 872 159" fill="none" xmlns="http://www.w3.org/2000/svg">
<path d="M443.939 152.765C442.332 150.948 441.098 148.833 440.31 146.54C439.521 144.247 439.192 141.821 439.341 139.401C439.491 136.981 440.117 134.614 441.182 132.436C442.247 130.257 443.732 128.31 445.551 126.705C472.955 102.524 499.867 86.5878 525.889 71.1786C556.255 53.2003 584.935 36.2152 614.445 6.7428C643.955 -22.7295 660.965 -51.3702 678.968 -81.6947C697.347 -112.646 716.351 -144.652 749.147 -177.405C781.943 -210.157 813.995 -229.134 844.989 -247.488C875.353 -265.47 904.033 -282.452 933.543 -311.922C963.054 -341.393 980.058 -370.034 998.063 -400.358C1013.96 -427.139 1030.41 -454.832 1055.87 -483.054C1059.16 -486.654 1063.74 -488.808 1068.61 -489.047C1073.49 -489.285 1078.26 -487.588 1081.88 -484.326C1085.51 -481.064 1087.7 -476.501 1087.97 -471.633C1088.24 -466.765 1086.58 -461.987 1083.34 -458.34C1060.34 -432.842 1045.54 -407.916 1029.87 -381.528C1011.49 -350.576 992.485 -318.569 959.689 -285.816C926.893 -253.064 894.841 -234.084 863.846 -215.73C833.483 -197.749 804.803 -180.767 775.292 -151.3C745.781 -121.832 728.779 -93.1873 710.775 -62.866C692.393 -31.9121 673.392 0.0946045 640.589 32.8486C607.787 65.6028 575.743 84.583 544.748 102.936C519.07 118.139 494.818 132.504 470.035 154.373C466.36 157.615 461.546 159.267 456.652 158.965C451.759 158.663 447.185 156.431 443.937 152.761L443.939 152.765ZM355.491 152.413C353.568 150.934 351.956 149.09 350.747 146.988C349.537 144.886 348.754 142.566 348.443 140.161C348.131 137.757 348.296 135.315 348.93 132.974C349.563 130.633 350.651 128.44 352.133 126.52C361.238 114.699 371.103 103.482 381.664 92.9406C414.462 60.1857 446.512 41.2078 477.507 22.8545C507.87 4.87463 536.549 -12.1106 566.06 -41.5782C595.572 -71.0458 612.575 -99.6882 630.578 -130.01C648.96 -160.964 667.963 -192.972 700.762 -225.726C733.562 -258.479 765.61 -277.458 796.607 -295.811C826.969 -313.791 855.647 -330.776 885.159 -360.244C914.672 -389.712 931.675 -418.356 949.679 -448.679C968.058 -479.632 987.059 -511.638 1019.86 -544.39C1031.22 -555.744 1043.37 -566.29 1056.2 -575.953C1058.14 -577.416 1060.34 -578.485 1062.69 -579.097C1065.04 -579.709 1067.49 -579.852 1069.89 -579.519C1072.29 -579.187 1074.61 -578.384 1076.7 -577.157C1078.8 -575.93 1080.63 -574.303 1082.09 -572.369C1083.56 -570.435 1084.62 -568.231 1085.24 -565.884C1085.85 -563.537 1085.99 -561.093 1085.66 -558.691C1085.33 -556.288 1084.52 -553.975 1083.29 -551.884C1082.06 -549.792 1080.44 -547.962 1078.5 -546.499C1067.02 -537.858 1056.17 -528.429 1046 -518.28C1016.49 -488.81 999.486 -460.168 981.483 -429.846C963.104 -398.891 944.102 -366.885 911.304 -334.133C878.506 -301.38 846.456 -282.402 815.464 -264.048C785.098 -246.068 756.419 -229.085 726.906 -199.614C697.394 -170.143 680.388 -141.499 662.385 -111.175C644.006 -80.2242 625.004 -48.2194 592.205 -15.4669C559.405 17.2856 527.358 36.2643 496.366 54.6176C465.999 72.599 437.321 89.5809 407.809 119.053C398.37 128.473 389.555 138.497 381.421 149.062C378.426 152.941 374.013 155.473 369.151 156.102C364.288 156.731 359.375 155.405 355.491 152.415V152.413ZM283.839 141.223C281.778 139.944 279.989 138.271 278.575 136.3C277.16 134.329 276.149 132.099 275.598 129.737C275.047 127.375 274.967 124.929 275.363 122.536C275.759 120.144 276.624 117.852 277.907 115.794C290.841 95.025 307.537 70.3234 333.276 44.6179C366.074 11.8646 398.124 -7.11328 429.116 -25.4673C459.483 -43.4471 488.161 -60.4308 517.672 -89.9015C547.183 -119.372 564.192 -148.016 582.197 -178.341C600.573 -209.29 619.576 -241.297 652.374 -274.049C685.172 -306.802 717.221 -325.782 748.217 -344.135C778.581 -362.115 807.259 -379.1 836.77 -408.567C866.281 -438.035 883.284 -466.679 901.287 -497.001C919.669 -527.955 938.672 -559.962 971.473 -592.715C997.521 -618.727 1022.82 -635.7 1044.13 -648.869C1046.19 -650.199 1048.5 -651.104 1050.92 -651.532C1053.33 -651.96 1055.81 -651.903 1058.21 -651.363C1060.6 -650.823 1062.87 -649.811 1064.87 -648.387C1066.87 -646.964 1068.56 -645.156 1069.85 -643.07C1071.15 -640.984 1072.01 -638.662 1072.4 -636.238C1072.78 -633.815 1072.68 -631.34 1072.09 -628.956C1071.51 -626.573 1070.46 -624.33 1069 -622.358C1067.54 -620.386 1065.7 -618.724 1063.59 -617.47C1044.08 -605.416 1020.99 -589.945 997.618 -566.606C968.109 -537.134 951.099 -508.491 933.095 -478.168C914.716 -447.218 895.713 -415.211 862.916 -382.458C830.119 -349.706 798.07 -330.727 767.077 -312.374C736.71 -294.394 708.03 -277.411 678.519 -247.94C649.009 -218.469 632.007 -189.829 614.002 -159.508C595.62 -128.552 576.62 -96.5459 543.819 -63.7926C511.019 -31.0393 478.971 -12.0598 447.977 6.29346C417.612 24.2742 388.933 41.2582 359.422 70.7257C336.333 93.786 321.131 116.306 309.304 135.296C308.021 137.356 306.345 139.144 304.371 140.556C302.397 141.969 300.165 142.979 297.8 143.53C295.436 144.08 292.986 144.159 290.591 143.763C288.195 143.368 285.901 142.504 283.84 141.222L283.839 141.223ZM598.719 126.742C597.411 124.699 596.519 122.42 596.094 120.032C595.669 117.645 595.718 115.197 596.24 112.829C596.762 110.461 597.745 108.219 599.135 106.23C600.524 104.242 602.291 102.547 604.337 101.242C627.835 86.2435 645.876 72.0021 662.836 55.0654C692.345 25.5978 709.349 -3.04382 727.352 -33.3676C745.734 -64.3198 764.735 -96.3262 797.538 -129.079C830.341 -161.833 862.386 -180.814 893.38 -199.167C923.743 -217.147 952.424 -234.131 981.934 -263.6C998.951 -280.596 1013.26 -298.692 1028.33 -322.275C1029.64 -324.32 1031.34 -326.088 1033.32 -327.479C1035.31 -328.869 1037.56 -329.854 1039.93 -330.378C1042.3 -330.902 1044.75 -330.954 1047.14 -330.532C1049.53 -330.109 1051.81 -329.22 1053.86 -327.915C1055.91 -326.611 1057.68 -324.917 1059.07 -322.929C1060.46 -320.941 1061.44 -318.699 1061.97 -316.33C1062.49 -313.961 1062.54 -311.513 1062.12 -309.125C1061.7 -306.736 1060.81 -304.454 1059.5 -302.408C1042.92 -276.479 1027.07 -256.455 1008.08 -237.487C975.28 -204.735 943.23 -185.756 912.238 -167.402C881.873 -149.422 853.193 -132.438 823.682 -102.967C794.171 -73.4967 777.163 -44.8542 759.159 -14.5314C740.78 16.4209 721.778 48.4258 688.98 81.1766C670.057 100.076 650.09 115.862 624.25 132.357C620.119 134.995 615.109 135.886 610.321 134.834C605.532 133.782 601.358 130.872 598.716 126.745L598.719 126.742ZM217.894 122.795C215.808 121.557 213.986 119.92 212.532 117.979C211.079 116.036 210.023 113.828 209.424 111.477C208.826 109.127 208.696 106.682 209.044 104.282C209.392 101.882 210.209 99.5743 211.45 97.4904L214.693 92.0312C233.075 61.0703 252.081 29.0551 284.89 -3.70386C317.698 -36.4626 349.737 -55.4351 380.73 -73.7899C411.092 -91.7714 439.775 -108.753 469.283 -138.223C498.792 -167.692 515.803 -196.337 533.807 -226.662C552.184 -257.612 571.187 -289.618 603.985 -322.37C636.783 -355.123 668.833 -374.101 699.826 -392.457C730.191 -410.435 758.871 -427.42 788.383 -456.891C817.895 -486.362 834.901 -515.004 852.905 -545.328C871.282 -576.279 890.286 -608.284 923.083 -641.037C955.881 -673.789 987.927 -692.766 1018.92 -711.119L1025.73 -715.154C1027.81 -716.395 1030.12 -717.214 1032.52 -717.563C1034.92 -717.912 1037.37 -717.785 1039.72 -717.19C1042.07 -716.594 1044.29 -715.541 1046.23 -714.091C1048.18 -712.641 1049.82 -710.823 1051.06 -708.74C1052.3 -706.656 1053.12 -704.349 1053.47 -701.949C1053.82 -699.55 1053.69 -697.105 1053.09 -694.754C1052.5 -692.404 1051.44 -690.193 1049.99 -688.25C1048.54 -686.306 1046.72 -684.667 1044.64 -683.426L1037.78 -679.358C1007.42 -661.378 978.737 -644.396 949.227 -614.929C919.717 -585.461 902.716 -556.818 884.712 -526.496C866.33 -495.543 847.328 -463.534 814.526 -430.782C781.725 -398.029 749.68 -379.047 718.684 -360.694C688.322 -342.714 659.642 -325.731 630.13 -296.262C600.619 -266.793 583.615 -238.152 565.612 -207.83C547.23 -176.874 528.23 -144.868 495.428 -112.114C462.626 -79.3611 430.581 -60.3832 399.588 -42.0291C369.226 -24.0476 340.543 -7.06604 311.034 22.4047C281.526 51.8755 264.506 80.5308 246.498 110.862L243.233 116.357C241.992 118.443 240.353 120.264 238.408 121.716C236.463 123.169 234.251 124.224 231.898 124.822C229.545 125.419 227.097 125.548 224.694 125.2C222.292 124.852 219.981 124.035 217.894 122.795ZM155.329 96.7522C153.278 95.4579 151.501 93.7723 150.102 91.7917C148.702 89.8112 147.707 87.5746 147.172 85.2095C146.638 82.8442 146.576 80.3969 146.988 78.0074C147.401 75.618 148.28 73.3334 149.577 71.2838C155.361 62.1458 160.928 52.7626 166.315 43.6893C184.697 12.7347 203.702 -19.2743 236.5 -52.026C269.298 -84.7777 301.346 -103.757 332.343 -122.11C362.705 -140.093 391.388 -157.075 420.896 -186.544C450.362 -215.969 467.487 -244.799 484.051 -272.679C486.551 -276.893 490.624 -279.941 495.373 -281.155C500.123 -282.368 505.161 -281.646 509.378 -279.147C513.595 -276.649 516.646 -272.579 517.86 -267.833C519.074 -263.087 518.352 -258.053 515.851 -253.839C498.946 -225.389 479.792 -193.14 447.041 -160.435C414.245 -127.684 382.194 -108.704 351.198 -90.351C320.836 -72.3694 292.153 -55.3878 262.644 -25.9171C233.136 3.55371 216.125 32.1979 198.121 62.524C192.602 71.8168 186.894 81.4282 180.834 91.0079C178.214 95.1489 174.055 98.0802 169.272 99.1575C164.489 100.235 159.473 99.3695 155.329 96.7522H155.329ZM95.9011 63.881C93.9006 62.5083 92.1906 60.7551 90.8685 58.7216C89.5465 56.688 88.6384 54.4138 88.1963 52.0293C87.7543 49.6449 87.787 47.1969 88.2924 44.8251C88.7978 42.4531 89.7659 40.204 91.1416 38.2063C100.899 24.0449 109.168 10.1141 117.925 -4.63245C136.304 -35.5854 155.31 -67.5929 188.108 -100.348C220.906 -133.103 252.954 -152.077 283.948 -170.43C314.313 -188.413 342.992 -205.396 372.504 -234.866C382.057 -244.402 390.972 -254.556 399.191 -265.262C402.177 -269.147 406.586 -271.688 411.446 -272.325C416.306 -272.962 421.221 -271.644 425.109 -268.66C428.997 -265.676 431.539 -261.271 432.177 -256.414C432.814 -251.557 431.495 -246.646 428.509 -242.761C419.314 -230.782 409.338 -219.422 398.649 -208.754C365.851 -175.998 333.802 -157.02 302.806 -138.667C272.443 -120.688 243.761 -103.703 214.252 -74.2354C184.743 -44.7678 167.737 -16.1207 149.729 14.2037C141.046 28.8281 132.067 43.9496 121.607 59.1376C118.827 63.1714 114.557 65.9366 109.737 66.8262C104.917 67.7156 99.9401 66.6564 95.9011 63.881ZM774.384 53.1599C772.303 51.9115 770.489 50.2656 769.045 48.3163C767.601 46.3669 766.556 44.1522 765.97 41.799C765.383 39.4458 765.266 37 765.625 34.6017C765.985 32.2032 766.814 29.8992 768.065 27.8212C770.653 23.5272 773.2 19.2351 775.751 14.9419C794.128 -16.0049 813.132 -48.0076 845.923 -80.757C878.714 -113.506 910.764 -132.486 941.757 -150.838C947.25 -154.088 952.743 -157.343 958.24 -160.674C960.316 -161.989 962.633 -162.878 965.056 -163.287C967.479 -163.697 969.96 -163.619 972.352 -163.059C974.745 -162.499 977.002 -161.468 978.992 -160.026C980.981 -158.584 982.662 -156.76 983.938 -154.661C985.213 -152.562 986.057 -150.23 986.419 -147.801C986.782 -145.372 986.656 -142.895 986.049 -140.515C985.442 -138.135 984.366 -135.901 982.885 -133.941C981.403 -131.982 979.546 -130.338 977.421 -129.104C971.814 -125.709 966.216 -122.393 960.616 -119.078C930.253 -101.098 901.577 -84.1156 872.068 -54.6479C842.558 -25.1804 825.56 3.45642 807.554 33.7753C804.967 38.1351 802.379 42.491 799.754 46.8547C798.503 48.934 796.854 50.7465 794.902 52.1888C792.95 53.6311 790.732 54.675 788.376 55.2609C786.021 55.8467 783.572 55.963 781.171 55.603C778.77 55.243 776.464 54.4138 774.384 53.163V53.1599ZM38.6781 26.7289C36.7302 25.2828 35.0868 23.4675 33.8415 21.3864C32.5962 19.3052 31.7735 16.9988 31.4207 14.5997C31.0678 12.2006 31.1914 9.75562 31.7847 7.4043C32.3781 5.0531 33.4293 2.8418 34.8784 0.896729C48.1408 -16.9095 58.5358 -34.417 69.5438 -52.9557C87.9227 -83.9088 106.926 -115.915 139.726 -148.671C172.526 -181.428 204.572 -200.404 235.569 -218.758C265.931 -236.738 294.609 -253.721 324.122 -283.19C324.949 -284.016 325.767 -284.843 326.577 -285.67C330.014 -289.115 334.673 -291.066 339.541 -291.099C344.409 -291.132 349.094 -289.244 352.578 -285.845C356.061 -282.447 358.062 -277.812 358.146 -272.948C358.23 -268.083 356.39 -263.383 353.026 -259.866C352.118 -258.941 351.198 -258.012 350.267 -257.081C317.469 -224.328 285.419 -205.35 254.426 -186.995C224.06 -169.016 195.381 -152.032 165.869 -122.561C136.356 -93.0907 119.351 -64.4482 101.347 -34.1254C90.3412 -15.5875 78.9581 3.58142 64.5462 22.9319C61.6193 26.8627 57.2498 29.4711 52.3987 30.183C47.5477 30.8949 42.6124 29.652 38.6781 26.7281V26.7289ZM-12.4139 -18.3752C-14.3445 -19.8444 -15.9664 -21.6792 -17.187 -23.7751C-18.4075 -25.871 -19.2027 -28.1869 -19.5272 -30.59C-19.8517 -32.9932 -19.6993 -35.4365 -19.0783 -37.7808C-18.4573 -40.125 -17.38 -42.324 -15.9082 -44.252C-1.509 -63.1117 9.50066 -81.655 21.1568 -101.286C39.5357 -132.238 58.5373 -164.244 91.3368 -196.996C124.136 -229.748 156.183 -248.727 187.175 -267.079C214.878 -283.484 241.046 -298.979 267.858 -323.923C269.625 -325.623 271.712 -326.955 273.999 -327.84C276.286 -328.726 278.726 -329.149 281.178 -329.082C283.629 -329.016 286.044 -328.463 288.279 -327.456C290.515 -326.448 292.527 -325.006 294.199 -323.213C295.872 -321.42 297.17 -319.313 298.019 -317.014C298.868 -314.714 299.251 -312.269 299.145 -309.821C299.039 -307.372 298.446 -304.969 297.402 -302.752C296.357 -300.534 294.881 -298.547 293.06 -296.906C263.335 -269.249 234.207 -252 206.034 -235.32C175.672 -217.34 146.99 -200.355 117.48 -170.886C87.9703 -141.416 70.9653 -112.775 52.9608 -82.4518C41.2793 -62.7772 29.198 -42.4319 13.4978 -21.863C10.5235 -17.9684 6.12338 -15.4135 1.26456 -14.7594C-3.59427 -14.1053 -8.51425 -15.4059 -12.4139 -18.3752ZM-59.6339 -68.0769C-61.572 -69.5359 -63.2034 -71.3625 -64.4346 -73.452C-65.6659 -75.5414 -66.4731 -77.8528 -66.8098 -80.2542C-67.1465 -82.6555 -67.0061 -85.0996 -66.3969 -87.4468C-65.7876 -89.7939 -64.7214 -91.998 -63.2591 -93.9331C-49.3557 -112.34 -38.6087 -130.44 -27.2326 -149.602C-8.85367 -180.556 10.1479 -212.561 42.9482 -245.315C75.7485 -278.07 107.796 -297.048 138.789 -315.403C167.555 -332.435 194.726 -348.524 222.61 -375.206C226.158 -378.543 230.881 -380.345 235.752 -380.22C240.622 -380.096 245.247 -378.054 248.619 -374.54C251.991 -371.026 253.838 -366.323 253.759 -361.455C253.679 -356.587 251.679 -351.947 248.194 -348.545C217.241 -318.927 186.947 -300.988 157.647 -283.64C127.284 -265.66 98.6006 -248.677 69.0939 -219.206C39.5872 -189.735 22.5744 -161.093 4.57063 -130.771C-6.82289 -111.583 -18.5996 -91.743 -33.7436 -71.6967C-36.6975 -67.7861 -41.0848 -65.2079 -45.9405 -64.5292C-50.7962 -63.8503 -55.7229 -65.1265 -59.6372 -68.0769H-59.6339ZM-102.112 -123.645C-104.087 -125.054 -105.764 -126.839 -107.048 -128.896C-108.332 -130.954 -109.198 -133.244 -109.596 -135.636C-109.993 -138.028 -109.916 -140.475 -109.366 -142.837C-108.817 -145.199 -107.808 -147.43 -106.396 -149.402C-94.9117 -165.443 -85.5416 -181.223 -75.6219 -197.928C-57.243 -228.88 -38.2414 -260.884 -5.44345 -293.638C27.3545 -326.392 59.4043 -345.369 90.3968 -363.723C120.762 -381.703 149.442 -398.687 178.954 -428.156C183.171 -432.367 187.306 -436.744 191.239 -441.163C194.497 -444.824 199.077 -447.041 203.97 -447.327C208.864 -447.614 213.671 -445.946 217.334 -442.69C220.997 -439.435 223.216 -434.859 223.503 -429.969C223.79 -425.078 222.121 -420.274 218.863 -416.614C214.451 -411.664 209.82 -406.764 205.098 -402.047C172.3 -369.293 140.251 -350.315 109.255 -331.961C78.8931 -313.982 50.2129 -296.998 20.7014 -267.529C-8.81003 -238.06 -25.8134 -209.417 -43.8179 -179.096C-53.6987 -162.456 -63.9119 -145.248 -76.3232 -127.923C-79.1761 -123.938 -83.4958 -121.249 -88.3326 -120.446C-93.1694 -119.643 -98.1273 -120.793 -102.116 -123.642L-102.112 -123.645ZM-138.375 -188.275C-140.413 -189.591 -142.172 -191.295 -143.55 -193.291C-144.929 -195.287 -145.9 -197.535 -146.409 -199.906C-146.918 -202.277 -146.954 -204.724 -146.515 -207.109C-146.077 -209.494 -145.172 -211.77 -143.853 -213.805C-136.896 -224.543 -130.342 -235.581 -124.004 -246.255C-105.625 -277.206 -86.6213 -309.208 -53.8274 -341.96C-21.0334 -374.712 11.0212 -393.694 42.0169 -412.047C72.3803 -430.026 101.059 -447.011 130.57 -476.48C153.971 -499.847 169.841 -522.967 186.475 -550.487C189.007 -554.681 193.102 -557.7 197.86 -558.877C202.619 -560.054 207.65 -559.294 211.848 -556.765C216.046 -554.235 219.066 -550.143 220.245 -545.388C221.423 -540.633 220.662 -535.605 218.131 -531.41C200.101 -501.576 182.757 -476.377 156.716 -450.369C123.917 -417.617 91.8684 -398.638 60.8759 -380.285C30.5093 -362.305 1.82898 -345.322 -27.6817 -315.851C-57.1924 -286.38 -74.1965 -257.742 -92.2027 -227.421C-98.72 -216.441 -105.461 -205.089 -112.809 -193.745C-115.475 -189.633 -119.665 -186.747 -124.459 -185.721C-129.254 -184.695 -134.259 -185.614 -138.376 -188.276L-138.375 -188.275ZM-170.196 -262.154C-172.281 -263.393 -174.102 -265.031 -175.554 -266.974C-177.005 -268.917 -178.06 -271.127 -178.656 -273.477C-179.253 -275.828 -179.38 -278.272 -179.031 -280.672C-178.682 -283.072 -177.863 -285.379 -176.621 -287.462L-172.384 -294.588C-154.008 -325.534 -135.007 -357.536 -102.214 -390.28C-69.422 -423.025 -37.3665 -442.014 -6.37169 -460.368C23.9902 -478.348 52.6688 -495.331 82.1819 -524.8C111.695 -554.269 128.694 -582.91 146.698 -613.232C165.08 -644.186 184.083 -676.194 216.884 -708.948C249.685 -741.701 281.73 -760.68 312.727 -779.034C343.088 -797.013 371.768 -813.997 401.28 -843.466C430.791 -872.935 447.792 -901.577 465.796 -931.898C484.18 -962.852 503.181 -994.86 535.982 -1027.61C568.783 -1060.37 600.83 -1079.35 631.825 -1097.7C635.123 -1099.65 638.421 -1101.61 641.72 -1103.57C643.803 -1104.84 646.114 -1105.67 648.521 -1106.04C650.929 -1106.4 653.385 -1106.29 655.748 -1105.7C658.111 -1105.11 660.335 -1104.07 662.291 -1102.62C664.248 -1101.17 665.898 -1099.35 667.149 -1097.26C668.399 -1095.17 669.224 -1092.86 669.576 -1090.45C669.928 -1088.04 669.8 -1085.59 669.201 -1083.23C668.601 -1080.87 667.541 -1078.66 666.081 -1076.71C664.621 -1074.76 662.79 -1073.12 660.694 -1071.88C657.355 -1069.89 654.018 -1067.91 650.684 -1065.94C620.318 -1047.96 591.638 -1030.97 562.127 -1001.5C532.615 -972.033 515.607 -943.389 497.605 -913.065C479.224 -882.114 460.223 -850.108 427.425 -817.357C394.627 -784.605 362.577 -765.625 331.585 -747.272C301.218 -729.292 272.539 -712.307 243.029 -682.836C213.518 -653.366 196.511 -624.723 178.505 -594.399C160.126 -563.448 141.125 -531.442 108.327 -498.69C75.5288 -465.939 43.479 -446.959 12.4865 -428.606C-17.8777 -410.625 -46.5594 -393.642 -76.0685 -364.173C-105.578 -334.705 -122.578 -306.075 -140.579 -275.756L-144.849 -268.572C-147.359 -264.363 -151.438 -261.321 -156.191 -260.117C-160.944 -258.913 -165.981 -259.645 -170.194 -262.151L-170.196 -262.154ZM-196.04 -348.785C-198.085 -350.091 -199.852 -351.787 -201.241 -353.776C-202.629 -355.765 -203.611 -358.008 -204.132 -360.377C-204.652 -362.745 -204.7 -365.193 -204.273 -367.58C-203.846 -369.968 -202.952 -372.247 -201.642 -374.289C-185.197 -399.94 -169.457 -419.776 -150.603 -438.605C-117.807 -471.355 -85.755 -490.335 -54.7641 -508.687C-24.3975 -526.669 4.28099 -543.652 33.7933 -573.123C63.3055 -602.594 80.3115 -631.237 98.3152 -661.562C116.694 -692.511 135.697 -724.518 168.494 -757.27C201.29 -790.022 233.341 -809.001 264.334 -827.355C294.701 -845.335 323.379 -862.319 352.891 -891.79C382.404 -921.26 399.409 -949.903 417.414 -980.227C435.793 -1011.18 454.796 -1043.18 487.592 -1075.94C512.555 -1100.87 536.744 -1117.3 555.025 -1128.83C557.076 -1130.14 559.366 -1131.03 561.763 -1131.46C564.161 -1131.88 566.618 -1131.82 568.994 -1131.3C571.37 -1130.77 573.619 -1129.77 575.61 -1128.37C577.601 -1126.97 579.295 -1125.19 580.596 -1123.14C581.897 -1121.08 582.778 -1118.79 583.189 -1116.39C583.601 -1113.99 583.534 -1111.54 582.993 -1109.17C582.452 -1106.79 581.447 -1104.55 580.036 -1102.57C578.625 -1100.59 576.836 -1098.9 574.772 -1097.61C558.114 -1087.1 536.119 -1072.18 513.738 -1049.83C484.229 -1020.36 467.226 -991.718 449.22 -961.396C430.838 -930.441 411.837 -898.434 379.035 -865.681C346.232 -832.927 314.189 -813.948 283.194 -795.595C252.829 -777.615 224.151 -760.63 194.64 -731.162C165.129 -701.694 148.124 -673.05 130.124 -642.729C111.742 -611.774 92.7393 -579.766 59.9381 -547.014C27.137 -514.261 -4.9097 -495.28 -35.9046 -476.928C-66.2664 -458.946 -94.9513 -441.964 -124.46 -412.497C-141.35 -395.624 -155.555 -377.698 -170.503 -354.38C-173.148 -350.254 -177.323 -347.347 -182.112 -346.298C-186.901 -345.249 -191.911 -346.144 -196.04 -348.786L-196.04 -348.785ZM650.861 -418.946C649.62 -421.03 648.802 -423.338 648.454 -425.738C648.106 -428.138 648.235 -430.583 648.833 -432.934C649.431 -435.284 650.487 -437.494 651.94 -439.436C653.393 -441.378 655.215 -443.015 657.301 -444.254C686.527 -461.609 712.921 -478.175 739.994 -505.212C769.503 -534.679 786.506 -563.322 804.511 -593.644C822.893 -624.598 841.895 -656.606 874.696 -689.359C907.498 -722.111 939.539 -741.088 970.534 -759.443C979.991 -765.044 989.775 -770.838 999.298 -776.882C1001.35 -778.224 1003.64 -779.145 1006.05 -779.593C1008.46 -780.041 1010.93 -780.006 1013.32 -779.491C1015.72 -778.975 1017.98 -777.99 1019.99 -776.592C1022 -775.193 1023.71 -773.41 1025.03 -771.345C1026.34 -769.28 1027.23 -766.974 1027.65 -764.563C1028.06 -762.151 1027.99 -759.681 1027.44 -757.296C1026.89 -754.911 1025.88 -752.659 1024.45 -750.671C1023.02 -748.682 1021.21 -746.997 1019.13 -745.713C1009.13 -739.371 999.093 -733.426 989.395 -727.685C959.031 -709.703 930.353 -692.721 900.844 -663.253C871.336 -633.786 854.325 -605.139 836.321 -574.814C817.944 -543.864 798.94 -511.859 766.142 -479.106C736.086 -449.089 706.45 -430.482 676.204 -412.52C671.99 -410.016 666.954 -409.287 662.202 -410.493C657.45 -411.699 653.372 -414.741 650.865 -418.951L650.861 -418.946ZM-209.891 -447.961C-211.694 -449.584 -213.159 -451.546 -214.203 -453.735C-215.247 -455.924 -215.849 -458.296 -215.975 -460.718C-216.101 -463.139 -215.748 -465.562 -214.937 -467.847C-214.126 -470.132 -212.872 -472.235 -211.247 -474.036C-207.318 -478.387 -203.193 -482.725 -198.987 -486.924C-166.191 -519.679 -134.141 -538.657 -103.145 -557.01C-72.7829 -574.99 -44.1012 -591.975 -14.5912 -621.441C14.9186 -650.907 31.9235 -679.552 49.9249 -709.873C68.3069 -740.829 87.3094 -772.835 120.111 -805.589C152.912 -838.342 184.957 -857.322 215.953 -875.675C246.315 -893.655 274.995 -910.638 304.507 -940.107C334.018 -969.577 351.022 -998.219 369.023 -1028.54C387.405 -1059.49 406.407 -1091.5 439.207 -1124.25C443.594 -1128.64 448.156 -1132.96 452.76 -1137.08C454.559 -1138.74 456.671 -1140.04 458.973 -1140.88C461.276 -1141.72 463.723 -1142.09 466.172 -1141.98C468.622 -1141.87 471.024 -1141.27 473.239 -1140.22C475.454 -1139.17 477.439 -1137.69 479.076 -1135.87C480.714 -1134.04 481.972 -1131.91 482.777 -1129.6C483.583 -1127.28 483.919 -1124.83 483.768 -1122.39C483.616 -1119.94 482.979 -1117.55 481.893 -1115.35C480.808 -1113.16 479.296 -1111.2 477.446 -1109.59C473.344 -1105.91 469.275 -1102.06 465.359 -1098.15C435.841 -1068.67 418.834 -1040.03 400.83 -1009.71C382.451 -978.757 363.45 -946.75 330.652 -913.998C297.854 -881.245 265.804 -862.267 234.813 -843.913C204.446 -825.933 175.766 -808.95 146.254 -779.479C116.742 -750.008 99.7359 -721.364 81.7321 -691.04C63.3532 -660.089 44.3516 -628.084 11.5536 -595.331C-21.2443 -562.579 -53.2943 -543.601 -84.2868 -525.25C-114.652 -507.268 -143.332 -490.285 -172.843 -460.815C-176.601 -457.061 -180.279 -453.192 -183.78 -449.315C-187.065 -445.678 -191.659 -443.492 -196.555 -443.238C-201.451 -442.984 -206.247 -444.683 -209.891 -447.961V-447.961ZM659.617 -502.261C658.125 -504.173 657.024 -506.36 656.379 -508.698C655.733 -511.035 655.555 -513.477 655.854 -515.883C656.153 -518.289 656.924 -520.613 658.123 -522.721C659.322 -524.83 660.925 -526.681 662.84 -528.17C672.948 -536.017 682.556 -544.487 691.607 -553.531C721.116 -583.003 738.125 -611.644 756.13 -641.97C774.507 -672.919 793.511 -704.926 826.309 -737.679C859.107 -770.431 891.152 -789.409 922.144 -807.761C937.517 -816.863 952.039 -825.464 966.804 -835.722C968.796 -837.108 971.041 -838.088 973.411 -838.607C975.781 -839.126 978.231 -839.173 980.62 -838.746C983.008 -838.318 985.29 -837.425 987.333 -836.117C989.376 -834.809 991.141 -833.111 992.528 -831.121C993.915 -829.131 994.896 -826.888 995.415 -824.519C995.934 -822.151 995.981 -819.703 995.554 -817.316C995.126 -814.929 994.232 -812.65 992.923 -810.608C991.614 -808.566 989.915 -806.802 987.924 -805.416C972.059 -794.387 956.273 -785.044 941.007 -776.001C910.643 -758.02 881.965 -741.038 852.455 -711.569C822.945 -682.1 805.943 -653.459 787.94 -623.137C769.556 -592.183 750.555 -560.176 717.754 -527.423C707.625 -517.303 696.875 -507.825 685.564 -499.045C681.695 -496.035 676.789 -494.684 671.924 -495.288C667.059 -495.892 662.633 -498.402 659.619 -502.266L659.617 -502.261ZM-210.019 -544.749C-211.45 -546.706 -212.482 -548.927 -213.055 -551.283C-213.628 -553.639 -213.731 -556.086 -213.358 -558.482C-212.984 -560.878 -212.142 -563.177 -210.879 -565.247C-209.616 -567.318 -207.957 -569.119 -205.997 -570.549C-187.54 -584.014 -169.237 -594.851 -151.537 -605.331C-121.171 -623.312 -92.4897 -640.294 -62.9798 -669.766C-33.4699 -699.239 -16.4618 -727.88 1.54189 -758.204C19.9208 -789.156 38.9225 -821.16 71.7204 -853.912C104.518 -886.665 136.568 -905.643 167.561 -923.997C197.927 -941.977 226.608 -958.961 256.118 -988.432C285.629 -1017.9 302.631 -1046.54 320.638 -1076.87C331.562 -1095.27 342.858 -1114.29 357.116 -1133.49C358.561 -1135.44 360.376 -1137.08 362.458 -1138.33C364.539 -1139.58 366.847 -1140.4 369.248 -1140.76C371.648 -1141.12 374.096 -1141 376.451 -1140.41C378.805 -1139.82 381.021 -1138.77 382.971 -1137.33C384.921 -1135.88 386.568 -1134.07 387.816 -1131.99C389.065 -1129.91 389.891 -1127.6 390.247 -1125.2C390.604 -1122.81 390.485 -1120.36 389.896 -1118.01C389.307 -1115.65 388.26 -1113.44 386.814 -1111.49C373.689 -1093.82 363.37 -1076.44 352.441 -1058.04C334.066 -1027.08 315.062 -995.076 282.264 -962.324C249.466 -929.572 217.416 -910.591 186.421 -892.238C156.058 -874.258 127.379 -857.275 97.8661 -827.806C68.353 -798.336 51.3535 -769.697 33.3498 -739.374C14.9692 -708.421 -4.03305 -676.413 -36.8342 -643.659C-69.6353 -610.905 -101.682 -591.926 -132.677 -573.572C-150.407 -563.073 -167.158 -553.155 -184.184 -540.734C-188.143 -537.845 -193.088 -536.645 -197.932 -537.398C-202.777 -538.151 -207.123 -540.796 -210.017 -544.75L-210.019 -544.749ZM641.552 -574.286C639.848 -576.013 638.501 -578.058 637.589 -580.305C636.676 -582.552 636.216 -584.957 636.234 -587.382C636.252 -589.807 636.749 -592.204 637.695 -594.437C638.641 -596.67 640.018 -598.695 641.748 -600.396L643.223 -601.855C672.732 -631.326 689.735 -659.967 707.739 -690.288C726.121 -721.241 745.124 -753.25 777.925 -786.004C810.726 -818.757 842.773 -837.736 873.768 -856.09C892.719 -867.312 910.62 -877.914 928.828 -891.556C930.764 -893.066 932.982 -894.175 935.353 -894.818C937.723 -895.461 940.198 -895.626 942.632 -895.303C945.067 -894.98 947.412 -894.175 949.532 -892.935C951.652 -891.696 953.503 -890.046 954.978 -888.084C956.453 -886.121 957.521 -883.885 958.121 -881.505C958.721 -879.125 958.84 -876.649 958.472 -874.223C958.103 -871.796 957.254 -869.468 955.975 -867.373C954.696 -865.278 953.011 -863.458 951.02 -862.021C931.208 -847.174 911.596 -835.561 892.626 -824.328C862.26 -806.348 833.58 -789.365 804.068 -759.894C774.556 -730.423 757.55 -701.779 739.546 -671.455C721.167 -640.504 702.166 -608.498 669.368 -575.746L667.702 -574.091C664.208 -570.655 659.491 -568.745 654.588 -568.782C649.685 -568.819 644.997 -570.8 641.555 -574.289L641.552 -574.286ZM-196.422 -634.202C-197.668 -636.283 -198.491 -638.589 -198.844 -640.988C-199.198 -643.387 -199.074 -645.833 -198.482 -648.184C-197.889 -650.536 -196.839 -652.747 -195.39 -654.693C-193.942 -656.639 -192.124 -658.28 -190.04 -659.523C-164.844 -674.566 -138.014 -691.48 -111.366 -718.089C-81.857 -747.557 -64.8535 -776.199 -46.8498 -806.521C-28.4693 -837.475 -9.46696 -869.481 23.3341 -902.235C56.1353 -934.988 88.182 -953.967 119.177 -972.322C149.54 -990.302 178.222 -1007.28 207.731 -1036.75C234.278 -1063.27 251.006 -1089.69 265.869 -1114.48C268.386 -1118.68 272.471 -1121.71 277.226 -1122.91C281.981 -1124.1 287.015 -1123.36 291.222 -1120.84C295.43 -1118.33 298.464 -1114.25 299.659 -1109.49C300.854 -1104.74 300.111 -1099.71 297.594 -1095.51C281.545 -1068.74 263.405 -1040.14 233.876 -1010.64C201.078 -977.892 169.028 -958.914 138.036 -940.562C107.669 -922.581 78.989 -905.596 49.4783 -876.126C19.9676 -846.656 2.96028 -818.011 -15.0442 -787.688C-33.4232 -756.737 -52.4264 -724.731 -85.2227 -691.98C-114.86 -662.383 -143.882 -644.06 -171.069 -627.829C-175.277 -625.314 -180.312 -624.573 -185.067 -625.768C-189.822 -626.963 -193.907 -629.997 -196.424 -634.202H-196.422ZM604.378 -632.924C602.594 -634.569 601.153 -636.548 600.136 -638.75C599.118 -640.951 598.545 -643.331 598.449 -645.754C598.353 -648.177 598.735 -650.595 599.575 -652.87C600.414 -655.145 601.694 -657.233 603.341 -659.013C627.792 -685.456 643.122 -711.274 659.352 -738.61C677.731 -769.562 696.733 -801.569 729.534 -834.323C762.335 -867.077 794.378 -886.054 825.373 -904.408C845.396 -916.265 864.306 -927.462 883.546 -942.232C885.469 -943.711 887.665 -944.797 890.008 -945.427C892.352 -946.058 894.796 -946.221 897.202 -945.907C899.609 -945.594 901.93 -944.809 904.033 -943.6C906.136 -942.39 907.979 -940.778 909.459 -938.856C910.939 -936.934 912.025 -934.739 912.656 -932.398C913.287 -930.056 913.45 -927.613 913.136 -925.209C912.823 -922.804 912.038 -920.485 910.827 -918.383C909.616 -916.282 908.003 -914.439 906.08 -912.961C885.08 -896.834 864.312 -884.538 844.232 -872.646C813.866 -854.666 785.187 -837.684 755.678 -808.213C726.169 -778.743 709.16 -750.099 691.156 -719.776C674.656 -691.995 657.601 -663.27 630.501 -633.964C627.174 -630.367 622.553 -628.236 617.655 -628.041C612.757 -627.846 607.981 -629.603 604.378 -632.925V-632.924ZM553.279 -678.663C551.515 -680.327 550.096 -682.323 549.104 -684.536C548.113 -686.749 547.567 -689.135 547.498 -691.559C547.43 -693.983 547.84 -696.396 548.706 -698.661C549.571 -700.927 550.875 -702.999 552.542 -704.761C578.402 -732.083 594.218 -758.728 610.971 -786.938C629.346 -817.888 648.35 -849.892 681.144 -882.644C713.939 -915.396 745.992 -934.377 776.987 -952.729C796.76 -964.438 815.434 -975.496 834.43 -989.998C836.354 -991.505 838.559 -992.614 840.916 -993.263C843.273 -993.912 845.735 -994.088 848.16 -993.779C850.586 -993.47 852.926 -992.684 855.044 -991.465C857.163 -990.246 859.019 -988.619 860.504 -986.679C861.989 -984.738 863.074 -982.522 863.696 -980.159C864.318 -977.797 864.465 -975.334 864.128 -972.914C863.791 -970.495 862.976 -968.166 861.732 -966.063C860.488 -963.96 858.838 -962.125 856.879 -960.663C836.156 -944.843 815.661 -932.704 795.843 -920.969C765.477 -902.99 736.796 -886.006 707.285 -856.535C677.775 -827.064 660.773 -798.426 642.769 -768.104C625.725 -739.397 608.098 -709.709 579.412 -679.402C576.042 -675.843 571.397 -673.766 566.496 -673.628C561.595 -673.49 556.84 -675.301 553.276 -678.665L553.279 -678.663ZM484.72 -709.429C483.097 -711.231 481.845 -713.336 481.036 -715.622C480.227 -717.908 479.876 -720.331 480.005 -722.752C480.133 -725.173 480.738 -727.546 481.784 -729.733C482.831 -731.921 484.299 -733.881 486.104 -735.502C490.176 -739.156 494.195 -742.964 498.058 -746.821C527.567 -776.291 544.57 -804.932 562.574 -835.253C580.956 -866.207 599.957 -898.213 632.758 -930.968C665.559 -963.722 697.603 -982.697 728.598 -1001.05C745.732 -1011.2 761.914 -1020.78 778.369 -1032.63C780.333 -1034.11 782.572 -1035.18 784.956 -1035.78C787.339 -1036.38 789.819 -1036.5 792.25 -1036.14C794.68 -1035.77 797.013 -1034.92 799.112 -1033.64C801.21 -1032.36 803.032 -1030.68 804.471 -1028.68C805.91 -1026.69 806.936 -1024.43 807.49 -1022.04C808.045 -1019.65 808.116 -1017.17 807.699 -1014.75C807.283 -1012.32 806.387 -1010.01 805.065 -1007.94C803.742 -1005.87 802.02 -1004.08 799.998 -1002.68C782.2 -989.866 764.539 -979.406 747.456 -969.29C717.091 -951.31 688.411 -934.328 658.902 -904.859C629.394 -875.389 612.384 -846.745 594.379 -816.421C576.002 -785.47 556.998 -753.464 524.202 -720.713C519.88 -716.397 515.381 -712.136 510.825 -708.045C507.179 -704.771 502.381 -703.077 497.486 -703.336C492.59 -703.596 487.998 -705.787 484.719 -709.429L484.72 -709.429ZM372.17 -715.643C370.909 -717.715 370.068 -720.014 369.697 -722.411C369.326 -724.807 369.431 -727.253 370.006 -729.609C370.581 -731.964 371.616 -734.184 373.05 -736.14C374.484 -738.096 376.29 -739.751 378.364 -741.009C401.021 -754.765 425.337 -770.843 449.668 -795.144C479.177 -824.615 496.187 -853.257 514.191 -883.581C532.57 -914.532 551.572 -946.539 584.37 -979.291C617.168 -1012.04 649.213 -1031.02 680.203 -1049.37C691.784 -1056.23 703.751 -1063.31 715.393 -1070.95C717.421 -1072.28 719.692 -1073.2 722.076 -1073.65C724.459 -1074.1 726.909 -1074.09 729.286 -1073.59C731.662 -1073.1 733.917 -1072.15 735.924 -1070.78C737.931 -1069.42 739.65 -1067.68 740.983 -1065.65C742.315 -1063.62 743.234 -1061.35 743.689 -1058.97C744.144 -1056.59 744.124 -1054.14 743.632 -1051.77C743.14 -1049.39 742.185 -1047.14 740.821 -1045.13C739.457 -1043.13 737.711 -1041.41 735.683 -1040.08C723.337 -1031.98 710.997 -1024.68 699.062 -1017.61C668.702 -999.631 640.023 -982.649 610.515 -953.182C581.008 -923.715 564.003 -895.07 545.997 -864.748C527.617 -833.795 508.615 -801.788 475.814 -769.033C448.725 -741.977 422.199 -724.411 397.573 -709.458C395.499 -708.197 393.197 -707.357 390.798 -706.986C388.398 -706.614 385.95 -706.718 383.591 -707.292C381.232 -707.867 379.009 -708.899 377.05 -710.332C375.091 -711.764 373.433 -713.568 372.172 -715.641L372.17 -715.643ZM-150.847 -748.55C-152.626 -750.2 -154.062 -752.183 -155.074 -754.387C-156.085 -756.591 -156.652 -758.973 -156.742 -761.397C-156.831 -763.82 -156.442 -766.237 -155.597 -768.51C-154.751 -770.783 -153.465 -772.867 -151.813 -774.643C-127.035 -801.292 -111.589 -827.307 -95.2368 -854.848C-76.8595 -885.801 -57.8539 -917.807 -25.056 -950.559C7.74196 -983.311 39.7919 -1002.29 70.7844 -1020.64C98.7585 -1037.21 125.184 -1052.86 152.267 -1078.24C155.84 -1081.59 160.6 -1083.39 165.5 -1083.23C170.4 -1083.08 175.037 -1080.99 178.393 -1077.42C181.749 -1073.85 183.547 -1069.09 183.393 -1064.19C183.239 -1059.3 181.145 -1054.66 177.572 -1051.31C147.529 -1023.16 118.102 -1005.73 89.6432 -988.883C59.2813 -970.903 30.5996 -953.92 1.08968 -924.453C-28.4202 -894.985 -45.4252 -866.339 -63.4297 -836.015C-80.0556 -808.014 -97.2477 -779.062 -124.721 -749.518C-128.058 -745.93 -132.685 -743.813 -137.584 -743.631C-142.483 -743.45 -147.253 -745.219 -150.847 -748.551V-748.55Z" fill="#9B0500"/>
</svg>
