<svg width="178" height="461" viewBox="0 0 178 461" fill="none" xmlns="http://www.w3.org/2000/svg">
<path d="M169.83 428.052C166.273 423.556 162.717 419.059 159.16 414.562C129.283 373.854 102.726 330.306 80.2 285.101C64.076 252.44 47.4778 210.312 62.8904 172.681C74.7463 143.57 102.726 125.11 125.015 110.436L222.233 46.5341C226.027 44.1674 230.295 40.8539 234.8 37.5405C252.584 24.2868 274.873 7.48292 296.45 11.033C319.688 14.5831 339.606 41.8006 354.07 61.6812C357.389 66.178 360.235 70.2015 363.08 73.5149C389.874 107.123 407.895 135.997 419.751 164.634C456.03 248.89 438.009 321.312 409.081 361.074C376.359 405.805 321.348 429.236 277.007 447.933C259.934 455.033 238.831 464.027 217.253 460.003C197.81 456.453 182.872 443.436 169.83 428.052ZM329.173 47.9542C318.502 35.4104 306.646 24.0501 294.791 22.1567C278.192 19.5533 258.038 34.4637 241.914 46.5341C237.171 50.0842 232.903 53.3977 228.872 56.0011L131.654 119.903C105.809 136.944 83.5196 153.037 73.7978 176.941C60.045 210.312 75.9319 249.364 91.1073 279.894C113.396 324.389 139.716 367.464 169.119 407.698C183.109 426.869 198.995 444.856 219.862 448.88C237.883 452.193 257.326 444.146 272.976 437.519C315.894 419.295 369.482 396.575 400.308 354.447C427.339 317.289 444.174 249.127 409.792 169.368C398.411 141.914 380.864 113.749 354.781 81.0885C351.936 77.5384 348.853 73.2782 345.534 68.7814C340.317 62.1546 334.863 54.8177 329.173 47.9542Z" fill="#9FC367"/>
<path d="M144.459 412.905C140.902 408.645 137.345 404.148 134.026 399.415C104.149 358.944 77.8289 315.396 55.3028 270.428C39.416 238.477 22.8178 197.059 37.7561 160.374C49.3749 131.973 76.8804 113.986 98.9323 99.5491L196.15 35.6471C199.944 33.0437 204.212 29.967 208.954 26.4169C226.501 13.3998 248.079 -2.69403 268.471 0.382734C290.523 3.93284 309.966 30.4403 324.193 49.8476C327.513 54.3444 330.595 58.3678 333.204 61.9179C359.998 95.2889 377.782 123.926 389.637 152.327C425.442 235.4 407.658 306.875 379.204 345.927C346.956 390.185 292.182 413.379 248.316 431.839C231.718 438.939 210.851 447.696 190.222 443.673C171.727 440.596 157.263 428.052 144.459 412.905ZM303.801 33.0437C292.894 20.0267 280.327 8.19297 267.522 6.29958C249.501 3.45949 228.872 18.8433 212.274 31.1503C207.532 34.7004 203.264 37.7772 199.233 40.3806L102.015 104.283C80.6743 118.483 53.8801 135.997 42.9727 162.504C28.9828 197.059 44.8696 236.82 60.2822 267.824C82.5712 312.556 108.891 355.63 138.531 396.101C152.758 415.745 169.119 434.206 191.171 438.466C210.14 442.016 230.058 433.733 245.945 426.869C289.337 408.645 343.162 385.688 374.462 342.85C401.967 304.982 419.04 235.637 384.184 154.931C372.565 127.24 355.018 98.839 328.698 65.9414C325.853 62.3913 322.77 58.1311 319.451 53.6343C314.946 47.0075 309.729 39.9073 303.801 33.0437Z" fill="#9FC367"/>
<path d="M112.922 421.426C109.365 417.165 105.809 412.432 102.489 407.935C72.6122 367.227 46.0551 323.916 23.529 278.711C7.40511 246.287 -9.19307 204.632 5.98241 167.475C17.6011 138.837 45.3438 120.613 67.6328 105.939L164.851 42.0375C168.645 39.4341 172.913 36.3573 177.418 33.0439C195.202 19.7902 217.016 3.45967 238.12 6.7731C260.646 10.3232 280.327 37.304 294.791 56.948C298.11 61.4448 301.193 65.4682 303.801 69.0183C330.832 102.153 348.616 131.027 360.472 159.428C396.514 242.974 378.73 315.159 349.802 354.447C317.317 398.942 262.306 422.136 218.202 440.833C201.367 447.933 180.5 456.927 159.397 452.903C140.428 449.353 125.726 436.573 112.922 421.426ZM272.265 41.3275C261.594 28.5471 249.264 16.9501 236.934 15.0567C219.625 12.4533 199.233 27.6004 182.872 39.9074C178.129 43.4575 173.861 46.771 169.83 49.3744L72.6122 113.276C51.2717 127.24 24.9517 144.754 14.2815 170.788C0.528719 204.632 16.1784 244.157 31.591 274.925C53.88 319.656 80.2 362.73 109.602 402.965C123.829 422.372 139.716 440.596 161.294 444.62C179.789 448.17 199.47 439.886 215.119 433.023C258.275 414.799 312.1 392.078 343.162 349.477C370.431 311.846 387.503 243.21 352.884 162.978C341.503 135.287 323.719 107.123 297.636 74.2251C294.791 70.675 291.708 66.4149 288.388 61.9181C283.172 55.5279 277.955 48.191 272.265 41.3275Z" fill="#9FC367"/>
</svg>
