<svg width="179" height="207" viewBox="0 0 179 207" fill="none" xmlns="http://www.w3.org/2000/svg">
<path d="M106.296 7.99995C119.998 7.99995 132.292 9.97078 143.178 13.9124C154.253 17.6664 162.887 23.3912 169.081 31.0868C175.462 38.7824 178.653 48.355 178.653 59.8046C178.653 71.4418 176.213 80.9206 171.333 88.2408C166.641 95.561 160.165 101.098 151.906 104.852C143.835 108.606 134.92 111.046 125.159 112.172L122.344 136.385H80.1119L80.3935 93.5902C97.474 92.0886 109.487 89.0855 116.431 84.5807C123.564 79.8883 127.13 73.7881 127.13 66.2802C127.13 60.2738 125.159 55.5814 121.218 52.2028C117.276 48.6366 111.176 46.8534 102.917 46.8534C86.5875 46.8534 77.2026 56.3322 74.7626 75.2896L28.5889 59.2415C30.8412 49.4812 35.0644 40.7532 41.2585 33.0576C47.4525 25.362 55.8989 19.2618 66.5977 14.7571C77.2965 10.2523 90.5292 7.99995 106.296 7.99995ZM102.073 151.307C110.519 151.307 117.088 153.466 121.781 157.783C126.661 161.912 129.101 167.637 129.101 174.957C129.101 182.465 126.661 188.378 121.781 192.695C117.088 196.824 110.519 198.889 102.073 198.889C93.4385 198.889 86.6814 196.824 81.8012 192.695C77.1088 188.378 74.7626 182.465 74.7626 174.957C74.7626 167.637 77.1088 161.912 81.8012 157.783C86.6814 153.466 93.4385 151.307 102.073 151.307Z" fill="#222222"/>
<path d="M103.755 140.354H107.289L107.697 136.844L110.155 115.706C119.086 114.403 127.367 111.995 134.976 108.458C143.88 104.407 150.947 98.3858 156.066 90.4126C161.487 82.2652 164.033 71.9621 164.033 59.8046C164.033 47.5826 160.61 37.0818 153.565 28.5759C146.826 20.213 137.529 14.1148 125.902 10.167C114.521 6.05196 101.771 4.03128 87.7069 4.03128C71.5894 4.03128 57.796 6.33005 46.4687 11.0994C35.2702 15.8146 26.251 22.2784 19.5779 30.5692C13.0029 38.7382 8.51804 48.0136 6.13292 58.3491L5.3318 61.8206L8.69708 62.9903L54.8708 79.0384L59.4862 80.6426L60.1099 75.7963C61.2655 66.8188 63.9981 60.6581 67.8626 56.7548C71.6488 52.9309 76.9699 50.8222 84.3284 50.8222C92.1262 50.8222 97.0664 52.5222 99.9663 55.1458L100.006 55.1815L100.046 55.2161C102.966 57.7185 104.573 61.2305 104.573 66.2802C104.573 72.2479 101.861 77.1831 95.6723 81.258C89.5959 85.1945 78.4333 88.1444 61.4571 89.6368L57.8598 89.953L57.836 93.5641L57.5544 136.359L57.5282 140.354H61.5231H103.755ZM60.5253 195.615L60.5859 195.671L60.6488 195.724C66.4627 200.644 74.2413 202.858 83.4837 202.858C92.5532 202.858 100.176 200.636 105.814 195.674L105.822 195.667C111.687 190.479 114.481 183.411 114.481 174.957C114.481 166.688 111.682 159.8 105.818 154.806C100.188 149.66 92.5624 147.339 83.4837 147.339C74.2048 147.339 66.4032 149.665 60.5897 154.804C54.8925 159.818 52.205 166.712 52.205 174.957C52.205 183.36 54.8702 190.413 60.5253 195.615Z" fill="white" stroke="#222222" stroke-width="7.93743"/>
</svg>
