<svg width="272" height="342" viewBox="0 0 272 342" fill="none" xmlns="http://www.w3.org/2000/svg">
<path d="M76.4078 310.941C73.1067 302.209 69.791 289.984 62.3363 284.009C60.1578 282.13 56.0363 284.094 55.9955 287.029C55.7539 296.866 62.3272 307.344 66.5795 315.623C69.7469 321.892 78.7113 317.427 76.4078 310.941Z" fill="#FFD0BF"/>
<path d="M58.413 265.657C56.9005 262.684 57.6626 259.21 57.5609 255.953C57.6337 252.224 57.4447 249.203 56.1068 245.758C53.9138 240.386 45.1006 243.029 46.3425 248.854C47.6949 255.792 48.0641 263.977 52.9913 269.018C55.1378 271.689 59.9806 269.188 58.413 265.657Z" fill="#FFD0BF"/>
<path d="M47.3261 226.415C46.2325 226.547 45.1388 226.679 43.8154 226.726C45.1941 227.236 46.343 227.661 47.7217 228.17C44.0627 222.525 43.3997 215.842 39.0194 210.735C36.2708 207.572 31.4279 210.074 32.0444 214.057C32.818 221.855 36.0086 229.473 42.2592 234.467C43.4633 235.449 45.1038 235.25 46.6017 234.731C47.5529 234.278 48.7337 233.91 49.6849 233.457C53.6319 231.965 51.3836 226.037 47.3261 226.415Z" fill="#FFD0BF"/>
<path d="M33.1006 187.89C32.7051 186.134 32.5393 184.463 32.1438 182.707C31.7482 180.951 30.8931 179.025 30.038 177.1C28.6129 173.89 27.1877 170.68 24.7241 168.16C21.8883 165.233 17.4497 167.348 17.7492 171.483C17.9935 175.06 19.1888 178.185 20.8438 181.48C21.5564 183.085 22.3563 184.453 23.0688 186.058C24.241 187.833 25.5876 189.136 26.7598 190.91C28.8423 195.168 34.549 192.449 33.1006 187.89Z" fill="#FFD0BF"/>
<path d="M9.18977 133.175C8.00314 127.908 7.10155 123.282 5.05105 118.232C4.05342 115.985 3.37286 113.587 1.74116 111.642C0.569015 109.868 -1.58625 109.339 -2.79041 108.357C-4.73915 106.564 -8.54366 108.376 -8.49717 111.076C-8.47393 112.426 -9.4018 114.229 -9.23604 115.9C-8.95976 118.685 -7.50259 121.101 -6.27519 123.433C-4.13744 128.247 -1.10382 132.052 1.98506 136.413C4.09957 139.878 10.0361 137.244 9.18977 133.175Z" fill="#FFD0BF"/>
<path d="M-13.7962 84.436C-14.4768 82.0382 -14.2063 79.1873 -14.8868 76.7895C-15.7972 74.3068 -16.7076 71.824 -17.6179 69.3413C-19.5811 64.0549 -21.6084 60.3544 -26.0527 56.8332C-28.0887 55.2756 -31.2591 56.786 -31.4424 59.4008C-31.6665 64.9516 -30.2733 68.9542 -27.7633 74.1745C-26.5359 76.5062 -25.3957 79.074 -24.0811 81.1697C-22.7664 83.2654 -20.5006 84.9079 -19.186 87.0036C-16.9842 90.2321 -12.5456 88.1176 -13.7962 84.436Z" fill="#FFD0BF"/>
<path d="M-37.3405 24.4914C-38.9836 11.2753 -41.2608 -1.63865 -50.4257 -11.4658C-53.4041 -14.7132 -58.4768 -12.2966 -58.0347 -7.84089C-56.7959 5.76223 -48.8119 15.9575 -40.1938 25.8508C-39.3067 26.9836 -37.0874 25.9263 -37.3405 24.4914Z" fill="#FFD0BF"/>
<path d="M-59.8813 -27.5708C-60.5299 -30.7615 -60.5764 -33.4614 -61.6293 -36.2651C-62.5949 -39.3048 -63.6477 -42.1085 -65.739 -44.2231C-68.1153 -46.9796 -72.3241 -44.7801 -72.0798 -41.2023C-71.6611 -38.0965 -70.2911 -35.4439 -68.9212 -32.7912C-67.3215 -30.0536 -65.3728 -28.26 -63.6858 -25.7583C-62.4264 -24.2196 -59.5731 -25.5789 -59.8813 -27.5708Z" fill="#FFD0BF"/>
<path d="M-71.713 -67.625C-73.3359 -71.7126 -74.5225 -76.9801 -78.3095 -79.4534C-79.9732 -80.6051 -82.1925 -79.5479 -82.4311 -77.4899C-83.0827 -72.9021 -79.9938 -68.5408 -78.0538 -64.6042C-75.9713 -60.3468 -69.9475 -63.2165 -71.713 -67.625Z" fill="#FFD0BF"/>
<path d="M101.937 300.529C100.843 300.661 99.7498 300.793 98.6561 300.925C99.488 301.501 100.637 301.926 101.469 302.502C98.2781 294.884 97.5133 284.943 90.6607 279.459C88.6247 277.901 85.4543 279.411 85.271 282.026C84.7851 288.285 87.4929 294.383 90.7796 299.622C92.4665 302.124 94.0982 304.069 96.6811 305.56C99.0341 306.967 100.477 305.891 103.156 305.003C105.977 304.437 104.671 300.198 101.937 300.529Z" fill="#FFD0BF"/>
<path d="M86.7373 261.107C85.9694 258.945 86.6443 255.707 86.4233 253.48C86.464 250.544 86.4175 247.844 85.2774 245.276C83.5672 241.425 77.6947 242.472 77.4474 246.673C77.1768 249.524 77.104 253.253 77.5228 256.359C78.0841 259.785 79.7158 261.73 82.1794 264.251C84.3579 266.129 87.7901 263.911 86.7373 261.107Z" fill="#FFD0BF"/>
<path d="M70.3828 215.625C68.1928 202.475 63.0302 191.713 55.5378 180.895C54.2232 178.799 50.4186 180.611 51.0992 183.009C54.1531 195.942 58.5943 207.242 66.8954 217.286C67.8377 218.976 70.6038 217.853 70.3828 215.625Z" fill="#FFD0BF"/>
<path d="M43.6101 143.22C42.534 139.066 40.9663 135.535 38.3923 131.901C36.333 128.993 33.4739 124.717 29.9399 123.679C28.0144 123.235 25.7951 124.292 25.4693 126.586C25.0795 130.466 27.8281 133.628 30.4342 136.47C33.1828 139.632 36.0186 142.559 38.2204 145.787C39.8201 148.525 44.4885 146.495 43.6101 143.22Z" fill="#FFD0BF"/>
<path d="M18.6378 87.8437C17.3087 82.2552 16.8842 73.5137 11.2589 70.3607C8.67611 68.8691 6.05251 70.3134 5.55217 73.0794C4.20248 79.5552 10.421 85.342 13.5651 90.2603C15.3394 92.5259 19.4609 90.5624 18.6378 87.8437Z" fill="#FFD0BF"/>
<path d="M7.07365 52.7175C6.17206 48.0919 4.98544 42.8243 1.28572 40.115C-0.148211 39.0482 -2.13773 40.1905 -2.20174 41.7764C-2.71084 46.6852 0.695091 50.8955 3.26915 54.53C4.35404 56.5407 7.52446 55.0303 7.07365 52.7175Z" fill="#FFD0BF"/>
<path d="M-16.4737 0.551804C-17.7244 -3.12982 -19.292 -6.66042 -21.3193 -10.3609C-23.204 -13.7405 -25.144 -17.677 -28.646 -19.5084C-30.3969 -20.4241 -33.4801 -19.1497 -34.0357 -16.9407C-36.6071 -7.16088 -25.1501 -2.11982 -19.4464 2.9401C-17.8699 4.32779 -15.9909 2.07166 -16.4737 0.551804Z" fill="#FFD0BF"/>
<path d="M-34.486 -40.4469C-34.6837 -41.3248 -34.6197 -42.9107 -34.8175 -43.7886C-35.213 -45.5445 -36.0681 -47.4703 -36.6935 -49.3111C-37.7463 -52.1148 -39.1163 -54.7675 -41.2948 -56.646C-42.6415 -57.9488 -45.4948 -56.5894 -45.4163 -54.6825C-45.5444 -51.5107 -44.4042 -48.943 -43.0343 -46.2903C-42.2345 -44.9215 -41.5219 -43.3167 -40.722 -41.9479C-40.0647 -40.9 -38.6308 -39.8333 -37.9734 -38.7855C-37.0631 -36.3027 -33.6629 -37.7281 -34.486 -40.4469Z" fill="#FFD0BF"/>
<path d="M-42.4872 -67.5492C-44.1567 -74.3366 -45.128 -83.0121 -49.7381 -88.2041C-52.1144 -90.9606 -56.3232 -88.7611 -56.0789 -85.1833C-55.2733 -78.1788 -49.5464 -71.769 -45.6577 -66.0388C-44.628 -64.5851 -42.0917 -65.7934 -42.4872 -67.5492Z" fill="#FFD0BF"/>
<path d="M126.48 277.949C124.945 273.625 123.179 269.216 121.097 264.959C119.529 261.428 117.993 257.105 114.579 255.037C112.915 253.886 110.696 254.943 110.457 257.001C109.75 261.032 112.007 264.817 113.488 268.584C115.34 272.756 117.423 277.014 119.505 281.271C121.818 285.614 128.159 282.593 126.48 277.949Z" fill="#FFD0BF"/>
<path d="M111.412 227.576C110.193 223.101 108.657 218.778 106.083 215.143C104.539 212.963 100.734 214.775 101.328 217.409C102.229 222.035 104.486 225.82 106.973 229.691C108.288 231.786 112.092 229.974 111.412 227.576Z" fill="#FFD0BF"/>
<path d="M95.0018 181.537C93.6959 177.299 92.6431 174.495 89.752 171.011C86.7736 167.764 83.3357 164.347 81.3957 160.41C80.1683 158.079 76.8553 159.268 76.9891 161.732C77.5241 171.587 86.0492 176.081 91.1973 183.35C92.4567 184.888 95.5399 183.614 95.0018 181.537Z" fill="#FFD0BF"/>
<path d="M78.4147 143.749C77.1088 139.51 77.4521 132.93 72.2224 131.533C71.0735 131.108 69.8053 131.713 69.369 132.893C66.9897 137.915 72.0361 141.927 74.2931 145.712C75.98 148.214 79.2377 146.467 78.4147 143.749Z" fill="#FFD0BF"/>
<path d="M64.9717 110.878C63.9275 105.931 62.6537 100.9 58.1773 98.1714C56.5136 97.0197 54.5241 98.162 54.0558 100.135C53.3722 105.516 56.0015 109.707 58.9479 113.747C60.9519 116.098 65.6202 114.069 64.9717 110.878Z" fill="#FFD0BF"/>
<path d="M53.4396 74.9586C52.3314 71.5979 51.5404 68.0862 48.1809 66.5758C47.032 66.151 45.4468 66.9062 45.0105 68.0862C43.6143 71.8622 45.7608 74.5337 47.7328 77.6773C49.5303 81.2928 54.8327 78.9612 53.4396 74.9586Z" fill="#FFD0BF"/>
<path d="M42.8469 48.5072C41.4537 44.5046 39.9733 40.738 37.629 37.1886C35.1422 33.3181 31.3552 30.8448 30.4536 26.2192C29.014 19.5167 30.4422 14.9477 24.564 10.3598C22.5279 8.80221 19.0405 10.4636 19.1742 12.9275C18.9414 20.6211 23.22 22.4714 26.9662 27.8806C29.5403 31.515 29.0632 35.6309 30.052 40.0205C31.1281 44.1741 32.9809 48.3467 35.0081 52.0472C37.9225 56.8805 44.5804 53.7087 42.8469 48.5072Z" fill="#FFD0BF"/>
<path d="M17.1356 -2.04445C16.708 -3.00733 16.5102 -3.88527 16.6295 -4.91424C17.8047 -10.9181 7.5721 -5.84887 12.508 -2.95074C13.3398 -2.37489 13.8547 -1.64801 14.2822 -0.685118C15.6289 0.617614 17.8482 -0.439636 17.1356 -2.04445Z" fill="#FFD0BF"/>
<path d="M15.2104 -23.6807C14.2448 -26.7204 13.0494 -29.8451 11.7667 -32.7337C11.1967 -34.0176 10.4841 -35.6224 9.50971 -36.5192C8.53534 -37.416 7.38643 -37.8408 6.3248 -38.5016C4.89087 -39.5684 2.67158 -38.5111 2.5203 -36.6892C2.45628 -35.1032 1.87744 -34.2442 1.90069 -32.8943C1.92393 -31.5443 2.8663 -29.8546 3.20658 -28.6557C4.40197 -25.531 6.00168 -22.7934 7.60137 -20.0558C10.2859 -15.3074 16.9438 -18.4792 15.2104 -23.6807Z" fill="#FFD0BF"/>
<path d="M8.26769 -42.3437C7.72963 -44.4205 9.29161 -46.5256 8.61103 -48.9234C6.79908 -56.0317 -3.34626 -51.1985 0.684988 -45.1474C1.99964 -43.0517 4.32944 -42.995 5.73136 -41.1353C6.61847 -40.0025 8.52072 -40.9088 8.26769 -42.3437Z" fill="#FFD0BF"/>
<path d="M2.23871 -66.3029C1.95368 -66.9448 1.89842 -67.5018 1.84316 -68.0587C2.73903 -69.0688 2.66054 -70.9757 2.32024 -72.1746C1.46515 -74.1004 0.720548 -74.9122 -0.626115 -76.215C-2.66213 -77.7726 -5.9198 -76.0262 -6.01582 -73.6473C-6.02458 -71.5044 -5.91407 -70.3905 -4.97171 -68.7007C-4.40165 -67.4169 -2.96771 -66.3502 -1.64429 -66.3973C-1.272 -65.9914 -0.986977 -65.3495 -0.614674 -64.9435C0.0979052 -63.3387 2.9513 -64.6981 2.23871 -66.3029Z" fill="#FFD0BF"/>
<path d="M-5.27102 -94.0281C-5.86434 -96.6619 -5.07896 -98.7859 -5.72753 -101.977C-6.74839 -105.573 -8.03105 -108.462 -10.6371 -111.303C-13.3857 -114.466 -18.4584 -112.049 -17.9291 -107.83C-17.455 -104.167 -16.2597 -101.042 -14.2877 -97.8986C-12.6007 -95.397 -10.3029 -94.5474 -8.75848 -92.3667C-7.72885 -90.9129 -4.87548 -92.2722 -5.27102 -94.0281Z" fill="#FFD0BF"/>
<path d="M153.851 260.437C152.117 255.236 153.435 249.553 152.248 244.285C150.919 238.697 147.435 232.58 143.395 228.672C141.303 226.557 138.133 228.067 138.322 231.088C138.755 237.687 142.731 243.181 143.941 249.798C144.756 254.66 144.968 259.031 147.423 263.694C149.68 267.48 155.157 264.676 153.851 260.437Z" fill="#FFD0BF"/>
<path d="M134.341 198.765C133.803 196.689 134.041 194.631 133.733 192.639C133.425 190.647 132.482 188.957 131.627 187.031C130.059 183.501 128.809 179.819 125.394 177.752C123.041 176.345 120.735 177.639 120.004 180.319C119.068 184.265 121.182 187.73 122.75 191.261C123.692 192.95 124.318 194.791 125.49 196.566C126.662 198.341 128.413 199.256 129.585 201.031C131.13 203.212 134.934 201.399 134.341 198.765Z" fill="#FFD0BF"/>
<path d="M115.674 148.94C114.938 145.986 115.209 143.135 114.243 140.095C113.278 137.055 111.82 134.639 109.816 132.288C107.9 129.702 103.461 131.816 104.11 135.007C104.616 137.877 105.581 140.916 106.951 143.569C108.551 146.307 110.817 147.949 112.504 150.451C113.533 151.905 116.07 150.696 115.674 148.94Z" fill="#FFD0BF"/>
<path d="M102.155 106.385C101.079 102.231 99.916 98.3136 98.2057 94.4621C96.5508 91.1675 95.7597 87.6558 92.1705 86.0604C91.0216 85.6356 89.4364 86.3908 89.0001 87.5708C87.8337 91.4317 89.8929 94.3393 91.2308 97.7849C92.941 101.636 95.0555 105.101 97.3998 108.65C98.9443 110.831 102.979 109.104 102.155 106.385Z" fill="#FFD0BF"/>
<path d="M89.3407 67.5768C88.4071 63.7442 88.0756 60.4024 86.5079 56.8718C84.9402 53.3412 83.1108 50.5186 80.8217 47.5261C79.0475 45.2605 75.243 47.0729 75.7491 49.9427C76.4529 53.6904 77.244 57.2021 78.8989 60.4967C80.4666 64.0273 82.7004 66.4628 84.9022 69.6913C86.2168 71.7871 89.7915 69.8897 89.3407 67.5768Z" fill="#FFD0BF"/>
<path d="M73.0184 21.3016C72.6868 17.9599 72.2913 16.204 70.5491 13.1454C68.2921 9.35993 62.3468 14.1365 65.1506 17.8559C65.6654 18.5828 66.1802 19.3097 66.6951 20.0366C68.4693 22.3022 72.2738 20.4898 71.7677 17.62C71.57 16.7421 71.3722 15.8641 71.1744 14.9862C70.2728 10.3606 63.1321 12.0125 64.2083 16.1662C65.0866 19.4419 66.4333 20.7446 68.5798 23.4162C70.2988 25.1248 73.3819 23.8505 73.0184 21.3016Z" fill="#FFD0BF"/>
<path d="M63.3944 -9.88851C62.1757 -14.3631 61.789 -18.2618 58.7553 -22.0662C58.098 -23.1141 56.4895 -23.7088 55.3086 -23.3406C53.2639 -22.7554 52.4 -22.5383 50.7828 -20.9901C49.1656 -19.442 49.4418 -16.6571 51.5098 -15.8925C53.3481 -15.2128 54.3545 -15.1089 56.3992 -15.6942C55.2503 -16.119 54.1014 -16.5438 52.9525 -16.9686C55.0991 -14.2971 57.3881 -11.3046 59.1303 -8.24598C60.0727 -6.5562 64.2175 -7.16976 63.3944 -9.88851Z" fill="#FFD0BF"/>
<path d="M45.0154 -45.6572C44.0818 -49.4899 43.2354 -53.5586 39.8207 -55.626C37.2379 -57.1175 34.3845 -55.7582 33.7969 -52.7562C33.0901 -48.7253 35.5216 -45.4119 37.7234 -42.1834C40.0677 -38.6339 46.1788 -41.7396 45.0154 -45.6572Z" fill="#FFD0BF"/>
<path d="M30.586 -69.5024C32.6075 -71.4376 33.7652 -73.1557 34.2655 -75.9217C34.5593 -77.4226 33.0701 -79.0463 31.7467 -78.9991C29.9637 -79.1218 28.7828 -78.7537 26.9678 -78.0835C23.1081 -76.828 24.0329 -70.8524 27.2498 -69.663C27.7094 -69.493 28.3987 -69.2381 28.8583 -69.0682C29.4051 -69.1343 30.1817 -69.1154 30.586 -69.5024Z" fill="#FFD0BF"/>
<path d="M25.1677 -95.1135C24.7722 -96.8694 24.9787 -98.1343 24.813 -99.8052C24.6472 -101.476 23.3878 -103.015 22.2709 -104.233C20.5839 -106.734 16.1453 -104.62 16.8812 -101.665C17.1342 -100.23 17.3552 -98.0022 18.4721 -96.7844C19.589 -95.5667 20.6506 -94.9058 21.6803 -93.4521C22.7971 -92.2343 25.5633 -93.3576 25.1677 -95.1135Z" fill="#FFD0BF"/>
<path d="M18.8536 -119.714C18.141 -121.319 17.8007 -122.518 16.6838 -123.736C15.5669 -124.954 13.3476 -123.896 13.8304 -122.376C13.9962 -120.706 14.6535 -119.658 15.3661 -118.053C16.2764 -115.57 19.7639 -117.232 18.8536 -119.714Z" fill="#FFD0BF"/>
<path d="M172.132 221.592C169.837 212.964 167.519 202.986 160.524 197.18C158.718 195.707 155.318 197.133 155.134 199.748C154.837 209.027 160.643 217.344 165.474 224.764C167.533 227.671 172.923 225.104 172.132 221.592Z" fill="#FFD0BF"/>
<path d="M157.657 173.853C156.723 170.021 157.77 167.189 154.3 164.564C152.866 163.498 150.647 164.555 150.496 166.377C150.161 170.814 152.689 171.748 155.12 175.062C155.603 176.581 158.052 175.609 157.657 173.853Z" fill="#FFD0BF"/>
<path d="M139.927 120.083C138.478 115.523 137.006 109.614 132.585 107.443C131.437 107.018 129.851 107.773 129.732 108.802C128.446 113.692 131.82 118.695 134.22 122.802C135.907 125.303 140.662 123.038 139.927 120.083Z" fill="#FFD0BF"/>
<path d="M124.558 86.7686C122.604 79.3393 122.092 70.8338 115.611 65.755C113.575 64.1974 110.405 65.7078 110.222 68.3226C109.497 76.6393 115.541 82.8981 119.802 89.0342C121.26 91.4509 125.381 89.4874 124.558 86.7686Z" fill="#FFD0BF"/>
<path d="M107.442 44.7603C105.851 39.8798 104.958 33.1112 99.2366 32.3371C98.2302 32.2333 96.962 32.8374 96.3832 33.6964C93.457 38.7846 97.8373 43.8917 100.15 48.2341C102.692 52.6616 109.032 49.6408 107.442 44.7603Z" fill="#FFD0BF"/>
<path d="M100.726 12.7681C98.3759 3.58293 96.5262 -8.36818 89.4206 -15.2878C86.5847 -18.2142 82.1461 -16.0997 82.4457 -11.965C82.8934 -1.87354 90.7669 7.20785 95.6532 15.1847C97.1977 17.3654 101.319 15.4019 100.726 12.7681Z" fill="#FFD0BF"/>
<path d="M80.6487 -36.7737C80.1339 -37.5006 79.9362 -38.3786 79.4214 -39.1055C76.9113 -44.3258 69.3023 -40.7009 71.4953 -35.3295C71.6931 -34.4516 72.2079 -33.7247 72.4057 -32.8468C74.5987 -27.4754 83.1588 -31.5534 80.6487 -36.7737Z" fill="#FFD0BF"/>
<path d="M80.3316 -36.6227C77.9089 -42.079 78.8543 -48.1678 75.7101 -53.0861C74.538 -54.8609 71.3996 -54.1435 70.9313 -52.1705C69.3518 -45.7796 69.9276 -38.86 72.6354 -32.7617C74.7731 -27.9473 82.6992 -31.7233 80.3316 -36.6227Z" fill="#FFD0BF"/>
<path d="M67.2871 -75.5159C66.179 -78.8765 65.5304 -82.0673 62.4328 -84.2857C60.3968 -85.8433 57.2264 -84.3329 57.0431 -81.718C56.7405 -78.0742 58.3402 -75.3366 60.3122 -72.193C62.767 -67.5296 68.7908 -70.3993 67.2871 -75.5159Z" fill="#FFD0BF"/>
<path d="M56.1533 -96.265C55.4174 -99.2198 55.8305 -101.75 54.7776 -104.553C53.5823 -107.678 52.2996 -110.567 49.7488 -112.851C47.515 -115.287 43.7105 -113.474 44.042 -110.133C44.1438 -106.876 45.3392 -103.751 46.8516 -100.777C48.4513 -98.0398 50.5745 -96.7182 52.0317 -94.3015C53.2039 -92.5268 56.6913 -94.1882 56.1533 -96.265Z" fill="#FFD0BF"/>
<path d="M184.451 170.616C182.331 161.516 180.49 147.422 171.909 142.371C169.556 140.964 167.02 142.173 166.52 144.939C164.55 155.209 174 165.679 179.061 173.183C180.661 175.921 185.187 173.571 184.451 170.616Z" fill="#FFD0BF"/>
<path d="M163.46 126.37C162.844 122.386 163.518 119.148 159.961 116.76C158.068 115.523 155.531 116.731 155.206 119.025C154.554 123.613 157.454 124.954 159.973 128.031C161.232 129.57 163.998 128.447 163.46 126.37Z" fill="#FFD0BF"/>
<path d="M152.672 91.2626C152.245 90.2997 152.134 89.1858 152.024 88.0719C151.762 88.7799 151.73 89.5728 151.381 90.5168C151.468 90.2808 151.785 90.1298 151.873 89.8938C152.856 88.6477 153.094 86.5898 152.294 85.221C151.582 83.6162 150.869 82.0114 150.069 80.6425C147.559 75.4222 139.633 79.1981 141.826 84.5695C142.539 86.1743 143.252 87.7792 143.734 89.299C144.217 90.8189 145.881 91.9706 147.434 92.0083C147.664 92.0933 147.981 91.9423 148.211 92.0272C147.521 91.7723 146.919 91.2814 146 90.9416C146.745 91.7534 147.489 92.5653 147.917 93.5282C149.723 95.0008 153.44 93.4244 152.672 91.2626Z" fill="#FFD0BF"/>
<path d="M145.48 63.3859C145.14 62.187 144.887 60.7521 144.546 59.5532C143.075 53.6437 134.832 57.5707 138.206 62.574C138.863 63.6218 139.75 64.7546 140.407 65.8025C141.864 68.2192 145.986 66.2557 145.48 63.3859Z" fill="#FFD0BF"/>
<path d="M136.35 44.9873C136.097 43.5524 136.359 42.8444 136.336 41.4945C136.312 40.1445 135.6 38.5397 135.347 37.1048C134.611 34.1501 133.439 32.3754 130.452 31.2709C129.073 30.7611 127.258 31.4313 126.647 33.0833C125.6 35.9153 126.138 37.9921 127.738 40.7298C128.395 41.7776 129.337 43.4674 130.312 44.3642C131.286 45.261 131.976 45.5159 132.863 46.6487C133.805 48.3385 136.888 47.0641 136.35 44.9873Z" fill="#FFD0BF"/>
<path d="M128.771 13.2118C127.584 7.94422 126.287 1.56274 121.177 -0.863394C119.426 -1.77909 116.802 -0.334779 116.421 1.40219C114.874 7.00012 118.707 12.1733 121.796 16.5346C123.998 19.7631 129.387 17.1955 128.771 13.2118Z" fill="#FFD0BF"/>
<path d="M116.163 -26.8614C114.627 -31.185 113.385 -37.0095 109.194 -39.0957C106.381 -40.6722 103.758 -39.2279 103.17 -36.226C102.202 -31.4871 105.663 -26.7199 107.603 -22.7833C110.572 -17.393 118.498 -21.169 116.163 -26.8614Z" fill="#FFD0BF"/>
<path d="M106.649 -56.9375C105.573 -61.0912 104.212 -65.8867 99.4971 -66.557C98.4907 -66.6609 97.5396 -66.2078 96.9607 -65.3487C94.1538 -61.2895 97.0129 -57.0131 99.3572 -53.4637C101.384 -49.7631 108.042 -52.935 106.649 -56.9375Z" fill="#FFD0BF"/>
<path d="M97.6385 -76.3648C95.7858 -80.5373 89.2151 -77.6015 90.9806 -73.193C92.8333 -69.0205 99.404 -71.9563 97.6385 -76.3648Z" fill="#FFD0BF"/>
<path d="M96.7748 -76.148C94.7243 -81.1984 93.0228 -87.1928 89.2999 -91.2521C87.8107 -92.8758 84.9573 -91.5165 85.1783 -89.2886C86.0479 -83.87 89.1048 -78.7158 91.385 -73.5804C93.2698 -70.2008 98.3425 -72.6174 96.7748 -76.148Z" fill="#FFD0BF"/>
<path d="M193.689 134.328C192.668 130.731 192.686 126.446 192.069 122.462C191.366 118.714 190.891 115.051 190.188 111.304C188.771 105.951 182.067 106.423 180.924 111.634C180.13 115.901 180.889 120.206 182.282 124.208C183.96 128.853 187.517 131.241 189.917 135.348C191.002 137.358 194.37 136.726 193.689 134.328Z" fill="#FFD0BF"/>
<path d="M180.499 81.6999C180.444 81.143 180.072 80.737 180.017 80.18C179.985 80.973 180.182 81.8509 180.15 82.6439C181.864 78.7169 178.301 70.6928 173.228 73.1094C168.155 75.526 171.948 83.6351 175.712 84.7584C175.11 84.2676 174.595 83.5407 173.993 83.0498C174.365 83.4557 174.42 84.0127 174.793 84.4186C176.59 88.0342 181.98 85.4665 180.499 81.6999Z" fill="#FFD0BF"/>
<path d="M169.223 60.6294C168.63 57.9956 169.503 55.6356 168.767 52.6809C167.976 49.1692 166.233 46.1106 164 43.675C161.536 41.1545 157.415 43.118 157.659 46.6958C157.903 50.2736 159.011 53.6342 161.158 56.3058C162.845 58.8074 165.23 59.421 166.687 61.8377C167.574 62.9705 169.564 61.8283 169.223 60.6294Z" fill="#FFD0BF"/>
<path d="M158.145 19.2445C157.488 18.1966 156.6 17.0638 155.943 16.0159C154.026 13.4294 149.271 15.6949 149.919 18.8857C150.26 20.0846 150.513 21.5195 150.853 22.7183C152.293 29.4208 162.351 24.8236 158.145 19.2445Z" fill="#FFD0BF"/>
<path d="M153.905 1.04379C152.773 -3.6668 151.357 -9.01933 147.197 -11.8986C145.304 -13.1352 142.768 -11.9269 142.442 -9.63301C141.845 -4.48819 144.847 0.109142 147.564 4.06455C149.623 6.9721 154.696 4.55549 153.905 1.04379Z" fill="#FFD0BF"/>
<path d="M141.235 -24.0289C141.267 -24.8218 142.765 -25.341 143.256 -25.9641C143.923 -27.0591 144.042 -28.088 144.248 -29.353C144.4 -31.1749 143.14 -32.7137 141.357 -32.8364C138.425 -33.384 136.895 -32.0718 135.016 -29.8157C132.908 -27.6445 134.88 -24.5009 136.86 -23.5003L136.773 -23.2643C137.858 -21.2535 141.052 -21.414 141.235 -24.0289Z" fill="#FFD0BF"/>
<path d="M135.797 -58.7687C134.997 -60.1375 134.197 -61.5063 132.993 -62.4881C131.504 -64.1118 128.967 -62.9035 129.188 -60.6756C129.354 -59.0047 129.607 -57.5698 130.09 -56.05C131.57 -52.2834 137.824 -55.0682 135.797 -58.7687Z" fill="#FFD0BF"/>
<path d="M210.906 81.4076C209.775 76.697 209.627 70.7404 205.063 68.2481C202.853 67.1625 200.72 67.9838 200.307 70.5137C199.164 75.7246 203.347 79.9538 206.151 83.6732C207.608 86.0899 211.5 84.0414 210.906 81.4076Z" fill="#FFD0BF"/>
<path d="M195.799 47.3852C195.744 46.8282 195.689 46.2713 195.404 45.6294C195.055 46.5734 195.023 47.3663 194.674 48.3103C196.585 45.2612 196.579 39.6255 195.788 36.1138C194.942 32.0451 189.823 31.7619 187.967 35.368C186.603 38.351 186.245 41.4379 186.664 44.5437C187.312 47.7344 189.293 48.7351 191.471 50.6137C194.109 52.6622 196.71 49.868 195.799 47.3852Z" fill="#FFD0BF"/>
<path d="M191.969 13.2406C191.542 12.2777 191.257 11.6358 190.742 10.9089C187.86 5.28258 179.617 9.20958 181.865 15.1379C182.063 16.0159 182.577 16.7428 182.775 17.6207C185.57 23.483 194.765 19.1029 191.969 13.2406Z" fill="#FFD0BF"/>
<path d="M186.033 -5.31832C185.867 -6.98921 186.795 -8.79224 186.344 -11.1051C185.894 -13.4179 184.983 -15.9006 183.898 -17.9114C182.156 -20.97 178.837 -25.4162 174.946 -23.3678C171.141 -21.5553 171.956 -16.6937 172.834 -13.418C173.514 -11.0202 174.512 -8.77346 175.914 -6.91376C177.316 -5.05406 179.384 -4.28943 180.731 -2.98669C182.647 -0.400096 186.452 -2.21254 186.033 -5.31832Z" fill="#FFD0BF"/>
<path d="M173.309 -30.9484C173.253 -31.5054 175.132 -33.7615 175.164 -34.5545C175.426 -35.2625 175.458 -36.0555 175.49 -36.8484C175.729 -38.9064 176.11 -40.6433 175.659 -42.9561C174.955 -46.7039 173.19 -51.1124 168.902 -50.8198C167.032 -50.7065 165.994 -50.0174 165.153 -48.4503C163.876 -45.7033 165.214 -42.2577 165.49 -39.4729C165.743 -38.038 165.822 -36.1311 166.162 -34.9322C166.93 -32.7704 168.998 -32.0057 169.623 -30.1649C170.391 -28.0031 173.617 -28.9566 173.309 -30.9484Z" fill="#FFD0BF"/>
<path d="M227.28 37.8322C226.663 33.8485 226.046 29.8648 225.2 25.7961C224.211 21.4065 222.295 18.8199 218.912 15.9595C216.361 13.675 211.605 15.9406 211.62 19.4334C211.515 23.9552 212.251 26.9099 214.738 30.7804C217.169 34.0938 219.688 37.1713 222.207 40.2488C223.981 42.5144 227.556 40.617 227.28 37.8322Z" fill="#FFD0BF"/>
<path d="M216.928 1.54471C216.731 0.666787 216.303 -0.296126 216.105 -1.17405C215.765 -2.37294 213.959 -3.8456 212.635 -3.79841C210.765 -3.68515 209.901 -3.46804 208.831 -1.98596C207.935 -0.975884 207.697 1.08207 208.496 2.45088C209.011 3.17777 209.439 4.14067 209.954 4.86755C212.179 9.44599 218.519 6.42522 216.928 1.54471Z" fill="#FFD0BF"/>
<path d="M215.748 1.91292C214.125 -2.17463 212.097 -5.87512 210.791 -10.1137C210.253 -12.1905 210.515 -12.8985 210.666 -14.7205C210.754 -14.9565 210.762 -17.0994 210.501 -16.3914C210.469 -15.5984 211.69 -18.9024 211.69 -18.9024C212.508 -21.8194 210.885 -25.9069 207.461 -25.8314C205.132 -25.8881 203.634 -25.3689 201.502 -24.5476C197.784 -22.9712 197.077 -18.9403 198.186 -15.5796C199.491 -11.341 202.359 -9.20753 204.474 -5.74301C206.588 -2.2785 208.473 1.10105 210.588 4.56557C212.243 7.86016 217.228 5.67951 215.748 1.91292Z" fill="#FFD0BF"/>
<path d="M206.007 -36.0269C204.914 -35.8948 203.907 -35.9987 202.758 -36.4235C203.678 -36.0836 204.28 -35.5927 205.199 -35.2529C204.169 -36.7066 204.178 -38.8495 203.235 -40.5393C202.348 -41.6721 201.517 -42.248 200.138 -42.7578C198.529 -43.3525 196.944 -42.5973 195.961 -41.3512C191.886 -36.6879 196.441 -32.0528 200.315 -29.8154C201.836 -28.9847 203.16 -29.0319 204.602 -30.108C205.324 -30.6461 205.958 -30.9482 206.679 -31.4863C208.811 -32.3076 208.654 -36.1213 206.007 -36.0269Z" fill="#FFD0BF"/>
<path d="M251.195 21.1898C249.002 15.8184 247.268 10.6169 243.72 6.08565C242.318 4.22595 238.918 5.65133 239.598 8.04911C240.61 13.7887 243.295 18.537 245.805 23.7574C247.373 27.288 252.445 24.8714 251.195 21.1898Z" fill="#FFD0BF"/>
<path d="M246.207 -11.2367C245.131 -15.3903 244.11 -18.987 240.378 -20.9034C239.087 -21.6492 236.867 -20.5919 236.257 -18.9399C235.145 -14.5219 237.205 -11.6144 239.549 -8.06493C241.608 -5.15737 247.228 -7.64005 246.207 -11.2367Z" fill="#FFD0BF"/>
<path d="M247.452 -13.1913C244.601 -19.6106 234.543 -15.0133 237.624 -8.50911C240.387 -1.85386 250.215 -6.53606 247.452 -13.1913Z" fill="#FFD0BF"/>
</svg>
