<svg width="202" height="175" viewBox="0 0 202 175" fill="none" xmlns="http://www.w3.org/2000/svg">
<path d="M34.3588 24.3708C34.578 24.1516 34.7973 23.7131 35.0166 23.2745C34.578 23.2745 34.1395 23.2745 33.7009 23.2745C33.9202 22.836 34.1395 22.6168 34.1395 22.1783C34.7973 21.7397 35.4552 22.1783 35.8937 21.3012C35.8937 20.8627 35.2359 21.082 35.0166 20.8627C34.7973 20.6435 34.7973 20.4242 34.578 19.9857C35.0166 19.7664 35.2359 19.5472 35.6744 19.5472C36.3323 19.5472 36.5516 19.3279 36.9901 19.1087C37.8673 18.6702 38.5251 18.0124 39.6215 17.3546C39.4022 17.1354 39.4022 16.6968 39.183 16.4776C39.6215 16.2583 40.0601 16.0391 40.2794 15.8198C40.4987 15.8198 40.4987 15.6006 40.7179 15.6006C41.8143 15.8198 42.2529 14.9428 42.6915 14.285C42.9108 14.0658 42.9108 13.8465 43.13 13.8465C44.4457 13.1887 45.7614 13.6273 47.0771 13.408C47.2964 13.408 47.5157 13.6273 47.735 13.6273C48.8314 14.0658 49.7085 13.8465 50.5856 13.1888C51.4628 12.531 52.5592 12.0925 53.6556 12.0925C54.3134 12.0925 54.9713 11.8732 55.4098 11.2154C55.6291 11.2154 55.8484 11.2154 56.287 11.4347C56.9448 10.5577 57.6027 9.68064 58.9183 9.46139C59.5762 9.24213 60.0148 9.02288 60.6726 9.02288C61.9883 8.80362 63.0847 8.14585 64.1811 7.48808C65.7161 6.61106 67.4703 5.73403 69.0053 5.07626C70.1017 4.63774 70.9789 3.97998 72.0753 3.32221C73.1717 2.66444 74.4874 2.00667 75.8031 1.78741C75.8031 2.44518 75.1452 2.66444 74.9259 2.88369C73.8295 3.54147 72.5138 4.19923 71.1981 4.857C70.5403 5.07626 70.1017 5.51477 69.6632 5.95329C68.786 6.61105 67.9089 7.04957 66.8125 7.48808C65.2775 8.14585 63.7426 9.24213 62.4269 10.1192C62.2076 10.1192 62.2076 10.3384 62.2076 10.3384C62.2076 10.7769 62.4269 10.7769 62.6461 10.7769C63.304 10.7769 63.9618 10.7769 64.4004 10.5577C64.4004 10.5577 64.4004 10.5577 64.6197 10.5577C65.9354 10.5577 66.8125 9.68064 67.6896 9.24213C69.2246 8.58436 70.7596 7.70734 72.0753 6.61106C72.2946 6.3918 72.5138 6.3918 72.7331 6.3918C74.2681 5.95329 75.3645 4.63774 76.6802 3.76072C77.1188 3.32221 77.5573 2.8837 78.2152 2.44519C78.873 2.00667 79.3116 1.3489 79.3116 0.471874C79.5309 0.471874 79.7501 0.471874 79.9694 0.471874C80.1887 0.471874 80.408 0.252621 80.408 -0.185894C80.408 -0.624405 80.1887 -0.624409 79.7501 -0.624409C79.9694 -0.843666 79.9694 -1.06292 80.1887 -1.06292C81.2851 -1.72069 82.3815 -2.81697 83.6972 -3.25548C84.7936 -3.694 85.4515 -4.35176 86.5479 -4.57102C86.7672 -4.57102 86.7672 -4.79028 86.7672 -4.79028C87.425 -5.44805 88.0829 -5.88656 89.1793 -5.88656C89.6178 -7.2021 90.9335 -6.98284 91.8107 -7.42135C92.0299 -7.2021 91.8107 -6.98285 91.8107 -6.98285C91.8107 -6.98285 91.8107 -6.98285 91.5914 -6.98285C90.9335 -5.6673 89.6178 -5.00953 88.3021 -4.35176C88.0829 -4.13251 87.8636 -3.91325 87.6443 -3.694C87.2057 -3.47474 86.9865 -3.03622 86.5479 -3.03622C86.1093 -2.81697 85.6708 -2.37846 85.4515 -2.1592C85.2322 -1.93995 84.7936 -1.50143 84.7936 -0.843662C85.0129 -0.843662 85.0129 -0.624409 85.2322 -0.624409C86.1093 -0.624409 86.9865 -1.06292 87.6443 -1.50143C88.7407 -2.59771 90.0564 -3.25548 91.3721 -4.13251C92.2492 -4.79028 93.1264 -5.22879 94.0035 -5.6673V-5.44805C94.0035 -5.44805 94.2228 -5.44805 94.442 -5.44805C94.442 -5.44805 94.442 -5.44805 94.442 -5.6673L94.2228 -5.88656H94.0035C94.2228 -6.10582 94.2228 -6.32507 94.442 -6.32507C95.3192 -6.54433 95.977 -7.2021 96.4156 -7.85987C96.8541 -8.51764 97.2927 -8.95615 97.7313 -9.17541C98.1698 -9.39466 98.6084 -9.83318 99.047 -10.2717C99.047 -10.2717 99.047 -10.4909 99.2662 -10.7102C99.047 -10.7102 98.8277 -10.7102 98.6084 -10.7102C97.7313 -10.2717 96.8541 -10.0524 96.1963 -9.61392C95.977 -9.39466 95.5385 -9.17541 95.3192 -8.95615C94.6613 -8.29838 93.7842 -7.85987 92.9071 -7.64061H92.6878C92.9071 -8.29838 93.7842 -8.29838 94.0035 -8.95615C94.2228 -9.17541 94.442 -9.39466 94.442 -9.39466C94.2228 -10.0524 94.6613 -10.2717 95.0999 -10.4909C96.1963 -10.7102 96.8541 -11.368 97.7313 -12.0257C97.9505 -12.245 98.3891 -12.4643 98.6084 -12.4643C98.8277 -12.4643 99.047 -12.6835 99.047 -12.9028C99.7048 -13.7798 100.582 -14.4376 101.678 -14.8761C102.117 -15.0953 102.555 -15.5338 102.994 -15.7531C103.213 -15.9724 103.433 -15.7531 103.652 -15.7531C103.871 -15.7531 104.31 -15.9724 104.529 -15.9724C104.09 -15.5338 103.871 -15.0953 103.433 -14.8761C103.871 -14.2183 104.09 -13.999 104.31 -14.2183C104.968 -14.4376 105.406 -14.8761 106.064 -15.3146C106.503 -15.5338 106.722 -15.9724 107.38 -15.9724C107.38 -15.9724 107.599 -15.9724 107.599 -16.1916C108.257 -16.8494 108.915 -17.5072 109.792 -17.9457C110.23 -18.8227 110.888 -18.8227 111.765 -18.8227C111.985 -19.4805 111.546 -19.2612 111.327 -19.4805C111.985 -19.919 112.423 -20.3575 113.081 -20.5767C113.52 -20.796 113.958 -21.0153 114.397 -20.796C114.616 -20.796 114.835 -20.796 115.055 -21.0153C115.274 -21.4538 115.932 -21.673 116.151 -22.1115C116.37 -22.3308 116.59 -22.55 117.028 -22.3308C116.151 -22.1115 116.151 -22.1115 115.932 -21.8923C115.493 -21.2345 115.712 -20.796 116.37 -20.3575C117.028 -21.0153 117.905 -21.4538 118.563 -22.1115C119.44 -22.9886 120.317 -23.2078 121.633 -22.9886C122.072 -22.7693 122.51 -22.9886 122.729 -23.4271C122.729 -23.6463 122.729 -23.8656 122.729 -24.0848C122.51 -24.0848 122.291 -24.0848 122.291 -24.0848V-24.3041C122.51 -24.5234 122.729 -24.7426 122.949 -24.7426C123.387 -24.9619 123.607 -25.1811 124.045 -25.4004C124.484 -25.8389 125.142 -26.2774 125.799 -26.4967C126.457 -26.7159 126.896 -26.9352 127.554 -27.1544C128.211 -27.3737 128.431 -28.0315 128.869 -28.47C129.308 -28.6892 129.746 -29.1277 130.185 -29.1277C131.062 -29.347 131.72 -30.0048 132.159 -30.6625C133.036 -29.7855 133.255 -29.7855 133.913 -30.6625C133.913 -30.8818 134.132 -30.8818 134.132 -30.8818C134.132 -30.8818 134.132 -30.6625 134.351 -30.6625L134.571 -30.8818C135.009 -31.3203 135.448 -31.5396 135.886 -31.9781C136.544 -32.4166 137.202 -32.4166 137.86 -32.4166C138.079 -32.4166 138.298 -32.1973 138.298 -31.9781C138.518 -31.7588 138.737 -31.3203 138.956 -30.8818C138.737 -30.4433 138.737 -30.0048 138.518 -29.5663C138.518 -29.347 138.737 -28.9085 139.176 -29.1277C139.395 -29.1277 139.395 -29.1277 139.614 -29.347C140.272 -29.7855 140.93 -30.224 141.368 -30.6625C141.807 -31.3203 142.465 -31.5396 143.123 -31.3203C144 -31.9781 144.658 -32.6358 145.754 -32.8551C146.631 -33.7321 147.947 -34.1706 148.824 -35.2669C148.824 -35.0477 149.043 -34.8284 149.043 -34.6092C149.263 -34.3899 149.482 -34.3899 149.92 -34.1706C150.578 -34.3899 151.236 -34.8284 151.894 -35.0477C152.113 -34.8284 152.113 -34.6092 152.333 -34.3899C152.552 -34.1706 152.99 -33.9514 153.21 -34.1706C153.429 -34.8284 153.648 -35.2669 154.306 -35.0477C153.648 -34.1706 152.771 -33.5129 151.675 -33.2936C150.578 -33.0744 149.701 -32.4166 148.824 -31.9781C148.605 -31.7588 148.166 -31.5396 148.166 -31.3203C147.947 -30.4433 147.508 -30.224 146.85 -30.0048C145.973 -29.5663 145.096 -28.9085 144.877 -27.5929C144.877 -27.1544 145.096 -26.9352 145.535 -26.9352C146.193 -26.9352 146.631 -27.1544 147.289 -27.1544C147.508 -27.3737 147.728 -27.8122 147.947 -28.0315C148.605 -29.1277 149.701 -29.5663 151.017 -29.5663C151.236 -29.5663 151.675 -29.5663 151.894 -29.7855C152.113 -30.0048 152.113 -30.224 152.333 -30.6625C152.333 -30.8818 152.333 -30.8818 152.333 -31.1011C152.552 -31.1011 152.552 -31.1011 152.771 -31.1011C153.648 -30.6625 154.306 -31.101 154.964 -31.7588C155.183 -31.9781 155.183 -32.1973 155.402 -32.4166C155.622 -32.6358 155.622 -32.8551 155.841 -32.8551C157.157 -33.2936 157.376 -34.8284 158.253 -35.4862V-35.9247C158.253 -35.9247 157.815 -36.1439 157.815 -35.9247C157.376 -35.7054 156.937 -35.4862 156.718 -35.0477C156.499 -34.8284 156.28 -34.6092 156.06 -34.3899C155.622 -34.8284 155.183 -35.0477 154.964 -35.4862C155.841 -36.1439 156.937 -36.5825 157.595 -37.4595C157.376 -37.4595 157.815 -37.6787 158.034 -37.6787C158.692 -38.1173 159.35 -38.5558 160.007 -38.775C160.446 -38.9943 160.665 -39.4328 161.323 -39.2135L161.762 -39.4328C161.981 -39.8713 162.2 -40.5291 162.419 -40.9676C162.639 -41.1868 163.077 -41.1868 163.297 -41.4061C163.735 -41.8446 163.735 -42.2831 163.954 -42.7216C164.393 -42.7216 164.832 -42.9409 165.051 -43.1602C165.051 -42.7216 165.27 -42.2831 165.051 -41.8446C164.832 -40.9676 165.27 -40.3098 165.928 -39.4328C166.367 -38.775 166.805 -38.3365 167.244 -37.6787C167.682 -37.6787 168.121 -37.6787 168.34 -38.1173C168.779 -38.775 169.217 -39.4328 169.875 -40.0906C170.533 -40.0906 170.533 -39.2135 170.971 -38.9943C171.41 -38.9943 171.849 -38.9943 172.506 -38.9943C172.726 -38.1173 173.164 -37.4595 172.506 -36.5825C172.287 -36.3632 172.506 -36.1439 172.287 -35.9247C172.945 -35.4862 173.603 -35.7054 174.041 -35.7054C174.261 -35.4862 174.48 -35.2669 174.699 -35.0477C175.138 -33.9514 176.234 -33.9514 177.111 -34.1706C177.769 -34.3899 178.646 -34.3899 179.304 -34.3899C179.743 -34.3899 180.401 -34.6092 180.62 -34.8284C181.278 -35.4862 181.936 -35.9247 182.155 -36.8017C182.374 -37.4595 183.251 -38.1173 183.69 -38.5558C185.006 -38.5558 185.225 -37.4595 186.102 -37.021C185.663 -36.8017 185.225 -36.3632 185.006 -36.1439C185.006 -35.7054 185.225 -35.2669 184.567 -34.8284C184.348 -34.6092 184.348 -34.3899 184.567 -33.9514C184.786 -33.5129 185.006 -33.5129 185.444 -33.5129C185.883 -33.5129 186.102 -33.7321 186.54 -33.7321C187.418 -33.9514 187.856 -34.3899 188.295 -35.0477C188.514 -35.4862 188.733 -35.7054 188.953 -35.9247C189.391 -36.3632 189.391 -36.8017 189.83 -37.4595C190.268 -37.6787 190.707 -37.6787 191.365 -37.898C191.365 -38.775 192.023 -39.4328 192.9 -39.6521C193.338 -39.6521 193.558 -39.8713 193.996 -40.0906C195.092 -40.5291 195.312 -40.7483 195.531 -42.0639C195.092 -42.5024 194.654 -42.7216 193.996 -43.1602C194.215 -43.8179 194.215 -44.4757 194.435 -44.9142C193.996 -45.3527 193.558 -45.572 193.119 -45.7912C192.68 -46.0105 192.023 -46.2297 191.584 -46.449C190.926 -46.6683 190.488 -46.6683 189.61 -46.8875C189.391 -47.1068 189.172 -47.326 188.953 -47.326C188.733 -47.5453 188.514 -47.5453 188.295 -47.7645C188.295 -48.2031 188.295 -48.6416 188.075 -49.0801C188.953 -49.2993 189.83 -49.2993 190.488 -48.6416C190.488 -48.6416 190.707 -48.4223 190.926 -48.4223C191.584 -48.6416 192.023 -48.2031 192.461 -47.7645C192.68 -47.5453 193.119 -47.5453 193.338 -47.326C193.996 -47.326 194.654 -47.1068 195.312 -47.1068C195.531 -47.1068 195.75 -47.1068 195.97 -47.1068C196.627 -47.326 197.285 -47.1068 197.943 -47.1068C198.382 -47.1068 198.601 -46.8875 199.04 -46.449C199.04 -46.0105 198.82 -45.572 198.82 -45.3527C198.82 -45.1335 199.259 -44.9142 199.478 -44.6949C199.478 -44.4757 199.259 -44.4757 199.259 -44.2564C198.82 -43.8179 198.601 -43.5987 199.04 -42.9409C199.259 -43.1602 199.478 -42.7216 199.478 -42.2831C199.478 -41.4061 199.259 -40.7483 199.259 -39.8713C199.478 -39.6521 200.136 -39.4328 200.136 -38.775C200.136 -38.5558 200.355 -38.3365 200.575 -38.3365C201.232 -38.1173 201.671 -37.6787 201.89 -37.2402C202.11 -37.021 202.329 -36.8017 202.548 -37.021C202.987 -37.021 202.987 -37.4595 202.987 -37.6787C202.987 -37.898 202.987 -38.3365 202.767 -38.5558C202.767 -38.775 202.767 -38.9943 202.548 -39.4328C203.645 -39.8713 204.302 -39.4328 205.179 -38.9943C205.618 -38.775 205.837 -38.3365 206.276 -37.898C206.276 -37.2402 206.276 -37.2402 207.153 -36.3632C208.469 -37.021 209.784 -37.6787 211.1 -38.5558C211.319 -38.5558 211.758 -38.3365 211.977 -38.3365C212.854 -38.1173 213.074 -38.3365 213.512 -38.9943C213.512 -39.2135 213.731 -39.4328 213.731 -39.6521C214.389 -39.6521 215.266 -39.6521 215.705 -40.7483C215.924 -40.3098 215.924 -40.0906 215.924 -40.0906C215.705 -39.2135 215.705 -38.1173 215.047 -37.2402C214.828 -37.021 214.828 -36.8017 214.828 -36.5825C214.389 -35.4862 214.389 -34.6092 214.828 -33.5129C214.828 -33.0744 215.266 -32.8551 215.486 -32.4166C215.266 -31.3203 214.828 -30.4433 214.17 -29.5663C213.731 -28.9085 213.293 -28.0315 213.074 -27.3737C212.854 -26.4967 212.635 -25.8389 211.977 -25.1811C211.758 -24.9619 211.539 -24.5234 211.539 -24.0848C211.319 -23.2078 211.977 -22.3308 211.977 -21.4538C211.977 -21.0153 212.416 -20.5767 213.074 -20.1382L213.293 -19.919C213.512 -18.8227 213.293 -17.9457 213.074 -16.8494C213.074 -16.4109 212.635 -15.9724 212.197 -15.7531C211.758 -15.5338 211.319 -15.3146 210.662 -14.8761C209.565 -14.2183 208.907 -13.3413 208.907 -12.0257C208.907 -11.8065 208.907 -11.8065 208.907 -11.5872C208.907 -11.5872 208.907 -11.5872 208.907 -11.368C209.346 -11.1487 209.784 -10.7102 210.223 -10.4909C209.784 -9.83318 209.346 -9.39466 209.127 -8.95615C209.127 -8.29838 209.784 -8.29838 210.004 -7.85987C210.004 -7.64061 209.784 -7.64061 209.784 -7.42135V-7.64061C209.565 -7.42136 209.127 -7.42135 208.907 -7.42135C208.688 -7.42135 208.688 -7.42135 208.469 -7.42135C208.469 -7.2021 208.469 -7.2021 208.469 -6.98285C208.249 -6.32507 207.592 -6.54433 207.372 -5.88656C207.372 -5.6673 207.372 -5.22879 207.811 -5.00954C208.469 -4.79028 208.907 -5.00953 209.565 -5.22879C209.784 -5.44805 209.784 -5.44805 210.004 -5.6673C210.442 -6.54433 211.1 -7.42136 211.539 -8.07912C211.977 -8.7369 212.635 -9.17541 213.293 -9.61392C213.731 -9.83318 214.17 -9.83318 214.609 -9.61392C214.828 -9.61392 214.828 -9.83318 215.047 -9.83318L215.266 -9.61392C215.047 -8.51764 215.705 -7.85987 215.924 -6.98285C215.705 -6.76359 215.705 -6.76358 215.486 -6.54433C215.047 -6.32507 215.266 -5.88656 215.266 -5.44805C214.828 -5.22879 214.389 -5.22879 214.17 -4.57102C214.17 -4.57102 213.951 -4.57102 213.951 -4.35176C213.951 -4.35176 213.951 -4.35176 214.17 -4.35176C214.17 -4.35176 214.17 -4.57102 214.389 -4.57102C214.609 -4.57102 214.828 -4.35176 215.047 -4.35176C214.828 -4.13251 214.609 -3.91325 214.389 -3.694C214.17 -3.47474 214.17 -3.25549 214.17 -2.81697C214.17 -2.37846 214.17 -1.72069 213.512 -1.50143C213.293 -1.28218 213.074 -1.06292 213.074 -0.843662C213.293 -0.405148 213.512 0.0333595 213.951 0.471874C213.951 0.471874 213.731 0.471874 213.731 0.691132V0.471874C213.951 0.471874 213.951 0.471874 214.17 0.691132C214.389 0.910389 214.609 0.910385 214.828 0.471874C214.828 0.471874 215.047 0.471878 215.047 0.252621C215.047 0.471878 214.828 0.910389 214.828 1.12965C214.609 1.3489 214.389 1.56816 214.389 1.78741C214.828 2.66444 214.828 2.66444 214.389 3.32221C214.17 3.76072 214.17 4.41849 213.731 4.63775C213.512 4.85701 213.951 5.51477 214.17 5.29552C214.609 5.07626 215.266 5.29552 215.486 5.51477C215.486 5.73403 215.486 6.17254 215.486 6.3918C215.266 6.3918 215.266 6.3918 215.047 6.3918C214.609 6.17254 214.17 5.95329 213.731 6.61106C213.731 6.83031 213.951 6.83031 213.951 7.26883C213.512 7.48808 213.074 7.70734 212.416 7.92659C212.416 8.58437 212.854 8.80362 213.074 9.02288C213.074 9.24213 213.074 9.68065 213.074 9.8999C213.074 10.1192 212.854 10.1192 212.854 10.1192C212.197 10.5577 211.977 11.4347 211.977 12.3117C211.977 12.7502 212.635 12.9695 212.854 12.7502C213.512 12.0925 214.609 12.0925 215.486 11.8732C215.924 11.654 215.924 10.5577 217.021 10.5577C217.021 11.4347 216.801 12.0925 215.924 12.531C216.144 13.408 217.459 12.7502 217.459 13.6273C216.801 13.8465 216.144 13.8465 215.705 13.408C215.486 13.1888 215.047 13.1887 215.047 13.6273C215.266 13.8465 215.486 14.0658 215.705 14.5043C215.924 14.7235 215.924 14.9428 216.144 14.9428C217.24 14.9428 217.898 16.0391 218.994 16.2583C219.214 16.2583 219.433 16.6968 219.214 16.9161C218.775 17.1354 218.556 17.3546 218.336 18.0124C218.336 18.2316 218.117 18.6702 217.898 18.8894C218.994 19.5472 220.31 20.2049 221.626 20.2049C221.845 20.2049 222.064 20.205 222.283 19.9857C222.941 19.5472 223.818 19.1087 224.476 18.8894C224.696 18.6702 224.915 18.6702 225.134 18.4509C225.792 17.7931 226.45 17.7931 227.108 18.4509C227.327 18.6702 227.766 19.1087 228.204 19.5472C228.204 19.7664 228.204 20.205 227.985 20.6435C228.204 20.8627 228.423 20.8627 228.643 21.082C230.178 19.3279 231.713 17.3546 233.467 15.6006C233.905 16.0391 234.344 16.4776 234.783 16.9161C235.221 16.4776 235.879 16.0391 236.098 15.8198C236.318 15.8198 236.318 15.8198 236.537 15.8198C236.975 16.2583 237.195 16.4776 237.633 16.9161C238.072 17.3546 238.51 16.9161 238.949 17.3546C239.168 17.5739 239.826 17.3546 240.265 17.5739C240.484 18.0124 240.265 18.4509 240.265 19.1087C240.265 19.5472 240.045 19.9857 240.045 20.4242C240.045 21.3012 239.826 21.959 239.168 22.6168C238.51 24.3708 237.195 25.4671 236.098 26.7826C235.879 27.0019 235.66 27.2212 235.66 27.6597C235.66 28.5367 235.44 29.1945 234.783 29.8522C234.783 29.8522 234.783 30.0715 234.563 30.0715C234.125 30.7293 234.344 31.387 235.002 31.6063C235.221 31.6063 235.44 31.8255 235.66 31.8255C235.66 32.0448 235.44 32.0448 235.44 32.264C235.66 32.9218 235.66 33.5796 235.44 34.0181C235.879 34.6759 236.537 35.3336 236.975 35.9914C237.633 35.9914 238.291 35.9914 239.168 36.4299C239.168 36.6492 239.168 36.8684 238.949 37.0877C238.73 37.307 238.291 37.7455 238.072 37.9647C237.633 38.4032 237.414 38.8418 237.414 39.2803C237.633 39.4995 237.852 39.7188 238.291 39.938C238.072 40.3765 237.853 40.5958 237.853 40.815C237.853 41.2536 238.73 41.9113 239.168 41.9113C239.387 41.9113 239.607 41.9113 239.607 41.6921C240.045 41.0343 240.922 41.0343 241.58 41.2536C242.019 41.4728 242.677 41.4728 243.115 41.6921C243.335 41.4728 243.773 41.2536 243.992 41.0343C244.65 41.2536 244.87 41.6921 245.089 41.9113C245.089 42.3498 244.65 42.3499 244.431 42.5691C243.773 43.2269 243.335 43.8846 242.238 43.8846C242.019 43.8846 241.8 44.1039 241.58 44.3232C241.142 44.7617 240.703 44.9809 240.265 45.4194C240.045 45.6387 239.826 46.0772 239.607 46.2965C239.607 46.9542 240.484 46.735 240.045 47.3927C240.265 47.3927 240.265 47.612 240.484 47.612C241.142 47.612 241.8 47.3928 242.238 46.9542C243.335 46.2965 244.212 45.6387 245.527 45.4194C246.843 45.2002 247.939 44.5424 249.036 43.6654C249.474 43.4461 249.913 43.2269 250.352 43.0076C251.009 42.7884 251.448 42.7884 252.106 42.5691C252.544 42.3499 252.764 42.3499 253.202 42.3499C253.202 42.5691 252.983 42.7884 253.202 42.7884C253.86 43.4461 254.079 44.5424 255.176 44.9809C255.834 44.9809 256.491 44.9809 256.711 44.3232C256.93 43.6654 256.93 43.2269 256.053 42.3499C256.491 42.1306 256.711 41.9113 257.149 42.3499C257.369 42.5691 257.588 42.7884 257.807 42.7884C258.026 43.0076 258.246 43.2269 258.465 43.4461C258.465 43.8847 258.465 44.3232 258.465 44.7617C258.465 45.2002 258.465 45.6387 258.904 46.0772C259.123 46.2965 259.123 46.5157 259.342 46.735C259.781 47.612 260 48.489 260 49.5853C259.781 51.1201 259.561 52.6549 259.123 53.9704C258.684 55.5052 258.465 56.8208 258.246 58.3556C258.026 59.0133 257.807 59.6711 257.588 60.3289C256.93 61.6444 256.491 62.96 255.834 64.2755C255.395 65.591 254.518 66.9066 254.079 68.0029C253.202 69.7569 251.887 71.0724 250.79 72.6072C250.132 73.7035 249.255 74.7998 248.817 75.8961C248.159 77.2116 247.062 78.3079 246.185 79.4042C245.089 80.5005 244.431 81.5968 243.773 82.9123C243.773 83.1315 243.554 83.1315 243.554 83.3508C243.335 84.6663 243.335 84.6663 242.677 85.5434C242.677 85.7626 242.896 85.9819 242.896 85.9819C243.115 86.4204 243.115 86.8589 242.677 87.2974C242.238 87.7359 241.8 88.3937 241.58 89.0515C241.361 89.49 241.361 89.7092 241.58 90.1478C241.8 90.5863 241.58 91.0248 241.361 91.244C240.922 91.6825 240.703 92.1211 240.265 92.5596C239.387 93.4366 238.291 94.3136 237.195 94.7522C236.975 94.7522 236.975 94.9714 236.756 94.9714C235.879 95.1907 235.221 95.8484 234.563 96.2869C233.905 96.9447 233.028 97.3832 232.37 98.041C231.274 98.918 230.178 99.5758 229.52 100.672C228.423 101.111 227.985 101.988 227.108 102.645C226.231 103.303 225.573 103.961 224.915 104.619C223.818 105.715 222.722 106.811 221.626 107.908C220.749 108.785 219.652 109.662 218.775 110.758C218.556 111.196 217.898 111.196 217.679 111.854C217.459 112.293 217.021 112.731 216.582 113.17C216.144 113.608 215.924 114.047 215.486 114.485C215.266 114.704 215.047 114.924 214.828 115.143C213.731 116.02 213.074 117.116 212.197 117.993C210.442 121.282 208.03 122.817 206.057 124.79C204.741 125.887 203.425 126.983 202.11 128.079C201.89 128.737 201.013 128.737 200.575 129.395C200.355 130.052 199.478 130.272 199.04 130.71C198.601 131.149 197.943 131.587 197.505 132.026C197.066 132.464 196.627 132.903 196.408 133.341C195.75 134.438 194.873 135.315 193.996 135.972C192.68 137.069 191.584 138.165 190.268 139.042C190.268 139.919 190.049 140.577 189.391 141.015C188.075 142.112 186.76 143.427 185.444 144.523C185.225 144.523 185.225 144.743 185.006 144.743C183.69 145.839 182.155 146.935 180.839 148.031C179.743 148.908 178.646 149.785 177.55 150.443C177.111 150.443 177.111 150.882 176.892 151.101C176.673 150.882 176.673 150.882 176.454 151.101C176.454 151.32 176.454 151.32 176.454 151.54C174.919 152.855 173.384 153.951 171.629 155.267C169.656 156.802 167.902 158.556 165.709 159.871C165.27 160.091 164.832 160.748 164.393 161.187C163.954 161.625 163.735 161.845 163.297 162.064C162.858 162.502 162.2 162.722 161.542 163.16C160.227 164.256 158.692 165.133 157.157 166.23C155.841 167.107 154.525 168.203 153.21 169.08C152.333 169.738 151.455 170.396 150.359 170.834C149.92 171.053 149.263 171.273 148.824 171.492C148.605 171.711 148.166 171.711 148.166 171.93C147.947 172.588 147.508 172.588 147.07 172.807C146.193 173.246 146.193 173.246 145.754 172.15C145.973 171.711 146.412 171.492 146.631 171.053C147.07 170.396 147.728 170.176 148.605 170.176C148.824 170.176 149.263 170.176 149.482 169.957C150.578 169.08 151.455 168.422 152.333 167.545C152.333 167.545 152.333 167.545 152.552 167.326C152.552 166.888 152.552 166.668 152.333 166.23C152.113 166.23 152.113 166.23 151.894 166.23C150.14 167.107 148.605 167.984 146.85 168.861C145.754 169.519 144.658 169.738 143.561 170.396C142.684 170.834 141.807 171.273 140.93 171.711C140.491 171.93 140.272 171.93 139.833 172.15C139.833 171.93 139.833 171.93 139.833 171.711C139.833 171.492 139.833 171.273 139.614 171.273C139.395 171.053 139.176 171.053 138.956 171.053C138.737 171.053 138.518 171.273 138.298 171.273C137.202 171.711 136.325 172.15 135.009 171.711C135.009 171.93 134.79 172.369 134.79 172.588C133.255 173.246 131.72 173.904 129.966 174.781C129.746 175 129.308 175 128.869 175C128.431 175 128.211 174.781 127.773 174.781C127.554 174.781 127.115 175 126.676 175C126.896 174.781 126.896 174.561 126.896 174.342C127.115 173.904 127.334 173.684 127.115 173.246C126.896 173.027 126.896 172.588 127.115 172.369C127.773 171.711 127.554 171.273 127.334 170.615C127.334 170.396 127.334 170.176 127.115 169.957C126.676 169.519 126.019 169.519 125.361 169.299C125.142 169.299 124.922 169.299 124.703 169.519C124.045 169.738 123.607 169.957 123.168 170.396C122.949 170.396 122.51 170.615 122.291 170.615C121.852 170.615 121.852 170.615 121.414 169.738C122.072 169.08 122.51 168.422 122.072 167.545C121.633 166.668 121.194 165.791 119.879 166.01C120.537 165.572 120.756 165.353 120.975 164.914C121.414 164.256 121.194 163.599 120.537 163.599C119.879 163.599 119.002 163.599 118.344 164.037C117.686 164.256 117.247 164.695 116.59 165.133C116.37 165.133 116.151 165.133 115.712 164.914C115.712 164.695 115.493 164.695 115.493 164.695C115.712 163.818 115.712 163.16 115.932 162.283C115.055 162.064 114.616 161.406 114.397 160.529C114.397 160.31 114.397 159.871 114.616 159.871C115.055 159.433 115.055 158.775 115.055 158.117C114.835 157.898 114.616 157.679 114.397 157.459C112.423 157.898 110.669 158.556 108.915 159.433C108.476 159.652 107.818 160.091 107.38 160.31C107.16 160.091 107.16 159.871 107.38 159.871C107.818 159.652 108.038 159.433 108.476 159.214C109.134 158.775 109.573 158.337 109.573 157.679C109.353 157.459 109.134 157.021 108.915 156.802C108.915 156.582 108.915 156.144 109.134 155.925C109.573 155.486 109.573 155.048 109.353 154.609C109.353 154.39 109.353 154.171 109.353 153.951C109.792 153.732 110.23 153.294 110.45 153.074C110.888 152.855 111.107 152.417 111.107 151.978C111.107 151.54 110.888 151.32 110.45 150.882C109.792 151.101 109.134 151.32 108.915 151.978C108.695 152.636 108.038 153.074 107.38 153.074C106.503 153.074 106.064 153.732 105.845 154.39C105.406 154.609 105.187 154.609 104.748 154.828C104.31 154.828 104.09 155.048 103.652 155.486C103.213 155.925 102.775 156.144 102.117 156.363C100.582 157.24 99.047 157.898 97.512 158.775C97.0734 158.994 96.8541 159.433 96.4156 159.652C95.977 159.871 95.7577 160.31 95.3192 160.091C95.0999 160.091 94.8806 160.31 94.8806 160.31C94.2228 161.406 92.9071 161.845 92.0299 162.502C90.495 163.599 88.96 164.476 87.425 165.353C86.9865 165.572 86.5479 166.01 86.1093 166.449C85.89 166.668 85.4515 167.107 85.2322 167.326C85.0129 167.545 84.7936 167.545 84.7936 167.984C84.7936 168.203 84.5743 168.422 84.3551 168.422C83.6972 168.642 82.8201 168.861 81.943 169.08C81.0658 169.299 80.408 169.519 79.7501 169.957C79.3116 170.176 78.873 170.615 78.2152 170.615C78.2152 170.396 78.2152 170.176 78.4344 169.738C77.1188 169.299 76.0223 168.861 74.7066 169.738C74.4874 169.519 74.0488 169.299 73.8295 169.08C73.391 169.08 72.9524 169.299 72.7331 169.519C72.5138 169.738 72.0753 169.738 71.856 169.519C71.4174 169.299 71.1981 169.299 70.7596 169.519C70.1017 169.738 69.6632 169.957 69.0053 169.738C68.5668 169.299 68.5668 168.861 68.786 168.422C69.0053 167.545 69.0053 166.888 68.5668 166.01C68.3475 165.572 68.3475 165.133 68.5668 164.476C69.0053 163.379 68.786 163.16 67.9089 162.502C67.6896 162.283 67.2511 162.064 67.0318 162.283C66.5932 162.283 66.1547 162.502 65.9354 162.722C65.7161 162.722 65.4968 162.941 65.2775 163.16C63.9618 163.818 63.7425 163.379 63.304 162.722C63.5233 162.283 63.5233 162.283 63.304 162.064C61.9883 161.625 60.8919 161.625 59.7955 162.502C59.5762 162.722 59.3569 162.722 59.1376 162.722C58.2605 162.722 57.6027 162.941 56.7255 163.16C55.6291 163.599 54.752 163.599 53.8749 162.722C53.4363 162.502 53.217 162.283 52.5592 162.283C52.1206 162.283 51.9013 161.845 52.1206 161.406C52.3399 160.748 52.7784 160.091 53.217 159.652C53.4363 159.214 53.4363 158.775 53.217 158.337C52.9977 157.898 52.9977 157.459 52.9977 157.021C52.7785 156.144 52.3399 155.705 51.4628 155.705C50.5856 155.705 49.9278 155.925 49.0507 155.925C48.6121 155.925 48.3928 155.925 47.9542 155.925C47.2964 155.705 46.4193 155.705 45.7614 155.705C45.5421 155.705 45.1036 155.705 44.665 155.486C43.7879 154.828 42.9108 154.609 42.2529 153.732C41.8143 153.294 41.3758 152.855 40.7179 152.855C40.4987 152.855 40.2794 152.636 40.0601 152.417C39.6215 151.32 39.8408 150.443 40.4987 149.786C40.7179 149.347 40.9372 148.908 41.1565 148.47C41.3758 148.031 41.8143 147.593 42.2529 147.374C42.6915 146.935 42.9108 146.497 43.13 145.62C41.8144 145.62 40.4987 145.181 39.4022 146.277C38.9637 146.277 38.7444 146.058 38.5251 146.058C38.5251 145.62 38.5251 145.4 38.5251 145.181C38.5251 144.523 38.7444 143.866 38.5251 143.208C38.3058 142.55 38.5251 142.112 38.7444 141.454C39.8408 139.7 41.1565 138.165 42.2529 136.411C42.4722 135.972 43.13 135.753 43.3493 135.315C43.7879 134.876 43.7879 134.438 43.13 134.218C42.9108 133.999 42.4722 133.999 42.2529 133.999C40.9372 134.876 40.4987 136.63 38.9637 137.288C38.7444 136.849 38.3058 136.411 38.0866 135.972C37.8673 136.192 37.648 136.192 37.4287 136.411C36.5516 137.288 35.8937 138.165 35.0166 138.823C34.578 139.261 34.3588 139.7 34.578 140.357C34.578 140.796 34.578 141.015 34.578 141.454C34.578 141.673 34.578 141.892 34.7973 142.112C35.0166 142.55 34.7973 142.769 34.578 143.208C34.3588 143.427 33.9202 143.427 33.7009 143.208C33.2623 142.769 32.8238 142.55 32.3852 142.112C32.6045 141.234 32.1659 140.577 32.6045 139.7C32.6045 139.48 32.6045 139.042 32.3852 138.823C31.9467 138.165 31.9467 137.288 32.1659 136.63C32.1659 136.63 32.1659 136.63 32.1659 136.411C31.5081 135.972 31.7274 135.315 31.2888 134.657C31.0695 134.657 30.8502 134.438 30.631 134.438C29.3153 133.999 29.3153 133.999 28.2189 134.876C27.9996 134.438 28.2189 134.218 28.4381 133.999C29.096 133.341 29.5346 132.903 30.1924 132.245C31.2888 131.149 32.3852 130.052 33.7009 128.956C35.0166 127.641 36.3323 126.544 37.4287 125.229C37.648 125.01 37.648 124.79 37.648 124.79C37.648 124.571 37.4287 124.571 37.2094 124.571C36.7709 124.571 36.3323 124.571 35.8937 124.79C35.6744 124.79 35.2359 124.79 35.0166 125.01C34.7973 124.79 34.7973 124.79 34.7973 124.571C34.578 124.352 34.3588 124.132 34.1395 123.913C33.7009 123.694 33.2623 123.913 33.0431 124.132C32.6045 124.571 32.3852 125.01 31.9467 125.448C31.7274 125.887 31.2888 126.106 31.0695 126.544C30.4117 127.202 29.7538 127.641 29.096 128.298C28.4381 128.956 28.2189 129.833 27.7803 130.491C27.561 130.929 27.3417 131.368 26.6839 131.368C26.026 131.149 25.8068 130.71 25.8068 130.272C25.8068 129.833 26.026 129.614 26.4646 129.395C26.9032 128.956 27.3417 128.518 27.7803 128.079C28.4381 127.421 28.8767 126.544 29.7538 126.325C29.9731 126.106 30.1924 125.887 30.4117 125.667C30.631 125.448 30.8502 125.229 31.0695 125.01C31.9467 124.79 32.1659 124.133 32.6045 123.475C33.0431 123.036 33.0431 122.378 32.6045 121.94C32.3852 121.501 31.9467 121.063 31.5081 120.624C31.0695 120.186 30.631 120.186 29.9731 120.186C29.5346 119.528 29.5346 118.87 29.7538 118.213C29.9731 117.555 30.4117 116.678 31.2888 116.459C31.7274 116.239 31.9467 116.02 32.3852 115.801C33.2623 115.143 33.9202 114.704 35.0166 114.704C35.2359 114.704 35.4552 114.485 35.6744 114.485C37.2094 113.608 38.7444 112.731 40.2794 111.854C41.1565 111.416 41.8143 110.758 42.6915 110.319C44.665 109.223 46.4193 107.908 48.1735 106.592C49.0507 105.934 49.9278 105.276 50.5856 104.18C50.8049 103.961 50.8049 103.742 50.8049 103.303C49.7085 103.084 48.6121 103.084 47.735 103.961C47.0771 104.399 46.6385 105.057 45.7614 104.838C45.9807 104.619 46.4193 104.18 46.6385 103.961C47.2964 103.522 47.9542 102.865 48.6121 102.426C49.7085 101.549 50.5856 100.453 51.682 99.5758C52.5592 98.918 53.217 98.041 53.8749 97.164C54.3134 96.5062 54.752 95.8484 55.4098 95.4099C55.8484 94.9714 55.8484 94.9714 56.0677 94.0944C55.8484 93.8751 55.6291 93.8751 55.1906 94.0944C53.6556 94.9714 52.1206 96.0677 50.8049 97.3832C50.1471 98.041 49.4892 98.4795 49.0507 99.1373C48.8314 99.3565 48.6121 99.5758 48.3928 99.5758C47.5157 100.014 46.8578 100.672 45.9807 101.33C44.8843 102.207 44.0072 103.084 42.6915 103.742C42.4722 103.522 42.6915 103.303 42.6915 103.303C43.5686 102.426 44.4457 101.549 45.3229 100.672C45.5421 100.453 45.7614 100.234 46.2 100.014C47.2964 99.3565 48.1735 98.4795 48.6121 97.164C48.6121 96.9447 49.0507 96.5062 49.2699 96.2869C49.2699 96.0677 49.2699 95.8484 49.4892 95.6292C49.2699 95.1906 48.8314 95.4099 48.6121 95.6292C47.9542 96.0677 47.2964 96.7254 46.8578 97.164C46.4193 97.8217 45.7614 98.2602 45.1036 98.4795C44.665 98.6988 44.2264 99.1373 43.7879 99.3565C43.5686 99.5758 43.3493 99.5758 42.9108 99.5758C43.13 98.918 43.7879 98.4795 44.0072 98.041C44.4457 97.6025 44.8843 97.164 44.8843 96.5062C44.665 96.2869 44.4457 96.2869 44.2265 96.5062C43.7879 96.7254 43.5686 96.9447 43.3493 97.164C42.6915 97.6025 42.0336 98.2602 41.1565 98.6987C40.7179 98.918 40.4987 99.1373 40.0601 99.5758C39.183 100.234 38.5251 100.891 37.8673 101.549C36.3323 102.645 35.2359 103.961 33.7009 105.057C33.4816 105.276 33.0431 105.715 32.6045 105.715C32.3852 105.715 32.1659 105.715 32.1659 105.496C31.9467 105.276 31.9467 105.057 31.9467 104.838C31.9467 104.619 32.1659 104.399 32.3852 104.18C33.7009 103.084 34.578 101.549 35.8937 100.453C36.3323 100.014 36.7709 99.5758 36.9901 98.918C37.2094 98.4795 37.648 98.041 37.8673 97.8217C38.3058 97.3832 38.9637 96.7254 39.6215 96.2869C40.2794 95.8484 40.4987 95.1906 40.4987 94.3136C40.2794 94.0944 39.8408 93.8751 39.6215 93.6559C39.4022 93.6559 39.4022 93.6559 39.183 93.8751C37.2094 95.6292 35.2359 97.164 33.2623 98.918C33.0431 99.1373 32.8238 99.1373 32.6045 99.3565C31.9467 99.795 31.7274 99.795 31.0695 98.918C32.3852 97.6025 33.4816 96.2869 33.9202 94.3136C33.7009 94.3136 33.4816 94.3136 33.4816 94.3136C32.1659 94.7521 31.2888 95.6292 30.1924 96.2869C29.5346 96.7254 29.096 97.164 28.4381 97.3832C28.4381 96.7254 29.3153 96.2869 29.5346 95.8484C30.4117 94.7522 31.5081 93.8751 32.1659 92.5596C32.3852 92.1211 32.8238 91.6826 33.0431 91.4633C33.7009 90.8055 34.3588 90.1478 34.1395 89.0515C34.1395 88.6129 34.1395 88.1744 34.1395 87.7359C33.4816 86.8589 32.6045 86.8589 31.7274 87.2974C30.8502 87.7359 29.9731 87.9552 29.096 87.9552C28.6574 87.9552 28.2189 88.1745 27.7803 88.3937C27.1224 88.8322 26.2453 88.8322 25.5875 88.1745C25.1489 87.9552 24.7103 87.5167 24.4911 87.2974C24.0525 86.8589 23.6139 86.6396 23.1754 86.2011C22.7368 86.4204 22.5175 86.4204 22.2982 86.6396C21.8597 87.0782 21.2018 87.0782 20.544 86.8589C20.7633 86.4204 20.7633 85.9819 20.9826 85.5434C20.544 84.8856 20.1054 84.2278 20.1054 83.3508C20.1054 82.9123 19.8861 82.693 19.6669 82.2545C19.4476 81.5968 19.4476 80.939 19.8861 80.5005C21.6404 79.6234 21.8597 78.9657 21.8597 78.7464C22.079 78.3079 21.6404 77.6501 21.2018 77.6501C20.7633 77.6501 20.3247 77.8694 20.1054 78.0886C19.4476 78.3079 19.009 78.7464 18.3512 78.9657C17.6933 79.4042 17.0355 79.6234 16.3776 79.6234C15.7198 79.6234 15.0619 79.6234 14.8427 78.9657C14.6234 78.5272 13.9655 78.7464 13.527 78.3079C13.7462 77.6501 13.9655 76.9924 14.4041 76.5538C15.0619 75.8961 15.5005 75.2383 15.2812 74.3613C14.8427 74.142 14.4041 73.7035 13.9655 73.4843C13.0884 73.265 12.6498 74.3613 11.5534 74.5806C11.992 74.142 12.2113 73.7035 12.4306 73.265V73.0458C12.2113 71.9495 11.992 71.7302 10.8956 71.7302C10.6763 71.7302 10.457 71.7302 10.2377 71.7302C10.0184 71.7302 9.57989 71.7302 9.3606 71.9495C8.92204 71.7302 8.92204 71.2917 8.92204 70.8532C8.92204 70.4147 9.14132 69.9762 8.92204 69.7569C8.70276 69.0991 8.70276 68.8799 9.14132 68.4414C9.3606 68.2221 9.3606 68.0029 9.3606 67.7836C9.57989 67.1258 9.79917 66.6873 10.457 66.2488C11.3341 65.8103 11.992 64.9333 12.6498 64.4948C12.6498 64.4948 12.6498 64.4948 12.4306 64.4948C13.0884 64.0562 13.7462 63.837 14.4041 63.1792C15.0619 62.5214 15.7198 62.0829 16.3776 61.6444C17.474 61.2059 17.9126 60.7674 18.1319 60.1096C18.3512 59.4519 19.009 59.2326 19.4476 59.0133C19.6669 58.7941 20.1054 58.7941 20.3247 58.5748C20.7633 58.3556 21.2018 57.9171 21.6404 57.9171C21.8597 57.9171 21.8597 57.9171 22.079 57.6978C23.1754 57.04 24.4911 56.3823 25.5875 55.5052C25.8068 55.286 26.2453 55.0667 26.4646 55.0667C26.6839 55.0667 26.6839 55.0667 26.9032 54.8475C28.6574 53.3127 30.8502 52.4356 32.6045 50.9008C32.8238 50.6816 33.0431 50.4623 33.2623 50.2431C33.9202 50.0238 34.3588 49.5853 34.578 48.9276C35.0166 48.2698 35.4552 47.8313 36.3323 47.612C36.9901 47.3927 37.4287 47.1735 37.8673 46.735C38.5251 46.0772 39.4022 45.4194 40.2794 44.7617C40.7179 44.3232 41.1565 43.8846 41.3758 43.2269C41.1565 43.0076 40.9372 43.0076 40.7179 43.2269C39.8408 43.6654 38.9637 44.1039 38.0866 44.7617C37.4287 45.2002 36.5516 45.6387 35.8937 46.0772C35.6744 46.2965 35.0166 46.5157 34.578 46.5157C33.9202 46.5157 33.4816 46.735 33.0431 46.9542C32.6045 47.1735 32.3852 47.3927 31.9467 47.612C31.7274 47.612 31.5081 47.8313 31.2888 47.612C30.8502 47.3927 30.4117 47.612 30.4117 48.0505C30.1924 48.9275 29.3153 49.1468 28.6574 49.5853C27.561 49.1468 26.9032 50.2431 26.026 50.2431C25.8068 50.2431 25.8068 50.4623 25.5875 50.4623C23.8332 51.9971 21.8597 53.0934 20.1054 54.409C19.8861 54.6282 19.6669 54.6282 19.4476 54.6282C17.6933 54.6282 16.3776 55.7245 15.2812 56.8208C15.0619 57.04 15.0619 57.04 14.8427 57.2593C13.9655 57.4785 13.3077 57.9171 12.6498 58.3556C11.5534 59.0133 10.6763 59.6711 9.57988 60.3289C8.92204 60.7674 8.26419 61.2059 7.82563 61.8637C7.82563 62.0829 7.60635 62.0829 7.16778 62.3022C6.9485 62.0829 6.9485 61.8637 6.72922 61.6444C6.29065 60.9866 5.85209 60.5481 5.19424 60.5481C4.5364 60.5481 4.5364 60.1096 4.75568 59.6711C6.50994 57.917 6.72922 57.6978 8.70276 56.3823C9.79917 55.5052 10.8956 54.6282 11.992 53.9704C12.6498 53.5319 13.3077 53.0934 13.9655 52.6549C14.1848 52.4356 14.4041 52.4356 14.6234 52.4356C14.8427 52.4356 15.2812 52.2164 15.5005 51.9971C16.1583 51.1201 17.2548 50.9008 18.1319 50.4623C18.5704 50.2431 18.7897 50.0238 19.2283 49.8046C19.8861 49.1468 20.7633 48.7083 21.6404 48.2698C22.079 48.0505 22.7368 47.612 23.1754 47.3927C23.3947 47.3927 23.3947 47.1735 23.6139 46.9542C25.1489 46.735 26.2453 45.4194 27.561 44.7617C28.2189 44.5424 28.8767 43.8847 29.3153 43.4461C30.4117 42.5691 31.5081 41.6921 32.8238 41.0343C34.3588 40.1573 35.8937 39.061 37.4287 38.184C37.648 37.9647 38.0866 37.7455 38.3058 37.5262C39.6215 36.4299 40.7179 35.5529 42.2529 34.6759C42.9108 34.2374 43.3493 33.5796 43.5686 32.7026C43.5686 32.4833 43.5686 32.2641 43.3493 32.0448C43.13 31.8255 42.9108 31.6063 42.6915 31.387C39.8408 32.9218 36.9901 34.6759 34.1395 36.2107C33.7009 36.4299 33.4816 36.6492 33.0431 36.8684C32.1659 37.5262 31.0695 38.184 29.9731 38.8417C28.8767 39.4995 27.9996 40.1573 26.9032 40.815C26.6839 41.4728 26.4646 41.4728 26.2453 41.6921C24.0525 42.7884 22.079 43.8846 20.1054 45.2002C19.2283 45.8579 18.3512 46.2965 17.474 46.735C16.3776 47.3928 15.2812 48.0505 14.4041 48.7083C13.3077 49.3661 12.4306 50.0238 11.3341 50.9008C10.6763 51.3394 10.0184 51.7779 9.57988 52.2164C8.70276 51.1201 8.48347 51.1201 7.38706 51.1201C6.9485 51.1201 6.72922 51.1201 6.29065 51.3394C5.41353 52.2164 4.09783 52.4356 3.22071 53.0934C2.78214 53.5319 2.12429 53.9704 1.90501 54.6282C1.68573 55.0667 1.24717 55.5052 1.02788 55.9437C-0.0685256 55.286 -0.287808 54.6282 0.370038 53.7512C0.589321 53.5319 0.808603 53.3127 1.02788 53.0934C1.24717 52.6549 1.46645 52.4356 1.68573 52.4356C2.34358 52.2164 2.78214 51.9971 3.00142 51.5586C3.43999 51.1201 3.65927 50.6816 4.31712 50.6816C4.75568 50.6816 4.97496 50.0238 5.19424 49.8046C5.41353 49.3661 5.85209 49.1468 6.29065 49.1468C6.50994 49.1468 6.72922 48.9276 6.72922 48.9276C7.16778 48.2698 7.82563 48.0505 8.48347 47.612C9.57988 47.1735 10.457 46.2965 11.3341 45.6387C12.4306 44.9809 12.8691 44.3232 13.0884 43.6654C13.3077 43.4461 13.3077 43.2269 13.527 43.0076C14.4041 42.3498 15.5005 42.1306 16.5969 41.9113C17.0355 41.9113 17.474 41.9113 17.6933 41.6921C18.3512 41.4728 19.2283 41.2536 19.8861 40.5958C20.7633 39.938 21.8597 39.2803 22.9561 38.8417C23.6139 38.4032 24.2718 38.184 24.9296 37.7455C25.5875 37.3069 26.2453 37.0877 26.9032 36.6492C27.561 36.2107 28.2189 35.7722 28.6574 35.1144C28.8767 34.8951 28.8767 34.4566 28.8767 34.2374C27.561 34.0181 26.6839 34.6759 25.8068 35.1144C25.5875 35.3336 25.1489 35.5529 24.9296 35.5529C24.7103 35.7721 24.4911 35.7722 24.2718 35.7722C24.2718 35.3336 24.2718 34.8951 24.2718 34.6759C24.9296 34.2374 25.5875 33.7988 26.2453 33.3603C26.6839 32.9218 27.561 33.1411 27.9996 32.4833C28.8767 32.2641 29.3153 31.387 30.1924 30.9485C31.0695 30.51 31.9467 30.2907 32.6045 29.8522C33.2623 29.4137 33.9202 28.9752 34.578 28.5367C34.7973 28.3174 35.0166 28.0982 35.2359 28.0982C36.113 27.8789 36.5516 27.2212 36.7709 26.3441C36.5516 26.1249 36.5516 25.9056 36.3323 25.4671C36.5516 24.8093 36.9901 24.5901 37.4287 24.1516C37.648 23.9323 37.8673 23.7131 38.0866 23.7131C38.5251 23.4938 38.5251 23.0553 38.3058 22.6168C36.7709 22.1783 36.7709 22.1783 35.8937 23.7131C35.4552 23.9323 34.7973 24.1516 34.3588 24.3708ZM234.563 37.9647C234.783 37.7455 234.783 37.7455 234.783 37.7455L234.563 37.9647ZM191.803 -37.6787C191.365 -37.6787 191.145 -37.6787 190.707 -37.6787C190.488 -37.6787 190.268 -37.4595 190.268 -37.2402C190.268 -37.021 190.488 -37.021 190.707 -37.021C191.145 -37.021 191.584 -37.021 191.803 -37.6787C192.023 -37.6787 192.023 -37.6787 192.023 -37.898C192.023 -37.6787 191.803 -37.6787 191.803 -37.6787ZM34.3588 137.069C34.578 136.849 34.7973 136.849 35.0166 136.63C35.8937 135.753 36.5516 135.095 37.4287 134.218C38.5251 133.122 39.4022 131.806 40.9372 131.149C41.3758 130.929 41.8143 130.272 42.2529 129.833C42.4722 129.614 42.6915 129.175 42.9108 128.956C44.0072 127.86 45.1036 126.983 46.4193 125.887C46.6386 125.667 46.6385 125.448 46.8578 125.01C46.6385 125.01 46.2 125.01 46.2 125.01C45.9807 125.229 45.7614 125.448 45.5421 125.667C45.3229 126.106 45.1036 126.325 44.665 126.544C44.2264 126.764 44.0072 126.983 43.5686 127.202C42.9108 127.641 42.2529 128.079 41.5951 128.737C41.3758 129.614 40.7179 129.833 40.0601 130.272C39.8408 130.272 39.6215 130.491 39.6215 130.71C38.0866 132.245 36.5516 133.78 35.2359 135.315C35.0166 135.534 34.7973 135.972 34.578 136.411C34.3588 136.63 34.3588 136.849 34.3588 137.069ZM112.423 154.39C112.862 154.171 113.081 153.951 113.52 153.732C113.958 153.732 114.177 153.513 114.397 153.294C115.932 152.197 117.686 151.54 119.44 150.882C119.659 150.882 119.879 150.663 120.098 150.443C120.537 150.005 120.975 149.785 121.414 149.347C121.852 148.908 121.852 148.908 121.414 148.031C121.194 148.031 120.756 148.031 120.537 148.031C120.317 148.031 120.098 148.031 120.098 148.251C119.879 148.908 119.002 149.128 118.563 149.566C116.809 150.443 115.055 151.32 113.3 152.197C112.862 152.417 112.642 152.636 112.204 152.855C111.985 153.074 111.765 153.074 111.546 153.294C111.327 153.513 111.327 153.732 111.546 153.951C111.985 154.171 112.204 154.39 112.423 154.39ZM108.257 -11.5872C108.695 -12.0257 109.353 -12.4643 109.792 -12.9028C110.011 -13.122 110.23 -13.3413 110.45 -13.3413C111.765 -13.7798 112.642 -14.8761 113.52 -15.7531C113.958 -15.9724 114.177 -16.4109 114.616 -16.6301C115.932 -17.0686 117.028 -18.1649 118.125 -19.0419C118.782 -19.4805 119.44 -20.1382 120.098 -20.796C120.317 -21.0153 120.317 -21.2345 120.098 -21.4538C120.098 -21.673 119.659 -21.8923 119.44 -21.673C118.782 -21.4538 117.905 -21.0153 117.247 -20.5767C116.809 -20.1382 116.151 -19.6997 115.493 -19.2612C114.835 -18.8227 114.397 -18.1649 113.739 -17.9457C113.52 -17.9457 113.081 -17.5071 112.862 -17.2879C112.423 -16.6301 111.985 -16.4109 111.327 -16.1916C110.888 -15.9724 110.669 -15.9724 110.23 -15.5338C109.573 -14.8761 108.695 -14.2183 108.038 -13.5605C107.818 -13.3413 107.599 -13.122 107.38 -13.122C106.064 -12.4643 104.968 -11.8065 103.652 -11.1487C102.775 -10.7102 101.898 -10.0524 101.021 -9.61392C100.363 -9.17541 99.4855 -8.7369 99.047 -8.07912C98.3891 -7.42136 97.7313 -6.98284 97.0734 -6.54433C95.977 -5.6673 94.8806 -4.79028 93.7842 -4.13251C92.9071 -3.47474 92.2492 -3.03623 91.3721 -2.59771C90.9335 -2.37846 90.495 -2.1592 90.495 -1.72069C90.2757 -1.50143 90.0564 -1.28218 89.8371 -1.28218C88.5214 -0.624405 86.9865 -0.185894 86.1093 1.12965C85.89 2.00667 85.6708 2.00667 85.4515 2.22593C84.3551 2.8837 83.2587 3.76072 82.1622 4.41849C81.943 4.63775 81.7237 4.857 81.5044 5.07626C81.7237 5.29552 81.943 5.51477 82.1622 5.51477C83.2587 5.29552 84.1358 4.857 85.0129 4.19923C86.5479 3.10295 87.8636 2.22593 89.6178 1.3489C90.9335 0.691135 92.0299 0.0333633 92.9071 -1.06292C93.5649 -1.93995 94.442 -2.37846 95.5384 -2.59771C95.977 -2.59771 96.4156 -2.81697 96.6349 -3.25548C97.0734 -3.694 97.2927 -3.694 97.7313 -3.91325C98.6084 -4.35177 99.4855 -4.79028 100.143 -5.22879C100.801 -5.88656 101.678 -6.54433 102.336 -7.2021C103.213 -7.85987 104.31 -8.51764 105.187 -9.39466C106.283 -10.2717 107.16 -10.9295 108.257 -11.5872ZM38.3058 24.8093C38.5251 25.4671 38.7444 25.4671 39.183 25.4671C40.2794 25.2478 41.5951 25.0286 42.4722 23.9323C42.9108 23.2745 43.5686 22.836 44.4457 22.836C45.5421 22.836 45.9807 22.1783 46.6385 21.5205C46.8578 21.3012 46.8578 21.082 46.8578 21.082C46.8578 20.8627 46.8578 20.6435 46.8578 20.6435C46.6385 20.6435 46.4193 20.4242 46.4193 20.4242C45.1036 21.082 43.7879 21.7397 42.4722 22.3975C42.2529 22.6168 42.0336 22.6168 41.8143 22.6168C40.4987 23.2745 39.4022 23.9323 38.3058 24.8093ZM46.8578 29.633C47.5157 30.2907 47.5157 30.2908 47.9542 30.2908C49.4892 30.2908 51.0242 29.633 52.3399 28.756C52.5592 28.5367 52.7785 28.3174 52.9977 27.8789C53.217 27.6597 53.217 27.4404 52.9977 27.2212C52.7785 27.0019 52.7785 27.0019 52.5592 26.7826C51.682 27.2211 50.8049 27.4404 49.9278 27.8789C48.6121 28.3174 47.735 28.9752 46.8578 29.633ZM111.765 150.005C112.423 151.101 112.423 151.101 113.52 150.663C114.177 150.443 114.835 150.224 115.493 149.786C116.151 149.347 117.028 148.908 117.686 148.47C118.125 148.251 118.344 147.812 118.125 147.593C117.905 147.374 117.467 147.154 117.028 147.374C116.809 147.374 116.809 147.593 116.59 147.593C116.151 147.812 115.712 148.031 115.055 148.47C114.397 148.908 113.739 149.347 112.862 149.128C112.423 149.347 112.204 149.566 111.765 150.005ZM48.8314 19.3279C49.0507 19.5472 49.2699 19.5472 49.4892 19.7664C50.3663 19.9857 51.0242 19.7664 51.682 19.3279C51.9013 19.1087 52.3399 18.8894 52.5592 18.8894C53.217 18.8894 53.6556 18.4509 54.0941 18.2317L54.3134 18.0124C54.3134 17.7931 54.3134 17.3546 54.3134 17.1354C54.0941 17.1354 53.6556 17.1354 53.6556 17.1354C52.7785 17.5739 52.1206 17.7931 51.2435 18.2317C50.8049 18.4509 50.1471 18.6702 49.7085 19.1087C49.2699 18.8894 49.0507 19.1087 48.8314 19.3279ZM43.13 143.427C43.5686 143.866 44.0072 144.304 44.4457 144.523C45.3229 144.304 45.5421 143.646 45.7614 142.989C45.7614 142.55 45.7614 142.112 45.3229 141.892C44.8843 141.673 44.4457 141.454 44.0072 141.673C43.5686 142.112 43.3493 142.769 43.13 143.427ZM50.8049 128.079C49.9278 128.518 49.2699 128.518 48.8314 129.175C48.3928 129.614 47.9542 130.052 47.5157 130.052C46.4193 130.052 45.5421 130.71 44.8843 131.368C44.8843 131.368 44.8843 131.587 44.665 131.806C44.8843 131.806 45.1036 131.806 45.1036 131.806C45.9807 131.368 46.6386 131.149 47.2964 130.71C47.735 130.491 48.1735 130.052 48.6121 130.052C49.2699 129.833 49.7085 129.395 50.3663 128.956C50.5856 128.737 50.5856 128.518 50.8049 128.079ZM114.835 -19.6997C113.958 -19.919 113.3 -19.919 112.642 -19.4805C112.204 -19.0419 111.985 -18.6034 111.985 -17.9457C112.204 -17.9457 112.642 -17.9457 112.862 -18.1649C113.52 -18.3842 113.958 -18.8227 114.835 -19.6997ZM179.743 -33.9514C179.085 -34.1706 178.427 -33.9514 177.988 -33.5129C177.769 -33.5129 177.988 -33.0744 177.988 -32.8551C177.988 -32.6358 178.208 -32.4166 178.427 -32.6358C178.866 -32.8551 179.304 -33.2936 179.743 -33.9514ZM184.128 -32.8551C184.128 -33.0744 183.69 -33.2936 183.471 -33.2936C183.251 -33.0744 183.032 -32.8551 182.813 -32.6358C182.593 -32.4166 182.813 -31.9781 183.032 -31.9781C183.69 -31.7588 184.348 -32.1973 184.128 -32.8551ZM59.7955 13.408C59.1376 13.1888 58.6991 13.6273 58.0412 13.8465C57.8219 13.8465 57.3834 14.0658 57.3834 14.285C57.6027 14.7235 57.8219 14.285 58.0412 14.285C58.9183 14.5043 59.3569 14.0658 59.7955 13.408ZM199.04 22.3975C198.601 22.6168 198.382 22.6168 198.162 22.836V23.2745C198.162 23.2745 198.382 23.4938 198.601 23.4938C198.82 23.4938 198.82 23.0553 199.04 22.3975ZM251.009 44.7617C251.229 44.9809 251.448 45.2002 251.667 45.2002C251.887 45.2002 252.106 45.2002 252.106 44.9809C252.106 44.7617 252.106 44.5424 252.106 44.5424C252.106 44.5424 251.887 44.3232 251.667 44.3232C251.448 44.3232 251.448 44.5424 251.009 44.7617ZM48.8314 17.5739C48.3928 17.5739 47.9542 17.5739 47.5157 18.2317C48.3928 18.0124 48.3928 18.0124 48.8314 17.5739ZM56.9448 16.0391C56.5062 15.6006 56.0677 15.8198 55.8484 16.0391C55.8484 16.0391 55.8484 16.2583 55.8484 16.4776C55.8484 16.4776 56.0677 16.6969 56.287 16.6969C56.5062 16.4776 56.7255 16.2583 56.9448 16.0391ZM81.2851 -0.843662C81.2851 -1.06292 81.2851 -1.06292 81.0658 -1.06292H80.8466V-0.843662C81.0658 -0.843662 81.2851 -0.843662 81.2851 -0.843662ZM115.932 156.802L115.712 157.021C115.712 157.021 115.712 157.021 115.932 157.021C115.932 157.021 116.151 157.021 115.932 156.802C116.151 156.802 116.151 156.802 115.932 156.802ZM198.162 -44.4757C198.162 -44.4757 197.943 -44.4757 197.943 -44.2564V-44.0372H198.162C198.162 -44.2564 198.162 -44.2564 198.162 -44.4757ZM182.374 -32.1973C182.155 -31.9781 182.374 -31.9781 182.374 -32.1973C182.155 -31.9781 182.155 -31.9781 182.155 -31.9781H182.374C182.374 -31.9781 182.374 -31.9781 182.374 -32.1973ZM46.8578 94.5329H46.6385C46.6385 94.5329 46.6386 94.5329 46.4193 94.5329C46.4193 94.5329 46.6385 94.5329 46.8578 94.5329C46.6385 94.5329 46.6385 94.5329 46.8578 94.5329Z" fill="#58970A"/>
<path d="M10.0185 37.9647C9.14132 38.6225 8.48348 39.2803 7.38707 39.2803C6.9485 39.2803 6.72922 39.7188 6.29066 39.938C5.19425 40.5958 4.09784 41.2536 2.78214 41.9113C2.34358 42.1306 2.1243 42.5691 1.46645 42.3499V42.1306C2.78214 41.0343 4.09784 40.1573 5.41353 38.8418C5.85209 38.8418 6.50994 39.061 6.9485 38.6225C8.04491 38.184 8.92204 37.9647 10.0185 37.9647Z" fill="#58970A"/>
<path d="M199.697 -54.123C199.917 -54.123 200.136 -54.123 200.136 -54.123C200.794 -53.4652 200.355 -52.3689 201.013 -51.7112C200.575 -50.8341 200.575 -49.9571 199.917 -49.2993C199.697 -49.5186 199.697 -49.5186 199.697 -49.7378C200.136 -51.0534 199.697 -52.5882 199.697 -54.123Z" fill="#58970A"/>
<path d="M189.61 -51.0534C190.707 -51.0534 191.584 -50.8341 192.242 -50.8341C192.68 -50.3956 192.68 -50.1764 192.242 -49.7378C191.584 -49.7378 190.926 -49.7378 190.268 -49.7378C190.268 -49.9571 190.049 -50.3956 189.61 -51.0534Z" fill="#58970A"/>
<path d="M217.679 -5.00954C217.679 -4.13251 217.679 -3.47474 217.24 -2.81697C216.801 -3.25549 216.363 -3.694 215.705 -3.91325C216.144 -5.00954 217.021 -4.57102 217.679 -5.00954Z" fill="#58970A"/>
<path d="M35.8937 144.304C35.8937 144.304 35.8937 144.085 35.6744 144.085C35.6744 143.866 35.4552 143.427 35.8937 143.208C36.113 143.208 36.3323 143.208 36.3323 143.208C36.7709 143.427 36.7709 143.646 36.5516 144.085C36.3323 144.523 36.113 144.523 35.8937 144.304Z" fill="#58970A"/>
<path d="M186.54 -49.0801C186.979 -48.8608 187.198 -48.6416 187.637 -48.203C186.979 -48.203 186.541 -48.203 186.102 -48.203C185.883 -48.8608 186.321 -48.8608 186.54 -49.0801Z" fill="#58970A"/>
<path d="M39.6215 148.908C39.8408 149.347 39.8408 149.566 39.8408 149.786C39.6215 150.005 39.4022 150.224 39.183 150.005C38.9637 149.566 39.183 149.128 39.6215 148.908Z" fill="#58970A"/>
<path d="M75.3645 1.78741C75.8031 1.3489 76.2416 1.12965 76.6802 0.910389L76.8995 1.12965C76.8995 1.3489 76.6802 1.56816 76.6802 2.00667C76.0223 2.00667 75.8031 1.78741 75.3645 1.78741Z" fill="#58970A"/>
<path d="M119.879 -25.1811C119.659 -24.5234 119.221 -24.5234 118.563 -24.0848C119.002 -24.7426 119.44 -24.9619 119.879 -25.1811Z" fill="#58970A"/>
<path d="M78.6537 0.252625C78.4345 0.471882 77.9959 0.471878 77.5573 0.471878C77.9959 0.252621 78.2152 0.0333672 78.4344 -0.405148C78.6537 0.0333672 78.6537 0.252625 78.6537 0.252625Z" fill="#58970A"/>
<path d="M219.433 14.7235C219.871 14.7235 220.091 14.9428 220.091 15.3813C220.091 15.3813 220.091 15.6006 219.871 15.6006C219.652 15.6006 219.652 15.6006 219.652 15.3813C219.433 15.1621 219.433 14.9428 219.433 14.7235Z" fill="#58970A"/>
<path d="M75.3645 173.027C75.1452 173.246 75.1452 173.465 74.7066 173.246V173.027C74.9259 172.807 75.1452 172.807 75.3645 173.027Z" fill="#58970A"/>
<path d="M216.363 -2.15921C216.363 -1.72069 216.363 -1.28218 215.924 -1.06292C215.705 -1.50143 216.144 -1.72069 216.363 -2.15921C216.144 -1.93995 216.363 -1.93995 216.363 -2.15921Z" fill="#58970A"/>
<path d="M236.537 31.387C236.537 31.1678 236.537 30.7293 236.756 30.51C236.756 30.9485 236.537 30.9485 236.537 31.387Z" fill="#58970A"/>
<path d="M29.7538 139.042C29.9731 139.042 29.9731 139.042 30.1924 139.042V139.261H29.9731C29.7538 139.261 29.7538 139.261 29.7538 139.042Z" fill="#58970A"/>
<path d="M216.144 -6.54433C216.363 -6.32508 216.363 -6.10582 216.363 -6.10582C216.144 -5.88657 215.924 -6.10582 215.924 -6.32508C215.924 -6.32508 215.924 -6.54433 216.144 -6.54433Z" fill="#58970A"/>
<path d="M22.9561 36.8684C22.9561 36.4299 23.1754 36.2107 23.3947 36.2107C23.3947 36.4299 23.1754 36.6492 22.9561 36.8684Z" fill="#58970A"/>
<path d="M104.529 -16.6301C104.529 -16.4109 104.529 -15.9724 104.09 -15.9724C104.31 -16.1916 104.529 -16.4109 104.529 -16.6301Z" fill="#58970A"/>
<path d="M23.3947 36.2107C23.6139 36.2107 23.8332 35.9914 24.0525 35.9914C24.0525 35.9914 23.8332 36.2107 23.3947 36.2107Z" fill="#58970A"/>
<path d="M254.299 42.5691V42.3499C254.299 42.3499 254.299 42.3499 254.518 42.3499C254.518 42.3499 254.518 42.5691 254.299 42.5691Z" fill="#58970A"/>
<path d="M190.707 -42.9409C190.926 -42.9409 190.926 -42.9409 190.707 -42.9409V-42.9409Z" fill="#58970A"/>
<path d="M46.2 103.961C46.2 104.18 46.2 104.18 46.2 103.961C45.9807 104.18 45.9807 104.18 45.9807 104.18C46.2 104.18 46.2 104.18 46.2 103.961Z" fill="#58970A"/>
<path d="M134.132 -31.1011C134.132 -31.1011 134.132 -31.3203 134.351 -31.3203C134.351 -31.3203 134.351 -31.1011 134.571 -31.1011C134.351 -31.1011 134.351 -31.1011 134.132 -31.1011Z" fill="#58970A"/>
<path d="M36.5516 142.769C36.3323 142.769 36.3323 142.769 36.5516 142.769C36.3323 142.55 36.3323 142.769 36.5516 142.769C36.5516 142.55 36.5516 142.55 36.5516 142.769Z" fill="#58970A"/>
<path d="M120.317 -25.4004C120.317 -25.6196 120.317 -25.6196 120.317 -25.4004C120.537 -25.6196 120.537 -25.6196 120.537 -25.4004C120.537 -25.6196 120.317 -25.6196 120.317 -25.4004Z" fill="#58970A"/>
<path d="M107.818 -18.8227C108.038 -18.8227 108.038 -18.8227 107.818 -18.8227V-18.8227Z" fill="#58970A"/>
<path d="M104.529 -16.6301H104.31C104.31 -16.6301 104.31 -16.6301 104.529 -16.6301C104.31 -16.6301 104.31 -16.6301 104.529 -16.6301Z" fill="#58970A"/>
<path d="M106.503 160.529C106.722 160.748 106.722 160.529 106.503 160.529C106.722 160.748 106.722 160.748 106.503 160.529Z" fill="#58970A"/>
<path d="M216.363 -2.15921C216.582 -2.15921 216.582 -2.15921 216.363 -2.15921V-2.15921Z" fill="#58970A"/>
<path d="M124.264 -28.2507C124.264 -28.0315 124.045 -28.0315 124.264 -28.2507C124.264 -28.0315 124.264 -28.0315 124.264 -28.2507Z" fill="#58970A"/>
<path d="M120.317 -25.4004C120.098 -25.1811 120.098 -25.1811 119.879 -24.9619C120.098 -25.1811 120.098 -25.4004 120.317 -25.4004Z" fill="#58970A"/>
<path d="M117.467 -23.2078C117.686 -23.2078 117.686 -23.4271 117.905 -23.4271C117.686 -23.4271 117.686 -23.4271 117.467 -23.2078Z" fill="#58970A"/>
<path d="M116.59 -22.7693C116.809 -22.7693 116.809 -22.7693 116.59 -22.7693V-22.7693Z" fill="#58970A"/>
<path d="M116.37 -22.3308C116.59 -22.55 116.59 -22.55 116.809 -22.7693C116.59 -22.55 116.37 -22.55 116.37 -22.3308Z" fill="#58970A"/>
<path d="M110.888 -19.4805V-19.2612C110.45 -19.2612 110.888 -19.2612 110.888 -19.4805Z" fill="#58970A"/>
<path d="M93.3456 -9.1754C93.5649 -9.1754 93.5649 -9.1754 93.7842 -9.1754C93.5649 -9.1754 93.3456 -9.1754 93.3456 -9.1754Z" fill="#58970A"/>
<path d="M209.127 -6.54433L208.907 -6.32507C208.907 -6.54433 208.907 -6.54433 208.907 -6.76359C208.907 -6.54433 209.127 -6.54433 209.127 -6.54433Z" fill="#58970A"/>
<path d="M213.293 9.4614C213.512 9.4614 213.512 9.4614 213.293 9.4614V9.4614Z" fill="#58970A"/>
<path d="M236.098 31.6063C236.318 31.387 236.318 31.387 236.537 31.1678C236.318 31.387 236.318 31.6063 236.098 31.6063Z" fill="#58970A"/>
<path d="M29.3153 96.7254L29.096 96.9447C29.096 96.9447 29.3153 96.9447 29.3153 96.7254Z" fill="#58970A"/>
<path d="M28.8767 96.9447L28.6574 97.164C28.8767 97.164 28.8767 97.164 28.8767 96.9447Z" fill="#58970A"/>
<path d="M9.79917 113.827C10.0184 113.608 10.0184 113.608 9.79917 113.827C10.0184 113.827 10.2377 113.827 9.79917 113.827Z" fill="#58970A"/>
<path d="M9.57988 114.047L9.79917 113.827C9.79917 113.827 9.57988 113.827 9.57988 114.047Z" fill="#58970A"/>
<path d="M176.673 151.32C176.454 151.54 176.454 151.54 176.234 151.759C176.234 151.54 176.234 151.54 176.234 151.32C176.454 151.32 176.673 151.32 176.673 151.32Z" fill="#58970A"/>
<path d="M153.867 -32.8551C153.867 -33.0744 153.867 -33.0744 154.087 -33.0744C154.087 -33.0744 154.087 -33.0744 154.087 -32.8551H153.867Z" fill="#58970A"/>
</svg>
