<?xml version="1.0" encoding="UTF-8"?>
<svg width="90px" height="83px" viewBox="0 0 90 83" version="1.1" xmlns="http://www.w3.org/2000/svg" xmlns:xlink="http://www.w3.org/1999/xlink">
    <!-- Generator: Sketch 63.1 (92452) - https://sketch.com -->
    <title>Logo AG</title>
    <desc>Created with Sketch.</desc>
    <g id="Homepage" stroke="none" stroke-width="1" fill="none" fill-rule="evenodd">
        <g id="Ag_Home" transform="translate(-255.000000, -32.000000)">
            <g id="Header" transform="translate(249.000000, 22.000000)">
                <g id="Logo-AG">
                    <text id="AG" font-family="Sen-ExtraBold, Sen" font-size="26" font-weight="600" line-spacing="40" letter-spacing="-0.548888889" fill="#281D39">
                        <tspan x="36" y="56">AG</tspan>
                    </text>
                    <g id="Group-2" fill-rule="nonzero" stroke="#D4D4D4">
                        <path d="M77.9770677,24.9400107 C86.814087,32.838115 95.355224,42.0196612 97.5250278,53.3731861 C99.7145571,64.7267109 95.5524789,78.2719597 86.7154596,83.6624159 C77.8784403,89.0528721 64.3467545,86.3082808 51.8210686,85.3210178 C39.2756573,84.3140095 27.7559715,85.0643294 19.8263247,79.654128 C11.9164034,74.2636718 7.59652119,62.7324396 9.41126623,52.9980261 C11.2260113,43.2636126 19.155658,35.3655084 27.0853048,27.4674041 C35.0149516,19.5692998 42.9051474,11.6711956 51.4462843,11.0393472 C59.9676958,10.4272442 69.1400484,17.0419065 77.9770677,24.9400107 Z" id="Path" stroke-width="1.10000002" transform="translate(53.550001, 48.950001) rotate(15.000000) translate(-53.550001, -48.950001) "></path>
                        <path d="M73.4331718,31.9000447 C80.5246071,38.1956351 86.8963976,44.5255854 88.6375982,53.5754965 C90.3946279,62.6254076 87.0546886,73.4223451 79.9632533,77.7190855 C72.8718181,82.0158259 62.0130579,79.8281083 51.9615816,79.0411595 C41.8942762,78.2384717 32.6500839,78.8365528 26.2867871,74.5240734 C19.9393194,70.227333 16.4727472,61.0357711 17.9290241,53.276456 C19.385301,45.5171408 25.7485978,39.2215505 32.1118946,32.9259601 C38.4751914,26.6303698 44.80683,20.3347794 51.6608288,19.8311322 C58.4989985,19.343224 66.3417366,25.6044544 73.4331718,31.9000447 Z" id="Path-Copy" stroke-width="0.879999967" opacity="0.539999962" transform="translate(53.348996, 50.052061) rotate(26.000000) translate(-53.348996, -50.052061) "></path>
                    </g>
                </g>
            </g>
        </g>
    </g>
</svg>