<svg id="Layer_1" data-name="Layer 1" xmlns="http://www.w3.org/2000/svg" viewBox="0 0 125.33 192.33"><defs><style>.cls-1{fill:none;stroke:#1e2d68;stroke-miterlimit:10;stroke-width:9px;}.cls-2{fill:#26bdd8;}.cls-3{fill:#fab001;}.cls-4{fill:#5ec34b;}.cls-5{fill:#ff4a87;}.cls-6{fill:#fff;}</style></defs><title>Монтажная область 2</title><line class="cls-1" x1="62.75" y1="63.92" x2="91.34" y2="189.86"/><polygon class="cls-2" points="3.39 3.55 13.5 66.09 62.75 63.92 3.39 3.55"/><polygon class="cls-3" points="122.12 124.29 112.01 61.75 62.75 63.92 122.12 124.29"/><polygon class="cls-4" points="123.12 4.56 60.59 14.66 62.75 63.92 123.12 4.56"/><polygon class="cls-5" points="2.38 123.28 64.92 113.18 62.76 63.92 2.38 123.28"/><polygon class="cls-2" points="13.49 66.09 47.3 97.14 62.75 63.92 13.49 66.09"/><polygon class="cls-3" points="112.01 61.75 78.2 30.7 62.76 63.92 112.01 61.75"/><polygon class="cls-4" points="60.59 14.66 29.54 48.47 62.75 63.92 60.59 14.66"/><polygon class="cls-5" points="64.92 113.18 95.97 79.37 62.75 63.92 64.92 113.18"/><path class="cls-6" d="M70.4,65.06a7.73,7.73,0,1,0-8.78,6.51,7.73,7.73,0,0,0,8.78-6.51"/></svg>