<svg width="850" height="277" viewBox="0 0 850 277" fill="none" xmlns="http://www.w3.org/2000/svg">
<path d="M57.7653 268.551C55.7883 266.089 54.2714 263.223 53.301 260.116C52.3306 257.008 51.926 253.721 52.1101 250.442C52.2943 247.162 53.0637 243.955 54.3742 241.003C55.6848 238.051 57.5107 235.412 59.748 233.237C93.4573 200.469 126.561 178.873 158.569 157.992C195.921 133.63 231.199 110.613 267.498 70.6747C303.797 30.7363 324.72 -8.07507 346.866 -49.1681C369.473 -91.1097 392.849 -134.483 433.19 -178.866C473.532 -223.249 512.957 -248.965 551.081 -273.837C588.431 -298.203 623.709 -321.216 660.009 -361.152C696.309 -401.088 717.225 -439.9 739.373 -480.992C758.932 -517.284 779.159 -554.811 810.476 -593.055C814.523 -597.933 820.159 -600.852 826.154 -601.175C832.148 -601.498 838.016 -599.199 842.476 -594.779C846.937 -590.358 849.628 -584.175 849.964 -577.578C850.3 -570.982 848.253 -564.506 844.27 -559.564C815.973 -525.012 797.767 -491.234 778.493 -455.476C755.889 -413.532 732.511 -370.159 692.17 -325.776C651.828 -281.392 612.402 -255.672 574.277 -230.801C536.928 -206.434 501.65 -183.422 465.35 -143.49C429.05 -103.559 408.137 -64.7417 385.99 -23.653C363.379 18.293 340.007 61.6655 299.657 106.051C259.308 150.437 219.892 176.157 181.767 201.027C150.182 221.629 120.35 241.095 89.8655 270.73C85.3444 275.124 79.4233 277.362 73.4037 276.952C67.3842 276.543 61.7587 273.519 57.7634 268.546L57.7653 268.551ZM-51.0312 268.074C-53.3961 266.069 -55.379 263.571 -56.8666 260.723C-58.3542 257.874 -59.3174 254.73 -59.701 251.472C-60.0845 248.213 -59.881 244.904 -59.1021 241.732C-58.3232 238.56 -56.9841 235.588 -55.1614 232.986C-43.9619 216.967 -31.8278 201.767 -18.8361 187.482C21.5074 143.096 60.9305 117.378 99.0561 92.5078C136.405 68.1431 171.681 45.1262 207.982 5.19434C244.283 -34.7375 265.198 -73.5513 287.343 -114.641C309.954 -156.587 333.328 -199.962 373.674 -244.346C414.019 -288.731 453.441 -314.449 491.568 -339.32C528.916 -363.685 564.192 -386.702 600.494 -426.634C636.796 -466.565 657.711 -505.381 679.856 -546.472C702.464 -588.418 725.837 -631.789 766.18 -676.172C780.16 -691.557 795.1 -705.849 810.888 -718.943C813.269 -720.926 815.981 -722.374 818.87 -723.203C821.759 -724.033 824.767 -724.227 827.724 -723.776C830.682 -723.325 833.529 -722.237 836.104 -720.574C838.679 -718.912 840.932 -716.707 842.733 -714.086C844.534 -711.465 845.848 -708.479 846.601 -705.299C847.354 -702.118 847.53 -698.806 847.12 -695.551C846.71 -692.295 845.721 -689.161 844.21 -686.326C842.699 -683.492 840.696 -681.012 838.315 -679.03C824.199 -667.321 810.842 -654.543 798.34 -640.789C762.042 -600.854 741.123 -562.042 718.977 -520.952C696.37 -479.005 672.997 -435.633 632.653 -391.25C592.31 -346.866 552.886 -321.148 514.764 -296.277C477.412 -271.913 442.135 -248.898 405.833 -208.962C369.531 -169.026 348.613 -130.21 326.467 -89.1171C303.86 -47.1754 280.487 -3.8053 240.141 40.578C199.796 84.9613 160.376 110.68 122.254 135.55C84.901 159.917 49.6247 182.93 13.3228 222.868C1.71265 235.632 -9.12994 249.216 -19.1358 263.532C-22.8193 268.789 -28.2482 272.22 -34.229 273.073C-40.2098 273.925 -46.2532 272.128 -51.0312 268.077V268.074ZM-139.167 252.911C-141.703 251.177 -143.904 248.91 -145.643 246.239C-147.382 243.569 -148.627 240.546 -149.304 237.346C-149.982 234.145 -150.08 230.83 -149.593 227.587C-149.106 224.345 -148.043 221.24 -146.465 218.451C-130.554 190.307 -110.017 156.833 -78.357 122C-38.0135 77.6154 1.40967 51.8981 39.5323 27.0264C76.8851 2.66162 112.161 -20.353 148.461 -60.2892C184.761 -100.225 205.684 -139.041 227.831 -180.134C250.435 -222.074 273.81 -265.446 314.153 -309.83C354.497 -354.213 393.92 -379.933 432.046 -404.804C469.395 -429.169 504.672 -452.185 540.972 -492.117C577.272 -532.049 598.187 -570.865 620.332 -611.955C642.943 -653.901 666.317 -697.273 706.664 -741.658C738.705 -776.907 769.822 -799.907 796.033 -817.753C798.572 -819.554 801.411 -820.781 804.385 -821.361C807.359 -821.941 810.408 -821.863 813.354 -821.132C816.3 -820.4 819.084 -819.029 821.544 -817.1C824.004 -815.17 826.089 -812.721 827.68 -809.895C829.27 -807.068 830.333 -803.92 830.806 -800.637C831.279 -797.353 831.153 -793.998 830.435 -790.769C829.718 -787.539 828.422 -784.499 826.626 -781.827C824.829 -779.154 822.567 -776.903 819.971 -775.203C795.976 -758.869 767.573 -737.904 738.824 -706.277C702.526 -666.34 681.604 -627.525 659.457 -586.434C636.85 -544.493 613.475 -501.12 573.133 -456.736C532.79 -412.353 493.368 -386.635 455.245 -361.764C417.892 -337.399 382.614 -314.385 346.314 -274.449C310.014 -234.513 289.101 -195.703 266.953 -154.614C244.342 -112.666 220.971 -69.2931 180.624 -24.9087C140.278 19.4757 100.857 45.1951 62.7319 70.0657C25.3811 94.4315 -9.89532 117.447 -46.1953 157.379C-74.5965 188.628 -93.296 219.145 -107.844 244.879C-109.422 247.67 -111.484 250.093 -113.911 252.007C-116.339 253.921 -119.086 255.29 -121.994 256.036C-124.903 256.782 -127.916 256.889 -130.863 256.353C-133.809 255.817 -136.63 254.646 -139.166 252.91L-139.167 252.911ZM248.154 233.287C246.546 230.519 245.449 227.429 244.925 224.194C244.402 220.959 244.463 217.642 245.105 214.433C245.747 211.224 246.957 208.186 248.665 205.492C250.374 202.797 252.549 200.5 255.064 198.732C283.969 178.407 306.161 159.108 327.022 136.157C363.32 96.2252 384.236 57.4126 406.381 16.3207C428.992 -25.6232 452.365 -68.9954 492.714 -113.38C533.063 -157.764 572.48 -183.485 610.605 -208.356C647.954 -232.721 683.233 -255.736 719.533 -295.67C740.464 -318.701 758.07 -343.224 776.607 -375.181C778.213 -377.953 780.299 -380.348 782.745 -382.233C785.192 -384.117 787.952 -385.452 790.868 -386.162C793.783 -386.871 796.797 -386.942 799.738 -386.37C802.678 -385.797 805.487 -384.592 808.005 -382.825C810.522 -381.057 812.699 -378.761 814.41 -376.068C816.122 -373.374 817.334 -370.335 817.979 -367.125C818.624 -363.916 818.688 -360.598 818.168 -357.361C817.648 -354.124 816.554 -351.031 814.948 -348.26C794.555 -313.122 775.048 -285.988 751.691 -260.284C711.348 -215.902 671.924 -190.183 633.802 -165.311C596.451 -140.946 561.173 -117.931 524.873 -77.995C488.573 -38.0588 467.651 0.754761 445.505 41.8457C422.898 83.7896 399.525 127.16 359.181 171.541C335.905 197.152 311.344 218.543 279.56 240.896C274.478 244.471 268.315 245.679 262.425 244.253C256.535 242.826 251.401 238.884 248.151 233.291L248.154 233.287ZM-220.283 227.938C-222.85 226.26 -225.091 224.043 -226.879 221.411C-228.667 218.78 -229.966 215.786 -230.702 212.602C-231.439 209.417 -231.597 206.104 -231.17 202.852C-230.742 199.599 -229.737 196.472 -228.21 193.648L-224.221 186.25C-201.61 144.294 -178.231 100.91 -137.875 56.5183C-97.5189 12.1263 -58.1084 -13.5833 -19.9858 -38.4562C17.3612 -62.823 52.6435 -85.8356 88.9405 -125.77C125.238 -165.704 146.163 -204.521 168.308 -245.615C190.914 -287.556 214.289 -330.927 254.632 -375.31C294.976 -419.693 334.399 -445.412 372.522 -470.286C409.873 -494.648 445.151 -517.664 481.453 -557.601C517.755 -597.537 538.673 -636.35 560.818 -677.443C583.424 -719.385 606.799 -762.756 647.142 -807.139C687.486 -851.522 726.903 -877.237 765.026 -902.108L773.399 -907.577C775.964 -909.258 778.804 -910.367 781.757 -910.841C784.711 -911.314 787.72 -911.142 790.614 -910.334C793.507 -909.527 796.228 -908.1 798.62 -906.136C801.013 -904.171 803.03 -901.707 804.558 -898.884C806.085 -896.061 807.093 -892.934 807.523 -889.682C807.953 -886.43 807.796 -883.117 807.063 -879.932C806.33 -876.747 805.034 -873.752 803.249 -871.118C801.464 -868.484 799.226 -866.263 796.662 -864.581L788.224 -859.068C750.876 -834.703 715.599 -811.691 679.3 -771.759C643.001 -731.828 622.089 -693.013 599.943 -651.924C577.332 -609.978 553.958 -566.603 513.611 -522.22C473.263 -477.837 433.846 -452.114 395.718 -427.244C358.371 -402.879 323.093 -379.865 286.792 -339.931C250.491 -299.997 229.576 -261.185 207.431 -220.095C184.82 -178.147 161.449 -134.774 121.1 -90.39C80.752 -46.0057 41.3337 -20.2885 3.211 4.58325C-34.1359 28.9502 -69.4182 51.9622 -105.715 91.8983C-142.012 131.834 -162.948 170.666 -185.099 211.768L-189.116 219.215C-190.641 222.041 -192.658 224.508 -195.05 226.477C-197.442 228.445 -200.164 229.875 -203.058 230.685C-205.952 231.495 -208.963 231.669 -211.919 231.198C-214.874 230.726 -217.717 229.619 -220.283 227.938ZM-297.242 192.647C-299.766 190.894 -301.951 188.609 -303.673 185.925C-305.394 183.241 -306.618 180.211 -307.276 177.006C-307.933 173.801 -308.01 170.484 -307.502 167.246C-306.995 164.008 -305.913 160.912 -304.318 158.135C-297.203 145.752 -290.356 133.036 -283.73 120.741C-261.119 78.7943 -237.74 35.4186 -197.397 -8.96362C-157.053 -53.3459 -117.632 -79.0648 -79.5045 -103.935C-42.1576 -128.304 -6.87555 -151.317 29.4215 -191.251C65.6658 -231.125 86.7304 -270.193 107.105 -307.972C110.18 -313.683 115.19 -317.815 121.033 -319.459C126.875 -321.103 133.072 -320.124 138.259 -316.739C143.446 -313.353 147.199 -307.838 148.693 -301.406C150.186 -294.974 149.297 -288.153 146.222 -282.442C125.428 -243.89 101.867 -200.189 61.5815 -155.87C21.2401 -111.488 -18.1852 -85.7688 -56.3118 -60.8982C-93.6588 -36.5312 -128.941 -13.5193 -165.238 26.4169C-201.535 66.353 -222.46 105.169 -244.606 146.264C-251.394 158.857 -258.416 171.882 -265.87 184.863C-269.093 190.475 -274.209 194.447 -280.092 195.907C-285.975 197.367 -292.145 196.194 -297.243 192.647H-297.242ZM-370.342 148.103C-372.803 146.243 -374.907 143.867 -376.533 141.112C-378.159 138.356 -379.276 135.274 -379.82 132.043C-380.364 128.812 -380.323 125.494 -379.702 122.28C-379.08 119.066 -377.889 116.018 -376.197 113.311C-364.195 94.1208 -354.023 75.243 -343.252 55.26C-320.644 13.3151 -297.266 -30.0586 -256.923 -74.4451C-216.579 -118.832 -177.158 -144.544 -139.033 -169.414C-101.682 -193.783 -66.4061 -216.797 -30.1042 -256.732C-18.3531 -269.655 -7.38696 -283.415 2.72314 -297.922C6.39606 -303.187 11.8183 -306.63 17.7971 -307.493C23.7758 -308.357 29.821 -306.57 34.6033 -302.526C39.3855 -298.483 42.5128 -292.514 43.2972 -285.932C44.0815 -279.35 42.4589 -272.695 38.7859 -267.43C27.4746 -251.198 15.2045 -235.804 2.05566 -221.348C-38.2878 -176.959 -77.7102 -151.242 -115.837 -126.371C-153.186 -102.009 -188.466 -78.9917 -224.764 -39.0598C-261.062 0.87207 -281.98 39.692 -304.131 80.785C-314.811 100.603 -325.856 121.094 -338.722 141.675C-342.143 147.142 -347.395 150.889 -353.324 152.094C-359.253 153.3 -365.374 151.864 -370.342 148.103ZM464.233 133.575C461.673 131.883 459.442 129.653 457.666 127.011C455.89 124.37 454.605 121.369 453.883 118.18C453.161 114.991 453.017 111.677 453.459 108.427C453.902 105.176 454.922 102.054 456.46 99.2383C459.643 93.4193 462.777 87.6031 465.915 81.7853C488.519 39.849 511.895 -3.51819 552.23 -47.8972C592.565 -92.2762 631.989 -117.996 670.113 -142.864C676.869 -147.268 683.626 -151.68 690.388 -156.193C692.941 -157.976 695.791 -159.18 698.771 -159.735C701.752 -160.29 704.803 -160.185 707.746 -159.426C710.69 -158.667 713.466 -157.27 715.913 -155.316C718.36 -153.362 720.428 -150.891 721.997 -148.046C723.566 -145.201 724.603 -142.04 725.049 -138.749C725.495 -135.458 725.34 -132.101 724.594 -128.876C723.847 -125.651 722.524 -122.623 720.702 -119.968C718.879 -117.313 716.595 -115.084 713.981 -113.413C707.084 -108.812 700.198 -104.319 693.31 -99.8259C655.961 -75.4612 620.688 -52.4486 584.39 -12.5167C548.092 27.4152 527.182 66.2212 505.034 107.307C501.852 113.215 498.669 119.117 495.439 125.031C493.9 127.848 491.872 130.304 489.471 132.259C487.07 134.214 484.343 135.628 481.445 136.422C478.547 137.216 475.535 137.373 472.582 136.886C469.629 136.398 466.792 135.274 464.233 133.579V133.575ZM-440.73 97.7581C-443.126 95.7985 -445.148 93.3386 -446.68 90.5183C-448.211 87.698 -449.223 84.5726 -449.657 81.3217C-450.091 78.0706 -449.939 74.7573 -449.21 71.571C-448.48 68.3849 -447.187 65.3883 -445.404 62.7526C-429.091 38.623 -416.304 14.8984 -402.764 -10.2235C-380.156 -52.1685 -356.781 -95.5399 -316.435 -139.929C-276.089 -184.317 -236.67 -210.032 -198.543 -234.904C-161.196 -259.269 -125.919 -282.283 -89.6163 -322.217C-88.5995 -323.336 -87.5933 -324.456 -86.5973 -325.577C-82.3693 -330.246 -76.6387 -332.89 -70.6503 -332.934C-64.662 -332.979 -58.8997 -330.421 -54.6147 -325.815C-50.3298 -321.21 -47.8685 -314.929 -47.7654 -308.337C-47.6622 -301.745 -49.9254 -295.375 -54.0637 -290.61C-55.18 -289.356 -56.3112 -288.098 -57.4574 -286.836C-97.8009 -242.452 -137.224 -216.735 -175.347 -191.862C-212.7 -167.498 -247.976 -144.483 -284.278 -104.547C-320.58 -64.6108 -341.498 -25.7972 -363.644 15.2937C-377.182 40.4147 -391.183 66.3906 -408.911 92.6127C-412.511 97.9393 -417.886 101.474 -423.853 102.439C-429.82 103.403 -435.891 101.719 -440.73 97.757V97.7581ZM-503.577 36.6368C-505.951 34.646 -507.946 32.1597 -509.448 29.3195C-510.949 26.4794 -511.927 23.3411 -512.326 20.0845C-512.726 16.828 -512.538 13.5168 -511.774 10.3402C-511.01 7.16357 -509.685 4.18359 -507.875 1.57104C-490.163 -23.9861 -476.62 -49.1143 -462.283 -75.7166C-439.675 -117.66 -416.302 -161.032 -375.957 -205.414C-335.611 -249.797 -296.192 -275.516 -258.069 -300.384C-223.993 -322.615 -191.806 -343.613 -158.824 -377.414C-156.651 -379.718 -154.084 -381.523 -151.271 -382.723C-148.458 -383.923 -145.456 -384.496 -142.441 -384.406C-139.425 -384.317 -136.456 -383.567 -133.706 -382.202C-130.956 -380.836 -128.48 -378.882 -126.423 -376.452C-124.366 -374.023 -122.769 -371.167 -121.725 -368.051C-120.68 -364.936 -120.21 -361.622 -120.34 -358.304C-120.471 -354.986 -121.2 -351.73 -122.485 -348.725C-123.77 -345.72 -125.585 -343.027 -127.825 -340.803C-164.389 -303.325 -200.218 -279.95 -234.873 -257.347C-272.22 -232.982 -307.5 -209.966 -343.799 -170.032C-380.098 -130.098 -401.015 -91.2849 -423.162 -50.1941C-437.531 -23.5327 -452.391 4.03748 -471.704 31.9105C-475.362 37.1882 -480.775 40.6505 -486.751 41.5367C-492.728 42.4231 -498.78 40.6606 -503.577 36.6368ZM-561.66 -30.7144C-564.044 -32.6915 -566.051 -35.1667 -567.565 -37.9982C-569.08 -40.8297 -570.073 -43.9618 -570.487 -47.2159C-570.901 -50.47 -570.728 -53.7821 -569.979 -56.9628C-569.23 -60.1434 -567.918 -63.1302 -566.119 -65.7524C-549.017 -90.6962 -535.798 -115.223 -521.805 -141.191C-499.197 -183.137 -475.824 -226.507 -435.478 -270.892C-395.131 -315.278 -355.711 -340.996 -317.588 -365.869C-282.204 -388.949 -248.782 -410.752 -214.482 -446.909C-210.118 -451.431 -204.309 -453.873 -198.318 -453.704C-192.326 -453.535 -186.638 -450.768 -182.49 -446.006C-178.342 -441.244 -176.07 -434.871 -176.168 -428.274C-176.266 -421.677 -178.726 -415.39 -183.013 -410.78C-221.087 -370.644 -258.35 -346.334 -294.391 -322.826C-331.74 -298.461 -367.022 -275.447 -403.317 -235.511C-439.612 -195.575 -460.539 -156.761 -482.685 -115.671C-496.699 -89.6694 -511.185 -62.7848 -529.814 -35.6196C-533.447 -30.3204 -538.844 -26.8265 -544.816 -25.9067C-550.789 -24.9871 -556.849 -26.7162 -561.664 -30.7144H-561.66ZM-613.911 -106.015C-616.34 -107.925 -618.403 -110.343 -619.982 -113.132C-621.562 -115.92 -622.627 -119.023 -623.116 -122.265C-623.605 -125.506 -623.51 -128.823 -622.834 -132.023C-622.159 -135.224 -620.917 -138.247 -619.18 -140.919C-605.054 -162.656 -593.528 -184.04 -581.326 -206.677C-558.719 -248.621 -535.346 -291.99 -495.003 -336.375C-454.659 -380.76 -415.236 -406.477 -377.113 -431.347C-339.762 -455.713 -304.484 -478.728 -268.182 -518.662C-262.995 -524.368 -257.908 -530.299 -253.071 -536.288C-249.063 -541.248 -243.43 -544.253 -237.411 -544.641C-231.391 -545.029 -225.478 -542.769 -220.972 -538.357C-216.466 -533.946 -213.737 -527.745 -213.384 -521.118C-213.032 -514.491 -215.085 -507.981 -219.092 -503.021C-224.519 -496.314 -230.216 -489.673 -236.024 -483.282C-276.368 -438.895 -315.789 -413.178 -353.916 -388.307C-391.263 -363.943 -426.542 -340.928 -462.843 -300.994C-499.144 -261.06 -520.059 -222.246 -542.206 -181.158C-554.359 -158.609 -566.922 -135.29 -582.189 -111.812C-585.698 -106.413 -591.012 -102.768 -596.961 -101.681C-602.911 -100.593 -609.009 -102.151 -613.916 -106.012L-613.911 -106.015ZM-658.516 -193.596C-661.023 -195.38 -663.187 -197.689 -664.882 -200.394C-666.578 -203.098 -667.773 -206.144 -668.399 -209.357C-669.025 -212.57 -669.069 -215.887 -668.53 -219.119C-667.99 -222.351 -666.877 -225.434 -665.255 -228.193C-656.697 -242.743 -648.635 -257.7 -640.84 -272.165C-618.232 -314.107 -594.856 -357.474 -554.518 -401.856C-514.179 -446.239 -474.75 -471.962 -436.623 -496.833C-399.275 -521.195 -363.998 -544.212 -327.697 -584.146C-298.912 -615.811 -279.391 -647.141 -258.931 -684.433C-255.817 -690.118 -250.779 -694.208 -244.926 -695.803C-239.073 -697.399 -232.884 -696.369 -227.721 -692.941C-222.557 -689.513 -218.842 -683.967 -217.393 -677.524C-215.943 -671.08 -216.878 -664.267 -219.992 -658.582C-242.17 -618.154 -263.504 -584.006 -295.536 -548.763C-335.882 -504.381 -375.303 -478.662 -413.426 -453.791C-450.778 -429.427 -486.057 -406.412 -522.357 -366.476C-558.657 -326.54 -579.573 -287.731 -601.722 -246.644C-609.738 -231.765 -618.03 -216.382 -627.069 -201.009C-630.348 -195.437 -635.502 -191.525 -641.399 -190.135C-647.296 -188.745 -653.454 -189.991 -658.517 -193.597L-658.516 -193.596ZM-697.658 -293.71C-700.223 -295.39 -702.463 -297.61 -704.248 -300.243C-706.034 -302.876 -707.331 -305.87 -708.065 -309.055C-708.799 -312.24 -708.956 -315.553 -708.526 -318.805C-708.097 -322.056 -707.089 -325.183 -705.561 -328.006L-700.35 -337.662C-677.746 -379.598 -654.373 -422.963 -614.037 -467.336C-573.7 -511.708 -534.27 -537.441 -496.144 -562.312C-458.797 -586.677 -423.521 -609.691 -387.218 -649.625C-350.915 -689.559 -330.005 -728.371 -307.859 -769.461C-285.248 -811.406 -261.874 -854.781 -221.526 -899.166C-181.179 -943.55 -141.761 -969.269 -103.634 -994.14C-66.287 -1018.5 -31.0089 -1041.52 5.29211 -1081.45C41.593 -1121.39 62.5054 -1160.2 84.6511 -1201.29C107.264 -1243.23 130.636 -1286.61 170.984 -1330.99C211.331 -1375.38 250.751 -1401.1 288.876 -1425.97C292.933 -1428.62 296.991 -1431.27 301.048 -1433.93C303.61 -1435.64 306.453 -1436.77 309.414 -1437.27C312.376 -1437.76 315.397 -1437.61 318.303 -1436.81C321.21 -1436.01 323.945 -1434.59 326.352 -1432.63C328.759 -1430.67 330.789 -1428.2 332.327 -1425.37C333.865 -1422.54 334.879 -1419.41 335.312 -1416.14C335.746 -1412.88 335.589 -1409.56 334.851 -1406.36C334.113 -1403.17 332.809 -1400.16 331.013 -1397.52C329.218 -1394.88 326.966 -1392.66 324.388 -1390.98C320.28 -1388.28 316.175 -1385.6 312.075 -1382.93C274.722 -1358.56 239.445 -1335.55 203.144 -1295.61C166.843 -1255.68 145.922 -1216.86 123.778 -1175.77C101.169 -1133.83 77.7957 -1090.45 37.4521 -1046.07C-2.8913 -1001.69 -42.3148 -975.97 -80.4374 -951.1C-117.79 -926.735 -153.067 -903.718 -189.367 -863.782C-225.667 -823.846 -246.587 -785.032 -268.734 -743.939C-291.342 -701.997 -314.715 -658.626 -355.058 -614.244C-395.402 -569.861 -434.825 -544.142 -472.948 -519.272C-510.297 -494.906 -545.578 -471.891 -581.876 -431.958C-618.174 -392.025 -639.085 -353.228 -661.228 -312.143L-666.48 -302.408C-669.567 -296.703 -674.585 -292.582 -680.431 -290.951C-686.278 -289.319 -692.473 -290.31 -697.656 -293.707L-697.658 -293.71ZM-729.449 -411.105C-731.964 -412.875 -734.137 -415.173 -735.845 -417.869C-737.553 -420.564 -738.761 -423.604 -739.401 -426.813C-740.041 -430.023 -740.1 -433.34 -739.575 -436.575C-739.049 -439.81 -737.95 -442.899 -736.339 -445.666C-716.11 -480.426 -696.749 -507.306 -673.558 -532.821C-633.216 -577.201 -593.791 -602.921 -555.67 -627.79C-518.317 -652.157 -483.041 -675.172 -446.739 -715.108C-410.437 -755.044 -389.519 -793.859 -367.373 -834.953C-344.766 -876.893 -321.391 -920.266 -281.049 -964.648C-240.708 -1009.03 -201.283 -1034.75 -163.16 -1059.62C-125.807 -1083.99 -90.5307 -1107 -54.2288 -1146.94C-17.9269 -1186.87 2.99139 -1225.69 25.1381 -1266.78C47.7452 -1308.72 71.1204 -1352.09 111.462 -1396.48C142.168 -1430.26 171.922 -1452.53 194.408 -1468.15C196.931 -1469.93 199.748 -1471.14 202.697 -1471.71C205.646 -1472.29 208.668 -1472.21 211.591 -1471.49C214.514 -1470.78 217.279 -1469.43 219.728 -1467.53C222.177 -1465.64 224.262 -1463.23 225.862 -1460.44C227.462 -1457.65 228.546 -1454.55 229.052 -1451.3C229.558 -1448.05 229.476 -1444.72 228.81 -1441.51C228.144 -1438.29 226.908 -1435.26 225.173 -1432.57C223.438 -1429.88 221.237 -1427.6 218.698 -1425.85C198.207 -1411.61 171.153 -1391.38 143.623 -1361.1C107.325 -1321.16 86.4094 -1282.35 64.2618 -1241.26C41.6506 -1199.31 18.2784 -1155.94 -22.0709 -1111.56C-62.4202 -1067.17 -101.836 -1041.45 -139.96 -1016.58C-177.311 -992.217 -212.587 -969.2 -248.887 -929.269C-285.187 -889.337 -306.106 -850.521 -328.246 -809.432C-350.858 -767.485 -374.232 -724.111 -414.579 -679.728C-454.927 -635.344 -494.346 -609.622 -532.472 -584.753C-569.819 -560.386 -605.103 -537.374 -641.4 -497.442C-662.175 -474.577 -679.649 -450.285 -698.036 -418.687C-701.289 -413.096 -706.425 -409.157 -712.316 -407.736C-718.207 -406.314 -724.369 -407.526 -729.448 -411.106L-729.449 -411.105ZM312.292 -506.182C310.766 -509.006 309.76 -512.133 309.331 -515.386C308.903 -518.638 309.062 -521.951 309.797 -525.136C310.533 -528.321 311.832 -531.315 313.619 -533.947C315.407 -536.58 317.648 -538.798 320.214 -540.476C356.164 -563.994 388.63 -586.444 421.931 -623.081C458.229 -663.013 479.144 -701.826 501.291 -742.916C523.902 -784.862 547.276 -828.237 587.624 -872.62C627.971 -917.004 667.384 -942.72 705.509 -967.593C717.142 -975.183 729.177 -983.034 740.891 -991.225C743.411 -993.043 746.233 -994.291 749.194 -994.898C752.156 -995.505 755.197 -995.458 758.142 -994.759C761.087 -994.061 763.876 -992.726 766.348 -990.831C768.82 -988.936 770.924 -986.519 772.541 -983.721C774.157 -980.922 775.252 -977.798 775.762 -974.53C776.272 -971.262 776.187 -967.915 775.512 -964.683C774.837 -961.451 773.585 -958.4 771.83 -955.705C770.074 -953.011 767.849 -950.726 765.285 -948.986C752.98 -940.393 740.639 -932.337 728.709 -924.556C691.36 -900.19 656.084 -877.177 619.787 -837.245C583.49 -797.313 562.565 -758.493 540.42 -717.4C517.814 -675.458 494.439 -632.088 454.095 -587.705C417.124 -547.029 380.67 -521.813 343.466 -497.473C338.282 -494.08 332.087 -493.092 326.242 -494.726C320.397 -496.36 315.381 -500.483 312.297 -506.188L312.292 -506.182ZM-746.485 -545.5C-748.703 -547.699 -750.505 -550.358 -751.79 -553.324C-753.074 -556.29 -753.814 -559.505 -753.969 -562.786C-754.124 -566.068 -753.691 -569.351 -752.693 -572.447C-751.695 -575.544 -750.153 -578.394 -748.154 -580.835C-743.321 -586.731 -738.247 -592.609 -733.074 -598.3C-692.732 -642.686 -653.309 -668.403 -615.181 -693.274C-577.834 -717.639 -542.554 -740.655 -506.255 -780.585C-469.956 -820.515 -449.039 -859.331 -426.896 -900.42C-404.285 -942.368 -380.911 -985.741 -340.563 -1030.13C-300.216 -1074.51 -260.799 -1100.23 -222.671 -1125.1C-185.324 -1149.46 -150.046 -1172.48 -113.745 -1212.41C-77.4438 -1252.35 -56.5285 -1291.16 -34.3857 -1332.25C-11.7746 -1374.2 11.5994 -1417.57 51.9448 -1461.95C57.3407 -1467.89 62.9525 -1473.74 68.6157 -1479.33C70.8282 -1481.59 73.4261 -1483.34 76.2586 -1484.48C79.091 -1485.62 82.1013 -1486.13 85.114 -1485.97C88.1266 -1485.82 91.0814 -1485.01 93.8064 -1483.59C96.5314 -1482.16 98.9721 -1480.16 100.986 -1477.69C103.001 -1475.22 104.548 -1472.33 105.539 -1469.19C106.53 -1466.06 106.944 -1462.74 106.757 -1459.42C106.57 -1456.11 105.787 -1452.87 104.452 -1449.89C103.117 -1446.92 101.257 -1444.26 98.9811 -1442.08C93.9354 -1437.1 88.9307 -1431.88 84.1135 -1426.58C47.8047 -1386.63 26.8846 -1347.82 4.73895 -1306.73C-17.8683 -1264.79 -41.2415 -1221.41 -81.5849 -1177.03C-121.928 -1132.65 -161.352 -1106.93 -199.472 -1082.06C-236.826 -1057.69 -272.104 -1034.68 -308.406 -994.744C-344.707 -954.808 -365.626 -915.992 -387.771 -874.899C-410.378 -832.957 -433.752 -789.586 -474.095 -745.203C-514.439 -700.82 -553.862 -675.103 -591.985 -650.235C-629.335 -625.868 -664.614 -602.853 -700.914 -562.918C-705.537 -557.832 -710.061 -552.589 -714.368 -547.334C-718.408 -542.406 -724.059 -539.444 -730.082 -539.1C-736.104 -538.756 -742.004 -541.058 -746.485 -545.499V-545.5ZM323.062 -619.082C321.227 -621.673 319.873 -624.637 319.079 -627.805C318.285 -630.972 318.066 -634.281 318.434 -637.542C318.802 -640.802 319.751 -643.952 321.225 -646.808C322.7 -649.665 324.671 -652.174 327.027 -654.191C339.461 -664.825 351.279 -676.303 362.412 -688.559C398.71 -728.496 419.632 -767.309 441.779 -808.404C464.385 -850.344 487.76 -893.716 528.104 -938.1C568.447 -982.483 607.865 -1008.2 645.987 -1033.07C664.897 -1045.4 682.759 -1057.06 700.922 -1070.96C703.371 -1072.84 706.133 -1074.17 709.048 -1074.87C711.964 -1075.57 714.977 -1075.64 717.916 -1075.06C720.854 -1074.48 723.66 -1073.27 726.173 -1071.49C728.687 -1069.72 730.858 -1067.42 732.564 -1064.72C734.27 -1062.03 735.476 -1058.99 736.115 -1055.78C736.753 -1052.57 736.811 -1049.25 736.285 -1046.02C735.759 -1042.78 734.66 -1039.69 733.05 -1036.93C731.439 -1034.16 729.35 -1031.77 726.9 -1029.89C707.385 -1014.95 687.968 -1002.28 669.189 -990.031C631.84 -965.664 596.564 -942.652 560.265 -902.718C523.966 -862.784 503.052 -823.972 480.907 -782.883C458.294 -740.937 434.922 -697.564 394.574 -653.18C382.116 -639.466 368.892 -626.623 354.979 -614.724C350.22 -610.646 344.186 -608.815 338.201 -609.633C332.217 -610.451 326.773 -613.853 323.066 -619.088L323.062 -619.082ZM-746.642 -676.658C-748.404 -679.311 -749.673 -682.32 -750.378 -685.513C-751.083 -688.706 -751.209 -692.021 -750.75 -695.268C-750.29 -698.514 -749.254 -701.63 -747.701 -704.435C-746.148 -707.241 -744.107 -709.683 -741.696 -711.62C-718.992 -729.866 -696.478 -744.552 -674.707 -758.753C-637.354 -783.12 -602.075 -806.133 -565.776 -846.071C-529.477 -886.009 -508.556 -924.822 -486.41 -965.914C-463.803 -1007.86 -440.43 -1051.23 -400.086 -1095.61C-359.743 -1139.99 -320.319 -1165.71 -282.197 -1190.58C-244.844 -1214.95 -209.566 -1237.96 -173.266 -1277.9C-136.966 -1317.83 -116.051 -1356.65 -93.9019 -1397.74C-80.4658 -1422.67 -66.5709 -1448.45 -49.0327 -1474.47C-47.2548 -1477.11 -45.0219 -1479.34 -42.4614 -1481.03C-39.9009 -1482.72 -37.0629 -1483.84 -34.1096 -1484.32C-31.1563 -1484.8 -28.1457 -1484.64 -25.2493 -1483.84C-22.3528 -1483.04 -19.6273 -1481.63 -17.2286 -1479.67C-14.8299 -1477.71 -12.8049 -1475.25 -11.2692 -1472.43C-9.73352 -1469.62 -8.71735 -1466.49 -8.27838 -1463.24C-7.83942 -1459.99 -7.98633 -1456.68 -8.711 -1453.49C-9.43561 -1450.3 -10.7236 -1447.3 -12.5016 -1444.66C-28.6464 -1420.71 -41.34 -1397.15 -54.7829 -1372.22C-77.3853 -1330.28 -100.761 -1286.9 -141.105 -1242.52C-181.448 -1198.14 -220.872 -1172.42 -258.997 -1147.54C-296.346 -1123.18 -331.623 -1100.17 -367.926 -1060.23C-404.228 -1020.3 -425.139 -981.487 -447.284 -940.396C-469.894 -898.453 -493.268 -855.078 -533.615 -810.692C-573.962 -766.307 -613.382 -740.589 -651.507 -715.716C-673.316 -701.489 -693.922 -688.05 -714.864 -671.217C-719.734 -667.302 -725.817 -665.676 -731.776 -666.697C-737.734 -667.717 -743.081 -671.301 -746.64 -676.66L-746.642 -676.658ZM300.842 -716.685C298.746 -719.024 297.089 -721.796 295.967 -724.841C294.844 -727.886 294.278 -731.144 294.3 -734.43C294.323 -737.716 294.933 -740.965 296.097 -743.992C297.261 -747.018 298.955 -749.762 301.083 -752.066L302.897 -754.044C339.195 -793.98 360.11 -832.791 382.256 -873.88C404.867 -915.825 428.241 -959.201 468.588 -1003.59C508.936 -1047.97 548.355 -1073.69 586.481 -1098.56C609.793 -1113.77 631.812 -1128.13 654.209 -1146.62C656.59 -1148.67 659.319 -1150.17 662.234 -1151.04C665.15 -1151.91 668.194 -1152.14 671.188 -1151.7C674.183 -1151.26 677.068 -1150.17 679.676 -1148.49C682.283 -1146.81 684.561 -1144.57 686.375 -1141.92C688.189 -1139.26 689.503 -1136.23 690.241 -1133C690.979 -1129.78 691.125 -1126.42 690.672 -1123.13C690.219 -1119.84 689.175 -1116.69 687.601 -1113.85C686.027 -1111.01 683.955 -1108.55 681.506 -1106.6C657.136 -1086.48 633.012 -1070.74 609.677 -1055.52C572.326 -1031.15 537.048 -1008.14 500.746 -968.204C464.444 -928.268 443.526 -889.452 421.381 -848.359C398.773 -806.417 375.4 -763.045 335.057 -718.663L333.008 -716.42C328.709 -711.763 322.907 -709.176 316.876 -709.226C310.846 -709.276 305.08 -711.96 300.846 -716.688L300.842 -716.685ZM-729.918 -797.877C-731.45 -800.697 -732.463 -803.822 -732.897 -807.073C-733.332 -810.324 -733.181 -813.638 -732.452 -816.824C-731.723 -820.011 -730.43 -823.008 -728.649 -825.645C-726.867 -828.281 -724.631 -830.505 -722.068 -832.19C-691.075 -852.575 -658.072 -875.495 -625.294 -911.553C-588.996 -951.485 -568.081 -990.298 -545.935 -1031.39C-523.326 -1073.33 -499.952 -1116.71 -459.604 -1161.09C-419.257 -1205.48 -379.837 -1231.19 -341.712 -1256.07C-304.363 -1280.43 -269.083 -1303.45 -232.785 -1343.38C-200.13 -1379.31 -179.553 -1415.11 -161.272 -1448.7C-158.175 -1454.4 -153.15 -1458.51 -147.302 -1460.13C-141.453 -1461.74 -135.26 -1460.74 -130.085 -1457.33C-124.91 -1453.92 -121.177 -1448.39 -119.707 -1441.95C-118.238 -1435.51 -119.151 -1428.7 -122.248 -1423C-141.989 -1386.72 -164.302 -1347.96 -200.625 -1308C-240.968 -1263.62 -280.392 -1237.9 -318.514 -1213.03C-355.867 -1188.66 -391.146 -1165.65 -427.445 -1125.71C-463.745 -1085.78 -484.665 -1046.96 -506.812 -1005.87C-529.419 -963.926 -552.794 -920.554 -593.136 -876.173C-629.592 -836.066 -665.29 -811.236 -698.732 -789.241C-703.908 -785.833 -710.102 -784.829 -715.951 -786.448C-721.8 -788.068 -726.824 -792.179 -729.92 -797.877H-729.918ZM255.115 -796.146C252.921 -798.374 251.148 -801.056 249.897 -804.04C248.646 -807.023 247.941 -810.248 247.822 -813.532C247.704 -816.815 248.174 -820.092 249.207 -823.175C250.239 -826.258 251.814 -829.086 253.84 -831.499C283.916 -867.332 302.773 -902.318 322.737 -939.362C345.344 -981.305 368.717 -1024.68 409.065 -1069.06C449.412 -1113.45 488.827 -1139.17 526.953 -1164.04C551.582 -1180.1 574.843 -1195.28 598.509 -1215.29C600.875 -1217.3 603.576 -1218.77 606.458 -1219.62C609.34 -1220.48 612.347 -1220.7 615.307 -1220.27C618.267 -1219.85 621.122 -1218.78 623.709 -1217.15C626.296 -1215.51 628.564 -1213.32 630.384 -1210.72C632.204 -1208.11 633.54 -1205.14 634.316 -1201.97C635.092 -1198.79 635.293 -1195.48 634.907 -1192.22C634.521 -1188.97 633.556 -1185.82 632.066 -1182.97C630.577 -1180.13 628.593 -1177.63 626.227 -1175.63C600.396 -1153.77 574.85 -1137.11 550.15 -1121C512.799 -1096.63 477.521 -1073.62 441.223 -1033.68C404.925 -993.746 384.003 -954.93 361.858 -913.839C341.562 -876.193 320.583 -837.267 287.249 -797.555C283.156 -792.68 277.472 -789.793 271.447 -789.529C265.421 -789.265 259.547 -791.645 255.115 -796.147V-796.146ZM192.26 -858.126C190.09 -860.382 188.345 -863.087 187.125 -866.086C185.905 -869.084 185.234 -872.318 185.15 -875.602C185.066 -878.887 185.57 -882.157 186.635 -885.227C187.699 -888.296 189.303 -891.105 191.354 -893.492C223.163 -930.517 242.618 -966.624 263.225 -1004.85C285.827 -1046.79 309.203 -1090.16 349.543 -1134.54C389.882 -1178.93 429.309 -1204.65 467.435 -1229.52C491.756 -1245.38 514.727 -1260.37 538.093 -1280.02C540.46 -1282.06 543.172 -1283.57 546.072 -1284.45C548.971 -1285.32 551.999 -1285.56 554.982 -1285.14C557.966 -1284.73 560.844 -1283.66 563.45 -1282.01C566.057 -1280.36 568.339 -1278.15 570.166 -1275.52C571.993 -1272.89 573.327 -1269.89 574.093 -1266.69C574.858 -1263.49 575.038 -1260.15 574.623 -1256.87C574.209 -1253.59 573.207 -1250.44 571.677 -1247.59C570.146 -1244.74 568.117 -1242.25 565.707 -1240.27C540.217 -1218.83 515.006 -1202.38 490.629 -1186.48C453.277 -1162.11 417.997 -1139.1 381.698 -1099.16C345.398 -1059.23 324.484 -1020.42 302.339 -979.329C281.374 -940.428 259.69 -900.198 224.405 -859.127C220.261 -854.305 214.547 -851.491 208.518 -851.303C202.49 -851.116 196.641 -853.571 192.256 -858.129L192.26 -858.126ZM107.929 -899.818C105.932 -902.26 104.392 -905.112 103.397 -908.21C102.401 -911.307 101.971 -914.591 102.129 -917.872C102.287 -921.153 103.03 -924.368 104.318 -927.333C105.605 -930.297 107.41 -932.954 109.63 -935.15C114.64 -940.101 119.583 -945.262 124.335 -950.488C160.633 -990.424 181.548 -1029.23 203.694 -1070.32C226.305 -1112.27 249.677 -1155.64 290.025 -1200.03C330.372 -1244.41 369.787 -1270.13 407.913 -1295C428.989 -1308.75 448.895 -1321.74 469.135 -1337.79C471.551 -1339.8 474.305 -1341.25 477.237 -1342.06C480.169 -1342.88 483.219 -1343.04 486.209 -1342.54C489.199 -1342.05 492.068 -1340.9 494.65 -1339.16C497.231 -1337.43 499.472 -1335.14 501.242 -1332.44C503.011 -1329.74 504.274 -1326.68 504.956 -1323.44C505.638 -1320.2 505.725 -1316.84 505.213 -1313.56C504.7 -1310.28 503.599 -1307.14 501.972 -1304.33C500.345 -1301.53 498.227 -1299.11 495.74 -1297.21C473.847 -1279.84 452.123 -1265.67 431.109 -1251.96C393.759 -1227.59 358.48 -1204.58 322.183 -1164.65C285.886 -1124.71 264.963 -1085.9 242.816 -1044.8C220.21 -1002.86 196.836 -959.49 156.494 -915.109C151.177 -909.261 145.644 -903.487 140.04 -897.943C135.555 -893.505 129.653 -891.21 123.631 -891.562C117.609 -891.914 111.961 -894.883 107.928 -899.819L107.929 -899.818ZM-30.5149 -908.239C-32.0663 -911.046 -33.1002 -914.162 -33.5569 -917.409C-34.0137 -920.657 -33.8844 -923.971 -33.1768 -927.164C-32.4691 -930.356 -31.1968 -933.364 -29.4326 -936.015C-27.6685 -938.666 -25.4471 -940.908 -22.8954 -942.613C4.97308 -961.253 34.8838 -983.041 64.8121 -1015.97C101.11 -1055.91 122.034 -1094.72 144.18 -1135.81C166.787 -1177.76 190.16 -1221.13 230.504 -1265.51C270.847 -1309.89 310.265 -1335.61 348.384 -1360.48C362.63 -1369.77 377.351 -1379.37 391.671 -1389.71C394.166 -1391.52 396.959 -1392.76 399.891 -1393.38C402.823 -1393.99 405.836 -1393.97 408.759 -1393.3C411.682 -1392.64 414.457 -1391.34 416.925 -1389.49C419.394 -1387.65 421.508 -1385.28 423.147 -1382.54C424.786 -1379.79 425.917 -1376.72 426.477 -1373.49C427.036 -1370.26 427.012 -1366.94 426.406 -1363.72C425.801 -1360.51 424.626 -1357.45 422.948 -1354.73C421.271 -1352.02 419.123 -1349.69 416.629 -1347.89C401.442 -1336.92 386.263 -1327.01 371.583 -1317.44C334.238 -1293.07 298.961 -1270.06 262.664 -1230.13C226.368 -1190.2 205.451 -1151.38 183.304 -1110.29C160.694 -1068.35 137.32 -1024.97 96.9731 -980.588C63.6521 -943.925 31.0238 -920.121 0.732544 -899.857C-1.81879 -898.149 -4.65082 -897.01 -7.60181 -896.507C-10.5529 -896.003 -13.5651 -896.145 -16.4665 -896.923C-19.3679 -897.701 -22.1019 -899.1 -24.512 -901.041C-26.9221 -902.982 -28.9611 -905.427 -30.5129 -908.236L-30.5149 -908.239ZM-673.858 -952.832C-676.046 -955.067 -677.813 -957.755 -679.057 -960.742C-680.301 -963.729 -680.998 -966.956 -681.109 -970.24C-681.219 -973.524 -680.74 -976.799 -679.7 -979.879C-678.66 -982.959 -677.079 -985.783 -675.047 -988.19C-644.568 -1024.3 -625.568 -1059.56 -605.454 -1096.88C-582.849 -1138.82 -559.471 -1182.19 -519.127 -1226.58C-478.784 -1270.96 -439.36 -1296.68 -401.238 -1321.55C-366.828 -1344 -334.322 -1365.2 -301.009 -1399.6C-296.614 -1404.14 -290.758 -1406.58 -284.732 -1406.37C-278.705 -1406.16 -273 -1403.32 -268.872 -1398.48C-264.745 -1393.64 -262.532 -1387.2 -262.722 -1380.56C-262.911 -1373.93 -265.487 -1367.65 -269.883 -1363.1C-306.837 -1324.96 -343.034 -1301.34 -378.04 -1278.51C-415.387 -1254.15 -450.667 -1231.13 -486.966 -1191.2C-523.265 -1151.27 -544.183 -1112.45 -566.329 -1071.36C-586.78 -1033.41 -607.927 -994.179 -641.721 -954.144C-645.826 -949.281 -651.517 -946.412 -657.543 -946.166C-663.569 -945.92 -669.437 -948.318 -673.858 -952.833V-952.832Z" fill="#B3D3D0"/>
</svg>
