<svg width="108" height="48" viewBox="0 0 108 48" fill="none" xmlns="http://www.w3.org/2000/svg">
<path d="M97.9498 18.6387L98.5661 18.1622C99.2629 17.6062 100.013 17.1561 100.79 16.706C107.249 13.1318 106.847 6.19526 106.552 5.10976C105.989 3.0182 107.999 0 107.999 0C101.648 5.13624 103.283 6.75124 101.568 11.4903C100.576 14.2173 99.3433 16.2824 98.4858 17.5797C97.387 18.7711 96.2614 19.9095 95.0555 20.995C93.126 22.7954 91.0356 24.4104 88.8649 25.9195C87.793 26.6873 86.6674 27.3756 85.5418 28.064L83.8267 29.0436C83.2639 29.3878 82.6475 29.6525 82.0848 29.9702C81.4416 30.2879 80.7984 30.6056 80.1284 30.9233C84.7111 26.5814 87.3106 20.9686 88.0073 18.2681C88.1413 18.2945 88.2753 18.321 88.4361 18.321C89.4813 18.2945 90.3121 17.4473 90.2853 16.4148C90.2585 15.3822 89.4009 14.5615 88.3557 14.588C87.3106 14.6145 86.4798 15.4617 86.5066 16.4942C86.5066 17.1561 86.8818 17.7386 87.4446 18.0563C85.7562 24.0662 79.8604 29.9437 77.5825 32.0353C76.6714 32.406 75.7602 32.7501 74.8222 33.0678C72.3299 33.9151 69.784 34.6299 67.2113 35.1594C64.6386 35.6624 62.0123 36.0066 59.386 36.1919C58.9572 36.2184 58.5552 36.2449 58.1264 36.2714C59.3592 35.0535 61.7979 32.9355 65.2818 31.0292C70.5612 28.1434 72.7587 29.7055 77.6093 21.4186C77.6093 21.4186 74.4471 24.3309 71.8743 24.0927C70.5076 23.9603 62.2803 24.834 59.3056 32.9619C58.9572 33.9415 58.5284 34.8946 58.0193 35.7948L57.7245 36.2979C55.6609 36.3773 53.5706 36.3243 51.5339 36.1655C48.9076 36.0066 46.3081 35.6095 43.7622 35.0535L42.7974 34.8417C42.4758 34.7887 42.1542 34.7093 41.8327 34.6034L41.7255 34.5769C46.9245 34.4446 51.0783 32.3001 53.0882 31.0557C53.1686 31.1616 53.2222 31.241 53.3294 31.3205C53.9726 31.9029 54.991 31.85 55.5805 31.2146C56.1701 30.5792 56.1165 29.5731 55.4733 28.9906C54.8302 28.4082 53.8118 28.4611 53.2222 29.0965C52.8202 29.5201 52.7131 30.1026 52.8738 30.6056C48.1572 33.4385 40.7607 33.6238 38.2952 33.6238C38.2148 33.5974 38.1612 33.5709 38.0808 33.5709C37.7592 33.465 37.4644 33.3856 37.1428 33.2796L36.2317 32.9355L35.3205 32.5913L34.8649 32.4324L34.4093 32.2471L32.6138 31.5058C31.9974 31.2675 31.4346 30.9498 30.8451 30.6851L29.9607 30.2614C29.6659 30.1291 29.3711 29.9702 29.0763 29.8114C27.924 29.2024 26.7716 28.5935 25.6729 27.9051L24.9761 27.4815C26.7984 27.1638 29.6659 26.8461 33.1498 27.1109C39.1528 27.561 40.1443 30.0496 48.8004 25.7606C48.8004 25.7606 44.5394 26.4755 42.5294 24.8869C41.4575 24.0397 34.0877 20.3067 27.0932 25.4959C26.2624 26.1048 25.3781 26.6873 24.4669 27.1638H24.4401L24.0381 26.8991L22.4302 25.8136C20.3399 24.3045 18.2763 22.6895 16.4272 20.9156L15.7036 20.2537C15.4624 20.0419 15.248 19.8036 15.0336 19.5654L13.6937 18.1886L12.4073 16.7325C12.193 16.4942 11.9786 16.2559 11.7642 16.0177L11.1478 15.2763C10.6922 14.7204 10.2366 14.1379 9.78104 13.5554C15.6232 16.9708 21.7602 17.6327 24.9225 17.7121C24.9225 17.8709 24.9493 18.0298 24.9761 18.1886C25.2709 19.3271 26.45 20.0419 27.6024 19.7507C28.7547 19.4595 29.4783 18.2945 29.1835 17.1561C28.8887 16.0177 27.7096 15.3028 26.5572 15.594C25.8068 15.7794 25.2441 16.3354 25.0029 17.0502C18.5175 16.7854 11.3354 12.7876 7.71752 10.5108C7.36913 9.98125 7.02075 9.42526 6.69916 8.89575L5.73439 7.2278C5.41281 6.67181 5.14482 6.08935 4.82323 5.53337L4.36764 4.68616C4.20685 4.39493 4.09966 4.1037 3.96566 3.81247L3.16169 2.06509L3.13489 1.98566C3.13489 1.98566 3.13489 1.95918 3.10809 1.95918C2.70611 1.16492 1.74134 0.820739 0.910573 1.21787C0.106603 1.615 -0.241784 2.56812 0.160201 3.38886L1.07137 5.16271C1.23216 5.45394 1.36616 5.77165 1.52695 6.06288L2.00933 6.96304C2.33092 7.54551 2.65251 8.15444 3.0009 8.7369L4.07286 10.4578C5.11802 12.0728 6.24358 13.6613 7.42273 15.1704C7.31554 16.2824 7.12794 17.3944 6.88675 18.5063C4.36765 29.9967 13.2113 36.9068 14.8997 37.7275C18.0351 39.2896 19.5627 44.9024 19.5627 44.9024C20.0451 31.9029 16.3468 32.1147 12.4073 25.0193C10.6922 21.9482 9.56665 19.1153 8.84308 16.8913C8.86988 16.9178 8.89668 16.9443 8.92348 16.9708L9.56665 17.7386C9.78104 18.0033 10.0222 18.2416 10.2634 18.4799L11.657 19.9625L13.1041 21.3657C13.3453 21.604 13.5865 21.8423 13.8277 22.0541L14.5781 22.7159C16.2128 24.1986 17.9547 25.5488 19.7503 26.8196C22.8858 29.3613 29.4247 35.2124 31.7562 41.54C31.1667 41.9636 30.7647 42.652 30.8183 43.4198C30.8987 44.6111 31.917 45.5113 33.123 45.4319C34.3289 45.3525 35.2401 44.3464 35.1597 43.155C35.0793 41.9636 34.0609 41.0634 32.855 41.1429C32.6942 41.1429 32.5334 41.1958 32.3726 41.2223C31.5418 38.813 29.7463 34.6828 26.316 30.8174C26.8788 31.1087 27.4684 31.3999 28.0312 31.6911C28.326 31.85 28.6475 31.9824 28.9423 32.1147L29.8803 32.5383C30.4967 32.8031 31.1131 33.1208 31.7562 33.3326L33.659 34.0739L34.1413 34.2592L34.6237 34.4181L35.5885 34.7358L36.5532 35.0535C36.8748 35.1594 37.1964 35.2388 37.518 35.3447C38.1612 35.5301 38.8044 35.7154 39.4743 35.9007L39.6887 35.9537L39.7155 35.9801C40.3319 36.8274 40.8411 37.7275 41.3235 38.6277C45.2361 46.3585 53.5438 46.2526 54.8838 45.9614C57.4029 45.4319 60.8867 47.9471 60.8867 47.9471C55.0982 40.2956 53.0882 42.096 47.4872 39.8456C44.5662 38.6542 42.2614 37.251 40.7607 36.1919L41.4575 36.3508C41.7791 36.4302 42.1274 36.5097 42.449 36.5626L43.4406 36.7479C46.0937 37.2245 48.7736 37.5687 51.4803 37.6746C52.9542 37.7275 54.4282 37.754 55.9021 37.7275C58.5284 38.0717 67.4257 39.5014 72.5711 43.7375C72.3031 44.3199 72.3299 45.0083 72.7051 45.5643C73.2947 46.4115 74.447 46.6498 75.3314 46.0673C76.189 45.4848 76.4302 44.3464 75.8406 43.4727C75.251 42.6255 74.0987 42.3872 73.2143 42.9697C73.0803 43.0491 72.9731 43.155 72.8927 43.2344C70.856 41.5135 66.7021 38.5218 61.0743 37.3569C63.2451 37.0921 65.389 36.7479 67.5061 36.2714C69.4088 35.8213 71.2848 35.2918 73.1339 34.6828L73.2947 34.8152C74.0183 35.3183 74.6614 35.9272 75.3046 36.5361C80.5304 41.7253 87.1766 39.5014 88.1681 38.9189C90.0709 37.8334 93.5279 38.9454 93.5279 38.9454C86.8282 34.2857 85.6758 36.2714 80.584 35.9007C77.5289 35.6889 75.0634 35.027 73.6163 34.524C74.1523 34.3387 74.6882 34.1533 75.2242 33.9415C77.7433 33.0149 80.1552 31.8764 82.5135 30.6056C83.1031 30.2879 83.6927 29.9967 84.2555 29.626L85.9706 28.5935C86.453 28.2758 86.9354 27.9581 87.4178 27.6404C93.5815 26.8461 98.9413 24.0132 101.139 22.3188C101.219 22.4247 101.326 22.5306 101.46 22.61C102.291 23.219 103.47 23.0336 104.087 22.2129C104.703 21.3922 104.516 20.2272 103.685 19.6183C102.854 19.0094 101.675 19.1947 101.058 20.0154C100.656 20.5714 100.603 21.2333 100.844 21.8158C97.6014 24.2515 93.0188 25.5753 89.3473 26.3166C91.4912 24.7546 93.5279 23.0601 95.4307 21.2068C96.2346 20.4391 97.0922 19.5389 97.9498 18.6387Z" fill="#A9C2BE"/>
</svg>
