<?xml version="1.0" encoding="UTF-8"?>
<svg width="221px" height="55px" viewBox="0 0 221 55" version="1.1" xmlns="http://www.w3.org/2000/svg" xmlns:xlink="http://www.w3.org/1999/xlink">
    <!-- Generator: Sketch 63.1 (92452) - https://sketch.com -->
    <title>Group</title>
    <desc>Created with Sketch.</desc>
    <g id="Page-1" stroke="none" stroke-width="1" fill="none" fill-rule="evenodd">
        <g id="Group" transform="translate(0.000000, -0.000200)">
            <path d="M30.191,9.843 C25.74,9.758 21.29,9.672 16.841,9.588 L16.841,9.588 C15.652,6.219 12.443,3.806 8.668,3.806 L8.668,3.806 C3.881,3.806 -2.84217094e-14,7.688 -2.84217094e-14,12.474 L-2.84217094e-14,12.474 C-2.84217094e-14,17.261 3.881,21.142 8.668,21.142 L8.668,21.142 C12.281,21.142 15.376,18.93 16.678,15.789 L16.678,15.789 C16.923,15.518 17.167,15.247 17.412,14.976 L17.412,14.976 C21.666,14.994 25.919,15.012 30.172,15.031 L30.172,15.031 C30.473,16.475 31.026,17.827 31.778,19.041 L31.778,19.041 C31.089,20.001 25.654,25.458 23.534,26.922 L23.534,26.922 C22.432,26.417 21.208,26.13 19.915,26.13 L19.915,26.13 C15.128,26.13 11.246,30.011 11.246,34.798 L11.246,34.798 C11.246,39.585 15.128,43.466 19.915,43.466 L19.915,43.466 C24.702,43.466 28.583,39.585 28.583,34.798 L28.583,34.798 C28.583,33.547 28.317,32.359 27.839,31.286 L27.839,31.286 C28.727,29.784 29.86,28.437 30.951,27.002 L30.951,27.002 C32.33,25.482 33.666,23.913 35.39,22.805 L35.39,22.805 C36.646,23.656 38.067,24.282 39.594,24.631 L39.594,24.631 C39.757,25.172 39.806,25.801 39.72,26.547 L39.72,26.547 C39.284,30.326 40.275,34.247 38.741,37.85 L38.741,37.85 C35.677,39.186 33.533,42.241 33.533,45.798 L33.533,45.798 C33.533,50.585 37.414,54.466 42.201,54.466 L42.201,54.466 C46.988,54.466 50.869,50.585 50.869,45.798 L50.869,45.798 C50.869,42.202 48.676,39.116 45.554,37.803 L45.554,37.803 C44.863,36.531 44.851,35.137 44.878,33.594 L44.878,33.594 C44.919,31.314 44.995,29.027 44.859,26.757 L44.859,26.757 C44.808,25.942 44.86,25.257 45.053,24.659 L45.053,24.659 C50.658,23.435 54.858,18.446 54.858,12.474 L54.858,12.474 C54.858,5.585 49.271,3.55271368e-15 42.383,3.55271368e-15 L42.383,3.55271368e-15 C36.397,3.55271368e-15 31.396,4.217 30.191,9.843 M35.802,12.474 C35.802,8.84 38.749,5.893 42.383,5.893 L42.383,5.893 C46.017,5.893 48.963,8.84 48.963,12.474 L48.963,12.474 C48.963,16.108 46.017,19.055 42.383,19.055 L42.383,19.055 C38.749,19.055 35.802,16.108 35.802,12.474 M4.855,12.474 C4.855,10.299 6.619,8.534 8.793,8.534 L8.793,8.534 C10.967,8.534 12.732,10.299 12.732,12.474 L12.732,12.474 C12.732,14.649 10.967,16.412 8.793,16.412 L8.793,16.412 C6.619,16.412 4.855,14.649 4.855,12.474 M17.909,14.66 C17.758,14.762 17.597,14.868 17.412,14.976 L17.412,14.976 C17.559,14.853 17.729,14.751 17.909,14.66 M16.12,34.775 C16.12,32.6 17.883,30.836 20.058,30.836 L20.058,30.836 C22.234,30.836 23.998,32.6 23.998,34.775 L23.998,34.775 C23.998,36.95 22.234,38.714 20.058,38.714 L20.058,38.714 C17.883,38.714 16.12,36.95 16.12,34.775 M38.444,45.551 C38.444,43.377 40.208,41.614 42.383,41.614 L42.383,41.614 C44.557,41.614 46.321,43.377 46.321,45.551 L46.321,45.551 C46.321,47.728 44.557,49.493 42.383,49.493 L42.383,49.493 C40.208,49.493 38.444,47.728 38.444,45.551" id="Clip-2" fill="#766BFF"></path>
            <path d="M79.52,37.0002 L79.52,11.1202 L74.2,11.1202 L74.2,37.0002 L79.52,37.0002 Z M100.44,37.0002 L100.439,15.5612 L111.4,15.5602 L111.4,11.1202 L84.12,11.1202 L84.12,15.5602 L95.119,15.5612 L95.12,37.0002 L100.44,37.0002 Z M126.44,37.4002 C129.026667,37.4002 131.186667,36.5468667 132.92,34.8402 C134.292222,33.4890889 135.254977,31.5948065 135.808264,29.1573528 L135.883,28.8112 L135.85551,29.2320367 C135.835918,29.530268 135.815238,29.8382952 135.793469,30.1561184 L135.76,30.6402 C135.68,31.7868667 135.62,32.9135333 135.58,34.0202 C135.54,35.1268667 135.52,36.1202 135.52,37.0002 L135.52,37.0002 L138.64,37.0002 L138.64,24.5602 L127.16,24.5602 L127.16,27.5602 L134.125,27.5612 L134.062222,27.8863111 C133.828889,29.0046444 133.475556,29.9842278 133.002222,30.8250611 L132.84,31.1002 C132.173333,32.1802 131.3,33.0002 130.22,33.5602 C129.14,34.1202 127.88,34.4002 126.44,34.4002 C124.573333,34.4002 122.96,33.9735333 121.6,33.1202 C120.24,32.2668667 119.2,31.0735333 118.48,29.5402 C117.76,28.0068667 117.4,26.2268667 117.4,24.2002 C117.4,22.1735333 117.8,20.3602 118.6,18.7602 C119.4,17.1602 120.5,15.9002 121.9,14.9802 C123.3,14.0602 124.92,13.6002 126.76,13.6002 C128.093333,13.6002 129.3,13.8468667 130.38,14.3402 C131.46,14.8335333 132.386667,15.5402 133.16,16.4602 C133.933333,17.3802 134.493333,18.4802 134.84,19.7602 L134.84,19.7602 L137.56,19.7602 C137.373333,17.9202 136.8,16.3135333 135.84,14.9402 C134.88,13.5668667 133.626667,12.5002 132.08,11.7402 C130.533333,10.9802 128.76,10.6002 126.76,10.6002 C124.92,10.6002 123.233333,10.9335333 121.7,11.6002 C120.166667,12.2668667 118.84,13.2068667 117.72,14.4202 C116.6,15.6335333 115.733333,17.0735333 115.12,18.7402 C114.506667,20.4068667 114.2,22.2268667 114.2,24.2002 C114.2,26.1468667 114.48,27.9335333 115.04,29.5602 C115.6,31.1868667 116.413333,32.5802 117.48,33.7402 C118.546667,34.9002 119.833333,35.8002 121.34,36.4402 C122.846667,37.0802 124.546667,37.4002 126.44,37.4002 Z M146.84,37.0002 L146.839,25.4772 L146.895937,25.2861375 C147.043437,24.8203042 147.235938,24.3461375 147.473438,23.8636375 L147.66,23.5002 C148.18,22.5268667 148.9,21.7002 149.82,21.0202 C150.74,20.3402 151.88,20.0002 153.24,20.0002 L153.24,20.0002 L153.24,16.6002 C152.146667,16.6002 151.213333,16.8135333 150.44,17.2402 C149.666667,17.6668667 149.033333,18.2068667 148.54,18.8602 C148.046667,19.5135333 147.653333,20.1935333 147.36,20.9002 C147.150476,21.4049619 146.988571,21.8723088 146.874286,22.3022408 L146.839,22.4442 L146.84,17.0002 L143.64,17.0002 L143.64,37.0002 L146.84,37.0002 Z M165.52,37.4002 C167.226667,37.4002 168.82,36.9868667 170.3,36.1602 C171.78,35.3335333 172.973333,34.1402 173.88,32.5802 C174.786667,31.0202 175.24,29.1735333 175.24,27.0402 C175.24,24.9068667 174.786667,23.0602 173.88,21.5002 C172.973333,19.9402 171.78,18.7335333 170.3,17.8802 C168.82,17.0268667 167.226667,16.6002 165.52,16.6002 C163.813333,16.6002 162.213333,17.0268667 160.72,17.8802 C159.226667,18.7335333 158.02,19.9402 157.1,21.5002 C156.18,23.0602 155.72,24.9068667 155.72,27.0402 C155.72,29.1735333 156.18,31.0202 157.1,32.5802 C158.02,34.1402 159.226667,35.3335333 160.72,36.1602 C162.213333,36.9868667 163.813333,37.4002 165.52,37.4002 Z M165.52,34.4002 C164.4,34.4002 163.333333,34.1202 162.32,33.5602 C161.306667,33.0002 160.486667,32.1668667 159.86,31.0602 C159.233333,29.9535333 158.92,28.6135333 158.92,27.0402 C158.92,25.4402 159.24,24.0868667 159.88,22.9802 C160.52,21.8735333 161.34,21.0335333 162.34,20.4602 C163.34,19.8868667 164.4,19.6002 165.52,19.6002 C166.64,19.6002 167.693333,19.8935333 168.68,20.4802 C169.666667,21.0668667 170.473333,21.9135333 171.1,23.0202 C171.726667,24.1268667 172.04,25.4668667 172.04,27.0402 C172.04,28.6135333 171.726667,29.9535333 171.1,31.0602 C170.473333,32.1668667 169.666667,33.0002 168.68,33.5602 C167.693333,34.1202 166.64,34.4002 165.52,34.4002 Z M186.28,37.4002 C187.48,37.4002 188.486667,37.1602 189.3,36.6802 C190.113333,36.2002 190.78,35.5868667 191.3,34.8402 C191.82,34.0935333 192.22,33.3135333 192.5,32.5002 C192.78,31.6868667 192.98,30.9468667 193.1,30.2802 L193.08,30.3812 L193.08,37.0002 L196.28,37.0002 L196.28,17.0002 L193.08,17.0002 L193.08,28.7512 L192.98,29.1102 C192.87,29.4752 192.73375,29.845825 192.57125,30.222075 L192.4,30.6002 C191.92,31.6135333 191.226667,32.4668667 190.32,33.1602 C189.413333,33.8535333 188.28,34.2002 186.92,34.2002 C186.093333,34.2002 185.346667,34.0535333 184.68,33.7602 C184.013333,33.4668667 183.486667,32.9802 183.1,32.3002 C182.713333,31.6202 182.52,30.6802 182.52,29.4802 L182.52,29.4802 L182.52,17.0002 L179.32,17.0002 L179.32,30.2802 C179.32,31.6668667 179.533333,32.8268667 179.96,33.7602 C180.386667,34.6935333 180.946667,35.4202 181.64,35.9402 C182.333333,36.4602 183.086667,36.8335333 183.9,37.0602 C184.713333,37.2868667 185.506667,37.4002 186.28,37.4002 Z M204.68,45.0002 L204.68,30.7472 L204.687187,30.7827 C204.875937,31.6627 205.150937,32.5127 205.512187,33.3327 L205.7,33.7402 C206.22,34.8202 206.946667,35.7002 207.88,36.3802 C208.813333,37.0602 210.013333,37.4002 211.48,37.4002 C213.026667,37.4002 214.46,36.9535333 215.78,36.0602 C217.1,35.1668667 218.16,33.9402 218.96,32.3802 C219.76,30.8202 220.16,29.0402 220.16,27.0402 C220.16,25.0402 219.766667,23.2535333 218.98,21.6802 C218.193333,20.1068667 217.146667,18.8668667 215.84,17.9602 C214.533333,17.0535333 213.08,16.6002 211.48,16.6002 C209.986667,16.6002 208.766667,16.8735333 207.82,17.4202 C206.873333,17.9668667 206.146667,18.7202 205.64,19.6802 C205.245926,20.4268667 204.944609,21.2622576 204.736049,22.1863728 L204.68,22.4542 L204.68,21.2002 L204.56,17.0002 L201.48,17.0002 L201.48,45.0002 L204.68,45.0002 Z M210.68,34.3602 C209.32,34.3602 208.2,34.0268667 207.32,33.3602 C206.44,32.6935333 205.78,31.8068667 205.34,30.7002 C204.9,29.5935333 204.68,28.3735333 204.68,27.0402 C204.68,25.5735333 204.933333,24.2868667 205.44,23.1802 C205.946667,22.0735333 206.653333,21.2068667 207.56,20.5802 C208.466667,19.9535333 209.506667,19.6402 210.68,19.6402 C212.68,19.6402 214.226667,20.3402 215.32,21.7402 C216.413333,23.1402 216.96,24.9068667 216.96,27.0402 C216.96,28.4535333 216.693333,29.7135333 216.16,30.8202 C215.626667,31.9268667 214.886667,32.7935333 213.94,33.4202 C212.993333,34.0468667 211.906667,34.3602 210.68,34.3602 Z" id="ITGroup" fill="#212529" fill-rule="nonzero"></path>
        </g>
    </g>
</svg>