<svg width="234" height="278" viewBox="0 0 234 278" fill="none" xmlns="http://www.w3.org/2000/svg">
<path d="M229.892 233.683C226.024 232.025 27.6378 129.793 -24.3073 70.1114M182.92 165.16C182.92 165.16 163.579 164.607 132.633 180.08M56.9259 215.447C56.9259 215.447 54.1629 178.975 65.7676 139.74M82.8983 60.7171C82.8983 60.7171 50.2946 73.9796 12.7173 102.715M132.081 237.552C130.975 234.789 121.028 213.237 124.344 176.212M150.869 98.8472C150.869 98.8472 111.081 108.242 75.7143 145.819M-14.9133 166.818C-14.9133 166.818 -25.9654 144.161 -6.62416 87.2424M24.8745 258.551C34.2688 261.866 42.0053 260.761 35.9267 248.604C29.2954 235.894 37.5846 203.29 57.4785 216C77.3724 228.71 49.7418 242.525 52.5049 256.34C55.8205 270.155 69.0831 272.918 69.0831 272.918C92.2926 276.787 115.502 275.681 135.949 271.813C142.58 269.603 130.423 264.629 124.896 257.445C119.37 250.262 124.897 233.131 139.817 238.657C154.737 244.183 144.238 259.656 149.211 266.287C150.316 267.392 151.974 267.392 154.185 267.392C198.393 255.788 229.892 234.236 229.892 234.236C232.655 211.579 231.55 189.475 227.682 169.028C226.024 161.292 219.945 157.976 213.866 167.37C208.34 176.765 182.92 184.501 183.473 166.265C183.473 148.029 201.709 156.318 211.103 154.66C220.498 153.003 222.155 148.029 217.735 135.319C217.735 134.767 217.182 134.214 217.182 133.661C211.103 116.531 202.814 101.058 192.867 86.6897C192.867 86.6897 192.867 86.6897 192.315 86.1371C185.683 78.4006 182.368 95.5314 174.079 103.268C165.237 111.004 142.027 104.373 148.659 84.4793C155.29 64.5855 172.421 80.611 180.157 73.9797C181.262 72.8745 180.71 71.2167 179.052 69.5589C176.842 66.7958 174.079 64.0328 171.868 61.2697C171.316 61.2697 171.315 60.7172 171.315 60.7172C152.527 40.2707 130.975 24.2451 109.424 13.7455C100.582 11.5351 93.9505 16.5085 100.029 28.1133C106.66 40.8233 98.3714 73.4272 78.4775 60.7172C58.5836 48.0072 80.1353 33.6394 84.0036 22.5872C88.4244 11.5351 84.5562 6.009 67.978 2.14075C22.1116 -0.62229 -9.38708 37.5077 -40.3331 97.7419C-58.5691 133.109 -60.7795 167.37 -47.5169 196.106C-41.4383 203.29 -25.9653 155.766 -10.4923 171.791C5.53328 188.922 -19.334 197.211 -32.044 203.842C-38.1227 207.158 -38.1226 211.026 -37.0174 214.342C-22.097 231.473 -1.65065 246.946 24.8745 258.551Z" stroke="#AABCA6" stroke-width="4" stroke-miterlimit="10"/>
</svg>
