<svg width="74" height="46" viewBox="0 0 74 46" fill="none" xmlns="http://www.w3.org/2000/svg">
<path d="M11.2223 26.9663C12.9964 26.9663 14.6567 26.6667 16.2031 26.0674C17.7495 25.4682 18.9962 24.5693 19.9432 23.3708C20.9022 22.1723 21.3817 20.6802 21.3817 18.8944C21.3817 17.612 21.1419 16.5513 20.6624 15.7124C20.1949 14.8614 19.5896 14.1783 18.8463 13.6629C18.1151 13.1476 17.3539 12.7461 16.5627 12.4584C15.7835 12.1708 15.0763 11.9431 14.4409 11.7753L9.80177 10.4809C9.22637 10.3251 8.65097 10.1333 8.07557 9.90562C7.50017 9.66592 7.02067 9.34831 6.63708 8.95281C6.25348 8.54532 6.06168 8.02397 6.06168 7.38876C6.06168 6.7176 6.28344 6.13034 6.72698 5.62697C7.18251 5.1236 7.77589 4.73408 8.50712 4.45843C9.25035 4.18277 10.0535 4.05693 10.9166 4.0809C12.2472 4.11685 13.446 4.50637 14.5129 5.24944C15.5797 5.99251 16.251 7.04719 16.5268 8.41348L21.1839 7.60449C20.6085 5.20749 19.4277 3.3558 17.6416 2.04944C15.8555 0.731085 13.6318 0.0599243 10.9706 0.0359546C9.22038 0.023969 7.62604 0.305617 6.18755 0.880897C4.76103 1.44419 3.62222 2.28914 2.77111 3.41573C1.93199 4.54232 1.51243 5.93858 1.51243 7.60449C1.51243 8.74307 1.69823 9.70187 2.06984 10.4809C2.45344 11.2479 2.93894 11.8772 3.52632 12.3685C4.1257 12.8599 4.75504 13.2494 5.41435 13.5371C6.08565 13.8247 6.709 14.0524 7.2844 14.2202L13.9734 16.1978C15.8914 16.773 16.8504 17.7678 16.8504 19.182C16.8504 19.973 16.5927 20.6502 16.0772 21.2135C15.5737 21.7648 14.9144 22.1843 14.0993 22.4719C13.2841 22.7596 12.415 22.9034 11.492 22.9034C9.93363 22.9034 8.55507 22.4839 7.35632 21.6449C6.16956 20.806 5.38438 19.6195 5.00078 18.0854L0.505478 18.7685C0.78119 20.4584 1.40454 21.9206 2.37553 23.1551C3.3585 24.3775 4.6052 25.3184 6.11562 25.9775C7.63803 26.6367 9.34025 26.9663 11.2223 26.9663Z" fill="white"/>
<path d="M24.5545 26.427H41.2771V22.364H28.888V15.0472H39.1193V10.9843H28.888V4.60225H41.2771V0.539325H24.5545V26.427Z" fill="white"/>
<path d="M54.7338 26.9663C57.3231 26.9663 59.5407 26.403 61.3868 25.2764C63.2449 24.1378 64.6654 22.5558 65.6484 20.5303C66.6433 18.5049 67.1408 16.1558 67.1408 13.4831C67.1408 10.7985 66.6433 8.44944 65.6484 6.43595C64.6654 4.41049 63.2449 2.83446 61.3868 1.70786C59.5407 0.569288 57.3231 0 54.7338 0C52.1564 0 49.9388 0.569288 48.0807 1.70786C46.2346 2.83446 44.8141 4.41049 43.8192 6.43595C42.8362 8.44944 42.3447 10.7985 42.3447 13.4831C42.3447 16.1558 42.8362 18.5049 43.8192 20.5303C44.8141 22.5558 46.2346 24.1378 48.0807 25.2764C49.9388 26.403 52.1564 26.9663 54.7338 26.9663ZM54.7338 22.8854C52.1325 22.8494 50.1785 21.9805 48.8719 20.2787C47.5652 18.5768 46.9179 16.3116 46.9299 13.4831C46.9419 11.5895 47.2356 9.93558 47.811 8.52135C48.3864 7.10712 49.2495 6.01049 50.4003 5.23146C51.5511 4.44045 52.9956 4.05693 54.7338 4.0809C57.347 4.11685 59.301 4.98577 60.5956 6.68764C61.9023 8.38951 62.5556 10.6547 62.5556 13.4831C62.5556 15.3648 62.2619 17.0187 61.6745 18.4449C61.0991 19.8592 60.23 20.9558 59.0672 21.7348C57.9164 22.5139 56.4719 22.8974 54.7338 22.8854Z" fill="white"/>
<path d="M68.9288 26.427H73.3702V21.9865H68.9288V26.427Z" fill="white"/>
<path d="M14.6943 42.4466C15.3344 42.4466 15.8777 42.343 16.3243 42.1357C16.7759 41.9235 17.1728 41.5953 17.5152 41.1511V42.2246H19.0856V37.3165C19.0856 36.971 19.0707 36.6527 19.041 36.3615C19.0112 36.0654 18.9244 35.7767 18.7805 35.4954C18.5175 34.9673 18.1131 34.5873 17.5673 34.3553C17.0264 34.1234 16.3987 34.0074 15.6842 34.0074C14.7415 34.0074 13.9897 34.2122 13.429 34.6218C12.8683 35.0315 12.4887 35.5743 12.2903 36.2505L13.9277 36.7613C14.0617 36.3516 14.2974 36.0629 14.6348 35.8951C14.9722 35.7273 15.322 35.6434 15.6842 35.6434C16.23 35.6434 16.632 35.7545 16.89 35.9766C17.148 36.1937 17.2944 36.5318 17.3291 36.9907C16.6245 37.0944 15.9695 37.1956 15.3642 37.2943C14.7638 37.388 14.2527 37.504 13.831 37.6422C13.1958 37.8593 12.7319 38.1678 12.4391 38.5676C12.1464 38.9624 12 39.451 12 40.0333C12 40.4725 12.1017 40.8748 12.3052 41.24C12.5136 41.6052 12.8187 41.8988 13.2206 42.1209C13.6226 42.3381 14.1138 42.4466 14.6943 42.4466ZM15.0516 41.0253C14.6298 41.0253 14.3073 40.9291 14.084 40.7366C13.8657 40.5441 13.7565 40.3023 13.7565 40.0111C13.7565 39.7495 13.8409 39.5373 14.0096 39.3745C14.1832 39.2116 14.4239 39.0734 14.7315 38.9599C15.0144 38.8661 15.3543 38.7847 15.7512 38.7156C16.1482 38.6416 16.6667 38.5552 17.3068 38.4565C17.3018 38.644 17.2894 38.8538 17.2696 39.0857C17.2497 39.3128 17.2026 39.5176 17.1282 39.7002C17.0686 39.8828 16.952 40.0777 16.7783 40.285C16.6096 40.4923 16.3814 40.6675 16.0936 40.8106C15.8058 40.9537 15.4585 41.0253 15.0516 41.0253Z" fill="#00FED9"/>
<path d="M23.9484 42.4466C24.3652 42.4466 24.7448 42.3899 25.0872 42.2764C25.4345 42.1678 25.7446 42.0148 26.0175 41.8174V42.5799C26.0274 43.1474 25.8513 43.5768 25.4891 43.868C25.1318 44.1592 24.6728 44.3048 24.1121 44.3048C23.7946 44.3048 23.4944 44.2332 23.2116 44.0901C22.9287 43.9469 22.7129 43.7323 22.564 43.446L20.9117 44.2603C21.2243 44.8032 21.6659 45.2276 22.2365 45.5336C22.8121 45.8445 23.4348 46 24.1047 46C25.0127 46 25.7918 45.8149 26.4418 45.4448C27.0967 45.0796 27.516 44.5096 27.6996 43.7347C27.7393 43.5571 27.7666 43.3769 27.7815 43.1943C27.8013 43.0117 27.8113 42.8168 27.8113 42.6095V34.2295H26.2408V34.8069C25.958 34.5503 25.6305 34.3529 25.2583 34.2147C24.8862 34.0765 24.4719 34.0074 24.0154 34.0074C23.2562 34.0074 22.5963 34.19 22.0356 34.5552C21.4798 34.9204 21.0482 35.4213 20.7405 36.058C20.4329 36.6946 20.2791 37.4176 20.2791 38.227C20.2791 39.0265 20.4304 39.7446 20.7331 40.3812C21.0357 41.0179 21.4625 41.5213 22.0132 41.8914C22.564 42.2616 23.2091 42.4466 23.9484 42.4466ZM24.2238 40.8476C23.7574 40.8476 23.3728 40.7316 23.0701 40.4997C22.7675 40.2628 22.5417 39.9469 22.3928 39.5521C22.2489 39.1573 22.177 38.7156 22.177 38.227C22.177 37.7434 22.2514 37.3041 22.4003 36.9093C22.5541 36.5096 22.7848 36.1937 23.0925 35.9618C23.4051 35.7249 23.802 35.6064 24.2833 35.6064C24.9681 35.6064 25.4643 35.8482 25.7719 36.3319C26.0845 36.8155 26.2408 37.4473 26.2408 38.227C26.2408 39.0019 26.0845 39.6336 25.7719 40.1221C25.4643 40.6058 24.9482 40.8476 24.2238 40.8476Z" fill="#00FED9"/>
<path d="M33.2552 42.4466C34.0292 42.4466 34.7363 42.2492 35.3764 41.8544C36.0214 41.4547 36.4978 40.892 36.8054 40.1666L35.034 39.6336C34.6767 40.3936 34.0491 40.7736 33.151 40.7736C32.5406 40.7736 32.0593 40.5984 31.707 40.248C31.3547 39.8927 31.1439 39.3843 31.0744 38.723H36.8947C36.9642 37.7606 36.8575 36.9266 36.5747 36.2209C36.2919 35.5151 35.8577 34.9698 35.2722 34.5848C34.6916 34.1999 33.9846 34.0074 33.151 34.0074C32.362 34.0074 31.6673 34.1851 31.0669 34.5404C30.4665 34.8908 29.9976 35.3893 29.6602 36.0358C29.3228 36.6823 29.1541 37.4423 29.1541 38.3159C29.1541 39.1252 29.3253 39.8408 29.6677 40.4627C30.015 41.0845 30.4963 41.5706 31.1116 41.921C31.7269 42.2714 32.4414 42.4466 33.2552 42.4466ZM33.2254 35.5694C33.7811 35.5694 34.2078 35.715 34.5056 36.0062C34.8082 36.2924 34.9993 36.7489 35.0787 37.3757H31.119C31.3324 36.1715 32.0345 35.5694 33.2254 35.5694Z" fill="#00FED9"/>
<path d="M38.0248 42.2246H39.8408V38.116C39.8408 37.4695 39.9326 36.971 40.1162 36.6206C40.3048 36.2653 40.5429 36.021 40.8307 35.8877C41.1235 35.7495 41.4212 35.6804 41.7239 35.6804C42.1506 35.6804 42.4905 35.7742 42.7436 35.9618C42.9966 36.1444 43.1827 36.3788 43.3018 36.665C43.4258 36.9463 43.5052 37.24 43.5399 37.546C43.5796 37.8519 43.5995 38.1283 43.5995 38.3751V42.2246H45.4156V37.7606C45.4156 37.5731 45.3982 37.3239 45.3635 37.013C45.3337 36.702 45.2642 36.3738 45.1551 36.0284C45.0459 35.6829 44.8772 35.3572 44.6489 35.0512C44.4207 34.7403 44.1106 34.4886 43.7186 34.2961C43.3315 34.0987 42.8428 34 42.2523 34C41.6718 34 41.1607 34.1012 40.7191 34.3035C40.2824 34.5009 39.9177 34.7724 39.625 35.1178V34.2295H38.0248V42.2246Z" fill="#00FED9"/>
<path d="M50.42 42.4466C51.3181 42.4466 52.0773 42.2295 52.6975 41.7952C53.3177 41.356 53.7519 40.7292 54 39.9149L52.169 39.5077C52.0301 39.9173 51.8217 40.2307 51.5438 40.4479C51.2709 40.665 50.8963 40.7736 50.42 40.7736C49.7451 40.7736 49.2365 40.5392 48.8942 40.0703C48.5568 39.6015 48.3856 38.987 48.3806 38.227C48.3856 37.4917 48.5493 36.8846 48.8718 36.4059C49.1993 35.9223 49.7154 35.6804 50.42 35.6804C50.8318 35.6804 51.199 35.8014 51.5215 36.0432C51.844 36.2801 52.0748 36.6132 52.2137 37.0426L54 36.5614C53.8114 35.7717 53.3996 35.1499 52.7645 34.6959C52.1294 34.2369 51.3553 34.0074 50.4423 34.0074C49.6285 34.0074 48.9264 34.19 48.336 34.5552C47.7455 34.9155 47.289 35.4139 46.9665 36.0506C46.6489 36.6823 46.4876 37.4078 46.4827 38.227C46.4876 39.0315 46.6439 39.752 46.9516 40.3886C47.2642 41.0253 47.7132 41.5287 48.2987 41.8988C48.8843 42.264 49.5913 42.4466 50.42 42.4466Z" fill="#00FED9"/>
</svg>
