<?xml version="1.0" encoding="UTF-8"?>
<svg width="155px" height="120px" viewBox="0 0 155 120" version="1.1" xmlns="http://www.w3.org/2000/svg" xmlns:xlink="http://www.w3.org/1999/xlink">
    <!-- Generator: Sketch 63.1 (92452) - https://sketch.com -->
    <title>BG</title>
    <desc>Created with Sketch.</desc>
    <g id="Layouts" stroke="none" stroke-width="1" fill="none" fill-rule="evenodd" fill-opacity="0.28">
        <g id="Home" transform="translate(-1285.000000, -1375.000000)" fill="#6F4837">
            <g id="BG" transform="translate(1284.584572, 1375.000000)">
                <path d="M81.425461,106.599742 C81.7342399,105.449162 83.0696082,105.164081 84.0460712,105.494283 C84.9643876,105.803976 85.5137733,106.413106 86.0230579,107.22323 C86.3198065,107.699049 86.756909,108.04771 87.1158143,108.486612 C87.5007853,108.962431 87.8536755,109.464913 88.1424038,110.004311 C88.7659766,111.158994 89.1389173,112.422376 89.2451854,113.737032 C89.4557164,116.339681 88.2747375,119.707333 85.3653991,119.980109 C82.295656,120.267241 80.4971194,117.393867 79.8655263,114.719434 C79.4885755,113.111493 79.3381961,111.437922 79.4163934,109.788962 C79.4544895,108.982941 79.5507322,108.174868 79.6950964,107.379102 C79.8314403,106.634608 79.8935971,106.173146 80.4870941,105.707581 C80.5011295,105.697327 80.5271953,105.70553 80.5332104,105.721938 C80.7577769,106.228521 80.761787,106.480788 80.6815847,107.036594 C80.5973723,107.629317 80.5472458,108.228193 80.5292003,108.827069 C80.4890992,110.014566 80.5672964,111.208216 80.7798325,112.375204 C81.1086619,114.157475 81.6540376,116.241236 83.1077043,117.420529 C84.3769057,118.454205 86.059149,118.296283 86.7689393,116.717055 C87.9051195,114.189646 86.720543,111.221011 84.8117804,109.456293 L84.7414279,109.393 L84.6724011,109.375953 L84.6724011,109.375953 L84.3688855,109.304939 C84.340997,109.298227 84.3171351,109.292515 84.2968571,109.287684 L84.2704279,109.281 L84.0901825,109.25531 C83.7172009,109.198027 83.3953687,109.12744 83.0428468,108.987491 L82.8269962,108.89475 C81.982867,108.50507 81.144753,107.633419 81.425461,106.599742 Z M28.2512212,99.8247858 C29.2000495,99.3868064 30.4052063,99.4513932 31.3891764,99.7581806 C31.6889152,99.8530425 31.9948555,99.9579961 32.2594525,100.1235 C32.6460122,100.418177 32.7431689,100.490838 32.555057,100.343499 L32.555057,100.343499 L32.4847734,100.289004 C32.8485943,100.494874 33.1814078,100.735056 33.512154,100.989367 C34.0351466,101.393035 34.5478033,101.855234 34.8785496,102.428442 C35.1328107,102.866422 35.5359078,103.344768 35.8315122,103.857426 C36.1167809,104.357974 36.3503704,104.894852 36.5364152,105.435767 C36.898169,106.475211 37.0284003,107.589334 36.8899003,108.679237 C36.5942958,110.972069 35.1142063,113.129673 32.5571242,113.17004 C30.465154,113.204352 28.400057,111.959037 27.3830122,110.203082 C26.1447809,108.073735 25.869848,105.22586 26.2316018,102.838165 C26.2378033,102.787707 26.3246242,102.789725 26.33496,102.838165 C26.7669973,105.23797 26.587154,107.710434 27.9928257,109.855928 C28.9271839,111.280875 30.6677361,112.277934 32.4310272,112.096284 C34.3576242,111.896468 35.1700197,110.122349 35.1266093,108.404743 C35.1059376,107.617591 34.9198928,106.806219 34.5829451,106.091727 C34.2728704,105.439803 33.7147361,104.511368 33.1297287,104.224764 C32.7349003,104.031003 32.3607436,103.804949 31.9659152,103.607152 L31.9659152,103.607152 L31.8974279,103.571 L31.8294824,103.550639 C31.7850383,103.53651 31.7416279,103.520868 31.6982175,103.505478 L31.5669525,103.461832 L31.5669525,103.461832 L31.4754279,103.435 C31.4485643,103.422264 31.3873748,103.402536 31.3238825,103.390955 L31.3114279,103.388 L31.3002883,103.385135 L31.3002883,103.385135 L31.3094279,103.388 L31.2858182,103.385135 C31.0859923,103.363606 30.8916789,103.334901 30.6973655,103.301411 L30.4304279,103.252 L30.3990048,103.251925 C30.4066828,103.252501 30.3828049,103.252913 30.3447281,103.25316 L30.1454279,103.253 L30.0774961,103.360631 C30.0143184,103.452655 29.9446808,103.540515 29.8680666,103.622952 L29.747848,103.742381 C29.1731764,104.269167 28.3607809,104.432653 27.6331391,104.133938 C26.8662212,103.817059 26.5251391,103.177246 26.4445197,102.406241 C26.3308257,101.322393 27.3147958,100.258729 28.2512212,99.8247858 Z M50.7716371,94.0866707 C51.6559489,93.1290318 53.6805575,94.0110153 54.6325679,94.4788846 C55.8384476,95.0721827 56.8729655,95.9422205 57.69381,96.9536146 C59.164137,98.7653638 59.9405543,100.989236 59.5512879,103.272837 C59.109132,105.857068 56.7291062,107.921666 53.8498038,107.155156 C51.1778282,106.444393 49.3118879,103.915908 48.8930034,101.42326 C48.6962546,100.226709 48.7808777,98.8947745 49.1807221,97.7360513 C49.4819035,96.8613077 50.0422521,95.9772346 50.6462458,95.2103244 L50.7854279,95.037 L50.7628012,95.0121432 L50.7628012,95.0121432 L50.6637426,94.8730893 C50.5029586,94.6102862 50.5685416,94.3076643 50.7716371,94.0866707 Z M111.594509,91.7075218 L111.697409,91.7125404 C112.887198,91.8687752 113.994445,92.7169069 114.866151,93.5163421 C115.645251,94.2285293 116.317653,95.1030383 116.820947,96.03436 C117.747009,97.769175 118.246277,99.8915333 117.622192,101.813018 C117.05045,103.574211 115.647265,105.371925 113.642139,105.365854 C111.288734,105.36178 109.931852,102.868111 109.126581,100.970974 C108.246822,98.8932539 107.922701,96.6877055 108.05557,94.4354897 C108.119992,93.3134398 109.718455,93.3154688 109.782877,94.4354897 C109.891589,96.3265394 110.509634,98.1830957 111.429657,99.8266046 C111.820213,100.526618 112.281231,101.177934 112.782512,101.800844 C112.997922,102.072733 113.354255,102.4339 113.523362,102.498828 L113.510363,102.491398 C113.500714,102.470112 113.877178,102.511341 113.583757,102.51506 C113.640126,102.513031 113.704548,102.525206 113.760917,102.513031 L113.712428,102.517 L113.730719,102.511002 C113.74414,102.507395 113.798521,102.490161 113.841016,102.477469 L113.857428,102.472 L113.875629,102.464101 L113.875629,102.464101 L113.88976,102.456219 C113.958208,102.41158 114.030683,102.371 114.099131,102.326361 L114.067428,102.345 L114.226967,102.194982 L114.226967,102.194982 L114.387015,102.028095 C114.38777,102.026573 114.407493,102.001369 114.427605,101.976129 L114.433428,101.968 C114.462939,101.924862 114.502948,101.866369 114.523119,101.836955 L114.533977,101.821135 C114.632623,101.658813 114.723216,101.494462 114.807769,101.324024 L114.807769,101.324024 L114.828428,101.281 L114.809782,101.330111 L114.809782,101.330111 C114.816829,101.315908 114.834444,101.278371 114.841238,101.262392 L114.841428,101.259 L114.840641,101.260205 L114.830428,101.277 L114.86288,101.195688 L114.86288,101.195688 L114.908428,101.058222 C114.954731,100.920248 114.992982,100.780246 115.027206,100.638214 C115.051364,100.544879 115.067469,100.449515 115.085588,100.354151 L115.081428,100.376 L115.081428,100.375 L115.098788,100.116519 C115.136979,98.9893136 114.708429,97.8558085 114.094896,96.8520486 L113.950155,96.6227768 C113.599863,96.0850856 113.150924,95.5879749 112.609379,95.1212995 C112.104071,94.6830305 111.34913,94.3908511 110.799532,93.8957695 C110.489503,93.6198223 110.324422,93.0496667 110.471384,92.6519782 C110.511648,92.548498 110.553924,92.4470468 110.602241,92.3476247 C110.771348,91.9884875 111.294774,91.6618148 111.697409,91.7125404 Z M52.1824279,95.719 L52.1282274,95.8294278 C51.3236195,97.5332435 51.5742107,99.4944073 52.1679189,101.174393 C52.2165772,101.307786 52.26312,101.437196 52.3202406,101.564616 L52.3202406,101.564616 L52.3194279,101.565 C52.3233209,101.568247 52.3271754,101.57565 52.3334926,101.588429 L52.3604366,101.644253 C52.3929839,101.710413 52.4992385,101.933398 52.5510139,102.045492 L52.5674279,102.081 L52.5608245,102.06842 C52.534567,102.019065 52.5209855,101.994879 52.5529542,102.060358 C52.5778529,102.109519 52.5838241,102.119556 52.5776276,102.104587 L52.5704279,102.088 L52.5823808,102.109148 C52.6052865,102.15258 52.6306995,102.2011 52.6447512,102.227498 L52.654502,102.245515 C52.8004769,102.522255 53.1199292,103.021979 53.206668,103.127498 C53.502849,103.487857 53.8773063,103.806407 54.190412,103.991563 C54.2940753,104.053282 54.3998542,104.111019 54.5098643,104.162784 C54.5352513,104.175526 54.5540164,104.185301 54.5674948,104.19267 L54.5814279,104.201 L54.6198744,104.214548 C54.6748794,104.233462 54.7309423,104.250385 54.7877984,104.265815 L54.9604825,104.308122 C54.9873504,104.314891 55.0070253,104.320306 55.0209542,104.324591 L55.0264279,104.326 L55.0556836,104.328031 C55.3258732,104.348509 55.4064379,104.339733 55.5291908,104.302956 L55.5951561,104.28224 C55.6191326,104.274276 55.7305531,104.230033 55.7438734,104.227968 L55.7434279,104.228 L55.8048628,104.197127 L55.8048628,104.197127 L55.9054279,104.137 C55.904199,104.119414 56.1225153,103.945803 56.1952619,103.882285 L56.2150206,103.864144 C56.212905,103.86713 56.2509854,103.821836 56.280868,103.786995 C56.3163333,103.733185 56.3990759,103.614613 56.4075382,103.601341 C56.8221916,102.96026 56.9512419,102.303252 56.9491263,101.53077 C56.9470108,100.011688 56.2340608,98.490615 55.0726082,97.3737015 C54.4781306,96.8003127 53.7947988,96.3404071 53.0268438,95.9959757 C52.8220558,95.9041273 52.5904893,95.8340818 52.3524437,95.766698 L52.1824279,95.719 Z M51.053009,94.7177966 L50.8488978,94.9592006 L50.8488978,94.9592006 L50.7854279,95.037 L50.878461,95.1342502 C51.2073303,95.4388683 51.6929794,95.5818616 52.173012,95.7163602 L52.1824279,95.719 L52.2504265,95.5878344 L52.2504265,95.5878344 C52.6206527,94.9069352 51.630562,94.0508339 51.053009,94.7177966 Z M139.055812,67.7456372 C140.065246,66.750906 141.493574,66.2419737 142.883077,66.3576401 C144.39927,66.4838217 145.715212,67.2871776 146.679691,68.4795933 C147.65643,69.6888332 148.400223,71.129406 148.921287,72.5994211 C149.483218,74.1808966 149.748859,76.0462806 149.15832,77.6635075 C148.136626,80.4542229 144.946898,82.0924801 142.478486,80.0861934 C141.61209,79.3837827 141.029725,78.3848454 140.461663,77.4300716 C140.173545,76.9526848 139.96512,76.4269283 139.715826,75.9243051 C139.665423,75.8254629 139.63341,75.7383041 139.606316,75.657766 L139.578428,75.574 L139.485141,75.5227677 C138.376666,74.8501477 137.816838,73.2952054 137.678532,72.0183303 L137.660179,71.8191985 C137.549836,70.3723166 138.032075,68.7550897 139.055812,67.7456372 Z M81.8711193,64.8695228 C84.2954833,63.50546 87.5111468,65.2977751 89.0796154,67.181292 C90.8398531,69.3007442 91.3747877,72.1002451 91.2173352,74.7748391 C91.1365904,76.1726069 90.9730821,77.6516633 90.0041439,78.7480684 C89.0755782,79.8008552 87.5817986,80.1339403 86.2252851,79.9535192 C83.5526307,79.5966424 81.6632013,77.4732249 80.8295108,75.0702538 C79.8181816,72.1617072 80.7144494,69.1123925 81.6611827,66.3109089 C81.7071722,66.1753991 81.7791099,66.0731709 81.8657936,66.0009182 L81.9074279,65.97 L81.8527239,65.9381113 C81.5190219,65.7145006 81.4369345,65.1969617 81.7889715,64.9240608 Z M57.5390756,64.3902525 L57.6692246,64.3950845 C59.3369658,64.5120262 60.6644795,65.9481518 61.6830749,67.1216716 C63.3696017,69.0645444 64.6261476,71.327468 64.5864892,73.9514747 C64.5510054,76.4154559 63.0335487,78.7050504 60.4014815,78.9963788 C58.0219758,79.2589846 55.5986372,77.6402659 54.5362088,75.6050707 C53.0876325,72.8312967 53.8849757,69.5200014 54.6134384,66.6662146 C54.6819504,66.3957644 54.963409,66.2966696 55.2029183,66.3430544 L55.2684279,66.36 L55.2683298,66.3353952 C55.2810599,65.2988328 56.4505979,64.3870099 57.5390756,64.3902525 Z M142.731866,68.9611862 C141.930858,68.9044045 141.033811,69.1756949 140.355407,69.7287907 C139.59731,70.3449773 139.262194,71.0642121 139.290802,72.0610464 C139.318825,73.0128159 139.759697,73.6802906 140.255686,74.3945591 L140.266428,74.41 L140.443272,74.5173807 C140.652515,74.6317853 140.827756,74.7085037 141.005613,74.8465968 L141.140068,74.9632222 C141.303538,75.1230522 141.460879,75.2870882 141.616177,75.4532273 C142.304798,76.1955954 142.73391,77.1545752 143.39188,77.8759131 C143.841426,78.3659182 144.313448,78.7612871 145.036807,78.6582388 C145.860293,78.5425724 146.530524,77.7602467 146.814554,76.9968483 C147.247753,75.838081 146.900377,74.5089686 146.471265,73.406983 C146.060545,72.353367 145.543567,71.2492784 144.863119,70.3512864 C144.295058,69.6005061 143.510397,69.0179679 142.731866,68.9611862 Z M34.524634,61.4645044 C35.4266733,61.4991449 36.1021823,61.745704 36.8593238,62.2347468 C37.5185064,62.6626592 38.1450359,63.1659658 38.6940145,63.7304027 C39.8021759,64.8694648 40.6287051,66.2326716 41.1919694,67.7140638 C42.1368657,70.2183704 42.1919677,73.3462067 40.8348272,75.7201019 C39.2797278,78.4424401 35.9593254,78.7256774 33.6042274,76.8428627 C31.0266809,74.7786945 30.959334,71.0375171 31.0389257,68.0299039 C31.0777012,66.5118336 30.9511708,64.6453202 31.8021897,63.3065656 C32.1893727,62.6996635 32.8049243,62.1653125 33.4486351,62.1680283 L33.5254279,62.172 L33.5353739,62.1366488 C33.6413397,61.7784817 33.9244446,61.4939904 34.3924161,61.4657237 Z M82.7254279,66.055 L82.7416307,66.0707214 C82.8717258,66.2069529 82.9440603,66.4046106 82.8985975,66.6459766 C82.4282588,69.1401496 82.0709628,71.9753382 83.1287203,74.3862398 C83.7504556,75.8038341 85.1110063,77.34237 86.7965549,77.421676 C87.6100592,77.4573637 88.1248076,77.1203133 88.4013587,76.3669065 C88.7324126,75.4608358 88.8171947,74.4258928 88.8494926,73.4702558 C88.9120699,71.5391553 88.5507367,69.3265186 87.163944,67.8573754 C86.5502831,67.2070664 85.7912816,66.6677858 84.9374048,66.3624578 C84.2465878,66.1188122 83.5350114,66.0754632 82.8150227,66.0579674 L82.7254279,66.055 Z M57.4041393,66.30308 C57.0847846,66.3071832 56.7048986,66.5882535 56.6944622,66.9144592 C56.6694147,67.5319932 55.897119,67.7002251 55.5568915,67.2180972 L55.5568915,67.2180972 L55.5154279,67.154 L55.4811742,67.4255197 C55.1940275,69.6652399 54.9425712,72.1700262 55.9237657,74.2430492 L56.072451,74.536183 C56.8196993,75.9087087 58.3580288,77.1232607 60.0195082,77.0001642 C61.5661869,76.8852741 62.3238716,75.4901807 62.334308,74.1053453 C62.3447444,72.400459 61.5787106,70.7530178 60.6310829,69.3620275 C60.0278573,68.4757329 59.3307039,67.6202123 58.5291862,66.8959947 C58.2369663,66.6313373 57.8278583,66.2969252 57.4041393,66.30308 Z M33.6194279,63.048 L33.6068455,63.0492183 C31.9780258,63.347177 32.4513607,69.760085 32.5287191,70.6360945 C32.7266779,72.8551262 33.4981052,75.4633544 35.8776929,76.1887679 C36.8103443,76.4720052 37.8103426,76.3945734 38.4878925,75.6324817 C39.1531974,74.8846538 39.4654418,73.7476293 39.594013,72.7756567 C39.8491146,70.8398623 39.3266665,68.8572013 38.3083009,67.2087196 C37.8042202,66.3997613 37.1715682,65.6743478 36.4307532,65.071195 C35.6674892,64.4497031 34.7552459,64.0727326 33.9756554,63.4858813 C33.8245567,63.3722415 33.7080251,63.2258211 33.6267862,63.0637638 L33.6194279,63.048 Z M138.833083,74.6540774 C139.041509,74.8139074 139.227457,75.0073858 139.395015,75.2134823 C139.486967,75.3249427 139.529367,75.4285167 139.567681,75.5412915 L139.578428,75.574 L139.664742,75.6214693 L139.664742,75.6214693 C140.165372,75.8696264 140.892818,75.3207366 140.506617,74.7571257 L140.380624,74.5742927 L140.380624,74.5742927 L140.266428,74.41 L140.192818,74.3657778 C139.867773,74.1554079 139.569929,73.920542 139.198849,73.7623944 C138.659395,73.5331646 138.446883,74.3512417 138.833083,74.6540774 Z M113.290547,53.8752796 C116.087195,53.0625914 118.82811,54.6516359 120.565813,56.7053468 C122.078591,58.4951731 123.055925,60.8395395 122.793179,63.1781694 C122.55432,65.3083686 121.143058,67.7579065 118.782328,68.2149241 C115.916013,68.7713765 114.138499,66.2319648 113.067612,64.0845558 C111.767817,61.4801291 111.13683,58.7036037 110.989533,55.8219069 C110.955695,55.1717563 111.935019,55.2138249 112.016629,55.8219069 C112.364966,58.4779632 113.352253,61.0919509 114.715743,63.4229319 C115.438294,64.6543936 116.837613,66.9777258 118.662898,66.1669498 C120.219467,65.4766429 120.725053,63.4363174 120.533966,61.9543565 C120.317001,60.2677895 119.359572,58.724638 118.06973,57.5887867 C117.402914,56.9998268 116.608706,56.5217749 115.794592,56.1469822 C114.98247,55.7702773 114.134518,55.389748 113.290547,55.0780582 C112.709322,54.8658031 112.641645,54.0645882 113.290547,53.8752796 Z M55.2684279,66.36 L55.2724341,66.4603309 C55.2887931,66.6693863 55.3534051,66.8821668 55.4761729,67.0923497 L55.5154279,67.154 L55.5223087,67.1074381 C55.536015,67.0020621 55.5496729,66.8973624 55.5631533,66.7934143 C55.5915159,66.572082 55.4574385,66.4248419 55.2808515,66.3638686 L55.2684279,66.36 Z M3.82247917,57.5611189 L3.93356053,57.567001 C4.97932642,57.6968935 5.87332111,58.0540978 6.66960011,58.7400926 C7.34113566,59.3185201 7.84426756,60.0938159 8.11662409,60.9218806 C8.60520258,62.4054964 8.16860052,64.0595962 6.98353778,65.108884 C5.90242792,66.0648116 4.3743207,66.6310617 2.92729673,66.1886154 C1.62788583,65.7908196 0.702705269,64.6522307 0.478167066,63.3533057 C0.241154518,61.9833458 0.671519408,60.6417999 1.83994969,59.8076465 C2.20794285,59.5438024 2.77760459,59.7508186 2.98758939,60.1019342 C3.23499723,60.513937 3.04996111,60.9563833 2.68612606,61.222257 C2.81710668,61.1248376 2.61959623,61.2872032 2.59464754,61.3074989 L2.59464754,61.3074989 L2.49069466,61.4150662 L2.49069466,61.4150662 L2.46251928,61.4461105 C2.4627355,61.4454772 2.46127184,61.4470035 2.45816157,61.4506729 L2.44342786,61.468 L2.45457104,61.4551502 L2.45457104,61.4551502 L2.45942786,61.45 L2.45679771,61.4545048 L2.44079729,61.4759533 C2.41376954,61.5165447 2.38674179,61.5551065 2.3617931,61.5977275 C2.32437007,61.6586146 2.29110515,61.7235608 2.25784023,61.7885071 L2.25784023,61.7885071 L2.25442786,61.793 L2.19131039,61.9808089 L2.19131039,61.9808089 L2.13933396,62.1741254 C2.13755191,62.1828236 2.13004184,62.2239534 2.12335007,62.2594916 L2.12042786,62.27 L2.11932303,62.2882888 C2.11600953,62.320635 2.11138038,62.361829 2.1092729,62.3799762 L2.1081481,62.3892599 C2.09983187,62.5130637 2.09983187,62.638897 2.10606904,62.7606712 C2.10696006,62.7702392 2.11052416,62.8126117 2.11332452,62.8492859 C2.12010268,62.8938618 2.13309679,62.9864609 2.13309679,62.983924 C2.15596642,63.1077277 2.18715228,63.229502 2.22665437,63.347217 C2.249524,63.418252 2.27447269,63.4892869 2.3035795,63.5603219 L2.30042786,63.553 L2.3779058,63.6968105 L2.3779058,63.6968105 L2.45119257,63.824166 C2.47822032,63.8688166 2.50940618,63.909408 2.53435487,63.9499994 L2.53435487,63.9499994 L2.55242786,63.981 C2.59464754,64.0311822 2.63155081,64.0727884 2.67001337,64.1131261 L2.79007894,64.2300801 C2.80809743,64.2463166 2.88987369,64.3121649 2.90049999,64.3235907 L2.89942786,64.324 L2.90858521,64.3300364 L2.90858521,64.3300364 L2.97095693,64.3701204 C3.05619829,64.4228893 3.14559776,64.4715989 3.23707628,64.5142199 L3.22510503,64.5085099 C3.24068281,64.5154211 3.25638182,64.5220483 3.26410403,64.5243678 C3.33271293,64.546693 3.39924276,64.5690183 3.46993072,64.5872844 C3.53853961,64.6055506 3.60714851,64.6197576 3.67783646,64.6339646 L3.69305987,64.6363033 C3.69931735,64.6370882 3.70650471,64.6378651 3.71386263,64.6385945 L3.72542786,64.639 L3.91095078,64.6479179 L3.91095078,64.6479179 L4.12275475,64.6441124 C4.1788893,64.6400533 4.23710291,64.6359941 4.29323746,64.6299054 L4.23742786,64.634 L4.22836843,64.6369693 C4.23491422,64.635352 4.27582942,64.6290413 4.29991725,64.6246333 L4.31402804,64.6217871 C4.43877148,64.589314 4.56559399,64.5649592 4.68825837,64.5263973 C4.74231387,64.5081312 4.79636936,64.4918946 4.85042485,64.4715989 L4.85042485,64.4715989 L4.87142786,64.464 L4.92111281,64.4391258 C4.98556359,64.4076675 5.05001437,64.3757017 5.1136855,64.3422138 L5.30158032,64.2361688 C5.34524052,64.2077548 5.57185778,64.0433596 5.4783002,64.1184537 L5.62331446,63.9910982 L5.62331446,63.9910982 L5.75897295,63.8546096 C5.79847505,63.8140182 5.83589808,63.7693676 5.87332111,63.7267467 C5.89642175,63.7001367 5.90422463,63.6933715 5.90400789,63.6965175 L5.89742786,63.699 L5.91906038,63.6678891 C5.95856247,63.6090316 5.99754479,63.550174 6.03496783,63.4905554 L6.14151952,63.3086552 C6.16854727,63.2579159 6.19349596,63.2071767 6.21636559,63.1544079 L6.19742786,63.195 L6.20442786,63.178 L6.20342786,63.183 L6.20642786,63.174 L6.20942786,63.167 L6.21531388,63.1549628 L6.21531388,63.1549628 L6.2205237,63.1402009 C6.25794674,63.0163971 6.29536977,62.8966524 6.32447658,62.7748782 C6.32625863,62.7667599 6.32973786,62.7465471 6.33345956,62.7246064 L6.33693874,62.7055835 C6.33529417,62.7364432 6.33617127,62.7444347 6.34318809,62.6896363 C6.35150432,62.6212108 6.34624304,62.6495419 6.3390421,62.6916954 L6.33642786,62.704 L6.33928986,62.6685795 C6.34221354,62.6269099 6.34645286,62.5756791 6.3483898,62.5548086 C6.35566244,62.3892599 6.34942527,62.2350125 6.33071375,62.0827948 L6.33588644,62.1404833 C6.33262648,62.1530179 6.29370653,61.9403189 6.27873731,61.8899856 C6.26418391,61.8331576 6.24547239,61.7743001 6.22676088,61.713413 C6.2293597,61.7210239 6.18972767,61.6144714 6.17283532,61.5651989 L6.16871782,61.5544921 C6.15578056,61.5257729 6.14203929,61.4952342 6.13736141,61.4861011 C6.10201743,61.4170957 6.06667345,61.3501199 6.02717136,61.2831441 C5.95024624,61.1471629 5.86292583,61.0193 5.76936824,60.8934666 L5.80417998,60.9427608 C5.80903666,60.955815 5.66832605,60.7846816 5.63007139,60.7473375 L5.47907985,60.596642 L5.47907985,60.596642 L5.32029184,60.4550794 C5.31457443,60.4505129 5.30041085,60.4392234 5.28403827,60.4261263 L5.25842786,60.405 L5.24702003,60.3970738 C5.20957989,60.3713158 5.15297477,60.3315262 5.13360446,60.3177953 C4.99387982,60.225738 4.85458297,60.1506439 4.71320706,60.0775794 C4.6602856,60.0495344 4.4831018,59.9699618 4.47596646,59.9622156 L4.47842786,59.962 L4.35301036,59.9162285 L4.35301036,59.9162285 L4.14770344,59.8543266 C4.08948983,59.8401196 3.65080871,59.762996 3.93356053,59.7974987 C3.29736895,59.7183454 2.82334385,59.3489636 2.79215799,58.681235 C2.7672093,58.1332511 3.3389501,57.4919069 3.93356053,57.567001 Z M81.9333963,65.9522974 L81.9074279,65.97 L81.9280162,65.9813327 C82.0070268,66.0196626 82.0969924,66.0427295 82.1961173,66.0452339 L82.5059771,66.0515435 L82.5059771,66.0515435 L82.7254279,66.055 L82.6825143,66.0161489 C82.4748387,65.847121 82.1667878,65.8086184 81.9333963,65.9522974 Z M33.5254279,62.172 L33.5108602,62.2360203 C33.4638823,62.4715093 33.4883539,62.7301136 33.5822838,62.9647903 L33.6194279,63.048 L33.709217,63.0387155 C33.8142575,63.0360513 33.927369,63.0571999 34.0491246,63.1048354 C34.3511649,63.2209831 34.5674911,62.7849199 34.3552465,62.5770767 C34.0975327,62.3254642 33.8286189,62.2019744 33.5624827,62.1741772 L33.5254279,62.172 Z M52.366314,33.262561 C54.1765513,32.8124351 56.0181075,34.1077754 57.2813065,35.17707 C59.4089094,36.9775734 60.8892533,39.5132167 61.4028847,42.1609002 C61.6743158,43.5466588 61.701459,44.9422454 61.4634347,46.3358665 C61.3381588,47.0729721 61.1585966,47.8552869 60.5217773,48.3565187 C59.9350683,48.8164726 59.1813248,48.8361288 58.4630761,48.7221231 C55.6986538,48.2759285 53.1785197,46.6405368 51.5332291,44.54126 C50.7314631,43.5171745 50.1238748,42.3142182 49.8983782,41.0542589 C49.7835419,40.4193653 49.7292557,39.7510562 49.8357402,39.1102657 C49.9296971,38.5480998 50.2637663,38.0213149 50.5936596,37.5554642 C50.7272873,37.3647995 51.1239944,37.4139399 51.0947633,37.6812635 C50.858827,39.8768555 51.2910289,42.0016854 52.8256591,43.7215985 C54.1702875,45.2272596 56.0306351,46.3830412 58.0580172,46.8842731 C58.4108778,46.9707601 59.1312144,47.2302213 59.3838542,46.9216198 C59.6344061,46.6169494 59.6302302,45.8896719 59.6615492,45.516205 C59.7450665,44.5275007 59.6824285,43.5309339 59.4590198,42.5638513 C59.0059385,40.5903738 57.9953793,38.7426957 56.496244,37.2940374 C55.7529401,36.5765879 54.8739206,35.8945195 53.8967684,35.4738779 C53.4791819,35.2969725 53.013573,35.1397233 52.6648883,35.4719123 C52.5187331,35.6154022 52.4206003,35.8080324 52.2723571,35.9554536 C52.1888398,36.0380094 52.0656518,36.1048403 51.9883983,36.1893617 L52.0284279,36.153 C52.0372037,36.1573386 52.0343618,36.1702789 52.0253721,36.1935933 L52.0071897,36.2365365 C51.9341121,36.3957513 51.7002637,36.4488229 51.5415808,36.4154075 C50.7815735,36.2561927 50.4015698,35.5485712 50.5665165,34.8507779 C50.7502545,34.07436 51.5812515,33.4591225 52.366314,33.262561 Z M85.5070704,32.6548867 C87.8828979,31.3750202 90.5299016,32.9748533 91.9222093,34.9066518 C92.5475336,35.7725615 92.9988194,36.7504595 93.4420103,37.7143589 C93.9378176,38.7982459 94.4012456,39.9261282 94.1199509,41.1320024 C93.7313999,42.7978286 92.0436315,43.7097335 90.4388349,43.8757162 C88.5790517,44.069696 86.9297337,43.1937873 85.8855029,41.6979434 C84.7319921,40.0501153 84.4365314,38.0083283 84.3333226,36.0525323 C84.3049907,35.5305867 85.1488749,35.4205982 85.2541075,35.9285452 C85.5961133,37.6063702 86.0554939,39.5181708 87.2191232,40.8440325 C87.6461246,41.3259822 88.2006193,41.8239302 88.7753509,42.0199098 C89.2913952,42.1978912 89.8782691,42.247886 90.3619342,42.1778933 C90.9164288,42.0959019 91.4688998,41.8819242 91.8068582,41.595954 C92.1913618,41.2739876 92.3937321,40.9200245 92.4119455,40.5100673 C92.4524195,39.6101612 91.94447,38.7322527 91.5680613,37.9423351 C91.1855814,37.1344194 90.7747696,36.3065058 90.2081328,35.604579 C89.2205656,34.3807067 87.7351675,33.6347845 86.1769161,34.2247229 C85.2419653,34.5806858 84.6631862,33.1088393 85.5070704,32.6548867 Z M147.340647,31.0435382 C147.9488,30.8603837 148.664517,30.9665301 149.278876,31.056026 C150.186968,31.187148 151.092992,31.5180748 151.870765,32.0092618 C153.376668,32.9645789 154.499889,34.5089041 154.820514,36.2842537 C154.988066,37.2270829 154.99634,38.1366114 154.814308,39.0794407 C154.712949,39.6018472 154.551603,40.2012618 154.189607,40.5946276 C153.813131,41.0088065 153.03122,41.150335 152.509947,41.3272455 C151.988673,41.5062374 151.599786,41.5624325 151.066101,41.3230829 C150.908891,41.2523187 150.75375,41.1753106 150.602746,41.0899772 C150.232476,40.8818472 149.891166,40.6279285 149.562267,40.3594407 C148.956182,39.8682537 148.439046,39.2605138 148.029473,38.5944976 C147.624038,37.9388878 147.313756,37.200026 147.13793,36.4465951 C147.028297,35.982465 146.964172,35.4767089 147.038639,35.0042537 C147.092421,34.6691642 147.216534,34.363213 147.299276,34.0406114 L147.253428,34.199 L147.253428,34.198 C147.234726,34.1957497 147.231525,34.1957325 147.238675,34.1973256 L147.245428,34.198 L147.183987,34.190335 C147.161114,34.1872997 147.14063,34.184568 147.12253,34.1821398 L147.097428,34.178 L147.078389,34.1771109 C147.050191,34.1748905 147.024038,34.1728201 147.005724,34.1713502 L146.984857,34.169652 C146.862813,34.1634081 146.742837,34.1613268 146.622861,34.1571642 C146.033325,34.1425951 145.551354,33.7554732 145.37139,33.1997659 C145.18729,32.6170016 145.512051,32.0508878 145.967132,31.7262049 C146.380841,31.4306602 146.854539,31.1892293 147.340647,31.0435382 Z M148.529428,34.288 L148.554835,34.3654275 C148.612473,34.5224741 148.680238,34.6670829 148.728642,34.7794732 C148.863098,35.0937496 148.966525,35.4246764 149.078227,35.7451967 C149.100981,35.8138797 149.127872,35.8784 149.152694,35.9429203 L149.152694,35.9429203 L149.167174,35.982465 L149.167174,35.982465 C149.112875,35.8622699 149.166786,35.9926114 149.170956,35.9959285 L149.167428,35.985 L149.268533,36.1934569 L149.268533,36.1934569 L149.376098,36.4028878 C149.508485,36.6484813 149.661557,36.8836683 149.824972,37.1126114 L149.824972,37.1126114 L149.846428,37.143 L149.866343,37.1667252 C149.890132,37.1927415 149.912368,37.219278 149.934605,37.2458146 L150.002867,37.3249041 C150.093883,37.4310504 150.189037,37.5330341 150.286258,37.6329366 C150.395891,37.7432455 150.509661,37.8535545 150.627569,37.9576195 C150.681351,38.0034081 150.733064,38.0491967 150.788915,38.0929041 L150.788915,38.0929041 L150.806428,38.108 L151.023351,38.2572497 C151.104713,38.311749 151.186766,38.3650149 151.270197,38.4162765 L151.525318,38.563278 C151.557142,38.5800886 151.638231,38.6172195 151.709152,38.65004 L151.711428,38.651 L151.066101,38.9524813 L151.066101,38.9524813 L151.592287,38.8837984 L151.592287,38.8837984 L151.861428,38.848 L151.881108,38.7651642 L151.881108,38.7651642 L151.885428,38.733 L151.893428,38.735 L151.902245,38.6697984 C151.923015,38.5126588 151.923628,38.5110143 151.899725,38.6590179 L151.890417,38.7120911 L151.890417,38.7120911 L151.885428,38.733 L151.817837,38.707011 C151.856906,38.7200037 151.814485,38.6991291 151.750009,38.669018 L151.711428,38.651 L151.753634,38.6324813 L151.753634,38.6324813 L151.916428,38.557 L151.936428,38.547 C151.945118,38.4270685 151.934775,38.2959465 151.92857,38.18954 L151.924548,38.0929041 C151.922479,37.9867577 151.918342,37.8785301 151.910068,37.7703024 C151.907999,37.6995382 151.899725,37.628774 151.893519,37.5559285 C151.901794,37.6225301 151.910068,37.6891317 151.918342,37.753652 C151.976261,37.6516683 151.804572,37.1875382 151.771475,37.0730667 C151.738378,36.9523512 151.699076,36.8337171 151.655637,36.7150829 C151.645294,36.6817821 151.632883,36.6464 151.620471,36.6130992 L151.620471,36.6130992 L151.601428,36.565 L151.608911,36.5815628 C151.615074,36.5966886 151.622216,36.6141698 151.630346,36.6339978 L151.657705,36.7005138 C151.699076,36.6359935 151.413617,36.217652 151.36604,36.1302374 C151.260544,35.940839 151.142637,35.7639285 151.02473,35.5849366 L151.040428,35.609 L151.030695,35.5988852 L151.030695,35.5988852 L150.979222,35.5412293 C150.908891,35.4600585 150.836492,35.3809691 150.759956,35.303961 C150.671008,35.214465 150.575855,35.1353756 150.484839,35.047961 L150.484839,35.047961 L150.478633,35.0417171 C150.740304,35.2229637 150.331048,34.8952889 150.441065,35.0061435 L150.476428,35.04 L150.301734,34.9241621 C150.242283,34.8854653 150.182218,34.8473852 150.121158,34.8103073 L149.934605,34.702465 C149.841521,34.6525138 149.746367,34.6067252 149.651214,34.5588553 L149.671179,34.568268 L149.671179,34.568268 L149.597432,34.5422049 C149.380235,34.4631154 149.154763,34.3985951 148.929291,34.3465626 C148.906951,34.3424 148.855155,34.3375714 148.79985,34.3310111 L148.782428,34.328 L148.771587,34.3297559 C148.729241,34.3301632 148.661239,34.3223288 148.62925,34.3008052 L148.622428,34.294 L148.529428,34.288 Z M147.299276,34.0406114 L147.253428,34.198 L147.276446,34.2009486 C147.3004,34.2041348 147.334739,34.208897 147.379487,34.2152122 L147.454417,34.2258472 C147.37995,34.2161344 147.315078,34.2076358 147.259773,34.2003512 L147.253428,34.199 C147.274658,34.2041348 147.302494,34.2089655 147.340647,34.2154407 C147.555776,34.2508228 147.770905,34.2778797 147.988102,34.279961 C148.131522,34.279961 148.273102,34.2781109 148.415296,34.2824277 L148.529428,34.288 L148.501665,34.2049675 C148.485795,34.1505873 148.472142,34.0955577 148.4618,34.0406114 C148.356304,33.4349528 147.439937,33.4869854 147.299276,34.0406114 Z M21.151231,26.6930183 C22.5265161,25.048533 24.9790745,25.0585117 26.7429835,26.0344259 C27.1859743,26.2799012 27.604802,26.5932316 27.9652355,26.9464766 C28.3337233,27.3037131 28.7606054,27.7647277 28.9035706,28.2676528 C29.1653379,29.1896822 29.0445222,30.2933234 28.7183199,31.183421 C28.0659152,32.9616205 26.4449714,34.4185067 24.4394311,34.1031806 C23.4255862,33.94558 22.4167103,33.307438 21.8768594,32.4364789 L21.8324279,32.361 L21.7931482,32.3523116 C21.7582878,32.3416677 21.7242455,32.328349 21.6913253,32.3122029 L21.5962354,32.2551304 C19.7618506,30.9319584 19.7658778,28.3434908 21.151231,26.6930183 Z M24.3870777,27.1999349 C23.9742907,27.1919519 23.9279781,27.1959434 23.5333135,27.3176832 C23.4729057,27.3356448 23.4145114,27.3556022 23.3561172,27.3755595 L23.3604279,27.373 L23.3656724,27.3719099 L23.3884279,27.361 L23.3561172,27.3755595 L23.3561172,27.3755595 L23.3584279,27.374 L23.3218861,27.3915254 C23.2866481,27.4104849 23.2514102,27.4284465 23.216424,27.4466575 L23.1124722,27.5032865 C23.04401,27.5432012 22.979575,27.5871074 22.9171535,27.6310135 L22.9864279,27.583 C22.9847208,27.5898176 22.9171038,27.6412714 22.8838753,27.6682234 L22.8688272,27.6809069 C22.810433,27.732796 22.7540523,27.7866808 22.7016989,27.8445571 C22.687201,27.8589264 22.6219605,27.937239 22.6025334,27.9583619 L22.6004279,27.959 L22.5685033,28.0047333 C22.5413571,28.0442784 22.5152549,28.0845627 22.4898986,28.1254383 L22.4157684,28.2496912 C22.3714694,28.3295206 22.3311975,28.4113457 22.2909256,28.4931708 L22.3354159,28.4052128 C22.3378826,28.4031033 22.2806562,28.5245039 22.2707896,28.5510471 C22.2164226,28.6987315 22.1660827,28.8484116 22.1278244,29.0000874 C22.1117156,29.0759253 22.0976205,29.1517632 22.0815117,29.2295969 L22.0984279,29.146 L22.1004279,29.138 C22.0949021,29.1759116 22.0854785,29.2280402 22.081403,29.2599879 L22.0794981,29.2794903 C22.0674165,29.4231831 22.0734573,29.5608888 22.0754709,29.7005902 L22.0754709,29.7005902 L22.0744279,29.761 L22.0702339,29.7437791 C22.0529816,29.6912823 22.0655604,29.8169725 22.0721729,29.790297 L22.0744279,29.762 L22.0815117,29.7864068 C22.0895661,29.8233279 22.0971171,29.8607479 22.1049198,29.8979185 L22.129838,30.0079334 L22.129838,30.0079334 L22.1604279,30.108 L22.2315599,30.1338907 C22.3473908,30.1869999 22.4368964,30.2867379 22.4556485,30.4298159 L22.4580539,30.5208371 L22.4580539,30.5208371 L22.4554279,30.599 L22.4787865,30.6234327 C22.5149566,30.659282 22.5517234,30.6941704 22.5896834,30.7282457 L22.7077397,30.8281803 C23.0114569,31.0626791 23.0299148,31.5064528 22.8854674,31.8384285 L22.8644279,31.878 L22.8746567,31.8921628 C23.362475,32.5568151 24.2072124,32.9847911 25.046542,32.9438283 L25.1945291,32.9316845 C25.8046483,32.8578423 26.3785228,32.476657 26.7470107,31.9996764 C26.9463565,31.7422267 27.0913354,31.438875 27.1940287,31.1375191 C27.2846404,30.8641035 27.3671978,30.4948926 27.3853202,30.2853405 C27.4175377,29.9121381 27.3994153,29.5030125 27.3510891,29.2475585 C27.3188716,29.0878997 27.3007492,28.8703647 27.2282598,28.724676 L27.2414279,28.76 C27.2338758,28.7633434 27.1864069,28.6962992 27.163813,28.6635567 L27.1537568,28.6488381 C27.0470363,28.5111325 27.2806133,28.792531 27.0812674,28.5650173 C26.8033913,28.2476955 26.5375968,28.0102031 26.2476392,27.822604 C25.9456,27.6250263 25.6737647,27.4893164 25.4341469,27.4054955 C24.9891425,27.251824 24.7636199,27.2059221 24.3870777,27.1999349 Z M21.5760994,30.4010931 C21.3744883,31.0791439 21.4866203,31.7319362 21.7955852,32.2970604 L21.8324279,32.361 L21.8998792,32.3763713 C22.2256096,32.4253916 22.5929648,32.2700985 22.7802291,32.0216295 L22.8373683,31.9343461 L22.8373683,31.9343461 L22.8644279,31.878 L22.7923499,31.7724616 C22.5831386,31.4469591 22.4576881,31.0720693 22.4537578,30.6719973 L22.4554279,30.599 L22.3714694,30.5128542 L22.3714694,30.5128542 L22.3514279,30.493 L22.3352246,30.4589694 L22.3352246,30.4589694 C22.3009935,30.3971016 22.2627352,30.3292466 22.2244769,30.2693746 L22.2024279,30.236 L22.1983002,30.2194812 L22.1983002,30.2194812 L22.163314,30.1137073 L22.163314,30.1137073 L22.1604279,30.108 C21.935007,30.0458601 21.6542521,30.1372819 21.5760994,30.4010931 Z M117.698878,19.7614924 C118.673446,19.4300602 119.795806,19.4300602 120.770374,19.755745 C122.890863,20.4607569 124.064628,22.2692656 124.499436,24.1812272 C124.726478,25.1851028 124.816438,26.2253785 124.810013,27.2464962 C124.805729,28.1411716 124.640802,29.0550049 124.171724,29.8538907 C123.644815,30.7543134 122.580286,31.3060619 121.440791,31.2083564 C120.155646,31.0972404 119.031144,30.3270916 118.180807,29.5013847 C117.388301,28.7293201 116.79285,27.8346447 116.390172,26.849927 C116.190974,26.359484 116.002486,25.803904 116.011054,25.2789767 C116.015338,24.7885336 116.113866,24.28468 116.246664,23.8095633 C116.398739,23.2558991 117.446132,23.2060885 117.557512,23.8095633 C117.643188,24.2597747 117.799547,24.673586 117.962332,25.1065553 C118.110124,25.5031245 118.191516,25.91502 118.380004,26.3020102 C118.746271,27.0549169 119.286031,27.7254445 119.960733,28.2791087 C120.498351,28.7197411 121.175194,29.1527104 121.909869,29.2159316 C121.853644,29.2101842 121.9926,29.177496 121.99511,29.1889907 L121.983428,29.198 L122.03758,29.1759394 L122.03758,29.1759394 L122.130485,29.1239735 C122.004113,29.1986894 122.321115,28.9419731 122.297554,28.9668785 C122.428211,28.8116992 122.513887,28.6086251 122.590996,28.3270035 C122.768774,27.702455 122.745213,27.0223484 122.717368,26.3249997 C122.680956,25.5644298 122.59528,24.8115231 122.372521,24.0777744 C122.164756,23.3785099 121.834902,22.6869085 121.286574,22.1466549 C120.868902,21.7385909 120.386972,21.487622 119.795806,21.3458533 C119.193929,21.2002531 118.639175,21.0929686 118.033015,21.2155794 C117.428997,21.3362744 116.852824,21.497201 116.420158,21.9110123 C116.201684,22.1198338 115.88254,21.895686 115.929661,21.654296 C116.103156,20.7366311 116.739303,20.089093 117.698878,19.7614924 Z M65.4985014,10.7326272 C65.8483581,10.745196 66.1470162,10.8834527 66.4563407,11.0300886 C66.818997,11.2039569 67.1773868,11.3882991 67.5229769,11.5935893 C68.3229541,12.0691085 69.0333338,12.6514624 69.5986509,13.3846418 C70.5564902,14.6310468 70.8359489,16.3969617 70.0701041,17.7983817 C69.3725241,19.0762087 67.860034,19.664847 66.4414078,19.4784099 C65.0227817,19.2898781 63.7897502,18.4372952 63.1817676,17.1552787 C62.5481857,15.8167026 62.3732574,14.0549773 63.0217722,12.6954532 C63.3844285,11.9413258 64.6153267,12.3267687 64.5918607,13.1144129 C64.5854608,13.3490303 64.5769278,13.5647945 64.5406621,13.7994119 C64.5150629,13.9607114 64.5385288,13.7847483 64.5299958,13.8790142 C64.5214627,13.9565218 64.5150629,14.0319345 64.508663,14.109442 C64.4873303,14.4131878 64.4873303,14.7232179 64.5150629,15.0269637 C64.5167221,15.0351101 64.5429007,15.2105301 64.539398,15.203329 L64.5598616,15.324425 C64.5918607,15.4857245 64.6345261,15.6470239 64.6814581,15.8041338 C64.7049241,15.8774517 64.7326566,15.9465801 64.7539894,16.0178032 L64.7539894,16.0178032 L64.7644279,16.051 L64.759314,16.0438122 C64.7558496,16.0480354 64.8092496,16.1891871 64.7746352,16.0807058 L64.7664279,16.056 L64.7795886,16.082742 C64.8250984,16.1818958 64.876297,16.2801185 64.931288,16.3755482 L65.0163819,16.5163652 C65.0547808,16.5792092 65.0974462,16.6420531 65.1401117,16.7007075 L65.1401117,16.7007075 L65.1554279,16.724 L65.1870437,16.757267 C65.2243759,16.799163 65.2617082,16.8415826 65.3001071,16.8829549 L65.4195703,17.0023584 C65.4665023,17.0463492 65.5219674,17.0861503 65.5688994,17.1301411 L65.5604279,17.124 L65.5923654,17.1406151 C65.6382308,17.1668001 65.6830295,17.1950798 65.7280949,17.2228359 L65.8654243,17.3019146 C65.9358223,17.3396209 66.0062203,17.3710429 66.0808848,17.4045597 L65.9994279,17.367 C66.0062671,17.369905 66.030014,17.3795255 66.0490466,17.386353 L66.0659519,17.3919909 C66.1790153,17.4276025 66.2920788,17.4653088 66.4094087,17.4925412 C66.4883398,17.5113944 66.8211303,17.5386268 66.5736707,17.5302476 C66.6910007,17.5344372 66.8061974,17.547006 66.9256606,17.5449112 C67.0003252,17.5449112 67.0856561,17.526058 67.1581873,17.536532 L67.1404279,17.536 L67.2885836,17.5019678 L67.2885836,17.5019678 L67.4568455,17.463214 L67.4568455,17.463214 L67.4944279,17.451 C67.4788103,17.4595158 67.533854,17.4443005 67.5763877,17.4261398 L67.5844279,17.422 L67.5291101,17.4409568 L67.5291101,17.4409568 L67.4994279,17.449 C67.5139961,17.4448062 67.5255316,17.4408724 67.5409912,17.435815 L67.5864279,17.421 L67.5997747,17.4150337 C67.6499066,17.3878013 67.6989719,17.3605689 67.7475038,17.3322891 L67.8211017,17.2877747 C67.8339014,17.2762533 67.8739002,17.2432602 67.9133658,17.203459 L67.9133658,17.203459 L67.9394279,17.174 C67.941365,17.1698195 67.9514313,17.1578563 67.9740307,17.1357136 L68.0044279,17.106 L68.0621615,17.0188549 L68.0621615,17.0188549 L68.1181599,16.9269457 C68.1218931,16.9190902 68.1298929,16.9029864 68.1388593,16.8852134 L68.1404279,16.882 L68.1360952,16.8965323 C68.1309595,16.9122821 68.134515,16.9073942 68.1565588,16.8578173 C68.1938911,16.7792624 68.1753916,16.8136302 68.1526214,16.8581242 L68.1414279,16.879 C68.1568866,16.839013 68.1796532,16.7807954 68.1888418,16.7571521 L68.1928244,16.746793 C68.2248235,16.6357687 68.2504228,16.5247444 68.2696223,16.4116253 L68.2454279,16.53 C68.2482014,16.4950002 68.2563995,16.4260261 68.2597493,16.383296 L68.2610892,16.3613501 C68.2632224,16.2880322 68.2632224,16.2168091 68.2589559,16.1434911 C68.2568226,16.0848368 68.2482895,16.0282772 68.2461563,15.9675281 L68.2474279,15.994 L68.2397564,15.9654333 C68.1985132,15.7978494 68.1572699,15.6367827 68.11097,15.4760263 L68.0394279,15.245 L68.0357623,15.2367053 L68.0050965,15.1777891 C67.9709641,15.1086608 67.9368318,15.043722 67.8984329,14.9787833 C67.8387012,14.8740434 67.7704365,14.7755879 67.7021718,14.6771324 L67.7021718,14.6771324 L67.6924279,14.664 C67.6637729,14.6352364 67.6419069,14.6111462 67.6203075,14.5865323 L67.554976,14.5116433 C67.4525789,14.4027138 67.3480486,14.3021635 67.2392517,14.2016131 C67.1624539,14.1345796 67.0877894,14.0717357 67.0109915,14.0109865 L67.0109915,14.0109865 L66.9814279,13.986 L66.8301967,13.8797998 L66.8301967,13.8797998 L66.6440687,13.7554211 C66.3902093,13.5941217 66.12995,13.445391 65.8611577,13.3071343 C65.5795658,13.1604984 65.2766411,13.0452845 64.9993157,12.8902694 C64.5833276,12.6598416 64.4190656,12.2702092 64.3316014,11.8386807 C64.2697365,11.5223662 64.3721336,11.1955777 64.6686585,11.025899 C64.9267844,10.8813579 65.1870437,10.7179637 65.4985014,10.7326272 Z M102.37727,0.0342479364 C103.593721,-0.158854818 104.67733,0.482809543 105.388982,1.50062198 C106.785718,3.50004008 105.795098,6.18537525 104.102315,7.57531278 C103.836631,7.79255338 103.514015,7.8991622 103.198991,7.69801349 C102.365883,7.17301538 101.661822,6.47502938 101.0925,5.64629673 C100.817328,5.24601081 100.603833,4.81907269 100.449167,4.36925391 L100.393428,4.195 L100.342093,4.10046895 C100.295341,4.00383376 100.256247,3.89993487 100.225397,3.78821353 L100.185381,3.61469484 C100.086699,3.08165078 100.113267,2.51642292 100.29545,2.00751671 C100.640839,1.05004888 101.379059,0.191143924 102.37727,0.0342479364 Z M103.409428,6.037 L103.343781,6.12197616 C103.254236,6.23074546 103.156608,6.33891876 103.045274,6.45491451 L103.952393,6.3322138 C103.767838,6.24521699 103.589391,6.14844561 103.416953,6.04277575 L103.409428,6.037 Z M100.158813,2.95492709 C100.190695,3.34837396 100.258406,3.72959098 100.363404,4.09664713 L100.393428,4.195 L100.417889,4.2400438 C100.634935,4.59808849 100.96978,4.8443839 101.384752,5.0146898 C101.569213,5.09072401 101.787149,5.05306898 101.971336,4.9547314 L102.052428,4.904 L102.024528,4.87514289 C101.475369,4.27043961 101.01754,3.5654134 100.644634,2.81613449 C100.528872,2.58079051 100.13604,2.67935337 100.158813,2.95492709 Z M102.228122,2.71161166 L102.215962,2.73969798 C102.196985,2.81211151 102.179905,2.88452505 102.160928,2.95693858 L102.160428,2.956 L102.160428,3.14 L102.174923,3.19228256 L102.174923,3.19228256 L102.189394,3.25061569 C102.215962,3.37532788 102.193189,3.22848933 102.178007,3.23854676 L102.178428,3.239 L102.196428,3.284 L102.189428,3.253 C102.193676,3.26473128 102.195624,3.2718096 102.197228,3.27834254 L102.198428,3.288 L102.196428,3.284 C102.199873,3.29666877 102.200979,3.30035747 102.201411,3.30100256 L102.200428,3.295 L102.227348,3.35898455 L102.227348,3.35898455 L102.253917,3.42159208 C102.261508,3.45176439 102.270996,3.47992521 102.278587,3.50808602 C102.283142,3.52176414 102.287697,3.55443069 102.293466,3.5893501 L102.297565,3.61268335 C102.295667,3.61469484 102.337417,3.68911986 102.339315,3.69515432 C102.515805,4.01296927 102.47785,4.40520924 102.274792,4.69285188 C102.220137,4.77069643 102.145841,4.84220479 102.060306,4.90075113 L102.052428,4.904 L102.234755,5.09709448 C102.520801,5.38646771 102.829878,5.64900801 103.162789,5.87770662 L103.409428,6.037 L103.47274,5.95732291 C103.555608,5.84585301 103.633204,5.72957788 103.711152,5.60007909 L103.82904,5.39486085 C104.051076,4.99256345 104.138372,4.75319649 104.231361,4.26038217 L104.231361,4.26038217 L104.235428,4.228 L104.238671,4.20130405 L104.238671,4.20130405 L104.238428,4.195 L104.237428,4.201 L104.24251,4.14195587 L104.24251,4.14195587 L104.24844,4.05118752 C104.252236,3.95865912 104.252236,3.86411923 104.24844,3.77159082 C104.246964,3.72152715 104.229416,3.58385204 104.235083,3.60463464 L104.220449,3.52694372 L104.220449,3.52694372 L104.185815,3.38538532 C104.174429,3.34247359 104.134365,3.22804233 104.130289,3.20837446 L104.130428,3.207 L104.110143,3.15934446 L104.110143,3.15934446 L104.056769,3.04946698 C104.011223,2.96498453 103.954291,2.88653653 103.910643,2.80205408 L103.910643,2.80205408 L103.907428,2.797 L103.90495,2.7937567 L103.866995,2.74573244 C103.798676,2.66124999 103.724665,2.58481348 103.646857,2.51038846 C103.618391,2.48423913 103.588027,2.4580898 103.559561,2.42992898 L103.597428,2.465 L103.508322,2.40377965 L103.508322,2.40377965 L103.411538,2.33740058 C103.329935,2.29113638 103.153445,2.2247573 103.345117,2.29113638 L103.327428,2.285 L103.220578,2.24688366 L103.220578,2.24688366 L103.094615,2.20866541 C103.087973,2.20665392 103.061405,2.20263095 103.035785,2.19785367 L103.023428,2.195 L102.939001,2.19232208 L102.939001,2.19232208 L102.808057,2.19257351 L102.808057,2.19257351 L102.760428,2.195 L102.710194,2.21162632 C102.687831,2.2184171 102.663585,2.22562627 102.641071,2.23217567 L102.612428,2.24 L102.582226,2.25492961 C102.563248,2.26699853 102.535731,2.29214212 102.507502,2.31502278 L102.478428,2.335 L102.475715,2.33916063 L102.430407,2.38366478 L102.430407,2.38366478 L102.396428,2.421 L102.411429,2.38567627 L102.411429,2.38567627 C102.411429,2.39975668 102.270996,2.54860671 102.346906,2.48021616 L102.389368,2.43118616 L102.389368,2.43118616 L102.397255,2.42248019 C102.372525,2.46575859 102.32271,2.52346313 102.307053,2.5506182 C102.269099,2.61498579 102.244428,2.68941081 102.204576,2.75377839 L102.238428,2.686 L102.243655,2.67324441 C102.247802,2.66102649 102.250121,2.65052206 102.248224,2.64515809 C102.252019,2.65722701 102.149541,2.84228382 102.204576,2.75377839 L102.232428,2.699 L102.228122,2.71161166 L102.228122,2.71161166 Z" id="Combined-Shape"></path>
            </g>
        </g>
    </g>
</svg>