<svg width="633" height="277" viewBox="0 0 633 277" fill="none" xmlns="http://www.w3.org/2000/svg">
<path d="M811.765 -1477.55C809.788 -1475.09 808.271 -1472.22 807.301 -1469.12C806.331 -1466.01 805.926 -1462.72 806.11 -1459.44C806.294 -1456.16 807.064 -1452.95 808.374 -1450C809.685 -1447.05 811.511 -1444.41 813.748 -1442.24C847.457 -1409.47 880.561 -1387.87 912.569 -1366.99C949.921 -1342.63 985.199 -1319.61 1021.5 -1279.67C1057.8 -1239.74 1078.72 -1200.92 1100.87 -1159.83C1123.47 -1117.89 1146.85 -1074.52 1187.19 -1030.13C1227.53 -985.751 1266.96 -960.035 1305.08 -935.163C1342.43 -910.797 1377.71 -887.784 1414.01 -847.848C1450.31 -807.912 1471.22 -769.1 1493.37 -728.008C1512.93 -691.716 1533.16 -654.189 1564.48 -615.945C1568.52 -611.067 1574.16 -608.148 1580.15 -607.825C1586.15 -607.502 1592.02 -609.801 1596.48 -614.221C1600.94 -618.642 1603.63 -624.825 1603.96 -631.422C1604.3 -638.018 1602.25 -644.494 1598.27 -649.436C1569.97 -683.988 1551.77 -717.766 1532.49 -753.524C1509.89 -795.468 1486.51 -838.841 1446.17 -883.224C1405.83 -927.608 1366.4 -953.328 1328.28 -978.199C1290.93 -1002.57 1255.65 -1025.58 1219.35 -1065.51C1183.05 -1105.44 1162.14 -1144.26 1139.99 -1185.35C1117.38 -1227.29 1094.01 -1270.67 1053.66 -1315.05C1013.31 -1359.44 973.892 -1385.16 935.767 -1410.03C904.182 -1430.63 874.35 -1450.09 843.866 -1479.73C839.344 -1484.12 833.423 -1486.36 827.404 -1485.95C821.384 -1485.54 815.759 -1482.52 811.763 -1477.55L811.765 -1477.55ZM702.969 -1477.07C700.604 -1475.07 698.621 -1472.57 697.133 -1469.72C695.646 -1466.87 694.683 -1463.73 694.299 -1460.47C693.915 -1457.21 694.119 -1453.9 694.898 -1450.73C695.677 -1447.56 697.016 -1444.59 698.839 -1441.99C710.038 -1425.97 722.172 -1410.77 735.164 -1396.48C775.507 -1352.1 814.93 -1326.38 853.056 -1301.51C890.405 -1277.14 925.681 -1254.13 961.982 -1214.19C998.283 -1174.26 1019.2 -1135.45 1041.34 -1094.36C1063.95 -1052.41 1087.33 -1009.04 1127.67 -964.654C1168.02 -920.269 1207.44 -894.551 1245.57 -869.68C1282.92 -845.315 1318.19 -822.298 1354.49 -782.366C1390.8 -742.435 1411.71 -703.619 1433.86 -662.528C1456.46 -620.582 1479.84 -577.211 1520.18 -532.828C1534.16 -517.443 1549.1 -503.151 1564.89 -490.057C1567.27 -488.074 1569.98 -486.626 1572.87 -485.797C1575.76 -484.967 1578.77 -484.773 1581.72 -485.224C1584.68 -485.675 1587.53 -486.763 1590.1 -488.426C1592.68 -490.088 1594.93 -492.293 1596.73 -494.914C1598.53 -497.535 1599.85 -500.521 1600.6 -503.701C1601.35 -506.882 1601.53 -510.194 1601.12 -513.449C1600.71 -516.705 1599.72 -519.839 1598.21 -522.674C1596.7 -525.508 1594.7 -527.988 1592.31 -529.97C1578.2 -541.679 1564.84 -554.457 1552.34 -568.211C1516.04 -608.146 1495.12 -646.958 1472.98 -688.048C1450.37 -729.995 1427 -773.367 1386.65 -817.75C1346.31 -862.134 1306.89 -887.852 1268.76 -912.723C1231.41 -937.087 1196.13 -960.102 1159.83 -1000.04C1123.53 -1039.97 1102.61 -1078.79 1080.47 -1119.88C1057.86 -1161.82 1034.49 -1205.19 994.141 -1249.58C953.796 -1293.96 914.376 -1319.68 876.254 -1344.55C838.901 -1368.92 803.625 -1391.93 767.323 -1431.87C755.713 -1444.63 744.87 -1458.22 734.864 -1472.53C731.181 -1477.79 725.752 -1481.22 719.771 -1482.07C713.79 -1482.92 707.747 -1481.13 702.969 -1477.08V-1477.07ZM614.833 -1461.91C612.297 -1460.18 610.096 -1457.91 608.357 -1455.24C606.618 -1452.57 605.373 -1449.55 604.696 -1446.35C604.018 -1443.15 603.92 -1439.83 604.407 -1436.59C604.894 -1433.35 605.957 -1430.24 607.535 -1427.45C623.446 -1399.31 643.983 -1365.83 675.643 -1331C715.986 -1286.62 755.41 -1260.9 793.532 -1236.03C830.885 -1211.66 866.161 -1188.65 902.461 -1148.71C938.761 -1108.77 959.684 -1069.96 981.831 -1028.87C1004.44 -986.926 1027.81 -943.554 1068.15 -899.17C1108.5 -854.787 1147.92 -829.067 1186.05 -804.196C1223.4 -779.831 1258.67 -756.815 1294.97 -716.883C1331.27 -676.951 1352.19 -638.135 1374.33 -597.045C1396.94 -555.099 1420.32 -511.727 1460.66 -467.342C1492.71 -432.093 1523.82 -409.093 1550.03 -391.247C1552.57 -389.446 1555.41 -388.219 1558.39 -387.639C1561.36 -387.059 1564.41 -387.137 1567.35 -387.868C1570.3 -388.6 1573.08 -389.971 1575.54 -391.9C1578 -393.83 1580.09 -396.279 1581.68 -399.105C1583.27 -401.932 1584.33 -405.08 1584.81 -408.363C1585.28 -411.647 1585.15 -415.002 1584.44 -418.231C1583.72 -421.461 1582.42 -424.501 1580.63 -427.173C1578.83 -429.846 1576.57 -432.097 1573.97 -433.797C1549.98 -450.131 1521.57 -471.096 1492.82 -502.723C1456.53 -542.66 1435.6 -581.475 1413.46 -622.566C1390.85 -664.507 1367.47 -707.88 1327.13 -752.264C1286.79 -796.647 1247.37 -822.365 1209.25 -847.236C1171.89 -871.601 1136.61 -894.615 1100.31 -934.551C1064.01 -974.487 1043.1 -1013.3 1020.95 -1054.39C998.342 -1096.33 974.971 -1139.71 934.624 -1184.09C894.278 -1228.48 854.857 -1254.2 816.732 -1279.07C779.381 -1303.43 744.105 -1326.45 707.805 -1366.38C679.404 -1397.63 660.704 -1428.14 646.156 -1453.88C644.578 -1456.67 642.516 -1459.09 640.089 -1461.01C637.661 -1462.92 634.914 -1464.29 632.006 -1465.04C629.097 -1465.78 626.084 -1465.89 623.137 -1465.35C620.191 -1464.82 617.37 -1463.65 614.834 -1461.91L614.833 -1461.91ZM1002.15 -1442.29C1000.55 -1439.52 999.449 -1436.43 998.925 -1433.19C998.402 -1429.96 998.463 -1426.64 999.105 -1423.43C999.747 -1420.22 1000.96 -1417.19 1002.67 -1414.49C1004.37 -1411.8 1006.55 -1409.5 1009.06 -1407.73C1037.97 -1387.41 1060.16 -1368.11 1081.02 -1345.16C1117.32 -1305.23 1138.24 -1266.41 1160.38 -1225.32C1182.99 -1183.38 1206.36 -1140 1246.71 -1095.62C1287.06 -1051.24 1326.48 -1025.51 1364.61 -1000.64C1401.95 -976.279 1437.23 -953.264 1473.53 -913.33C1494.46 -890.299 1512.07 -865.776 1530.61 -833.819C1532.21 -831.047 1534.3 -828.652 1536.75 -826.767C1539.19 -824.883 1541.95 -823.548 1544.87 -822.838C1547.78 -822.129 1550.8 -822.058 1553.74 -822.63C1556.68 -823.203 1559.49 -824.408 1562.01 -826.175C1564.52 -827.943 1566.7 -830.239 1568.41 -832.932C1570.12 -835.626 1571.33 -838.665 1571.98 -841.875C1572.62 -845.084 1572.69 -848.402 1572.17 -851.639C1571.65 -854.876 1570.55 -857.969 1568.95 -860.74C1548.55 -895.878 1529.05 -923.012 1505.69 -948.716C1465.35 -993.098 1425.92 -1018.82 1387.8 -1043.69C1350.45 -1068.05 1315.17 -1091.07 1278.87 -1131.01C1242.57 -1170.94 1221.65 -1209.75 1199.51 -1250.85C1176.9 -1292.79 1153.52 -1336.16 1113.18 -1380.54C1089.9 -1406.15 1065.34 -1427.54 1033.56 -1449.9C1028.48 -1453.47 1022.32 -1454.68 1016.43 -1453.25C1010.54 -1451.83 1005.4 -1447.88 1002.15 -1442.29L1002.15 -1442.29ZM533.717 -1436.94C531.15 -1435.26 528.909 -1433.04 527.121 -1430.41C525.333 -1427.78 524.034 -1424.79 523.298 -1421.6C522.561 -1418.42 522.403 -1415.1 522.83 -1411.85C523.258 -1408.6 524.263 -1405.47 525.79 -1402.65L529.779 -1395.25C552.39 -1353.29 575.769 -1309.91 616.125 -1265.52C656.481 -1221.13 695.892 -1195.42 734.014 -1170.54C771.361 -1146.18 806.643 -1123.16 842.94 -1083.23C879.238 -1043.3 900.163 -1004.48 922.308 -963.385C944.914 -921.444 968.289 -878.073 1008.63 -833.69C1048.98 -789.307 1088.4 -763.588 1126.52 -738.714C1163.87 -714.352 1199.15 -691.336 1235.45 -651.399C1271.75 -611.463 1292.67 -572.65 1314.82 -531.557C1337.42 -489.615 1360.8 -446.244 1401.14 -401.861C1441.49 -357.478 1480.9 -331.763 1519.03 -306.892L1527.4 -301.423C1529.96 -299.742 1532.8 -298.633 1535.76 -298.159C1538.71 -297.686 1541.72 -297.858 1544.61 -298.666C1547.51 -299.473 1550.23 -300.9 1552.62 -302.864C1555.01 -304.829 1557.03 -307.293 1558.56 -310.116C1560.09 -312.939 1561.09 -316.066 1561.52 -319.318C1561.95 -322.57 1561.8 -325.883 1561.06 -329.068C1560.33 -332.253 1559.03 -335.248 1557.25 -337.882C1555.46 -340.516 1553.23 -342.737 1550.66 -344.419L1542.22 -349.932C1504.88 -374.297 1469.6 -397.309 1433.3 -437.241C1397 -477.172 1376.09 -515.987 1353.94 -557.076C1331.33 -599.022 1307.96 -642.397 1267.61 -686.78C1227.26 -731.163 1187.85 -756.886 1149.72 -781.756C1112.37 -806.121 1077.09 -829.135 1040.79 -869.069C1004.49 -909.003 983.576 -947.815 961.431 -988.905C938.82 -1030.85 915.449 -1074.23 875.1 -1118.61C834.752 -1162.99 795.334 -1188.71 757.211 -1213.58C719.864 -1237.95 684.582 -1260.96 648.285 -1300.9C611.988 -1340.83 591.052 -1379.67 568.901 -1420.77L564.884 -1428.21C563.359 -1431.04 561.342 -1433.51 558.95 -1435.48C556.558 -1437.44 553.836 -1438.87 550.942 -1439.68C548.048 -1440.49 545.037 -1440.67 542.081 -1440.2C539.126 -1439.73 536.283 -1438.62 533.717 -1436.94ZM456.758 -1401.65C454.234 -1399.89 452.049 -1397.61 450.327 -1394.93C448.606 -1392.24 447.382 -1389.21 446.724 -1386.01C446.067 -1382.8 445.99 -1379.48 446.498 -1376.25C447.005 -1373.01 448.087 -1369.91 449.682 -1367.14C456.797 -1354.75 463.644 -1342.04 470.27 -1329.74C492.881 -1287.79 516.26 -1244.42 556.603 -1200.04C596.947 -1155.65 636.368 -1129.94 674.495 -1105.06C711.842 -1080.7 747.124 -1057.68 783.422 -1017.75C819.666 -977.875 840.73 -938.807 861.105 -901.028C864.18 -895.317 869.19 -891.185 875.033 -889.541C880.875 -887.897 887.072 -888.876 892.259 -892.261C897.446 -895.647 901.199 -901.162 902.693 -907.594C904.186 -914.026 903.297 -920.847 900.222 -926.558C879.428 -965.11 855.867 -1008.81 815.582 -1053.13C775.24 -1097.51 735.815 -1123.23 697.688 -1148.1C660.341 -1172.47 625.059 -1195.48 588.762 -1235.42C552.465 -1275.35 531.54 -1314.17 509.394 -1355.26C502.606 -1367.86 495.584 -1380.88 488.13 -1393.86C484.907 -1399.47 479.791 -1403.45 473.908 -1404.91C468.025 -1406.37 461.855 -1405.19 456.757 -1401.65H456.758ZM383.658 -1357.1C381.197 -1355.24 379.093 -1352.87 377.467 -1350.11C375.841 -1347.36 374.724 -1344.27 374.18 -1341.04C373.636 -1337.81 373.677 -1334.49 374.298 -1331.28C374.92 -1328.07 376.111 -1325.02 377.803 -1322.31C389.805 -1303.12 399.977 -1284.24 410.748 -1264.26C433.356 -1222.32 456.734 -1178.94 497.077 -1134.55C537.421 -1090.17 576.842 -1064.46 614.967 -1039.59C652.318 -1015.22 687.594 -992.203 723.896 -952.268C735.647 -939.345 746.613 -925.585 756.723 -911.078C760.396 -905.813 765.818 -902.37 771.797 -901.507C777.776 -900.643 783.821 -902.43 788.603 -906.474C793.385 -910.517 796.513 -916.486 797.297 -923.068C798.082 -929.65 796.459 -936.305 792.786 -941.57C781.475 -957.802 769.205 -973.196 756.056 -987.652C715.712 -1032.04 676.29 -1057.76 638.163 -1082.63C600.814 -1106.99 565.534 -1130.01 529.236 -1169.94C492.938 -1209.87 472.02 -1248.69 449.869 -1289.79C439.189 -1309.6 428.144 -1330.09 415.278 -1350.68C411.857 -1356.14 406.605 -1359.89 400.676 -1361.09C394.747 -1362.3 388.626 -1360.86 383.658 -1357.1ZM1218.23 -1342.57C1215.67 -1340.88 1213.44 -1338.65 1211.67 -1336.01C1209.89 -1333.37 1208.6 -1330.37 1207.88 -1327.18C1207.16 -1323.99 1207.02 -1320.68 1207.46 -1317.43C1207.9 -1314.18 1208.92 -1311.05 1210.46 -1308.24C1213.64 -1302.42 1216.78 -1296.6 1219.92 -1290.79C1242.52 -1248.85 1265.9 -1205.48 1306.23 -1161.1C1346.56 -1116.72 1385.99 -1091 1424.11 -1066.14C1430.87 -1061.73 1437.63 -1057.32 1444.39 -1052.81C1446.94 -1051.02 1449.79 -1049.82 1452.77 -1049.27C1455.75 -1048.71 1458.8 -1048.82 1461.75 -1049.57C1464.69 -1050.33 1467.47 -1051.73 1469.91 -1053.68C1472.36 -1055.64 1474.43 -1058.11 1476 -1060.95C1477.57 -1063.8 1478.6 -1066.96 1479.05 -1070.25C1479.5 -1073.54 1479.34 -1076.9 1478.59 -1080.12C1477.85 -1083.35 1476.52 -1086.38 1474.7 -1089.03C1472.88 -1091.69 1470.59 -1093.92 1467.98 -1095.59C1461.08 -1100.19 1454.2 -1104.68 1447.31 -1109.17C1409.96 -1133.54 1374.69 -1156.55 1338.39 -1196.48C1302.09 -1236.42 1281.18 -1275.22 1259.03 -1316.31C1255.85 -1322.21 1252.67 -1328.12 1249.44 -1334.03C1247.9 -1336.85 1245.87 -1339.3 1243.47 -1341.26C1241.07 -1343.21 1238.34 -1344.63 1235.44 -1345.42C1232.55 -1346.22 1229.54 -1346.37 1226.58 -1345.89C1223.63 -1345.4 1220.79 -1344.27 1218.23 -1342.58V-1342.57ZM313.27 -1306.76C310.874 -1304.8 308.852 -1302.34 307.32 -1299.52C305.789 -1296.7 304.777 -1293.57 304.343 -1290.32C303.909 -1287.07 304.061 -1283.76 304.79 -1280.57C305.52 -1277.38 306.813 -1274.39 308.596 -1271.75C324.909 -1247.62 337.696 -1223.9 351.236 -1198.78C373.844 -1156.83 397.219 -1113.46 437.565 -1069.07C477.911 -1024.68 517.33 -998.968 555.457 -974.096C592.804 -949.731 628.081 -926.717 664.384 -886.783C665.4 -885.664 666.407 -884.544 667.403 -883.423C671.631 -878.754 677.361 -876.11 683.35 -876.066C689.338 -876.021 695.1 -878.579 699.385 -883.185C703.67 -887.79 706.131 -894.071 706.235 -900.663C706.338 -907.255 704.075 -913.625 699.936 -918.39C698.82 -919.644 697.689 -920.902 696.543 -922.164C656.199 -966.548 616.776 -992.265 578.653 -1017.14C541.3 -1041.5 506.024 -1064.52 469.722 -1104.45C433.42 -1144.39 412.502 -1183.2 390.356 -1224.29C376.818 -1249.41 362.817 -1275.39 345.089 -1301.61C341.489 -1306.94 336.114 -1310.47 330.147 -1311.44C324.18 -1312.4 318.109 -1310.72 313.27 -1306.76V-1306.76ZM250.423 -1245.64C248.049 -1243.65 246.054 -1241.16 244.552 -1238.32C243.051 -1235.48 242.073 -1232.34 241.674 -1229.08C241.274 -1225.83 241.462 -1222.52 242.226 -1219.34C242.99 -1216.16 244.315 -1213.18 246.125 -1210.57C263.837 -1185.01 277.38 -1159.89 291.717 -1133.28C314.325 -1091.34 337.698 -1047.97 378.043 -1003.59C418.389 -959.203 457.808 -933.484 495.931 -908.616C530.007 -886.385 562.194 -865.387 595.176 -831.586C597.349 -829.282 599.916 -827.477 602.729 -826.277C605.542 -825.077 608.544 -824.504 611.559 -824.594C614.575 -824.683 617.544 -825.433 620.294 -826.798C623.044 -828.164 625.52 -830.118 627.577 -832.548C629.634 -834.977 631.231 -837.833 632.275 -840.949C633.32 -844.064 633.79 -847.378 633.66 -850.696C633.529 -854.014 632.8 -857.27 631.515 -860.275C630.23 -863.28 628.415 -865.973 626.175 -868.197C589.611 -905.675 553.782 -929.05 519.127 -951.653C481.78 -976.018 446.5 -999.034 410.201 -1038.97C373.902 -1078.9 352.985 -1117.72 330.838 -1158.81C316.469 -1185.47 301.609 -1213.04 282.296 -1240.91C278.638 -1246.19 273.225 -1249.65 267.249 -1250.54C261.272 -1251.42 255.22 -1249.66 250.423 -1245.64ZM192.34 -1178.29C189.956 -1176.31 187.949 -1173.83 186.435 -1171C184.92 -1168.17 183.927 -1165.04 183.513 -1161.78C183.099 -1158.53 183.272 -1155.22 184.021 -1152.04C184.77 -1148.86 186.082 -1145.87 187.881 -1143.25C204.983 -1118.3 218.202 -1093.78 232.195 -1067.81C254.803 -1025.86 278.176 -982.493 318.522 -938.108C358.869 -893.722 398.289 -868.004 436.412 -843.131C471.796 -820.051 505.218 -798.248 539.518 -762.091C543.882 -757.569 549.691 -755.127 555.682 -755.296C561.674 -755.465 567.362 -758.232 571.51 -762.994C575.658 -767.756 577.93 -774.129 577.832 -780.726C577.734 -787.323 575.274 -793.61 570.987 -798.22C532.913 -838.356 495.65 -862.666 459.609 -886.174C422.26 -910.539 386.978 -933.553 350.683 -973.489C314.388 -1013.43 293.461 -1052.24 271.315 -1093.33C257.301 -1119.33 242.815 -1146.22 224.186 -1173.38C220.553 -1178.68 215.156 -1182.17 209.184 -1183.09C203.211 -1184.01 197.151 -1182.28 192.336 -1178.29H192.34ZM140.089 -1102.98C137.66 -1101.07 135.597 -1098.66 134.018 -1095.87C132.438 -1093.08 131.373 -1089.98 130.884 -1086.74C130.395 -1083.49 130.49 -1080.18 131.166 -1076.98C131.841 -1073.78 133.083 -1070.75 134.82 -1068.08C148.946 -1046.34 160.472 -1024.96 172.674 -1002.32C195.281 -960.379 218.654 -917.01 258.997 -872.625C299.341 -828.24 338.764 -802.523 376.887 -777.653C414.238 -753.287 449.516 -730.272 485.818 -690.338C491.005 -684.632 496.092 -678.701 500.929 -672.712C504.937 -667.752 510.57 -664.747 516.589 -664.359C522.609 -663.971 528.522 -666.231 533.028 -670.643C537.534 -675.054 540.263 -681.255 540.616 -687.882C540.968 -694.509 538.915 -701.019 534.908 -705.979C529.481 -712.686 523.784 -719.327 517.976 -725.718C477.632 -770.105 438.211 -795.822 400.084 -820.693C362.737 -845.057 327.458 -868.072 291.157 -908.006C254.856 -947.94 233.941 -986.754 211.794 -1027.84C199.641 -1050.39 187.078 -1073.71 171.811 -1097.19C168.302 -1102.59 162.988 -1106.23 157.039 -1107.32C151.089 -1108.41 144.991 -1106.85 140.084 -1102.99L140.089 -1102.98ZM95.4836 -1015.4C92.9765 -1013.62 90.8133 -1011.31 89.1176 -1008.61C87.422 -1005.9 86.2271 -1002.86 85.6013 -999.643C84.9754 -996.43 84.931 -993.113 85.4705 -989.881C86.0099 -986.649 87.1226 -983.566 88.7451 -980.807C97.3034 -966.257 105.365 -951.3 113.16 -936.835C135.768 -894.893 159.144 -851.526 199.482 -807.144C239.821 -762.761 279.25 -737.038 317.377 -712.167C354.725 -687.805 390.002 -664.788 426.303 -624.854C455.088 -593.189 474.609 -561.859 495.069 -524.567C498.183 -518.882 503.221 -514.792 509.074 -513.197C514.927 -511.601 521.116 -512.631 526.279 -516.059C531.443 -519.487 535.158 -525.033 536.607 -531.476C538.057 -537.92 537.122 -544.733 534.008 -550.418C511.83 -590.846 490.496 -624.994 458.464 -660.237C418.118 -704.619 378.697 -730.338 340.574 -755.209C303.222 -779.573 267.943 -802.588 231.643 -842.524C195.343 -882.46 174.427 -921.269 152.278 -962.356C144.262 -977.235 135.97 -992.618 126.931 -1007.99C123.652 -1013.56 118.498 -1017.47 112.601 -1018.86C106.704 -1020.25 100.546 -1019.01 95.4827 -1015.4L95.4836 -1015.4ZM56.3423 -915.29C53.7769 -913.61 51.5374 -911.39 49.7516 -908.757C47.9659 -906.124 46.6691 -903.13 45.9351 -899.945C45.2011 -896.76 45.0443 -893.447 45.4739 -890.195C45.9035 -886.944 46.9111 -883.817 48.4388 -880.994L53.6501 -871.338C76.2544 -829.402 99.6266 -786.037 139.963 -741.664C180.3 -697.292 219.73 -671.559 257.856 -646.688C295.203 -622.323 330.479 -599.309 366.782 -559.375C403.085 -519.441 423.995 -480.629 446.141 -439.539C468.752 -397.594 492.126 -354.219 532.474 -309.834C572.821 -265.45 612.239 -239.731 650.366 -214.86C687.713 -190.495 722.991 -167.481 759.292 -127.547C795.593 -87.6125 816.505 -48.7993 838.651 -7.71164C861.264 34.2343 884.636 77.609 924.984 121.993C965.331 166.378 1004.75 192.097 1042.88 216.966C1046.93 219.615 1050.99 222.27 1055.05 224.93C1057.61 226.638 1060.45 227.771 1063.41 228.266C1066.38 228.76 1069.4 228.605 1072.3 227.81C1075.21 227.015 1077.95 225.594 1080.35 223.632C1082.76 221.669 1084.79 219.202 1086.33 216.372C1087.86 213.543 1088.88 210.407 1089.31 207.144C1089.75 203.882 1089.59 200.557 1088.85 197.361C1088.11 194.166 1086.81 191.162 1085.01 188.523C1083.22 185.884 1080.97 183.662 1078.39 181.984C1074.28 179.281 1070.18 176.596 1066.07 173.927C1028.72 149.562 993.445 126.548 957.144 86.6118C920.843 46.6757 899.922 7.86002 877.778 -33.2331C855.169 -75.1747 831.796 -118.546 791.452 -162.928C751.109 -207.31 711.685 -233.03 673.563 -257.9C636.21 -282.265 600.933 -305.282 564.633 -345.218C528.333 -385.154 507.413 -423.968 485.266 -465.061C462.658 -507.003 439.285 -550.374 398.942 -594.756C358.598 -639.139 319.175 -664.858 281.052 -689.728C243.703 -714.094 208.422 -737.109 172.124 -777.042C135.826 -816.975 114.915 -855.772 92.7719 -896.857L87.5197 -906.592C84.4332 -912.297 79.4151 -916.418 73.5687 -918.049C67.7224 -919.681 61.5267 -918.69 56.3444 -915.293L56.3423 -915.29ZM24.5514 -797.895C22.0363 -796.125 19.8627 -793.827 18.155 -791.131C16.4473 -788.436 15.2388 -785.396 14.5988 -782.187C13.9588 -778.977 13.9 -775.66 14.4254 -772.425C14.9507 -769.19 16.0501 -766.101 17.6607 -763.334C37.89 -728.574 57.2507 -701.694 80.4424 -676.179C120.784 -631.799 160.209 -606.079 198.33 -581.21C235.683 -556.843 270.959 -533.828 307.261 -493.892C343.563 -453.956 364.481 -415.141 386.627 -374.047C409.234 -332.107 432.609 -288.734 472.951 -244.352C513.292 -199.97 552.717 -174.25 590.84 -149.379C628.193 -125.014 663.469 -101.999 699.771 -62.063C736.073 -22.1269 756.991 16.6877 779.138 57.7797C801.745 99.7236 825.12 143.094 865.462 187.477C896.168 221.259 925.922 243.529 948.408 259.154C950.931 260.93 953.748 262.139 956.697 262.712C959.646 263.285 962.668 263.211 965.591 262.494C968.514 261.778 971.279 260.432 973.728 258.535C976.177 256.638 978.262 254.227 979.862 251.44C981.462 248.654 982.546 245.547 983.052 242.298C983.558 239.049 983.476 235.721 982.81 232.507C982.144 229.293 980.908 226.255 979.173 223.569C977.438 220.882 975.237 218.599 972.698 216.852C952.207 202.61 925.153 182.381 897.623 152.098C861.325 112.162 840.409 73.3513 818.262 32.2615C795.651 -9.68558 772.278 -53.0592 731.929 -97.4436C691.58 -141.828 652.164 -167.547 614.04 -192.418C576.689 -216.783 541.413 -239.8 505.113 -279.731C468.813 -319.663 447.894 -358.479 425.754 -399.568C403.142 -441.515 379.768 -484.889 339.421 -529.272C299.073 -573.656 259.654 -599.378 221.528 -624.247C184.181 -648.614 148.897 -671.626 112.6 -711.558C91.8245 -734.423 74.3508 -758.715 55.9637 -790.313C52.711 -795.904 47.5747 -799.843 41.684 -801.264C35.7934 -802.686 29.6311 -801.474 24.5524 -797.894L24.5514 -797.895ZM1066.29 -702.818C1064.77 -699.994 1063.76 -696.867 1063.33 -693.614C1062.9 -690.362 1063.06 -687.049 1063.8 -683.864C1064.53 -680.679 1065.83 -677.685 1067.62 -675.053C1069.41 -672.42 1071.65 -670.202 1074.21 -668.524C1110.16 -645.006 1142.63 -622.556 1175.93 -585.919C1212.23 -545.987 1233.14 -507.174 1255.29 -466.084C1277.9 -424.138 1301.28 -380.763 1341.62 -336.38C1381.97 -291.996 1421.38 -266.28 1459.51 -241.407C1471.14 -233.817 1483.18 -225.966 1494.89 -217.775C1497.41 -215.957 1500.23 -214.709 1503.19 -214.102C1506.16 -213.495 1509.2 -213.542 1512.14 -214.241C1515.09 -214.939 1517.88 -216.274 1520.35 -218.169C1522.82 -220.064 1524.92 -222.481 1526.54 -225.279C1528.16 -228.078 1529.25 -231.202 1529.76 -234.47C1530.27 -237.738 1530.19 -241.085 1529.51 -244.317C1528.84 -247.549 1527.59 -250.6 1525.83 -253.295C1524.07 -255.989 1521.85 -258.274 1519.29 -260.014C1506.98 -268.607 1494.64 -276.663 1482.71 -284.444C1445.36 -308.81 1410.08 -331.823 1373.79 -371.755C1337.49 -411.687 1316.57 -450.507 1294.42 -491.6C1271.81 -533.542 1248.44 -576.912 1208.1 -621.295C1171.12 -661.971 1134.67 -687.187 1097.47 -711.527C1092.28 -714.92 1086.09 -715.908 1080.24 -714.274C1074.4 -712.64 1069.38 -708.517 1066.3 -702.812L1066.29 -702.818ZM7.51459 -663.5C5.29688 -661.301 3.49451 -658.642 2.21037 -655.676C0.926223 -652.71 0.185594 -649.495 0.0306451 -646.214C-0.124304 -642.932 0.309421 -639.649 1.30727 -636.553C2.30512 -633.456 3.84746 -630.606 5.84609 -628.165C10.679 -622.269 15.753 -616.391 20.9264 -610.7C61.268 -566.314 100.691 -540.597 138.819 -515.726C176.166 -491.361 211.446 -468.345 247.745 -428.415C284.044 -388.485 304.961 -349.669 327.104 -308.58C349.715 -266.632 373.089 -223.259 413.437 -178.875C453.784 -134.49 493.201 -108.771 531.329 -83.9003C568.676 -59.5356 603.954 -36.5209 640.255 3.41312C676.556 43.3471 697.471 82.1603 719.614 123.248C742.225 165.196 765.599 208.569 805.945 252.953C811.341 258.894 816.952 264.745 822.616 270.333C824.828 272.589 827.426 274.338 830.259 275.478C833.091 276.618 836.101 277.126 839.114 276.973C842.127 276.82 845.081 276.009 847.806 274.586C850.531 273.164 852.972 271.159 854.986 268.688C857.001 266.217 858.548 263.329 859.539 260.193C860.53 257.058 860.944 253.736 860.757 250.422C860.57 247.109 859.787 243.869 858.452 240.892C857.117 237.915 855.257 235.26 852.981 233.082C847.935 228.1 842.931 222.877 838.113 217.578C801.805 177.634 780.885 138.821 758.739 97.7266C736.132 55.7871 712.759 12.4148 672.415 -31.9685C632.072 -76.3518 592.648 -102.07 554.528 -126.941C517.174 -151.305 481.896 -174.32 445.594 -214.256C409.293 -254.192 388.374 -293.008 366.229 -334.101C343.622 -376.043 320.248 -419.414 279.905 -463.797C239.561 -508.18 200.138 -533.897 162.015 -558.765C124.665 -583.132 89.3862 -606.147 53.0863 -646.082C48.4631 -651.168 43.9395 -656.411 39.6325 -661.666C35.5924 -666.594 29.9406 -669.556 23.9185 -669.9C17.8964 -670.244 11.9964 -667.942 7.51459 -663.501V-663.5ZM1077.06 -589.918C1075.23 -587.327 1073.87 -584.363 1073.08 -581.195C1072.29 -578.028 1072.07 -574.719 1072.43 -571.458C1072.8 -568.198 1073.75 -565.048 1075.23 -562.192C1076.7 -559.335 1078.67 -556.826 1081.03 -554.809C1093.46 -544.175 1105.28 -532.697 1116.41 -520.441C1152.71 -480.504 1173.63 -441.691 1195.78 -400.596C1218.38 -358.656 1241.76 -315.284 1282.1 -270.9C1322.45 -226.517 1361.86 -200.8 1399.99 -175.931C1418.9 -163.596 1436.76 -151.941 1454.92 -138.04C1457.37 -136.163 1460.13 -134.834 1463.05 -134.131C1465.96 -133.428 1468.98 -133.365 1471.92 -133.943C1474.85 -134.522 1477.66 -135.733 1480.17 -137.505C1482.69 -139.278 1484.86 -141.579 1486.56 -144.275C1488.27 -146.972 1489.48 -150.012 1490.11 -153.222C1490.75 -156.432 1490.81 -159.749 1490.29 -162.983C1489.76 -166.218 1488.66 -169.307 1487.05 -172.073C1485.44 -174.84 1483.35 -177.231 1480.9 -179.109C1461.39 -194.054 1441.97 -206.716 1423.19 -218.969C1385.84 -243.336 1350.56 -266.348 1314.27 -306.282C1277.97 -346.216 1257.05 -385.028 1234.91 -426.117C1212.29 -468.063 1188.92 -511.436 1148.57 -555.82C1136.12 -569.534 1122.89 -582.377 1108.98 -594.276C1104.22 -598.354 1098.19 -600.185 1092.2 -599.367C1086.22 -598.549 1080.77 -595.147 1077.07 -589.912L1077.06 -589.918ZM7.35761 -532.342C5.59617 -529.689 4.32681 -526.68 3.62206 -523.487C2.91732 -520.294 2.79087 -516.979 3.2502 -513.732C3.70953 -510.486 4.74553 -507.37 6.29895 -504.565C7.85237 -501.759 9.89297 -499.317 12.3038 -497.38C35.0076 -479.134 57.5219 -464.448 79.2929 -450.247C116.646 -425.88 151.925 -402.867 188.224 -362.929C224.523 -322.991 245.444 -284.178 267.59 -243.086C290.197 -201.142 313.57 -157.775 353.914 -113.391C394.257 -69.0079 433.681 -43.2896 471.803 -18.4178C509.156 5.94687 544.434 28.9615 580.734 68.8977C617.034 108.834 637.949 147.647 660.098 188.739C673.534 213.669 687.429 239.446 704.967 265.465C706.745 268.106 708.978 270.335 711.539 272.026C714.099 273.716 716.937 274.835 719.89 275.319C722.844 275.802 725.854 275.64 728.751 274.842C731.647 274.045 734.373 272.627 736.771 270.669C739.17 268.712 741.195 266.254 742.731 263.435C744.266 260.616 745.283 257.492 745.722 254.241C746.161 250.99 746.014 247.675 745.289 244.487C744.564 241.298 743.276 238.297 741.498 235.656C725.354 211.71 712.66 188.154 699.217 163.22C676.615 121.275 653.239 77.9015 612.895 33.5192C572.552 -10.863 533.128 -36.5845 495.003 -61.4551C457.654 -85.821 422.377 -108.835 386.074 -148.769C349.772 -188.703 328.861 -227.513 306.716 -268.604C284.106 -310.547 260.732 -353.922 220.385 -398.308C180.038 -442.693 140.618 -468.411 102.493 -493.284C80.6835 -507.511 60.0784 -520.95 39.1358 -537.783C34.2658 -541.698 28.183 -543.324 22.2243 -542.303C16.2655 -541.283 10.9187 -537.699 7.35951 -532.34L7.35761 -532.342ZM1054.84 -492.315C1052.75 -489.976 1051.09 -487.204 1049.97 -484.159C1048.84 -481.114 1048.28 -477.856 1048.3 -474.57C1048.32 -471.284 1048.93 -468.035 1050.1 -465.008C1051.26 -461.982 1052.96 -459.238 1055.08 -456.934L1056.9 -454.956C1093.19 -415.02 1114.11 -376.209 1136.26 -335.12C1158.87 -293.175 1182.24 -249.799 1222.59 -205.415C1262.94 -161.03 1302.36 -135.311 1340.48 -110.44C1363.79 -95.233 1385.81 -80.8666 1408.21 -62.3799C1410.59 -60.334 1413.32 -58.8312 1416.23 -57.9593C1419.15 -57.0874 1422.19 -56.8641 1425.19 -57.3021C1428.18 -57.7401 1431.07 -58.8309 1433.68 -60.5105C1436.28 -62.1901 1438.56 -64.4251 1440.37 -67.0847C1442.19 -69.7442 1443.5 -72.7746 1444.24 -75.9997C1444.98 -79.2248 1445.13 -82.5796 1444.67 -85.8677C1444.22 -89.1559 1443.17 -92.3115 1441.6 -95.1505C1440.03 -97.9894 1437.96 -100.455 1435.51 -102.402C1411.14 -122.522 1387.01 -138.26 1363.68 -153.481C1326.33 -177.845 1291.05 -200.86 1254.75 -240.796C1218.44 -280.732 1197.53 -319.548 1175.38 -360.641C1152.77 -402.583 1129.4 -445.955 1089.06 -490.337L1087.01 -492.58C1082.71 -497.237 1076.91 -499.824 1070.88 -499.774C1064.85 -499.724 1059.08 -497.04 1054.85 -492.312L1054.84 -492.315ZM24.0819 -411.123C22.5497 -408.303 21.5374 -405.178 21.1027 -401.927C20.668 -398.676 20.8194 -395.362 21.5484 -392.176C22.2774 -388.989 23.5697 -385.992 25.3514 -383.355C27.133 -380.719 29.3692 -378.495 31.932 -376.81C62.9248 -356.425 95.9277 -333.505 128.706 -297.447C165.004 -257.515 185.919 -218.702 208.065 -177.612C230.674 -135.666 254.048 -92.2931 294.396 -47.9087C334.743 -3.52435 374.163 22.1949 412.288 47.0677C449.637 71.4325 484.917 94.4451 521.215 134.379C553.87 170.307 574.447 206.11 592.728 239.702C595.825 245.399 600.85 249.509 606.698 251.127C612.547 252.745 618.74 251.739 623.915 248.331C629.09 244.922 632.823 239.39 634.293 232.951C635.762 226.512 634.849 219.695 631.752 213.998C612.011 177.723 589.698 138.963 553.375 98.9965C513.032 54.6153 473.608 28.8979 435.486 4.02942C398.133 -20.3375 362.854 -43.3542 326.555 -83.2893C290.255 -123.224 269.335 -162.041 247.188 -203.132C224.581 -245.074 201.206 -288.446 160.864 -332.827C124.408 -372.934 88.7101 -397.764 55.2681 -419.759C50.092 -423.167 43.8981 -424.171 38.0493 -422.552C32.2004 -420.932 27.1756 -416.821 24.08 -411.123H24.0819ZM1009.11 -412.854C1006.92 -410.626 1005.15 -407.944 1003.9 -404.96C1002.65 -401.977 1001.94 -398.752 1001.82 -395.468C1001.7 -392.185 1002.17 -388.908 1003.21 -385.825C1004.24 -382.742 1005.81 -379.914 1007.84 -377.501C1037.92 -341.668 1056.77 -306.682 1076.74 -269.638C1099.34 -227.695 1122.72 -184.322 1163.06 -139.936C1203.41 -95.551 1242.83 -69.8348 1280.95 -44.9641C1305.58 -28.8965 1328.84 -13.7227 1352.51 6.29266C1354.87 8.29626 1357.58 9.76755 1360.46 10.6219C1363.34 11.4763 1366.35 11.6972 1369.31 11.2723C1372.27 10.8474 1375.12 9.78476 1377.71 8.1452C1380.3 6.50568 1382.56 4.32141 1384.38 1.71689C1386.2 -0.887665 1387.54 -3.86148 1388.32 -7.03452C1389.09 -10.2076 1389.29 -13.5177 1388.91 -16.7762C1388.52 -20.0346 1387.56 -23.1775 1386.07 -26.0253C1384.58 -28.8731 1382.59 -31.37 1380.23 -33.3736C1354.4 -55.2269 1328.85 -71.8896 1304.15 -88.0046C1266.8 -112.369 1231.52 -135.382 1195.22 -175.318C1158.93 -215.254 1138 -254.07 1115.86 -295.161C1095.56 -332.807 1074.58 -371.733 1041.25 -411.445C1037.16 -416.32 1031.47 -419.207 1025.45 -419.471C1019.42 -419.735 1013.55 -417.355 1009.11 -412.853V-412.854ZM946.26 -350.874C944.09 -348.618 942.345 -345.913 941.125 -342.914C939.905 -339.916 939.234 -336.682 939.15 -333.398C939.066 -330.113 939.57 -326.843 940.635 -323.773C941.699 -320.704 943.303 -317.895 945.354 -315.508C977.163 -278.483 996.618 -242.376 1017.22 -204.149C1039.83 -162.207 1063.2 -118.838 1103.54 -74.4561C1143.88 -30.0739 1183.31 -4.35233 1221.43 20.5162C1245.76 36.383 1268.73 51.3692 1292.09 71.0204C1294.46 73.0619 1297.17 74.5656 1300.07 75.4451C1302.97 76.3246 1306 76.5621 1308.98 76.1437C1311.97 75.7254 1314.84 74.6599 1317.45 73.0082C1320.06 71.3566 1322.34 69.152 1324.17 66.5222C1325.99 63.8924 1327.33 60.8896 1328.09 57.6879C1328.86 54.4863 1329.04 51.1492 1328.62 47.8702C1328.21 44.5913 1327.21 41.4357 1325.68 38.586C1324.15 35.7362 1322.12 33.2489 1319.71 31.2686C1294.22 9.82993 1269.01 -6.61877 1244.63 -22.5211C1207.28 -46.8858 1172 -69.9005 1135.7 -109.837C1099.4 -149.773 1078.48 -188.581 1056.34 -229.671C1035.37 -268.572 1013.69 -308.802 978.405 -349.873C974.261 -354.695 968.547 -357.509 962.518 -357.697C956.49 -357.884 950.641 -355.429 946.256 -350.871L946.26 -350.874ZM861.929 -309.182C859.932 -306.74 858.392 -303.888 857.397 -300.79C856.401 -297.693 855.971 -294.409 856.129 -291.128C856.287 -287.847 857.03 -284.632 858.318 -281.667C859.605 -278.703 861.41 -276.046 863.63 -273.85C868.64 -268.899 873.583 -263.738 878.335 -258.512C914.633 -218.576 935.548 -179.765 957.694 -138.677C980.305 -96.7306 1003.68 -53.358 1044.02 -8.97256C1084.37 35.4129 1123.79 61.1269 1161.91 85.9987C1182.99 99.7483 1202.89 112.735 1223.13 128.794C1225.55 130.796 1228.31 132.248 1231.24 133.063C1234.17 133.879 1237.22 134.042 1240.21 133.544C1243.2 133.045 1246.07 131.896 1248.65 130.162C1251.23 128.427 1253.47 126.144 1255.24 123.444C1257.01 120.745 1258.27 117.684 1258.96 114.441C1259.64 111.197 1259.73 107.837 1259.21 104.556C1258.7 101.275 1257.6 98.1396 1255.97 95.3333C1254.35 92.527 1252.23 90.1064 1249.74 88.2126C1227.85 70.8419 1206.12 56.667 1185.11 42.9583C1147.76 18.5935 1112.48 -4.4191 1076.18 -44.3531C1039.89 -84.2871 1018.96 -123.103 996.816 -164.196C974.21 -206.138 950.836 -249.51 910.494 -293.891C905.177 -299.739 899.644 -305.513 894.04 -311.057C889.555 -315.495 883.653 -317.79 877.631 -317.438C871.609 -317.086 865.961 -314.117 861.928 -309.181L861.929 -309.182ZM723.485 -300.761C721.934 -297.954 720.9 -294.838 720.443 -291.591C719.986 -288.343 720.116 -285.029 720.823 -281.836C721.531 -278.644 722.803 -275.636 724.567 -272.985C726.332 -270.334 728.553 -268.092 731.105 -266.387C758.973 -247.747 788.884 -225.959 818.812 -193.029C855.11 -153.092 876.034 -114.279 898.18 -73.1862C920.787 -31.2446 944.16 12.1287 984.504 56.511C1024.85 100.893 1064.26 126.607 1102.38 151.478C1116.63 160.767 1131.35 170.372 1145.67 180.713C1148.17 182.517 1150.96 183.762 1153.89 184.378C1156.82 184.994 1159.84 184.968 1162.76 184.302C1165.68 183.635 1168.46 182.342 1170.93 180.495C1173.39 178.648 1175.51 176.284 1177.15 173.537C1178.79 170.791 1179.92 167.716 1180.48 164.488C1181.04 161.26 1181.01 157.942 1180.41 154.725C1179.8 151.507 1178.63 148.452 1176.95 145.734C1175.27 143.016 1173.12 140.689 1170.63 138.885C1155.44 127.916 1140.26 118.013 1125.58 108.439C1088.24 84.0739 1052.96 61.0612 1016.66 21.1304C980.368 -18.8004 959.451 -57.6173 937.304 -98.7071C914.694 -140.652 891.32 -184.026 850.973 -228.412C817.652 -265.075 785.024 -288.879 754.733 -309.143C752.181 -310.851 749.349 -311.99 746.398 -312.493C743.447 -312.997 740.435 -312.855 737.534 -312.077C734.632 -311.299 731.898 -309.9 729.488 -307.959C727.078 -306.018 725.039 -303.573 723.487 -300.764L723.485 -300.761ZM80.142 -256.168C77.9538 -253.933 76.1871 -251.245 74.943 -248.258C73.6989 -245.271 73.0018 -242.044 72.8915 -238.76C72.7811 -235.476 73.2597 -232.201 74.2998 -229.121C75.34 -226.041 76.9213 -223.217 78.9535 -220.81C109.432 -184.697 128.432 -149.444 148.546 -112.122C171.151 -70.1786 194.529 -26.8064 234.873 17.5758C275.216 61.9581 314.64 87.6774 352.762 112.549C387.172 135 419.678 156.201 452.991 190.596C457.386 195.14 463.242 197.575 469.268 197.366C475.295 197.158 481 194.322 485.128 189.483C489.255 184.644 491.468 178.198 491.278 171.563C491.089 164.929 488.513 158.648 484.117 154.104C447.163 115.96 410.966 92.3449 375.96 69.5098C338.613 45.1451 303.333 22.1308 267.034 -17.8011C230.735 -57.7329 209.817 -96.5513 187.671 -137.643C167.22 -175.588 146.073 -214.821 112.279 -254.856C108.174 -259.719 102.483 -262.588 96.457 -262.834C90.4309 -263.08 84.5628 -260.682 80.142 -256.167V-256.168Z" fill="#A8B999"/>
</svg>
