<?xml version="1.0" encoding="UTF-8"?>
<svg width="1919px" height="900px" viewBox="0 0 1919 900" version="1.1" xmlns="http://www.w3.org/2000/svg" xmlns:xlink="http://www.w3.org/1999/xlink">
    <!-- Generator: Sketch 63.1 (92452) - https://sketch.com -->
    <title>Group</title>
    <desc>Created with Sketch.</desc>
    <g id="Layout" stroke="none" stroke-width="1" fill="none" fill-rule="evenodd">
        <g id="Moon-Discography" transform="translate(-1.000000, 0.000000)">
            <g id="Hero">
                <g id="Bg">
                    <g id="Group" transform="translate(1.000000, 0.000000)">
                        <rect id="Rectangle" fill="#000000" x="0" y="0" width="1920" height="900"></rect>
                        <g id="waves-/-grey" opacity="0.699999988" transform="translate(0.000000, 129.000000)" fill="#4B4C5A" fill-opacity="0.59">
                            <g id="vwawes-grey" opacity="0.6" transform="translate(960.000000, 211.500000) scale(-1, 1) translate(-960.000000, -211.500000) ">
                                <path d="M1920,127.896597 C1905.47373,131.15275 1889.99287,133.92651 1874.59502,136.700269 C1856.99747,139.775525 1839.85647,142.730182 1823.79456,146.106933 C1804.40496,150.094672 1784.60993,153.603234 1764.48585,156.619081 L1761.12406,157.121574 C1747.01282,159.131545 1731.44895,160.940518 1716.38313,162.648994 C1710.15758,163.352483 1703.93204,164.055973 1697.7895,164.779563 C1631.38734,172.489043 1566.85125,183.571798 1505.2541,197.843584 C1496.1233,200.014352 1487.20002,202.406218 1478.60876,204.717684 C1454.24613,211.270189 1431.25311,217.4408 1401.20447,219.772366 C1355.75798,223.309915 1315.83148,219.048777 1273.58077,214.566542 C1257.26984,212.837967 1240.37786,211.028993 1223.02933,209.702412 C1209.49915,208.677327 1197.5461,208.014037 1186.54763,207.692441 C1116.94602,205.68247 1064.60993,215.511228 1011.48527,240.434867 C1007.3349,242.444838 1002.81101,244.454809 998.453125,246.082885 C935.658114,271.167322 901.210091,263.00684 859.166901,238.88719 C830.114351,222.164232 782.385162,206.607057 744.367826,217.822695 C711.164912,227.611253 707.014548,250.56512 709.712285,268.071967 L710.168825,271.267821 C711.656608,278.735406 712.058801,286.244398 711.37243,293.739295 C709.753788,304.573038 703.984782,312.552623 693.235339,318.863931 C681.116275,325.979228 662.605651,330.541862 644.717581,334.943699 C638.32602,336.511476 631.685437,338.139552 625.584402,339.848028 C614.585936,342.923283 601.097253,347.30502 594.622684,354.098721 C588.729167,360.269332 589.891269,366.279145 591.177882,372.630653 C592.662127,377.666103 592.592189,382.780444 590.970364,387.805933 C589.731026,390.889047 587.504474,393.859436 584.371285,396.609606 C563.619463,414.94054 507.423532,428.04555 457.121117,418.317291 C419.186788,411.000997 390.715289,396.348309 362.866345,382.137815 C351.203822,376.107902 339.167766,370.07799 326.841184,364.671168 C290.525497,348.872797 258.858218,338.843042 232.752426,334.8231 C215.071875,332.10964 200.794622,332.210138 189.090595,335.144696 C176.141458,338.400848 172.032598,344.732257 168.048248,350.882768 C161.407665,361.133619 155.182119,370.841779 109.237587,366.761538 C62.2969672,362.600898 29.9241262,343.003682 15.2733404,326.059627 C7.37662049,316.831846 2.23387142,307.106438 0,297.176345 L0,305.698622 C2.72612833,312.88497 7.01090519,319.911895 12.7831219,326.662618 C27.6829295,343.928268 60.7198288,363.887279 108.698039,368.128318 C156.67625,372.369357 163.85638,361.716511 170.538467,351.365161 C174.688831,345.21465 178.258144,339.305335 190.252697,336.390878 C201.292666,333.617118 214.947364,333.536719 231.756339,336.149681 C257.530101,340.169623 288.865351,350.05868 324.890513,365.716353 C337.341605,371.042776 348.589092,376.911891 360.74966,383.122701 C388.640107,397.393494 417.485139,412.146681 455.959015,419.583573 C507.548043,429.633427 565.072091,416.106323 586.48797,397.292996 C589.756422,394.430315 592.081004,391.337847 593.377575,388.127528 C595.058768,382.983447 595.142703,377.746554 593.626597,372.590453 C592.422991,366.419843 591.260889,360.530628 596.863881,354.721812 C601.678304,349.676785 610.892112,345.455846 626.746504,341.03391 C632.806035,339.345535 639.197596,337.717458 645.755172,336.149681 C663.892263,331.687546 682.65191,327.084712 695.144506,319.748319 C706.225979,313.236013 712.202503,305.015232 713.862649,293.900093 C714.562756,286.338298 714.160556,278.762005 712.659043,271.227621 L712.202503,268.051867 C709.753788,250.886716 713.53062,228.435341 745.405417,218.968378 C782.01163,208.154735 828.412702,223.430513 856.842697,239.771577 C899.798967,264.39372 935.326085,272.835598 999.947256,247.107971 C1004.34664,245.359296 1008.74603,243.429724 1013.14541,241.399653 C1065.68903,216.75741 1117.44407,207.06935 1186.2156,209.019022 C1197.17256,209.320518 1209.0011,209.983808 1222.44828,211.028993 C1239.7138,212.355574 1256.52277,214.144448 1272.8337,215.873023 C1315.33343,220.395457 1355.50896,224.656596 1401.495,221.098947 C1431.95867,218.727182 1456.2383,212.214876 1479.77087,205.903567 C1488.32062,203.6122 1497.2024,201.220335 1506.29169,199.069666 C1567.7155,184.838975 1632.07108,173.789849 1698.28754,166.106144 C1704.43008,165.382554 1710.73864,164.679064 1716.83967,163.975574 C1731.947,162.267099 1747.59387,160.518424 1761.74661,158.428055 L1765.14991,157.925562 C1785.33074,154.890048 1805.18109,151.361377 1824.62463,147.353115 C1840.60353,144.076863 1857.82754,141.061906 1875.30058,137.986651 C1890.3664,135.353589 1905.51523,132.559729 1919.79248,129.404075 L1920,127.896597 Z" id="Path" fill-rule="nonzero"></path>
                                <path d="M1919.41912,120.724957 C1897.92674,129.184016 1869.96175,134.47594 1846.39481,137.683166 C1828.42917,140.128676 1810.46353,141.932741 1795.02885,143.436128 C1780.58995,144.83929 1766.77342,145.841548 1752.12707,146.903942 C1745.40551,147.385026 1738.55948,147.886155 1731.38152,148.44742 L1727.97925,148.708007 C1708.31248,150.231439 1687.44246,151.895188 1667.36078,153.979885 C1598.48558,161.115964 1531.51896,174.325728 1487.16499,183.626684 C1480.52642,185.0098 1474.01232,186.453052 1467.49822,187.876259 C1441.35883,193.609176 1416.67164,199.041416 1386.96402,201.707423 C1341.98768,205.716456 1302.40519,201.96801 1260.54068,197.938932 C1242.741,196.235093 1224.36045,194.471118 1205.31605,193.328544 C1192.92807,192.555354 1180.46247,192.107021 1167.97407,191.985518 C1097.77115,191.444298 1045.07747,203.110584 991.844408,230.973364 C987.6953,233.238467 983.214263,235.303119 979.065154,237.107184 C953.797083,248.19216 931.101459,253.023045 909.650567,251.820335 C885.046353,250.477309 861.147488,241.176352 834.385737,222.554394 C806.711183,203.290991 759.701783,184.648988 718.625608,195.573602 C679.084603,205.997088 681.905997,234.601538 684.976337,246.408141 C685.363587,247.971663 685.778498,249.541868 686.22107,251.118754 C688.460745,258.308098 689.749581,265.559104 690.079741,272.827668 C690.079741,284.133141 685.183793,292.55211 674.811021,299.307331 C663.400972,306.703997 645.435332,311.655152 628.050567,316.425901 C621.163047,318.330192 614.02658,320.274573 607.553971,322.439451 C596.517342,325.9674 583.157212,331.018782 577.597407,338.856441 C572.535494,345.972475 575.356888,352.888056 578.344246,360.224587 C581.17227,365.747013 582.277057,371.442542 581.622042,377.122661 C580.945014,380.388307 579.120954,383.574327 576.228201,386.543888 C556.353971,406.889731 493.246029,416.611636 446.236629,406.749414 C405.741329,398.170084 376.531605,381.3121 348.317666,365.035426 C339.023663,359.663322 329.35624,354.110811 319.605835,348.999294 C300.105024,338.856441 262.016207,320.936064 225.835981,314.922514 C208.202269,311.975875 193.223987,312.316643 181.399028,315.944818 C168.370827,319.953851 165.093031,327.470787 161.939708,334.747182 C156.587358,347.074959 151.525446,358.701154 102.77342,355.353612 C65.4314425,352.787831 31.3672609,338.07468 15.6421394,317.869153 C-9.25251216,285.636528 11.4930308,253.04309 29.6246353,224.278278 C35.1429498,215.498496 40.3293355,207.48043 44.3124797,199.462364 C47.4390075,193.713 49.6445541,187.855863 50.9095624,181.94289 C57.1747164,144.378251 46.7604538,115.453078 18.7539708,93.5036227 C13.0795743,89.0882258 6.81494587,84.8563902 0,80.8350785 L0,82.839595 C5.99217314,86.438455 11.534181,90.206971 16.5964344,94.1250229 C44.2294976,115.833936 54.602269,144.498522 48.3786062,181.782529 C47.1425509,187.628577 44.9645795,193.419144 41.8645057,199.101551 C37.7153971,207.119617 32.7364668,215.137683 27.3011345,223.717014 C8.87909238,252.662232 -11.9494327,285.476167 13.3601297,318.129741 C29.3756888,338.756215 64.3526742,353.790089 102.524473,356.416005 C153.724473,359.943954 159.284279,347.175184 164.761102,334.807318 C167.955916,327.470787 170.943274,320.53516 183.058671,316.766669 C194.344246,313.298856 207.953323,313.018223 225.213614,315.884682 C261.974716,322.198909 302.096596,341.783035 317.655754,349.801101 C327.406159,354.872528 336.9906,360.425038 346.284603,365.837233 C374.705997,382.234178 404.123177,399.212432 445.157861,407.932079 C493.329011,418.135068 558.179579,407.932079 578.634684,387.105153 C581.658963,384.003064 583.567194,380.67472 584.277472,377.262977 C584.962564,371.462202 583.8437,365.644583 580.958185,360.00409 C578.053809,352.847966 575.315397,346.092746 580.128363,339.297435 C584.277472,333.464292 593.198055,328.613362 609.172123,323.541935 C615.603241,321.537419 622.698217,319.532902 629.544246,317.668702 C647.177958,312.817772 665.392545,307.806481 677.093031,300.189318 C687.797731,293.193555 692.818152,284.534044 692.901135,272.947939 C692.564016,265.625555 691.261322,258.320993 689.000972,251.078664 C688.586062,249.501778 688.171151,247.931573 687.75624,246.36805 C684.768882,234.822035 681.947488,206.85903 720.077796,196.796357 C759.701783,186.292691 805.341977,204.553836 832.394165,223.396291 C859.446353,242.238746 884.092058,251.80029 909.526094,253.203451 C931.765316,254.426206 955.166288,249.495096 981.015235,238.149533 C985.164344,236.325423 989.520908,234.1405 993.918963,231.935531 C1046.61264,204.37343 1098.72545,192.84746 1168.18152,193.368634 C1180.66933,193.481792 1193.13512,193.92344 1205.5235,194.691615 C1224.44344,195.83419 1242.86548,197.598164 1260.54068,199.302003 C1302.65413,203.311036 1342.48558,207.159708 1387.95981,203.070494 C1417.95786,200.364397 1443.97277,194.67157 1469.11637,189.139104 C1475.63047,187.715898 1482.14457,186.272646 1488.74165,184.889529 C1533.01264,175.608618 1599.7718,162.4189 1668.43955,155.322911 C1688.43825,153.318395 1709.26677,151.594511 1728.93355,150.071078 L1732.33582,149.810491 C1739.3893,149.269271 1746.23533,148.768142 1753.08136,148.267013 C1767.76921,147.204619 1781.62723,146.262497 1796.10762,144.779155 C1811.58379,143.275767 1829.59092,141.451657 1847.68104,139.006147 C1870.91605,135.839011 1898.38314,130.687404 1920,122.468886 L1919.41912,120.724957 Z" id="Path" fill-rule="nonzero"></path>
                                <path d="M1898.87967,17.6816639 C1903.78916,11.8525662 1910.95837,6.53263894 1920,2.00927999 L1920,-3.1472207e-14 C1909.86657,4.89657567 1901.85383,10.7234979 1896.43154,17.1391583 C1885.3112,31.4653246 1893.73444,46.896595 1901.86722,61.8054525 C1909.54357,75.8704124 1917.51037,90.4778779 1908.92116,104.000332 C1896.76349,123.28942 1855.76763,133.83814 1820.87137,137.35438 L1819.37759,137.49503 C1791.78423,140.147279 1763.07054,139.765516 1735.26971,139.50431 C1723.56846,139.36366 1711.45228,139.202918 1699.58506,139.263196 C1626.18257,139.705238 1562.36515,151.55999 1500.41494,163.012886 C1460,170.5075 1418.25726,178.263321 1373.69295,182.92485 L1372.40664,183.0655 C1328.29876,187.526101 1289.41909,184.130418 1247.92531,180.513714 C1228.79668,178.846012 1209.00415,177.118031 1188.42324,176.193762 C1097.3444,172.175202 1034.89627,185.07478 972.655602,220.940428 C946.473029,236.070306 920.6639,243.223343 895.93361,242.238796 C866.887967,241.073413 838.672199,229.078012 810.124481,205.589529 C783.692946,183.849119 737.261411,162.148895 693.40249,172.556965 C649.543568,182.965036 657.302905,214.751845 660.705394,224.235647 C661.369295,226.084184 662.074689,227.972908 662.821577,229.861631 C669.460581,247.342367 676.307054,265.405794 656.846473,279.510939 C646.182573,287.206482 628.755187,292.531074 611.908714,297.594459 C588.962656,304.586754 567.302905,311.177192 560.995851,323.313243 C556.846473,331.47092 561.452282,339.749153 566.016598,347.766181 C570.095649,353.765266 572.359792,360.018696 572.738589,366.331928 C572.19917,376.90074 560.290456,386.183614 539.253112,392.452568 C509.3361,401.313492 466.763485,402.498967 435.518672,395.26556 C392.116183,385.21916 362.365145,365.648772 333.609959,346.741448 C326.721992,342.220568 319.626556,337.538945 312.448133,333.098437 C304.149378,328.035051 237.759336,287.929822 189.253112,292.912837 C183.649056,293.483947 178.376892,294.650629 173.817427,296.328613 C160.705394,301.090606 158.257261,309.770696 155.892116,318.149394 C151.742739,332.555931 148.008299,346.158757 96.3485477,343.707435 C61.1618257,342.039733 28.9211618,328.195793 16.1410788,309.268376 C-5.60165975,277.119896 23.526971,246.377912 51.659751,216.700847 C57.5103734,210.532357 63.5684647,204.142847 68.9211618,197.974357 C89.6680498,174.003647 117.46888,128.654198 70.9543568,94.1146747 C57.0124481,83.7668828 37.7593361,75.4283708 18.7966805,67.371158 C12.5311203,64.6787229 6.34854772,61.9661949 0,59.1331101 L0,60.9012765 C5.64315353,63.4530621 11.4107884,65.9244765 17.0539419,68.3557052 C35.7261411,76.3928252 55.0207469,84.6308732 68.7551867,94.8380155 C114.39834,128.875219 87.0124481,173.782626 66.5145228,197.512223 C61.2033195,203.66062 55.4356846,209.748738 49.2946058,216.198527 C20.9128631,246.096613 -8.38174274,276.999339 13.6514523,309.690325 C27.1784232,329.120062 60.3319502,343.305579 96.4315353,345.03356 C150.373444,347.605438 154.771784,332.756859 158.672199,318.390507 C161.078838,309.891253 163.360996,301.854133 175.560166,297.413624 C213.443983,283.670149 278.215768,313.949998 310.497925,334.022705 C317.634855,338.463214 324.73029,343.124744 331.618257,347.645624 C360.6639,366.673505 390.497925,386.344356 434.522822,396.571592 C466.390041,403.965742 510,402.780267 540.622407,393.698321 C562.489627,387.208347 574.854772,377.624081 575.394191,366.532856 C575.034786,360.090668 572.74247,353.708034 568.589212,347.585345 C563.941909,339.36739 559.502075,331.611569 563.568465,323.775377 C569.626556,312.141646 590.829876,305.691858 613.360996,298.82012 C630.456432,293.616085 648.13278,288.231214 659.004149,280.294559 C679.087137,265.767464 672.116183,247.422738 665.394191,229.700888 C664.688797,227.812165 663.983402,225.943535 663.278008,224.094997 C659.917012,214.832216 652.282158,183.909397 694.522822,173.862997 C736.763485,163.816598 781.950207,185.114965 807.80083,206.393241 C836.846473,230.263487 865.560166,242.459816 895.684647,243.665384 C921.327801,244.690117 947.883817,237.376338 974.522822,221.924975 C1036.76349,185.958863 1096.59751,173.541513 1187.92531,177.720815 C1208.38174,178.645084 1228.13278,180.352972 1247.21992,182.020674 C1288.71369,185.637378 1328.0083,189.073247 1372.61411,184.552367 L1373.90041,184.411717 C1418.63071,179.750188 1460.49793,171.974274 1500.99585,164.459567 C1562.53112,153.046857 1626.14108,141.23229 1699.08714,140.790249 C1710.91286,140.790249 1722.98755,140.790249 1734.6888,141.031362 C1762.61411,141.393033 1791.53527,141.754703 1819.37759,139.022082 C1855.18672,135.566121 1898.21577,124.736102 1910.95436,104.623209 C1919.75104,90.6788059 1911.70124,75.9306908 1903.90041,61.6447101 C1896.34855,46.8363166 1888.04979,31.626067 1898.87967,17.6816639 Z" id="Path" fill-rule="nonzero"></path>
                            </g>
                        </g>
                    </g>
                </g>
            </g>
        </g>
    </g>
</svg>