<svg width="741" height="266" viewBox="0 0 741 266" fill="none" xmlns="http://www.w3.org/2000/svg">
<path d="M-51.2347 8.44922C-53.2117 10.9108 -54.7286 13.777 -55.699 16.8843C-56.6694 19.9916 -57.074 23.2788 -56.8899 26.5582C-56.7057 29.8378 -55.9363 33.0452 -54.6258 35.9973C-53.3152 38.9493 -51.4893 41.5883 -49.252 43.7631C-15.5427 76.5312 17.5608 98.1266 49.5694 119.008C86.9212 143.37 122.199 166.387 158.498 206.325C194.797 246.264 215.72 285.075 237.866 326.168C260.473 368.11 283.849 411.483 324.19 455.866C364.532 500.249 403.957 525.965 442.081 550.837C479.431 575.203 514.709 598.216 551.009 638.152C587.309 678.088 608.225 716.9 630.373 757.992C649.932 794.284 670.159 831.811 701.476 870.055C705.523 874.933 711.159 877.852 717.154 878.175C723.148 878.498 729.016 876.199 733.476 871.779C737.937 867.358 740.628 861.175 740.964 854.578C741.3 847.982 739.253 841.506 735.27 836.564C706.973 802.012 688.767 768.234 669.493 732.476C646.889 690.532 623.511 647.159 583.17 602.776C542.828 558.392 503.402 532.672 465.277 507.801C427.928 483.434 392.65 460.422 356.35 420.49C320.05 380.559 299.137 341.742 276.99 300.653C254.379 258.707 231.007 215.334 190.657 170.949C150.308 126.563 110.892 100.843 72.7668 75.9725C41.1818 55.3706 11.35 35.905 -19.1345 6.27039C-23.6556 1.8761 -29.5767 -0.361816 -35.5963 0.0476074C-41.6158 0.457153 -47.2413 3.48083 -51.2366 8.45447L-51.2347 8.44922ZM-160.031 8.9259C-162.396 10.9305 -164.379 13.4288 -165.867 16.2775C-167.354 19.1261 -168.317 22.2695 -168.701 25.5281C-169.085 28.7867 -168.881 32.0962 -168.102 35.2682C-167.323 38.4402 -165.984 41.4124 -164.161 44.0144C-152.962 60.0331 -140.828 75.2329 -127.836 89.5178C-87.4926 133.904 -48.0695 159.622 -9.94391 184.492C27.405 208.857 62.6814 231.874 98.9824 271.806C135.283 311.738 156.198 350.551 178.343 391.641C200.954 433.587 224.328 476.962 264.674 521.346C305.019 565.731 344.441 591.449 382.568 616.32C419.916 640.685 455.192 663.702 491.494 703.634C527.796 743.565 548.711 782.381 570.856 823.472C593.464 865.418 616.837 908.789 657.18 953.172C671.16 968.557 686.1 982.849 701.888 995.943C704.269 997.926 706.981 999.374 709.87 1000.2C712.759 1001.03 715.767 1001.23 718.724 1000.78C721.682 1000.33 724.529 999.237 727.104 997.574C729.679 995.912 731.932 993.707 733.733 991.086C735.534 988.465 736.848 985.479 737.601 982.299C738.354 979.118 738.53 975.806 738.12 972.551C737.71 969.295 736.721 966.161 735.21 963.326C733.699 960.492 731.696 958.012 729.315 956.03C715.199 944.321 701.842 931.543 689.34 917.789C653.042 877.854 632.123 839.042 609.977 797.952C587.37 756.005 563.997 712.633 523.653 668.25C483.31 623.866 443.886 598.148 405.764 573.277C368.412 548.913 333.135 525.898 296.833 485.962C260.531 446.026 239.613 407.21 217.467 366.117C194.86 324.175 171.487 280.805 131.141 236.422C90.7958 192.039 51.3765 166.32 13.2538 141.45C-24.099 117.083 -59.3753 94.0704 -95.6772 54.1321C-107.287 41.3676 -118.13 27.7841 -128.136 13.4677C-131.819 8.21094 -137.248 4.77966 -143.229 3.92737C-149.21 3.0752 -155.253 4.87183 -160.031 8.92285V8.9259ZM-248.167 24.0894C-250.703 25.8231 -252.904 28.0898 -254.643 30.7606C-256.382 33.4313 -257.627 36.4536 -258.304 39.6542C-258.982 42.8546 -259.08 46.1704 -258.593 49.4126C-258.106 52.6548 -257.043 55.7599 -255.465 58.5494C-239.554 86.6932 -219.017 120.167 -187.357 155C-147.014 199.385 -107.59 225.102 -69.4677 249.974C-32.1149 274.338 3.1615 297.353 39.4614 337.289C75.7614 377.225 96.6835 416.041 118.831 457.134C141.435 499.074 164.81 542.446 205.153 586.83C245.497 631.213 284.92 656.933 323.046 681.804C360.395 706.169 395.672 729.185 431.972 769.117C468.272 809.049 489.187 847.865 511.332 888.955C533.943 930.901 557.317 974.273 597.664 1018.66C629.705 1053.91 660.822 1076.91 687.033 1094.75C689.572 1096.55 692.411 1097.78 695.385 1098.36C698.359 1098.94 701.408 1098.86 704.354 1098.13C707.3 1097.4 710.084 1096.03 712.544 1094.1C715.004 1092.17 717.089 1089.72 718.68 1086.89C720.27 1084.07 721.333 1080.92 721.806 1077.64C722.279 1074.35 722.153 1071 721.435 1067.77C720.718 1064.54 719.422 1061.5 717.626 1058.83C715.829 1056.15 713.567 1053.9 710.971 1052.2C686.976 1035.87 658.573 1014.9 629.824 983.277C593.526 943.34 572.604 904.525 550.457 863.434C527.85 821.493 504.475 778.12 464.133 733.736C423.79 689.353 384.368 663.635 346.245 638.764C308.892 614.399 273.614 591.385 237.314 551.449C201.014 511.513 180.101 472.703 157.953 431.614C135.342 389.666 111.971 346.293 71.6243 301.909C31.278 257.524 -8.14343 231.805 -46.2681 206.934C-83.6189 182.568 -118.895 159.553 -155.195 119.621C-183.596 88.3722 -202.296 57.8555 -216.844 32.1212C-218.422 29.3297 -220.484 26.9075 -222.911 24.9932C-225.339 23.0789 -228.086 21.7096 -230.994 20.9639C-233.903 20.2181 -236.916 20.1107 -239.863 20.6471C-242.809 21.1835 -245.63 22.3536 -248.166 24.0905L-248.167 24.0894ZM139.154 43.7128C137.546 46.4808 136.449 49.5706 135.925 52.8055C135.402 56.0406 135.463 59.3575 136.105 62.5667C136.747 65.7758 137.957 68.8143 139.665 71.5084C141.374 74.2025 143.549 76.4996 146.064 78.2683C174.969 98.593 197.161 117.892 218.022 140.843C254.32 180.775 275.236 219.587 297.381 260.679C319.992 302.623 343.365 345.995 383.714 390.38C424.063 434.764 463.48 460.485 501.605 485.356C538.954 509.721 574.233 532.736 610.533 572.67C631.464 595.701 649.07 620.224 667.607 652.181C669.213 654.953 671.299 657.348 673.745 659.233C676.192 661.117 678.952 662.452 681.868 663.162C684.783 663.871 687.797 663.942 690.738 663.37C693.678 662.797 696.487 661.592 699.005 659.825C701.522 658.057 703.699 655.761 705.41 653.068C707.122 650.374 708.334 647.335 708.979 644.125C709.624 640.916 709.688 637.598 709.168 634.361C708.648 631.124 707.554 628.031 705.948 625.26C685.555 590.122 666.048 562.988 642.691 537.284C602.348 492.902 562.924 467.183 524.802 442.311C487.451 417.946 452.173 394.931 415.873 354.995C379.573 315.059 358.651 276.245 336.505 235.154C313.898 193.21 290.525 149.84 250.181 105.459C226.905 79.8484 202.344 58.457 170.56 36.1042C165.478 32.5287 159.315 31.3213 153.425 32.7474C147.535 34.1736 142.401 38.1162 139.151 43.7091L139.154 43.7128ZM-329.283 49.0621C-331.85 50.7395 -334.091 52.957 -335.879 55.5886C-337.667 58.2201 -338.966 61.2136 -339.702 64.3982C-340.439 67.5828 -340.597 70.896 -340.17 74.1483C-339.742 77.4005 -338.737 80.5282 -337.21 83.3523L-333.221 90.7499C-310.61 132.706 -287.231 176.09 -246.875 220.482C-206.519 264.874 -167.108 290.583 -128.986 315.456C-91.6388 339.823 -56.3565 362.836 -20.0595 402.77C16.2375 442.704 37.1627 481.521 59.3083 522.615C81.9136 564.556 105.289 607.927 145.632 652.31C185.976 696.693 225.399 722.412 263.522 747.286C300.873 771.648 336.151 794.664 372.453 834.601C408.755 874.537 429.673 913.35 451.818 954.443C474.424 996.385 497.799 1039.76 538.142 1084.14C578.486 1128.52 617.903 1154.24 656.026 1179.11L664.399 1184.58C666.964 1186.26 669.804 1187.37 672.757 1187.84C675.711 1188.31 678.72 1188.14 681.614 1187.33C684.507 1186.53 687.228 1185.1 689.62 1183.14C692.013 1181.17 694.03 1178.71 695.558 1175.88C697.085 1173.06 698.093 1169.93 698.523 1166.68C698.953 1163.43 698.796 1160.12 698.063 1156.93C697.33 1153.75 696.034 1150.75 694.249 1148.12C692.464 1145.48 690.226 1143.26 687.662 1141.58L679.224 1136.07C641.876 1111.7 606.599 1088.69 570.3 1048.76C534.001 1008.83 513.089 970.013 490.943 928.924C468.332 886.978 444.958 843.603 404.611 799.22C364.263 754.837 324.846 729.114 286.718 704.244C249.371 679.879 214.093 656.865 177.792 616.931C141.491 576.997 120.576 538.185 98.4311 497.095C75.82 455.147 52.4487 411.774 12.1003 367.39C-28.248 323.006 -67.6663 297.288 -105.789 272.417C-143.136 248.05 -178.418 225.038 -214.715 185.102C-251.012 145.166 -271.948 106.334 -294.099 65.2317L-298.116 57.7853C-299.641 54.959 -301.658 52.4916 -304.05 50.5234C-306.442 48.5554 -309.164 47.1255 -312.058 46.3153C-314.952 45.5052 -317.963 45.3312 -320.919 45.8024C-323.874 46.2737 -326.717 47.3813 -329.283 49.0621ZM-406.242 84.3525C-408.766 86.1064 -410.951 88.3906 -412.673 91.0746C-414.394 93.7585 -415.618 96.7893 -416.276 99.9944C-416.933 103.199 -417.01 106.516 -416.502 109.754C-415.995 112.992 -414.913 116.088 -413.318 118.865C-406.203 131.248 -399.356 143.964 -392.73 156.259C-370.119 198.206 -346.74 241.581 -306.397 285.964C-266.053 330.346 -226.632 356.065 -188.505 380.935C-151.158 405.304 -115.876 428.317 -79.5785 468.251C-43.3342 508.125 -22.2696 547.193 -1.8949 584.972C1.18036 590.683 6.19043 594.815 12.0329 596.459C17.8754 598.103 24.0717 597.124 29.2589 593.739C34.4462 590.353 38.1994 584.838 39.6927 578.406C41.1861 571.974 40.2974 565.153 37.2222 559.442C16.4279 520.89 -7.13348 477.189 -47.4185 432.87C-87.7599 388.488 -127.185 362.769 -165.312 337.898C-202.659 313.531 -237.941 290.519 -274.238 250.583C-310.535 210.647 -331.46 171.831 -353.606 130.736C-360.394 118.143 -367.416 105.118 -374.87 92.1367C-378.093 86.5253 -383.209 82.5531 -389.092 81.0933C-394.975 79.6334 -401.145 80.8059 -406.243 84.3525H-406.242ZM-479.342 128.897C-481.803 130.757 -483.907 133.133 -485.533 135.888C-487.159 138.644 -488.276 141.726 -488.82 144.957C-489.364 148.188 -489.323 151.506 -488.702 154.72C-488.08 157.934 -486.889 160.982 -485.197 163.689C-473.195 182.879 -463.023 201.757 -452.252 221.74C-429.644 263.685 -406.266 307.059 -365.923 351.445C-325.579 395.832 -286.158 421.544 -248.033 446.414C-210.682 470.783 -175.406 493.797 -139.104 533.732C-127.353 546.655 -116.387 560.415 -106.277 574.922C-102.604 580.187 -97.1817 583.63 -91.2029 584.493C-85.2242 585.357 -79.179 583.57 -74.3967 579.526C-69.6145 575.483 -66.4872 569.514 -65.7028 562.932C-64.9185 556.35 -66.5411 549.695 -70.2141 544.43C-81.5254 528.198 -93.7955 512.804 -106.944 498.348C-147.288 453.959 -186.71 428.242 -224.837 403.371C-262.186 379.009 -297.466 355.992 -333.764 316.06C-370.062 276.128 -390.98 237.308 -413.131 196.215C-423.811 176.397 -434.856 155.906 -447.722 135.325C-451.143 129.858 -456.395 126.111 -462.324 124.906C-468.253 123.7 -474.374 125.136 -479.342 128.897ZM355.233 143.425C352.673 145.117 350.442 147.347 348.666 149.989C346.89 152.63 345.605 155.631 344.883 158.82C344.161 162.009 344.017 165.323 344.459 168.573C344.902 171.824 345.922 174.946 347.46 177.762C350.643 183.581 353.777 189.397 356.915 195.215C379.519 237.151 402.895 280.518 443.23 324.897C483.565 369.276 522.989 394.996 561.113 419.864C567.869 424.268 574.626 428.68 581.388 433.193C583.941 434.976 586.791 436.18 589.771 436.735C592.752 437.29 595.803 437.185 598.746 436.426C601.69 435.667 604.466 434.27 606.913 432.316C609.36 430.362 611.428 427.891 612.997 425.046C614.566 422.201 615.603 419.04 616.049 415.749C616.495 412.458 616.34 409.101 615.594 405.876C614.847 402.651 613.524 399.623 611.702 396.968C609.879 394.313 607.595 392.084 604.981 390.413C598.084 385.812 591.198 381.319 584.31 376.826C546.961 352.461 511.688 329.449 475.39 289.517C439.092 249.585 418.182 210.779 396.034 169.693C392.852 163.785 389.669 157.883 386.439 151.969C384.9 149.152 382.872 146.696 380.471 144.741C378.07 142.786 375.343 141.372 372.445 140.578C369.547 139.784 366.535 139.627 363.582 140.114C360.629 140.602 357.792 141.726 355.233 143.421V143.425ZM-549.73 179.242C-552.126 181.202 -554.148 183.661 -555.68 186.482C-557.211 189.302 -558.223 192.427 -558.657 195.678C-559.091 198.929 -558.939 202.243 -558.21 205.429C-557.48 208.615 -556.187 211.612 -554.404 214.247C-538.091 238.377 -525.304 262.102 -511.764 287.224C-489.156 329.168 -465.781 372.54 -425.435 416.929C-385.089 461.317 -345.67 487.032 -307.543 511.904C-270.196 536.269 -234.919 559.283 -198.616 599.217C-197.6 600.336 -196.593 601.456 -195.597 602.577C-191.369 607.246 -185.639 609.89 -179.65 609.934C-173.662 609.979 -167.9 607.421 -163.615 602.815C-159.33 598.21 -156.869 591.929 -156.765 585.337C-156.662 578.745 -158.925 572.375 -163.064 567.61C-164.18 566.356 -165.311 565.098 -166.457 563.836C-206.801 519.452 -246.224 493.735 -284.347 468.862C-321.7 444.498 -356.976 421.483 -393.278 381.547C-429.58 341.611 -450.498 302.797 -472.644 261.706C-486.182 236.585 -500.183 210.609 -517.911 184.387C-521.511 179.061 -526.886 175.526 -532.853 174.561C-538.82 173.597 -544.891 175.281 -549.73 179.243V179.242ZM-612.577 240.363C-614.951 242.354 -616.946 244.84 -618.448 247.681C-619.949 250.521 -620.927 253.659 -621.326 256.916C-621.726 260.172 -621.538 263.483 -620.774 266.66C-620.01 269.836 -618.685 272.816 -616.875 275.429C-599.163 300.986 -585.62 326.114 -571.283 352.717C-548.675 394.66 -525.302 438.032 -484.957 482.414C-444.611 526.797 -405.192 552.516 -367.069 577.384C-332.993 599.615 -300.806 620.613 -267.824 654.414C-265.651 656.718 -263.084 658.523 -260.271 659.723C-257.458 660.923 -254.456 661.496 -251.441 661.406C-248.425 661.317 -245.456 660.567 -242.706 659.202C-239.956 657.836 -237.48 655.882 -235.423 653.452C-233.366 651.023 -231.769 648.167 -230.725 645.051C-229.68 641.936 -229.21 638.622 -229.34 635.304C-229.471 631.986 -230.2 628.73 -231.485 625.725C-232.77 622.72 -234.585 620.027 -236.825 617.803C-273.389 580.325 -309.218 556.95 -343.873 534.347C-381.22 509.982 -416.5 486.966 -452.799 447.032C-489.098 407.098 -510.015 368.285 -532.162 327.194C-546.531 300.533 -561.391 272.963 -580.704 245.089C-584.362 239.812 -589.775 236.349 -595.751 235.463C-601.728 234.577 -607.78 236.339 -612.577 240.363ZM-670.66 307.714C-673.044 309.692 -675.051 312.167 -676.565 314.998C-678.08 317.83 -679.073 320.962 -679.487 324.216C-679.901 327.47 -679.728 330.782 -678.979 333.963C-678.23 337.143 -676.918 340.13 -675.119 342.752C-658.017 367.696 -644.798 392.223 -630.805 418.191C-608.197 460.137 -584.824 503.507 -544.478 547.892C-504.131 592.278 -464.711 617.996 -426.588 642.869C-391.204 665.949 -357.782 687.752 -323.482 723.909C-319.118 728.431 -313.309 730.873 -307.318 730.704C-301.326 730.535 -295.638 727.768 -291.49 723.006C-287.342 718.244 -285.07 711.871 -285.168 705.274C-285.266 698.677 -287.726 692.39 -292.013 687.78C-330.087 647.644 -367.35 623.334 -403.391 599.826C-440.74 575.461 -476.022 552.447 -512.317 512.511C-548.612 472.575 -569.539 433.761 -591.685 392.671C-605.699 366.669 -620.185 339.785 -638.814 312.62C-642.447 307.32 -647.844 303.827 -653.816 302.907C-659.789 301.987 -665.849 303.716 -670.664 307.714H-670.66ZM-722.911 383.015C-725.34 384.925 -727.403 387.343 -728.982 390.132C-730.562 392.92 -731.627 396.023 -732.116 399.265C-732.605 402.506 -732.51 405.823 -731.834 409.023C-731.159 412.224 -729.917 415.247 -728.18 417.919C-714.054 439.656 -702.528 461.04 -690.326 483.677C-667.719 525.621 -644.346 568.99 -604.003 613.375C-563.659 657.76 -524.236 683.477 -486.113 708.347C-448.762 732.713 -413.484 755.728 -377.182 795.662C-371.995 801.368 -366.908 807.299 -362.071 813.288C-358.063 818.248 -352.43 821.253 -346.411 821.641C-340.391 822.029 -334.478 819.769 -329.972 815.357C-325.466 810.946 -322.737 804.745 -322.384 798.118C-322.032 791.491 -324.085 784.981 -328.092 780.021C-333.519 773.314 -339.216 766.673 -345.024 760.282C-385.368 715.895 -424.789 690.178 -462.916 665.307C-500.263 640.943 -535.542 617.928 -571.843 577.994C-608.144 538.06 -629.059 499.246 -651.206 458.158C-663.359 435.609 -675.922 412.29 -691.189 388.812C-694.698 383.413 -700.012 379.768 -705.961 378.681C-711.911 377.593 -718.009 379.151 -722.916 383.012L-722.911 383.015ZM-767.516 470.596C-770.023 472.38 -772.187 474.689 -773.882 477.394C-775.578 480.098 -776.773 483.144 -777.399 486.357C-778.025 489.57 -778.069 492.887 -777.53 496.119C-776.99 499.351 -775.877 502.434 -774.255 505.193C-765.697 519.743 -757.635 534.7 -749.84 549.165C-727.232 591.107 -703.856 634.474 -663.518 678.856C-623.179 723.239 -583.75 748.962 -545.623 773.833C-508.275 798.195 -472.998 821.212 -436.697 861.146C-407.912 892.811 -388.391 924.141 -367.931 961.433C-364.817 967.118 -359.779 971.208 -353.926 972.803C-348.073 974.399 -341.884 973.369 -336.721 969.941C-331.557 966.513 -327.842 960.967 -326.393 954.524C-324.943 948.08 -325.878 941.267 -328.992 935.582C-351.17 895.154 -372.504 861.006 -404.536 825.763C-444.882 781.381 -484.303 755.662 -522.426 730.791C-559.778 706.427 -595.057 683.412 -631.357 643.476C-667.657 603.54 -688.573 564.731 -710.722 523.644C-718.738 508.765 -727.03 493.382 -736.069 478.009C-739.348 472.437 -744.502 468.525 -750.399 467.135C-756.296 465.745 -762.454 466.991 -767.517 470.597L-767.516 470.596ZM-806.658 570.71C-809.223 572.39 -811.463 574.61 -813.248 577.243C-815.034 579.876 -816.331 582.87 -817.065 586.055C-817.799 589.24 -817.956 592.553 -817.526 595.805C-817.097 599.056 -816.089 602.183 -814.561 605.006L-809.35 614.662C-786.746 656.598 -763.373 699.963 -723.037 744.336C-682.7 788.708 -643.27 814.441 -605.144 839.312C-567.797 863.677 -532.521 886.691 -496.218 926.625C-459.915 966.559 -439.005 1005.37 -416.859 1046.46C-394.248 1088.41 -370.874 1131.78 -330.526 1176.17C-290.179 1220.55 -250.761 1246.27 -212.634 1271.14C-175.287 1295.5 -140.009 1318.52 -103.708 1358.45C-67.407 1398.39 -46.4946 1437.2 -24.3489 1478.29C-1.73584 1520.23 21.6364 1563.61 61.9838 1607.99C102.331 1652.38 141.751 1678.1 179.876 1702.97C183.933 1705.62 187.991 1708.27 192.048 1710.93C194.61 1712.64 197.453 1713.77 200.414 1714.27C203.376 1714.76 206.397 1714.61 209.303 1713.81C212.21 1713.01 214.945 1711.59 217.352 1709.63C219.759 1707.67 221.789 1705.2 223.327 1702.37C224.865 1699.54 225.879 1696.41 226.312 1693.14C226.746 1689.88 226.589 1686.56 225.851 1683.36C225.113 1680.17 223.809 1677.16 222.013 1674.52C220.218 1671.88 217.966 1669.66 215.388 1667.98C211.28 1665.28 207.175 1662.6 203.075 1659.93C165.722 1635.56 130.445 1612.55 94.1436 1572.61C57.8427 1532.68 36.9217 1493.86 14.778 1452.77C-7.83124 1410.83 -31.2043 1367.45 -71.5479 1323.07C-111.891 1278.69 -151.315 1252.97 -189.437 1228.1C-226.79 1203.73 -262.067 1180.72 -298.367 1140.78C-334.667 1100.85 -355.587 1062.03 -377.734 1020.94C-400.342 978.997 -423.715 935.626 -464.058 891.244C-504.402 846.861 -543.825 821.142 -581.948 796.272C-619.297 771.906 -654.578 748.891 -690.876 708.958C-727.174 669.025 -748.085 630.228 -770.228 589.143L-775.48 579.408C-778.567 573.703 -783.585 569.582 -789.431 567.951C-795.278 566.319 -801.473 567.31 -806.656 570.707L-806.658 570.71ZM-838.449 688.105C-840.964 689.875 -843.137 692.173 -844.845 694.869C-846.553 697.564 -847.761 700.604 -848.401 703.813C-849.041 707.023 -849.1 710.34 -848.575 713.575C-848.049 716.81 -846.95 719.899 -845.339 722.666C-825.11 757.426 -805.749 784.306 -782.558 809.821C-742.216 854.201 -702.791 879.921 -664.67 904.79C-627.317 929.157 -592.041 952.172 -555.739 992.108C-519.437 1032.04 -498.519 1070.86 -476.373 1111.95C-453.766 1153.89 -430.391 1197.27 -390.049 1241.65C-349.708 1286.03 -310.283 1311.75 -272.16 1336.62C-234.807 1360.99 -199.531 1384 -163.229 1423.94C-126.927 1463.87 -106.009 1502.69 -83.8619 1543.78C-61.2548 1585.72 -37.8796 1629.09 2.46191 1673.48C33.1679 1707.26 62.9216 1729.53 85.4078 1745.15C87.931 1746.93 90.7478 1748.14 93.6967 1748.71C96.6456 1749.29 99.6683 1749.21 102.591 1748.49C105.514 1747.78 108.279 1746.43 110.728 1744.53C113.177 1742.64 115.262 1740.23 116.862 1737.44C118.462 1734.65 119.546 1731.55 120.052 1728.3C120.558 1725.05 120.476 1721.72 119.81 1718.51C119.144 1715.29 117.908 1712.26 116.173 1709.57C114.438 1706.88 112.237 1704.6 109.698 1702.85C89.2075 1688.61 62.1526 1668.38 34.6227 1638.1C-1.67529 1598.16 -22.5906 1559.35 -44.7382 1518.26C-67.3494 1476.31 -90.7216 1432.94 -131.071 1388.56C-171.42 1344.17 -210.836 1318.45 -248.96 1293.58C-286.311 1269.22 -321.587 1246.2 -357.887 1206.27C-394.187 1166.34 -415.106 1127.52 -437.246 1086.43C-459.858 1044.49 -483.232 1001.11 -523.579 956.728C-563.927 912.344 -603.346 886.622 -641.472 861.753C-678.819 837.386 -714.103 814.374 -750.4 774.442C-771.175 751.577 -788.649 727.285 -807.036 695.687C-810.289 690.096 -815.425 686.157 -821.316 684.736C-827.207 683.314 -833.369 684.526 -838.448 688.106L-838.449 688.105ZM203.292 783.182C201.766 786.006 200.76 789.133 200.331 792.386C199.903 795.638 200.062 798.951 200.797 802.136C201.533 805.321 202.832 808.315 204.619 810.947C206.407 813.58 208.648 815.798 211.214 817.476C247.164 840.994 279.63 863.444 312.931 900.081C349.229 940.013 370.144 978.826 392.291 1019.92C414.902 1061.86 438.276 1105.24 478.624 1149.62C518.971 1194 558.384 1219.72 596.509 1244.59C608.142 1252.18 620.177 1260.03 631.891 1268.22C634.411 1270.04 637.233 1271.29 640.194 1271.9C643.156 1272.5 646.197 1272.46 649.142 1271.76C652.087 1271.06 654.876 1269.73 657.348 1267.83C659.82 1265.94 661.924 1263.52 663.541 1260.72C665.157 1257.92 666.252 1254.8 666.762 1251.53C667.272 1248.26 667.187 1244.91 666.512 1241.68C665.837 1238.45 664.585 1235.4 662.83 1232.71C661.074 1230.01 658.849 1227.73 656.285 1225.99C643.98 1217.39 631.639 1209.34 619.709 1201.56C582.36 1177.19 547.084 1154.18 510.787 1114.25C474.49 1074.31 453.565 1035.49 431.42 994.4C408.814 952.458 385.439 909.088 345.095 864.705C308.124 824.029 271.67 798.813 234.466 774.473C229.282 771.08 223.087 770.092 217.242 771.726C211.397 773.36 206.381 777.483 203.297 783.188L203.292 783.182ZM-855.485 822.5C-857.703 824.699 -859.505 827.358 -860.79 830.324C-862.074 833.29 -862.814 836.505 -862.969 839.786C-863.124 843.068 -862.691 846.351 -861.693 849.447C-860.695 852.544 -859.153 855.394 -857.154 857.835C-852.321 863.731 -847.247 869.609 -842.074 875.3C-801.732 919.686 -762.309 945.403 -724.181 970.274C-686.834 994.639 -651.554 1017.66 -615.255 1057.58C-578.956 1097.51 -558.039 1136.33 -535.896 1177.42C-513.285 1219.37 -489.911 1262.74 -449.563 1307.13C-409.216 1351.51 -369.799 1377.23 -331.671 1402.1C-294.324 1426.46 -259.046 1449.48 -222.745 1489.41C-186.444 1529.35 -165.529 1568.16 -143.386 1609.25C-120.775 1651.2 -97.4006 1694.57 -57.0552 1738.95C-51.6593 1744.89 -46.0475 1750.74 -40.3843 1756.33C-38.1718 1758.59 -35.5739 1760.34 -32.7414 1761.48C-29.909 1762.62 -26.8987 1763.13 -23.886 1762.97C-20.8734 1762.82 -17.9186 1762.01 -15.1936 1760.59C-12.4686 1759.16 -10.0279 1757.16 -8.01361 1754.69C-5.99933 1752.22 -4.45197 1749.33 -3.46118 1746.19C-2.47046 1743.06 -2.05634 1739.74 -2.24292 1736.42C-2.42957 1733.11 -3.2132 1729.87 -4.54822 1726.89C-5.88324 1723.92 -7.74286 1721.26 -10.0189 1719.08C-15.0646 1714.1 -20.0693 1708.88 -24.8865 1703.58C-61.1953 1663.63 -82.1154 1624.82 -104.261 1583.73C-126.868 1541.79 -150.241 1498.41 -190.585 1454.03C-230.928 1409.65 -270.352 1383.93 -308.472 1359.06C-345.826 1334.69 -381.104 1311.68 -417.406 1271.74C-453.707 1231.81 -474.626 1192.99 -496.771 1151.9C-519.378 1109.96 -542.752 1066.59 -583.095 1022.2C-623.439 977.82 -662.862 952.103 -700.985 927.235C-738.335 902.868 -773.614 879.853 -809.914 839.918C-814.537 834.832 -819.061 829.589 -823.368 824.334C-827.408 819.406 -833.059 816.444 -839.082 816.1C-845.104 815.756 -851.004 818.058 -855.485 822.499V822.5ZM214.062 896.082C212.227 898.673 210.873 901.637 210.079 904.805C209.285 907.972 209.066 911.281 209.434 914.542C209.802 917.802 210.751 920.952 212.225 923.808C213.7 926.665 215.671 929.174 218.027 931.191C230.461 941.825 242.279 953.303 253.412 965.559C289.71 1005.5 310.632 1044.31 332.779 1085.4C355.385 1127.34 378.76 1170.72 419.104 1215.1C459.447 1259.48 498.865 1285.2 536.987 1310.07C555.897 1322.4 573.759 1334.06 591.922 1347.96C594.371 1349.84 597.133 1351.17 600.048 1351.87C602.964 1352.57 605.977 1352.64 608.916 1352.06C611.854 1351.48 614.66 1350.27 617.173 1348.49C619.687 1346.72 621.858 1344.42 623.564 1341.72C625.27 1339.03 626.476 1335.99 627.115 1332.78C627.753 1329.57 627.811 1326.25 627.285 1323.02C626.759 1319.78 625.66 1316.69 624.05 1313.93C622.439 1311.16 620.35 1308.77 617.9 1306.89C598.385 1291.95 578.968 1279.28 560.189 1267.03C522.84 1242.66 487.564 1219.65 451.265 1179.72C414.966 1139.78 394.052 1100.97 371.907 1059.88C349.294 1017.94 325.922 974.564 285.574 930.18C273.116 916.466 259.892 903.623 245.979 891.724C241.22 887.646 235.186 885.815 229.201 886.633C223.217 887.451 217.773 890.853 214.066 896.088L214.062 896.082ZM-855.642 953.658C-857.404 956.311 -858.673 959.32 -859.378 962.513C-860.083 965.706 -860.209 969.021 -859.75 972.268C-859.29 975.514 -858.254 978.63 -856.701 981.435C-855.148 984.241 -853.107 986.683 -850.696 988.62C-827.992 1006.87 -805.478 1021.55 -783.707 1035.75C-746.354 1060.12 -711.075 1083.13 -674.776 1123.07C-638.477 1163.01 -617.556 1201.82 -595.41 1242.91C-572.803 1284.86 -549.43 1328.23 -509.086 1372.61C-468.743 1416.99 -429.319 1442.71 -391.197 1467.58C-353.844 1491.95 -318.566 1514.96 -282.266 1554.9C-245.966 1594.83 -225.051 1633.65 -202.902 1674.74C-189.466 1699.67 -175.571 1725.45 -158.033 1751.47C-156.255 1754.11 -154.022 1756.34 -151.461 1758.03C-148.901 1759.72 -146.063 1760.84 -143.11 1761.32C-140.156 1761.8 -137.146 1761.64 -134.249 1760.84C-131.353 1760.04 -128.627 1758.63 -126.229 1756.67C-123.83 1754.71 -121.805 1752.25 -120.269 1749.43C-118.734 1746.62 -117.717 1743.49 -117.278 1740.24C-116.839 1736.99 -116.986 1733.68 -117.711 1730.49C-118.436 1727.3 -119.724 1724.3 -121.502 1721.66C-137.646 1697.71 -150.34 1674.15 -163.783 1649.22C-186.385 1607.28 -209.761 1563.9 -250.105 1519.52C-290.448 1475.14 -329.872 1449.42 -367.997 1424.54C-405.346 1400.18 -440.623 1377.17 -476.926 1337.23C-513.228 1297.3 -534.139 1258.49 -556.284 1217.4C-578.894 1175.45 -602.268 1132.08 -642.615 1087.69C-682.962 1043.31 -722.382 1017.59 -760.507 992.716C-782.316 978.489 -802.922 965.05 -823.864 948.217C-828.734 944.302 -834.817 942.676 -840.776 943.697C-846.734 944.717 -852.081 948.301 -855.64 953.66L-855.642 953.658ZM191.842 993.685C189.746 996.024 188.089 998.796 186.967 1001.84C185.844 1004.89 185.278 1008.14 185.3 1011.43C185.323 1014.72 185.933 1017.97 187.097 1020.99C188.261 1024.02 189.955 1026.76 192.083 1029.07L193.897 1031.04C230.195 1070.98 251.11 1109.79 273.256 1150.88C295.867 1192.83 319.241 1236.2 359.588 1280.59C399.936 1324.97 439.355 1350.69 477.481 1375.56C500.793 1390.77 522.812 1405.13 545.209 1423.62C547.59 1425.67 550.319 1427.17 553.234 1428.04C556.15 1428.91 559.194 1429.14 562.188 1428.7C565.183 1428.26 568.068 1427.17 570.676 1425.49C573.283 1423.81 575.561 1421.57 577.375 1418.92C579.189 1416.26 580.503 1413.23 581.241 1410C581.979 1406.78 582.125 1403.42 581.672 1400.13C581.219 1396.84 580.175 1393.69 578.601 1390.85C577.027 1388.01 574.955 1385.55 572.506 1383.6C548.136 1363.48 524.012 1347.74 500.677 1332.52C463.326 1308.15 428.048 1285.14 391.746 1245.2C355.444 1205.27 334.526 1166.45 312.381 1125.36C289.773 1083.42 266.4 1040.05 226.057 995.663L224.008 993.42C219.709 988.763 213.907 986.176 207.876 986.226C201.846 986.276 196.08 988.96 191.846 993.688L191.842 993.685ZM-838.918 1074.88C-840.45 1077.7 -841.463 1080.82 -841.897 1084.07C-842.332 1087.32 -842.181 1090.64 -841.452 1093.82C-840.723 1097.01 -839.43 1100.01 -837.649 1102.64C-835.867 1105.28 -833.631 1107.51 -831.068 1109.19C-800.075 1129.57 -767.072 1152.5 -734.294 1188.55C-697.996 1228.49 -677.081 1267.3 -654.935 1308.39C-632.326 1350.33 -608.952 1393.71 -568.604 1438.09C-528.257 1482.48 -488.837 1508.19 -450.712 1533.07C-413.363 1557.43 -378.083 1580.45 -341.785 1620.38C-309.13 1656.31 -288.553 1692.11 -270.272 1725.7C-267.175 1731.4 -262.15 1735.51 -256.302 1737.13C-250.453 1738.74 -244.26 1737.74 -239.085 1734.33C-233.91 1730.92 -230.177 1725.39 -228.707 1718.95C-227.238 1712.51 -228.151 1705.7 -231.248 1700C-250.989 1663.72 -273.302 1624.96 -309.625 1585C-349.968 1540.62 -389.392 1514.9 -427.514 1490.03C-464.867 1465.66 -500.146 1442.65 -536.445 1402.71C-572.745 1362.78 -593.665 1323.96 -615.812 1282.87C-638.419 1240.93 -661.794 1197.55 -702.136 1153.17C-738.592 1113.07 -774.29 1088.24 -807.732 1066.24C-812.908 1062.83 -819.102 1061.83 -824.951 1063.45C-830.8 1065.07 -835.824 1069.18 -838.92 1074.88H-838.918ZM146.115 1073.15C143.921 1075.37 142.148 1078.06 140.897 1081.04C139.646 1084.02 138.941 1087.25 138.822 1090.53C138.704 1093.81 139.174 1097.09 140.207 1100.17C141.239 1103.26 142.814 1106.09 144.84 1108.5C174.916 1144.33 193.773 1179.32 213.737 1216.36C236.344 1258.31 259.717 1301.68 300.065 1346.06C340.412 1390.45 379.827 1416.17 417.953 1441.04C442.582 1457.1 465.843 1472.28 489.509 1492.29C491.875 1494.3 494.576 1495.77 497.458 1496.62C500.34 1497.48 503.347 1497.7 506.307 1497.27C509.267 1496.85 512.122 1495.78 514.709 1494.15C517.296 1492.51 519.564 1490.32 521.384 1487.72C523.204 1485.11 524.54 1482.14 525.316 1478.97C526.092 1475.79 526.293 1472.48 525.907 1469.22C525.521 1465.97 524.556 1462.82 523.066 1459.97C521.577 1457.13 519.593 1454.63 517.227 1452.63C491.396 1430.77 465.85 1414.11 441.15 1398C403.799 1373.63 368.521 1350.62 332.223 1310.68C295.925 1270.75 275.003 1231.93 252.858 1190.84C232.562 1153.19 211.583 1114.27 178.249 1074.56C174.156 1069.68 168.472 1066.79 162.447 1066.53C156.421 1066.26 150.547 1068.65 146.115 1073.15V1073.15ZM83.26 1135.13C81.0901 1137.38 79.3454 1140.09 78.1254 1143.09C76.9054 1146.08 76.234 1149.32 76.1498 1152.6C76.0657 1155.89 76.5702 1159.16 77.6346 1162.23C78.6992 1165.3 80.3027 1168.1 82.3536 1170.49C114.163 1207.52 133.618 1243.62 154.225 1281.85C176.827 1323.79 200.203 1367.16 240.543 1411.54C280.882 1455.93 320.309 1481.65 358.435 1506.52C382.756 1522.38 405.727 1537.37 429.093 1557.02C431.46 1559.06 434.172 1560.57 437.072 1561.45C439.971 1562.32 442.999 1562.56 445.982 1562.14C448.966 1561.73 451.844 1560.66 454.45 1559.01C457.057 1557.36 459.339 1555.15 461.166 1552.52C462.993 1549.89 464.327 1546.89 465.093 1543.69C465.858 1540.49 466.038 1537.15 465.623 1533.87C465.209 1530.59 464.207 1527.44 462.677 1524.59C461.146 1521.74 459.117 1519.25 456.707 1517.27C431.217 1495.83 406.006 1479.38 381.629 1463.48C344.277 1439.11 308.997 1416.1 272.698 1376.16C236.398 1336.23 215.484 1297.42 193.339 1256.33C172.374 1217.43 150.69 1177.2 115.405 1136.13C111.261 1131.3 105.547 1128.49 99.5184 1128.3C93.4901 1128.12 87.641 1130.57 83.2562 1135.13L83.26 1135.13ZM-1.07135 1176.82C-3.06818 1179.26 -4.60809 1182.11 -5.60327 1185.21C-6.59851 1188.31 -7.02936 1191.59 -6.87134 1194.87C-6.71332 1198.15 -5.96954 1201.37 -4.68231 1204.33C-3.39514 1207.3 -1.58972 1209.95 0.630493 1212.15C5.64001 1217.1 10.5832 1222.26 15.3351 1227.49C51.6331 1267.42 72.5482 1306.23 94.6939 1347.32C117.305 1389.27 140.677 1432.64 181.025 1477.03C221.372 1521.41 260.787 1547.13 298.913 1572C319.989 1585.75 339.895 1598.74 360.135 1614.79C362.551 1616.8 365.305 1618.25 368.237 1619.06C371.169 1619.88 374.219 1620.04 377.209 1619.54C380.199 1619.05 383.068 1617.9 385.65 1616.16C388.231 1614.43 390.472 1612.14 392.242 1609.44C394.011 1606.74 395.274 1603.68 395.956 1600.44C396.638 1597.2 396.725 1593.84 396.213 1590.56C395.7 1587.28 394.599 1584.14 392.972 1581.33C391.345 1578.53 389.227 1576.11 386.74 1574.21C364.847 1556.84 343.123 1542.67 322.109 1528.96C284.759 1504.59 249.48 1481.58 213.183 1441.65C176.886 1401.71 155.963 1362.9 133.816 1321.8C111.21 1279.86 87.8355 1236.49 47.494 1192.11C42.1771 1186.26 36.6436 1180.49 31.0399 1174.94C26.555 1170.51 20.6527 1168.21 14.631 1168.56C8.60919 1168.91 2.96082 1171.88 -1.07233 1176.82L-1.07135 1176.82ZM-139.515 1185.24C-141.066 1188.05 -142.1 1191.16 -142.557 1194.41C-143.014 1197.66 -142.884 1200.97 -142.177 1204.16C-141.469 1207.36 -140.197 1210.36 -138.433 1213.01C-136.668 1215.67 -134.447 1217.91 -131.895 1219.61C-104.027 1238.25 -74.1162 1260.04 -44.1879 1292.97C-7.88989 1332.91 13.0342 1371.72 35.1799 1412.81C57.7871 1454.76 81.1603 1498.13 121.504 1542.51C161.847 1586.89 201.265 1612.61 239.384 1637.48C253.63 1646.77 268.351 1656.37 282.671 1666.71C285.166 1668.52 287.959 1669.76 290.891 1670.38C293.823 1670.99 296.836 1670.97 299.759 1670.3C302.682 1669.64 305.457 1668.34 307.925 1666.49C310.394 1664.65 312.508 1662.28 314.147 1659.54C315.786 1656.79 316.917 1653.72 317.477 1650.49C318.036 1647.26 318.012 1643.94 317.406 1640.72C316.801 1637.51 315.626 1634.45 313.948 1631.73C312.271 1629.02 310.123 1626.69 307.629 1624.89C292.442 1613.92 277.263 1604.01 262.583 1594.44C225.238 1570.07 189.961 1547.06 153.664 1507.13C117.368 1467.2 96.4512 1428.38 74.3036 1387.29C51.6945 1345.35 28.3204 1301.97 -12.0269 1257.59C-45.3479 1220.92 -77.9762 1197.12 -108.267 1176.86C-110.819 1175.15 -113.651 1174.01 -116.602 1173.51C-119.553 1173 -122.565 1173.14 -125.466 1173.92C-128.368 1174.7 -131.102 1176.1 -133.512 1178.04C-135.922 1179.98 -137.961 1182.43 -139.513 1185.24L-139.515 1185.24ZM-782.858 1229.83C-785.046 1232.07 -786.813 1234.75 -788.057 1237.74C-789.301 1240.73 -789.998 1243.96 -790.109 1247.24C-790.219 1250.52 -789.74 1253.8 -788.7 1256.88C-787.66 1259.96 -786.079 1262.78 -784.047 1265.19C-753.568 1301.3 -734.568 1336.56 -714.454 1373.88C-691.849 1415.82 -668.471 1459.19 -628.127 1503.58C-587.784 1547.96 -548.36 1573.68 -510.238 1598.55C-475.828 1621 -443.322 1642.2 -410.009 1676.6C-405.614 1681.14 -399.758 1683.58 -393.732 1683.37C-387.705 1683.16 -382 1680.32 -377.872 1675.48C-373.745 1670.64 -371.532 1664.2 -371.722 1657.56C-371.911 1650.93 -374.487 1644.65 -378.883 1640.1C-415.837 1601.96 -452.034 1578.34 -487.04 1555.51C-524.387 1531.15 -559.667 1508.13 -595.966 1468.2C-632.265 1428.27 -653.183 1389.45 -675.329 1348.36C-695.78 1310.41 -716.927 1271.18 -750.721 1231.14C-754.826 1226.28 -760.517 1223.41 -766.543 1223.17C-772.569 1222.92 -778.437 1225.32 -782.858 1229.83V1229.83Z" fill="#A8B999"/>
</svg>
