<svg id="Logo" xmlns="http://www.w3.org/2000/svg" width="319" height="100" viewBox="0 0 638 200">
  <defs>
    <style>
      .cls-1, .cls-2 {
        fill: #fff;
        fill-rule: evenodd;
      }

      .cls-1 {
        opacity: 0.4;
      }
    </style>
  </defs>
  <path id="Architecture" class="cls-1" d="M13.1,199.3l2.35-7.3h12.1l2.35,7.3a0.721,0.721,0,0,0,.7.7h2.55q0.649,0,.45-0.7l-9.35-30.75a0.894,0.894,0,0,0-.95-0.7H19.7a0.894,0.894,0,0,0-.95.7L9.4,199.3q-0.2.7,0.45,0.7h2.5a0.789,0.789,0,0,0,.75-0.7h0Zm8.5-27.7,5.15,17.3H16.25l5.15-17.3h0.2Zm51,27.7V187.65a0.421,0.421,0,0,1,.5-0.45h6.6l5.6,12.1a1.338,1.338,0,0,0,1.25.7H88.8q0.949,0,.5-0.8l-5.8-12.15v-0.2a6.432,6.432,0,0,0,3.75-2.425A7.567,7.567,0,0,0,88.6,179.8v-4.55a7.281,7.281,0,0,0-2-5.425,7.421,7.421,0,0,0-5.45-1.975H69.65a0.619,0.619,0,0,0-.7.7V199.3a0.618,0.618,0,0,0,.7.7H71.9a0.619,0.619,0,0,0,.7-0.7h0Zm0-15.6V171.5a0.421,0.421,0,0,1,.5-0.45h7.55q4.3,0,4.3,4.35v4.45q0,4.3-4.3,4.3H73.1a0.421,0.421,0,0,1-.5-0.45h0Zm71.524,14.35a7.315,7.315,0,0,0,1.975-5.45v-2.45a0.619,0.619,0,0,0-.7-0.7h-2.25a0.619,0.619,0,0,0-.7.7v2.3q0,4.35-4.2,4.35H133.1q-4.15,0-4.15-4.35V175.4q0-4.35,4.15-4.35h5.15q4.2,0,4.2,4.35v2.3a0.618,0.618,0,0,0,.7.7h2.25a0.619,0.619,0,0,0,.7-0.7v-2.45a6.8,6.8,0,0,0-7.4-7.4h-6a6.8,6.8,0,0,0-7.4,7.4V192.6a6.8,6.8,0,0,0,7.4,7.4h6A7.385,7.385,0,0,0,144.124,198.05ZM186.5,199.3V185.8a0.421,0.421,0,0,1,.5-0.45h12.4a0.421,0.421,0,0,1,.5.45v13.5a0.618,0.618,0,0,0,.7.7h2.25a0.618,0.618,0,0,0,.7-0.7V168.55a0.619,0.619,0,0,0-.7-0.7H200.6a0.619,0.619,0,0,0-.7.7V181.7a0.421,0.421,0,0,1-.5.45H187a0.421,0.421,0,0,1-.5-0.45V168.55a0.619,0.619,0,0,0-.7-0.7h-2.25a0.619,0.619,0,0,0-.7.7V199.3a0.618,0.618,0,0,0,.7.7h2.25a0.618,0.618,0,0,0,.7-0.7h0Zm58.15-31.45H242.4a0.619,0.619,0,0,0-.7.7V199.3a0.618,0.618,0,0,0,.7.7h2.25a0.619,0.619,0,0,0,.7-0.7V168.55a0.619,0.619,0,0,0-.7-0.7h0Zm47.4,31.45V171.5a0.421,0.421,0,0,1,.5-0.45h6.8a0.642,0.642,0,0,0,.75-0.7v-1.8a0.642,0.642,0,0,0-.75-0.7H281.1a0.642,0.642,0,0,0-.75.7v1.8a0.642,0.642,0,0,0,.75.7h6.8a0.422,0.422,0,0,1,.5.45v27.8a0.618,0.618,0,0,0,.7.7h2.25a0.619,0.619,0,0,0,.7-0.7h0Zm59.9,0v-1.8a0.619,0.619,0,0,0-.7-0.7H339a0.421,0.421,0,0,1-.5-0.45V185.7a0.421,0.421,0,0,1,.5-0.45h10.7a0.619,0.619,0,0,0,.7-0.7v-1.8a0.619,0.619,0,0,0-.7-0.7H339a0.421,0.421,0,0,1-.5-0.45V171.5a0.421,0.421,0,0,1,.5-0.45h12.25a0.619,0.619,0,0,0,.7-0.7v-1.8a0.619,0.619,0,0,0-.7-0.7h-15.7a0.619,0.619,0,0,0-.7.7V199.3a0.618,0.618,0,0,0,.7.7h15.7a0.619,0.619,0,0,0,.7-0.7h0Zm55.225-1.25a7.315,7.315,0,0,0,1.975-5.45v-2.45a0.619,0.619,0,0,0-.7-0.7H406.2a0.619,0.619,0,0,0-.7.7v2.3q0,4.35-4.2,4.35h-5.15q-4.151,0-4.15-4.35V175.4q0-4.35,4.15-4.35h5.15q4.2,0,4.2,4.35v2.3a0.618,0.618,0,0,0,.7.7h2.25a0.619,0.619,0,0,0,.7-0.7v-2.45a6.8,6.8,0,0,0-7.4-7.4h-6a6.8,6.8,0,0,0-7.4,7.4V192.6a6.8,6.8,0,0,0,7.4,7.4h6A7.385,7.385,0,0,0,407.172,198.05Zm47.274,1.25V171.5a0.421,0.421,0,0,1,.5-0.45h6.8a0.642,0.642,0,0,0,.75-0.7v-1.8a0.642,0.642,0,0,0-.75-0.7H443.5a0.642,0.642,0,0,0-.75.7v1.8a0.642,0.642,0,0,0,.75.7h6.8a0.421,0.421,0,0,1,.5.45v27.8a0.618,0.618,0,0,0,.7.7h2.25a0.619,0.619,0,0,0,.7-0.7h0ZM513.7,168.55v23.9q0,4.35-4.2,4.35h-4.7q-4.151,0-4.15-4.35v-23.9a0.619,0.619,0,0,0-.7-0.7H497.7a0.619,0.619,0,0,0-.7.7V192.6a7.311,7.311,0,0,0,1.975,5.45A7.385,7.385,0,0,0,504.4,200h5.55a6.763,6.763,0,0,0,7.35-7.4V168.5a0.6,0.6,0,0,0-.7-0.65h-2.25a0.6,0.6,0,0,0-.65.7h0Zm44.9,30.75V187.65a0.421,0.421,0,0,1,.5-0.45h6.6l5.6,12.1a1.336,1.336,0,0,0,1.25.7h2.25c0.632,0,.8-0.266.5-0.8l-5.8-12.15v-0.2a6.432,6.432,0,0,0,3.75-2.425,7.567,7.567,0,0,0,1.35-4.625v-4.55a7.284,7.284,0,0,0-2-5.425,7.421,7.421,0,0,0-5.45-1.975h-11.5a0.618,0.618,0,0,0-.7.7V199.3a0.618,0.618,0,0,0,.7.7h2.25a0.619,0.619,0,0,0,.7-0.7h0Zm0-15.6V171.5a0.421,0.421,0,0,1,.5-0.45h7.55q4.3,0,4.3,4.35v4.45q0,4.3-4.3,4.3H559.1a0.421,0.421,0,0,1-.5-0.45h0Zm70.3,15.6v-1.8a0.619,0.619,0,0,0-.7-0.7h-12.25a0.421,0.421,0,0,1-.5-0.45V185.7a0.421,0.421,0,0,1,.5-0.45h10.7a0.619,0.619,0,0,0,.7-0.7v-1.8a0.619,0.619,0,0,0-.7-0.7h-10.7a0.421,0.421,0,0,1-.5-0.45V171.5a0.421,0.421,0,0,1,.5-0.45h12.25a0.619,0.619,0,0,0,.7-0.7v-1.8a0.619,0.619,0,0,0-.7-0.7h-15.7a0.619,0.619,0,0,0-.7.7V199.3a0.618,0.618,0,0,0,.7.7h15.7a0.619,0.619,0,0,0,.7-0.7h0Z"/>
  <path id="Lodiz" class="cls-2" d="M23.764,30.84V101.4a44.746,44.746,0,0,1-.746,9.27,8.628,8.628,0,0,1-2.876,5.04,14.322,14.322,0,0,1-6.179,2.52q-4.05.81-10.653,1.53a3.128,3.128,0,0,0-2.237,1.17A3.382,3.382,0,0,0,.327,123a3.02,3.02,0,0,0,.746,1.98,2.738,2.738,0,0,0,2.237.9q7.456-.362,15.128-0.81t15.98-.45h77.344q3.2,0,4.048-.99a2.843,2.843,0,0,0,.852-1.53,83.5,83.5,0,0,1,.64-13.41q0.849-6.568,1.917-14.13a1.265,1.265,0,0,0-.959-1.44,6.3,6.3,0,0,0-2.663-.54,10.222,10.222,0,0,0-2.77.36,1.859,1.859,0,0,0-1.491,1.44,43.142,43.142,0,0,1-2.237,8.91,18.948,18.948,0,0,1-3.516,5.85,16.255,16.255,0,0,1-5.22,3.78,52.952,52.952,0,0,1-7.351,2.7,33.8,33.8,0,0,1-6.818,1.08q-4.474.363-9.588,0.36-4.05,0-7.777-.27a63.731,63.731,0,0,1-6.712-.81,37.542,37.542,0,0,1-7.457-2.52,11.325,11.325,0,0,1-4.687-4.05,16.66,16.66,0,0,1-2.344-6.48,60.555,60.555,0,0,1-.639-9.63V30.66a65.255,65.255,0,0,1,.639-10.08,12.474,12.474,0,0,1,2.77-6.39,12.643,12.643,0,0,1,6.179-3.6A49.371,49.371,0,0,1,67.23,9.06a1.947,1.947,0,0,0,1.7-.99A4.636,4.636,0,0,0,69.68,6a3.2,3.2,0,0,0-.426-1.98,1.936,1.936,0,0,0-1.811-.9q-4.474,0-8.31.18l-7.564.36q-3.73.181-7.67,0.36t-8.416.18q-7.67,0-16.406-.54T3.523,3.12a2.2,2.2,0,0,0-1.918.9A3.349,3.349,0,0,0,.966,6a3.755,3.755,0,0,0,.639,2.07,2.129,2.129,0,0,0,1.918.99A40.418,40.418,0,0,1,14.07,10.77a13.442,13.442,0,0,1,6.072,3.87,13.839,13.839,0,0,1,2.877,6.48,52.53,52.53,0,0,1,.746,9.54v0.18Zm208.592,91.35a66.713,66.713,0,0,0,22.691-12.42,58.906,58.906,0,0,0,15.341-20.16q5.643-11.969,5.646-27.63a60.628,60.628,0,0,0-5.22-25.47,56.56,56.56,0,0,0-14.6-19.53A66.5,66.5,0,0,0,233.847,4.47a94.871,94.871,0,0,0-57.741.18,67.966,67.966,0,0,0-22.692,12.87,58.67,58.67,0,0,0-14.808,19.8,59.305,59.305,0,0,0-5.327,25.2q0,31.86,18.963,47.88t52.415,16.02A89,89,0,0,0,232.356,122.19Zm-48.686-8.01a37.922,37.922,0,0,1-13.743-12.33,50.182,50.182,0,0,1-7.244-17.73,100.6,100.6,0,0,1-2.131-20.88,81.335,81.335,0,0,1,2.557-20.25,56.092,56.092,0,0,1,7.883-17.82,41.388,41.388,0,0,1,13.743-12.69q8.415-4.86,19.922-4.86,12.354,0,20.88,4.77a38.378,38.378,0,0,1,13.637,12.6,53.736,53.736,0,0,1,7.351,17.91,94.474,94.474,0,0,1,2.237,20.52,74.75,74.75,0,0,1-2.877,20.79,56.378,56.378,0,0,1-8.416,17.64,44.027,44.027,0,0,1-13.53,12.33,35.77,35.77,0,0,1-18.43,4.68Q192.3,118.86,183.67,114.18ZM313.534,103.2a22.241,22.241,0,0,1-1.065,7.56,10.257,10.257,0,0,1-3.409,4.68,17.077,17.077,0,0,1-5.966,2.79,55.816,55.816,0,0,1-8.736,1.53,3.2,3.2,0,0,0-2.45,1.26,2.757,2.757,0,0,0-.533,2.16,4.362,4.362,0,0,0,.959,1.98,2.08,2.08,0,0,0,2.024.72q4.26-.362,7.777-0.72t6.925-.54q3.4-.177,7.031-0.27t8.1-.09q7.24,0,16.3.72t18.644,0.72a116.923,116.923,0,0,0,29.723-3.6,68.126,68.126,0,0,0,23.757-11.07A53.528,53.528,0,0,0,428.378,92.4q5.753-11.159,5.752-26.28a53.749,53.749,0,0,0-6.072-25.29,61.411,61.411,0,0,0-16.726-19.98A79.648,79.648,0,0,0,385.871,7.8a106.686,106.686,0,0,0-32.28-4.68q-8.739.181-17.259,0.45t-17.258.27q-7.671,0-13.423-.36t-13-.36a2.2,2.2,0,0,0-1.918.9,3.387,3.387,0,0,0,0,3.96,2.192,2.192,0,0,0,1.918.9q2.341,0.181,4.9.54t4.9,0.9a11.955,11.955,0,0,1,6.072,3.24,14.547,14.547,0,0,1,3.3,5.58,30.76,30.76,0,0,1,1.385,7.02q0.32,3.78.319,7.74v69.3Zm23.225-85.5q0-3.6,1.7-4.86t5.966-1.26q17.469,0,29.51,3.51t19.282,10.44a39.689,39.689,0,0,1,10.441,17.1,77.8,77.8,0,0,1,3.2,23.31,69.093,69.093,0,0,1-3.2,21.96,46.553,46.553,0,0,1-8.949,16.11A37.792,37.792,0,0,1,380.97,114a44.2,44.2,0,0,1-17.578,3.42,95.141,95.141,0,0,1-13.956-.81,14.25,14.25,0,0,1-7.99-3.51q-2.772-2.7-3.729-8.01a84.262,84.262,0,0,1-.958-14.31V17.7Zm133.167,83.52a44.742,44.742,0,0,1-.746,9.27,8.8,8.8,0,0,1-2.983,5.13,14.365,14.365,0,0,1-6.179,2.61,92.106,92.106,0,0,1-10.547,1.35,2.6,2.6,0,0,0-1.917,1.17,3.756,3.756,0,0,0-.64,2.07,3.337,3.337,0,0,0,.64,1.98,2.2,2.2,0,0,0,1.917.9q7.032,0,15.661-.72t16.725-.72q7.671,0,15.448.72t16.3,0.72a2.75,2.75,0,0,0,2.238-.9,3.037,3.037,0,0,0,.745-1.98,3.4,3.4,0,0,0-.745-2.07,2.962,2.962,0,0,0-2.024-1.17,96.349,96.349,0,0,1-10.441-1.35,14.447,14.447,0,0,1-6.285-2.61,9.272,9.272,0,0,1-3.09-5.13,39.2,39.2,0,0,1-.852-9.27V30.66a65.271,65.271,0,0,1,.639-10.08,12.468,12.468,0,0,1,2.77-6.39,12.642,12.642,0,0,1,6.179-3.6,49.376,49.376,0,0,1,10.653-1.53,1.948,1.948,0,0,0,1.705-.99A4.647,4.647,0,0,0,515.842,6a3.208,3.208,0,0,0-.427-1.98,1.935,1.935,0,0,0-1.811-.9q-4.475,0-8.309.18l-7.564.36q-3.73.181-7.671,0.36t-8.416.18q-7.669,0-16.406-.54t-15.554-.54a2.2,2.2,0,0,0-1.917.9,3.344,3.344,0,0,0-.64,1.98,3.749,3.749,0,0,0,.64,2.07,2.128,2.128,0,0,0,1.917.99,40.421,40.421,0,0,1,10.547,1.71,13.436,13.436,0,0,1,6.072,3.87,13.839,13.839,0,0,1,2.877,6.48,52.527,52.527,0,0,1,.746,9.54v70.56ZM636.651,88.71a5.559,5.559,0,0,0-2.664-.63,8.657,8.657,0,0,0-2.663.45,2.113,2.113,0,0,0-1.6,1.71,71.517,71.517,0,0,1-5.433,14.49,20.422,20.422,0,0,1-7.351,8.01,26.866,26.866,0,0,1-11.08,3.42,160.357,160.357,0,0,1-16.832.72H560.266a1.963,1.963,0,0,1-2.131-1.35,3.014,3.014,0,0,1,.639-2.79l73.083-102.6q1.7-2.519.639-4.23a3.722,3.722,0,0,0-3.409-1.71H537.894q-3.411,0-4.261.99a2.963,2.963,0,0,0-.853,1.89,84.424,84.424,0,0,1-.213,13.32q-0.639,7.02-1.7,13.86a1.38,1.38,0,0,0,.852,1.62,5.1,5.1,0,0,0,2.344.54,10.129,10.129,0,0,0,2.77-.36,1.846,1.846,0,0,0,1.491-1.26,45.3,45.3,0,0,1,5.007-11.25,22.132,22.132,0,0,1,7.244-7.02,29.53,29.53,0,0,1,10.547-3.6,94.59,94.59,0,0,1,14.7-.99h25.355a2.092,2.092,0,0,1,2.024.99,1.955,1.955,0,0,1-.533,2.25L528.093,120.12q-1.279,1.983-.32,3.24a3.153,3.153,0,0,0,2.664,1.26H631.643q2.557,0,2.983-1.98a18.825,18.825,0,0,0,.427-3.96q0.209-7.919.745-14.76a128.5,128.5,0,0,1,1.811-13.68A1.389,1.389,0,0,0,636.651,88.71Z"/>
</svg>
