<?xml version="1.0" encoding="UTF-8"?>
<svg width="106px" height="35px" viewBox="0 0 106 35" version="1.1" xmlns="http://www.w3.org/2000/svg" xmlns:xlink="http://www.w3.org/1999/xlink">
    <!-- Generator: Sketch 63.1 (92452) - https://sketch.com -->
    <title>Branding/Logo/Light</title>
    <desc>Created with Sketch.</desc>
    <g id="Layouts" stroke="none" stroke-width="1" fill="none" fill-rule="evenodd">
        <g id="Home" transform="translate(-373.000000, -23.000000)">
            <g id="Hero">
                <g id="Heder">
                    <g id="Branding/Logo/Light" transform="translate(373.000000, 23.000000)">
                        <g id="Branding/Embleme/Color" fill="#D25C33" fill-rule="evenodd">
                            <path d="M41.5235131,21.4282749 C39.3054075,21.7982292 36.9064321,21.5373898 34.7676612,21.1999685 C32.2619267,20.8035272 30.1045465,20.3235944 28.1766818,19.7270611 C32.6308492,18.912298 37.4911578,19.5350304 41.5235131,21.4282749 Z M25.1027955,27.7086952 C26.855516,29.1875786 27.9401283,30.9757976 28.1766818,32.7681159 C24.2459027,30.4375346 20.963928,27.0966457 17.795813,23.8405797 C18.2460171,23.9931979 18.6998202,24.1782949 19.1572223,24.3719056 C21.5567839,25.3882043 23.4865105,26.3445909 25.1027955,27.7086952 Z M15.977832,17.4173543 C16.1302783,16.7814482 16.2817658,16.1458554 16.4466763,15.515588 C17.061575,13.1630488 18.0436873,10.2165797 20.1967917,8.2953916 C20.2325862,8.26343967 20.2629477,8.23837934 20.2865976,8.2173913 C20.3191962,8.27440357 20.3581867,8.35584967 20.3952596,8.46486213 C20.8599492,9.84599996 20.8823207,11.4407772 20.464931,13.6382555 C20.03284,15.9171799 19.386621,17.6009213 18.4294372,18.9382035 C17.4744904,20.2732929 16.1964342,21.2136821 14.8298505,21.6086957 C15.3057259,20.2263048 15.6444955,18.8063235 15.977832,17.4173543 Z M30.2713558,4.99457608 C30.7192025,3.86583951 31.3122795,2.66604826 32.3221738,2.32517357 C32.4207001,2.29230686 32.4894766,2.28354241 32.5006727,2.26570048 C32.5195463,2.30983577 32.5534547,2.41532225 32.575847,2.65039744 C33.0041804,7.04326738 30.6238752,13.2397369 27.1453859,16.8341024 C26.9947175,16.9377108 26.8453286,17.0450754 26.6937005,17.1449275 C27.6578505,13.0556834 28.7176477,8.9110353 30.2713558,4.99457608 Z M43.1943698,7.41049845 C43.8217527,7.11422055 44.5249205,6.82329518 45.2309662,6.7294686 C44.8795422,7.68694052 43.9870723,8.63622624 42.5276554,9.60818146 C40.762861,10.7841623 38.2984162,11.8663165 35.591588,12.6811594 C37.9233295,10.6472006 40.3877742,8.73477563 43.1943698,7.41049845 Z M32.34108,15.0254872 C34.3362739,14.6130529 39.3380721,13.3868538 43.1080772,10.8370578 C45.4783027,9.23395721 46.6576995,7.55439763 46.7139474,5.70193289 C46.7259737,5.27078037 46.4160407,4.89895494 45.9898828,4.83074465 C44.5307206,4.60263673 43.130306,5.15625053 42.0699921,5.66291026 C38.2421921,7.4953878 35.1076133,10.3005759 32.0997387,13.0743555 C33.7516563,9.66288893 34.6389031,5.83327737 34.3404021,2.70131438 C34.3080115,2.36946336 34.2241772,1.48812288 33.4852282,1.02365835 C33.02795,0.739713165 32.4560347,0.69846973 31.8263244,0.916742678 C30.1604344,1.48939191 29.3363809,3.10994164 28.7501756,4.62040313 C26.9686958,9.20635583 25.8315337,14.0400864 24.7616932,18.7462796 C24.5495669,18.7868885 24.3637976,18.9042737 24.2336003,19.0873311 C22.1463157,20.1786958 20.087611,20.9331334 18.2756459,21.4591458 C18.8621688,20.9588312 19.404234,20.3772988 19.8732618,19.7088379 C20.9691418,18.147298 21.7017396,16.227892 22.1764834,13.6717508 C22.4686333,12.1045003 22.7731679,9.76853557 22.0494616,7.58104724 C21.7439744,6.66195316 21.1511004,6.11849159 20.4229483,6.09184198 C19.8364255,6.04710872 19.3858159,6.39577437 19.0727073,6.68320939 C16.5989591,8.93319739 15.511653,12.2212509 14.8416134,14.8344984 C14.6755325,15.4848756 14.5218362,16.1400117 14.3678223,16.7948306 C13.8772009,18.8817484 13.3967412,20.8547709 12.5387094,22.6831241 C8.45654842,23.2789331 4.43504035,23.362689 0.864141882,23.3255699 C0.406863643,23.2878163 0.00452230382,23.7008851 3.79394963e-05,24.1732811 C-0.00436921749,24.6453598 0.375743319,25.0320963 0.848264165,25.0362206 C1.29760355,25.0409795 1.75392912,25.0432003 2.21660578,25.0432003 C5.60522807,25.0432003 9.33331593,24.9026554 13.1226918,24.3252473 C13.1233269,24.3252473 13.123962,24.3258818 13.1245971,24.3258818 C13.12682,24.3258818 13.1287253,24.3239783 13.1309482,24.3239783 C13.866404,24.2119865 14.6028125,24.0828628 15.3408088,23.9350209 C15.6942468,24.3097017 16.0476847,24.6850169 16.4014403,25.0619185 C19.661453,28.537471 23.0329274,32.130726 27.209402,34.6478445 C27.3799286,34.7506358 27.7946546,35 28.2830532,35 C28.4859704,35 28.7031776,34.9565358 28.9194321,34.8407369 C29.2293651,34.6722733 29.734594,34.2312858 29.6444086,33.1675225 C29.442444,30.8407582 28.1693687,28.5419126 26.0576324,26.6948412 C24.2224859,25.0898371 21.9881736,23.9994241 19.8475399,23.0593911 C19.7122617,22.9997467 19.576666,22.9454958 19.4417054,22.8877549 C21.4454733,22.262441 23.323172,21.4899198 25.0573363,20.5781226 C27.6733489,21.7897278 30.6469276,22.6751926 34.3658064,23.3411155 C35.8154419,23.6006319 37.3816199,23.8201738 38.9605,23.8201738 C40.5536701,23.8201738 42.1592248,23.5961903 43.671101,22.9623104 C43.9610281,22.8408009 44.1614049,22.5701805 44.1915726,22.2586339 C44.2226929,21.9455011 44.080111,21.6412514 43.8190813,21.465491 C39.4447704,18.5102402 34.0133211,17.3557413 28.8533808,18.1879069 C30.1391582,17.2250313 31.306488,16.1698339 32.34108,15.0254872 L32.34108,15.0254872 Z" id="Fill-4402"></path>
                        </g>
                        <text id="N&amp;B" font-family="RedRose-Regular, Red Rose" font-size="23.3333333" font-weight="normal" line-spacing="27.2222222" letter-spacing="0.777777778" fill="#30221F">
                            <tspan x="50.6071429" y="25.8888889">N&amp;B</tspan>
                        </text>
                    </g>
                </g>
            </g>
        </g>
    </g>
</svg>