<svg width="86" height="135" viewBox="0 0 86 135" fill="none" xmlns="http://www.w3.org/2000/svg">
<path d="M53.6 135C38.9836 131.503 24.3672 128.006 9.82081 124.229C8.07633 123.931 6.42119 123.246 4.97771 122.225C3.53422 121.203 2.33928 119.871 1.4812 118.327C0.623131 116.782 0.12385 115.065 0.0202549 113.303C-0.0833402 111.54 0.211394 109.776 0.882688 108.143C6.70123 88.2094 11.959 68.2063 20.3713 49.462C24.6125 39.95 35.0929 33.2707 42.629 25.1925C47.7869 18.8505 53.3234 12.8247 59.2083 7.14763C63.5196 3.65058 70.2144 -0.895594 74.7361 0.153523C82.7629 1.86708 86.8639 9.071 85.8474 18.1633C83.9546 35.2989 82.3422 52.4695 80.5195 69.5701C78.9773 84.1528 77.0144 98.6656 75.6124 113.213C73.8949 129.894 70.7402 132.972 53.6 135Z" fill="#A2ACB7"/>
</svg>
