<?xml version="1.0" encoding="UTF-8"?>
<svg width="1921px" height="600px" viewBox="0 0 1921 600" version="1.1" xmlns="http://www.w3.org/2000/svg" xmlns:xlink="http://www.w3.org/1999/xlink">
    <!-- Generator: Sketch 63.1 (92452) - https://sketch.com -->
    <title>Group</title>
    <desc>Created with Sketch.</desc>
    <g id="Page-1" stroke="none" stroke-width="1" fill="none" fill-rule="evenodd">
        <g id="Group">
            <polygon id="Mask" fill="#03056B" points="0 0 1920 0 1920 600 0 600"></polygon>
            <path d="M686.638964,512.066982 C853.907951,464.103371 1019.67041,503.304787 1108.1786,599.993761 L512.498793,599.995466 C560.98213,561.844304 620.049083,531.161323 686.638964,512.066982 Z" id="Combined-Shape" fill="#7703EF"></path>
            <path d="M1108.01028,305.883338 C1416.32147,205.706959 1727.23482,254.689714 1920.00414,410.364571 L1920,600 L657.277373,599.995091 C765.107943,472.617893 920.781126,366.717777 1108.01028,305.883338 Z" id="Combined-Shape" fill="#21C9F2"></path>
            <path d="M1002.46884,599.988158 C1163.72959,415.906299 1478.2225,356.576598 1779.6773,472.294252 C1829.52937,491.430668 1876.44318,514.363221 1920.01212,540.419711 L1920,600 Z" id="Combined-Shape" fill="#7703EF"></path>
        </g>
    </g>
</svg>