<svg width="140" height="160" viewBox="0 0 140 160" fill="none" xmlns="http://www.w3.org/2000/svg">
<path d="M114.163 156.24C111.699 153.407 108.742 149.26 105.096 148.046C104.011 147.642 102.73 148.957 103.124 150.069C104.406 153.812 108.348 156.847 111.108 159.375C113.177 161.297 115.937 158.364 114.163 156.24Z" fill="#4897BE"/>
<path d="M101.055 141.674C100.069 140.763 99.8721 139.347 99.3793 138.133C98.8865 136.717 98.3937 135.605 97.4082 134.492C95.8313 132.772 92.8745 134.998 94.1558 137.021C95.6341 139.448 96.9154 142.483 99.4779 143.697C100.661 144.405 102.139 142.786 101.055 141.674Z" fill="#4897BE"/>
<path d="M91.3962 128.423C91.002 128.625 90.6078 128.827 90.115 129.03C90.7063 129.03 91.1991 129.03 91.7904 129.03C89.6222 127.411 88.4395 124.984 86.0741 123.669C84.5958 122.859 83.1174 124.478 83.9059 125.894C85.2857 128.726 87.5525 131.154 90.6078 132.165C91.1991 132.368 91.7904 132.064 92.2832 131.66C92.5789 131.356 92.9731 131.053 93.2688 130.749C94.55 129.637 92.8746 127.715 91.3962 128.423Z" fill="#4897BE"/>
<path d="M80.6535 115.88C80.2593 115.273 79.9636 114.666 79.5694 114.059C79.1751 113.452 78.5838 112.845 77.9924 112.238C77.0069 111.227 76.0213 110.215 74.7401 109.608C73.2617 108.9 71.8819 110.316 72.5718 111.834C73.1632 113.149 74.0502 114.16 75.1343 115.172C75.6271 115.678 76.1199 116.082 76.6127 116.588C77.3026 117.094 77.9925 117.397 78.6824 117.903C80.0621 119.218 81.8362 117.397 80.6535 115.88Z" fill="#4897BE"/>
<path d="M63.9974 98.5828C62.8147 96.7621 61.8292 95.1437 60.3508 93.5252C59.6609 92.8172 59.0696 92.0079 58.1826 91.5022C57.4927 90.9964 56.6057 91.0976 56.0143 90.8953C55.0287 90.4906 53.8461 91.7045 54.2403 92.716C54.4374 93.2218 54.3389 94.031 54.6345 94.6379C55.1273 95.6494 56.0143 96.3575 56.8028 97.0656C58.2811 98.5828 59.9566 99.5944 61.7306 100.808C63.0118 101.82 64.8844 99.999 63.9974 98.5828Z" fill="#4897BE"/>
<path d="M48.524 83.41C47.9326 82.6008 47.637 81.4881 47.0456 80.6789C46.3557 79.8696 45.6658 79.0604 44.9759 78.2512C43.4976 76.5316 42.2164 75.4189 40.0481 74.7109C39.0625 74.4074 38.077 75.4189 38.3726 76.4305C39.0625 78.5547 40.1467 79.8696 41.8221 81.4881C42.6106 82.1961 43.399 83.0054 44.1875 83.6123C44.9759 84.2192 46.0601 84.5226 46.8485 85.1296C48.1298 86.0399 49.5096 84.6238 48.524 83.41Z" fill="#4897BE"/>
<path d="M31.2766 64.0898C28.8126 59.3357 26.1516 54.7838 21.3223 52.3561C19.7454 51.5469 18.1685 53.1654 18.957 54.7838C21.3223 59.7403 25.7574 62.4714 30.3895 65.0002C30.8823 65.3037 31.5722 64.5956 31.2766 64.0898Z" fill="#4897BE"/>
<path d="M15.5075 47.6019C14.8176 46.4892 14.4233 45.4777 13.6349 44.5673C12.8464 43.5558 12.058 42.6454 10.9739 42.1397C9.69261 41.4316 8.41137 42.8477 9.00271 44.1627C9.59405 45.2754 10.4811 46.0846 11.3681 46.8938C12.3536 47.7031 13.3392 48.1077 14.3248 48.8157C15.0147 49.2203 15.9017 48.31 15.5075 47.6019Z" fill="#4897BE"/>
<path d="M5.45465 34.1486C4.27197 32.8336 3.08929 31.0129 1.31526 30.6083C0.52681 30.406 -0.163091 31.1141 0.0340228 31.9233C0.42825 33.744 2.20227 34.9578 3.48351 36.1717C4.86331 37.4867 6.73589 35.5648 5.45465 34.1486Z" fill="#4897BE"/>
<path d="M122.343 148.754C121.949 148.957 121.555 149.159 121.16 149.361C121.555 149.462 122.047 149.462 122.442 149.564C120.175 147.136 118.499 143.494 115.148 142.382C114.163 142.078 113.177 143.09 113.473 144.101C114.163 146.529 116.035 148.451 118.007 149.968C118.992 150.676 119.879 151.182 121.062 151.384C122.146 151.587 122.54 150.98 123.427 150.272C124.413 149.665 123.329 148.249 122.343 148.754Z" fill="#4897BE"/>
<path d="M111.108 136.009C110.516 135.301 110.319 133.986 109.925 133.177C109.531 132.064 109.136 131.053 108.348 130.243C107.165 129.03 105.096 130.243 105.588 131.862C105.884 132.975 106.377 134.391 106.968 135.503C107.658 136.717 108.545 137.223 109.826 137.83C110.91 138.235 111.896 136.92 111.108 136.009Z" fill="#4897BE"/>
<path d="M98.5908 121.14C95.9298 116.487 92.4803 113.149 88.1438 110.114C87.3553 109.507 86.1727 110.721 86.764 111.53C89.7207 115.981 92.9731 119.622 97.5067 122.252C98.098 122.758 98.985 121.949 98.5908 121.14Z" fill="#4897BE"/>
<path d="M78.3867 97.5713C77.4011 96.1552 76.317 95.0425 74.8386 94.031C73.6559 93.2217 71.9805 92.0079 70.5021 92.1091C69.7137 92.2102 69.0238 92.9183 69.2209 93.8287C69.6151 95.3459 71.0935 96.1552 72.4733 96.8632C73.9516 97.6724 75.43 98.3805 76.7112 99.2909C77.6968 100.1 79.1751 98.684 78.3867 97.5713Z" fill="#4897BE"/>
<path d="M61.2378 80.1729C59.9566 78.251 58.5768 75.0142 56.0143 74.6095C54.8316 74.4072 54.0432 75.3176 54.2403 76.4303C54.6345 79.0603 57.7883 80.3752 59.6609 81.7914C60.6465 82.3983 61.9277 81.0833 61.2378 80.1729Z" fill="#4897BE"/>
<path d="M51.9735 68.5405C50.9879 66.9221 49.8052 65.1013 48.0312 64.5956C47.3413 64.3933 46.75 65.1013 46.9471 65.7083C47.4399 67.6301 49.3124 68.7428 50.7908 69.7544C51.4807 70.3613 52.4663 69.3497 51.9735 68.5405Z" fill="#4897BE"/>
<path d="M35.8102 52.1539C34.8246 50.9401 33.7405 49.8274 32.4592 48.7147C31.2765 47.7032 29.9953 46.4894 28.4184 46.2871C27.6299 46.1859 26.6444 47.0963 26.7429 48.0067C27.1372 52.0528 32.1636 52.3562 35.0217 53.4689C35.8102 53.7723 36.2044 52.6597 35.8102 52.1539Z" fill="#4897BE"/>
<path d="M23.2934 39.2062C23.0963 38.9028 22.8992 38.2959 22.7021 37.9924C22.3079 37.3855 21.7165 36.7786 21.2237 36.1716C20.4353 35.2613 19.5483 34.4521 18.4641 34.0475C17.7743 33.744 16.8872 34.6544 17.1829 35.3624C17.5771 36.5763 18.3656 37.3855 19.2526 38.1947C19.7454 38.5993 20.2382 39.1051 20.731 39.5097C21.1252 39.8131 21.8151 40.0154 22.2093 40.3189C22.8992 41.1281 23.9833 40.1166 23.2934 39.2062Z" fill="#4897BE"/>
<path d="M16.493 30.1026C14.9161 27.7761 13.3392 24.6403 10.8753 23.3253C9.59401 22.6173 8.31277 24.0334 8.90411 25.3484C10.1854 27.8772 13.2406 29.4956 15.5074 31.1141C16.0988 31.5187 16.8872 30.7095 16.493 30.1026Z" fill="#4897BE"/>
<path d="M128.454 136.818C127.271 135.402 125.99 133.986 124.61 132.671C123.526 131.558 122.343 130.142 120.766 129.839C119.978 129.637 119.288 130.345 119.485 131.154C119.781 132.772 121.16 133.885 122.244 135.099C123.526 136.414 124.906 137.729 126.285 139.044C127.764 140.359 129.735 138.336 128.454 136.818Z" fill="#4897BE"/>
<path d="M115.74 119.926C114.656 118.409 113.473 116.992 111.995 115.981C111.108 115.374 109.925 116.588 110.516 117.498C111.502 119.117 112.882 120.229 114.36 121.342C115.148 121.949 116.331 120.735 115.74 119.926Z" fill="#4897BE"/>
<path d="M103.124 104.854C102.04 103.438 101.252 102.528 99.6749 101.617C98.098 100.808 96.324 99.999 95.0428 98.7851C94.2543 98.0771 93.1702 98.9874 93.5644 99.8978C95.1413 103.539 98.985 104.045 101.942 106.068C102.632 106.473 103.617 105.562 103.124 104.854Z" fill="#4897BE"/>
<path d="M91.5933 92.9184C90.5092 91.5022 89.7207 88.9734 87.5525 89.1757C87.0597 89.1757 86.6655 89.5803 86.6655 90.0861C86.4684 92.3114 88.9323 93.1207 90.3121 94.2333C91.2976 94.9414 92.2832 93.8287 91.5933 92.9184Z" fill="#4897BE"/>
<path d="M81.9347 82.3983C80.8506 80.6787 79.6679 78.9591 77.5982 78.5545C76.8098 78.3522 76.2184 79.0603 76.317 79.8695C76.8098 81.9937 78.3867 83.2075 80.0621 84.3202C81.1462 84.9271 82.6246 83.511 81.9347 82.3983Z" fill="#4897BE"/>
<path d="M72.5718 70.4624C71.6848 69.3497 70.8964 68.1359 69.418 68.0348C68.9252 68.0348 68.4325 68.5405 68.4325 69.0463C68.4325 70.6647 69.6151 71.3728 70.7978 72.2832C71.9805 73.3958 73.656 71.7774 72.5718 70.4624Z" fill="#4897BE"/>
<path d="M64.8844 61.9655C63.8003 60.6505 62.7161 59.4367 61.3363 58.4252C59.858 57.3125 58.084 56.9079 57.0984 55.2894C55.6201 52.9629 55.5215 51.041 52.6633 50.1307C51.6778 49.8272 50.5937 50.9399 50.9879 51.8502C51.9734 54.7837 53.846 54.8848 56.0143 56.4021C57.4926 57.4136 57.8869 59.0321 58.8724 60.5494C59.858 61.9655 61.1392 63.2805 62.4205 64.3932C64.1945 65.8093 66.2642 63.6851 64.8844 61.9655Z" fill="#4897BE"/>
<path d="M48.1297 46.4892C47.8341 46.1857 47.637 45.8822 47.5384 45.4776C47.1442 43.05 43.9904 46.388 46.2572 46.7926C46.6514 46.8938 46.9471 47.0961 47.2427 47.3995C47.9326 47.703 48.6225 46.9949 48.1297 46.4892Z" fill="#4897BE"/>
<path d="M44.3846 38.5994C43.5962 37.5879 42.7092 36.5764 41.8221 35.666C41.4279 35.2614 40.9351 34.7556 40.4423 34.5533C39.9496 34.351 39.4568 34.351 38.964 34.2499C38.2741 34.0476 37.5842 34.7556 37.7813 35.4637C37.9784 36.0706 37.8799 36.4752 38.077 36.981C38.2741 37.4867 38.8654 37.9925 39.1611 38.3971C40.0481 39.4086 41.0337 40.2179 42.0193 41.0271C43.6947 42.4432 45.7644 40.319 44.3846 38.5994Z" fill="#4897BE"/>
<path d="M39.1611 32.5303C38.6683 31.8222 38.964 30.8107 38.3726 30.0015C36.6972 27.5738 33.5433 30.8107 35.9087 32.5303C36.6972 33.1372 37.5842 32.8338 38.3726 33.3395C38.8654 33.643 39.4567 33.0361 39.1611 32.5303Z" fill="#4897BE"/>
<path d="M33.5433 24.3368C33.3462 24.1345 33.2477 23.9322 33.1491 23.7299C33.3462 23.2241 33.0506 22.5161 32.7549 22.1114C32.1636 21.5045 31.7693 21.3022 31.0794 20.9988C30.0939 20.6953 29.1083 21.808 29.404 22.7184C29.6996 23.5276 29.8967 23.9322 30.4881 24.438C30.8823 24.8426 31.5722 25.0449 32.065 24.8426C32.2621 24.9437 32.4592 25.146 32.6563 25.2472C33.1491 25.7529 34.0361 24.8426 33.5433 24.3368Z" fill="#4897BE"/>
<path d="M26.8415 14.9297C26.2501 14.0194 26.2501 13.109 25.5602 11.9963C24.6732 10.7825 23.7862 9.87211 22.4064 9.16405C20.9281 8.35483 19.3512 9.97327 20.1396 11.4906C20.8295 12.8055 21.7165 13.8171 22.8992 14.7274C23.8848 15.4355 24.8703 15.4355 25.7573 16.0424C26.3487 16.447 27.2357 15.5367 26.8415 14.9297Z" fill="#4897BE"/>
<path d="M136.338 126.4C134.958 124.68 134.663 122.354 133.48 120.533C132.199 118.611 130.03 116.79 127.961 115.88C126.877 115.374 125.891 116.386 126.384 117.498C127.468 119.926 129.735 121.443 131.115 123.77C132.1 125.489 132.79 127.108 134.367 128.524C135.747 129.637 137.422 127.816 136.338 126.4Z" fill="#4897BE"/>
<path d="M120.372 105.866C119.879 105.158 119.682 104.348 119.288 103.64C118.894 102.932 118.302 102.427 117.711 101.82C116.627 100.707 115.641 99.4932 114.064 99.1897C112.98 98.9874 112.29 99.7966 112.389 100.909C112.586 102.528 113.867 103.539 114.951 104.652C115.543 105.158 116.035 105.765 116.725 106.27C117.415 106.776 118.204 106.877 118.894 107.383C119.781 107.99 120.963 106.776 120.372 105.866Z" fill="#4897BE"/>
<path d="M106.377 89.6813C105.687 88.6697 105.391 87.5571 104.603 86.5455C103.814 85.534 102.927 84.8259 101.843 84.219C100.759 83.511 99.3793 84.9271 100.069 86.0398C100.661 87.0513 101.449 88.0628 102.336 88.872C103.322 89.6813 104.406 89.9847 105.391 90.6928C105.983 91.0974 106.771 90.2882 106.377 89.6813Z" fill="#4897BE"/>
<path d="M95.3384 75.52C94.3529 74.1039 93.3673 72.7889 92.1846 71.5751C91.1005 70.5636 90.312 69.3497 88.7351 69.2486C88.2424 69.2486 87.7496 69.7543 87.7496 70.2601C87.8481 71.8785 89.0308 72.6878 90.0164 73.8004C91.1991 75.0143 92.4803 76.0258 93.8601 77.0373C94.7471 77.6442 96.0283 76.4304 95.3384 75.52Z" fill="#4897BE"/>
<path d="M85.0885 62.6737C84.2015 61.3587 83.6102 60.1449 82.5261 59.0322C81.4419 57.9195 80.3578 57.1103 79.0766 56.3011C78.091 55.6942 76.9083 56.908 77.4997 57.9195C78.2881 59.2345 79.0766 60.4483 80.1607 61.4599C81.2448 62.5725 82.4275 63.1795 83.7088 64.0898C84.4972 64.6967 85.5813 63.4829 85.0885 62.6737Z" fill="#4897BE"/>
<path d="M72.4733 47.5009C71.882 46.287 71.4877 45.6801 70.4036 44.7697C69.0238 43.6571 67.4469 46.287 69.0238 47.2985C69.3195 47.5008 69.6151 47.7031 69.9108 47.9055C70.8964 48.5124 72.0791 47.2985 71.4877 46.287C71.2906 45.9836 71.0935 45.6801 70.8964 45.3766C69.9108 43.7582 67.4469 45.3766 68.4325 46.7928C69.2209 47.9055 69.9108 48.2089 71.0935 48.917C71.9805 49.3216 72.9661 48.4112 72.4733 47.5009Z" fill="#4897BE"/>
<path d="M64.4902 37.0821C63.4061 35.5648 62.7162 34.1487 61.0407 33.1371C60.6465 32.8337 59.9566 32.8337 59.5624 33.1371C58.8725 33.6429 58.5768 33.8452 58.1826 34.6544C57.7883 35.4636 58.2811 36.4752 59.1681 36.4752C59.9566 36.4752 60.3508 36.374 61.0407 35.8682C60.5479 35.8682 60.0551 35.8682 59.5624 35.8682C60.745 36.5763 62.0263 37.3855 63.1104 38.2959C63.7017 38.8017 65.1801 37.9925 64.4902 37.0821Z" fill="#4897BE"/>
<path d="M52.5648 26.1575C51.6778 24.8425 50.7908 23.4264 49.2138 23.1229C48.0312 22.9206 47.1442 23.831 47.3413 25.0449C47.6369 26.6633 49.0167 27.5737 50.298 28.484C51.6778 29.4956 53.5504 27.4725 52.5648 26.1575Z" fill="#4897BE"/>
<path d="M43.7933 19.1782C44.286 18.1667 44.4832 17.3574 44.286 16.2448C44.1875 15.6379 43.399 15.2333 42.9062 15.4356C42.2163 15.6379 41.8221 15.9413 41.2308 16.4471C39.9495 17.4586 41.1322 19.5828 42.512 19.5828C42.7091 19.5828 43.0048 19.5828 43.2019 19.5828C43.399 19.4817 43.6947 19.3805 43.7933 19.1782Z" fill="#4897BE"/>
<path d="M38.1755 10.2767C37.7813 9.6698 37.6827 9.16404 37.3871 8.55713C37.0914 7.95021 36.4015 7.5456 35.8102 7.24214C34.8246 6.53407 33.4448 7.9502 34.1347 8.96173C34.4303 9.46749 34.8246 10.2767 35.4159 10.5802C36.0073 10.8836 36.5 10.9848 37.0914 11.3894C37.6827 11.6929 38.5697 10.8836 38.1755 10.2767Z" fill="#4897BE"/>
<path d="M32.3607 1.88107C31.8679 1.37531 31.5722 0.970701 30.9809 0.667244C30.3895 0.363787 29.6996 1.07185 30.0939 1.57761C30.3895 2.18452 30.7838 2.48799 31.2765 2.99375C31.9664 3.80297 33.0506 2.69029 32.3607 1.88107Z" fill="#4897BE"/>
<path d="M137.816 109.204C135.747 106.27 133.48 102.831 130.03 101.617C129.143 101.314 128.059 102.326 128.355 103.337C129.538 106.877 132.889 109.204 135.747 111.328C136.929 112.137 138.605 110.418 137.816 109.204Z" fill="#4897BE"/>
<path d="M125.694 93.2217C124.807 91.9067 124.807 90.6929 123.132 90.1871C122.442 89.9848 121.752 90.6929 121.949 91.4009C122.442 93.1205 123.526 93.1205 124.906 94.0309C125.3 94.5367 126.088 93.8286 125.694 93.2217Z" fill="#4897BE"/>
<path d="M111.502 75.419C110.319 73.9017 108.939 71.8786 106.968 71.6763C106.475 71.6763 105.983 72.1821 106.081 72.5867C106.278 74.6098 108.249 76.0259 109.728 77.2397C110.713 77.9478 112.192 76.4305 111.502 75.419Z" fill="#4897BE"/>
<path d="M101.055 65.0002C99.2807 62.4714 97.9009 59.3356 94.7471 58.3241C93.7615 58.0206 92.776 59.0322 93.0716 60.0437C93.9586 63.2806 97.1125 64.7979 99.5764 66.5175C100.463 67.2255 101.745 65.9105 101.055 65.0002Z" fill="#4897BE"/>
<path d="M88.7352 51.5469C87.4539 49.9284 86.1727 47.5008 83.9059 48.0065C83.5117 48.1077 83.1174 48.5123 83.0189 48.9169C82.6247 51.2434 84.99 52.5584 86.4684 53.8734C88.0453 55.1884 90.0164 53.1653 88.7352 51.5469Z" fill="#4897BE"/>
<path d="M81.7376 40.4202C79.5694 37.2845 77.204 33.0361 73.5574 31.4176C72.079 30.7096 70.6992 32.1257 71.3891 33.643C72.966 37.3856 77.204 39.7121 80.1607 42.0387C81.0477 42.6456 82.3289 41.3306 81.7376 40.4202Z" fill="#4897BE"/>
<path d="M67.2498 24.5391C66.9541 24.3368 66.757 24.0334 66.4613 23.8311C64.7859 22.2126 62.4205 24.6403 63.9974 26.3599C64.1945 26.6633 64.4902 26.8656 64.6873 27.1691C66.2642 28.8887 68.9252 26.1576 67.2498 24.5391Z" fill="#4897BE"/>
<path d="M67.1512 24.6403C65.4757 22.9207 64.983 20.4931 63.1104 19.0769C62.4205 18.5712 61.3364 19.2792 61.4349 20.0884C61.7306 22.7184 62.9133 25.2472 64.7858 27.1691C66.2642 28.6864 68.7281 26.1576 67.1512 24.6403Z" fill="#4897BE"/>
<path d="M56.8027 11.7939C55.9157 10.6812 55.2258 9.56855 53.7475 9.16394C52.7619 8.86048 51.7763 9.87202 52.072 10.8835C52.4662 12.2997 53.4518 13.1089 54.6345 14.0193C56.2114 15.4354 58.084 13.5135 56.8027 11.7939Z" fill="#4897BE"/>
<path d="M49.7066 5.52251C49.0168 4.51099 48.8196 3.49946 48.0312 2.58908C47.1442 1.57756 46.2572 0.667193 44.9759 0.161431C43.7932 -0.445484 42.6106 0.768349 43.2019 1.98218C43.6947 3.19601 44.5817 4.20752 45.5673 5.11789C46.5528 5.92711 47.5384 6.12943 48.4254 6.8375C49.1153 7.34326 50.1994 6.23058 49.7066 5.52251Z" fill="#4897BE"/>
<path d="M135.353 88.2653C133.283 85.1296 130.622 80.072 126.68 79.3639C125.595 79.1616 124.807 79.9708 125.004 81.0835C125.694 85.2307 130.72 87.8607 133.677 89.9849C134.663 90.7941 136.042 89.2768 135.353 88.2653Z" fill="#4897BE"/>
<path d="M121.259 74.5084C120.47 73.0923 120.273 71.7773 118.598 71.3727C117.711 71.1704 116.922 71.9796 117.12 72.89C117.514 74.7107 118.795 74.8119 120.175 75.6211C120.865 76.0257 121.752 75.2165 121.259 74.5084Z" fill="#4897BE"/>
<path d="M112.29 62.7749C111.995 62.4715 111.797 62.0669 111.6 61.6623C111.6 61.9657 111.699 62.2692 111.699 62.6738C111.699 62.5726 111.797 62.4715 111.797 62.3703C111.995 61.7634 111.797 60.9542 111.305 60.5496C110.812 60.0438 110.319 59.5381 109.826 59.1335C108.151 57.515 105.687 60.0438 107.264 61.7634C107.757 62.2692 108.249 62.7749 108.644 63.2807C109.038 63.7865 109.826 63.9888 110.418 63.7865C110.516 63.7865 110.615 63.6853 110.713 63.6853C110.418 63.6853 110.122 63.5842 109.728 63.5842C110.122 63.7865 110.516 63.9888 110.812 64.2922C111.699 64.5957 112.882 63.483 112.29 62.7749Z" fill="#4897BE"/>
<path d="M105.687 53.2665C105.391 52.8619 105.096 52.3562 104.8 51.9515C103.42 49.9285 100.858 52.5585 102.829 53.9746C103.223 54.2781 103.716 54.5815 104.11 54.885C104.997 55.593 106.278 54.2781 105.687 53.2665Z" fill="#4897BE"/>
<path d="M99.6749 47.602C99.3793 47.0963 99.3793 46.7928 99.1822 46.2871C98.985 45.7813 98.4923 45.2755 98.1966 44.7698C97.5067 43.7582 96.8168 43.2525 95.5356 43.2525C94.9442 43.2525 94.3529 43.7583 94.3529 44.4663C94.3529 45.6801 94.8457 46.3882 95.8312 47.1974C96.2254 47.5009 96.8168 48.0067 97.3096 48.209C97.8024 48.4113 98.098 48.4113 98.5908 48.7147C99.1822 49.2205 100.168 48.3101 99.6749 47.602Z" fill="#4897BE"/>
<path d="M92.3817 36.6775C91.1991 34.8567 89.8193 32.6314 87.5525 32.4291C86.764 32.3279 85.9755 33.2383 86.0741 33.9464C86.2712 36.2729 88.4395 37.689 90.2135 38.9028C91.4947 39.8132 93.1702 38.0936 92.3817 36.6775Z" fill="#4897BE"/>
<path d="M82.0333 23.3253C80.8506 21.9092 79.5694 19.8861 77.6968 19.6838C76.4156 19.4815 75.6271 20.3919 75.8242 21.6057C76.1199 23.5276 78.091 24.8426 79.3723 26.0564C81.2448 27.6749 83.7088 25.146 82.0333 23.3253Z" fill="#4897BE"/>
<path d="M74.2473 13.3112C73.2617 11.895 72.079 10.2766 70.2065 10.6812C69.8122 10.7824 69.5166 11.0858 69.418 11.4904C68.9252 13.4123 70.6007 14.6262 71.9805 15.6377C73.2617 16.7504 75.3314 14.6262 74.2473 13.3112Z" fill="#4897BE"/>
<path d="M68.1368 7.24221C66.8555 5.92722 64.7858 7.95028 66.0671 9.36641C67.3483 10.6814 69.418 8.65834 68.1368 7.24221Z" fill="#4897BE"/>
<path d="M67.8411 7.44439C66.3628 5.82595 64.8844 3.80291 62.9133 2.79139C62.1248 2.38678 61.2378 3.29714 61.632 4.10635C62.7162 6.02825 64.5887 7.54554 66.1656 9.16398C67.3483 10.1755 68.9252 8.55707 67.8411 7.44439Z" fill="#4897BE"/>
<path d="M133.776 73.2946C132.889 72.0808 132.297 70.4624 131.509 69.0462C130.72 67.7312 130.03 66.4163 129.242 65.1013C127.961 63.2805 125.497 64.3932 125.792 66.5174C126.088 68.237 126.975 69.7543 128.059 71.0693C129.341 72.5866 131.016 72.9912 132.494 74.205C133.184 74.8119 134.367 74.1039 133.776 73.2946Z" fill="#4897BE"/>
<path d="M121.456 55.2896C121.357 55.0873 121.16 54.9861 121.062 54.7838C121.16 55.0873 121.357 55.3907 121.456 55.6942C121.555 53.9746 119.091 51.4458 117.514 53.0642C115.937 54.6827 118.499 57.2115 120.076 57.1103C119.781 57.0092 119.485 56.8069 119.189 56.7057C119.386 56.8069 119.485 57.0092 119.682 57.1103C120.865 58.223 122.54 56.5034 121.456 55.2896Z" fill="#4897BE"/>
<path d="M114.261 48.9169C113.67 48.0065 113.67 46.995 112.98 45.9835C112.192 44.7696 111.108 43.8593 109.925 43.2523C108.644 42.6454 107.362 43.9604 107.954 45.2754C108.545 46.5904 109.432 47.703 110.615 48.4111C111.6 49.1192 112.586 49.018 113.473 49.7261C113.966 50.0296 114.557 49.3215 114.261 48.9169Z" fill="#4897BE"/>
<path d="M104.307 34.8568C103.913 34.5534 103.42 34.2499 103.026 33.9465C101.942 33.2384 100.463 34.7557 101.153 35.8684C101.449 36.273 101.745 36.7787 102.04 37.1833C103.519 39.5098 106.673 36.3741 104.307 34.8568Z" fill="#4897BE"/>
<path d="M100.168 28.5853C99.0836 26.9668 97.8024 25.1461 95.8313 24.6403C94.9442 24.438 94.1558 25.2472 94.3529 26.1576C94.8457 28.1807 96.6197 29.4956 98.1966 30.6083C99.3793 31.4175 100.956 29.7991 100.168 28.5853Z" fill="#4897BE"/>
<path d="M91.889 20.8978C91.7904 20.5943 92.2832 20.1897 92.3818 19.8863C92.4803 19.3805 92.3818 18.9759 92.2832 18.4701C92.0861 17.7621 91.3962 17.3574 90.7063 17.5597C89.5236 17.7621 89.1294 18.4701 88.7352 19.5828C88.2424 20.6955 89.425 21.6059 90.3121 21.707V21.8081C91.002 22.4151 92.1846 21.9093 91.889 20.8978Z" fill="#4897BE"/>
<path d="M84.99 8.55701C84.4972 8.1524 84.0044 7.74779 83.4131 7.54548C82.6246 7.14087 81.8362 7.95009 82.2304 8.75931C82.5261 9.36622 82.8218 9.87199 83.216 10.3778C84.3001 11.5916 86.2712 9.66968 84.99 8.55701Z" fill="#4897BE"/>
<path d="M132.889 50.9401C131.805 49.3216 130.917 47.0963 128.848 46.7928C127.862 46.6917 127.172 47.2986 127.369 48.3101C127.665 50.4343 129.833 51.4458 131.41 52.4574C132.297 53.1654 133.48 51.8504 132.889 50.9401Z" fill="#4897BE"/>
<path d="M122.442 40.2178C122.343 40.0155 122.244 39.8132 122.047 39.6109C122.047 40.0155 122.146 40.3189 122.146 40.7235C122.442 39.3074 121.653 37.1832 120.865 35.9694C119.978 34.5532 118.007 35.1601 117.809 36.7786C117.711 38.0936 118.007 39.3074 118.598 40.4201C119.288 41.5328 120.175 41.6339 121.259 42.0385C122.54 42.4431 123.131 41.027 122.442 40.2178Z" fill="#4897BE"/>
<path d="M116.232 27.8772C115.937 27.5737 115.74 27.3714 115.444 27.1691C113.571 25.4495 111.009 28.0795 112.684 30.0014C112.882 30.3048 113.177 30.5072 113.374 30.8106C115.247 32.6314 118.105 29.6979 116.232 27.8772Z" fill="#4897BE"/>
<path d="M111.403 21.707C111.108 21.1001 111.206 20.2909 110.713 19.4817C110.221 18.6724 109.531 17.8632 108.841 17.2563C107.757 16.3459 105.884 15.1321 104.701 16.4471C103.519 17.6609 104.504 19.3805 105.293 20.4932C105.884 21.3024 106.574 22.0105 107.362 22.5162C108.151 23.022 109.038 23.022 109.728 23.3254C110.812 24.0335 111.995 22.8197 111.403 21.707Z" fill="#4897BE"/>
<path d="M103.026 13.817C102.927 13.6147 103.322 12.502 103.223 12.1985C103.223 11.8951 103.124 11.5916 103.026 11.2882C102.829 10.479 102.73 9.77089 102.237 8.96167C101.449 7.64669 100.168 6.23055 98.5909 6.93862C97.901 7.24208 97.6053 7.6467 97.5067 8.35476C97.4082 9.56859 98.3937 10.6813 98.8865 11.6928C99.1822 12.1985 99.4779 12.9066 99.7735 13.3112C100.365 14.0193 101.252 14.0193 101.745 14.6262C102.336 15.3343 103.42 14.5251 103.026 13.817Z" fill="#4897BE"/>
<path d="M132.987 32.2267C132.199 30.8106 131.41 29.3945 130.523 27.9783C129.538 26.4611 128.454 25.753 126.778 25.1461C125.497 24.6403 124.018 26.1576 124.511 27.4726C125.103 29.1922 125.792 30.2037 127.271 31.3164C128.651 32.2267 130.03 33.036 131.41 33.8452C132.396 34.4521 133.48 33.2383 132.987 32.2267Z" fill="#4897BE"/>
<path d="M124.019 19.9874C123.821 19.6839 123.526 19.3804 123.329 19.077C123.033 18.6724 122.146 18.3689 121.653 18.5712C120.963 18.8747 120.668 19.077 120.47 19.785C120.273 20.2908 120.47 21.1 120.963 21.5046C121.259 21.7069 121.555 22.0104 121.85 22.2127C123.329 23.6288 125.3 21.6058 124.019 19.9874Z" fill="#4897BE"/>
<path d="M123.624 20.2908C122.442 18.9759 121.16 17.8632 120.076 16.4471C119.583 15.739 119.583 15.4355 119.386 14.7275C119.386 14.6263 119.091 13.8171 119.091 14.1205C119.189 14.424 119.189 13.0079 119.189 13.0079C119.091 11.794 117.908 10.4791 116.627 10.9848C115.74 11.2883 115.247 11.6929 114.557 12.2998C113.374 13.4125 113.67 15.0309 114.557 16.1436C115.641 17.5597 117.021 17.9643 118.302 18.9759C119.583 19.9874 120.766 20.9989 122.047 22.0104C123.131 23.022 124.708 21.5047 123.624 20.2908Z" fill="#4897BE"/>
<path d="M114.656 7.34322C114.261 7.54553 113.867 7.64667 113.374 7.64667C113.769 7.64667 114.064 7.74783 114.459 7.74783C113.867 7.34322 113.571 6.534 112.98 6.02824C112.487 5.72478 112.093 5.62362 111.502 5.62362C110.812 5.62362 110.319 6.12939 110.122 6.7363C109.235 9.06281 111.6 10.1755 113.374 10.4789C114.064 10.5801 114.557 10.3778 114.951 9.77087C115.148 9.46742 115.346 9.26511 115.543 8.96165C116.233 8.35474 115.641 6.93861 114.656 7.34322Z" fill="#4897BE"/>
<path d="M139.689 22.6173C138.112 20.8977 136.732 19.1782 134.761 17.9643C133.973 17.4586 132.889 18.4701 133.48 19.2793C134.663 21.3023 136.338 22.7185 138.014 24.3369C139.098 25.4496 140.675 23.8312 139.689 22.6173Z" fill="#4897BE"/>
<path d="M133.283 11.086C132.297 9.66987 131.41 8.45604 129.735 8.25373C129.143 8.15258 128.454 8.86065 128.454 9.56872C128.651 11.3895 129.833 12.1987 131.213 13.2102C132.396 14.0194 134.17 12.2998 133.283 11.086Z" fill="#4897BE"/>
<path d="M133.48 10.1754C131.509 8.15238 128.355 11.2881 130.425 13.3112C132.396 15.4354 135.451 12.2996 133.48 10.1754Z" fill="#4897BE"/>
</svg>
