<svg width="436" height="500" viewBox="0 0 436 500" fill="none" xmlns="http://www.w3.org/2000/svg">
<path d="M811.765 1754.55C809.788 1752.09 808.271 1749.22 807.301 1746.12C806.331 1743.01 805.926 1739.72 806.11 1736.44C806.294 1733.16 807.064 1729.95 808.374 1727C809.685 1724.05 811.511 1721.41 813.748 1719.24C847.457 1686.47 880.561 1664.87 912.569 1643.99C949.921 1619.63 985.199 1596.61 1021.5 1556.67C1057.8 1516.74 1078.72 1477.92 1100.87 1436.83C1123.47 1394.89 1146.85 1351.52 1187.19 1307.13C1227.53 1262.75 1266.96 1237.04 1305.08 1212.16C1342.43 1187.8 1377.71 1164.78 1414.01 1124.85C1450.31 1084.91 1471.22 1046.1 1493.37 1005.01C1512.93 968.716 1533.16 931.189 1564.48 892.945C1568.52 888.067 1574.16 885.148 1580.15 884.825C1586.15 884.502 1592.02 886.801 1596.48 891.221C1600.94 895.642 1603.63 901.825 1603.96 908.422C1604.3 915.018 1602.25 921.494 1598.27 926.436C1569.97 960.988 1551.77 994.766 1532.49 1030.52C1509.89 1072.47 1486.51 1115.84 1446.17 1160.22C1405.83 1204.61 1366.4 1230.33 1328.28 1255.2C1290.93 1279.57 1255.65 1302.58 1219.35 1342.51C1183.05 1382.44 1162.14 1421.26 1139.99 1462.35C1117.38 1504.29 1094.01 1547.67 1053.66 1592.05C1013.31 1636.44 973.892 1662.16 935.767 1687.03C904.182 1707.63 874.35 1727.09 843.866 1756.73C839.344 1761.12 833.423 1763.36 827.404 1762.95C821.384 1762.54 815.759 1759.52 811.763 1754.55L811.765 1754.55ZM702.969 1754.07C700.604 1752.07 698.621 1749.57 697.133 1746.72C695.646 1743.87 694.683 1740.73 694.299 1737.47C693.915 1734.21 694.119 1730.9 694.898 1727.73C695.677 1724.56 697.016 1721.59 698.839 1718.99C710.038 1702.97 722.172 1687.77 735.164 1673.48C775.507 1629.1 814.93 1603.38 853.056 1578.51C890.405 1554.14 925.681 1531.13 961.982 1491.19C998.283 1451.26 1019.2 1412.45 1041.34 1371.36C1063.95 1329.41 1087.33 1286.04 1127.67 1241.65C1168.02 1197.27 1207.44 1171.55 1245.57 1146.68C1282.92 1122.32 1318.19 1099.3 1354.49 1059.37C1390.8 1019.43 1411.71 980.619 1433.86 939.528C1456.46 897.582 1479.84 854.211 1520.18 809.828C1534.16 794.443 1549.1 780.151 1564.89 767.057C1567.27 765.074 1569.98 763.626 1572.87 762.797C1575.76 761.967 1578.77 761.773 1581.72 762.224C1584.68 762.675 1587.53 763.763 1590.1 765.426C1592.68 767.088 1594.93 769.293 1596.73 771.914C1598.53 774.535 1599.85 777.521 1600.6 780.701C1601.35 783.882 1601.53 787.194 1601.12 790.449C1600.71 793.705 1599.72 796.839 1598.21 799.674C1596.7 802.508 1594.7 804.988 1592.31 806.97C1578.2 818.679 1564.84 831.457 1552.34 845.211C1516.04 885.146 1495.12 923.958 1472.98 965.048C1450.37 1007 1427 1050.37 1386.65 1094.75C1346.31 1139.13 1306.89 1164.85 1268.76 1189.72C1231.41 1214.09 1196.13 1237.1 1159.83 1277.04C1123.53 1316.97 1102.61 1355.79 1080.47 1396.88C1057.86 1438.82 1034.49 1482.19 994.141 1526.58C953.796 1570.96 914.376 1596.68 876.254 1621.55C838.901 1645.92 803.625 1668.93 767.323 1708.87C755.713 1721.63 744.87 1735.22 734.864 1749.53C731.181 1754.79 725.752 1758.22 719.771 1759.07C713.79 1759.92 707.747 1758.13 702.969 1754.08V1754.07ZM614.833 1738.91C612.297 1737.18 610.096 1734.91 608.357 1732.24C606.618 1729.57 605.373 1726.55 604.696 1723.35C604.018 1720.15 603.92 1716.83 604.407 1713.59C604.894 1710.35 605.957 1707.24 607.535 1704.45C623.446 1676.31 643.983 1642.83 675.643 1608C715.986 1563.62 755.41 1537.9 793.532 1513.03C830.885 1488.66 866.161 1465.65 902.461 1425.71C938.761 1385.77 959.684 1346.96 981.831 1305.87C1004.44 1263.93 1027.81 1220.55 1068.15 1176.17C1108.5 1131.79 1147.92 1106.07 1186.05 1081.2C1223.4 1056.83 1258.67 1033.81 1294.97 993.883C1331.27 953.951 1352.19 915.135 1374.33 874.045C1396.94 832.099 1420.32 788.727 1460.66 744.342C1492.71 709.093 1523.82 686.093 1550.03 668.247C1552.57 666.446 1555.41 665.219 1558.39 664.639C1561.36 664.059 1564.41 664.137 1567.35 664.868C1570.3 665.6 1573.08 666.971 1575.54 668.9C1578 670.83 1580.09 673.279 1581.68 676.105C1583.27 678.932 1584.33 682.08 1584.81 685.363C1585.28 688.647 1585.15 692.002 1584.44 695.231C1583.72 698.461 1582.42 701.501 1580.63 704.173C1578.83 706.846 1576.57 709.097 1573.97 710.797C1549.98 727.131 1521.57 748.096 1492.82 779.723C1456.53 819.66 1435.6 858.475 1413.46 899.566C1390.85 941.507 1367.47 984.88 1327.13 1029.26C1286.79 1073.65 1247.37 1099.37 1209.25 1124.24C1171.89 1148.6 1136.61 1171.61 1100.31 1211.55C1064.01 1251.49 1043.1 1290.3 1020.95 1331.39C998.342 1373.33 974.971 1416.71 934.624 1461.09C894.278 1505.48 854.857 1531.2 816.732 1556.07C779.381 1580.43 744.105 1603.45 707.805 1643.38C679.404 1674.63 660.704 1705.14 646.156 1730.88C644.578 1733.67 642.516 1736.09 640.089 1738.01C637.661 1739.92 634.914 1741.29 632.006 1742.04C629.097 1742.78 626.084 1742.89 623.137 1742.35C620.191 1741.82 617.37 1740.65 614.834 1738.91L614.833 1738.91ZM1002.15 1719.29C1000.55 1716.52 999.449 1713.43 998.925 1710.19C998.402 1706.96 998.463 1703.64 999.105 1700.43C999.747 1697.22 1000.96 1694.19 1002.67 1691.49C1004.37 1688.8 1006.55 1686.5 1009.06 1684.73C1037.97 1664.41 1060.16 1645.11 1081.02 1622.16C1117.32 1582.23 1138.24 1543.41 1160.38 1502.32C1182.99 1460.38 1206.36 1417 1246.71 1372.62C1287.06 1328.24 1326.48 1302.51 1364.61 1277.64C1401.95 1253.28 1437.23 1230.26 1473.53 1190.33C1494.46 1167.3 1512.07 1142.78 1530.61 1110.82C1532.21 1108.05 1534.3 1105.65 1536.75 1103.77C1539.19 1101.88 1541.95 1100.55 1544.87 1099.84C1547.78 1099.13 1550.8 1099.06 1553.74 1099.63C1556.68 1100.2 1559.49 1101.41 1562.01 1103.18C1564.52 1104.94 1566.7 1107.24 1568.41 1109.93C1570.12 1112.63 1571.33 1115.67 1571.98 1118.87C1572.62 1122.08 1572.69 1125.4 1572.17 1128.64C1571.65 1131.88 1570.55 1134.97 1568.95 1137.74C1548.55 1172.88 1529.05 1200.01 1505.69 1225.72C1465.35 1270.1 1425.92 1295.82 1387.8 1320.69C1350.45 1345.05 1315.17 1368.07 1278.87 1408.01C1242.57 1447.94 1221.65 1486.75 1199.51 1527.85C1176.9 1569.79 1153.52 1613.16 1113.18 1657.54C1089.9 1683.15 1065.34 1704.54 1033.56 1726.9C1028.48 1730.47 1022.32 1731.68 1016.43 1730.25C1010.54 1728.83 1005.4 1724.88 1002.15 1719.29L1002.15 1719.29ZM533.717 1713.94C531.15 1712.26 528.909 1710.04 527.121 1707.41C525.333 1704.78 524.034 1701.79 523.298 1698.6C522.561 1695.42 522.403 1692.1 522.83 1688.85C523.258 1685.6 524.263 1682.47 525.79 1679.65L529.779 1672.25C552.39 1630.29 575.769 1586.91 616.125 1542.52C656.481 1498.13 695.892 1472.42 734.014 1447.54C771.361 1423.18 806.643 1400.16 842.94 1360.23C879.238 1320.3 900.163 1281.48 922.308 1240.39C944.914 1198.44 968.289 1155.07 1008.63 1110.69C1048.98 1066.31 1088.4 1040.59 1126.52 1015.71C1163.87 991.352 1199.15 968.336 1235.45 928.399C1271.75 888.463 1292.67 849.65 1314.82 808.557C1337.42 766.615 1360.8 723.244 1401.14 678.861C1441.49 634.478 1480.9 608.763 1519.03 583.892L1527.4 578.423C1529.96 576.742 1532.8 575.633 1535.76 575.159C1538.71 574.686 1541.72 574.858 1544.61 575.666C1547.51 576.473 1550.23 577.9 1552.62 579.864C1555.01 581.829 1557.03 584.293 1558.56 587.116C1560.09 589.939 1561.09 593.066 1561.52 596.318C1561.95 599.57 1561.8 602.883 1561.06 606.068C1560.33 609.253 1559.03 612.248 1557.25 614.882C1555.46 617.516 1553.23 619.737 1550.66 621.419L1542.22 626.932C1504.88 651.297 1469.6 674.309 1433.3 714.241C1397 754.172 1376.09 792.987 1353.94 834.076C1331.33 876.022 1307.96 919.397 1267.61 963.78C1227.26 1008.16 1187.85 1033.89 1149.72 1058.76C1112.37 1083.12 1077.09 1106.14 1040.79 1146.07C1004.49 1186 983.576 1224.82 961.431 1265.9C938.82 1307.85 915.449 1351.23 875.1 1395.61C834.752 1439.99 795.334 1465.71 757.211 1490.58C719.864 1514.95 684.582 1537.96 648.285 1577.9C611.988 1617.83 591.052 1656.67 568.901 1697.77L564.884 1705.21C563.359 1708.04 561.342 1710.51 558.95 1712.48C556.558 1714.44 553.836 1715.87 550.942 1716.68C548.048 1717.49 545.037 1717.67 542.081 1717.2C539.126 1716.73 536.283 1715.62 533.717 1713.94ZM456.758 1678.65C454.234 1676.89 452.049 1674.61 450.327 1671.93C448.606 1669.24 447.382 1666.21 446.724 1663.01C446.067 1659.8 445.99 1656.48 446.498 1653.25C447.005 1650.01 448.087 1646.91 449.682 1644.14C456.797 1631.75 463.644 1619.04 470.27 1606.74C492.881 1564.79 516.26 1521.42 556.603 1477.04C596.947 1432.65 636.368 1406.94 674.495 1382.06C711.842 1357.7 747.124 1334.68 783.422 1294.75C819.666 1254.88 840.73 1215.81 861.105 1178.03C864.18 1172.32 869.19 1168.19 875.033 1166.54C880.875 1164.9 887.072 1165.88 892.259 1169.26C897.446 1172.65 901.199 1178.16 902.693 1184.59C904.186 1191.03 903.297 1197.85 900.222 1203.56C879.428 1242.11 855.867 1285.81 815.582 1330.13C775.24 1374.51 735.815 1400.23 697.688 1425.1C660.341 1449.47 625.059 1472.48 588.762 1512.42C552.465 1552.35 531.54 1591.17 509.394 1632.26C502.606 1644.86 495.584 1657.88 488.13 1670.86C484.907 1676.47 479.791 1680.45 473.908 1681.91C468.025 1683.37 461.855 1682.19 456.757 1678.65H456.758ZM383.658 1634.1C381.197 1632.24 379.093 1629.87 377.467 1627.11C375.841 1624.36 374.724 1621.27 374.18 1618.04C373.636 1614.81 373.677 1611.49 374.298 1608.28C374.92 1605.07 376.111 1602.02 377.803 1599.31C389.805 1580.12 399.977 1561.24 410.748 1541.26C433.356 1499.32 456.734 1455.94 497.077 1411.55C537.421 1367.17 576.842 1341.46 614.967 1316.59C652.318 1292.22 687.594 1269.2 723.896 1229.27C735.647 1216.34 746.613 1202.59 756.723 1188.08C760.396 1182.81 765.818 1179.37 771.797 1178.51C777.776 1177.64 783.821 1179.43 788.603 1183.47C793.385 1187.52 796.513 1193.49 797.297 1200.07C798.082 1206.65 796.459 1213.31 792.786 1218.57C781.475 1234.8 769.205 1250.2 756.056 1264.65C715.712 1309.04 676.29 1334.76 638.163 1359.63C600.814 1383.99 565.534 1407.01 529.236 1446.94C492.938 1486.87 472.02 1525.69 449.869 1566.79C439.189 1586.6 428.144 1607.09 415.278 1627.68C411.857 1633.14 406.605 1636.89 400.676 1638.09C394.747 1639.3 388.626 1637.86 383.658 1634.1ZM1218.23 1619.57C1215.67 1617.88 1213.44 1615.65 1211.67 1613.01C1209.89 1610.37 1208.6 1607.37 1207.88 1604.18C1207.16 1600.99 1207.02 1597.68 1207.46 1594.43C1207.9 1591.18 1208.92 1588.05 1210.46 1585.24C1213.64 1579.42 1216.78 1573.6 1219.92 1567.79C1242.52 1525.85 1265.9 1482.48 1306.23 1438.1C1346.56 1393.72 1385.99 1368 1424.11 1343.14C1430.87 1338.73 1437.63 1334.32 1444.39 1329.81C1446.94 1328.02 1449.79 1326.82 1452.77 1326.27C1455.75 1325.71 1458.8 1325.82 1461.75 1326.57C1464.69 1327.33 1467.47 1328.73 1469.91 1330.68C1472.36 1332.64 1474.43 1335.11 1476 1337.95C1477.57 1340.8 1478.6 1343.96 1479.05 1347.25C1479.5 1350.54 1479.34 1353.9 1478.59 1357.12C1477.85 1360.35 1476.52 1363.38 1474.7 1366.03C1472.88 1368.69 1470.59 1370.92 1467.98 1372.59C1461.08 1377.19 1454.2 1381.68 1447.31 1386.17C1409.96 1410.54 1374.69 1433.55 1338.39 1473.48C1302.09 1513.42 1281.18 1552.22 1259.03 1593.31C1255.85 1599.21 1252.67 1605.12 1249.44 1611.03C1247.9 1613.85 1245.87 1616.3 1243.47 1618.26C1241.07 1620.21 1238.34 1621.63 1235.44 1622.42C1232.55 1623.22 1229.54 1623.37 1226.58 1622.89C1223.63 1622.4 1220.79 1621.27 1218.23 1619.58V1619.57ZM313.27 1583.76C310.874 1581.8 308.852 1579.34 307.32 1576.52C305.789 1573.7 304.777 1570.57 304.343 1567.32C303.909 1564.07 304.061 1560.76 304.79 1557.57C305.52 1554.38 306.813 1551.39 308.596 1548.75C324.909 1524.62 337.696 1500.9 351.236 1475.78C373.844 1433.83 397.219 1390.46 437.565 1346.07C477.911 1301.68 517.33 1275.97 555.457 1251.1C592.804 1226.73 628.081 1203.72 664.384 1163.78C665.4 1162.66 666.407 1161.54 667.403 1160.42C671.631 1155.75 677.361 1153.11 683.35 1153.07C689.338 1153.02 695.1 1155.58 699.385 1160.18C703.67 1164.79 706.131 1171.07 706.235 1177.66C706.338 1184.25 704.075 1190.62 699.936 1195.39C698.82 1196.64 697.689 1197.9 696.543 1199.16C656.199 1243.55 616.776 1269.27 578.653 1294.14C541.3 1318.5 506.024 1341.52 469.722 1381.45C433.42 1421.39 412.502 1460.2 390.356 1501.29C376.818 1526.41 362.817 1552.39 345.089 1578.61C341.489 1583.94 336.114 1587.47 330.147 1588.44C324.18 1589.4 318.109 1587.72 313.27 1583.76V1583.76ZM250.423 1522.64C248.049 1520.65 246.054 1518.16 244.552 1515.32C243.051 1512.48 242.073 1509.34 241.674 1506.08C241.274 1502.83 241.462 1499.52 242.226 1496.34C242.99 1493.16 244.315 1490.18 246.125 1487.57C263.837 1462.01 277.38 1436.89 291.717 1410.28C314.325 1368.34 337.698 1324.97 378.043 1280.59C418.389 1236.2 457.808 1210.48 495.931 1185.62C530.007 1163.39 562.194 1142.39 595.176 1108.59C597.349 1106.28 599.916 1104.48 602.729 1103.28C605.542 1102.08 608.544 1101.5 611.559 1101.59C614.575 1101.68 617.544 1102.43 620.294 1103.8C623.044 1105.16 625.52 1107.12 627.577 1109.55C629.634 1111.98 631.231 1114.83 632.275 1117.95C633.32 1121.06 633.79 1124.38 633.66 1127.7C633.529 1131.01 632.8 1134.27 631.515 1137.28C630.23 1140.28 628.415 1142.97 626.175 1145.2C589.611 1182.67 553.782 1206.05 519.127 1228.65C481.78 1253.02 446.5 1276.03 410.201 1315.97C373.902 1355.9 352.985 1394.72 330.838 1435.81C316.469 1462.47 301.609 1490.04 282.296 1517.91C278.638 1523.19 273.225 1526.65 267.249 1527.54C261.272 1528.42 255.22 1526.66 250.423 1522.64ZM192.34 1455.29C189.956 1453.31 187.949 1450.83 186.435 1448C184.92 1445.17 183.927 1442.04 183.513 1438.78C183.099 1435.53 183.272 1432.22 184.021 1429.04C184.77 1425.86 186.082 1422.87 187.881 1420.25C204.983 1395.3 218.202 1370.78 232.195 1344.81C254.803 1302.86 278.176 1259.49 318.522 1215.11C358.869 1170.72 398.289 1145 436.412 1120.13C471.796 1097.05 505.218 1075.25 539.518 1039.09C543.882 1034.57 549.691 1032.13 555.682 1032.3C561.674 1032.47 567.362 1035.23 571.51 1039.99C575.658 1044.76 577.93 1051.13 577.832 1057.73C577.734 1064.32 575.274 1070.61 570.987 1075.22C532.913 1115.36 495.65 1139.67 459.609 1163.17C422.26 1187.54 386.978 1210.55 350.683 1250.49C314.388 1290.43 293.461 1329.24 271.315 1370.33C257.301 1396.33 242.815 1423.22 224.186 1450.38C220.553 1455.68 215.156 1459.17 209.184 1460.09C203.211 1461.01 197.151 1459.28 192.336 1455.29H192.34ZM140.089 1379.98C137.66 1378.07 135.597 1375.66 134.018 1372.87C132.438 1370.08 131.373 1366.98 130.884 1363.74C130.395 1360.49 130.49 1357.18 131.166 1353.98C131.841 1350.78 133.083 1347.75 134.82 1345.08C148.946 1323.34 160.472 1301.96 172.674 1279.32C195.281 1237.38 218.654 1194.01 258.997 1149.62C299.341 1105.24 338.764 1079.52 376.887 1054.65C414.238 1030.29 449.516 1007.27 485.818 967.338C491.005 961.632 496.092 955.701 500.929 949.712C504.937 944.752 510.57 941.747 516.589 941.359C522.609 940.971 528.522 943.231 533.028 947.643C537.534 952.054 540.263 958.255 540.616 964.882C540.968 971.509 538.915 978.019 534.908 982.979C529.481 989.686 523.784 996.327 517.976 1002.72C477.632 1047.1 438.211 1072.82 400.084 1097.69C362.737 1122.06 327.458 1145.07 291.157 1185.01C254.856 1224.94 233.941 1263.75 211.794 1304.84C199.641 1327.39 187.078 1350.71 171.811 1374.19C168.302 1379.59 162.988 1383.23 157.039 1384.32C151.089 1385.41 144.991 1383.85 140.084 1379.99L140.089 1379.98ZM95.4836 1292.4C92.9765 1290.62 90.8133 1288.31 89.1176 1285.61C87.422 1282.9 86.2271 1279.86 85.6013 1276.64C84.9754 1273.43 84.931 1270.11 85.4705 1266.88C86.0099 1263.65 87.1226 1260.57 88.7451 1257.81C97.3034 1243.26 105.365 1228.3 113.16 1213.83C135.768 1171.89 159.144 1128.53 199.482 1084.14C239.821 1039.76 279.25 1014.04 317.377 989.167C354.725 964.805 390.002 941.788 426.303 901.854C455.088 870.189 474.609 838.859 495.069 801.567C498.183 795.882 503.221 791.792 509.074 790.197C514.927 788.601 521.116 789.631 526.279 793.059C531.443 796.487 535.158 802.033 536.607 808.476C538.057 814.92 537.122 821.733 534.008 827.418C511.83 867.846 490.496 901.994 458.464 937.237C418.118 981.619 378.697 1007.34 340.574 1032.21C303.222 1056.57 267.943 1079.59 231.643 1119.52C195.343 1159.46 174.427 1198.27 152.278 1239.36C144.262 1254.24 135.97 1269.62 126.931 1284.99C123.652 1290.56 118.498 1294.47 112.601 1295.86C106.704 1297.25 100.546 1296.01 95.4827 1292.4L95.4836 1292.4ZM56.3423 1192.29C53.7769 1190.61 51.5374 1188.39 49.7516 1185.76C47.9659 1183.12 46.6691 1180.13 45.9351 1176.94C45.2011 1173.76 45.0443 1170.45 45.4739 1167.2C45.9035 1163.94 46.9111 1160.82 48.4388 1157.99L53.6501 1148.34C76.2544 1106.4 99.6266 1063.04 139.963 1018.66C180.3 974.292 219.73 948.559 257.856 923.688C295.203 899.323 330.479 876.309 366.782 836.375C403.085 796.441 423.995 757.629 446.141 716.539C468.752 674.594 492.126 631.219 532.474 586.834C572.821 542.45 612.239 516.731 650.366 491.86C687.713 467.495 722.991 444.481 759.292 404.547C795.593 364.613 816.505 325.799 838.651 284.712C861.264 242.766 884.636 199.391 924.984 155.007C965.331 110.622 1004.75 84.9028 1042.88 60.0343C1046.93 57.3846 1050.99 54.7299 1055.05 52.0702C1057.61 50.3623 1060.45 49.2286 1063.41 48.7343C1066.38 48.2401 1069.4 48.3949 1072.3 49.1901C1075.21 49.9853 1077.95 51.4056 1080.35 53.3683C1082.76 55.3311 1084.79 57.798 1086.33 60.6275C1087.86 63.457 1088.88 66.593 1089.31 69.8557C1089.75 73.1183 1089.59 76.4431 1088.85 79.6387C1088.11 82.8344 1086.81 85.8382 1085.01 88.4772C1083.22 91.1162 1080.97 93.3384 1078.39 95.0162C1074.28 97.7189 1070.18 100.404 1066.07 103.073C1028.72 127.438 993.445 150.452 957.144 190.388C920.843 230.324 899.922 269.14 877.778 310.233C855.169 352.175 831.796 395.546 791.452 439.928C751.109 484.31 711.685 510.03 673.563 534.9C636.21 559.265 600.933 582.282 564.633 622.218C528.333 662.154 507.413 700.968 485.266 742.061C462.658 784.003 439.285 827.374 398.942 871.756C358.598 916.139 319.175 941.858 281.052 966.728C243.703 991.094 208.422 1014.11 172.124 1054.04C135.826 1093.97 114.915 1132.77 92.7719 1173.86L87.5197 1183.59C84.4332 1189.3 79.4151 1193.42 73.5687 1195.05C67.7224 1196.68 61.5267 1195.69 56.3444 1192.29L56.3423 1192.29ZM24.5514 1074.9C22.0363 1073.13 19.8627 1070.83 18.155 1068.13C16.4473 1065.44 15.2388 1062.4 14.5988 1059.19C13.9588 1055.98 13.9 1052.66 14.4254 1049.43C14.9507 1046.19 16.0501 1043.1 17.6607 1040.33C37.89 1005.57 57.2507 978.694 80.4424 953.179C120.784 908.799 160.209 883.079 198.33 858.21C235.683 833.843 270.959 810.828 307.261 770.892C343.563 730.956 364.481 692.141 386.627 651.047C409.234 609.107 432.609 565.734 472.951 521.352C513.292 476.97 552.717 451.25 590.84 426.379C628.193 402.014 663.469 378.999 699.771 339.063C736.073 299.127 756.991 260.312 779.138 219.22C801.745 177.276 825.12 133.906 865.462 89.5231C896.168 55.7409 925.922 33.4708 948.408 17.8457C950.931 16.0704 953.748 14.8611 956.697 14.2879C959.646 13.7148 962.668 13.7888 965.591 14.5056C968.514 15.2224 971.279 16.5681 973.728 18.4651C976.177 20.3621 978.262 22.773 979.862 25.5596C981.462 28.3461 982.546 31.453 983.052 34.7022C983.558 37.9514 983.476 41.2791 982.81 44.4932C982.144 47.7073 980.908 50.7447 979.173 53.4313C977.438 56.1179 975.237 58.4005 972.698 60.1481C952.207 74.3897 925.153 94.6185 897.623 124.902C861.325 164.838 840.409 203.649 818.262 244.739C795.651 286.686 772.278 330.059 731.929 374.444C691.58 418.828 652.164 444.547 614.04 469.418C576.689 493.783 541.413 516.8 505.113 556.731C468.813 596.663 447.894 635.479 425.754 676.568C403.142 718.515 379.768 761.889 339.421 806.272C299.073 850.656 259.654 876.378 221.528 901.247C184.181 925.614 148.897 948.626 112.6 988.558C91.8245 1011.42 74.3508 1035.71 55.9637 1067.31C52.711 1072.9 47.5747 1076.84 41.684 1078.26C35.7934 1079.69 29.6311 1078.47 24.5524 1074.89L24.5514 1074.9ZM1066.29 979.818C1064.77 976.994 1063.76 973.867 1063.33 970.614C1062.9 967.362 1063.06 964.049 1063.8 960.864C1064.53 957.679 1065.83 954.685 1067.62 952.053C1069.41 949.42 1071.65 947.202 1074.21 945.524C1110.16 922.006 1142.63 899.556 1175.93 862.919C1212.23 822.987 1233.14 784.174 1255.29 743.084C1277.9 701.138 1301.28 657.763 1341.62 613.38C1381.97 568.996 1421.38 543.28 1459.51 518.407C1471.14 510.817 1483.18 502.966 1494.89 494.775C1497.41 492.957 1500.23 491.709 1503.19 491.102C1506.16 490.495 1509.2 490.542 1512.14 491.241C1515.09 491.939 1517.88 493.274 1520.35 495.169C1522.82 497.064 1524.92 499.481 1526.54 502.279C1528.16 505.078 1529.25 508.202 1529.76 511.47C1530.27 514.738 1530.19 518.085 1529.51 521.317C1528.84 524.549 1527.59 527.6 1525.83 530.295C1524.07 532.989 1521.85 535.274 1519.29 537.014C1506.98 545.607 1494.64 553.663 1482.71 561.444C1445.36 585.81 1410.08 608.823 1373.79 648.755C1337.49 688.687 1316.57 727.507 1294.42 768.6C1271.81 810.542 1248.44 853.912 1208.1 898.295C1171.12 938.971 1134.67 964.187 1097.47 988.527C1092.28 991.92 1086.09 992.908 1080.24 991.274C1074.4 989.64 1069.38 985.517 1066.3 979.812L1066.29 979.818ZM7.51459 940.5C5.29688 938.301 3.49451 935.642 2.21037 932.676C0.926223 929.71 0.185594 926.495 0.0306451 923.214C-0.124304 919.932 0.309421 916.649 1.30727 913.553C2.30512 910.456 3.84746 907.606 5.84609 905.165C10.679 899.269 15.753 893.391 20.9264 887.7C61.268 843.314 100.691 817.597 138.819 792.726C176.166 768.361 211.446 745.345 247.745 705.415C284.044 665.485 304.961 626.669 327.104 585.58C349.715 543.632 373.089 500.259 413.437 455.875C453.784 411.49 493.201 385.771 531.329 360.9C568.676 336.536 603.954 313.521 640.255 273.587C676.556 233.653 697.471 194.84 719.614 153.752C742.225 111.804 765.599 68.4313 805.945 24.0469C811.341 18.1056 816.952 12.2553 822.616 6.66739C824.828 4.41117 827.426 2.66207 830.259 1.52198C833.091 0.381898 836.101 -0.126461 839.114 0.0266165C842.127 0.179694 845.081 0.991173 847.806 2.41364C850.531 3.83611 852.972 5.84125 854.986 8.31224C857.001 10.7832 858.548 13.6708 859.539 16.8066C860.53 19.9424 860.944 23.2639 860.757 26.5776C860.57 29.8913 859.787 33.1308 858.452 36.1079C857.117 39.085 855.257 41.7402 852.981 43.9183C847.935 48.9004 842.931 54.1232 838.113 59.4222C801.805 99.3659 780.885 138.179 758.739 179.273C736.132 221.213 712.759 264.585 672.415 308.968C632.072 353.352 592.648 379.07 554.528 403.941C517.174 428.305 481.896 451.32 445.594 491.256C409.293 531.192 388.374 570.008 366.229 611.101C343.622 653.043 320.248 696.414 279.905 740.797C239.561 785.18 200.138 810.897 162.015 835.765C124.665 860.132 89.3862 883.147 53.0863 923.082C48.4631 928.168 43.9395 933.411 39.6325 938.666C35.5924 943.594 29.9406 946.556 23.9185 946.9C17.8964 947.244 11.9964 944.942 7.51459 940.501V940.5ZM1077.06 866.918C1075.23 864.327 1073.87 861.363 1073.08 858.195C1072.29 855.028 1072.07 851.719 1072.43 848.458C1072.8 845.198 1073.75 842.048 1075.23 839.192C1076.7 836.335 1078.67 833.826 1081.03 831.809C1093.46 821.175 1105.28 809.697 1116.41 797.441C1152.71 757.504 1173.63 718.691 1195.78 677.596C1218.38 635.656 1241.76 592.284 1282.1 547.9C1322.45 503.517 1361.86 477.8 1399.99 452.931C1418.9 440.596 1436.76 428.941 1454.92 415.04C1457.37 413.163 1460.13 411.834 1463.05 411.131C1465.96 410.428 1468.98 410.365 1471.92 410.943C1474.85 411.522 1477.66 412.733 1480.17 414.505C1482.69 416.278 1484.86 418.579 1486.56 421.275C1488.27 423.972 1489.48 427.012 1490.11 430.222C1490.75 433.432 1490.81 436.749 1490.29 439.983C1489.76 443.218 1488.66 446.307 1487.05 449.073C1485.44 451.84 1483.35 454.231 1480.9 456.109C1461.39 471.054 1441.97 483.716 1423.19 495.969C1385.84 520.336 1350.56 543.348 1314.27 583.282C1277.97 623.216 1257.05 662.028 1234.91 703.117C1212.29 745.063 1188.92 788.436 1148.57 832.82C1136.12 846.534 1122.89 859.377 1108.98 871.276C1104.22 875.354 1098.19 877.185 1092.2 876.367C1086.22 875.549 1080.77 872.147 1077.07 866.912L1077.06 866.918ZM7.35761 809.342C5.59617 806.689 4.32681 803.68 3.62206 800.487C2.91732 797.294 2.79087 793.979 3.2502 790.732C3.70953 787.486 4.74553 784.37 6.29895 781.565C7.85237 778.759 9.89297 776.317 12.3038 774.38C35.0076 756.134 57.5219 741.448 79.2929 727.247C116.646 702.88 151.925 679.867 188.224 639.929C224.523 599.991 245.444 561.178 267.59 520.086C290.197 478.142 313.57 434.775 353.914 390.391C394.257 346.008 433.681 320.29 471.803 295.418C509.156 271.053 544.434 248.038 580.734 208.102C617.034 168.166 637.949 129.353 660.098 88.2606C673.534 63.3308 687.429 37.5538 704.967 11.5348C706.745 8.89415 708.978 6.66491 711.539 4.97428C714.099 3.28365 716.937 2.16466 719.89 1.68143C722.844 1.19821 725.854 1.35994 728.751 2.15768C731.647 2.95543 734.373 4.37338 736.771 6.33065C739.17 8.28792 741.195 10.7463 742.731 13.5652C744.266 16.384 745.283 19.508 745.722 22.7592C746.161 26.0105 746.014 29.3248 745.289 32.5135C744.564 35.7021 743.276 38.7029 741.498 41.3435C725.354 65.2904 712.66 88.8458 699.217 113.78C676.615 155.725 653.239 199.099 612.895 243.481C572.552 287.863 533.128 313.584 495.003 338.455C457.654 362.821 422.377 385.835 386.074 425.769C349.772 465.703 328.861 504.513 306.716 545.604C284.106 587.547 260.732 630.922 220.385 675.308C180.038 719.693 140.618 745.411 102.493 770.284C80.6835 784.511 60.0784 797.95 39.1358 814.783C34.2658 818.698 28.183 820.324 22.2243 819.303C16.2655 818.283 10.9187 814.699 7.35951 809.34L7.35761 809.342ZM1054.84 769.315C1052.75 766.976 1051.09 764.204 1049.97 761.159C1048.84 758.114 1048.28 754.856 1048.3 751.57C1048.32 748.284 1048.93 745.035 1050.1 742.008C1051.26 738.982 1052.96 736.238 1055.08 733.934L1056.9 731.956C1093.19 692.02 1114.11 653.209 1136.26 612.12C1158.87 570.175 1182.24 526.799 1222.59 482.415C1262.94 438.03 1302.36 412.311 1340.48 387.44C1363.79 372.233 1385.81 357.867 1408.21 339.38C1410.59 337.334 1413.32 335.831 1416.23 334.959C1419.15 334.087 1422.19 333.864 1425.19 334.302C1428.18 334.74 1431.07 335.831 1433.68 337.51C1436.28 339.19 1438.56 341.425 1440.37 344.085C1442.19 346.744 1443.5 349.775 1444.24 353C1444.98 356.225 1445.13 359.58 1444.67 362.868C1444.22 366.156 1443.17 369.312 1441.6 372.15C1440.03 374.989 1437.96 377.455 1435.51 379.402C1411.14 399.522 1387.01 415.26 1363.68 430.481C1326.33 454.845 1291.05 477.86 1254.75 517.796C1218.44 557.732 1197.53 596.548 1175.38 637.641C1152.77 679.583 1129.4 722.955 1089.06 767.337L1087.01 769.58C1082.71 774.237 1076.91 776.824 1070.88 776.774C1064.85 776.724 1059.08 774.04 1054.85 769.312L1054.84 769.315ZM24.0819 688.123C22.5497 685.303 21.5374 682.178 21.1027 678.927C20.668 675.676 20.8194 672.362 21.5484 669.176C22.2774 665.989 23.5697 662.992 25.3514 660.355C27.133 657.719 29.3692 655.495 31.932 653.81C62.9248 633.425 95.9277 610.505 128.706 574.447C165.004 534.515 185.919 495.702 208.065 454.612C230.674 412.666 254.048 369.293 294.396 324.909C334.743 280.524 374.163 254.805 412.288 229.932C449.637 205.568 484.917 182.555 521.215 142.621C553.87 106.693 574.447 70.89 592.728 37.298C595.825 31.601 600.85 27.4914 606.698 25.8732C612.547 24.2551 618.74 25.2608 623.915 28.6694C629.09 32.078 632.823 37.6103 634.293 44.0489C635.762 50.4875 634.849 57.3049 631.752 63.0019C612.011 99.2773 589.698 138.037 553.375 178.004C513.032 222.385 473.608 248.102 435.486 272.971C398.133 297.337 362.854 320.354 326.555 360.289C290.255 400.224 269.335 439.041 247.188 480.132C224.581 522.074 201.206 565.446 160.864 609.827C124.408 649.934 88.7101 674.764 55.2681 696.759C50.092 700.167 43.8981 701.171 38.0493 699.552C32.2004 697.932 27.1756 693.821 24.08 688.123H24.0819ZM1009.11 689.854C1006.92 687.626 1005.15 684.944 1003.9 681.96C1002.65 678.977 1001.94 675.752 1001.82 672.468C1001.7 669.185 1002.17 665.908 1003.21 662.825C1004.24 659.742 1005.81 656.914 1007.84 654.501C1037.92 618.668 1056.77 583.682 1076.74 546.638C1099.34 504.695 1122.72 461.322 1163.06 416.936C1203.41 372.551 1242.83 346.835 1280.95 321.964C1305.58 305.896 1328.84 290.723 1352.51 270.707C1354.87 268.704 1357.58 267.232 1360.46 266.378C1363.34 265.524 1366.35 265.303 1369.31 265.728C1372.27 266.153 1375.12 267.215 1377.71 268.855C1380.3 270.494 1382.56 272.679 1384.38 275.283C1386.2 277.888 1387.54 280.861 1388.32 284.035C1389.09 287.208 1389.29 290.518 1388.91 293.776C1388.52 297.035 1387.56 300.177 1386.07 303.025C1384.58 305.873 1382.59 308.37 1380.23 310.374C1354.4 332.227 1328.85 348.89 1304.15 365.005C1266.8 389.369 1231.52 412.382 1195.22 452.318C1158.93 492.254 1138 531.07 1115.86 572.161C1095.56 609.807 1074.58 648.733 1041.25 688.445C1037.16 693.32 1031.47 696.207 1025.45 696.471C1019.42 696.735 1013.55 694.355 1009.11 689.853V689.854ZM946.26 627.874C944.09 625.618 942.345 622.913 941.125 619.914C939.905 616.916 939.234 613.682 939.15 610.398C939.066 607.113 939.57 603.843 940.635 600.773C941.699 597.704 943.303 594.895 945.354 592.508C977.163 555.483 996.618 519.376 1017.22 481.149C1039.83 439.207 1063.2 395.838 1103.54 351.456C1143.88 307.074 1183.31 281.352 1221.43 256.484C1245.76 240.617 1268.73 225.631 1292.09 205.98C1294.46 203.938 1297.17 202.434 1300.07 201.555C1302.97 200.675 1306 200.438 1308.98 200.856C1311.97 201.275 1314.84 202.34 1317.45 203.992C1320.06 205.643 1322.34 207.848 1324.17 210.478C1325.99 213.108 1327.33 216.11 1328.09 219.312C1328.86 222.514 1329.04 225.851 1328.62 229.13C1328.21 232.409 1327.21 235.564 1325.68 238.414C1324.15 241.264 1322.12 243.751 1319.71 245.731C1294.22 267.17 1269.01 283.619 1244.63 299.521C1207.28 323.886 1172 346.9 1135.7 386.837C1099.4 426.773 1078.48 465.581 1056.34 506.671C1035.37 545.572 1013.69 585.802 978.405 626.873C974.261 631.695 968.547 634.509 962.518 634.697C956.49 634.884 950.641 632.429 946.256 627.871L946.26 627.874ZM861.929 586.182C859.932 583.74 858.392 580.888 857.397 577.79C856.401 574.693 855.971 571.409 856.129 568.128C856.287 564.847 857.03 561.632 858.318 558.667C859.605 555.703 861.41 553.046 863.63 550.85C868.64 545.899 873.583 540.738 878.335 535.512C914.633 495.576 935.548 456.765 957.694 415.677C980.305 373.731 1003.68 330.358 1044.02 285.973C1084.37 241.587 1123.79 215.873 1161.91 191.001C1182.99 177.252 1202.89 164.265 1223.13 148.206C1225.55 146.204 1228.31 144.752 1231.24 143.937C1234.17 143.121 1237.22 142.958 1240.21 143.456C1243.2 143.955 1246.07 145.104 1248.65 146.838C1251.23 148.573 1253.47 150.856 1255.24 153.556C1257.01 156.255 1258.27 159.316 1258.96 162.559C1259.64 165.803 1259.73 169.163 1259.21 172.444C1258.7 175.725 1257.6 178.86 1255.97 181.667C1254.35 184.473 1252.23 186.894 1249.74 188.787C1227.85 206.158 1206.12 220.333 1185.11 234.042C1147.76 258.406 1112.48 281.419 1076.18 321.353C1039.89 361.287 1018.96 400.103 996.816 441.196C974.21 483.138 950.836 526.51 910.494 570.891C905.177 576.739 899.644 582.513 894.04 588.057C889.555 592.495 883.653 594.79 877.631 594.438C871.609 594.086 865.961 591.117 861.928 586.181L861.929 586.182ZM723.485 577.761C721.934 574.954 720.9 571.838 720.443 568.591C719.986 565.343 720.116 562.029 720.823 558.836C721.531 555.644 722.803 552.636 724.567 549.985C726.332 547.334 728.553 545.092 731.105 543.387C758.973 524.747 788.884 502.959 818.812 470.029C855.11 430.092 876.034 391.279 898.18 350.186C920.787 308.245 944.16 264.871 984.504 220.489C1024.85 176.107 1064.26 150.393 1102.38 125.522C1116.63 116.233 1131.35 106.628 1145.67 96.2871C1148.17 94.483 1150.96 93.2376 1153.89 92.6218C1156.82 92.0061 1159.84 92.0321 1162.76 92.6984C1165.68 93.3648 1168.46 94.6583 1170.93 96.5053C1173.39 98.3523 1175.51 100.716 1177.15 103.463C1178.79 106.209 1179.92 109.284 1180.48 112.512C1181.04 115.74 1181.01 119.058 1180.41 122.275C1179.8 125.493 1178.63 128.548 1176.95 131.266C1175.27 133.984 1173.12 136.311 1170.63 138.115C1155.44 149.084 1140.26 158.987 1125.58 168.561C1088.24 192.926 1052.96 215.939 1016.66 255.87C980.368 295.8 959.451 334.617 937.304 375.707C914.694 417.652 891.32 461.026 850.973 505.412C817.652 542.075 785.024 565.879 754.733 586.143C752.181 587.851 749.349 588.99 746.398 589.493C743.447 589.997 740.435 589.855 737.534 589.077C734.632 588.299 731.898 586.9 729.488 584.959C727.078 583.018 725.039 580.573 723.487 577.764L723.485 577.761ZM80.142 533.168C77.9538 530.933 76.1871 528.245 74.943 525.258C73.6989 522.271 73.0018 519.044 72.8915 515.76C72.7811 512.476 73.2597 509.201 74.2998 506.121C75.34 503.041 76.9213 500.217 78.9535 497.81C109.432 461.697 128.432 426.444 148.546 389.122C171.151 347.179 194.529 303.806 234.873 259.424C275.216 215.042 314.64 189.323 352.762 164.451C387.172 142 419.678 120.799 452.991 86.4044C457.386 81.8603 463.242 79.4249 469.268 79.6335C475.295 79.8421 481 82.6778 485.128 87.5168C489.255 92.3559 491.468 98.8017 491.278 105.437C491.089 112.071 488.513 118.352 484.117 122.896C447.163 161.04 410.966 184.655 375.96 207.49C338.613 231.855 303.333 254.869 267.034 294.801C230.735 334.733 209.817 373.551 187.671 414.643C167.22 452.588 146.073 491.821 112.279 531.856C108.174 536.719 102.483 539.588 96.457 539.834C90.4309 540.08 84.5628 537.682 80.142 533.167V533.168Z" fill="#B3D3D0"/>
</svg>
