<?xml version="1.0" encoding="UTF-8"?>
<svg width="245px" height="38px" viewBox="0 0 245 38" version="1.1" xmlns="http://www.w3.org/2000/svg" xmlns:xlink="http://www.w3.org/1999/xlink">
    <!-- Generator: Sketch 63.1 (92452) - https://sketch.com -->
    <title>Logo-Brick</title>
    <desc>Created with Sketch.</desc>
    <g id="Page-1" stroke="none" stroke-width="1" fill="none" fill-rule="evenodd">
        <g id="Logo-Brick">
            <g id="Brick&amp;Mortar." transform="translate(71.289000, 15.729000)" fill-rule="nonzero">
                <path d="M5.88,21.112 C8.10133333,21.112 9.8,20.8133333 10.976,20.216 C12.152,19.6186667 12.9266667,18.872 13.3,17.976 C13.6733333,17.08 13.86,16.0346667 13.86,14.84 C13.86,13.7013333 13.5473333,12.712 12.922,11.872 C12.2966667,11.032 11.3213333,10.444 9.996,10.108 C10.892,9.69733333 11.5453333,9.07666667 11.956,8.246 C12.3666667,7.41533333 12.572,6.53333333 12.572,5.6 C12.572,4.2 12.0866667,3.00533333 11.116,2.016 C10.1453333,1.02666667 8.18533333,0.532 5.236,0.532 L5.236,0.532 L0,0.532 L0,21.112 L5.88,21.112 Z M5.74,9.268 L3.08,9.268 L3.08,3.192 L5.6,3.192 C8.13866667,3.192 9.408,4.07866667 9.408,5.852 C9.408,6.84133333 9.128,7.658 8.568,8.302 C8.008,8.946 7.06533333,9.268 5.74,9.268 L5.74,9.268 Z M6.3,18.48 L3.08,18.48 L3.08,11.76 L6.552,11.76 C7.91466667,11.76 8.932,12.0306667 9.604,12.572 C10.276,13.1133333 10.612,13.8786667 10.612,14.868 C10.612,15.9133333 10.318,16.7766667 9.73,17.458 C9.142,18.1393333 7.99866667,18.48 6.3,18.48 L6.3,18.48 Z M20.272,21.112 L20.272,14.504 C20.272,13.272 20.6313333,12.376 21.35,11.816 C22.0686667,11.256 22.8666667,10.976 23.744,10.976 C24.304,10.976 24.668,11.032 24.836,11.144 L24.836,11.144 L25.256,8.092 C25.032,7.98 24.6213333,7.924 24.024,7.924 C23.1653333,7.924 22.4,8.18533333 21.728,8.708 C21.056,9.23066667 20.5706667,9.92133333 20.272,10.78 L20.272,10.78 L20.272,8.26 L17.248,8.26 L17.248,21.112 L20.272,21.112 Z M29.148,5.852 C29.7266667,5.852 30.2073333,5.656 30.59,5.264 C30.9726667,4.872 31.164,4.38666667 31.164,3.808 C31.164,3.28533333 30.968,2.83733333 30.576,2.464 C30.184,2.09066667 29.708,1.904 29.148,1.904 C28.5693333,1.904 28.084,2.09066667 27.692,2.464 C27.3,2.83733333 27.104,3.28533333 27.104,3.808 C27.104,4.38666667 27.3,4.872 27.692,5.264 C28.084,5.656 28.5693333,5.852 29.148,5.852 Z M30.744,21.112 L30.744,8.26 L27.608,8.26 L27.608,21.112 L30.744,21.112 Z M40.936,21.392 C41.832,21.392 42.6486667,21.266 43.386,21.014 C44.1233333,20.762 44.6973333,20.4773333 45.108,20.16 L45.108,20.16 L44.016,18.032 C43.7173333,18.256 43.2926667,18.452 42.742,18.62 C42.1913333,18.788 41.6266667,18.872 41.048,18.872 C39.8906667,18.872 38.99,18.4893333 38.346,17.724 C37.702,16.9586667 37.38,15.8853333 37.38,14.504 C37.38,13.2906667 37.6926667,12.32 38.318,11.592 C38.9433333,10.864 39.8533333,10.5 41.048,10.5 C42.0373333,10.5 42.924,10.892 43.708,11.676 L43.708,11.676 L45.052,9.24 C44.6413333,8.86666667 44.0766667,8.554 43.358,8.302 C42.6393333,8.05 41.7853333,7.924 40.796,7.924 C39.4893333,7.924 38.3366667,8.19466667 37.338,8.736 C36.3393333,9.27733333 35.5646667,10.0473333 35.014,11.046 C34.4633333,12.0446667 34.188,13.2066667 34.188,14.532 C34.188,15.932 34.4866667,17.15 35.084,18.186 C35.6813333,19.222 36.4886667,20.0153333 37.506,20.566 C38.5233333,21.1166667 39.6666667,21.392 40.936,21.392 Z M51.044,21.112 L51.044,17.304 L52.724,15.484 L53.452,16.912 L56.056,21.112 L59.612,21.112 L54.74,13.636 L59.584,8.26 L55.86,8.26 L50.96,14 L51.016,11.816 L51.016,0.532 L48.132,0.532 L48.132,21.112 L51.044,21.112 Z" id="Brick" fill="#000000"></path>
                <path d="M69.02,21.532 C70.8866667,21.532 72.632,20.9253333 74.256,19.712 L74.256,19.712 L75.404,21.112 L78.764,21.112 C77.9053333,20.0853333 77.0093333,18.9746667 76.076,17.78 C76.7293333,17.2573333 77.336,16.6926667 77.896,16.086 C78.456,15.4793333 78.9226667,14.9146667 79.296,14.392 L79.296,14.392 L76.972,12.488 C76.3186667,13.5706667 75.4413333,14.5973333 74.34,15.568 C72.6786667,13.4773333 71.372,11.8066667 70.42,10.556 C71.8013333,9.39866667 72.7626667,8.36266667 73.304,7.448 C73.8453333,6.53333333 74.116,5.516 74.116,4.396 C74.116,3.612 73.9246667,2.884 73.542,2.212 C73.1593333,1.54 72.6086667,1.00333333 71.89,0.602 C71.1713333,0.200666667 70.3173333,3.55271368e-15 69.328,3.55271368e-15 C68.376,3.55271368e-15 67.5173333,0.196 66.752,0.588 C65.9866667,0.98 65.38,1.54 64.932,2.268 C64.484,2.996 64.26,3.836 64.26,4.788 C64.26,5.64666667 64.428,6.42133333 64.764,7.112 C65.1,7.80266667 65.6786667,8.68 66.5,9.744 C65.2306667,10.64 64.2646667,11.5313333 63.602,12.418 C62.9393333,13.3046667 62.608,14.3266667 62.608,15.484 C62.608,16.8093333 62.9113333,17.9246667 63.518,18.83 C64.1246667,19.7353333 64.9133333,20.412 65.884,20.86 C66.8546667,21.308 67.9,21.532 69.02,21.532 Z M68.768,8.26 C68.1893333,7.51333333 67.7553333,6.86466667 67.466,6.314 C67.1766667,5.76333333 67.032,5.25466667 67.032,4.788 C67.032,4.06 67.2513333,3.5 67.69,3.108 C68.1286667,2.716 68.6373333,2.52 69.216,2.52 C69.8506667,2.52 70.35,2.69733333 70.714,3.052 C71.078,3.40666667 71.26,3.88266667 71.26,4.48 C71.26,5.18933333 71.0733333,5.81466667 70.7,6.356 C70.3266667,6.89733333 69.6826667,7.532 68.768,8.26 Z M69.244,18.76 C68.18,18.76 67.368,18.466 66.808,17.878 C66.248,17.29 65.968,16.5293333 65.968,15.596 C65.968,14.9426667 66.1313333,14.3593333 66.458,13.846 C66.7846667,13.3326667 67.368,12.768 68.208,12.152 L68.208,12.152 L69.748,14.084 L72.436,17.444 C71.8013333,18.004 71.2273333,18.3633333 70.714,18.522 C70.2006667,18.6806667 69.7106667,18.76 69.244,18.76 Z" id="&amp;" fill="#F8B728"></path>
                <path d="M84.7,21.112 L86.604,11.508 L87.192,8.596 L88.48,11.508 L93.436,21.112 L93.604,21.112 L98.588,11.508 L99.708,8.596 L100.324,11.508 L102.396,21.112 L105.476,21.112 L101.052,0.532 L100.744,0.532 L95.2,11.648 L93.52,15.372 L91.84,11.648 L86.184,0.532 L85.848,0.532 L81.592,21.112 L84.7,21.112 Z M114.044,21.392 C115.369333,21.392 116.540667,21.0933333 117.558,20.496 C118.575333,19.8986667 119.364,19.0866667 119.924,18.06 C120.484,17.0333333 120.764,15.8946667 120.764,14.644 C120.764,13.412 120.488667,12.2826667 119.938,11.256 C119.387333,10.2293333 118.603333,9.41733333 117.586,8.82 C116.568667,8.22266667 115.388,7.924 114.044,7.924 C112.7,7.924 111.514667,8.22266667 110.488,8.82 C109.461333,9.41733333 108.672667,10.2293333 108.122,11.256 C107.571333,12.2826667 107.296,13.412 107.296,14.644 C107.296,15.8946667 107.576,17.0333333 108.136,18.06 C108.696,19.0866667 109.489333,19.8986667 110.516,20.496 C111.542667,21.0933333 112.718667,21.392 114.044,21.392 Z M114.128,18.928 C113.045333,18.928 112.158667,18.522 111.468,17.71 C110.777333,16.898 110.432,15.8946667 110.432,14.7 C110.432,13.468 110.754,12.4413333 111.398,11.62 C112.042,10.7986667 112.896,10.388 113.96,10.388 C115.061333,10.388 115.948,10.8033333 116.62,11.634 C117.292,12.4646667 117.628,13.4866667 117.628,14.7 C117.628,15.9133333 117.315333,16.9213333 116.69,17.724 C116.064667,18.5266667 115.210667,18.928 114.128,18.928 Z M126.924,21.112 L126.924,14.504 C126.924,13.272 127.283333,12.376 128.002,11.816 C128.720667,11.256 129.518667,10.976 130.396,10.976 C130.956,10.976 131.32,11.032 131.488,11.144 L131.488,11.144 L131.908,8.092 C131.684,7.98 131.273333,7.924 130.676,7.924 C129.817333,7.924 129.052,8.18533333 128.38,8.708 C127.708,9.23066667 127.222667,9.92133333 126.924,10.78 L126.924,10.78 L126.924,8.26 L123.9,8.26 L123.9,21.112 L126.924,21.112 Z M138.208,21.112 L138.208,10.724 L141.176,10.724 L141.176,8.26 L138.208,8.26 L138.208,2.352 L135.156,3.024 L135.156,8.26 L132.888,8.26 L132.888,10.724 L135.156,10.724 L135.156,21.112 L138.208,21.112 Z M149.324,21.392 C150.369333,21.392 151.312,21.1353333 152.152,20.622 C152.992,20.1086667 153.570667,19.516 153.888,18.844 L153.888,18.844 L153.944,21.112 L156.8,21.112 L156.8,8.26 L153.916,8.26 L153.86,10.416 C153.710667,10.0426667 153.412,9.66466667 152.964,9.282 C152.516,8.89933333 151.965333,8.57733333 151.312,8.316 C150.658667,8.05466667 149.958667,7.924 149.212,7.924 C147.924,7.924 146.804,8.204 145.852,8.764 C144.9,9.324 144.167333,10.108 143.654,11.116 C143.140667,12.124 142.884,13.3 142.884,14.644 C142.884,16.0066667 143.178,17.1966667 143.766,18.214 C144.354,19.2313333 145.138,20.0153333 146.118,20.566 C147.098,21.1166667 148.166667,21.392 149.324,21.392 Z M149.828,18.872 C148.614667,18.872 147.686,18.4846667 147.042,17.71 C146.398,16.9353333 146.076,15.9226667 146.076,14.672 C146.076,13.44 146.402667,12.4366667 147.056,11.662 C147.709333,10.8873333 148.633333,10.5 149.828,10.5 C150.518667,10.5 151.153333,10.6773333 151.732,11.032 C152.310667,11.3866667 152.768,11.8813333 153.104,12.516 C153.44,13.1506667 153.608,13.8693333 153.608,14.672 L153.608,14.672 L153.608,14.868 C153.608,16.0626667 153.244,17.0286667 152.516,17.766 C151.788,18.5033333 150.892,18.872 149.828,18.872 Z M163.8,21.112 L163.8,14.504 C163.8,13.272 164.159333,12.376 164.878,11.816 C165.596667,11.256 166.394667,10.976 167.272,10.976 C167.832,10.976 168.196,11.032 168.364,11.144 L168.364,11.144 L168.784,8.092 C168.56,7.98 168.149333,7.924 167.552,7.924 C166.693333,7.924 165.928,8.18533333 165.256,8.708 C164.584,9.23066667 164.098667,9.92133333 163.8,10.78 L163.8,10.78 L163.8,8.26 L160.776,8.26 L160.776,21.112 L163.8,21.112 Z" id="Mortar" fill="#000000"></path>
                <path d="M171.584,21.392 C172.162667,21.392 172.643333,21.2006667 173.026,20.818 C173.408667,20.4353333 173.6,19.964 173.6,19.404 C173.6,18.8253333 173.408667,18.3446667 173.026,17.962 C172.643333,17.5793333 172.162667,17.388 171.584,17.388 C171.005333,17.388 170.524667,17.5793333 170.142,17.962 C169.759333,18.3446667 169.568,18.8253333 169.568,19.404 C169.568,19.964 169.764,20.4353333 170.156,20.818 C170.548,21.2006667 171.024,21.392 171.584,21.392 Z" id="." fill="#FAB800"></path>
            </g>
            <path d="M39.3194755,0 L29.4991848,7.48648588 L19.6821548,0 L0,15.006158 L0,38 L11.4188289,38 L11.4188289,32.9505789 L4.83881843,32.9505789 L4.83881843,17.5708624 L19.6821548,6.25263676 L25.3989057,10.6119533 L19.6389511,15.006158 L19.6389511,38 L27.3993202,38 L33.3875211,38 L39.3618641,38 L39.3618641,15.006158 L33.6010943,10.6119533 L39.3194755,6.25263676 L54.1644422,17.5708624 L54.1644422,32.9505789 L47.0350106,32.9505789 L47.0350106,38 L59,38 L59,15.006158 L39.3194755,0 Z M24,17.7895646 L28.9995945,14 L34,17.7895646 L34,33 L32.8685214,33 L26.9102117,33 L24,33 L24,17.7895646 Z" id="Fill-1" fill="#F8B728"></path>
        </g>
    </g>
</svg>