<svg width="237" height="237" viewBox="0 0 237 237" fill="none" xmlns="http://www.w3.org/2000/svg">
<path d="M237.006 237C227.258 237 217.52 236.408 207.843 235.225L448.74 106.582C442.612 118.722 435.455 130.313 427.347 141.227L248.514 236.726C244.695 236.906 240.825 237 237.006 237ZM271.236 234.545L412.807 158.943C375.86 199.884 325.787 226.626 271.236 234.55V234.545ZM193.383 232.993C183.409 231.135 173.565 228.636 163.911 225.511L465.06 64.6939C462.298 74.4471 458.912 84.0124 454.923 93.3305L193.396 232.993H193.383ZM152.679 221.557C144.591 218.474 136.677 214.949 128.975 210.999L472.409 27.5991C471.41 36.1956 469.943 44.731 468.012 53.167L152.682 221.557H152.679ZM119.72 205.99C112.944 202.122 106.289 197.874 99.9156 193.347L473.917 -6.37616C473.973 -4.19501 474 -2.06462 474 -0.00773621C474 5.68102 473.795 11.4462 473.39 17.1248L119.72 205.993V205.99ZM92.1126 187.562C86.3347 183.09 80.6907 178.292 75.341 173.3L470.977 -37.9675C472.14 -30.7342 472.979 -23.3688 473.465 -16.0771L92.1151 187.582L92.1126 187.562ZM68.7247 166.881C63.7755 161.892 59.0034 156.63 54.5331 151.243L464.238 -67.5447C466.238 -60.811 467.951 -53.915 469.333 -47.0443L68.7371 166.879L68.7247 166.881ZM48.9586 144.266C44.7772 138.823 40.7877 133.139 37.1106 127.377L454.069 -95.2859C456.837 -88.9884 459.348 -82.5185 461.535 -76.0536L48.971 144.268L48.9586 144.266ZM32.5137 119.877C29.0672 114.011 25.8384 107.924 22.914 101.789L440.654 -121.293C444.156 -115.424 447.425 -109.359 450.379 -103.265L32.5137 119.88V119.877ZM19.2798 93.7769C16.5682 87.4921 14.1024 80.9996 11.9433 74.4815L424.029 -145.589C428.254 -140.169 432.281 -134.511 436.006 -128.766L19.2798 93.7744V93.7769ZM9.29776 65.9366C7.34644 59.1852 5.67881 52.2667 4.34077 45.3682L404.078 -168.098C409.075 -163.13 413.894 -157.893 418.405 -152.531L9.29776 65.9391V65.9366ZM2.75691 36.2629C1.64694 29.0347 0.861541 21.6444 0.425663 14.2969L380.472 -188.654C386.3 -184.208 392.002 -179.438 397.397 -174.475L2.75691 36.2703V36.2629ZM0.0433087 4.54521C0.0154327 3.00572 0 1.47882 0 0.00526428C0 -6.3353 0.25416 -12.7543 0.760996 -19.0492L352.608 -206.941C359.451 -203.111 366.174 -198.891 372.603 -194.399L0.0606322 4.53468L0.0433087 4.54521ZM1.81773 -29.5799C2.89509 -38.2256 4.44821 -46.8053 6.47032 -55.2796L319.279 -222.326C327.453 -219.296 335.454 -215.817 343.245 -211.904L1.83505 -29.5898L1.81773 -29.5799ZM9.55637 -66.8828C12.4486 -76.7211 15.9776 -86.3603 20.1212 -95.7397L278.02 -233.457C288.134 -231.69 298.124 -229.265 307.924 -226.198L9.56627 -66.8728L9.55637 -66.8828ZM26.5557 -109.131C32.9876 -121.496 40.4933 -133.272 48.9858 -144.321L221.624 -236.511C226.71 -236.835 231.88 -237 236.989 -237C245.785 -237 254.574 -236.517 263.317 -235.555L26.5631 -109.126L26.5557 -109.131ZM64.5683 -162.597C100.042 -200.282 146.88 -225.291 197.91 -233.797L64.5683 -162.597Z" fill="#FBBC04"/>
</svg>
