<svg width="189" height="170" viewBox="0 0 189 170" fill="none" xmlns="http://www.w3.org/2000/svg">
<path d="M108.563 6.23877C124.545 6.23877 138.504 9.37446 150.44 15.6459C162.578 21.9172 171.985 30.9197 178.661 42.6533C185.539 54.3868 188.979 68.548 188.979 85.1368C188.979 101.726 185.539 115.887 178.661 127.62C171.985 139.354 162.578 148.356 150.44 154.628C138.504 160.899 124.545 164.035 108.563 164.035C92.7837 164.035 78.8248 160.899 66.6866 154.628C54.7508 148.356 45.3437 139.354 38.4654 127.62C31.7894 115.887 28.4514 101.726 28.4514 85.1368C28.4514 68.548 31.7894 54.3868 38.4654 42.6533C45.3437 30.9197 54.7508 21.9172 66.6866 15.6459C78.8248 9.37446 92.7837 6.23877 108.563 6.23877ZM108.563 42.9567C99.662 42.9567 92.6825 46.2947 87.625 52.9707C82.7697 59.4444 80.3421 70.1664 80.3421 85.1368C80.3421 99.9049 82.7697 110.627 87.625 117.303C92.6825 123.979 99.662 127.317 108.563 127.317C117.667 127.317 124.646 123.979 129.502 117.303C134.559 110.627 137.088 99.9049 137.088 85.1368C137.088 70.1664 134.559 59.4444 129.502 52.9707C124.646 46.2947 117.667 42.9567 108.563 42.9567Z" fill="#222222"/>
<path d="M42.9819 157.266L42.991 157.271L43.0001 157.275C55.6224 163.797 70.0631 167.015 86.2447 167.015C102.616 167.015 117.064 163.802 129.498 157.271C142.132 150.742 151.961 141.341 158.923 129.111C166.116 116.833 169.64 102.132 169.64 85.137C169.64 68.1422 166.116 53.4412 158.923 41.1633C151.961 28.933 142.132 19.5328 129.498 13.0032C117.065 6.47224 102.616 3.25887 86.2447 3.25887C70.0631 3.25887 55.6224 6.47695 43.0001 12.9984L42.991 13.0032L42.9819 13.0079C30.5487 19.5406 20.7332 28.937 13.5759 41.1463L13.5662 41.1629L13.5567 41.1797C6.57279 53.4544 3.15279 68.1487 3.15279 85.137C3.15279 102.125 6.57279 116.82 13.5567 129.094L13.5662 129.111L13.5759 129.128C20.7332 141.337 30.5487 150.733 42.9819 157.266ZM104.808 115.504L104.79 115.527L104.773 115.55C100.542 121.368 94.5086 124.337 86.2447 124.337C78.2188 124.337 72.1521 121.391 67.6994 115.527C63.4185 109.623 61.0035 99.6927 61.0035 85.137C61.0035 70.3407 63.4319 60.4416 67.6858 54.7649C72.1397 48.8888 78.2106 45.9369 86.2447 45.9369C94.5086 45.9369 100.542 48.9062 104.773 54.7236L104.803 54.7651L104.835 54.8055C109.262 60.4727 111.789 70.351 111.789 85.137C111.789 99.6961 109.271 109.612 104.808 115.504Z" fill="white" stroke="black" stroke-width="5.96005"/>
</svg>
