<svg width="197" height="242" viewBox="0 0 197 242" fill="none" xmlns="http://www.w3.org/2000/svg">
<path d="M132.96 139.616C132.96 139.616 33.071 248.973 73.7841 185.536C114.497 122.1 156.157 97.956 132.96 139.616Z" fill="#AABCA6"/>
<path d="M135.327 45.881C135.327 45.881 78.0447 144.823 75.6777 119.259C73.784 93.6952 157.577 -10.9279 135.327 45.881Z" fill="#AABCA6"/>
<path d="M46.7998 131.568C46.7998 131.568 16.0283 204.946 2.29943 182.696C-11.4294 159.972 67.6298 91.8015 46.7998 131.568Z" fill="#AABCA6"/>
<path d="M190.243 47.3012C190.243 47.3012 154.737 105.53 143.849 99.8495C133.434 94.1686 203.498 15.5829 190.243 47.3012Z" fill="#AABCA6"/>
<path d="M85.1459 43.9874C85.1459 43.9874 60.5287 106.477 48.6935 92.7484C36.8583 78.5461 99.3481 13.2158 85.1459 43.9874Z" fill="#AABCA6"/>
<path d="M48.22 193.584C48.22 193.584 29.2836 237.611 17.9218 229.09C7.03345 220.095 61.9488 168.494 48.22 193.584Z" fill="#AABCA6"/>
<path d="M28.8103 85.6473C28.8103 85.6473 5.61335 131.568 0.405859 120.206C-4.80163 108.844 42.0658 62.9237 28.8103 85.6473Z" fill="#AABCA6"/>
<path d="M195.45 97.9559C195.45 97.9559 171.306 148.137 163.258 143.403C155.21 138.196 204.918 71.9185 195.45 97.9559Z" fill="#AABCA6"/>
<path d="M121.598 197.845C121.598 197.845 94.614 252.76 79.9383 239.978C65.2627 227.196 139.114 158.079 121.598 197.845Z" fill="#AABCA6"/>
<path d="M181.721 7.06161C181.721 7.06161 159.471 56.296 152.843 41.147C145.742 25.5245 194.503 -16.6088 181.721 7.06161Z" fill="#AABCA6"/>
<path d="M75.2044 144.35C75.2044 144.35 50.5872 184.116 46.3265 171.807C42.0658 159.972 85.6194 123.046 75.2044 144.35Z" fill="#AABCA6"/>
<path d="M166.099 173.228C166.099 173.228 150.003 208.733 141.481 199.739C132.96 190.744 176.987 150.504 166.099 173.228Z" fill="#AABCA6"/>
</svg>
