<?xml version="1.0" encoding="UTF-8"?>
<svg width="1870px" height="809px" viewBox="0 0 1870 809" version="1.1" xmlns="http://www.w3.org/2000/svg" xmlns:xlink="http://www.w3.org/1999/xlink">
    <!-- Generator: Sketch 63.1 (92452) - https://sketch.com -->
    <title>Lines</title>
    <desc>Created with Sketch.</desc>
    <defs>
        <polygon id="path-1" points="-1.65145675e-15 0.755339278 1870 0.755339278 1870 809 0 806.755339"></polygon>
    </defs>
    <g id="Page-1" stroke="none" stroke-width="1" fill="none" fill-rule="evenodd">
        <g id="Lines" transform="translate(0.000000, -0.755339)">
            <mask id="mask-2" fill="white">
                <use xlink:href="#path-1"></use>
            </mask>
            <use id="Mask" fill="#EBF2FE" xlink:href="#path-1"></use>
            <path d="M1123.71,446.442339 C1118.63,522.995339 1129.07,592.469339 1171.64,616.122339 C1247.77,658.422339 1413.63,547.080339 1468.79,407.497339 C1536.03,237.329339 1427.07,85.6893393 1372.19,28.2113393 C1243.7,-106.363661 991.357,-172.494661 821.753,-35.1036607 C646.256,107.055339 676.461,372.131339 765.692,524.177339 C871.511,704.488339 1116.85,822.198339 1334.33,725.271339 C1577.08,617.081339 1702.53,278.397339 1557.24,81.1213393 C1429.81,-91.8966607 1128.87,-109.071661 961.834,42.8753393 C768.146,219.065339 865.226,513.745339 894.375,587.975339 C997.114,849.609339 1322.09,1093.40534 1601.52,967.289339 C1782.36,885.668339 1931.1,654.848339 1882.43,426.300339 C1850.84,277.943339 1740.62,153.771339 1593.49,105.915339 C1426.11,51.4673393 1183.12,87.1273393 1075.27,270.140339 C954.732,474.662339 1068.2,752.708339 1268.36,832.687339 C1373.49,874.693339 1493.13,858.393339 1597.93,808.366339" stroke="#030F27" opacity="0.1" mask="url(#mask-2)"></path>
        </g>
    </g>
</svg>