<svg width="203" height="210" viewBox="0 0 203 210" fill="none" xmlns="http://www.w3.org/2000/svg">
<path d="M87.5556 209.856C75.6556 209.856 64.1556 204.656 54.6556 200.356C32.4556 190.356 10.1556 178.656 2.55558 156.556C-4.44442 136.156 4.15558 114.456 13.6556 93.9557L45.6556 24.2558C54.6556 4.55575 65.9556 -19.9442 86.4556 -33.9442C114.956 -53.3442 156.656 -56.5442 187.756 -41.7442C211.456 -30.4442 225.656 -10.2442 227.856 15.2558C229.956 40.0558 222.256 66.3558 203.556 98.2558C182.356 134.356 155.356 166.256 123.256 193.056C115.056 199.956 105.256 207.456 93.4556 209.256C91.5556 209.756 89.5556 209.856 87.5556 209.856ZM88.8556 -30.3442C69.2556 -16.9442 58.3556 6.85575 49.5556 26.0558L17.5556 95.7558C8.45558 115.456 0.255576 136.356 6.65558 155.156C13.6556 175.556 35.0556 186.756 56.4556 196.356C66.9556 201.156 80.1556 207.056 92.8556 205.056C103.556 203.356 112.756 196.256 120.556 189.756C152.256 163.256 178.956 131.756 199.856 96.0558C218.056 65.0558 225.556 39.4557 223.556 15.6558C221.556 -8.24425 208.156 -27.2442 185.856 -37.8442C156.056 -51.9442 116.156 -48.8442 88.8556 -30.3442Z" fill="#AABCA6"/>
<path d="M90.9555 192.956C80.6555 192.956 70.6555 188.456 62.4555 184.756C43.1555 176.056 23.6555 165.856 17.1555 146.756C11.1555 129.156 18.6555 110.256 26.7555 92.3558L54.6555 31.4558C62.5555 14.3558 72.2555 -7.04417 90.1555 -19.2442C114.956 -36.1442 151.156 -38.9442 178.256 -26.0442C198.856 -16.2442 211.156 1.35583 213.056 23.3558C214.856 44.8558 208.156 67.8558 191.956 95.5558C173.456 127.056 149.956 154.856 121.956 178.356C114.856 184.356 106.356 190.856 96.1555 192.456C94.3555 192.856 92.6555 192.956 90.9555 192.956ZM140.856 -31.1442C123.356 -31.1442 105.756 -26.2442 91.8555 -16.7442C74.5555 -5.14417 64.9555 15.8558 57.2555 32.6558L29.3555 93.5558C21.4555 110.856 14.1555 129.156 19.8555 145.856C26.0555 163.856 44.8555 173.656 63.6555 182.156C72.9555 186.356 84.4555 191.556 95.7555 189.756C105.256 188.256 113.356 182.056 120.156 176.256C147.956 153.056 171.256 125.456 189.556 94.2558C205.456 67.0558 212.056 44.6558 210.356 23.7558C208.556 2.75582 196.756 -14.0442 177.156 -23.3442C166.056 -28.6442 153.456 -31.1442 140.856 -31.1442Z" fill="#AABCA6"/>
</svg>
