<svg width="258" height="138" viewBox="0 0 258 138" fill="none" xmlns="http://www.w3.org/2000/svg">
<path d="M105.116 -112C163.449 -88.2763 220.359 -70.0091 271.104 -41.4616C299.084 -25.6458 317.896 7.01384 339.158 33.4262C357.812 56.4382 349.908 87.9906 323.904 102.937C315.279 107.377 306.889 112.26 298.768 117.566C261.144 144.295 237.274 144.849 201.389 116.38C187.32 105.309 175.147 101.513 159.102 111.319C152.865 115.895 145.124 117.93 137.444 117.013C99.5834 103.569 56.98 104.202 24.2568 74.7054C12.0945 64.7238 3.87484 50.7417 1.06592 35.2563C-1.74301 19.771 1.04169 3.79079 8.92268 -9.82999C23.3873 -36.1633 34.2951 -65.1852 53.107 -87.8809C64.4099 -101.008 87.8062 -104.487 105.116 -112Z" fill="#DFE7E9"/>
</svg>
