<svg width="131" height="106" viewBox="0 0 131 106" fill="none" xmlns="http://www.w3.org/2000/svg">
<path d="M130.069 5.82068V105.784H107.047V59.892L107.804 29.1455H107.502L82.8135 105.784H61.7606L37.0725 29.1455H36.7696L37.5269 59.892V105.784H14.3535V5.82068H51.4613L67.2131 56.7113L72.8172 77.9157H73.1201L78.8756 56.8628L94.476 5.82068H130.069Z" fill="#222222"/>
<path d="M120.417 3.03625V1.54886H118.93H83.3368H82.236L81.9143 2.6015L66.3139 53.6436L66.3074 53.6648L66.3016 53.6861L61.8511 69.9655L57.5119 53.5468L57.504 53.5168L57.4948 53.4871L41.7429 2.59646L41.4187 1.54886H40.322H3.21429H1.7269V3.03625V103V104.487H3.21429H26.3877H27.8751V103V57.1076V57.0892L27.8746 57.0709L27.3457 35.5966L49.2056 103.456L49.5378 104.487H50.6213H71.6743H72.7578L73.0901 103.456L94.9499 35.5965L94.421 57.0709L94.4206 57.0892V57.1076V103V104.487H95.908H118.93H120.417V103V3.03625Z" fill="white" stroke="black" stroke-width="2.97478"/>
</svg>
