<?xml version="1.0" encoding="UTF-8"?>
<svg width="1920px" height="767px" viewBox="0 0 1920 767" version="1.1" xmlns="http://www.w3.org/2000/svg" xmlns:xlink="http://www.w3.org/1999/xlink">
    <!-- Generator: Sketch 63.1 (92452) - https://sketch.com -->
    <title>BG</title>
    <desc>Created with Sketch.</desc>
    <g id="Page-1" stroke="none" stroke-width="1" fill="none" fill-rule="evenodd">
        <g id="BG">
            <rect id="path-1" fill="#03056B" fill-rule="nonzero" x="0" y="1" width="1920" height="765"></rect>
            <path d="M1920,0.99346049 L1920,766 L1135.39906,766.010395 C986.982753,640.911724 899.758578,473.602402 909.159414,294.223781 C914.797624,186.640319 954.548386,87.007563 1020.12969,0.99346049 L1920,0.99346049 Z" id="Path" fill="#7703EF"></path>
            <path d="M1920,0.998646924 L1920,766 L1610.83938,766.013322 C1575.23314,737.790202 1543.90217,704.35831 1517.8799,665.778705 C1390.8713,477.480722 1424.93547,217.865504 1581.64337,0.998646924 L1920,0.998646924 Z" id="Path" fill="#21C9F2"></path>
            <path d="M0,484 C12.6666667,547.333333 45.3333333,605.333333 98,658 C150.666667,710.666667 212,746.666667 282,766 L0,766 L0,484 Z" id="Rectangle" fill="#21C9F2" fill-rule="nonzero"></path>
        </g>
    </g>
</svg>