<?xml version="1.0" encoding="UTF-8"?>
<svg version="1.1" viewBox="0 0 1909 919" xmlns="http://www.w3.org/2000/svg" xmlns:xlink="http://www.w3.org/1999/xlink">
<title>BG-payss</title>
<desc>Created with Sketch.</desc>
<defs>
<polygon id="a" points="0.993 918 0.993 0 1908 0 1908 918"/>
<linearGradient id="c" x1="100%" x2="0%" y1="48.66%" y2="48.66%">
<stop stop-color="#FB527A" offset="0"/>
<stop stop-color="#5798FE" offset="1"/>
</linearGradient>
</defs>
<g fill="none" fill-rule="evenodd">
<mask id="b" fill="white">
<use xlink:href="#a"/>
</mask>
<use fill="#F5F4F8" xlink:href="#a"/>
<circle cx="948.5" cy="924.5" r="319.5" fill="url(#c)" fill-rule="nonzero" mask="url(#b)"/>
<path id="Combined-Shape" d="m334.01-178c54.701 0 99.045 44.285 99.045 98.913 0 47.853-34.027 87.769-79.236 96.934v162.22c21.811 4.4216 41.02 16.001 55.06 32.176l147.76-82.999c-3.0708-9.545-4.7291-19.722-4.7291-30.286 0-10.565 1.6585-20.743 4.7297-30.288l-94.342-52.989 19.421-34.485 94.368 53.003c18.161-20.921 44.967-34.154 74.868-34.154 54.701 0 99.045 44.285 99.045 98.913 0 54.628-44.344 98.913-99.045 98.913-29.902 0-56.709-13.233-74.87-34.156l-147.76 83c3.0708 9.545 4.7291 19.722 4.7291 30.286s-1.6583 20.741-4.7291 30.286l147.76 83c14.04-16.175 33.248-27.755 55.06-32.177l0.00144-100.89h39.618l4.39e-4 100.89c45.209 9.1649 79.236 49.081 79.236 96.934 0 54.628-44.344 98.913-99.045 98.913s-99.045-44.285-99.045-98.913c0-10.564 1.6583-20.741 4.7291-30.286l-147.76-82.999c-14.04 16.175-33.249 27.755-55.06 32.176v162.22c21.813 4.4221 41.024 16.003 55.064 32.181l94.36-53.01 19.424 34.483-94.34 52.999c3.0696 9.5432 4.7272 19.718 4.7272 30.28 0 54.628-44.344 98.913-99.045 98.913-54.701 0-99.045-44.285-99.045-98.913 0-47.853 34.026-87.769 79.235-96.934v-162.22c-21.816-4.4228-41.028-16.006-55.069-32.187l-147.77 83.014c3.07 9.5438 4.7278 19.72 4.7278 30.282 0 10.564-1.6583 20.741-4.7291 30.286l94.361 52.988-19.418 34.487-94.389-53.004c-18.161 20.922-44.968 34.156-74.87 34.156-54.701 0-99.045-44.285-99.045-98.913 0-54.628 44.344-98.913 99.045-98.913 29.904 0 56.712 13.235 74.873 34.159l147.77-83.017c-3.0679-9.5409-4.7246-19.713-4.7246-30.272s1.6567-20.731 4.7246-30.272l-147.77-83.017c-14.04 16.177-33.25 27.758-55.062 32.18l-0.0014396 100.89h-39.618l-4.3883e-4 -100.89c-45.209-9.1649-79.236-49.081-79.236-96.934 0-54.628 44.344-98.913 99.045-98.913s99.045 44.285 99.045 98.913c0 10.563-1.6578 20.738-4.7278 30.282l147.77 83.014c14.041-16.181 33.253-27.764 55.069-32.187v-162.22c-21.817-4.423-41.029-16.007-55.07-32.189l-94.373 53.018-19.424-34.483 94.357-53.009c-3.0675-9.5403-4.7239-19.712-4.7239-30.27 0-54.628 44.344-98.913 99.045-98.913zm0 751.74c-32.821 0-59.427 26.571-59.427 59.348 0 32.777 26.606 59.348 59.427 59.348 32.821 0 59.427-26.571 59.427-59.348 0-32.777-26.606-59.348-59.427-59.348zm-316.96-178.04c-32.821 0-59.427 26.571-59.427 59.348 0 32.777 26.606 59.348 59.427 59.348 32.821 0 59.427-26.571 59.427-59.348 0-32.777-26.606-59.348-59.427-59.348zm633.91 0c-32.821 0-59.427 26.571-59.427 59.348 0 32.777 26.606 59.348 59.427 59.348s59.427-26.571 59.427-59.348c0-32.777-26.606-59.348-59.427-59.348zm-316.94-178.04c-32.821 0-59.427 26.571-59.427 59.348s26.606 59.348 59.427 59.348c32.821 0 59.427-26.571 59.427-59.348s-26.606-59.348-59.427-59.348zm-316.96-178.04c-32.821 0-59.427 26.571-59.427 59.348 0 32.777 26.606 59.348 59.427 59.348 32.821 0 59.427-26.571 59.427-59.348 0-32.777-26.606-59.348-59.427-59.348zm633.91 0c-32.821 0-59.427 26.571-59.427 59.348 0 32.777 26.606 59.348 59.427 59.348s59.427-26.571 59.427-59.348c0-32.777-26.606-59.348-59.427-59.348zm-316.94-178.04c-32.821 0-59.427 26.571-59.427 59.348 0 32.777 26.606 59.348 59.427 59.348 32.821 0 59.427-26.571 59.427-59.348 0-32.777-26.606-59.348-59.427-59.348z" fill="#F0EEF5" fill-rule="nonzero" mask="url(#b)"/>
<g transform="translate(273 70)" fill-rule="nonzero">
<circle cx="1213" cy="509.03" r="64.03" fill="#fff"/>
<path id="Combined-Shape" d="m1243 532.65c0 4.9096-7.6369 8.3478-16.857 8.3478-9.0612 0-16.593-3.3207-16.85-8.0952l-0.00678-0.25262 5.6e-4 -1.069c-2.5216 0.69468-5.416 1.069-8.4291 1.069-9.0612 0-16.593-3.3207-16.85-8.0952l-0.00678-0.25262v-38.957l0.00453-0.20658c0.21089-4.7996 7.7617-8.1412 16.853-8.1412 9.2208 0 16.857 3.4378 16.857 8.3478v9.7391c0 0.37558-0.0447 0.74255-0.13137 1.1 2.5165-0.70845 5.448-1.1 8.5599-1.1 9.2208 0 16.857 3.4378 16.857 8.3478v29.217zm-16.857-1.3913c-5.8219 0-11.013-1.3708-14.048-3.6173l3.2e-4 5.0086c0 2.7736 6.2007 5.5652 14.048 5.5652 7.693 0 13.804-2.6833 14.04-5.4021l0.00712-0.16315 8.5e-4 -5.0091c-3.0353 2.2467-8.2262 3.6177-14.048 3.6177zm-25.286-8.3478c-5.8223 0-11.013-1.371-14.049-3.6179l1e-3 5.0092c0 2.7736 6.2007 5.5652 14.048 5.5652 3.0803 0 6.0054-0.42454 8.4292-1.1894l-5.4e-4 -6.8362c-2.5209 0.6947-5.4154 1.0691-8.4287 1.0691zm25.286-1.3913c-5.8219 0-11.013-1.3708-14.048-3.6173l3.2e-4 5.0086c0 2.7736 6.2007 5.5652 14.048 5.5652 7.693 0 13.804-2.6833 14.04-5.4021l0.00712-0.16315 8.5e-4 -5.009c-3.0353 2.2467-8.2262 3.6177-14.048 3.6177zm-39.334-11.966 1e-3 5.0092c0 2.7736 6.2007 5.5652 14.048 5.5652 3.0808 0 6.0063-0.4247 8.4291-1.1897l-1e-5 -6.8359c-2.5216 0.69468-5.416 1.069-8.4291 1.069-5.8223 0-11.013-1.371-14.049-3.6179zm53.382-1.3904c-3.0353 2.2464-8.2257 3.6169-14.048 3.6169-5.822 0-11.012-1.3705-14.048-3.6168l2e-5 5.0081c0 2.7736 6.2007 5.5652 14.048 5.5652 7.693 0 13.804-2.6833 14.04-5.4021l0.00712-0.16315zm-53.382-8.3487 1e-3 5.0092c0 2.7736 6.2007 5.5652 14.048 5.5652 3.0803 0 6.0054-0.42454 8.4292-1.1894l-6.7e-4 -5.7671 0.00453-0.20658c0.01335-0.3037 0.05608-0.60156 0.12673-0.8931-2.5166 0.70806-5.4481 1.0997-8.5598 1.0997-5.8223 0-11.013-1.3711-14.049-3.6179zm39.334-1.9474c-7.8474 0-14.048 2.7913-14.048 5.5652 0 2.774 6.2002 5.5652 14.048 5.5652s14.048-2.7913 14.048-5.5652c0-2.774-6.2002-5.5652-14.048-5.5652zm-11.238-7.7907c-3.0353 2.2463-8.2256 3.6168-14.048 3.6168-5.8221 0-11.013-1.3706-14.048-3.6169l1.8e-4 5.0083c0 2.7736 6.2007 5.5652 14.048 5.5652 7.693 0 13.804-2.6833 14.04-5.4021l0.00712-0.16315zm-14.048-10.296c-7.8474 0-14.048 2.7913-14.048 5.5652s6.2002 5.5652 14.048 5.5652 14.048-2.7913 14.048-5.5652-6.2002-5.5652-14.048-5.5652z" fill="#FF9728"/>
<circle cx="343.03" cy="561.03" r="64.031" fill="#fff"/>
<path id="Combined-Shape" d="m363.87 531c5.0247 0 9.1304 4.1057 9.1304 9.1304 0 4.5822-3.4145 8.4002-7.8266 9.0371l4.92e-4 36.615c0 2.9378-2.2796 5.2174-5.2174 5.2174h-33.913c-2.9378 0-5.2174-2.2796-5.2174-5.2174l4.05e-4 -36.615c-4.4121-0.63692-7.8265-4.4549-7.8265-9.0371 0-4.92 3.9364-8.959 8.8176-9.1251l0.31282-0.005317h41.739zm-40.435 54.783c0 1.429 1.0129 2.5068 2.407 2.6019l0.20168 0.006822 5.2165-3.07e-4v-46.957l-7.8252 7.83e-4zm18.26-44.349h-7.826v46.957h7.826v-46.957zm20.87 7.83e-4 -18.261-7.83e-4v46.957l15.653 3.07e-4c1.4394 0 2.5226-1.0278 2.6038-2.4377l0.004892-0.17098v-44.348zm-7.8261 23.478v15.652h-2.6087v-15.652h2.6087zm9.1304-31.304h-41.739c-3.584 0-6.5217 2.9378-6.5217 6.5217 0 3.1379 2.2519 5.7804 5.2179 6.3896l-4.99e-4 -7.694h44.348l1.29e-4 7.6938c2.9656-0.60946 5.2173-3.2518 5.2173-6.3895 0-3.4897-2.7852-6.3667-6.2402-6.5157l-0.28156-0.006061z" fill="url(#c)"/>
<circle cx="64.031" cy="204.03" r="64.031" fill="#fff"/>
<path id="d" d="m50.865 175.71-2.1438 15.007-5.6201-5.6202c-7.276 8.0393-9.3185 19.596-5.1372 29.691 4.2916 10.361 14.308 17.175 25.485 17.392l0.55062 0.005345v2.8182c-12.538 0-23.841-7.5531-28.639-19.137-4.6176-11.148-2.3349-23.917 5.7457-32.764l-5.2475-5.2477 15.006-2.1438zm13.135-2.7076c12.538 0 23.841 7.5531 28.639 19.137 4.6176 11.148 2.3349 23.917-5.7457 32.764l5.2475 5.2477-15.006 2.1438 2.1438-15.007 5.6201 5.6202c7.276-8.0393 9.3185-19.596 5.1372-29.691-4.2916-10.361-14.308-17.175-25.485-17.392l-0.55062-0.005345v-2.8182zm17.27 50.264-0.81445 5.7082 5.7068-0.81586-4.8923-4.8924zm-15.861-38.991 3.902e-4 4.3946c2.7511 0.21272 5.5354 0.89619 7.3855 1.817l0.33808 0.17668 1.2349 0.67855-1.3571 2.4699-1.2349-0.67855c-1.4324-0.78703-3.9018-1.4203-6.3668-1.6358l0.0012572 10.866c5.6875 1.9628 7.8374 3.6072 7.8374 7.5913 0 4.5576-2.8375 7.2401-7.4575 7.9328l-0.38126 0.051244 8.08e-5 5.7913h-2.8182l-1.46e-4 -5.6689c-2.7482-0.075783-5.7876-0.66502-8.6769-1.646l-0.6085-0.21319-1.3252-0.47883 0.95765-2.6505 1.3252 0.47883c2.7754 1.0028 5.7345 1.6077 8.3279 1.6902l-0.0014269-10.855c-6.0906-2.0965-8.5728-4.0596-8.5728-8.657 0-4.4032 3.2939-6.7263 8.2843-7.0829l0.28903-0.017317 9.192e-4 -4.3543h2.8182zm0.0017032 21.078-0.001784 9.74 0.24611-0.039003c3.1585-0.54938 4.7745-2.1611 4.7745-5.1 0-2.1238-1.2103-3.2044-5.0189-4.601zm-2.909-13.896c-3.6934 0.26392-5.667 1.6559-5.667 4.2719 0 2.7536 1.4673 4.0978 5.7549 5.6676l3.77e-4 -9.9455c-0.029502 0.001927-0.058936 0.003939-0.088301 0.006037zm-14.958-12.427-5.7068 0.81445 4.8923 4.8924 0.81445-5.7068z" fill="#FB486F"/>
<circle cx="1404.1" cy="54.06" r="54.06" fill="#fff"/>
<path d="m1404 24c16.569 0 30 13.431 30 30s-13.431 30-30 30-30-13.431-30-30 13.431-30 30-30zm0 2.6087c-15.128 0-27.391 12.264-27.391 27.391s12.264 27.391 27.391 27.391 27.391-12.264 27.391-27.391-12.264-27.391-27.391-27.391zm10.435 31.304c3.6019 0 6.5217 2.9199 6.5217 6.5217s-2.9199 6.5217-6.5217 6.5217c-3.6018 0-6.5217-2.9199-6.5217-6.5217s2.9199-6.5217 6.5217-6.5217zm0 2.6087c-2.1611 0-3.913 1.7519-3.913 3.913s1.7519 3.913 3.913 3.913c2.1611 0 3.913-1.7519 3.913-3.913s-1.7519-3.913-3.913-3.913zm3.913-20.87v13.043h-2.6087l-1.3e-4 -8.5917-21.251 21.253-1.8446-1.8446 21.252-21.252-8.5906 8.696e-4v-2.6087h13.043zm-24.783-2.6087c3.6018 0 6.5217 2.9199 6.5217 6.5217s-2.9199 6.5217-6.5217 6.5217c-3.6019 0-6.5217-2.9199-6.5217-6.5217s2.9199-6.5217 6.5217-6.5217zm0 2.6087c-2.1611 0-3.913 1.7519-3.913 3.913s1.7519 3.913 3.913 3.913c2.1611 0 3.913-1.7519 3.913-3.913s-1.7519-3.913-3.913-3.913z" fill="#5798FE"/>
</g>
<g transform="translate(117 243)">
<path d="m1777.5 22.763c-6.97 7-12.91 7-19.88 0-4.55-4.569-8.43-4.569-12.97 0-6.91 6.932-12.54 6.932-19.44 0-4.6-4.619-7.7-4.619-12.3 0l-1.9-3.387c5.59-5.614 10.29-5.838 16.1 0 5.47 5.5 9.51 6.153 15.64 0 5.81-5.838 11.21-5.575 16.76 0 5.7 5.725 10.17 5.949 16.09 0 5.82-5.838 9.62-5.838 15.43 0l-1.9 3.387c-4.67-4.696-6.96-4.696-11.63 0z" fill="#FF9728"/>
<path d="m1074.5 322.76c-6.97 7-12.91 7-19.88 0-4.55-4.568-8.43-4.568-12.97 0-6.91 6.933-12.54 6.933-19.44 0-4.6-4.618-7.7-4.618-12.3 0l-1.9-3.387c5.59-5.612 10.29-5.837 16.1 0 5.47 5.5 9.51 6.154 15.64 0 5.81-5.837 11.21-5.574 16.76 0 5.7 5.726 10.17 5.951 16.09 0 5.82-5.837 9.62-5.837 15.43 0l-1.9 3.387c-4.67-4.695-6.96-4.695-11.63 0z" fill="#5798FE"/>
<path d="m1120.5 122.76c-6.97 7-12.91 7-19.88 0-4.55-4.568-8.43-4.568-12.97 0-6.91 6.932-12.54 6.932-19.44 0-4.6-4.619-7.7-4.619-12.3 0l-1.9-3.387c5.59-5.614 10.29-5.838 16.1 0 5.47 5.5 9.51 6.153 15.64 0 5.81-5.838 11.21-5.575 16.76 0 5.7 5.725 10.17 5.95 16.09 0 5.82-5.838 9.62-5.838 15.43 0l-1.9 3.387c-4.67-4.696-6.96-4.696-11.63 0z" fill="#FB486F"/>
<path d="m241.48 391.76c-6.968 7-12.914 7-19.884 0-4.545-4.568-8.425-4.568-12.968 0-6.9 6.933-12.536 6.933-19.439 0-4.6-4.618-7.7-4.618-12.3 0l-1.9-3.386c5.588-5.614 10.283-5.838 16.092 0 5.476 5.5 9.518 6.153 15.646 0 5.809-5.838 11.21-5.575 16.761 0 5.7 5.725 10.17 5.95 16.091 0 5.813-5.838 9.612-5.838 15.422 0l-1.9 3.386c-4.663-4.695-6.947-4.695-11.621 0z" fill="#FF9728"/>
<circle cx="1467.5" cy="449.5" r="7.5" fill="#3A3161" fill-opacity="0" fill-rule="nonzero" stroke="#3A3161" stroke-linejoin="round" stroke-width="2"/>
<circle cx="1287.5" cy="7.5" r="7.5" fill="#3A3161" fill-opacity="0" fill-rule="nonzero" stroke="#3A3161" stroke-linejoin="round" stroke-width="2"/>
<circle cx="7.5" cy="215.5" r="7.5" fill="#3A3161" fill-opacity="0" fill-rule="nonzero" stroke="#FB486F" stroke-linejoin="round" stroke-width="2"/>
</g>
</g>
</svg>
