<?xml version="1.0" encoding="UTF-8"?>
<svg width="98px" height="46px" viewBox="0 0 98 46" version="1.1" xmlns="http://www.w3.org/2000/svg" xmlns:xlink="http://www.w3.org/1999/xlink">
    <!-- Generator: Sketch 63.1 (92452) - https://sketch.com -->
    <title>Logo</title>
    <desc>Created with Sketch.</desc>
    <defs>
        <linearGradient x1="0%" y1="50%" x2="100%" y2="50%" id="linearGradient-1">
            <stop stop-color="#FD7E3D" offset="0%"></stop>
            <stop stop-color="#FEB128" offset="100%"></stop>
        </linearGradient>
    </defs>
    <g id="Layout" stroke="none" stroke-width="1" fill="none" fill-rule="evenodd">
        <g id="Moon-Home" transform="translate(-319.000000, -35.000000)" fill="url(#linearGradient-1)">
            <g id="Hero">
                <g id="Header" transform="translate(302.000000, 35.000000)">
                    <g id="Branding/Logo/Dark">
                        <g id="Group-2" transform="translate(17.400000, 0.000000)">
                            <path d="M22.7861779,0 C32.9913714,0 41.6293138,6.77191775 44.5305367,16.1069881 C45.1809626,15.9669745 45.1809626,15.9669745 45.9390082,15.9669745 L45.9390082,15.9669745 L53.0877752,15.9669745 L53.3941016,15.9728455 C55.5069594,16.055039 55.5069594,16.055039 56.7398627,17.2879423 C58.0608305,18.6089101 58.0608305,18.6089101 58.0608305,20.9400298 L58.0608305,20.9400298 L58.0608305,28.0887968 L58.0549595,28.3951232 C57.972766,30.507981 57.972766,30.507981 56.7398627,31.7408843 C55.4188949,33.0618521 55.4188949,33.0618521 53.0877752,33.0618521 L53.0877752,33.0618521 L45.9390082,33.0618521 L45.6326818,33.0559811 C44.4246667,33.0089874 44.4246667,33.0089874 43.5043016,32.585836 C39.9037601,40.5024675 31.9811266,46 22.7861779,46 C10.2019912,46 1.74265681e-12,35.7027918 1.74265681e-12,23 C1.74265681e-12,10.2972082 10.2019912,0 22.7861779,0 Z M72.6691805,15.9669745 L72.9755068,15.9728455 C75.0883646,16.055039 75.0883646,16.055039 76.3212679,17.2879423 C77.6422358,18.6089101 77.6422358,18.6089101 77.6422358,20.9400298 L77.6422358,20.9400298 L77.6422358,28.0887968 L77.6363648,28.3951232 C77.5541712,30.507981 77.5541712,30.507981 76.3212679,31.7408843 C75.0003001,33.0618521 75.0003001,33.0618521 72.6691805,33.0618521 L72.6691805,33.0618521 L65.5204135,33.0618521 L65.2140871,33.0559811 C63.1012293,32.9737876 63.1012293,32.9737876 61.868326,31.7408843 C60.5473582,30.4199165 60.5473582,30.4199165 60.5473582,28.0887968 L60.5473582,28.0887968 L60.5473582,20.9400298 L60.5532291,20.6337034 C60.6354227,18.5208456 60.6354227,18.5208456 61.868326,17.2879423 C63.1892938,15.9669745 63.1892938,15.9669745 65.5204135,15.9669745 L65.5204135,15.9669745 L72.6691805,15.9669745 Z M92.5614017,15.9669745 L92.8394783,15.9726383 C94.7599065,16.0519309 94.7599065,16.0519309 95.9492956,17.2413199 C97.223641,18.5156653 97.223641,18.5156653 97.223641,20.6292138 L97.223641,20.6292138 L97.223641,32.7510361 L91.7843618,32.7510361 L91.7843618,21.5616617 L91.7780186,21.4316265 C91.7399595,21.0510355 91.7399595,21.0510355 91.4735458,20.7846218 C91.1627299,20.4738059 91.1627299,20.4738059 90.6965059,20.4738059 L90.6965059,20.4738059 L89.6086501,20.4738059 L89.2748337,20.4800222 C87.7530788,20.5359691 87.7530788,20.5359691 85.8788586,21.0954378 L85.8788586,21.0954378 L85.8788586,32.7510361 L80.4395794,32.7510361 L80.4395794,16.2777905 L85.2572267,16.2777905 L85.5680426,17.8318702 L85.9344655,17.5990011 C87.221195,16.8120054 87.221195,16.8120054 88.5674166,16.4176576 C90.1059556,15.9669745 90.1059556,15.9669745 91.1627299,15.9669745 L91.1627299,15.9669745 L92.5614017,15.9669745 Z M20.8631309,15.0545455 L20.5555175,15.0545455 C19.8582606,15.0545455 19.0020701,15.2042649 17.9869461,15.5037037 C17.0987126,15.7657127 16.2301054,16.1581615 15.3811246,16.6810501 L15.0184773,16.9131313 L14.710864,15.3643098 L9.94285714,15.3643098 L9.94285714,31.7818182 L15.3260907,31.7818182 L15.3260907,20.1656566 C16.6419922,19.7870557 17.7424932,19.5819803 18.6275936,19.5504302 L18.8636441,19.5461279 L19.0174508,19.5461279 C19.3250642,19.5461279 19.5814086,19.6493827 19.7864842,19.8558923 C19.9622632,20.0329004 20.0627084,20.2478389 20.0878197,20.5007078 L20.0940975,20.630303 L20.0940975,31.7818182 L25.4773311,31.7818182 L25.4773311,20.1656566 C26.7932326,19.7870557 27.8937336,19.5819803 28.778834,19.5504302 L29.0148845,19.5461279 L29.1686912,19.5461279 C29.4763045,19.5461279 29.732649,19.6493827 29.9377246,19.8558923 C30.1135036,20.0329004 30.2139488,20.2478389 30.2390601,20.5007078 L30.2453379,20.630303 L30.2453379,31.7818182 L35.6285714,31.7818182 L35.6285714,19.7010101 C35.6285714,18.2967452 35.2081665,17.1712682 34.3673567,16.3245791 C33.5826009,15.534336 32.5566762,15.1128729 31.2895827,15.06019 L31.0143713,15.0545455 L30.7067579,15.0545455 C29.8454405,15.0545455 28.8662047,15.2042649 27.7690505,15.5037037 C26.6718962,15.8031425 25.6516453,16.2729517 24.7082977,16.9131313 C23.8560948,15.7429106 22.6654856,15.1252941 21.13647,15.0602818 L20.8631309,15.0545455 Z M51.3782874,20.1629899 L47.648496,20.1629899 L47.4979445,20.1678464 C46.4052321,20.2406939 46.4052321,20.2406939 46.4052321,21.4062537 L46.4052321,21.4062537 L46.4052321,27.6225729 L46.4100886,27.7731243 C46.4829361,28.8658367 46.4829361,28.8658367 47.648496,28.8658367 L47.648496,28.8658367 L51.3782874,28.8658367 C52.6215513,28.8658367 52.6215513,28.8658367 52.6215513,27.6225729 L52.6215513,27.6225729 L52.6215513,21.4062537 L52.6166948,21.2557023 C52.5438473,20.1629899 52.5438473,20.1629899 51.3782874,20.1629899 L51.3782874,20.1629899 Z M70.9596927,20.1629899 L67.2299012,20.1629899 L67.0793497,20.1678464 C65.9866374,20.2406939 65.9866374,20.2406939 65.9866374,21.4062537 L65.9866374,21.4062537 L65.9866374,27.6225729 L65.9914939,27.7731243 C66.0643414,28.8658367 66.0643414,28.8658367 67.2299012,28.8658367 L67.2299012,28.8658367 L70.9596927,28.8658367 C72.2029565,28.8658367 72.2029565,28.8658367 72.2029565,27.6225729 L72.2029565,27.6225729 L72.2029565,21.4062537 L72.1981,21.2557023 C72.1252525,20.1629899 72.1252525,20.1629899 70.9596927,20.1629899 L70.9596927,20.1629899 Z" id="Combined-Shape"></path>
                        </g>
                    </g>
                </g>
            </g>
        </g>
    </g>
</svg>