<svg width="153" height="158" viewBox="0 0 153 158" fill="none" xmlns="http://www.w3.org/2000/svg">
<path d="M90.4001 9.48755C103.743 9.48755 115.49 11.5905 125.642 15.7963C135.939 19.8572 144.859 25.8759 152.4 33.8526L134.344 58C128.108 51.4737 121.364 46.6152 114.113 43.4245C107.006 40.0888 98.8844 38.421 89.7475 38.421C81.7709 38.421 76.0422 39.7263 72.5615 42.3368C69.0807 44.9473 67.3404 48.138 67.3404 51.9088C67.3404 54.9544 68.7182 57.5649 71.4737 59.7404C74.3743 61.7708 79.0153 63.5111 85.3966 64.9614L109.544 70.4001C123.902 73.7357 134.417 78.5942 141.088 84.9756C147.759 91.3569 151.095 99.8411 151.095 110.428C151.095 120.58 148.485 129.21 143.263 136.316C138.042 143.278 130.863 148.571 121.727 152.197C112.59 155.678 102.148 157.418 90.4001 157.418C75.8971 157.418 62.6269 155.097 50.5894 150.456C38.552 145.671 28.98 139.434 21.8736 131.748L39.9298 106.73C45.2959 112.966 52.5474 118.187 61.6842 122.393C70.8211 126.454 80.248 128.484 89.965 128.484C105.048 128.484 112.59 124.061 112.59 115.214C112.59 112.169 111.429 109.631 109.109 107.6C106.934 105.425 102.873 103.612 96.9265 102.162L70.386 96.2879C62.2644 94.5475 55.0129 92.082 48.6315 88.8914C42.3953 85.7007 37.4643 81.4948 33.8385 76.2738C30.2128 70.9077 28.3999 64.2363 28.3999 56.2597C28.3999 47.2678 30.8654 39.2912 35.7964 32.3297C40.7274 25.2233 47.8339 19.6396 57.1158 15.5788C66.3977 11.518 77.4925 9.48755 90.4001 9.48755Z" fill="#222222"/>
<path d="M138.111 30.8895L139.188 29.4492L137.953 28.1424C130.198 19.9408 121.022 13.7479 110.443 9.57326C99.9867 5.24432 87.9576 3.10875 74.4001 3.10875C61.2755 3.10875 49.8746 5.17253 40.2595 9.37912C30.6819 13.5693 23.2395 19.3815 18.0471 26.8609C12.8501 34.2015 10.2635 42.612 10.2635 52.0172C10.2635 60.3206 12.1537 67.4337 16.0683 73.2274L16.076 73.2387L16.0838 73.2499C19.9298 78.7882 25.142 83.2168 31.6585 86.5508L31.6673 86.5553L31.6761 86.5597C38.2406 89.8419 45.6647 92.361 53.9317 94.133C53.9339 94.1334 53.9362 94.1339 53.9384 94.1344L80.4422 100C86.3042 101.432 89.863 103.133 91.5983 104.868L91.6486 104.919L91.7022 104.966C93.5656 106.596 94.4533 108.551 94.4533 110.972C94.4533 114.648 92.9601 117.259 89.8527 119.082C86.5688 121.008 81.3677 122.106 73.965 122.106C64.5604 122.106 55.4328 120.144 46.565 116.204C37.652 112.1 30.6735 107.049 25.5491 101.094L23.7826 99.0411L22.1975 101.237L4.14125 126.255L3.11839 127.672L4.30488 128.956C11.6731 136.925 21.535 143.323 33.8001 148.199L33.8105 148.203L33.8209 148.207C46.1321 152.954 59.6668 155.312 74.4001 155.312C86.3565 155.312 97.0639 153.541 106.487 149.951L106.501 149.946L106.515 149.94C115.969 146.188 123.486 140.671 128.973 133.355L128.979 133.347L128.985 133.339C134.515 125.812 137.231 116.721 137.231 106.186C137.231 95.1092 133.721 86.034 126.565 79.1893C119.498 72.4295 108.557 67.4523 94.0275 64.0767L94.0205 64.0751L94.0135 64.0735L69.8701 58.6358C69.8692 58.6356 69.8684 58.6354 69.8675 58.6352C63.6091 57.2126 59.3111 55.5585 56.7493 53.7829C54.4531 51.953 53.4768 49.9374 53.4768 47.6663C53.4768 44.6776 54.8063 42.0812 57.8433 39.8034C60.7542 37.6203 65.8972 36.3149 73.7475 36.3149C82.6217 36.3149 90.4253 37.9338 97.2048 41.116L97.2283 41.1271L97.2521 41.1375C104.213 44.2002 110.731 48.8823 116.8 55.2335L118.543 57.0585L120.055 55.0369L138.111 30.8895Z" fill="white" stroke="black" stroke-width="4.27273"/>
</svg>
