<svg id="Logo" xmlns="http://www.w3.org/2000/svg" width="507" height="170" viewBox="0 0 507 170">
  <defs>
    <style>
      .cls-1 {
        fill: #393d72;
      }

      .cls-1, .cls-2 {
        fill-rule: evenodd;
      }

      .cls-2 {
        fill: #ff4880;
      }
    </style>
  </defs>
  <path id="Bebio" class="cls-1" d="M37.071,83.16H54.542q9.588,0,14.275,2.52t4.687,8.46a9.808,9.808,0,0,1-5.646,9.27q-5.648,2.97-14.169,2.97-4.265,0-8.949-.27a44.463,44.463,0,0,1-7.671-.99V83.16Zm0-43.2a63.874,63.874,0,0,1,6.5-.54q4.155-.177,7.351-0.18,9.588,0,14.382,2.88T70.1,49.86a9.633,9.633,0,0,1-4.155,8.46Q61.787,61.2,52.625,61.2H37.071V39.96Zm58.913,81.99q15.66-8.547,15.66-26.37a21.935,21.935,0,0,0-7.137-16.74,38.556,38.556,0,0,0-17.791-9.18q9.373-2.7,14.914-8.55a19.589,19.589,0,0,0,5.54-13.95q0-16.2-14.7-23.94T50.494,15.48q-11.506,0-22.372.99a94.74,94.74,0,0,0-18.111,3.15A18.41,18.41,0,0,0,3.3,22.95,7.234,7.234,0,0,0,.849,28.8v84.06q0,9.361,11.719,13.14a57.072,57.072,0,0,0,9.375,2.25q5.114,0.81,10.334,1.35T42.4,130.32q4.9,0.178,8.523.18Q80.324,130.5,95.984,121.95Zm96.2,7.47a53.782,53.782,0,0,0,15.341-4.14q8.949-3.957,8.949-12.06a11.489,11.489,0,0,0-2.344-6.84,16.646,16.646,0,0,0-5.753-5.04,58.135,58.135,0,0,1-12.677,4.41,69.757,69.757,0,0,1-16.513,1.89,43.507,43.507,0,0,1-16.619-2.97q-7.246-2.97-9.588-8.91l52.628-6.66q7.24-.9,11.292-4.14t4.048-9.36a32.147,32.147,0,0,0-3.728-15.3,36.28,36.28,0,0,0-10.441-12.06,52.163,52.163,0,0,0-15.98-7.92,69.147,69.147,0,0,0-20.561-2.88,74.365,74.365,0,0,0-19.6,2.61,51.093,51.093,0,0,0-17.045,8.1,41.476,41.476,0,0,0-12.039,14.04q-4.584,8.551-4.58,20.43,0,12.061,4.58,21.06a42.183,42.183,0,0,0,12.571,14.94,56.091,56.091,0,0,0,18.75,8.91A87.407,87.407,0,0,0,176.2,130.5,127.523,127.523,0,0,0,192.181,129.42ZM182.167,63.36q4.046,3.6,4.688,7.2L150.42,75.6a17.944,17.944,0,0,1,1.385-5.67,14.981,14.981,0,0,1,3.516-5.04,18.028,18.028,0,0,1,6.072-3.69,24.532,24.532,0,0,1,8.842-1.44Q178.116,59.76,182.167,63.36Zm48.152,43.02q0,8.822,9.375,14.4a67.623,67.623,0,0,0,16.62,6.93q9.8,2.788,23.863,2.79a89.167,89.167,0,0,0,23.757-2.97,52.149,52.149,0,0,0,18.218-8.73,39.423,39.423,0,0,0,11.612-14.49,47.058,47.058,0,0,0,4.155-20.43A46.636,46.636,0,0,0,333.87,63.9a41.461,41.461,0,0,0-11.079-14.49A49.73,49.73,0,0,0,306.6,40.5a60.835,60.835,0,0,0-19.39-3.06,71.521,71.521,0,0,0-10.546.72,59.414,59.414,0,0,0-10.121,2.52V23.04a17.662,17.662,0,0,0-1.278-7.29,10.083,10.083,0,0,0-3.836-4.41,15.886,15.886,0,0,0-6.285-2.16,59.179,59.179,0,0,0-8.416-.54,72,72,0,0,0-9.588.63,67.764,67.764,0,0,0-6.819,1.17v95.94Zm41.655-.81a23.922,23.922,0,0,1-5.646-2.07V64.26a47.72,47.72,0,0,1,6.711-2.16,32.845,32.845,0,0,1,7.351-.72q9.374,0,14.915,5.58t5.54,16.92q0,11.163-5.433,16.83t-15.235,5.67A35.084,35.084,0,0,1,271.974,105.57Zm79.687-78.21q5.433,4.683,14.382,4.68t14.382-4.68a14.623,14.623,0,0,0,5.433-11.52,14.631,14.631,0,0,0-5.433-11.52q-5.433-4.679-14.382-4.68T351.661,4.32a14.629,14.629,0,0,0-5.434,11.52A14.621,14.621,0,0,0,351.661,27.36Zm32.492,26.82a16.469,16.469,0,0,0-1.385-7.29,10.805,10.805,0,0,0-3.941-4.41,15.891,15.891,0,0,0-6.286-2.16,59.169,59.169,0,0,0-8.416-.54,68.054,68.054,0,0,0-9.268.63q-4.586.633-6.925,0.99v73.26a16.41,16.41,0,0,0,1.385,7.29,10.762,10.762,0,0,0,3.942,4.41,15.864,15.864,0,0,0,6.285,2.16,59.109,59.109,0,0,0,8.416.54,68.172,68.172,0,0,0,9.269-.63q4.578-.632,6.924-0.99V54.18ZM501.766,64.8a41.561,41.561,0,0,0-11.4-14.67,53.562,53.562,0,0,0-17.578-9.36,73.415,73.415,0,0,0-22.8-3.33,75.266,75.266,0,0,0-22.8,3.24,52.28,52.28,0,0,0-17.578,9.27,41.527,41.527,0,0,0-11.4,14.67,44.826,44.826,0,0,0-4.048,19.26,45.255,45.255,0,0,0,4.048,19.44,41.5,41.5,0,0,0,11.4,14.67,52.228,52.228,0,0,0,17.578,9.27,75.266,75.266,0,0,0,22.8,3.24,79.424,79.424,0,0,0,22.8-3.06,50.752,50.752,0,0,0,17.578-9,40.491,40.491,0,0,0,11.4-14.67,46.78,46.78,0,0,0,4.048-19.89A44.443,44.443,0,0,0,501.766,64.8Zm-65.625,2.43q4.9-5.847,13.85-5.85t13.849,5.85q4.9,5.851,4.9,16.65t-4.794,16.74q-4.794,5.94-13.743,5.94t-13.956-5.85q-5.008-5.847-5.007-16.83Q431.241,73.08,436.141,67.23Z"/>
  <path id="Care" class="cls-2" d="M293.925,154.763A17.263,17.263,0,0,0,295.9,163.2q1.969,3.6,7.692,5.424h0.636a25.384,25.384,0,0,0,11.063-2.363,30.875,30.875,0,0,0,8.774-6.23,164.6,164.6,0,0,0,11.126-13,62.33,62.33,0,0,0,8.2-14.288v-0.214a3.756,3.756,0,0,0-1.653-3.008,5.516,5.516,0,0,0-3.433-1.289,6.254,6.254,0,0,0-3.56.805,5,5,0,0,0-1.717,2.095,17.6,17.6,0,0,0-.954,2.793,12.31,12.31,0,0,1-1.144,2.9q-0.257.43-.763,1.342t-1.081,1.826q-0.572.915-1.144,1.719t-0.7,1.021a113.607,113.607,0,0,1-8.328,9.721,45.086,45.086,0,0,1-10.491,8,2.443,2.443,0,0,1-1.4.43,2.282,2.282,0,0,1-1.908-.806,4.737,4.737,0,0,1-.89-1.933,10.142,10.142,0,0,1-.254-2.256v-1.88c0-.285.02-0.7,0.063-1.235s0.064-.876.064-1.021l5.976-34.375a21.623,21.623,0,0,1,.827-3.222,10.438,10.438,0,0,1,1.653-3.116,9.3,9.3,0,0,1,2.607-2.309,6.8,6.8,0,0,1,3.56-.913,6.177,6.177,0,0,1,3.115.7,15.989,15.989,0,0,1,2.289,1.611,17.692,17.692,0,0,0,2.225,1.612,5.534,5.534,0,0,0,2.925.7,4.191,4.191,0,0,0,3.306-1.289,4.015,4.015,0,0,0,1.144-2.686,2.488,2.488,0,0,0-.19-1.289,16.715,16.715,0,0,0-1.463-1.182,39.115,39.115,0,0,0-3.369-2.2,24.3,24.3,0,0,0-3.243-1.557,15.906,15.906,0,0,0-3.5-.913,29.008,29.008,0,0,0-4.133-.269,14.811,14.811,0,0,0-8.52,2.256,18.907,18.907,0,0,0-5.4,5.586,32.418,32.418,0,0,0-3.369,7.2q-1.273,3.867-2.416,7.2,0,0.54-.509,3.76-0.381,2.794-1.271,8.594t-2.416,16.543v2.578Zm84.94-15.576q0.124,1.827.381,3.652a24.88,24.88,0,0,1,.318,3.115,14.212,14.212,0,0,0,.318,2.686v0.43q0.126,1.4.382,3.545t0.572,4.243q0.315,2.094.508,3.706t0.191,1.719a9.172,9.172,0,0,0,2.035,4.619q1.526,1.719,5.213,1.718a4.968,4.968,0,0,0,2.925-.805,2.76,2.76,0,0,0,1.144-2.417q0-1.181-.064-2.041a8.982,8.982,0,0,0-.445-2.041q-1.019-14.5-1.335-24.868t-1.144-16.973q-0.828-6.606-2.543-9.668a5.667,5.667,0,0,0-5.532-2.954q-0.255,0-.953.054c-0.467.036-.785,0.053-0.954,0.053a37.49,37.49,0,0,0-14.5,6.446,36.027,36.027,0,0,0-9.791,11.333A53.519,53.519,0,0,0,350,140.53a109.025,109.025,0,0,0-1.907,19.926,2.327,2.327,0,0,0,.827,1.88,5.667,5.667,0,0,0,2.1,1.074,15.941,15.941,0,0,0,2.543.538,18.417,18.417,0,0,0,2.289.161,10.884,10.884,0,0,0,4.7-1.88,25.874,25.874,0,0,0,4.387-3.814,51.554,51.554,0,0,0,4.069-5q1.971-2.739,3.624-5.478t3.116-5.157q1.46-2.416,2.606-4.135Zm-7.057-5.425q-3.243,7.467-11.126,13.911a3.357,3.357,0,0,0-.318.322,0.509,0.509,0,0,1-.318.215,24.784,24.784,0,0,1,.381-2.954q0.382-2.308.954-5.049t1.335-5.532a44.3,44.3,0,0,1,1.4-4.4,24.636,24.636,0,0,1,4.7-7.09,32.452,32.452,0,0,1,6.739-5.8A47.63,47.63,0,0,1,371.808,133.762Zm36.048,33.408a6.824,6.824,0,0,0,4.2,1.558,3.712,3.712,0,0,0,2.161-.537q0.764-.537,1.78-1.4v-3.76a40.78,40.78,0,0,0-.635-7.2,40.482,40.482,0,0,1-.636-7.2,17.3,17.3,0,0,1,2.034-7.949,37.945,37.945,0,0,1,5.214-7.627,66.906,66.906,0,0,1,6.866-6.822q3.687-3.166,6.994-5.639a7.942,7.942,0,0,0,1.716-.752,14.536,14.536,0,0,0,1.844-1.235,9.108,9.108,0,0,0,1.526-1.5,2.548,2.548,0,0,0,.636-1.558,3.763,3.763,0,0,0-2.225-3.384,9.017,9.017,0,0,0-4.387-1.235,7.587,7.587,0,0,0-1.018.054,2.228,2.228,0,0,0-.7.214,5.868,5.868,0,0,0-.7.43l-1.145.806q-3.308,2.472-5.785,4.35t-4.514,3.545q-2.036,1.666-3.942,3.545a56.708,56.708,0,0,0-3.942,4.351c-0.085.072-.234,0.215-0.445,0.429s-0.4.4-.572,0.538q-0.257-.752-0.382-1.075a1.611,1.611,0,0,1-.127-0.59v-1.558c0-.285-0.044-0.806-0.127-1.558s-0.149-1.52-.191-2.309-0.107-1.558-.191-2.31-0.127-1.27-.127-1.557a4.136,4.136,0,0,0-2.479-2.364,9.412,9.412,0,0,0-3.751-.859,10.8,10.8,0,0,0-2.925.43,1.8,1.8,0,0,0-1.526,1.826q0.507,3.44,1.272,9.668t1.462,13.213q0.7,6.984,1.272,13.481T405.186,164A7.812,7.812,0,0,0,407.856,167.17Zm88.692-33.247a5.286,5.286,0,0,0-3.37-1.02,8.99,8.99,0,0,0-3.751.966,8.1,8.1,0,0,0-2.48,1.665l-5.213,6.768-20.345,15.9a5.542,5.542,0,0,0-1.907,1.075,2.906,2.906,0,0,1-1.908.752,0.73,0.73,0,0,1-.381-0.215,0.292,0.292,0,0,1-.127-0.215q0-1.181.191-3.062t0.445-3.706q0.252-1.826.445-3.276a5.881,5.881,0,0,1,.445-1.88l0.508-.859c0.255-.143.741-0.447,1.463-0.913s1.5-.967,2.352-1.5,1.631-1.038,2.352-1.5a16.531,16.531,0,0,0,1.463-1.021c0.083-.07.274-0.25,0.572-0.537s0.614-.572.954-0.859l0.953-.806,0.572-.483a6.258,6.258,0,0,0,.636-0.322,1.43,1.43,0,0,1,.509-0.215q1.269-.859,2.8-1.826a25.909,25.909,0,0,0,2.861-2.095,11.738,11.738,0,0,0,2.226-2.471,5.246,5.246,0,0,0,.89-2.954,5.532,5.532,0,0,0-1.4-3.115,21.384,21.384,0,0,0-3.433-3.491,26.078,26.078,0,0,0-4.26-2.847,8.424,8.424,0,0,0-3.751-1.182,10.418,10.418,0,0,0-4.641.967,12.277,12.277,0,0,0-3.434,2.471,16.935,16.935,0,0,0-2.543,3.384q-1.082,1.879-1.971,3.706-0.255.644-.953,2.309t-1.463,3.545q-0.762,1.881-1.462,3.6t-0.954,2.363a1.908,1.908,0,0,1-1.271.859c-0.594.145-1.208,0.269-1.844,0.376a4.615,4.615,0,0,0-1.653.591,1.861,1.861,0,0,0-.7,1.719,2.654,2.654,0,0,0,1.017,2.2q1.016,0.805,2.416,1.88a32.9,32.9,0,0,0-.954,4.726,44.693,44.693,0,0,0-.19,4.512,11.037,11.037,0,0,0,2.543,7.2q2.541,3.117,8.011,3.116a16.552,16.552,0,0,0,5.34-.86,27.768,27.768,0,0,0,4.9-2.2,35.7,35.7,0,0,0,4.514-3.061q2.16-1.718,4.2-3.33,5.084-4.3,8.646-6.983t5.977-4.35q2.414-1.665,3.814-2.579a10.689,10.689,0,0,0,2.162-1.772,5.033,5.033,0,0,0,1.081-1.934,21.082,21.082,0,0,0,.572-3.007Q498.01,135,496.548,133.923Zm-34.905.43c-0.254.144-.17-0.108,0.255-0.752s0.953-1.413,1.589-2.31,1.272-1.772,1.908-2.632,1.08-1.431,1.335-1.718a1.7,1.7,0,0,1,1.653-.806,2.486,2.486,0,0,1,1.462.806,2.848,2.848,0,0,1,.7,1.5,1.215,1.215,0,0,1-.508,1.289Z"/>
</svg>
