<svg width="30" height="417" viewBox="0 0 30 417" fill="none" xmlns="http://www.w3.org/2000/svg">
<path d="M13.5858 416.414C14.3668 417.195 15.6331 417.195 16.4142 416.414L29.1421 403.686C29.9232 402.905 29.9232 401.639 29.1421 400.858C28.3611 400.077 27.0947 400.077 26.3137 400.858L15 412.172L3.68627 400.858C2.90523 400.077 1.6389 400.077 0.857847 400.858C0.076798 401.639 0.076798 402.905 0.857847 403.686L13.5858 416.414ZM13 -8.74228e-08L13 415L17 415L17 8.74228e-08L13 -8.74228e-08Z" fill="white"/>
<path d="M13.5858 416.414C14.3668 417.195 15.6331 417.195 16.4142 416.414L29.1421 403.686C29.9232 402.905 29.9232 401.639 29.1421 400.858C28.3611 400.077 27.0947 400.077 26.3137 400.858L15 412.172L3.68627 400.858C2.90523 400.077 1.6389 400.077 0.857847 400.858C0.076798 401.639 0.076798 402.905 0.857847 403.686L13.5858 416.414ZM13 -8.74228e-08L13 415L17 415L17 8.74228e-08L13 -8.74228e-08Z" fill="url(#paint0_linear)"/>
<defs>
<linearGradient id="paint0_linear" x1="15" y1="207.5" x2="14" y2="207.5" gradientUnits="userSpaceOnUse">
<stop stop-color="#F6DD9A"/>
<stop offset="1" stop-color="#AF8453"/>
</linearGradient>
</defs>
</svg>
