<svg width="178" height="207" viewBox="0 0 178 207" fill="none" xmlns="http://www.w3.org/2000/svg">
<path d="M72.3595 198.889C58.6575 198.889 46.3633 196.918 35.4768 192.976C24.4027 189.222 15.7686 183.498 9.57454 175.802C3.19281 168.106 0.00195212 158.534 0.00195312 147.084C0.00195414 135.447 2.44202 125.968 7.32216 118.648C12.0146 111.328 18.4902 105.791 26.7489 102.037C34.8199 98.2827 43.7356 95.8426 53.4959 94.7165L56.3113 70.5034L98.5434 70.5034L98.2618 113.299C81.1813 114.8 69.1686 117.803 62.2238 122.308C55.0913 127 51.525 133.101 51.525 140.609C51.525 146.615 53.4958 151.307 57.4375 154.686C61.3792 158.252 67.4794 160.035 75.7381 160.035C92.0678 160.035 101.453 150.557 103.893 131.599L150.066 147.647C147.814 157.408 143.591 166.136 137.397 173.831C131.203 181.527 122.756 187.627 112.058 192.132C101.359 196.636 88.1261 198.889 72.3595 198.889ZM76.5827 55.5814C68.1363 55.5814 61.5669 53.4229 56.8744 49.1059C51.9943 44.9765 49.5542 39.2517 49.5542 31.9315C49.5542 24.4236 51.9943 18.5111 56.8744 14.194C61.5669 10.0647 68.1363 8 76.5827 8C85.2168 8 91.9739 10.0647 96.8541 14.194C101.547 18.5111 103.893 24.4236 103.893 31.9315C103.893 39.2517 101.547 44.9765 96.8541 49.1059C91.9739 53.4229 85.2168 55.5814 76.5827 55.5814Z" fill="#222222"/>
<path d="M74.9002 66.5347H71.3662L70.958 70.045L68.5002 91.1824C59.5695 92.4858 51.2881 94.894 43.6796 98.4309C34.7751 102.482 27.7081 108.503 22.589 116.476C17.1679 124.624 14.6221 134.927 14.6221 147.084C14.6221 159.306 18.0454 169.807 25.0898 178.313C31.8288 186.676 41.1261 192.774 52.7532 196.722C64.1344 200.837 76.8841 202.858 90.9483 202.858C107.066 202.858 120.859 200.559 132.187 195.789C143.385 191.074 152.404 184.61 159.077 176.32C165.652 168.151 170.137 158.875 172.522 148.54L173.324 145.068L169.958 143.899L123.785 127.85L119.169 126.246L118.545 131.092C117.39 140.07 114.657 146.231 110.793 150.134C107.007 153.958 101.685 156.067 94.3269 156.067C86.5291 156.067 81.5889 154.367 78.689 151.743L78.6496 151.707L78.6092 151.673C75.6897 149.17 74.0826 145.658 74.0826 140.609C74.0826 134.641 76.7949 129.705 82.9834 125.631C89.06 121.694 100.222 118.744 117.198 117.252L120.796 116.936L120.819 113.325L121.101 70.5295L121.127 66.5347H117.132L74.9002 66.5347ZM72.8414 11.2147L72.8337 11.2215C66.9684 16.41 64.1744 23.4781 64.1744 31.9315C64.1744 40.2006 66.9735 47.0889 72.837 52.0823C78.4676 57.2289 86.0929 59.5502 95.1716 59.5502C104.452 59.5502 112.256 57.2226 118.069 52.0811C123.764 47.0674 126.45 40.1751 126.45 31.9315C126.45 23.5286 123.785 16.4761 118.13 11.2733L118.069 11.2176L118.007 11.1644C112.193 6.24489 104.414 4.03128 95.1716 4.03128C86.1021 4.03128 78.4796 6.25308 72.8414 11.2147Z" fill="white" stroke="#222222" stroke-width="7.93743"/>
</svg>
