<svg width="291" height="1452" viewBox="0 0 291 1452" fill="none" xmlns="http://www.w3.org/2000/svg">
<path d="M-501.235 1598.55C-503.212 1596.09 -504.729 1593.22 -505.699 1590.12C-506.669 1587.01 -507.074 1583.72 -506.89 1580.44C-506.706 1577.16 -505.936 1573.95 -504.626 1571C-503.315 1568.05 -501.489 1565.41 -499.252 1563.24C-465.543 1530.47 -432.439 1508.87 -400.431 1487.99C-363.079 1463.63 -327.801 1440.61 -291.502 1400.67C-255.203 1360.74 -234.28 1321.92 -212.134 1280.83C-189.527 1238.89 -166.151 1195.52 -125.81 1151.13C-85.4684 1106.75 -46.0432 1081.04 -7.91858 1056.16C29.4313 1031.8 64.7089 1008.78 101.009 968.848C137.309 928.912 158.225 890.1 180.373 849.008C199.932 812.716 220.159 775.189 251.476 736.945C255.523 732.067 261.159 729.148 267.154 728.825C273.148 728.502 279.016 730.801 283.476 735.221C287.937 739.642 290.628 745.825 290.964 752.422C291.3 759.018 289.253 765.494 285.27 770.436C256.973 804.988 238.767 838.766 219.493 874.524C196.889 916.468 173.511 959.841 133.17 1004.22C92.8281 1048.61 53.4025 1074.33 15.277 1099.2C-22.0719 1123.57 -57.3501 1146.58 -93.65 1186.51C-129.95 1226.44 -150.863 1265.26 -173.01 1306.35C-195.621 1348.29 -218.993 1391.67 -259.343 1436.05C-299.692 1480.44 -339.108 1506.16 -377.233 1531.03C-408.818 1551.63 -438.65 1571.09 -469.134 1600.73C-473.656 1605.12 -479.577 1607.36 -485.596 1606.95C-491.616 1606.54 -497.241 1603.52 -501.237 1598.55L-501.235 1598.55ZM-610.031 1598.07C-612.396 1596.07 -614.379 1593.57 -615.867 1590.72C-617.354 1587.87 -618.317 1584.73 -618.701 1581.47C-619.085 1578.21 -618.881 1574.9 -618.102 1571.73C-617.323 1568.56 -615.984 1565.59 -614.161 1562.99C-602.962 1546.97 -590.828 1531.77 -577.836 1517.48C-537.493 1473.1 -498.07 1447.38 -459.944 1422.51C-422.595 1398.14 -387.319 1375.13 -351.018 1335.19C-314.717 1295.26 -293.802 1256.45 -271.657 1215.36C-249.046 1173.41 -225.672 1130.04 -185.326 1085.65C-144.981 1041.27 -105.559 1015.55 -67.4315 990.68C-30.0845 966.315 5.19165 943.298 41.4937 903.366C77.7955 863.435 98.7107 824.619 120.856 783.528C143.464 741.582 166.837 698.211 207.18 653.828C221.16 638.443 236.1 624.151 251.888 611.057C254.269 609.074 256.981 607.626 259.87 606.797C262.759 605.967 265.767 605.773 268.724 606.224C271.682 606.675 274.529 607.763 277.104 609.426C279.679 611.088 281.932 613.293 283.733 615.914C285.534 618.535 286.848 621.521 287.601 624.701C288.354 627.882 288.53 631.194 288.12 634.449C287.71 637.705 286.721 640.839 285.21 643.674C283.699 646.508 281.696 648.988 279.315 650.97C265.199 662.679 251.842 675.457 239.34 689.211C203.042 729.146 182.123 767.958 159.977 809.048C137.37 850.995 113.997 894.367 73.6534 938.75C33.3099 983.134 -6.11426 1008.85 -44.2358 1033.72C-81.5876 1058.09 -116.865 1081.1 -153.167 1121.04C-189.469 1160.97 -210.387 1199.79 -232.533 1240.88C-255.14 1282.82 -278.513 1326.19 -318.859 1370.58C-359.204 1414.96 -398.624 1440.68 -436.746 1465.55C-474.099 1489.92 -509.375 1512.93 -545.677 1552.87C-557.287 1565.63 -568.13 1579.22 -578.136 1593.53C-581.819 1598.79 -587.248 1602.22 -593.229 1603.07C-599.21 1603.92 -605.253 1602.13 -610.031 1598.08V1598.07ZM-698.167 1582.91C-700.703 1581.18 -702.904 1578.91 -704.643 1576.24C-706.382 1573.57 -707.627 1570.55 -708.304 1567.35C-708.982 1564.15 -709.08 1560.83 -708.593 1557.59C-708.106 1554.35 -707.043 1551.24 -705.465 1548.45C-689.554 1520.31 -669.017 1486.83 -637.357 1452C-597.014 1407.62 -557.59 1381.9 -519.468 1357.03C-482.115 1332.66 -446.839 1309.65 -410.539 1269.71C-374.239 1229.77 -353.316 1190.96 -331.169 1149.87C-308.565 1107.93 -285.19 1064.55 -244.847 1020.17C-204.503 975.787 -165.08 950.067 -126.954 925.196C-89.6049 900.831 -54.3282 877.815 -18.0282 837.883C18.2717 797.951 39.187 759.135 61.3317 718.045C83.9429 676.099 107.317 632.727 147.664 588.342C179.705 553.093 210.822 530.093 237.033 512.247C239.572 510.446 242.411 509.219 245.385 508.639C248.359 508.059 251.408 508.137 254.354 508.868C257.3 509.6 260.084 510.971 262.544 512.9C265.004 514.83 267.089 517.279 268.68 520.105C270.27 522.932 271.333 526.08 271.806 529.363C272.279 532.647 272.153 536.002 271.435 539.231C270.718 542.461 269.422 545.501 267.626 548.173C265.829 550.846 263.567 553.097 260.971 554.797C236.976 571.131 208.573 592.096 179.824 623.723C143.526 663.66 122.604 702.475 100.457 743.566C77.8499 785.507 54.475 828.88 14.1326 873.264C-26.21 917.647 -65.6322 943.365 -103.755 968.236C-141.108 992.601 -176.386 1015.61 -212.686 1055.55C-248.986 1095.49 -269.899 1134.3 -292.047 1175.39C-314.658 1217.33 -338.029 1260.71 -378.376 1305.09C-418.722 1349.48 -458.143 1375.2 -496.268 1400.07C-533.619 1424.43 -568.895 1447.45 -605.195 1487.38C-633.596 1518.63 -652.296 1549.14 -666.844 1574.88C-668.422 1577.67 -670.484 1580.09 -672.911 1582.01C-675.339 1583.92 -678.086 1585.29 -680.994 1586.04C-683.903 1586.78 -686.916 1586.89 -689.863 1586.35C-692.809 1585.82 -695.63 1584.65 -698.166 1582.91L-698.167 1582.91ZM-310.846 1563.29C-312.454 1560.52 -313.551 1557.43 -314.075 1554.19C-314.598 1550.96 -314.537 1547.64 -313.895 1544.43C-313.253 1541.22 -312.043 1538.19 -310.335 1535.49C-308.626 1532.8 -306.451 1530.5 -303.936 1528.73C-275.031 1508.41 -252.839 1489.11 -231.978 1466.16C-195.68 1426.23 -174.764 1387.41 -152.619 1346.32C-130.008 1304.38 -106.635 1261 -66.2861 1216.62C-25.9368 1172.24 13.4805 1146.51 51.6051 1121.64C88.954 1097.28 124.233 1074.26 160.533 1034.33C181.464 1011.3 199.07 986.776 217.607 954.819C219.213 952.047 221.299 949.652 223.745 947.767C226.192 945.883 228.952 944.548 231.868 943.838C234.783 943.129 237.797 943.058 240.738 943.63C243.678 944.203 246.487 945.408 249.005 947.175C251.522 948.943 253.699 951.239 255.41 953.932C257.122 956.626 258.334 959.665 258.979 962.875C259.624 966.084 259.688 969.402 259.168 972.639C258.648 975.876 257.554 978.969 255.948 981.74C235.555 1016.88 216.048 1044.01 192.691 1069.72C152.348 1114.1 112.924 1139.82 74.8016 1164.69C37.4508 1189.05 2.17273 1212.07 -34.1272 1252.01C-70.4271 1291.94 -91.3491 1330.75 -113.495 1371.85C-136.102 1413.79 -159.475 1457.16 -199.819 1501.54C-223.095 1527.15 -247.656 1548.54 -279.44 1570.9C-284.522 1574.47 -290.685 1575.68 -296.575 1574.25C-302.465 1572.83 -307.599 1568.88 -310.849 1563.29L-310.846 1563.29ZM-779.283 1557.94C-781.85 1556.26 -784.091 1554.04 -785.879 1551.41C-787.667 1548.78 -788.966 1545.79 -789.702 1542.6C-790.439 1539.42 -790.597 1536.1 -790.17 1532.85C-789.742 1529.6 -788.737 1526.47 -787.21 1523.65L-783.221 1516.25C-760.61 1474.29 -737.231 1430.91 -696.875 1386.52C-656.519 1342.13 -617.108 1316.42 -578.986 1291.54C-541.639 1267.18 -506.357 1244.16 -470.06 1204.23C-433.762 1164.3 -412.837 1125.48 -390.692 1084.39C-368.086 1042.44 -344.711 999.073 -304.368 954.69C-264.024 910.307 -224.601 884.588 -186.478 859.714C-149.127 835.352 -113.849 812.336 -77.5472 772.399C-41.2454 732.463 -20.3273 693.65 1.81836 652.557C24.4237 610.615 47.7991 567.244 88.1425 522.861C128.486 478.478 167.903 452.763 206.026 427.892L214.399 422.423C216.964 420.742 219.804 419.633 222.757 419.159C225.711 418.686 228.72 418.858 231.614 419.666C234.507 420.473 237.228 421.9 239.62 423.864C242.013 425.829 244.03 428.293 245.558 431.116C247.085 433.939 248.093 437.066 248.523 440.318C248.953 443.57 248.796 446.883 248.063 450.068C247.33 453.253 246.034 456.248 244.249 458.882C242.464 461.516 240.226 463.737 237.662 465.419L229.224 470.932C191.876 495.297 156.599 518.309 120.3 558.241C84.0015 598.172 63.089 636.987 40.9434 678.076C18.3322 720.022 -5.04199 763.397 -45.3894 807.78C-85.7367 852.163 -125.154 877.886 -163.282 902.756C-200.629 927.121 -235.907 950.135 -272.208 990.069C-308.509 1030 -329.424 1068.82 -351.569 1109.9C-374.18 1151.85 -397.551 1195.23 -437.9 1239.61C-478.248 1283.99 -517.666 1309.71 -555.789 1334.58C-593.136 1358.95 -628.418 1381.96 -664.715 1421.9C-701.012 1461.83 -721.948 1500.67 -744.099 1541.77L-748.116 1549.21C-749.641 1552.04 -751.658 1554.51 -754.05 1556.48C-756.442 1558.44 -759.164 1559.87 -762.058 1560.68C-764.952 1561.49 -767.963 1561.67 -770.919 1561.2C-773.874 1560.73 -776.717 1559.62 -779.283 1557.94ZM-856.242 1522.65C-858.766 1520.89 -860.951 1518.61 -862.673 1515.93C-864.394 1513.24 -865.618 1510.21 -866.276 1507.01C-866.933 1503.8 -867.01 1500.48 -866.502 1497.25C-865.995 1494.01 -864.913 1490.91 -863.318 1488.14C-856.203 1475.75 -849.356 1463.04 -842.73 1450.74C-820.119 1408.79 -796.74 1365.42 -756.397 1321.04C-716.053 1276.65 -676.632 1250.94 -638.505 1226.06C-601.158 1201.7 -565.876 1178.68 -529.578 1138.75C-493.334 1098.88 -472.27 1059.81 -451.895 1022.03C-448.82 1016.32 -443.81 1012.19 -437.967 1010.54C-432.125 1008.9 -425.928 1009.88 -420.741 1013.26C-415.554 1016.65 -411.801 1022.16 -410.307 1028.59C-408.814 1035.03 -409.703 1041.85 -412.778 1047.56C-433.572 1086.11 -457.133 1129.81 -497.418 1174.13C-537.76 1218.51 -577.185 1244.23 -615.312 1269.1C-652.659 1293.47 -687.941 1316.48 -724.238 1356.42C-760.535 1396.35 -781.46 1435.17 -803.606 1476.26C-810.394 1488.86 -817.416 1501.88 -824.87 1514.86C-828.093 1520.47 -833.209 1524.45 -839.092 1525.91C-844.975 1527.37 -851.145 1526.19 -856.243 1522.65H-856.242ZM-929.342 1478.1C-931.803 1476.24 -933.907 1473.87 -935.533 1471.11C-937.159 1468.36 -938.276 1465.27 -938.82 1462.04C-939.364 1458.81 -939.323 1455.49 -938.702 1452.28C-938.08 1449.07 -936.889 1446.02 -935.197 1443.31C-923.195 1424.12 -913.023 1405.24 -902.252 1385.26C-879.644 1343.32 -856.266 1299.94 -815.923 1255.55C-775.579 1211.17 -736.158 1185.46 -698.033 1160.59C-660.682 1136.22 -625.406 1113.2 -589.104 1073.27C-577.353 1060.34 -566.387 1046.59 -556.277 1032.08C-552.604 1026.81 -547.182 1023.37 -541.203 1022.51C-535.224 1021.64 -529.179 1023.43 -524.397 1027.47C-519.615 1031.52 -516.487 1037.49 -515.703 1044.07C-514.918 1050.65 -516.541 1057.31 -520.214 1062.57C-531.525 1078.8 -543.795 1094.2 -556.944 1108.65C-597.288 1153.04 -636.71 1178.76 -674.837 1203.63C-712.186 1227.99 -747.466 1251.01 -783.764 1290.94C-820.062 1330.87 -840.98 1369.69 -863.131 1410.79C-873.811 1430.6 -884.856 1451.09 -897.722 1471.68C-901.143 1477.14 -906.395 1480.89 -912.324 1482.09C-918.253 1483.3 -924.374 1481.86 -929.342 1478.1ZM-94.7673 1463.57C-97.3267 1461.88 -99.5582 1459.65 -101.334 1457.01C-103.11 1454.37 -104.395 1451.37 -105.117 1448.18C-105.839 1444.99 -105.983 1441.68 -105.541 1438.43C-105.098 1435.18 -104.078 1432.05 -102.54 1429.24C-99.3566 1423.42 -96.223 1417.6 -93.085 1411.79C-70.4807 1369.85 -47.1046 1326.48 -6.7699 1282.1C33.5647 1237.72 72.9891 1212 111.113 1187.14C117.869 1182.73 124.626 1178.32 131.388 1173.81C133.941 1172.02 136.791 1170.82 139.771 1170.27C142.752 1169.71 145.803 1169.82 148.746 1170.57C151.69 1171.33 154.466 1172.73 156.913 1174.68C159.36 1176.64 161.428 1179.11 162.997 1181.95C164.566 1184.8 165.603 1187.96 166.049 1191.25C166.495 1194.54 166.34 1197.9 165.594 1201.12C164.847 1204.35 163.524 1207.38 161.702 1210.03C159.879 1212.69 157.595 1214.92 154.981 1216.59C148.084 1221.19 141.198 1225.68 134.31 1230.17C96.9613 1254.54 61.6879 1277.55 25.3899 1317.48C-10.9081 1357.42 -31.8176 1396.22 -53.9663 1437.31C-57.1482 1443.21 -60.3311 1449.12 -63.5608 1455.03C-65.0996 1457.85 -67.1276 1460.3 -69.5288 1462.26C-71.9301 1464.21 -74.6575 1465.63 -77.5554 1466.42C-80.4534 1467.22 -83.4648 1467.37 -86.4181 1466.89C-89.3713 1466.4 -92.2085 1465.27 -94.7673 1463.58V1463.57ZM-999.73 1427.76C-1002.13 1425.8 -1004.15 1423.34 -1005.68 1420.52C-1007.21 1417.7 -1008.22 1414.57 -1008.66 1411.32C-1009.09 1408.07 -1008.94 1404.76 -1008.21 1401.57C-1007.48 1398.38 -1006.19 1395.39 -1004.4 1392.75C-988.091 1368.62 -975.304 1344.9 -961.764 1319.78C-939.156 1277.83 -915.781 1234.46 -875.435 1190.07C-835.089 1145.68 -795.67 1119.97 -757.543 1095.1C-720.196 1070.73 -684.919 1047.72 -648.616 1007.78C-647.6 1006.66 -646.593 1005.54 -645.597 1004.42C-641.369 999.754 -635.639 997.11 -629.65 997.066C-623.662 997.021 -617.9 999.579 -613.615 1004.18C-609.33 1008.79 -606.869 1015.07 -606.765 1021.66C-606.662 1028.25 -608.925 1034.62 -613.064 1039.39C-614.18 1040.64 -615.311 1041.9 -616.457 1043.16C-656.801 1087.55 -696.224 1113.27 -734.347 1138.14C-771.7 1162.5 -806.976 1185.52 -843.278 1225.45C-879.58 1265.39 -900.498 1304.2 -922.644 1345.29C-936.182 1370.41 -950.183 1396.39 -967.911 1422.61C-971.511 1427.94 -976.886 1431.47 -982.853 1432.44C-988.82 1433.4 -994.891 1431.72 -999.73 1427.76V1427.76ZM-1062.58 1366.64C-1064.95 1364.65 -1066.95 1362.16 -1068.45 1359.32C-1069.95 1356.48 -1070.93 1353.34 -1071.33 1350.08C-1071.73 1346.83 -1071.54 1343.52 -1070.77 1340.34C-1070.01 1337.16 -1068.69 1334.18 -1066.87 1331.57C-1049.16 1306.01 -1035.62 1280.89 -1021.28 1254.28C-998.675 1212.34 -975.302 1168.97 -934.957 1124.59C-894.611 1080.2 -855.192 1054.48 -817.069 1029.62C-782.993 1007.39 -750.806 986.387 -717.824 952.586C-715.651 950.282 -713.084 948.477 -710.271 947.277C-707.458 946.077 -704.456 945.504 -701.441 945.594C-698.425 945.683 -695.456 946.433 -692.706 947.798C-689.956 949.164 -687.48 951.118 -685.423 953.548C-683.366 955.977 -681.769 958.833 -680.725 961.949C-679.68 965.064 -679.21 968.378 -679.34 971.696C-679.471 975.014 -680.2 978.27 -681.485 981.275C-682.77 984.28 -684.585 986.973 -686.825 989.197C-723.389 1026.67 -759.218 1050.05 -793.873 1072.65C-831.22 1097.02 -866.5 1120.03 -902.799 1159.97C-939.098 1199.9 -960.015 1238.72 -982.162 1279.81C-996.531 1306.47 -1011.39 1334.04 -1030.7 1361.91C-1034.36 1367.19 -1039.77 1370.65 -1045.75 1371.54C-1051.73 1372.42 -1057.78 1370.66 -1062.58 1366.64ZM-1120.66 1299.29C-1123.04 1297.31 -1125.05 1294.83 -1126.57 1292C-1128.08 1289.17 -1129.07 1286.04 -1129.49 1282.78C-1129.9 1279.53 -1129.73 1276.22 -1128.98 1273.04C-1128.23 1269.86 -1126.92 1266.87 -1125.12 1264.25C-1108.02 1239.3 -1094.8 1214.78 -1080.8 1188.81C-1058.2 1146.86 -1034.82 1103.49 -994.478 1059.11C-954.131 1014.72 -914.711 989.004 -876.588 964.131C-841.204 941.051 -807.782 919.248 -773.482 883.091C-769.118 878.569 -763.309 876.127 -757.318 876.296C-751.326 876.465 -745.638 879.232 -741.49 883.994C-737.342 888.756 -735.07 895.129 -735.168 901.726C-735.266 908.323 -737.726 914.61 -742.013 919.22C-780.087 959.356 -817.35 983.666 -853.391 1007.17C-890.74 1031.54 -926.022 1054.55 -962.317 1094.49C-998.612 1134.43 -1019.54 1173.24 -1041.68 1214.33C-1055.7 1240.33 -1070.19 1267.22 -1088.81 1294.38C-1092.45 1299.68 -1097.84 1303.17 -1103.82 1304.09C-1109.79 1305.01 -1115.85 1303.28 -1120.66 1299.29H-1120.66ZM-1172.91 1223.98C-1175.34 1222.07 -1177.4 1219.66 -1178.98 1216.87C-1180.56 1214.08 -1181.63 1210.98 -1182.12 1207.74C-1182.61 1204.49 -1182.51 1201.18 -1181.83 1197.98C-1181.16 1194.78 -1179.92 1191.75 -1178.18 1189.08C-1164.05 1167.34 -1152.53 1145.96 -1140.33 1123.32C-1117.72 1081.38 -1094.35 1038.01 -1054 993.625C-1013.66 949.24 -974.236 923.523 -936.113 898.653C-898.762 874.287 -863.484 851.272 -827.182 811.338C-821.995 805.632 -816.908 799.701 -812.071 793.712C-808.063 788.752 -802.43 785.747 -796.411 785.359C-790.391 784.971 -784.478 787.231 -779.972 791.643C-775.466 796.054 -772.737 802.255 -772.384 808.882C-772.032 815.509 -774.085 822.019 -778.092 826.979C-783.519 833.686 -789.216 840.327 -795.024 846.718C-835.368 891.105 -874.789 916.822 -912.916 941.693C-950.263 966.057 -985.542 989.072 -1021.84 1029.01C-1058.14 1068.94 -1079.06 1107.75 -1101.21 1148.84C-1113.36 1171.39 -1125.92 1194.71 -1141.19 1218.19C-1144.7 1223.59 -1150.01 1227.23 -1155.96 1228.32C-1161.91 1229.41 -1168.01 1227.85 -1172.92 1223.99L-1172.91 1223.98ZM-1217.52 1136.4C-1220.02 1134.62 -1222.19 1132.31 -1223.88 1129.61C-1225.58 1126.9 -1226.77 1123.86 -1227.4 1120.64C-1228.02 1117.43 -1228.07 1114.11 -1227.53 1110.88C-1226.99 1107.65 -1225.88 1104.57 -1224.25 1101.81C-1215.7 1087.26 -1207.63 1072.3 -1199.84 1057.83C-1177.23 1015.89 -1153.86 972.526 -1113.52 928.144C-1073.18 883.761 -1033.75 858.038 -995.623 833.167C-958.275 808.805 -922.998 785.788 -886.697 745.854C-857.912 714.189 -838.391 682.859 -817.931 645.567C-814.817 639.882 -809.779 635.792 -803.926 634.197C-798.073 632.601 -791.884 633.631 -786.721 637.059C-781.557 640.487 -777.842 646.033 -776.393 652.476C-774.943 658.92 -775.878 665.733 -778.992 671.418C-801.17 711.846 -822.504 745.994 -854.536 781.237C-894.882 825.619 -934.303 851.338 -972.426 876.209C-1009.78 900.573 -1045.06 923.588 -1081.36 963.524C-1117.66 1003.46 -1138.57 1042.27 -1160.72 1083.36C-1168.74 1098.24 -1177.03 1113.62 -1186.07 1128.99C-1189.35 1134.56 -1194.5 1138.47 -1200.4 1139.86C-1206.3 1141.25 -1212.45 1140.01 -1217.52 1136.4L-1217.52 1136.4ZM-1256.66 1036.29C-1259.22 1034.61 -1261.46 1032.39 -1263.25 1029.76C-1265.03 1027.12 -1266.33 1024.13 -1267.06 1020.94C-1267.8 1017.76 -1267.96 1014.45 -1267.53 1011.2C-1267.1 1007.94 -1266.09 1004.82 -1264.56 1001.99L-1259.35 992.338C-1236.75 950.402 -1213.37 907.037 -1173.04 862.664C-1132.7 818.292 -1093.27 792.559 -1055.14 767.688C-1017.8 743.323 -982.521 720.309 -946.218 680.375C-909.915 640.441 -889.005 601.629 -866.859 560.539C-844.248 518.594 -820.874 475.219 -780.526 430.834C-740.179 386.45 -700.761 360.731 -662.634 335.86C-625.287 311.495 -590.009 288.481 -553.708 248.547C-517.407 208.613 -496.495 169.799 -474.349 128.712C-451.736 86.7657 -428.364 43.391 -388.016 -0.993423C-347.669 -45.3778 -308.249 -71.0972 -270.124 -95.9657C-266.067 -98.6154 -262.009 -101.27 -257.952 -103.93C-255.39 -105.638 -252.547 -106.771 -249.586 -107.266C-246.624 -107.76 -243.603 -107.605 -240.697 -106.81C-237.79 -106.015 -235.055 -104.594 -232.648 -102.632C-230.241 -100.669 -228.211 -98.202 -226.673 -95.3725C-225.135 -92.543 -224.121 -89.407 -223.688 -86.1443C-223.254 -82.8817 -223.411 -79.5569 -224.149 -76.3613C-224.887 -73.1656 -226.191 -70.1618 -227.987 -67.5228C-229.782 -64.8838 -232.034 -62.6616 -234.612 -60.9838C-238.72 -58.2811 -242.825 -55.5957 -246.925 -52.9274C-284.278 -28.5616 -319.555 -5.54799 -355.856 34.3882C-392.157 74.3243 -413.078 113.14 -435.222 154.233C-457.831 196.175 -481.204 239.546 -521.548 283.928C-561.891 328.31 -601.315 354.03 -639.437 378.9C-676.79 403.265 -712.067 426.282 -748.367 466.218C-784.667 506.154 -805.587 544.968 -827.734 586.061C-850.342 628.003 -873.715 671.374 -914.058 715.756C-954.402 760.139 -993.825 785.858 -1031.95 810.728C-1069.3 835.094 -1104.58 858.109 -1140.88 898.042C-1177.17 937.975 -1198.09 976.772 -1220.23 1017.86L-1225.48 1027.59C-1228.57 1033.3 -1233.58 1037.42 -1239.43 1039.05C-1245.28 1040.68 -1251.47 1039.69 -1256.66 1036.29L-1256.66 1036.29ZM-1288.45 918.895C-1290.96 917.125 -1293.14 914.827 -1294.85 912.131C-1296.55 909.436 -1297.76 906.396 -1298.4 903.187C-1299.04 899.977 -1299.1 896.66 -1298.57 893.425C-1298.05 890.19 -1296.95 887.101 -1295.34 884.334C-1275.11 849.574 -1255.75 822.694 -1232.56 797.179C-1192.22 752.799 -1152.79 727.079 -1114.67 702.21C-1077.32 677.843 -1042.04 654.828 -1005.74 614.892C-969.437 574.956 -948.519 536.141 -926.373 495.047C-903.766 453.107 -880.391 409.734 -840.049 365.352C-799.708 320.97 -760.283 295.25 -722.16 270.379C-684.807 246.014 -649.531 222.999 -613.229 183.063C-576.927 143.127 -556.009 104.312 -533.862 63.2203C-511.255 21.2764 -487.88 -22.0936 -447.538 -66.4769C-416.832 -100.259 -387.078 -122.529 -364.592 -138.154C-362.069 -139.93 -359.252 -141.139 -356.303 -141.712C-353.354 -142.285 -350.332 -142.211 -347.409 -141.494C-344.486 -140.778 -341.721 -139.432 -339.272 -137.535C-336.823 -135.638 -334.738 -133.227 -333.138 -130.44C-331.538 -127.654 -330.454 -124.547 -329.948 -121.298C-329.442 -118.049 -329.524 -114.721 -330.19 -111.507C-330.856 -108.293 -332.092 -105.255 -333.827 -102.569C-335.562 -99.8821 -337.763 -97.5995 -340.302 -95.8519C-360.793 -81.6103 -387.847 -61.3815 -415.377 -31.098C-451.675 8.8382 -472.591 47.6487 -494.738 88.7385C-517.349 130.686 -540.722 174.059 -581.071 218.444C-621.42 262.828 -660.836 288.547 -698.96 313.418C-736.311 337.783 -771.587 360.8 -807.887 400.731C-844.187 440.663 -865.106 479.479 -887.246 520.568C-909.858 562.515 -933.232 605.889 -973.579 650.272C-1013.93 694.656 -1053.35 720.378 -1091.47 745.247C-1128.82 769.614 -1164.1 792.626 -1200.4 832.558C-1221.18 855.423 -1238.65 879.715 -1257.04 911.313C-1260.29 916.904 -1265.43 920.843 -1271.32 922.264C-1277.21 923.686 -1283.37 922.474 -1288.45 918.894L-1288.45 918.895ZM-246.708 823.818C-248.234 820.994 -249.24 817.867 -249.669 814.614C-250.097 811.362 -249.938 808.049 -249.203 804.864C-248.467 801.679 -247.168 798.685 -245.381 796.053C-243.593 793.42 -241.352 791.202 -238.786 789.524C-202.836 766.006 -170.37 743.556 -137.069 706.919C-100.771 666.987 -79.8558 628.174 -57.7092 587.084C-35.098 545.138 -11.7239 501.763 28.6235 457.38C68.9708 412.996 108.384 387.28 146.509 362.407C158.142 354.817 170.177 346.966 181.891 338.775C184.411 336.957 187.233 335.709 190.194 335.102C193.156 334.495 196.197 334.542 199.142 335.241C202.087 335.939 204.876 337.274 207.348 339.169C209.82 341.064 211.924 343.481 213.541 346.279C215.157 349.078 216.252 352.202 216.762 355.47C217.272 358.738 217.187 362.085 216.512 365.317C215.837 368.549 214.585 371.6 212.83 374.295C211.074 376.989 208.849 379.274 206.285 381.014C193.98 389.607 181.639 397.663 169.709 405.444C132.36 429.81 97.0841 452.823 60.7871 492.755C24.4901 532.687 3.56519 571.507 -18.5804 612.6C-41.1857 654.542 -64.561 697.912 -104.905 742.295C-141.876 782.971 -178.33 808.187 -215.534 832.527C-220.718 835.92 -226.913 836.908 -232.758 835.274C-238.603 833.64 -243.619 829.517 -246.703 823.812L-246.708 823.818ZM-1305.49 784.5C-1307.7 782.301 -1309.51 779.642 -1310.79 776.676C-1312.07 773.71 -1312.81 770.495 -1312.97 767.214C-1313.12 763.932 -1312.69 760.649 -1311.69 757.553C-1310.69 754.456 -1309.15 751.606 -1307.15 749.165C-1302.32 743.269 -1297.25 737.391 -1292.07 731.7C-1251.73 687.314 -1212.31 661.597 -1174.18 636.726C-1136.83 612.361 -1101.55 589.345 -1065.25 549.415C-1028.96 509.485 -1008.04 470.669 -985.896 429.58C-963.285 387.632 -939.911 344.259 -899.563 299.875C-859.216 255.49 -819.799 229.771 -781.671 204.9C-744.324 180.536 -709.046 157.521 -672.745 117.587C-636.444 77.6529 -615.529 38.8397 -593.386 -2.24805C-570.775 -44.1962 -547.401 -87.5687 -507.055 -131.953C-501.659 -137.894 -496.048 -143.745 -490.384 -149.333C-488.172 -151.589 -485.574 -153.338 -482.741 -154.478C-479.909 -155.618 -476.899 -156.126 -473.886 -155.973C-470.873 -155.82 -467.919 -155.009 -465.194 -153.586C-462.469 -152.164 -460.028 -150.159 -458.014 -147.688C-455.999 -145.217 -454.452 -142.329 -453.461 -139.193C-452.47 -136.058 -452.056 -132.736 -452.243 -129.422C-452.43 -126.109 -453.213 -122.869 -454.548 -119.892C-455.883 -116.915 -457.743 -114.26 -460.019 -112.082C-465.065 -107.1 -470.069 -101.877 -474.887 -96.5778C-511.195 -56.6341 -532.115 -17.8208 -554.261 23.2734C-576.868 65.2129 -600.241 108.585 -640.585 152.968C-680.928 197.352 -720.352 223.07 -758.472 247.941C-795.826 272.305 -831.104 295.32 -867.406 335.256C-903.707 375.192 -924.626 414.008 -946.771 455.101C-969.378 497.043 -992.752 540.414 -1033.1 584.797C-1073.44 629.18 -1112.86 654.897 -1150.98 679.765C-1188.34 704.132 -1223.61 727.147 -1259.91 767.082C-1264.54 772.168 -1269.06 777.411 -1273.37 782.666C-1277.41 787.594 -1283.06 790.556 -1289.08 790.9C-1295.1 791.244 -1301 788.942 -1305.49 784.501V784.5ZM-235.938 710.918C-237.773 708.327 -239.127 705.363 -239.921 702.195C-240.715 699.028 -240.934 695.719 -240.566 692.458C-240.198 689.198 -239.249 686.048 -237.775 683.192C-236.3 680.335 -234.329 677.826 -231.973 675.809C-219.539 665.175 -207.721 653.697 -196.588 641.441C-160.29 601.504 -139.368 562.691 -117.221 521.596C-94.6154 479.656 -71.24 436.284 -30.8965 391.9C9.44702 347.517 48.8645 321.8 86.9872 296.931C105.897 284.596 123.759 272.941 141.922 259.04C144.371 257.163 147.133 255.834 150.048 255.131C152.964 254.428 155.977 254.365 158.916 254.943C161.854 255.522 164.66 256.733 167.173 258.505C169.687 260.278 171.858 262.579 173.564 265.275C175.27 267.972 176.476 271.012 177.115 274.222C177.753 277.432 177.811 280.749 177.285 283.983C176.759 287.218 175.66 290.307 174.05 293.073C172.439 295.84 170.35 298.231 167.9 300.109C148.385 315.054 128.968 327.716 110.189 339.969C72.8405 364.336 37.5642 387.348 1.26526 427.282C-35.0337 467.216 -55.9481 506.028 -78.0928 547.117C-100.706 589.063 -124.078 632.436 -164.426 676.82C-176.884 690.534 -190.108 703.377 -204.021 715.276C-208.78 719.354 -214.814 721.185 -220.799 720.367C-226.783 719.549 -232.227 716.147 -235.934 710.912L-235.938 710.918ZM-1305.64 653.342C-1307.4 650.689 -1308.67 647.68 -1309.38 644.487C-1310.08 641.294 -1310.21 637.979 -1309.75 634.732C-1309.29 631.486 -1308.25 628.37 -1306.7 625.565C-1305.15 622.759 -1303.11 620.317 -1300.7 618.38C-1277.99 600.134 -1255.48 585.448 -1233.71 571.247C-1196.35 546.88 -1161.07 523.867 -1124.78 483.929C-1088.48 443.991 -1067.56 405.178 -1045.41 364.086C-1022.8 322.142 -999.43 278.775 -959.086 234.391C-918.743 190.008 -879.319 164.29 -841.197 139.418C-803.844 115.053 -768.566 92.0385 -732.266 52.1023C-695.966 12.1661 -675.051 -26.6474 -652.902 -67.7394C-639.466 -92.6692 -625.571 -118.446 -608.033 -144.465C-606.255 -147.106 -604.022 -149.335 -601.461 -151.026C-598.901 -152.716 -596.063 -153.835 -593.11 -154.319C-590.156 -154.802 -587.146 -154.64 -584.249 -153.842C-581.353 -153.045 -578.627 -151.627 -576.229 -149.669C-573.83 -147.712 -571.805 -145.254 -570.269 -142.435C-568.734 -139.616 -567.717 -136.492 -567.278 -133.241C-566.839 -129.99 -566.986 -126.675 -567.711 -123.487C-568.436 -120.298 -569.724 -117.297 -571.502 -114.656C-587.646 -90.7096 -600.34 -67.1542 -613.783 -42.2201C-636.385 -0.275208 -659.761 43.0985 -700.105 87.4808C-740.448 131.863 -779.872 157.584 -817.997 182.455C-855.346 206.821 -890.623 229.835 -926.926 269.769C-963.228 309.703 -984.139 348.513 -1006.28 389.604C-1028.89 431.547 -1052.27 474.922 -1092.62 519.308C-1132.96 563.693 -1172.38 589.411 -1210.51 614.284C-1232.32 628.511 -1252.92 641.95 -1273.86 658.783C-1278.73 662.698 -1284.82 664.324 -1290.78 663.303C-1296.73 662.283 -1302.08 658.699 -1305.64 653.34L-1305.64 653.342ZM-258.158 613.315C-260.254 610.976 -261.911 608.204 -263.033 605.159C-264.156 602.114 -264.722 598.856 -264.7 595.57C-264.677 592.284 -264.067 589.035 -262.903 586.008C-261.739 582.982 -260.045 580.238 -257.917 577.934L-256.103 575.956C-219.805 536.02 -198.89 497.209 -176.744 456.12C-154.133 414.175 -130.759 370.799 -90.4116 326.415C-50.0643 282.03 -10.6447 256.311 27.481 231.44C50.7927 216.233 72.8121 201.867 95.2086 183.38C97.5905 181.334 100.319 179.831 103.234 178.959C106.15 178.087 109.194 177.864 112.188 178.302C115.183 178.74 118.068 179.831 120.676 181.51C123.283 183.19 125.561 185.425 127.375 188.085C129.189 190.744 130.503 193.775 131.241 197C131.979 200.225 132.125 203.58 131.672 206.868C131.219 210.156 130.175 213.312 128.601 216.15C127.027 218.989 124.955 221.455 122.506 223.402C98.136 243.522 74.0117 259.26 50.6775 274.481C13.3257 298.845 -21.9519 321.86 -58.2538 361.796C-94.5557 401.732 -115.474 440.548 -137.619 481.641C-160.227 523.583 -183.6 566.955 -223.943 611.337L-225.992 613.58C-230.291 618.237 -236.093 620.824 -242.124 620.774C-248.154 620.724 -253.92 618.04 -258.154 613.312L-258.158 613.315ZM-1288.92 532.123C-1290.45 529.303 -1291.46 526.178 -1291.9 522.927C-1292.33 519.676 -1292.18 516.362 -1291.45 513.176C-1290.72 509.989 -1289.43 506.992 -1287.65 504.355C-1285.87 501.719 -1283.63 499.495 -1281.07 497.81C-1250.08 477.425 -1217.07 454.505 -1184.29 418.447C-1148 378.515 -1127.08 339.702 -1104.93 298.612C-1082.33 256.666 -1058.95 213.293 -1018.6 168.909C-978.257 124.524 -938.837 98.8051 -900.712 73.9323C-863.363 49.5675 -828.083 26.5549 -791.785 -13.3791C-759.13 -49.3075 -738.553 -85.11 -720.272 -118.702C-717.175 -124.399 -712.15 -128.509 -706.302 -130.127C-700.453 -131.745 -694.26 -130.739 -689.085 -127.331C-683.91 -123.922 -680.177 -118.39 -678.707 -111.951C-677.238 -105.512 -678.151 -98.6951 -681.248 -92.9981C-700.989 -56.7227 -723.302 -17.9627 -759.625 22.0035C-799.968 66.3847 -839.392 92.1021 -877.514 116.971C-914.867 141.337 -950.146 164.354 -986.445 204.289C-1022.75 244.224 -1043.67 283.041 -1065.81 324.132C-1088.42 366.074 -1111.79 409.446 -1152.14 453.827C-1188.59 493.934 -1224.29 518.764 -1257.73 540.759C-1262.91 544.167 -1269.1 545.171 -1274.95 543.552C-1280.8 541.932 -1285.82 537.821 -1288.92 532.123H-1288.92ZM-303.885 533.854C-306.079 531.626 -307.852 528.944 -309.103 525.96C-310.354 522.977 -311.059 519.752 -311.178 516.468C-311.296 513.185 -310.826 509.908 -309.793 506.825C-308.761 503.742 -307.186 500.914 -305.16 498.501C-275.084 462.668 -256.227 427.682 -236.263 390.638C-213.656 348.695 -190.283 305.322 -149.935 260.936C-109.588 216.551 -70.1727 190.835 -32.0471 165.964C-7.41809 149.896 15.8429 134.723 39.5088 114.707C41.8746 112.704 44.5759 111.232 47.4581 110.378C50.3405 109.524 53.3473 109.303 56.3071 109.728C59.267 110.153 62.1218 111.215 64.7087 112.855C67.2955 114.494 69.5637 116.679 71.3837 119.283C73.2036 121.888 74.5402 124.861 75.3162 128.035C76.0923 131.208 76.293 134.518 75.907 137.776C75.521 141.035 74.5558 144.177 73.0664 147.025C71.5771 149.873 69.593 152.37 67.2272 154.374C41.3961 176.227 15.8496 192.89 -8.84961 209.005C-46.2014 233.369 -81.4786 256.382 -117.777 296.318C-154.075 336.254 -174.997 375.07 -197.142 416.161C-217.438 453.807 -238.417 492.733 -271.751 532.445C-275.844 537.32 -281.528 540.207 -287.553 540.471C-293.579 540.735 -299.453 538.355 -303.885 533.853V533.854ZM-366.74 471.874C-368.91 469.618 -370.655 466.913 -371.875 463.914C-373.095 460.916 -373.766 457.682 -373.85 454.398C-373.934 451.113 -373.43 447.843 -372.365 444.773C-371.301 441.704 -369.697 438.895 -367.646 436.508C-335.837 399.483 -316.382 363.376 -295.775 325.149C-273.173 283.207 -249.797 239.838 -209.457 195.456C-169.118 151.074 -129.691 125.352 -91.5652 100.484C-67.2435 84.617 -44.2733 69.6308 -20.9069 49.9796C-18.5396 47.9381 -15.8276 46.4344 -12.9285 45.5549C-10.0293 44.6754 -7.00061 44.4379 -4.01758 44.8563C-1.03442 45.2746 1.84399 46.3401 4.45032 47.9918C7.05652 49.6434 9.33887 51.848 11.1658 54.4778C12.9926 57.1076 14.3274 60.1104 15.0925 63.3121C15.8577 66.5137 16.038 69.8508 15.6233 73.1298C15.2086 76.4087 14.207 79.5643 12.6765 82.414C11.146 85.2638 9.11707 87.7511 6.70715 89.7314C-18.7834 111.17 -43.9943 127.619 -68.3715 143.521C-105.723 167.886 -141.003 190.9 -177.302 230.837C-213.602 270.773 -234.516 309.581 -256.661 350.671C-277.626 389.572 -299.31 429.802 -334.595 470.873C-338.739 475.695 -344.453 478.509 -350.482 478.697C-356.51 478.884 -362.359 476.429 -366.744 471.871L-366.74 471.874ZM-451.071 430.182C-453.068 427.74 -454.608 424.888 -455.603 421.79C-456.599 418.693 -457.029 415.409 -456.871 412.128C-456.713 408.847 -455.97 405.632 -454.682 402.667C-453.395 399.703 -451.59 397.046 -449.37 394.85C-444.36 389.899 -439.417 384.738 -434.665 379.512C-398.367 339.576 -377.452 300.765 -355.306 259.677C-332.695 217.731 -309.323 174.358 -268.975 129.973C-228.628 85.5871 -189.213 59.8731 -151.087 35.0013C-130.011 21.2517 -110.105 8.26494 -89.8652 -7.79416C-87.4491 -9.79611 -84.6947 -11.2476 -81.7628 -12.0631C-78.8311 -12.8786 -75.7809 -13.0418 -72.7909 -12.5436C-69.801 -12.0454 -66.9315 -10.8957 -64.3503 -9.16156C-61.769 -7.4274 -59.528 -5.14362 -57.7583 -2.4442C-55.9885 0.255203 -54.7258 3.31618 -54.0439 6.55946C-53.3621 9.80275 -53.2748 13.1629 -53.7871 16.4438C-54.2996 19.7247 -55.4012 22.8604 -57.0278 25.6667C-58.6545 28.473 -60.7732 30.8936 -63.2603 32.7874C-85.1532 50.1581 -106.877 64.333 -127.891 78.0417C-165.241 102.406 -200.52 125.419 -236.817 165.353C-273.114 205.287 -294.037 244.103 -316.184 285.196C-338.79 327.138 -362.164 370.51 -402.506 414.891C-407.823 420.739 -413.356 426.513 -418.96 432.057C-423.445 436.495 -429.347 438.79 -435.369 438.438C-441.391 438.086 -447.039 435.117 -451.072 430.181L-451.071 430.182ZM-589.515 421.761C-591.066 418.954 -592.1 415.838 -592.557 412.591C-593.014 409.343 -592.884 406.029 -592.177 402.836C-591.469 399.644 -590.197 396.636 -588.433 393.985C-586.668 391.334 -584.447 389.092 -581.895 387.387C-554.027 368.747 -524.116 346.959 -494.188 314.029C-457.89 274.092 -436.966 235.279 -414.82 194.186C-392.213 152.245 -368.84 108.871 -328.496 64.489C-288.153 20.1068 -248.735 -5.60732 -210.616 -30.478C-196.37 -39.7665 -181.649 -49.3717 -167.329 -59.7129C-164.834 -61.517 -162.041 -62.7624 -159.109 -63.3782C-156.177 -63.9939 -153.164 -63.9679 -150.241 -63.3016C-147.318 -62.6352 -144.543 -61.3417 -142.075 -59.4947C-139.606 -57.6477 -137.492 -55.2836 -135.853 -52.5371C-134.214 -49.7907 -133.083 -46.7156 -132.523 -43.4878C-131.964 -40.2601 -131.988 -36.9424 -132.594 -33.7247C-133.199 -30.507 -134.374 -27.4519 -136.052 -24.7341C-137.729 -22.0164 -139.877 -19.6892 -142.371 -17.8851C-157.558 -6.91553 -172.737 2.98715 -187.417 12.5614C-224.762 36.9261 -260.039 59.9388 -296.336 99.8696C-332.632 139.8 -353.549 178.617 -375.696 219.707C-398.306 261.652 -421.68 305.026 -462.027 349.412C-495.348 386.075 -527.976 409.879 -558.267 430.143C-560.819 431.851 -563.651 432.99 -566.602 433.493C-569.553 433.997 -572.565 433.855 -575.466 433.077C-578.368 432.299 -581.102 430.9 -583.512 428.959C-585.922 427.018 -587.961 424.573 -589.513 421.764L-589.515 421.761ZM-1232.86 377.168C-1235.05 374.933 -1236.81 372.245 -1238.06 369.258C-1239.3 366.271 -1240 363.044 -1240.11 359.76C-1240.22 356.476 -1239.74 353.201 -1238.7 350.121C-1237.66 347.041 -1236.08 344.217 -1234.05 341.81C-1203.57 305.697 -1184.57 270.444 -1164.45 233.122C-1141.85 191.179 -1118.47 147.806 -1078.13 103.424C-1037.78 59.0419 -998.36 33.3226 -960.238 8.45084C-925.828 -13.9997 -893.322 -35.2012 -860.009 -69.5956C-855.614 -74.1397 -849.758 -76.5751 -843.732 -76.3665C-837.705 -76.1579 -832 -73.3222 -827.872 -68.4832C-823.745 -63.6441 -821.532 -57.1983 -821.722 -50.5634C-821.911 -43.9286 -824.487 -37.6482 -828.883 -33.1042C-865.837 5.04022 -902.034 28.6551 -937.04 51.4902C-974.387 75.8549 -1009.67 98.8692 -1045.97 138.801C-1082.27 178.733 -1103.18 217.551 -1125.33 258.643C-1145.78 296.588 -1166.93 335.821 -1200.72 375.856C-1204.83 380.719 -1210.52 383.588 -1216.54 383.834C-1222.57 384.08 -1228.44 381.682 -1232.86 377.167V377.168Z" fill="#E9D4AF"/>
</svg>
