<svg width="186" height="243" viewBox="0 0 186 243" fill="none" xmlns="http://www.w3.org/2000/svg">
<path d="M183.605 162.62C190.467 145.155 178.615 125.818 159.902 123.323C142.436 120.827 122.475 123.946 114.366 149.521C101.267 192.561 160.526 223.75 183.605 162.62Z" fill="#FFD0BF"/>
<path d="M121.228 59.6977C133.079 42.8558 96.2766 -47.5914 63.2166 32.8754C30.1566 113.342 93.7816 97.1242 121.228 59.6977Z" fill="#FFD0BF"/>
<path d="M71.3258 154.511C71.3258 154.511 98.7718 113.966 75.6922 115.214C52.6125 116.461 33.2755 131.432 37.642 150.769C42.0084 170.106 61.3454 172.601 71.3258 154.511Z" fill="#FFD0BF"/>
<path d="M159.278 93.3814C159.278 93.3814 188.595 69.0542 177.991 56.5787C167.387 44.1032 137.446 54.0836 138.07 75.9157C138.693 97.124 146.802 106.481 159.278 93.3814Z" fill="#FFD0BF"/>
<path d="M38.2658 100.867C38.2658 100.867 36.3945 46.5986 16.4337 58.4503C-4.77457 70.9258 -2.27947 144.531 38.2658 100.867Z" fill="#FFD0BF"/>
<path d="M85.6726 226.246C85.6726 226.246 98.1481 181.958 75.0685 189.443C51.9888 196.304 76.316 262.424 85.6726 226.246Z" fill="#FFD0BF"/>
<path d="M14.5623 155.135C14.5623 155.135 18.305 131.432 7.07702 137.046C-4.15092 143.284 -2.27956 171.977 14.5623 155.135Z" fill="#FFD0BF"/>
<path d="M25.7902 206.285C25.7902 206.285 36.3944 191.938 23.2951 192.562C10.1958 193.185 13.9385 206.908 17.0574 208.78C19.5525 210.651 25.7902 206.285 25.7902 206.285Z" fill="#FFD0BF"/>
<path d="M128.713 231.859C128.713 231.859 132.456 207.532 121.228 214.394C110.624 221.255 101.891 231.235 107.505 237.473C113.742 244.335 123.723 244.958 128.713 231.859Z" fill="#FFD0BF"/>
</svg>
