<svg xmlns="http://www.w3.org/2000/svg" width="577.5" height="144.5" viewBox="0 0 1155 289">
  <defs>
    <style>
      .cls-1 {
        fill: #fff;
        fill-rule: evenodd;
      }
    </style>
  </defs>
  <path id="avalon" class="cls-1" d="M182.69,286l-0.37-129.87q-0.373-33.664-22.385-52.54T97.96,84.72a175.6,175.6,0,0,0-45.51,5.55q-20.726,5.55-44.4,17.39l17.76,39.22q31.444-17.387,59.2-17.39,20.344,0,30.895,8.695t10.545,24.6v3.7H71.69q-36.266.373-56.055,16.1T-4.16,226.43q0,27.75,18.5,44.955t49.95,17.2q20.717,0,36.63-6.66a63.86,63.86,0,0,0,25.9-19.24V286h55.87ZM80.2,247.89q-14.43,0-22.755-6.845T49.12,222.73q0-11.836,7.955-17.2T81.68,200.16h44.77v17.76q-2.593,12.956-15.54,21.46T80.2,247.89h0ZM264.087,286h58.46l75.11-199.06h-56.61l-46.62,145.04L247.437,86.94l-58.83.37Zm315.24,0-0.37-129.87q-0.372-33.664-22.385-52.54T494.6,84.72a175.61,175.61,0,0,0-45.51,5.55q-20.726,5.55-44.4,17.39l17.76,39.22q31.445-17.387,59.2-17.39,20.344,0,30.9,8.695t10.545,24.6v3.7h-54.76q-36.266.373-56.055,16.1t-19.8,43.845q0,27.75,18.5,44.955t49.95,17.2q20.718,0,36.63-6.66a63.86,63.86,0,0,0,25.9-19.24V286h55.87Zm-102.49-38.11q-14.43,0-22.755-6.845t-8.325-18.315q0-11.836,7.955-17.2t24.605-5.365h44.77v17.76q-2.592,12.956-15.54,21.46t-30.71,8.51h0ZM615.585,286h56.98V11.46h-56.98V286ZM804.65,85.09q-31.826,0-56.055,12.58a90.8,90.8,0,0,0-37.555,35.52q-13.32,22.945-13.32,53.28,0,29.97,13.32,53.1a91.616,91.616,0,0,0,37.555,35.89q24.23,12.765,56.055,12.765,31.445,0,55.685-12.765a91.646,91.646,0,0,0,37.555-35.89q13.32-23.12,13.32-53.095,0-30.334-13.32-53.28a90.833,90.833,0,0,0-37.555-35.52Q836.1,85.1,804.65,85.09h0Zm0,47.36q21.828,0,35.705,15.17t13.875,39.59q0,24.42-13.875,39.59T804.65,241.97q-22.2,0-36.075-15.17T754.7,187.21q0-24.42,13.875-39.59t36.075-15.17h0Zm255.3-47.73q-48.1.746-68.821,37V86.94h-56.98V286h56.98V187.95q0-22.2,12.211-36.445t33.3-14.615q18.12,0,28.67,10.915t10.55,29.785V286h56.98V160.94q0-34.774-19.8-55.5t-53.09-20.72h0Z"/>
</svg>
