<svg width="206" height="30" viewBox="0 0 206 30" fill="none" xmlns="http://www.w3.org/2000/svg">
<g clip-path="url(#clip0)">
<path d="M66.083 20.0336C64.493 20.0336 63.2012 20.0336 61.9093 20.0336C61.3131 20.0336 60.9156 20.1342 60.5181 20.6376C59.8225 21.6443 59.0275 22.651 58.2325 23.6577C57.2388 24.8658 56.3444 26.1745 55.3507 27.3825C54.5557 28.3893 53.6614 29.1946 52.5683 29.7987C52.3695 29.8993 52.0714 30 51.7733 29.8993C51.4752 29.698 51.3758 29.396 51.3758 29.094C51.5745 27.9866 51.972 26.8792 52.5683 25.8725C53.2639 24.6644 54.2576 23.6577 55.3507 22.7517C56.3444 21.9463 57.3382 21.2416 58.3319 20.5369C58.4313 20.4362 58.63 20.3356 58.5306 20.1342C58.4313 20.0336 58.2325 20.0336 58.1332 19.9329C56.1457 19.8322 54.1582 19.7315 52.1708 19.5302C51.5745 19.5302 51.1771 19.6309 50.6802 20.0336C48.7921 21.745 46.8046 23.4564 44.6184 24.8658C44.3203 25.0671 44.1216 25.2685 44.0222 25.7718C43.7241 27.0805 42.631 27.8859 41.3391 27.8859C40.8423 27.8859 40.3454 27.7852 40.1467 27.2819C39.9479 26.7785 39.9479 26.2752 40.246 25.8725C40.8423 25.0671 41.6373 24.5638 42.5316 24.6644C43.1278 24.7651 43.5253 24.5638 44.0222 24.2617C45.9103 22.953 47.5996 21.5436 49.289 19.9329C49.4877 19.8322 49.5871 19.5302 49.5871 19.4295C49.5871 19.0268 49.1896 19.1275 48.8915 19.1275C47.0034 18.9262 45.0159 18.7248 43.1278 18.5235C42.4322 18.4228 41.9354 18.6242 41.3391 19.1275C39.6498 20.7383 37.9605 22.2483 36.1717 23.8591C34.7805 25.0671 33.2899 26.1745 31.7 27.0805C31.1037 27.3825 30.5075 27.6846 29.9113 27.8859C29.6131 27.9866 29.315 28.0872 29.0169 27.7852C28.7188 27.4832 28.7188 27.0805 28.9175 26.7785C29.1163 26.3758 29.315 25.8725 29.6131 25.4698C31.0044 23.4564 32.6937 21.8456 34.7805 20.6376C36.1717 19.7315 37.6623 19.0268 39.2523 18.5235C39.3517 18.5235 39.3517 18.4228 39.4511 18.3221C39.4511 18.2215 39.3517 18.1208 39.2523 18.1208C37.2649 17.8188 35.2774 17.4161 33.1906 17.1141C32.6937 17.0134 32.2962 17.2148 31.7993 17.5168C30.3087 18.5235 28.8182 19.6309 27.2282 20.6376C26.9301 20.8389 26.7313 21.0403 26.8307 21.443C26.9301 21.8456 26.7313 22.2483 26.4332 22.4497C25.4395 23.3557 24.247 23.7584 22.8558 23.557C21.8621 23.3557 21.5639 22.349 22.2595 21.5436C22.9552 20.7383 23.9489 20.3356 25.042 20.4362C25.7376 20.5369 26.3338 20.3356 26.8307 19.9329C28.0232 19.1275 29.1163 18.3221 30.3087 17.5168C30.6069 17.3154 31.0044 17.2148 30.905 16.8121C30.905 16.7114 30.5075 16.6107 30.2094 16.5101C28.9175 16.2081 27.6257 16.0067 26.2345 15.7047C25.6382 15.604 25.042 15.7047 24.5451 16.1074C23.6508 16.9127 22.657 17.6174 21.7627 18.3221C19.6758 20.1342 17.2909 21.443 14.7072 22.4497C13.9122 22.7517 13.2166 22.953 12.3223 22.953C12.0241 22.953 11.8254 22.8523 11.726 22.5503C11.6266 22.349 11.726 22.1476 11.9248 21.9463C12.2229 21.6443 12.521 21.3423 12.8191 21.0403C15.6016 18.7248 18.7815 17.0134 22.1602 15.7047C22.4583 15.604 22.7564 15.5034 23.0545 15.4027C23.1539 15.4027 23.2533 15.302 23.2533 15.2013C23.2533 15.1007 23.1539 15 23.0545 15C22.0608 14.698 20.9677 14.4966 19.8746 14.1946C19.4771 14.094 19.0796 14.1946 18.5827 14.396C16.3965 15.4027 14.111 16.1074 11.6266 16.5101C11.1298 16.6107 10.7323 16.7114 10.4342 17.2148C9.73856 18.3221 7.7511 18.2215 6.55863 17.5168C5.76364 17.0134 5.66427 16.0067 6.45925 15.302C7.35361 14.4966 9.34107 14.396 10.3348 15.302C10.931 15.906 11.5273 15.8054 12.2229 15.7047C13.9122 15.302 15.6016 14.698 17.2909 13.9933C17.3903 13.8926 17.4896 13.7919 17.589 13.6913C17.4896 13.5906 17.3903 13.4899 17.1915 13.4899C15.9991 13.0872 14.8066 12.5839 13.5147 12.1812C13.1172 12.0805 12.8191 11.9799 12.4216 11.9799C7.45298 11.4765 3.37869 9.16107 -0.19873 5.73825C0.298134 5.63758 -0.19873 5.33557 0.0993882 4.83221C0.397507 4.22819 0.894371 4.42953 1.39124 4.5302C4.76991 5.2349 7.85047 6.64429 10.5335 8.65771C11.5273 9.36241 12.4216 10.1678 13.316 10.8725C13.7135 11.1745 14.0116 11.5772 14.5085 11.6778C15.8003 11.9799 16.8934 12.8859 18.2846 12.5839C17.8871 11.3758 16.9928 10.4698 16.3965 9.46308C15.9991 8.95973 15.6016 8.45637 15.2041 7.85235C14.8066 7.24832 14.4091 6.84563 13.5147 6.74496C12.2229 6.54362 10.931 4.73154 10.8317 3.42282C10.8317 2.81879 10.931 2.31543 11.4279 2.01342C12.0241 1.61073 12.6204 1.71141 13.1172 2.11409C14.3097 2.91946 15.1047 4.02684 15.0053 5.53691C15.0053 6.14094 15.2041 6.54362 15.5022 7.04698C16.9928 8.75839 18.2846 10.6711 19.3777 12.6846C19.6758 13.2886 20.2721 13.5906 20.8683 13.7919C21.7627 13.9933 22.7564 14.1946 23.6508 14.4966C23.8495 14.4966 23.9489 14.4966 24.1476 14.4966C24.0483 14.396 24.0483 14.1946 23.9489 14.094C23.1539 13.2886 22.3589 12.4832 21.5639 11.5772C19.2784 9.0604 17.6884 6.14094 16.4959 2.91946C16.2972 2.21476 15.9991 1.51006 15.9991 0.704695C15.9991 0.30201 16.3965 0.100668 16.6947 0.30201C16.9928 0.503352 17.2909 0.704695 17.589 1.00671C18.2846 1.61073 18.7815 2.4161 19.2784 3.1208C20.9677 5.63758 22.3589 8.25503 23.6508 10.9732C24.247 12.1812 24.8432 13.2886 25.6382 14.396C25.837 14.7987 26.1351 15.1007 26.6319 15.2013C28.1225 15.5034 29.7125 15.8054 31.2031 16.0067C31.5012 16.1074 31.7 15.906 31.6006 15.5034C31.1037 14.094 30.3087 12.8859 29.4144 11.6778C29.2156 11.3758 28.9175 11.2752 28.6194 11.1745C27.2282 10.8725 26.6319 9.86577 26.1351 8.55704C26.1351 8.45637 26.0357 8.3557 26.0357 8.25503C25.837 7.55033 26.1351 6.74496 26.5326 6.44295C27.0294 6.14094 27.7251 6.24161 28.3213 6.74496C29.2156 7.55033 29.9113 8.55704 29.8119 9.86577C29.8119 10.4698 29.9113 10.9732 30.4081 11.4765C31.4018 12.6846 32.0975 13.9933 32.6937 15.4027C32.8924 15.906 33.0912 16.3087 33.6874 16.4094C35.6749 16.7114 37.6623 17.0134 39.5504 17.3154C39.6498 17.3154 39.8485 17.3154 39.8485 17.1141C39.8485 17.0134 39.8485 16.9128 39.7492 16.8121C39.3517 16.4094 38.8548 16.0067 38.4573 15.604C36.3705 13.7919 34.4824 11.7785 32.8924 9.46308C31.7993 7.75167 30.905 5.93959 30.3087 4.02684C30.2094 3.62416 30.11 3.32214 30.11 2.91946C30.2094 2.61745 30.4081 2.4161 30.7062 2.51678C31.0044 2.61745 31.3025 2.81879 31.5012 3.02013C32.0975 3.62416 32.6937 4.12751 33.1906 4.83221C35.0786 7.34899 36.8674 9.86577 38.3579 12.4832C39.2523 13.9933 40.1467 15.604 41.3391 16.9127C41.7366 17.3154 42.1341 17.6174 42.631 17.6174C44.6184 17.8188 46.7053 18.0201 48.6927 18.1208C48.7921 18.1208 49.0902 18.0201 49.0902 18.0201C49.0902 17.9195 49.0902 17.7181 48.9908 17.6174C48.1959 16.4094 47.2021 15.5034 46.2084 14.396C45.9103 14.094 45.5128 14.094 45.2147 13.9933C44.0222 13.6913 43.2272 12.8859 42.7304 11.8792C42.4322 11.2752 42.3329 10.5705 42.9291 10.0671C43.426 9.56376 44.1216 9.46308 44.8172 9.96644C45.8109 10.6711 46.6059 11.5772 46.7053 12.8859C46.8046 13.4899 47.0034 13.8926 47.4009 14.2953C48.494 15.4027 49.4877 16.5101 50.2827 17.8188C50.5808 18.2215 50.8789 18.5235 51.4752 18.5235C53.562 18.6242 55.6488 18.7248 57.7357 18.8255C57.835 18.8255 58.0338 18.8255 58.0338 18.6242C58.0338 18.5235 58.0338 18.4228 57.9344 18.3221C57.0401 17.4161 56.0463 16.5101 55.152 15.604C53.6614 14.094 52.2702 12.3825 51.0777 10.5705C50.1833 9.16107 49.3883 7.651 49.0902 5.93959C48.9909 5.43624 48.9908 4.93288 48.9908 4.5302C48.9908 4.02684 49.4877 3.8255 49.8852 4.02684C50.4814 4.42953 50.9783 4.93288 51.3758 5.43624C52.5683 6.94631 53.6614 8.55704 54.6551 10.2685C55.7482 12.1812 56.7419 14.094 57.9344 15.906C59.8225 18.9262 59.9219 18.9262 63.4993 18.9262C65.3874 18.9262 67.3748 18.8255 69.2629 18.7248C69.6604 18.7248 69.7598 18.4228 69.561 18.0201C68.7661 17.0134 67.7723 16.1074 66.878 15.2013C66.5798 15 66.2817 14.8993 65.9836 14.8993C64.7911 14.5973 63.9962 13.8926 63.3005 12.8859C63.1018 12.6846 63.0024 12.3825 62.9031 12.1812C62.6049 11.0738 63.3999 10.2685 64.493 10.4698C65.8842 10.7718 67.1761 12.1812 67.2755 13.6913C67.2755 14.396 67.5736 14.7987 68.0704 15.2013C68.9648 16.0067 69.9585 16.9128 70.6541 17.8188C71.0516 18.3221 71.4491 18.5235 72.0454 18.4228C73.6353 18.2215 75.1259 18.1208 76.7159 18.0201C77.3121 17.9195 77.9084 17.9195 78.5046 17.8188C78.604 17.8188 78.8027 17.7181 78.9021 17.6174C79.0015 17.4161 78.8027 17.3154 78.7033 17.2148C75.6228 15.1007 74.3309 11.9799 73.3372 8.55704C73.0391 7.651 73.0391 6.64429 73.1385 5.63758C73.5359 5.33557 73.5359 5.13423 73.8341 5.03355C74.1322 4.93288 74.3309 5.03355 74.5297 5.2349C74.8278 5.63758 75.1259 6.04027 75.3247 6.44295C75.7222 7.44966 76.1196 8.55704 76.6165 9.66443C77.2127 11.1745 77.9084 12.6846 78.5046 14.1946C79.0015 15.4027 79.7964 16.3087 80.7902 17.1141C81.0883 17.3154 81.287 17.4161 81.6845 17.4161C84.2682 17.0134 86.7525 16.7114 89.3362 16.3087C89.8331 16.2081 89.9325 16.0067 89.6344 15.7047C89.0381 15 88.4419 14.2953 87.7463 13.6913C87.4482 13.3893 87.15 13.1879 86.6532 13.0872C85.1626 13.0872 84.467 11.8792 83.7714 10.7718C83.672 10.5705 83.672 10.3691 83.8707 10.1678C84.467 9.56376 85.3613 9.36241 86.0569 9.7651C86.7525 10.2685 87.5475 10.7718 87.7463 11.6778C87.8456 12.1812 88.1438 12.3825 88.4419 12.6846C89.2369 13.4899 90.0318 14.1946 90.6281 15.1007C91.1249 15.8054 91.7212 15.906 92.6155 15.8054C94.2055 15.4027 95.7955 15.1007 97.3854 14.7987C98.0811 14.698 98.7767 14.4966 99.4723 14.396C99.7704 14.2953 99.9691 14.2953 100.267 14.4966C100.466 14.5973 100.565 15 100.367 15.2013C99.9691 15.604 99.4723 15.604 99.0748 15.7047C96.7892 16.2081 94.5036 16.8121 92.1187 17.2148C91.4231 17.3154 90.9262 17.6174 90.5287 18.2215C89.535 19.7315 88.5413 21.1409 87.3488 22.5503C87.0507 22.8523 87.0507 23.1544 87.0507 23.557C87.0507 24.8658 85.6594 26.2752 84.467 26.4765C83.4732 26.5772 82.7776 25.7718 83.1751 24.8658C83.4732 23.9597 84.1688 23.3557 85.0632 23.1544C85.8582 22.953 86.2557 22.5503 86.7525 21.9463C87.7463 20.7383 88.6406 19.5302 89.4356 18.2215C89.535 18.1208 89.535 17.9195 89.535 17.8188C89.3362 17.8188 89.2369 17.7181 89.0381 17.7181C86.8519 18.0201 84.6657 18.3221 82.4795 18.6242C81.6845 18.7248 81.1877 19.0268 80.7902 19.9329C79.399 23.4564 77.2127 26.4765 74.4303 29.094C74.0328 29.396 73.7347 29.698 73.3372 30C72.9397 30.2013 72.4428 30 72.3435 29.4966C72.2441 28.7919 72.3435 28.1879 72.5422 27.5839C73.0391 25.5705 74.3309 23.9597 75.7222 22.5503C76.6165 21.6443 77.6102 20.8389 78.604 19.9329C78.8027 19.7315 79.1008 19.6309 79.0015 19.3289C79.0015 19.2282 78.604 19.2282 78.4052 19.2282C76.4178 19.4295 74.4303 19.6309 72.4428 19.8322C72.1447 19.8322 71.8466 20.0336 71.6479 20.2349C70.1573 22.1476 68.4679 23.7584 66.7786 25.4698C66.5798 25.6711 66.3811 25.9732 66.3811 26.2752C66.083 27.9866 65.0893 28.7919 63.4993 29.094C62.9031 29.1946 62.5056 28.9933 62.1081 28.4899C61.7106 27.9866 61.7106 27.4832 62.1081 26.9799C62.7043 26.1745 63.5987 25.6711 64.5924 25.5705C65.1886 25.4698 65.5861 25.3691 66.083 24.9664C67.5736 23.557 69.0642 22.047 70.356 20.5369C70.4554 20.4362 70.6541 20.2349 70.4554 20.1342C70.356 20.0336 70.1573 19.9329 70.0579 19.9329C68.3686 19.8322 67.0767 19.9329 66.083 20.0336Z" fill="white"/>
<path d="M139.917 20.0334C141.507 20.0334 142.799 20.0334 144.091 20.0334C144.687 20.0334 145.084 20.1341 145.482 20.6374C146.178 21.6442 146.973 22.6509 147.767 23.6576C148.761 24.8656 149.656 26.1744 150.649 27.3824C151.444 28.3891 152.339 29.1945 153.432 29.7985C153.63 29.8992 153.929 29.9999 154.227 29.8992C154.525 29.6979 154.624 29.3958 154.624 29.0938C154.425 27.9864 154.028 26.8791 153.432 25.8723C152.736 24.6643 151.742 23.6576 150.649 22.7515C149.656 21.9462 148.662 21.2415 147.668 20.5368C147.569 20.4361 147.37 20.3354 147.469 20.1341C147.569 20.0334 147.767 20.0334 147.867 19.9327C149.854 19.8321 151.842 19.7314 153.829 19.5301C154.425 19.5301 154.823 19.6307 155.32 20.0334C157.208 21.7448 159.195 23.4562 161.382 24.8656C161.68 25.067 161.878 25.2683 161.978 25.7717C162.276 27.0804 163.369 27.8858 164.661 27.8858C165.158 27.8858 165.655 27.7851 165.853 27.2817C166.052 26.7784 166.052 26.275 165.754 25.8723C165.158 25.067 164.363 24.5636 163.468 24.6643C162.872 24.765 162.475 24.5636 161.978 24.2616C160.09 22.9529 158.4 21.5435 156.711 19.9327C156.512 19.8321 156.413 19.5301 156.413 19.4294C156.413 19.0267 156.81 19.1274 157.109 19.1274C158.997 18.926 160.984 18.7247 162.872 18.5234C163.568 18.4227 164.065 18.624 164.661 19.1274C166.35 20.7381 168.04 22.2482 169.828 23.8589C171.219 25.067 172.71 26.1744 174.3 27.0804C174.896 27.3824 175.493 27.6844 176.089 27.8858C176.387 27.9864 176.685 28.0871 176.983 27.7851C177.281 27.4831 177.281 27.0804 177.082 26.7784C176.884 26.3757 176.685 25.8723 176.387 25.4697C174.996 23.4562 173.306 21.8455 171.219 20.6374C169.828 19.7314 168.338 19.0267 166.748 18.5234C166.648 18.5234 166.648 18.4227 166.549 18.322C166.549 18.2213 166.648 18.1207 166.748 18.1207C168.735 17.8187 170.723 17.416 172.809 17.114C173.306 17.0133 173.704 17.2146 174.201 17.5166C175.691 18.5234 177.182 19.6307 178.772 20.6374C179.07 20.8388 179.269 21.0401 179.169 21.4428C179.07 21.8455 179.269 22.2482 179.567 22.4495C180.561 23.3556 181.753 23.7583 183.144 23.5569C184.138 23.3556 184.436 22.3489 183.74 21.5435C183.045 20.7381 182.051 20.3354 180.958 20.4361C180.262 20.5368 179.666 20.3354 179.169 19.9327C177.977 19.1274 176.884 18.322 175.691 17.5166C175.393 17.3153 174.996 17.2146 175.095 16.8119C175.095 16.7113 175.493 16.6106 175.791 16.5099C177.082 16.2079 178.374 16.0066 179.766 15.7046C180.362 15.6039 180.958 15.7046 181.455 16.1072C182.349 16.9126 183.343 17.6173 184.237 18.322C186.324 20.1341 188.709 21.4428 191.293 22.4495C192.088 22.7515 192.783 22.9529 193.678 22.9529C193.976 22.9529 194.175 22.8522 194.274 22.5502C194.373 22.3489 194.274 22.1475 194.075 21.9462C193.777 21.6442 193.479 21.3421 193.181 21.0401C190.398 18.7247 187.219 17.0133 183.84 15.7046C183.542 15.6039 183.244 15.5032 182.946 15.4025C182.846 15.4025 182.747 15.3019 182.747 15.2012C182.747 15.1005 182.846 14.9999 182.946 14.9999C183.939 14.6978 185.032 14.4965 186.125 14.1945C186.523 14.0938 186.92 14.1945 187.417 14.3958C189.603 15.4025 191.889 16.1072 194.373 16.5099C194.87 16.6106 195.268 16.7113 195.566 17.2146C196.261 18.322 198.249 18.2213 199.441 17.5166C200.236 17.0133 200.336 16.0066 199.541 15.3019C198.646 14.4965 196.659 14.3958 195.665 15.3019C195.069 15.9059 194.473 15.8052 193.777 15.7046C192.088 15.3019 190.398 14.6978 188.709 13.9932C188.61 13.8925 188.51 13.7918 188.411 13.6911C188.51 13.5905 188.61 13.4898 188.808 13.4898C190.001 13.0871 191.193 12.5838 192.485 12.1811C192.883 12.0804 193.181 11.9797 193.578 11.9797C198.547 11.4764 202.621 9.16094 206.199 5.73812C206.497 5.4361 206.894 5.13409 206.696 4.63073C206.397 4.02671 205.901 4.22805 205.404 4.32872C202.025 5.03342 198.945 6.44282 196.261 8.45624C195.268 9.16094 194.373 9.96631 193.479 10.671C193.082 10.973 192.783 11.3757 192.287 11.4764C190.995 11.7784 189.902 12.6844 188.51 12.3824C188.908 11.1744 189.802 10.2683 190.398 9.26161C190.796 8.75825 191.193 8.2549 191.591 7.65087C191.988 7.04684 192.386 6.64416 193.28 6.54349C194.572 6.34214 195.864 4.53006 195.963 3.22134C195.963 2.61731 195.864 2.11396 195.367 1.81194C194.771 1.40926 194.175 1.50993 193.678 1.91261C192.485 2.71798 191.69 3.82537 191.79 5.33543C191.79 5.93946 191.591 6.34214 191.293 6.8455C189.802 8.55691 188.51 10.4697 187.417 12.4831C187.119 13.0871 186.523 13.3891 185.927 13.5905C185.032 13.7918 184.039 13.9932 183.144 14.2952C182.945 14.2952 182.846 14.2952 182.647 14.2952C182.747 14.1945 182.747 13.9932 182.846 13.8925C183.641 13.0871 184.436 12.2817 185.231 11.3757C187.517 8.85892 189.107 5.93946 190.299 2.71798C190.498 2.01328 190.796 1.30859 190.796 0.503218C190.796 0.100533 190.398 -0.100809 190.1 0.100533C189.802 0.301875 189.504 0.503218 189.206 0.805231C188.51 1.40926 188.014 2.21463 187.517 2.91933C185.827 5.4361 184.436 8.05355 183.144 10.7717C182.548 11.9797 181.952 13.0871 181.157 14.1945C180.958 14.5972 180.66 14.8992 180.163 14.9999C178.672 15.3019 177.082 15.6039 175.592 15.8052C175.294 15.9059 175.095 15.7046 175.194 15.3019C175.691 13.8925 176.486 12.6844 177.381 11.4764C177.579 11.1744 177.877 11.0737 178.176 10.973C179.567 10.671 180.163 9.66429 180.66 8.35557C180.66 8.2549 180.759 8.15422 180.759 8.05355C180.958 7.34886 180.66 6.54349 180.262 6.24147C179.766 5.93946 179.07 6.04013 178.474 6.54349C177.579 7.34886 176.884 8.35557 176.983 9.66429C176.983 10.2683 176.884 10.7717 176.387 11.275C175.393 12.4831 174.698 13.7918 174.101 15.2012C173.903 15.7046 173.704 16.1072 173.108 16.2079C171.12 16.5099 169.133 16.8119 167.245 17.114C167.145 17.114 166.946 17.114 166.946 16.9126C166.946 16.8119 166.946 16.7113 167.046 16.6106C167.443 16.2079 167.94 15.8052 168.338 15.4025C170.425 13.5905 172.313 11.577 173.903 9.26161C174.996 7.5502 175.89 5.73812 176.486 3.82537C176.586 3.42268 176.685 3.12067 176.685 2.71798C176.586 2.41597 176.387 2.21463 176.089 2.3153C175.791 2.41597 175.493 2.61731 175.294 2.81865C174.698 3.42268 174.101 3.92604 173.604 4.63073C171.716 7.14751 169.928 9.66429 168.437 12.2817C167.543 13.7918 166.648 15.4025 165.456 16.7113C165.058 17.114 164.661 17.416 164.164 17.416C162.177 17.6173 160.09 17.8187 158.102 17.9193C158.003 17.9193 157.705 17.8187 157.705 17.8187C157.705 17.718 157.705 17.5166 157.804 17.416C158.599 16.2079 159.593 15.3019 160.587 14.1945C160.885 13.8925 161.282 13.8925 161.58 13.7918C162.773 13.4898 163.568 12.6844 164.065 11.6777C164.363 11.0737 164.462 10.369 163.866 9.86563C163.369 9.36228 162.673 9.26161 161.978 9.76496C160.984 10.4697 160.189 11.3757 160.09 12.6844C159.99 13.2885 159.792 13.6911 159.394 14.0938C158.301 15.2012 157.307 16.3086 156.512 17.6173C156.214 18.02 155.916 18.322 155.32 18.322C153.233 18.4227 151.146 18.5234 149.059 18.624C148.96 18.624 148.761 18.624 148.761 18.4227C148.761 18.322 148.761 18.2213 148.861 18.1207C149.755 17.2146 150.749 16.3086 151.643 15.4025C153.134 13.8925 154.525 12.1811 155.717 10.369C156.612 8.95959 157.407 7.44953 157.705 5.73812C157.804 5.23476 157.804 4.73141 157.804 4.32872C157.804 3.82537 157.307 3.62402 156.91 3.82537C156.314 4.22805 155.817 4.73141 155.419 5.23476C154.227 6.74483 153.134 8.35557 152.14 10.067C151.047 11.9797 150.053 13.8925 148.861 15.7046C146.973 18.7247 146.873 18.7247 143.296 18.7247C141.408 18.7247 139.42 18.624 137.532 18.5234C137.135 18.5234 137.035 18.2213 137.234 17.8187C138.029 16.8119 139.023 15.9059 139.917 14.9999C140.215 14.7985 140.513 14.6979 140.811 14.6979C142.004 14.3958 142.799 13.6911 143.494 12.6844C143.693 12.4831 143.793 12.1811 143.892 11.9797C144.19 10.8723 143.395 10.067 142.302 10.2683C140.911 10.5703 139.619 11.9797 139.52 13.4898C139.52 14.1945 139.221 14.5972 138.725 14.9999C137.83 15.8052 136.836 16.7113 136.141 17.6173C135.743 18.1207 135.346 18.322 134.75 18.2213C133.16 18.02 131.669 17.9193 130.079 17.8187C129.483 17.718 128.887 17.718 128.29 17.6173C128.191 17.6173 127.992 17.5166 127.893 17.416C127.794 17.2146 127.992 17.114 128.092 17.0133C131.172 14.8992 132.464 11.7784 133.458 8.35557C133.756 7.44953 133.756 6.44282 133.657 5.4361C133.657 5.23476 133.557 5.03342 133.358 4.93275C133.06 4.83208 132.862 4.93275 132.663 5.13409C132.365 5.53677 132.067 5.93946 131.868 6.34214C131.47 7.34886 131.073 8.45624 130.576 9.56362C129.98 11.0737 129.284 12.5838 128.688 14.0938C128.191 15.3019 127.396 16.2079 126.402 17.0133C126.104 17.2146 125.905 17.3153 125.508 17.3153C122.924 16.9126 120.44 16.6106 117.856 16.2079C117.359 16.1072 117.26 15.9059 117.558 15.6039C118.154 14.8992 118.751 14.1945 119.446 13.5905C119.744 13.2885 120.042 13.0871 120.539 12.9864C122.03 12.9864 122.726 11.7784 123.421 10.671C123.521 10.4697 123.521 10.2683 123.322 10.067C122.726 9.46295 121.831 9.26161 121.136 9.66429C120.44 10.1676 119.645 10.671 119.446 11.577C119.347 12.0804 119.049 12.2817 118.751 12.5838C117.956 13.3891 117.161 14.0938 116.564 14.9999C116.068 15.7046 115.471 15.8052 114.577 15.7046C112.987 15.3019 111.397 14.9999 109.807 14.6979C109.111 14.5972 108.416 14.3958 107.72 14.2952C107.422 14.1945 107.223 14.1945 106.925 14.3958C106.726 14.4965 106.627 14.8992 106.826 15.1005C107.223 15.5032 107.72 15.5032 108.118 15.6039C110.403 16.1072 112.689 16.7113 115.074 17.114C115.769 17.2146 116.266 17.5166 116.664 18.1207C117.658 19.6307 118.651 21.0401 119.844 22.4495C120.142 22.7515 120.142 23.0536 120.142 23.4562C120.142 24.765 121.533 26.1744 122.726 26.3757C123.719 26.4764 124.415 25.671 124.017 24.765C123.719 23.8589 123.024 23.2549 122.129 23.0536C121.334 22.8522 120.937 22.4495 120.44 21.8455C119.446 20.6374 118.552 19.4294 117.757 18.1207C117.658 18.02 117.658 17.8187 117.658 17.718C117.856 17.718 117.956 17.6173 118.154 17.6173C120.341 17.9193 122.527 18.2213 124.713 18.5234C125.508 18.624 126.005 18.926 126.402 19.8321C127.794 23.3556 129.98 26.3757 132.762 28.9932C133.16 29.2952 133.458 29.5972 133.855 29.8992C134.253 30.1005 134.75 29.8992 134.849 29.3958C134.948 28.6911 134.849 28.0871 134.65 27.4831C134.153 25.4697 132.862 23.8589 131.47 22.4495C130.576 21.5435 129.582 20.7381 128.589 19.8321C128.39 19.6307 128.092 19.5301 128.191 19.2281C128.191 19.1274 128.589 19.1274 128.787 19.1274C130.775 19.3287 132.762 19.5301 134.75 19.7314C135.048 19.7314 135.346 19.9327 135.545 20.1341C137.035 22.0468 138.725 23.6576 140.414 25.369C140.613 25.5703 140.811 25.8723 140.811 26.1744C141.11 27.8858 142.103 28.6911 143.693 28.9932C144.289 29.0938 144.687 28.8925 145.084 28.3891C145.482 27.8858 145.482 27.3824 145.084 26.8791C144.488 26.0737 143.594 25.5703 142.6 25.4697C142.004 25.369 141.606 25.2683 141.11 24.8656C139.619 23.4562 138.128 21.9462 136.836 20.4361C136.737 20.3354 136.538 20.1341 136.737 20.0334C136.836 19.9327 137.035 19.8321 137.135 19.8321C137.631 19.8321 138.923 19.9327 139.917 20.0334Z" fill="white"/>
<path d="M103.149 15.8054C102.354 15.8054 101.658 15.5034 101.162 14.698C100.764 13.9933 100.764 13.2886 101.261 12.5839C101.559 12.0805 102.056 11.7785 102.752 11.7785C103.149 11.7785 103.646 11.8792 104.043 12.0805C105.137 12.5839 105.633 13.2886 105.435 14.1946C105.236 14.8993 104.64 15.9061 103.149 15.8054Z" fill="white"/>
</g>
<defs>
<clipPath id="clip0">
<rect width="206" height="30" fill="white"/>
</clipPath>
</defs>
</svg>
