<svg width="269" height="25" viewBox="0 0 269 25" fill="none" xmlns="http://www.w3.org/2000/svg">
<path d="M0.194092 5.56317V1.35828H17.046V5.56317H10.9327V24H6.27501V5.56317H0.194092Z" fill="white"/>
<path d="M23.6733 1.35828H28.331V9.83275H38.8756V1.35828H43.5333V24H38.8756V14.07H28.331V24H23.6733V1.35828Z" fill="white"/>
<path d="M52.3745 1.35828H66.8005V5.30441H56.9028V10.0592H66.1536V13.9083H56.9028V20.0539H66.8005V24H52.3745V1.35828Z" fill="white"/>
<path d="M104.355 24L101.994 18.8894H94.2309L91.9021 24H86.6298L98.1124 -0.000221252L109.627 24H104.355ZM98.1124 8.73301L95.3307 15.2021H100.894L98.1124 8.73301Z" fill="white"/>
<path d="M118.856 12.6791C118.856 14.167 119.19 15.4608 119.858 16.5606C120.527 17.6603 121.411 18.5121 122.511 19.1159C123.61 19.6981 124.807 19.9892 126.101 19.9892C127.697 19.9892 129.055 19.6873 130.176 19.0835C131.319 18.4797 132.268 17.7466 133.023 16.884V22.124C132.096 22.8571 131.093 23.4286 130.015 23.8383C128.937 24.248 127.567 24.4528 125.907 24.4528C124.16 24.4528 122.543 24.1725 121.055 23.6119C119.589 23.0296 118.317 22.221 117.238 21.186C116.16 20.1509 115.319 18.911 114.715 17.4662C114.112 16.0215 113.81 14.4258 113.81 12.6791C113.81 10.9325 114.112 9.33679 114.715 7.89204C115.319 6.44728 116.16 5.20738 117.238 4.17232C118.317 3.13727 119.589 2.33942 121.055 1.77877C122.543 1.19656 124.16 0.905447 125.907 0.905447C127.567 0.905447 128.937 1.1103 130.015 1.52001C131.093 1.90815 132.096 2.47959 133.023 3.23431V8.47425C132.268 7.59015 131.319 6.85699 130.176 6.27477C129.055 5.67099 127.697 5.3691 126.101 5.3691C124.807 5.3691 123.61 5.67099 122.511 6.27477C121.411 6.85699 120.527 7.69796 119.858 8.7977C119.19 9.87588 118.856 11.1697 118.856 12.6791Z" fill="white"/>
<path d="M156.419 24L154.058 18.8894H146.295L143.966 24H138.694L150.177 -0.000221252L161.691 24H156.419ZM150.177 8.73301L147.395 15.2021H152.958L150.177 8.73301Z" fill="white"/>
<path d="M175.845 24H168.147V1.35828H175.845C178.239 1.35828 180.32 1.8219 182.088 2.74913C183.878 3.67636 185.268 4.99174 186.26 6.69526C187.252 8.37721 187.748 10.3718 187.748 12.6791C187.748 14.9649 187.252 16.9595 186.26 18.663C185.268 20.3665 183.878 21.6819 182.088 22.6092C180.32 23.5364 178.239 24 175.845 24ZM175.716 5.59552H172.934V19.7628H175.716C177.053 19.7628 178.26 19.5256 179.338 19.0512C180.438 18.5552 181.311 17.7897 181.958 16.7547C182.627 15.698 182.961 14.3395 182.961 12.6791C182.961 11.0187 182.627 9.67103 181.958 8.63598C181.311 7.57936 180.438 6.81386 179.338 6.33946C178.26 5.8435 177.053 5.59552 175.716 5.59552Z" fill="white"/>
<path d="M195.332 1.35828H209.758V5.30441H199.86V10.0592H209.111V13.9083H199.86V20.0539H209.758V24H195.332V1.35828Z" fill="white"/>
<path d="M223.362 11.353L221.874 24H217.022L220.386 0.226197L229.895 14.8139L239.34 0.226197L242.769 24H237.885L236.429 11.353L229.895 21.8976L223.362 11.353Z" fill="white"/>
<path d="M262.916 1.35828H268.253L260.458 14.6199V24H255.703V14.6522L247.908 1.35828H253.245L258.064 10.4797L262.916 1.35828Z" fill="white"/>
</svg>
