<?xml version="1.0" encoding="UTF-8"?>
<svg width="360px" height="208px" viewBox="0 0 360 208" version="1.1" xmlns="http://www.w3.org/2000/svg" xmlns:xlink="http://www.w3.org/1999/xlink">
    <!-- Generator: Sketch 63.1 (92452) - https://sketch.com -->
    <title>Laptop</title>
    <desc>Created with Sketch.</desc>
    <g id="Page-1" stroke="none" stroke-width="1" fill="none" fill-rule="evenodd">
        <g id="01.Homepage" transform="translate(-660.000000, -2602.000000)" fill="#50D6EB" fill-rule="nonzero">
            <g id="Repairs" transform="translate(0.000000, 2137.000000)">
                <g id="Laptops-&amp;-Ultra-books" transform="translate(252.000000, 271.000000)">
                    <g id="Group-5" transform="translate(0.000000, 194.000000)">
                        <path d="M420.128,208.000003 C420.040906,208.000003 419.887232,207.996851 419.676301,207.987579 C419.329947,207.972355 418.945297,207.945042 418.531584,207.90261 C417.347073,207.781122 416.161074,207.562168 415.045394,207.218882 C413.146871,206.634721 411.640308,205.749747 410.688,204.480003 C410.266239,203.917655 409.919267,203.313252 409.642104,202.673645 C408.837114,200.815977 408.673114,198.876089 408.869116,197.151275 C408.895748,196.916912 408.923273,196.744425 408.943535,196.64311 L408.943535,196.64311 L409.072157,196.000003 L451.19993,196.00114 C446.915145,193.710231 444.000001,189.191912 444.000001,183.992386 L444.000001,183.992386 L444.000001,14.4076174 C444.000001,6.89383243 450.089437,0.800000012 457.599819,0.800000012 L457.599819,0.800000012 L721.600186,0.800000012 C729.110568,0.800000012 735.200005,6.89383243 735.200005,14.4076174 L735.200005,14.4076174 L735.200005,183.992386 C735.200005,189.191912 732.28486,193.710231 727.997,196.00114 L767.055849,196.000003 L767.18447,196.64311 C767.204733,196.744425 767.232257,196.916912 767.25889,197.151275 C767.454891,198.876089 767.290891,200.815977 766.485902,202.673645 C766.208738,203.313252 765.861766,203.917655 765.440005,204.480003 C764.487697,205.749747 762.981135,206.634721 761.082611,207.218882 C759.966931,207.562168 758.780932,207.781122 757.596421,207.90261 C757.182708,207.945042 756.798058,207.972355 756.451704,207.987579 C756.240773,207.996851 756.087099,208.000003 756.000005,208.000003 L756.000005,208.000003 Z M756.000005,206.400003 C756.277306,206.400003 756.780778,206.377872 757.433175,206.31096 C758.520853,206.199403 759.607044,205.998876 760.612074,205.689636 C762.216509,205.195963 763.443674,204.475111 764.160005,203.520003 C764.504911,203.060129 764.78942,202.564532 765.017813,202.037473 C765.694823,200.47514 765.836231,198.802494 765.669121,197.331931 L765.695001,197.6 L617.920001,197.6 L617.920003,199.200003 C617.920003,200.649463 616.793399,201.82962 615.360411,201.915051 L615.193753,201.920003 L564.006252,201.920003 C562.497754,201.920003 561.280002,200.708645 561.280002,199.200003 L561.280002,199.200003 L561.280001,197.6 L410.432001,197.6 L410.42788,197.650031 C410.323414,198.933893 410.45753,200.349829 410.973234,201.701112 L411.110193,202.037473 C411.338585,202.564532 411.623095,203.060129 411.968,203.520003 C412.684331,204.475111 413.911496,205.195963 415.515932,205.689636 C416.520962,205.998876 417.607152,206.199403 418.69483,206.31096 C419.347228,206.377872 419.850699,206.400003 420.128,206.400003 L420.128,206.400003 Z M617.280001,197.6 L561.920001,197.6 L561.920002,199.200003 C561.920002,200.304234 562.771313,201.199085 563.856833,201.274811 L564.006252,201.280003 L615.193753,201.280003 C616.351625,201.280003 617.280003,200.351733 617.280003,199.200003 L617.280003,199.200003 L617.280001,197.6 Z M410.512465,196.956896 L409.728,197.600003 L410.432001,197.6 L410.458884,197.331931 L410.458884,197.331931 C410.480252,197.143894 410.500727,197.015581 410.512465,196.956896 Z M765.615541,196.956896 C765.627278,197.015581 765.647753,197.143894 765.669121,197.331931 L765.695001,197.6 L766.400005,197.600003 L765.615541,196.956896 Z M721.600186,2.40000004 L457.599819,2.40000004 C450.973352,2.40000004 445.600001,7.77722969 445.600001,14.4076174 L445.600001,14.4076174 L445.600001,183.992386 C445.600001,190.624237 450.97403,196.000003 457.613105,196.000003 L457.613105,196.000003 L721.596187,196.000003 C728.225975,196.000003 733.600005,190.624237 733.600005,183.992386 L733.600005,183.992386 L733.600005,14.4076174 C733.600005,7.77722969 728.226654,2.40000004 721.600186,2.40000004 L721.600186,2.40000004 Z M591,7 C592.104569,7 593,7.8954305 593,9 C593,10.1045695 592.104569,11 591,11 C589.895431,11 589,10.1045695 589,9 C589,7.8954305 589.895431,7 591,7 Z" id="Laptop"></path>
                    </g>
                </g>
            </g>
        </g>
    </g>
</svg>