<svg id="Logo" xmlns="http://www.w3.org/2000/svg" width="397" height="152" viewBox="0 0 397 152">
  <defs>
    <style>
      .cls-1 {
        fill: #242323;
      }

      .cls-1, .cls-2 {
        fill-rule: evenodd;
      }

      .cls-2 {
        fill: #ed4b4b;
      }
    </style>
  </defs>
  <path id="azino" class="cls-1" d="M80.807,97.509c0-21.064-9.038-38.5-37.923-38.5-15.772,0-27.645,4.54-33.67,7.99l4.962,17.8A47.854,47.854,0,0,1,38.1,78.079c13.291,0,15.772,6.719,15.772,11.622v1.09c-30.657,0-50.859,10.9-50.859,33.957,0,14.164,10.455,27.238,28,27.238,10.278,0,19.139-3.813,24.809-10.9h0.532l1.595,8.9H82.225c-1.063-4.9-1.418-13.074-1.418-21.428V97.509Zm-26.05,20.156a20.255,20.255,0,0,1-.532,4.721,14.921,14.921,0,0,1-14,10.169c-6.025,0-10.633-3.45-10.633-10.532,0-10.532,10.987-13.982,25.164-13.982v9.624Zm33.494,32.323h75.314V128.016H121.921v-0.364c4.962-4.9,9.392-10.532,14.177-16.161L162.148,77.9V61.191H91.264V83.163h37.923v0.363c-4.785,5.266-8.684,9.806-13.645,15.617L88.251,134.19v15.8Zm109.87,0v-88.8H171.185v88.8h26.936Zm14.53,0h26.935V98.78a20.357,20.357,0,0,1,.886-6.9c1.95-5.085,6.38-10.351,13.823-10.351,9.746,0,13.645,7.808,13.645,19.248v49.211h26.936V97.509c0-26.149-13.291-38.315-31.012-38.315a30.966,30.966,0,0,0-26.759,14.346h-0.531l-1.241-12.348H211.942c0.354,7.99.709,17.251,0.709,28.328v60.469ZM350.875,59.012c-28,0-46.429,18.341-46.429,47.213,0,28.691,19.493,45.76,44.834,45.76,23.215,0,45.72-14.89,45.72-47.394C395,77.715,377.279,59.012,350.875,59.012ZM349.989,78.8c12.227,0,17.189,13.438,17.189,26.512,0,16.161-6.556,26.875-17.189,26.875-11.519,0-17.721-11.44-17.721-26.693C332.268,92.424,337.23,78.8,349.989,78.8Z"/>
  <path id="Color_Fill_1" data-name="Color Fill 1" class="cls-2" d="M170.2,1.006c5.775-.075,8.977,1.991,12.159,4.452,0.912,0.705,1.762,2.807,2.689,3.281a7.24,7.24,0,0,1,2.572-3.163l1.4-1.406c3.122-2.239,8.946-4.269,14.147-2.578,6.037,1.963,9.8,6.157,11.458,12.537,1.221,4.709-.8,9.647-2.572,12.3a23.822,23.822,0,0,1-3.157,3.4L203.636,35.1,189.723,49.16c-1.284,1.286-2.708,2.449-3.975,3.749a2.29,2.29,0,0,1-1.637-.117c-1.165-.385-2-1.771-2.806-2.578l-5.963-5.975L163.183,32.054c-2.508-2.513-5.391-4.819-6.9-8.319-1.26-2.924-1.84-8.027-.585-11.482a16.685,16.685,0,0,1,8.769-9.842A23.633,23.633,0,0,1,168.21,1.24C168.849,1.084,169.705,1.311,170.2,1.006Z"/>
</svg>
