<svg width="180" height="44" viewBox="0 0 180 44" fill="none" xmlns="http://www.w3.org/2000/svg">
<path d="M0.88 42.36H1.2C1.54133 42.36 1.84 42.2533 2.096 42.04C2.352 41.784 2.56533 41.4853 2.736 41.144C2.94933 40.8027 3.09867 40.44 3.184 40.056C3.312 39.672 3.376 39.3093 3.376 38.968V4.728C3.376 4.42933 3.312 4.088 3.184 3.704C3.09867 3.32 2.94933 2.95733 2.736 2.616C2.56533 2.27466 2.352 1.99733 2.096 1.784C1.84 1.528 1.54133 1.4 1.2 1.4H0.88V0.759998H10.096V1.4H9.776C9.43467 1.4 9.136 1.528 8.88 1.784C8.624 1.99733 8.41067 2.27466 8.24 2.616C8.06933 2.95733 7.92 3.32 7.792 3.704C7.70667 4.088 7.664 4.42933 7.664 4.728V40.632H21.68C22.4907 40.632 23.1947 40.44 23.792 40.056C24.3893 39.672 24.88 39.2027 25.264 38.648C25.6907 38.0507 25.9893 37.432 26.16 36.792C26.3733 36.1093 26.48 35.4907 26.48 34.936H27.12V43H0.88V42.36ZM55.973 0.119999C59.301 0.119999 62.2877 0.717332 64.933 1.912C67.5783 3.064 69.8183 4.64267 71.653 6.648C73.5303 8.61067 74.9597 10.9147 75.941 13.56C76.965 16.1627 77.477 18.8933 77.477 21.752C77.477 24.952 76.8797 27.896 75.685 30.584C74.533 33.272 72.933 35.576 70.885 37.496C68.837 39.416 66.4477 40.9307 63.717 42.04C61.029 43.1067 58.149 43.64 55.077 43.64C51.7917 43.64 48.8263 43.0427 46.181 41.848C43.5783 40.6533 41.3597 39.0747 39.525 37.112C37.733 35.1493 36.3463 32.888 35.365 30.328C34.3837 27.768 33.893 25.1013 33.893 22.328C33.893 19.5973 34.3837 16.9093 35.365 14.264C36.3463 11.576 37.7757 9.18666 39.653 7.096C41.573 5.00533 43.8983 3.32 46.629 2.04C49.3597 0.759998 52.4743 0.119999 55.973 0.119999ZM55.909 41.4C58.7677 41.272 61.2637 40.632 63.397 39.48C65.573 38.2853 67.3863 36.792 68.837 35C70.2877 33.1653 71.3543 31.16 72.037 28.984C72.7623 26.808 73.125 24.6533 73.125 22.52C73.125 20.1733 72.6983 17.8053 71.845 15.416C70.9917 13.0267 69.7757 10.872 68.197 8.952C66.6183 6.98933 64.7197 5.41067 62.501 4.216C60.325 2.97866 57.8717 2.36 55.141 2.36C52.4957 2.36 50.1277 2.95733 48.037 4.152C45.9463 5.304 44.1543 6.79733 42.661 8.632C41.2103 10.4667 40.101 12.5147 39.333 14.776C38.565 17.0373 38.181 19.256 38.181 21.432C38.181 23.7787 38.629 26.1467 39.525 28.536C40.421 30.8827 41.6583 33.016 43.237 34.936C44.8157 36.856 46.6717 38.4133 48.805 39.608C50.981 40.8027 53.349 41.4 55.909 41.4ZM115.388 20.728H124.54V21.368H124.22C123.878 21.368 123.58 21.496 123.324 21.752C123.068 21.9653 122.854 22.2427 122.684 22.584C122.513 22.9253 122.364 23.288 122.236 23.672C122.15 24.056 122.108 24.3973 122.108 24.696V41.848C121.34 42.1467 120.465 42.4027 119.484 42.616C118.502 42.8293 117.478 43 116.412 43.128C115.345 43.2987 114.257 43.4267 113.148 43.512C112.038 43.5973 111.014 43.64 110.076 43.64C106.236 43.64 102.886 43 100.028 41.72C97.1688 40.44 94.8008 38.776 92.9235 36.728C91.0462 34.6373 89.6382 32.2907 88.6995 29.688C87.8035 27.0853 87.3555 24.4613 87.3555 21.816C87.3555 19.1707 87.8035 16.5467 88.6995 13.944C89.6382 11.3413 91.0462 9.016 92.9235 6.968C94.8435 4.92 97.2328 3.27733 100.092 2.04C102.993 0.759998 106.428 0.119999 110.396 0.119999C111.889 0.119999 113.276 0.247999 114.556 0.503998C115.836 0.759997 116.966 0.994663 117.948 1.208C118.502 1.336 118.972 1.464 119.356 1.592C119.782 1.67733 120.145 1.72 120.444 1.72H121.02V8.504H120.38C120.124 7.18133 119.612 6.11466 118.844 5.304C118.118 4.49333 117.265 3.87466 116.284 3.448C115.302 3.02133 114.257 2.744 113.148 2.616C112.081 2.44533 111.078 2.36 110.14 2.36C106.94 2.36 104.166 2.936 101.82 4.088C99.4728 5.19733 97.5528 6.648 96.0595 8.44C94.5662 10.232 93.4568 12.2587 92.7315 14.52C92.0062 16.7387 91.6435 18.9573 91.6435 21.176C91.6435 23.6507 92.1128 26.104 93.0515 28.536C93.9902 30.9253 95.3128 33.08 97.0195 35C98.7262 36.8773 100.774 38.4133 103.164 39.608C105.596 40.76 108.284 41.336 111.228 41.336C112.038 41.336 113.041 41.2507 114.236 41.08C115.43 40.8667 116.625 40.4187 117.82 39.736V24.696C117.82 24.3973 117.777 24.056 117.692 23.672C117.606 23.288 117.457 22.9253 117.244 22.584C117.073 22.2427 116.86 21.9653 116.604 21.752C116.348 21.496 116.049 21.368 115.708 21.368H115.388V20.728ZM157.898 0.119999C161.226 0.119999 164.213 0.717332 166.858 1.912C169.503 3.064 171.743 4.64267 173.578 6.648C175.455 8.61067 176.885 10.9147 177.866 13.56C178.89 16.1627 179.402 18.8933 179.402 21.752C179.402 24.952 178.805 27.896 177.61 30.584C176.458 33.272 174.858 35.576 172.81 37.496C170.762 39.416 168.373 40.9307 165.642 42.04C162.954 43.1067 160.074 43.64 157.002 43.64C153.717 43.64 150.751 43.0427 148.106 41.848C145.503 40.6533 143.285 39.0747 141.45 37.112C139.658 35.1493 138.271 32.888 137.29 30.328C136.309 27.768 135.818 25.1013 135.818 22.328C135.818 19.5973 136.309 16.9093 137.29 14.264C138.271 11.576 139.701 9.18666 141.578 7.096C143.498 5.00533 145.823 3.32 148.554 2.04C151.285 0.759998 154.399 0.119999 157.898 0.119999ZM157.834 41.4C160.693 41.272 163.189 40.632 165.322 39.48C167.498 38.2853 169.311 36.792 170.762 35C172.213 33.1653 173.279 31.16 173.962 28.984C174.687 26.808 175.05 24.6533 175.05 22.52C175.05 20.1733 174.623 17.8053 173.77 15.416C172.917 13.0267 171.701 10.872 170.122 8.952C168.543 6.98933 166.645 5.41067 164.426 4.216C162.25 2.97866 159.797 2.36 157.066 2.36C154.421 2.36 152.053 2.95733 149.962 4.152C147.871 5.304 146.079 6.79733 144.586 8.632C143.135 10.4667 142.026 12.5147 141.258 14.776C140.49 17.0373 140.106 19.256 140.106 21.432C140.106 23.7787 140.554 26.1467 141.45 28.536C142.346 30.8827 143.583 33.016 145.162 34.936C146.741 36.856 148.597 38.4133 150.73 39.608C152.906 40.8027 155.274 41.4 157.834 41.4Z" fill="white"/>
</svg>
