<svg width="474" height="237" viewBox="0 0 474 237" fill="none" xmlns="http://www.w3.org/2000/svg">
<path d="M237.006 474C227.258 474 217.52 473.408 207.843 472.225L448.74 343.582C442.612 355.722 435.455 367.313 427.347 378.227L248.514 473.726C244.695 473.906 240.825 474 237.006 474ZM271.236 471.545L412.807 395.943C375.86 436.884 325.787 463.626 271.236 471.55V471.545ZM193.383 469.993C183.409 468.135 173.565 465.636 163.911 462.511L465.06 301.694C462.298 311.447 458.912 321.012 454.923 330.33L193.396 469.993H193.383ZM152.679 458.557C144.591 455.474 136.677 451.949 128.975 447.999L472.409 264.599C471.41 273.196 469.943 281.731 468.012 290.167L152.682 458.557H152.679ZM119.72 442.99C112.944 439.122 106.289 434.874 99.9156 430.347L473.917 230.624C473.973 232.805 474 234.935 474 236.992C474 242.681 473.795 248.446 473.39 254.125L119.72 442.993V442.99ZM92.1126 424.562C86.3347 420.09 80.6907 415.292 75.341 410.3L470.977 199.032C472.14 206.266 472.979 213.631 473.465 220.923L92.1151 424.582L92.1126 424.562ZM68.7247 403.881C63.7755 398.892 59.0034 393.63 54.5331 388.243L464.238 169.455C466.238 176.189 467.951 183.085 469.333 189.956L68.7371 403.879L68.7247 403.881ZM48.9586 381.266C44.7772 375.823 40.7877 370.139 37.1106 364.377L454.069 141.714C456.837 148.012 459.348 154.482 461.535 160.946L48.971 381.268L48.9586 381.266ZM32.5137 356.877C29.0672 351.011 25.8384 344.924 22.914 338.789L440.654 115.707C444.156 121.576 447.425 127.641 450.379 133.735L32.5137 356.88V356.877ZM19.2798 330.777C16.5682 324.492 14.1024 318 11.9433 311.482L424.029 91.4106C428.254 96.8306 432.281 102.489 436.006 108.234L19.2798 330.774V330.777ZM9.29776 302.937C7.34644 296.185 5.67881 289.267 4.34077 282.368L404.078 68.9016C409.075 73.8701 413.894 79.1073 418.405 84.4688L9.29776 302.939V302.937ZM2.75691 273.263C1.64694 266.035 0.861541 258.644 0.425663 251.297L380.472 48.3456C386.3 52.7916 392.002 57.5618 397.397 62.5252L2.75691 273.27V273.263ZM0.0433087 241.545C0.0154327 240.006 0 238.479 0 237.005C0 230.665 0.25416 224.246 0.760996 217.951L352.608 30.0595C359.451 33.8892 366.174 38.109 372.603 42.6007L0.0606322 241.535L0.0433087 241.545ZM1.81773 207.42C2.89509 198.774 4.44821 190.195 6.47032 181.72L319.279 14.6743C327.453 17.704 335.454 21.1834 343.245 25.096L1.83505 207.41L1.81773 207.42ZM9.55637 170.117C12.4486 160.279 15.9776 150.64 20.1212 141.26L278.02 3.54304C288.134 5.31007 298.124 7.73492 307.924 10.8019L9.56627 170.127L9.55637 170.117ZM26.5557 127.869C32.9876 115.504 40.4933 103.728 48.9858 92.6788L221.624 0.489165C226.71 0.164528 231.88 0 236.989 0C245.785 0.000494876 254.574 0.482655 263.317 1.4452L26.5631 127.874L26.5557 127.869ZM64.5683 74.4026C100.042 36.7182 146.88 11.7086 197.91 3.2031L64.5683 74.4026Z" fill="#FF2A3B"/>
</svg>
