<?xml version="1.0" encoding="UTF-8"?>
<svg width="168px" height="35px" viewBox="0 0 168 35" version="1.1" xmlns="http://www.w3.org/2000/svg" xmlns:xlink="http://www.w3.org/1999/xlink">
    <!-- Generator: Sketch 63.1 (92452) - https://sketch.com -->
    <title>Group</title>
    <desc>Created with Sketch.</desc>
    <g id="Page-1" stroke="none" stroke-width="1" fill="none" fill-rule="evenodd">
        <g id="Artboard" transform="translate(-341.000000, -118.000000)">
            <g id="Group" transform="translate(340.999962, 118.000020)">
                <path d="M2.83160124,0.290571922 C4.61565634,-0.3984855 6.68938351,0.170100955 7.7271495,1.86125778 C9.14212087,4.16754666 10.3982689,6.57514067 11.7220974,8.93892705 C11.7482972,9.00861363 11.7680944,9.07831372 11.7835417,9.14861975 L11.7223681,8.93938338 L19.6933133,22.8373521 L19.6933133,22.8373521 L20.3189809,23.945658 C20.4246626,24.1294742 20.5322493,24.3122088 20.643546,24.4929153 C21.5035381,25.8856327 22.6667384,25.8810694 23.5709485,24.4819634 L23.8595176,24.016575 L23.8595176,24.016575 L24.4155997,23.0709928 L31.1520546,10.396352 L31.1520546,10.396352 L32.918259,13.4248534 C33.1023215,13.7436423 33.2835357,14.0599927 33.4631144,14.3773698 C36.1676228,19.1387109 38.8793504,23.8936635 41.5504698,28.6723451 C42.5729424,30.4967021 44.033579,31.7755268 45.845676,32.6764364 L46.1509316,32.8231175 L46.4647729,32.8827064 C47.9293356,33.1568546 49.3940556,33.3631073 50.8831445,32.9627543 C53.4956076,32.2636577 55.2697362,30.5761515 56.5285915,28.223317 C57.095302,27.1640243 57.6657223,26.1067598 58.2380143,25.0505431 L61.6795204,18.7179752 L61.7405249,18.6923787 L61.8545064,18.6303862 L61.8545064,18.6303862 L61.8808653,18.6136434 C61.8133196,18.6566839 61.7460534,18.6930231 61.6792497,18.7176102 L69.7332162,3.67881785 L69.7332162,3.67881785 L70.4199465,2.38535212 C70.5348904,2.17007871 70.6508495,1.95543276 70.76898,1.74212728 L71.1310418,1.10694525 C71.4315428,0.595856303 71.6372912,-0.265693639 72.4828449,0.156867402 C73.2034564,0.516040139 73.039077,1.04872365 72.7765605,1.56296748 L72.5956455,1.90095844 C70.6843513,5.45211397 68.7757643,9.00418216 66.8527388,12.5498617 C66.098328,13.9413622 65.3326873,15.3267784 64.5662445,16.7120593 L63.4174284,18.7879948 L63.4184553,18.7900753 L62.828211,19.977616 C61.0501469,23.5367774 59.2005231,27.061046 57.128691,30.4492919 C54.7364147,34.362773 49.7686741,35.9772665 45.8729908,34.40293 C46.1424232,34.2569046 46.3639729,34.102614 46.4985049,33.9328242 L46.5180272,33.9067929 C46.4080113,34.0565082 46.2298744,34.1939685 46.0098338,34.3239645 L45.8729908,34.4011047 L45.5659613,34.3071549 C43.1404833,33.5173939 41.448859,31.817623 40.1797163,29.6333749 C38.6041168,26.9200402 37.0754424,24.178413 35.4249433,21.270682 L31.7865876,28.0455215 C31.5888924,28.4127216 31.3913209,28.779387 31.1935653,29.1460151 C30.1266869,31.1198184 28.7749624,32.807209 26.7198275,33.7768796 L26.4351826,33.9046183 C22.2671534,36.1543223 16.749848,34.7515657 14.0706069,30.6290857 C12.8830417,28.8019427 11.8744205,26.8560115 10.8180407,24.9416989 L10.3617215,24.1236535 C8.56909356,21.0088402 6.77150238,17.8957609 4.98744729,14.776293 L2.80825151,10.9681099 C2.08463533,9.69689022 1.36654639,8.42236215 0.662219124,7.14007649 C-0.792458072,4.49062789 0.246210323,1.29084601 2.83160124,0.290571922 Z M6.59282615,3.17639916 C5.94670402,2.0647807 4.94413184,1.60845128 3.68888619,1.8630831 C2.58524462,2.08759717 1.70449714,3.24484857 1.61876864,4.48697725 C1.56191712,5.2974183 1.93100085,5.9691352 2.30820622,6.63902679 L6.90291514,14.8046995 L6.90291514,14.8046995 L11.4952327,22.9709654 L11.6949341,23.3181801 L11.6964691,23.3159504 L12.6479818,24.9503196 C13.2826066,26.0396286 13.9162956,27.1293433 14.54076,28.2251423 C16.8635894,32.3001058 19.914255,33.7759672 24.3289651,32.9231073 L24.6188214,32.8641872 L24.8760971,32.8079674 C27.0488181,31.8739523 28.6749523,30.358026 29.7840083,28.2406575 C31.1222752,25.6861254 32.4894191,23.1452832 33.8935616,20.6272575 C34.280152,19.9338802 34.382176,19.3692972 33.9919995,18.6841882 L33.9007809,18.5354435 C33.1599062,17.4028338 32.5507827,16.1816963 31.8550283,15.0171436 C31.6745472,14.7141409 31.6086717,14.1647203 31.1646883,14.2368203 C30.9417942,14.2733267 30.76763,14.7314814 30.6070019,15.018969 L27.8924542,19.9500646 L27.8924542,19.9500646 L25.1541282,24.9309915 L25.0650571,25.1128048 C24.4579657,26.3153542 23.5348523,27.1973842 22.1631963,27.2756121 C20.6558412,27.3613259 19.7650921,26.3884079 19.0533231,25.1496793 L18.9614627,24.9866637 C17.7454716,22.7885249 16.5157189,20.5981437 15.2817926,18.4102723 L11.54676,11.7962793 L9.89984044,8.91993023 C8.80231517,7.002265 7.70398777,5.08568145 6.59282615,3.17639916 Z M55.6339388,0.615242577 C56.9606584,-0.417298969 59.2847735,-0.0860634973 60.5951903,1.13085691 C62.1013046,2.52813759 62.6274068,4.91839108 61.6871006,6.86144175 C60.7467944,8.80723038 59.6738346,10.6873076 58.6423854,12.5865506 L57.8889774,13.957567 L57.8889774,13.957567 L56.3620075,16.6880394 L56.2796631,16.7153084 C55.9932358,16.8238895 55.7222112,17.0630844 55.4365391,17.1807501 L55.4568569,17.1728079 C55.7621383,17.0410593 56.0514222,16.7759206 56.3617368,16.688587 L54.1862634,20.7817478 C53.8239477,21.4641314 53.4627036,22.1470569 53.1039412,22.8311945 L52.0365086,24.887914 C51.3317301,26.2651162 50.4193985,27.3429663 48.781533,27.2918574 C47.1684657,27.2410405 46.2373567,26.2103348 45.6552775,24.809374 L45.5843114,24.6323695 L45.6573725,24.569411 C45.7216991,24.5231648 45.794143,24.4915841 45.8710379,24.4680505 L46.0135943,24.4325891 C45.851656,24.4649187 45.6986348,24.5135642 45.5838602,24.6316394 L34.0772913,4.35601071 L33.9844351,4.15887658 C32.2930463,0.686635348 29.3640467,1.23032259 27.8740416,4.37996485 L27.792761,4.55761704 C26.609437,7.23453668 25.059908,9.74660274 23.6191441,12.3073856 L23.1435694,13.1630772 L23.0428465,13.3380631 C22.9119761,13.5744491 22.7883827,13.8177274 22.6180086,14.0207027 C22.0512981,14.6960703 21.5919738,14.9032438 21.0342874,13.8965811 C19.9026713,11.8540506 18.7536839,9.82110309 17.5989436,7.79146392 L14.1290828,1.70619704 C13.8132409,1.15130047 13.5650795,0.548945638 14.2599315,0.157414998 C14.8785065,-0.191508886 15.1931135,0.2057935 15.4548755,0.653884373 L15.5981984,0.906707902 C17.5085903,4.2680304 19.4081532,7.6357415 21.34291,10.9824615 C21.511265,11.2716602 21.5003727,11.8199507 22.0136399,11.8144126 L22.1238515,11.8059535 L24.7810853,6.7850109 C25.6006989,5.24137812 26.4281799,3.7023462 27.2801948,2.1774028 C28.1293581,0.656913179 29.5461343,-0.0996809966 31.2968004,0.0408684642 C33.0117087,0.17731096 34.2376419,1.05890295 34.9174146,2.6398584 L35.0031591,2.85012363 L36.265483,5.02496111 C37.5300065,7.19865778 38.7973218,9.37107101 40.0331657,11.5614522 C42.3442255,15.6583777 44.6128722,19.779945 46.899567,23.8905604 C46.8640347,24.0211277 46.808484,24.1155023 46.7392497,24.185157 L46.8038433,24.1070435 C46.8303032,24.0682781 46.8536494,24.0238949 46.8733257,23.9728899 L46.9000182,23.8912906 L47.0224375,24.0448084 C48.7531754,26.192995 49.4675323,26.0936918 50.8480813,23.568528 L52.1207331,21.2245691 L52.1207331,21.2245691 L54.5039552,16.9152915 L59.6142759,7.2748762 C60.0862338,6.37955788 60.6664803,5.51070667 60.5220955,4.42007936 C60.2587026,2.40138864 58.8209266,1.54811213 56.4901752,1.99922367 L56.2690597,2.04534107 L55.8362776,2.63221166 C53.8678016,5.40487678 52.5944958,8.5831118 50.8754741,11.5005779 C50.4684893,12.1932859 50.129185,12.9252383 49.7339315,13.6261603 C48.9551558,15.0124891 48.4786858,15.0152271 47.6520827,13.6508021 L47.5491082,13.4671887 L47.5491082,13.4671887 L47.3578083,13.0903383 L44.1450653,7.45610743 L40.937466,1.81827155 C40.6198193,1.25881168 40.2326875,0.583444142 41.0051464,0.150843854 C41.8100918,-0.298184293 42.1105928,0.474837741 42.4119961,1.01056848 L45.2948423,6.17576116 L45.2948423,6.17576116 L48.1702437,11.3464298 L48.2429732,11.4390001 C48.6676813,11.9479489 48.8919275,11.6558571 49.1379689,11.2047727 L49.1816595,11.1236498 C50.1333962,9.33423002 51.0931542,7.54967777 52.0563883,5.76701845 L53.8031942,2.5376548 C54.1746819,1.86103631 54.5873226,1.21740009 55.2952157,0.830259947 L55.4957887,0.731203608 L55.6339388,0.615242577 Z" id="Shape" fill="#377EF9"></path>
                <path d="M90.8304381,25.5375798 L96.7792382,10.2495796 L94.3040382,10.2495796 L90.6432381,20.0879797 L86.462438,10.1663796 L86.337638,10.1663796 L82.136038,20.0879797 L78.4752379,10.2495796 L76.0000379,10.2495796 L81.948838,25.5167798 L82.240038,25.5167798 L86.379238,15.6367796 L90.5392381,25.5375798 L90.8304381,25.5375798 Z M105.265638,25.7455798 C106.652305,25.7455798 107.931505,25.4231798 109.103238,24.7783798 C110.274972,24.1335798 111.207505,23.2149131 111.900838,22.0223797 C112.594172,20.8298464 112.940838,19.4431797 112.940838,17.8623797 C112.940838,16.267713 112.594172,14.8775796 111.900838,13.6919796 C111.207505,12.5063796 110.274972,11.5946463 109.103238,10.9567796 C107.931505,10.3189129 106.652305,9.99997956 105.265638,9.99997956 C103.878972,9.99997956 102.599772,10.3189129 101.428038,10.9567796 C100.256305,11.5946463 99.3237716,12.5063796 98.6304382,13.6919796 C97.9371049,14.8775796 97.5904382,16.267713 97.5904382,17.8623797 C97.5904382,19.4431797 97.9371049,20.8298464 98.6304382,22.0223797 C99.3237716,23.2149131 100.256305,24.1335798 101.428038,24.7783798 C102.599772,25.4231798 103.878972,25.7455798 105.265638,25.7455798 Z M105.265638,23.6447798 C104.336572,23.6447798 103.473372,23.4194464 102.676038,22.9687798 C101.878705,22.5181131 101.244305,21.8594464 100.772838,20.9927797 C100.301372,20.126113 100.065638,19.0895797 100.065638,17.8831797 C100.065638,16.662913 100.294438,15.6194463 100.752038,14.7527796 C101.209638,13.886113 101.833638,13.2309129 102.624038,12.7871796 C103.414438,12.3434463 104.294972,12.1215796 105.265638,12.1215796 C106.236305,12.1215796 107.113372,12.3434463 107.896838,12.7871796 C108.680305,13.2309129 109.304305,13.886113 109.768838,14.7527796 C110.233372,15.6194463 110.465638,16.662913 110.465638,17.8831797 C110.465638,19.0895797 110.233372,20.126113 109.768838,20.9927797 C109.304305,21.8594464 108.676838,22.5181131 107.886438,22.9687798 C107.096038,23.4194464 106.222438,23.6447798 105.265638,23.6447798 Z M117.808039,25.5375798 L117.808039,19.7967797 L118.390439,19.7967797 C118.889639,19.7967797 119.458172,19.782913 120.096039,19.7551797 L120.096039,19.7551797 L123.174439,25.5375798 L125.857639,25.5375798 L122.217639,19.2559797 C123.160572,18.8538464 123.871239,18.2818464 124.349639,17.5399797 C124.828039,16.798113 125.067239,15.914113 125.067239,14.8879796 C125.067239,13.2517129 124.498705,12.0695796 123.361639,11.3415796 C122.224572,10.6135796 120.775505,10.2495796 119.014439,10.2495796 L119.014439,10.2495796 L115.540838,10.2495796 L115.540838,25.5375798 L117.808039,25.5375798 Z M119.284839,17.9039797 L117.808039,17.9039797 L117.808039,12.1839796 L119.201639,12.1839796 C121.628305,12.1839796 122.841639,13.0922463 122.841639,14.9087796 C122.841639,15.726913 122.588572,16.4306463 122.082439,17.0199797 C121.576305,17.609313 120.643772,17.9039797 119.284839,17.9039797 L119.284839,17.9039797 Z M130.516839,25.5375798 L130.516839,20.2335797 L131.764839,18.6943797 L136.444839,25.5375798 L139.294439,25.5375798 L133.283239,16.9679797 L138.545639,10.2495796 L135.758439,10.2495796 L130.516839,17.0719797 L130.516839,10.2495796 L128.228839,10.2495796 L128.228839,25.5375798 L130.516839,25.5375798 Z" id="WORK" fill="#030F27" fill-rule="nonzero"></path>
                <path d="M141.998439,25.7455798 C142.428306,25.7455798 142.785372,25.6034465 143.069639,25.3191798 C143.353906,25.0349131 143.496039,24.6847798 143.496039,24.2687798 C143.496039,23.8389131 143.353906,23.4818464 143.069639,23.1975798 C142.785372,22.9133131 142.428306,22.7711798 141.998439,22.7711798 C141.568572,22.7711798 141.211506,22.9133131 140.927239,23.1975798 C140.642972,23.4818464 140.500839,23.8389131 140.500839,24.2687798 C140.500839,24.6847798 140.646439,25.0349131 140.937639,25.3191798 C141.228839,25.6034465 141.582439,25.7455798 141.998439,25.7455798 Z M149.257639,25.5375798 L149.257639,10.2495796 L146.928039,10.2495796 L146.928039,25.5375798 L149.257639,25.5375798 Z M159.803239,25.7455798 C161.189906,25.7455798 162.469106,25.4231798 163.640839,24.7783798 C164.812573,24.1335798 165.745106,23.2149131 166.438439,22.0223797 C167.131773,20.8298464 167.478439,19.4431797 167.478439,17.8623797 C167.478439,16.267713 167.131773,14.8775796 166.438439,13.6919796 C165.745106,12.5063796 164.812573,11.5946463 163.640839,10.9567796 C162.469106,10.3189129 161.189906,9.99997956 159.803239,9.99997956 C158.416572,9.99997956 157.137372,10.3189129 155.965639,10.9567796 C154.793906,11.5946463 153.861372,12.5063796 153.168039,13.6919796 C152.474706,14.8775796 152.128039,16.267713 152.128039,17.8623797 C152.128039,19.4431797 152.474706,20.8298464 153.168039,22.0223797 C153.861372,23.2149131 154.793906,24.1335798 155.965639,24.7783798 C157.137372,25.4231798 158.416572,25.7455798 159.803239,25.7455798 Z M159.803239,23.6447798 C158.874172,23.6447798 158.010972,23.4194464 157.213639,22.9687798 C156.416306,22.5181131 155.781906,21.8594464 155.310439,20.9927797 C154.838972,20.126113 154.603239,19.0895797 154.603239,17.8831797 C154.603239,16.662913 154.832039,15.6194463 155.289639,14.7527796 C155.747239,13.886113 156.371239,13.2309129 157.161639,12.7871796 C157.952039,12.3434463 158.832572,12.1215796 159.803239,12.1215796 C160.773906,12.1215796 161.650972,12.3434463 162.434439,12.7871796 C163.217906,13.2309129 163.841906,13.886113 164.306439,14.7527796 C164.770973,15.6194463 165.003239,16.662913 165.003239,17.8831797 C165.003239,19.0895797 164.770973,20.126113 164.306439,20.9927797 C163.841906,21.8594464 163.214439,22.5181131 162.424039,22.9687798 C161.633639,23.4194464 160.760039,23.6447798 159.803239,23.6447798 Z" id=".IO" fill="#377EF9" fill-rule="nonzero"></path>
            </g>
        </g>
    </g>
</svg>