<svg width="229" height="261" viewBox="0 0 229 261" fill="none" xmlns="http://www.w3.org/2000/svg">
<path d="M87.5556 260.856C75.6556 260.856 64.1556 255.656 54.6556 251.356C32.4556 241.356 10.1556 229.656 2.55558 207.556C-4.44442 187.156 4.15558 165.456 13.6556 144.956L45.6556 75.2558C54.6556 55.5558 65.9556 31.0558 86.4556 17.0558C114.956 -2.34424 156.656 -5.54424 187.756 9.25576C211.456 20.5558 225.656 40.7558 227.856 66.2558C229.956 91.0558 222.256 117.356 203.556 149.256C182.356 185.356 155.356 217.256 123.256 244.056C115.056 250.956 105.256 258.456 93.4556 260.256C91.5556 260.756 89.5556 260.856 87.5556 260.856ZM88.8556 20.6558C69.2556 34.0558 58.3556 57.8558 49.5556 77.0558L17.5556 146.756C8.45558 166.456 0.255576 187.356 6.65558 206.156C13.6556 226.556 35.0556 237.756 56.4556 247.356C66.9556 252.156 80.1556 258.056 92.8556 256.056C103.556 254.356 112.756 247.256 120.556 240.756C152.256 214.256 178.956 182.756 199.856 147.056C218.056 116.056 225.556 90.4557 223.556 66.6558C221.556 42.7558 208.156 23.7558 185.856 13.1558C156.056 -0.944242 116.156 2.15576 88.8556 20.6558Z" fill="#A5B543"/>
<path d="M90.9555 243.956C80.6555 243.956 70.6555 239.456 62.4555 235.756C43.1555 227.056 23.6555 216.856 17.1555 197.756C11.1555 180.156 18.6555 161.256 26.7555 143.356L54.6555 82.4558C62.5555 65.3558 72.2555 43.9558 90.1555 31.7558C114.956 14.8558 151.156 12.0558 178.256 24.9558C198.856 34.7558 211.156 52.3558 213.056 74.3558C214.856 95.8558 208.156 118.856 191.956 146.556C173.456 178.056 149.956 205.856 121.956 229.356C114.856 235.356 106.356 241.856 96.1555 243.456C94.3555 243.856 92.6555 243.956 90.9555 243.956ZM140.856 19.8558C123.356 19.8558 105.756 24.7558 91.8555 34.2558C74.5555 45.8558 64.9555 66.8558 57.2555 83.6558L29.3555 144.556C21.4555 161.856 14.1555 180.156 19.8555 196.856C26.0555 214.856 44.8555 224.656 63.6555 233.156C72.9555 237.356 84.4555 242.556 95.7555 240.756C105.256 239.256 113.356 233.056 120.156 227.256C147.956 204.056 171.256 176.456 189.556 145.256C205.456 118.056 212.056 95.6558 210.356 74.7558C208.556 53.7558 196.756 36.9558 177.156 27.6558C166.056 22.3558 153.456 19.8558 140.856 19.8558Z" fill="#A5B543"/>
</svg>
