<svg width="66" height="64" viewBox="0 0 66 64" fill="none" xmlns="http://www.w3.org/2000/svg">
<path d="M64.7273 6.22703C64.7273 6.29622 64.7954 6.36541 64.7954 6.4346C64.7954 6.36541 64.7954 6.29622 64.7273 6.22703Z" fill="#FDAFB7"/>
<path d="M65.9541 11.2086C65.8178 9.54811 65.3407 7.95676 64.7954 6.4346C64.5909 5.81189 64.3183 5.25838 63.9775 4.70486C63.5685 4.15135 63.1596 3.59784 62.6143 3.1827C62.2053 2.76757 61.7282 2.42162 61.2511 2.07568C60.774 1.72973 60.2287 1.45297 59.6834 1.24541C59.3426 1.10703 59.07 1.03784 58.7292 0.968649C58.661 0.968649 58.661 0.899459 58.5929 0.899459C58.1839 0.691892 57.7068 0.553514 57.2297 0.553514C57.1615 0.553514 57.0933 0.553514 57.0252 0.553514C56.4799 0.415135 55.8665 0.484324 55.253 0.622703C55.1849 0.622703 55.0485 0.691892 54.9804 0.691892C54.5033 0.761081 54.0261 0.83027 53.549 0.899459C52.7311 1.03784 51.9132 1.31459 51.0953 1.66054C50.6863 1.79892 50.2773 2.00649 49.8684 2.21405C49.5276 2.42162 49.1868 2.62919 48.7778 2.76757C47.2783 3.59784 45.7106 4.28973 44.2793 5.25838C43.5295 5.7427 42.8479 6.29622 42.1663 6.84973C41.4847 7.40324 40.8031 8.02595 40.1215 8.57946C39.3717 9.20216 38.622 9.82487 37.9404 10.5168C37.2588 11.2086 36.5772 11.8314 35.8956 12.5232C35.2821 13.1459 34.6687 13.6995 33.9871 14.253C33.6463 14.5989 33.3055 14.9449 32.9647 15.2908C32.8965 15.2216 32.8965 15.1524 32.8284 15.1524C32.4194 14.6681 31.9423 14.253 31.5333 13.7686C30.8517 13.0076 30.2383 12.2465 29.5567 11.5546C28.8751 10.8627 28.2616 10.24 27.58 9.54811C26.9666 8.92541 26.285 8.3027 25.6034 7.74919C24.9218 7.12649 24.2402 6.4346 23.5586 5.7427C23.0815 5.25838 22.5362 4.84324 21.9909 4.42811C21.4456 4.01297 20.8322 3.59784 20.2188 3.25189C19.1282 2.56 17.9695 1.9373 16.8108 1.38378C15.652 0.899459 14.4252 0.484324 13.1983 0.207568C12.5167 0.0691892 11.8351 0 11.1535 0C10.4037 0 9.65396 0.138378 8.97235 0.276757C8.01812 0.484324 6.72307 0.761081 5.49619 1.24541C4.61011 1.66054 3.79219 2.14487 3.17875 2.90595C2.56531 3.52865 2.08819 4.28973 1.74739 5.12C1.13395 6.43459 0.656831 7.81838 0.384191 9.20216C0.111551 10.5859 -0.0929294 12.0389 0.0433906 13.4227C0.111551 14.9449 0.384191 16.467 0.793151 17.92C1.13395 19.3038 1.54291 20.7568 2.08819 22.0714C2.36083 22.7632 2.63347 23.3859 2.97427 24.0778C3.11059 24.4238 3.31507 24.7697 3.45139 25.1157C3.51955 25.2541 3.58771 25.4616 3.65587 25.6V25.6692C3.72403 25.8768 3.86035 26.0843 3.92851 26.2227C3.92851 26.1535 3.86035 26.1535 3.86035 26.0843C4.40563 27.1914 4.95091 28.3676 5.56435 29.4054C6.17779 30.5816 6.92755 31.6886 7.60915 32.7957C8.22259 33.8335 8.9042 34.8022 9.5858 35.7708C10.3356 36.8087 11.0853 37.8465 11.8351 38.8843C12.653 39.9914 13.5391 41.0292 14.4252 42.067C15.3112 43.1049 16.1292 44.1427 17.0152 45.2497C17.9013 46.3568 18.7192 47.3946 19.6053 48.5016C20.4914 49.6087 21.4456 50.6465 22.3999 51.6843C23.1496 52.5838 23.8994 53.4832 24.6492 54.3827C25.4671 55.3514 26.285 56.1816 27.1711 57.0811C27.989 57.9114 28.7388 58.7416 29.5567 59.5027C30.3064 60.2638 31.1244 61.0249 31.8741 61.8551C32.4194 62.4778 32.9647 63.1005 33.6463 63.5849C33.9871 63.8616 34.396 64 34.805 64C35.0776 64 35.4184 63.9308 35.6911 63.7924C35.7593 63.7924 35.8956 63.7924 35.9637 63.7924C36.1682 63.7924 36.3727 63.7924 36.5772 63.7232C37.1906 63.5157 37.7359 63.1697 38.2812 62.7546C38.6901 62.4778 39.0309 62.1319 39.3717 61.8551C39.917 61.3708 40.3941 60.8173 40.8713 60.2638C42.03 58.9492 43.1205 57.5654 44.2111 56.1816C45.2335 54.9362 46.1196 53.5524 47.0738 52.2378C48.0962 50.8541 49.1868 49.4703 50.2092 48.0173C51.2316 46.6335 52.1858 45.1805 53.1401 43.7276C54.0943 42.3438 55.1167 41.0292 56.0028 39.5762C56.8889 38.1232 57.7068 36.5319 58.5247 35.0789C59.3426 33.6259 60.0924 32.173 60.9103 30.72C61.3193 30.0281 61.7282 29.267 62.1372 28.5751C62.5461 27.8141 63.0233 26.9838 63.3641 26.1535C63.7049 25.3232 63.9775 24.5622 64.182 23.6627C64.3865 22.9016 64.6591 22.1405 64.8636 21.3795C65.0681 20.6184 65.2725 19.7881 65.4089 19.027C65.5452 18.1968 65.6815 17.2973 65.8178 16.467C65.886 14.6681 66.0905 12.9384 65.9541 11.2086ZM33.0328 28.2292C32.8284 28.3676 32.6239 28.4368 32.3512 28.5751C32.0786 28.7135 31.806 28.8519 31.4652 29.0595C31.3288 29.1286 31.2607 29.1978 31.1244 29.1978C30.988 29.267 30.8517 29.267 30.7154 29.3362C30.6472 29.3362 30.5109 29.3362 30.4428 29.4054C30.3746 29.4054 30.2383 29.4054 30.1701 29.4054C30.102 29.3362 30.102 29.267 30.0338 29.1978V29.1286C30.0338 29.1286 30.0338 29.1286 30.0338 29.0595C30.0338 28.9903 30.0338 28.8519 29.9656 28.7827C29.9656 28.6443 29.9656 28.5059 29.9656 28.3676C29.9656 28.0216 30.0338 27.6757 30.102 27.3989C30.1701 27.1222 30.2383 26.8454 30.3064 26.6378C30.3746 26.4995 30.4428 26.2919 30.5109 26.1535C30.9199 25.3924 31.2607 24.5622 31.7378 23.8703C32.1468 23.1784 32.5557 22.4865 32.9647 21.7946C33.1692 21.4486 33.4418 21.1719 33.6463 20.8259C34.1234 21.3795 34.6005 21.8638 35.0776 22.4173C35.6229 23.04 36.1682 23.6627 36.6453 24.3546C37.3269 25.3924 38.0085 26.3611 38.5538 27.4681C38.622 27.6757 38.6901 27.8141 38.8265 28.0216C38.8946 28.16 38.9628 28.3676 38.9628 28.5059C38.9628 28.6443 39.0309 28.7827 39.0309 28.9211C39.0309 28.9903 39.0309 29.0595 39.0309 29.1286C39.0309 29.267 39.0309 29.4746 38.9628 29.613C38.9628 29.6822 38.8946 29.8205 38.8946 29.8897C38.8946 29.9589 38.8265 30.0281 38.8265 30.0973C38.8265 30.1665 38.7583 30.2357 38.7583 30.2357C38.6901 30.3049 38.6901 30.3741 38.622 30.3741L38.4856 30.5124C38.4856 30.5124 38.4857 30.5124 38.4175 30.5124H38.3493C38.213 30.5124 38.1448 30.5816 38.0085 30.5816C37.9404 30.5816 37.8041 30.5816 37.7359 30.5816C37.6677 30.5816 37.5996 30.5816 37.5996 30.5816C37.4632 30.5816 37.3269 30.5124 37.2588 30.5124C37.1906 30.5124 37.1906 30.4432 37.1224 30.4432C36.9861 30.3741 36.918 30.3049 36.7817 30.2357C36.6453 30.1665 36.5772 30.0281 36.4408 29.9589C36.1 29.6822 35.8274 29.4054 35.5548 29.0595C35.214 28.7135 34.9413 28.3676 34.5324 28.16C33.9871 27.9524 33.51 27.9524 33.0328 28.2292ZM62.7506 14.7373C62.6825 15.6368 62.5461 16.5362 62.478 17.4357C62.2735 18.4735 61.9327 19.4422 61.6601 20.48C61.3874 21.4486 61.1148 22.4173 60.774 23.3859C60.5013 24.2162 60.2287 24.9773 59.8879 25.7384C59.4108 26.707 58.8655 27.6065 58.3202 28.5751C57.8431 29.4746 57.366 30.3049 56.8207 31.2043C55.7983 33.0032 54.7759 34.733 53.6853 36.4627C53.0719 37.4314 52.3903 38.4 51.7087 39.2995C51.0271 40.1989 50.2773 41.0984 49.5957 42.067C48.5733 43.4508 47.5509 44.8346 46.4604 46.2184C45.438 47.6022 44.3474 48.9168 43.325 50.3005C42.3708 51.6151 41.4165 52.9297 40.3941 54.1751C39.3717 55.4897 38.3493 56.8043 37.3269 58.1189C36.918 58.6032 36.509 59.0184 36.1 59.4335C35.9637 59.5719 35.7592 59.7103 35.6229 59.8487C35.4866 59.7103 35.4184 59.6411 35.2821 59.5027C34.9413 59.1568 34.6687 58.8108 34.3279 58.4649C33.7145 57.773 33.101 57.1503 32.4194 56.5276C31.7378 55.9049 31.1244 55.213 30.4428 54.5903C29.7612 53.9676 29.1477 53.3449 28.5343 52.7222C27.6482 51.6843 26.7621 50.6465 25.876 49.6087C24.9218 48.5016 23.8994 47.3946 22.9452 46.2184C21.2412 44.0735 19.5372 41.9286 17.8332 39.853C16.9471 38.7459 15.9928 37.7081 15.1068 36.6011C14.2888 35.6324 13.5391 34.5946 12.8575 33.5568C12.3122 32.7265 11.6988 31.827 11.1535 30.9968C10.6082 30.0973 9.99476 29.267 9.44948 28.3676C8.35891 26.6378 7.40467 24.8389 6.45043 23.1092C5.90515 22.0022 5.42803 20.9643 4.95091 19.8573C4.54195 18.6811 4.26931 17.5049 3.99667 16.3286C3.86035 15.4984 3.72403 14.6681 3.58771 13.8378C3.58771 13.3535 3.58771 12.8 3.58771 12.3157C3.65587 11.693 3.72403 11.0703 3.79219 10.4476C3.92851 9.82487 4.06483 9.27135 4.20115 8.64865C4.33747 8.16432 4.54195 7.68 4.74643 7.26486C4.95091 6.84973 5.15539 6.43459 5.42803 6.01946C5.35987 5.88108 5.42803 5.81189 5.49619 5.67351C5.70067 5.46595 5.90515 5.32757 6.10963 5.12C6.24595 5.05081 6.31411 4.91243 6.45043 4.84324C6.58675 4.77405 6.72307 4.63568 6.85939 4.56649C7.20019 4.35892 7.60915 4.22054 8.01812 4.08216C8.69972 3.87459 9.44948 3.66703 10.1311 3.52865C10.4037 3.39027 10.7445 3.32108 11.0853 3.32108C11.2898 3.32108 11.4943 3.32108 11.6988 3.32108C11.8351 3.32108 11.9714 3.32108 12.1077 3.39027C13.1301 3.59784 14.1525 3.94378 15.1068 4.28973C15.0386 4.28973 14.9704 4.22054 14.9023 4.22054C15.1749 4.35892 15.5157 4.42811 15.7884 4.56649C16.6063 4.98162 17.4242 5.46595 18.174 5.95027C18.8556 6.36541 19.5372 6.84973 20.1506 7.33405C20.8322 7.81838 21.4456 8.37189 22.0591 8.85622C23.0815 9.75568 24.172 10.7243 25.1263 11.693C25.6716 12.2465 26.1487 12.8 26.694 13.2843C27.1711 13.7686 27.58 14.253 28.0572 14.7373C28.5343 15.2216 28.9432 15.7751 29.4204 16.2595C29.8975 16.7438 30.3746 17.2281 30.8517 17.7124C30.9199 17.7816 30.9199 17.7816 30.988 17.8508C30.7154 18.1276 30.4428 18.4735 30.1701 18.8195C29.4885 19.7881 28.8751 20.7568 28.3298 21.7946C28.1253 22.1405 27.8527 22.4865 27.6482 22.8324C26.9666 24.0086 26.4213 25.2541 26.1487 26.5686C26.0124 27.3989 26.0124 28.2984 26.2168 29.1286C26.4213 29.8205 26.694 30.5816 27.1711 31.1351C27.6482 31.6887 28.1935 32.173 28.8751 32.3805C29.4204 32.5881 30.0338 32.6573 30.6472 32.6573C31.806 32.5881 32.9647 32.173 33.7826 31.3427L33.8508 31.2735C34.0552 31.4811 34.1916 31.7578 34.396 31.9654C34.6687 32.3114 35.0095 32.6573 35.3503 32.8649C35.8956 33.28 36.5772 33.5568 37.3269 33.6951C38.213 33.8335 39.1672 33.7643 39.917 33.28C40.6668 32.8649 41.2802 32.173 41.5529 31.3427C41.8255 30.5124 41.9618 29.5438 41.8255 28.6443C41.6892 27.9524 41.4847 27.2605 41.1439 26.5686C40.8713 25.9459 40.5305 25.3232 40.1897 24.7005C39.8489 24.147 39.5762 23.5935 39.2354 23.04C38.5538 21.8638 37.7359 20.7568 36.918 19.6497C36.6453 19.2346 36.3045 18.8886 36.0319 18.4735C36.1682 18.3351 36.3045 18.1968 36.4408 18.1276L36.509 18.0584C36.7135 17.8508 36.918 17.7124 37.1224 17.5049C37.1224 17.5049 37.1224 17.5049 37.1906 17.5049C37.2588 17.4357 37.2588 17.4357 37.3269 17.3665L37.2588 17.4357C38.0085 16.7438 38.7583 16.1211 39.508 15.4292C40.2578 14.7373 40.9394 14.0454 41.6892 13.3535C42.5753 12.5232 43.5295 11.7622 44.4837 11.0011C45.029 10.5168 45.5061 10.1016 46.0514 9.68649C46.4604 9.34054 46.8693 9.06378 47.2783 8.71784C48.0962 8.16432 48.9141 7.61081 49.7321 7.12649C50.4818 6.71135 51.1634 6.22703 51.9132 5.81189C52.3903 5.53514 52.9356 5.32757 53.4127 5.12C53.7535 4.98162 54.0943 4.91243 54.4351 4.84324C55.1167 4.70486 55.8665 4.56649 56.6162 4.4973C56.8207 4.4973 57.0252 4.4973 57.2297 4.4973C57.5705 4.4973 57.8431 4.56649 58.1839 4.63568C58.3202 4.63568 58.4565 4.70486 58.5929 4.70486C58.4565 4.70486 58.5929 4.77405 58.7973 4.84324C59.0018 4.91243 59.1381 5.05081 59.3426 5.12C59.6834 5.32757 59.9561 5.60432 60.2969 5.81189C60.4332 5.95027 60.5013 6.01946 60.6377 6.15784C60.774 6.29622 60.9103 6.50378 61.0466 6.64216C61.1148 6.78054 61.1829 6.84973 61.2511 6.98811C61.3193 7.12649 61.3193 7.19568 61.3874 7.33405C61.5919 8.02595 61.7964 8.71784 62.0009 9.40973C62.2053 10.1016 62.478 10.7935 62.6143 11.4854C62.6825 11.8314 62.7506 12.2465 62.7506 12.5924C62.7506 13.3535 62.7506 14.0454 62.7506 14.7373Z" fill="#FDAFB7"/>
</svg>
