<?xml version="1.0" encoding="UTF-8"?>
<svg width="122px" height="40px" viewBox="0 0 122 40" version="1.1" xmlns="http://www.w3.org/2000/svg" xmlns:xlink="http://www.w3.org/1999/xlink">
    <!-- Generator: Sketch 63.1 (92452) - https://sketch.com -->
    <title>Logo dark on white</title>
    <desc>Created with Sketch.</desc>
    <defs>
        <linearGradient x1="56.6481023%" y1="10.9210691%" x2="45.7505875%" y2="61.8607667%" id="linearGradient-1">
            <stop stop-color="#FF3366" offset="0%"></stop>
            <stop stop-color="#9650FF" offset="100%"></stop>
        </linearGradient>
        <path d="M12.669669,0.749233107 L29.4213932,11.519348 C30.6777382,12.3442785 31.4343772,13.746265 31.4343772,15.2492331 C31.4343772,16.7522012 30.6777382,18.1541877 29.4213932,18.9791182 L21.715,25.949 L24.269669,33.7285435 C25.7570254,37.3607274 22.1685196,41.0044055 18.5225426,39.5745205 L1.51104834,27.0503825 C1.51104834,27.0503825 -1.77400913,24.0044055 1.34323225,20.4595779 L8.152,13.166 L5.91564604,5.65498023 C4.82369202,1.68716414 9.23518627,-1.50823816 12.669669,0.749233107 Z M14.0121079,9.90488819 C12.5178035,9.63002548 10.9863302,10.1344267 9.94782995,11.243486 L9.94782995,11.243486 L8.152,13.166 L11.9961058,26.0779687 C12.3512681,27.3792595 13.2744811,28.4457138 14.5011876,28.9862218 L14.7207618,29.0760867 C16.0564637,29.581807 17.5535397,29.4175678 18.7478299,28.6342906 L18.7478299,28.6342906 L21.715,25.949 L17.3340368,12.6021067 C16.7869527,11.2663987 15.6298973,10.2823598 14.2343802,9.95163475 Z" id="path-2"></path>
        <linearGradient x1="55.5395679%" y1="6.0736988%" x2="39.107099%" y2="81.739212%" id="linearGradient-4">
            <stop stop-color="#9650FF" offset="0%"></stop>
            <stop stop-color="#9650FF" offset="18.7634179%"></stop>
            <stop stop-color="#35D4FB" offset="100%"></stop>
        </linearGradient>
    </defs>
    <g id="Page-1" stroke="none" stroke-width="1" fill="none" fill-rule="evenodd">
        <g id="Logo-dark-on-white" transform="translate(-5.000000, 0.000000)">
            <path d="M52.1466667,31.8733333 C53.0866667,31.8733333 53.9966667,31.7283333 54.8766667,31.4383333 C55.7566667,31.1483333 56.5466667,30.7283333 57.2466667,30.1783333 C57.9466667,29.6283333 58.5016667,28.9583333 58.9116667,28.1683333 C59.3216667,27.3783333 59.5266667,26.4733333 59.5266667,25.4533333 C59.5266667,24.5733333 59.3766667,23.7883333 59.0766667,23.0983333 C58.7766667,22.4083333 58.3766667,21.8033333 57.8766667,21.2833333 C57.3766667,20.7633333 56.8066667,20.3233333 56.1666667,19.9633333 C55.5266667,19.6033333 54.8666667,19.3033333 54.1866667,19.0633333 C53.4066667,18.7833333 52.7216667,18.5183333 52.1316667,18.2683333 C51.5416667,18.0183333 51.0516667,17.7583333 50.6616667,17.4883333 C50.2716667,17.2183333 49.9766667,16.9233333 49.7766667,16.6033333 C49.5766667,16.2833333 49.4766667,15.9333333 49.4766667,15.5533333 C49.4766667,15.1933333 49.5716667,14.8683333 49.7616667,14.5783333 C49.9516667,14.2883333 50.2316667,14.0533333 50.6016667,13.8733333 C50.9716667,13.6933333 51.4366667,13.6033333 51.9966667,13.6033333 C52.6166667,13.6033333 53.1766667,13.7233333 53.6766667,13.9633333 C54.1766667,14.2033333 54.6216667,14.5333333 55.0116667,14.9533333 C55.4016667,15.3733333 55.7466667,15.8333333 56.0466667,16.3333333 L59.4066667,14.4133333 C59.0466667,13.6933333 58.5416667,12.9883333 57.8916667,12.2983333 C57.2416667,11.6083333 56.4266667,11.0383333 55.4466667,10.5883333 C54.4666667,10.1383333 53.3166667,9.91333333 51.9966667,9.91333333 C50.6766667,9.91333333 49.4916667,10.1533333 48.4416667,10.6333333 C47.3916667,11.1133333 46.5616667,11.7883333 45.9516667,12.6583333 C45.3416667,13.5283333 45.0366667,14.5533333 45.0366667,15.7333333 C45.0366667,16.7333333 45.2266667,17.5833333 45.6066667,18.2833333 C45.9866667,18.9833333 46.4716667,19.5833333 47.0616667,20.0833333 C47.6516667,20.5833333 48.2666667,20.9833333 48.9066667,21.2833333 C49.5466667,21.5833333 50.1266667,21.8333333 50.6466667,22.0333333 C51.5866667,22.3933333 52.3766667,22.7283333 53.0166667,23.0383333 C53.6566667,23.3483333 54.1416667,23.7083333 54.4716667,24.1183333 C54.8016667,24.5283333 54.9666667,25.0533333 54.9666667,25.6933333 C54.9666667,26.1933333 54.8466667,26.6283333 54.6066667,26.9983333 C54.3666667,27.3683333 54.0316667,27.6533333 53.6016667,27.8533333 C53.1716667,28.0533333 52.6666667,28.1533333 52.0866667,28.1533333 C51.3466667,28.1533333 50.6566667,27.9883333 50.0166667,27.6583333 C49.3766667,27.3283333 48.7916667,26.8733333 48.2616667,26.2933333 C47.7316667,25.7133333 47.2466667,25.0333333 46.8066667,24.2533333 L43.7166667,26.4433333 C44.1766667,27.4633333 44.8166667,28.3833333 45.6366667,29.2033333 C46.4566667,30.0233333 47.4216667,30.6733333 48.5316667,31.1533333 C49.6416667,31.6333333 50.8466667,31.8733333 52.1466667,31.8733333 Z M66.1966667,31.3333333 L66.1966667,22.9333333 C66.1966667,22.3133333 66.2966667,21.7983333 66.4966667,21.3883333 C66.6966667,20.9783333 66.9766667,20.6633333 67.3366667,20.4433333 C67.6966667,20.2233333 68.1166667,20.1133333 68.5966667,20.1133333 C69.0566667,20.1133333 69.4316667,20.2183333 69.7216667,20.4283333 C70.0116667,20.6383333 70.2266667,20.9533333 70.3666667,21.3733333 C70.5066667,21.7933333 70.5766667,22.3133333 70.5766667,22.9333333 L70.5766667,31.3333333 L74.5066667,31.3333333 L74.5066667,22.9333333 C74.5066667,22.3133333 74.6016667,21.7983333 74.7916667,21.3883333 C74.9816667,20.9783333 75.2616667,20.6633333 75.6316667,20.4433333 C76.0016667,20.2233333 76.4266667,20.1133333 76.9066667,20.1133333 C77.3666667,20.1133333 77.7466667,20.2183333 78.0466667,20.4283333 C78.3466667,20.6383333 78.5666667,20.9533333 78.7066667,21.3733333 C78.8466667,21.7933333 78.9166667,22.3133333 78.9166667,22.9333333 L78.9166667,31.3333333 L82.8166667,31.3333333 L82.8166667,22.5133333 C82.8166667,21.3933333 82.6666667,20.4383333 82.3666667,19.6483333 C82.0666667,18.8583333 81.5966667,18.2583333 80.9566667,17.8483333 C80.3166667,17.4383333 79.4766667,17.2333333 78.4366667,17.2333333 C77.5166667,17.2333333 76.6866667,17.4283333 75.9466667,17.8183333 C75.2066667,18.2083333 74.5966667,18.7933333 74.1166667,19.5733333 C73.9166667,19.0533333 73.6416667,18.6183333 73.2916667,18.2683333 C72.9416667,17.9183333 72.5016667,17.6583333 71.9716667,17.4883333 C71.4416667,17.3183333 70.8166667,17.2333333 70.0966667,17.2333333 C69.5166667,17.2333333 68.9766667,17.3233333 68.4766667,17.5033333 C67.9766667,17.6833333 67.5366667,17.9483333 67.1566667,18.2983333 C66.7766667,18.6483333 66.4566667,19.0733333 66.1966667,19.5733333 L66.1966667,17.5333333 L62.4166667,17.5333333 L62.4166667,31.3333333 L66.1966667,31.3333333 Z M90.1766667,31.6333333 C91.0166667,31.6333333 91.8216667,31.4833333 92.5916667,31.1833333 C93.3616667,30.8833333 93.9916667,30.4333333 94.4816667,29.8333333 L94.6213167,29.6491333 L94.6213167,29.6491333 L94.7356667,29.4716667 L94.7366667,31.3333333 L98.5166667,31.3333333 L98.5166667,21.5233333 C98.5166667,20.6033333 98.2516667,19.8183333 97.7216667,19.1683333 C97.1916667,18.5183333 96.4666667,18.0233333 95.5466667,17.6833333 C94.6266667,17.3433333 93.5766667,17.1733333 92.3966667,17.1733333 C91.1166667,17.1733333 89.9566667,17.3483333 88.9166667,17.6983333 C87.8766667,18.0483333 86.9966667,18.4133333 86.2766667,18.7933333 L87.7166667,21.4333333 C87.9166667,21.2933333 88.2266667,21.1333333 88.6466667,20.9533333 C89.0666667,20.7733333 89.5666667,20.6083333 90.1466667,20.4583333 C90.7266667,20.3083333 91.3366667,20.2333333 91.9766667,20.2333333 C92.3966667,20.2333333 92.7766667,20.2733333 93.1166667,20.3533333 C93.4566667,20.4333333 93.7466667,20.5633333 93.9866667,20.7433333 C94.2266667,20.9233333 94.4116667,21.1483333 94.5416667,21.4183333 C94.6716667,21.6883333 94.7366667,22.0133333 94.7366667,22.3933333 L94.7356667,23.7956667 L94.5083333,23.6770833 C94.0888889,23.4729167 93.6,23.3 93.0416667,23.1583333 C92.3716667,22.9883333 91.6066667,22.9033333 90.7466667,22.9033333 C89.5866667,22.9033333 88.6066667,23.0783333 87.8066667,23.4283333 C87.0066667,23.7783333 86.3966667,24.2833333 85.9766667,24.9433333 C85.5566667,25.6033333 85.3466667,26.3733333 85.3466667,27.2533333 C85.3466667,28.1933333 85.5666667,28.9883333 86.0066667,29.6383333 C86.4466667,30.2883333 87.0316667,30.7833333 87.7616667,31.1233333 C88.4916667,31.4633333 89.2966667,31.6333333 90.1766667,31.6333333 Z M91.4966667,28.9333333 C91.0566667,28.9333333 90.6666667,28.8583333 90.3266667,28.7083333 C89.9866667,28.5583333 89.7216667,28.3383333 89.5316667,28.0483333 C89.3416667,27.7583333 89.2466667,27.4133333 89.2466667,27.0133333 C89.2466667,26.6133333 89.3366667,26.2833333 89.5166667,26.0233333 C89.6966667,25.7633333 89.9716667,25.5633333 90.3416667,25.4233333 C90.7116667,25.2833333 91.1966667,25.2133333 91.7966667,25.2133333 C92.5366667,25.2133333 93.2466667,25.3083333 93.9266667,25.4983333 C94.1209524,25.552619 94.3095238,25.6162925 94.4923809,25.6893537 L94.7356667,25.7956667 L94.7366667,25.8133333 C94.7366667,26.4933333 94.5866667,27.0633333 94.2866667,27.5233333 C93.9866667,27.9833333 93.5916667,28.3333333 93.1016667,28.5733333 C92.6116667,28.8133333 92.0766667,28.9333333 91.4966667,28.9333333 Z M105.726667,31.3333333 L105.726667,24.0433333 C105.726667,23.3833333 105.811667,22.8183333 105.981667,22.3483333 C106.151667,21.8783333 106.406667,21.5133333 106.746667,21.2533333 C107.086667,20.9933333 107.496667,20.8633333 107.976667,20.8633333 C108.376667,20.8633333 108.711667,20.9283333 108.981667,21.0583333 C109.251667,21.1883333 109.516667,21.3733333 109.776667,21.6133333 L111.546667,18.2833333 C111.286667,17.9433333 110.926667,17.6833333 110.466667,17.5033333 C110.006667,17.3233333 109.526667,17.2333333 109.026667,17.2333333 C108.286667,17.2333333 107.581667,17.4833333 106.911667,17.9833333 C106.465,18.3166667 106.073889,18.7277778 105.738333,19.2166667 L105.725667,19.2346667 L105.726667,17.5333333 L101.886667,17.5333333 L101.886667,31.3333333 L105.726667,31.3333333 Z M117.766667,31.3333333 L117.765667,20.8336667 L120.166667,20.8333333 L120.166667,17.5333333 L117.765667,17.5336667 L117.766667,12.7333333 L113.986667,12.7333333 L113.985667,17.5336667 L111.616667,17.5333333 L111.616667,20.8333333 L113.985667,20.8336667 L113.986667,31.3333333 L117.766667,31.3333333 Z M123.586667,31.9933333 C124.306667,31.9933333 124.896667,31.7483333 125.356667,31.2583333 C125.816667,30.7683333 126.046667,30.2033333 126.046667,29.5633333 C126.046667,28.8633333 125.816667,28.2783333 125.356667,27.8083333 C124.896667,27.3383333 124.306667,27.1033333 123.586667,27.1033333 C122.866667,27.1033333 122.276667,27.3383333 121.816667,27.8083333 C121.356667,28.2783333 121.126667,28.8633333 121.126667,29.5633333 C121.126667,30.2033333 121.356667,30.7683333 121.816667,31.2583333 C122.276667,31.7483333 122.866667,31.9933333 123.586667,31.9933333 Z" id="Smart." fill="#03056B" fill-rule="nonzero"></path>
            <g id="Branding/Embleme/Color" transform="translate(4.000000, 0.000000)">
                <g id="Logo1" transform="translate(16.666667, 20.000000) scale(-1, 1) translate(-16.666667, -20.000000) translate(0.666667, 0.000000)">
                    <g id="Path" transform="translate(0.003894, 0.000192)">
                        <mask id="mask-3" fill="white">
                            <use xlink:href="#path-2"></use>
                        </mask>
                        <use id="Mask" fill="url(#linearGradient-1)" fill-rule="nonzero" xlink:href="#path-2"></use>
                        <path d="M1.34323225,20.4595779 L9.94782995,11.243486 C10.9863302,10.1344267 12.5178035,9.63002548 14.0121079,9.90488819 C15.5064123,10.1797509 16.7581588,11.1960983 17.3340368,12.6021067 L24.269669,33.7285435 C25.7570254,37.3607274 22.1685196,41.0044055 18.5225426,39.5745205 L1.51104834,27.0503825 C1.51104834,27.0503825 -1.77400913,24.0044055 1.34323225,20.4595779 Z" fill="url(#linearGradient-4)" fill-rule="nonzero" mask="url(#mask-3)"></path>
                    </g>
                </g>
            </g>
        </g>
    </g>
</svg>