<svg width="120" height="36" viewBox="0 0 120 36" fill="none" xmlns="http://www.w3.org/2000/svg">
<path d="M80.7575 35.88C91.4494 30.84 102.141 25.92 112.833 20.88C113.061 20.76 113.288 20.64 113.402 20.4C113.63 20.4 113.971 20.4 114.198 20.4C114.426 20.4 114.539 20.52 114.653 20.4C116.018 20.16 117.269 19.92 118.634 19.92H119.089V19.56C119.089 19.56 119.089 19.56 119.203 19.56C120.113 19.32 120.113 18.48 119.658 17.88C120.113 17.28 120.113 16.32 119.317 15.96C119.203 15.96 118.862 15.96 118.862 15.84H118.975C114.312 14.16 109.648 12.6 104.871 10.92C101.686 9.71999 98.6153 8.39999 95.4305 7.07999C92.1319 5.27999 88.947 3.47999 85.876 1.19999C85.3072 0.719989 84.6248 1.31999 84.6248 1.91999C83.4873 1.31999 82.2361 0.719989 81.0987 0.119989C79.7338 -0.600011 78.5963 1.55999 79.9613 2.39999C81.2124 3.11999 82.5774 3.83999 83.8286 4.43999C82.3499 3.95999 80.8712 3.47999 79.3925 2.87999C77.9139 2.39999 77.4589 4.91999 78.9376 5.39999C88.947 9.11999 98.8428 12.84 108.852 16.56C92.4731 15.96 75.9802 15.72 59.6011 15.84C45.2693 15.96 30.8238 15.96 16.3783 16.8C12.3973 16.8 8.30249 16.68 4.32145 16.56C3.63898 16.56 3.29775 17.16 3.29775 17.76C2.50154 17.88 1.59159 17.88 0.795382 18C-0.569547 18.12 -0.455803 20.28 0.909126 20.16C8.87121 20.04 16.8333 19.68 24.6816 19.44C46.6342 19.92 68.5869 20.64 90.4257 20.64H93.1556C96.5679 20.76 100.094 20.88 103.506 20.76C102.369 21.12 101.345 21.6 100.208 21.96C93.9518 24 87.5821 25.92 81.3262 27.96C79.7338 28.44 80.6437 30.84 82.1224 30.48C85.421 29.52 88.7196 28.56 91.9044 27.6C89.7433 28.56 87.6959 29.64 85.5347 30.6C85.3072 30.48 85.0797 30.48 84.7385 30.6C82.9186 31.56 81.0987 32.52 79.2788 33.48C78.3688 34.2 79.3925 36.48 80.7575 35.88Z" fill="white"/>
</svg>
