<svg width="121" height="38" viewBox="0 0 121 38" fill="none" xmlns="http://www.w3.org/2000/svg">
<path d="M18.7377 21.1156C18.7377 22.4071 18.4033 23.5949 17.7344 24.6789C17.0887 25.7628 16.12 26.6277 14.8285 27.2735C13.56 27.9192 12.0147 28.2421 10.1928 28.2421C7.44823 28.2421 5.18803 27.5733 3.41217 26.2356C1.6363 24.898 0.667644 23.0298 0.506201 20.6313H6.80246C6.89471 21.5538 7.2176 22.2803 7.77111 22.8107C8.3477 23.3412 9.07419 23.6064 9.95059 23.6064C10.7117 23.6064 11.3113 23.3988 11.7495 22.9837C12.1877 22.5686 12.4068 22.0151 12.4068 21.3232C12.4068 20.7005 12.1993 20.1815 11.7841 19.7664C11.392 19.3513 10.8962 19.0168 10.2965 18.7631C9.69689 18.4864 8.86662 18.1635 7.80571 17.7945C6.26047 17.264 4.992 16.7566 4.00028 16.2723C3.03162 15.7649 2.18982 15.0269 1.47486 14.0582C0.78296 13.0665 0.437012 11.7865 0.437012 10.2182C0.437012 8.76524 0.806023 7.50829 1.54405 6.44738C2.28207 5.38647 3.29685 4.57926 4.58839 4.02575C5.90299 3.44916 7.4021 3.16087 9.08572 3.16087C11.8072 3.16087 13.9636 3.80664 15.555 5.09818C17.1694 6.38972 18.0804 8.16559 18.2879 10.4258H11.8879C11.7726 9.61858 11.4728 8.98434 10.9884 8.52307C10.5272 8.03874 9.89293 7.79658 9.08572 7.79658C8.39382 7.79658 7.82877 7.98109 7.39057 8.3501C6.97543 8.71911 6.76787 9.2611 6.76787 9.97606C6.76787 10.5526 6.95237 11.0485 7.32138 11.4636C7.71346 11.8557 8.19778 12.1786 8.77437 12.4323C9.35095 12.686 10.1812 13.0089 11.2652 13.4009C12.8335 13.9314 14.1135 14.4619 15.1052 14.9923C16.0969 15.4997 16.9503 16.2493 17.6652 17.241C18.3802 18.2327 18.7377 19.5242 18.7377 21.1156Z" fill="white"/>
<path d="M21.4547 3.26466C21.4547 2.36519 21.7776 1.62717 22.4234 1.05059C23.0691 0.450945 23.9225 0.151123 24.9834 0.151123C26.0443 0.151123 26.8976 0.450945 27.5434 1.05059C28.1892 1.62717 28.5121 2.36519 28.5121 3.26466C28.5121 4.14106 28.1892 4.87908 27.5434 5.47873C26.8976 6.05531 26.0443 6.3436 24.9834 6.3436C23.9225 6.3436 23.0691 6.05531 22.4234 5.47873C21.7776 4.87908 21.4547 4.14106 21.4547 3.26466ZM27.924 8.69605V28H22.0082V8.69605H27.924Z" fill="white"/>
<path d="M57.0204 8.48848C59.3959 8.48848 61.264 9.2265 62.6247 10.7025C63.9855 12.1555 64.6658 14.1851 64.6658 16.7912V28H58.7847V17.4831C58.7847 16.2608 58.4503 15.3152 57.7814 14.6464C57.1357 13.9545 56.2477 13.6085 55.1176 13.6085C53.9414 13.6085 53.0074 13.9775 52.3155 14.7155C51.6466 15.4305 51.3122 16.4453 51.3122 17.7599V28H45.3965V17.4831C45.3965 16.2608 45.0736 15.3152 44.4278 14.6464C43.7821 13.9545 42.8941 13.6085 41.764 13.6085C40.5878 13.6085 39.6538 13.966 38.9619 14.681C38.27 15.3959 37.924 16.4222 37.924 17.7599V28H32.0083V8.69605H37.924V11.9826C38.4314 10.8986 39.204 10.0452 40.2419 9.42254C41.3028 8.79983 42.5367 8.48848 43.9435 8.48848C45.4196 8.48848 46.7226 8.83443 47.8527 9.52632C48.9828 10.1952 49.8362 11.1638 50.4128 12.4323C51.0816 11.233 51.9926 10.2759 53.1457 9.56092C54.322 8.84596 55.6135 8.48848 57.0204 8.48848Z" fill="white"/>
<path d="M80.6354 8.45388C82.2267 8.45388 83.6451 8.85749 84.8905 9.6647C86.159 10.4489 87.1507 11.5905 87.8657 13.0896C88.6037 14.5656 88.9727 16.3184 88.9727 18.348C88.9727 20.3545 88.6037 22.1073 87.8657 23.6064C87.1507 25.1055 86.159 26.2587 84.8905 27.0659C83.6451 27.85 82.2267 28.2421 80.6354 28.2421C79.1593 28.2421 77.8909 27.9077 76.83 27.2389C75.7691 26.57 74.9964 25.659 74.5121 24.5059V37.2022H68.5964V8.69605H74.5121V12.1901C74.9964 11.037 75.7691 10.126 76.83 9.45713C77.8909 8.7883 79.1593 8.45388 80.6354 8.45388ZM78.7327 13.6431C77.4873 13.6431 76.4609 14.0698 75.6537 14.9231C74.8696 15.7534 74.4775 16.895 74.4775 18.348C74.4775 19.7779 74.8696 20.9196 75.6537 21.7729C76.4609 22.6262 77.4873 23.0529 78.7327 23.0529C80.0011 23.0529 81.0159 22.6378 81.777 21.8075C82.5612 20.9772 82.9532 19.824 82.9532 18.348C82.9532 16.872 82.5612 15.7188 81.777 14.8885C81.0159 14.0582 80.0011 13.6431 78.7327 13.6431Z" fill="white"/>
<path d="M97.9582 2.39979V28H92.0425V2.39979H97.9582Z" fill="white"/>
<path d="M120.378 17.8291C120.378 18.3134 120.32 18.8439 120.205 19.4204H106.817C106.886 20.8734 107.255 21.9228 107.924 22.5686C108.592 23.1913 109.446 23.5026 110.484 23.5026C111.36 23.5026 112.087 23.2835 112.663 22.8453C113.24 22.4071 113.62 21.8421 113.805 21.1502H120.066C119.813 22.5109 119.259 23.7333 118.406 24.8172C117.553 25.8781 116.469 26.72 115.154 27.3427C113.839 27.9423 112.375 28.2421 110.76 28.2421C108.869 28.2421 107.186 27.85 105.71 27.0659C104.257 26.2587 103.115 25.1055 102.285 23.6064C101.454 22.1073 101.039 20.3545 101.039 18.348C101.039 16.3184 101.443 14.5656 102.25 13.0896C103.08 11.5905 104.234 10.4489 105.71 9.6647C107.186 8.85749 108.869 8.45388 110.76 8.45388C112.675 8.45388 114.358 8.84596 115.811 9.63011C117.264 10.4143 118.383 11.5213 119.167 12.9512C119.974 14.3581 120.378 15.984 120.378 17.8291ZM114.393 16.9296C114.416 15.6611 114.07 14.7155 113.355 14.0928C112.663 13.4471 111.798 13.1242 110.76 13.1242C109.676 13.1242 108.777 13.4471 108.062 14.0928C107.347 14.7386 106.943 15.6842 106.851 16.9296H114.393Z" fill="white"/>
</svg>
