<svg width="248" height="1452" viewBox="0 0 248 1452" fill="none" xmlns="http://www.w3.org/2000/svg">
<path d="M811.765 1598.55C809.788 1596.09 808.271 1593.22 807.301 1590.12C806.331 1587.01 805.926 1583.72 806.11 1580.44C806.294 1577.16 807.064 1573.95 808.374 1571C809.685 1568.05 811.511 1565.41 813.748 1563.24C847.457 1530.47 880.561 1508.87 912.569 1487.99C949.921 1463.63 985.199 1440.61 1021.5 1400.67C1057.8 1360.74 1078.72 1321.92 1100.87 1280.83C1123.47 1238.89 1146.85 1195.52 1187.19 1151.13C1227.53 1106.75 1266.96 1081.04 1305.08 1056.16C1342.43 1031.8 1377.71 1008.78 1414.01 968.848C1450.31 928.912 1471.22 890.1 1493.37 849.008C1512.93 812.716 1533.16 775.189 1564.48 736.945C1568.52 732.067 1574.16 729.148 1580.15 728.825C1586.15 728.502 1592.02 730.801 1596.48 735.221C1600.94 739.642 1603.63 745.825 1603.96 752.422C1604.3 759.018 1602.25 765.494 1598.27 770.436C1569.97 804.988 1551.77 838.766 1532.49 874.524C1509.89 916.468 1486.51 959.841 1446.17 1004.22C1405.83 1048.61 1366.4 1074.33 1328.28 1099.2C1290.93 1123.57 1255.65 1146.58 1219.35 1186.51C1183.05 1226.44 1162.14 1265.26 1139.99 1306.35C1117.38 1348.29 1094.01 1391.67 1053.66 1436.05C1013.31 1480.44 973.892 1506.16 935.767 1531.03C904.182 1551.63 874.35 1571.09 843.866 1600.73C839.344 1605.12 833.423 1607.36 827.404 1606.95C821.384 1606.54 815.759 1603.52 811.763 1598.55L811.765 1598.55ZM702.969 1598.07C700.604 1596.07 698.621 1593.57 697.133 1590.72C695.646 1587.87 694.683 1584.73 694.299 1581.47C693.915 1578.21 694.119 1574.9 694.898 1571.73C695.677 1568.56 697.016 1565.59 698.839 1562.99C710.038 1546.97 722.172 1531.77 735.164 1517.48C775.507 1473.1 814.93 1447.38 853.056 1422.51C890.405 1398.14 925.681 1375.13 961.982 1335.19C998.283 1295.26 1019.2 1256.45 1041.34 1215.36C1063.95 1173.41 1087.33 1130.04 1127.67 1085.65C1168.02 1041.27 1207.44 1015.55 1245.57 990.68C1282.92 966.315 1318.19 943.298 1354.49 903.366C1390.8 863.435 1411.71 824.619 1433.86 783.528C1456.46 741.582 1479.84 698.211 1520.18 653.828C1534.16 638.443 1549.1 624.151 1564.89 611.057C1567.27 609.074 1569.98 607.626 1572.87 606.797C1575.76 605.967 1578.77 605.773 1581.72 606.224C1584.68 606.675 1587.53 607.763 1590.1 609.426C1592.68 611.088 1594.93 613.293 1596.73 615.914C1598.53 618.535 1599.85 621.521 1600.6 624.701C1601.35 627.882 1601.53 631.194 1601.12 634.449C1600.71 637.705 1599.72 640.839 1598.21 643.674C1596.7 646.508 1594.7 648.988 1592.31 650.97C1578.2 662.679 1564.84 675.457 1552.34 689.211C1516.04 729.146 1495.12 767.958 1472.98 809.048C1450.37 850.995 1427 894.367 1386.65 938.75C1346.31 983.134 1306.89 1008.85 1268.76 1033.72C1231.41 1058.09 1196.13 1081.1 1159.83 1121.04C1123.53 1160.97 1102.61 1199.79 1080.47 1240.88C1057.86 1282.82 1034.49 1326.19 994.141 1370.58C953.796 1414.96 914.376 1440.68 876.254 1465.55C838.901 1489.92 803.625 1512.93 767.323 1552.87C755.713 1565.63 744.87 1579.22 734.864 1593.53C731.181 1598.79 725.752 1602.22 719.771 1603.07C713.79 1603.92 707.747 1602.13 702.969 1598.08V1598.07ZM614.833 1582.91C612.297 1581.18 610.096 1578.91 608.357 1576.24C606.618 1573.57 605.373 1570.55 604.696 1567.35C604.018 1564.15 603.92 1560.83 604.407 1557.59C604.894 1554.35 605.957 1551.24 607.535 1548.45C623.446 1520.31 643.983 1486.83 675.643 1452C715.986 1407.62 755.41 1381.9 793.532 1357.03C830.885 1332.66 866.161 1309.65 902.461 1269.71C938.761 1229.77 959.684 1190.96 981.831 1149.87C1004.44 1107.93 1027.81 1064.55 1068.15 1020.17C1108.5 975.787 1147.92 950.067 1186.05 925.196C1223.4 900.831 1258.67 877.815 1294.97 837.883C1331.27 797.951 1352.19 759.135 1374.33 718.045C1396.94 676.099 1420.32 632.727 1460.66 588.342C1492.71 553.093 1523.82 530.093 1550.03 512.247C1552.57 510.446 1555.41 509.219 1558.39 508.639C1561.36 508.059 1564.41 508.137 1567.35 508.868C1570.3 509.6 1573.08 510.971 1575.54 512.9C1578 514.83 1580.09 517.279 1581.68 520.105C1583.27 522.932 1584.33 526.08 1584.81 529.363C1585.28 532.647 1585.15 536.002 1584.44 539.231C1583.72 542.461 1582.42 545.501 1580.63 548.173C1578.83 550.846 1576.57 553.097 1573.97 554.797C1549.98 571.131 1521.57 592.096 1492.82 623.723C1456.53 663.66 1435.6 702.475 1413.46 743.566C1390.85 785.507 1367.47 828.88 1327.13 873.264C1286.79 917.647 1247.37 943.365 1209.25 968.236C1171.89 992.601 1136.61 1015.61 1100.31 1055.55C1064.01 1095.49 1043.1 1134.3 1020.95 1175.39C998.342 1217.33 974.971 1260.71 934.624 1305.09C894.278 1349.48 854.857 1375.2 816.732 1400.07C779.381 1424.43 744.105 1447.45 707.805 1487.38C679.404 1518.63 660.704 1549.14 646.156 1574.88C644.578 1577.67 642.516 1580.09 640.089 1582.01C637.661 1583.92 634.914 1585.29 632.006 1586.04C629.097 1586.78 626.084 1586.89 623.137 1586.35C620.191 1585.82 617.37 1584.65 614.834 1582.91L614.833 1582.91ZM1002.15 1563.29C1000.55 1560.52 999.449 1557.43 998.925 1554.19C998.402 1550.96 998.463 1547.64 999.105 1544.43C999.747 1541.22 1000.96 1538.19 1002.67 1535.49C1004.37 1532.8 1006.55 1530.5 1009.06 1528.73C1037.97 1508.41 1060.16 1489.11 1081.02 1466.16C1117.32 1426.23 1138.24 1387.41 1160.38 1346.32C1182.99 1304.38 1206.36 1261 1246.71 1216.62C1287.06 1172.24 1326.48 1146.51 1364.61 1121.64C1401.95 1097.28 1437.23 1074.26 1473.53 1034.33C1494.46 1011.3 1512.07 986.776 1530.61 954.819C1532.21 952.047 1534.3 949.652 1536.75 947.767C1539.19 945.883 1541.95 944.548 1544.87 943.838C1547.78 943.129 1550.8 943.058 1553.74 943.63C1556.68 944.203 1559.49 945.408 1562.01 947.175C1564.52 948.943 1566.7 951.239 1568.41 953.932C1570.12 956.626 1571.33 959.665 1571.98 962.875C1572.62 966.084 1572.69 969.402 1572.17 972.639C1571.65 975.876 1570.55 978.969 1568.95 981.74C1548.55 1016.88 1529.05 1044.01 1505.69 1069.72C1465.35 1114.1 1425.92 1139.82 1387.8 1164.69C1350.45 1189.05 1315.17 1212.07 1278.87 1252.01C1242.57 1291.94 1221.65 1330.75 1199.51 1371.85C1176.9 1413.79 1153.52 1457.16 1113.18 1501.54C1089.9 1527.15 1065.34 1548.54 1033.56 1570.9C1028.48 1574.47 1022.32 1575.68 1016.43 1574.25C1010.54 1572.83 1005.4 1568.88 1002.15 1563.29L1002.15 1563.29ZM533.717 1557.94C531.15 1556.26 528.909 1554.04 527.121 1551.41C525.333 1548.78 524.034 1545.79 523.298 1542.6C522.561 1539.42 522.403 1536.1 522.83 1532.85C523.258 1529.6 524.263 1526.47 525.79 1523.65L529.779 1516.25C552.39 1474.29 575.769 1430.91 616.125 1386.52C656.481 1342.13 695.892 1316.42 734.014 1291.54C771.361 1267.18 806.643 1244.16 842.94 1204.23C879.238 1164.3 900.163 1125.48 922.308 1084.39C944.914 1042.44 968.289 999.073 1008.63 954.69C1048.98 910.307 1088.4 884.588 1126.52 859.714C1163.87 835.352 1199.15 812.336 1235.45 772.399C1271.75 732.463 1292.67 693.65 1314.82 652.557C1337.42 610.615 1360.8 567.244 1401.14 522.861C1441.49 478.478 1480.9 452.763 1519.03 427.892L1527.4 422.423C1529.96 420.742 1532.8 419.633 1535.76 419.159C1538.71 418.686 1541.72 418.858 1544.61 419.666C1547.51 420.473 1550.23 421.9 1552.62 423.864C1555.01 425.829 1557.03 428.293 1558.56 431.116C1560.09 433.939 1561.09 437.066 1561.52 440.318C1561.95 443.57 1561.8 446.883 1561.06 450.068C1560.33 453.253 1559.03 456.248 1557.25 458.882C1555.46 461.516 1553.23 463.737 1550.66 465.419L1542.22 470.932C1504.88 495.297 1469.6 518.309 1433.3 558.241C1397 598.172 1376.09 636.987 1353.94 678.076C1331.33 720.022 1307.96 763.397 1267.61 807.78C1227.26 852.163 1187.85 877.886 1149.72 902.756C1112.37 927.121 1077.09 950.135 1040.79 990.069C1004.49 1030 983.576 1068.82 961.431 1109.9C938.82 1151.85 915.449 1195.23 875.1 1239.61C834.752 1283.99 795.334 1309.71 757.211 1334.58C719.864 1358.95 684.582 1381.96 648.285 1421.9C611.988 1461.83 591.052 1500.67 568.901 1541.77L564.884 1549.21C563.359 1552.04 561.342 1554.51 558.95 1556.48C556.558 1558.44 553.836 1559.87 550.942 1560.68C548.048 1561.49 545.037 1561.67 542.081 1561.2C539.126 1560.73 536.283 1559.62 533.717 1557.94ZM456.758 1522.65C454.234 1520.89 452.049 1518.61 450.327 1515.93C448.606 1513.24 447.382 1510.21 446.724 1507.01C446.067 1503.8 445.99 1500.48 446.498 1497.25C447.005 1494.01 448.087 1490.91 449.682 1488.14C456.797 1475.75 463.644 1463.04 470.27 1450.74C492.881 1408.79 516.26 1365.42 556.603 1321.04C596.947 1276.65 636.368 1250.94 674.495 1226.06C711.842 1201.7 747.124 1178.68 783.422 1138.75C819.666 1098.88 840.73 1059.81 861.105 1022.03C864.18 1016.32 869.19 1012.19 875.033 1010.54C880.875 1008.9 887.072 1009.88 892.259 1013.26C897.446 1016.65 901.199 1022.16 902.693 1028.59C904.186 1035.03 903.297 1041.85 900.222 1047.56C879.428 1086.11 855.867 1129.81 815.582 1174.13C775.24 1218.51 735.815 1244.23 697.688 1269.1C660.341 1293.47 625.059 1316.48 588.762 1356.42C552.465 1396.35 531.54 1435.17 509.394 1476.26C502.606 1488.86 495.584 1501.88 488.13 1514.86C484.907 1520.47 479.791 1524.45 473.908 1525.91C468.025 1527.37 461.855 1526.19 456.757 1522.65H456.758ZM383.658 1478.1C381.197 1476.24 379.093 1473.87 377.467 1471.11C375.841 1468.36 374.724 1465.27 374.18 1462.04C373.636 1458.81 373.677 1455.49 374.298 1452.28C374.92 1449.07 376.111 1446.02 377.803 1443.31C389.805 1424.12 399.977 1405.24 410.748 1385.26C433.356 1343.32 456.734 1299.94 497.077 1255.55C537.421 1211.17 576.842 1185.46 614.967 1160.59C652.318 1136.22 687.594 1113.2 723.896 1073.27C735.647 1060.34 746.613 1046.59 756.723 1032.08C760.396 1026.81 765.818 1023.37 771.797 1022.51C777.776 1021.64 783.821 1023.43 788.603 1027.47C793.385 1031.52 796.513 1037.49 797.297 1044.07C798.082 1050.65 796.459 1057.31 792.786 1062.57C781.475 1078.8 769.205 1094.2 756.056 1108.65C715.712 1153.04 676.29 1178.76 638.163 1203.63C600.814 1227.99 565.534 1251.01 529.236 1290.94C492.938 1330.87 472.02 1369.69 449.869 1410.79C439.189 1430.6 428.144 1451.09 415.278 1471.68C411.857 1477.14 406.605 1480.89 400.676 1482.09C394.747 1483.3 388.626 1481.86 383.658 1478.1ZM1218.23 1463.57C1215.67 1461.88 1213.44 1459.65 1211.67 1457.01C1209.89 1454.37 1208.6 1451.37 1207.88 1448.18C1207.16 1444.99 1207.02 1441.68 1207.46 1438.43C1207.9 1435.18 1208.92 1432.05 1210.46 1429.24C1213.64 1423.42 1216.78 1417.6 1219.92 1411.79C1242.52 1369.85 1265.9 1326.48 1306.23 1282.1C1346.56 1237.72 1385.99 1212 1424.11 1187.14C1430.87 1182.73 1437.63 1178.32 1444.39 1173.81C1446.94 1172.02 1449.79 1170.82 1452.77 1170.27C1455.75 1169.71 1458.8 1169.82 1461.75 1170.57C1464.69 1171.33 1467.47 1172.73 1469.91 1174.68C1472.36 1176.64 1474.43 1179.11 1476 1181.95C1477.57 1184.8 1478.6 1187.96 1479.05 1191.25C1479.5 1194.54 1479.34 1197.9 1478.59 1201.12C1477.85 1204.35 1476.52 1207.38 1474.7 1210.03C1472.88 1212.69 1470.59 1214.92 1467.98 1216.59C1461.08 1221.19 1454.2 1225.68 1447.31 1230.17C1409.96 1254.54 1374.69 1277.55 1338.39 1317.48C1302.09 1357.42 1281.18 1396.22 1259.03 1437.31C1255.85 1443.21 1252.67 1449.12 1249.44 1455.03C1247.9 1457.85 1245.87 1460.3 1243.47 1462.26C1241.07 1464.21 1238.34 1465.63 1235.44 1466.42C1232.55 1467.22 1229.54 1467.37 1226.58 1466.89C1223.63 1466.4 1220.79 1465.27 1218.23 1463.58V1463.57ZM313.27 1427.76C310.874 1425.8 308.852 1423.34 307.32 1420.52C305.789 1417.7 304.777 1414.57 304.343 1411.32C303.909 1408.07 304.061 1404.76 304.79 1401.57C305.52 1398.38 306.813 1395.39 308.596 1392.75C324.909 1368.62 337.696 1344.9 351.236 1319.78C373.844 1277.83 397.219 1234.46 437.565 1190.07C477.911 1145.68 517.33 1119.97 555.457 1095.1C592.804 1070.73 628.081 1047.72 664.384 1007.78C665.4 1006.66 666.407 1005.54 667.403 1004.42C671.631 999.754 677.361 997.11 683.35 997.066C689.338 997.021 695.1 999.579 699.385 1004.18C703.67 1008.79 706.131 1015.07 706.235 1021.66C706.338 1028.25 704.075 1034.62 699.936 1039.39C698.82 1040.64 697.689 1041.9 696.543 1043.16C656.199 1087.55 616.776 1113.27 578.653 1138.14C541.3 1162.5 506.024 1185.52 469.722 1225.45C433.42 1265.39 412.502 1304.2 390.356 1345.29C376.818 1370.41 362.817 1396.39 345.089 1422.61C341.489 1427.94 336.114 1431.47 330.147 1432.44C324.18 1433.4 318.109 1431.72 313.27 1427.76V1427.76ZM250.423 1366.64C248.049 1364.65 246.054 1362.16 244.552 1359.32C243.051 1356.48 242.073 1353.34 241.674 1350.08C241.274 1346.83 241.462 1343.52 242.226 1340.34C242.99 1337.16 244.315 1334.18 246.125 1331.57C263.837 1306.01 277.38 1280.89 291.717 1254.28C314.325 1212.34 337.698 1168.97 378.043 1124.59C418.389 1080.2 457.808 1054.48 495.931 1029.62C530.007 1007.39 562.194 986.387 595.176 952.586C597.349 950.282 599.916 948.477 602.729 947.277C605.542 946.077 608.544 945.504 611.559 945.594C614.575 945.683 617.544 946.433 620.294 947.798C623.044 949.164 625.52 951.118 627.577 953.548C629.634 955.977 631.231 958.833 632.275 961.949C633.32 965.064 633.79 968.378 633.66 971.696C633.529 975.014 632.8 978.27 631.515 981.275C630.23 984.28 628.415 986.973 626.175 989.197C589.611 1026.67 553.782 1050.05 519.127 1072.65C481.78 1097.02 446.5 1120.03 410.201 1159.97C373.902 1199.9 352.985 1238.72 330.838 1279.81C316.469 1306.47 301.609 1334.04 282.296 1361.91C278.638 1367.19 273.225 1370.65 267.249 1371.54C261.272 1372.42 255.22 1370.66 250.423 1366.64ZM192.34 1299.29C189.956 1297.31 187.949 1294.83 186.435 1292C184.92 1289.17 183.927 1286.04 183.513 1282.78C183.099 1279.53 183.272 1276.22 184.021 1273.04C184.77 1269.86 186.082 1266.87 187.881 1264.25C204.983 1239.3 218.202 1214.78 232.195 1188.81C254.803 1146.86 278.176 1103.49 318.522 1059.11C358.869 1014.72 398.289 989.004 436.412 964.131C471.796 941.051 505.218 919.248 539.518 883.091C543.882 878.569 549.691 876.127 555.682 876.296C561.674 876.465 567.362 879.232 571.51 883.994C575.658 888.756 577.93 895.129 577.832 901.726C577.734 908.323 575.274 914.61 570.987 919.22C532.913 959.356 495.65 983.666 459.609 1007.17C422.26 1031.54 386.978 1054.55 350.683 1094.49C314.388 1134.43 293.461 1173.24 271.315 1214.33C257.301 1240.33 242.815 1267.22 224.186 1294.38C220.553 1299.68 215.156 1303.17 209.184 1304.09C203.211 1305.01 197.151 1303.28 192.336 1299.29H192.34ZM140.089 1223.98C137.66 1222.07 135.597 1219.66 134.018 1216.87C132.438 1214.08 131.373 1210.98 130.884 1207.74C130.395 1204.49 130.49 1201.18 131.166 1197.98C131.841 1194.78 133.083 1191.75 134.82 1189.08C148.946 1167.34 160.472 1145.96 172.674 1123.32C195.281 1081.38 218.654 1038.01 258.997 993.625C299.341 949.24 338.764 923.523 376.887 898.653C414.238 874.287 449.516 851.272 485.818 811.338C491.005 805.632 496.092 799.701 500.929 793.712C504.937 788.752 510.57 785.747 516.589 785.359C522.609 784.971 528.522 787.231 533.028 791.643C537.534 796.054 540.263 802.255 540.616 808.882C540.968 815.509 538.915 822.019 534.908 826.979C529.481 833.686 523.784 840.327 517.976 846.718C477.632 891.105 438.211 916.822 400.084 941.693C362.737 966.057 327.458 989.072 291.157 1029.01C254.856 1068.94 233.941 1107.75 211.794 1148.84C199.641 1171.39 187.078 1194.71 171.811 1218.19C168.302 1223.59 162.988 1227.23 157.039 1228.32C151.089 1229.41 144.991 1227.85 140.084 1223.99L140.089 1223.98ZM95.4836 1136.4C92.9765 1134.62 90.8133 1132.31 89.1176 1129.61C87.422 1126.9 86.2271 1123.86 85.6013 1120.64C84.9754 1117.43 84.931 1114.11 85.4705 1110.88C86.0099 1107.65 87.1226 1104.57 88.7451 1101.81C97.3034 1087.26 105.365 1072.3 113.16 1057.83C135.768 1015.89 159.144 972.526 199.482 928.144C239.821 883.761 279.25 858.038 317.377 833.167C354.725 808.805 390.002 785.788 426.303 745.854C455.088 714.189 474.609 682.859 495.069 645.567C498.183 639.882 503.221 635.792 509.074 634.197C514.927 632.601 521.116 633.631 526.279 637.059C531.443 640.487 535.158 646.033 536.607 652.476C538.057 658.92 537.122 665.733 534.008 671.418C511.83 711.846 490.496 745.994 458.464 781.237C418.118 825.619 378.697 851.338 340.574 876.209C303.222 900.573 267.943 923.588 231.643 963.524C195.343 1003.46 174.427 1042.27 152.278 1083.36C144.262 1098.24 135.97 1113.62 126.931 1128.99C123.652 1134.56 118.498 1138.47 112.601 1139.86C106.704 1141.25 100.546 1140.01 95.4827 1136.4L95.4836 1136.4ZM56.3423 1036.29C53.7769 1034.61 51.5374 1032.39 49.7516 1029.76C47.9659 1027.12 46.6691 1024.13 45.9351 1020.94C45.2011 1017.76 45.0443 1014.45 45.4739 1011.2C45.9035 1007.94 46.9111 1004.82 48.4388 1001.99L53.6501 992.338C76.2544 950.402 99.6266 907.037 139.963 862.664C180.3 818.292 219.73 792.559 257.856 767.688C295.203 743.323 330.479 720.309 366.782 680.375C403.085 640.441 423.995 601.629 446.141 560.539C468.752 518.594 492.126 475.219 532.474 430.834C572.821 386.45 612.239 360.731 650.366 335.86C687.713 311.495 722.991 288.481 759.292 248.547C795.593 208.613 816.505 169.799 838.651 128.712C861.264 86.7657 884.636 43.391 924.984 -0.993423C965.331 -45.3778 1004.75 -71.0972 1042.88 -95.9657C1046.93 -98.6154 1050.99 -101.27 1055.05 -103.93C1057.61 -105.638 1060.45 -106.771 1063.41 -107.266C1066.38 -107.76 1069.4 -107.605 1072.3 -106.81C1075.21 -106.015 1077.95 -104.594 1080.35 -102.632C1082.76 -100.669 1084.79 -98.202 1086.33 -95.3725C1087.86 -92.543 1088.88 -89.407 1089.31 -86.1443C1089.75 -82.8817 1089.59 -79.5569 1088.85 -76.3613C1088.11 -73.1656 1086.81 -70.1618 1085.01 -67.5228C1083.22 -64.8838 1080.97 -62.6616 1078.39 -60.9838C1074.28 -58.2811 1070.18 -55.5957 1066.07 -52.9274C1028.72 -28.5616 993.445 -5.54799 957.144 34.3882C920.843 74.3243 899.922 113.14 877.778 154.233C855.169 196.175 831.796 239.546 791.452 283.928C751.109 328.31 711.685 354.03 673.563 378.9C636.21 403.265 600.933 426.282 564.633 466.218C528.333 506.154 507.413 544.968 485.266 586.061C462.658 628.003 439.285 671.374 398.942 715.756C358.598 760.139 319.175 785.858 281.052 810.728C243.703 835.094 208.422 858.109 172.124 898.042C135.826 937.975 114.915 976.772 92.7719 1017.86L87.5197 1027.59C84.4332 1033.3 79.4151 1037.42 73.5687 1039.05C67.7224 1040.68 61.5267 1039.69 56.3444 1036.29L56.3423 1036.29ZM24.5514 918.895C22.0363 917.125 19.8627 914.827 18.155 912.131C16.4473 909.436 15.2388 906.396 14.5988 903.187C13.9588 899.977 13.9 896.66 14.4254 893.425C14.9507 890.19 16.0501 887.101 17.6607 884.334C37.89 849.574 57.2507 822.694 80.4424 797.179C120.784 752.799 160.209 727.079 198.33 702.21C235.683 677.843 270.959 654.828 307.261 614.892C343.563 574.956 364.481 536.141 386.627 495.047C409.234 453.107 432.609 409.734 472.951 365.352C513.292 320.97 552.717 295.25 590.84 270.379C628.193 246.014 663.469 222.999 699.771 183.063C736.073 143.127 756.991 104.312 779.138 63.2203C801.745 21.2764 825.12 -22.0936 865.462 -66.4769C896.168 -100.259 925.922 -122.529 948.408 -138.154C950.931 -139.93 953.748 -141.139 956.697 -141.712C959.646 -142.285 962.668 -142.211 965.591 -141.494C968.514 -140.778 971.279 -139.432 973.728 -137.535C976.177 -135.638 978.262 -133.227 979.862 -130.44C981.462 -127.654 982.546 -124.547 983.052 -121.298C983.558 -118.049 983.476 -114.721 982.81 -111.507C982.144 -108.293 980.908 -105.255 979.173 -102.569C977.438 -99.8821 975.237 -97.5995 972.698 -95.8519C952.207 -81.6103 925.153 -61.3815 897.623 -31.098C861.325 8.8382 840.409 47.6487 818.262 88.7385C795.651 130.686 772.278 174.059 731.929 218.444C691.58 262.828 652.164 288.547 614.04 313.418C576.689 337.783 541.413 360.8 505.113 400.731C468.813 440.663 447.894 479.479 425.754 520.568C403.142 562.515 379.768 605.889 339.421 650.272C299.073 694.656 259.654 720.378 221.528 745.247C184.181 769.614 148.897 792.626 112.6 832.558C91.8245 855.423 74.3508 879.715 55.9637 911.313C52.711 916.904 47.5747 920.843 41.684 922.264C35.7934 923.686 29.6311 922.474 24.5524 918.894L24.5514 918.895ZM1066.29 823.818C1064.77 820.994 1063.76 817.867 1063.33 814.614C1062.9 811.362 1063.06 808.049 1063.8 804.864C1064.53 801.679 1065.83 798.685 1067.62 796.053C1069.41 793.42 1071.65 791.202 1074.21 789.524C1110.16 766.006 1142.63 743.556 1175.93 706.919C1212.23 666.987 1233.14 628.174 1255.29 587.084C1277.9 545.138 1301.28 501.763 1341.62 457.38C1381.97 412.996 1421.38 387.28 1459.51 362.407C1471.14 354.817 1483.18 346.966 1494.89 338.775C1497.41 336.957 1500.23 335.709 1503.19 335.102C1506.16 334.495 1509.2 334.542 1512.14 335.241C1515.09 335.939 1517.88 337.274 1520.35 339.169C1522.82 341.064 1524.92 343.481 1526.54 346.279C1528.16 349.078 1529.25 352.202 1529.76 355.47C1530.27 358.738 1530.19 362.085 1529.51 365.317C1528.84 368.549 1527.59 371.6 1525.83 374.295C1524.07 376.989 1521.85 379.274 1519.29 381.014C1506.98 389.607 1494.64 397.663 1482.71 405.444C1445.36 429.81 1410.08 452.823 1373.79 492.755C1337.49 532.687 1316.57 571.507 1294.42 612.6C1271.81 654.542 1248.44 697.912 1208.1 742.295C1171.12 782.971 1134.67 808.187 1097.47 832.527C1092.28 835.92 1086.09 836.908 1080.24 835.274C1074.4 833.64 1069.38 829.517 1066.3 823.812L1066.29 823.818ZM7.51459 784.5C5.29688 782.301 3.49451 779.642 2.21037 776.676C0.926223 773.71 0.185594 770.495 0.0306451 767.214C-0.124304 763.932 0.309421 760.649 1.30727 757.553C2.30512 754.456 3.84746 751.606 5.84609 749.165C10.679 743.269 15.753 737.391 20.9264 731.7C61.268 687.314 100.691 661.597 138.819 636.726C176.166 612.361 211.446 589.345 247.745 549.415C284.044 509.485 304.961 470.669 327.104 429.58C349.715 387.632 373.089 344.259 413.437 299.875C453.784 255.49 493.201 229.771 531.329 204.9C568.676 180.536 603.954 157.521 640.255 117.587C676.556 77.6529 697.471 38.8397 719.614 -2.24805C742.225 -44.1962 765.599 -87.5687 805.945 -131.953C811.341 -137.894 816.952 -143.745 822.616 -149.333C824.828 -151.589 827.426 -153.338 830.259 -154.478C833.091 -155.618 836.101 -156.126 839.114 -155.973C842.127 -155.82 845.081 -155.009 847.806 -153.586C850.531 -152.164 852.972 -150.159 854.986 -147.688C857.001 -145.217 858.548 -142.329 859.539 -139.193C860.53 -136.058 860.944 -132.736 860.757 -129.422C860.57 -126.109 859.787 -122.869 858.452 -119.892C857.117 -116.915 855.257 -114.26 852.981 -112.082C847.935 -107.1 842.931 -101.877 838.113 -96.5778C801.805 -56.6341 780.885 -17.8208 758.739 23.2734C736.132 65.2129 712.759 108.585 672.415 152.968C632.072 197.352 592.648 223.07 554.528 247.941C517.174 272.305 481.896 295.32 445.594 335.256C409.293 375.192 388.374 414.008 366.229 455.101C343.622 497.043 320.248 540.414 279.905 584.797C239.561 629.18 200.138 654.897 162.015 679.765C124.665 704.132 89.3862 727.147 53.0863 767.082C48.4631 772.168 43.9395 777.411 39.6325 782.666C35.5924 787.594 29.9406 790.556 23.9185 790.9C17.8964 791.244 11.9964 788.942 7.51459 784.501V784.5ZM1077.06 710.918C1075.23 708.327 1073.87 705.363 1073.08 702.195C1072.29 699.028 1072.07 695.719 1072.43 692.458C1072.8 689.198 1073.75 686.048 1075.23 683.192C1076.7 680.335 1078.67 677.826 1081.03 675.809C1093.46 665.175 1105.28 653.697 1116.41 641.441C1152.71 601.504 1173.63 562.691 1195.78 521.596C1218.38 479.656 1241.76 436.284 1282.1 391.9C1322.45 347.517 1361.86 321.8 1399.99 296.931C1418.9 284.596 1436.76 272.941 1454.92 259.04C1457.37 257.163 1460.13 255.834 1463.05 255.131C1465.96 254.428 1468.98 254.365 1471.92 254.943C1474.85 255.522 1477.66 256.733 1480.17 258.505C1482.69 260.278 1484.86 262.579 1486.56 265.275C1488.27 267.972 1489.48 271.012 1490.11 274.222C1490.75 277.432 1490.81 280.749 1490.29 283.983C1489.76 287.218 1488.66 290.307 1487.05 293.073C1485.44 295.84 1483.35 298.231 1480.9 300.109C1461.39 315.054 1441.97 327.716 1423.19 339.969C1385.84 364.336 1350.56 387.348 1314.27 427.282C1277.97 467.216 1257.05 506.028 1234.91 547.117C1212.29 589.063 1188.92 632.436 1148.57 676.82C1136.12 690.534 1122.89 703.377 1108.98 715.276C1104.22 719.354 1098.19 721.185 1092.2 720.367C1086.22 719.549 1080.77 716.147 1077.07 710.912L1077.06 710.918ZM7.35761 653.342C5.59617 650.689 4.32681 647.68 3.62206 644.487C2.91732 641.294 2.79087 637.979 3.2502 634.732C3.70953 631.486 4.74553 628.37 6.29895 625.565C7.85237 622.759 9.89297 620.317 12.3038 618.38C35.0076 600.134 57.5219 585.448 79.2929 571.247C116.646 546.88 151.925 523.867 188.224 483.929C224.523 443.991 245.444 405.178 267.59 364.086C290.197 322.142 313.57 278.775 353.914 234.391C394.257 190.008 433.681 164.29 471.803 139.418C509.156 115.053 544.434 92.0385 580.734 52.1023C617.034 12.1661 637.949 -26.6474 660.098 -67.7394C673.534 -92.6692 687.429 -118.446 704.967 -144.465C706.745 -147.106 708.978 -149.335 711.539 -151.026C714.099 -152.716 716.937 -153.835 719.89 -154.319C722.844 -154.802 725.854 -154.64 728.751 -153.842C731.647 -153.045 734.373 -151.627 736.771 -149.669C739.17 -147.712 741.195 -145.254 742.731 -142.435C744.266 -139.616 745.283 -136.492 745.722 -133.241C746.161 -129.99 746.014 -126.675 745.289 -123.487C744.564 -120.298 743.276 -117.297 741.498 -114.656C725.354 -90.7096 712.66 -67.1542 699.217 -42.2201C676.615 -0.275208 653.239 43.0985 612.895 87.4808C572.552 131.863 533.128 157.584 495.003 182.455C457.654 206.821 422.377 229.835 386.074 269.769C349.772 309.703 328.861 348.513 306.716 389.604C284.106 431.547 260.732 474.922 220.385 519.308C180.038 563.693 140.618 589.411 102.493 614.284C80.6835 628.511 60.0784 641.95 39.1358 658.783C34.2658 662.698 28.183 664.324 22.2243 663.303C16.2655 662.283 10.9187 658.699 7.35951 653.34L7.35761 653.342ZM1054.84 613.315C1052.75 610.976 1051.09 608.204 1049.97 605.159C1048.84 602.114 1048.28 598.856 1048.3 595.57C1048.32 592.284 1048.93 589.035 1050.1 586.008C1051.26 582.982 1052.96 580.238 1055.08 577.934L1056.9 575.956C1093.19 536.02 1114.11 497.209 1136.26 456.12C1158.87 414.175 1182.24 370.799 1222.59 326.415C1262.94 282.03 1302.36 256.311 1340.48 231.44C1363.79 216.233 1385.81 201.867 1408.21 183.38C1410.59 181.334 1413.32 179.831 1416.23 178.959C1419.15 178.087 1422.19 177.864 1425.19 178.302C1428.18 178.74 1431.07 179.831 1433.68 181.51C1436.28 183.19 1438.56 185.425 1440.37 188.085C1442.19 190.744 1443.5 193.775 1444.24 197C1444.98 200.225 1445.13 203.58 1444.67 206.868C1444.22 210.156 1443.17 213.312 1441.6 216.15C1440.03 218.989 1437.96 221.455 1435.51 223.402C1411.14 243.522 1387.01 259.26 1363.68 274.481C1326.33 298.845 1291.05 321.86 1254.75 361.796C1218.44 401.732 1197.53 440.548 1175.38 481.641C1152.77 523.583 1129.4 566.955 1089.06 611.337L1087.01 613.58C1082.71 618.237 1076.91 620.824 1070.88 620.774C1064.85 620.724 1059.08 618.04 1054.85 613.312L1054.84 613.315ZM24.0819 532.123C22.5497 529.303 21.5374 526.178 21.1027 522.927C20.668 519.676 20.8194 516.362 21.5484 513.176C22.2774 509.989 23.5697 506.992 25.3514 504.355C27.133 501.719 29.3692 499.495 31.932 497.81C62.9248 477.425 95.9277 454.505 128.706 418.447C165.004 378.515 185.919 339.702 208.065 298.612C230.674 256.666 254.048 213.293 294.396 168.909C334.743 124.524 374.163 98.8051 412.288 73.9323C449.637 49.5675 484.917 26.5549 521.215 -13.3791C553.87 -49.3075 574.447 -85.11 592.728 -118.702C595.825 -124.399 600.85 -128.509 606.698 -130.127C612.547 -131.745 618.74 -130.739 623.915 -127.331C629.09 -123.922 632.823 -118.39 634.293 -111.951C635.762 -105.512 634.849 -98.6951 631.752 -92.9981C612.011 -56.7227 589.698 -17.9627 553.375 22.0035C513.032 66.3847 473.608 92.1021 435.486 116.971C398.133 141.337 362.854 164.354 326.555 204.289C290.255 244.224 269.335 283.041 247.188 324.132C224.581 366.074 201.206 409.446 160.864 453.827C124.408 493.934 88.7101 518.764 55.2681 540.759C50.092 544.167 43.8981 545.171 38.0493 543.552C32.2004 541.932 27.1756 537.821 24.08 532.123H24.0819ZM1009.11 533.854C1006.92 531.626 1005.15 528.944 1003.9 525.96C1002.65 522.977 1001.94 519.752 1001.82 516.468C1001.7 513.185 1002.17 509.908 1003.21 506.825C1004.24 503.742 1005.81 500.914 1007.84 498.501C1037.92 462.668 1056.77 427.682 1076.74 390.638C1099.34 348.695 1122.72 305.322 1163.06 260.936C1203.41 216.551 1242.83 190.835 1280.95 165.964C1305.58 149.896 1328.84 134.723 1352.51 114.707C1354.87 112.704 1357.58 111.232 1360.46 110.378C1363.34 109.524 1366.35 109.303 1369.31 109.728C1372.27 110.153 1375.12 111.215 1377.71 112.855C1380.3 114.494 1382.56 116.679 1384.38 119.283C1386.2 121.888 1387.54 124.861 1388.32 128.035C1389.09 131.208 1389.29 134.518 1388.91 137.776C1388.52 141.035 1387.56 144.177 1386.07 147.025C1384.58 149.873 1382.59 152.37 1380.23 154.374C1354.4 176.227 1328.85 192.89 1304.15 209.005C1266.8 233.369 1231.52 256.382 1195.22 296.318C1158.93 336.254 1138 375.07 1115.86 416.161C1095.56 453.807 1074.58 492.733 1041.25 532.445C1037.16 537.32 1031.47 540.207 1025.45 540.471C1019.42 540.735 1013.55 538.355 1009.11 533.853V533.854ZM946.26 471.874C944.09 469.618 942.345 466.913 941.125 463.914C939.905 460.916 939.234 457.682 939.15 454.398C939.066 451.113 939.57 447.843 940.635 444.773C941.699 441.704 943.303 438.895 945.354 436.508C977.163 399.483 996.618 363.376 1017.22 325.149C1039.83 283.207 1063.2 239.838 1103.54 195.456C1143.88 151.074 1183.31 125.352 1221.43 100.484C1245.76 84.617 1268.73 69.6308 1292.09 49.9796C1294.46 47.9381 1297.17 46.4344 1300.07 45.5549C1302.97 44.6754 1306 44.4379 1308.98 44.8563C1311.97 45.2746 1314.84 46.3401 1317.45 47.9918C1320.06 49.6434 1322.34 51.848 1324.17 54.4778C1325.99 57.1076 1327.33 60.1104 1328.09 63.3121C1328.86 66.5137 1329.04 69.8508 1328.62 73.1298C1328.21 76.4087 1327.21 79.5643 1325.68 82.414C1324.15 85.2638 1322.12 87.7511 1319.71 89.7314C1294.22 111.17 1269.01 127.619 1244.63 143.521C1207.28 167.886 1172 190.9 1135.7 230.837C1099.4 270.773 1078.48 309.581 1056.34 350.671C1035.37 389.572 1013.69 429.802 978.405 470.873C974.261 475.695 968.547 478.509 962.518 478.697C956.49 478.884 950.641 476.429 946.256 471.871L946.26 471.874ZM861.929 430.182C859.932 427.74 858.392 424.888 857.397 421.79C856.401 418.693 855.971 415.409 856.129 412.128C856.287 408.847 857.03 405.632 858.318 402.667C859.605 399.703 861.41 397.046 863.63 394.85C868.64 389.899 873.583 384.738 878.335 379.512C914.633 339.576 935.548 300.765 957.694 259.677C980.305 217.731 1003.68 174.358 1044.02 129.973C1084.37 85.5871 1123.79 59.8731 1161.91 35.0013C1182.99 21.2517 1202.89 8.26494 1223.13 -7.79416C1225.55 -9.79611 1228.31 -11.2476 1231.24 -12.0631C1234.17 -12.8786 1237.22 -13.0418 1240.21 -12.5436C1243.2 -12.0454 1246.07 -10.8957 1248.65 -9.16156C1251.23 -7.4274 1253.47 -5.14362 1255.24 -2.4442C1257.01 0.255203 1258.27 3.31618 1258.96 6.55946C1259.64 9.80275 1259.73 13.1629 1259.21 16.4438C1258.7 19.7247 1257.6 22.8604 1255.97 25.6667C1254.35 28.473 1252.23 30.8936 1249.74 32.7874C1227.85 50.1581 1206.12 64.333 1185.11 78.0417C1147.76 102.406 1112.48 125.419 1076.18 165.353C1039.89 205.287 1018.96 244.103 996.816 285.196C974.21 327.138 950.836 370.51 910.494 414.891C905.177 420.739 899.644 426.513 894.04 432.057C889.555 436.495 883.653 438.79 877.631 438.438C871.609 438.086 865.961 435.117 861.928 430.181L861.929 430.182ZM723.485 421.761C721.934 418.954 720.9 415.838 720.443 412.591C719.986 409.343 720.116 406.029 720.823 402.836C721.531 399.644 722.803 396.636 724.567 393.985C726.332 391.334 728.553 389.092 731.105 387.387C758.973 368.747 788.884 346.959 818.812 314.029C855.11 274.092 876.034 235.279 898.18 194.186C920.787 152.245 944.16 108.871 984.504 64.489C1024.85 20.1068 1064.26 -5.60732 1102.38 -30.478C1116.63 -39.7665 1131.35 -49.3717 1145.67 -59.7129C1148.17 -61.517 1150.96 -62.7624 1153.89 -63.3782C1156.82 -63.9939 1159.84 -63.9679 1162.76 -63.3016C1165.68 -62.6352 1168.46 -61.3417 1170.93 -59.4947C1173.39 -57.6477 1175.51 -55.2836 1177.15 -52.5371C1178.79 -49.7907 1179.92 -46.7156 1180.48 -43.4878C1181.04 -40.2601 1181.01 -36.9424 1180.41 -33.7247C1179.8 -30.507 1178.63 -27.4519 1176.95 -24.7341C1175.27 -22.0164 1173.12 -19.6892 1170.63 -17.8851C1155.44 -6.91553 1140.26 2.98715 1125.58 12.5614C1088.24 36.9261 1052.96 59.9388 1016.66 99.8696C980.368 139.8 959.451 178.617 937.304 219.707C914.694 261.652 891.32 305.026 850.973 349.412C817.652 386.075 785.024 409.879 754.733 430.143C752.181 431.851 749.349 432.99 746.398 433.493C743.447 433.997 740.435 433.855 737.534 433.077C734.632 432.299 731.898 430.9 729.488 428.959C727.078 427.018 725.039 424.573 723.487 421.764L723.485 421.761ZM80.142 377.168C77.9538 374.933 76.1871 372.245 74.943 369.258C73.6989 366.271 73.0018 363.044 72.8915 359.76C72.7811 356.476 73.2597 353.201 74.2998 350.121C75.34 347.041 76.9213 344.217 78.9535 341.81C109.432 305.697 128.432 270.444 148.546 233.122C171.151 191.179 194.529 147.806 234.873 103.424C275.216 59.0419 314.64 33.3226 352.762 8.45084C387.172 -13.9997 419.678 -35.2012 452.991 -69.5956C457.386 -74.1397 463.242 -76.5751 469.268 -76.3665C475.295 -76.1579 481 -73.3222 485.128 -68.4832C489.255 -63.6441 491.468 -57.1983 491.278 -50.5634C491.089 -43.9286 488.513 -37.6482 484.117 -33.1042C447.163 5.04022 410.966 28.6551 375.96 51.4902C338.613 75.8549 303.333 98.8692 267.034 138.801C230.735 178.733 209.817 217.551 187.671 258.643C167.22 296.588 146.073 335.821 112.279 375.856C108.174 380.719 102.483 383.588 96.457 383.834C90.4309 384.08 84.5628 381.682 80.142 377.167V377.168Z" fill="#DAA982"/>
</svg>
