<?xml version="1.0" encoding="UTF-8"?>
<svg width="168px" height="35px" viewBox="0 0 168 35" version="1.1" xmlns="http://www.w3.org/2000/svg" xmlns:xlink="http://www.w3.org/1999/xlink">
    <!-- Generator: Sketch 63.1 (92452) - https://sketch.com -->
    <title>Workio-logo</title>
    <desc>Created with Sketch.</desc>
    <g id="Page-1" stroke="none" stroke-width="1" fill="none" fill-rule="evenodd">
        <g id="Workio-logo" fill="#FFFFFF" fill-rule="nonzero">
            <path d="M2.83156324,0.290591922 C4.61561834,-0.3984655 6.68934551,0.170120955 7.7271115,1.86127778 C9.14208287,4.16756666 10.3982309,6.57516067 11.7220594,8.93894705 C11.7482592,9.00863363 11.7680564,9.07833372 11.7835037,9.14863975 L11.7223301,8.93940338 L19.6932753,22.8373721 L19.6932753,22.8373721 L20.3189429,23.945678 C20.4246246,24.1294942 20.5322113,24.3122288 20.643508,24.4929353 C21.5035001,25.8856527 22.6667004,25.8810894 23.5709105,24.4819834 L23.8594796,24.016595 L23.8594796,24.016595 L24.4155617,23.0710128 L31.1520166,10.396372 L31.1520166,10.396372 L32.918221,13.4248734 C33.1022835,13.7436623 33.2834977,14.0600127 33.4630764,14.3773898 C36.1675848,19.1387309 38.8793124,23.8936835 41.5504318,28.6723651 C42.5729044,30.4967221 44.033541,31.7755468 45.845638,32.6764564 L46.1508936,32.8231375 L46.4647349,32.8827264 C47.9292976,33.1568746 49.3940176,33.3631273 50.8831065,32.9627743 C53.4955696,32.2636777 55.2696982,30.5761715 56.5285535,28.223337 C57.095264,27.1640443 57.6656843,26.1067798 58.2379763,25.0505631 L61.6794824,18.7179952 L61.7404869,18.6923987 L61.8544684,18.6304062 L61.8544684,18.6304062 L61.8808273,18.6136634 C61.8132816,18.6567039 61.7460154,18.6930431 61.6792117,18.7176302 L69.7331782,3.67883785 L69.7331782,3.67883785 L70.4199085,2.38537212 C70.5348524,2.17009871 70.6508115,1.95545276 70.768942,1.74214728 L71.1310038,1.10696525 C71.4315048,0.595876303 71.6372532,-0.265673639 72.4828069,0.156887402 C73.2034184,0.516060139 73.039039,1.04874365 72.7765225,1.56298748 L72.5956075,1.90097844 C70.6843133,5.45213397 68.7757263,9.00420216 66.8527008,12.5498817 C66.09829,13.9413822 65.3326493,15.3267984 64.5662065,16.7120793 L63.4173904,18.7880148 L63.4184173,18.7900953 L62.828173,19.977636 C61.0501089,23.5367974 59.2004851,27.061066 57.128653,30.4493119 C54.7363767,34.362793 49.7686361,35.9772865 45.8729528,34.40295 C46.1423852,34.2569246 46.3639349,34.102634 46.4984669,33.9328442 L46.5179892,33.9068129 C46.4079733,34.0565282 46.2298364,34.1939885 46.0097958,34.3239845 L45.8729528,34.4011247 L45.5659233,34.3071749 C43.1404453,33.5174139 41.448821,31.817643 40.1796783,29.6333949 C38.6040788,26.9200602 37.0754044,24.178433 35.4249053,21.270702 L31.7865496,28.0455415 C31.5888544,28.4127416 31.3912829,28.779407 31.1935273,29.1460351 C30.1266489,31.1198384 28.7749244,32.807229 26.7197895,33.7768996 L26.4351446,33.9046383 C22.2671154,36.1543423 16.74981,34.7515857 14.0705689,30.6291057 C12.8830037,28.8019627 11.8743825,26.8560315 10.8180027,24.9417189 L10.3616835,24.1236735 C8.56905556,21.0088602 6.77146438,17.8957809 4.98740929,14.776313 L2.80821351,10.9681299 C2.08459733,9.69691022 1.36650839,8.42238215 0.662181124,7.14009649 C-0.792496072,4.49064789 0.246172323,1.29086601 2.83156324,0.290591922 Z M6.59278815,3.17641916 C5.94666602,2.0648007 4.94409384,1.60847128 3.68884819,1.8631031 C2.58520662,2.08761717 1.70445914,3.24486857 1.61873064,4.48699725 C1.56187912,5.2974383 1.93096285,5.9691552 2.30816822,6.63904679 L6.90287714,14.8047195 L6.90287714,14.8047195 L11.4951947,22.9709854 L11.6948961,23.3182001 L11.6964311,23.3159704 L12.6479438,24.9503396 C13.2825686,26.0396486 13.9162576,27.1293633 14.540722,28.2251623 C16.8635514,32.3001258 19.914217,33.7759872 24.3289271,32.9231273 L24.6187834,32.8642072 L24.8760591,32.8079874 C27.0487801,31.8739723 28.6749143,30.358046 29.7839703,28.2406775 C31.1222372,25.6861454 32.4893811,23.1453032 33.8935236,20.6272775 C34.280114,19.9339002 34.382138,19.3693172 33.9919615,18.6842082 L33.9007429,18.5354635 C33.1598682,17.4028538 32.5507447,16.1817163 31.8549903,15.0171636 C31.6745092,14.7141609 31.6086337,14.1647403 31.1646503,14.2368403 C30.9417562,14.2733467 30.767592,14.7315014 30.6069639,15.018989 L27.8924162,19.9500846 L27.8924162,19.9500846 L25.1540902,24.9310115 L25.0650191,25.1128248 C24.4579277,26.3153742 23.5348143,27.1974042 22.1631583,27.2756321 C20.6558032,27.3613459 19.7650541,26.3884279 19.0532851,25.1496993 L18.9614247,24.9866837 C17.7454336,22.7885449 16.5156809,20.5981637 15.2817546,18.4102923 L11.546722,11.7962993 L9.89980244,8.91995023 C8.80227717,7.002285 7.70394977,5.08570145 6.59278815,3.17641916 Z M55.6339008,0.615262577 C56.9606204,-0.417278969 59.2847355,-0.0860434973 60.5951523,1.13087691 C62.1012666,2.52815759 62.6273688,4.91841108 61.6870626,6.86146175 C60.7467564,8.80725038 59.6737966,10.6873276 58.6423474,12.5865706 L57.8889394,13.957587 L57.8889394,13.957587 L56.3619695,16.6880594 L56.2796251,16.7153284 C55.9931978,16.8239095 55.7221732,17.0631044 55.4365011,17.1807701 L55.4568189,17.1728279 C55.7621003,17.0410793 56.0513842,16.7759406 56.3616988,16.688607 L54.1862254,20.7817678 C53.8239097,21.4641514 53.4626656,22.1470769 53.1039032,22.8312145 L52.0364706,24.887934 C51.3316921,26.2651362 50.4193605,27.3429863 48.781495,27.2918774 C47.1684277,27.2410605 46.2373187,26.2103548 45.6552395,24.809394 L45.5842734,24.6323895 L45.6573345,24.569431 C45.7216611,24.5231848 45.794105,24.4916041 45.8709999,24.4680705 L46.0135563,24.4326091 C45.851618,24.4649387 45.6985968,24.5135842 45.5838222,24.6316594 L34.0772533,4.35603071 L33.9843971,4.15889658 C32.2930083,0.686655348 29.3640087,1.23034259 27.8740036,4.37998485 L27.792723,4.55763704 C26.609399,7.23455668 25.05987,9.74662274 23.6191061,12.3074056 L23.1435314,13.1630972 L23.0428085,13.3380831 C22.9119381,13.5744691 22.7883447,13.8177474 22.6179706,14.0207227 C22.0512601,14.6960903 21.5919358,14.9032638 21.0342494,13.8966011 C19.9026333,11.8540706 18.7536459,9.82112309 17.5989056,7.79148392 L14.1290448,1.70621704 C13.8132029,1.15132047 13.5650415,0.548965638 14.2598935,0.157434998 C14.8784685,-0.191488886 15.1930755,0.2058135 15.4548375,0.653904373 L15.5981604,0.906727902 C17.5085523,4.2680504 19.4081152,7.6357615 21.342872,10.9824815 C21.511227,11.2716802 21.5003347,11.8199707 22.0136019,11.8144326 L22.1238135,11.8059735 L24.7810473,6.7850309 C25.6006609,5.24139812 26.4281419,3.7023662 27.2801568,2.1774228 C28.1293201,0.656933179 29.5460963,-0.0996609966 31.2967624,0.0408884642 C33.0116707,0.17733096 34.2376039,1.05892295 34.9173766,2.6398784 L35.0031211,2.85014363 L36.265445,5.02498111 C37.5299685,7.19867778 38.7972838,9.37109101 40.0331277,11.5614722 C42.3441875,15.6583977 44.6128342,19.779965 46.899529,23.8905804 C46.8639967,24.0211477 46.808446,24.1155223 46.7392117,24.185177 L46.8038053,24.1070635 C46.8302652,24.0682981 46.8536114,24.0239149 46.8732877,23.9729099 L46.8999802,23.8913106 L47.0223995,24.0448284 C48.7531374,26.193015 49.4674943,26.0937118 50.8480433,23.568548 L52.1206951,21.2245891 L52.1206951,21.2245891 L54.5039172,16.9153115 L59.6142379,7.2748962 C60.0861958,6.37957788 60.6664423,5.51072667 60.5220575,4.42009936 C60.2586646,2.40140864 58.8208886,1.54813213 56.4901372,1.99924367 L56.2690217,2.04536107 L55.8362396,2.63223166 C53.8677636,5.40489678 52.5944578,8.5831318 50.8754361,11.5005979 C50.4684513,12.1933059 50.129147,12.9252583 49.7338935,13.6261803 C48.9551178,15.0125091 48.4786478,15.0152471 47.6520447,13.6508221 L47.5490702,13.4672087 L47.5490702,13.4672087 L47.3577703,13.0903583 L44.1450273,7.45612743 L40.937428,1.81829155 C40.6197813,1.25883168 40.2326495,0.583464142 41.0051084,0.150863854 C41.8100538,-0.298164293 42.1105548,0.474857741 42.4119581,1.01058848 L45.2948043,6.17578116 L45.2948043,6.17578116 L48.1702057,11.3464498 L48.2429352,11.4390201 C48.6676433,11.9479689 48.8918895,11.6558771 49.1379309,11.2047927 L49.1816215,11.1236698 C50.1333582,9.33425002 51.0931162,7.54969777 52.0563503,5.76703845 L53.8031562,2.5376748 C54.1746439,1.86105631 54.5872846,1.21742009 55.2951777,0.830279947 L55.4957507,0.731223608 L55.6339008,0.615262577 Z" id="Shape"></path>
            <path d="M90.8304001,25.5375998 L96.7792002,10.2495996 L94.3040002,10.2495996 L90.6432001,20.0879997 L86.4624,10.1663996 L86.3376,10.1663996 L82.136,20.0879997 L78.4751999,10.2495996 L75.9999999,10.2495996 L81.9488,25.5167998 L82.24,25.5167998 L86.3792,15.6367996 L90.5392001,25.5375998 L90.8304001,25.5375998 Z M105.2656,25.7455998 C106.652267,25.7455998 107.931467,25.4231998 109.1032,24.7783998 C110.274934,24.1335998 111.207467,23.2149331 111.9008,22.0223997 C112.594134,20.8298664 112.9408,19.4431997 112.9408,17.8623997 C112.9408,16.267733 112.594134,14.8775996 111.9008,13.6919996 C111.207467,12.5063996 110.274934,11.5946663 109.1032,10.9567996 C107.931467,10.3189329 106.652267,9.99999956 105.2656,9.99999956 C103.878934,9.99999956 102.599734,10.3189329 101.428,10.9567996 C100.256267,11.5946663 99.3237336,12.5063996 98.6304002,13.6919996 C97.9370669,14.8775996 97.5904002,16.267733 97.5904002,17.8623997 C97.5904002,19.4431997 97.9370669,20.8298664 98.6304002,22.0223997 C99.3237336,23.2149331 100.256267,24.1335998 101.428,24.7783998 C102.599734,25.4231998 103.878934,25.7455998 105.2656,25.7455998 Z M105.2656,23.6447998 C104.336534,23.6447998 103.473334,23.4194664 102.676,22.9687998 C101.878667,22.5181331 101.244267,21.8594664 100.7728,20.9927997 C100.301334,20.126133 100.0656,19.0895997 100.0656,17.8831997 C100.0656,16.662933 100.2944,15.6194663 100.752,14.7527996 C101.2096,13.886133 101.8336,13.2309329 102.624,12.7871996 C103.4144,12.3434663 104.294934,12.1215996 105.2656,12.1215996 C106.236267,12.1215996 107.113334,12.3434663 107.8968,12.7871996 C108.680267,13.2309329 109.304267,13.886133 109.7688,14.7527996 C110.233334,15.6194663 110.4656,16.662933 110.4656,17.8831997 C110.4656,19.0895997 110.233334,20.126133 109.7688,20.9927997 C109.304267,21.8594664 108.6768,22.5181331 107.8864,22.9687998 C107.096,23.4194664 106.2224,23.6447998 105.2656,23.6447998 Z M117.808001,25.5375998 L117.808001,19.7967997 L118.390401,19.7967997 C118.889601,19.7967997 119.458134,19.782933 120.096001,19.7551997 L120.096001,19.7551997 L123.174401,25.5375998 L125.857601,25.5375998 L122.217601,19.2559997 C123.160534,18.8538664 123.871201,18.2818664 124.349601,17.5399997 C124.828001,16.798133 125.067201,15.914133 125.067201,14.8879996 C125.067201,13.2517329 124.498667,12.0695996 123.361601,11.3415996 C122.224534,10.6135996 120.775467,10.2495996 119.014401,10.2495996 L119.014401,10.2495996 L115.5408,10.2495996 L115.5408,25.5375998 L117.808001,25.5375998 Z M119.284801,17.9039997 L117.808001,17.9039997 L117.808001,12.1839996 L119.201601,12.1839996 C121.628267,12.1839996 122.841601,13.0922663 122.841601,14.9087996 C122.841601,15.726933 122.588534,16.4306663 122.082401,17.0199997 C121.576267,17.609333 120.643734,17.9039997 119.284801,17.9039997 L119.284801,17.9039997 Z M130.516801,25.5375998 L130.516801,20.2335997 L131.764801,18.6943997 L136.444801,25.5375998 L139.294401,25.5375998 L133.283201,16.9679997 L138.545601,10.2495996 L135.758401,10.2495996 L130.516801,17.0719997 L130.516801,10.2495996 L128.228801,10.2495996 L128.228801,25.5375998 L130.516801,25.5375998 Z" id="WORK"></path>
            <path d="M141.998401,25.7455998 C142.428268,25.7455998 142.785334,25.6034665 143.069601,25.3191998 C143.353868,25.0349331 143.496001,24.6847998 143.496001,24.2687998 C143.496001,23.8389331 143.353868,23.4818664 143.069601,23.1975998 C142.785334,22.9133331 142.428268,22.7711998 141.998401,22.7711998 C141.568534,22.7711998 141.211468,22.9133331 140.927201,23.1975998 C140.642934,23.4818664 140.500801,23.8389331 140.500801,24.2687998 C140.500801,24.6847998 140.646401,25.0349331 140.937601,25.3191998 C141.228801,25.6034665 141.582401,25.7455998 141.998401,25.7455998 Z M149.257601,25.5375998 L149.257601,10.2495996 L146.928001,10.2495996 L146.928001,25.5375998 L149.257601,25.5375998 Z M159.803201,25.7455998 C161.189868,25.7455998 162.469068,25.4231998 163.640801,24.7783998 C164.812535,24.1335998 165.745068,23.2149331 166.438401,22.0223997 C167.131735,20.8298664 167.478401,19.4431997 167.478401,17.8623997 C167.478401,16.267733 167.131735,14.8775996 166.438401,13.6919996 C165.745068,12.5063996 164.812535,11.5946663 163.640801,10.9567996 C162.469068,10.3189329 161.189868,9.99999956 159.803201,9.99999956 C158.416534,9.99999956 157.137334,10.3189329 155.965601,10.9567996 C154.793868,11.5946663 153.861334,12.5063996 153.168001,13.6919996 C152.474668,14.8775996 152.128001,16.267733 152.128001,17.8623997 C152.128001,19.4431997 152.474668,20.8298664 153.168001,22.0223997 C153.861334,23.2149331 154.793868,24.1335998 155.965601,24.7783998 C157.137334,25.4231998 158.416534,25.7455998 159.803201,25.7455998 Z M159.803201,23.6447998 C158.874134,23.6447998 158.010934,23.4194664 157.213601,22.9687998 C156.416268,22.5181331 155.781868,21.8594664 155.310401,20.9927997 C154.838934,20.126133 154.603201,19.0895997 154.603201,17.8831997 C154.603201,16.662933 154.832001,15.6194663 155.289601,14.7527996 C155.747201,13.886133 156.371201,13.2309329 157.161601,12.7871996 C157.952001,12.3434663 158.832534,12.1215996 159.803201,12.1215996 C160.773868,12.1215996 161.650934,12.3434663 162.434401,12.7871996 C163.217868,13.2309329 163.841868,13.886133 164.306401,14.7527996 C164.770935,15.6194663 165.003201,16.662933 165.003201,17.8831997 C165.003201,19.0895997 164.770935,20.126133 164.306401,20.9927997 C163.841868,21.8594664 163.214401,22.5181331 162.424001,22.9687998 C161.633601,23.4194664 160.760001,23.6447998 159.803201,23.6447998 Z" id=".IO"></path>
        </g>
    </g>
</svg>