<svg width="200" height="137" viewBox="0 0 200 137" fill="none" xmlns="http://www.w3.org/2000/svg">
<g clip-path="url(#clip0)">
<path d="M132.742 62.9263L132.742 54.8572L138.807 54.8583C139.343 54.8586 139.856 54.6464 140.236 54.2667C140.616 53.8871 140.828 53.3733 140.828 52.8373L140.828 44.716C140.828 43.6439 139.878 42.6947 138.806 42.6947L132.742 42.6958L132.742 34.6254C132.742 32.3927 130.932 30.5826 128.699 30.5825C126.466 30.5823 124.656 32.3924 124.656 34.6254L124.656 62.9262C124.656 65.1591 126.466 66.9692 128.699 66.9692C130.932 66.9692 132.742 65.1591 132.742 62.9263Z" fill="white"/>
<path d="M74.926 62.9552L74.9262 34.6544C74.926 32.4215 73.1161 30.6116 70.8831 30.6114C68.6502 30.6116 66.8401 32.4217 66.8401 34.6544L66.8401 42.7248L60.7873 42.7236C60.2512 42.7236 59.7376 42.9357 59.3579 43.3154C58.9783 43.695 58.7661 44.2088 58.7662 44.7448L58.7675 52.8648C58.7673 53.4232 58.9934 53.9285 59.3592 54.2943C59.7249 54.66 60.2302 54.8862 60.7886 54.8861L66.8401 54.8861L66.84 62.9553C66.84 65.188 68.6501 66.9981 70.883 66.9982C73.1161 66.9982 74.9262 65.1881 74.926 62.9552Z" fill="white"/>
<path d="M108.484 42.7111L91.0981 42.7406V54.8696L108.484 54.8399L108.484 42.7111Z" fill="white"/>
<path d="M120.613 66.9689L120.613 30.5821C120.613 28.3493 118.802 26.5391 116.57 26.5391C114.337 26.5391 112.527 28.3491 112.527 30.5822L112.527 66.969C112.527 69.2017 114.337 71.0118 116.57 71.0119C118.803 71.0121 120.613 69.202 120.613 66.9689Z" fill="white"/>
<path d="M87.0552 66.9984L87.0552 30.6114C87.0552 28.3787 85.2451 26.5686 83.0123 26.5686C80.7792 26.5686 78.9691 28.3787 78.9693 30.6116L78.9693 66.9984C78.9693 69.2311 80.7794 71.0412 83.0122 71.0413C85.2452 71.0415 87.0553 69.2314 87.0552 66.9984Z" fill="white"/>
</g>
<path d="M19.4673 132.56C16.1822 132.56 13.2517 131.832 10.6759 130.376C8.13736 128.92 6.15882 126.774 4.74025 123.937C3.32168 121.099 2.61239 117.646 2.61239 113.577C2.61239 109.62 3.35901 106.223 4.85224 103.386C6.34548 100.511 8.47334 98.3089 11.2358 96.7783C14.0356 95.2478 17.3208 94.4825 21.0912 94.4825C25.3096 94.4825 28.688 95.2478 31.2265 96.7783C33.8023 98.2716 35.7995 100.661 37.2181 103.946L28.3147 107.474C27.8294 105.57 26.9708 104.189 25.7389 103.33C24.5069 102.471 22.9764 102.042 21.1472 102.042C18.3847 102.042 16.2382 103.031 14.7076 105.01C13.2144 106.951 12.4677 109.788 12.4677 113.521C12.4677 117.478 13.233 120.427 14.7636 122.369C16.2942 124.273 18.59 125.224 21.6511 125.224C23.779 125.224 25.5522 124.72 26.9708 123.713C28.3894 122.705 29.0986 121.155 29.0986 119.065V118.505H20.6432V112.065H37.2741V132H30.7225L30.3306 127.464C29.2853 129.107 27.8481 130.376 26.0188 131.272C24.227 132.131 22.0431 132.56 19.4673 132.56ZM74.8743 95.0424L61.8272 118.505V132H52.1958V118.505L39.1487 95.0424H49.116L54.3237 105.178L57.0675 111.337L59.8673 105.178L65.0749 95.0424H74.8743ZM121.878 95.0424V132H113.367V115.033L113.647 103.666H113.535L104.408 132H96.624L87.4966 103.666H87.3846L87.6646 115.033V132H79.0972V95.0424H92.8163L98.6399 113.857L100.712 121.697H100.824L102.952 113.913L108.719 95.0424H121.878ZM126.199 132L139.19 95.0424H150.725L163.66 132H153.749L151.229 123.657H138.462L135.886 132H126.199ZM143.278 108.202L140.478 117.105H149.213L146.525 108.258L144.902 102.434H144.79L143.278 108.202ZM199.455 132H187.975L181.032 120.185L174.312 132H163.393L175.936 113.409L164.121 95.0424H175.488L181.816 106.354L188.199 95.0424H198.671L186.855 113.129L199.455 132Z" fill="white"/>
<defs>
<clipPath id="clip0">
<rect width="69" height="69" fill="white" transform="translate(99.791) rotate(45)"/>
</clipPath>
</defs>
</svg>
