<svg width="205" height="132" viewBox="0 0 205 132" fill="none" xmlns="http://www.w3.org/2000/svg">
<path d="M117.124 13.8775C117.26 17.4224 115.989 20.877 113.588 23.4858C111.187 26.0946 107.852 27.6453 104.312 27.7987C100.774 27.6453 97.441 26.0939 95.0434 23.4845C92.6459 20.875 91.3793 17.4203 91.5213 13.8775V1.74833H117.124V13.8775Z" stroke="white" stroke-width="1.59" stroke-miterlimit="10"/>
<path d="M102.609 27.6675V46.7463V47.0741" stroke="white" stroke-width="1.59" stroke-miterlimit="10"/>
<path d="M106.472 47.0523V27.5801" stroke="white" stroke-width="1.59" stroke-miterlimit="10"/>
<path d="M94.4458 47.0741H114.767" stroke="white" stroke-width="1.59" stroke-miterlimit="10"/>
<path d="M126.597 45.0417C126.597 45.0417 132.6 39.9496 146.416 39.6437C153.728 39.4907 166.213 39.6437 174.791 47.3364" stroke="white" stroke-width="1.59" stroke-miterlimit="10"/>
<path d="M146.438 31.1861C152.986 28.3013 161.389 30.9894 165.798 22.9252" stroke="white" stroke-width="1.59" stroke-miterlimit="10"/>
<path d="M134.935 17.1775C134.979 15.876 135.481 14.632 136.351 13.6645C137.222 12.697 138.405 12.0681 139.693 11.8887C144.626 10.5556 149.341 17.9424 144.343 22.2914C139.344 26.6404 133.145 27.0775 128.78 32.3006" stroke="white" stroke-width="1.59" stroke-miterlimit="10"/>
<path d="M79.7783 45.0417C79.7783 45.0417 73.7758 39.9496 59.9593 39.6437C52.6472 39.4907 40.1621 39.6437 31.584 47.3364" stroke="white" stroke-width="1.59" stroke-miterlimit="10"/>
<path d="M59.9591 31.1861C53.411 28.3013 45.0076 30.9894 40.5985 22.9252" stroke="white" stroke-width="1.59" stroke-miterlimit="10"/>
<path d="M71.462 17.1775C71.4196 15.8825 70.9243 14.6436 70.0626 13.677C69.2009 12.7104 68.0276 12.0775 66.7474 11.8887C61.8145 10.5556 57.0998 17.9424 62.0982 22.2914C67.0966 26.6404 73.2082 27.0775 77.7046 32.3006" stroke="white" stroke-width="1.59" stroke-miterlimit="10"/>
<path d="M34.4213 119.324H39.0487C39.6612 119.313 40.2698 119.424 40.8385 119.652C41.312 119.861 41.7416 120.157 42.1045 120.526C42.4444 120.891 42.7046 121.323 42.8684 121.794C43.0394 122.241 43.1282 122.714 43.1303 123.193C43.132 123.686 43.0432 124.174 42.8684 124.635C42.7039 125.093 42.4434 125.51 42.1045 125.859C41.7472 126.235 41.3162 126.532 40.8385 126.733C40.2743 126.978 39.6636 127.098 39.0487 127.083H35.8401V131.454H34.4213V119.324ZM39.0487 125.64C39.4456 125.653 39.8404 125.578 40.2055 125.422C40.5281 125.309 40.8196 125.122 41.0568 124.875C41.2761 124.659 41.4472 124.398 41.5588 124.111C41.664 123.816 41.7157 123.505 41.7116 123.193C41.6742 122.912 41.5932 122.639 41.4715 122.384C41.3599 122.097 41.1888 121.836 40.9695 121.619C40.7409 121.368 40.4569 121.173 40.14 121.051C39.7702 120.913 39.3777 120.847 38.9832 120.854H35.8401V125.728L39.0487 125.64Z" fill="white"/>
<path d="M48.6745 126.493H46.8192V131.432H45.3786V119.324H50.0059C50.5505 119.321 51.0932 119.387 51.6211 119.521C52.1005 119.641 52.5476 119.865 52.9307 120.177C53.301 120.479 53.5992 120.859 53.8038 121.291C54.2111 122.323 54.2111 123.472 53.8038 124.504C53.6394 124.917 53.3772 125.285 53.0399 125.575C52.6982 125.87 52.2958 126.086 51.8612 126.209C51.3956 126.363 50.9107 126.451 50.4206 126.471L54.3058 131.432H52.5597L48.6745 126.493ZM50.0277 125.16C50.3942 125.159 50.7597 125.122 51.1191 125.05C51.4262 124.989 51.7165 124.862 51.9703 124.679C52.2091 124.506 52.3975 124.272 52.516 124.001C52.6564 123.67 52.7234 123.312 52.7125 122.952C52.7278 122.59 52.6528 122.229 52.4942 121.903C52.3757 121.633 52.1873 121.399 51.9485 121.226C51.6947 121.042 51.4043 120.916 51.0973 120.854C50.7416 120.82 50.3834 120.82 50.0277 120.854H46.8192V125.225L50.0277 125.16Z" fill="white"/>
<path d="M57.9071 124.57H63.7568V126.012H57.9071V129.924H64.237V131.344H56.4884V119.324H64.237V120.767H57.9071V124.57Z" fill="white"/>
<path d="M68.1879 131.432H66.7473V119.324H68.559L72.2914 127.782L76.0457 119.324H77.8355V131.432H76.3949V122.013L72.9026 129.858H71.7021L68.1879 122.034V131.432Z" fill="white"/>
<path d="M82.2879 131.432H80.8691V119.324H82.2879V131.432Z" fill="white"/>
<path d="M86.6753 127.738C86.6765 128.114 86.7742 128.483 86.9591 128.809C87.1334 129.119 87.3807 129.382 87.6794 129.574C87.9901 129.775 88.3283 129.93 88.6834 130.033C89.4447 130.208 90.2357 130.208 90.9971 130.033C91.3605 129.934 91.7066 129.779 92.0229 129.574C92.311 129.369 92.5558 129.109 92.7432 128.809C92.9205 128.481 93.0107 128.112 93.0052 127.738V119.324H94.4457V127.738C94.4584 128.323 94.3233 128.902 94.0529 129.421C93.8016 129.904 93.4432 130.323 93.0052 130.645C92.5672 130.975 92.0711 131.22 91.5427 131.366C90.9905 131.531 90.4166 131.612 89.8402 131.607C89.271 131.614 88.704 131.533 88.1595 131.366C87.6235 131.222 87.1198 130.978 86.6753 130.645C86.2497 130.315 85.8999 129.898 85.6494 129.421C85.379 128.902 85.2439 128.323 85.2566 127.738V119.324H86.6753V127.738Z" fill="white"/>
<path d="M98.8329 131.432H97.4142V119.324H99.204L102.936 127.782L106.691 119.324H108.48V131.432H106.953V122.013L103.482 129.858H102.26L98.7456 122.034L98.8329 131.432Z" fill="white"/>
<path d="M124.938 127.804C124.95 128.246 124.868 128.685 124.698 129.093C124.548 129.463 124.334 129.803 124.065 130.099L125.004 131.301L124 132L123.105 130.864C122.661 131.113 122.183 131.297 121.686 131.41C121.172 131.539 120.645 131.605 120.115 131.607C119.51 131.614 118.907 131.533 118.325 131.366C117.769 131.221 117.244 130.976 116.775 130.645C116.32 130.347 115.946 129.942 115.684 129.465C115.396 128.96 115.252 128.385 115.269 127.804V122.952C115.252 122.371 115.396 121.796 115.684 121.291C115.951 120.812 116.324 120.401 116.775 120.089C117.25 119.774 117.774 119.538 118.325 119.39C118.909 119.234 119.51 119.153 120.115 119.15C120.712 119.153 121.306 119.234 121.883 119.39C122.435 119.533 122.959 119.77 123.432 120.089C123.878 120.407 124.25 120.817 124.524 121.291C124.812 121.796 124.955 122.371 124.938 122.952V127.804ZM123.192 129.05C123.418 128.674 123.532 128.242 123.52 127.804V122.952C123.533 122.568 123.434 122.189 123.236 121.86C123.036 121.554 122.767 121.299 122.45 121.117C122.103 120.915 121.728 120.768 121.337 120.679C120.928 120.593 120.511 120.549 120.093 120.548C119.667 120.555 119.242 120.606 118.827 120.701C118.448 120.784 118.086 120.932 117.757 121.138C117.441 121.321 117.172 121.576 116.972 121.881C116.774 122.203 116.675 122.575 116.688 122.952V127.804C116.675 128.167 116.774 128.526 116.972 128.831C117.172 129.137 117.441 129.391 117.757 129.574C118.09 129.792 118.46 129.947 118.849 130.033C119.265 130.121 119.689 130.165 120.115 130.164C120.493 130.187 120.872 130.187 121.25 130.164C121.595 130.126 121.934 130.038 122.254 129.902L121.25 128.634L122.254 127.891L123.192 129.05Z" fill="white"/>
<path d="M128.998 127.738C128.985 128.115 129.084 128.488 129.282 128.809C129.454 129.113 129.693 129.375 129.98 129.574C130.296 129.779 130.642 129.934 131.006 130.033C131.385 130.121 131.773 130.165 132.163 130.164C132.552 130.164 132.94 130.12 133.32 130.033C133.676 129.934 134.015 129.779 134.324 129.574C134.622 129.382 134.87 129.119 135.044 128.809C135.241 128.488 135.34 128.115 135.328 127.738V119.324H136.768V127.738C136.781 128.323 136.646 128.902 136.375 129.421C136.118 129.899 135.76 130.317 135.328 130.645C134.883 130.978 134.38 131.222 133.843 131.366C132.738 131.686 131.565 131.686 130.46 131.366C129.932 131.22 129.436 130.975 128.998 130.645C128.56 130.323 128.201 129.904 127.95 129.421C127.68 128.902 127.545 128.323 127.557 127.738V119.324H128.998V127.738Z" fill="white"/>
<path d="M148.708 131.432H147.202L145.805 127.564H141.134C140.916 128.197 140.675 128.831 140.435 129.487C140.195 130.142 139.977 130.798 139.759 131.432H138.253L142.618 119.324H144.342L148.708 131.432ZM145.303 126.121L144.823 124.788C144.692 124.351 144.539 123.936 144.386 123.52C144.233 123.105 144.102 122.668 143.949 122.231C143.797 121.794 143.622 121.335 143.469 120.854C143.164 121.758 142.858 122.632 142.553 123.477L141.614 126.121H145.303Z" fill="white"/>
<path d="M150.607 119.324H152.047V130.011H157.853V131.432H150.607V119.324Z" fill="white"/>
<path d="M161.215 131.432H159.796V119.324H161.215V131.432Z" fill="white"/>
<path d="M168.549 120.767V131.432H167.13V120.767H163.245V119.324H172.434V120.767H168.549Z" fill="white"/>
<path d="M177.411 131.432V126.755L173.198 119.324H174.857L178.153 125.181L181.405 119.324H183.064L178.851 126.755V131.475L177.411 131.432Z" fill="white"/>
<path d="M28.1133 62.0662H35.2726L28.2006 107.458H21.6525L17.7673 82.5L14.144 107.458H7.59583L0 62.0662H7.15928L10.7389 86.3901L14.0348 62.0662H21.2159L24.7737 86.3682L28.1133 62.0662Z" fill="white"/>
<path d="M47.8666 107.458H41.0347V62.0662H47.8666V107.458Z" fill="white"/>
<path d="M61.6615 62.0443L70.7416 92.6404V62.0443H77.5735V107.458H70.2395L60.8321 78.3695V107.458H53.9784V62.0443H61.6615Z" fill="white"/>
<path d="M83.707 107.458V62.0443H103.155V68.9066H90.5389V81.298H99.7717V88.204H90.5389V100.53H103.155V107.392L83.707 107.458Z" fill="white"/>
<path d="M115.138 68.9503H107.869V62.0662H129.216V68.9503H121.992V107.458H115.138V68.9503Z" fill="white"/>
<path d="M141.549 107.458H134.717V62.0662H141.549V107.458Z" fill="white"/>
<path d="M154.514 107.458H147.682V62.0443H157.483L163.856 94.6728L169.99 62.0443H179.397V107.458H172.565V78.9159L166.628 107.458H161.128L154.58 79.047L154.514 107.458Z" fill="white"/>
<path d="M185.53 107.458V62.0443H205V68.9066H192.362V81.298H201.595V88.204H192.362V100.53H205V107.392L185.53 107.458Z" fill="white"/>
</svg>
