<svg width="500" height="500" viewBox="0 0 500 500" fill="none" xmlns="http://www.w3.org/2000/svg">
<path d="M249.636 500C235.402 499.982 221.194 498.76 207.167 496.346L478.605 351.338C472.828 364.341 465.951 376.827 458.051 388.66L249.636 500ZM272.669 498.985L444.344 407.269C423.574 432.913 397.954 454.212 368.947 469.948C339.17 486.091 306.406 495.972 272.669 498.985ZM191.899 493.213C181.285 490.684 170.848 487.461 160.657 483.563L493.794 305.593C491.378 316.226 488.265 326.689 484.475 336.913L191.899 493.213ZM148.739 478.643C140.121 474.818 131.726 470.508 123.596 465.733L499.563 264.883C499.009 274.295 497.928 283.668 496.322 292.958L148.739 478.643ZM113.802 459.678C106.585 454.978 99.6133 449.911 92.9151 444.497L499.005 227.553C499.665 234.969 500 242.512 500 250C500 251.098 500 252.203 499.977 253.379L113.813 459.678H113.802ZM84.7285 437.581C78.6547 432.226 72.7722 426.515 67.2395 420.585L493.446 192.893C495.291 200.784 496.762 208.858 497.826 216.895L84.7285 437.581ZM60.3965 412.949C55.2921 407.007 50.407 400.763 45.8742 394.367L483.529 160.552C486.336 167.878 488.82 175.413 490.906 182.95L60.3965 412.949ZM40.247 386.082C36.0421 379.615 32.0895 372.865 28.4953 366.02L469.582 130.383C473.284 137.168 476.709 144.201 479.758 151.286L40.247 386.082ZM24.0428 357.108C20.7149 350.102 17.6905 342.86 15.0266 335.592L451.721 102.293C456.314 108.555 460.655 115.096 464.631 121.738L24.0387 357.11L24.0428 357.108ZM11.7737 326.036C9.36801 318.491 7.29834 310.735 5.62622 302.982L429.855 76.3517C435.363 82.0547 440.657 88.0875 445.596 94.2823L11.7737 326.049V326.036ZM3.64108 292.751C2.2374 284.611 1.22748 276.291 0.639366 268.019L403.609 52.7427C410.135 57.8309 416.477 63.3043 422.461 69.0114L3.63908 292.757L3.64108 292.751ZM0.0960549 257.013C0.0325306 254.66 0 252.299 0 250C0 243.443 0.256243 236.826 0.764437 230.328L372.242 31.8739C380.003 36.2363 387.528 41.0078 394.783 46.1688L0.0940538 257.021L0.0960549 257.013ZM1.97713 218.381C3.22242 208.524 5.05372 198.751 7.46227 189.112L334.23 14.5436C343.591 17.8948 352.742 21.8026 361.636 26.2465L1.97513 218.385L1.97713 218.381ZM11.1804 175.835C14.719 164.439 19.0716 153.312 24.2048 142.539L286.165 2.59454C297.986 4.30993 309.669 6.87182 321.124 10.2606L11.1774 175.837L11.1804 175.835ZM32.3545 126.892C40.99 111.671 51.1922 97.3944 62.7949 84.2944L216.394 2.23783C227.534 0.746785 238.762 -0.000866548 250.001 7.53701e-07C256.2 7.53701e-07 262.464 0.229529 268.62 0.682405L32.3605 126.898L32.3545 126.892ZM88.1344 59.4722C115.424 36.2365 147.4 19.1552 181.886 9.39156L88.1344 59.4722Z" fill="#014B7C"/>
</svg>
