<svg width="143" height="148" viewBox="0 0 143 148" fill="none" xmlns="http://www.w3.org/2000/svg">
<path d="M64.7402 143.03C50.6609 143.03 39.2891 139.917 30.6249 133.689C22.0961 127.327 17.764 118.121 17.6287 106.072C17.6287 101.876 18.3732 97.4758 19.8624 92.873C21.3516 88.2701 24.0591 84.0057 27.9851 80.0797C31.911 76.0184 37.3938 72.7016 44.4335 70.1295C39.1537 63.6313 35.6339 58.1485 33.874 53.681C32.2495 49.2136 31.4372 44.4077 31.4372 39.2633C31.4372 33.5774 32.8587 28.1623 35.7016 23.018C38.6799 17.7382 43.2151 13.4061 49.3071 10.0217C55.3991 6.63723 63.3187 4.945 73.0659 4.945C82.1362 4.945 89.582 6.43416 95.4033 9.41248C101.225 12.3908 105.489 16.3167 108.196 21.1903C110.904 25.9286 112.258 31.0052 112.258 36.4204C112.258 44.2723 109.889 51.3119 105.15 57.5393C100.412 63.7667 92.8311 68.9111 82.407 72.9724C83.8961 74.5969 85.453 76.3568 87.0775 78.2521C88.8374 80.1474 90.665 82.1104 92.5603 84.1411C95.1325 86.984 97.5016 89.6239 99.6677 92.0607C101.969 94.4975 104.135 96.7312 106.166 98.7619C107.79 95.2421 109.009 91.3161 109.821 86.984C110.633 82.6519 110.972 77.7106 110.836 72.1601L133.986 72.7693C133.986 80.4859 132.903 87.7963 130.737 94.7006C128.571 101.469 125.322 107.494 120.99 112.774C124.78 115.616 128.3 117.512 131.549 118.459C134.934 119.272 138.724 119.407 142.921 118.866L139.875 143.03C135.137 143.03 130.805 142.692 126.879 142.015C123.088 141.474 119.297 140.323 115.507 138.563C111.852 136.803 107.79 134.163 103.323 130.643C98.72 134.569 93.1695 137.615 86.6714 139.781C80.3086 141.947 72.9982 143.03 64.7402 143.03ZM60.8819 40.2786C60.8819 42.9862 61.4911 45.6938 62.7095 48.4013C64.0633 50.9735 66.8385 54.8318 71.0352 59.9761C76.4504 56.1855 80.1056 52.7334 82.0009 49.6197C84.0315 46.506 85.0469 42.9185 85.0469 38.8572C85.0469 35.3373 83.9638 32.6298 81.7978 30.7345C79.6317 28.7038 76.7888 27.6885 73.269 27.6885C69.343 27.6885 66.297 28.8392 64.131 31.1406C61.9649 33.442 60.8819 36.488 60.8819 40.2786ZM47.2764 103.432C47.2764 108.712 49.3071 112.909 53.3684 116.023C57.5651 119.001 62.9126 120.49 69.4107 120.49C72.9305 120.49 76.1796 120.152 79.1579 119.475C82.2716 118.798 85.1822 117.85 87.8898 116.632C84.37 113.112 80.3086 108.983 75.7058 104.245C72.186 100.454 68.8692 97.002 65.7555 93.8883C62.7772 90.6392 60.0019 87.6609 57.4298 84.9533C53.5038 87.7963 50.7962 90.6392 49.3071 93.4822C47.9533 96.1897 47.2764 99.5065 47.2764 103.432Z" fill="#222222"/>
<path d="M16.0499 135.288L16.0641 135.298L16.0785 135.309C25.1754 141.847 36.993 145.025 51.3576 145.025C59.7843 145.025 67.3174 143.92 73.9272 141.671C80.0594 139.626 85.4182 136.806 89.976 133.195C94.0293 136.292 97.7918 138.69 101.259 140.36L101.272 140.366L101.285 140.372C105.226 142.202 109.194 143.412 113.185 143.985C117.234 144.681 121.672 145.025 126.492 145.025H128.251L128.471 143.28L131.517 119.115L131.839 116.558L129.283 116.888C125.297 117.402 121.772 117.267 118.679 116.532C116.195 115.8 113.458 114.434 110.463 112.372C114.309 107.3 117.238 101.608 119.254 95.3084L119.257 95.2976C121.488 88.1877 122.598 80.675 122.598 72.7694V70.827L120.656 70.7759L97.5062 70.1667L95.409 70.1115L95.4602 72.2089C95.593 77.654 95.2593 82.4516 94.4784 86.6166C93.8962 89.7218 93.1017 92.5932 92.1002 95.2356C90.7116 93.8171 89.2635 92.3098 87.7555 90.7134C85.5904 88.2778 83.2241 85.641 80.6565 82.8033L80.6462 82.7918L80.6356 82.7805C78.7511 80.7614 76.9336 78.8093 75.1833 76.9243C74.2364 75.82 73.3115 74.7604 72.4086 73.7454C81.709 69.7728 88.7481 64.8017 93.3549 58.7469C98.3583 52.1711 100.869 44.707 100.869 36.4205C100.869 30.6595 99.4257 25.2456 96.5513 20.2115C93.62 14.9406 89.0361 10.7618 82.929 7.63726C76.7392 4.47039 68.954 2.95092 59.6833 2.95092C49.7252 2.95092 41.439 4.67688 34.9561 8.27854L35.9245 10.0218L34.9561 8.27854C28.5915 11.8144 23.767 16.3924 20.5822 22.0383L20.5779 22.0459L20.5737 22.0535C17.5733 27.4828 16.0605 33.2285 16.0605 39.2634C16.0605 44.621 16.9071 49.6595 18.6173 54.3627L18.6263 54.3875L18.636 54.4121C20.3006 58.6375 23.3889 63.5919 27.8032 69.2526C21.7641 71.7472 16.8642 74.8751 13.1805 78.6816C9.07085 82.7944 6.18068 87.3193 4.58247 92.2592C3.03876 97.0307 2.25191 101.638 2.25191 106.072V106.084L2.25203 106.095C2.39334 118.671 6.95219 128.501 16.0499 135.288ZM66.9479 48.5305L66.931 48.5564L66.9149 48.5829C65.4002 51.0714 62.4977 53.9693 58.0204 57.2592C54.532 52.9036 52.2608 49.6759 51.1202 47.5267C50.0234 45.0708 49.4935 42.6597 49.4935 40.2787C49.4935 36.8887 50.4499 34.3675 52.2006 32.5075C53.9022 30.6995 56.368 29.6828 59.8864 29.6828C62.9996 29.6828 65.3219 30.5681 67.0513 32.1894L67.0763 32.2128L67.102 32.2354C68.7404 33.669 69.6701 35.7731 69.6701 38.8573C69.6701 42.569 68.7478 45.7706 66.9479 48.5305ZM65.3517 117.526L65.3426 117.528L65.3334 117.53C62.5201 118.17 59.4213 118.496 56.0281 118.496C49.8507 118.496 44.9462 117.087 41.17 114.418C37.6384 111.698 35.888 108.102 35.888 103.433C35.888 99.7363 36.5247 96.7493 37.6998 94.391C38.8276 92.2458 40.825 89.9796 43.8246 87.6187C46.0388 89.9645 48.3982 92.5035 50.9029 95.2359L50.9322 95.2679L50.9628 95.2985C54.0564 98.3921 57.356 101.826 60.8619 105.602L60.8772 105.618L60.8928 105.634C64.6037 109.454 67.9649 112.881 70.9759 115.913C69.1913 116.561 67.317 117.099 65.3517 117.526Z" fill="white" stroke="black" stroke-width="3.98837"/>
</svg>
