<svg width="148" height="40" viewBox="0 0 148 40" fill="none" xmlns="http://www.w3.org/2000/svg">
<path d="M16.3839 0C7.44724 0 0 7.19101 0 16.0899C0 24.9438 7.44724 32.1798 16.3839 32.1798C25.3206 32.1798 32.7679 24.9438 32.7679 16.0899C32.7679 7.19101 25.3206 0 16.3839 0ZM20.9877 31.1011C13.4502 33.3933 6.77022 27.6854 4.33294 19.7303C1.89566 11.8202 4.24267 3.37079 11.7802 1.07865C19.3177 -1.21348 25.9976 4.49438 28.4349 12.4045C30.8722 20.3596 28.5252 28.809 20.9877 31.1011Z" fill="white"/>
<path d="M47.0364 10.2921C42.2522 10.2921 40.9884 16.8989 40.537 22.3371V10.2921H40.176L35.9333 11.2809C35.9333 11.2809 35.9333 11.5056 35.9333 11.5955C36.836 11.7303 36.9714 12.1798 36.9714 13.7528V28.9438C36.9714 30.5169 36.6554 31.191 35.9333 31.5955C35.9333 31.6854 35.9333 31.9101 35.9333 31.9101H41.53C41.53 31.9101 41.53 31.6854 41.53 31.5955C40.853 31.191 40.537 30.5169 40.537 28.9438V27.191C40.537 23.3708 41.1238 11.7753 45.547 11.1011C47.9843 10.7416 49.2481 14.0674 49.3383 16.6292L49.6543 16.809L52.4075 12.9438C50.8729 11.1461 49.4737 10.2921 47.0364 10.2921Z" fill="white"/>
<path d="M71.1818 31.5955C70.5048 31.191 70.1888 30.5169 70.1888 28.9438V17.7978C70.1888 12.2697 66.217 10.2921 62.4708 10.2921C56.4227 10.2921 55.0235 15.8652 56.197 18.4719C52.7217 19.9101 49.9684 22.6067 50.7357 27.191C51.3225 30.427 54.9333 32.1798 58.6343 32.1798C62.9673 32.1798 65.4497 29.573 66.6232 25.618V31.9101H71.1818C71.1818 31.9101 71.1818 31.6854 71.1818 31.5955ZM62.0646 10.7416C65.2691 10.7416 66.6232 13.7528 66.6232 17.1685V17.4831C65.8559 17.2584 64.9532 17.0787 63.9151 17.0787C61.7938 17.0787 59.0857 17.3933 56.6484 18.2921C55.2943 14.6517 58.0024 10.7416 62.0646 10.7416ZM59.7176 31.5955C57.4608 31.7303 54.843 30.2472 54.2562 27.8202C52.3154 19.9101 58.9954 17.4831 63.9151 17.4831C65.3143 17.4831 66.3975 17.7978 66.6232 17.8876V24.809C65.7205 28.0449 63.6443 31.3708 59.7176 31.5955Z" fill="white"/>
<path d="M95.3571 28.9438C95.1766 27.2809 94.7252 22.5618 94.2739 18.2022C93.7323 12.809 90.5728 10.2921 86.8718 10.2921C81.0042 10.2921 79.4697 16.4045 78.8829 21.4382V10.2921H78.567L74.3243 11.2809C74.3243 11.2809 74.3243 11.5056 74.3243 11.5955C75.1819 11.7303 75.3173 12.1798 75.3173 13.7528V28.9438C75.3173 30.5169 75.0013 31.191 74.3243 31.5955C74.3243 31.6854 74.3243 31.9101 74.3243 31.9101H79.921C79.921 31.9101 79.921 31.6854 79.921 31.5955C79.1989 31.191 78.8829 30.5169 78.8829 28.9438V25.2584C78.8829 21.4831 79.8307 12.0899 84.8858 11.1011C88.7674 10.3371 90.4374 14.1573 90.7534 17.5281C90.979 19.8652 91.6561 27.4607 91.7915 28.9438C91.9269 30.427 91.7463 31.191 91.0242 31.5955C91.0242 31.6854 91.0242 31.9101 91.0242 31.9101H96.6209C96.6209 31.9101 96.6209 31.6854 96.6209 31.5955C95.9439 31.191 95.5376 30.5618 95.3571 28.9438Z" fill="white"/>
<path d="M122.255 30.6966C119.953 30.7865 117.155 33.1236 113.815 35.1011C110.926 36.8539 108.308 38.6067 106.006 38.5618C104.336 38.5618 103.569 37.4831 103.479 36C103.253 33.3034 106.729 32.2697 109.708 32.1348C109.888 32.1798 110.023 32.1798 110.159 32.1798C116.252 32.1798 122.436 27.4607 122.436 20.2697C122.436 16.1798 120.179 13.1685 116.929 11.5955L124.196 11.2809L123.925 9.03371L116.207 11.2809C114.672 10.6517 112.957 10.2921 111.152 10.2921C105.104 10.2921 98.8752 14.7865 98.8752 22.2022C98.8752 27.9101 103.163 31.4157 108.444 32.0449C105.284 32.3596 100.951 33.8427 101.042 36.5843C101.087 38.6517 102.892 39.5056 105.284 39.3258C107.406 39.191 109.662 38.0225 111.739 36.764C112.822 38.2472 114.402 40 117.651 40C121.488 40 126.001 37.7079 126.001 34.1573C126.001 32.1798 124.963 30.6517 122.255 30.6966ZM102.712 23.6404C101.132 18.2022 102.531 12.5843 107.676 11.1011C112.822 9.61798 117.064 13.4382 118.644 18.8315C120.224 24.2697 118.78 29.8876 113.679 31.3708C108.534 32.8989 104.291 29.0337 102.712 23.6404ZM123.248 34.9213C123.067 37.8876 121.127 39.7303 117.651 39.6854C114.311 39.6404 112.912 37.7978 112.055 36.5393C112.732 36.1348 113.409 35.7303 114.086 35.3258C116.703 33.7079 119.592 31.7753 120.991 31.5955C122.797 31.3258 123.338 32.8539 123.248 34.9213Z" fill="white"/>
<path d="M143.404 17.3933H144.397C144.397 17.3933 147.196 17.3933 147.602 17.3933C146.97 11.9551 141.689 10.1124 137.853 10.2921C132.888 10.5618 125.802 13.9326 126.028 21.7079C126.208 29.1236 132.211 32.1798 138.44 32.1798C144.849 32.1798 147.692 27.9551 147.963 24.764C148.324 20.6742 145.977 18.0674 143.404 17.3933ZM135.822 10.8315C140.245 9.97753 143.766 13.1236 144.352 17.0337H129.954C130.767 13.9775 132.753 11.4157 135.822 10.8315ZM147.557 24.8539C147.106 28.3596 143.72 31.0112 139.839 31.191C135.235 31.3708 131.85 29.3034 130.18 24.5843C129.413 22.427 129.277 19.7753 129.864 17.3933H141.554C144.984 17.3933 148.099 20.1798 147.557 24.8539Z" fill="white"/>
</svg>
