<?xml version="1.0" encoding="UTF-8"?>
<svg width="1920px" height="766px" viewBox="0 0 1920 766" version="1.1" xmlns="http://www.w3.org/2000/svg" xmlns:xlink="http://www.w3.org/1999/xlink">
    <!-- Generator: Sketch 63.1 (92452) - https://sketch.com -->
    <title>Group 9</title>
    <desc>Created with Sketch.</desc>
    <g id="Layout" stroke="none" stroke-width="1" fill="none" fill-rule="evenodd">
        <g id="Moon-About">
            <g id="Group-9" transform="translate(-1.000000, 0.000000)">
                <rect id="Rectangle" fill="#000000" x="0" y="0" width="1921" height="766"></rect>
                <g id="waves-/-grey" fill="#4B4C5A" fill-opacity="0.59" opacity="0.6">
                    <g id="vwawes-grey" transform="translate(960.000000, 350.000000) scale(-1, 1) translate(-960.000000, -350.000000) ">
                        <path d="M1920,211.649215 C1905.47373,217.037647 1889.99287,221.627794 1874.59502,226.21794 C1856.99747,231.307015 1839.85647,236.196519 1823.79456,241.784523 C1804.40496,248.383617 1784.60993,254.18975 1764.48585,259.180512 L1761.12406,260.01206 C1747.01282,263.338253 1731.44895,266.331827 1716.38313,269.159091 C1710.15758,270.323259 1703.93204,271.487426 1697.7895,272.684856 C1631.38734,285.442861 1566.85125,303.783118 1505.2541,327.40073 C1496.1233,330.993018 1487.20002,334.951188 1478.60876,338.77631 C1454.24613,349.619699 1431.25311,359.831111 1401.20447,363.689495 C1355.75798,369.543595 1315.83148,362.492066 1273.58077,355.074655 C1257.26984,352.214129 1240.37786,349.220556 1223.02933,347.025268 C1209.49915,345.32891 1197.5461,344.231266 1186.54763,343.699075 C1116.94602,340.372882 1064.60993,356.637966 1011.48527,397.882759 C1007.3349,401.208952 1002.81101,404.535145 998.453125,407.229361 C935.658114,448.740249 901.210091,435.235906 859.166901,395.32159 C830.114351,367.647665 782.385162,341.902931 744.367826,360.463088 C711.164912,376.661648 707.014548,414.646771 709.712285,443.617912 L710.168825,448.906559 C711.656608,461.264265 712.058801,473.690493 711.37243,486.093396 C709.753788,504.021576 703.984782,517.226563 693.235339,527.670808 C681.116275,539.445532 662.605651,546.99599 644.717581,554.280352 C638.32602,556.874783 631.685437,559.568999 625.584402,562.396263 C614.585936,567.485338 601.097253,574.736439 594.622684,585.978971 C588.729167,596.190384 589.891269,606.135701 591.177882,616.64647 C592.662127,624.979367 592.592189,633.442816 590.970364,641.759227 C589.731026,646.861308 587.504474,651.776845 584.371285,656.327952 C563.619463,686.662832 507.423532,708.34961 457.121117,692.250836 C419.186788,680.143494 390.715289,655.895547 362.866345,632.379363 C351.203822,622.400784 339.167766,612.422205 326.841184,603.474746 C290.525497,577.330869 258.858218,560.733167 232.752426,554.080781 C215.071875,549.59042 200.794622,549.75673 189.090595,554.612971 C176.141458,560.001404 172.032598,570.478912 168.048248,580.657062 C161.407665,597.620647 155.182119,613.686159 109.237587,606.933987 C62.2969672,600.048767 29.9241262,567.618386 15.2733404,539.578579 C7.37662049,524.308019 2.23387142,508.213963 0,491.781186 L0,505.884245 C2.72612833,517.776546 7.01090519,529.405028 12.7831219,540.576437 C27.6829295,569.148435 60.7198288,602.177531 108.698039,609.195798 C156.67625,616.214065 163.85638,598.585243 170.538467,581.455349 C174.688831,571.277198 178.258144,561.498191 190.252697,556.675211 C201.292666,552.085065 214.947364,551.952017 231.756339,556.276068 C257.530101,562.928454 288.865351,579.293323 324.890513,605.204367 C337.341605,614.018778 348.589092,623.731261 360.74966,634.009198 C388.640107,657.625168 417.485139,682.039424 455.959015,694.346338 C507.548043,710.977303 565.072091,688.592024 586.48797,657.458858 C589.756422,652.721561 592.081004,647.604003 593.377575,642.291418 C595.058768,633.778753 595.142703,625.112501 593.626597,616.579946 C592.422991,606.368534 591.260889,596.622789 596.863881,587.010091 C601.678304,578.661347 610.892112,571.676341 626.746504,564.358717 C632.806035,561.564715 639.197596,558.870498 645.755172,556.276068 C663.892263,548.89192 682.65191,541.274938 695.144506,529.134333 C706.225979,518.357468 712.202503,504.753339 713.862649,486.359492 C714.562756,473.845883 714.160556,461.308282 712.659043,448.840035 L712.202503,443.58465 C709.753788,415.178962 713.53062,378.025387 745.405417,362.359018 C782.01163,344.4641 828.412702,369.743166 856.842697,396.785115 C899.798967,437.530979 935.326085,451.50099 999.947256,408.92572 C1004.34664,406.031932 1008.74603,402.838786 1013.14541,399.479332 C1065.68903,358.700206 1117.44407,342.667956 1186.2156,345.894363 C1197.17256,346.393292 1209.0011,347.490935 1222.44828,349.220556 C1239.7138,351.415843 1256.52277,354.376155 1272.8337,357.236681 C1315.33343,364.720615 1355.50896,371.772144 1401.495,365.884783 C1431.95867,361.959875 1456.2383,351.18301 1479.77087,340.738764 C1488.32062,336.946904 1497.2024,332.988734 1506.29169,329.429708 C1567.7155,305.880101 1632.07108,287.595495 1698.28754,274.880143 C1704.43008,273.682713 1710.73864,272.518546 1716.83967,271.354378 C1731.947,268.527114 1747.59387,265.633327 1761.74661,262.174086 L1765.14991,261.342538 C1785.33074,256.319229 1805.18109,250.47982 1824.62463,243.846763 C1840.60353,238.425068 1857.82754,233.435779 1875.30058,228.346703 C1890.3664,223.989391 1905.51523,219.365982 1919.79248,214.143859 L1920,211.649215 Z" id="Path" fill-rule="nonzero"></path>
                        <path d="M1919.41912,199.781252 C1897.92674,213.779696 1869.96175,222.537016 1846.39481,227.844483 C1828.42917,231.891426 1810.46353,234.876877 1795.02885,237.364752 C1780.58995,239.686768 1766.77342,241.345352 1752.12707,243.10345 C1745.40551,243.89957 1738.55948,244.728862 1731.38152,245.657669 L1727.97925,246.0889 C1708.31248,248.609947 1687.44246,251.363195 1667.36078,254.813049 C1598.48558,266.622163 1531.51896,288.482292 1487.16499,303.873945 C1480.52642,306.16279 1474.01232,308.55115 1467.49822,310.906339 C1441.35883,320.393436 1416.67164,329.382958 1386.96402,333.79479 C1341.98768,340.429123 1302.40519,334.226021 1260.54068,327.558516 C1242.741,324.738924 1224.36045,321.819818 1205.31605,319.929032 C1192.92807,318.649522 1180.46247,317.9076 1167.97407,317.706531 C1097.77115,316.810896 1045.07747,336.116806 991.844408,382.225424 C987.6953,385.973823 983.214263,389.390505 979.065154,392.375955 C953.797083,410.719887 931.101459,418.714259 909.650567,416.723959 C885.046353,414.501457 861.147488,399.109803 834.385737,368.293324 C806.711183,336.415351 759.701783,305.5657 718.625608,323.644259 C679.084603,340.893526 681.905997,388.229496 684.976337,407.767608 C685.363587,410.354999 685.778498,412.953446 686.22107,415.56295 C688.460745,427.46021 689.749581,439.45951 690.079741,451.487866 C690.079741,470.196687 685.183793,484.128787 674.811021,495.307639 C663.400972,507.547985 645.435332,515.741387 628.050567,523.636244 C621.163047,526.787552 614.02658,530.005204 607.553971,533.587744 C596.517342,539.425957 583.157212,547.785218 577.597407,560.75534 C572.535494,572.531282 575.356888,583.975507 578.344246,596.116337 C581.17227,605.255104 582.277057,614.680329 581.622042,624.080053 C580.945014,629.484196 579.120954,634.756569 576.228201,639.670737 C556.353971,673.33998 493.246029,689.428239 446.236629,673.107778 C405.741329,658.910304 376.531605,631.012932 348.317666,604.077538 C339.023663,595.187531 329.35624,585.998979 319.605835,577.540204 C300.105024,560.75534 262.016207,531.099869 225.835981,521.148369 C208.202269,516.272133 193.223987,516.836052 181.399028,522.840124 C168.370827,529.474457 165.093031,541.913832 161.939708,553.955148 C156.587358,574.355723 151.525446,593.595291 102.77342,588.055622 C65.4314425,583.809649 31.3672609,559.461645 15.6421394,526.024604 C-9.25251216,472.684562 11.4930308,418.74743 29.6246353,371.146087 C35.1429498,356.616897 40.3293355,343.34823 44.3124797,330.079563 C47.4390075,320.565249 49.6445541,310.872587 50.9095624,301.087525 C57.1747164,238.92382 46.7604538,191.057104 18.7539708,154.734127 C13.0795743,147.427324 6.81494587,140.424286 0,133.769634 L0,137.0868 C5.99217314,143.04236 11.534181,149.278675 16.5964344,155.762449 C44.2294976,191.687365 54.602269,239.12285 48.3786062,300.822152 C47.1425509,310.496463 44.9645795,320.078962 41.8645057,329.482473 C37.7153971,342.75114 32.7364668,356.019807 27.3011345,370.217281 C8.87909238,418.117169 -11.9494327,472.419189 13.3601297,526.455835 C29.3756888,560.589481 64.3526742,585.468232 102.524473,589.813721 C153.724473,595.651934 159.284279,574.521582 164.761102,554.054663 C167.955916,541.913832 170.943274,530.436435 183.058671,524.200162 C194.344246,518.461463 207.953323,517.99706 225.213614,522.740609 C261.974716,533.189684 302.096596,565.598403 317.655754,578.86707 C327.406159,587.259502 336.9906,596.448054 346.284603,605.404404 C374.705997,632.538829 404.123177,660.635231 445.157861,675.064907 C493.329011,691.949285 558.179579,675.064907 578.634684,640.599544 C581.658963,635.466063 583.567194,629.958165 584.277472,624.312255 C584.962564,614.712864 583.8437,605.085599 580.958185,595.751449 C578.053809,583.909164 575.315397,572.730312 580.128363,561.485116 C584.277472,551.832161 593.198055,543.804618 609.172123,535.412186 C615.603241,532.095019 622.698217,528.777852 629.544246,525.692887 C647.177958,517.665343 665.392545,509.372427 677.093031,496.767193 C687.797731,485.190281 692.818152,470.86012 692.901135,451.686896 C692.564016,439.569476 691.261322,427.481548 689.000972,415.496607 C688.586062,412.887102 688.171151,410.288655 687.75624,407.701265 C684.768882,388.594385 681.947488,342.319908 720.077796,325.667731 C759.701783,308.285777 805.341977,338.505166 832.394165,369.686534 C859.446353,400.867902 884.092058,416.690787 909.526094,419.012804 C931.765316,421.036276 955.166288,412.876045 981.015235,394.100881 C985.164344,391.08226 989.520908,387.466548 993.918963,383.817664 C1046.61264,338.206621 1098.72545,319.132912 1168.18152,319.995376 C1180.66933,320.182635 1193.13512,320.913493 1205.5235,322.184706 C1224.44344,324.075491 1242.86548,326.994598 1260.54068,329.814189 C1302.65413,336.448523 1342.48558,342.817483 1387.95981,336.050463 C1417.95786,331.572288 1443.97277,322.151534 1469.11637,312.996154 C1475.63047,310.640966 1482.14457,308.252605 1488.74165,305.96376 C1533.01264,290.605278 1599.7718,268.778321 1668.43955,257.035551 C1688.43825,253.718384 1709.26677,250.86562 1728.93355,248.344574 L1732.33582,247.913342 C1739.3893,247.017707 1746.23533,246.188415 1753.08136,245.359124 C1767.76921,243.601025 1781.62723,242.041957 1796.10762,239.587253 C1811.58379,237.099378 1829.59092,234.080757 1847.68104,230.033813 C1870.91605,224.79269 1898.38314,216.267571 1920,202.667187 L1919.41912,199.781252 Z" id="Path" fill-rule="nonzero"></path>
                        <path d="M1898.87967,29.2604367 C1903.78916,19.6141758 1910.95837,10.8105136 1920,3.32504963 L1920,-5.20816665e-14 C1909.86657,8.1030803 1901.85383,17.7457412 1896.43154,28.3626733 C1885.3112,52.0702772 1893.73444,77.6066583 1901.86722,102.278527 C1909.54357,125.553874 1917.51037,149.726985 1908.92116,172.104569 C1896.76349,204.025045 1855.76763,221.481556 1820.87137,227.300393 L1819.37759,227.533146 C1791.78423,231.922212 1763.07054,231.290452 1735.26971,230.858196 C1723.56846,230.625442 1711.45228,230.359438 1699.58506,230.45919 C1626.18257,231.190701 1562.36515,250.808493 1500.41494,269.761276 C1460,282.163711 1418.25726,294.998403 1373.69295,302.712518 L1372.40664,302.945272 C1328.29876,310.326882 1289.41909,304.707548 1247.92531,298.722459 C1228.79668,295.962667 1209.00415,293.103125 1188.42324,291.573602 C1097.3444,284.923503 1034.89627,306.270321 972.655602,365.622457 C946.473029,390.660081 920.6639,402.497257 895.93361,400.867983 C866.887967,398.939454 838.672199,379.088908 810.124481,340.219078 C783.692946,304.242041 737.261411,268.331505 693.40249,285.555262 C649.543568,302.779019 657.302905,355.381304 660.705394,371.075538 C661.369295,374.134584 662.074689,377.260131 662.821577,380.385677 C669.460581,409.313609 676.307054,439.205805 656.846473,462.547654 C646.182573,475.282594 628.755187,484.093975 611.908714,492.4731 C588.962656,504.044273 567.302905,514.950436 560.995851,535.033736 C556.846473,548.533437 561.452282,562.232642 566.016598,575.49959 C570.095649,585.427154 572.359792,595.77562 572.738589,606.223048 C572.19917,623.712809 560.290456,639.074538 539.253112,649.448693 C509.3361,664.112162 466.763485,666.073941 435.518672,654.103763 C392.116183,637.478515 362.365145,605.092531 333.609959,573.803814 C326.721992,566.322453 319.626556,558.575087 312.448133,551.226727 C304.149378,542.847602 237.759336,476.479612 189.253112,484.725735 C183.649056,485.670835 178.376892,487.601514 173.817427,490.378319 C160.705394,498.258687 158.257261,512.622901 155.892116,526.488358 C151.742739,550.328964 148.008299,572.83955 96.3485477,568.782989 C61.1618257,566.023198 28.9211618,543.113606 16.1410788,511.791639 C-5.60165975,458.590845 23.526971,407.717585 51.659751,358.606602 C57.5103734,348.3987 63.5684647,337.825042 68.9211618,327.61714 C89.6680498,287.949298 117.46888,212.902928 70.9543568,155.745325 C57.0124481,138.621319 37.7593361,124.822363 18.7966805,111.488914 C12.5311203,107.033348 6.34854772,102.544531 0,97.8562105 L0,100.782254 C5.64315353,105.005067 11.4107884,109.094878 17.0539419,113.118188 C35.7261411,126.418387 55.0207469,140.05109 68.7551867,156.942342 C114.39834,213.268683 87.0124481,287.583542 66.5145228,326.852378 C61.2033195,337.02703 55.4356846,347.101931 49.2946058,357.77534 C20.9128631,407.252078 -8.38174274,458.391342 13.6514523,512.489899 C27.1784232,544.643129 60.3319502,568.117979 96.4315353,570.977522 C150.373444,575.233586 154.771784,550.661469 158.672199,526.887364 C161.078838,512.822404 163.360996,499.522206 175.560166,492.173846 C213.443983,469.430506 278.215768,519.539004 310.497925,552.75625 C317.634855,560.10461 324.73029,567.818725 331.618257,575.300087 C360.6639,606.788307 390.497925,639.340542 434.522822,656.265045 C466.390041,668.501228 510,666.539448 540.622407,651.510224 C562.489627,640.770314 574.854772,624.909827 575.394191,606.555553 C575.034786,595.894722 572.74247,585.332444 568.589212,575.200335 C563.941909,561.600882 559.502075,548.766191 563.568465,535.798497 C569.626556,516.54646 590.829876,505.87305 613.360996,494.501381 C630.456432,485.889502 648.13278,476.978369 659.004149,463.844423 C679.087137,439.804314 672.116183,409.446611 665.394191,380.119673 C664.688797,376.994127 663.983402,373.901831 663.278008,370.842785 C659.917012,355.514306 652.282158,304.341792 694.522822,287.716544 C736.763485,271.091296 781.950207,306.336822 807.80083,341.549098 C836.846473,381.050687 865.560166,401.233739 895.684647,403.228768 C921.327801,404.924544 947.883817,392.821363 974.522822,367.251731 C1036.76349,307.733343 1096.59751,287.184536 1187.92531,294.10064 C1208.38174,295.630162 1228.13278,298.456455 1247.21992,301.216246 C1288.71369,307.201335 1328.0083,312.88717 1372.61411,305.405808 L1373.90041,305.173055 C1418.63071,297.45894 1460.49793,284.590998 1500.99585,272.155312 C1562.53112,253.26903 1626.14108,233.717738 1699.08714,232.986227 C1710.91286,232.986227 1722.98755,232.986227 1734.6888,233.385233 C1762.61411,233.983742 1791.53527,234.582251 1819.37759,230.060184 C1855.18672,224.341098 1898.21577,206.419081 1910.95436,173.135334 C1919.75104,150.05949 1911.70124,125.653625 1903.90041,102.012523 C1896.34855,77.5069068 1888.04979,52.3362811 1898.87967,29.2604367 Z" id="Path" fill-rule="nonzero"></path>
                    </g>
                </g>
            </g>
        </g>
    </g>
</svg>