<svg id="nc_icon" xmlns="http://www.w3.org/2000/svg" xml:space="preserve" viewBox="0 0 24 24"><g fill="currentColor" class="nc-icon-wrapper"><path d="M10 12c-2.761 0-5-3.239-5-6V5a5 5 0 0 1 10 0v1c0 2.761-2.239 6-5 6zM13 21.997c0-.8.312-1.552.877-2.12l4.098-4.097a2.936 2.936 0 0 0-1.001-.587C15.329 14.638 12.824 14 10 14s-5.329.638-6.974 1.193A2.99 2.99 0 0 0 1 18.032V22h12v-.003z"/><path d="m21.083 15.5-5.79 5.79a1 1 0 0 0-.293.707v2h2a1 1 0 0 0 .707-.293l5.79-5.79a1.706 1.706 0 1 0-2.414-2.414z" data-color="color-2"/></g></svg>
