<svg id="nc_icon" xmlns="http://www.w3.org/2000/svg" xml:space="preserve" viewBox="0 0 24 24"><g fill="currentColor" class="nc-icon-wrapper"><path d="M9 12c-2.761 0-5-3.239-5-6V5a5 5 0 0 1 10 0v1c0 2.761-2.239 6-5 6zM12 18c0-2.359 2-3 2-3s-2.016-1-5-1c-2.824 0-5.329.638-6.974 1.193A2.99 2.99 0 0 0 0 18.032V22h12v-4z"/><path d="M23 17h-1v-2c0-1.654-1.346-3-3-3s-3 1.346-3 3v2h-1a1 1 0 0 0-1 1v5a1 1 0 0 0 1 1h8a1 1 0 0 0 1-1v-5a1 1 0 0 0-1-1zm-5-2c0-.551.449-1 1-1s1 .449 1 1v2h-2v-2z" data-color="color-2"/></g></svg>
