<svg id="nc_icon" xmlns="http://www.w3.org/2000/svg" xml:space="preserve" viewBox="0 0 24 24"><g fill="currentColor" class="nc-icon-wrapper"><path d="M10 12c-2.761 0-5-3.239-5-6V5a5 5 0 0 1 10 0v1c0 2.761-2.239 6-5 6zM12 19c0-2.206 1.794-4 4-4 .177 0 .352.026.528.05C14.893 14.534 12.584 14 10 14c-2.824 0-5.329.638-6.974 1.193A2.99 2.99 0 0 0 1 18.032V22h12.382A3.975 3.975 0 0 1 12 19z"/><path d="M21 20c-.35 0-.674.098-.961.257l-2.042-1.225c0-.011.003-.021.003-.032s-.003-.021-.003-.032l2.042-1.225c.287.159.611.257.961.257 1.103 0 2-.897 2-2s-.897-2-2-2-2 .897-2 2c0 .011.003.021.003.032l-2.042 1.225A1.973 1.973 0 0 0 16 17c-1.103 0-2 .897-2 2s.897 2 2 2c.35 0 .674-.098.961-.257l2.042 1.225c0 .011-.003.021-.003.032 0 1.103.897 2 2 2s2-.897 2-2-.897-2-2-2z" data-color="color-2"/></g></svg>
