<svg id="nc_icon" xmlns="http://www.w3.org/2000/svg" xml:space="preserve" viewBox="0 0 24 24"><g fill="currentColor" class="nc-icon-wrapper"><path d="M12 0C9.542 0 7 1.802 7 4.817c0 2.716 3.869 6.486 4.31 6.907l.69.658.69-.659c.441-.42 4.31-4.19 4.31-6.906C17 1.802 14.458 0 12 0zm0 7a2 2 0 1 1 0-4 2 2 0 0 1 0 4z" data-color="color-2"/><path d="M9.884 19.499C9.023 18.815 7.563 18 5.5 18s-3.523.815-4.383 1.498A2.961 2.961 0 0 0 0 21.836V24h11v-2.164a2.96 2.96 0 0 0-1.116-2.337z"/><circle cx="5.5" cy="13.5" r="3.5"/><path d="M22.884 19.499C22.023 18.815 20.563 18 18.5 18s-3.523.815-4.383 1.498A2.961 2.961 0 0 0 13 21.836V24h11v-2.164a2.96 2.96 0 0 0-1.116-2.337z"/><circle cx="18.5" cy="13.5" r="3.5"/></g></svg>
