<svg id="nc_icon" xmlns="http://www.w3.org/2000/svg" xml:space="preserve" viewBox="0 0 24 24"><g fill="currentColor" class="nc-icon-wrapper"><path d="M19 5h-3v-.823C16 2.089 14.477.221 12.399.019A4.005 4.005 0 0 0 8 4v1H5a3 3 0 0 0-3 3v6a1 1 0 0 0 1 1h18a1 1 0 0 0 1-1V8a3 3 0 0 0-3-3zm-9-1c0-1.103.897-2 2-2s2 .897 2 2v1h-4V4zM2 24H1a1 1 0 0 1-1-1v-4a1 1 0 0 1 1-1h1v6zM22 24h1a1 1 0 0 0 1-1v-4a1 1 0 0 0-1-1h-1v6z"/><path d="M4 23a1 1 0 0 0 1 1h14a1 1 0 0 0 1-1v-6H4v6z" data-color="color-2"/></g></svg>
