<svg id="nc_icon" xmlns="http://www.w3.org/2000/svg" xml:space="preserve" viewBox="0 0 24 24"><path fill="currentColor" d="M12 0C5.4 0 0 5.4 0 12s5.4 12 12 12 12-5.4 12-12S18.6 0 12 0zm6.1 13c.2 1.8.9 3.5 1.9 5-.4.5-.9 1-1.4 1.5-1.5-1.9-2.4-4.1-2.6-6.5h-3v8.9c-.3 0-.7.1-1 .1s-.7 0-1-.1V13H8c-.2 2.4-1.1 4.6-2.6 6.5-.5-.5-1-1-1.4-1.5 1.1-1.5 1.8-3.2 1.9-5H2.1c-.1-.3-.1-.7-.1-1s0-.7.1-1H6c-.2-1.8-.9-3.5-2-5 .4-.5.9-1 1.4-1.5C6.9 6.4 7.8 8.6 8 11h3V2.1c.3-.1.7-.1 1-.1s.7 0 1 .1V11h3c.2-2.4 1.1-4.6 2.6-6.5.5.5 1 1 1.4 1.5-1.1 1.5-1.8 3.2-1.9 5H22c0 .3.1.7.1 1s0 .7-.1 1h-3.9z" class="nc-icon-wrapper"/></svg>
