<svg id="nc_icon" xmlns="http://www.w3.org/2000/svg" xml:space="preserve" viewBox="0 0 24 24"><g fill="currentColor" class="nc-icon-wrapper"><path d="M12.2 11.6c2.3 1 4.5 1.6 6.4 1.6 1.1 0 1.8-.2 2.2-.3h.1c.3-.1.6-.1.9-.1.4 0 .8.1 1.1.2.1-.2.2-.3.2-.5.6-1.7 0-3.2-.9-4-.6-.6-1.4-.7-2.1-.3l-.1.1c-1 .5-4 2.1-10 1-.5-.3-1.1-.4-1.7-.6.8 1.2 1.9 2 3.9 2.9z" data-color="color-2"/><path d="M23.4 15.6c-.5-.7-1.2-1-2-.8h-.1c-1.1.3-4.4 1.1-9.9-1.4-5.6-2.5-6-5.2-6.4-11.2 0-.2-.2-.5-.4-.7-.2-.1-.5-.2-.7-.2l-2.5.3c-.5.1-.9.5-.9 1l.1 3.5C.4 7-.5 10.8.4 14.5c1.2 5.2 7.3 8.1 12.6 8.2h.8c4.6 0 8.3-1.2 9.5-3 1-1.5.8-3.2.1-4.1z"/></g></svg>
