<svg id="nc_icon" xmlns="http://www.w3.org/2000/svg" xml:space="preserve" viewBox="0 0 24 24"><g fill="currentColor" class="nc-icon-wrapper"><path d="M20.429 4.945a9.063 9.063 0 0 0-1.974 2.164l.887.444-.895 1.789-.885-.443A8.908 8.908 0 0 0 17.06 11H18v2h-.941c.081.731.257 1.433.503 2.1l.885-.442.895 1.79-.887.443a9.063 9.063 0 0 0 1.974 2.164C22.03 17.143 23 14.684 23 12s-.969-5.143-2.571-7.055z" data-color="color-2"/><path d="m16.663 17.787-1.11.555-.895-1.79L15.764 16c-.37-.945-.618-1.95-.713-3H14v-2h1.05c.096-1.05.343-2.055.714-3l-1.106-.553.895-1.789 1.11.555A11.078 11.078 0 0 1 19 3.521C17.097 1.947 14.657 1 12 1s-5.097.947-7 2.521c.92.761 1.704 1.675 2.337 2.692l1.11-.555.895 1.79L8.236 8c.37.945.618 1.95.713 3H10v2H8.95a10.899 10.899 0 0 1-.714 3l1.106.553-.895 1.789-1.11-.555A11.078 11.078 0 0 1 5 20.479C6.903 22.053 9.343 23 12 23s5.097-.947 7-2.521a11.078 11.078 0 0 1-2.337-2.692z"/><path d="M3.571 4.945C1.97 6.857 1 9.316 1 12s.969 5.143 2.571 7.055a9.063 9.063 0 0 0 1.974-2.164l-.887-.444.895-1.789.885.443c.246-.668.422-1.37.503-2.101H6v-2h.941a8.908 8.908 0 0 0-.503-2.1l-.885.442-.895-1.79.887-.443A9.063 9.063 0 0 0 3.57 4.945z" data-color="color-2"/></g></svg>
