<svg id="nc_icon" xmlns="http://www.w3.org/2000/svg" xml:space="preserve" viewBox="0 0 24 24"><g fill="currentColor" class="nc-icon-wrapper"><path d="M11.157 8.155C10.427 9.26 10 10.58 10 12s.428 2.74 1.157 3.845C12.272 14.927 13 13.554 13 12s-.728-2.927-1.843-3.845zM22.843 8.155C21.728 9.073 21 10.446 21 12s.728 2.927 1.843 3.845C23.573 14.74 24 13.42 24 12s-.428-2.74-1.157-3.845z"/><path d="M19 12c0-2.147.974-4.07 2.5-5.354C20.282 5.62 18.713 5 17 5s-3.282.62-4.5 1.646C14.026 7.93 15 9.853 15 12s-.974 4.07-2.5 5.354C13.718 18.38 15.287 19 17 19s3.282-.62 4.5-1.646A6.985 6.985 0 0 1 19 12z"/><path d="M8 8H3a1 1 0 0 1 0-2h5a1 1 0 0 1 0 2zM8 18H3a1 1 0 0 1 0-2h5a1 1 0 0 1 0 2zM6 13H1a1 1 0 0 1 0-2h5a1 1 0 0 1 0 2z" data-color="color-2"/></g></svg>
