<svg id="nc_icon" xmlns="http://www.w3.org/2000/svg" xml:space="preserve" viewBox="0 0 24 24"><g fill="currentColor" class="nc-icon-wrapper"><path d="M23 6h-3.991L15.868.504a1 1 0 0 0-1.736.992L16.705 6H7.294l2.574-4.504A1 1 0 0 0 8.132.504L4.991 6H1a1 1 0 0 0-1 1v3a1 1 0 0 0 1 1h1v11a1 1 0 0 0 1 1h9v-2H4V11h19a1 1 0 0 0 1-1V7a1 1 0 0 0-1-1z"/><path d="M21 18c1.103 0 2-.897 2-2s-.897-2-2-2-2 .897-2 2c0 .011.003.021.003.032l-2.042 1.225A1.973 1.973 0 0 0 16 17c-1.103 0-2 .897-2 2s.897 2 2 2c.35 0 .674-.098.961-.257l2.042 1.225c0 .011-.003.021-.003.032 0 1.103.897 2 2 2s2-.897 2-2-.897-2-2-2c-.35 0-.674.098-.961.257l-2.042-1.225c0-.011.003-.021.003-.032s-.003-.021-.003-.032l2.042-1.225c.287.159.611.257.961.257z" data-color="color-2"/></g></svg>
