<svg id="nc_icon" xmlns="http://www.w3.org/2000/svg" xml:space="preserve" viewBox="0 0 24 24"><g fill="currentColor" class="nc-icon-wrapper"><path d="M23 8h-3.071l-4.081-6.53a1.001 1.001 0 0 0-1.696 1.06L17.571 8H6.429l3.419-5.47a1.001 1.001 0 0 0-1.696-1.06L4.071 8H1a1 1 0 0 0-1 1v2a1 1 0 0 0 1 1h22a1 1 0 0 0 1-1V9a1 1 0 0 0-1-1z" data-color="color-2"/><path d="M15 21a5 5 0 0 1 6.019-4.895L21.721 14H1.969l2.061 8.243A1 1 0 0 0 5 23h10.422A4.979 4.979 0 0 1 15 21z"/><path d="M23 20h-2v-2h-2v2h-2v2h2v2h2v-2h2z" data-color="color-2"/></g></svg>
