<svg id="nc_icon" xmlns="http://www.w3.org/2000/svg" xml:space="preserve" viewBox="0 0 24 24"><path fill="currentColor" d="M24 4c0-2.206-1.794-4-4-4-1.45 0-2.751.793-3.453 1.994C15.18 1.364 13.638 1 12 1s-3.18.363-4.547.994A4.014 4.014 0 0 0 4 0C1.794 0 0 1.794 0 4c0 1.605.962 2.998 2.363 3.632A8.122 8.122 0 0 0 2 10c0 5.507 4.294 14 10 14s10-8.493 10-14c0-.82-.133-1.612-.363-2.368A3.992 3.992 0 0 0 24 4zM7 8.5a1.5 1.5 0 1 1 3 0 1.5 1.5 0 0 1-3 0zM15 19H9v-2h2v-2.333L9.6 12.8a.5.5 0 0 1 .4-.8h4a.5.5 0 0 1 .4.8L13 14.667V17h2v2zm.5-9a1.5 1.5 0 1 1 0-3 1.5 1.5 0 0 1 0 3z" class="nc-icon-wrapper"/></svg>
