<svg id="nc_icon" xmlns="http://www.w3.org/2000/svg" xml:space="preserve" viewBox="0 0 24 24"><g fill="currentColor" class="nc-icon-wrapper"><path d="M8.723 11.387 6.465 8H3V6h4a1 1 0 0 1 .832.445l2.555 3.832Z" data-color="color-2"/><path d="M19 12c-.129 0-.251.029-.378.038l-2.454-8.587A2.008 2.008 0 0 0 14.246 2H10v2h4.246L15.6 8.733l-7.08 4.72a5.045 5.045 0 1 0 1.108 1.665l6.549-4.366.524 1.835A4.96 4.96 0 1 0 19 12ZM8 17a3 3 0 1 1-3-3 2.971 2.971 0 0 1 1.789.606l-2.344 1.562a1 1 0 1 0 1.109 1.664L7.9 16.269A2.966 2.966 0 0 1 8 17Zm11 3a2.994 2.994 0 0 1-1.736-5.437l.775 2.712A1 1 0 0 0 19 18a1.034 1.034 0 0 0 .275-.038 1 1 0 0 0 .687-1.236l-.773-2.707A2.993 2.993 0 0 1 19 20Z"/></g></svg>
