<svg id="nc_icon" xmlns="http://www.w3.org/2000/svg" xml:space="preserve" viewBox="0 0 24 24"><g fill="currentColor" class="nc-icon-wrapper"><path d="M24 15v-4h-5.121c.076.647.121 1.314.121 2 0 .687-.045 1.354-.12 2H24zM10 13c0-.697-.059-1.364-.161-2H0v4h9.846c.097-.649.154-1.317.154-2z"/><path d="M11.479 17a21.197 21.197 0 0 1-1.992 5h4.955a20.053 20.053 0 0 0 2.032-5h-4.995zM16.862 11h-5.007c.088.641.145 1.305.145 2 0 .684-.055 1.35-.139 2h5.003c.085-.645.136-1.313.136-2 0-.686-.052-1.354-.138-2zM11.44 9h5.029a20.353 20.353 0 0 0-2.03-5H9.082a16.81 16.81 0 0 1 2.358 5z" data-color="color-2"/><path d="M18.535 9H24V5a1 1 0 0 0-1-1h-6.283a21.846 21.846 0 0 1 1.818 5zM9.41 17H0v4a1 1 0 0 0 1 1h6.162c.705-1.135 1.646-2.896 2.248-5zM16.722 22H23a1 1 0 0 0 1-1v-4h-5.461a21.632 21.632 0 0 1-1.817 5zM6.558 4H1a1 1 0 0 0-1 1v4h9.35c-.829-2.552-2.218-4.338-2.792-5z"/></g></svg>
