<svg id="nc_icon" xmlns="http://www.w3.org/2000/svg" xml:space="preserve" viewBox="0 0 24 24"><g fill="currentColor" class="nc-icon-wrapper"><path d="M14 1a1 1 0 0 0-1-1h-2a1 1 0 0 0-1 1v2h4V1z"/><path d="M23 18.101a1 1 0 0 0-1 1c0 1.654-1.346 3-3 3a2.994 2.994 0 0 1-2.622-1.579c-.351-.644-1.406-.644-1.757 0-.53.974-1.535 1.579-2.622 1.579s-2.092-.605-2.622-1.579c-.351-.644-1.406-.644-1.757 0A2.989 2.989 0 0 1 5 22.101c-1.654 0-3-1.346-3-3a1 1 0 0 0-2 0c0 2.757 2.243 5 5 5a4.962 4.962 0 0 0 3.5-1.451c.922.917 2.173 1.451 3.5 1.451s2.578-.534 3.5-1.451a4.962 4.962 0 0 0 3.5 1.451c2.757 0 5-2.243 5-5a1 1 0 0 0-1-1z" data-color="color-2"/><path d="M4.105 19.447a1 1 0 1 0 1.789-.895l-1.572-3.144L12 11.144l7.677 4.265-1.572 3.144a1 1 0 1 0 1.79.894l2-4a1 1 0 0 0-.409-1.321L20 13.301V6a1 1 0 0 0-1-1H5a1 1 0 0 0-1 1v7.301l-1.486.825a1 1 0 0 0-.409 1.321l2 4z"/></g></svg>
