<svg id="nc_icon" xmlns="http://www.w3.org/2000/svg" xml:space="preserve" viewBox="0 0 24 24"><g fill="currentColor" class="nc-icon-wrapper"><path d="M21 21H6a1 1 0 0 0-1 1v1a1 1 0 0 0 1 1h15a1 1 0 0 0 1-1v-1a1 1 0 0 0-1-1z" data-color="color-2"/><path d="M8.5 5C10.43 5 12 6.57 12 8.5c0 .171-.027.335-.05.5h7.1C20.535 9 22 8.062 22 6.493V4c0-2.206-1.794-4-4-4H9C6.794 0 5 1.794 5 4v1h3.5z"/><path d="M19.05 11H11c-.017 0-.03-.009-.047-.01A3.486 3.486 0 0 1 8.5 12H8a1 1 0 1 1 0-2h.5c.827 0 1.5-.673 1.5-1.5S9.327 7 8.5 7H5c-.938 0-3 1.031-3 4v3c0 4.063 3.469 5 4 5h15a1 1 0 0 0 1-1v-7.984a4.954 4.954 0 0 1-2.95.984z"/></g></svg>
