<svg id="nc_icon" xmlns="http://www.w3.org/2000/svg" xml:space="preserve" viewBox="0 0 24 24"><g fill="currentColor" class="nc-icon-wrapper"><path d="M8 1c-1.3 0-2.4.8-2.8 2H5C2.2 3 0 5.2 0 8c0 1.3.5 2.6 1.4 3.5C.6 12 0 12.9 0 14c0 1 .5 1.9 1.3 2.4-.2.5-.3 1.1-.3 1.6 0 2.8 2.2 5 5 5s5-2.2 5-5V4c0-1.7-1.3-3-3-3z" data-color="color-2"/><path d="M22.6 11.5c.9-.9 1.4-2.2 1.4-3.5 0-2.8-2.2-5-5-5h-.2c-.4-1.2-1.5-2-2.8-2-1.7 0-3 1.3-3 3v14c0 2.8 2.2 5 5 5s5-2.2 5-5c0-.5-.1-1.1-.3-1.6.8-.5 1.3-1.4 1.3-2.4 0-1.1-.6-2-1.4-2.5z"/></g></svg>
