<svg id="nc_icon" xmlns="http://www.w3.org/2000/svg" viewBox="0 0 24 24"><g fill="currentColor" class="nc-icon-wrapper"><path d="M19 14H5a6.956 6.956 0 0 1-4-1.264V20a2 2 0 0 0 2 2h18a2 2 0 0 0 2-2v-7.264A6.956 6.956 0 0 1 19 14Z"/><path d="M19 2a4.906 4.906 0 0 0-2.116.5 6.654 6.654 0 0 1 .069 3.659A8.4 8.4 0 0 0 15.5 3.45 4.966 4.966 0 0 0 12 2a4.906 4.906 0 0 0-2.116.5 6.654 6.654 0 0 1 .069 3.659A5.674 5.674 0 0 0 8.5 3.45 4.994 4.994 0 1 0 5 12h14a5 5 0 0 0 0-10Z" data-color="color-2"/></g></svg>
