<svg id="nc_icon" xmlns="http://www.w3.org/2000/svg" xml:space="preserve" viewBox="0 0 24 24"><path fill="currentColor" d="M21 0H4c-.6 0-1 .4-1 1v22c0 .6.4 1 1 1h17c.6 0 1-.4 1-1V1c0-.6-.4-1-1-1zM9 20c0 .6-.4 1-1 1H7c-.6 0-1-.4-1-1v-1c0-.6.4-1 1-1h1c.6 0 1 .4 1 1v1zm0-5c0 .6-.4 1-1 1H7c-.6 0-1-.4-1-1v-1c0-.6.4-1 1-1h1c.6 0 1 .4 1 1v1zm0-5c0 .6-.4 1-1 1H7c-.6 0-1-.4-1-1V9c0-.6.4-1 1-1h1c.6 0 1 .4 1 1v1zm5 10c0 .6-.4 1-1 1h-1c-.6 0-1-.4-1-1v-1c0-.6.4-1 1-1h1c.6 0 1 .4 1 1v1zm0-5c0 .6-.4 1-1 1h-1c-.6 0-1-.4-1-1v-1c0-.6.4-1 1-1h1c.6 0 1 .4 1 1v1zm0-5c0 .6-.4 1-1 1h-1c-.6 0-1-.4-1-1V9c0-.6.4-1 1-1h1c.6 0 1 .4 1 1v1zm5 10c0 .6-.4 1-1 1h-1c-.6 0-1-.4-1-1v-6c0-.6.4-1 1-1h1c.6 0 1 .4 1 1v6zm0-10c0 .6-.4 1-1 1h-1c-.6 0-1-.4-1-1V9c0-.6.4-1 1-1h1c.6 0 1 .4 1 1v1zm0-5c0 .6-.4 1-1 1H7c-.6 0-1-.4-1-1V4c0-.6.4-1 1-1h11c.6 0 1 .4 1 1v1z" class="nc-icon-wrapper"/></svg>
