<svg id="nc_icon" xmlns="http://www.w3.org/2000/svg" xml:space="preserve" viewBox="0 0 24 24"><g fill="currentColor" class="nc-icon-wrapper"><path d="M3 18v-1.604l2.63-.155c.31-.023.37-.111.37-.442V2H2.188c-.243 0-.31.022-.354.243L1.481 4H0V0h14v4h-1.481l-.353-1.757c-.044-.22-.111-.243-.354-.243H8v13.799c0 .31.038.398.37.42l2.63.177V18H3z" data-color="color-2"/><path d="M13 24v-1.604l2.63-.155c.31-.023.37-.111.37-.442V8h-3.812c-.243 0-.31.022-.354.243L11.481 10H10V6h14v4h-1.481l-.353-1.757c-.044-.22-.111-.243-.354-.243H18v13.799c0 .31.038.398.37.42l2.63.177V24h-8z"/></g></svg>
