<svg id="nc_icon" xmlns="http://www.w3.org/2000/svg" xml:space="preserve" viewBox="0 0 24 24"><path fill="currentColor" d="M23 9h-8.323l-1.748-4.372A1.002 1.002 0 0 0 12 4H5a.998.998 0 0 0-.98.804L3.181 9H1a1 1 0 0 0-1 1v4c0 1.305.843 2.406 2.032 2.818C2.196 18.597 3.679 20 5.5 20c1.758 0 3.204-1.308 3.449-3h5.101c.245 1.692 1.691 3 3.449 3s3.204-1.308 3.449-3H22a1 1 0 0 0 .986-.835l1-6a.996.996 0 0 0-.224-.811A.994.994 0 0 0 23 9zM11.323 6l1.2 3H5.22l.6-3h5.503zM5.5 18c-.827 0-1.5-.673-1.5-1.5S4.673 15 5.5 15s1.5.673 1.5 1.5S6.327 18 5.5 18zm12 0c-.827 0-1.5-.673-1.5-1.5s.673-1.5 1.5-1.5 1.5.673 1.5 1.5-.673 1.5-1.5 1.5z" class="nc-icon-wrapper"/></svg>
