<svg id="nc_icon" xmlns="http://www.w3.org/2000/svg" xml:space="preserve" viewBox="0 0 24 24"><g fill="currentColor" class="nc-icon-wrapper"><path d="M16 20v2a1 1 0 0 0 1 1h4a1 1 0 0 0 1-1v-2h-6z" data-color="color-2"/><path d="M1 19h22a1 1 0 0 0 1-1v-6a.997.997 0 0 0-.293-.707l-1.804-1.804-1.933-7.732A1 1 0 0 0 19 1H5a1 1 0 0 0-.97.757L2.097 9.489.293 11.293A.997.997 0 0 0 0 12v6a1 1 0 0 0 1 1zm19-4.5a1.5 1.5 0 1 1-3.001-.001A1.5 1.5 0 0 1 20 14.5zM5.781 3h12.438l1.5 6H4.281l1.5-6zM5.5 13a1.5 1.5 0 1 1-.001 3.001A1.5 1.5 0 0 1 5.5 13z"/><path d="M2 20v2a1 1 0 0 0 1 1h4a1 1 0 0 0 1-1v-2H2z" data-color="color-2"/></g></svg>
