<svg id="nc_icon" xmlns="http://www.w3.org/2000/svg" xml:space="preserve" viewBox="0 0 24 24"><path fill="currentColor" d="M21.434 1.099a1.002 1.002 0 0 0-1.059.12L15.862 4.83C15.08 4.496 13.64 4 12 4s-3.08.496-3.862.83L3.625 1.22A1.002 1.002 0 0 0 2 2v12c0 5.514 4.486 10 10 10s10-4.486 10-10V2c0-.384-.22-.735-.566-.901zM6 11.5a1.5 1.5 0 1 1 3 0 1.5 1.5 0 0 1-3 0zm10.595 7.804A3.47 3.47 0 0 1 14.5 20a3.462 3.462 0 0 1-2.5-1.065A3.462 3.462 0 0 1 9.5 20a3.47 3.47 0 0 1-2.095-.696 1 1 0 1 1 1.198-1.601c.26.194.57.297.897.297.563 0 1.054-.308 1.307-.778l-1.002-1.003a1.297 1.297 0 0 1-.282-1.417A1.297 1.297 0 0 1 10.725 14h2.55c.528 0 1 .315 1.202.802a1.297 1.297 0 0 1-.28 1.416l-1.004 1.004c.253.47.743.778 1.307.778.327 0 .637-.103.897-.297a.999.999 0 1 1 1.198 1.601zM16.5 13a1.5 1.5 0 1 1 0-3 1.5 1.5 0 0 1 0 3z" class="nc-icon-wrapper"/></svg>
