<svg id="nc_icon" xmlns="http://www.w3.org/2000/svg" xml:space="preserve" viewBox="0 0 24 24"><g fill="currentColor" class="nc-icon-wrapper"><path d="M2.9 15.763a1 1 0 0 1-.982-.817L.453 7.082a1 1 0 0 1 1.967-.366l1.465 7.865a1 1 0 0 1-.985 1.182zM21.899 2.071a1 1 0 0 0-1.166-.8L5.004 4.2a1.001 1.001 0 0 0-.801 1.166l1.83 9.831a1.004 1.004 0 0 0 .983.817.945.945 0 0 0 .183-.017l15.729-2.929c.543-.101.901-.623.801-1.166l-1.83-9.831zM10.183 8.983a1 1 0 1 1-.366-1.966 1 1 0 0 1 .366 1.966z"/><path d="M23 21h-4v-5h-2v5h-4a1 1 0 1 0 0 2h10a1 1 0 1 0 0-2z" data-color="color-2"/></g></svg>
