<svg id="nc_icon" xmlns="http://www.w3.org/2000/svg" xml:space="preserve" viewBox="0 0 24 24"><g fill="currentColor" class="nc-icon-wrapper"><path d="M20.4 8.4c-.5.1-.8.7-.7 1.2.2.8.3 1.6.3 2.4 0 5-4 9-9 9s-9-4-9-9 4-9 9-9c1.7 0 3.3.5 4.7 1.3.5.3 1.1.1 1.4-.3.3-.5.1-1.1-.3-1.4C15 1.6 13 1 11 1 4.9 1 0 5.9 0 12s4.9 11 11 11 11-4.9 11-11c0-1-.1-2-.4-2.9-.1-.5-.7-.8-1.2-.7z" data-color="color-2"/><path d="M22.7 2.3c-.4-.4-1-.4-1.4 0L11 12.6 7.7 9.3c-.4-.4-1-.4-1.4 0s-.4 1 0 1.4l4 4c.2.2.5.3.7.3s.5-.1.7-.3l11-11c.4-.4.4-1 0-1.4z"/></g></svg>
