<svg id="nc_icon" xmlns="http://www.w3.org/2000/svg" xml:space="preserve" viewBox="0 0 24 24"><g fill="currentColor" class="nc-icon-wrapper"><path d="M19.9 7.1C19.2 3 15.7 0 11.5 0S3.6 3.2 3.1 7.4C1.3 8.1 0 9.9 0 12c0 2.8 2.2 5 5 5h.7c-.3-.8-.2-1.7.2-2.5.6-.9 1.6-1.5 2.6-1.5.2 0 .4 0 .6.1.4-1.2 1.6-2.1 2.9-2.1s2.5.9 2.9 2.1c.2 0 .4-.1.6-.1 1.1 0 2.1.6 2.6 1.5.5.8.5 1.7.2 2.5h.7c2.8 0 5-2.2 5-5 0-2.5-1.8-4.5-4.1-4.9z"/><path d="M16 19.1 14 18l2-1.1c.5-.3.6-.9.4-1.4-.3-.5-.9-.6-1.4-.4l-2 1.1V14c0-.6-.4-1-1-1s-1 .4-1 1v2.3l-2-1.1c-.5-.3-1.1-.1-1.4.4-.2.4 0 1 .4 1.3l2 1.1-2 1.1c-.5.3-.6.9-.4 1.4.3.3.6.5.9.5.2 0 .3 0 .5-.1l2-1.1V22c0 .6.4 1 1 1s1-.4 1-1v-2.3l2 1.1c.2.1.3.1.5.1.3 0 .7-.2.9-.5.2-.4 0-1-.4-1.3z" data-color="color-2"/></g></svg>
