<svg id="nc_icon" xmlns="http://www.w3.org/2000/svg" xml:space="preserve" viewBox="0 0 24 24"><g fill="currentColor" class="nc-icon-wrapper"><path d="M13 3a1 1 0 0 0-2 0v4h2V3z" data-color="color-2"/><path d="m23.467 20.236-1.966-9.827A4.25 4.25 0 0 0 17.343 7a4.213 4.213 0 0 0-2.999 1.242L13.586 9h-3.172l-.758-.758A4.209 4.209 0 0 0 6.657 7a4.253 4.253 0 0 0-4.159 3.409L.532 20.237c-.164.82.188 1.639.895 2.084a1.986 1.986 0 0 0 2.266-.093l2.35-1.762A3.95 3.95 0 0 0 8 21c1.627 0 3.024-.98 3.649-2.377h.703A4 4 0 0 0 16 21c.715 0 1.378-.204 1.96-.534l2.346 1.763a1.987 1.987 0 0 0 2.266.093 1.988 1.988 0 0 0 .895-2.086zM8 19a2 2 0 1 1-.001-3.999A2 2 0 0 1 8 19zm8 0a2 2 0 1 1-.001-3.999A2 2 0 0 1 16 19z"/></g></svg>
