<svg id="nc_icon" xmlns="http://www.w3.org/2000/svg" xml:space="preserve" viewBox="0 0 24 24"><g fill="currentColor" class="nc-icon-wrapper"><path d="M10 4C4.5 4 0 8.5 0 14s4.5 10 10 10 10-4.5 10-10S15.5 4 10 4zM8.7 16.7l-1 1c-.2.2-.4.3-.7.3s-.5-.1-.7-.3c-.4-.4-.4-1 0-1.4l1-1c.4-.4 1-.4 1.4 0s.4 1 0 1.4zm1-5c-.2.2-.4.3-.7.3s-.5-.1-.7-.3l-1-1c-.4-.4-.4-1 0-1.4s1-.4 1.4 0l1 1c.4.4.4 1 0 1.4zm5 3-1 1c-.2.2-.4.3-.7.3s-.5-.1-.7-.3c-.4-.4-.4-1 0-1.4l1-1c.4-.4 1-.4 1.4 0s.4 1 0 1.4z"/><path d="M21.8 12.1C23.2 10.8 24 9 24 7c0-3.9-3.1-7-7-7-2 0-3.8.8-5.1 2.2C17 3 21 7 21.8 12.1z" data-color="color-2"/></g></svg>
