<svg id="nc_icon" xmlns="http://www.w3.org/2000/svg" xml:space="preserve" viewBox="0 0 24 24"><g fill="currentColor" class="nc-icon-wrapper"><path d="M12 0h-1v5h2V2.05c5.046.503 9 4.774 9 9.95 0 5.514-4.486 10-10 10S2 17.514 2 12v-1H0v1c0 6.617 5.383 12 12 12s12-5.383 12-12S18.617 0 12 0z"/><path d="M9.878 14.121c.567.567 1.321.879 2.122.879s1.555-.312 2.121-.878c.567-.567.879-1.321.879-2.122s-.312-1.555-.879-2.122c-.808-.807-6.307-4.108-7.973-5.101l-3.391-2.02 2.021 3.391c.992 1.666 4.294 7.167 5.1 7.973z" data-color="color-2"/></g></svg>
