<svg id="nc_icon" xmlns="http://www.w3.org/2000/svg" xml:space="preserve" viewBox="0 0 24 24"><g fill="currentColor" class="nc-icon-wrapper"><path d="M14 10c0-3.86-3.141-7-7-7s-7 3.14-7 7c0 3.519 2.614 6.432 6 6.92v2.666l-2-2L2.586 19 7 23.414 11.414 19 10 17.586l-2 2V16.92c3.386-.488 6-3.401 6-6.92zM2 10c0-2.757 2.243-5 5-5s5 2.243 5 5-2.243 5-5 5-5-2.243-5-5z" data-color="color-2"/><path d="M18 0v2h2.586l-2.402 2.401A6.958 6.958 0 0 0 14 3c-3.859 0-7 3.14-7 7 0 3.859 3.141 7 7 7s7-3.141 7-7c0-1.57-.526-3.016-1.402-4.185L22 3.414V6h2V0h-6zm-4 15c-2.757 0-5-2.243-5-5s2.243-5 5-5 5 2.243 5 5-2.243 5-5 5z"/></g></svg>
