<svg id="nc_icon" xmlns="http://www.w3.org/2000/svg" xml:space="preserve" viewBox="0 0 24 24"><path fill="currentColor" d="M18.6 13c.7-.8 1.2-1.9 1.3-3.1C22.2 9.5 24 7.4 24 5c0-1.4-.5-2.6-1.5-3.6l-1.1-1-.6 1.4c-.3.7-1 1.2-1.8 1.2s-1.5-.5-1.9-1.2L16.5.4l-1.1 1c-1 1-1.5 2.2-1.5 3.6 0 2.4 1.7 4.4 3.9 4.9-.2 1-.7 1.8-1.2 2.2-1.4-.6-3-1-4.7-1s-3.3.4-4.7 1c-.5-.4-1-1.2-1.2-2.2 2.3-.5 4-2.5 4-4.9 0-1.4-.5-2.6-1.5-3.6L7.4.4l-.5 1.4C6.5 2.5 5.8 3 5 3s-1.5-.5-1.9-1.2L2.6.4l-1.1 1C.5 2.4 0 3.6 0 5c0 2.4 1.8 4.5 4.1 4.9.2 1.2.7 2.3 1.3 3.1-2.5 1.5-4 3.2-4.2 3.3-.3.4-.3 1 0 1.3.1.1 1.1 1.2 2.8 2.4-.8 1-1 2.2-1 3 0 .6.4 1 1 1s1-.4 1-1c0 0 0-1.3.7-1.8 1.8 1 3.9 1.8 6.3 1.8s4.5-.8 6.3-1.8c.7.5.7 1.8.7 1.8 0 .6.4 1 1 1s1-.4 1-1c0-.8-.3-2-1-2.9 1.6-1.2 2.7-2.3 2.8-2.4.3-.4.3-1 0-1.3-.2-.2-1.8-1.9-4.2-3.4z" class="nc-icon-wrapper"/></svg>
