<svg id="nc_icon" xmlns="http://www.w3.org/2000/svg" viewBox="0 0 24 24"><g fill="currentColor" class="nc-icon-wrapper"><path d="M20.367 4.792C17.929 2.965 15.036 2 12 2s-5.929.965-8.367 2.792a2.02 2.02 0 0 0-.805 1.474c-.042.579.17 1.146.58 1.556l7.885 7.885a.997.997 0 0 0 1.414 0l7.885-7.885c.41-.41.622-.977.58-1.556a2.02 2.02 0 0 0-.805-1.474z"/><path d="M22.307 8.863c-.099.126-.186.259-.3.373L15.242 16h6.702a2.01 2.01 0 0 0 1.996-2.202 11.976 11.976 0 0 0-1.633-4.935z" data-color="color-2"/><path d="M21.944 18h-6.361l2.831 2.835a1.995 1.995 0 0 0 1.693.571 1.966 1.966 0 0 0 1.461-.982c.447-.785.786-1.625 1.026-2.493-.214.036-.43.069-.65.069zM2.056 18c-.22 0-.436-.033-.65-.069.24.868.579 1.708 1.026 2.493.308.541.84.898 1.461.982a1.993 1.993 0 0 0 1.693-.571L8.417 18H2.056z"/><path d="M1.994 9.236c-.114-.114-.202-.247-.3-.373A11.978 11.978 0 0 0 .06 13.798 2.004 2.004 0 0 0 2.056 16h6.702L1.994 9.236z" data-color="color-2"/></g></svg>
