<svg id="nc_icon" xmlns="http://www.w3.org/2000/svg" viewBox="0 0 24 24"><g fill="currentColor" class="nc-icon-wrapper"><path d="M6 0a5.006 5.006 0 0 0-5 5v2a5 5 0 0 0 3.932 4.879l-.779 10.129a1.852 1.852 0 1 0 3.694 0l-.779-10.129A5 5 0 0 0 11 7V5a5.006 5.006 0 0 0-5-5Z"/><path d="M22 0a1 1 0 0 0-1 1v8a1 1 0 0 1-1 1h-4a1 1 0 0 1-1-1V1a1 1 0 0 0-2 0v8a3 3 0 0 0 3 3h.923l-.77 10.008a1.852 1.852 0 1 0 3.694 0L19.077 12H20a3 3 0 0 0 3-3V1a1 1 0 0 0-1-1Z" data-color="color-2"/><path d="M19 1a1 1 0 0 0-2 0v7h2Z" data-color="color-2"/></g></svg>
