<svg id="nc_icon" xmlns="http://www.w3.org/2000/svg" xml:space="preserve" viewBox="0 0 24 24"><g fill="currentColor" class="nc-icon-wrapper"><path d="M0 1h9v2H0zM2 5h7v2H2zM4 9h5v2H4zM6 13h3v2H6z" data-color="color-2"/><path d="m23.447 11.105-3.589-1.794-.888-3.553A.999.999 0 0 0 18 5h-7v13c0 .549.051 1 .051 1 .252 2.244 2.139 4 4.449 4s4.197-1.756 4.449-4H23a1 1 0 0 0 1-1v-6c0-.379-.214-.725-.553-.895zM15.5 21c-1.378 0-2.5-1.121-2.5-2.5s1.122-2.5 2.5-2.5 2.5 1.121 2.5 2.5-1.122 2.5-2.5 2.5zM13 10V7h4.344L18 10h-5z"/></g></svg>
