<svg id="nc_icon" xmlns="http://www.w3.org/2000/svg" xml:space="preserve" viewBox="0 0 24 24"><g fill="currentColor" class="nc-icon-wrapper"><path d="M16 8H0v15c0 .6.4 1 1 1h15V8zm-5 3c1.1 0 2 .9 2 2s-.9 2-2 2-2-.9-2-2 .9-2 2-2zM5 21c-1.1 0-2-.9-2-2s.9-2 2-2 2 .9 2 2-.9 2-2 2zm0-6c-1.1 0-2-.9-2-2s.9-2 2-2 2 .9 2 2-.9 2-2 2zm6 6c-1.1 0-2-.9-2-2s.9-2 2-2 2 .9 2 2-.9 2-2 2z"/><path d="m16.6 6 6-6H7c-.3 0-.5.1-.7.3L.6 6h16zM18 7.4v16l5.7-5.7c.2-.2.3-.4.3-.7V1.4l-6 6z" data-color="color-2"/></g></svg>
