<svg id="nc_icon" xmlns="http://www.w3.org/2000/svg" viewBox="0 0 24 24"><g fill="currentColor" class="nc-icon-wrapper"><path d="M3 5h2V3H2a1 1 0 0 0-1 1v19a1 1 0 0 0 1 1h10v-2H3ZM22 3h-3v2h2v3h2V4a1 1 0 0 0-1-1Z"/><path d="M18 2h-3.171a3 3 0 0 0-5.658 0H6v4h12ZM6 9h8v2H6zM6 13h4v2H6zM6 17h4v2H6z"/><path d="m18.609 15.128-.609.163-.609-.163c-2.66-.711-5.084 1.657-4.209 4.113l1.248 3.5a2 2 0 0 0 2.486 1.163L18 23.567l1.084.338a2 2 0 0 0 2.487-1.163l1.247-3.5c.875-2.457-1.549-4.825-4.209-4.114ZM18 14a3 3 0 0 0 3-3v-1a3 3 0 0 0-3 3Z" data-color="color-2"/></g></svg>
