<svg id="nc_icon" xmlns="http://www.w3.org/2000/svg" xml:space="preserve" viewBox="0 0 24 24"><g fill="currentColor" class="nc-icon-wrapper"><path d="M12 7c-2.8 0-5 2.2-5 5s2.2 5 5 5 5-2.2 5-5-2.2-5-5-5zM12 5c.6 0 1-.4 1-1V1c0-.6-.4-1-1-1s-1 .4-1 1v3c0 .6.4 1 1 1z"/><path d="M17.7 7.3c.3 0 .5-.1.7-.3l1-1c.4-.4.4-1 0-1.4-.4-.4-1-.4-1.4 0l-1 1c-.4.4-.4 1 0 1.4.1.2.4.3.7.3zM18.4 17c-.4-.4-1-.4-1.4 0-.4.4-.4 1 0 1.4l1.1 1.1c.2.2.5.3.7.3.3 0 .5-.1.7-.3.4-.4.4-1 0-1.4L18.4 17zM5.6 17l-1 1c-.4.4-.4 1 0 1.4.2.2.5.3.7.3.3 0 .5-.1.7-.3l1-1c.4-.4.4-1 0-1.4-.3-.4-1-.4-1.4 0zM5.6 7c.2.2.5.3.7.3.3 0 .6-.1.7-.3.4-.4.4-1 0-1.4l-1-1c-.4-.4-1-.4-1.4 0-.4.4-.4 1 0 1.4l1 1z" data-color="color-2"/><path d="M23 11h-3c-.6 0-1 .4-1 1s.4 1 1 1h3c.6 0 1-.4 1-1s-.4-1-1-1zM12 19c-.6 0-1 .4-1 1v3c0 .6.4 1 1 1s1-.4 1-1v-3c0-.6-.4-1-1-1zM5 12c0-.6-.4-1-1-1H1c-.6 0-1 .4-1 1s.4 1 1 1h3c.6 0 1-.4 1-1z"/></g></svg>
