<svg id="nc_icon" xmlns="http://www.w3.org/2000/svg" xml:space="preserve" viewBox="0 0 24 24"><g fill="currentColor" class="nc-icon-wrapper"><path d="M23 8H1a1 1 0 1 0 0 2h22a1 1 0 1 0 0-2zM23 2H1a1 1 0 1 0 0 2h22a1 1 0 1 0 0-2zM11 14H1a1 1 0 1 0 0 2h10a1 1 0 1 0 0-2zM11 20H1a1 1 0 1 0 0 2h10a1 1 0 1 0 0-2z"/><path d="m20.414 18 2.293-2.293a.999.999 0 1 0-1.414-1.414L19 16.586l-2.293-2.293a.999.999 0 1 0-1.414 1.414L17.586 18l-2.293 2.293a.999.999 0 1 0 1.414 1.414L19 19.414l2.293 2.293a.997.997 0 0 0 1.414 0 .999.999 0 0 0 0-1.414L20.414 18z" data-color="color-2"/></g></svg>
