<svg id="nc_icon" xmlns="http://www.w3.org/2000/svg" xml:space="preserve" viewBox="0 0 24 24"><path fill="currentColor" d="m18.613 15.723 1.11 1.664L22 15.869V17.5c0 2.481-2.019 4.5-4.5 4.5S13 19.981 13 17.5V7.858c1.72-.447 3-2 3-3.858 0-2.206-1.794-4-4-4S8 1.794 8 4c0 1.858 1.28 3.41 3 3.858V17.5c0 2.481-2.019 4.5-4.5 4.5S2 19.981 2 17.5v-1.631l2.277 1.518 1.11-1.664L0 12.13V17.5C0 21.084 2.916 24 6.5 24a6.495 6.495 0 0 0 5.5-3.052A6.495 6.495 0 0 0 17.5 24c3.584 0 6.5-2.916 6.5-6.5v-5.369l-5.387 3.592zM10 4c0-1.103.897-2 2-2s2 .897 2 2-.897 2-2 2-2-.897-2-2z" class="nc-icon-wrapper"/></svg>
