<svg id="nc_icon" xmlns="http://www.w3.org/2000/svg" xml:space="preserve" viewBox="0 0 24 24"><g fill="currentColor" class="nc-icon-wrapper"><path d="M19.897 9.558A.999.999 0 0 0 19 9h-7.883l.876-7.89a1 1 0 0 0-1.787-.721l-10 13A1 1 0 0 0 1 15h7.883l-.876 7.89a1 1 0 0 0 1.786.72l10-13c.232-.302.272-.71.104-1.052z"/><path d="m21.469 24-.422-1.605h-2.783L17.83 24h-2.543l2.795-8.602h3.088L24 24h-2.531zm-.903-3.504-.369-1.406c-.086-.312-.19-.717-.313-1.213s-.204-.852-.243-1.066c-.035.199-.104.527-.208.984s-.333 1.357-.688 2.701h1.821z" data-color="color-2"/></g></svg>
