<svg id="nc_icon" xmlns="http://www.w3.org/2000/svg" xml:space="preserve" viewBox="0 0 24 24"><g fill="currentColor" class="nc-icon-wrapper"><path d="M19 7h-4.674l1.636-5.725A1 1 0 0 0 15 0H8a1 1 0 0 0-.965.737l-3 11A1 1 0 0 0 5 13h4.802l-1.786 9.821a1 1 0 0 0 1.817.734l10-15A.998.998 0 0 0 19 7z"/><path d="m21.469 24-.422-1.605h-2.783L17.83 24h-2.543l2.795-8.602h3.088L24 24h-2.531zm-.903-3.504-.369-1.406c-.086-.312-.19-.717-.313-1.213s-.204-.852-.243-1.066c-.035.199-.104.527-.208.984s-.333 1.357-.688 2.701h1.821z" data-color="color-2"/></g></svg>
