<svg id="nc_icon" xmlns="http://www.w3.org/2000/svg" xml:space="preserve" viewBox="0 0 24 24"><path fill="currentColor" d="M23 12c0-1.286-2.11-2.38-4.224-2.807 1.193-1.796 1.912-4.062 1.002-4.971s-3.175-.191-4.971 1.002C14.38 3.11 13.287 1 12 1S9.62 3.11 9.193 5.224C7.397 4.03 5.131 3.312 4.222 4.222S4.03 7.397 5.224 9.193C3.11 9.62 1 10.713 1 12s2.11 2.38 4.224 2.807c-1.194 1.796-1.912 4.062-1.002 4.971.91.91 3.175.191 4.971-1.002C9.62 20.89 10.713 23 12 23s2.38-2.11 2.807-4.224c1.796 1.193 4.062 1.912 4.971 1.002.91-.91.192-3.175-1.002-4.971C20.89 14.38 23 13.287 23 12zm-11 2a2 2 0 1 1 0-4 2 2 0 0 1 0 4z" class="nc-icon-wrapper"/></svg>
