<svg id="nc_icon" xmlns="http://www.w3.org/2000/svg" xml:space="preserve" viewBox="0 0 24 24"><g fill="currentColor" class="nc-icon-wrapper"><path d="m1.5 7.9 2.8-1.7c1-.6 2.2-.6 3.2.1l1.7 1.1c.9.5 1.8.8 2.8.8s1.9-.3 2.8-.8l1.7-1.1c1-.6 2.2-.7 3.2-.1l2.8 1.7c.5.2 1.1.1 1.4-.4.2-.5.1-1.1-.4-1.4l-2.8-1.7c-1.6-1-3.7-.9-5.3.1l-1.7 1.1c-1 .7-2.3.7-3.3 0l-1.7-1C7.1 3.5 5 3.5 3.3 4.4L.5 6.1c-.5.3-.6.9-.4 1.4.3.5.9.6 1.4.4zM23.5 18.2l-2.8-1.7c-1.6-1-3.7-.9-5.3.1l-1.7 1.1c-1 .7-2.3.7-3.3 0l-1.7-1.1c-1.6-1.1-3.7-1.1-5.3-.1L.6 18.2c-.5.3-.6.9-.3 1.4.3.5.9.6 1.4.3l2.8-1.7c1-.6 2.2-.6 3.2.1l1.7 1.1c.8.6 1.8.8 2.8.8 1 0 1.9-.3 2.8-.8l1.7-1.1c1-.6 2.2-.7 3.2-.1l2.8 1.7c.5.3 1.1.1 1.4-.3 0-.5-.1-1.1-.6-1.4z"/><path d="m23.5 12.2-2.8-1.7c-1.7-1-3.7-.9-5.3.1l-1.7 1.1c-1 .7-2.3.7-3.3 0l-1.7-1.1C7.1 9.5 5 9.5 3.3 10.5L.5 12.2c-.5.3-.6.9-.3 1.4s.9.6 1.4.3l2.8-1.7c1-.6 2.2-.6 3.2.1l1.7 1.1c.8.6 1.8.8 2.8.8 1 0 1.9-.3 2.8-.8l1.7-1.1c1-.6 2.2-.7 3.2-.1l2.8 1.7c.5.3 1.1.1 1.4-.3.1-.5 0-1.1-.5-1.4z" data-color="color-2"/></g></svg>
