<svg id="nc_icon" xmlns="http://www.w3.org/2000/svg" xml:space="preserve" viewBox="0 0 24 24"><g fill="currentColor" class="nc-icon-wrapper"><path d="M9.981 17.433A3.947 3.947 0 0 0 12 18c2.206 0 4-1.794 4-4 0-.74-.215-1.424-.567-2.019l-5.452 5.452zM14.019 10.567A3.947 3.947 0 0 0 12 10c-2.206 0-4 1.794-4 4 0 .74.215 1.424.567 2.019l5.452-5.452z"/><path d="M23 4H12.5L9.8.4A1 1 0 0 0 9 0H1a1 1 0 0 0-1 1v22a1 1 0 0 0 1 1h22a1 1 0 0 0 1-1V5a1 1 0 0 0-1-1zM12 20c-3.309 0-6-2.691-6-6s2.691-6 6-6 6 2.691 6 6-2.691 6-6 6z"/></g></svg>
