<svg id="nc_icon" xmlns="http://www.w3.org/2000/svg" viewBox="0 0 24 24"><path fill="currentColor" d="M22.423 11.387a23.178 23.178 0 0 0-3.2-3.232c-.739-.661-1.5-1.344-2.136-2A8.3 8.3 0 0 1 15 .98 1 1 0 0 0 14 0h-4a1 1 0 0 0-1 .98 8.306 8.306 0 0 1-2.091 5.175c-.633.656-1.4 1.339-2.136 2a23.178 23.178 0 0 0-3.2 3.232 8.055 8.055 0 0 0-.712 8.336c1.131 2.032 2.954 2.8 5.7 3.091a5.317 5.317 0 0 1-.861-2.382c-.3-2.8 1.231-5.694 2.252-7.29a13.756 13.756 0 0 0-.62 7.095 4.772 4.772 0 0 0 9.328 0 13.756 13.756 0 0 0-.62-7.095c1.021 1.6 2.551 4.488 2.252 7.29a5.317 5.317 0 0 1-.865 2.382c2.75-.294 4.573-1.059 5.7-3.091a8.055 8.055 0 0 0-.704-8.336Z" class="nc-icon-wrapper"/></svg>
