<svg id="nc_icon" xmlns="http://www.w3.org/2000/svg" xml:space="preserve" viewBox="0 0 24 24"><path fill="currentColor" d="M12 0C5.383 0 0 5.383 0 12s5.383 12 12 12 12-5.383 12-12S18.617 0 12 0zm9.949 11h-3.476c-.138-3.21-.931-6.02-2.141-7.999 3.063 1.481 5.265 4.467 5.617 7.999zM11 2.3V11H7.525C7.734 6.531 9.315 3.26 11 2.3zM11 13v8.7c-1.685-.96-3.266-4.231-3.475-8.7H11zm2 8.7V13h3.475c-.209 4.469-1.79 7.74-3.475 8.7zM13 11V2.3c1.685.96 3.266 4.231 3.475 8.7H13zM7.667 3.001C6.458 4.98 5.664 7.79 5.526 11H2.051c.352-3.532 2.554-6.518 5.616-7.999zM2.051 13h3.476c.138 3.21.931 6.02 2.141 7.999C4.605 19.518 2.403 16.532 2.051 13zm14.282 7.999c1.209-1.979 2.003-4.789 2.141-7.999h3.476c-.353 3.532-2.555 6.518-5.617 7.999z" class="nc-icon-wrapper"/></svg>
