<svg id="nc_icon" xmlns="http://www.w3.org/2000/svg" xml:space="preserve" viewBox="0 0 24 24"><g fill="currentColor" class="nc-icon-wrapper"><path d="M2 10c0-4.411 3.589-8 8-8a8.014 8.014 0 0 1 7.546 5.336l.333.942 1.886-.665-.333-.943A10.018 10.018 0 0 0 10 0C4.486 0 0 4.486 0 10a10.02 10.02 0 0 0 6.663 9.43l.943.334.667-1.885-.942-.334A8.016 8.016 0 0 1 2 10z"/><path d="M6 10c0-2.206 1.794-4 4-4 1.27 0 2.437.583 3.2 1.601l.601.8L15.4 7.199l-.6-.8A5.956 5.956 0 0 0 10 4c-3.309 0-6 2.691-6 6 0 1.879.898 3.674 2.403 4.803l.8.601 1.2-1.601-.8-.6A3.972 3.972 0 0 1 6 10z"/><path d="M22.707 17.293 19.414 14l2.293-2.293a1.001 1.001 0 0 0-.617-1.703l-11-1a1 1 0 0 0-1.086 1.087l1 11a1 1 0 0 0 1.703.617L14 19.414l3.293 3.293a.997.997 0 0 0 1.414 0l4-4a.999.999 0 0 0 0-1.414z" data-color="color-2"/></g></svg>
