<svg id="nc_icon" xmlns="http://www.w3.org/2000/svg" xml:space="preserve" viewBox="0 0 24 24"><path fill="currentColor" d="M22 8c0-2.2-1.8-4-4-4-1.2 0-2.3.5-3 1.4-.5-.6-1.2-1-2-1.2 0-1.2.5-1.9 1.4-2.3.5-.2.8-.8.6-1.3-.2-.5-.8-.8-1.3-.6C12 .7 11 2.2 11 4.1c-.8.2-1.5.6-2 1.2C8.3 4.5 7.2 4 6 4 3.8 4 2 5.8 2 8c0 2.1 1.6 3.7 3.6 4-.4.6-.6 1.3-.6 2 0 2.1 1.6 3.7 3.6 4-.4.6-.6 1.3-.6 2 0 2.2 1.8 4 4 4s4-1.8 4-4c0-.7-.2-1.4-.6-2 2-.2 3.6-1.9 3.6-4 0-.7-.2-1.4-.6-2 2-.3 3.6-1.9 3.6-4z" class="nc-icon-wrapper"/></svg>
