<svg id="nc_icon" xmlns="http://www.w3.org/2000/svg" xml:space="preserve" viewBox="0 0 24 24"><g fill="currentColor" class="nc-icon-wrapper"><path d="M11.559 17a1 1 0 0 0 .949-.684l1.666-5a.992.992 0 0 0-.137-.9.99.99 0 0 0-.811-.416H.175A12.33 12.33 0 0 0 0 12v5h11.559z" data-color="color-2"/><path d="M20.407 3.437C18.091 1.162 15.05-.051 11.775.002 6.58.097 2.283 3.386.681 8h12.545c.976 0 1.863.455 2.433 1.247s.72 1.777.411 2.702l-1.666 5A2.996 2.996 0 0 1 11.56 19H.09C.57 21.833 3.033 24 6 24h9c4.963 0 9-4.038 9-9v-3c0-3.247-1.276-6.288-3.593-8.563z"/></g></svg>
