<svg id="nc_icon" xmlns="http://www.w3.org/2000/svg" viewBox="0 0 24 24"><g fill="currentColor" class="nc-icon-wrapper"><path d="M11 17.936V22H7a1 1 0 0 0 0 2h10a1 1 0 0 0 0-2h-4v-4.064A10.1 10.1 0 0 0 21 13H3a10.1 10.1 0 0 0 8 4.936Z"/><path d="M8.08 11A7.145 7.145 0 0 1 8 10a7.007 7.007 0 0 1 4.4-6.495A5.989 5.989 0 0 0 4.349 11ZM22.6 4.8l-1.2-1.6-3.573 2.68a4.952 4.952 0 0 0-2.105-.807l2.135-3.558-1.714-1.03-2.912 4.853A4.982 4.982 0 0 0 10.1 11h9.8a4.945 4.945 0 0 0-.681-3.663Z" data-color="color-2"/></g></svg>
