<svg id="nc_icon" xmlns="http://www.w3.org/2000/svg" xml:space="preserve" viewBox="0 0 24 24"><g fill="currentColor" class="nc-icon-wrapper"><path d="M23 4h-4v2h3v16H2V6h3V4H1a1 1 0 0 0-1 1v18a1 1 0 0 0 1 1h22a1 1 0 0 0 1-1V5a1 1 0 0 0-1-1z"/><path d="m15.586 13.09-11 5A.999.999 0 0 0 5 20h14a1 1 0 0 0 .857-1.514l-3-5a.998.998 0 0 0-1.271-.396z"/><circle cx="6.5" cy="12.5" r="1.5"/><path d="M12 0C9.542 0 7 1.87 7 5c0 2.838 3.894 6.358 4.338 6.75a.998.998 0 0 0 1.324 0C13.106 11.358 17 7.838 17 5c0-3.13-2.542-5-5-5zm0 7a2 2 0 1 1-.001-3.999A2 2 0 0 1 12 7z" data-color="color-2"/></g></svg>
