<svg id="nc_icon" xmlns="http://www.w3.org/2000/svg" xml:space="preserve" viewBox="0 0 24 24"><path fill="currentColor" d="M22 3.2V1c0-.6-.4-1-1-1s-1 .4-1 1v2.2c-1.2.4-2 1.5-2 2.8v6c0-3-2.2-5.4-5-5.9V4c0-.6-.4-1-1-1s-1 .4-1 1v2.1C8.2 6.6 6 9 6 12V6c0-1.3-.8-2.4-2-2.8V1c0-.6-.4-1-1-1S2 .4 2 1v2.2C.8 3.6 0 4.7 0 6v17c0 .6.4 1 1 1h9v-2c0-1.1.9-2 2-2s2 .9 2 2v2h9c.6 0 1-.4 1-1V6c0-1.3-.8-2.4-2-2.8zM4 8H2V6c0-.6.4-1 1-1s1 .4 1 1v2zm12 5H8v-1c0-2.2 1.8-4 4-4s4 1.8 4 4v1zm6-5h-2V6c0-.6.4-1 1-1s1 .4 1 1v2z" class="nc-icon-wrapper"/></svg>
