<svg id="nc_icon" xmlns="http://www.w3.org/2000/svg" xml:space="preserve" viewBox="0 0 24 24"><g fill="currentColor" class="nc-icon-wrapper"><path d="M23.707 7.293 20.414 4l2.293-2.293A.999.999 0 1 0 21.293.293L10.901 10.685c.262.204.517.42.756.658.239.239.454.494.658.756L16 8.414l3.293 3.293a.997.997 0 0 0 1.414 0l3-3a.999.999 0 0 0 0-1.414z" data-color="color-2"/><path d="M6 23c1.603 0 3.109-.624 4.243-1.757S12 18.603 12 17s-.624-3.109-1.757-4.243S7.603 11 6 11s-3.109.624-4.243 1.757S0 15.397 0 17s.624 3.109 1.757 4.243S4.397 23 6 23z"/></g></svg>
