<svg id="nc_icon" xmlns="http://www.w3.org/2000/svg" xml:space="preserve" viewBox="0 0 24 24"><g fill="currentColor" class="nc-icon-wrapper"><path d="M23 10H1a1 1 0 0 0-1 1v12a1 1 0 0 0 1 1h22a1 1 0 0 0 1-1V11a1 1 0 0 0-1-1zM8 14h3v2H8v-2zm-2 6H3v-2h3v2zm0-4H3v-2h3v2zm10 4H8v-2h8v2zm0-4h-3v-2h3v2zm5 4h-3v-2h3v2zm0-4h-3v-2h3v2z"/><path d="m15.536 7.878-.707-.707a4.004 4.004 0 0 0-5.657 0l-.708.707L7.05 6.464l.707-.707a6.005 6.005 0 0 1 8.485 0l.707.707-1.413 1.414z" data-color="color-2"/><path d="m18.364 5.05-.707-.707C16.146 2.832 14.137 2 12 2s-4.146.832-5.657 2.343l-.707.707-1.414-1.414.707-.707C6.818 1.04 9.329 0 12 0s5.182 1.04 7.071 2.929l.707.707-1.414 1.414z" data-color="color-2"/></g></svg>
