<svg id="nc_icon" xmlns="http://www.w3.org/2000/svg" xml:space="preserve" viewBox="0 0 24 24"><path fill="currentColor" d="M23 5h-5V2h-2v3h-4V4c0-2.206-1.794-4-4-4S4 1.794 4 4v1H1a1 1 0 0 0-1 1v12a1 1 0 0 0 1 1h9v1c0 2.206 1.794 4 4 4s4-1.794 4-4v-1h5a1 1 0 0 0 1-1V6a1 1 0 0 0-1-1zM11 9v2H8V9h3zm-5 6H3v-2h3v2zm0-4H3V9h3v2zm0-7c0-1.103.897-2 2-2s2 .897 2 2v1H6V4zm10 16c0 1.103-.897 2-2 2s-2-.897-2-2v-1h4v1zm0-5H8v-2h8v2zm0-4h-3V9h3v2zm5 4h-3v-2h3v2zm0-4h-3V9h3v2z" class="nc-icon-wrapper"/></svg>
