<svg id="nc_icon" xmlns="http://www.w3.org/2000/svg" viewBox="0 0 24 24"><g fill="currentColor" class="nc-icon-wrapper"><path d="M12 2C5.383 2 0 6.037 0 11a12 12 0 0 0 24 0c0-4.963-5.383-9-12-9Zm0 16c-5.514 0-10-3.141-10-7s4.486-7 10-7 10 3.141 10 7-4.486 7-10 7Z"/><circle cx="12" cy="15" r="1" data-color="color-2"/><circle cx="12" cy="7" r="1" data-color="color-2"/><circle cx="8" cy="8" r="1" data-color="color-2"/><circle cx="16" cy="8" r="1" data-color="color-2"/><circle cx="8" cy="14" r="1" data-color="color-2"/><circle cx="16" cy="14" r="1" data-color="color-2"/><circle cx="18" cy="11" r="1" data-color="color-2"/><circle cx="6" cy="11" r="1" data-color="color-2"/></g></svg>
