<svg id="nc_icon" xmlns="http://www.w3.org/2000/svg" xml:space="preserve" viewBox="0 0 24 24"><g fill="currentColor" class="nc-icon-wrapper"><path d="M2 22H0v-2h2a1 1 0 0 0 1-1v-.394l-1.688-.879a1.989 1.989 0 0 1-1.076-1.808 1.993 1.993 0 0 1 1.137-1.771L3 13.37V12c0-.459.312-.859.758-.97l2.286-.571-2.751-2.752A.996.996 0 0 1 3 7V1h2v5.586l2.458 2.458a1.98 1.98 0 0 1 .514 1.949 1.978 1.978 0 0 1-1.443 1.406L5 12.781V14a.998.998 0 0 1-.568.901l-2.195 1.052 2.226 1.16A1 1 0 0 1 5 18v1c0 1.654-1.346 3-3 3z" data-color="color-2"/><path d="M21 3h-8c-1.654 0-3 1.346-3 3v5.667L6 17h15c1.654 0 3-1.346 3-3V6c0-1.654-1.346-3-3-3zm-1 10h-6v-2h6v2zm0-4h-6V7h6v2z"/></g></svg>
