<svg id="nc_icon" xmlns="http://www.w3.org/2000/svg" xml:space="preserve" viewBox="0 0 24 24"><g fill="currentColor" class="nc-icon-wrapper"><path d="M4.882 12.037C2.52 11.731.484 13.425.484 13.425s1.759 2.247 3.891 2.523C6.19 16.184 8 15.102 8 15.102s-1.303-2.83-3.118-3.065zM14.278 4.88C14.435 2.902 13.167 1 13.167 1s-2.995 1.562-3.152 3.54c-.205 2.574 1.739 4.688 1.739 4.688s2.339-2.025 2.524-4.348z" data-color="color-2"/><path d="M21.29 17.906c.147-.832.336-2.594-.321-4.122C19.917 11.336 16.643 10 16.643 10s-1.33 3.001-.164 5.713c.239.556.688 1.003 1.214 1.364C11.475 14.88 7 8.96 7 2V1H5v1c0 6.407 3.376 12.028 8.432 15.219-.775-.198-1.618-.293-2.433-.151C8.752 17.462 7 19.42 7 19.42s2.6 2.883 4.846 2.49c2.545-.446 4.233-2.601 4.627-3.153A17.885 17.885 0 0 0 23 20h1v-2h-1c-.578 0-1.148-.034-1.71-.094z"/></g></svg>
