<svg id="nc_icon" xmlns="http://www.w3.org/2000/svg" xml:space="preserve" viewBox="0 0 24 24"><g fill="currentColor" class="nc-icon-wrapper"><path d="M21 8.424v2.356c.609.549 1 1.337 1 2.22v4c0 1.654-1.346 3-3 3h-9c-1.654 0-3-1.346-3-3v-4c0-1.654 1.346-3 3-3h5V8h-5c-2.757 0-5 2.243-5 5v4c0 2.757 2.243 5 5 5h9c2.757 0 5-2.243 5-5v-4a5.003 5.003 0 0 0-3-4.576z" data-color="color-2"/><path d="M14 2H5C2.243 2 0 4.243 0 7v4a5.003 5.003 0 0 0 3 4.576V13.22c-.609-.55-1-1.337-1-2.22V7c0-1.654 1.346-3 3-3h9c1.654 0 3 1.346 3 3v4c0 1.654-1.346 3-3 3H9v2h5c2.757 0 5-2.243 5-5V7c0-2.757-2.243-5-5-5z"/></g></svg>
