<svg id="nc_icon" xmlns="http://www.w3.org/2000/svg" xml:space="preserve" viewBox="0 0 24 24"><path fill="currentColor" d="M24 5c0-1.4-.5-2.6-1.5-3.6l-1.1-1-.6 1.4c-.3.7-1 1.2-1.8 1.2s-1.5-.5-1.9-1.2L16.5.4l-1.1 1c-1 1-1.5 2.2-1.5 3.6 0 2.3 1.6 4.3 3.8 4.8-.3 1-.9 1.9-1.7 2.5-.1-.3-.2-.5-.4-.7l-1.4-2.3C13.9 8.5 13 8 12 8s-1.9.5-2.4 1.3l-1.4 2.3c-.1.2-.3.5-.4.8-.8-.6-1.5-1.6-1.8-2.5 2.3-.6 4-2.5 4-4.9 0-1.4-.5-2.6-1.5-3.6L7.4.4l-.5 1.4C6.5 2.5 5.8 3 5 3s-1.5-.5-1.9-1.2L2.6.4l-1.1 1C.5 2.4 0 3.6 0 5c0 2.4 1.8 4.5 4.1 4.9.3 1.9 1.7 3.7 3.5 4.6 0 .7.2 1.3.5 1.9l1.4 2.9C8 19.9 7 21.3 7 23c0 .6.4 1 1 1h8c.6 0 1-.4 1-1 0-1.7-1-3.1-2.5-3.7l1.4-2.9c.3-.6.5-1.3.5-1.9 1.7-.8 3.1-2.7 3.4-4.6C22.2 9.5 24 7.5 24 5z" class="nc-icon-wrapper"/></svg>
