<svg id="nc_icon" xmlns="http://www.w3.org/2000/svg" xml:space="preserve" viewBox="0 0 24 24"><g fill="currentColor" class="nc-icon-wrapper"><path d="M18 16h-1v-2c0-1.654-1.346-3-3-3s-3 1.346-3 3v2h-1a1 1 0 0 0-1 1v5a1 1 0 0 0 1 1h8a1 1 0 0 0 1-1v-5a1 1 0 0 0-1-1zm-5-2c0-.551.449-1 1-1s1 .449 1 1v2h-2v-2z" data-color="color-2"/><path d="M21 2H3C1.346 2 0 3.346 0 5v12c0 1.654 1.346 3 3 3h4v-2H4a1 1 0 0 1-1-1V5a1 1 0 0 1 1-1h16a1 1 0 0 1 1 1v15c1.654 0 3-1.346 3-3V5c0-1.654-1.346-3-3-3z"/></g></svg>
