<svg id="nc_icon" xmlns="http://www.w3.org/2000/svg" xml:space="preserve" viewBox="0 0 24 24"><path fill="currentColor" d="m10.6 17.2-.9-2.4s-1.4 1.6-3.6 1.6c-1.9 0-3.2-1.6-3.2-4.3 0-3.4 1.7-4.6 3.4-4.6 2.4 0 3.2 1.6 3.8 3.6l.9 2.7c.9 2.7 2.5 4.8 7.3 4.8 3.4 0 5.7-1 5.7-3.8 0-2.2-1.3-3.4-3.6-3.9l-1.8-.4C17.4 10.3 17 9.8 17 9c0-.9.7-1.5 2-1.5s2 .5 2.1 1.7l2.7-.3c-.2-2.5-1.9-3.5-4.7-3.5-2.5 0-4.9.9-4.9 3.9 0 1.9.9 3.1 3.2 3.6l1.9.4c1.4.3 1.9.9 1.9 1.7 0 1-1 1.4-2.9 1.4-2.8 0-3.9-1.5-4.6-3.5l-.9-2.7c-1.2-3.6-3-4.9-6.7-4.9-4 0-6.2 2.6-6.2 6.9 0 4.2 2.1 6.4 6 6.4 3.2.1 4.7-1.4 4.7-1.4z" class="nc-icon-wrapper"/></svg>
