<svg id="nc_icon" xmlns="http://www.w3.org/2000/svg" xml:space="preserve" viewBox="0 0 24 24"><path fill="currentColor" fill-rule="evenodd" d="M23.3 9.3c-.5-.2-2.7 0-3.3-.5-.4-.4-.5-1.1-.6-2.1-.3-1.6-.4-1.9-.7-2.6-1-2.2-3.5-4.1-5.8-4.1H7.6C3.5 0 0 3.4 0 7.6v8.8C0 20.6 3.5 24 7.6 24h8.7c4.2 0 7.6-3.4 7.6-7.6v-6.1c.1 0 .1-.8-.6-1zM7.5 6h4c.8 0 1.5.7 1.5 1.5S12.3 9 11.5 9h-4C6.7 9 6 8.3 6 7.5S6.7 6 7.5 6zm9 12h-9c-.8 0-1.5-.7-1.5-1.5S6.7 15 7.5 15h9c.8 0 1.5.7 1.5 1.5s-.7 1.5-1.5 1.5z" class="nc-icon-wrapper" clip-rule="evenodd"/></svg>
