<svg id="nc_icon" xmlns="http://www.w3.org/2000/svg" xml:space="preserve" viewBox="0 0 24 24"><g fill="currentColor" class="nc-icon-wrapper"><path d="M8.704 2.301C3.774 2.301 0 5.647 0 9.295s3.258 5.761 3.258 5.761l-.53 2.007a.309.309 0 0 0 .451.348l2.38-1.349c1.052.335 3.286.442 3.503.452a5.745 5.745 0 0 1-.232-1.572c0-2.815 2.451-6.78 7.899-6.78.124 0 .248.003.372.008-.724-3.469-4.327-5.869-8.397-5.869zM5.459 8.112a1.082 1.082 0 1 1 0-2.164 1.082 1.082 0 0 1 0 2.164zm6.289 0a1.082 1.082 0 1 1 0-2.164 1.082 1.082 0 0 1 0 2.164z"/><path d="M24 14.502c0-3.195-3.748-5.535-7.27-5.535-4.981 0-7.094 3.597-7.094 5.975 0 2.382 2.113 5.975 7.094 5.975 1.102 0 2.072-.158 2.915-.438l1.873 1.189a.196.196 0 0 0 .296-.209l-.425-1.845C23.158 18.381 24 16.438 24 14.502zm-9.548-.607a.956.956 0 1 1 0-1.912.956.956 0 0 1 0 1.912zm4.78 0a.956.956 0 1 1 0-1.912.956.956 0 0 1 0 1.912z" data-color="color-2"/></g></svg>
