<svg id="nc_icon" xmlns="http://www.w3.org/2000/svg" xml:space="preserve" viewBox="0 0 24 24"><g fill="currentColor" class="nc-icon-wrapper"><path d="M10.275 13.65c-.6 1.35-1.95 2.25-3.525 2.25-2.1 0-3.9-1.725-3.9-3.9 0-2.1 1.725-3.9 3.9-3.9 1.575 0 2.925.975 3.525 2.325h3C12.6 7.425 9.9 5.25 6.75 5.25 3.075 5.25 0 8.25 0 12s3 6.75 6.75 6.75c3.15 0 5.775-2.175 6.525-5.1h-3z"/><path d="M24 5.85a6.47 6.47 0 0 0-2.7-.6c-.975 0-1.875.3-2.7.825V5.7h-2.775v12.525H18.6v-6c0-1.125 0-1.875.15-2.4V9.75c.15-.525.45-.9 1.05-1.275.375-.225.825-.45 1.5-.45s1.05.15 1.5.45L24 5.85z" data-color="color-2"/></g></svg>
