<svg id="nc_icon" xmlns="http://www.w3.org/2000/svg" xml:space="preserve" viewBox="0 0 24 24"><path fill="currentColor" d="M19 7c-1.678 0-3.969 1.575-7.543 4.17C9.106 12.876 6.181 15 5 15c-1.654 0-3-1.346-3-3s1.346-3 3-3c.116 0 .351.03.73.16l-1.41 2.769 6.271-1.295L7.95 4.801 6.643 7.367C6.015 7.125 5.467 7 5 7c-2.757 0-5 2.243-5 5s2.243 5 5 5c1.83 0 4.519-1.952 7.632-4.212C14.957 11.101 17.851 9 19 9c1.654 0 3 1.346 3 3s-1.346 3-3 3c-.323 0-1.338-.179-3.771-1.83l-1.123 1.654C16.262 16.288 17.863 17 19 17c2.757 0 5-2.243 5-5s-2.243-5-5-5z" class="nc-icon-wrapper"/></svg>
