<svg id="nc_icon" xmlns="http://www.w3.org/2000/svg" xml:space="preserve" viewBox="0 0 24 24"><g fill="currentColor" class="nc-icon-wrapper"><path d="M12 21c0-.8.312-1.553.877-2.119l6.792-6.792c.7-.7 1.631-1.086 2.621-1.086.608 0 1.186.161 1.71.436V2a.998.998 0 0 0-.385-.788.99.99 0 0 0-.858-.182L15.04 2.959 9.316 1.052a.968.968 0 0 0-.559-.022l-8 2A1 1 0 0 0 0 4v18a.998.998 0 0 0 1.243.97l7.717-1.929L12 22.054V21z"/><path d="m21.083 13.503-6.79 6.79A1 1 0 0 0 14 21v2h2a1 1 0 0 0 .707-.293l6.79-6.79a1.706 1.706 0 1 0-2.414-2.414z" data-color="color-2"/></g></svg>
