<svg id="nc_icon" xmlns="http://www.w3.org/2000/svg" xml:space="preserve" viewBox="0 0 24 24"><g fill="currentColor" class="nc-icon-wrapper"><path d="M12 18c0-1.304.836-2.416 2-2.829v-.066c0-2.346 1.574-4.472 3.865-4.979a5.012 5.012 0 0 1 5.665 2.76c.111.238.47.15.47-.112V2a.998.998 0 0 0-.385-.788.987.987 0 0 0-.857-.182L15.04 2.959 9.316 1.052a.973.973 0 0 0-.558-.022l-8.001 2A1 1 0 0 0 0 4v18a.998.998 0 0 0 1.242.97l7.718-1.929L12 22.054V18z"/><path d="M23 17h-1v-2c0-1.654-1.346-3-3-3s-3 1.346-3 3v2h-1a1 1 0 0 0-1 1v5a1 1 0 0 0 1 1h8a1 1 0 0 0 1-1v-5a1 1 0 0 0-1-1zm-5-2c0-.551.449-1 1-1s1 .449 1 1v2h-2v-2z" data-color="color-2"/></g></svg>
