<svg id="nc_icon" xmlns="http://www.w3.org/2000/svg" xml:space="preserve" viewBox="0 0 24 24"><g fill="currentColor" class="nc-icon-wrapper"><path d="M1 23a.998.998 0 0 1-1-1V6h2v14.719l6.758-1.689a.994.994 0 0 1 .559.021l5.724 1.908 6.96-1.74V4h2v16a.999.999 0 0 1-.758.97l-8 2a.994.994 0 0 1-.559-.021L8.96 21.041l-7.718 1.93C1.162 22.99 1.081 23 1 23z" data-color="color-2"/><path d="M18 6c0-3.309-2.691-6-6-6S6 2.691 6 6c0 2.967 2.167 5.431 5 5.91V17h2v-5.09c2.833-.479 5-2.943 5-5.91z"/></g></svg>
