<svg id="nc_icon" xmlns="http://www.w3.org/2000/svg" xml:space="preserve" viewBox="0 0 24 24"><path fill="currentColor" d="M23.4 4.3c-.2-.8-.7-1.5-1.4-2.3-.7-.7-1.5-1.2-2.3-1.4-1-.2-1.9 0-2.6.7-1 1-1.3 2.6-1.4 3.2-.1.5-.1 1.4.1 2.2l-1.6 1.6L12.8 7c-.4-.4-1-.4-1.4 0L10 8.4 8.5 7c-.4-.4-1-.4-1.4 0L4.3 9.8c-.2.2-.3.4-.3.7s.1.5.3.7L6.1 13c-.7.2-1.3.5-1.8 1-1.3 1.3-1.5 3.3-.6 4.8L.8 21.7c-.4.4-.4 1 0 1.4.2.2.5.3.7.3s.5-.1.7-.3l2.9-2.9c.6.4 1.3.6 2 .6 1 0 2-.4 2.8-1.2.5-.5.8-1.1 1-1.8l1.8 1.8c.2.2.5.3.7.3s.5-.1.7-.3l2.8-2.8c.2-.2.3-.4.3-.7s-.1-.5-.3-.7L15.6 14l1.4-1.4c.2-.2.3-.4.3-.7s-.1-.5-.3-.7l-1.4-1.4 1.6-1.6c.4.1.9.2 1.4.2.3 0 .7 0 .9-.1.6-.1 2.2-.4 3.2-1.4.7-.7 1-1.6.7-2.6zm-2.1 1.2c-.8.8-3.1 1-3.5.7-.3-.5-.1-2.8.7-3.6.2-.2.3-.2.5-.2h.3c.4.1.9.4 1.4.9.5.5.8 1 .9 1.4 0 .4-.1.6-.3.8z" class="nc-icon-wrapper"/></svg>
