<svg id="nc_icon" xmlns="http://www.w3.org/2000/svg" xml:space="preserve" viewBox="0 0 24 24"><g fill="currentColor" class="nc-icon-wrapper"><circle cx="19" cy="16" r="3"/><path d="M24 24H14v-1.084c0-.654.315-1.265.851-1.639C15.67 20.705 17.071 20 19 20s3.33.705 4.149 1.277c.536.375.851.986.851 1.639V24z"/><circle cx="5" cy="16" r="3"/><path d="M10 24H0v-1.084c0-.654.315-1.265.851-1.639C1.67 20.705 3.071 20 5 20s3.33.705 4.149 1.277c.536.375.851.986.851 1.639V24z"/><circle cx="12" cy="3" r="3" data-color="color-2"/><path d="M17 11H7V9.916c0-.654.315-1.265.851-1.639C8.67 7.705 10.071 7 12 7s3.33.705 4.149 1.277c.536.375.851.986.851 1.639V11z" data-color="color-2"/></g></svg>
