<svg id="nc_icon" xmlns="http://www.w3.org/2000/svg" xml:space="preserve" viewBox="0 0 24 24"><g fill="currentColor" class="nc-icon-wrapper"><path d="M24 7a1 1 0 0 0-1-1c-2.757 0-5-2.243-5-5a1 1 0 0 0-1-1c-3.195 0-6.261 2.118-6.923 6.169a6.502 6.502 0 0 0-4.113 2.928A4.828 4.828 0 0 0 5 9c-2.757 0-5 2.243-5 5s2.243 5 5 5h.179a3.012 3.012 0 0 1 .517-2.921l5-6a3 3 0 0 1 3.838-.657 2.987 2.987 0 0 1 1.252 3.691l-.355.887H16c1.158 0 2.225.678 2.717 1.727a3.015 3.015 0 0 1-.413 3.194l-.066.079H19c2.757 0 5-2.243 5-5 0-1.21-.45-2.307-1.168-3.172A6.908 6.908 0 0 0 24 7zm-2.747 2.561A4.937 4.937 0 0 0 19 9c-.628 0-1.243.118-1.82.346a6.489 6.489 0 0 0-5.045-3.303 4.932 4.932 0 0 1 3.95-3.959 7.017 7.017 0 0 0 5.831 5.832 4.909 4.909 0 0 1-.663 1.645z"/><path d="M16.906 16.576A1.002 1.002 0 0 0 16 16h-3.523l1.452-3.628a1 1 0 0 0-1.697-1.011l-5 6A1 1 0 0 0 8 19h3.523l-1.452 3.628A.998.998 0 0 0 11 24a1 1 0 0 0 .769-.36l5-6c.248-.298.301-.713.137-1.064z" data-color="color-2"/></g></svg>
