<svg id="nc_icon" xmlns="http://www.w3.org/2000/svg" xml:space="preserve" viewBox="0 0 24 24"><g fill="currentColor" class="nc-icon-wrapper"><path d="M12 20a1 1 0 0 0-1 1v2a1 1 0 1 0 2 0v-2a1 1 0 0 0-1-1zM7 21a1 1 0 1 0 2 0v-2H7v2zM15 21a1 1 0 1 0 2 0v-2h-2v2z" data-color="color-2"/><path d="M24 7a1 1 0 0 0-1-1c-2.757 0-5-2.243-5-5a1 1 0 0 0-1-1c-3.195 0-6.261 2.118-6.923 6.169a6.502 6.502 0 0 0-4.113 2.928A4.828 4.828 0 0 0 5 9c-2.757 0-5 2.243-5 5s2.243 5 5 5h2v-3a1 1 0 0 1 2 0v3h6v-3a1 1 0 0 1 2 0v3h2c2.757 0 5-2.243 5-5 0-1.21-.45-2.307-1.168-3.172A6.908 6.908 0 0 0 24 7zm-2.747 2.561A4.937 4.937 0 0 0 19 9c-.628 0-1.243.118-1.82.346a6.489 6.489 0 0 0-5.045-3.303 4.932 4.932 0 0 1 3.95-3.959 7.017 7.017 0 0 0 5.831 5.832 4.909 4.909 0 0 1-.663 1.645z"/></g></svg>
