<svg id="nc_icon" xmlns="http://www.w3.org/2000/svg" xml:space="preserve" viewBox="0 0 24 24"><g fill="currentColor" class="nc-icon-wrapper"><path d="M12 6a3 3 0 1 1 0-6 3 3 0 1 1 0 6z"/><path d="M4 19v-8c0-1.13.391-2.162 1.026-3H2a2 2 0 0 0-2 2v6h2v5a1 1 0 0 0 1 1h2a1 1 0 0 0 1-1v-2H4z" data-color="color-2"/><path d="M14 24h-4a1 1 0 0 1-1-1v-6H6v-6a3 3 0 0 1 3-3h6a3 3 0 0 1 3 3v6h-3v6a1 1 0 0 1-1 1z"/><path d="M4 7a2 2 0 1 1 0-4 2 2 0 1 1 0 4zM20 19v-8c0-1.13-.391-2.162-1.026-3H22a2 2 0 0 1 2 2v6h-2v5a1 1 0 0 1-1 1h-2a1 1 0 0 1-1-1v-2h2zM20 7a2 2 0 1 0 0-4 2 2 0 1 0 0 4z" data-color="color-2"/></g></svg>
