<svg id="nc_icon" xmlns="http://www.w3.org/2000/svg" xml:space="preserve" viewBox="0 0 24 24"><g fill="currentColor" class="nc-icon-wrapper"><path d="M13.537 14.992C11.949 14.334 10.086 14 8 14s-3.949.334-5.537.992A3.984 3.984 0 0 0 0 18.688V24h16v-5.312a3.984 3.984 0 0 0-2.463-3.696z"/><circle cx="8" cy="8" r="5"/><path d="M23.262 7.282C22.539 6.708 21.285 6 19.5 6s-3.039.708-3.762 1.282c-.473.375-.738.95-.738 1.554V10h9V8.836c0-.604-.265-1.179-.738-1.554z" data-color="color-2"/><circle cx="19.5" cy="2.5" r="2.5" data-color="color-2"/></g></svg>
