<svg id="nc_icon" xmlns="http://www.w3.org/2000/svg" xml:space="preserve" viewBox="0 0 24 24"><g fill="currentColor" class="nc-icon-wrapper"><path d="M8 0h8v4H8z" data-color="color-2"/><path d="M23 2h-5v3a1 1 0 0 1-1 1H7a1 1 0 0 1-1-1V2H1a1 1 0 0 0-1 1v18c0 .313.147.609.397.799.251.188.577.248.877.163l6.684-1.91 7.69 2.885a1.017 1.017 0 0 0 .494.053l7-1A1 1 0 0 0 24 21V3a1 1 0 0 0-1-1zM10.414 15 9 16.414l-2.707-2.707a.999.999 0 0 1 0-1.414L9 9.586 10.414 11l-2 2 2 2zm7.293-1.293L15 16.414 13.586 15l2-2-2-2L15 9.586l2.707 2.707a.999.999 0 0 1 0 1.414z"/></g></svg>
