<svg id="nc_icon" xmlns="http://www.w3.org/2000/svg" viewBox="0 0 24 24"><g fill="currentColor" class="nc-icon-wrapper"><path d="M11 24H2a1 1 0 0 1-1-1V1a1 1 0 0 1 1-1h18a1 1 0 0 1 1 1v7h-2V2H3v20h8Z"/><path d="M6 6h8v2H6zM6 11h8v2H6zM6 16h5v2H6z"/><path d="m18.609 15.128-.609.163-.609-.163c-2.66-.711-5.084 1.657-4.209 4.113l1.248 3.5a2 2 0 0 0 2.486 1.159L18 23.567l1.084.338a2 2 0 0 0 2.487-1.163l1.247-3.5c.875-2.457-1.549-4.825-4.209-4.114ZM18 14a3 3 0 0 0 3-3v-1a3 3 0 0 0-3 3Z" data-color="color-2"/></g></svg>
