<svg id="nc_icon" xmlns="http://www.w3.org/2000/svg" xml:space="preserve" viewBox="0 0 24 24"><g fill="currentColor" class="nc-icon-wrapper"><path d="M10.003 22c0-.347.069-.682.182-1H4a1 1 0 0 1-1-1V4a1 1 0 0 1 1-1h12a1 1 0 0 1 1 1v9.761l.672-.672A3.679 3.679 0 0 1 19 12.245V3c0-1.654-1.346-3-3-3H4C2.346 0 1 1.346 1 3v18c0 1.654 1.346 3 3 3h6.003v-2z"/><path d="m19.086 14.503-6.79 6.79a1 1 0 0 0-.293.707v2h2a1 1 0 0 0 .707-.293l6.79-6.79a1.706 1.706 0 1 0-2.414-2.414z" data-color="color-2"/></g></svg>
