<svg id="nc_icon" xmlns="http://www.w3.org/2000/svg" xml:space="preserve" viewBox="0 0 24 24"><g fill="currentColor" class="nc-icon-wrapper"><path d="M14.144 21H5a1 1 0 0 1-1-1V4a1 1 0 0 1 1-1h12a1 1 0 0 1 1 1v5.078c.332-.047.666-.078 1-.078s.668.031 1 .078V3c0-1.654-1.346-3-3-3H5C3.346 0 2 1.346 2 3v18c0 1.654 1.346 3 3 3h11.754a24.38 24.38 0 0 1-2.61-3z"/><path d="M19 11c-2.458 0-5 1.802-5 4.817 0 2.716 3.869 6.486 4.31 6.907l.69.658.69-.659c.441-.421 4.31-4.191 4.31-6.907C24 12.802 21.458 11 19 11zm0 6a1 1 0 1 1 0-2 1 1 0 0 1 0 2z" data-color="color-2"/></g></svg>
