<svg id="nc_icon" xmlns="http://www.w3.org/2000/svg" xml:space="preserve" viewBox="0 0 24 24"><g fill="currentColor" class="nc-icon-wrapper"><path d="M12.812 21H5a1 1 0 0 1-1-1V4a1 1 0 0 1 1-1h12a1 1 0 0 1 1 1v8c.702 0 1.373.128 2 .35V3c0-1.654-1.346-3-3-3H5C3.346 0 2 1.346 2 3v18c0 1.654 1.346 3 3 3h12c.122 0 .237-.022.355-.036A6.003 6.003 0 0 1 12.812 21z"/><path d="m23.707 22.293-2.274-2.274A3.947 3.947 0 0 0 22 18c0-2.206-1.794-4-4-4s-4 1.794-4 4 1.794 4 4 4c.74 0 1.424-.215 2.019-.567l2.274 2.274 1.414-1.414zM18 20c-1.103 0-2-.897-2-2s.897-2 2-2 2 .897 2 2-.897 2-2 2z" data-color="color-2"/></g></svg>
