<svg id="nc_icon" xmlns="http://www.w3.org/2000/svg" xml:space="preserve" viewBox="0 0 24 24"><g fill="currentColor" class="nc-icon-wrapper"><path d="M22 20c-.35 0-.674.098-.961.257l-2.042-1.225c0-.011.003-.021.003-.032s-.003-.021-.003-.032l2.042-1.225c.287.159.611.257.961.257 1.103 0 2-.897 2-2s-.897-2-2-2-2 .897-2 2c0 .011.003.021.003.032l-2.042 1.225A1.973 1.973 0 0 0 17 17c-1.103 0-2 .897-2 2s.897 2 2 2c.35 0 .674-.098.961-.257l2.042 1.225c0 .011-.003.021-.003.032 0 1.103.897 2 2 2s2-.897 2-2-.897-2-2-2z" data-color="color-2"/><path d="M13.294 21H5a1 1 0 0 1-1-1V4a1 1 0 0 1 1-1h12a1 1 0 0 1 1 1v8.294A6.99 6.99 0 0 1 20 12V3c0-1.654-1.346-3-3-3H5C3.346 0 2 1.346 2 3v18c0 1.654 1.346 3 3 3h10.106a6.983 6.983 0 0 1-1.812-3z"/></g></svg>
