<svg id="nc_icon" xmlns="http://www.w3.org/2000/svg" xml:space="preserve" viewBox="0 0 24 24"><g fill="currentColor" class="nc-icon-wrapper"><path d="m22.564 11.375-.812-1.107C22.519 9.39 23 8.255 23 7c0-2.757-2.243-5-5-5h-2.25S14.824.804 14.724.703C14.403.382 13.817 0 12.852 0c-1.901 0-4.57 1.488-6.967 3.885C4.38 5.389 3.194 7.053 2.544 8.569c-1.043 2.434-.348 3.647.159 4.154.029.029 10.672 7.841 10.672 7.841.365.331.821.477 1.334.477 1.571 0 3.675-1.371 5.318-3.015 2.181-2.18 3.881-5.169 2.537-6.651zM18 4c1.654 0 3 1.346 3 3 0 .589-.177 1.135-.471 1.599L17.156 4H18zM4.383 9.357c.544-1.27 1.606-2.749 2.916-4.059C9.565 3.032 11.766 2 12.852 2c.127 0 .355.015.458.117.161.161.223.813-.266 1.952-.544 1.27-1.606 2.749-2.916 4.058-2.268 2.267-4.468 3.299-5.553 3.299-.127 0-.356-.016-.458-.117-.161-.161-.222-.813.266-1.952z"/><path d="m4 15.24-.823 1.191C2.522 17.379 1 19.722 1 21c0 1.654 1.346 3 3 3s3-1.346 3-3c0-1.278-1.522-3.621-2.177-4.568L4 15.24z" data-color="color-2"/></g></svg>
