<svg id="nc_icon" xmlns="http://www.w3.org/2000/svg" xml:space="preserve" viewBox="0 0 24 24"><g fill="currentColor" class="nc-icon-wrapper"><path d="M3 8.272 1.586 9.686a2 2 0 0 0 0 2.828l2.828 2.828L.957 18.8c-1.025 1.025-1.273 2.659-.46 3.859a3.005 3.005 0 0 0 4.624.462l3.536-3.536 2.828 2.828a2 2 0 0 0 2.828 0L15.728 21 3 8.272z"/><path d="M22.799 13.929a1 1 0 0 0 0-1.414l-2.121-2.121-4.243 1.414 1.414-4.243-6.364-6.364a1 1 0 0 0-1.414 0L4.414 6.858l12.728 12.728 5.657-5.657z" data-color="color-2"/></g></svg>
