<svg id="nc_icon" xmlns="http://www.w3.org/2000/svg" xml:space="preserve" viewBox="0 0 24 24"><g fill="currentColor" class="nc-icon-wrapper"><path d="m5.556 18.444 4.151-4.151L6.414 11l3.293-3.293a.999.999 0 0 0 0-1.414l-5-5a.999.999 0 0 0-1.414 0L0 4.586c0 5.534 2.086 10.387 5.556 13.858zM17.707 14.293a.999.999 0 0 0-1.414 0L13 17.586l-1.172-1.172-3.962 3.962C11.053 22.663 15.011 24 19.414 24l3.293-3.293a.999.999 0 0 0 0-1.414l-5-5z"/><path d="M2 23a.999.999 0 0 1-.707-1.707l20-20a.999.999 0 1 1 1.414 1.414l-20 20A.997.997 0 0 1 2 23z" data-color="color-2"/></g></svg>
