<svg id="nc_icon" xmlns="http://www.w3.org/2000/svg" xml:space="preserve" viewBox="0 0 24 24"><g fill="currentColor" class="nc-icon-wrapper"><path d="M11 18c0-1.304.836-2.416 2-2.829V15c0-2.757 2.243-5 5-5 .306 0 .603.037.894.09A6.29 6.29 0 0 0 19 9c0-5.634-4.576-9-9-9S1 3.366 1 9c0 5.289 7.952 13.363 8.29 13.705a1 1 0 0 0 1.42 0c.031-.031.144-.147.29-.299V18zM7 9a3 3 0 1 1 6 0 3 3 0 0 1-6 0z"/><path d="M22 17h-1v-2c0-1.654-1.346-3-3-3s-3 1.346-3 3v2h-1a1 1 0 0 0-1 1v5a1 1 0 0 0 1 1h8a1 1 0 0 0 1-1v-5a1 1 0 0 0-1-1zm-5-2c0-.551.449-1 1-1s1 .449 1 1v2h-2v-2z" data-color="color-2"/></g></svg>
