<svg id="nc_icon" xmlns="http://www.w3.org/2000/svg" xml:space="preserve" viewBox="0 0 24 24"><g fill="currentColor" class="nc-icon-wrapper"><path d="M12 17.155c0-1.384.544-2.684 1.532-3.659A5.164 5.164 0 0 1 17.185 12c.169 0 .339.008.51.024.201.02.399.056.596.098C18.729 11.032 19 9.969 19 9c0-5.634-4.576-9-9-9S1 3.366 1 9c0 5.289 7.952 13.363 8.29 13.705a1 1 0 0 0 1.42 0 49.83 49.83 0 0 0 2.293-2.526A5.088 5.088 0 0 1 12 17.155zM10 12a3 3 0 1 1 0-6 3 3 0 0 1 0 6z"/><path d="M23.063 14.92a3.188 3.188 0 0 0-2.566-.904 3.193 3.193 0 0 0-1.498.549 3.197 3.197 0 0 0-4.064.355c-.602.596-.935 1.39-.935 2.235s.333 1.639.936 2.235L19 23.405l4.064-4.015c.603-.596.936-1.39.936-2.235s-.333-1.639-.937-2.235z" data-color="color-2"/></g></svg>
