<svg id="nc_icon" xmlns="http://www.w3.org/2000/svg" viewBox="0 0 24 24"><path fill="currentColor" d="m22.054 20.546-9.163-18c-.341-.67-1.441-.67-1.782 0l-9.163 18a.997.997 0 0 0 .474 1.363C5.444 23.297 8.667 24 12 24s6.556-.703 9.58-2.091a.997.997 0 0 0 .474-1.363zM15 13a1 1 0 1 1 0 2 1 1 0 0 1 0-2zm-3-5a1 1 0 1 1 0 2 1 1 0 0 1 0-2zm-2 6a1 1 0 1 1 0 2 1 1 0 0 1 0-2zm-5.788 6.503.891-1.751C7.309 19.564 9.62 20 12 20s4.691-.436 6.896-1.248l.891 1.751a21.083 21.083 0 0 1-15.575 0z" class="nc-icon-wrapper"/></svg>
