<svg id="nc_icon" xmlns="http://www.w3.org/2000/svg" xml:space="preserve" viewBox="0 0 24 24"><path fill="currentColor" d="M21.432 18.879c.671 1.603.696 2.642.368 2.971-.415.415-2.005.115-4.364-1.208A9.979 9.979 0 0 0 21 13c0-5.514-4.486-10-10-10a9.977 9.977 0 0 0-7.641 3.563C2.035 4.204 1.736 2.614 2.15 2.199c.329-.328 1.368-.303 2.971.368.758-.43 1.567-.771 2.415-1.03C4.433-.183 2.005-.486.735.784-.734 2.256.128 5.18 2.125 8.411A9.92 9.92 0 0 0 1 13c0 5.514 4.486 10 10 10a9.92 9.92 0 0 0 4.589-1.125c3.232 1.997 6.155 2.859 7.626 1.388 1.27-1.27.967-3.697-.753-6.801-.258.849-.6 1.659-1.03 2.417zM6.5 15a1.5 1.5 0 1 1 .001-3.001A1.5 1.5 0 0 1 6.5 15zm6.5 2a1 1 0 1 1 0-2 1 1 0 0 1 0 2zm-.5-6a1.5 1.5 0 1 1 .001-3.001A1.5 1.5 0 0 1 12.5 11z" class="nc-icon-wrapper"/></svg>
