<svg id="nc_icon" xmlns="http://www.w3.org/2000/svg" xml:space="preserve" viewBox="0 0 24 24"><g fill="currentColor" class="nc-icon-wrapper"><path d="M19 7c0-3.86-3.141-7-7-7S5 3.14 5 7c0 3.519 2.614 6.432 6 6.92V20h2v-6.08c3.386-.488 6-3.401 6-6.92z"/><path d="M15 16.118v1.998c4.146.331 6.656 1.293 6.986 1.883-.404.722-4.061 2-9.986 2-6.043 0-9.727-1.33-10.006-1.958.229-.586 2.76-1.586 7.006-1.925v-1.999c-4.204.321-9 1.365-9 3.883 0 3.158 7.543 4 12 4s12-.842 12-4c0-2.518-4.796-3.562-9-3.882z" data-color="color-2"/></g></svg>
