<svg id="nc_icon" xmlns="http://www.w3.org/2000/svg" xml:space="preserve" viewBox="0 0 24 24"><g fill="currentColor" class="nc-icon-wrapper"><path d="M15.814 10.413C14.447 10.139 13.164 10 12 10s-2.447.139-3.813.413C6.34 10.781 5 12.429 5 14.33V19h14v-4.67c0-1.901-1.34-3.549-3.186-3.917z"/><circle cx="12" cy="4" r="4"/><path d="M21 16.214v2.14c.691.303.968.55 1.006.603C21.727 19.67 18.043 21 12 21s-9.727-1.33-10.006-1.958c.038-.097.315-.365 1.006-.678v-2.15c-1.663.585-3 1.464-3 2.786 0 3.158 7.543 4 12 4s12-.842 12-4c0-1.322-1.337-2.201-3-2.786z" data-color="color-2"/></g></svg>
