<svg id="nc_icon" xmlns="http://www.w3.org/2000/svg" xml:space="preserve" viewBox="0 0 24 24"><g fill="currentColor" class="nc-icon-wrapper"><path d="M5 11V1a1 1 0 0 0-2 0v10h2z"/><path d="M13 3V1a1 1 0 0 0-2 0v2h2z" data-color="color-2"/><path d="M21 11V1a1 1 0 0 0-2 0v10h2zM4 13c-2.206 0-4 1.794-4 4 0 1.858 1.28 3.411 3 3.858V23a1 1 0 0 0 2 0v-2.142c1.72-.447 3-2 3-3.858 0-2.206-1.794-4-4-4z"/><path d="M16 9c0-2.206-1.794-4-4-4S8 6.794 8 9c0 1.858 1.28 3.411 3 3.858V23a1 1 0 0 0 2 0V12.858c1.72-.447 3-2 3-3.858z" data-color="color-2"/><path d="M24 17c0-2.206-1.794-4-4-4s-4 1.794-4 4c0 1.858 1.28 3.411 3 3.858V23a1 1 0 0 0 2 0v-2.142c1.72-.447 3-2 3-3.858z"/></g></svg>
