<svg id="nc_icon" xmlns="http://www.w3.org/2000/svg" xml:space="preserve" viewBox="0 0 24 24"><path fill="currentColor" d="M24 6V5c0-2.757-2.243-5-5-5H5C2.243 0 0 2.243 0 5v1a2 2 0 1 1 0 4v5a2 2 0 1 1 0 4c0 2.757 2.243 5 5 5h14c2.757 0 5-2.243 5-5a2 2 0 1 1 0-4v-5a2 2 0 1 1 0-4zM11 17a1 1 0 0 1-1 1H7a1 1 0 0 1-1-1v-3a1 1 0 0 1 1-1h3a1 1 0 0 1 1 1v3zm0-7a1 1 0 0 1-1 1H7a1 1 0 0 1-1-1V7a1 1 0 0 1 1-1h3a1 1 0 0 1 1 1v3zm7 7a1 1 0 0 1-1 1h-3a1 1 0 0 1-1-1v-3a1 1 0 0 1 1-1h3a1 1 0 0 1 1 1v3zm0-7a1 1 0 0 1-1 1h-3a1 1 0 0 1-1-1V7a1 1 0 0 1 1-1h3a1 1 0 0 1 1 1v3z" class="nc-icon-wrapper"/></svg>
