<svg id="nc_icon" xmlns="http://www.w3.org/2000/svg" xml:space="preserve" viewBox="0 0 24 24"><path fill="currentColor" d="M24 6c0-3.309-2.916-6-6.5-6-1.86 0-3.637.753-4.87 2.028a7.115 7.115 0 0 0-1.26 0C10.138.753 8.36 0 6.5 0 2.916 0 0 2.691 0 6c0 2.602 1.79 4.84 4.41 5.663a35.17 35.17 0 0 0 1.36 4.324l-2.622-.393a1 1 0 1 0-.296 1.978l3.832.575c.23.491.468.972.716 1.432l-3.568.608a.999.999 0 1 0 .336 1.97l4.358-.742C9.61 22.96 10.802 24 12 24s2.39-1.041 3.474-2.585l4.358.742a.995.995 0 0 0 1.153-.817.999.999 0 0 0-.817-1.153l-3.568-.608c.248-.46.487-.94.716-1.432l3.832-.575a1 1 0 0 0-.296-1.978l-2.622.393a35.17 35.17 0 0 0 1.36-4.324C22.21 10.84 24 8.603 24 6zM4 9c0 .103.004.214.012.332C2.782 8.607 2 7.375 2 6c0-2.206 2.019-4 4.5-4 .826 0 1.624.21 2.319.58C5.987 3.66 4 6.13 4 9zm4.5 3a1.5 1.5 0 1 1 0-3 1.5 1.5 0 0 1 0 3zm7 0a1.5 1.5 0 1 1 0-3 1.5 1.5 0 0 1 0 3zm-.319-9.42A4.94 4.94 0 0 1 17.5 2C19.981 2 22 3.794 22 6c0 1.375-.782 2.607-2.012 3.332.008-.118.012-.23.012-.332 0-2.87-1.987-5.34-4.819-6.42z" class="nc-icon-wrapper"/></svg>
