<svg id="nc_icon" xmlns="http://www.w3.org/2000/svg" xml:space="preserve" viewBox="0 0 24 24"><path fill="currentColor" d="M12 0C5.383 0 0 5.383 0 12s5.383 12 12 12 12-5.383 12-12S18.617 0 12 0zm4.501 18.063A7.002 7.002 0 0 1 13 19c-2.785 0-5.188-1.639-6.315-4H4v-2h2.08c-.047-.328-.08-.66-.08-1s.033-.672.08-1H4V9h2.685C7.812 6.639 10.215 5 13 5c1.23 0 2.44.324 3.5.937l.865.501-1.002 1.731-.865-.5A4.983 4.983 0 0 0 13 7c-1.627 0-3.061.793-3.974 2H13v2H8.101a4.995 4.995 0 0 0 0 2H13v2H9.026c.914 1.207 2.348 2 3.974 2 .879 0 1.743-.231 2.499-.668l.866-.5 1.001 1.731-.865.5z" class="nc-icon-wrapper"/></svg>
