<svg id="nc_icon" xmlns="http://www.w3.org/2000/svg" xml:space="preserve" viewBox="0 0 24 24"><g fill="currentColor" class="nc-icon-wrapper"><path d="m23.707 22.293-4.259-4.259A10.953 10.953 0 0 0 22 11c0-6.065-4.935-11-11-11S0 4.935 0 11s4.935 11 11 11c2.673 0 5.125-.961 7.034-2.552l4.259 4.259a.997.997 0 0 0 1.414 0 .999.999 0 0 0 0-1.414zM2 11c0-4.962 4.037-9 9-9s9 4.038 9 9-4.037 9-9 9-9-4.038-9-9z"/><circle cx="11" cy="8" r="3" data-color="color-2"/><path d="M16 16H6v-1.084c0-.654.315-1.265.851-1.639C7.67 12.705 9.071 12 11 12s3.33.705 4.149 1.277c.536.375.851.986.851 1.639V16z" data-color="color-2"/></g></svg>
