<svg id="nc_icon" xmlns="http://www.w3.org/2000/svg" xml:space="preserve" viewBox="0 0 24 24"><g fill="currentColor" class="nc-icon-wrapper"><path d="M3 3h3V1H2a1 1 0 0 0-1 1v4h2V3zM6 16v-2H3v-3H1v4a1 1 0 0 0 1 1h4zM21 14h-3v2h4a1 1 0 0 0 1-1v-4h-2v3zM22 1h-4v2h3v3h2V2a1 1 0 0 0-1-1z" data-color="color-2"/><path d="M12 14a5 5 0 0 0 5-5V8A5 5 0 0 0 7 8v1a5 5 0 0 0 5 5zM19.055 17.945A26.596 26.596 0 0 0 12 17c-2.89 0-5.316.464-7.055.945A4.005 4.005 0 0 0 2 21.805V24h20v-2.195a4.005 4.005 0 0 0-2.945-3.86z"/></g></svg>
