<svg id="nc_icon" xmlns="http://www.w3.org/2000/svg" xml:space="preserve" viewBox="0 0 24 24"><path fill="currentColor" d="M23 14v-4h-3.262a7.968 7.968 0 0 0-.852-2.058l2.306-2.306-2.828-2.828-2.306 2.306A7.968 7.968 0 0 0 14 4.262V1h-4v3.262a7.968 7.968 0 0 0-2.058.852L5.636 2.808 2.808 5.636l2.306 2.306A7.968 7.968 0 0 0 4.262 10H1v4h3.262c.189.732.477 1.422.852 2.058l-2.306 2.306 2.828 2.828 2.306-2.306a7.953 7.953 0 0 0 2.058.852V23h4v-3.262a7.968 7.968 0 0 0 2.058-.852l2.306 2.306 2.828-2.828-2.306-2.306A7.953 7.953 0 0 0 19.738 14H23zm-11 1a3 3 0 1 1 0-6 3 3 0 0 1 0 6z" class="nc-icon-wrapper"/></svg>
