<svg id="nc_icon" xmlns="http://www.w3.org/2000/svg" xml:space="preserve" viewBox="0 0 24 24"><path fill="currentColor" d="m22.42 8.092-4.69-.735-.265-4.008A1.725 1.725 0 0 0 16.3 1.86a2.034 2.034 0 0 0-2.159.429L9.239 7.183l-6.825.79A1.875 1.875 0 0 0 .908 9 1.6 1.6 0 0 0 1 10.547l2.411 3.813-3.142 4.826a1.6 1.6 0 0 0 .1 1.9 2.036 2.036 0 0 0 2.3.564l5.748-2.231 3.91 2.529a2.042 2.042 0 0 0 1.111.325 2.108 2.108 0 0 0 .747-.137 1.765 1.765 0 0 0 1.106-1.164l1.63-5.829 6.261-3.937a1.639 1.639 0 0 0 .783-1.736 1.81 1.81 0 0 0-1.545-1.378Z" class="nc-icon-wrapper"/></svg>
