<svg id="nc_icon" xmlns="http://www.w3.org/2000/svg" xml:space="preserve" viewBox="0 0 24 24"><g fill="currentColor" class="nc-icon-wrapper"><path d="M12 6a3 3 0 1 1 0-6 3 3 0 1 1 0 6zM14 21h-4a1 1 0 0 1-1-1v-5H7V9a2 2 0 0 1 2-2h6a2 2 0 0 1 2 2v6h-2v5a1 1 0 0 1-1 1z"/><path d="M17 17.271v2.019c2.738.327 4.284.862 4.837 1.217C20.935 21.099 17.573 22 12 22s-8.935-.901-9.837-1.493c.553-.355 2.099-.89 4.837-1.217v-2.019c-3.343.362-7 1.218-7 3.234C0 23.832 9.996 24 12 24s12-.168 12-3.495c0-2.016-3.657-2.872-7-3.234z" data-color="color-2"/></g></svg>
