<svg id="nc_icon" xmlns="http://www.w3.org/2000/svg" xml:space="preserve" viewBox="0 0 24 24"><path fill="currentColor" d="m18.2 9.6 3.7 1h.3c.4 0 .8-.3 1-.7.1-.5-.2-1.1-.7-1.2l-1.8-.5 1.3-.8c.5-.3.6-.9.4-1.4s-.9-.6-1.4-.4l-1.4.8.5-1.8c.1-.5-.2-1.1-.7-1.2-.5-.1-1.1.2-1.2.7l-1 3.7-4.2 2.5V5.4l2.7-2.7c.4-.4.4-1 0-1.4s-1-.4-1.4 0L13 2.6V1c0-.6-.4-1-1-1s-1 .4-1 1v1.6L9.7 1.3c-.4-.4-1-.4-1.4 0s-.4 1 0 1.4L11 5.4v4.9L6.8 7.8l-1-3.7c-.1-.5-.7-.8-1.2-.7-.6.2-.9.7-.7 1.3l.5 1.8L3 5.6c-.5-.2-1.1-.1-1.4.4s-.1 1.1.4 1.4l1.4.8-1.8.4c-.6.2-.9.7-.7 1.3.1.4.5.7 1 .7h.3l3.7-1L10 12l-4.2 2.4-3.7-1c-.5-.1-1.1.2-1.2.7-.1.5.2 1.1.7 1.2l1.8.5-1.4.8c-.5.3-.6.9-.4 1.4.2.3.5.5.9.5.2 0 .3 0 .5-.1l1.4-.8-.5 1.8c-.1.5.2 1.1.7 1.2h.3c.4 0 .8-.3 1-.7l1-3.7 4.2-2.4v4.9l-2.7 2.7c-.4.4-.4 1 0 1.4s1 .4 1.4 0l1.3-1.3V23c0 .6.4 1 1 1s1-.4 1-1v-1.6l1.3 1.3c.2.2.5.3.7.3s.5-.1.7-.3c.4-.4.4-1 0-1.4L13 18.6v-4.9l4.2 2.4 1 3.7c.1.4.5.7 1 .7h.3c.5-.1.8-.7.7-1.2l-.5-1.8 1.4.8c.2.1.3.1.5.1.3 0 .7-.2.9-.5.3-.5.1-1.1-.4-1.4l-1.4-.8 1.8-.5c.5-.1.8-.7.7-1.2-.1-.5-.7-.9-1.2-.7l-3.7 1L14 12l4.2-2.4z" class="nc-icon-wrapper"/></svg>
