<svg id="nc_icon" xmlns="http://www.w3.org/2000/svg" xml:space="preserve" viewBox="0 0 24 24"><g fill="currentColor" class="nc-icon-wrapper"><path d="M8 12c0-1.858 1.28-3.41 3-3.858V2H1a1 1 0 0 0-1 1v4h5v10H0v4a1 1 0 0 0 1 1h10v-6.142c-1.72-.447-3-2-3-3.858z"/><path d="M0 9h3v6H0z" data-color="color-2"/><path d="M19 17V7h5V3a1 1 0 0 0-1-1H13v6.142c1.72.447 3 2 3 3.858s-1.28 3.41-3 3.858V22h10a1 1 0 0 0 1-1v-4h-5z"/><circle cx="12" cy="12" r="2" data-color="color-2"/><path d="M21 9h3v6h-3z" data-color="color-2"/></g></svg>
