<svg id="nc_icon" xmlns="http://www.w3.org/2000/svg" xml:space="preserve" viewBox="0 0 24 24"><g fill="currentColor" class="nc-icon-wrapper"><path d="M23.868 1.186a.996.996 0 0 0-1.05-1.055c-4.195.219-7.593 1.493-10.306 3.17-3.287-1.201-6.941-.43-9.441 2.071a9.051 9.051 0 0 0-1.383 1.799c-.231.392-.167.892.155 1.215l2.882 2.882c-.784 1.297-1.154 2.183-1.167 2.216-.149.372-.062.797.221 1.08l5.657 5.657a1 1 0 0 0 1.086.219c.033-.013.912-.386 2.202-1.174l2.891 2.891a.995.995 0 0 0 1.215.154 8.994 8.994 0 0 0 1.799-1.383c2.522-2.522 3.288-6.193 2.059-9.49 1.67-2.706 2.944-6.088 3.18-10.252zm-13.51 17.129L5.68 13.638c.817-1.688 3.538-6.485 9.051-9.335l4.94 4.94c-2.855 5.503-7.627 8.245-9.313 9.072z"/><circle cx="14" cy="10" r="2" data-color="color-2"/><path d="M1.113 18.844a2.843 2.843 0 1 1 4.022 4.022C4.024 23.977 0 24 0 24s.002-4.046 1.113-5.156z" data-color="color-2"/></g></svg>
