<svg id="nc_icon" xmlns="http://www.w3.org/2000/svg" xml:space="preserve" viewBox="0 0 24 24"><g fill="currentColor" class="nc-icon-wrapper"><path d="M17.57 2.178a.998.998 0 0 0-.921-.115l-16 6C.259 8.21 0 8.583 0 9v6c0 .417.259.79.649.937L2 16.443V20a1 1 0 0 0 .835.986l6 1A1 1 0 0 0 10 21v-1.557l6.649 2.493a.994.994 0 0 0 .921-.114c.269-.187.43-.494.43-.822V3c0-.328-.161-.635-.43-.822zM8 19.819l-4-.667v-1.96l4 1.5v1.127z"/><path d="M20 11h4v2h-4zM18.428 7.134l3.466-2 1 1.732-3.466 2zM18.428 16.865l1-1.732 3.465 2-1 1.733z" data-color="color-2"/></g></svg>
