<svg id="nc_icon" xmlns="http://www.w3.org/2000/svg" xml:space="preserve" viewBox="0 0 24 24"><g fill="currentColor" class="nc-icon-wrapper"><path d="M16.3 16.5c-.3-.5-.9-.6-1.4-.4l-2 1.1V15c0-.6-.4-1-1-1s-1 .4-1 1v2.3l-2-1.1c-.5-.3-1.1-.1-1.4.4s.1 1 .5 1.3l2 1.1-2 1.1c-.5.3-.6.9-.4 1.4.3.3.6.5.9.5.2 0 .3 0 .5-.1l2-1.1V23c0 .6.4 1 1 1s1-.4 1-1v-2.3l2 1.1c.2.1.3.1.5.1.3 0 .7-.2.9-.5.3-.5.1-1.1-.4-1.4l-2-1 2-1.1c.4-.3.6-.9.3-1.4z" data-color="color-2"/><path d="M17 0c-3.2 0-5.9 2.1-6.7 5.1-1.8.4-3.4 1.4-4.3 3C5.6 8 5.3 8 5 8c-2.8 0-5 2.2-5 5s2.2 5 5 5h.7c-.3-.8-.2-1.7.2-2.5.6-.9 1.6-1.5 2.6-1.5.2 0 .4 0 .6.1.4-1.2 1.6-2.1 2.9-2.1s2.5.9 2.9 2.1c.2 0 .4-.1.6-.1 1.1 0 2.1.6 2.6 1.5.5.8.5 1.7.2 2.5h.7c2.8 0 5-2.2 5-5 0-1-.3-2-.8-2.8.5-1 .8-2.1.8-3.2 0-3.9-3.1-7-7-7zm.2 8.3c-1-1.8-2.7-3-4.8-3.3.8-1.8 2.5-3 4.6-3 2.8 0 5 2.2 5 5 0 .6-.1 1.2-.3 1.8C20.9 8.3 20 8 19 8c-.6 0-1.2.1-1.8.3z"/></g></svg>
