<svg id="nc_icon" xmlns="http://www.w3.org/2000/svg" xml:space="preserve" viewBox="0 0 24 24"><g fill="currentColor" class="nc-icon-wrapper"><path d="M11.2 15.8C10.4 16.9 9 18.7 9 20c0 1.9 1.5 3 3 3s3-1.1 3-3c0-1.3-1.4-3.1-2.2-4.1-.4-.5-1.2-.5-1.6-.1z" data-color="color-2"/><path d="M17 0c-3.2 0-5.9 2.1-6.7 5.1-1.8.4-3.4 1.4-4.3 3C5.6 8 5.3 8 5 8c-2.8 0-5 2.2-5 5s2.2 5 5 5h2.4c.4-.9 1-2 2.3-3.4.6-.7 1.4-1.1 2.3-1.1s1.7.4 2.3 1.1c1.2 1.5 1.9 2.6 2.3 3.4H19c2.8 0 5-2.2 5-5 0-1-.3-2-.8-2.8.5-1 .8-2.1.8-3.2 0-3.9-3.1-7-7-7zm.2 8.3c-1-1.8-2.7-3-4.8-3.3.8-1.8 2.5-3 4.6-3 2.8 0 5 2.2 5 5 0 .6-.1 1.2-.3 1.8C20.9 8.3 20 8 19 8c-.6 0-1.2.1-1.8.3z"/></g></svg>
