<svg id="nc_icon" xmlns="http://www.w3.org/2000/svg" xml:space="preserve" viewBox="0 0 24 24"><g fill="currentColor" class="nc-icon-wrapper"><path d="M12 5c-3.86 0-7 3.14-7 7 0 1.075.25 2.089.685 3H8c1.654 0 3 1.346 3 3 0 .314-.062.612-.152.897A7.06 7.06 0 0 0 12 19c3.86 0 7-3.14 7-7s-3.14-7-7-7z"/><path d="M8 19H1a1 1 0 0 1 0-2h7a1 1 0 0 1 0 2zM13 23H5a1 1 0 0 1 0-2h8a1 1 0 0 1 0 2z" data-color="color-2"/><path d="M11 0h2v3h-2zM2.807 4.222l1.414-1.414 2.122 2.121-1.415 1.414zM0 13v-2h3v2zM19.779 2.807l1.414 1.415-2.122 2.12-1.414-1.413zM24 11v2h-3v-2zM21.192 19.778l-1.414 1.414-2.121-2.121 1.414-1.414z"/></g></svg>
