<svg id="nc_icon" xmlns="http://www.w3.org/2000/svg" xml:space="preserve" viewBox="0 0 24 24"><g fill="currentColor" class="nc-icon-wrapper"><path d="M19.31 6v-.944l1.36-1.33c1.026-.995 1.462-1.4 1.462-1.98 0-.376-.182-.65-.72-.65-.56 0-.793.184-.793.904l-1.38-.122C19.249.264 20.477 0 21.543 0c1.574 0 2.132.67 2.132 1.624 0 .955-.66 1.584-1.4 2.295l-1.148 1.097h1.493c.1 0 .142-.02.162-.123l.142-.801H24V6h-4.69z" data-color="color-2"/><path d="M4 23v-1.604l2.63-.155c.31-.023.37-.111.37-.442V6H2.188c-.243 0-.31.022-.354.243L1.481 8H0V4h16v4h-1.481l-.353-1.757c-.044-.22-.111-.243-.354-.243H9v14.799c0 .31.038.398.37.42l2.63.177V23H4z"/></g></svg>
