<svg id="nc_icon" xmlns="http://www.w3.org/2000/svg" viewBox="0 0 24 24"><g fill="currentColor" class="nc-icon-wrapper"><path d="M4.06 22.658a1 1 0 0 0 1.88.684l1.234-3.395-2.452.892Z" data-color="color-2"/><path d="M23.94 10.658a1 1 0 0 0-1.282-.6l-1.211.44A5.943 5.943 0 0 0 22 8a6.006 6.006 0 0 0-6-6 5.943 5.943 0 0 0-2.5.553l.44-1.211a1 1 0 0 0-1.88-.684L6.505 15.934.658 18.06a1 1 0 0 0 .684 1.88l22-8a1 1 0 0 0 .598-1.282ZM8.958 15.042l1.627-4.475a6.024 6.024 0 0 0 2.848 2.848ZM16 10a2 2 0 1 1 2-2 2 2 0 0 1-2 2Z"/></g></svg>
