<svg id="nc_icon" xmlns="http://www.w3.org/2000/svg" viewBox="0 0 24 24"><g fill="currentColor" class="nc-icon-wrapper"><path d="M20 5.414V9a1 1 0 1 0 2 0V3a1 1 0 0 0-.618-.923A1 1 0 0 0 21 2h-6a1 1 0 1 0 0 2h3.586L7.753 14.833A4.966 4.966 0 0 0 5 14c-2.757 0-5 2.243-5 5s2.243 5 5 5 5-2.243 5-5a4.966 4.966 0 0 0-.833-2.753L20 5.414zM5 22c-1.654 0-3-1.346-3-3s1.346-3 3-3 3 1.346 3 3-1.346 3-3 3z"/><path d="M1.293 8.707a1 1 0 0 0 1.414 0L5 6.414l2.293 2.293a1 1 0 1 0 1.414-1.414L6.414 5l2.293-2.293a1 1 0 1 0-1.414-1.414L5 3.586 2.707 1.293a1 1 0 1 0-1.414 1.414L3.586 5 1.293 7.293a1 1 0 0 0 0 1.414zM20.414 19l2.293-2.293a1 1 0 1 0-1.414-1.414L19 17.586l-2.293-2.293a1 1 0 1 0-1.414 1.414L17.586 19l-2.293 2.293a1 1 0 1 0 1.414 1.414L19 20.414l2.293 2.293a1 1 0 1 0 1.414-1.414L20.414 19z" data-color="color-2"/></g></svg>
