<svg id="nc_icon" xmlns="http://www.w3.org/2000/svg" xml:space="preserve" viewBox="0 0 24 24"><g fill="currentColor" class="nc-icon-wrapper"><path d="m5 9.414 6-6 6 6V13h2V9a.996.996 0 0 0-.293-.707l-7-7a.999.999 0 0 0-1.414 0l-7 7A.996.996 0 0 0 3 9v14a1 1 0 0 0 1 1h9v-2H5V9.414z"/><circle cx="11" cy="10" r="2"/><path d="M21.361 16.631a2.199 2.199 0 0 0-3.361.333 2.199 2.199 0 0 0-3.361-.333 2.137 2.137 0 0 0 0 3.048L18 23l3.361-3.321a2.137 2.137 0 0 0 0-3.048z" data-color="color-2"/></g></svg>
