<svg id="nc_icon" xmlns="http://www.w3.org/2000/svg" xml:space="preserve" viewBox="0 0 24 24"><g fill="currentColor" class="nc-icon-wrapper"><circle cx="19" cy="14" r="3" data-color="color-2"/><path d="M14 14c0-2.757 2.243-5 5-5 1.467 0 2.776.647 3.692 1.658 1.84-3.19 1.756-6.807-.393-8.956C20.939.342 18.978-.23 16.784.083c-2.085.3-4.144 1.378-5.799 3.033-3.199 3.199-4 7.695-2.05 10.534l-2.193 2.194a1.03 1.03 0 0 0-1.414 0l-4.242 4.242a1 1 0 0 0 0 1.414L2.5 22.915a1 1 0 0 0 1.414 0l4.242-4.243a1 1 0 0 0 0-1.414l2.198-2.198c1.013.696 2.25 1.068 3.598 1.068.17 0 .347-.028.52-.04A4.948 4.948 0 0 1 14 14z"/></g></svg>
