<svg id="nc_icon" xmlns="http://www.w3.org/2000/svg" xml:space="preserve" viewBox="0 0 24 24"><g fill="currentColor" class="nc-icon-wrapper"><path d="M15 8V6c-1.2 0-2.266.542-3 1.382A3.975 3.975 0 0 0 9 6v2c1.103 0 2 .897 2 2v4c0 1.103-.897 2-2 2v2c1.2 0 2.266-.542 3-1.382.734.84 1.8 1.382 3 1.382v-2c-1.103 0-2-.897-2-2v-4c0-1.103.897-2 2-2z" data-color="color-2"/><path d="M23 6a1 1 0 0 0 1-1V1a1 1 0 0 0-1-1h-4a1 1 0 0 0-1 1v1H6V1a1 1 0 0 0-1-1H1a1 1 0 0 0-1 1v4a1 1 0 0 0 1 1h1v12H1a1 1 0 0 0-1 1v4a1 1 0 0 0 1 1h4a1 1 0 0 0 1-1v-1h12v1a1 1 0 0 0 1 1h4a1 1 0 0 0 1-1v-4a1 1 0 0 0-1-1h-1V6h1zm-3 12h-1a1 1 0 0 0-1 1v1H6v-1a1 1 0 0 0-1-1H4V6h1a1 1 0 0 0 1-1V4h12v1a1 1 0 0 0 1 1h1v12z"/></g></svg>
