<svg id="nc_icon" xmlns="http://www.w3.org/2000/svg" xml:space="preserve" viewBox="0 0 24 24"><path fill="currentColor" d="M23 5c0-2.2-1.8-4-4-4-.3 0-1.2 0-4.4 1.1-1.7.5-3.5.5-5.1 0C6.2 1 5.3 1 5 1 2.8 1 1 2.8 1 5c0 1.5.8 4.3 1 5.1l-1 10C1 21.7 2.3 23 3.9 23c.8 0 1.7-.4 2.4-1.3l3.9-4.6c.4-.5 1.1-1.1 1.8-1.1.4 0 1 .1 1.8 1.1l3.8 4.5c.7.9 1.5 1.3 2.4 1.3 1.6 0 2.9-1.3 2.9-3l-1-9.9c.3-.7 1.1-3.5 1.1-5zm-7.8 3.1c-1.1.2-2.1.4-3.2.4s-2.2-.1-3.2-.4c-.6-.1-.9-.7-.8-1.2.2-.6.7-.9 1.2-.8 1.8.4 3.7.4 5.5 0 .6-.1 1.1.2 1.3.8.1.5-.2 1.1-.8 1.2z" class="nc-icon-wrapper"/></svg>
