<svg id="nc_icon" xmlns="http://www.w3.org/2000/svg" xml:space="preserve" viewBox="0 0 24 24"><g fill="currentColor" class="nc-icon-wrapper"><path d="M23.707 22.293 21.3 19.886A4.46 4.46 0 0 0 22 17.5c0-2.481-2.019-4.5-4.5-4.5S13 15.019 13 17.5s2.019 4.5 4.5 4.5c.879 0 1.693-.263 2.386-.7l2.407 2.407 1.414-1.414zM15 17.5c0-1.379 1.121-2.5 2.5-2.5s2.5 1.121 2.5 2.5-1.121 2.5-2.5 2.5-2.5-1.121-2.5-2.5z" data-color="color-2"/><path d="M2 8v14a1 1 0 0 0 1 1h11.052A6.494 6.494 0 0 1 11 17.5c0-3.584 2.916-6.5 6.5-6.5 1.746 0 3.331.696 4.5 1.821V8H2zM23 1H1a1 1 0 0 0-1 1v3a1 1 0 0 0 1 1h22a1 1 0 0 0 1-1V2a1 1 0 0 0-1-1z"/></g></svg>
