<svg id="nc_icon" xmlns="http://www.w3.org/2000/svg" xml:space="preserve" viewBox="0 0 24 24"><g fill="currentColor" class="nc-icon-wrapper"><path d="M6.5 11h11c3 0 5.5-2.5 5.5-5.5S20.5 0 17.5 0h-11C3.5 0 1 2.5 1 5.5S3.5 11 6.5 11zm0-9C8.4 2 10 3.6 10 5.5S8.4 9 6.5 9 3 7.4 3 5.5 4.6 2 6.5 2z"/><path d="M17.5 13h-11c-3 0-5.5 2.5-5.5 5.5S3.5 24 6.5 24h11c3 0 5.5-2.5 5.5-5.5S20.5 13 17.5 13zm0 9c-1.9 0-3.5-1.6-3.5-3.5s1.6-3.5 3.5-3.5 3.5 1.6 3.5 3.5-1.6 3.5-3.5 3.5z" data-color="color-2"/></g></svg>
