<svg id="nc_icon" xmlns="http://www.w3.org/2000/svg" viewBox="0 0 24 24"><g fill="currentColor" class="nc-icon-wrapper"><path d="m8.414 17 3.585-3.586L15.585 17 12 20.585zM3.414 12l3.585-3.586L10.585 12 7 15.585zM8.414 7l3.585-3.585L15.585 7 12 10.586zM13.414 12l3.585-3.585L20.585 12 17 15.586z"/><path d="M20 1H4a3 3 0 0 0-3 3v16a3 3 0 0 0 3 3h16a3 3 0 0 0 3-3V4a3 3 0 0 0-3-3Zm1 3.414L18.414 7 21 9.586v4.828L18.414 17 21 19.586V20a1 1 0 0 1-1 1h-.414L17 18.414 14.414 21H9.586L7 18.414 4.414 21H4a1 1 0 0 1-1-1v-.414L5.586 17 3 14.414V9.586L5.586 7 3 4.414V4a1 1 0 0 1 1-1h.414L7 5.586 9.586 3h4.828L17 5.586 19.586 3H20a1 1 0 0 1 1 1Z"/></g></svg>
