<svg id="nc_icon" xmlns="http://www.w3.org/2000/svg" xml:space="preserve" viewBox="0 0 24 24"><g fill="currentColor" class="nc-icon-wrapper"><path d="m18.707 8.293-3-3a.999.999 0 0 0-1.414 0L12 7.586 16.414 12l2.293-2.293a.999.999 0 0 0 0-1.414z" data-color="color-2"/><path d="m10.586 9-9.293 9.293a.999.999 0 0 0 0 1.414l3 3a.997.997 0 0 0 1.414 0L15 13.414 10.586 9z"/><path d="M14 0h2v3h-2zM20.656 1.929l1.415 1.414-2.122 2.121-1.414-1.414zM24 8v2h-3V8zM22.072 14.657l-1.414 1.414-2.122-2.121 1.414-1.414zM7.93 3.343 9.342 1.93l2.122 2.121-1.414 1.414z" data-color="color-2"/></g></svg>
