<svg id="nc_icon" xmlns="http://www.w3.org/2000/svg" xml:space="preserve" viewBox="0 0 24 24"><g fill="currentColor" class="nc-icon-wrapper"><path d="M23 2c-.6 0-1 .4-1 1v2.5c-.6.3-1.3.5-2 .5-1.3 0-2.4-.6-3.2-1.6-.2-.3-.5-.4-.8-.4-.3 0-.6.1-.8.4-.8 1-1.9 1.6-3.2 1.6-1.3 0-2.4-.6-3.2-1.6-.2-.3-.5-.4-.8-.4-.3 0-.6.1-.8.4C6.4 5.4 5.3 6 4 6c-.7 0-1.4-.2-2-.5V3c0-.6-.4-1-1-1s-1 .4-1 1v18c0 .6.4 1 1 1h22c.6 0 1-.4 1-1V3c0-.6-.4-1-1-1zM11 17c0 .6-.4 1-1 1H6c-.6 0-1-.4-1-1v-6c0-.3.1-.5.3-.7s.4-.3.7-.3h4c.6 0 1 .4 1 1s-.4 1-1 1H7v1h3c.6 0 1 .4 1 1v3zm8 0c0 .6-.4 1-1 1h-4c-.6 0-1-.4-1-1v-6c0-.6.4-1 1-1h4c.6 0 1 .4 1 1v6z"/><path d="M15 12h2v4h-2zM7 15h2v1H7z"/></g></svg>
