<svg id="nc_icon" xmlns="http://www.w3.org/2000/svg" xml:space="preserve" viewBox="0 0 24 24"><g fill="currentColor" class="nc-icon-wrapper"><path d="M18.051 1H1a1 1 0 0 0-1 1v2h15.051l3-3z" data-color="color-2"/><path d="M18.994 9.956a4.852 4.852 0 0 1-1.433 3.427C16.487 14.456 14.374 15 11.28 15l-.331-.004-1.895-.051-.051-1.895c-.04-1.464.039-5.038 1.613-6.612.166-.164.351-.3.534-.438H0v16a1 1 0 0 0 1 1h22a1 1 0 0 0 1-1V6h-1.05l-3.956 3.956z"/><path d="M23.561.439a1.5 1.5 0 0 0-2.121 0l-6.655 6.655a2.9 2.9 0 0 0-2.753.758c-1.131 1.131-1.03 5.108-1.029 5.145.037.001 4.013.102 5.145-1.029a2.9 2.9 0 0 0 .758-2.753l6.655-6.655a1.501 1.501 0 0 0 0-2.121z" data-color="color-2"/></g></svg>
