<svg id="nc_icon" xmlns="http://www.w3.org/2000/svg" xml:space="preserve" viewBox="0 0 24 24"><g fill="currentColor" class="nc-icon-wrapper"><path d="m22.722 20.592-2.749-4.581A9.936 9.936 0 0 0 22 10c0-5.514-4.486-10-10-10S2 4.486 2 10a9.94 9.94 0 0 0 2.027 6.011l-2.749 4.581a1.979 1.979 0 0 0 .07 2.167c.452.654 1.22.974 2.003.831L12 22.017l8.648 1.572a1.974 1.974 0 0 0 2.003-.831c.453-.654.48-1.484.071-2.166zM12 2c4.411 0 8 3.589 8 8s-3.589 8-8 8-8-3.589-8-8 3.589-8 8-8z"/><path d="M12 6c-2.757 0-5 2.243-5 5s2.243 5 5 5 5-2.243 5-5-2.243-5-5-5zm0 6a1 1 0 1 1 0-2 1 1 0 0 1 0 2z" data-color="color-2"/></g></svg>
