<svg id="nc_icon" xmlns="http://www.w3.org/2000/svg" xml:space="preserve" viewBox="0 0 24 24"><path fill="currentColor" d="M23 5H8.616l6.798-3.09-.827-1.82L3.784 5H1a1 1 0 0 0-1 1v17a1 1 0 0 0 1 1h22a1 1 0 0 0 1-1V6a1 1 0 0 0-1-1zM12 20.415l-2.121-2.122.707-.707c.755-.755 2.073-.755 2.828 0l.707.707L12 20.415zm3.536-3.537-.707-.707c-1.511-1.511-4.146-1.511-5.657 0l-.707.707-1.415-1.414.707-.707C8.891 13.624 10.397 13 12 13s3.109.624 4.243 1.757l.707.707-1.414 1.414zm2.828-2.828-.707-.707C16.146 11.832 14.137 11 12 11s-4.146.832-5.657 2.343l-.707.707-1.414-1.414.707-.707C6.818 10.04 9.329 9 12 9s5.182 1.04 7.071 2.929l.707.707-1.414 1.414z" class="nc-icon-wrapper"/></svg>
