<svg id="nc_icon" xmlns="http://www.w3.org/2000/svg" xml:space="preserve" viewBox="0 0 24 24"><g fill="currentColor" class="nc-icon-wrapper"><path d="M3.224 12a1 1 0 0 1-.976-1.22 10.031 10.031 0 0 1 3.466-5.557 1 1 0 1 1 1.258 1.554 8.028 8.028 0 0 0-2.774 4.444 1 1 0 0 1-.974.779zM12 23c-1.563 0-3.06-.35-4.448-1.041a1 1 0 0 1 .89-1.791 8.055 8.055 0 0 0 7.225-.056 1 1 0 0 1 .919 1.776A10.018 10.018 0 0 1 12 23zM20.776 12a1 1 0 0 1-.974-.778 8.032 8.032 0 0 0-2.774-4.445 1 1 0 1 1 1.258-1.554 10.037 10.037 0 0 1 3.466 5.555A1 1 0 0 1 20.776 12z" data-color="color-2"/><path d="M12 8a4.96 4.96 0 0 1 2 .424V3a2 2 0 1 0-4 0v5.424A4.96 4.96 0 0 1 12 8zM21.66 16.268l-4.715-2.723a4.975 4.975 0 0 1-1.993 3.469l4.708 2.718a2 2 0 0 0 2-3.464zM7.055 13.545 2.34 16.268a2 2 0 0 0 2 3.464l4.708-2.718a4.975 4.975 0 0 1-1.993-3.469z"/><circle cx="12" cy="13" r="3"/></g></svg>
