<svg id="nc_icon" xmlns="http://www.w3.org/2000/svg" xml:space="preserve" viewBox="0 0 24 24"><path fill="currentColor" d="M21.998 1.934a1 1 0 0 0-1.623-.715L15.862 4.83C15.08 4.496 13.64 4 12 4s-3.08.496-3.862.83L3.625 1.22a1.002 1.002 0 0 0-1.623.714l-1 15a.999.999 0 0 0 .19.655c.18.247 4.251 5.736 9.808 6.35v-4.525l-1.707-1.707A.999.999 0 0 1 10 16h4a1 1 0 0 1 .707 1.707L13 19.414v4.524c5.557-.613 9.628-6.102 9.808-6.349a.999.999 0 0 0 .19-.655l-1-15zM7.5 13a1.5 1.5 0 1 1 0-3 1.5 1.5 0 0 1 0 3zm9 0a1.5 1.5 0 1 1 0-3 1.5 1.5 0 0 1 0 3z" class="nc-icon-wrapper"/></svg>
