<svg id="nc_icon" xmlns="http://www.w3.org/2000/svg" xml:space="preserve" viewBox="0 0 24 24"><g fill="none" stroke="currentColor" stroke-miterlimit="10" class="nc-icon-wrapper"><path stroke-linecap="square" d="M10 23V12.5a2.5 2.5 0 0 1 2.5-2.5h0a2.5 2.5 0 0 1 2.5 2.5V23M15 15v-.5a2.5 2.5 0 0 1 2.5-2.5h0a2.5 2.5 0 0 1 2.5 2.5V23M5 23v-8.5A2.5 2.5 0 0 1 7.5 12h0a2.5 2.5 0 0 1 2.5 2.5v.5" vector-effect="non-scaling-stroke"/><path d="M2 5h20" data-cap="butt" data-color="color-2" vector-effect="non-scaling-stroke"/><path stroke-linecap="square" d="M5 8 2 5l3-3" data-color="color-2" vector-effect="non-scaling-stroke"/></g></svg>
