<svg id="nc_icon" xmlns="http://www.w3.org/2000/svg" xml:space="preserve" viewBox="0 0 24 24"><g fill="none" class="nc-icon-wrapper"><path stroke="currentColor" stroke-miterlimit="10" d="M10 13c-2.824 0-5.329.638-6.975 1.193A2.99 2.99 0 0 0 1 17.032V21h8" data-cap="butt" vector-effect="non-scaling-stroke"/><path stroke="currentColor" stroke-linecap="square" stroke-miterlimit="10" d="M10 13h0c-2.761 0-5-3.239-5-6V6a5 5 0 0 1 5-5h0a5 5 0 0 1 5 5v1c0 2.761-2.239 6-5 6z" vector-effect="non-scaling-stroke"/><path stroke="currentColor" stroke-linecap="square" stroke-miterlimit="10" d="M23 15.817C23 18.183 19 22 19 22s-4-3.817-4-6.183C15 13.374 17.08 12 19 12s4 1.374 4 3.817z" data-color="color-2" vector-effect="non-scaling-stroke"/><circle cx="19" cy="16" r="1" data-color="color-2" data-stroke="none"/></g></svg>
