<svg id="nc_icon" xmlns="http://www.w3.org/2000/svg" xml:space="preserve" viewBox="0 0 24 24"><g fill="none" stroke="currentColor" stroke-linecap="square" stroke-miterlimit="10" class="nc-icon-wrapper"><path d="M16.39 4.782a2 2 0 0 0-2.83 0 2 2 0 1 0-2.828-2.828 1.979 1.979 0 0 0-.47.766l-6.6 13.376 2.12 2.122L16.39 7.61a2 2 0 0 0 0-2.829z" vector-effect="non-scaling-stroke"/><path d="M19.218 7.61a2 2 0 0 1 0 2.83 2 2 0 1 1 2.828 2.828 1.979 1.979 0 0 1-.766.47l-13.376 6.6-2.122-2.12L16.39 7.61a2 2 0 0 1 2.829 0zM13.561 4.782 4.722 17.157M19.218 10.439 6.843 19.278" vector-effect="non-scaling-stroke"/><path d="M2.247 21.753h0a3 3 0 0 1 0-4.243l1.414-1.414 4.243 4.243-1.414 1.414a3 3 0 0 1-4.243 0z" data-color="color-2" vector-effect="non-scaling-stroke"/></g></svg>
