<svg id="nc_icon" xmlns="http://www.w3.org/2000/svg" xml:space="preserve" viewBox="0 0 24 24"><g fill="none" stroke="currentColor" stroke-miterlimit="10" class="nc-icon-wrapper"><path d="M9 7.886A5 5 0 0 1 5.001 3C2.576 4.825 1 7.718 1 10.987c0 1.898.539 3.667 1.457 5.179A5.965 5.965 0 0 1 6 15c3 0 6 6 6 6s3-6 6-6c1.327 0 2.55.436 3.543 1.166A9.938 9.938 0 0 0 23 10.987C23 7.718 21.424 4.825 18.999 3A5 5 0 0 1 15 7.886" data-cap="butt" data-color="color-2" vector-effect="non-scaling-stroke"/><path stroke-linecap="square" d="M13 5h-2L9 3v5a3 3 0 1 0 6 0V3l-2 2z" vector-effect="non-scaling-stroke"/></g></svg>
