<svg id="nc_icon" xmlns="http://www.w3.org/2000/svg" xml:space="preserve" viewBox="0 0 24 24"><g fill="none" class="nc-icon-wrapper"><circle cx="12" cy="13" r="10" stroke="currentColor" stroke-linecap="square" stroke-miterlimit="10" vector-effect="non-scaling-stroke"/><path stroke="currentColor" stroke-miterlimit="10" d="M8.722 3.561A3.992 3.992 0 0 0 5 1a4 4 0 0 0-4 4c0 1.511.847 2.81 2.083 3.49M15.278 3.561A3.992 3.992 0 0 1 19 1a4 4 0 0 1 4 4c0 1.511-.847 2.81-2.083 3.49" data-cap="butt" vector-effect="non-scaling-stroke"/><path stroke="currentColor" stroke-linecap="square" stroke-miterlimit="10" d="m12 16 1-2h-2zM12 16v2M10 18h4" data-color="color-2" vector-effect="non-scaling-stroke"/><circle cx="9" cy="10" r="1" data-color="color-2" data-stroke="none"/><circle cx="15" cy="10" r="1" data-color="color-2" data-stroke="none"/></g></svg>
