<svg id="nc_icon" xmlns="http://www.w3.org/2000/svg" xml:space="preserve" viewBox="0 0 24 24"><g fill="none" stroke="currentColor" stroke-linecap="square" stroke-miterlimit="10" class="nc-icon-wrapper"><path d="M5 9v2c0 4 2 8 2 12h10c0-4 2-8 2-12V9" data-color="color-2" vector-effect="non-scaling-stroke"/><path d="M19 7c0-1.3-.9-2.5-2.1-2.8-.4-1.8-2-3.2-3.9-3.2S9.4 2.4 9.1 4.2c-.6-.2-1.3-.3-2-.1C5.8 4.5 5 5.8 5 7.2V9h4v4c0 1.1.9 2 2 2h0c1.1 0 2-.9 2-2V9h6V7z" vector-effect="non-scaling-stroke"/></g></svg>
