<svg id="nc_icon" xmlns="http://www.w3.org/2000/svg" xml:space="preserve" viewBox="0 0 24 24"><g fill="none" stroke="currentColor" stroke-miterlimit="10" class="nc-icon-wrapper"><path d="m2.879 9.172 3.117-3.91M21.121 9.172l-3.117-3.91M2.879 17.828l3.109 3.916M18.012 21.744l3.117-3.91" data-cap="butt" data-color="color-2" vector-effect="non-scaling-stroke"/><path stroke-linecap="square" d="M12 14v1" data-color="color-2" vector-effect="non-scaling-stroke"/><path d="M7 6.03 5 4.5a2.5 2.5 0 0 0-3 4l4 3.059v3.882L2 18.5a2.5 2.5 0 0 0 3 4l3.355-2.566a6 6 0 0 1 7.29 0L19 22.5a2.5 2.5 0 0 0 3-4l-4-3.059V11.56l4-3.06a2.5 2.5 0 0 0-3-4l-2 1.53" data-cap="butt" vector-effect="non-scaling-stroke"/><circle cx="12" cy="6" r="5" stroke-linecap="square" vector-effect="non-scaling-stroke"/></g></svg>
