<svg id="nc_icon" xmlns="http://www.w3.org/2000/svg" xml:space="preserve" viewBox="0 0 24 24"><g fill="none" stroke="currentColor" stroke-miterlimit="10" class="nc-icon-wrapper"><path stroke-linecap="square" d="M21 19v4H6v-4" data-color="color-2" vector-effect="non-scaling-stroke"/><path d="M10.95 10H17a4 4 0 0 0 4-4V5" data-cap="butt" vector-effect="non-scaling-stroke"/><path stroke-linecap="square" d="M6 8V4a3 3 0 0 1 3-3h9a3 3 0 0 1 3 3v15H6c-.562 0-3-.75-3-5v-3a3 3 0 0 1 3-3h2.5a2.5 2.5 0 0 1 2.5 2.5h0A2.5 2.5 0 0 1 8.5 13H8" vector-effect="non-scaling-stroke"/></g></svg>
