<svg id="nc_icon" xmlns="http://www.w3.org/2000/svg" xml:space="preserve" viewBox="0 0 24 24"><g fill="none" stroke="currentColor" stroke-miterlimit="10" class="nc-icon-wrapper"><path d="M12 7v16" data-cap="butt" vector-effect="non-scaling-stroke"/><path d="M1 13h3M4 5l2.1 2.1M20 5l-2.1 2.1M4 22l2.1-2.1M20 22l-2.1-2.1M20 13h3M9 3 7 1M15 3l2-2" data-cap="butt" data-color="color-2" vector-effect="non-scaling-stroke"/><path d="M15.9 5.2c2.5 1.6 4.1 4.7 4.1 8.3 0 5.2-3.6 9.5-8 9.5s-8-4.3-8-9.5c0-3.6 1.7-6.7 4.1-8.3" data-cap="butt" vector-effect="non-scaling-stroke"/><path stroke-linecap="square" d="M12 2c-2 0-3.7 1.5-4 3.5 0 0 2 1.5 4 1.5s4-1.5 4-1.5c-.3-2-2-3.5-4-3.5z" vector-effect="non-scaling-stroke"/></g></svg>
