<svg id="nc_icon" xmlns="http://www.w3.org/2000/svg" xml:space="preserve" viewBox="0 0 24 24"><g fill="none" stroke="currentColor" stroke-miterlimit="10" class="nc-icon-wrapper"><path stroke-linecap="square" d="M10 14H6a5 5 0 0 1-5-5V4h0a9 9 0 0 1 9 9v1zM6.5 21h0a3.5 3.5 0 0 0 3.5-3.5V14H6.5A3.5 3.5 0 0 0 3 17.5v0A3.5 3.5 0 0 0 6.5 21zM14 14h4a5 5 0 0 0 5-5V4h0a9 9 0 0 0-9 9v1zM17.5 21h0a3.5 3.5 0 0 1-3.5-3.5V14h3.5a3.5 3.5 0 0 1 3.5 3.5v0a3.5 3.5 0 0 1-3.5 3.5z" data-color="color-2" vector-effect="non-scaling-stroke"/><path d="M11.009 5.265C10.792 3.375 10.28 2.188 9 1M12.991 5.265C13.208 3.375 13.72 2.188 15 1" data-cap="butt" vector-effect="non-scaling-stroke"/><circle cx="12" cy="7" r="2" stroke-linecap="square" vector-effect="non-scaling-stroke"/><path stroke-linecap="square" d="M12 23h0a2 2 0 0 1-2-2V11a2 2 0 0 1 2-2h0a2 2 0 0 1 2 2v10a2 2 0 0 1-2 2z" vector-effect="non-scaling-stroke"/></g></svg>
