<svg id="nc_icon" xmlns="http://www.w3.org/2000/svg" xml:space="preserve" viewBox="0 0 24 24"><g fill="none" stroke="currentColor" stroke-linecap="square" stroke-miterlimit="10" class="nc-icon-wrapper"><path d="M1 5h22M1 10h22M23 10V3c0-1.1-.9-2-2-2H3c-1.1 0-2 .9-2 2v13c0 1.1.9 2 2 2h6" vector-effect="non-scaling-stroke"/><path d="M22.201 13.812A2.701 2.701 0 0 0 18 14.24a2.7 2.7 0 0 0-4.201-.428 2.803 2.803 0 0 0 0 3.919L18 22l4.202-4.269a2.804 2.804 0 0 0-.001-3.919z" data-color="color-2" vector-effect="non-scaling-stroke"/></g></svg>
