<svg id="nc_icon" xmlns="http://www.w3.org/2000/svg" xml:space="preserve" viewBox="0 0 24 24"><g fill="none" stroke="currentColor" stroke-miterlimit="10" class="nc-icon-wrapper"><path d="M11.964 16.874a2.49 2.49 0 0 1-3.96 1.63M12.036 16.874a2.49 2.49 0 0 0 3.96 1.63" data-cap="butt" data-color="color-2" vector-effect="non-scaling-stroke"/><circle cx="8" cy="12" r="1" stroke-linecap="square" data-color="color-2" vector-effect="non-scaling-stroke"/><circle cx="16" cy="12" r="1" stroke-linecap="square" data-color="color-2" vector-effect="non-scaling-stroke"/><path stroke-linecap="square" d="M10.724 15h2.552a.3.3 0 0 1 .212.512l-1.276 1.276a.3.3 0 0 1-.424 0l-1.276-1.276a.3.3 0 0 1 .212-.512z" data-color="color-2" vector-effect="non-scaling-stroke"/><path stroke-linecap="square" d="M12 23h0a9 9 0 0 1-9-9V2l5 4s1.812-1 4-1c2.187 0 4 1 4 1l5-4v12a9 9 0 0 1-9 9z" vector-effect="non-scaling-stroke"/></g></svg>
