<svg id="nc_icon" xmlns="http://www.w3.org/2000/svg" viewBox="0 0 24 24"><g fill="none" stroke="currentColor" stroke-miterlimit="10" class="nc-icon-wrapper"><path d="M3 18v1a3 3 0 0 0 3 3h12a3 3 0 0 0 3-3v-1M3 9a7 7 0 0 1 7-7h4a7 7 0 0 1 7 7" data-cap="butt" vector-effect="non-scaling-stroke"/><path stroke-linecap="square" d="M13 13H3c-1.1 0-2-.9-2-2h0c0-1.1.9-2 2-2h18c1.1 0 2 .9 2 2h0c0 1.1-.9 2-2 2h-2l-3 3-3-3z" data-color="color-2" vector-effect="non-scaling-stroke"/><path stroke-linecap="square" d="M3.5 13C2.1 13 1 14.1 1 15.5h0C1 16.9 2.1 18 3.5 18h17c1.4 0 2.5-1.1 2.5-2.5h0c0-1.4-1.1-2.5-2.5-2.5" data-color="color-2" vector-effect="non-scaling-stroke"/></g></svg>
