<svg id="nc_icon" xmlns="http://www.w3.org/2000/svg" xml:space="preserve" viewBox="0 0 24 24"><g fill="none" stroke="currentColor" stroke-miterlimit="10" class="nc-icon-wrapper"><path stroke-linecap="square" d="M6 19h12M12 19v-4" data-color="color-2" vector-effect="non-scaling-stroke"/><path d="M7.1 5.1C6.7 5 6.4 5 6 5c-2.8 0-5 2.2-5 5s2.2 5 5 5v8h12v-8c2.8 0 5-2.2 5-5s-2.2-5-5-5c-.4 0-.7 0-1.1.1" data-cap="butt" vector-effect="non-scaling-stroke"/><path stroke-linecap="square" d="M7.4 8C7.1 7.4 7 6.7 7 6c0-2.8 2.2-5 5-5s5 2.2 5 5c0 .7-.1 1.4-.4 2" vector-effect="non-scaling-stroke"/></g></svg>
