<svg id="nc_icon" xmlns="http://www.w3.org/2000/svg" viewBox="0 0 24 24"><g fill="none" stroke="currentColor" stroke-miterlimit="10" class="nc-icon-wrapper"><path d="m14.4 12.4 4.7-4.7c1 .6 2.3.5 3.1-.3 1-1 1-2.6 0-3.5-.4-.4-.9-.6-1.4-.7-.1-.5-.3-1-.7-1.4-1-1-2.6-1-3.5 0-.9.9-1 2.2-.3 3.1l-4.7 4.7" data-cap="butt" data-color="color-2" vector-effect="non-scaling-stroke"/><path stroke-linecap="square" d="M2.8 12.7c-2.3 2.3-2.3 6.1 0 8.5s6.1 2.3 8.5 0c1.6-1.6 2.1-3.8 1.5-5.8l2.3-2.3-4.2-4.2-2.3 2.3c-2-.6-4.2-.1-5.8 1.5z" vector-effect="non-scaling-stroke"/></g></svg>
