<svg id="nc_icon" xmlns="http://www.w3.org/2000/svg" xml:space="preserve" viewBox="0 0 24 24"><g fill="none" stroke="currentColor" stroke-miterlimit="10" class="nc-icon-wrapper"><path d="M19 20.486v-.745a3 3 0 0 0-1.512-2.605l-3.219-1.842M9.727 15.292l-3.215 1.844A3 3 0 0 0 5 19.741v.745" data-cap="butt" data-color="color-2" vector-effect="non-scaling-stroke"/><path stroke-linecap="square" d="M12 16h0a4 4 0 0 1-4-4v-2a4 4 0 0 1 4-4h0a4 4 0 0 1 4 4v2a4 4 0 0 1-4 4z" data-color="color-2" vector-effect="non-scaling-stroke"/><circle cx="12" cy="12" r="11" stroke-linecap="square" vector-effect="non-scaling-stroke"/></g></svg>
