<svg id="nc_icon" xmlns="http://www.w3.org/2000/svg" xml:space="preserve" viewBox="0 0 24 24"><g fill="none" stroke="currentColor" stroke-miterlimit="10" class="nc-icon-wrapper"><path d="M9.1 9.1C9.5 6.8 11.6 5 14 5c2.8 0 5 2.2 5 5 0 1.1-.4 2.2-1 3" data-cap="butt" data-color="color-2" vector-effect="non-scaling-stroke"/><path stroke-linecap="square" d="M23 10h-1M20.4 3.6l-.7.7M14 1v1M7.6 3.6l.7.7" data-color="color-2" vector-effect="non-scaling-stroke"/><path stroke-linecap="square" d="M18 13c-1.2 0-2.4.5-3.2 1.2C14 11.2 11.2 9 8 9c-3.9 0-7 3.1-7 7s3.1 7 7 7h10c2.8 0 5-2.2 5-5s-2.2-5-5-5z" vector-effect="non-scaling-stroke"/></g></svg>
