<svg id="nc_icon" xmlns="http://www.w3.org/2000/svg" xml:space="preserve" viewBox="0 0 24 24"><g fill="none" stroke="currentColor" stroke-miterlimit="10" class="nc-icon-wrapper"><path d="M2 15c0 1.8.5 3.5 1.3 4.9.3.6 1.1.7 1.6.2L10 15M22 15c0 1.8-.5 3.5-1.3 4.9-.3.6-1.1.7-1.6.2L14 15" data-cap="butt" data-color="color-2" vector-effect="non-scaling-stroke"/><path d="M4.2 7.2C2.5 9 1.3 11.3 1.1 13.9c-.1.6.4 1.1 1 1.1H22c.6 0 1.1-.5 1-1.1-.3-2.6-1.4-4.9-3.2-6.7" data-cap="butt" vector-effect="non-scaling-stroke"/><path d="m12 15 7.9-7.9c.4-.4.4-1.2-.1-1.5C17.6 4 14.9 3 12 3S6.4 4 4.2 5.6c-.5.4-.5 1.1-.1 1.5L12 15" data-cap="butt" vector-effect="non-scaling-stroke"/></g></svg>
