<svg id="nc_icon" xmlns="http://www.w3.org/2000/svg" viewBox="0 0 24 24"><g fill="none" stroke="currentColor" stroke-miterlimit="10" class="nc-icon-wrapper"><path d="m5 16 1 7h12l1-7" data-cap="butt" data-color="color-2" vector-effect="non-scaling-stroke"/><path stroke-linecap="square" d="M6.5 10A2.5 2.5 0 0 1 4 7.5h0A2.5 2.5 0 0 1 6.5 5H14a3.108 3.108 0 0 0 3-3 5.371 5.371 0 0 1 3 5h0a3 3 0 0 1-3 3M17 10h2a3 3 0 0 1 3 3h0a3 3 0 0 1-3 3H5a3 3 0 0 1-3-3h0a3 3 0 0 1 3-3h4" vector-effect="non-scaling-stroke"/></g></svg>
