<svg id="nc_icon" xmlns="http://www.w3.org/2000/svg" xml:space="preserve" viewBox="0 0 24 24"><g fill="none" stroke="currentColor" stroke-miterlimit="10" class="nc-icon-wrapper"><path d="M7.34 7H3a2 2 0 0 1-2-2V1M5 7V3M16.66 7H21a2 2 0 0 0 2-2V1M19 7V3" data-cap="butt" data-color="color-2" vector-effect="non-scaling-stroke"/><path d="M12 19v4M5.041 13H4a3 3 0 0 1-3-3h4.217M18.959 13H20a3 3 0 0 0 3-3h-4.217" data-cap="butt" vector-effect="non-scaling-stroke"/><path stroke-linecap="square" d="M5 12c0-4.418 2.582-6 7-6s7 1.582 7 6-2.582 11-7 11-7-6.582-7-11z" vector-effect="non-scaling-stroke"/><circle cx="12" cy="17" r="2" stroke-linecap="square" vector-effect="non-scaling-stroke"/><path stroke-linecap="square" d="M9 12h1M14 12h1" vector-effect="non-scaling-stroke"/></g></svg>
