<svg id="nc_icon" xmlns="http://www.w3.org/2000/svg" xml:space="preserve" viewBox="0 0 24 24"><g fill="none" stroke="currentColor" stroke-linecap="square" stroke-miterlimit="10" class="nc-icon-wrapper"><path d="M15 11h0a4 4 0 0 1-4-4V5a4 4 0 0 1 4-4h0a4 4 0 0 1 4 4v2a4 4 0 0 1-4 4z" vector-effect="non-scaling-stroke"/><path d="M1 10h6" data-color="color-2" vector-effect="non-scaling-stroke"/><path d="M23 23H7v-4.114c0-1.247.765-2.363 1.931-2.805C10.318 15.555 12.399 15 15 15s4.682.555 6.069 1.081A2.993 2.993 0 0 1 23 18.886V23z" vector-effect="non-scaling-stroke"/></g></svg>
