<svg id="nc_icon" xmlns="http://www.w3.org/2000/svg" xml:space="preserve" viewBox="0 0 24 24"><g fill="none" stroke="currentColor" stroke-linecap="square" stroke-miterlimit="10" class="nc-icon-wrapper"><circle cx="12" cy="12" r="3" data-color="color-2" vector-effect="non-scaling-stroke"/><path d="M23 12a3.99 3.99 0 0 0-2.295-3.606c.503-1.41.202-3.043-.927-4.172s-2.762-1.43-4.172-.927C14.964 1.942 13.596 1 12 1s-2.964.942-3.606 2.295c-1.41-.503-3.043-.202-4.172.927s-1.43 2.762-.927 4.172A3.99 3.99 0 0 0 1 12a3.99 3.99 0 0 0 2.295 3.606 3.99 3.99 0 0 0 .927 4.172 3.99 3.99 0 0 0 4.172.927C9.036 22.058 10.404 23 12 23s2.964-.942 3.606-2.295a3.99 3.99 0 0 0 4.172-.927 3.99 3.99 0 0 0 .927-4.172A3.99 3.99 0 0 0 23 12z" vector-effect="non-scaling-stroke"/></g></svg>
