<svg id="nc_icon" xmlns="http://www.w3.org/2000/svg" xml:space="preserve" viewBox="0 0 24 24"><g fill="none" stroke="currentColor" stroke-linecap="square" stroke-miterlimit="10" class="nc-icon-wrapper"><path d="M23 23H1V1h8l3 4h11z" vector-effect="non-scaling-stroke"/><path d="M14 18.836c0-.604-.265-1.179-.738-1.554C12.539 16.708 11.285 16 9.5 16s-3.039.708-3.762 1.282c-.473.375-.738.95-.738 1.554V20h9v-1.164z" data-color="color-2" vector-effect="non-scaling-stroke"/><circle cx="9.5" cy="10.5" r="2.5" data-color="color-2" vector-effect="non-scaling-stroke"/><path d="M17 20h2v-1.164c0-.604-.265-1.179-.738-1.554a5.897 5.897 0 0 0-2.264-1.105M14.996 8.049A2.501 2.501 0 0 1 15 12.95" data-color="color-2" vector-effect="non-scaling-stroke"/></g></svg>
