<svg id="nc_icon" xmlns="http://www.w3.org/2000/svg" xml:space="preserve" viewBox="0 0 24 24"><g fill="none" stroke="currentColor" stroke-linecap="square" stroke-miterlimit="10" class="nc-icon-wrapper"><path d="M17 6V3M11 18v2c0 1.7 1.3 3 3 3h0c1.7 0 3-1.3 3-3v-2M5 6V4c0-1.7 1.3-3 3-3h0c1.7 0 3 1.3 3 3v2" data-color="color-2" vector-effect="non-scaling-stroke"/><path d="M1 6h22v12H1z" vector-effect="non-scaling-stroke"/><path d="M4 10h1M9 10h1M14 10h1M19 10h1M4 14h1M9 14h6M19 14h1" data-color="color-2" vector-effect="non-scaling-stroke"/></g></svg>
