<svg id="nc_icon" xmlns="http://www.w3.org/2000/svg" xml:space="preserve" viewBox="0 0 24 24"><g fill="none" stroke="currentColor" stroke-linecap="square" stroke-miterlimit="10" class="nc-icon-wrapper"><path d="M3 14V4a1 1 0 0 1 1-1h16a1 1 0 0 1 1 1v6M9 18H1v0a3 3 0 0 0 3 3h5" vector-effect="non-scaling-stroke"/><circle cx="18" cy="18" r="3" data-color="color-2" vector-effect="non-scaling-stroke"/><path d="M18 15v-2M20.121 15.879l1.415-1.415M21 18h2M20.121 20.121l1.415 1.415M18 21v2M15.879 20.121l-1.415 1.415M15 18h-2M15.879 15.879l-1.415-1.415" data-color="color-2" vector-effect="non-scaling-stroke"/></g></svg>
