<svg id="nc_icon" xmlns="http://www.w3.org/2000/svg" xml:space="preserve" viewBox="0 0 24 24"><g fill="none" stroke="currentColor" stroke-miterlimit="10" class="nc-icon-wrapper"><path d="M11 11.6V14c0 5-2.7 8.4-5.7 8-3-.4-4.6-5-3.9-10S5.1 4 8 4c.8 0 1.6.3 2 1M13 11.6V14c0 5 2.7 8.4 5.7 8 3-.4 4.6-5 3.9-10S18.9 4 16 4c-.8 0-1.6.3-2 1" data-cap="butt" vector-effect="non-scaling-stroke"/><path stroke-linecap="square" d="M18 9c-2.2 0-4-1.8-4-4V1M6 13h0c3.8-1.9 8.2-1.9 12 0h0M10 1v4c0 2.2-1.8 4-4 4h0" vector-effect="non-scaling-stroke"/></g></svg>
