<svg id="nc_icon" xmlns="http://www.w3.org/2000/svg" xml:space="preserve" viewBox="0 0 24 24"><path fill="none" stroke="currentColor" stroke-linecap="square" stroke-miterlimit="10" d="M21.492 17.614c-1.842-.47-4.791-1.22-5.4-1.368-.887-.215-1.505-.741-1.75-1.633-.295-1.076-.203-1.969.682-2.641A4.979 4.979 0 0 0 17 8V6.215c0-2.611-1.909-4.943-4.509-5.191A5 5 0 0 0 7 6v2c0 1.623.777 3.06 1.977 3.971.885.672.977 1.565.682 2.641-.245.893-.863 1.418-1.75 1.633-.61.148-3.558.898-5.4 1.368a1.988 1.988 0 0 0-1.502 1.936c.002.632.003 1.451.003 2.449h21.982c0-.998.001-1.817.003-2.449a1.991 1.991 0 0 0-1.503-1.935z" class="nc-icon-wrapper" vector-effect="non-scaling-stroke"/></svg>
