<svg id="nc_icon" xmlns="http://www.w3.org/2000/svg" xml:space="preserve" viewBox="0 0 24 24"><g fill="none" stroke="currentColor" stroke-miterlimit="10" class="nc-icon-wrapper"><path d="M14.203 14.661 17 10M15.944 17.326C17.02 16.614 18.909 15.523 21 15c-.625-2.188-.223-5.958 1-7-1.063-2.188-1-5-1-5s-2.75 1.333-6 1c-.208 1.958-3.042 4.792-5 5 .519 1.759.798 3.96.921 5.147" data-cap="butt" data-color="color-2" vector-effect="non-scaling-stroke"/><path d="M8.186 16.79C7.096 16.148 5.603 15.4 4 15c.656-2.344-.656-5.969-2-7 1.531-2.094 1-5 1-5s2.937 1 6 0c.423 1.69 1.854 3.509 3.524 4.732" data-cap="butt" data-color="color-2" vector-effect="non-scaling-stroke"/><circle cx="12" cy="18" r="4" stroke-linecap="square" vector-effect="non-scaling-stroke"/></g></svg>
