<svg id="nc_icon" xmlns="http://www.w3.org/2000/svg" xml:space="preserve" viewBox="0 0 24 24"><g fill="none" class="nc-icon-wrapper"><path stroke="currentColor" stroke-miterlimit="10" d="M12.992 9.737 15.2 11.4c.504.378.8.97.8 1.6v1H8v-1c0-.63.296-1.222.8-1.6l2.208-1.663" data-cap="butt" data-color="color-2" vector-effect="non-scaling-stroke"/><circle cx="12" cy="19" r="1" data-color="color-2" data-stroke="none"/><path stroke="currentColor" stroke-linecap="square" stroke-miterlimit="10" d="M12 10h0a2 2 0 0 1-2-2V7a2 2 0 0 1 2-2h0a2 2 0 0 1 2 2v1a2 2 0 0 1-2 2z" data-color="color-2" vector-effect="non-scaling-stroke"/><path stroke="currentColor" stroke-linecap="square" stroke-miterlimit="10" d="M18 23H6a2 2 0 0 1-2-2V3a2 2 0 0 1 2-2h12a2 2 0 0 1 2 2v18a2 2 0 0 1-2 2z" vector-effect="non-scaling-stroke"/></g></svg>
