<svg id="nc_icon" xmlns="http://www.w3.org/2000/svg" xml:space="preserve" viewBox="0 0 24 24"><g fill="none" stroke="currentColor" stroke-miterlimit="10" class="nc-icon-wrapper"><path d="m9.35 13.001 3.665 6.25a2 2 0 1 1-3.451 2.023L4.71 12.997" data-cap="butt" data-color="color-2" vector-effect="non-scaling-stroke"/><path d="M19 1a7.99 7.99 0 0 0-6.921 4H4C2.895 5 1 6.791 1 9s1.895 4 3 4h8.079A7.99 7.99 0 0 0 19 17" data-cap="butt" vector-effect="non-scaling-stroke"/><path d="M15.528 5.025C17.502 5.27 19 6.96 19 9a3.977 3.977 0 0 1-3.475 3.966" data-cap="butt" vector-effect="non-scaling-stroke"/><ellipse cx="19" cy="9" stroke-linecap="square" rx="4" ry="8" vector-effect="non-scaling-stroke"/></g></svg>
