<svg id="nc_icon" xmlns="http://www.w3.org/2000/svg" xml:space="preserve" viewBox="0 0 24 24"><g fill="none" stroke="currentColor" stroke-miterlimit="10" class="nc-icon-wrapper"><path stroke-linecap="square" d="M7 23H4V12h3M17 23h3V12h-3" data-color="color-2" vector-effect="non-scaling-stroke"/><path stroke-linecap="square" d="M12 3V1" vector-effect="non-scaling-stroke"/><path d="M8.1 7.9C8 7.6 8 7.3 8 7c0-2.2 1.8-4 4-4s4 1.8 4 4c0 .3 0 .6-.1.9" data-cap="butt" vector-effect="non-scaling-stroke"/><path stroke-linecap="square" d="M12 6h0c-2.8 0-5 2.2-5 5v12h10V11c0-2.8-2.2-5-5-5zM11 14h2M11 11h2M11 17h2M11 20h2" vector-effect="non-scaling-stroke"/></g></svg>
