<svg id="nc_icon" xmlns="http://www.w3.org/2000/svg" viewBox="0 0 24 24"><g fill="none" stroke="currentColor" stroke-linecap="square" stroke-miterlimit="10" class="nc-icon-wrapper"><path d="M9 18.8A6.455 6.455 0 0 1 7 14a6.455 6.455 0 0 1 2-4.8M15 18.8a6.455 6.455 0 0 0 2-4.8 6.455 6.455 0 0 0-2-4.8" data-color="color-2" vector-effect="non-scaling-stroke"/><path d="M14 2.256V1h-4v1.256a3.949 3.949 0 0 1-2.342 3.635A8.979 8.979 0 0 0 2 14c0 4.971 4.477 9 10 9s10-4.029 10-9a8.978 8.978 0 0 0-5.658-8.109A3.95 3.95 0 0 1 14 2.256Z" vector-effect="non-scaling-stroke"/></g></svg>
