<svg id="nc_icon" xmlns="http://www.w3.org/2000/svg" xml:space="preserve" viewBox="0 0 24 24"><g fill="none" class="nc-icon-wrapper"><path stroke="currentColor" stroke-linecap="square" stroke-miterlimit="10" d="M12 23H5a2 2 0 0 1-2-2V3a2 2 0 0 1 2-2h12a2 2 0 0 1 2 2v8" vector-effect="non-scaling-stroke"/><circle cx="11" cy="18" r="1" data-stroke="none"/><path stroke="currentColor" stroke-linecap="square" stroke-miterlimit="10" d="M22.361 15.631a2.199 2.199 0 0 0-3.361.333 2.199 2.199 0 0 0-3.361-.333 2.137 2.137 0 0 0 0 3.048L19 22l3.361-3.321a2.137 2.137 0 0 0 0-3.048z" data-color="color-2" vector-effect="non-scaling-stroke"/></g></svg>
