<svg id="nc_icon" xmlns="http://www.w3.org/2000/svg" viewBox="0 0 24 24"><g fill="none" stroke="currentColor" stroke-miterlimit="10" class="nc-icon-wrapper"><path d="M11 12.988c.329.008.663.012 1 .012 6.075 0 11-1.343 11-3V6M1 6v4c0 1.166 2.438 2.176 6 2.673" data-cap="butt" vector-effect="non-scaling-stroke"/><path d="M10.743 16.981c.412.012.832.019 1.257.019 6.075 0 11-1.343 11-3v-4M1 10v4c0 1.179 2.494 2.2 6.123 2.69" data-cap="butt" vector-effect="non-scaling-stroke"/><path d="M1 14v4c0 1.657 4.925 3 11 3s11-1.343 11-3v-4" data-cap="butt" vector-effect="non-scaling-stroke"/><path d="M12 3C5.925 3 1 4.343 1 6c0 1.165 2.441 2.173 6 2.67V16a2 2 0 0 0 4 0V8.986c.33.008.662.014 1 .014 6.075 0 11-1.343 11-3s-4.925-3-11-3Z" data-cap="butt" data-color="color-2" vector-effect="non-scaling-stroke"/></g></svg>
