<svg id="nc_icon" xmlns="http://www.w3.org/2000/svg" xml:space="preserve" viewBox="0 0 24 24"><g fill="none" stroke="currentColor" stroke-miterlimit="10" class="nc-icon-wrapper"><path stroke-linecap="square" d="M10 17h4a.5.5 0 0 1 .4.8l-2 2.667a.5.5 0 0 1-.8 0l-2-2.667a.5.5 0 0 1 .4-.8zM8.081 8.177c1.231 0 1.65.955 1.828 1.65s.162 1.068-.68 2.265c-.84 1.198-1.666 2.039-2.604 2.039s-1.699-1.213-1.683-2.33 1.44-3.624 3.139-3.624zM15.919 8.177c-1.231 0-1.65.955-1.828 1.65s-.162 1.068.68 2.265c.84 1.198 1.666 2.039 2.604 2.039.938 0 1.699-1.213 1.683-2.33-.016-1.116-1.44-3.624-3.139-3.624z" data-color="color-2" vector-effect="non-scaling-stroke"/><path d="M3.644 6.98A3 3 0 0 1 4 1c1.447 0 2.723 1.156 3.006 2.519M20.356 6.98A3 3 0 0 0 20 1c-1.447 0-2.723 1.156-3.006 2.519" data-cap="butt" vector-effect="non-scaling-stroke"/><path stroke-linecap="square" d="M21.901 10C20.655 6.71 17.468 2 12 2s-8.655 4.71-9.9 8C-.033 15.625-.102 23 12 23s12.032-7.375 9.901-13z" vector-effect="non-scaling-stroke"/></g></svg>
