<svg id="nc_icon" xmlns="http://www.w3.org/2000/svg" xml:space="preserve" viewBox="0 0 24 24"><g fill="none" stroke="currentColor" stroke-miterlimit="10" class="nc-icon-wrapper"><path d="M13 23h10v-8.8a2 2 0 0 0-1.059-1.765l-4.007-2.15M13.077 10.292l-2.35 1.253" data-cap="butt" data-color="color-2" vector-effect="non-scaling-stroke"/><path stroke-linecap="square" d="M15.5 11h0A4.5 4.5 0 0 1 11 6.5v-1A4.5 4.5 0 0 1 15.5 1h0A4.5 4.5 0 0 1 20 5.5v1a4.5 4.5 0 0 1-4.5 4.5z" data-color="color-2" vector-effect="non-scaling-stroke"/><path d="m4.592 17.195-2.487 1.253A1.999 1.999 0 0 0 1 20.236V23h12v-2.764a2 2 0 0 0-1.106-1.789l-2.487-1.253" data-cap="butt" vector-effect="non-scaling-stroke"/><path stroke-linecap="square" d="M7 18h0a4 4 0 0 1-4-4v-1a4 4 0 0 1 4-4h0a4 4 0 0 1 4 4v1a4 4 0 0 1-4 4z" vector-effect="non-scaling-stroke"/></g></svg>
