<svg id="nc_icon" xmlns="http://www.w3.org/2000/svg" xml:space="preserve" viewBox="0 0 24 24"><g fill="none" stroke="currentColor" stroke-linecap="square" stroke-miterlimit="10" class="nc-icon-wrapper"><path d="M9.33 6.842h0a2 2 0 0 0 1.347-2.487l-.57-1.917A2 2 0 0 0 7.62 1.091h0a2 2 0 0 0-1.347 2.487l.57 1.917A2 2 0 0 0 9.33 6.842zM14.67 6.842h0a2 2 0 0 1-1.347-2.487l.57-1.917a2 2 0 0 1 2.487-1.347h0a2 2 0 0 1 1.347 2.487l-.57 1.917a2 2 0 0 1-2.487 1.347zM4.72 10.239h0a2 2 0 0 0 .222-2.82l-.421-.493a2 2 0 0 0-2.82-.221h0a2 2 0 0 0-.222 2.82l.422.493a2 2 0 0 0 2.82.221zM19.28 10.239h0a2 2 0 0 1-.222-2.82l.421-.493a2 2 0 0 1 2.82-.221h0a2 2 0 0 1 .222 2.82l-.422.493a2 2 0 0 1-2.82.221z" data-color="color-2" vector-effect="non-scaling-stroke"/><path d="m7.098 13.496-2.266 3.74c-1.89 3.119 1.345 6.793 4.84 5.496l.196-.073a6.14 6.14 0 0 1 4.264 0l.197.073c3.494 1.297 6.73-2.377 4.84-5.496l-2.267-3.74c-2.359-3.328-7.445-3.328-9.804 0z" vector-effect="non-scaling-stroke"/></g></svg>
