<svg id="nc_icon" xmlns="http://www.w3.org/2000/svg" xml:space="preserve" viewBox="0 0 24 24"><g fill="none" stroke="currentColor" stroke-miterlimit="10" class="nc-icon-wrapper"><path stroke-linecap="square" d="M18 9h-1a5 5 0 0 0-5 5v2h1a5 5 0 0 0 5-5V9zM6 4h1a5 5 0 0 1 5 5v2h-1a5 5 0 0 1-5-5V4z" data-color="color-2" vector-effect="non-scaling-stroke"/><path d="M12 19.126V1" data-cap="butt" data-color="color-2" vector-effect="non-scaling-stroke"/><path stroke-linecap="square" d="M1 23h5a2 2 0 0 1 2-2c.499 0 .95.19 1.3.491A3.997 3.997 0 0 1 17 23h6" vector-effect="non-scaling-stroke"/></g></svg>
