<svg id="nc_icon" xmlns="http://www.w3.org/2000/svg" xml:space="preserve" viewBox="0 0 24 24"><g fill="none" stroke="currentColor" stroke-miterlimit="10" class="nc-icon-wrapper"><circle cx="9" cy="15" r="1" stroke-linecap="square" data-color="color-2" vector-effect="non-scaling-stroke"/><path d="M12.644 8.874C12.004 5.377 9.436.7 7.818 1.015c-1.652.322-1.634 6.057-.658 9.207" data-cap="butt" data-color="color-2" vector-effect="non-scaling-stroke"/><path stroke-linecap="square" d="M21.118 1.21C19.357.22 15.548 3.479 14 6c-.531.865-1.06 2.001-1.462 3.175a6.665 6.665 0 0 0-3.467.116C5.994 10.23 4 13.22 4 16.438V18a5 5 0 0 0 5 5h1.782c3.44 0 6.522-2.393 7.112-5.782a6.957 6.957 0 0 0-.549-4.16c1.043-.93 2.006-2.05 2.655-3.058 1.498-2.324 2.969-7.75 1.118-8.79z" vector-effect="non-scaling-stroke"/></g></svg>
