<svg id="nc_icon" xmlns="http://www.w3.org/2000/svg" viewBox="0 0 24 24"><g fill="none" class="nc-icon-wrapper"><path stroke="currentColor" stroke-linecap="square" stroke-miterlimit="10" d="M7.437 22h9.126A10.993 10.993 0 0 0 23 12H1a10.993 10.993 0 0 0 6.437 10Z" vector-effect="non-scaling-stroke"/><path stroke="currentColor" stroke-miterlimit="10" d="m19 7 4-6M15.215 7 17 2" data-cap="butt" data-color="color-2" vector-effect="non-scaling-stroke"/><path stroke="currentColor" stroke-linecap="square" stroke-miterlimit="10" d="M20.829 9a2.99 2.99 0 0 0-5.023-1.033A2.962 2.962 0 0 0 11.53 6.4a2.984 2.984 0 0 0-5.352.618C6.118 7.014 6.061 7 6 7a3 3 0 0 0-2.829 2" data-color="color-2" vector-effect="non-scaling-stroke"/><circle cx="4" cy="3" r="1" data-cap="butt" data-stroke="none"/><circle cx="12" cy="2" r="1" data-cap="butt" data-stroke="none"/></g></svg>
