<svg id="nc_icon" xmlns="http://www.w3.org/2000/svg" viewBox="0 0 24 24"><g fill="none" class="nc-icon-wrapper"><path stroke="currentColor" stroke-linecap="square" stroke-miterlimit="10" d="M1 19h22" data-color="color-2" vector-effect="non-scaling-stroke"/><path stroke="currentColor" stroke-miterlimit="10" d="m18 7 3-3" data-cap="butt" vector-effect="non-scaling-stroke"/><circle cx="20" cy="3" r="1" stroke="currentColor" stroke-linecap="square" stroke-miterlimit="10" vector-effect="non-scaling-stroke"/><circle cx="22" cy="5" r="1" stroke="currentColor" stroke-linecap="square" stroke-miterlimit="10" vector-effect="non-scaling-stroke"/><circle cx="20" cy="3" r="1" data-cap="butt" data-stroke="none"/><circle cx="22" cy="5" r="1" data-cap="butt" data-stroke="none"/><path stroke="currentColor" stroke-linecap="square" stroke-miterlimit="10" d="M18 7c1.172 1.172-1.707 5.95-2.879 7.121a3 3 0 0 1-4.242-4.242C12.05 8.707 16.828 5.828 18 7Z" vector-effect="non-scaling-stroke"/><path stroke="currentColor" stroke-miterlimit="10" d="M18.045 9.073A7.618 7.618 0 0 1 21 15M3 15c0-4.418 4.029-8 9-8a10.005 10.005 0 0 1 2.8.394" data-cap="butt" vector-effect="non-scaling-stroke"/></g></svg>
