<svg id="nc_icon" xmlns="http://www.w3.org/2000/svg" xml:space="preserve" viewBox="0 0 24 24"><g fill="none" class="nc-icon-wrapper"><path stroke="currentColor" stroke-linecap="square" stroke-miterlimit="10" d="m21.45 15.278-6.172 6.172a2 2 0 0 1-2.828 0l-9.9-9.9a2 2 0 0 1 0-2.828L8.722 2.55a2 2 0 0 1 2.828 0l.451.451" vector-effect="non-scaling-stroke"/><circle cx="15.536" cy="15.536" r="1" data-stroke="none" transform="rotate(-45.001 15.535 15.536)"/><path stroke="currentColor" stroke-linecap="square" stroke-miterlimit="10" d="M15 6h8v5h-8zM17 6V3c0-1.1.9-2 2-2h0c1.1 0 2 .9 2 2v3M7 23a6 6 0 0 1-6-6" data-color="color-2" vector-effect="non-scaling-stroke"/></g></svg>
