<svg id="nc_icon" xmlns="http://www.w3.org/2000/svg" xml:space="preserve" viewBox="0 0 24 24"><g fill="none" stroke="currentColor" stroke-miterlimit="10" class="nc-icon-wrapper"><path d="M14 6H8a3 3 0 0 0-3 3v3" data-cap="butt" data-color="color-2" vector-effect="non-scaling-stroke"/><path stroke-linecap="square" d="m10 10 4-4-4-4" data-color="color-2" vector-effect="non-scaling-stroke"/><path stroke-linecap="square" d="M18.5 9h0a3.51 3.51 0 0 1 3.5 3.5h0a3.51 3.51 0 0 1-3.5 3.5h0a3.51 3.51 0 0 1-3.5-3.5h0A3.51 3.51 0 0 1 18.5 9zM5.5 16h0A3.51 3.51 0 0 1 9 19.5h0A3.51 3.51 0 0 1 5.5 23h0A3.51 3.51 0 0 1 2 19.5h0A3.51 3.51 0 0 1 5.5 16z" vector-effect="non-scaling-stroke"/></g></svg>
