<svg id="nc_icon" xmlns="http://www.w3.org/2000/svg" xml:space="preserve" viewBox="0 0 24 24"><g fill="none" stroke="currentColor" stroke-miterlimit="10" class="nc-icon-wrapper"><path stroke-linecap="square" d="M9 7c0-1.9 3-5 3-5s3 3.1 3 5-1.5 3-3 3-3-1.1-3-3z" data-color="color-2" vector-effect="non-scaling-stroke"/><path d="m6 18-1.46-3.651a1.79 1.79 0 0 1 3.308-1.37l1.505 3.512A8 8 0 0 1 10 19.642V23H4l-2.002-3.337A7 7 0 0 1 1 16.06V7h.004A2.77 2.77 0 0 1 3.63 8.894l1.21 3.627M18 18l1.46-3.651a1.79 1.79 0 0 0-3.308-1.37l-1.505 3.512A8 8 0 0 0 14 19.642V23h6l2.002-3.337A7 7 0 0 0 23 16.06V7h-.004a2.77 2.77 0 0 0-2.627 1.894l-1.21 3.627" data-cap="butt" vector-effect="non-scaling-stroke"/></g></svg>
