<svg id="nc_icon" xmlns="http://www.w3.org/2000/svg" xml:space="preserve" viewBox="0 0 24 24"><g fill="none" stroke="currentColor" stroke-miterlimit="10" class="nc-icon-wrapper"><path stroke-linecap="square" d="M3 21v2M8 21v2M13 21v2M11 1v2M16 1v2M21 1v2" data-color="color-2" vector-effect="non-scaling-stroke"/><path d="M13 14h6" data-cap="butt" vector-effect="non-scaling-stroke"/><path stroke-linecap="square" d="M15 9H5c-1.1 0-2 .9-2 2v10h10V11c0-1.1.9-2 2-2zM21 9v3c0 1.1-.9 2-2 2h0c-1.1 0-2-.9-2-2v-1c0-1.1-.9-2-2-2M11 9V3h10v6" vector-effect="non-scaling-stroke"/></g></svg>
