<svg id="nc_icon" xmlns="http://www.w3.org/2000/svg" xml:space="preserve" viewBox="0 0 24 24"><g fill="none" stroke="currentColor" stroke-linecap="square" stroke-miterlimit="10" class="nc-icon-wrapper"><path d="M5 1H2v3M2 11v3h3M19 14h3v-3M22 4V1h-3" data-color="color-2" vector-effect="non-scaling-stroke"/><path d="M12 13h0a5 5 0 0 1-5-5V7a5 5 0 0 1 5-5h0a5 5 0 0 1 5 5v1a5 5 0 0 1-5 5zM22 21.805a4.004 4.004 0 0 0-2.945-3.86C17.316 17.464 14.89 17 12 17s-5.316.464-7.055.945A4.005 4.005 0 0 0 2 21.805V23h20v-1.195z" vector-effect="non-scaling-stroke"/></g></svg>
