<svg id="nc_icon" xmlns="http://www.w3.org/2000/svg" xml:space="preserve" viewBox="0 0 24 24"><g fill="none" stroke="currentColor" stroke-miterlimit="10" class="nc-icon-wrapper"><path d="M13 5v7.2M10.2 14.1 3.6 7.6M9 17H1.5" data-cap="butt" data-color="color-2" vector-effect="non-scaling-stroke"/><path stroke-linecap="square" d="M16 8h1" data-color="color-2" vector-effect="non-scaling-stroke"/><path d="M9 1h11c1.7 0 3 1.3 3 3v1" data-cap="butt" vector-effect="non-scaling-stroke"/><path stroke-linecap="square" d="M10 5c-5 0-9 4-9 9s4 9 9 9h3c-2.2-.7-4-3-4-5.5 0-3 2.5-5.5 5.5-5.5H16c1.9 0 7-1.4 7-7H10zM13 23h8v-5z" vector-effect="non-scaling-stroke"/></g></svg>
