<svg id="nc_icon" xmlns="http://www.w3.org/2000/svg" xml:space="preserve" viewBox="0 0 24 24"><g fill="none" stroke="currentColor" stroke-miterlimit="10" class="nc-icon-wrapper"><path d="M9.962 12.567C9.84 13.698 9.311 16.23 7 17c-3 1-5 2.125-5 6h20c0-3.875-2-5-5-6-2.312-.771-2.84-3.302-2.962-4.433" data-cap="butt" data-color="color-2" vector-effect="non-scaling-stroke"/><path stroke-linecap="square" d="M12 13h0a5 5 0 0 1-5-5V6a5 5 0 0 1 5-5h0a5 5 0 0 1 5 5v2a5 5 0 0 1-5 5z" vector-effect="non-scaling-stroke"/></g></svg>
