<svg id="nc_icon" xmlns="http://www.w3.org/2000/svg" xml:space="preserve" viewBox="0 0 24 24"><g fill="none" stroke="currentColor" stroke-linecap="square" stroke-miterlimit="10" class="nc-icon-wrapper"><path d="M19 7c-.4 0-.7.1-1 .1V7c0-3.3-2.7-6-6-6-2.3 0-4.2 1.2-5.2 3.1C6.5 4 6.3 4 6 4 3.2 4 1 6.2 1 9c0 2.5 1.8 4.5 4.2 4.9.6 2.9 3.2 5.1 6.3 5.1 2.8 0 5.2-1.8 6.1-4.3.4.2.9.3 1.4.3 2.2 0 4-1.8 4-4s-1.8-4-4-4z" vector-effect="non-scaling-stroke"/><circle cx="3" cy="21" r="2" vector-effect="non-scaling-stroke"/><path d="M10 7h3l-3 5h4" data-color="color-2" vector-effect="non-scaling-stroke"/></g></svg>
