<svg id="nc_icon" xmlns="http://www.w3.org/2000/svg" viewBox="0 0 24 24"><g fill="none" stroke="currentColor" stroke-miterlimit="10" class="nc-icon-wrapper"><path d="m1 13 1.67-1.442a2.222 2.222 0 0 1 2.945 0l.984.849a2.224 2.224 0 0 0 2.945 0l.984-.849a2.222 2.222 0 0 1 2.945 0l.983.849a2.224 2.224 0 0 0 2.945 0l.984-.849a2.222 2.222 0 0 1 2.945 0L23 13" data-cap="butt" data-color="color-2" vector-effect="non-scaling-stroke"/><path stroke-linecap="square" d="M1 17h22v2a2 2 0 0 1-2 2H3a2 2 0 0 1-2-2v-2h0ZM3 3h18a2 2 0 0 1 2 2v2h0H1h0V5a2 2 0 0 1 2-2Z" vector-effect="non-scaling-stroke"/></g></svg>
