<svg id="nc_icon" xmlns="http://www.w3.org/2000/svg" xml:space="preserve" viewBox="0 0 24 24"><g fill="none" class="nc-icon-wrapper"><path stroke="currentColor" stroke-miterlimit="10" d="m14.935 3.093 5.947 5.947M12.603 4.387a8.002 8.002 0 0 0-8.824 1.692 7.98 7.98 0 0 0-1.229 1.6l3.428 3.428M19.597 11.345a7.998 7.998 0 0 1-1.676 8.876 7.98 7.98 0 0 1-1.6 1.229l-3.442-3.442" data-cap="butt" vector-effect="non-scaling-stroke"/><path stroke="currentColor" stroke-linecap="square" stroke-miterlimit="10" d="m10.143 19.514-5.657-5.657S9.318 1.836 22.871 1.129c-.767 13.494-12.728 18.385-12.728 18.385z" vector-effect="non-scaling-stroke"/><circle cx="14" cy="10" r="2" data-color="color-2" data-stroke="none" transform="rotate(-45.001 14 10)"/><path d="M1.113 18.844a2.843 2.843 0 1 1 4.022 4.022C4.024 23.977 0 24 0 24s.002-4.046 1.113-5.156z" data-color="color-2" data-stroke="none"/></g></svg>
