<svg id="nc_icon" xmlns="http://www.w3.org/2000/svg" xml:space="preserve" viewBox="0 0 24 24"><g fill="none" stroke="currentColor" stroke-linecap="square" stroke-miterlimit="10" class="nc-icon-wrapper"><path d="M5 2h1M5 6h1M5 10h1" data-color="color-2" vector-effect="non-scaling-stroke"/><path d="M16 11.8V4c0-1.7-1.3-3-3-3s-3 1.3-3 3v7.8c-1.8 1-3 3-3 5.2 0 3.3 2.7 6 6 6s6-2.7 6-6c0-2.2-1.2-4.2-3-5.2z" vector-effect="non-scaling-stroke"/><path d="M13 20c1.7 0 3-1.3 3-3h-6c0 1.7 1.3 3 3 3z" data-color="color-2" vector-effect="non-scaling-stroke"/></g></svg>
