<svg id="nc_icon" xmlns="http://www.w3.org/2000/svg" xml:space="preserve" viewBox="0 0 24 24"><g fill="none" stroke="currentColor" stroke-miterlimit="10" class="nc-icon-wrapper"><path stroke-linecap="square" d="M12 23h0a8 8 0 0 1-8-8V7a6 6 0 0 1 6-6h4a6 6 0 0 1 6 6v8a8 8 0 0 1-8 8zM4 14h0a3 3 0 0 1-3-3V8h0a3 3 0 0 1 3 3v3zM20 14h0a3 3 0 0 0 3-3V8h0a3 3 0 0 0-3 3v3z" vector-effect="non-scaling-stroke"/><path d="m10 16-1 2-1-2h8l-1 2-1-2" data-cap="butt" data-color="color-2" vector-effect="non-scaling-stroke"/><circle cx="9" cy="10" r="1" stroke-linecap="square" data-color="color-2" vector-effect="non-scaling-stroke"/><circle cx="15" cy="10" r="1" stroke-linecap="square" data-color="color-2" vector-effect="non-scaling-stroke"/><path stroke-linecap="square" d="M20 9a5 5 0 0 0-5-5c-1.13 0-2.162.39-3 1.023A4.955 4.955 0 0 0 9 4a5 5 0 0 0-5 5" vector-effect="non-scaling-stroke"/></g></svg>
