<svg id="nc_icon" xmlns="http://www.w3.org/2000/svg" xml:space="preserve" viewBox="0 0 24 24"><g fill="none" stroke="currentColor" stroke-miterlimit="10" class="nc-icon-wrapper"><path d="M15 5.7V4c0-1.7-1.3-3-3-3S9 2.3 9 4v1.7" data-cap="butt" data-color="color-2" vector-effect="non-scaling-stroke"/><path stroke-linecap="square" d="M5 12H4c-1.7 0-3-1.3-3-3V8M5 16H4c-1.7 0-3 1.3-3 3v1M19 12h1c1.7 0 3-1.3 3-3V8M19 16h4v4" data-color="color-2" vector-effect="non-scaling-stroke"/><path stroke-linecap="square" d="M19 16c0 3.9-3.1 7-7 7s-7-3.1-7-7v-4c0-3.9 3.1-7 7-7s7 3.1 7 7v4z" vector-effect="non-scaling-stroke"/></g></svg>
