<svg id="nc_icon" xmlns="http://www.w3.org/2000/svg" xml:space="preserve" viewBox="0 0 24 24"><g fill="none" stroke="currentColor" stroke-miterlimit="10" class="nc-icon-wrapper"><path d="M1.253 14.331C2.424 14.756 3.683 15 5 15c2.66 0 5.146-1.333 7-3M20.902 18.456a10.954 10.954 0 0 0-2-3.239C17.13 13.235 14.479 12.271 12 12M11.822 1.004a10.954 10.954 0 0 0-1.39 3.544C9.91 7.155 10.728 9.855 12 12" data-cap="butt" data-color="color-2" vector-effect="non-scaling-stroke"/><path d="M17.328 13.852c-1.89 3.835-4.756 6.385-12.917 6.11M7.178 14.71C4.25 11.207 4.35 5.954 5.446 3.164M10.284 6.659c4.05-.92 7.776-.242 12.693 6.052" data-cap="butt" data-color="color-2" vector-effect="non-scaling-stroke"/><circle cx="12" cy="12" r="11" stroke-linecap="square" vector-effect="non-scaling-stroke"/></g></svg>
