<svg id="nc_icon" xmlns="http://www.w3.org/2000/svg" xml:space="preserve" viewBox="0 0 24 24"><g fill="none" stroke="currentColor" stroke-miterlimit="10" class="nc-icon-wrapper"><path d="M18 11.6c.6.3 1.3.4 2 .4 1.1 0 2.2-.4 3-1M1 11c.8.6 1.9 1 3 1 .9 0 1.8-.3 2.5-.7" data-cap="butt" data-color="color-2" vector-effect="non-scaling-stroke"/><path stroke-linecap="square" d="M1 4v18h22V4" vector-effect="non-scaling-stroke"/><path stroke-linecap="square" d="M9 2v3.8l-3 3c-.6.6-.6 1.6 0 2.2.6.6 1.5.6 2.1 0l.9-.9V16c0 .6.4 1 1 1h7c.6 0 1-.4 1-1V2H9zM12 17v-4M15 17v-4" vector-effect="non-scaling-stroke"/></g></svg>
