<svg id="nc_icon" xmlns="http://www.w3.org/2000/svg" xml:space="preserve" viewBox="0 0 24 24"><g fill="none" stroke="currentColor" stroke-miterlimit="10" class="nc-icon-wrapper"><path d="M19.7 15.7C18.2 17.1 16.2 18 14 18c-4.4 0-8-3.6-8-8 0-2.2.9-4.2 2.3-5.7" data-cap="butt" data-color="color-2" vector-effect="non-scaling-stroke"/><path stroke-linecap="square" d="M17.6 13.6c-.5.3-1 .4-1.6.4-1.7 0-3-1.3-3-3-1.7 0-3-1.3-3-3 0-.6.2-1.1.4-1.6l-5-5C.7 6.1.7 13.8 5.4 18.5s12.4 4.7 17.1 0l-4.9-4.9z" vector-effect="non-scaling-stroke"/></g></svg>
