<svg id="nc_icon" xmlns="http://www.w3.org/2000/svg" xml:space="preserve" viewBox="0 0 24 24"><g fill="none" stroke="currentColor" stroke-linecap="square" stroke-miterlimit="10" class="nc-icon-wrapper"><path d="M5 6h0a2 2 0 0 1-2-2h0a2 2 0 0 1 2-2h0a2 2 0 0 1 2 2h0a2 2 0 0 1-2 2zM7 22H3v-5H1v-6a2 2 0 0 1 2-2h4a2 2 0 0 1 2 2v6H7v5z" vector-effect="non-scaling-stroke"/><path d="M17 6h0a2 2 0 0 1-2-2h0a2 2 0 0 1 2-2h0a2 2 0 0 1 2 2h0a2 2 0 0 1-2 2zM19 22h-4v-4h-3l3-9h4l3 9h-3z" data-color="color-2" vector-effect="non-scaling-stroke"/></g></svg>
