<svg id="nc_icon" xmlns="http://www.w3.org/2000/svg" xml:space="preserve" viewBox="0 0 24 24"><g fill="none" stroke="currentColor" stroke-miterlimit="10" class="nc-icon-wrapper"><path d="M20 7h3M1 7h11.4M20.3 3H23v20H1V3h15.4" data-cap="butt" vector-effect="non-scaling-stroke"/><path stroke-linecap="square" d="M6 3v4" vector-effect="non-scaling-stroke"/><path stroke-linecap="square" d="m12.6 10.8-2-2L18 1.4c.6-.6 1.4-.6 2 0h0c.6.6.6 1.4 0 2l-7.4 7.4zM6.8 11.8c.8-.8 2-.8 2.8 0 .8.8.8 2 0 2.8-.8.8-3.5.7-3.5.7s-.1-2.8.7-3.5z" data-color="color-2" vector-effect="non-scaling-stroke"/></g></svg>
