<svg id="nc_icon" xmlns="http://www.w3.org/2000/svg" xml:space="preserve" viewBox="0 0 24 24"><path fill="none" stroke="currentColor" stroke-linecap="square" stroke-miterlimit="10" d="M21.492 18.615c-1.842-.47-4.791-1.22-5.4-1.368-.887-.215-1.591-.721-1.75-1.633-.063-.363.227-.685.595-.717 2.48-.212 3.784-.774 5.063-1.897-2.417-2.083-3-4.821-3-7a4.998 4.998 0 0 0-5-4.997C9.239 1.003 7 3.239 7 6c0 2.179-.583 4.917-3 7 1.279 1.123 2.583 1.685 5.064 1.897.368.031.658.353.595.717-.159.912-.863 1.418-1.75 1.633-.61.148-3.558.898-5.4 1.368a1.988 1.988 0 0 0-1.502 1.936c.001.632.002 1.451.001 2.449h21.983c0-.998.001-1.817.003-2.449a1.99 1.99 0 0 0-1.502-1.936z" class="nc-icon-wrapper" vector-effect="non-scaling-stroke"/></svg>
