<svg id="nc_icon" xmlns="http://www.w3.org/2000/svg" xml:space="preserve" viewBox="0 0 24 24"><g fill="none" stroke="currentColor" stroke-miterlimit="10" class="nc-icon-wrapper"><path d="M5.704 2.979c.694.513 1.257 1.164 1.767 2.02C7.917 5.746 8.908 7.826 8 9c-1.027 1.328-4 1.776-4 3 0 .921 1.304 1.972 2 3 1.047 1.546.571 3.044 0 4-.296.496-.769.92-1.293 1.234M20.668 5.227C18.509 6.262 15.542 6.961 15 7c-1.045.075-1.2-.784-2-2-.6-.912-2-2.053-2-3 0-.371.036-.672.131-.966" data-cap="butt" data-color="color-2" vector-effect="non-scaling-stroke"/><circle cx="12" cy="12" r="11" stroke-linecap="square" vector-effect="non-scaling-stroke"/><path d="M19.014 12.903c.042 3.084-3.972 6.93-6.014 6.097-1.79-.73-.527-2.138-.986-6.097-.191-1.646 1.567-3 3.5-3s3.478 1.344 3.5 3z" data-cap="butt" data-color="color-2" vector-effect="non-scaling-stroke"/></g></svg>
