<?xml version="1.0" encoding="UTF-8"?>
<svg width="16px" height="16px" viewBox="0 0 16 16" version="1.1" xmlns="http://www.w3.org/2000/svg" xmlns:xlink="http://www.w3.org/1999/xlink">
    <title>Icons / Brizy / logo</title>
    <g id="Icons-/-Brizy-/-logo" stroke="none" stroke-width="1" fill="none" fill-rule="evenodd">
        <path d="M8.31363932,1.00097401 C14.6921658,1.04143425 14.9865593,2.3548823 15.0001467,7.26264889 L15.0001467,8.73850282 C14.9863402,13.7254269 14.6825962,15.0011517 8.00022831,15.0011517 C1.42392978,15.0011517 1.02536623,13.7656047 1.00121086,8.97318 L0.999847253,8.49821537 C0.999652451,8.33614065 0.999652451,8.17028679 0.999652451,8.00057586 L0.999676802,7.74889252 C0.999701152,7.66595585 0.999749852,7.58397371 0.999847253,7.50293635 L1.00121086,7.02797171 C1.02536623,2.235547 1.42392978,1 8.00022831,1 Z M4.3880998,8.44637849 L3.57881198,9.29081447 L8.09695816,11.9481732 L12.6151044,9.29081447 L11.8298616,8.46052061 L8.09695816,10.6253103 L4.3880998,8.44637849 Z M8.09695816,3.94761089 L3.57881198,6.65368016 L8.09695816,9.3597494 L12.6151044,6.65368016 L8.09695816,3.94761089 Z M8.09695816,5.24430492 L10.5506638,6.71811036 L8.09695816,8.19191581 L5.64325255,6.71811036 L8.09695816,5.24430492 Z" id="Combined-Shape" fill="#03080F" fill-rule="nonzero"></path>
    </g>
</svg>