<?xml version="1.0" encoding="UTF-8"?>
<svg width="16px" height="16px" viewBox="0 0 16 16" version="1.1" xmlns="http://www.w3.org/2000/svg" xmlns:xlink="http://www.w3.org/1999/xlink">
    <title>Icons / Brizy / logo</title>
    <g id="Icons-/-Brizy-/-logo" stroke="none" stroke-width="1" fill="none" fill-rule="evenodd">
        <path d="M8.3240717,0.00090899043 C16.000064,0.0447379588 16.000064,1.68773199 16.000064,8.00028801 L16.0000434,8.26061711 C15.9985627,14.4440554 15.890471,16.000576 7.99977599,16.000576 C0.437859927,16.000576 0.0235083622,14.5710631 0.000804166805,9.00967047 L0.000804166805,6.99090555 C0.0235083622,1.4295129 0.437859927,5.32907052e-15 7.99977599,5.32907052e-15 Z M3.87182009,8.50975316 L2.94696251,9.47477822 L8.11031928,12.5116191 L13.2736761,9.47477822 L12.3762972,8.52591484 L8.11031928,10.9998458 L3.87182009,8.50975316 Z M8.11031928,3.36854232 L2.94696251,6.46104985 L8.11031928,9.55355735 L13.2736761,6.46104985 L8.11031928,3.36854232 Z M8.11031928,4.8504098 L10.9144246,6.53468096 L8.11031928,8.21895212 L5.30621402,6.53468096 L8.11031928,4.8504098 Z" id="Combined-Shape" fill="#03080F" fill-rule="nonzero"></path>
    </g>
</svg>