<svg xmlns="http://www.w3.org/2000/svg" width="16" height="16" viewBox="0 0 16 16">
    <symbol id="circle" viewBox="0 0 16 16">
        <g class="nc-icon-wrapper" fill="#111111">
            <g class="nc-loop_circle-02-16" transform="rotate(46.097857151180506 8 8)">
                <path opacity="0.4" fill="#111111"
                      d="M8,16c-4.4111328,0-8-3.5888672-8-8s3.5888672-8,8-8s8,3.5888672,8,8S12.4111328,16,8,16z M8,2C4.6914062,2,2,4.6914062,2,8s2.6914062,6,6,6s6-2.6914062,6-6S11.3085938,2,8,2z"></path>
                <path data-color="color-2"
                      d="M16,8h-2c0-3.3085938-2.6914062-6-6-6V0C12.4111328,0,16,3.5888672,16,8z"></path>
            </g>
        </g>
    </symbol>
</svg>